<?xml version="1.0" encoding="UTF-8" standalone="no"?>
<!DOCTYPE svg PUBLIC "-//W3C//DTD SVG 1.1//EN"
 "http://www.w3.org/Graphics/SVG/1.1/DTD/svg11.dtd">
<!-- Generated by graphviz version 2.43.0 (0)
 -->
<!-- Title: itk::simple::SITK_FINAL Pages: 1 -->
<svg width="2135pt" height="293pt"
 viewBox="0.00 0.00 2135.00 293.00" xmlns="http://www.w3.org/2000/svg" xmlns:xlink="http://www.w3.org/1999/xlink">
<g id="graph0" class="graph" transform="scale(1 1) rotate(0) translate(4 289)">
<title>itk::simple::SITK_FINAL</title>
<polygon fill="white" stroke="transparent" points="-4,4 -4,-289 2131,-289 2131,4 -4,4"/>
<!-- Node1 -->
<g id="node1" class="node">
<title>Node1</title>
<g id="a_node1"><a xlink:title=" ">
<polygon fill="#bfbfbf" stroke="black" points="1997,-88.5 1997,-107.5 2127,-107.5 2127,-88.5 1997,-88.5"/>
<text text-anchor="middle" x="2062" y="-95.5" font-family="Helvetica,sans-Serif" font-size="10.00">itk::simple::SITK_FINAL</text>
</a>
</g>
</g>
<!-- Node2 -->
<g id="node2" class="node">
<title>Node2</title>
<g id="a_node2"><a xlink:href="classitk_1_1simple_1_1LoggerBase.html" target="_top" xlink:title="A base class to handle SimpleITK and ITK messages and logging.">
<polygon fill="white" stroke="black" points="1829,-114.5 1829,-133.5 1960,-133.5 1960,-114.5 1829,-114.5"/>
<text text-anchor="middle" x="1894.5" y="-121.5" font-family="Helvetica,sans-Serif" font-size="10.00">itk::simple::LoggerBase</text>
</a>
</g>
</g>
<!-- Node2&#45;&gt;Node1 -->
<g id="edge1" class="edge">
<title>Node2&#45;&gt;Node1</title>
<path fill="none" stroke="midnightblue" d="M1966.09,-112.91C1977.48,-111.12 1989.19,-109.28 2000.32,-107.53"/>
<polygon fill="midnightblue" stroke="midnightblue" points="1965.52,-109.46 1956.19,-114.47 1966.61,-116.37 1965.52,-109.46"/>
</g>
<!-- Node3 -->
<g id="node3" class="node">
<title>Node3</title>
<g id="a_node3"><a xlink:href="classitk_1_1simple_1_1ObjectOwnedBase.html" target="_top" xlink:title="An abstract base class to connect this object with the lifetime of another.">
<polygon fill="white" stroke="black" points="1538,-132.5 1538,-151.5 1702,-151.5 1702,-132.5 1538,-132.5"/>
<text text-anchor="middle" x="1620" y="-139.5" font-family="Helvetica,sans-Serif" font-size="10.00">itk::simple::ObjectOwnedBase</text>
</a>
</g>
</g>
<!-- Node3&#45;&gt;Node2 -->
<g id="edge2" class="edge">
<title>Node3&#45;&gt;Node2</title>
<path fill="none" stroke="midnightblue" d="M1712.13,-135.98C1750.35,-133.46 1793.92,-130.58 1828.77,-128.28"/>
<polygon fill="midnightblue" stroke="midnightblue" points="1711.77,-132.5 1702.02,-136.65 1712.23,-139.48 1711.77,-132.5"/>
</g>
<!-- Node4 -->
<g id="node4" class="node">
<title>Node4</title>
<g id="a_node4"><a xlink:href="classitk_1_1simple_1_1NonCopyable.html" target="_top" xlink:title="An inheritable class to disable copying of a class.">
<polygon fill="white" stroke="black" points="1204,-107.5 1204,-126.5 1344,-126.5 1344,-107.5 1204,-107.5"/>
<text text-anchor="middle" x="1274" y="-114.5" font-family="Helvetica,sans-Serif" font-size="10.00">itk::simple::NonCopyable</text>
</a>
</g>
</g>
<!-- Node4&#45;&gt;Node3 -->
<g id="edge3" class="edge">
<title>Node4&#45;&gt;Node3</title>
<path fill="none" stroke="midnightblue" d="M1354.26,-122.76C1409.28,-126.76 1482.38,-132.07 1537.82,-136.1"/>
<polygon fill="midnightblue" stroke="midnightblue" points="1354.43,-119.26 1344.2,-122.03 1353.92,-126.24 1354.43,-119.26"/>
</g>
<!-- Node5 -->
<g id="node5" class="node">
<title>Node5</title>
<g id="a_node5"><a xlink:title=" ">
<polygon fill="white" stroke="#bfbfbf" points="1209.5,-145.5 1209.5,-186.5 1338.5,-186.5 1338.5,-145.5 1209.5,-145.5"/>
<text text-anchor="start" x="1217.5" y="-174.5" font-family="Helvetica,sans-Serif" font-size="10.00">std::multimap&lt; itk</text>
<text text-anchor="start" x="1217.5" y="-163.5" font-family="Helvetica,sans-Serif" font-size="10.00">::Object *, std::function</text>
<text text-anchor="middle" x="1274" y="-152.5" font-family="Helvetica,sans-Serif" font-size="10.00">&lt; void()&gt; &gt;</text>
</a>
</g>
</g>
<!-- Node5&#45;&gt;Node3 -->
<g id="edge4" class="edge">
<title>Node5&#45;&gt;Node3</title>
<path fill="none" stroke="#9a32cd" stroke-dasharray="5,2" d="M1349.03,-160.84C1404.59,-156.96 1480.62,-151.65 1537.84,-147.66"/>
<polygon fill="#9a32cd" stroke="#9a32cd" points="1348.63,-157.35 1338.9,-161.54 1349.12,-164.34 1348.63,-157.35"/>
<text text-anchor="middle" x="1441" y="-163" font-family="Helvetica,sans-Serif" font-size="10.00"> m_ReferencedObjectsCallbacks</text>
</g>
<!-- Node6 -->
<g id="node6" class="node">
<title>Node6</title>
<g id="a_node6"><a xlink:href="https://www.itk.org/Doxygen/html/classitk_1_1Object.html" xlink:title=" ">
<polygon fill="white" stroke="black" points="1032,-131.5 1032,-150.5 1099,-150.5 1099,-131.5 1032,-131.5"/>
<text text-anchor="middle" x="1065.5" y="-138.5" font-family="Helvetica,sans-Serif" font-size="10.00">itk::Object</text>
</a>
</g>
</g>
<!-- Node6&#45;&gt;Node5 -->
<g id="edge5" class="edge">
<title>Node6&#45;&gt;Node5</title>
<path fill="none" stroke="#9a32cd" stroke-dasharray="5,2" d="M1109.38,-146.19C1138.24,-149.68 1176.78,-154.35 1209.21,-158.28"/>
<polygon fill="#9a32cd" stroke="#9a32cd" points="1109.57,-142.69 1099.22,-144.96 1108.73,-149.64 1109.57,-142.69"/>
<text text-anchor="middle" x="1152" y="-158" font-family="Helvetica,sans-Serif" font-size="10.00"> keys</text>
</g>
<!-- Node20 -->
<g id="node20" class="node">
<title>Node20</title>
<g id="a_node20"><a xlink:href="https://www.itk.org/Doxygen/html/classitk_1_1OutputWindow.html" xlink:title=" ">
<polygon fill="white" stroke="black" points="1220.5,-49.5 1220.5,-68.5 1327.5,-68.5 1327.5,-49.5 1220.5,-49.5"/>
<text text-anchor="middle" x="1274" y="-56.5" font-family="Helvetica,sans-Serif" font-size="10.00">itk::OutputWindow</text>
</a>
</g>
</g>
<!-- Node6&#45;&gt;Node20 -->
<g id="edge26" class="edge">
<title>Node6&#45;&gt;Node20</title>
<path fill="none" stroke="midnightblue" d="M1100.07,-127.67C1141.89,-111.06 1212.32,-83.1 1249.06,-68.51"/>
<polygon fill="midnightblue" stroke="midnightblue" points="1098.59,-124.49 1090.59,-131.43 1101.18,-131 1098.59,-124.49"/>
</g>
<!-- Node7 -->
<g id="node7" class="node">
<title>Node7</title>
<g id="a_node7"><a xlink:href="https://www.itk.org/Doxygen/html/classitk_1_1LightObject.html" xlink:title=" ">
<polygon fill="white" stroke="black" points="765.5,-76.5 765.5,-95.5 856.5,-95.5 856.5,-76.5 765.5,-76.5"/>
<text text-anchor="middle" x="811" y="-83.5" font-family="Helvetica,sans-Serif" font-size="10.00">itk::LightObject</text>
</a>
</g>
</g>
<!-- Node7&#45;&gt;Node6 -->
<g id="edge6" class="edge">
<title>Node7&#45;&gt;Node6</title>
<path fill="none" stroke="midnightblue" d="M866.7,-90.79C907.61,-95.32 964.6,-103.61 1013,-118 1024.45,-121.4 1036.68,-126.79 1046.35,-131.49"/>
<polygon fill="midnightblue" stroke="midnightblue" points="866.97,-87.3 856.66,-89.72 866.23,-94.26 866.97,-87.3"/>
</g>
<!-- Node8 -->
<g id="node8" class="node">
<title>Node8</title>
<g id="a_node8"><a xlink:title=" ">
<polygon fill="white" stroke="#bfbfbf" points="465,-76.5 465,-95.5 572,-95.5 572,-76.5 465,-76.5"/>
<text text-anchor="middle" x="518.5" y="-83.5" font-family="Helvetica,sans-Serif" font-size="10.00">std::atomic&lt; int &gt;</text>
</a>
</g>
</g>
<!-- Node8&#45;&gt;Node7 -->
<g id="edge7" class="edge">
<title>Node8&#45;&gt;Node7</title>
<path fill="none" stroke="#9a32cd" stroke-dasharray="5,2" d="M582.13,-86C637.33,-86 716.39,-86 765.4,-86"/>
<polygon fill="#9a32cd" stroke="#9a32cd" points="582.11,-82.5 572.11,-86 582.11,-89.5 582.11,-82.5"/>
<text text-anchor="middle" x="668.5" y="-89" font-family="Helvetica,sans-Serif" font-size="10.00"> m_ReferenceCount</text>
</g>
<!-- Node9 -->
<g id="node9" class="node">
<title>Node9</title>
<g id="a_node9"><a xlink:title="STL class.">
<polygon fill="white" stroke="#bfbfbf" points="127,-88.5 127,-107.5 227,-107.5 227,-88.5 127,-88.5"/>
<text text-anchor="middle" x="177" y="-95.5" font-family="Helvetica,sans-Serif" font-size="10.00">std::atomic&lt; T &gt;</text>
</a>
</g>
</g>
<!-- Node9&#45;&gt;Node8 -->
<g id="edge8" class="edge">
<title>Node9&#45;&gt;Node8</title>
<path fill="none" stroke="orange" stroke-dasharray="5,2" d="M237.22,-92.36C244.22,-91.83 251.27,-91.36 258,-91 329.54,-87.19 412.32,-86.18 464.78,-85.97"/>
<polygon fill="orange" stroke="orange" points="236.73,-88.89 227.04,-93.18 237.29,-95.87 236.73,-88.89"/>
<text text-anchor="middle" x="342" y="-94" font-family="Helvetica,sans-Serif" font-size="10.00"> &lt; int &gt;</text>
</g>
<!-- Node18 -->
<g id="node18" class="node">
<title>Node18</title>
<g id="a_node18"><a xlink:href="https://www.itk.org/Doxygen/html/classitk_1_1TimeStamp.html" xlink:title=" ">
<polygon fill="white" stroke="black" points="622.5,-118.5 622.5,-137.5 714.5,-137.5 714.5,-118.5 622.5,-118.5"/>
<text text-anchor="middle" x="668.5" y="-125.5" font-family="Helvetica,sans-Serif" font-size="10.00">itk::TimeStamp</text>
</a>
</g>
</g>
<!-- Node9&#45;&gt;Node18 -->
<g id="edge20" class="edge">
<title>Node9&#45;&gt;Node18</title>
<path fill="none" stroke="#9a32cd" stroke-dasharray="5,2" d="M237.32,-101.64C336.42,-107.71 533.51,-119.79 622.29,-125.23"/>
<polygon fill="#9a32cd" stroke="#9a32cd" points="237.37,-98.13 227.18,-101.01 236.94,-105.12 237.37,-98.13"/>
<text text-anchor="middle" x="342" y="-116" font-family="Helvetica,sans-Serif" font-size="10.00"> m_GlobalTimeStamp</text>
</g>
<!-- Node21 -->
<g id="node21" class="node">
<title>Node21</title>
<g id="a_node21"><a xlink:title=" ">
<polygon fill="white" stroke="#bfbfbf" points="611,-38.5 611,-57.5 726,-57.5 726,-38.5 611,-38.5"/>
<text text-anchor="middle" x="668.5" y="-45.5" font-family="Helvetica,sans-Serif" font-size="10.00">std::atomic&lt; bool &gt;</text>
</a>
</g>
</g>
<!-- Node9&#45;&gt;Node21 -->
<g id="edge28" class="edge">
<title>Node9&#45;&gt;Node21</title>
<path fill="none" stroke="orange" stroke-dasharray="5,2" d="M211.83,-84.89C225.89,-79.99 242.53,-74.92 258,-72 382.39,-48.54 531.47,-46.09 610.98,-46.78"/>
<polygon fill="orange" stroke="orange" points="210.31,-81.71 202.09,-88.38 212.68,-88.3 210.31,-81.71"/>
<text text-anchor="middle" x="342" y="-75" font-family="Helvetica,sans-Serif" font-size="10.00"> &lt; bool &gt;</text>
</g>
<!-- Node10 -->
<g id="node10" class="node">
<title>Node10</title>
<g id="a_node10"><a xlink:title=" ">
<polygon fill="white" stroke="#bfbfbf" points="0,-148.5 0,-167.5 29,-167.5 29,-148.5 0,-148.5"/>
<text text-anchor="middle" x="14.5" y="-155.5" font-family="Helvetica,sans-Serif" font-size="10.00">T</text>
</a>
</g>
</g>
<!-- Node10&#45;&gt;Node9 -->
<g id="edge9" class="edge">
<title>Node10&#45;&gt;Node9</title>
<path fill="none" stroke="#9a32cd" stroke-dasharray="5,2" d="M27.73,-140.15C32.95,-133.81 39.56,-127.21 47,-123 71.23,-109.3 101.66,-102.98 126.88,-100.12"/>
<polygon fill="#9a32cd" stroke="#9a32cd" points="24.74,-138.3 21.52,-148.39 30.33,-142.51 24.74,-138.3"/>
<text text-anchor="middle" x="71.5" y="-126" font-family="Helvetica,sans-Serif" font-size="10.00"> ptr</text>
</g>
<!-- Node15 -->
<g id="node15" class="node">
<title>Node15</title>
<g id="a_node15"><a xlink:title="STL class.">
<polygon fill="white" stroke="#bfbfbf" points="126.5,-182.5 126.5,-201.5 227.5,-201.5 227.5,-182.5 126.5,-182.5"/>
<text text-anchor="middle" x="177" y="-189.5" font-family="Helvetica,sans-Serif" font-size="10.00">std::map&lt; K, T &gt;</text>
</a>
</g>
</g>
<!-- Node10&#45;&gt;Node15 -->
<g id="edge16" class="edge">
<title>Node10&#45;&gt;Node15</title>
<path fill="none" stroke="#9a32cd" stroke-dasharray="5,2" d="M39.19,-163.02C63.26,-168.12 101.14,-176.14 130.94,-182.45"/>
<polygon fill="#9a32cd" stroke="#9a32cd" points="39.69,-159.55 29.18,-160.9 38.24,-166.4 39.69,-159.55"/>
<text text-anchor="middle" x="71.5" y="-178" font-family="Helvetica,sans-Serif" font-size="10.00"> elements</text>
</g>
<!-- Node17 -->
<g id="node17" class="node">
<title>Node17</title>
<g id="a_node17"><a xlink:title="STL class.">
<polygon fill="white" stroke="#bfbfbf" points="118,-138.5 118,-157.5 236,-157.5 236,-138.5 118,-138.5"/>
<text text-anchor="middle" x="177" y="-145.5" font-family="Helvetica,sans-Serif" font-size="10.00">std::shared_ptr&lt; T &gt;</text>
</a>
</g>
</g>
<!-- Node10&#45;&gt;Node17 -->
<g id="edge18" class="edge">
<title>Node10&#45;&gt;Node17</title>
<path fill="none" stroke="#9a32cd" stroke-dasharray="5,2" d="M38.29,-144.89C41.15,-143.71 44.09,-142.7 47,-142 69.89,-136.52 95.71,-136.54 118.2,-138.48"/>
<polygon fill="#9a32cd" stroke="#9a32cd" points="36.55,-141.84 29.07,-149.35 39.59,-148.15 36.55,-141.84"/>
<text text-anchor="middle" x="71.5" y="-145" font-family="Helvetica,sans-Serif" font-size="10.00"> ptr</text>
</g>
<!-- Node19 -->
<g id="node19" class="node">
<title>Node19</title>
<g id="a_node19"><a xlink:title="STL class.">
<polygon fill="white" stroke="#bfbfbf" points="114,-253.5 114,-272.5 240,-272.5 240,-253.5 114,-253.5"/>
<text text-anchor="middle" x="177" y="-260.5" font-family="Helvetica,sans-Serif" font-size="10.00">std::multimap&lt; K, T &gt;</text>
</a>
</g>
</g>
<!-- Node10&#45;&gt;Node19 -->
<g id="edge23" class="edge">
<title>Node10&#45;&gt;Node19</title>
<path fill="none" stroke="#9a32cd" stroke-dasharray="5,2" d="M31.73,-174.69C36.42,-179.01 41.7,-183.44 47,-187 66.97,-200.41 75.03,-198.21 96,-210 120.4,-223.71 147.23,-242.25 162.79,-253.38"/>
<polygon fill="#9a32cd" stroke="#9a32cd" points="34.13,-172.14 24.51,-167.7 29.26,-177.17 34.13,-172.14"/>
<text text-anchor="middle" x="71.5" y="-213" font-family="Helvetica,sans-Serif" font-size="10.00"> elements</text>
</g>
<!-- Node11 -->
<g id="node11" class="node">
<title>Node11</title>
<g id="a_node11"><a xlink:title="STL class.">
<polygon fill="white" stroke="#bfbfbf" points="778.5,-207.5 778.5,-226.5 843.5,-226.5 843.5,-207.5 778.5,-207.5"/>
<text text-anchor="middle" x="811" y="-214.5" font-family="Helvetica,sans-Serif" font-size="10.00">std::string</text>
</a>
</g>
</g>
<!-- Node11&#45;&gt;Node3 -->
<g id="edge24" class="edge">
<title>Node11&#45;&gt;Node3</title>
<path fill="none" stroke="#9a32cd" stroke-dasharray="5,2" d="M853.76,-215.94C894.42,-214.87 957.96,-213.07 1013,-211 1238.74,-202.52 1299.56,-224.35 1520,-175 1546.17,-169.14 1575.17,-159.03 1594.98,-151.54"/>
<polygon fill="#9a32cd" stroke="#9a32cd" points="853.59,-212.44 843.68,-216.21 853.77,-219.44 853.59,-212.44"/>
<text text-anchor="middle" x="1152" y="-212" font-family="Helvetica,sans-Serif" font-size="10.00"> m_Name</text>
</g>
<!-- Node11&#45;&gt;Node6 -->
<g id="edge10" class="edge">
<title>Node11&#45;&gt;Node6</title>
<path fill="none" stroke="#9a32cd" stroke-dasharray="5,2" d="M853.75,-208.54C912.36,-196.65 1012.07,-176.39 1013,-176 1027.94,-169.7 1043.05,-158.77 1053.01,-150.79"/>
<polygon fill="#9a32cd" stroke="#9a32cd" points="852.77,-205.16 843.66,-210.58 854.16,-212.02 852.77,-205.16"/>
<text text-anchor="middle" x="954.5" y="-203" font-family="Helvetica,sans-Serif" font-size="10.00"> m_ObjectName</text>
</g>
<!-- Node12 -->
<g id="node12" class="node">
<title>Node12</title>
<g id="a_node12"><a xlink:title="STL class.">
<polygon fill="white" stroke="#bfbfbf" points="466.5,-203 466.5,-233 570.5,-233 570.5,-203 466.5,-203"/>
<text text-anchor="start" x="474.5" y="-221" font-family="Helvetica,sans-Serif" font-size="10.00">std::basic_string&lt;</text>
<text text-anchor="middle" x="518.5" y="-210" font-family="Helvetica,sans-Serif" font-size="10.00"> char &gt;</text>
</a>
</g>
</g>
<!-- Node12&#45;&gt;Node11 -->
<g id="edge11" class="edge">
<title>Node12&#45;&gt;Node11</title>
<path fill="none" stroke="midnightblue" d="M580.92,-217.79C641.22,-217.58 730.81,-217.27 778.1,-217.11"/>
<polygon fill="midnightblue" stroke="midnightblue" points="580.75,-214.29 570.77,-217.82 580.78,-221.29 580.75,-214.29"/>
</g>
<!-- Node13 -->
<g id="node13" class="node">
<title>Node13</title>
<g id="a_node13"><a xlink:href="https://www.itk.org/Doxygen/html/classitk_1_1MetaDataDictionary.html" xlink:title=" ">
<polygon fill="white" stroke="black" points="744,-161.5 744,-180.5 878,-180.5 878,-161.5 744,-161.5"/>
<text text-anchor="middle" x="811" y="-168.5" font-family="Helvetica,sans-Serif" font-size="10.00">itk::MetaDataDictionary</text>
</a>
</g>
</g>
<!-- Node13&#45;&gt;Node6 -->
<g id="edge12" class="edge">
<title>Node13&#45;&gt;Node6</title>
<path fill="none" stroke="#9a32cd" stroke-dasharray="5,2" d="M888.08,-161.96C936.15,-156.25 995.81,-149.16 1031.98,-144.86"/>
<polygon fill="#9a32cd" stroke="#9a32cd" points="887.53,-158.5 878.01,-163.16 888.35,-165.45 887.53,-158.5"/>
<text text-anchor="middle" x="954.5" y="-164" font-family="Helvetica,sans-Serif" font-size="10.00"> m_MetaDataDictionary</text>
</g>
<!-- Node14 -->
<g id="node14" class="node">
<title>Node14</title>
<g id="a_node14"><a xlink:title=" ">
<polygon fill="white" stroke="#bfbfbf" points="444,-154 444,-184 593,-184 593,-154 444,-154"/>
<text text-anchor="start" x="452" y="-172" font-family="Helvetica,sans-Serif" font-size="10.00">std::shared_ptr&lt; MetaData</text>
<text text-anchor="middle" x="518.5" y="-161" font-family="Helvetica,sans-Serif" font-size="10.00">DictionaryMapType &gt;</text>
</a>
</g>
</g>
<!-- Node14&#45;&gt;Node13 -->
<g id="edge13" class="edge">
<title>Node14&#45;&gt;Node13</title>
<path fill="none" stroke="#9a32cd" stroke-dasharray="5,2" d="M603.43,-169.58C648.08,-169.89 702.2,-170.26 743.84,-170.54"/>
<polygon fill="#9a32cd" stroke="#9a32cd" points="603.2,-166.08 593.18,-169.51 603.16,-173.08 603.2,-166.08"/>
<text text-anchor="middle" x="668.5" y="-174" font-family="Helvetica,sans-Serif" font-size="10.00"> m_Dictionary</text>
</g>
<!-- Node15&#45;&gt;Node14 -->
<g id="edge14" class="edge">
<title>Node15&#45;&gt;Node14</title>
<path fill="none" stroke="#9a32cd" stroke-dasharray="5,2" d="M237.74,-187.95C295.17,-184.06 382.11,-178.17 443.8,-173.99"/>
<polygon fill="#9a32cd" stroke="#9a32cd" points="237.47,-184.46 227.73,-188.63 237.94,-191.45 237.47,-184.46"/>
<text text-anchor="middle" x="342" y="-190" font-family="Helvetica,sans-Serif" font-size="10.00"> ptr</text>
</g>
<!-- Node16 -->
<g id="node16" class="node">
<title>Node16</title>
<g id="a_node16"><a xlink:title=" ">
<polygon fill="white" stroke="#bfbfbf" points="0,-250.5 0,-269.5 29,-269.5 29,-250.5 0,-250.5"/>
<text text-anchor="middle" x="14.5" y="-257.5" font-family="Helvetica,sans-Serif" font-size="10.00">K</text>
</a>
</g>
</g>
<!-- Node16&#45;&gt;Node15 -->
<g id="edge15" class="edge">
<title>Node16&#45;&gt;Node15</title>
<path fill="none" stroke="#9a32cd" stroke-dasharray="5,2" d="M38.54,-248.85C41.38,-247.53 44.25,-246.22 47,-245 83.08,-229.01 125.51,-211.9 151.58,-201.57"/>
<polygon fill="#9a32cd" stroke="#9a32cd" points="36.76,-245.82 29.22,-253.26 39.76,-252.15 36.76,-245.82"/>
<text text-anchor="middle" x="71.5" y="-248" font-family="Helvetica,sans-Serif" font-size="10.00"> keys</text>
</g>
<!-- Node16&#45;&gt;Node19 -->
<g id="edge22" class="edge">
<title>Node16&#45;&gt;Node19</title>
<path fill="none" stroke="#9a32cd" stroke-dasharray="5,2" d="M39.34,-260.45C58.97,-260.81 87.71,-261.35 113.77,-261.84"/>
<polygon fill="#9a32cd" stroke="#9a32cd" points="39.25,-256.94 29.18,-260.26 39.12,-263.94 39.25,-256.94"/>
<text text-anchor="middle" x="71.5" y="-264" font-family="Helvetica,sans-Serif" font-size="10.00"> keys</text>
</g>
<!-- Node17&#45;&gt;Node14 -->
<g id="edge17" class="edge">
<title>Node17&#45;&gt;Node14</title>
<path fill="none" stroke="orange" stroke-dasharray="5,2" d="M246.21,-149.84C296.07,-151.47 365.3,-154.34 426,-159 431.74,-159.44 437.67,-159.95 443.63,-160.51"/>
<polygon fill="orange" stroke="orange" points="246.3,-146.34 236.19,-149.52 246.07,-153.34 246.3,-146.34"/>
<text text-anchor="middle" x="342" y="-162" font-family="Helvetica,sans-Serif" font-size="10.00"> &lt; MetaDataDictionaryMapType &gt;</text>
</g>
<!-- Node18&#45;&gt;Node6 -->
<g id="edge19" class="edge">
<title>Node18&#45;&gt;Node6</title>
<path fill="none" stroke="#9a32cd" stroke-dasharray="5,2" d="M724.89,-129.82C808.52,-132.58 964.43,-137.71 1031.94,-139.93"/>
<polygon fill="#9a32cd" stroke="#9a32cd" points="724.92,-126.32 714.81,-129.49 724.69,-133.32 724.92,-126.32"/>
<text text-anchor="middle" x="811" y="-138" font-family="Helvetica,sans-Serif" font-size="10.00"> m_MTime</text>
</g>
<!-- Node19&#45;&gt;Node5 -->
<g id="edge21" class="edge">
<title>Node19&#45;&gt;Node5</title>
<path fill="none" stroke="orange" stroke-dasharray="5,2" d="M250.54,-263C319.28,-263 425.42,-263 517.5,-263 517.5,-263 517.5,-263 1066.5,-263 1137.8,-263 1210.92,-215.04 1248.06,-186.57"/>
<polygon fill="orange" stroke="orange" points="250.26,-259.5 240.26,-263 250.26,-266.5 250.26,-259.5"/>
<text text-anchor="start" x="758" y="-277" font-family="Helvetica,sans-Serif" font-size="10.00"> &lt; itk::Object *, std</text>
<text text-anchor="middle" x="811" y="-266" font-family="Helvetica,sans-Serif" font-size="10.00">::function&lt; void()&gt; &gt;</text>
</g>
<!-- Node20&#45;&gt;Node1 -->
<g id="edge25" class="edge">
<title>Node20&#45;&gt;Node1</title>
<path fill="none" stroke="#9a32cd" stroke-dasharray="5,2" d="M1337.99,-62.13C1484.87,-69.41 1848.85,-87.47 1996.86,-94.82"/>
<polygon fill="#9a32cd" stroke="#9a32cd" points="1337.95,-58.62 1327.79,-61.62 1337.61,-65.61 1337.95,-58.62"/>
<text text-anchor="middle" x="1765.5" y="-89" font-family="Helvetica,sans-Serif" font-size="10.00"> m_OutputWindow</text>
</g>
<!-- Node21&#45;&gt;Node20 -->
<g id="edge27" class="edge">
<title>Node21&#45;&gt;Node20</title>
<path fill="none" stroke="#9a32cd" stroke-dasharray="5,2" d="M736.24,-49.22C857.21,-51.42 1110.33,-56.04 1220.22,-58.04"/>
<polygon fill="#9a32cd" stroke="#9a32cd" points="736.07,-45.71 726,-49.03 735.94,-52.71 736.07,-45.71"/>
<text text-anchor="middle" x="954.5" y="-58" font-family="Helvetica,sans-Serif" font-size="10.00"> m_PromptUser</text>
</g>
<!-- Node22 -->
<g id="node22" class="node">
<title>Node22</title>
<g id="a_node22"><a xlink:title="STL class.">
<polygon fill="white" stroke="#bfbfbf" points="1031,-0.5 1031,-19.5 1100,-19.5 1100,-0.5 1031,-0.5"/>
<text text-anchor="middle" x="1065.5" y="-7.5" font-family="Helvetica,sans-Serif" font-size="10.00">std::mutex</text>
</a>
</g>
</g>
<!-- Node22&#45;&gt;Node20 -->
<g id="edge29" class="edge">
<title>Node22&#45;&gt;Node20</title>
<path fill="none" stroke="#9a32cd" stroke-dasharray="5,2" d="M1110.26,-11.78C1133.11,-13.45 1161.37,-16.7 1186,-23 1210.39,-29.24 1236.92,-41 1254.19,-49.38"/>
<polygon fill="#9a32cd" stroke="#9a32cd" points="1110.39,-8.28 1100.18,-11.11 1109.93,-15.26 1110.39,-8.28"/>
<text text-anchor="middle" x="1152" y="-26" font-family="Helvetica,sans-Serif" font-size="10.00"> m_cerrMutex</text>
</g>
</g>
</svg>
