<?xml version="1.0" encoding="UTF-8" standalone="no"?>
<!DOCTYPE svg PUBLIC "-//W3C//DTD SVG 1.1//EN"
 "http://www.w3.org/Graphics/SVG/1.1/DTD/svg11.dtd">
<!-- Generated by graphviz version 2.43.0 (0)
 -->
<!-- Title: itk::simple::ElastixImageFilter Pages: 1 -->
<!--zoomable 446 -->
<svg id="main" version="1.1" xmlns="http://www.w3.org/2000/svg" xmlns:xlink="http://www.w3.org/1999/xlink" xml:space="preserve" onload="init(evt)">
<style type="text/css"><![CDATA[
.edge:hover path { stroke: red; }
.edge:hover polygon { stroke: red; fill: red; }
]]></style>
<script type="text/javascript"><![CDATA[
var edges = document.getElementsByTagName('g');
if (edges && edges.length) {
  for (var i=0;i<edges.length;i++) {
    if (edges[i].id.substr(0,4)=='edge') {
      edges[i].setAttribute('class','edge');
    }
  }
}
]]></script>
        <defs>
                <circle id="rim" cx="0" cy="0" r="7"/>
                <circle id="rim2" cx="0" cy="0" r="3.5"/>
                <g id="zoomPlus">
                        <use xlink:href="#rim" fill="#404040">
                                <set attributeName="fill" to="#808080" begin="zoomplus.mouseover" end="zoomplus.mouseout"/>
                        </use>
                        <path d="M-4,0h8M0,-4v8" fill="none" stroke="white" stroke-width="1.5" pointer-events="none"/>
                </g>
                <g id="zoomMin">
                        <use xlink:href="#rim" fill="#404040">
                                <set attributeName="fill" to="#808080" begin="zoomminus.mouseover" end="zoomminus.mouseout"/>
                        </use>
                        <path d="M-4,0h8" fill="none" stroke="white" stroke-width="1.5" pointer-events="none"/>
                </g>
                <g id="dirArrow">
                        <path fill="none" stroke="white" stroke-width="1.5" d="M0,-3.0v7 M-2.5,-0.5L0,-3.0L2.5,-0.5"/>
                </g>
               <g id="resetDef">
                       <use xlink:href="#rim2" fill="#404040">
                               <set attributeName="fill" to="#808080" begin="reset.mouseover" end="reset.mouseout"/>
                       </use>
               </g>
        </defs>

<script type="text/javascript">
var viewWidth = 1967;
var viewHeight = 446;
var sectionId = 'dynsection-0';
</script>
<script xlink:href="svgpan.js"/>
<svg id="graph" class="graph">
<g id="viewport">
<title>itk::simple::ElastixImageFilter</title>
<polygon fill="white" stroke="transparent" points="-4,4 -4,-442.4 1963,-442.4 1963,4 -4,4"/>
<!-- Node1 -->
<g id="node1" class="node">
<title>Node1</title>
<g id="a_node1"><a xlink:title="The class that wraps the elastix registration library.">
<polygon fill="#bfbfbf" stroke="black" points="1821,-159.4 1821,-189.4 1959,-189.4 1959,-159.4 1821,-159.4"/>
<text text-anchor="start" x="1829" y="-177.4" font-family="Helvetica,sans-Serif" font-size="10.00">itk::simple::ElastixImage</text>
<text text-anchor="middle" x="1890" y="-166.4" font-family="Helvetica,sans-Serif" font-size="10.00">Filter</text>
</a>
</g>
</g>
<!-- Node2 -->
<g id="node2" class="node">
<title>Node2</title>
<g id="a_node2"><a xlink:title=" ">
<polygon fill="white" stroke="#bfbfbf" points="1412,-274.9 1412,-315.9 1643,-315.9 1643,-274.9 1412,-274.9"/>
<text text-anchor="start" x="1420" y="-303.9" font-family="Helvetica,sans-Serif" font-size="10.00">std::unique_ptr&lt; itk</text>
<text text-anchor="start" x="1420" y="-292.9" font-family="Helvetica,sans-Serif" font-size="10.00">::simple::detail::DualMember</text>
<text text-anchor="middle" x="1527.5" y="-281.9" font-family="Helvetica,sans-Serif" font-size="10.00">FunctionFactory&lt; MemberFunctionType &gt; &gt;</text>
</a>
</g>
</g>
<!-- Node2&#45;&gt;Node1 -->
<g id="edge1" class="edge">
<title>Node2&#45;&gt;Node1</title>
<path fill="none" stroke="#9a32cd" stroke-dasharray="5,2" d="M1653.07,-295.91C1701.87,-291.89 1757.05,-281.87 1803,-259.4 1836,-243.25 1864.07,-209.46 1878.53,-189.69"/>
<polygon fill="#9a32cd" stroke="#9a32cd" points="1652.79,-292.42 1643.08,-296.66 1653.32,-299.4 1652.79,-292.42"/>
<text text-anchor="middle" x="1732" y="-297.4" font-family="Helvetica,sans-Serif" font-size="10.00"> m_DualMemberFactory</text>
</g>
<!-- Node3 -->
<g id="node3" class="node">
<title>Node3</title>
<g id="a_node3"><a xlink:href="classitk_1_1simple_1_1detail_1_1DualMemberFunctionFactory.html" target="_top" xlink:title=" ">
<polygon fill="white" stroke="black" points="1048,-323.9 1048,-364.9 1210,-364.9 1210,-323.9 1048,-323.9"/>
<text text-anchor="start" x="1056" y="-352.9" font-family="Helvetica,sans-Serif" font-size="10.00">itk::simple::detail</text>
<text text-anchor="start" x="1056" y="-341.9" font-family="Helvetica,sans-Serif" font-size="10.00">::DualMemberFunctionFactory</text>
<text text-anchor="middle" x="1129" y="-330.9" font-family="Helvetica,sans-Serif" font-size="10.00">&lt; MemberFunctionType &gt;</text>
</a>
</g>
</g>
<!-- Node3&#45;&gt;Node2 -->
<g id="edge2" class="edge">
<title>Node3&#45;&gt;Node2</title>
<path fill="none" stroke="#9a32cd" stroke-dasharray="5,2" d="M1220.28,-333.24C1277.08,-326.22 1350.89,-317.1 1411.82,-309.57"/>
<polygon fill="#9a32cd" stroke="#9a32cd" points="1219.73,-329.78 1210.24,-334.48 1220.59,-336.73 1219.73,-329.78"/>
<text text-anchor="middle" x="1311" y="-333.4" font-family="Helvetica,sans-Serif" font-size="10.00"> ptr</text>
</g>
<!-- Node4 -->
<g id="node4" class="node">
<title>Node4</title>
<g id="a_node4"><a xlink:href="classitk_1_1simple_1_1detail_1_1MemberFunctionFactoryBase.html" target="_top" xlink:title=" ">
<polygon fill="white" stroke="black" points="522,-311.9 522,-374.9 686,-374.9 686,-311.9 522,-311.9"/>
<text text-anchor="start" x="530" y="-362.9" font-family="Helvetica,sans-Serif" font-size="10.00">itk::simple::detail</text>
<text text-anchor="start" x="530" y="-351.9" font-family="Helvetica,sans-Serif" font-size="10.00">::MemberFunctionFactoryBase</text>
<text text-anchor="start" x="530" y="-340.9" font-family="Helvetica,sans-Serif" font-size="10.00">&lt; MemberFunctionType, std</text>
<text text-anchor="start" x="530" y="-329.9" font-family="Helvetica,sans-Serif" font-size="10.00">::tuple&lt; unsigned int, int,</text>
<text text-anchor="middle" x="604" y="-318.9" font-family="Helvetica,sans-Serif" font-size="10.00"> unsigned int, int &gt; &gt;</text>
</a>
</g>
</g>
<!-- Node4&#45;&gt;Node3 -->
<g id="edge3" class="edge">
<title>Node4&#45;&gt;Node3</title>
<path fill="none" stroke="darkgreen" d="M696.18,-343.57C795.6,-343.76 953.15,-344.06 1047.95,-344.24"/>
<polygon fill="darkgreen" stroke="darkgreen" points="696.15,-340.07 686.14,-343.55 696.14,-347.07 696.15,-340.07"/>
</g>
<!-- Node5 -->
<g id="node5" class="node">
<title>Node5</title>
<g id="a_node5"><a xlink:href="classitk_1_1simple_1_1detail_1_1MemberFunctionFactoryBase.html" target="_top" xlink:title="A base class for the MemberFunctionFactory.">
<polygon fill="white" stroke="black" points="0,-359.4 0,-389.4 164,-389.4 164,-359.4 0,-359.4"/>
<text text-anchor="start" x="8" y="-377.4" font-family="Helvetica,sans-Serif" font-size="10.00">itk::simple::detail</text>
<text text-anchor="middle" x="82" y="-366.4" font-family="Helvetica,sans-Serif" font-size="10.00">::MemberFunctionFactoryBase</text>
</a>
</g>
</g>
<!-- Node5&#45;&gt;Node4 -->
<g id="edge4" class="edge">
<title>Node5&#45;&gt;Node4</title>
<path fill="none" stroke="orange" stroke-dasharray="5,2" d="M125.39,-355.3C142.59,-348.53 162.88,-341.77 182,-338.4 298.8,-317.82 436.66,-325.33 521.96,-333.6"/>
<polygon fill="orange" stroke="orange" points="123.6,-352.25 115.66,-359.26 126.24,-358.73 123.6,-352.25"/>
<text text-anchor="start" x="191" y="-374.4" font-family="Helvetica,sans-Serif" font-size="10.00"> &lt; MemberFunctionType,</text>
<text text-anchor="start" x="191" y="-363.4" font-family="Helvetica,sans-Serif" font-size="10.00"> std::tuple&lt; unsigned</text>
<text text-anchor="start" x="191" y="-352.4" font-family="Helvetica,sans-Serif" font-size="10.00"> int, int, unsigned int,</text>
<text text-anchor="middle" x="252" y="-341.4" font-family="Helvetica,sans-Serif" font-size="10.00"> int &gt; &gt;</text>
</g>
<!-- Node7 -->
<g id="node7" class="node">
<title>Node7</title>
<g id="a_node7"><a xlink:href="classitk_1_1simple_1_1detail_1_1MemberFunctionFactoryBase.html" target="_top" xlink:title=" ">
<polygon fill="white" stroke="black" points="340,-374.9 340,-437.9 504,-437.9 504,-374.9 340,-374.9"/>
<text text-anchor="start" x="348" y="-425.9" font-family="Helvetica,sans-Serif" font-size="10.00">itk::simple::detail</text>
<text text-anchor="start" x="348" y="-414.9" font-family="Helvetica,sans-Serif" font-size="10.00">::MemberFunctionFactoryBase</text>
<text text-anchor="start" x="348" y="-403.9" font-family="Helvetica,sans-Serif" font-size="10.00">&lt; TMemberFunctionPointer,</text>
<text text-anchor="start" x="348" y="-392.9" font-family="Helvetica,sans-Serif" font-size="10.00"> std::tuple&lt; unsigned int,</text>
<text text-anchor="middle" x="422" y="-381.9" font-family="Helvetica,sans-Serif" font-size="10.00"> int, unsigned int, int &gt; &gt;</text>
</a>
</g>
</g>
<!-- Node5&#45;&gt;Node7 -->
<g id="edge7" class="edge">
<title>Node5&#45;&gt;Node7</title>
<path fill="none" stroke="orange" stroke-dasharray="5,2" d="M174.22,-385.58C176.84,-385.86 179.44,-386.13 182,-386.4 234.5,-391.77 293.6,-396.73 339.9,-400.36"/>
<polygon fill="orange" stroke="orange" points="174.34,-382.07 164.01,-384.47 173.57,-389.03 174.34,-382.07"/>
<text text-anchor="start" x="182" y="-423.4" font-family="Helvetica,sans-Serif" font-size="10.00"> &lt; TMemberFunctionPointer,</text>
<text text-anchor="start" x="182" y="-412.4" font-family="Helvetica,sans-Serif" font-size="10.00"> std::tuple&lt; unsigned int,</text>
<text text-anchor="middle" x="252" y="-401.4" font-family="Helvetica,sans-Serif" font-size="10.00"> int, unsigned int, int &gt; &gt;</text>
</g>
<!-- Node6 -->
<g id="node6" class="node">
<title>Node6</title>
<g id="a_node6"><a xlink:href="classitk_1_1simple_1_1detail_1_1DualMemberFunctionFactory.html" target="_top" xlink:title="A class used to instantiate and generate function objects of templated member functions with two temp...">
<polygon fill="white" stroke="black" points="704,-375.9 704,-416.9 866,-416.9 866,-375.9 704,-375.9"/>
<text text-anchor="start" x="712" y="-404.9" font-family="Helvetica,sans-Serif" font-size="10.00">itk::simple::detail</text>
<text text-anchor="start" x="712" y="-393.9" font-family="Helvetica,sans-Serif" font-size="10.00">::DualMemberFunctionFactory</text>
<text text-anchor="middle" x="785" y="-382.9" font-family="Helvetica,sans-Serif" font-size="10.00">&lt; TMemberFunctionPointer &gt;</text>
</a>
</g>
</g>
<!-- Node6&#45;&gt;Node3 -->
<g id="edge5" class="edge">
<title>Node6&#45;&gt;Node3</title>
<path fill="none" stroke="orange" stroke-dasharray="5,2" d="M876.3,-382.67C929.54,-374.57 996.33,-364.42 1047.73,-356.6"/>
<polygon fill="orange" stroke="orange" points="875.54,-379.24 866.18,-384.21 876.6,-386.16 875.54,-379.24"/>
<text text-anchor="middle" x="957" y="-383.4" font-family="Helvetica,sans-Serif" font-size="10.00"> &lt; MemberFunctionType &gt;</text>
</g>
<!-- Node7&#45;&gt;Node6 -->
<g id="edge6" class="edge">
<title>Node7&#45;&gt;Node6</title>
<path fill="none" stroke="darkgreen" d="M514.35,-403.87C572.76,-402.25 647.79,-400.17 703.88,-398.62"/>
<polygon fill="darkgreen" stroke="darkgreen" points="513.91,-400.38 504.02,-404.15 514.11,-407.37 513.91,-400.38"/>
</g>
<!-- Node8 -->
<g id="node8" class="node">
<title>Node8</title>
<g id="a_node8"><a xlink:title="STL class.">
<polygon fill="white" stroke="#bfbfbf" points="363,-226.9 363,-245.9 481,-245.9 481,-226.9 363,-226.9"/>
<text text-anchor="middle" x="422" y="-233.9" font-family="Helvetica,sans-Serif" font-size="10.00">std::unique_ptr&lt; T &gt;</text>
</a>
</g>
</g>
<!-- Node8&#45;&gt;Node2 -->
<g id="edge8" class="edge">
<title>Node8&#45;&gt;Node2</title>
<path fill="none" stroke="orange" stroke-dasharray="5,2" d="M470.62,-248.16C486.83,-251.72 505.11,-255.25 522,-257.4 842.49,-298.19 1224.75,-299.86 1411.85,-297.65"/>
<polygon fill="orange" stroke="orange" points="471.35,-244.74 460.83,-245.95 469.81,-251.57 471.35,-244.74"/>
<text text-anchor="start" x="884" y="-318.4" font-family="Helvetica,sans-Serif" font-size="10.00"> &lt; itk::simple::detail</text>
<text text-anchor="start" x="884" y="-307.4" font-family="Helvetica,sans-Serif" font-size="10.00">::DualMemberFunctionFactory</text>
<text text-anchor="middle" x="957" y="-296.4" font-family="Helvetica,sans-Serif" font-size="10.00">&lt; MemberFunctionType &gt; &gt;</text>
</g>
<!-- Node12 -->
<g id="node12" class="node">
<title>Node12</title>
<g id="a_node12"><a xlink:title=" ">
<polygon fill="white" stroke="#bfbfbf" points="704.5,-182.4 704.5,-212.4 865.5,-212.4 865.5,-182.4 704.5,-182.4"/>
<text text-anchor="start" x="712.5" y="-200.4" font-family="Helvetica,sans-Serif" font-size="10.00">std::unique_ptr&lt; itk</text>
<text text-anchor="middle" x="785" y="-189.4" font-family="Helvetica,sans-Serif" font-size="10.00">::simple::PimpleImageBase &gt;</text>
</a>
</g>
</g>
<!-- Node8&#45;&gt;Node12 -->
<g id="edge14" class="edge">
<title>Node8&#45;&gt;Node12</title>
<path fill="none" stroke="orange" stroke-dasharray="5,2" d="M467.7,-224.34C484.59,-220.23 504.07,-216.01 522,-213.4 582.77,-204.55 652.15,-200.58 704.25,-198.81"/>
<polygon fill="orange" stroke="orange" points="466.4,-221.06 457.55,-226.87 468.1,-227.85 466.4,-221.06"/>
<text text-anchor="start" x="535.5" y="-227.4" font-family="Helvetica,sans-Serif" font-size="10.00"> &lt; itk::simple::PimpleImage</text>
<text text-anchor="middle" x="604" y="-216.4" font-family="Helvetica,sans-Serif" font-size="10.00">Base &gt;</text>
</g>
<!-- Node17 -->
<g id="node17" class="node">
<title>Node17</title>
<g id="a_node17"><a xlink:title=" ">
<polygon fill="white" stroke="#bfbfbf" points="890,-235.4 890,-265.4 1024,-265.4 1024,-235.4 890,-235.4"/>
<text text-anchor="start" x="898" y="-253.4" font-family="Helvetica,sans-Serif" font-size="10.00">std::unique_ptr&lt; Elastix</text>
<text text-anchor="middle" x="957" y="-242.4" font-family="Helvetica,sans-Serif" font-size="10.00">ImageFilterImpl &gt;</text>
</a>
</g>
</g>
<!-- Node8&#45;&gt;Node17 -->
<g id="edge21" class="edge">
<title>Node8&#45;&gt;Node17</title>
<path fill="none" stroke="orange" stroke-dasharray="5,2" d="M491.33,-238.19C594.29,-240.9 787.95,-245.98 889.7,-248.66"/>
<polygon fill="orange" stroke="orange" points="491.14,-234.69 481.05,-237.92 490.96,-241.68 491.14,-234.69"/>
<text text-anchor="middle" x="604" y="-245.4" font-family="Helvetica,sans-Serif" font-size="10.00"> &lt; ElastixImageFilterImpl &gt;</text>
</g>
<!-- Node9 -->
<g id="node9" class="node">
<title>Node9</title>
<g id="a_node9"><a xlink:title=" ">
<polygon fill="white" stroke="#bfbfbf" points="67.5,-137.9 67.5,-156.9 96.5,-156.9 96.5,-137.9 67.5,-137.9"/>
<text text-anchor="middle" x="82" y="-144.9" font-family="Helvetica,sans-Serif" font-size="10.00">T</text>
</a>
</g>
</g>
<!-- Node9&#45;&gt;Node8 -->
<g id="edge9" class="edge">
<title>Node9&#45;&gt;Node8</title>
<path fill="none" stroke="#9a32cd" stroke-dasharray="5,2" d="M106.37,-153.55C164.34,-168.82 315.08,-208.51 384.73,-226.85"/>
<polygon fill="#9a32cd" stroke="#9a32cd" points="107.23,-150.16 96.67,-151 105.45,-156.93 107.23,-150.16"/>
<text text-anchor="middle" x="252" y="-212.4" font-family="Helvetica,sans-Serif" font-size="10.00"> ptr</text>
</g>
<!-- Node14 -->
<g id="node14" class="node">
<title>Node14</title>
<g id="a_node14"><a xlink:title="STL class.">
<polygon fill="white" stroke="#bfbfbf" points="373.5,-130.9 373.5,-149.9 470.5,-149.9 470.5,-130.9 373.5,-130.9"/>
<text text-anchor="middle" x="422" y="-137.9" font-family="Helvetica,sans-Serif" font-size="10.00">std::vector&lt; T &gt;</text>
</a>
</g>
</g>
<!-- Node9&#45;&gt;Node14 -->
<g id="edge16" class="edge">
<title>Node9&#45;&gt;Node14</title>
<path fill="none" stroke="#9a32cd" stroke-dasharray="5,2" d="M106.88,-146.9C162.22,-145.76 300.08,-142.9 373.4,-141.38"/>
<polygon fill="#9a32cd" stroke="#9a32cd" points="106.59,-143.41 96.67,-147.11 106.74,-150.41 106.59,-143.41"/>
<text text-anchor="middle" x="252" y="-148.4" font-family="Helvetica,sans-Serif" font-size="10.00"> elements</text>
</g>
<!-- Node19 -->
<g id="node19" class="node">
<title>Node19</title>
<g id="a_node19"><a xlink:title="STL class.">
<polygon fill="white" stroke="#bfbfbf" points="371.5,-75.9 371.5,-94.9 472.5,-94.9 472.5,-75.9 371.5,-75.9"/>
<text text-anchor="middle" x="422" y="-82.9" font-family="Helvetica,sans-Serif" font-size="10.00">std::map&lt; K, T &gt;</text>
</a>
</g>
</g>
<!-- Node9&#45;&gt;Node19 -->
<g id="edge25" class="edge">
<title>Node9&#45;&gt;Node19</title>
<path fill="none" stroke="#9a32cd" stroke-dasharray="5,2" d="M106.85,-142.74C126.9,-138.84 156.3,-133.17 182,-128.4 247.28,-116.26 322.7,-102.78 371.07,-94.21"/>
<polygon fill="#9a32cd" stroke="#9a32cd" points="105.91,-139.36 96.76,-144.7 107.25,-146.23 105.91,-139.36"/>
<text text-anchor="middle" x="252" y="-131.4" font-family="Helvetica,sans-Serif" font-size="10.00"> elements</text>
</g>
<!-- Node10 -->
<g id="node10" class="node">
<title>Node10</title>
<g id="a_node10"><a xlink:title=" ">
<polygon fill="white" stroke="#bfbfbf" points="1466.5,-135.9 1466.5,-154.9 1588.5,-154.9 1588.5,-135.9 1466.5,-135.9"/>
<text text-anchor="middle" x="1527.5" y="-142.9" font-family="Helvetica,sans-Serif" font-size="10.00">std::vector&lt; Image &gt;</text>
</a>
</g>
</g>
<!-- Node10&#45;&gt;Node1 -->
<g id="edge10" class="edge">
<title>Node10&#45;&gt;Node1</title>
<path fill="none" stroke="#9a32cd" stroke-dasharray="5,2" d="M1598.76,-139.69C1654.51,-136.6 1734.23,-135.36 1803,-146.4 1819.28,-149.01 1836.67,-154.19 1851.53,-159.39"/>
<polygon fill="#9a32cd" stroke="#9a32cd" points="1598.42,-136.21 1588.64,-140.29 1598.83,-143.19 1598.42,-136.21"/>
<text text-anchor="middle" x="1732" y="-182.4" font-family="Helvetica,sans-Serif" font-size="10.00"> m_MovingImages</text>
<text text-anchor="middle" x="1732" y="-171.4" font-family="Helvetica,sans-Serif" font-size="10.00">m_FixedImages</text>
<text text-anchor="middle" x="1732" y="-160.4" font-family="Helvetica,sans-Serif" font-size="10.00">m_FixedMasks</text>
<text text-anchor="middle" x="1732" y="-149.4" font-family="Helvetica,sans-Serif" font-size="10.00">m_MovingMasks</text>
</g>
<!-- Node11 -->
<g id="node11" class="node">
<title>Node11</title>
<g id="a_node11"><a xlink:href="classitk_1_1simple_1_1Image.html" target="_top" xlink:title="The Image class for SimpleITK.">
<polygon fill="white" stroke="black" points="1076.5,-187.9 1076.5,-206.9 1181.5,-206.9 1181.5,-187.9 1076.5,-187.9"/>
<text text-anchor="middle" x="1129" y="-194.9" font-family="Helvetica,sans-Serif" font-size="10.00">itk::simple::Image</text>
</a>
</g>
</g>
<!-- Node11&#45;&gt;Node1 -->
<g id="edge17" class="edge">
<title>Node11&#45;&gt;Node1</title>
<path fill="none" stroke="#9a32cd" stroke-dasharray="5,2" d="M1191.66,-200.32C1310.35,-205.15 1578.69,-212.26 1803,-190.4 1808.74,-189.84 1814.68,-189.09 1820.62,-188.23"/>
<polygon fill="#9a32cd" stroke="#9a32cd" points="1191.8,-196.82 1181.67,-199.9 1191.51,-203.82 1191.8,-196.82"/>
<text text-anchor="middle" x="1527.5" y="-208.4" font-family="Helvetica,sans-Serif" font-size="10.00"> m_ResultImage</text>
</g>
<!-- Node11&#45;&gt;Node10 -->
<g id="edge11" class="edge">
<title>Node11&#45;&gt;Node10</title>
<path fill="none" stroke="#9a32cd" stroke-dasharray="5,2" d="M1188.08,-186.05C1201.18,-183.68 1215.05,-181.32 1228,-179.4 1310.29,-167.17 1405.91,-156.98 1466.31,-151.04"/>
<polygon fill="#9a32cd" stroke="#9a32cd" points="1187.45,-182.61 1178.24,-187.86 1188.71,-189.5 1187.45,-182.61"/>
<text text-anchor="middle" x="1311" y="-182.4" font-family="Helvetica,sans-Serif" font-size="10.00"> elements</text>
</g>
<!-- Node12&#45;&gt;Node11 -->
<g id="edge12" class="edge">
<title>Node12&#45;&gt;Node11</title>
<path fill="none" stroke="#9a32cd" stroke-dasharray="5,2" d="M875.83,-197.4C939.72,-197.4 1023.29,-197.4 1076.33,-197.4"/>
<polygon fill="#9a32cd" stroke="#9a32cd" points="875.75,-193.9 865.75,-197.4 875.75,-200.9 875.75,-193.9"/>
<text text-anchor="middle" x="957" y="-200.4" font-family="Helvetica,sans-Serif" font-size="10.00"> m_PimpleImage</text>
</g>
<!-- Node13 -->
<g id="node13" class="node">
<title>Node13</title>
<g id="a_node13"><a xlink:href="classitk_1_1simple_1_1PimpleImageBase.html" target="_top" xlink:title="Private implementation idiom image base class.">
<polygon fill="white" stroke="black" points="340.5,-168.9 340.5,-187.9 503.5,-187.9 503.5,-168.9 340.5,-168.9"/>
<text text-anchor="middle" x="422" y="-175.9" font-family="Helvetica,sans-Serif" font-size="10.00">itk::simple::PimpleImageBase</text>
</a>
</g>
</g>
<!-- Node13&#45;&gt;Node12 -->
<g id="edge13" class="edge">
<title>Node13&#45;&gt;Node12</title>
<path fill="none" stroke="#9a32cd" stroke-dasharray="5,2" d="M514.04,-174.77C564.76,-173.75 629,-174.1 686,-179.4 693.84,-180.13 701.98,-181.16 710.08,-182.38"/>
<polygon fill="#9a32cd" stroke="#9a32cd" points="513.67,-171.28 503.75,-175 513.83,-178.28 513.67,-171.28"/>
<text text-anchor="middle" x="604" y="-182.4" font-family="Helvetica,sans-Serif" font-size="10.00"> ptr</text>
</g>
<!-- Node14&#45;&gt;Node10 -->
<g id="edge15" class="edge">
<title>Node14&#45;&gt;Node10</title>
<path fill="none" stroke="orange" stroke-dasharray="5,2" d="M480.82,-140.66C670.55,-141.52 1273.05,-144.25 1466.25,-145.12"/>
<polygon fill="orange" stroke="orange" points="480.79,-137.16 470.77,-140.61 480.75,-144.16 480.79,-137.16"/>
<text text-anchor="middle" x="957" y="-146.4" font-family="Helvetica,sans-Serif" font-size="10.00"> &lt; Image &gt;</text>
</g>
<!-- Node18 -->
<g id="node18" class="node">
<title>Node18</title>
<g id="a_node18"><a xlink:title=" ">
<polygon fill="white" stroke="#bfbfbf" points="709.5,-86.4 709.5,-116.4 860.5,-116.4 860.5,-86.4 709.5,-86.4"/>
<text text-anchor="start" x="717.5" y="-104.4" font-family="Helvetica,sans-Serif" font-size="10.00">std::vector&lt; ParameterMap</text>
<text text-anchor="middle" x="785" y="-93.4" font-family="Helvetica,sans-Serif" font-size="10.00">Type &gt;</text>
</a>
</g>
</g>
<!-- Node14&#45;&gt;Node18 -->
<g id="edge26" class="edge">
<title>Node14&#45;&gt;Node18</title>
<path fill="none" stroke="orange" stroke-dasharray="5,2" d="M474.05,-128.8C489.4,-125.66 506.32,-122.54 522,-120.4 584.92,-111.8 656.91,-106.93 709.49,-104.28"/>
<polygon fill="orange" stroke="orange" points="473.3,-125.38 464.23,-130.85 474.73,-132.23 473.3,-125.38"/>
<text text-anchor="middle" x="604" y="-123.4" font-family="Helvetica,sans-Serif" font-size="10.00"> &lt; ParameterMapType &gt;</text>
</g>
<!-- Node15 -->
<g id="node15" class="node">
<title>Node15</title>
<g id="a_node15"><a xlink:title="STL class.">
<polygon fill="white" stroke="#bfbfbf" points="1495,-16.9 1495,-35.9 1560,-35.9 1560,-16.9 1495,-16.9"/>
<text text-anchor="middle" x="1527.5" y="-23.9" font-family="Helvetica,sans-Serif" font-size="10.00">std::string</text>
</a>
</g>
</g>
<!-- Node15&#45;&gt;Node1 -->
<g id="edge18" class="edge">
<title>Node15&#45;&gt;Node1</title>
<path fill="none" stroke="#9a32cd" stroke-dasharray="5,2" d="M1570.02,-14.57C1626.8,-0.91 1729.95,14.67 1803,-27.4 1853.47,-56.47 1877.19,-127.85 1885.44,-159.2"/>
<polygon fill="#9a32cd" stroke="#9a32cd" points="1569.16,-11.18 1560.31,-16.99 1570.86,-17.97 1569.16,-11.18"/>
<text text-anchor="middle" x="1732" y="-85.4" font-family="Helvetica,sans-Serif" font-size="10.00"> m_OutputDirectory</text>
<text text-anchor="start" x="1661" y="-74.4" font-family="Helvetica,sans-Serif" font-size="10.00">m_InitialTransformParameter</text>
<text text-anchor="middle" x="1732" y="-63.4" font-family="Helvetica,sans-Serif" font-size="10.00">MapFileName</text>
<text text-anchor="middle" x="1732" y="-52.4" font-family="Helvetica,sans-Serif" font-size="10.00">m_FixedPointSetFileName</text>
<text text-anchor="middle" x="1732" y="-41.4" font-family="Helvetica,sans-Serif" font-size="10.00">m_LogFileName</text>
<text text-anchor="middle" x="1732" y="-30.4" font-family="Helvetica,sans-Serif" font-size="10.00">m_MovingPointSetFileName</text>
</g>
<!-- Node16 -->
<g id="node16" class="node">
<title>Node16</title>
<g id="a_node16"><a xlink:title="STL class.">
<polygon fill="white" stroke="#bfbfbf" points="1077,-11.4 1077,-41.4 1181,-41.4 1181,-11.4 1077,-11.4"/>
<text text-anchor="start" x="1085" y="-29.4" font-family="Helvetica,sans-Serif" font-size="10.00">std::basic_string&lt;</text>
<text text-anchor="middle" x="1129" y="-18.4" font-family="Helvetica,sans-Serif" font-size="10.00"> char &gt;</text>
</a>
</g>
</g>
<!-- Node16&#45;&gt;Node15 -->
<g id="edge19" class="edge">
<title>Node16&#45;&gt;Node15</title>
<path fill="none" stroke="midnightblue" d="M1191.12,-26.4C1276.7,-26.4 1429.12,-26.4 1494.87,-26.4"/>
<polygon fill="midnightblue" stroke="midnightblue" points="1191.02,-22.9 1181.02,-26.4 1191.02,-29.9 1191.02,-22.9"/>
</g>
<!-- Node17&#45;&gt;Node1 -->
<g id="edge20" class="edge">
<title>Node17&#45;&gt;Node1</title>
<path fill="none" stroke="#9a32cd" stroke-dasharray="5,2" d="M1034.52,-247.82C1161.15,-243.39 1422.24,-233.51 1643,-220.4 1714.19,-216.17 1733.5,-224.35 1803,-208.4 1821.62,-204.12 1841.51,-196.47 1857.47,-189.51"/>
<polygon fill="#9a32cd" stroke="#9a32cd" points="1034.03,-244.34 1024.16,-248.18 1034.28,-251.33 1034.03,-244.34"/>
<text text-anchor="middle" x="1311" y="-242.4" font-family="Helvetica,sans-Serif" font-size="10.00"> m_Pimple</text>
</g>
<!-- Node18&#45;&gt;Node1 -->
<g id="edge22" class="edge">
<title>Node18&#45;&gt;Node1</title>
<path fill="none" stroke="#9a32cd" stroke-dasharray="5,2" d="M870.85,-103.2C1024.76,-106.63 1360.23,-114.79 1643,-126.4 1714.14,-129.32 1733.89,-117.29 1803,-134.4 1824.26,-139.66 1846.64,-150.25 1863.24,-159.21"/>
<polygon fill="#9a32cd" stroke="#9a32cd" points="870.61,-99.7 860.53,-102.98 870.45,-106.7 870.61,-99.7"/>
<text text-anchor="middle" x="1311" y="-131.4" font-family="Helvetica,sans-Serif" font-size="10.00"> m_ParameterMapVector</text>
<text text-anchor="middle" x="1311" y="-120.4" font-family="Helvetica,sans-Serif" font-size="10.00">m_TransformParameterMapVector</text>
</g>
<!-- Node19&#45;&gt;Node18 -->
<g id="edge23" class="edge">
<title>Node19&#45;&gt;Node18</title>
<path fill="none" stroke="#9a32cd" stroke-dasharray="5,2" d="M482.84,-83.11C536.21,-81.67 616.44,-80.97 686,-86.4 693.64,-86.99 701.58,-87.83 709.49,-88.82"/>
<polygon fill="#9a32cd" stroke="#9a32cd" points="482.43,-79.62 472.53,-83.41 482.63,-86.62 482.43,-79.62"/>
<text text-anchor="middle" x="604" y="-89.4" font-family="Helvetica,sans-Serif" font-size="10.00"> elements</text>
</g>
<!-- Node20 -->
<g id="node20" class="node">
<title>Node20</title>
<g id="a_node20"><a xlink:title=" ">
<polygon fill="white" stroke="#bfbfbf" points="67.5,-69.9 67.5,-88.9 96.5,-88.9 96.5,-69.9 67.5,-69.9"/>
<text text-anchor="middle" x="82" y="-76.9" font-family="Helvetica,sans-Serif" font-size="10.00">K</text>
</a>
</g>
</g>
<!-- Node20&#45;&gt;Node19 -->
<g id="edge24" class="edge">
<title>Node20&#45;&gt;Node19</title>
<path fill="none" stroke="#9a32cd" stroke-dasharray="5,2" d="M106.78,-79.13C149.75,-78.74 243.21,-78.24 322,-80.4 338.08,-80.84 355.63,-81.62 371.41,-82.44"/>
<polygon fill="#9a32cd" stroke="#9a32cd" points="106.71,-75.63 96.74,-79.23 106.78,-82.63 106.71,-75.63"/>
<text text-anchor="middle" x="252" y="-83.4" font-family="Helvetica,sans-Serif" font-size="10.00"> keys</text>
</g>
</g>
</svg>
        <g id="navigator" transform="translate(0 0)" fill="#404254">
                <rect fill="#f2f5e9" fill-opacity="0.5" stroke="#606060" stroke-width=".5" x="0" y="0" width="60" height="60"/>
                <use id="zoomplus" xlink:href="#zoomPlus" x="17" y="9" onmousedown="handleZoom(evt,'in')"/>
                <use id="zoomminus" xlink:href="#zoomMin" x="42" y="9" onmousedown="handleZoom(evt,'out')"/>
                <use id="reset" xlink:href="#resetDef" x="30" y="36" onmousedown="handleReset()"/>
                <g id="arrowUp" xlink:href="#dirArrow" transform="translate(30 24)" onmousedown="handlePan(0,-1)">
                  <use xlink:href="#rim" fill="#404040">
                        <set attributeName="fill" to="#808080" begin="arrowUp.mouseover" end="arrowUp.mouseout"/>
                  </use>
                  <path fill="none" stroke="white" stroke-width="1.5" d="M0,-3.0v7 M-2.5,-0.5L0,-3.0L2.5,-0.5"/>
                </g>
                <g id="arrowRight" xlink:href="#dirArrow" transform="rotate(90) translate(36 -43)" onmousedown="handlePan(1,0)">
                  <use xlink:href="#rim" fill="#404040">
                        <set attributeName="fill" to="#808080" begin="arrowRight.mouseover" end="arrowRight.mouseout"/>
                  </use>
                  <path fill="none" stroke="white" stroke-width="1.5" d="M0,-3.0v7 M-2.5,-0.5L0,-3.0L2.5,-0.5"/>
                </g>
                <g id="arrowDown" xlink:href="#dirArrow" transform="rotate(180) translate(-30 -48)" onmousedown="handlePan(0,1)">
                  <use xlink:href="#rim" fill="#404040">
                        <set attributeName="fill" to="#808080" begin="arrowDown.mouseover" end="arrowDown.mouseout"/>
                  </use>
                  <path fill="none" stroke="white" stroke-width="1.5" d="M0,-3.0v7 M-2.5,-0.5L0,-3.0L2.5,-0.5"/>
                </g>
                <g id="arrowLeft" xlink:href="#dirArrow" transform="rotate(270) translate(-36 17)" onmousedown="handlePan(-1,0)">
                  <use xlink:href="#rim" fill="#404040">
                        <set attributeName="fill" to="#808080" begin="arrowLeft.mouseover" end="arrowLeft.mouseout"/>
                  </use>
                  <path fill="none" stroke="white" stroke-width="1.5" d="M0,-3.0v7 M-2.5,-0.5L0,-3.0L2.5,-0.5"/>
                </g>
        </g>
        <svg viewBox="0 0 15 15" width="100%" height="30px" preserveAspectRatio="xMaxYMin meet">
         <g id="arrow_out" transform="scale(0.3 0.3)">
          <a xlink:href="classitk_1_1simple_1_1ElastixImageFilter__coll__graph_org.svg" target="_base">
           <rect id="button" ry="5" rx="5" y="6" x="6" height="38" width="38"
                fill="#f2f5e9" fill-opacity="0.5" stroke="#606060" stroke-width="1.0"/>
           <path id="arrow"
             d="M 11.500037,31.436501 C 11.940474,20.09759 22.043105,11.32322 32.158766,21.979434 L 37.068811,17.246167 C 37.068811,17.246167 37.088388,32 37.088388,32 L 22.160133,31.978069 C 22.160133,31.978069 26.997745,27.140456 26.997745,27.140456 C 18.528582,18.264221 13.291696,25.230495 11.500037,31.436501 z"
             style="fill:#404040;"/>
          </a>
         </g>
        </svg>
</svg>
