<?xml version="1.0" encoding="UTF-8" standalone="no"?>
<!DOCTYPE svg PUBLIC "-//W3C//DTD SVG 1.1//EN"
 "http://www.w3.org/Graphics/SVG/1.1/DTD/svg11.dtd">
<!-- Generated by graphviz version 2.43.0 (0)
 -->
<!-- Title: src Pages: 1 -->
<svg width="178pt" height="223pt"
 viewBox="0.00 0.00 178.00 223.00" xmlns="http://www.w3.org/2000/svg" xmlns:xlink="http://www.w3.org/1999/xlink">
<g id="graph0" class="graph" transform="scale(1 1) rotate(0) translate(4 219)">
<title>src</title>
<polygon fill="white" stroke="transparent" points="-4,4 -4,-219 174,-219 174,4 -4,4"/>
<g id="clust1" class="cluster">
<title>clusterdir_ebe6e05764b9d1a0d98fb8b64a37b2d5</title>
<g id="a_clust1"><a xlink:href="dir_ebe6e05764b9d1a0d98fb8b64a37b2d5.html" target="_top" xlink:title="ElastixTransformixWrappers">
<polygon fill="#ddddee" stroke="black" points="8,-136 8,-207 162,-207 162,-136 8,-136"/>
<text text-anchor="middle" x="85" y="-195" font-family="Helvetica,sans-Serif" font-size="10.00">ElastixTransformixWrappers</text>
</a>
</g>
</g>
<!-- dir_1be0c912ef858d93c13d987c9b2f0929 -->
<g id="node1" class="node">
<title>dir_1be0c912ef858d93c13d987c9b2f0929</title>
<g id="a_node1"><a xlink:href="dir_1be0c912ef858d93c13d987c9b2f0929.html" target="_top" xlink:title="src">
<polygon fill="#eeeeff" stroke="black" points="112,-180 58,-180 58,-144 112,-144 112,-180"/>
<text text-anchor="middle" x="85" y="-159.5" font-family="Helvetica,sans-Serif" font-size="10.00">src</text>
</a>
</g>
</g>
<!-- dir_1ba33b307118a85c0794d13b60d0caea -->
<g id="node2" class="node">
<title>dir_1ba33b307118a85c0794d13b60d0caea</title>
<g id="a_node2"><a xlink:href="dir_1ba33b307118a85c0794d13b60d0caea.html" target="_top" xlink:title="Common">
<polygon fill="white" stroke="red" points="114.5,-36 53.5,-36 53.5,0 114.5,0 114.5,-36"/>
<text text-anchor="middle" x="84" y="-15.5" font-family="Helvetica,sans-Serif" font-size="10.00">Common</text>
</a>
</g>
</g>
<!-- dir_1be0c912ef858d93c13d987c9b2f0929&#45;&gt;dir_1ba33b307118a85c0794d13b60d0caea -->
<g id="edge1" class="edge">
<title>dir_1be0c912ef858d93c13d987c9b2f0929&#45;&gt;dir_1ba33b307118a85c0794d13b60d0caea</title>
<path fill="none" stroke="black" d="M81.35,-143.91C79.32,-133.57 77.02,-120.09 76,-108 74.66,-92.06 74.8,-87.96 76,-72 76.64,-63.52 77.84,-54.34 79.12,-46.04"/>
<polygon fill="black" stroke="black" points="82.58,-46.55 80.75,-36.11 75.68,-45.41 82.58,-46.55"/>
<g id="a_edge1&#45;headlabel"><a xlink:href="dir_000024_000010.html" target="_top" xlink:title="3">
<text text-anchor="middle" x="84.8" y="-48.05" font-family="Helvetica,sans-Serif" font-size="10.00">3</text>
</a>
</g>
</g>
<!-- dir_04a6abd5d44ee7aab5354a4d52eb0e2d -->
<g id="node3" class="node">
<title>dir_04a6abd5d44ee7aab5354a4d52eb0e2d</title>
<g id="a_node3"><a xlink:href="dir_04a6abd5d44ee7aab5354a4d52eb0e2d.html" target="_top" xlink:title="include">
<polygon fill="none" stroke="black" points="139,-108 85,-108 85,-72 139,-72 139,-108"/>
<text text-anchor="middle" x="112" y="-87.5" font-family="Helvetica,sans-Serif" font-size="10.00">include</text>
</a>
</g>
</g>
<!-- dir_1be0c912ef858d93c13d987c9b2f0929&#45;&gt;dir_04a6abd5d44ee7aab5354a4d52eb0e2d -->
<g id="edge2" class="edge">
<title>dir_1be0c912ef858d93c13d987c9b2f0929&#45;&gt;dir_04a6abd5d44ee7aab5354a4d52eb0e2d</title>
<path fill="none" stroke="black" d="M91.67,-143.7C94.71,-135.81 98.38,-126.3 101.76,-117.55"/>
<polygon fill="black" stroke="black" points="105.07,-118.69 105.4,-108.1 98.54,-116.17 105.07,-118.69"/>
<g id="a_edge2&#45;headlabel"><a xlink:href="dir_000024_000023.html" target="_top" xlink:title="2">
<text text-anchor="middle" x="106.42" y="-120.57" font-family="Helvetica,sans-Serif" font-size="10.00">2</text>
</a>
</g>
</g>
<!-- dir_04a6abd5d44ee7aab5354a4d52eb0e2d&#45;&gt;dir_1ba33b307118a85c0794d13b60d0caea -->
<g id="edge3" class="edge">
<title>dir_04a6abd5d44ee7aab5354a4d52eb0e2d&#45;&gt;dir_1ba33b307118a85c0794d13b60d0caea</title>
<path fill="none" stroke="black" d="M105.08,-71.7C101.93,-63.81 98.12,-54.3 94.62,-45.55"/>
<polygon fill="black" stroke="black" points="97.81,-44.09 90.84,-36.1 91.31,-46.69 97.81,-44.09"/>
<g id="a_edge3&#45;headlabel"><a xlink:href="dir_000023_000010.html" target="_top" xlink:title="5">
<text text-anchor="middle" x="101.78" y="-43.87" font-family="Helvetica,sans-Serif" font-size="10.00">5</text>
</a>
</g>
</g>
</g>
</svg>
