<?xml version="1.0" encoding="UTF-8" standalone="no"?>
<!DOCTYPE svg PUBLIC "-//W3C//DTD SVG 1.1//EN"
 "http://www.w3.org/Graphics/SVG/1.1/DTD/svg11.dtd">
<!-- Generated by graphviz version 2.43.0 (0)
 -->
<!-- Title: itk::simple::AffineTransform::MyVisitor Pages: 1 -->
<!--zoomable 215 -->
<svg id="main" version="1.1" xmlns="http://www.w3.org/2000/svg" xmlns:xlink="http://www.w3.org/1999/xlink" xml:space="preserve" onload="init(evt)">
<style type="text/css"><![CDATA[
.edge:hover path { stroke: red; }
.edge:hover polygon { stroke: red; fill: red; }
]]></style>
<script type="text/javascript"><![CDATA[
var edges = document.getElementsByTagName('g');
if (edges && edges.length) {
  for (var i=0;i<edges.length;i++) {
    if (edges[i].id.substr(0,4)=='edge') {
      edges[i].setAttribute('class','edge');
    }
  }
}
]]></script>
        <defs>
                <circle id="rim" cx="0" cy="0" r="7"/>
                <circle id="rim2" cx="0" cy="0" r="3.5"/>
                <g id="zoomPlus">
                        <use xlink:href="#rim" fill="#404040">
                                <set attributeName="fill" to="#808080" begin="zoomplus.mouseover" end="zoomplus.mouseout"/>
                        </use>
                        <path d="M-4,0h8M0,-4v8" fill="none" stroke="white" stroke-width="1.5" pointer-events="none"/>
                </g>
                <g id="zoomMin">
                        <use xlink:href="#rim" fill="#404040">
                                <set attributeName="fill" to="#808080" begin="zoomminus.mouseover" end="zoomminus.mouseout"/>
                        </use>
                        <path d="M-4,0h8" fill="none" stroke="white" stroke-width="1.5" pointer-events="none"/>
                </g>
                <g id="dirArrow">
                        <path fill="none" stroke="white" stroke-width="1.5" d="M0,-3.0v7 M-2.5,-0.5L0,-3.0L2.5,-0.5"/>
                </g>
               <g id="resetDef">
                       <use xlink:href="#rim2" fill="#404040">
                               <set attributeName="fill" to="#808080" begin="reset.mouseover" end="reset.mouseout"/>
                       </use>
               </g>
        </defs>

<script type="text/javascript">
var viewWidth = 1699;
var viewHeight = 215;
var sectionId = 'dynsection-0';
</script>
<script xlink:href="svgpan.js"/>
<svg id="graph" class="graph">
<g id="viewport">
<title>itk::simple::AffineTransform::MyVisitor</title>
<polygon fill="white" stroke="transparent" points="-4,4 -4,-211 1695,-211 1695,4 -4,4"/>
<!-- Node1 -->
<g id="node1" class="node">
<title>Node1</title>
<g id="a_node1"><a xlink:title=" ">
<polygon fill="#bfbfbf" stroke="black" points="1539,-130.5 1539,-160.5 1691,-160.5 1691,-130.5 1539,-130.5"/>
<text text-anchor="start" x="1547" y="-148.5" font-family="Helvetica,sans-Serif" font-size="10.00">itk::simple::AffineTransform</text>
<text text-anchor="middle" x="1615" y="-137.5" font-family="Helvetica,sans-Serif" font-size="10.00">::MyVisitor</text>
</a>
</g>
</g>
<!-- Node2 -->
<g id="node2" class="node">
<title>Node2</title>
<g id="a_node2"><a xlink:href="https://www.itk.org/Doxygen/html/classitk_1_1TransformBaseTemplate.html" xlink:title=" ">
<polygon fill="white" stroke="black" points="1298,-103.5 1298,-133.5 1451,-133.5 1451,-103.5 1298,-103.5"/>
<text text-anchor="start" x="1306" y="-121.5" font-family="Helvetica,sans-Serif" font-size="10.00">itk::TransformBaseTemplate</text>
<text text-anchor="middle" x="1374.5" y="-110.5" font-family="Helvetica,sans-Serif" font-size="10.00">&lt; TParametersValueType &gt;</text>
</a>
</g>
</g>
<!-- Node2&#45;&gt;Node1 -->
<g id="edge1" class="edge">
<title>Node2&#45;&gt;Node1</title>
<path fill="none" stroke="#9a32cd" stroke-dasharray="5,2" d="M1461.26,-128.21C1486.62,-131.08 1514.18,-134.2 1538.82,-136.99"/>
<polygon fill="#9a32cd" stroke="#9a32cd" points="1461.62,-124.73 1451.29,-127.08 1460.83,-131.68 1461.62,-124.73"/>
<text text-anchor="middle" x="1495" y="-136.5" font-family="Helvetica,sans-Serif" font-size="10.00"> transform</text>
</g>
<!-- Node3 -->
<g id="node3" class="node">
<title>Node3</title>
<g id="a_node3"><a xlink:href="https://www.itk.org/Doxygen/html/classitk_1_1Object.html" xlink:title=" ">
<polygon fill="white" stroke="black" points="1043,-100 1043,-119 1110,-119 1110,-100 1043,-100"/>
<text text-anchor="middle" x="1076.5" y="-107" font-family="Helvetica,sans-Serif" font-size="10.00">itk::Object</text>
</a>
</g>
</g>
<!-- Node3&#45;&gt;Node2 -->
<g id="edge2" class="edge">
<title>Node3&#45;&gt;Node2</title>
<path fill="none" stroke="midnightblue" d="M1120.03,-110.79C1166.4,-112.2 1241.51,-114.49 1297.96,-116.2"/>
<polygon fill="midnightblue" stroke="midnightblue" points="1120.13,-107.29 1110.02,-110.49 1119.91,-114.29 1120.13,-107.29"/>
</g>
<!-- Node4 -->
<g id="node4" class="node">
<title>Node4</title>
<g id="a_node4"><a xlink:href="https://www.itk.org/Doxygen/html/classitk_1_1LightObject.html" xlink:title=" ">
<polygon fill="white" stroke="black" points="777.5,-139 777.5,-158 868.5,-158 868.5,-139 777.5,-139"/>
<text text-anchor="middle" x="823" y="-146" font-family="Helvetica,sans-Serif" font-size="10.00">itk::LightObject</text>
</a>
</g>
</g>
<!-- Node4&#45;&gt;Node3 -->
<g id="edge3" class="edge">
<title>Node4&#45;&gt;Node3</title>
<path fill="none" stroke="midnightblue" d="M878.58,-143.9C919.2,-139.94 975.88,-133.31 1025,-123.5 1031.16,-122.27 1037.66,-120.69 1043.88,-119.03"/>
<polygon fill="midnightblue" stroke="midnightblue" points="878.23,-140.41 868.61,-144.84 878.9,-147.38 878.23,-140.41"/>
</g>
<!-- Node5 -->
<g id="node5" class="node">
<title>Node5</title>
<g id="a_node5"><a xlink:title=" ">
<polygon fill="white" stroke="#bfbfbf" points="474,-138 474,-157 581,-157 581,-138 474,-138"/>
<text text-anchor="middle" x="527.5" y="-145" font-family="Helvetica,sans-Serif" font-size="10.00">std::atomic&lt; int &gt;</text>
</a>
</g>
</g>
<!-- Node5&#45;&gt;Node4 -->
<g id="edge4" class="edge">
<title>Node5&#45;&gt;Node4</title>
<path fill="none" stroke="#9a32cd" stroke-dasharray="5,2" d="M591.46,-147.71C647.38,-147.91 727.72,-148.18 777.29,-148.35"/>
<polygon fill="#9a32cd" stroke="#9a32cd" points="591.32,-144.21 581.31,-147.68 591.3,-151.21 591.32,-144.21"/>
<text text-anchor="middle" x="687.5" y="-150.5" font-family="Helvetica,sans-Serif" font-size="10.00"> m_ReferenceCount</text>
</g>
<!-- Node6 -->
<g id="node6" class="node">
<title>Node6</title>
<g id="a_node6"><a xlink:title="STL class.">
<polygon fill="white" stroke="#bfbfbf" points="123,-127 123,-146 223,-146 223,-127 123,-127"/>
<text text-anchor="middle" x="173" y="-134" font-family="Helvetica,sans-Serif" font-size="10.00">std::atomic&lt; T &gt;</text>
</a>
</g>
</g>
<!-- Node6&#45;&gt;Node5 -->
<g id="edge5" class="edge">
<title>Node6&#45;&gt;Node5</title>
<path fill="none" stroke="orange" stroke-dasharray="5,2" d="M233.04,-138.34C300.35,-140.44 409.37,-143.84 473.88,-145.86"/>
<polygon fill="orange" stroke="orange" points="233.12,-134.84 223.01,-138.03 232.9,-141.84 233.12,-134.84"/>
<text text-anchor="middle" x="334" y="-146.5" font-family="Helvetica,sans-Serif" font-size="10.00"> &lt; int &gt;</text>
</g>
<!-- Node15 -->
<g id="node15" class="node">
<title>Node15</title>
<g id="a_node15"><a xlink:href="https://www.itk.org/Doxygen/html/classitk_1_1TimeStamp.html" xlink:title=" ">
<polygon fill="white" stroke="black" points="641.5,-100 641.5,-119 733.5,-119 733.5,-100 641.5,-100"/>
<text text-anchor="middle" x="687.5" y="-107" font-family="Helvetica,sans-Serif" font-size="10.00">itk::TimeStamp</text>
</a>
</g>
</g>
<!-- Node6&#45;&gt;Node15 -->
<g id="edge17" class="edge">
<title>Node6&#45;&gt;Node15</title>
<path fill="none" stroke="#9a32cd" stroke-dasharray="5,2" d="M233.38,-125.54C238.98,-124.75 244.59,-124.05 250,-123.5 392.39,-109.11 562.1,-108.33 641.44,-108.91"/>
<polygon fill="#9a32cd" stroke="#9a32cd" points="232.7,-122.1 223.33,-127.05 233.74,-129.02 232.7,-122.1"/>
<text text-anchor="middle" x="334" y="-126.5" font-family="Helvetica,sans-Serif" font-size="10.00"> m_GlobalTimeStamp</text>
</g>
<!-- Node7 -->
<g id="node7" class="node">
<title>Node7</title>
<g id="a_node7"><a xlink:title=" ">
<polygon fill="white" stroke="#bfbfbf" points="0,-110 0,-129 29,-129 29,-110 0,-110"/>
<text text-anchor="middle" x="14.5" y="-117" font-family="Helvetica,sans-Serif" font-size="10.00">T</text>
</a>
</g>
</g>
<!-- Node7&#45;&gt;Node6 -->
<g id="edge6" class="edge">
<title>Node7&#45;&gt;Node6</title>
<path fill="none" stroke="#9a32cd" stroke-dasharray="5,2" d="M39.23,-122.08C61.29,-124.47 94.84,-128.12 122.7,-131.14"/>
<polygon fill="#9a32cd" stroke="#9a32cd" points="39.43,-118.58 29.11,-120.98 38.68,-125.54 39.43,-118.58"/>
<text text-anchor="middle" x="71.5" y="-130.5" font-family="Helvetica,sans-Serif" font-size="10.00"> ptr</text>
</g>
<!-- Node12 -->
<g id="node12" class="node">
<title>Node12</title>
<g id="a_node12"><a xlink:title="STL class.">
<polygon fill="white" stroke="#bfbfbf" points="122.5,-32 122.5,-51 223.5,-51 223.5,-32 122.5,-32"/>
<text text-anchor="middle" x="173" y="-39" font-family="Helvetica,sans-Serif" font-size="10.00">std::map&lt; K, T &gt;</text>
</a>
</g>
</g>
<!-- Node7&#45;&gt;Node12 -->
<g id="edge13" class="edge">
<title>Node7&#45;&gt;Node12</title>
<path fill="none" stroke="#9a32cd" stroke-dasharray="5,2" d="M27.95,-101.66C33.2,-95.2 39.78,-88.31 47,-83.5 70.52,-67.82 100.44,-57.49 125.11,-51"/>
<polygon fill="#9a32cd" stroke="#9a32cd" points="24.91,-99.88 21.67,-109.97 30.49,-104.1 24.91,-99.88"/>
<text text-anchor="middle" x="71.5" y="-86.5" font-family="Helvetica,sans-Serif" font-size="10.00"> elements</text>
</g>
<!-- Node14 -->
<g id="node14" class="node">
<title>Node14</title>
<g id="a_node14"><a xlink:title="STL class.">
<polygon fill="white" stroke="#bfbfbf" points="114,-83 114,-102 232,-102 232,-83 114,-83"/>
<text text-anchor="middle" x="173" y="-90" font-family="Helvetica,sans-Serif" font-size="10.00">std::shared_ptr&lt; T &gt;</text>
</a>
</g>
</g>
<!-- Node7&#45;&gt;Node14 -->
<g id="edge15" class="edge">
<title>Node7&#45;&gt;Node14</title>
<path fill="none" stroke="#9a32cd" stroke-dasharray="5,2" d="M38.69,-109.94C41.46,-109.02 44.27,-108.17 47,-107.5 68.54,-102.19 92.65,-98.73 113.9,-96.49"/>
<polygon fill="#9a32cd" stroke="#9a32cd" points="37.23,-106.75 29.07,-113.5 39.66,-113.31 37.23,-106.75"/>
<text text-anchor="middle" x="71.5" y="-110.5" font-family="Helvetica,sans-Serif" font-size="10.00"> ptr</text>
</g>
<!-- Node19 -->
<g id="node19" class="node">
<title>Node19</title>
<g id="a_node19"><a xlink:title="STL class.">
<polygon fill="white" stroke="#bfbfbf" points="114,-170 114,-189 232,-189 232,-170 114,-170"/>
<text text-anchor="middle" x="173" y="-177" font-family="Helvetica,sans-Serif" font-size="10.00">std::unique_ptr&lt; T &gt;</text>
</a>
</g>
</g>
<!-- Node7&#45;&gt;Node19 -->
<g id="edge22" class="edge">
<title>Node7&#45;&gt;Node19</title>
<path fill="none" stroke="#9a32cd" stroke-dasharray="5,2" d="M34.6,-135.03C38.55,-137.77 42.79,-140.42 47,-142.5 72.05,-154.89 102.03,-163.94 126.34,-169.98"/>
<polygon fill="#9a32cd" stroke="#9a32cd" points="36.67,-132.2 26.56,-129.03 32.48,-137.81 36.67,-132.2"/>
<text text-anchor="middle" x="71.5" y="-163.5" font-family="Helvetica,sans-Serif" font-size="10.00"> ptr</text>
</g>
<!-- Node8 -->
<g id="node8" class="node">
<title>Node8</title>
<g id="a_node8"><a xlink:title="STL class.">
<polygon fill="white" stroke="#bfbfbf" points="790.5,-11 790.5,-30 855.5,-30 855.5,-11 790.5,-11"/>
<text text-anchor="middle" x="823" y="-18" font-family="Helvetica,sans-Serif" font-size="10.00">std::string</text>
</a>
</g>
</g>
<!-- Node8&#45;&gt;Node3 -->
<g id="edge7" class="edge">
<title>Node8&#45;&gt;Node3</title>
<path fill="none" stroke="#9a32cd" stroke-dasharray="5,2" d="M865.8,-18.46C908.44,-18.21 975.24,-22.96 1025,-50.5 1046,-62.12 1062.21,-86.11 1070.14,-99.64"/>
<polygon fill="#9a32cd" stroke="#9a32cd" points="865.71,-14.97 855.77,-18.62 865.82,-21.96 865.71,-14.97"/>
<text text-anchor="middle" x="966.5" y="-53.5" font-family="Helvetica,sans-Serif" font-size="10.00"> m_ObjectName</text>
</g>
<!-- Node9 -->
<g id="node9" class="node">
<title>Node9</title>
<g id="a_node9"><a xlink:title="STL class.">
<polygon fill="white" stroke="#bfbfbf" points="475.5,-0.5 475.5,-30.5 579.5,-30.5 579.5,-0.5 475.5,-0.5"/>
<text text-anchor="start" x="483.5" y="-18.5" font-family="Helvetica,sans-Serif" font-size="10.00">std::basic_string&lt;</text>
<text text-anchor="middle" x="527.5" y="-7.5" font-family="Helvetica,sans-Serif" font-size="10.00"> char &gt;</text>
</a>
</g>
</g>
<!-- Node9&#45;&gt;Node8 -->
<g id="edge8" class="edge">
<title>Node9&#45;&gt;Node8</title>
<path fill="none" stroke="midnightblue" d="M589.93,-16.55C651.13,-17.59 742.67,-19.15 790.43,-19.96"/>
<polygon fill="midnightblue" stroke="midnightblue" points="589.68,-13.04 579.62,-16.37 589.56,-20.04 589.68,-13.04"/>
</g>
<!-- Node10 -->
<g id="node10" class="node">
<title>Node10</title>
<g id="a_node10"><a xlink:href="https://www.itk.org/Doxygen/html/classitk_1_1MetaDataDictionary.html" xlink:title=" ">
<polygon fill="white" stroke="black" points="756,-54 756,-73 890,-73 890,-54 756,-54"/>
<text text-anchor="middle" x="823" y="-61" font-family="Helvetica,sans-Serif" font-size="10.00">itk::MetaDataDictionary</text>
</a>
</g>
</g>
<!-- Node10&#45;&gt;Node3 -->
<g id="edge9" class="edge">
<title>Node10&#45;&gt;Node3</title>
<path fill="none" stroke="#9a32cd" stroke-dasharray="5,2" d="M900.3,-65.11C938.38,-67.5 984.78,-72.85 1025,-84.5 1037.22,-88.04 1050.05,-94.43 1059.72,-99.86"/>
<polygon fill="#9a32cd" stroke="#9a32cd" points="900.49,-61.61 890.31,-64.53 900.09,-68.6 900.49,-61.61"/>
<text text-anchor="middle" x="966.5" y="-87.5" font-family="Helvetica,sans-Serif" font-size="10.00"> m_MetaDataDictionary</text>
</g>
<!-- Node11 -->
<g id="node11" class="node">
<title>Node11</title>
<g id="a_node11"><a xlink:title=" ">
<polygon fill="white" stroke="#bfbfbf" points="453,-49.5 453,-79.5 602,-79.5 602,-49.5 453,-49.5"/>
<text text-anchor="start" x="461" y="-67.5" font-family="Helvetica,sans-Serif" font-size="10.00">std::shared_ptr&lt; MetaData</text>
<text text-anchor="middle" x="527.5" y="-56.5" font-family="Helvetica,sans-Serif" font-size="10.00">DictionaryMapType &gt;</text>
</a>
</g>
</g>
<!-- Node11&#45;&gt;Node10 -->
<g id="edge10" class="edge">
<title>Node11&#45;&gt;Node10</title>
<path fill="none" stroke="#9a32cd" stroke-dasharray="5,2" d="M612.33,-64.21C657.86,-64.06 713.35,-63.87 755.81,-63.73"/>
<polygon fill="#9a32cd" stroke="#9a32cd" points="612.17,-60.71 602.18,-64.25 612.2,-67.71 612.17,-60.71"/>
<text text-anchor="middle" x="687.5" y="-66.5" font-family="Helvetica,sans-Serif" font-size="10.00"> m_Dictionary</text>
</g>
<!-- Node12&#45;&gt;Node11 -->
<g id="edge11" class="edge">
<title>Node12&#45;&gt;Node11</title>
<path fill="none" stroke="#9a32cd" stroke-dasharray="5,2" d="M233.9,-38.49C283.4,-36.78 355.45,-36.09 418,-42.5 432.72,-44.01 448.4,-46.6 463.14,-49.49"/>
<polygon fill="#9a32cd" stroke="#9a32cd" points="233.55,-35 223.69,-38.87 233.81,-41.99 233.55,-35"/>
<text text-anchor="middle" x="334" y="-45.5" font-family="Helvetica,sans-Serif" font-size="10.00"> ptr</text>
</g>
<!-- Node13 -->
<g id="node13" class="node">
<title>Node13</title>
<g id="a_node13"><a xlink:title=" ">
<polygon fill="white" stroke="#bfbfbf" points="0,-25 0,-44 29,-44 29,-25 0,-25"/>
<text text-anchor="middle" x="14.5" y="-32" font-family="Helvetica,sans-Serif" font-size="10.00">K</text>
</a>
</g>
</g>
<!-- Node13&#45;&gt;Node12 -->
<g id="edge12" class="edge">
<title>Node13&#45;&gt;Node12</title>
<path fill="none" stroke="#9a32cd" stroke-dasharray="5,2" d="M39.29,-34.38C55.32,-34.4 76.94,-34.63 96,-35.5 104.46,-35.89 113.44,-36.45 122.15,-37.09"/>
<polygon fill="#9a32cd" stroke="#9a32cd" points="39.18,-30.88 29.18,-34.39 39.19,-37.88 39.18,-30.88"/>
<text text-anchor="middle" x="71.5" y="-38.5" font-family="Helvetica,sans-Serif" font-size="10.00"> keys</text>
</g>
<!-- Node14&#45;&gt;Node11 -->
<g id="edge14" class="edge">
<title>Node14&#45;&gt;Node11</title>
<path fill="none" stroke="orange" stroke-dasharray="5,2" d="M223.11,-80.93C232.01,-79.19 241.25,-77.6 250,-76.5 318.41,-67.87 397,-65.15 452.87,-64.42"/>
<polygon fill="orange" stroke="orange" points="222.33,-77.52 213.24,-82.96 223.74,-84.38 222.33,-77.52"/>
<text text-anchor="middle" x="334" y="-79.5" font-family="Helvetica,sans-Serif" font-size="10.00"> &lt; MetaDataDictionaryMapType &gt;</text>
</g>
<!-- Node15&#45;&gt;Node3 -->
<g id="edge16" class="edge">
<title>Node15&#45;&gt;Node3</title>
<path fill="none" stroke="#9a32cd" stroke-dasharray="5,2" d="M743.77,-109.5C825.69,-109.5 976.76,-109.5 1042.97,-109.5"/>
<polygon fill="#9a32cd" stroke="#9a32cd" points="743.65,-106 733.65,-109.5 743.65,-113 743.65,-106"/>
<text text-anchor="middle" x="823" y="-112.5" font-family="Helvetica,sans-Serif" font-size="10.00"> m_MTime</text>
</g>
<!-- Node16 -->
<g id="node16" class="node">
<title>Node16</title>
<g id="a_node16"><a xlink:href="classitk_1_1simple_1_1AffineTransform.html" target="_top" xlink:title="An affine transformation about a fixed center with translation for a 2D or 3D coordinate.">
<polygon fill="white" stroke="black" points="1128,-165 1128,-184 1280,-184 1280,-165 1128,-165"/>
<text text-anchor="middle" x="1204" y="-172" font-family="Helvetica,sans-Serif" font-size="10.00">itk::simple::AffineTransform</text>
</a>
</g>
</g>
<!-- Node16&#45;&gt;Node1 -->
<g id="edge18" class="edge">
<title>Node16&#45;&gt;Node1</title>
<path fill="none" stroke="#9a32cd" stroke-dasharray="5,2" d="M1290.15,-168.46C1363.53,-163.26 1468.43,-155.82 1538.77,-150.83"/>
<polygon fill="#9a32cd" stroke="#9a32cd" points="1289.74,-164.98 1280.02,-169.18 1290.24,-171.96 1289.74,-164.98"/>
<text text-anchor="middle" x="1374.5" y="-170.5" font-family="Helvetica,sans-Serif" font-size="10.00"> that</text>
</g>
<!-- Node17 -->
<g id="node17" class="node">
<title>Node17</title>
<g id="a_node17"><a xlink:href="classitk_1_1simple_1_1Transform.html" target="_top" xlink:title="A simplified wrapper around a variety of ITK transforms.">
<polygon fill="white" stroke="black" points="761.5,-179 761.5,-198 884.5,-198 884.5,-179 761.5,-179"/>
<text text-anchor="middle" x="823" y="-186" font-family="Helvetica,sans-Serif" font-size="10.00">itk::simple::Transform</text>
</a>
</g>
</g>
<!-- Node17&#45;&gt;Node16 -->
<g id="edge19" class="edge">
<title>Node17&#45;&gt;Node16</title>
<path fill="none" stroke="midnightblue" d="M895.26,-185.87C961.66,-183.41 1060.31,-179.77 1127.91,-177.27"/>
<polygon fill="midnightblue" stroke="midnightblue" points="894.76,-182.38 884.89,-186.25 895.02,-189.38 894.76,-182.38"/>
</g>
<!-- Node18 -->
<g id="node18" class="node">
<title>Node18</title>
<g id="a_node18"><a xlink:title=" ">
<polygon fill="white" stroke="#bfbfbf" points="436,-176.5 436,-206.5 619,-206.5 619,-176.5 436,-176.5"/>
<text text-anchor="start" x="444" y="-194.5" font-family="Helvetica,sans-Serif" font-size="10.00">std::unique_ptr&lt; PimpleTransform</text>
<text text-anchor="middle" x="527.5" y="-183.5" font-family="Helvetica,sans-Serif" font-size="10.00">Base &gt;</text>
</a>
</g>
</g>
<!-- Node18&#45;&gt;Node17 -->
<g id="edge20" class="edge">
<title>Node18&#45;&gt;Node17</title>
<path fill="none" stroke="#9a32cd" stroke-dasharray="5,2" d="M629.48,-190.47C673.33,-190.02 723.24,-189.51 761.25,-189.12"/>
<polygon fill="#9a32cd" stroke="#9a32cd" points="629.32,-186.97 619.36,-190.57 629.39,-193.97 629.32,-186.97"/>
<text text-anchor="middle" x="687.5" y="-192.5" font-family="Helvetica,sans-Serif" font-size="10.00"> m_PimpleTransform</text>
</g>
<!-- Node19&#45;&gt;Node18 -->
<g id="edge21" class="edge">
<title>Node19&#45;&gt;Node18</title>
<path fill="none" stroke="orange" stroke-dasharray="5,2" d="M242.22,-181.82C297.33,-183.7 375.38,-186.36 435.76,-188.41"/>
<polygon fill="orange" stroke="orange" points="242.32,-178.32 232.21,-181.48 242.08,-185.32 242.32,-178.32"/>
<text text-anchor="middle" x="334" y="-190.5" font-family="Helvetica,sans-Serif" font-size="10.00"> &lt; PimpleTransformBase &gt;</text>
</g>
</g>
</svg>
        <g id="navigator" transform="translate(0 0)" fill="#404254">
                <rect fill="#f2f5e9" fill-opacity="0.5" stroke="#606060" stroke-width=".5" x="0" y="0" width="60" height="60"/>
                <use id="zoomplus" xlink:href="#zoomPlus" x="17" y="9" onmousedown="handleZoom(evt,'in')"/>
                <use id="zoomminus" xlink:href="#zoomMin" x="42" y="9" onmousedown="handleZoom(evt,'out')"/>
                <use id="reset" xlink:href="#resetDef" x="30" y="36" onmousedown="handleReset()"/>
                <g id="arrowUp" xlink:href="#dirArrow" transform="translate(30 24)" onmousedown="handlePan(0,-1)">
                  <use xlink:href="#rim" fill="#404040">
                        <set attributeName="fill" to="#808080" begin="arrowUp.mouseover" end="arrowUp.mouseout"/>
                  </use>
                  <path fill="none" stroke="white" stroke-width="1.5" d="M0,-3.0v7 M-2.5,-0.5L0,-3.0L2.5,-0.5"/>
                </g>
                <g id="arrowRight" xlink:href="#dirArrow" transform="rotate(90) translate(36 -43)" onmousedown="handlePan(1,0)">
                  <use xlink:href="#rim" fill="#404040">
                        <set attributeName="fill" to="#808080" begin="arrowRight.mouseover" end="arrowRight.mouseout"/>
                  </use>
                  <path fill="none" stroke="white" stroke-width="1.5" d="M0,-3.0v7 M-2.5,-0.5L0,-3.0L2.5,-0.5"/>
                </g>
                <g id="arrowDown" xlink:href="#dirArrow" transform="rotate(180) translate(-30 -48)" onmousedown="handlePan(0,1)">
                  <use xlink:href="#rim" fill="#404040">
                        <set attributeName="fill" to="#808080" begin="arrowDown.mouseover" end="arrowDown.mouseout"/>
                  </use>
                  <path fill="none" stroke="white" stroke-width="1.5" d="M0,-3.0v7 M-2.5,-0.5L0,-3.0L2.5,-0.5"/>
                </g>
                <g id="arrowLeft" xlink:href="#dirArrow" transform="rotate(270) translate(-36 17)" onmousedown="handlePan(-1,0)">
                  <use xlink:href="#rim" fill="#404040">
                        <set attributeName="fill" to="#808080" begin="arrowLeft.mouseover" end="arrowLeft.mouseout"/>
                  </use>
                  <path fill="none" stroke="white" stroke-width="1.5" d="M0,-3.0v7 M-2.5,-0.5L0,-3.0L2.5,-0.5"/>
                </g>
        </g>
        <svg viewBox="0 0 15 15" width="100%" height="30px" preserveAspectRatio="xMaxYMin meet">
         <g id="arrow_out" transform="scale(0.3 0.3)">
          <a xlink:href="structitk_1_1simple_1_1AffineTransform_1_1MyVisitor__coll__graph_org.svg" target="_base">
           <rect id="button" ry="5" rx="5" y="6" x="6" height="38" width="38"
                fill="#f2f5e9" fill-opacity="0.5" stroke="#606060" stroke-width="1.0"/>
           <path id="arrow"
             d="M 11.500037,31.436501 C 11.940474,20.09759 22.043105,11.32322 32.158766,21.979434 L 37.068811,17.246167 C 37.068811,17.246167 37.088388,32 37.088388,32 L 22.160133,31.978069 C 22.160133,31.978069 26.997745,27.140456 26.997745,27.140456 C 18.528582,18.264221 13.291696,25.230495 11.500037,31.436501 z"
             style="fill:#404040;"/>
          </a>
         </g>
        </svg>
</svg>
