<?xml version="1.0" encoding="UTF-8" standalone="no"?>
<!DOCTYPE svg PUBLIC "-//W3C//DTD SVG 1.1//EN"
 "http://www.w3.org/Graphics/SVG/1.1/DTD/svg11.dtd">
<!-- Generated by graphviz version 2.40.1 (20161225.0304)
 -->
<!-- Title: sitkCommon.h Pages: 1 -->
<!--zoomable 509 -->
<svg id="main" version="1.1" xmlns="http://www.w3.org/2000/svg" xmlns:xlink="http://www.w3.org/1999/xlink" xml:space="preserve" onload="init(evt)">
<style type="text/css"><![CDATA[
.edge:hover path { stroke: red; }
.edge:hover polygon { stroke: red; fill: red; }
]]></style>
<script type="text/javascript"><![CDATA[
var edges = document.getElementsByTagName('g');
if (edges && edges.length) {
  for (var i=0;i<edges.length;i++) {
    if (edges[i].id.substr(0,4)=='edge') {
      edges[i].setAttribute('class','edge');
    }
  }
}
]]></script>
        <defs>
                <circle id="rim" cx="0" cy="0" r="7"/>
                <circle id="rim2" cx="0" cy="0" r="3.5"/>
                <g id="zoomPlus">
                        <use xlink:href="#rim" fill="#404040">
                                <set attributeName="fill" to="#808080" begin="zoomplus.mouseover" end="zoomplus.mouseout"/>
                        </use>
                        <path d="M-4,0h8M0,-4v8" fill="none" stroke="white" stroke-width="1.5" pointer-events="none"/>
                </g>
                <g id="zoomMin">
                        <use xlink:href="#rim" fill="#404040">
                                <set attributeName="fill" to="#808080" begin="zoomminus.mouseover" end="zoomminus.mouseout"/>
                        </use>
                        <path d="M-4,0h8" fill="none" stroke="white" stroke-width="1.5" pointer-events="none"/>
                </g>
                <g id="dirArrow">
                        <path fill="none" stroke="white" stroke-width="1.5" d="M0,-3.0v7 M-2.5,-0.5L0,-3.0L2.5,-0.5"/>
                </g>
               <g id="resetDef">
                       <use xlink:href="#rim2" fill="#404040">
                               <set attributeName="fill" to="#808080" begin="reset.mouseover" end="reset.mouseout"/>
                       </use>
               </g>
        </defs>

<script type="text/javascript">
var viewWidth = 4304;
var viewHeight = 509;
var sectionId = 'dynsection-1';
</script>
<script xlink:href="svgpan.js"/>
<svg id="graph" class="graph">
<g id="viewport">
<title>sitkCommon.h</title>
<polygon fill="#ffffff" stroke="transparent" points="-4,4 -4,-505 4299.6964,-505 4299.6964,4 -4,4"/>
<!-- Node1 -->
<g id="node1" class="node">
<title>Node1</title>
<g id="a_node1"><a xlink:title=" ">
<polygon fill="#bfbfbf" stroke="#000000" points="2062.6964,-481.5 2062.6964,-500.5 2150.6964,-500.5 2150.6964,-481.5 2062.6964,-481.5"/>
<text text-anchor="middle" x="2106.6964" y="-488.5" font-family="Helvetica,sans-Serif" font-size="10.00" fill="#000000">sitkCommon.h</text>
</a>
</g>
</g>
<!-- Node2 -->
<g id="node2" class="node">
<title>Node2</title>
<g id="a_node2"><a xlink:href="sitkNonCopyable_8h.html" target="_top" xlink:title=" ">
<polygon fill="#ffffff" stroke="#000000" points="863.1964,-313.5 863.1964,-332.5 972.1964,-332.5 972.1964,-313.5 863.1964,-313.5"/>
<text text-anchor="middle" x="917.6964" y="-320.5" font-family="Helvetica,sans-Serif" font-size="10.00" fill="#000000">sitkNonCopyable.h</text>
</a>
</g>
</g>
<!-- Node1&#45;&gt;Node2 -->
<g id="edge1" class="edge">
<title>Node1&#45;&gt;Node2</title>
<path fill="none" stroke="#191970" d="M2052.5027,-489.5538C1866.3282,-484.416 1259.6867,-466.2115 1174.6964,-445 1124.6198,-432.5021 985.0135,-359.0956 935.4397,-332.5629"/>
<polygon fill="#191970" stroke="#191970" points="2052.5124,-493.0553 2062.6047,-489.8311 2052.7045,-486.0579 2052.5124,-493.0553"/>
</g>
<!-- Node327 -->
<g id="node13" class="node">
<title>Node327</title>
<g id="a_node13"><a xlink:href="sitkProcessObject_8h.html" target="_top" xlink:title=" ">
<polygon fill="#ffffff" stroke="#ff0000" points="696.1964,-185 696.1964,-204 809.1964,-204 809.1964,-185 696.1964,-185"/>
<text text-anchor="middle" x="752.6964" y="-192" font-family="Helvetica,sans-Serif" font-size="10.00" fill="#000000">sitkProcessObject.h</text>
</a>
</g>
</g>
<!-- Node1&#45;&gt;Node327 -->
<g id="edge139" class="edge">
<title>Node1&#45;&gt;Node327</title>
<path fill="none" stroke="#191970" d="M2052.2822,-489.7078C1873.1686,-485.2584 1303.0412,-469.487 1120.6964,-445 1007.8449,-429.8452 963.1748,-455.4296 870.6964,-389 835.7318,-363.884 774.7476,-240.5003 757.4133,-204.4242"/>
<polygon fill="#191970" stroke="#191970" points="2052.4312,-493.2124 2062.5145,-489.9602 2052.6039,-486.2145 2052.4312,-493.2124"/>
</g>
<!-- Node339 -->
<g id="node17" class="node">
<title>Node339</title>
<g id="a_node17"><a xlink:href="sitkObjectOwnedBase_8h.html" target="_top" xlink:title=" ">
<polygon fill="#ffffff" stroke="#000000" points="1145.1964,-252 1145.1964,-271 1278.1964,-271 1278.1964,-252 1145.1964,-252"/>
<text text-anchor="middle" x="1211.6964" y="-259" font-family="Helvetica,sans-Serif" font-size="10.00" fill="#000000">sitkObjectOwnedBase.h</text>
</a>
</g>
</g>
<!-- Node1&#45;&gt;Node339 -->
<g id="edge140" class="edge">
<title>Node1&#45;&gt;Node339</title>
<path fill="none" stroke="#191970" d="M2052.3935,-489.6409C1873.7846,-484.9532 1314.172,-468.4506 1283.6964,-445 1234.7968,-407.3723 1265.5106,-369.4913 1240.6964,-313 1234.0112,-297.7806 1224.1739,-281.2 1217.8509,-271.0756"/>
<polygon fill="#191970" stroke="#191970" points="2052.5188,-493.1453 2062.6065,-489.907 2052.7011,-486.1476 2052.5188,-493.1453"/>
</g>
<!-- Node340 -->
<g id="node18" class="node">
<title>Node340</title>
<g id="a_node18"><a xlink:href="sitkCommand_8h.html" target="_top" xlink:title=" ">
<polygon fill="#ffffff" stroke="#ff0000" points="1130.6964,-185 1130.6964,-204 1224.6964,-204 1224.6964,-185 1130.6964,-185"/>
<text text-anchor="middle" x="1177.6964" y="-192" font-family="Helvetica,sans-Serif" font-size="10.00" fill="#000000">sitkCommand.h</text>
</a>
</g>
</g>
<!-- Node1&#45;&gt;Node340 -->
<g id="edge141" class="edge">
<title>Node1&#45;&gt;Node340</title>
<path fill="none" stroke="#191970" d="M2052.2603,-488.9213C1912.8661,-483.3089 1550.5007,-466.7904 1500.6964,-445 1381.7078,-392.9399 1394.238,-318.8242 1286.6964,-246 1260.1817,-228.0449 1226.4263,-213.1563 1203.556,-204.0822"/>
<polygon fill="#191970" stroke="#191970" points="2052.1664,-492.4203 2062.2981,-489.3221 2052.4457,-485.4259 2052.1664,-492.4203"/>
</g>
<!-- Node342 -->
<g id="node19" class="node">
<title>Node342</title>
<g id="a_node19"><a xlink:href="sitkLogger_8h.html" target="_top" xlink:title=" ">
<polygon fill="#ffffff" stroke="#000000" points="1242.6964,-185 1242.6964,-204 1318.6964,-204 1318.6964,-185 1242.6964,-185"/>
<text text-anchor="middle" x="1280.6964" y="-192" font-family="Helvetica,sans-Serif" font-size="10.00" fill="#000000">sitkLogger.h</text>
</a>
</g>
</g>
<!-- Node1&#45;&gt;Node342 -->
<g id="edge142" class="edge">
<title>Node1&#45;&gt;Node342</title>
<path fill="none" stroke="#191970" d="M2052.0941,-487.3435C1948.3434,-480.0881 1726.4119,-463.0101 1651.6964,-445 1573.306,-426.104 1482.6964,-459.6357 1482.6964,-379 1482.6964,-379 1482.6964,-379 1482.6964,-323 1482.6964,-281.3322 1358.7882,-226.1103 1305.0624,-204.1248"/>
<polygon fill="#191970" stroke="#191970" points="2052.1362,-490.8548 2062.3547,-488.0559 2052.6212,-483.8716 2052.1362,-490.8548"/>
</g>
<!-- Node343 -->
<g id="node20" class="node">
<title>Node343</title>
<g id="a_node20"><a xlink:href="sitkVersion_8h.html" target="_top" xlink:title=" ">
<polygon fill="#ffffff" stroke="#000000" points="4080.6964,-425.5 4080.6964,-444.5 4160.6964,-444.5 4160.6964,-425.5 4080.6964,-425.5"/>
<text text-anchor="middle" x="4120.6964" y="-432.5" font-family="Helvetica,sans-Serif" font-size="10.00" fill="#000000">sitkVersion.h</text>
</a>
</g>
</g>
<!-- Node1&#45;&gt;Node343 -->
<g id="edge38" class="edge">
<title>Node1&#45;&gt;Node343</title>
<path fill="none" stroke="#191970" d="M2161.097,-489.9577C2378.9433,-485.7079 3209.5195,-468.7779 3892.6964,-445 3958.4282,-442.7122 4034.7815,-439.1867 4080.3432,-436.9906"/>
<polygon fill="#191970" stroke="#191970" points="2160.8203,-486.4623 2150.8903,-490.1563 2160.9565,-493.461 2160.8203,-486.4623"/>
</g>
<!-- Node6 -->
<g id="node21" class="node">
<title>Node6</title>
<g id="a_node21"><a xlink:href="sitkImage_8h.html" target="_top" xlink:title=" ">
<polygon fill="#ffffff" stroke="#000000" points="724.6964,-313.5 724.6964,-332.5 798.6964,-332.5 798.6964,-313.5 724.6964,-313.5"/>
<text text-anchor="middle" x="761.6964" y="-320.5" font-family="Helvetica,sans-Serif" font-size="10.00" fill="#000000">sitkImage.h</text>
</a>
</g>
</g>
<!-- Node1&#45;&gt;Node6 -->
<g id="edge40" class="edge">
<title>Node1&#45;&gt;Node6</title>
<path fill="none" stroke="#191970" d="M2052.4717,-490.6143C1814.6072,-488.725 872.9822,-479.1106 820.6964,-445 780.4986,-418.7754 766.9005,-356.8751 763.0348,-332.8101"/>
<polygon fill="#191970" stroke="#191970" points="2052.5813,-494.1152 2062.6083,-490.6935 2052.636,-487.1154 2052.5813,-494.1152"/>
</g>
<!-- Node9 -->
<g id="node23" class="node">
<title>Node9</title>
<g id="a_node23"><a xlink:href="sitkTransform_8h.html" target="_top" xlink:title=" ">
<polygon fill="#ffffff" stroke="#000000" points="2372.6964,-252 2372.6964,-271 2464.6964,-271 2464.6964,-252 2372.6964,-252"/>
<text text-anchor="middle" x="2418.6964" y="-259" font-family="Helvetica,sans-Serif" font-size="10.00" fill="#000000">sitkTransform.h</text>
</a>
</g>
</g>
<!-- Node1&#45;&gt;Node9 -->
<g id="edge110" class="edge">
<title>Node1&#45;&gt;Node9</title>
<path fill="none" stroke="#191970" d="M2161.0464,-486.8692C2223.7304,-481.0702 2321.756,-468.4913 2349.6964,-445 2405.1856,-398.3466 2416.1044,-302.2947 2418.2069,-271.3436"/>
<polygon fill="#191970" stroke="#191970" points="2160.5723,-483.3976 2150.9243,-487.7754 2161.1965,-490.3697 2160.5723,-483.3976"/>
</g>
<!-- Node311 -->
<g id="node26" class="node">
<title>Node311</title>
<g id="a_node26"><a xlink:href="sitkBSplineTransform_8h.html" target="_top" xlink:title=" ">
<polygon fill="#ffffff" stroke="#000000" points="1997.1964,-185 1997.1964,-204 2126.1964,-204 2126.1964,-185 1997.1964,-185"/>
<text text-anchor="middle" x="2061.6964" y="-192" font-family="Helvetica,sans-Serif" font-size="10.00" fill="#000000">sitkBSplineTransform.h</text>
</a>
</g>
</g>
<!-- Node1&#45;&gt;Node311 -->
<g id="edge111" class="edge">
<title>Node1&#45;&gt;Node311</title>
<path fill="none" stroke="#191970" d="M2101.2987,-471.3284C2095.6816,-449.0948 2087.6964,-411.7312 2087.6964,-379 2087.6964,-379 2087.6964,-379 2087.6964,-323 2087.6964,-277.7054 2071.9856,-225.1819 2064.9894,-204.0381"/>
<polygon fill="#191970" stroke="#191970" points="2097.9675,-472.4237 2103.8929,-481.2066 2104.738,-470.6455 2097.9675,-472.4237"/>
</g>
<!-- Node312 -->
<g id="node27" class="node">
<title>Node312</title>
<g id="a_node27"><a xlink:href="sitkDisplacementFieldTransform_8h.html" target="_top" xlink:title=" ">
<polygon fill="#ffffff" stroke="#000000" points="1682.6964,-185 1682.6964,-204 1864.6964,-204 1864.6964,-185 1682.6964,-185"/>
<text text-anchor="middle" x="1773.6964" y="-192" font-family="Helvetica,sans-Serif" font-size="10.00" fill="#000000">sitkDisplacementFieldTransform.h</text>
</a>
</g>
</g>
<!-- Node1&#45;&gt;Node312 -->
<g id="edge112" class="edge">
<title>Node1&#45;&gt;Node312</title>
<path fill="none" stroke="#191970" d="M2052.5777,-479.1004C1976.6538,-460.816 1847.6964,-423.2472 1847.6964,-379 1847.6964,-379 1847.6964,-379 1847.6964,-323 1847.6964,-272.5421 1804.319,-224.0235 1783.9858,-204.0522"/>
<polygon fill="#191970" stroke="#191970" points="2051.9293,-482.5436 2062.467,-481.4454 2053.5444,-475.7324 2051.9293,-482.5436"/>
</g>
<!-- Node313 -->
<g id="node28" class="node">
<title>Node313</title>
<g id="a_node28"><a xlink:href="sitkAffineTransform_8h.html" target="_top" xlink:title=" ">
<polygon fill="#ffffff" stroke="#000000" points="2144.1964,-185 2144.1964,-204 2265.1964,-204 2265.1964,-185 2144.1964,-185"/>
<text text-anchor="middle" x="2204.6964" y="-192" font-family="Helvetica,sans-Serif" font-size="10.00" fill="#000000">sitkAffineTransform.h</text>
</a>
</g>
</g>
<!-- Node1&#45;&gt;Node313 -->
<g id="edge119" class="edge">
<title>Node1&#45;&gt;Node313</title>
<path fill="none" stroke="#191970" d="M2125.9188,-474.2786C2146.9456,-454.0302 2177.6964,-417.7872 2177.6964,-379 2177.6964,-379 2177.6964,-379 2177.6964,-323 2177.6964,-277.6356 2194.0116,-225.1508 2201.2769,-204.0277"/>
<polygon fill="#191970" stroke="#191970" points="2123.376,-471.8632 2118.4207,-481.2278 2128.1343,-476.9974 2123.376,-471.8632"/>
</g>
<!-- Node314 -->
<g id="node29" class="node">
<title>Node314</title>
<g id="a_node29"><a xlink:href="sitkEuler2DTransform_8h.html" target="_top" xlink:title=" ">
<polygon fill="#ffffff" stroke="#000000" points="2283.1964,-185 2283.1964,-204 2414.1964,-204 2414.1964,-185 2283.1964,-185"/>
<text text-anchor="middle" x="2348.6964" y="-192" font-family="Helvetica,sans-Serif" font-size="10.00" fill="#000000">sitkEuler2DTransform.h</text>
</a>
</g>
</g>
<!-- Node1&#45;&gt;Node314 -->
<g id="edge120" class="edge">
<title>Node1&#45;&gt;Node314</title>
<path fill="none" stroke="#191970" d="M2160.6935,-479.918C2211.4568,-465.9722 2279.6964,-436.5267 2279.6964,-379 2279.6964,-379 2279.6964,-379 2279.6964,-323 2279.6964,-273.3693 2320.143,-224.4113 2339.1023,-204.1885"/>
<polygon fill="#191970" stroke="#191970" points="2159.5891,-476.5891 2150.7993,-482.5043 2161.3594,-483.3615 2159.5891,-476.5891"/>
</g>
<!-- Node315 -->
<g id="node30" class="node">
<title>Node315</title>
<g id="a_node30"><a xlink:href="sitkEuler3DTransform_8h.html" target="_top" xlink:title=" ">
<polygon fill="#ffffff" stroke="#000000" points="2432.1964,-185 2432.1964,-204 2563.1964,-204 2563.1964,-185 2432.1964,-185"/>
<text text-anchor="middle" x="2497.6964" y="-192" font-family="Helvetica,sans-Serif" font-size="10.00" fill="#000000">sitkEuler3DTransform.h</text>
</a>
</g>
</g>
<!-- Node1&#45;&gt;Node315 -->
<g id="edge121" class="edge">
<title>Node1&#45;&gt;Node315</title>
<path fill="none" stroke="#191970" d="M2160.8568,-482.2056C2193.1239,-475.3595 2234.021,-463.7767 2266.6964,-445 2303.491,-423.8564 2335.6964,-421.4369 2335.6964,-379 2335.6964,-379 2335.6964,-379 2335.6964,-323 2335.6964,-286.5854 2338.1822,-271.9817 2363.6964,-246 2385.1753,-224.1277 2416.9482,-211.3845 2444.1649,-204.0472"/>
<polygon fill="#191970" stroke="#191970" points="2159.8096,-478.8466 2150.7051,-484.265 2161.2014,-485.7069 2159.8096,-478.8466"/>
</g>
<!-- Node316 -->
<g id="node31" class="node">
<title>Node316</title>
<g id="a_node31"><a xlink:href="sitkScaleTransform_8h.html" target="_top" xlink:title=" ">
<polygon fill="#ffffff" stroke="#000000" points="2581.1964,-185 2581.1964,-204 2700.1964,-204 2700.1964,-185 2581.1964,-185"/>
<text text-anchor="middle" x="2640.6964" y="-192" font-family="Helvetica,sans-Serif" font-size="10.00" fill="#000000">sitkScaleTransform.h</text>
</a>
</g>
</g>
<!-- Node1&#45;&gt;Node316 -->
<g id="edge122" class="edge">
<title>Node1&#45;&gt;Node316</title>
<path fill="none" stroke="#191970" d="M2161.2984,-488.0551C2276.0408,-480.3712 2531.6964,-454.7512 2531.6964,-379 2531.6964,-379 2531.6964,-379 2531.6964,-323 2531.6964,-266.8323 2593.0089,-222.6349 2623.6652,-204.0467"/>
<polygon fill="#191970" stroke="#191970" points="2160.7292,-484.5845 2150.9762,-488.7232 2161.1814,-491.5699 2160.7292,-484.5845"/>
</g>
<!-- Node317 -->
<g id="node32" class="node">
<title>Node317</title>
<g id="a_node32"><a xlink:href="sitkScaleSkewVersor3DTransform_8h.html" target="_top" xlink:title=" ">
<polygon fill="#ffffff" stroke="#000000" points="2718.1964,-185 2718.1964,-204 2907.1964,-204 2907.1964,-185 2718.1964,-185"/>
<text text-anchor="middle" x="2812.6964" y="-192" font-family="Helvetica,sans-Serif" font-size="10.00" fill="#000000">sitkScaleSkewVersor3DTransform.h</text>
</a>
</g>
</g>
<!-- Node1&#45;&gt;Node317 -->
<g id="edge123" class="edge">
<title>Node1&#45;&gt;Node317</title>
<path fill="none" stroke="#191970" d="M2160.749,-489.2407C2234.7962,-485.7451 2371.3916,-475.3975 2483.6964,-445 2555.1812,-425.6513 2636.6964,-453.057 2636.6964,-379 2636.6964,-379 2636.6964,-379 2636.6964,-323 2636.6964,-255.279 2722.7441,-219.437 2774.5071,-204.0025"/>
<polygon fill="#191970" stroke="#191970" points="2160.5581,-485.7457 2150.7248,-489.6899 2160.8715,-492.7387 2160.5581,-485.7457"/>
</g>
<!-- Node318 -->
<g id="node33" class="node">
<title>Node318</title>
<g id="a_node33"><a xlink:href="sitkComposeScaleSkewVersor3DTransform_8h.html" target="_top" xlink:title=" ">
<polygon fill="#ffffff" stroke="#000000" points="2925.6964,-179.5 2925.6964,-209.5 3095.6964,-209.5 3095.6964,-179.5 2925.6964,-179.5"/>
<text text-anchor="start" x="2933.6964" y="-197.5" font-family="Helvetica,sans-Serif" font-size="10.00" fill="#000000">sitkComposeScaleSkewVersor3</text>
<text text-anchor="middle" x="3010.6964" y="-186.5" font-family="Helvetica,sans-Serif" font-size="10.00" fill="#000000">DTransform.h</text>
</a>
</g>
</g>
<!-- Node1&#45;&gt;Node318 -->
<g id="edge124" class="edge">
<title>Node1&#45;&gt;Node318</title>
<path fill="none" stroke="#191970" d="M2160.7556,-488.8185C2335.6267,-481.0514 2874.6964,-451.2487 2874.6964,-379 2874.6964,-379 2874.6964,-379 2874.6964,-323 2874.6964,-267.7781 2934.6696,-229.232 2974.9641,-209.5658"/>
<polygon fill="#191970" stroke="#191970" points="2160.5832,-485.3226 2150.7459,-489.2566 2160.8894,-492.3159 2160.5832,-485.3226"/>
</g>
<!-- Node319 -->
<g id="node34" class="node">
<title>Node319</title>
<g id="a_node34"><a xlink:href="sitkScaleVersor3DTransform_8h.html" target="_top" xlink:title=" ">
<polygon fill="#ffffff" stroke="#000000" points="3114.1964,-185 3114.1964,-204 3277.1964,-204 3277.1964,-185 3114.1964,-185"/>
<text text-anchor="middle" x="3195.6964" y="-192" font-family="Helvetica,sans-Serif" font-size="10.00" fill="#000000">sitkScaleVersor3DTransform.h</text>
</a>
</g>
</g>
<!-- Node1&#45;&gt;Node319 -->
<g id="edge125" class="edge">
<title>Node1&#45;&gt;Node319</title>
<path fill="none" stroke="#191970" d="M2160.8107,-490.0877C2357.0333,-486.0739 3019.6964,-466.0728 3019.6964,-379 3019.6964,-379 3019.6964,-379 3019.6964,-323 3019.6964,-255.279 3105.7441,-219.437 3157.5071,-204.0025"/>
<polygon fill="#191970" stroke="#191970" points="2160.6607,-486.5899 2150.7323,-490.2881 2160.8,-493.5885 2160.6607,-486.5899"/>
</g>
<!-- Node320 -->
<g id="node35" class="node">
<title>Node320</title>
<g id="a_node35"><a xlink:href="sitkSimilarity2DTransform_8h.html" target="_top" xlink:title=" ">
<polygon fill="#ffffff" stroke="#000000" points="3295.1964,-185 3295.1964,-204 3448.1964,-204 3448.1964,-185 3295.1964,-185"/>
<text text-anchor="middle" x="3371.6964" y="-192" font-family="Helvetica,sans-Serif" font-size="10.00" fill="#000000">sitkSimilarity2DTransform.h</text>
</a>
</g>
</g>
<!-- Node1&#45;&gt;Node320 -->
<g id="edge126" class="edge">
<title>Node1&#45;&gt;Node320</title>
<path fill="none" stroke="#191970" d="M2160.7875,-490.3768C2290.2778,-488.3451 2628.1116,-479.8479 2907.6964,-445 3061.3123,-425.8531 3249.6964,-533.8045 3249.6964,-379 3249.6964,-379 3249.6964,-379 3249.6964,-323 3249.6964,-264.552 3316.8992,-222.0795 3351.5506,-204.0645"/>
<polygon fill="#191970" stroke="#191970" points="2160.6772,-486.878 2150.731,-490.5281 2160.7825,-493.8772 2160.6772,-486.878"/>
</g>
<!-- Node321 -->
<g id="node36" class="node">
<title>Node321</title>
<g id="a_node36"><a xlink:href="sitkSimilarity3DTransform_8h.html" target="_top" xlink:title=" ">
<polygon fill="#ffffff" stroke="#000000" points="3466.1964,-185 3466.1964,-204 3619.1964,-204 3619.1964,-185 3466.1964,-185"/>
<text text-anchor="middle" x="3542.6964" y="-192" font-family="Helvetica,sans-Serif" font-size="10.00" fill="#000000">sitkSimilarity3DTransform.h</text>
</a>
</g>
</g>
<!-- Node1&#45;&gt;Node321 -->
<g id="edge127" class="edge">
<title>Node1&#45;&gt;Node321</title>
<path fill="none" stroke="#191970" d="M2161.1209,-489.5412C2339.6075,-484.5852 2906.1326,-467.4471 3087.6964,-445 3234.8402,-426.8083 3414.6964,-527.264 3414.6964,-379 3414.6964,-379 3414.6964,-379 3414.6964,-323 3414.6964,-263.4869 3484.464,-221.8085 3520.983,-204.0689"/>
<polygon fill="#191970" stroke="#191970" points="2160.822,-486.048 2150.9225,-489.8228 2161.0153,-493.0453 2160.822,-486.048"/>
</g>
<!-- Node322 -->
<g id="node37" class="node">
<title>Node322</title>
<g id="a_node37"><a xlink:href="sitkTranslationTransform_8h.html" target="_top" xlink:title=" ">
<polygon fill="#ffffff" stroke="#000000" points="3637.6964,-185 3637.6964,-204 3783.6964,-204 3783.6964,-185 3637.6964,-185"/>
<text text-anchor="middle" x="3710.6964" y="-192" font-family="Helvetica,sans-Serif" font-size="10.00" fill="#000000">sitkTranslationTransform.h</text>
</a>
</g>
</g>
<!-- Node1&#45;&gt;Node322 -->
<g id="edge128" class="edge">
<title>Node1&#45;&gt;Node322</title>
<path fill="none" stroke="#191970" d="M2161.1568,-490.0072C2359.6154,-486.2056 3043.7757,-471.4447 3260.6964,-445 3405.2771,-427.3743 3581.6964,-524.651 3581.6964,-379 3581.6964,-379 3581.6964,-379 3581.6964,-323 3581.6964,-263.2549 3652.0091,-221.6871 3688.8134,-204.0212"/>
<polygon fill="#191970" stroke="#191970" points="2160.9075,-486.5112 2150.9759,-490.2007 2161.0407,-493.5099 2160.9075,-486.5112"/>
</g>
<!-- Node323 -->
<g id="node38" class="node">
<title>Node323</title>
<g id="a_node38"><a xlink:href="sitkVersorTransform_8h.html" target="_top" xlink:title=" ">
<polygon fill="#ffffff" stroke="#000000" points="3802.1964,-185 3802.1964,-204 3925.1964,-204 3925.1964,-185 3802.1964,-185"/>
<text text-anchor="middle" x="3863.6964" y="-192" font-family="Helvetica,sans-Serif" font-size="10.00" fill="#000000">sitkVersorTransform.h</text>
</a>
</g>
</g>
<!-- Node1&#45;&gt;Node323 -->
<g id="edge129" class="edge">
<title>Node1&#45;&gt;Node323</title>
<path fill="none" stroke="#191970" d="M2161.114,-490.5369C2377.7418,-488.4725 3179.2091,-478.6743 3430.6964,-445 3557.4203,-428.0316 3710.6964,-506.8549 3710.6964,-379 3710.6964,-379 3710.6964,-379 3710.6964,-323 3710.6964,-259.174 3789.7365,-220.7146 3834.1965,-204.1299"/>
<polygon fill="#191970" stroke="#191970" points="2160.9131,-487.0385 2150.9464,-490.6322 2160.9787,-494.0382 2160.9131,-487.0385"/>
</g>
<!-- Node324 -->
<g id="node39" class="node">
<title>Node324</title>
<g id="a_node39"><a xlink:href="sitkVersorRigid3DTransform_8h.html" target="_top" xlink:title=" ">
<polygon fill="#ffffff" stroke="#000000" points="3943.1964,-185 3943.1964,-204 4104.1964,-204 4104.1964,-185 3943.1964,-185"/>
<text text-anchor="middle" x="4023.6964" y="-192" font-family="Helvetica,sans-Serif" font-size="10.00" fill="#000000">sitkVersorRigid3DTransform.h</text>
</a>
</g>
</g>
<!-- Node1&#45;&gt;Node324 -->
<g id="edge130" class="edge">
<title>Node1&#45;&gt;Node324</title>
<path fill="none" stroke="#191970" d="M2161.1848,-490.1582C2410.6737,-486.1876 3437.9442,-468.5355 3579.6964,-445 3678.3031,-428.6281 3794.6964,-478.9565 3794.6964,-379 3794.6964,-379 3794.6964,-379 3794.6964,-323 3794.6964,-276.75 3825.8363,-271.0789 3864.6964,-246 3897.3654,-224.9166 3939.398,-211.7946 3972.0407,-204.0759"/>
<polygon fill="#191970" stroke="#191970" points="2160.8637,-486.6627 2150.9204,-490.3208 2160.9747,-493.6619 2160.8637,-486.6627"/>
</g>
<!-- Node325 -->
<g id="node40" class="node">
<title>Node325</title>
<g id="a_node40"><a xlink:href="sitkCompositeTransform_8h.html" target="_top" xlink:title=" ">
<polygon fill="#ffffff" stroke="#000000" points="4122.1964,-185 4122.1964,-204 4267.1964,-204 4267.1964,-185 4122.1964,-185"/>
<text text-anchor="middle" x="4194.6964" y="-192" font-family="Helvetica,sans-Serif" font-size="10.00" fill="#000000">sitkCompositeTransform.h</text>
</a>
</g>
</g>
<!-- Node1&#45;&gt;Node325 -->
<g id="edge131" class="edge">
<title>Node1&#45;&gt;Node325</title>
<path fill="none" stroke="#191970" d="M2161.1183,-490.4334C2422.2798,-487.5783 3540.7317,-473.7571 3693.6964,-445 3779.4915,-428.8707 3878.6964,-466.298 3878.6964,-379 3878.6964,-379 3878.6964,-379 3878.6964,-323 3878.6964,-266.2934 4055.5219,-222.5199 4144.6253,-204.0619"/>
<polygon fill="#191970" stroke="#191970" points="2160.7185,-486.9374 2150.7571,-490.5458 2160.7945,-493.937 2160.7185,-486.9374"/>
</g>
<!-- Node344 -->
<g id="node42" class="node">
<title>Node344</title>
<g id="a_node42"><a xlink:href="sitkTemplateFunctions_8h.html" target="_top" xlink:title=" ">
<polygon fill="#ffffff" stroke="#000000" points="1064.6964,-369.5 1064.6964,-388.5 1198.6964,-388.5 1198.6964,-369.5 1064.6964,-369.5"/>
<text text-anchor="middle" x="1131.6964" y="-376.5" font-family="Helvetica,sans-Serif" font-size="10.00" fill="#000000">sitkTemplateFunctions.h</text>
</a>
</g>
</g>
<!-- Node1&#45;&gt;Node344 -->
<g id="edge96" class="edge">
<title>Node1&#45;&gt;Node344</title>
<path fill="none" stroke="#191970" d="M2052.3723,-490.167C1870.6189,-487.11 1290.8123,-475.0791 1212.6964,-445 1181.5488,-433.0064 1153.3312,-404.1579 1139.9226,-388.8793"/>
<polygon fill="#191970" stroke="#191970" points="2052.444,-493.6686 2062.5006,-490.335 2052.5601,-486.6696 2052.444,-493.6686"/>
</g>
<!-- Node346 -->
<g id="node44" class="node">
<title>Node346</title>
<g id="a_node44"><a xlink:href="sitkExceptionObject_8h.html" target="_top" xlink:title=" ">
<polygon fill="#ffffff" stroke="#000000" points="1293.1964,-425.5 1293.1964,-444.5 1416.1964,-444.5 1416.1964,-425.5 1293.1964,-425.5"/>
<text text-anchor="middle" x="1354.6964" y="-432.5" font-family="Helvetica,sans-Serif" font-size="10.00" fill="#000000">sitkExceptionObject.h</text>
</a>
</g>
</g>
<!-- Node1&#45;&gt;Node346 -->
<g id="edge100" class="edge">
<title>Node1&#45;&gt;Node346</title>
<path fill="none" stroke="#191970" d="M2052.0174,-488.4477C1936.89,-482.8167 1661.1187,-467.9762 1430.6964,-445 1426.0616,-444.5378 1421.2735,-444.0151 1416.4606,-443.4571"/>
<polygon fill="#191970" stroke="#191970" points="2052.1658,-491.9589 2062.3238,-488.9481 2052.5053,-484.9671 2052.1658,-491.9589"/>
</g>
<!-- Node347 -->
<g id="node45" class="node">
<title>Node347</title>
<g id="a_node45"><a xlink:href="sitkPixelIDValues_8h.html" target="_top" xlink:title=" ">
<polygon fill="#ffffff" stroke="#000000" points="347.6964,-425.5 347.6964,-444.5 457.6964,-444.5 457.6964,-425.5 347.6964,-425.5"/>
<text text-anchor="middle" x="402.6964" y="-432.5" font-family="Helvetica,sans-Serif" font-size="10.00" fill="#000000">sitkPixelIDValues.h</text>
</a>
</g>
</g>
<!-- Node1&#45;&gt;Node347 -->
<g id="edge103" class="edge">
<title>Node1&#45;&gt;Node347</title>
<path fill="none" stroke="#191970" d="M2052.2699,-489.2113C1796.405,-480.8026 714.8501,-445.2586 457.7153,-436.8081"/>
<polygon fill="#191970" stroke="#191970" points="2052.3199,-492.7148 2062.4295,-489.5452 2052.5498,-485.7185 2052.3199,-492.7148"/>
</g>
<!-- Node349 -->
<g id="node47" class="node">
<title>Node349</title>
<g id="a_node47"><a xlink:href="sitkInterpolator_8h.html" target="_top" xlink:title=" ">
<polygon fill="#ffffff" stroke="#000000" points="1510.6964,-252 1510.6964,-271 1610.6964,-271 1610.6964,-252 1510.6964,-252"/>
<text text-anchor="middle" x="1560.6964" y="-259" font-family="Helvetica,sans-Serif" font-size="10.00" fill="#000000">sitkInterpolator.h</text>
</a>
</g>
</g>
<!-- Node1&#45;&gt;Node349 -->
<g id="edge113" class="edge">
<title>Node1&#45;&gt;Node349</title>
<path fill="none" stroke="#191970" d="M2052.4869,-488.3601C1956.3946,-483.1135 1760.3168,-469.6952 1696.6964,-445 1657.2484,-429.6877 1646.5569,-421.6976 1619.6964,-389 1588.4224,-350.9296 1569.7682,-293.5551 1563.2899,-271.0441"/>
<polygon fill="#191970" stroke="#191970" points="2052.4084,-491.8608 2062.5814,-488.9012 2052.7831,-484.8709 2052.4084,-491.8608"/>
</g>
<!-- Node350 -->
<g id="node48" class="node">
<title>Node350</title>
<g id="a_node48"><a xlink:href="sitkEvent_8h.html" target="_top" xlink:title=" ">
<polygon fill="#ffffff" stroke="#000000" points="1056.1964,-252 1056.1964,-271 1127.1964,-271 1127.1964,-252 1056.1964,-252"/>
<text text-anchor="middle" x="1091.6964" y="-259" font-family="Helvetica,sans-Serif" font-size="10.00" fill="#000000">sitkEvent.h</text>
</a>
</g>
</g>
<!-- Node1&#45;&gt;Node350 -->
<g id="edge132" class="edge">
<title>Node1&#45;&gt;Node350</title>
<path fill="none" stroke="#191970" d="M2052.3235,-489.4701C1870.8234,-484.1773 1295.3391,-465.8234 1261.6964,-445 1204.3224,-409.4879 1234.8817,-360.2342 1186.6964,-313 1167.0024,-293.6946 1138.6016,-279.5793 1117.987,-271.0591"/>
<polygon fill="#191970" stroke="#191970" points="2052.3441,-492.9721 2062.4414,-489.7635 2052.5471,-485.975 2052.3441,-492.9721"/>
</g>
<!-- Node351 -->
<g id="node49" class="node">
<title>Node351</title>
<g id="a_node49"><a xlink:href="sitkRandomSeed_8h.html" target="_top" xlink:title=" ">
<polygon fill="#ffffff" stroke="#000000" points="1666.6964,-252 1666.6964,-271 1774.6964,-271 1774.6964,-252 1666.6964,-252"/>
<text text-anchor="middle" x="1720.6964" y="-259" font-family="Helvetica,sans-Serif" font-size="10.00" fill="#000000">sitkRandomSeed.h</text>
</a>
</g>
</g>
<!-- Node1&#45;&gt;Node351 -->
<g id="edge135" class="edge">
<title>Node1&#45;&gt;Node351</title>
<path fill="none" stroke="#191970" d="M2052.2111,-487.1342C1983.0497,-481.3336 1868.5306,-468.4691 1833.6964,-445 1767.2958,-400.2632 1732.9453,-302.0925 1723.4613,-271.0844"/>
<polygon fill="#191970" stroke="#191970" points="2052.2353,-490.6477 2062.4867,-487.9722 2052.8043,-483.6709 2052.2353,-490.6477"/>
</g>
<!-- Node352 -->
<g id="node50" class="node">
<title>Node352</title>
<g id="a_node50"><a xlink:href="sitkKernel_8h.html" target="_top" xlink:title=" ">
<polygon fill="#ffffff" stroke="#ff0000" points="1628.6964,-369.5 1628.6964,-388.5 1702.6964,-388.5 1702.6964,-369.5 1628.6964,-369.5"/>
<text text-anchor="middle" x="1665.6964" y="-376.5" font-family="Helvetica,sans-Serif" font-size="10.00" fill="#000000">sitkKernel.h</text>
</a>
</g>
</g>
<!-- Node1&#45;&gt;Node352 -->
<g id="edge143" class="edge">
<title>Node1&#45;&gt;Node352</title>
<path fill="none" stroke="#191970" d="M2052.3005,-489.1471C1960.7598,-485.2586 1780.4469,-474.0662 1724.6964,-445 1699.6205,-431.9263 1680.1117,-403.5504 1671.1216,-388.623"/>
<polygon fill="#191970" stroke="#191970" points="2052.3414,-492.6516 2062.4765,-489.5647 2052.6285,-485.6575 2052.3414,-492.6516"/>
</g>
<!-- Node3 -->
<g id="node3" class="node">
<title>Node3</title>
<g id="a_node3"><a xlink:href="sitkMemberFunctionFactoryBase_8h.html" target="_top" xlink:title=" ">
<polygon fill="#ffffff" stroke="#ff0000" points="451.6964,-246.5 451.6964,-276.5 601.6964,-276.5 601.6964,-246.5 451.6964,-246.5"/>
<text text-anchor="start" x="459.6964" y="-264.5" font-family="Helvetica,sans-Serif" font-size="10.00" fill="#000000">sitkMemberFunctionFactory</text>
<text text-anchor="middle" x="526.6964" y="-253.5" font-family="Helvetica,sans-Serif" font-size="10.00" fill="#000000">Base.h</text>
</a>
</g>
</g>
<!-- Node2&#45;&gt;Node3 -->
<g id="edge2" class="edge">
<title>Node2&#45;&gt;Node3</title>
<path fill="none" stroke="#191970" d="M852.9235,-313.9421C790.7224,-305.0908 694.1568,-290.9489 610.6964,-277 607.7711,-276.5111 604.7902,-276.004 601.7802,-275.4844"/>
<polygon fill="#191970" stroke="#191970" points="852.5914,-317.4299 862.9841,-315.3702 853.5753,-310.4994 852.5914,-317.4299"/>
</g>
<!-- Node2&#45;&gt;Node327 -->
<g id="edge18" class="edge">
<title>Node2&#45;&gt;Node327</title>
<path fill="none" stroke="#191970" d="M905.4187,-305.0505C893.2498,-288.2329 873.3388,-263.1789 851.6964,-246 828.631,-227.6916 798.0544,-212.9687 777.0176,-204.0279"/>
<polygon fill="#191970" stroke="#191970" points="902.7177,-307.2933 911.3445,-313.4439 908.4362,-303.256 902.7177,-307.2933"/>
</g>
<!-- Node2&#45;&gt;Node339 -->
<g id="edge32" class="edge">
<title>Node2&#45;&gt;Node339</title>
<path fill="none" stroke="#191970" d="M973.3751,-311.3529C1029.1601,-299.6836 1114.0011,-281.9363 1165.9745,-271.0643"/>
<polygon fill="#191970" stroke="#191970" points="972.3829,-307.9847 963.3114,-313.4581 973.8162,-314.8364 972.3829,-307.9847"/>
</g>
<!-- Node338 -->
<g id="node4" class="node">
<title>Node338</title>
<g id="a_node4"><a xlink:href="sitkMemberFunctionFactory_8h.html" target="_top" xlink:title=" ">
<polygon fill="#ffffff" stroke="#ff0000" points="413.6964,-185 413.6964,-204 571.6964,-204 571.6964,-185 413.6964,-185"/>
<text text-anchor="middle" x="492.6964" y="-192" font-family="Helvetica,sans-Serif" font-size="10.00" fill="#000000">sitkMemberFunctionFactory.h</text>
</a>
</g>
</g>
<!-- Node3&#45;&gt;Node338 -->
<g id="edge3" class="edge">
<title>Node3&#45;&gt;Node338</title>
<path fill="none" stroke="#191970" d="M514.343,-237.1564C508.5215,-225.6846 501.9126,-212.6613 497.5452,-204.055"/>
<polygon fill="#191970" stroke="#191970" points="511.3348,-238.963 518.9813,-246.2967 517.5771,-235.7953 511.3348,-238.963"/>
</g>
<!-- Node8 -->
<g id="node5" class="node">
<title>Node8</title>
<g id="a_node5"><a xlink:href="sitkHashImageFilter_8h.html" target="_top" xlink:title=" ">
<polygon fill="#ffffff" stroke="#000000" points="821.6964,-118 821.6964,-137 943.6964,-137 943.6964,-118 821.6964,-118"/>
<text text-anchor="middle" x="882.6964" y="-125" font-family="Helvetica,sans-Serif" font-size="10.00" fill="#000000">sitkHashImageFilter.h</text>
</a>
</g>
</g>
<!-- Node338&#45;&gt;Node8 -->
<g id="edge4" class="edge">
<title>Node338&#45;&gt;Node8</title>
<path fill="none" stroke="#191970" d="M558.0195,-183.2778C633.411,-170.326 756.1044,-149.2479 827.1091,-137.0496"/>
<polygon fill="#191970" stroke="#191970" points="557.4228,-179.829 548.1598,-184.9717 558.608,-186.7279 557.4228,-179.829"/>
</g>
<!-- Node329 -->
<g id="node7" class="node">
<title>Node329</title>
<g id="a_node7"><a xlink:href="sitkImageFileReader_8h.html" target="_top" xlink:title=" ">
<polygon fill="#ffffff" stroke="#000000" points="29.6964,-56.5 29.6964,-75.5 153.6964,-75.5 153.6964,-56.5 29.6964,-56.5"/>
<text text-anchor="middle" x="91.6964" y="-63.5" font-family="Helvetica,sans-Serif" font-size="10.00" fill="#000000">sitkImageFileReader.h</text>
</a>
</g>
</g>
<!-- Node338&#45;&gt;Node329 -->
<g id="edge6" class="edge">
<title>Node338&#45;&gt;Node329</title>
<path fill="none" stroke="#191970" d="M403.3316,-187.0956C320.498,-179.0578 204.1575,-164.4314 163.6964,-143 133.1293,-126.8092 108.4522,-92.5556 97.629,-75.7349"/>
<polygon fill="#191970" stroke="#191970" points="403.2263,-190.6014 413.5135,-188.067 403.8911,-183.633 403.2263,-190.6014"/>
</g>
<!-- Node332 -->
<g id="node8" class="node">
<title>Node332</title>
<g id="a_node8"><a xlink:href="sitkImageFileWriter_8h.html" target="_top" xlink:title=" ">
<polygon fill="#ffffff" stroke="#000000" points="646.1964,-118 646.1964,-137 765.1964,-137 765.1964,-118 646.1964,-118"/>
<text text-anchor="middle" x="705.6964" y="-125" font-family="Helvetica,sans-Serif" font-size="10.00" fill="#000000">sitkImageFileWriter.h</text>
</a>
</g>
</g>
<!-- Node338&#45;&gt;Node332 -->
<g id="edge8" class="edge">
<title>Node338&#45;&gt;Node332</title>
<path fill="none" stroke="#191970" d="M532.9722,-181.8311C574.3545,-168.8141 637.8547,-148.8399 675.2354,-137.0817"/>
<polygon fill="#191970" stroke="#191970" points="531.7031,-178.5611 523.2142,-184.9005 533.8036,-185.2386 531.7031,-178.5611"/>
</g>
<!-- Node330 -->
<g id="node9" class="node">
<title>Node330</title>
<g id="a_node9"><a xlink:href="sitkImageSeriesReader_8h.html" target="_top" xlink:title=" ">
<polygon fill="#ffffff" stroke="#000000" points="172.1964,-56.5 172.1964,-75.5 309.1964,-75.5 309.1964,-56.5 172.1964,-56.5"/>
<text text-anchor="middle" x="240.6964" y="-63.5" font-family="Helvetica,sans-Serif" font-size="10.00" fill="#000000">sitkImageSeriesReader.h</text>
</a>
</g>
</g>
<!-- Node338&#45;&gt;Node330 -->
<g id="edge10" class="edge">
<title>Node338&#45;&gt;Node330</title>
<path fill="none" stroke="#191970" d="M403.3136,-186.0368C313.9278,-176.6497 187.6078,-160.503 172.6964,-143 163.7615,-132.5122 166.2364,-124.1694 172.6964,-112 181.7852,-94.8787 200.4086,-82.9664 215.8709,-75.5605"/>
<polygon fill="#191970" stroke="#191970" points="403.1672,-189.5403 413.4751,-187.0917 403.89,-182.5777 403.1672,-189.5403"/>
</g>
<!-- Node333 -->
<g id="node10" class="node">
<title>Node333</title>
<g id="a_node10"><a xlink:href="sitkImageSeriesWriter_8h.html" target="_top" xlink:title=" ">
<polygon fill="#ffffff" stroke="#000000" points="495.1964,-118 495.1964,-137 628.1964,-137 628.1964,-118 495.1964,-118"/>
<text text-anchor="middle" x="561.6964" y="-125" font-family="Helvetica,sans-Serif" font-size="10.00" fill="#000000">sitkImageSeriesWriter.h</text>
</a>
</g>
</g>
<!-- Node338&#45;&gt;Node333 -->
<g id="edge12" class="edge">
<title>Node338&#45;&gt;Node333</title>
<path fill="none" stroke="#191970" d="M510.123,-177.5785C523.3202,-164.7639 540.974,-147.6218 551.8288,-137.0817"/>
<polygon fill="#191970" stroke="#191970" points="507.3185,-175.4232 502.5825,-184.9005 512.195,-180.4452 507.3185,-175.4232"/>
</g>
<!-- Node331 -->
<g id="node11" class="node">
<title>Node331</title>
<g id="a_node11"><a xlink:href="sitkImportImageFilter_8h.html" target="_top" xlink:title=" ">
<polygon fill="#ffffff" stroke="#000000" points="327.6964,-56.5 327.6964,-75.5 457.6964,-75.5 457.6964,-56.5 327.6964,-56.5"/>
<text text-anchor="middle" x="392.6964" y="-63.5" font-family="Helvetica,sans-Serif" font-size="10.00" fill="#000000">sitkImportImageFilter.h</text>
</a>
</g>
</g>
<!-- Node338&#45;&gt;Node331 -->
<g id="edge14" class="edge">
<title>Node338&#45;&gt;Node331</title>
<path fill="none" stroke="#191970" d="M448.6965,-181.0113C430.1474,-173.0021 410.2205,-160.8344 398.6964,-143 385.3065,-122.2779 388.065,-91.5655 390.6758,-75.9289"/>
<polygon fill="#191970" stroke="#191970" points="447.6348,-184.3564 458.2191,-184.8286 450.2394,-177.859 447.6348,-184.3564"/>
</g>
<!-- Node326 -->
<g id="node12" class="node">
<title>Node326</title>
<g id="a_node12"><a xlink:href="sitkImageRegistrationMethod_8h.html" target="_top" xlink:title=" ">
<polygon fill="#ffffff" stroke="#000000" points="1087.1964,-118 1087.1964,-137 1256.1964,-137 1256.1964,-118 1087.1964,-118"/>
<text text-anchor="middle" x="1171.6964" y="-125" font-family="Helvetica,sans-Serif" font-size="10.00" fill="#000000">sitkImageRegistrationMethod.h</text>
</a>
</g>
</g>
<!-- Node338&#45;&gt;Node326 -->
<g id="edge16" class="edge">
<title>Node338&#45;&gt;Node326</title>
<path fill="none" stroke="#191970" d="M582.0363,-187.0104C733.7204,-174.2382 1029.8942,-149.0365 1077.6964,-143 1090.824,-141.3422 1104.9266,-139.2069 1118.1127,-137.0544"/>
<polygon fill="#191970" stroke="#191970" points="581.4854,-183.5443 571.8142,-187.8707 582.0726,-190.5196 581.4854,-183.5443"/>
</g>
<!-- Node5 -->
<g id="node6" class="node">
<title>Node5</title>
<g id="a_node6"><a xlink:href="SimpleITK_8h.html" target="_top" xlink:title=" ">
<polygon fill="#ffffff" stroke="#000000" points="1647.1964,-.5 1647.1964,-19.5 1722.1964,-19.5 1722.1964,-.5 1647.1964,-.5"/>
<text text-anchor="middle" x="1684.6964" y="-7.5" font-family="Helvetica,sans-Serif" font-size="10.00" fill="#000000">SimpleITK.h</text>
</a>
</g>
</g>
<!-- Node8&#45;&gt;Node5 -->
<g id="edge5" class="edge">
<title>Node8&#45;&gt;Node5</title>
<path fill="none" stroke="#191970" d="M921.6848,-115.0011C974.0867,-98.7233 1070.4081,-70.6261 1154.6964,-56 1337.6063,-24.2606 1560.0198,-14.0043 1647.1454,-11.0624"/>
<polygon fill="#191970" stroke="#191970" points="920.6145,-111.6686 912.1154,-117.9943 922.7042,-118.3494 920.6145,-111.6686"/>
</g>
<!-- Node329&#45;&gt;Node5 -->
<g id="edge7" class="edge">
<title>Node329&#45;&gt;Node5</title>
<path fill="none" stroke="#191970" d="M164.2095,-55.9809C484.8857,-29.9565 1444.2587,-13.7679 1646.8728,-10.5794"/>
<polygon fill="#191970" stroke="#191970" points="163.6656,-52.514 153.9907,-56.8322 164.2468,-59.4899 163.6656,-52.514"/>
</g>
<!-- Node332&#45;&gt;Node5 -->
<g id="edge9" class="edge">
<title>Node332&#45;&gt;Node5</title>
<path fill="none" stroke="#191970" d="M718.026,-109.7083C731.0991,-92.4944 753.4612,-67.3871 779.6964,-56 860.061,-21.1187 1485.7515,-12.1123 1646.9286,-10.3611"/>
<polygon fill="#191970" stroke="#191970" points="715.1331,-107.7352 712.0651,-117.8761 720.7874,-111.8618 715.1331,-107.7352"/>
</g>
<!-- Node330&#45;&gt;Node5 -->
<g id="edge11" class="edge">
<title>Node330&#45;&gt;Node5</title>
<path fill="none" stroke="#191970" d="M319.5734,-56.0245C607.6906,-33.8431 1457.7157,-14.8291 1647.0492,-10.789"/>
<polygon fill="#191970" stroke="#191970" points="319.2567,-52.5385 309.5632,-56.8149 319.8077,-59.5168 319.2567,-52.5385"/>
</g>
<!-- Node333&#45;&gt;Node5 -->
<g id="edge13" class="edge">
<title>Node333&#45;&gt;Node5</title>
<path fill="none" stroke="#191970" d="M589.6014,-113.376C624.915,-96.2814 688.0943,-68.2648 745.6964,-56 922.196,-18.4194 1494.3715,-11.4402 1646.9914,-10.2362"/>
<polygon fill="#191970" stroke="#191970" points="587.8444,-110.3394 580.4078,-117.8858 590.9273,-116.624 587.8444,-110.3394"/>
</g>
<!-- Node331&#45;&gt;Node5 -->
<g id="edge15" class="edge">
<title>Node331&#45;&gt;Node5</title>
<path fill="none" stroke="#191970" d="M467.7152,-61.0739C495.3637,-59.3438 526.9479,-57.4674 555.6964,-56 984.2595,-34.1255 1504.7621,-16.047 1647.1628,-11.249"/>
<polygon fill="#191970" stroke="#191970" points="467.4796,-57.5817 457.7195,-61.7037 467.9199,-64.5679 467.4796,-57.5817"/>
</g>
<!-- Node326&#45;&gt;Node5 -->
<g id="edge17" class="edge">
<title>Node326&#45;&gt;Node5</title>
<path fill="none" stroke="#191970" d="M1188.7119,-110.7055C1207.0328,-93.7525 1237.8589,-68.3615 1269.6964,-56 1338.2007,-29.402 1558.5047,-16.0812 1647.1906,-11.6904"/>
<polygon fill="#191970" stroke="#191970" points="1186.057,-108.4 1181.2155,-117.8239 1190.8771,-113.4761 1186.057,-108.4"/>
</g>
<!-- Node327&#45;&gt;Node8 -->
<g id="edge19" class="edge">
<title>Node327&#45;&gt;Node8</title>
<path fill="none" stroke="#191970" d="M780.385,-180.2298C805.6226,-167.2227 842.2071,-148.3676 864.1052,-137.0817"/>
<polygon fill="#191970" stroke="#191970" points="778.6078,-177.2082 771.3223,-184.9005 781.8146,-183.4304 778.6078,-177.2082"/>
</g>
<!-- Node327&#45;&gt;Node5 -->
<g id="edge20" class="edge">
<title>Node327&#45;&gt;Node5</title>
<path fill="none" stroke="#191970" d="M761.3481,-175.644C771.0903,-156.5851 788.7444,-127.7626 812.6964,-112 907.0879,-49.882 948.9316,-72.644 1060.6964,-56 1281.2221,-23.1594 1549.2483,-13.4097 1646.8499,-10.8347"/>
<polygon fill="#191970" stroke="#191970" points="758.1009,-174.3181 756.8715,-184.8414 764.395,-177.3817 758.1009,-174.3181"/>
</g>
<!-- Node327&#45;&gt;Node332 -->
<g id="edge25" class="edge">
<title>Node327&#45;&gt;Node332</title>
<path fill="none" stroke="#191970" d="M740.0558,-176.4803C731.1598,-163.7989 719.6025,-147.3235 712.4179,-137.0817"/>
<polygon fill="#191970" stroke="#191970" points="737.3543,-178.7239 745.9625,-184.9005 743.0849,-174.7039 737.3543,-178.7239"/>
</g>
<!-- Node327&#45;&gt;Node333 -->
<g id="edge26" class="edge">
<title>Node327&#45;&gt;Node333</title>
<path fill="none" stroke="#191970" d="M715.8722,-181.5826C678.7512,-168.5611 622.3184,-148.7653 589.0113,-137.0817"/>
<polygon fill="#191970" stroke="#191970" points="714.736,-184.8931 725.3308,-184.9005 717.0531,-178.2877 714.736,-184.8931"/>
</g>
<!-- Node327&#45;&gt;Node326 -->
<g id="edge31" class="edge">
<title>Node327&#45;&gt;Node326</title>
<path fill="none" stroke="#191970" d="M819.5881,-184.0257C885.3089,-173.7051 988.4327,-157.4318 1077.6964,-143 1089.4525,-141.0993 1102.0313,-139.0417 1114.0401,-137.0658"/>
<polygon fill="#191970" stroke="#191970" points="818.7055,-180.6213 809.3693,-185.6298 819.7911,-187.5366 818.7055,-180.6213"/>
</g>
<!-- Node328 -->
<g id="node14" class="node">
<title>Node328</title>
<g id="a_node14"><a xlink:href="sitkImageReaderBase_8h.html" target="_top" xlink:title=" ">
<polygon fill="#ffffff" stroke="#000000" points="181.6964,-118 181.6964,-137 313.6964,-137 313.6964,-118 181.6964,-118"/>
<text text-anchor="middle" x="247.6964" y="-125" font-family="Helvetica,sans-Serif" font-size="10.00" fill="#000000">sitkImageReaderBase.h</text>
</a>
</g>
</g>
<!-- Node327&#45;&gt;Node328 -->
<g id="edge21" class="edge">
<title>Node327&#45;&gt;Node328</title>
<path fill="none" stroke="#191970" d="M685.7736,-185.6211C588.8734,-172.7651 410.5617,-149.1079 314.0063,-136.2975"/>
<polygon fill="#191970" stroke="#191970" points="685.3747,-189.0988 695.7482,-186.9445 686.2954,-182.1596 685.3747,-189.0988"/>
</g>
<!-- Node334 -->
<g id="node15" class="node">
<title>Node334</title>
<g id="a_node15"><a xlink:href="sitkImageViewer_8h.html" target="_top" xlink:title=" ">
<polygon fill="#ffffff" stroke="#000000" points="962.1964,-118 962.1964,-137 1069.1964,-137 1069.1964,-118 962.1964,-118"/>
<text text-anchor="middle" x="1015.6964" y="-125" font-family="Helvetica,sans-Serif" font-size="10.00" fill="#000000">sitkImageViewer.h</text>
</a>
</g>
</g>
<!-- Node327&#45;&gt;Node334 -->
<g id="edge27" class="edge">
<title>Node327&#45;&gt;Node334</title>
<path fill="none" stroke="#191970" d="M799.8852,-182.4785C850.8588,-169.4929 931.0576,-149.062 977.9975,-137.1039"/>
<polygon fill="#191970" stroke="#191970" points="798.9251,-179.1113 790.0986,-184.9717 800.6532,-185.8946 798.9251,-179.1113"/>
</g>
<!-- Node335 -->
<g id="node16" class="node">
<title>Node335</title>
<g id="a_node16"><a xlink:href="sitkShow_8h.html" target="_top" xlink:title=" ">
<polygon fill="#ffffff" stroke="#000000" points="408.1964,-118 408.1964,-137 477.1964,-137 477.1964,-118 408.1964,-118"/>
<text text-anchor="middle" x="442.6964" y="-125" font-family="Helvetica,sans-Serif" font-size="10.00" fill="#000000">sitkShow.h</text>
</a>
</g>
</g>
<!-- Node327&#45;&gt;Node335 -->
<g id="edge29" class="edge">
<title>Node327&#45;&gt;Node335</title>
<path fill="none" stroke="#191970" d="M685.9028,-184.5755C631.4905,-175.7855 552.9429,-161.4848 485.6964,-143 479.5751,-141.3174 473.0804,-139.1727 467.0435,-137.0191"/>
<polygon fill="#191970" stroke="#191970" points="685.6862,-188.0852 696.113,-186.206 686.7901,-181.1728 685.6862,-188.0852"/>
</g>
<!-- Node328&#45;&gt;Node329 -->
<g id="edge22" class="edge">
<title>Node328&#45;&gt;Node329</title>
<path fill="none" stroke="#191970" d="M213.8272,-114.1477C184.2876,-102.5023 142.1622,-85.8952 115.9003,-75.5419"/>
<polygon fill="#191970" stroke="#191970" points="212.7346,-117.4791 223.3214,-117.8906 215.302,-110.9669 212.7346,-117.4791"/>
</g>
<!-- Node328&#45;&gt;Node330 -->
<g id="edge23" class="edge">
<title>Node328&#45;&gt;Node330</title>
<path fill="none" stroke="#191970" d="M245.4481,-107.7462C244.2308,-97.0519 242.781,-84.314 241.8056,-75.7449"/>
<polygon fill="#191970" stroke="#191970" points="241.9942,-108.3506 246.6027,-117.8906 248.9492,-107.5589 241.9942,-108.3506"/>
</g>
<!-- Node328&#45;&gt;Node331 -->
<g id="edge24" class="edge">
<title>Node328&#45;&gt;Node331</title>
<path fill="none" stroke="#191970" d="M279.8963,-113.8428C307.314,-102.2139 346.0014,-85.8051 370.1993,-75.5419"/>
<polygon fill="#191970" stroke="#191970" points="278.1922,-110.7637 270.3527,-117.8906 280.9255,-117.208 278.1922,-110.7637"/>
</g>
<!-- Node334&#45;&gt;Node5 -->
<g id="edge28" class="edge">
<title>Node334&#45;&gt;Node5</title>
<path fill="none" stroke="#191970" d="M1048.1045,-114.2233C1089.6571,-97.7861 1164.2855,-70.2255 1230.6964,-56 1382.9166,-23.3939 1568.941,-13.7411 1647.1904,-11.0155"/>
<polygon fill="#191970" stroke="#191970" points="1046.7597,-110.9915 1038.7699,-117.9495 1049.3549,-117.4927 1046.7597,-110.9915"/>
</g>
<!-- Node335&#45;&gt;Node5 -->
<g id="edge30" class="edge">
<title>Node335&#45;&gt;Node5</title>
<path fill="none" stroke="#191970" d="M475.6451,-114.305C520.0259,-97.2419 601.86,-68.2619 674.6964,-56 867.1546,-23.6 1487.3568,-12.7791 1646.9606,-10.4954"/>
<polygon fill="#191970" stroke="#191970" points="474.2921,-111.0757 466.2384,-117.9596 476.8271,-117.6006 474.2921,-111.0757"/>
</g>
<!-- Node339&#45;&gt;Node5 -->
<g id="edge33" class="edge">
<title>Node339&#45;&gt;Node5</title>
<path fill="none" stroke="#191970" d="M1177.2746,-247.9054C1143.3564,-232.5315 1099.584,-206.0933 1121.6964,-179 1172.1803,-117.1446 1228.441,-182.729 1297.6964,-143 1342.7423,-117.159 1329.9696,-80.6159 1375.6964,-56 1421.9609,-31.0947 1575.1915,-17.539 1646.9764,-12.4191"/>
<polygon fill="#191970" stroke="#191970" points="1175.9519,-251.1469 1186.5171,-251.9396 1178.7522,-244.7314 1175.9519,-251.1469"/>
</g>
<!-- Node339&#45;&gt;Node340 -->
<g id="edge34" class="edge">
<title>Node339&#45;&gt;Node340</title>
<path fill="none" stroke="#191970" d="M1202.1751,-242.7374C1195.7933,-230.1614 1187.6552,-214.1246 1182.5588,-204.0817"/>
<polygon fill="#191970" stroke="#191970" points="1199.1786,-244.5669 1206.8251,-251.9005 1205.4209,-241.3992 1199.1786,-244.5669"/>
</g>
<!-- Node339&#45;&gt;Node342 -->
<g id="edge36" class="edge">
<title>Node339&#45;&gt;Node342</title>
<path fill="none" stroke="#191970" d="M1229.123,-244.5785C1242.3202,-231.7639 1259.974,-214.6218 1270.8288,-204.0817"/>
<polygon fill="#191970" stroke="#191970" points="1226.3185,-242.4232 1221.5825,-251.9005 1231.195,-247.4452 1226.3185,-242.4232"/>
</g>
<!-- Node340&#45;&gt;Node5 -->
<g id="edge35" class="edge">
<title>Node340&#45;&gt;Node5</title>
<path fill="none" stroke="#191970" d="M1220.3567,-182.047C1263.7856,-169.1391 1326.0715,-149.9021 1335.6964,-143 1374.9204,-114.8724 1359.4187,-81.0165 1400.6964,-56 1441.49,-31.277 1579.5022,-17.8392 1646.9566,-12.6091"/>
<polygon fill="#191970" stroke="#191970" points="1219.1805,-178.745 1210.5851,-184.9393 1221.1673,-185.4571 1219.1805,-178.745"/>
</g>
<!-- Node342&#45;&gt;Node5 -->
<g id="edge37" class="edge">
<title>Node342&#45;&gt;Node5</title>
<path fill="none" stroke="#191970" d="M1315.6859,-180.8266C1334.5689,-172.1396 1357.2978,-159.4243 1373.6964,-143 1404.8988,-111.7489 1385.7517,-81.6554 1421.6964,-56 1457.3027,-30.5862 1583.3752,-17.6414 1647.1554,-12.5941"/>
<polygon fill="#191970" stroke="#191970" points="1314.2292,-177.6437 1306.4935,-184.8831 1317.0553,-184.0479 1314.2292,-177.6437"/>
</g>
<!-- Node343&#45;&gt;Node5 -->
<g id="edge39" class="edge">
<title>Node343&#45;&gt;Node5</title>
<path fill="none" stroke="#191970" d="M4170.8737,-425.2798C4222.5842,-412.007 4295.6964,-382.687 4295.6964,-323 4295.6964,-323 4295.6964,-323 4295.6964,-127.5 4295.6964,-60.0568 2042.5143,-16.5195 1722.36,-10.6737"/>
<polygon fill="#191970" stroke="#191970" points="4169.7315,-421.9557 4160.845,-427.7247 4171.3894,-428.7565 4169.7315,-421.9557"/>
</g>
<!-- Node6&#45;&gt;Node8 -->
<g id="edge43" class="edge">
<title>Node6&#45;&gt;Node8</title>
<path fill="none" stroke="#191970" d="M773.0236,-304.6987C798.0884,-264.2015 857.5373,-168.1496 876.6598,-137.2534"/>
<polygon fill="#191970" stroke="#191970" points="769.9836,-302.96 767.6969,-313.3051 775.9358,-306.644 769.9836,-302.96"/>
</g>
<!-- Node6&#45;&gt;Node5 -->
<g id="edge44" class="edge">
<title>Node6&#45;&gt;Node5</title>
<path fill="none" stroke="#191970" d="M714.3989,-320.9752C597.8731,-315.6872 299.4299,-300.2414 202.6964,-277 108.803,-254.441 1.6964,-291.0655 1.6964,-194.5 1.6964,-194.5 1.6964,-194.5 1.6964,-127.5 1.6964,-94.6194 -5.0893,-76.4017 20.6964,-56 53.6655,-29.9149 1402.1602,-13.2379 1646.8297,-10.4239"/>
<polygon fill="#191970" stroke="#191970" points="714.2949,-324.474 724.4419,-321.4262 714.609,-317.4811 714.2949,-324.474"/>
</g>
<!-- Node6&#45;&gt;Node329 -->
<g id="edge88" class="edge">
<title>Node6&#45;&gt;Node329</title>
<path fill="none" stroke="#191970" d="M714.1031,-322.0411C606.2491,-319.3151 346.3383,-309.4792 265.6964,-277 184.9045,-244.4603 168.3975,-217.1457 122.6964,-143 108.8591,-120.5502 98.9638,-90.8495 94.4455,-75.7363"/>
<polygon fill="#191970" stroke="#191970" points="714.2775,-325.5463 724.3596,-322.2903 714.4476,-318.5483 714.2775,-325.5463"/>
</g>
<!-- Node6&#45;&gt;Node332 -->
<g id="edge89" class="edge">
<title>Node6&#45;&gt;Node332</title>
<path fill="none" stroke="#191970" d="M714.5061,-319.5687C630.06,-312.946 460.236,-297.2502 442.6964,-277 372.3028,-195.7275 454.1757,-266.3911 580.6964,-210 625.8208,-189.8878 672.819,-154.1852 694.0531,-137.1128"/>
<polygon fill="#191970" stroke="#191970" points="714.3698,-323.0685 724.6098,-320.3497 714.9093,-316.0893 714.3698,-323.0685"/>
</g>
<!-- Node6&#45;&gt;Node330 -->
<g id="edge90" class="edge">
<title>Node6&#45;&gt;Node330</title>
<path fill="none" stroke="#191970" d="M714.3115,-320.7618C620.4858,-315.8357 414.4482,-302.4191 348.6964,-277 254.0012,-240.3916 209.8536,-233.4261 163.6964,-143 157.4326,-130.7285 156.8967,-123.9829 163.6964,-112 173.764,-94.2583 193.691,-82.6287 210.7506,-75.5017"/>
<polygon fill="#191970" stroke="#191970" points="714.2101,-324.2612 724.3769,-321.2802 714.5702,-317.2704 714.2101,-324.2612"/>
</g>
<!-- Node6&#45;&gt;Node333 -->
<g id="edge91" class="edge">
<title>Node6&#45;&gt;Node333</title>
<path fill="none" stroke="#191970" d="M714.447,-319.8198C624.7442,-313.339 436.8006,-297.469 415.6964,-277 384.2348,-246.4852 378.9842,-214.4946 404.6964,-179 417.6124,-161.1702 471.4857,-146.2063 512.5559,-137.0819"/>
<polygon fill="#191970" stroke="#191970" points="714.4001,-323.3252 724.6236,-320.5451 714.8978,-316.3429 714.4001,-323.3252"/>
</g>
<!-- Node6&#45;&gt;Node331 -->
<g id="edge93" class="edge">
<title>Node6&#45;&gt;Node331</title>
<path fill="none" stroke="#191970" d="M714.5168,-320.9332C615.1058,-316.094 391.3545,-302.4648 368.6964,-277 316.0052,-217.7816 368.7469,-109.2054 386.9922,-75.946"/>
<polygon fill="#191970" stroke="#191970" points="714.4339,-324.4332 724.5895,-321.4141 714.7678,-317.4411 714.4339,-324.4332"/>
</g>
<!-- Node6&#45;&gt;Node326 -->
<g id="edge95" class="edge">
<title>Node6&#45;&gt;Node326</title>
<path fill="none" stroke="#191970" d="M793.2561,-309.2314C812.4697,-300.5559 837.3442,-288.7974 858.6964,-277 929.7064,-237.7658 939.2953,-213.5543 1012.6964,-179 1052.2065,-160.4003 1100.2142,-145.8706 1133.0729,-137.0538"/>
<polygon fill="#191970" stroke="#191970" points="791.7466,-306.0724 784.0467,-313.3499 794.6043,-312.4625 791.7466,-306.0724"/>
</g>
<!-- Node6&#45;&gt;Node327 -->
<g id="edge85" class="edge">
<title>Node6&#45;&gt;Node327</title>
<path fill="none" stroke="#191970" d="M760.3078,-303.1733C758.3502,-275.2236 754.8539,-225.3037 753.3808,-204.2705"/>
<polygon fill="#191970" stroke="#191970" points="756.8298,-303.6106 761.02,-313.3416 763.8127,-303.1215 756.8298,-303.6106"/>
</g>
<!-- Node6&#45;&gt;Node334 -->
<g id="edge92" class="edge">
<title>Node6&#45;&gt;Node334</title>
<path fill="none" stroke="#191970" d="M782.2622,-307.1708C832.9446,-268.1614 962.6751,-168.3097 1003.324,-137.0229"/>
<polygon fill="#191970" stroke="#191970" points="780.0821,-304.4321 774.2923,-313.3051 784.3517,-309.9793 780.0821,-304.4321"/>
</g>
<!-- Node6&#45;&gt;Node335 -->
<g id="edge94" class="edge">
<title>Node6&#45;&gt;Node335</title>
<path fill="none" stroke="#191970" d="M714.4561,-320.515C619.2309,-315.0321 411.4137,-300.4876 389.6964,-277 360.113,-245.005 369.1822,-218.9013 386.6964,-179 394.7127,-160.7372 412.7556,-146.1011 426.2078,-137.1673"/>
<polygon fill="#191970" stroke="#191970" points="714.493,-324.0226 724.6749,-321.0935 714.8887,-317.0338 714.493,-324.0226"/>
</g>
<!-- Node7 -->
<g id="node22" class="node">
<title>Node7</title>
<g id="a_node22"><a xlink:href="sitkAdditionalProcedures_8h.html" target="_top" xlink:title=" ">
<polygon fill="#ffffff" stroke="#000000" points="1490.1964,-118 1490.1964,-137 1637.1964,-137 1637.1964,-118 1490.1964,-118"/>
<text text-anchor="middle" x="1563.6964" y="-125" font-family="Helvetica,sans-Serif" font-size="10.00" fill="#000000">sitkAdditionalProcedures.h</text>
</a>
</g>
</g>
<!-- Node6&#45;&gt;Node7 -->
<g id="edge41" class="edge">
<title>Node6&#45;&gt;Node7</title>
<path fill="none" stroke="#191970" d="M808.982,-317.6282C823.3355,-316.0602 839.1541,-314.3946 853.6964,-313 1045.9229,-294.565 1101.5925,-332.0217 1286.6964,-277 1396.699,-244.302 1512.6254,-164.6487 1550.7347,-137.0791"/>
<polygon fill="#191970" stroke="#191970" points="808.3848,-314.1728 798.8285,-318.7475 809.1518,-321.1306 808.3848,-314.1728"/>
</g>
<!-- Node6&#45;&gt;Node9 -->
<g id="edge45" class="edge">
<title>Node6&#45;&gt;Node9</title>
<path fill="none" stroke="#191970" d="M808.9441,-317.1737C823.2964,-315.5903 839.1238,-314.0303 853.6964,-313 1160.4593,-291.3117 2147.3899,-267.7334 2372.6313,-262.5462"/>
<polygon fill="#191970" stroke="#191970" points="808.3357,-313.7202 798.7932,-318.3236 809.1237,-320.6757 808.3357,-313.7202"/>
</g>
<!-- Node336 -->
<g id="node41" class="node">
<title>Node336</title>
<g id="a_node41"><a xlink:href="sitkImageConvert_8h.html" target="_top" xlink:title=" ">
<polygon fill="#ffffff" stroke="#000000" points="620.1964,-252 620.1964,-271 733.1964,-271 733.1964,-252 620.1964,-252"/>
<text text-anchor="middle" x="676.6964" y="-259" font-family="Helvetica,sans-Serif" font-size="10.00" fill="#000000">sitkImageConvert.h</text>
</a>
</g>
</g>
<!-- Node6&#45;&gt;Node336 -->
<g id="edge86" class="edge">
<title>Node6&#45;&gt;Node336</title>
<path fill="none" stroke="#191970" d="M740.2302,-307.4685C724.3845,-296.0037 703.3228,-280.765 689.8844,-271.0419"/>
<polygon fill="#191970" stroke="#191970" points="738.2618,-310.3643 748.4152,-313.3906 742.3651,-304.6931 738.2618,-310.3643"/>
</g>
<!-- Node7&#45;&gt;Node5 -->
<g id="edge42" class="edge">
<title>Node7&#45;&gt;Node5</title>
<path fill="none" stroke="#191970" d="M1580.7922,-110.8987C1606.4158,-86.0163 1653.976,-39.8318 1674.6577,-19.7484"/>
<polygon fill="#191970" stroke="#191970" points="1578.3342,-108.407 1573.5984,-117.8845 1583.2108,-113.4288 1578.3342,-108.407"/>
</g>
<!-- Node9&#45;&gt;Node5 -->
<g id="edge52" class="edge">
<title>Node9&#45;&gt;Node5</title>
<path fill="none" stroke="#191970" d="M2362.7078,-258.3003C2262.0634,-251.9745 2054.8119,-236.1692 1987.6964,-210 1965.7463,-201.4413 1966.4628,-188.0159 1944.6964,-179 1852.3496,-140.7487 1797.405,-209.4059 1722.6964,-143 1703.8503,-126.2483 1690.3529,-47.4825 1686.1108,-19.7169"/>
<polygon fill="#191970" stroke="#191970" points="2362.4928,-261.7936 2372.6901,-258.9186 2362.9256,-254.807 2362.4928,-261.7936"/>
</g>
<!-- Node9&#45;&gt;Node326 -->
<g id="edge84" class="edge">
<title>Node9&#45;&gt;Node326</title>
<path fill="none" stroke="#191970" d="M2362.5006,-260.3667C2246.9469,-257.3086 1986.8067,-246.4695 1906.6964,-210 1888.3819,-201.6625 1892.122,-187.0894 1873.6964,-179 1845.8629,-166.7802 1437.109,-142.4388 1256.4656,-132.2051"/>
<polygon fill="#191970" stroke="#191970" points="2362.4733,-263.867 2372.5592,-260.6228 2362.6516,-256.8693 2362.4733,-263.867"/>
</g>
<!-- Node9&#45;&gt;Node7 -->
<g id="edge51" class="edge">
<title>Node9&#45;&gt;Node7</title>
<path fill="none" stroke="#191970" d="M2362.1311,-258.4742C2255.4225,-252.233 2028.4999,-236.2723 1954.6964,-210 1930.7715,-201.4833 1930.4531,-187.9756 1906.6964,-179 1882.0522,-169.689 1730.8172,-149.0419 1637.581,-136.9083"/>
<polygon fill="#191970" stroke="#191970" points="2362.1962,-261.9837 2372.3812,-259.0654 2362.5993,-254.9953 2362.1962,-261.9837"/>
</g>
<!-- Node10 -->
<g id="node24" class="node">
<title>Node10</title>
<g id="a_node24"><a xlink:href="sitkBasicFilters_8h.html" target="_top" xlink:title=" ">
<polygon fill="#ffffff" stroke="#ff0000" points="1527.1964,-185 1527.1964,-204 1626.1964,-204 1626.1964,-185 1527.1964,-185"/>
<text text-anchor="middle" x="1576.6964" y="-192" font-family="Helvetica,sans-Serif" font-size="10.00" fill="#000000">sitkBasicFilters.h</text>
</a>
</g>
</g>
<!-- Node9&#45;&gt;Node10 -->
<g id="edge46" class="edge">
<title>Node9&#45;&gt;Node10</title>
<path fill="none" stroke="#191970" d="M2362.2933,-259.3252C2237.7374,-254.1449 1929.9127,-239.2673 1673.6964,-210 1658.2776,-208.2387 1641.5639,-205.7711 1626.4242,-203.3218"/>
<polygon fill="#191970" stroke="#191970" points="2362.2229,-262.8252 2372.3583,-259.7392 2362.5106,-255.8311 2362.2229,-262.8252"/>
</g>
<!-- Node9&#45;&gt;Node311 -->
<g id="edge53" class="edge">
<title>Node9&#45;&gt;Node311</title>
<path fill="none" stroke="#191970" d="M2362.4234,-251.8055C2305.0574,-241.8031 2213.5456,-225.5166 2134.6964,-210 2125.2893,-208.1488 2115.221,-206.0727 2105.6598,-204.0564"/>
<polygon fill="#191970" stroke="#191970" points="2361.9249,-255.2713 2372.377,-253.5377 2363.1251,-248.375 2361.9249,-255.2713"/>
</g>
<!-- Node9&#45;&gt;Node312 -->
<g id="edge56" class="edge">
<title>Node9&#45;&gt;Node312</title>
<path fill="none" stroke="#191970" d="M2362.3642,-257.0886C2264.0383,-249.1742 2054.7686,-231.3775 1878.6964,-210 1864.3369,-208.2566 1848.9108,-206.1249 1834.4225,-204.007"/>
<polygon fill="#191970" stroke="#191970" points="2362.1323,-260.5812 2372.38,-257.8915 2362.6917,-253.6036 2362.1323,-260.5812"/>
</g>
<!-- Node9&#45;&gt;Node313 -->
<g id="edge58" class="edge">
<title>Node9&#45;&gt;Node313</title>
<path fill="none" stroke="#191970" d="M2378.2316,-248.8311C2336.655,-235.8141 2272.8567,-215.8399 2235.3006,-204.0817"/>
<polygon fill="#191970" stroke="#191970" points="2377.4465,-252.2528 2388.0355,-251.9005 2379.538,-245.5725 2377.4465,-252.2528"/>
</g>
<!-- Node9&#45;&gt;Node314 -->
<g id="edge60" class="edge">
<title>Node9&#45;&gt;Node314</title>
<path fill="none" stroke="#191970" d="M2401.395,-244.94C2387.9674,-232.0879 2369.8231,-214.7212 2358.7071,-204.0817"/>
<polygon fill="#191970" stroke="#191970" points="2399.0228,-247.5144 2408.6672,-251.9005 2403.8631,-242.4575 2399.0228,-247.5144"/>
</g>
<!-- Node9&#45;&gt;Node315 -->
<g id="edge62" class="edge">
<title>Node9&#45;&gt;Node315</title>
<path fill="none" stroke="#191970" d="M2437.7989,-245.2992C2452.9929,-232.4131 2473.7363,-214.8207 2486.3987,-204.0817"/>
<polygon fill="#191970" stroke="#191970" points="2435.3779,-242.7631 2430.0152,-251.9005 2439.9056,-248.1017 2435.3779,-242.7631"/>
</g>
<!-- Node9&#45;&gt;Node316 -->
<g id="edge64" class="edge">
<title>Node9&#45;&gt;Node316</title>
<path fill="none" stroke="#191970" d="M2460.1281,-248.9958C2503.2447,-235.9832 2569.8234,-215.8896 2608.9483,-204.0817"/>
<polygon fill="#191970" stroke="#191970" points="2459.0659,-245.6604 2450.5036,-251.9005 2461.0884,-252.3619 2459.0659,-245.6604"/>
</g>
<!-- Node9&#45;&gt;Node317 -->
<g id="edge66" class="edge">
<title>Node9&#45;&gt;Node317</title>
<path fill="none" stroke="#191970" d="M2475.2518,-251.8827C2550.2856,-239.1232 2681.9483,-216.7338 2756.6998,-204.0223"/>
<polygon fill="#191970" stroke="#191970" points="2474.3235,-248.4902 2465.0519,-253.6172 2475.4971,-255.3912 2474.3235,-248.4902"/>
</g>
<!-- Node9&#45;&gt;Node318 -->
<g id="edge68" class="edge">
<title>Node9&#45;&gt;Node318</title>
<path fill="none" stroke="#191970" d="M2474.9372,-256.7519C2567.1829,-248.7219 2756.315,-231.2414 2915.6964,-210 2918.9266,-209.5695 2922.2158,-209.1147 2925.5364,-208.6417"/>
<polygon fill="#191970" stroke="#191970" points="2474.3714,-253.2877 2464.7108,-257.6379 2474.9756,-260.2616 2474.3714,-253.2877"/>
</g>
<!-- Node9&#45;&gt;Node319 -->
<g id="edge70" class="edge">
<title>Node9&#45;&gt;Node319</title>
<path fill="none" stroke="#191970" d="M2475.2068,-259.0542C2592.7371,-253.5725 2871.9589,-238.4935 3104.6964,-210 3117.7405,-208.403 3131.7648,-206.2388 3144.8031,-204.0346"/>
<polygon fill="#191970" stroke="#191970" points="2474.8409,-255.5673 2465.0128,-259.5245 2475.1635,-262.5599 2474.8409,-255.5673"/>
</g>
<!-- Node9&#45;&gt;Node320 -->
<g id="edge72" class="edge">
<title>Node9&#45;&gt;Node320</title>
<path fill="none" stroke="#191970" d="M2475.2887,-260.467C2613.9329,-257.4304 2981.4504,-246.3229 3285.6964,-210 3298.3503,-208.4893 3311.9594,-206.3012 3324.5344,-204.0428"/>
<polygon fill="#191970" stroke="#191970" points="2474.847,-256.9755 2464.924,-260.6882 2474.9964,-263.9739 2474.847,-256.9755"/>
</g>
<!-- Node9&#45;&gt;Node321 -->
<g id="edge74" class="edge">
<title>Node9&#45;&gt;Node321</title>
<path fill="none" stroke="#191970" d="M2475.0589,-259.6624C2662.4993,-253.4006 3263.9389,-232.0595 3456.6964,-210 3469.5083,-208.5338 3483.2933,-206.3324 3495.9928,-204.0458"/>
<polygon fill="#191970" stroke="#191970" points="2474.7554,-256.1705 2464.8774,-260.0013 2474.9883,-263.1666 2474.7554,-256.1705"/>
</g>
<!-- Node9&#45;&gt;Node322 -->
<g id="edge76" class="edge">
<title>Node9&#45;&gt;Node322</title>
<path fill="none" stroke="#191970" d="M2474.7692,-260.1704C2681.3664,-255.1067 3399.8502,-235.9943 3627.6964,-210 3640.2218,-208.571 3653.6986,-206.3529 3666.074,-204.0371"/>
<polygon fill="#191970" stroke="#191970" points="2474.6601,-256.6719 2464.7484,-260.4148 2474.8308,-263.6699 2474.6601,-256.6719"/>
</g>
<!-- Node9&#45;&gt;Node323 -->
<g id="edge78" class="edge">
<title>Node9&#45;&gt;Node323</title>
<path fill="none" stroke="#191970" d="M2475.1956,-260.7202C2700.0076,-257.4101 3531.4669,-243.1436 3792.6964,-210 3803.5857,-208.6184 3815.2737,-206.3857 3825.9599,-204.04"/>
<polygon fill="#191970" stroke="#191970" points="2474.9013,-257.224 2464.9535,-260.8695 2475.0035,-264.2232 2474.9013,-257.224"/>
</g>
<!-- Node9&#45;&gt;Node324 -->
<g id="edge80" class="edge">
<title>Node9&#45;&gt;Node324</title>
<path fill="none" stroke="#191970" d="M2474.9567,-260.6176C2713.5068,-256.7172 3642.5208,-239.8812 3933.6964,-210 3947.4183,-208.5918 3962.208,-206.3506 3975.755,-204.0052"/>
<polygon fill="#191970" stroke="#191970" points="2474.7216,-257.1209 2464.7798,-260.783 2474.8354,-264.1199 2474.7216,-257.1209"/>
</g>
<!-- Node9&#45;&gt;Node325 -->
<g id="edge82" class="edge">
<title>Node9&#45;&gt;Node325</title>
<path fill="none" stroke="#191970" d="M2475.2134,-260.9707C2731.3267,-258.3897 3784.7074,-245.7623 4112.6964,-210 4125.2269,-208.6337 4138.7111,-206.406 4151.0535,-204.06"/>
<polygon fill="#191970" stroke="#191970" points="2474.9913,-257.4727 2465.0267,-261.0723 2475.0612,-264.4723 2474.9913,-257.4727"/>
</g>
<!-- Node10&#45;&gt;Node8 -->
<g id="edge50" class="edge">
<title>Node10&#45;&gt;Node8</title>
<path fill="none" stroke="#191970" d="M1516.6722,-190.5895C1382.2643,-181.6632 1060.458,-159.3008 952.6964,-143 942.4815,-141.4548 931.5321,-139.2823 921.3982,-137.0516"/>
<polygon fill="#191970" stroke="#191970" points="1516.5789,-194.0909 1526.7884,-191.2595 1517.0416,-187.1062 1516.5789,-194.0909"/>
</g>
<!-- Node10&#45;&gt;Node7 -->
<g id="edge47" class="edge">
<title>Node10&#45;&gt;Node7</title>
<path fill="none" stroke="#191970" d="M1572.9102,-174.9863C1570.493,-162.5286 1567.4656,-146.9258 1565.5556,-137.0817"/>
<polygon fill="#191970" stroke="#191970" points="1569.4931,-175.7503 1574.8339,-184.9005 1576.3649,-174.4169 1569.4931,-175.7503"/>
</g>
<!-- Node11 -->
<g id="node25" class="node">
<title>Node11</title>
<g id="a_node25"><a xlink:href="sitkBSplineTransformInitializerFilter_8h.html" target="_top" xlink:title=" ">
<polygon fill="#ffffff" stroke="#000000" points="1731.6964,-112.5 1731.6964,-142.5 1897.6964,-142.5 1897.6964,-112.5 1731.6964,-112.5"/>
<text text-anchor="start" x="1739.6964" y="-130.5" font-family="Helvetica,sans-Serif" font-size="10.00" fill="#000000">sitkBSplineTransformInitializer</text>
<text text-anchor="middle" x="1814.6964" y="-119.5" font-family="Helvetica,sans-Serif" font-size="10.00" fill="#000000">Filter.h</text>
</a>
</g>
</g>
<!-- Node10&#45;&gt;Node11 -->
<g id="edge48" class="edge">
<title>Node10&#45;&gt;Node11</title>
<path fill="none" stroke="#191970" d="M1620.2016,-182.2528C1659.8929,-171.0792 1718.6714,-154.5323 1761.2163,-142.5553"/>
<polygon fill="#191970" stroke="#191970" points="1619.2207,-178.8928 1610.5433,-184.9717 1621.1176,-185.6309 1619.2207,-178.8928"/>
</g>
<!-- Node11&#45;&gt;Node5 -->
<g id="edge49" class="edge">
<title>Node11&#45;&gt;Node5</title>
<path fill="none" stroke="#191970" d="M1790.4312,-105.568C1761.9416,-79.8177 1715.9625,-38.2597 1695.3228,-19.6046"/>
<polygon fill="#191970" stroke="#191970" points="1788.2017,-108.2706 1797.9674,-112.3795 1792.8955,-103.0775 1788.2017,-108.2706"/>
</g>
<!-- Node311&#45;&gt;Node5 -->
<g id="edge55" class="edge">
<title>Node311&#45;&gt;Node5</title>
<path fill="none" stroke="#191970" d="M2051.1967,-176.05C2032.8339,-145.632 1991.8279,-85.4045 1939.6964,-56 1903.061,-35.3359 1783.8836,-20.3159 1722.301,-13.7203"/>
<polygon fill="#191970" stroke="#191970" points="2048.2592,-177.9594 2056.3484,-184.8016 2054.2917,-174.4083 2048.2592,-177.9594"/>
</g>
<!-- Node311&#45;&gt;Node11 -->
<g id="edge54" class="edge">
<title>Node311&#45;&gt;Node11</title>
<path fill="none" stroke="#191970" d="M2016.8077,-182.3237C1975.6125,-171.1493 1914.4463,-154.5576 1870.199,-142.5553"/>
<polygon fill="#191970" stroke="#191970" points="2016.0021,-185.7316 2026.5697,-184.9717 2017.8348,-178.9757 2016.0021,-185.7316"/>
</g>
<!-- Node312&#45;&gt;Node5 -->
<g id="edge57" class="edge">
<title>Node312&#45;&gt;Node5</title>
<path fill="none" stroke="#191970" d="M1735.3546,-180.7779C1718.3028,-172.5771 1699.8245,-160.3179 1689.6964,-143 1666.0165,-102.5097 1676.7475,-42.6041 1682.2057,-19.535"/>
<polygon fill="#191970" stroke="#191970" points="1734.0616,-184.0337 1744.619,-184.9228 1736.9203,-177.644 1734.0616,-184.0337"/>
</g>
<!-- Node313&#45;&gt;Node5 -->
<g id="edge59" class="edge">
<title>Node313&#45;&gt;Node5</title>
<path fill="none" stroke="#191970" d="M2184.0864,-178.8648C2144.4822,-149.6685 2054.0052,-87.0168 1967.6964,-56 1883.3778,-25.6984 1777.7213,-15.2667 1722.4192,-11.7435"/>
<polygon fill="#191970" stroke="#191970" points="2182.0641,-181.7227 2192.1754,-184.8869 2186.2443,-176.1078 2182.0641,-181.7227"/>
</g>
<!-- Node314&#45;&gt;Node5 -->
<g id="edge61" class="edge">
<title>Node314&#45;&gt;Node5</title>
<path fill="none" stroke="#191970" d="M2320.2443,-180.301C2262.3551,-152.035 2126.0589,-88.6447 2004.6964,-56 1904.6973,-29.1017 1782.6254,-17.0818 1722.2374,-12.4658"/>
<polygon fill="#191970" stroke="#191970" points="2318.9672,-183.5731 2329.4859,-184.8412 2322.0539,-177.2904 2318.9672,-183.5731"/>
</g>
<!-- Node315&#45;&gt;Node5 -->
<g id="edge63" class="edge">
<title>Node315&#45;&gt;Node5</title>
<path fill="none" stroke="#191970" d="M2462.5952,-181.3001C2387.9198,-153.7384 2207.3162,-89.8321 2050.6964,-56 1932.2302,-30.4096 1788.8984,-17.5159 1722.2072,-12.5319"/>
<polygon fill="#191970" stroke="#191970" points="2461.8226,-184.7464 2472.4156,-184.9411 2464.256,-178.183 2461.8226,-184.7464"/>
</g>
<!-- Node316&#45;&gt;Node5 -->
<g id="edge65" class="edge">
<title>Node316&#45;&gt;Node5</title>
<path fill="none" stroke="#191970" d="M2600.5754,-182.0123C2512.0025,-154.9147 2292.6814,-90.3973 2104.6964,-56 1964.8967,-30.4196 1796.1316,-17.2107 1722.3226,-12.2994"/>
<polygon fill="#191970" stroke="#191970" points="2599.6374,-185.3855 2610.2243,-184.9747 2601.6919,-178.6938 2599.6374,-185.3855"/>
</g>
<!-- Node317&#45;&gt;Node5 -->
<g id="edge67" class="edge">
<title>Node317&#45;&gt;Node5</title>
<path fill="none" stroke="#191970" d="M2765.7199,-182.4634C2659.6513,-155.7201 2393.192,-90.967 2166.6964,-56 2002.2048,-30.6054 1803.8261,-16.9756 1722.3792,-12.1031"/>
<polygon fill="#191970" stroke="#191970" points="2764.9242,-185.8724 2775.4771,-184.9306 2766.6403,-179.0859 2764.9242,-185.8724"/>
</g>
<!-- Node318&#45;&gt;Node5 -->
<g id="edge69" class="edge">
<title>Node318&#45;&gt;Node5</title>
<path fill="none" stroke="#191970" d="M2930.1988,-177.4603C2790.2369,-148.4174 2492.6745,-89.2507 2238.6964,-56 2045.3927,-30.6928 1812.2152,-16.683 1722.4444,-11.8987"/>
<polygon fill="#191970" stroke="#191970" points="2929.4977,-180.8893 2940.0009,-179.4986 2930.9229,-174.0359 2929.4977,-180.8893"/>
</g>
<!-- Node319&#45;&gt;Node5 -->
<g id="edge71" class="edge">
<title>Node319&#45;&gt;Node5</title>
<path fill="none" stroke="#191970" d="M3129.9721,-183.2449C3121.4694,-181.8066 3112.8774,-180.3619 3104.6964,-179 2921.6983,-148.5357 2875.9743,-140.7338 2692.6964,-112 2527.9521,-86.1718 2487.4278,-74.4638 2321.6964,-56 2094.9672,-30.7406 1821.2165,-16.3699 1722.4838,-11.7016"/>
<polygon fill="#191970" stroke="#191970" points="3129.4379,-186.7042 3139.8823,-184.9252 3130.6081,-179.8027 3129.4379,-186.7042"/>
</g>
<!-- Node320&#45;&gt;Node5 -->
<g id="edge73" class="edge">
<title>Node320&#45;&gt;Node5</title>
<path fill="none" stroke="#191970" d="M3310.9618,-183.2527C3302.4853,-181.7709 3293.8791,-180.3127 3285.6964,-179 2898.3764,-116.8656 2801.9497,-95.748 2411.6964,-56 2148.4249,-29.1853 1829.8213,-15.4731 1722.2361,-11.3591"/>
<polygon fill="#191970" stroke="#191970" points="3310.3631,-186.7011 3320.8198,-184.9959 3311.582,-179.808 3310.3631,-186.7011"/>
</g>
<!-- Node321&#45;&gt;Node5 -->
<g id="edge75" class="edge">
<title>Node321&#45;&gt;Node5</title>
<path fill="none" stroke="#191970" d="M3481.9625,-183.2485C3473.4859,-181.7673 3464.8794,-180.3104 3456.6964,-179 3244.874,-145.0793 3191.4163,-139.7421 2978.6964,-112 2772.722,-85.1376 2721.6162,-74.2012 2514.6964,-56 2209.559,-29.1593 1839.8516,-15.2051 1722.3987,-11.2195"/>
<polygon fill="#191970" stroke="#191970" points="3481.3639,-186.6969 3491.8205,-184.9912 3482.5825,-179.8038 3481.3639,-186.6969"/>
</g>
<!-- Node322&#45;&gt;Node5 -->
<g id="edge77" class="edge">
<title>Node322&#45;&gt;Node5</title>
<path fill="none" stroke="#191970" d="M3652.1558,-183.144C3643.9545,-181.6769 3635.6228,-180.2517 3627.6964,-179 3398.398,-142.7896 3340.1136,-140.2301 3109.6964,-112 2894.7574,-85.6662 2841.5147,-73.7407 2625.6964,-56 2275.2178,-27.1899 1849.7112,-14.3262 1722.4058,-10.9448"/>
<polygon fill="#191970" stroke="#191970" points="3651.5939,-186.5992 3662.0589,-184.9457 3652.8469,-179.7122 3651.5939,-186.5992"/>
</g>
<!-- Node323&#45;&gt;Node5 -->
<g id="edge79" class="edge">
<title>Node323&#45;&gt;Node5</title>
<path fill="none" stroke="#191970" d="M3813.0298,-182.8496C3806.2133,-181.4552 3799.2974,-180.1284 3792.6964,-179 3554.7487,-138.3252 3493.4677,-139.9876 3253.6964,-112 3025.8887,-85.4088 2969.3865,-73.4444 2740.6964,-56 2343.1819,-25.6777 1859.8475,-13.6922 1722.6335,-10.7586"/>
<polygon fill="#191970" stroke="#191970" points="3812.3909,-186.2917 3822.8973,-184.9257 3813.8322,-179.4417 3812.3909,-186.2917"/>
</g>
<!-- Node324&#45;&gt;Node5 -->
<g id="edge81" class="edge">
<title>Node324&#45;&gt;Node5</title>
<path fill="none" stroke="#191970" d="M3960.4287,-183.2543C3951.4642,-181.7628 3942.3541,-180.3016 3933.6964,-179 3702.8285,-144.2912 3644.6277,-138.6942 3412.6964,-112 3168.1604,-83.855 3107.241,-73.2592 2861.6964,-56 2413.9319,-24.5269 1868.7158,-13.2073 1722.3464,-10.6193"/>
<polygon fill="#191970" stroke="#191970" points="3960.0137,-186.7336 3970.4563,-184.9441 3961.177,-179.831 3960.0137,-186.7336"/>
</g>
<!-- Node325&#45;&gt;Node5 -->
<g id="edge83" class="edge">
<title>Node325&#45;&gt;Node5</title>
<path fill="none" stroke="#191970" d="M4137.19,-183.1281C4128.9838,-181.6517 4120.6362,-180.2282 4112.6964,-179 3867.1595,-141.0163 3804.6622,-139.1864 3557.6964,-112 3307.7493,-84.4854 3245.5872,-72.8653 2994.6964,-56 2491.7623,-22.192 1878.434,-12.4507 1722.257,-10.4391"/>
<polygon fill="#191970" stroke="#191970" points="4136.6251,-186.5828 4147.0927,-184.9457 4137.8889,-179.6978 4136.6251,-186.5828"/>
</g>
<!-- Node336&#45;&gt;Node327 -->
<g id="edge87" class="edge">
<title>Node336&#45;&gt;Node327</title>
<path fill="none" stroke="#191970" d="M695.4809,-244.94C710.0594,-232.0879 729.7589,-214.7212 741.8277,-204.0817"/>
<polygon fill="#191970" stroke="#191970" points="692.7721,-242.6621 687.5854,-251.9005 697.4012,-247.913 692.7721,-242.6621"/>
</g>
<!-- Node344&#45;&gt;Node327 -->
<g id="edge98" class="edge">
<title>Node344&#45;&gt;Node327</title>
<path fill="none" stroke="#191970" d="M1152.186,-362.382C1166.6816,-348.5899 1181.5986,-328.7557 1169.6964,-313 1168.2008,-311.0201 885.8873,-231.8026 786.6827,-204.0138"/>
<polygon fill="#191970" stroke="#191970" points="1149.4913,-360.095 1144.3493,-369.3584 1154.1457,-365.3234 1149.4913,-360.095"/>
</g>
<!-- Node344&#45;&gt;Node6 -->
<g id="edge97" class="edge">
<title>Node344&#45;&gt;Node6</title>
<path fill="none" stroke="#191970" d="M1058.2318,-367.881C979.9337,-356.0305 859.1044,-337.7428 798.7127,-328.6025"/>
<polygon fill="#191970" stroke="#191970" points="1058.1004,-371.4009 1068.5116,-369.4369 1059.148,-364.4797 1058.1004,-371.4009"/>
</g>
<!-- Node345 -->
<g id="node43" class="node">
<title>Node345</title>
<g id="a_node43"><a xlink:href="sitkPimpleImageBase_8h.html" target="_top" xlink:title=" ">
<polygon fill="#ffffff" stroke="#000000" points="1028.6964,-313.5 1028.6964,-332.5 1160.6964,-332.5 1160.6964,-313.5 1028.6964,-313.5"/>
<text text-anchor="middle" x="1094.6964" y="-320.5" font-family="Helvetica,sans-Serif" font-size="10.00" fill="#000000">sitkPimpleImageBase.h</text>
</a>
</g>
</g>
<!-- Node344&#45;&gt;Node345 -->
<g id="edge99" class="edge">
<title>Node344&#45;&gt;Node345</title>
<path fill="none" stroke="#191970" d="M1119.5589,-360.6296C1113.3872,-351.2887 1106.1398,-340.3197 1101.0675,-332.6427"/>
<polygon fill="#191970" stroke="#191970" points="1116.8187,-362.8316 1125.2515,-369.2455 1122.6591,-358.9728 1116.8187,-362.8316"/>
</g>
<!-- Node346&#45;&gt;Node9 -->
<g id="edge102" class="edge">
<title>Node346&#45;&gt;Node9</title>
<path fill="none" stroke="#191970" d="M1426.7661,-426.7919C1498.9785,-418.3141 1613.2466,-404.2101 1711.6964,-389 1961.9156,-350.3423 2259.864,-292.8214 2372.5084,-270.661"/>
<polygon fill="#191970" stroke="#191970" points="1425.9496,-423.3635 1416.4239,-428.0014 1426.7627,-430.3161 1425.9496,-423.3635"/>
</g>
<!-- Node346&#45;&gt;Node344 -->
<g id="edge101" class="edge">
<title>Node346&#45;&gt;Node344</title>
<path fill="none" stroke="#191970" d="M1306.8391,-422.982C1265.8076,-412.6781 1207.4888,-398.0331 1169.6211,-388.5237"/>
<polygon fill="#191970" stroke="#191970" points="1306.0634,-426.3958 1316.6148,-425.4369 1307.7684,-419.6066 1306.0634,-426.3958"/>
</g>
<!-- Node347&#45;&gt;Node338 -->
<g id="edge108" class="edge">
<title>Node347&#45;&gt;Node338</title>
<path fill="none" stroke="#191970" d="M398.6364,-414.8006C392.4193,-378.3155 384.3109,-300.1877 415.6964,-246 427.223,-226.0992 449.8983,-212.3619 467.6705,-204.112"/>
<polygon fill="#191970" stroke="#191970" points="395.2802,-415.9007 400.5361,-425.1 402.1641,-414.631 395.2802,-415.9007"/>
</g>
<!-- Node347&#45;&gt;Node328 -->
<g id="edge109" class="edge">
<title>Node347&#45;&gt;Node328</title>
<path fill="none" stroke="#191970" d="M393.2684,-416.2961C363.8725,-357.9783 274.5437,-180.7614 252.6028,-137.2335"/>
<polygon fill="#191970" stroke="#191970" points="390.261,-418.1056 397.8876,-425.4599 396.5118,-414.9548 390.261,-418.1056"/>
</g>
<!-- Node348 -->
<g id="node46" class="node">
<title>Node348</title>
<g id="a_node46"><a xlink:href="sitkPixelIDTokens_8h.html" target="_top" xlink:title=" ">
<polygon fill="#ffffff" stroke="#ff0000" points="879.6964,-369.5 879.6964,-388.5 991.6964,-388.5 991.6964,-369.5 879.6964,-369.5"/>
<text text-anchor="middle" x="935.6964" y="-376.5" font-family="Helvetica,sans-Serif" font-size="10.00" fill="#000000">sitkPixelIDTokens.h</text>
</a>
</g>
</g>
<!-- Node347&#45;&gt;Node348 -->
<g id="edge104" class="edge">
<title>Node347&#45;&gt;Node348</title>
<path fill="none" stroke="#191970" d="M467.9288,-428.1463C573.4615,-417.0585 779.8342,-395.3758 879.3613,-384.9189"/>
<polygon fill="#191970" stroke="#191970" points="467.3088,-424.6921 457.7293,-429.2179 468.0403,-431.6538 467.3088,-424.6921"/>
</g>
<!-- Node348&#45;&gt;Node326 -->
<g id="edge107" class="edge">
<title>Node348&#45;&gt;Node326</title>
<path fill="none" stroke="#191970" d="M954.6969,-362.448C963.3832,-354.2069 973.3497,-343.7267 980.6964,-333 1023.1804,-270.9705 996.8936,-231.5147 1050.6964,-179 1072.426,-157.7907 1104.2366,-144.7187 1129.7884,-137.0535"/>
<polygon fill="#191970" stroke="#191970" points="952.1968,-359.9918 947.1915,-369.3297 956.9276,-365.1512 952.1968,-359.9918"/>
</g>
<!-- Node348&#45;&gt;Node6 -->
<g id="edge105" class="edge">
<title>Node348&#45;&gt;Node6</title>
<path fill="none" stroke="#191970" d="M895.8955,-366.1905C864.0174,-355.9309 820.0148,-341.7691 791.2178,-332.5011"/>
<polygon fill="#191970" stroke="#191970" points="895.1933,-369.6413 905.7848,-369.3733 897.3379,-362.9779 895.1933,-369.6413"/>
</g>
<!-- Node348&#45;&gt;Node345 -->
<g id="edge106" class="edge">
<title>Node348&#45;&gt;Node345</title>
<path fill="none" stroke="#191970" d="M972.8254,-365.9231C1001.8915,-355.686 1041.6333,-341.6889 1067.72,-332.5011"/>
<polygon fill="#191970" stroke="#191970" points="971.2989,-362.75 963.0295,-369.3733 973.6243,-369.3524 971.2989,-362.75"/>
</g>
<!-- Node349&#45;&gt;Node5 -->
<g id="edge117" class="edge">
<title>Node349&#45;&gt;Node5</title>
<path fill="none" stroke="#191970" d="M1540.2243,-245.0968C1507.9419,-217.1786 1451.715,-158.893 1480.6964,-112 1517.0228,-53.2227 1598.6114,-27.1827 1646.8787,-16.5598"/>
<polygon fill="#191970" stroke="#191970" points="1538.3202,-248.0685 1548.2272,-251.8239 1542.8244,-242.7102 1538.3202,-248.0685"/>
</g>
<!-- Node349&#45;&gt;Node326 -->
<g id="edge118" class="edge">
<title>Node349&#45;&gt;Node326</title>
<path fill="none" stroke="#191970" d="M1521.9315,-248.8269C1491.1296,-238.6461 1447.0106,-223.8165 1408.6964,-210 1372.4357,-196.9239 1364.008,-191.9343 1327.6964,-179 1284.3056,-163.544 1233.5763,-147.093 1202.0366,-137.0536"/>
<polygon fill="#191970" stroke="#191970" points="1520.8469,-252.1546 1531.44,-251.9618 1523.0388,-245.5066 1520.8469,-252.1546"/>
</g>
<!-- Node349&#45;&gt;Node7 -->
<g id="edge115" class="edge">
<title>Node349&#45;&gt;Node7</title>
<path fill="none" stroke="#191970" d="M1541.6393,-244.8931C1532.5128,-235.6565 1522.5354,-223.3456 1517.6964,-210 1513,-197.0474 1512.7846,-191.8725 1517.6964,-179 1524.2782,-161.7511 1539.5877,-146.6181 1550.7425,-137.2973"/>
<polygon fill="#191970" stroke="#191970" points="1539.3205,-247.5182 1548.9739,-251.8841 1544.1501,-242.4511 1539.3205,-247.5182"/>
</g>
<!-- Node349&#45;&gt;Node10 -->
<g id="edge114" class="edge">
<title>Node349&#45;&gt;Node10</title>
<path fill="none" stroke="#191970" d="M1565.3564,-241.9863C1568.3314,-229.5286 1572.0575,-213.9258 1574.4083,-204.0817"/>
<polygon fill="#191970" stroke="#191970" points="1561.9074,-241.361 1562.9889,-251.9005 1568.716,-242.987 1561.9074,-241.361"/>
</g>
<!-- Node349&#45;&gt;Node312 -->
<g id="edge116" class="edge">
<title>Node349&#45;&gt;Node312</title>
<path fill="none" stroke="#191970" d="M1600.9722,-248.8311C1642.3545,-235.8141 1705.8547,-215.8399 1743.2354,-204.0817"/>
<polygon fill="#191970" stroke="#191970" points="1599.7031,-245.5611 1591.2142,-251.9005 1601.8036,-252.2386 1599.7031,-245.5611"/>
</g>
<!-- Node350&#45;&gt;Node5 -->
<g id="edge133" class="edge">
<title>Node350&#45;&gt;Node5</title>
<path fill="none" stroke="#191970" d="M1091.2518,-241.7155C1091.9454,-222.9922 1096.0379,-195.3827 1112.6964,-179 1162.195,-130.321 1204.4741,-177.5402 1264.6964,-143 1311.0536,-116.4121 1300.1061,-80.3117 1347.6964,-56 1399.3614,-29.6068 1570.265,-16.6292 1646.9175,-12.0224"/>
<polygon fill="#191970" stroke="#191970" points="1087.7513,-241.7756 1091.1718,-251.803 1094.7511,-241.8311 1087.7513,-241.7756"/>
</g>
<!-- Node350&#45;&gt;Node327 -->
<g id="edge134" class="edge">
<title>Node350&#45;&gt;Node327</title>
<path fill="none" stroke="#191970" d="M1045.8609,-252.4411C981.8209,-239.7842 866.1115,-216.9154 800.8507,-204.0172"/>
<polygon fill="#191970" stroke="#191970" points="1045.5694,-255.9511 1056.0582,-254.4565 1046.9266,-249.0839 1045.5694,-255.9511"/>
</g>
<!-- Node351&#45;&gt;Node5 -->
<g id="edge137" class="edge">
<title>Node351&#45;&gt;Node5</title>
<path fill="none" stroke="#191970" d="M1700.1595,-245.2592C1680.4434,-227.7311 1656.0623,-199.568 1673.6964,-179 1743.8307,-97.1974 1964.8475,-202.7134 1906.6964,-112 1865.9515,-48.4395 1774.5395,-23.9549 1722.6178,-14.9353"/>
<polygon fill="#191970" stroke="#191970" points="1698.0332,-248.0454 1707.9211,-251.8509 1702.5645,-242.7099 1698.0332,-248.0454"/>
</g>
<!-- Node351&#45;&gt;Node326 -->
<g id="edge138" class="edge">
<title>Node351&#45;&gt;Node326</title>
<path fill="none" stroke="#191970" d="M1671.7106,-249.5435C1564.0963,-223.277 1308.8608,-160.9791 1210.9073,-137.0706"/>
<polygon fill="#191970" stroke="#191970" points="1671.1091,-252.9994 1681.6538,-251.9705 1672.769,-246.199 1671.1091,-252.9994"/>
</g>
<!-- Node351&#45;&gt;Node10 -->
<g id="edge136" class="edge">
<title>Node351&#45;&gt;Node10</title>
<path fill="none" stroke="#191970" d="M1690.762,-247.5722C1662.7859,-234.5555 1621.7599,-215.467 1597.2899,-204.0817"/>
<polygon fill="#191970" stroke="#191970" points="1689.5216,-250.8553 1700.0648,-251.9005 1692.4746,-244.5086 1689.5216,-250.8553"/>
</g>
<!-- Node352&#45;&gt;Node10 -->
<g id="edge144" class="edge">
<title>Node352&#45;&gt;Node10</title>
<path fill="none" stroke="#191970" d="M1661.3087,-359.463C1654.7779,-332.678 1640.9413,-283.5969 1619.6964,-246 1610.6427,-229.9776 1596.3851,-214.1154 1586.7959,-204.319"/>
<polygon fill="#191970" stroke="#191970" points="1657.9672,-360.5437 1663.6606,-369.4787 1664.7818,-358.9434 1657.9672,-360.5437"/>
</g>
</g>
</svg>
        <g id="navigator" transform="translate(0 0)" fill="#404254">
                <rect fill="#f2f5e9" fill-opacity="0.5" stroke="#606060" stroke-width=".5" x="0" y="0" width="60" height="60"/>
                <use id="zoomplus" xlink:href="#zoomPlus" x="17" y="9" onmousedown="handleZoom(evt,'in')"/>
                <use id="zoomminus" xlink:href="#zoomMin" x="42" y="9" onmousedown="handleZoom(evt,'out')"/>
                <use id="reset" xlink:href="#resetDef" x="30" y="36" onmousedown="handleReset()"/>
                <g id="arrowUp" xlink:href="#dirArrow" transform="translate(30 24)" onmousedown="handlePan(0,-1)">
                  <use xlink:href="#rim" fill="#404040">
                        <set attributeName="fill" to="#808080" begin="arrowUp.mouseover" end="arrowUp.mouseout"/>
                  </use>
                  <path fill="none" stroke="white" stroke-width="1.5" d="M0,-3.0v7 M-2.5,-0.5L0,-3.0L2.5,-0.5"/>
                </g>
                <g id="arrowRight" xlink:href="#dirArrow" transform="rotate(90) translate(36 -43)" onmousedown="handlePan(1,0)">
                  <use xlink:href="#rim" fill="#404040">
                        <set attributeName="fill" to="#808080" begin="arrowRight.mouseover" end="arrowRight.mouseout"/>
                  </use>
                  <path fill="none" stroke="white" stroke-width="1.5" d="M0,-3.0v7 M-2.5,-0.5L0,-3.0L2.5,-0.5"/>
                </g>
                <g id="arrowDown" xlink:href="#dirArrow" transform="rotate(180) translate(-30 -48)" onmousedown="handlePan(0,1)">
                  <use xlink:href="#rim" fill="#404040">
                        <set attributeName="fill" to="#808080" begin="arrowDown.mouseover" end="arrowDown.mouseout"/>
                  </use>
                  <path fill="none" stroke="white" stroke-width="1.5" d="M0,-3.0v7 M-2.5,-0.5L0,-3.0L2.5,-0.5"/>
                </g>
                <g id="arrowLeft" xlink:href="#dirArrow" transform="rotate(270) translate(-36 17)" onmousedown="handlePan(-1,0)">
                  <use xlink:href="#rim" fill="#404040">
                        <set attributeName="fill" to="#808080" begin="arrowLeft.mouseover" end="arrowLeft.mouseout"/>
                  </use>
                  <path fill="none" stroke="white" stroke-width="1.5" d="M0,-3.0v7 M-2.5,-0.5L0,-3.0L2.5,-0.5"/>
                </g>
        </g>
        <svg viewBox="0 0 15 15" width="100%" height="30px" preserveAspectRatio="xMaxYMin meet">
         <g id="arrow_out" transform="scale(0.3 0.3)">
          <a xlink:href="sitkCommon_8h__dep__incl_org.svg" target="_base">
           <rect id="button" ry="5" rx="5" y="6" x="6" height="38" width="38"
                fill="#f2f5e9" fill-opacity="0.5" stroke="#606060" stroke-width="1.0"/>
           <path id="arrow"
             d="M 11.500037,31.436501 C 11.940474,20.09759 22.043105,11.32322 32.158766,21.979434 L 37.068811,17.246167 C 37.068811,17.246167 37.088388,32 37.088388,32 L 22.160133,31.978069 C 22.160133,31.978069 26.997745,27.140456 26.997745,27.140456 C 18.528582,18.264221 13.291696,25.230495 11.500037,31.436501 z"
             style="fill:#404040;"/>
          </a>
         </g>
        </svg>
</svg>
