<?xml version="1.0" encoding="UTF-8" standalone="no"?>
<!DOCTYPE svg PUBLIC "-//W3C//DTD SVG 1.1//EN"
 "http://www.w3.org/Graphics/SVG/1.1/DTD/svg11.dtd">
<!-- Generated by graphviz version 2.40.1 (20161225.0304)
 -->
<!-- Title: sitkFunctionCommand.h Pages: 1 -->
<svg width="493pt" height="364pt"
 viewBox="0.00 0.00 493.00 364.00" xmlns="http://www.w3.org/2000/svg" xmlns:xlink="http://www.w3.org/1999/xlink">
<g id="graph0" class="graph" transform="scale(1 1) rotate(0) translate(4 360)">
<title>sitkFunctionCommand.h</title>
<polygon fill="#ffffff" stroke="transparent" points="-4,4 -4,-360 489,-360 489,4 -4,4"/>
<!-- Node1 -->
<g id="node1" class="node">
<title>Node1</title>
<g id="a_node1"><a xlink:title=" ">
<polygon fill="#bfbfbf" stroke="#000000" points="307.5,-336.5 307.5,-355.5 441.5,-355.5 441.5,-336.5 307.5,-336.5"/>
<text text-anchor="middle" x="374.5" y="-343.5" font-family="Helvetica,sans-Serif" font-size="10.00" fill="#000000">sitkFunctionCommand.h</text>
</a>
</g>
</g>
<!-- Node2 -->
<g id="node2" class="node">
<title>Node2</title>
<g id="a_node2"><a xlink:href="sitkCommand_8h.html" target="_top" xlink:title=" ">
<polygon fill="#ffffff" stroke="#000000" points="290.5,-280.5 290.5,-299.5 384.5,-299.5 384.5,-280.5 290.5,-280.5"/>
<text text-anchor="middle" x="337.5" y="-287.5" font-family="Helvetica,sans-Serif" font-size="10.00" fill="#000000">sitkCommand.h</text>
</a>
</g>
</g>
<!-- Node1&#45;&gt;Node2 -->
<g id="edge1" class="edge">
<title>Node1&#45;&gt;Node2</title>
<path fill="none" stroke="#191970" d="M368.0551,-336.2455C362.9618,-328.5367 355.7092,-317.5598 349.548,-308.2348"/>
<polygon fill="#191970" stroke="#191970" points="352.3038,-306.0566 343.8711,-299.6427 346.4635,-309.9155 352.3038,-306.0566"/>
</g>
<!-- Node14 -->
<g id="node14" class="node">
<title>Node14</title>
<g id="a_node14"><a xlink:title=" ">
<polygon fill="#ffffff" stroke="#bfbfbf" points="420,-168.5 420,-187.5 485,-187.5 485,-168.5 420,-168.5"/>
<text text-anchor="middle" x="452.5" y="-175.5" font-family="Helvetica,sans-Serif" font-size="10.00" fill="#000000">functional</text>
</a>
</g>
</g>
<!-- Node1&#45;&gt;Node14 -->
<g id="edge17" class="edge">
<title>Node1&#45;&gt;Node14</title>
<path fill="none" stroke="#191970" d="M378.9171,-336.4862C391.3538,-309.6994 426.8452,-233.2565 443.5723,-197.2289"/>
<polygon fill="#191970" stroke="#191970" points="446.9004,-198.3719 447.9371,-187.8279 440.5514,-195.4241 446.9004,-198.3719"/>
</g>
<!-- Node3 -->
<g id="node3" class="node">
<title>Node3</title>
<g id="a_node3"><a xlink:href="sitkCommon_8h.html" target="_top" xlink:title=" ">
<polygon fill="#ffffff" stroke="#000000" points="163.5,-112.5 163.5,-131.5 251.5,-131.5 251.5,-112.5 163.5,-112.5"/>
<text text-anchor="middle" x="207.5" y="-119.5" font-family="Helvetica,sans-Serif" font-size="10.00" fill="#000000">sitkCommon.h</text>
</a>
</g>
</g>
<!-- Node2&#45;&gt;Node3 -->
<g id="edge2" class="edge">
<title>Node2&#45;&gt;Node3</title>
<path fill="none" stroke="#191970" d="M290.3447,-283.7329C265.0415,-277.8151 235.6208,-266.3198 218.5,-244 195.7357,-214.3229 199.0582,-167.8407 203.3681,-141.6511"/>
<polygon fill="#191970" stroke="#191970" points="206.8169,-142.2486 205.2025,-131.7775 199.9347,-140.97 206.8169,-142.2486"/>
</g>
<!-- Node11 -->
<g id="node11" class="node">
<title>Node11</title>
<g id="a_node11"><a xlink:href="sitkObjectOwnedBase_8h.html" target="_top" xlink:title=" ">
<polygon fill="#ffffff" stroke="#000000" points="228,-224.5 228,-243.5 361,-243.5 361,-224.5 228,-224.5"/>
<text text-anchor="middle" x="294.5" y="-231.5" font-family="Helvetica,sans-Serif" font-size="10.00" fill="#000000">sitkObjectOwnedBase.h</text>
</a>
</g>
</g>
<!-- Node2&#45;&gt;Node11 -->
<g id="edge10" class="edge">
<title>Node2&#45;&gt;Node11</title>
<path fill="none" stroke="#191970" d="M330.01,-280.2455C323.9674,-272.3761 315.3097,-261.101 308.0559,-251.6542"/>
<polygon fill="#191970" stroke="#191970" points="310.7705,-249.4426 301.9042,-243.6427 305.2185,-253.7058 310.7705,-249.4426"/>
</g>
<!-- Node15 -->
<g id="node15" class="node">
<title>Node15</title>
<g id="a_node15"><a xlink:title=" ">
<polygon fill="#ffffff" stroke="#bfbfbf" points="379.5,-224.5 379.5,-243.5 411.5,-243.5 411.5,-224.5 379.5,-224.5"/>
<text text-anchor="middle" x="395.5" y="-231.5" font-family="Helvetica,sans-Serif" font-size="10.00" fill="#000000">set</text>
</a>
</g>
</g>
<!-- Node2&#45;&gt;Node15 -->
<g id="edge16" class="edge">
<title>Node2&#45;&gt;Node15</title>
<path fill="none" stroke="#191970" d="M347.6028,-280.2455C356.0028,-272.1352 368.1494,-260.4075 378.1084,-250.7919"/>
<polygon fill="#191970" stroke="#191970" points="380.75,-253.1066 385.5129,-243.6427 375.8878,-248.0707 380.75,-253.1066"/>
</g>
<!-- Node4 -->
<g id="node4" class="node">
<title>Node4</title>
<g id="a_node4"><a xlink:href="sitkMacro_8h.html" target="_top" xlink:title=" ">
<polygon fill="#ffffff" stroke="#000000" points="171,-56.5 171,-75.5 244,-75.5 244,-56.5 171,-56.5"/>
<text text-anchor="middle" x="207.5" y="-63.5" font-family="Helvetica,sans-Serif" font-size="10.00" fill="#000000">sitkMacro.h</text>
</a>
</g>
</g>
<!-- Node3&#45;&gt;Node4 -->
<g id="edge3" class="edge">
<title>Node3&#45;&gt;Node4</title>
<path fill="none" stroke="#191970" d="M207.5,-112.2455C207.5,-104.9382 207.5,-94.6944 207.5,-85.7046"/>
<polygon fill="#191970" stroke="#191970" points="211.0001,-85.6426 207.5,-75.6427 204.0001,-85.6427 211.0001,-85.6426"/>
</g>
<!-- Node5 -->
<g id="node5" class="node">
<title>Node5</title>
<g id="a_node5"><a xlink:title=" ">
<polygon fill="#ffffff" stroke="#bfbfbf" points="0,-.5 0,-19.5 53,-19.5 53,-.5 0,-.5"/>
<text text-anchor="middle" x="26.5" y="-7.5" font-family="Helvetica,sans-Serif" font-size="10.00" fill="#000000">stdint.h</text>
</a>
</g>
</g>
<!-- Node4&#45;&gt;Node5 -->
<g id="edge4" class="edge">
<title>Node4&#45;&gt;Node5</title>
<path fill="none" stroke="#191970" d="M176.385,-56.3733C144.8748,-46.6242 96.168,-31.5547 62.8884,-21.2583"/>
<polygon fill="#191970" stroke="#191970" points="63.6794,-17.8394 53.0917,-18.2273 61.6104,-24.5267 63.6794,-17.8394"/>
</g>
<!-- Node6 -->
<g id="node6" class="node">
<title>Node6</title>
<g id="a_node6"><a xlink:title=" ">
<polygon fill="#ffffff" stroke="#bfbfbf" points="71.5,-.5 71.5,-19.5 127.5,-19.5 127.5,-.5 71.5,-.5"/>
<text text-anchor="middle" x="99.5" y="-7.5" font-family="Helvetica,sans-Serif" font-size="10.00" fill="#000000">stddef.h</text>
</a>
</g>
</g>
<!-- Node4&#45;&gt;Node6 -->
<g id="edge5" class="edge">
<title>Node4&#45;&gt;Node6</title>
<path fill="none" stroke="#191970" d="M188.6878,-56.2455C171.6527,-47.4125 146.3425,-34.2887 127.0319,-24.2758"/>
<polygon fill="#191970" stroke="#191970" points="128.5853,-21.1388 118.0966,-19.6427 125.363,-27.353 128.5853,-21.1388"/>
</g>
<!-- Node7 -->
<g id="node7" class="node">
<title>Node7</title>
<g id="a_node7"><a xlink:title=" ">
<polygon fill="#ffffff" stroke="#bfbfbf" points="145.5,-.5 145.5,-19.5 197.5,-19.5 197.5,-.5 145.5,-.5"/>
<text text-anchor="middle" x="171.5" y="-7.5" font-family="Helvetica,sans-Serif" font-size="10.00" fill="#000000">cassert</text>
</a>
</g>
</g>
<!-- Node4&#45;&gt;Node7 -->
<g id="edge6" class="edge">
<title>Node4&#45;&gt;Node7</title>
<path fill="none" stroke="#191970" d="M201.2293,-56.2455C196.2736,-48.5367 189.217,-37.5598 183.2224,-28.2348"/>
<polygon fill="#191970" stroke="#191970" points="186.0506,-26.1618 177.6989,-19.6427 180.1624,-29.9471 186.0506,-26.1618"/>
</g>
<!-- Node8 -->
<g id="node8" class="node">
<title>Node8</title>
<g id="a_node8"><a xlink:title=" ">
<polygon fill="#ffffff" stroke="#bfbfbf" points="215.5,-.5 215.5,-19.5 271.5,-19.5 271.5,-.5 215.5,-.5"/>
<text text-anchor="middle" x="243.5" y="-7.5" font-family="Helvetica,sans-Serif" font-size="10.00" fill="#000000">sstream</text>
</a>
</g>
</g>
<!-- Node4&#45;&gt;Node8 -->
<g id="edge7" class="edge">
<title>Node4&#45;&gt;Node8</title>
<path fill="none" stroke="#191970" d="M213.7707,-56.2455C218.7264,-48.5367 225.783,-37.5598 231.7776,-28.2348"/>
<polygon fill="#191970" stroke="#191970" points="234.8376,-29.9471 237.3011,-19.6427 228.9494,-26.1618 234.8376,-29.9471"/>
</g>
<!-- Node9 -->
<g id="node9" class="node">
<title>Node9</title>
<g id="a_node9"><a xlink:title=" ">
<polygon fill="#ffffff" stroke="#bfbfbf" points="289.5,-.5 289.5,-19.5 333.5,-19.5 333.5,-.5 289.5,-.5"/>
<text text-anchor="middle" x="311.5" y="-7.5" font-family="Helvetica,sans-Serif" font-size="10.00" fill="#000000">limits</text>
</a>
</g>
</g>
<!-- Node4&#45;&gt;Node9 -->
<g id="edge8" class="edge">
<title>Node4&#45;&gt;Node9</title>
<path fill="none" stroke="#191970" d="M225.6154,-56.2455C241.945,-47.4527 266.171,-34.4079 284.7339,-24.4125"/>
<polygon fill="#191970" stroke="#191970" points="286.4468,-27.4654 293.5922,-19.6427 283.1281,-21.3021 286.4468,-27.4654"/>
</g>
<!-- Node10 -->
<g id="node10" class="node">
<title>Node10</title>
<g id="a_node10"><a xlink:href="sitkConfigure_8h.html" target="_top" xlink:title=" ">
<polygon fill="#ffffff" stroke="#000000" points="351.5,-.5 351.5,-19.5 441.5,-19.5 441.5,-.5 351.5,-.5"/>
<text text-anchor="middle" x="396.5" y="-7.5" font-family="Helvetica,sans-Serif" font-size="10.00" fill="#000000">sitkConfigure.h</text>
</a>
</g>
</g>
<!-- Node4&#45;&gt;Node10 -->
<g id="edge9" class="edge">
<title>Node4&#45;&gt;Node10</title>
<path fill="none" stroke="#191970" d="M239.9903,-56.3733C271.6902,-46.9807 320.0576,-32.6496 354.6286,-22.4064"/>
<polygon fill="#191970" stroke="#191970" points="355.8401,-25.6979 364.4337,-19.5011 353.8514,-18.9863 355.8401,-25.6979"/>
</g>
<!-- Node11&#45;&gt;Node3 -->
<g id="edge11" class="edge">
<title>Node11&#45;&gt;Node3</title>
<path fill="none" stroke="#191970" d="M272.8117,-224.3358C257.7392,-216.5635 238.3102,-204.2604 226.5,-188 216.6583,-174.4498 211.8966,-155.9013 209.6031,-141.9179"/>
<polygon fill="#191970" stroke="#191970" points="213.0522,-141.3054 208.243,-131.8649 206.1154,-142.2439 213.0522,-141.3054"/>
</g>
<!-- Node12 -->
<g id="node12" class="node">
<title>Node12</title>
<g id="a_node12"><a xlink:href="sitkNonCopyable_8h.html" target="_top" xlink:title=" ">
<polygon fill="#ffffff" stroke="#000000" points="236,-168.5 236,-187.5 345,-187.5 345,-168.5 236,-168.5"/>
<text text-anchor="middle" x="290.5" y="-175.5" font-family="Helvetica,sans-Serif" font-size="10.00" fill="#000000">sitkNonCopyable.h</text>
</a>
</g>
</g>
<!-- Node11&#45;&gt;Node12 -->
<g id="edge12" class="edge">
<title>Node11&#45;&gt;Node12</title>
<path fill="none" stroke="#191970" d="M293.8033,-224.2455C293.2813,-216.9382 292.5496,-206.6944 291.9075,-197.7046"/>
<polygon fill="#191970" stroke="#191970" points="295.3924,-197.3679 291.1888,-187.6427 288.4102,-197.8667 295.3924,-197.3679"/>
</g>
<!-- Node13 -->
<g id="node13" class="node">
<title>Node13</title>
<g id="a_node13"><a xlink:title=" ">
<polygon fill="#ffffff" stroke="#bfbfbf" points="363.5,-168.5 363.5,-187.5 401.5,-187.5 401.5,-168.5 363.5,-168.5"/>
<text text-anchor="middle" x="382.5" y="-175.5" font-family="Helvetica,sans-Serif" font-size="10.00" fill="#000000">map</text>
</a>
</g>
</g>
<!-- Node11&#45;&gt;Node13 -->
<g id="edge14" class="edge">
<title>Node11&#45;&gt;Node13</title>
<path fill="none" stroke="#191970" d="M309.8284,-224.2455C323.3303,-215.6534 343.2122,-203.0014 358.7686,-193.1018"/>
<polygon fill="#191970" stroke="#191970" points="360.7897,-195.9643 367.3472,-187.6427 357.0315,-190.0587 360.7897,-195.9643"/>
</g>
<!-- Node11&#45;&gt;Node14 -->
<g id="edge15" class="edge">
<title>Node11&#45;&gt;Node14</title>
<path fill="none" stroke="#191970" d="M321.6612,-224.3733C347.7067,-215.1419 387.2116,-201.1402 415.9979,-190.9375"/>
<polygon fill="#191970" stroke="#191970" points="417.437,-194.1408 425.6933,-187.5011 415.0985,-187.5429 417.437,-194.1408"/>
</g>
<!-- Node12&#45;&gt;Node3 -->
<g id="edge13" class="edge">
<title>Node12&#45;&gt;Node3</title>
<path fill="none" stroke="#191970" d="M276.0425,-168.2455C263.4268,-159.7337 244.9056,-147.2375 230.2955,-137.3801"/>
<polygon fill="#191970" stroke="#191970" points="232.0391,-134.3343 221.7918,-131.6427 228.1239,-140.1371 232.0391,-134.3343"/>
</g>
</g>
</svg>
