<?xml version="1.0" encoding="UTF-8" standalone="no"?>
<!DOCTYPE svg PUBLIC "-//W3C//DTD SVG 1.1//EN"
 "http://www.w3.org/Graphics/SVG/1.1/DTD/svg11.dtd">
<!-- Generated by graphviz version 2.43.0 (0)
 -->
<!-- Title: itk::simple::Transform Pages: 1 -->
<svg width="233pt" height="236pt"
 viewBox="0.00 0.00 232.50 236.00" xmlns="http://www.w3.org/2000/svg" xmlns:xlink="http://www.w3.org/1999/xlink">
<g id="graph0" class="graph" transform="scale(1 1) rotate(0) translate(4 232)">
<title>itk::simple::Transform</title>
<!-- Node1 -->
<g id="Node000001" class="node">
<title>Node1</title>
<g id="a_Node000001"><a xlink:title="A simplified wrapper around a variety of ITK transforms.">
<polygon fill="#999999" stroke="#666666" points="153,-19 30,-19 30,0 153,0 153,-19"/>
<text text-anchor="middle" x="91.5" y="-7" font-family="Helvetica,sans-Serif" font-size="10.00">itk::simple::Transform</text>
</a>
</g>
</g>
<!-- Node2 -->
<g id="Node000002" class="node">
<title>Node2</title>
<g id="a_Node000002"><a xlink:title=" ">
<polygon fill="white" stroke="#666666" points="183,-96 0,-96 0,-66 183,-66 183,-96"/>
<text text-anchor="start" x="8" y="-84" font-family="Helvetica,sans-Serif" font-size="10.00">std::unique_ptr&lt; PimpleTransform</text>
<text text-anchor="middle" x="91.5" y="-73" font-family="Helvetica,sans-Serif" font-size="10.00">Base &gt;</text>
</a>
</g>
</g>
<!-- Node2&#45;&gt;Node1 -->
<g id="edge1_Node000001_Node000002" class="edge">
<title>Node2&#45;&gt;Node1</title>
<g id="a_edge1_Node000001_Node000002"><a xlink:title=" ">
<path fill="none" stroke="#9a32cd" stroke-dasharray="5,2" d="M91.5,-55.56C91.5,-42.95 91.5,-28.35 91.5,-19.27"/>
<polygon fill="#9a32cd" stroke="#9a32cd" points="88,-55.94 91.5,-65.94 95,-55.94 88,-55.94"/>
</a>
</g>
<text text-anchor="middle" x="142" y="-40" font-family="Helvetica,sans-Serif" font-size="10.00" fill="grey"> m_PimpleTransform</text>
</g>
<!-- Node3 -->
<g id="Node000003" class="node">
<title>Node3</title>
<g id="a_Node000003"><a xlink:title=" ">
<polygon fill="white" stroke="#666666" points="150.5,-162 32.5,-162 32.5,-143 150.5,-143 150.5,-162"/>
<text text-anchor="middle" x="91.5" y="-150" font-family="Helvetica,sans-Serif" font-size="10.00">std::unique_ptr&lt; T &gt;</text>
</a>
</g>
</g>
<!-- Node3&#45;&gt;Node2 -->
<g id="edge2_Node000002_Node000003" class="edge">
<title>Node3&#45;&gt;Node2</title>
<g id="a_edge2_Node000002_Node000003"><a xlink:title=" ">
<path fill="none" stroke="orange" stroke-dasharray="5,2" d="M91.5,-132.71C91.5,-121.19 91.5,-106.68 91.5,-96.14"/>
<polygon fill="orange" stroke="orange" points="88,-132.98 91.5,-142.98 95,-132.98 88,-132.98"/>
</a>
</g>
<text text-anchor="middle" x="158" y="-117" font-family="Helvetica,sans-Serif" font-size="10.00" fill="grey"> &lt; PimpleTransformBase &gt;</text>
</g>
<!-- Node4 -->
<g id="Node000004" class="node">
<title>Node4</title>
<g id="a_Node000004"><a xlink:title=" ">
<polygon fill="white" stroke="#666666" points="106,-228 77,-228 77,-209 106,-209 106,-228"/>
<text text-anchor="middle" x="91.5" y="-216" font-family="Helvetica,sans-Serif" font-size="10.00">T</text>
</a>
</g>
</g>
<!-- Node4&#45;&gt;Node3 -->
<g id="edge3_Node000003_Node000004" class="edge">
<title>Node4&#45;&gt;Node3</title>
<g id="a_edge3_Node000003_Node000004"><a xlink:title=" ">
<path fill="none" stroke="#9a32cd" stroke-dasharray="5,2" d="M91.5,-198.58C91.5,-186.63 91.5,-171.72 91.5,-162.41"/>
<polygon fill="#9a32cd" stroke="#9a32cd" points="88,-198.87 91.5,-208.87 95,-198.87 88,-198.87"/>
</a>
</g>
<text text-anchor="middle" x="100" y="-183" font-family="Helvetica,sans-Serif" font-size="10.00" fill="grey"> ptr</text>
</g>
</g>
</svg>
