<?xml version="1.0" encoding="UTF-8" standalone="no"?>
<!DOCTYPE svg PUBLIC "-//W3C//DTD SVG 1.1//EN"
 "http://www.w3.org/Graphics/SVG/1.1/DTD/svg11.dtd">
<!-- Generated by graphviz version 2.43.0 (0)
 -->
<!-- Title: itk::HolderCommand&lt; T &gt; Pages: 1 -->
<svg width="154pt" height="272pt"
 viewBox="0.00 0.00 154.00 272.00" xmlns="http://www.w3.org/2000/svg" xmlns:xlink="http://www.w3.org/1999/xlink">

<svg id="main" version="1.1" xmlns="http://www.w3.org/2000/svg" xmlns:xlink="http://www.w3.org/1999/xlink" xml:space="preserve">

<style type="text/css"><![CDATA[
.node, .edge {opacity: 0.7;}
.node.selected, .edge.selected {opacity: 1;}
.edge:hover path { stroke: red; }
.edge:hover polygon { stroke: red; fill: red; }
]]></style>
<script type="application/ecmascript" xlink:href="svg.min.js"/>
<svg id="graph" class="graph">
<g id="graph0" class="graph" transform="scale(1 1) rotate(0) translate(4 268)">
<title>itk::HolderCommand&lt; T &gt;</title>
<!-- Node1 -->
<g id="Node000001" class="node">
<title>Node1</title>
<g id="a_Node000001"><a xlink:title="An ITK Command class to hold a object until destruction.">
<polygon fill="#999999" stroke="#666666" points="146,-96 0,-96 0,-77 146,-77 146,-96"/>
<text text-anchor="middle" x="73" y="-84" font-family="Helvetica,sans-Serif" font-size="10.00">itk::HolderCommand&lt; T &gt;</text>
</a>
</g>
</g>
<!-- Node5 -->
<g id="Node000005" class="node">
<title>Node5</title>
<g id="a_Node000005"><a xlink:href="classitk_1_1HolderCommand_3_01T_01_5_01_4.html" target="_top" xlink:title=" ">
<polygon fill="white" stroke="#666666" points="132,-30 14,-30 14,0 132,0 132,-30"/>
<text text-anchor="start" x="22" y="-18" font-family="Helvetica,sans-Serif" font-size="10.00">itk::HolderCommand</text>
<text text-anchor="middle" x="73" y="-7" font-family="Helvetica,sans-Serif" font-size="10.00">&lt; T * &gt;</text>
</a>
</g>
</g>
<!-- Node1&#45;&gt;Node5 -->
<g id="edge4_Node000001_Node000005" class="edge">
<title>Node1&#45;&gt;Node5</title>
<g id="a_edge4_Node000001_Node000005"><a xlink:title=" ">
<path fill="none" stroke="orange" stroke-dasharray="5,2" d="M73,-66.71C73,-55.19 73,-40.68 73,-30.14"/>
<polygon fill="orange" stroke="orange" points="69.5,-66.98 73,-76.98 76.5,-66.98 69.5,-66.98"/>
</a>
</g>
<text text-anchor="middle" x="93" y="-51" font-family="Helvetica,sans-Serif" font-size="10.00" fill="grey"> &lt; T * &gt;</text>
</g>
<!-- Node2 -->
<g id="Node000002" class="node">
<title>Node2</title>
<g id="a_Node000002"><a target="_parent" xlink:href="https://www.itk.org/Doxygen/html/classitk_1_1Command.html" xlink:title=" ">
<polygon fill="white" stroke="#666666" points="116,-152 30,-152 30,-133 116,-133 116,-152"/>
<text text-anchor="middle" x="73" y="-140" font-family="Helvetica,sans-Serif" font-size="10.00">itk::Command</text>
</a>
</g>
</g>
<!-- Node2&#45;&gt;Node1 -->
<g id="edge1_Node000001_Node000002" class="edge">
<title>Node2&#45;&gt;Node1</title>
<g id="a_edge1_Node000001_Node000002"><a xlink:title=" ">
<path fill="none" stroke="#63b8ff" d="M73,-122.3C73,-113.41 73,-103.28 73,-96.25"/>
<polygon fill="#63b8ff" stroke="#63b8ff" points="69.5,-122.58 73,-132.58 76.5,-122.58 69.5,-122.58"/>
</a>
</g>
</g>
<!-- Node3 -->
<g id="Node000003" class="node">
<title>Node3</title>
<g id="a_Node000003"><a target="_parent" xlink:href="https://www.itk.org/Doxygen/html/classitk_1_1Object.html" xlink:title=" ">
<polygon fill="white" stroke="#666666" points="106.5,-208 39.5,-208 39.5,-189 106.5,-189 106.5,-208"/>
<text text-anchor="middle" x="73" y="-196" font-family="Helvetica,sans-Serif" font-size="10.00">itk::Object</text>
</a>
</g>
</g>
<!-- Node3&#45;&gt;Node2 -->
<g id="edge2_Node000002_Node000003" class="edge">
<title>Node3&#45;&gt;Node2</title>
<g id="a_edge2_Node000002_Node000003"><a xlink:title=" ">
<path fill="none" stroke="#63b8ff" d="M73,-178.3C73,-169.41 73,-159.28 73,-152.25"/>
<polygon fill="#63b8ff" stroke="#63b8ff" points="69.5,-178.58 73,-188.58 76.5,-178.58 69.5,-178.58"/>
</a>
</g>
</g>
<!-- Node4 -->
<g id="Node000004" class="node">
<title>Node4</title>
<g id="a_Node000004"><a target="_parent" xlink:href="https://www.itk.org/Doxygen/html/classitk_1_1LightObject.html" xlink:title=" ">
<polygon fill="white" stroke="#666666" points="118.5,-264 27.5,-264 27.5,-245 118.5,-245 118.5,-264"/>
<text text-anchor="middle" x="73" y="-252" font-family="Helvetica,sans-Serif" font-size="10.00">itk::LightObject</text>
</a>
</g>
</g>
<!-- Node4&#45;&gt;Node3 -->
<g id="edge3_Node000003_Node000004" class="edge">
<title>Node4&#45;&gt;Node3</title>
<g id="a_edge3_Node000003_Node000004"><a xlink:title=" ">
<path fill="none" stroke="#63b8ff" d="M73,-234.3C73,-225.41 73,-215.28 73,-208.25"/>
<polygon fill="#63b8ff" stroke="#63b8ff" points="69.5,-234.58 73,-244.58 76.5,-234.58 69.5,-234.58"/>
</a>
</g>
</g>
</g>
</svg>
</svg>

<style type='text/css'>
<![CDATA[
[data-mouse-over-selected='false'] { opacity: 0.7; }
[data-mouse-over-selected='true']  { opacity: 1.0; }
]]>
</style>
<script type="application/ecmascript"><![CDATA[
document.addEventListener('DOMContentLoaded', (event) => {
  highlightEdges();
  highlightAdjacentNodes();
});
]]></script>
</svg>
