<?xml version="1.0" encoding="UTF-8" standalone="no"?>
<!DOCTYPE svg PUBLIC "-//W3C//DTD SVG 1.1//EN"
 "http://www.w3.org/Graphics/SVG/1.1/DTD/svg11.dtd">
<!-- Generated by graphviz version 2.43.0 (0)
 -->
<!-- Title: itk::simple::detail::MemberFunctionFactoryBase&lt; TMemberFunctionPointer, TKey &gt; Pages: 1 -->
<!--zoomable 451 -->

<svg id="main" version="1.1" xmlns="http://www.w3.org/2000/svg" xmlns:xlink="http://www.w3.org/1999/xlink" xml:space="preserve" onload="init(evt)">

<style type="text/css"><![CDATA[
.node, .edge {opacity: 0.7;}
.node.selected, .edge.selected {opacity: 1;}
.edge:hover path { stroke: red; }
.edge:hover polygon { stroke: red; fill: red; }
]]></style>

<defs>
  <circle id="rim" cx="0" cy="0" r="7"/>
  <circle id="rim2" cx="0" cy="0" r="3.5"/>
  <g id="zoomPlus">
    <use xlink:href="#rim" fill="#404040"><set attributeName="fill" to="#808080" begin="zoomplus.mouseover" end="zoomplus.mouseout"/></use>
    <path d="M-4,0h8M0,-4v8" fill="none" stroke="white" stroke-width="1.5" pointer-events="none"/>
  </g>
  <g id="zoomMin">
    <use xlink:href="#rim" fill="#404040"><set attributeName="fill" to="#808080" begin="zoomminus.mouseover" end="zoomminus.mouseout"/></use>
    <path d="M-4,0h8" fill="none" stroke="white" stroke-width="1.5" pointer-events="none"/>
  </g>
  <g id="arrowUp" transform="translate(30 24)">
    <use xlink:href="#rim"/>
    <path pointer-events="none" fill="none" stroke="white" stroke-width="1.5" d="M0,-3.0v7 M-2.5,-0.5L0,-3.0L2.5,-0.5"/>
  </g>
  <g id="arrowRight" transform="rotate(90) translate(36 -43)">
    <use xlink:href="#rim"/>
    <path pointer-events="none" fill="none" stroke="white" stroke-width="1.5" d="M0,-3.0v7 M-2.5,-0.5L0,-3.0L2.5,-0.5"/>
  </g>
  <g id="arrowDown" transform="rotate(180) translate(-30 -48)">
    <use xlink:href="#rim"/>
    <path pointer-events="none" fill="none" stroke="white" stroke-width="1.5" d="M0,-3.0v7 M-2.5,-0.5L0,-3.0L2.5,-0.5"/>
  </g>
  <g id="arrowLeft" transform="rotate(270) translate(-36 17)">
    <use xlink:href="#rim"/>
    <path pointer-events="none" fill="none" stroke="white" stroke-width="1.5" d="M0,-3.0v7 M-2.5,-0.5L0,-3.0L2.5,-0.5"/>
  </g>
  <g id="resetDef">
    <use xlink:href="#rim2" fill="#404040"><set attributeName="fill" to="#808080" begin="reset.mouseover" end="reset.mouseout"/></use>
  </g>
</defs>
<script type="application/ecmascript">
var viewWidth = 1251;
var viewHeight = 451;
var sectionId = 'dynsection-0';
</script>
<script type="application/ecmascript" xlink:href="svg.min.js"/>
<svg id="graph" class="graph">
<g id="viewport">
<title>itk::simple::detail::MemberFunctionFactoryBase&lt; TMemberFunctionPointer, TKey &gt;</title>
<!-- Node1 -->
<g id="Node000001" class="node">
<title>Node1</title>
<g id="a_Node000001"><a xlink:title=" ">
<polygon fill="#999999" stroke="#666666" points="164,-251 0,-251 0,-199 164,-199 164,-251"/>
<text text-anchor="start" x="8" y="-239" font-family="Helvetica,sans-Serif" font-size="10.00">itk::simple::detail</text>
<text text-anchor="start" x="8" y="-228" font-family="Helvetica,sans-Serif" font-size="10.00">::MemberFunctionFactoryBase</text>
<text text-anchor="start" x="8" y="-217" font-family="Helvetica,sans-Serif" font-size="10.00">&lt; TMemberFunctionPointer,</text>
<text text-anchor="middle" x="82" y="-206" font-family="Helvetica,sans-Serif" font-size="10.00"> TKey &gt;</text>
</a>
</g>
</g>
<!-- Node2 -->
<g id="Node000002" class="node">
<title>Node2</title>
<g id="a_Node000002"><a xlink:href="classitk_1_1simple_1_1detail_1_1MemberFunctionFactoryBase.html" target="_top" xlink:title=" ">
<polygon fill="white" stroke="#666666" points="511,-430.5 347,-430.5 347,-367.5 511,-367.5 511,-430.5"/>
<text text-anchor="start" x="355" y="-418.5" font-family="Helvetica,sans-Serif" font-size="10.00">itk::simple::detail</text>
<text text-anchor="start" x="355" y="-407.5" font-family="Helvetica,sans-Serif" font-size="10.00">::MemberFunctionFactoryBase</text>
<text text-anchor="start" x="355" y="-396.5" font-family="Helvetica,sans-Serif" font-size="10.00">&lt; TMemberFunctionPointer,</text>
<text text-anchor="start" x="355" y="-385.5" font-family="Helvetica,sans-Serif" font-size="10.00"> std::tuple&lt; unsigned int,</text>
<text text-anchor="middle" x="429" y="-374.5" font-family="Helvetica,sans-Serif" font-size="10.00"> int, unsigned int, int &gt; &gt;</text>
</a>
</g>
</g>
<!-- Node1&#45;&gt;Node2 -->
<g id="edge1_Node000001_Node000002" class="edge">
<title>Node1&#45;&gt;Node2</title>
<g id="a_edge1_Node000001_Node000002"><a xlink:title=" ">
<path fill="none" stroke="orange" stroke-dasharray="5,2" d="M95.19,-260.85C109.69,-297.41 137.65,-352.4 182,-379 231.15,-408.48 296.09,-412.61 346.91,-409.84"/>
<polygon fill="orange" stroke="orange" points="98.29,-259.17 91.46,-251.07 91.76,-261.66 98.29,-259.17"/>
</a>
</g>
<text text-anchor="start" x="182" y="-435" font-family="Helvetica,sans-Serif" font-size="10.00" fill="grey"> &lt; TMemberFunctionPointer,</text>
<text text-anchor="start" x="182" y="-424" font-family="Helvetica,sans-Serif" font-size="10.00" fill="grey"> std::tuple&lt; unsigned int,</text>
<text text-anchor="middle" x="252" y="-413" font-family="Helvetica,sans-Serif" font-size="10.00" fill="grey"> int, unsigned int, int &gt; &gt;</text>
</g>
<!-- Node5 -->
<g id="Node000005" class="node">
<title>Node5</title>
<g id="a_Node000005"><a xlink:href="classitk_1_1simple_1_1detail_1_1MemberFunctionFactoryBase.html" target="_top" xlink:title=" ">
<polygon fill="white" stroke="#666666" points="515,-195 343,-195 343,-143 515,-143 515,-195"/>
<text text-anchor="start" x="351" y="-183" font-family="Helvetica,sans-Serif" font-size="10.00">itk::simple::detail</text>
<text text-anchor="start" x="351" y="-172" font-family="Helvetica,sans-Serif" font-size="10.00">::MemberFunctionFactoryBase</text>
<text text-anchor="start" x="351" y="-161" font-family="Helvetica,sans-Serif" font-size="10.00">&lt; TMemberFunctionPointer,</text>
<text text-anchor="middle" x="429" y="-150" font-family="Helvetica,sans-Serif" font-size="10.00"> std::pair&lt; unsigned int, int &gt; &gt;</text>
</a>
</g>
</g>
<!-- Node1&#45;&gt;Node5 -->
<g id="edge4_Node000001_Node000005" class="edge">
<title>Node1&#45;&gt;Node5</title>
<g id="a_edge4_Node000001_Node000005"><a xlink:title=" ">
<path fill="none" stroke="orange" stroke-dasharray="5,2" d="M128.34,-193.54C144.53,-184.05 163.38,-174.87 182,-170 234.27,-156.34 294.95,-155.94 342.97,-159.02"/>
<polygon fill="orange" stroke="orange" points="126.38,-190.64 119.64,-198.82 130.01,-196.62 126.38,-190.64"/>
</a>
</g>
<text text-anchor="start" x="182" y="-195" font-family="Helvetica,sans-Serif" font-size="10.00" fill="grey"> &lt; TMemberFunctionPointer,</text>
<text text-anchor="start" x="182" y="-184" font-family="Helvetica,sans-Serif" font-size="10.00" fill="grey"> std::pair&lt; unsigned int,</text>
<text text-anchor="middle" x="252" y="-173" font-family="Helvetica,sans-Serif" font-size="10.00" fill="grey"> int &gt; &gt;</text>
</g>
<!-- Node11 -->
<g id="Node000011" class="node">
<title>Node11</title>
<g id="a_Node000011"><a xlink:href="classitk_1_1simple_1_1detail_1_1MemberFunctionFactoryBase.html" target="_top" xlink:title=" ">
<polygon fill="white" stroke="#666666" points="700,-109 536,-109 536,-57 700,-57 700,-109"/>
<text text-anchor="start" x="544" y="-97" font-family="Helvetica,sans-Serif" font-size="10.00">itk::simple::detail</text>
<text text-anchor="start" x="544" y="-86" font-family="Helvetica,sans-Serif" font-size="10.00">::MemberFunctionFactoryBase</text>
<text text-anchor="start" x="544" y="-75" font-family="Helvetica,sans-Serif" font-size="10.00">&lt; MemberFunctionType, std</text>
<text text-anchor="middle" x="618" y="-64" font-family="Helvetica,sans-Serif" font-size="10.00">::pair&lt; unsigned int, int &gt; &gt;</text>
</a>
</g>
</g>
<!-- Node1&#45;&gt;Node11 -->
<g id="edge10_Node000001_Node000011" class="edge">
<title>Node1&#45;&gt;Node11</title>
<g id="a_edge10_Node000001_Node000011"><a xlink:title=" ">
<path fill="none" stroke="orange" stroke-dasharray="5,2" d="M105.35,-190.75C123.05,-166.77 150.05,-136.38 182,-121 242.45,-91.9 427.26,-84.88 535.56,-83.31"/>
<polygon fill="orange" stroke="orange" points="102.47,-188.76 99.49,-198.92 108.16,-192.84 102.47,-188.76"/>
</a>
</g>
<text text-anchor="start" x="191" y="-146" font-family="Helvetica,sans-Serif" font-size="10.00" fill="grey"> &lt; MemberFunctionType,</text>
<text text-anchor="start" x="191" y="-135" font-family="Helvetica,sans-Serif" font-size="10.00" fill="grey"> std::pair&lt; unsigned</text>
<text text-anchor="middle" x="252" y="-124" font-family="Helvetica,sans-Serif" font-size="10.00" fill="grey"> int, int &gt; &gt;</text>
</g>
<!-- Node12 -->
<g id="Node000012" class="node">
<title>Node12</title>
<g id="a_Node000012"><a xlink:href="classitk_1_1simple_1_1detail_1_1MemberFunctionFactoryBase.html" target="_top" xlink:title=" ">
<polygon fill="white" stroke="#666666" points="700,-254 536,-254 536,-202 700,-202 700,-254"/>
<text text-anchor="start" x="544" y="-242" font-family="Helvetica,sans-Serif" font-size="10.00">itk::simple::detail</text>
<text text-anchor="start" x="544" y="-231" font-family="Helvetica,sans-Serif" font-size="10.00">::MemberFunctionFactoryBase</text>
<text text-anchor="start" x="544" y="-220" font-family="Helvetica,sans-Serif" font-size="10.00">&lt; MemberFunction1Type, std</text>
<text text-anchor="middle" x="618" y="-209" font-family="Helvetica,sans-Serif" font-size="10.00">::pair&lt; unsigned int, int &gt; &gt;</text>
</a>
</g>
</g>
<!-- Node1&#45;&gt;Node12 -->
<g id="edge12_Node000001_Node000012" class="edge">
<title>Node1&#45;&gt;Node12</title>
<g id="a_edge12_Node000001_Node000012"><a xlink:title=" ">
<path fill="none" stroke="orange" stroke-dasharray="5,2" d="M174.26,-225.33C218.81,-225.5 273.21,-225.73 322,-226 394.34,-226.4 476.66,-226.96 535.93,-227.39"/>
<polygon fill="orange" stroke="orange" points="174.05,-221.83 164.03,-225.29 174.02,-228.83 174.05,-221.83"/>
</a>
</g>
<text text-anchor="start" x="188" y="-251" font-family="Helvetica,sans-Serif" font-size="10.00" fill="grey"> &lt; MemberFunction1Type,</text>
<text text-anchor="start" x="188" y="-240" font-family="Helvetica,sans-Serif" font-size="10.00" fill="grey"> std::pair&lt; unsigned</text>
<text text-anchor="middle" x="252" y="-229" font-family="Helvetica,sans-Serif" font-size="10.00" fill="grey"> int, int &gt; &gt;</text>
</g>
<!-- Node13 -->
<g id="Node000013" class="node">
<title>Node13</title>
<g id="a_Node000013"><a xlink:href="classitk_1_1simple_1_1detail_1_1MemberFunctionFactoryBase.html" target="_top" xlink:title=" ">
<polygon fill="white" stroke="#666666" points="882,-311 718,-311 718,-259 882,-259 882,-311"/>
<text text-anchor="start" x="726" y="-299" font-family="Helvetica,sans-Serif" font-size="10.00">itk::simple::detail</text>
<text text-anchor="start" x="726" y="-288" font-family="Helvetica,sans-Serif" font-size="10.00">::MemberFunctionFactoryBase</text>
<text text-anchor="start" x="726" y="-277" font-family="Helvetica,sans-Serif" font-size="10.00">&lt; MemberFunction2Type, std</text>
<text text-anchor="middle" x="800" y="-266" font-family="Helvetica,sans-Serif" font-size="10.00">::pair&lt; unsigned int, int &gt; &gt;</text>
</a>
</g>
</g>
<!-- Node1&#45;&gt;Node13 -->
<g id="edge14_Node000001_Node000013" class="edge">
<title>Node1&#45;&gt;Node13</title>
<g id="a_edge14_Node000001_Node000013"><a xlink:title=" ">
<path fill="none" stroke="orange" stroke-dasharray="5,2" d="M160.32,-253.91C167.57,-255.91 174.88,-257.66 182,-259 282.28,-277.92 574.63,-283.08 717.92,-284.48"/>
<polygon fill="orange" stroke="orange" points="161.05,-250.48 150.47,-251.05 159.1,-257.2 161.05,-250.48"/>
</a>
</g>
<text text-anchor="start" x="365" y="-305" font-family="Helvetica,sans-Serif" font-size="10.00" fill="grey"> &lt; MemberFunction2Type,</text>
<text text-anchor="start" x="365" y="-294" font-family="Helvetica,sans-Serif" font-size="10.00" fill="grey"> std::pair&lt; unsigned</text>
<text text-anchor="middle" x="429" y="-283" font-family="Helvetica,sans-Serif" font-size="10.00" fill="grey"> int, int &gt; &gt;</text>
</g>
<!-- Node14 -->
<g id="Node000014" class="node">
<title>Node14</title>
<g id="a_Node000014"><a xlink:href="classitk_1_1simple_1_1detail_1_1MemberFunctionFactoryBase.html" target="_top" xlink:title=" ">
<polygon fill="white" stroke="#666666" points="700,-370.5 536,-370.5 536,-307.5 700,-307.5 700,-370.5"/>
<text text-anchor="start" x="544" y="-358.5" font-family="Helvetica,sans-Serif" font-size="10.00">itk::simple::detail</text>
<text text-anchor="start" x="544" y="-347.5" font-family="Helvetica,sans-Serif" font-size="10.00">::MemberFunctionFactoryBase</text>
<text text-anchor="start" x="544" y="-336.5" font-family="Helvetica,sans-Serif" font-size="10.00">&lt; MemberFunctionType, std</text>
<text text-anchor="start" x="544" y="-325.5" font-family="Helvetica,sans-Serif" font-size="10.00">::tuple&lt; unsigned int, int,</text>
<text text-anchor="middle" x="618" y="-314.5" font-family="Helvetica,sans-Serif" font-size="10.00"> unsigned int, int &gt; &gt;</text>
</a>
</g>
</g>
<!-- Node1&#45;&gt;Node14 -->
<g id="edge16_Node000001_Node000014" class="edge">
<title>Node1&#45;&gt;Node14</title>
<g id="a_edge16_Node000001_Node000014"><a xlink:title=" ">
<path fill="none" stroke="orange" stroke-dasharray="5,2" d="M125.37,-256.96C142.19,-268.16 162.22,-279.74 182,-287 299.8,-330.27 446.46,-339.37 535.84,-340.36"/>
<polygon fill="orange" stroke="orange" points="127.12,-253.92 116.89,-251.17 123.17,-259.7 127.12,-253.92"/>
</a>
</g>
<text text-anchor="start" x="191" y="-357" font-family="Helvetica,sans-Serif" font-size="10.00" fill="grey"> &lt; MemberFunctionType,</text>
<text text-anchor="start" x="191" y="-346" font-family="Helvetica,sans-Serif" font-size="10.00" fill="grey"> std::tuple&lt; unsigned</text>
<text text-anchor="start" x="191" y="-335" font-family="Helvetica,sans-Serif" font-size="10.00" fill="grey"> int, int, unsigned int,</text>
<text text-anchor="middle" x="252" y="-324" font-family="Helvetica,sans-Serif" font-size="10.00" fill="grey"> int &gt; &gt;</text>
</g>
<!-- Node15 -->
<g id="Node000015" class="node">
<title>Node15</title>
<g id="a_Node000015"><a xlink:href="classitk_1_1simple_1_1detail_1_1MemberFunctionFactoryBase.html" target="_top" xlink:title=" ">
<polygon fill="white" stroke="#666666" points="518,-52 340,-52 340,0 518,0 518,-52"/>
<text text-anchor="start" x="348" y="-40" font-family="Helvetica,sans-Serif" font-size="10.00">itk::simple::detail</text>
<text text-anchor="start" x="348" y="-29" font-family="Helvetica,sans-Serif" font-size="10.00">::MemberFunctionFactoryBase</text>
<text text-anchor="start" x="348" y="-18" font-family="Helvetica,sans-Serif" font-size="10.00">&lt; EvaluateMemberFunctionType,</text>
<text text-anchor="middle" x="429" y="-7" font-family="Helvetica,sans-Serif" font-size="10.00"> std::pair&lt; unsigned int, int &gt; &gt;</text>
</a>
</g>
</g>
<!-- Node1&#45;&gt;Node15 -->
<g id="edge18_Node000001_Node000015" class="edge">
<title>Node1&#45;&gt;Node15</title>
<g id="a_edge18_Node000001_Node000015"><a xlink:title=" ">
<path fill="none" stroke="orange" stroke-dasharray="5,2" d="M92.3,-189.06C105.06,-147.68 132.29,-81.27 182,-49 228.14,-19.04 289.79,-13.33 339.83,-15.09"/>
<polygon fill="orange" stroke="orange" points="88.91,-188.17 89.43,-198.75 95.62,-190.15 88.91,-188.17"/>
</a>
</g>
<text text-anchor="start" x="182.5" y="-74" font-family="Helvetica,sans-Serif" font-size="10.00" fill="grey"> &lt; EvaluateMemberFunction</text>
<text text-anchor="start" x="182.5" y="-63" font-family="Helvetica,sans-Serif" font-size="10.00" fill="grey">Type, std::pair&lt; unsigned</text>
<text text-anchor="middle" x="252" y="-52" font-family="Helvetica,sans-Serif" font-size="10.00" fill="grey"> int, int &gt; &gt;</text>
</g>
<!-- Node3 -->
<g id="Node000003" class="node">
<title>Node3</title>
<g id="a_Node000003"><a xlink:href="classitk_1_1simple_1_1detail_1_1DualMemberFunctionFactory.html" target="_top" xlink:title="A class used to instantiate and generate function objects of templated member functions with two temp...">
<polygon fill="white" stroke="#666666" points="881,-417.5 719,-417.5 719,-376.5 881,-376.5 881,-417.5"/>
<text text-anchor="start" x="727" y="-405.5" font-family="Helvetica,sans-Serif" font-size="10.00">itk::simple::detail</text>
<text text-anchor="start" x="727" y="-394.5" font-family="Helvetica,sans-Serif" font-size="10.00">::DualMemberFunctionFactory</text>
<text text-anchor="middle" x="800" y="-383.5" font-family="Helvetica,sans-Serif" font-size="10.00">&lt; TMemberFunctionPointer &gt;</text>
</a>
</g>
</g>
<!-- Node2&#45;&gt;Node3 -->
<g id="edge2_Node000002_Node000003" class="edge">
<title>Node2&#45;&gt;Node3</title>
<g id="a_edge2_Node000002_Node000003"><a xlink:title=" ">
<path fill="none" stroke="darkgreen" d="M521.75,-398.5C582.24,-398.17 660.71,-397.75 718.73,-397.44"/>
<polygon fill="darkgreen" stroke="darkgreen" points="521.42,-395 511.44,-398.56 521.45,-402 521.42,-395"/>
</a>
</g>
</g>
<!-- Node4 -->
<g id="Node000004" class="node">
<title>Node4</title>
<g id="a_Node000004"><a xlink:href="classitk_1_1simple_1_1detail_1_1DualMemberFunctionFactory.html" target="_top" xlink:title=" ">
<polygon fill="white" stroke="#666666" points="1231,-377.5 1069,-377.5 1069,-336.5 1231,-336.5 1231,-377.5"/>
<text text-anchor="start" x="1077" y="-365.5" font-family="Helvetica,sans-Serif" font-size="10.00">itk::simple::detail</text>
<text text-anchor="start" x="1077" y="-354.5" font-family="Helvetica,sans-Serif" font-size="10.00">::DualMemberFunctionFactory</text>
<text text-anchor="middle" x="1150" y="-343.5" font-family="Helvetica,sans-Serif" font-size="10.00">&lt; MemberFunctionType &gt;</text>
</a>
</g>
</g>
<!-- Node3&#45;&gt;Node4 -->
<g id="edge3_Node000003_Node000004" class="edge">
<title>Node3&#45;&gt;Node4</title>
<g id="a_edge3_Node000003_Node000004"><a xlink:title=" ">
<path fill="none" stroke="orange" stroke-dasharray="5,2" d="M891.36,-386.61C946.3,-380.3 1015.84,-372.31 1068.83,-366.22"/>
<polygon fill="orange" stroke="orange" points="890.81,-383.15 881.28,-387.77 891.61,-390.11 890.81,-383.15"/>
</a>
</g>
<text text-anchor="middle" x="969.5" y="-388" font-family="Helvetica,sans-Serif" font-size="10.00" fill="grey"> &lt; MemberFunctionType &gt;</text>
</g>
<!-- Node6 -->
<g id="Node000006" class="node">
<title>Node6</title>
<g id="a_Node000006"><a xlink:href="classitk_1_1simple_1_1detail_1_1MemberFunctionFactory.html" target="_top" xlink:title="A class used to instantiate and generate function object to templated member functions.">
<polygon fill="white" stroke="#666666" points="880.5,-189.5 719.5,-189.5 719.5,-148.5 880.5,-148.5 880.5,-189.5"/>
<text text-anchor="start" x="727.5" y="-177.5" font-family="Helvetica,sans-Serif" font-size="10.00">itk::simple::detail</text>
<text text-anchor="start" x="727.5" y="-166.5" font-family="Helvetica,sans-Serif" font-size="10.00">::MemberFunctionFactory</text>
<text text-anchor="middle" x="800" y="-155.5" font-family="Helvetica,sans-Serif" font-size="10.00">&lt; TMemberFunctionPointer &gt;</text>
</a>
</g>
</g>
<!-- Node5&#45;&gt;Node6 -->
<g id="edge5_Node000005_Node000006" class="edge">
<title>Node5&#45;&gt;Node6</title>
<g id="a_edge5_Node000005_Node000006"><a xlink:title=" ">
<path fill="none" stroke="darkgreen" d="M525.39,-169C585.59,-169 662.44,-169 719.36,-169"/>
<polygon fill="darkgreen" stroke="darkgreen" points="525.12,-165.5 515.12,-169 525.12,-172.5 525.12,-165.5"/>
</a>
</g>
</g>
<!-- Node7 -->
<g id="Node000007" class="node">
<title>Node7</title>
<g id="a_Node000007"><a xlink:href="classitk_1_1simple_1_1detail_1_1MemberFunctionFactory.html" target="_top" xlink:title=" ">
<polygon fill="white" stroke="#666666" points="1221.5,-140.5 1078.5,-140.5 1078.5,-99.5 1221.5,-99.5 1221.5,-140.5"/>
<text text-anchor="start" x="1086.5" y="-128.5" font-family="Helvetica,sans-Serif" font-size="10.00">itk::simple::detail</text>
<text text-anchor="start" x="1086.5" y="-117.5" font-family="Helvetica,sans-Serif" font-size="10.00">::MemberFunctionFactory</text>
<text text-anchor="middle" x="1150" y="-106.5" font-family="Helvetica,sans-Serif" font-size="10.00">&lt; MemberFunctionType &gt;</text>
</a>
</g>
</g>
<!-- Node6&#45;&gt;Node7 -->
<g id="edge6_Node000006_Node000007" class="edge">
<title>Node6&#45;&gt;Node7</title>
<g id="a_edge6_Node000006_Node000007"><a xlink:title=" ">
<path fill="none" stroke="orange" stroke-dasharray="5,2" d="M890.73,-154.38C893.86,-153.91 896.95,-153.45 900,-153 960.08,-144.17 1028.47,-135.18 1078.36,-128.82"/>
<polygon fill="orange" stroke="orange" points="890.03,-150.95 880.67,-155.92 891.08,-157.87 890.03,-150.95"/>
</a>
</g>
<text text-anchor="middle" x="969.5" y="-156" font-family="Helvetica,sans-Serif" font-size="10.00" fill="grey"> &lt; MemberFunctionType &gt;</text>
</g>
<!-- Node8 -->
<g id="Node000008" class="node">
<title>Node8</title>
<g id="a_Node000008"><a xlink:href="classitk_1_1simple_1_1detail_1_1MemberFunctionFactory.html" target="_top" xlink:title=" ">
<polygon fill="white" stroke="#666666" points="1224.5,-207.5 1075.5,-207.5 1075.5,-166.5 1224.5,-166.5 1224.5,-207.5"/>
<text text-anchor="start" x="1083.5" y="-195.5" font-family="Helvetica,sans-Serif" font-size="10.00">itk::simple::detail</text>
<text text-anchor="start" x="1083.5" y="-184.5" font-family="Helvetica,sans-Serif" font-size="10.00">::MemberFunctionFactory</text>
<text text-anchor="middle" x="1150" y="-173.5" font-family="Helvetica,sans-Serif" font-size="10.00">&lt; MemberFunction1Type &gt;</text>
</a>
</g>
</g>
<!-- Node6&#45;&gt;Node8 -->
<g id="edge7_Node000006_Node000008" class="edge">
<title>Node6&#45;&gt;Node8</title>
<g id="a_edge7_Node000006_Node000008"><a xlink:title=" ">
<path fill="none" stroke="orange" stroke-dasharray="5,2" d="M890.94,-167.53C935.53,-167.46 990.16,-168.38 1039,-172 1050.82,-172.88 1063.31,-174.2 1075.47,-175.7"/>
<polygon fill="orange" stroke="orange" points="890.7,-164.03 880.71,-167.56 890.72,-171.03 890.7,-164.03"/>
</a>
</g>
<text text-anchor="middle" x="969.5" y="-175" font-family="Helvetica,sans-Serif" font-size="10.00" fill="grey"> &lt; MemberFunction1Type &gt;</text>
</g>
<!-- Node9 -->
<g id="Node000009" class="node">
<title>Node9</title>
<g id="a_Node000009"><a xlink:href="classitk_1_1simple_1_1detail_1_1MemberFunctionFactory.html" target="_top" xlink:title=" ">
<polygon fill="white" stroke="#666666" points="1224.5,-293.5 1075.5,-293.5 1075.5,-252.5 1224.5,-252.5 1224.5,-293.5"/>
<text text-anchor="start" x="1083.5" y="-281.5" font-family="Helvetica,sans-Serif" font-size="10.00">itk::simple::detail</text>
<text text-anchor="start" x="1083.5" y="-270.5" font-family="Helvetica,sans-Serif" font-size="10.00">::MemberFunctionFactory</text>
<text text-anchor="middle" x="1150" y="-259.5" font-family="Helvetica,sans-Serif" font-size="10.00">&lt; MemberFunction2Type &gt;</text>
</a>
</g>
</g>
<!-- Node6&#45;&gt;Node9 -->
<g id="edge8_Node000006_Node000009" class="edge">
<title>Node6&#45;&gt;Node9</title>
<g id="a_edge8_Node000006_Node000009"><a xlink:title=" ">
<path fill="none" stroke="orange" stroke-dasharray="5,2" d="M879.63,-192.5C940.04,-210.55 1022.64,-235.24 1080.39,-252.5"/>
<polygon fill="orange" stroke="orange" points="880.34,-189.06 869.75,-189.55 878.33,-195.76 880.34,-189.06"/>
</a>
</g>
<text text-anchor="middle" x="969.5" y="-242" font-family="Helvetica,sans-Serif" font-size="10.00" fill="grey"> &lt; MemberFunction2Type &gt;</text>
</g>
<!-- Node10 -->
<g id="Node000010" class="node">
<title>Node10</title>
<g id="a_Node000010"><a xlink:href="classitk_1_1simple_1_1detail_1_1MemberFunctionFactory.html" target="_top" xlink:title=" ">
<polygon fill="white" stroke="#666666" points="1243,-65.5 1057,-65.5 1057,-24.5 1243,-24.5 1243,-65.5"/>
<text text-anchor="start" x="1065" y="-53.5" font-family="Helvetica,sans-Serif" font-size="10.00">itk::simple::detail</text>
<text text-anchor="start" x="1065" y="-42.5" font-family="Helvetica,sans-Serif" font-size="10.00">::MemberFunctionFactory</text>
<text text-anchor="middle" x="1150" y="-31.5" font-family="Helvetica,sans-Serif" font-size="10.00">&lt; EvaluateMemberFunctionType &gt;</text>
</a>
</g>
</g>
<!-- Node6&#45;&gt;Node10 -->
<g id="edge9_Node000006_Node000010" class="edge">
<title>Node6&#45;&gt;Node10</title>
<g id="a_edge9_Node000006_Node000010"><a xlink:title=" ">
<path fill="none" stroke="orange" stroke-dasharray="5,2" d="M838.55,-142.65C856.49,-131.02 878.67,-117.97 900,-109 950.09,-87.93 1008.86,-72.42 1056.71,-61.96"/>
<polygon fill="orange" stroke="orange" points="836.53,-139.79 830.11,-148.22 840.38,-145.64 836.53,-139.79"/>
</a>
</g>
<text text-anchor="start" x="900" y="-123" font-family="Helvetica,sans-Serif" font-size="10.00" fill="grey"> &lt; EvaluateMemberFunction</text>
<text text-anchor="middle" x="969.5" y="-112" font-family="Helvetica,sans-Serif" font-size="10.00" fill="grey">Type &gt;</text>
</g>
<!-- Node11&#45;&gt;Node7 -->
<g id="edge11_Node000011_Node000007" class="edge">
<title>Node11&#45;&gt;Node7</title>
<g id="a_edge11_Node000011_Node000007"><a xlink:title=" ">
<path fill="none" stroke="darkgreen" d="M710.05,-69.18C795.83,-58.9 927.48,-50.17 1039,-73 1064.13,-78.14 1090.61,-89.26 1111.29,-99.39"/>
<polygon fill="darkgreen" stroke="darkgreen" points="709.58,-65.72 700.08,-70.41 710.43,-72.66 709.58,-65.72"/>
</a>
</g>
</g>
<!-- Node12&#45;&gt;Node8 -->
<g id="edge13_Node000012_Node000008" class="edge">
<title>Node12&#45;&gt;Node8</title>
<g id="a_edge13_Node000012_Node000008"><a xlink:title=" ">
<path fill="none" stroke="darkgreen" d="M710.2,-231.88C795.64,-234.03 926.66,-233.54 1039,-217 1053.69,-214.84 1069.21,-211.37 1083.82,-207.54"/>
<polygon fill="darkgreen" stroke="darkgreen" points="710.1,-228.37 700.01,-231.6 709.91,-235.37 710.1,-228.37"/>
</a>
</g>
</g>
<!-- Node13&#45;&gt;Node9 -->
<g id="edge15_Node000013_Node000009" class="edge">
<title>Node13&#45;&gt;Node9</title>
<g id="a_edge15_Node000013_Node000009"><a xlink:title=" ">
<path fill="none" stroke="darkgreen" d="M892.27,-281.85C949.39,-279.88 1022.01,-277.38 1075.43,-275.54"/>
<polygon fill="darkgreen" stroke="darkgreen" points="892.02,-278.36 882.15,-282.2 892.27,-285.35 892.02,-278.36"/>
</a>
</g>
</g>
<!-- Node14&#45;&gt;Node4 -->
<g id="edge17_Node000014_Node000004" class="edge">
<title>Node14&#45;&gt;Node4</title>
<g id="a_edge17_Node000014_Node000004"><a xlink:title=" ">
<path fill="none" stroke="darkgreen" d="M710.26,-342.1C811.26,-345.53 972.48,-351 1068.8,-354.28"/>
<polygon fill="darkgreen" stroke="darkgreen" points="710.19,-338.59 700.07,-341.75 709.95,-345.59 710.19,-338.59"/>
</a>
</g>
</g>
<!-- Node15&#45;&gt;Node10 -->
<g id="edge19_Node000015_Node000010" class="edge">
<title>Node15&#45;&gt;Node10</title>
<g id="a_edge19_Node000015_Node000010"><a xlink:title=" ">
<path fill="none" stroke="darkgreen" d="M528.42,-28.6C667.88,-32.29 921.12,-38.98 1056.99,-42.57"/>
<polygon fill="darkgreen" stroke="darkgreen" points="528.25,-25.1 518.16,-28.33 528.07,-32.09 528.25,-25.1"/>
</a>
</g>
</g>
</g>
</svg>

<g id="navigator" transform="translate(0 0)" fill="#404254">
  <rect fill="#f2f5e9" fill-opacity="0.5" stroke="#606060" stroke-width=".5" x="0" y="0" width="60" height="60"/>
  <use id="zoomplus" xlink:href="#zoomPlus" x="17" y="9" onmousedown="handleZoom(evt,'in')"/>
  <use id="zoomminus" xlink:href="#zoomMin" x="42" y="9" onmousedown="handleZoom(evt,'out')"/>
  <use id="reset" xlink:href="#resetDef" x="30" y="36" onmousedown="handleReset()"/>
   <use id="arrowup" xlink:href="#arrowUp" x="0" y="0" onmousedown="handlePan(0,-1)"/>
  <use id="arrowright" xlink:href="#arrowRight" x="0" y="0" onmousedown="handlePan(1,0)"/>
  <use id="arrowdown" xlink:href="#arrowDown" x="0" y="0" onmousedown="handlePan(0,1)"/>
  <use id="arrowleft" xlink:href="#arrowLeft" x="0" y="0" onmousedown="handlePan(-1,0)"/>
</g>
<svg viewBox="0 0 15 15" width="100%" height="30px" preserveAspectRatio="xMaxYMin meet">
 <g id="arrow_out" transform="scale(0.3 0.3)">
  <a xlink:href="classitk_1_1simple_1_1detail_1_1MemberFunctionFactoryBase__inherit__graph_org.svg" target="_base">
   <rect id="button" ry="5" rx="5" y="6" x="6" height="38" width="38"
        fill="#f2f5e9" fill-opacity="0.5" stroke="#606060" stroke-width="1.0"/>
   <path id="arrow"
     d="M 11.500037,31.436501 C 11.940474,20.09759 22.043105,11.32322 32.158766,21.979434 L 37.068811,17.246167 C 37.068811,17.246167 37.088388,32 37.088388,32 L 22.160133,31.978069 C 22.160133,31.978069 26.997745,27.140456 26.997745,27.140456 C 18.528582,18.264221 13.291696,25.230495 11.500037,31.436501 z"
     style="fill:#404040;"/>
  </a>
 </g>
</svg>

<style type='text/css'>
<![CDATA[
[data-mouse-over-selected='false'] { opacity: 0.7; }
[data-mouse-over-selected='true']  { opacity: 1.0; }
]]>
</style>
<script type="application/ecmascript"><![CDATA[
document.addEventListener('DOMContentLoaded', (event) => {
  highlightEdges();
  highlightAdjacentNodes();
});
]]></script>
</svg>
