<?xml version="1.0" encoding="UTF-8" standalone="no"?>
<!DOCTYPE svg PUBLIC "-//W3C//DTD SVG 1.1//EN"
 "http://www.w3.org/Graphics/SVG/1.1/DTD/svg11.dtd">
<!-- Generated by graphviz version 2.43.0 (0)
 -->
<!-- Title: itk::simple::TransformixImageFilter::TransformixImageFilterImpl Pages: 1 -->
<svg width="2393pt" height="327pt"
 viewBox="0.00 0.00 2393.00 326.50" xmlns="http://www.w3.org/2000/svg" xmlns:xlink="http://www.w3.org/1999/xlink">
<g id="graph0" class="graph" transform="scale(1 1) rotate(0) translate(4 322.5)">
<title>itk::simple::TransformixImageFilter::TransformixImageFilterImpl</title>
<!-- Node1 -->
<g id="Node000001" class="node">
<title>Node1</title>
<g id="a_Node000001"><a xlink:title=" ">
<polygon fill="#999999" stroke="#666666" points="2385,-91.5 2218,-91.5 2218,-50.5 2385,-50.5 2385,-91.5"/>
<text text-anchor="start" x="2226" y="-79.5" font-family="Helvetica,sans-Serif" font-size="10.00">itk::simple::Transformix</text>
<text text-anchor="start" x="2226" y="-68.5" font-family="Helvetica,sans-Serif" font-size="10.00">ImageFilter::TransformixImage</text>
<text text-anchor="middle" x="2301.5" y="-57.5" font-family="Helvetica,sans-Serif" font-size="10.00">FilterImpl</text>
</a>
</g>
</g>
<!-- Node2 -->
<g id="Node000002" class="node">
<title>Node2</title>
<g id="a_Node000002"><a xlink:title=" ">
<polygon fill="white" stroke="#666666" points="2043,-147.5 1853,-147.5 1853,-106.5 2043,-106.5 2043,-147.5"/>
<text text-anchor="start" x="1861" y="-135.5" font-family="Helvetica,sans-Serif" font-size="10.00">std::unique_ptr&lt; itk</text>
<text text-anchor="start" x="1861" y="-124.5" font-family="Helvetica,sans-Serif" font-size="10.00">::simple::detail::MemberFunction</text>
<text text-anchor="middle" x="1948" y="-113.5" font-family="Helvetica,sans-Serif" font-size="10.00">Factory&lt; MemberFunctionType &gt; &gt;</text>
</a>
</g>
</g>
<!-- Node2&#45;&gt;Node1 -->
<g id="edge1_Node000001_Node000002" class="edge">
<title>Node2&#45;&gt;Node1</title>
<g id="a_edge1_Node000001_Node000002"><a xlink:title=" ">
<path fill="none" stroke="#9a32cd" stroke-dasharray="5,2" d="M2053.21,-123.44C2098.66,-120.46 2152.34,-115 2200,-105 2215.68,-101.71 2232.31,-96.73 2247.44,-91.59"/>
<polygon fill="#9a32cd" stroke="#9a32cd" points="2052.81,-119.96 2043.05,-124.08 2053.25,-126.95 2052.81,-119.96"/>
</a>
</g>
<text text-anchor="middle" x="2130.5" y="-125" font-family="Helvetica,sans-Serif" font-size="10.00" fill="grey"> m_MemberFactory</text>
</g>
<!-- Node3 -->
<g id="Node000003" class="node">
<title>Node3</title>
<g id="a_Node000003"><a xlink:href="classitk_1_1simple_1_1detail_1_1MemberFunctionFactory.html" target="_top" xlink:title=" ">
<polygon fill="white" stroke="#666666" points="1725,-216.5 1582,-216.5 1582,-175.5 1725,-175.5 1725,-216.5"/>
<text text-anchor="start" x="1590" y="-204.5" font-family="Helvetica,sans-Serif" font-size="10.00">itk::simple::detail</text>
<text text-anchor="start" x="1590" y="-193.5" font-family="Helvetica,sans-Serif" font-size="10.00">::MemberFunctionFactory</text>
<text text-anchor="middle" x="1653.5" y="-182.5" font-family="Helvetica,sans-Serif" font-size="10.00">&lt; MemberFunctionType &gt;</text>
</a>
</g>
</g>
<!-- Node3&#45;&gt;Node2 -->
<g id="edge2_Node000002_Node000003" class="edge">
<title>Node3&#45;&gt;Node2</title>
<g id="a_edge2_Node000002_Node000003"><a xlink:title=" ">
<path fill="none" stroke="#9a32cd" stroke-dasharray="5,2" d="M1735.48,-176.9C1774.13,-167.78 1820.44,-156.85 1859.86,-147.56"/>
<polygon fill="#9a32cd" stroke="#9a32cd" points="1734.24,-173.59 1725.31,-179.3 1735.84,-180.41 1734.24,-173.59"/>
</a>
</g>
<text text-anchor="middle" x="1793.5" y="-174" font-family="Helvetica,sans-Serif" font-size="10.00" fill="grey"> ptr</text>
</g>
<!-- Node4 -->
<g id="Node000004" class="node">
<title>Node4</title>
<g id="a_Node000004"><a xlink:href="classitk_1_1simple_1_1detail_1_1MemberFunctionFactoryBase.html" target="_top" xlink:title=" ">
<polygon fill="white" stroke="#666666" points="1196,-250 1032,-250 1032,-198 1196,-198 1196,-250"/>
<text text-anchor="start" x="1040" y="-238" font-family="Helvetica,sans-Serif" font-size="10.00">itk::simple::detail</text>
<text text-anchor="start" x="1040" y="-227" font-family="Helvetica,sans-Serif" font-size="10.00">::MemberFunctionFactoryBase</text>
<text text-anchor="start" x="1040" y="-216" font-family="Helvetica,sans-Serif" font-size="10.00">&lt; MemberFunctionType, std</text>
<text text-anchor="middle" x="1114" y="-205" font-family="Helvetica,sans-Serif" font-size="10.00">::pair&lt; unsigned int, int &gt; &gt;</text>
</a>
</g>
</g>
<!-- Node4&#45;&gt;Node3 -->
<g id="edge3_Node000003_Node000004" class="edge">
<title>Node4&#45;&gt;Node3</title>
<g id="a_edge3_Node000003_Node000004"><a xlink:title=" ">
<path fill="none" stroke="darkgreen" d="M1206.11,-219.25C1312.3,-213.72 1485.48,-204.7 1581.95,-199.68"/>
<polygon fill="darkgreen" stroke="darkgreen" points="1205.86,-215.76 1196.05,-219.78 1206.22,-222.75 1205.86,-215.76"/>
</a>
</g>
</g>
<!-- Node5 -->
<g id="Node000005" class="node">
<title>Node5</title>
<g id="a_Node000005"><a xlink:title=" ">
<polygon fill="white" stroke="#666666" points="852,-297.5 684,-297.5 684,-234.5 852,-234.5 852,-297.5"/>
<text text-anchor="start" x="692" y="-285.5" font-family="Helvetica,sans-Serif" font-size="10.00">std::unordered_map</text>
<text text-anchor="start" x="692" y="-274.5" font-family="Helvetica,sans-Serif" font-size="10.00">&lt; std::pair&lt; unsigned</text>
<text text-anchor="start" x="692" y="-263.5" font-family="Helvetica,sans-Serif" font-size="10.00"> int, int &gt;, FunctionObjectType,</text>
<text text-anchor="start" x="692" y="-252.5" font-family="Helvetica,sans-Serif" font-size="10.00"> hash&lt; std::pair&lt; unsigned int,</text>
<text text-anchor="middle" x="768" y="-241.5" font-family="Helvetica,sans-Serif" font-size="10.00"> int &gt; &gt; &gt;</text>
</a>
</g>
</g>
<!-- Node5&#45;&gt;Node4 -->
<g id="edge4_Node000004_Node000005" class="edge">
<title>Node5&#45;&gt;Node4</title>
<g id="a_edge4_Node000004_Node000005"><a xlink:title=" ">
<path fill="none" stroke="#9a32cd" stroke-dasharray="5,2" d="M862.06,-259.7C906.9,-256.11 961.37,-250.92 1010,-244 1017.12,-242.99 1024.5,-241.81 1031.88,-240.54"/>
<polygon fill="#9a32cd" stroke="#9a32cd" points="861.75,-256.22 852.06,-260.49 862.3,-263.2 861.75,-256.22"/>
</a>
</g>
<text text-anchor="middle" x="940" y="-261" font-family="Helvetica,sans-Serif" font-size="10.00" fill="grey"> m_PFunction</text>
</g>
<!-- Node6 -->
<g id="Node000006" class="node">
<title>Node6</title>
<g id="a_Node000006"><a xlink:title=" ">
<polygon fill="white" stroke="#666666" points="558.5,-305 446.5,-305 446.5,-275 558.5,-275 558.5,-305"/>
<text text-anchor="start" x="454.5" y="-293" font-family="Helvetica,sans-Serif" font-size="10.00">std::pair&lt; unsigned</text>
<text text-anchor="middle" x="502.5" y="-282" font-family="Helvetica,sans-Serif" font-size="10.00"> int, int &gt;</text>
</a>
</g>
</g>
<!-- Node6&#45;&gt;Node5 -->
<g id="edge5_Node000005_Node000006" class="edge">
<title>Node6&#45;&gt;Node5</title>
<g id="a_edge5_Node000005_Node000006"><a xlink:title=" ">
<path fill="none" stroke="#9a32cd" stroke-dasharray="5,2" d="M568.77,-284.05C603.53,-280.89 646.65,-276.96 683.79,-273.58"/>
<polygon fill="#9a32cd" stroke="#9a32cd" points="568.38,-280.58 558.74,-284.97 569.01,-287.55 568.38,-280.58"/>
</a>
</g>
<text text-anchor="middle" x="633" y="-283" font-family="Helvetica,sans-Serif" font-size="10.00" fill="grey"> keys</text>
</g>
<!-- Node7 -->
<g id="Node000007" class="node">
<title>Node7</title>
<g id="a_Node000007"><a xlink:title=" ">
<polygon fill="white" stroke="#666666" points="241.5,-299.5 132.5,-299.5 132.5,-280.5 241.5,-280.5 241.5,-299.5"/>
<text text-anchor="middle" x="187" y="-287.5" font-family="Helvetica,sans-Serif" font-size="10.00">std::pair&lt; T1, T2 &gt;</text>
</a>
</g>
</g>
<!-- Node7&#45;&gt;Node6 -->
<g id="edge6_Node000006_Node000007" class="edge">
<title>Node7&#45;&gt;Node6</title>
<g id="a_edge6_Node000006_Node000007"><a xlink:title=" ">
<path fill="none" stroke="orange" stroke-dasharray="5,2" d="M251.54,-290C308.73,-290 391.9,-290 446.34,-290"/>
<polygon fill="orange" stroke="orange" points="251.54,-286.5 241.54,-290 251.54,-293.5 251.54,-286.5"/>
</a>
</g>
<text text-anchor="middle" x="333.5" y="-293" font-family="Helvetica,sans-Serif" font-size="10.00" fill="grey"> &lt; unsigned int, int &gt;</text>
</g>
<!-- Node8 -->
<g id="Node000008" class="node">
<title>Node8</title>
<g id="a_Node000008"><a xlink:title=" ">
<polygon fill="white" stroke="#666666" points="29,-318.5 0,-318.5 0,-299.5 29,-299.5 29,-318.5"/>
<text text-anchor="middle" x="14.5" y="-306.5" font-family="Helvetica,sans-Serif" font-size="10.00">T1</text>
</a>
</g>
</g>
<!-- Node8&#45;&gt;Node7 -->
<g id="edge7_Node000007_Node000008" class="edge">
<title>Node8&#45;&gt;Node7</title>
<g id="a_edge7_Node000007_Node000008"><a xlink:title=" ">
<path fill="none" stroke="#9a32cd" stroke-dasharray="5,2" d="M39.11,-306.37C63.04,-303.7 100.91,-299.48 132.21,-295.99"/>
<polygon fill="#9a32cd" stroke="#9a32cd" points="38.72,-302.89 29.16,-307.48 39.49,-309.85 38.72,-302.89"/>
</a>
</g>
<text text-anchor="middle" x="79.5" y="-308" font-family="Helvetica,sans-Serif" font-size="10.00" fill="grey"> first_type</text>
</g>
<!-- Node9 -->
<g id="Node000009" class="node">
<title>Node9</title>
<g id="a_Node000009"><a xlink:title=" ">
<polygon fill="white" stroke="#666666" points="29,-281.5 0,-281.5 0,-262.5 29,-262.5 29,-281.5"/>
<text text-anchor="middle" x="14.5" y="-269.5" font-family="Helvetica,sans-Serif" font-size="10.00">T2</text>
</a>
</g>
</g>
<!-- Node9&#45;&gt;Node7 -->
<g id="edge8_Node000007_Node000009" class="edge">
<title>Node9&#45;&gt;Node7</title>
<g id="a_edge8_Node000007_Node000009"><a xlink:title=" ">
<path fill="none" stroke="#9a32cd" stroke-dasharray="5,2" d="M39.44,-272.03C59.02,-272.28 87.38,-273.18 112,-276 121.48,-277.09 131.57,-278.69 141.16,-280.43"/>
<polygon fill="#9a32cd" stroke="#9a32cd" points="39.32,-268.53 29.29,-271.94 39.26,-275.52 39.32,-268.53"/>
</a>
</g>
<text text-anchor="middle" x="79.5" y="-279" font-family="Helvetica,sans-Serif" font-size="10.00" fill="grey"> second_type</text>
</g>
<!-- Node10 -->
<g id="Node000010" class="node">
<title>Node10</title>
<g id="a_Node000010"><a xlink:title=" ">
<polygon fill="white" stroke="#666666" points="244,-175 130,-175 130,-145 244,-145 244,-175"/>
<text text-anchor="start" x="138" y="-163" font-family="Helvetica,sans-Serif" font-size="10.00">std::unordered_map</text>
<text text-anchor="middle" x="187" y="-152" font-family="Helvetica,sans-Serif" font-size="10.00">&lt; K, T &gt;</text>
</a>
</g>
</g>
<!-- Node10&#45;&gt;Node5 -->
<g id="edge9_Node000005_Node000010" class="edge">
<title>Node10&#45;&gt;Node5</title>
<g id="a_edge9_Node000005_Node000010"><a xlink:title=" ">
<path fill="none" stroke="orange" stroke-dasharray="5,2" d="M237.02,-178.17C245.28,-180.76 253.82,-183.17 262,-185 401.7,-216.31 441,-197.17 582,-222 615.49,-227.9 651.98,-236.17 683.63,-243.96"/>
<polygon fill="orange" stroke="orange" points="238.1,-174.84 227.5,-175.06 235.92,-181.49 238.1,-174.84"/>
</a>
</g>
<text text-anchor="start" x="423" y="-258" font-family="Helvetica,sans-Serif" font-size="10.00" fill="grey"> &lt; std::pair&lt; unsigned</text>
<text text-anchor="start" x="423" y="-247" font-family="Helvetica,sans-Serif" font-size="10.00" fill="grey"> int, int &gt;, FunctionObject</text>
<text text-anchor="start" x="423" y="-236" font-family="Helvetica,sans-Serif" font-size="10.00" fill="grey">Type, hash&lt; std::pair&lt; unsigned</text>
<text text-anchor="middle" x="502.5" y="-225" font-family="Helvetica,sans-Serif" font-size="10.00" fill="grey"> int, int &gt; &gt; &gt;</text>
</g>
<!-- Node14 -->
<g id="Node000014" class="node">
<title>Node14</title>
<g id="a_Node000014"><a xlink:title=" ">
<polygon fill="white" stroke="#666666" points="580.5,-176.5 424.5,-176.5 424.5,-135.5 580.5,-135.5 580.5,-176.5"/>
<text text-anchor="start" x="432.5" y="-164.5" font-family="Helvetica,sans-Serif" font-size="10.00">std::unordered_map</text>
<text text-anchor="start" x="432.5" y="-153.5" font-family="Helvetica,sans-Serif" font-size="10.00">&lt; TKey, FunctionObjectType,</text>
<text text-anchor="middle" x="502.5" y="-142.5" font-family="Helvetica,sans-Serif" font-size="10.00"> hash&lt; TKey &gt; &gt;</text>
</a>
</g>
</g>
<!-- Node10&#45;&gt;Node14 -->
<g id="edge14_Node000014_Node000010" class="edge">
<title>Node10&#45;&gt;Node14</title>
<g id="a_edge14_Node000014_Node000010"><a xlink:title=" ">
<path fill="none" stroke="orange" stroke-dasharray="5,2" d="M254.06,-159.16C303.83,-158.52 372.19,-157.65 424.45,-156.98"/>
<polygon fill="orange" stroke="orange" points="254,-155.66 244.05,-159.28 254.09,-162.66 254,-155.66"/>
</a>
</g>
<text text-anchor="start" x="262" y="-173" font-family="Helvetica,sans-Serif" font-size="10.00" fill="grey"> &lt; TKey, FunctionObjectType,</text>
<text text-anchor="middle" x="333.5" y="-162" font-family="Helvetica,sans-Serif" font-size="10.00" fill="grey"> hash&lt; TKey &gt; &gt;</text>
</g>
<!-- Node11 -->
<g id="Node000011" class="node">
<title>Node11</title>
<g id="a_Node000011"><a xlink:title=" ">
<polygon fill="white" stroke="#666666" points="29,-175.5 0,-175.5 0,-156.5 29,-156.5 29,-175.5"/>
<text text-anchor="middle" x="14.5" y="-163.5" font-family="Helvetica,sans-Serif" font-size="10.00">K</text>
</a>
</g>
</g>
<!-- Node11&#45;&gt;Node10 -->
<g id="edge10_Node000010_Node000011" class="edge">
<title>Node11&#45;&gt;Node10</title>
<g id="a_edge10_Node000010_Node000011"><a xlink:title=" ">
<path fill="none" stroke="#9a32cd" stroke-dasharray="5,2" d="M39.19,-165.17C62.54,-164.34 99.09,-163.06 129.87,-161.98"/>
<polygon fill="#9a32cd" stroke="#9a32cd" points="39.04,-161.67 29.16,-165.52 39.28,-168.67 39.04,-161.67"/>
</a>
</g>
<text text-anchor="middle" x="79.5" y="-167" font-family="Helvetica,sans-Serif" font-size="10.00" fill="grey"> keys</text>
</g>
<!-- Node12 -->
<g id="Node000012" class="node">
<title>Node12</title>
<g id="a_Node000012"><a xlink:title=" ">
<polygon fill="white" stroke="#666666" points="29,-123.5 0,-123.5 0,-104.5 29,-104.5 29,-123.5"/>
<text text-anchor="middle" x="14.5" y="-111.5" font-family="Helvetica,sans-Serif" font-size="10.00">T</text>
</a>
</g>
</g>
<!-- Node12&#45;&gt;Node10 -->
<g id="edge11_Node000010_Node000012" class="edge">
<title>Node12&#45;&gt;Node10</title>
<g id="a_edge11_Node000010_Node000012"><a xlink:title=" ">
<path fill="none" stroke="#9a32cd" stroke-dasharray="5,2" d="M38.91,-120.32C62.35,-126.64 99.27,-136.6 130.27,-144.96"/>
<polygon fill="#9a32cd" stroke="#9a32cd" points="39.73,-116.91 29.16,-117.69 37.91,-123.67 39.73,-116.91"/>
</a>
</g>
<text text-anchor="middle" x="79.5" y="-142" font-family="Helvetica,sans-Serif" font-size="10.00" fill="grey"> elements</text>
</g>
<!-- Node17 -->
<g id="Node000017" class="node">
<title>Node17</title>
<g id="a_Node000017"><a xlink:title=" ">
<polygon fill="white" stroke="#666666" points="1377.5,-108.5 1259.5,-108.5 1259.5,-89.5 1377.5,-89.5 1377.5,-108.5"/>
<text text-anchor="middle" x="1318.5" y="-96.5" font-family="Helvetica,sans-Serif" font-size="10.00">std::unique_ptr&lt; T &gt;</text>
</a>
</g>
</g>
<!-- Node12&#45;&gt;Node17 -->
<g id="edge19_Node000017_Node000012" class="edge">
<title>Node12&#45;&gt;Node17</title>
<g id="a_edge19_Node000017_Node000012"><a xlink:title=" ">
<path fill="none" stroke="#9a32cd" stroke-dasharray="5,2" d="M39.17,-110.6C72.04,-106.17 133.41,-99 186,-99 186,-99 186,-99 1115,-99 1163.69,-99 1218.97,-99 1259.45,-99"/>
<polygon fill="#9a32cd" stroke="#9a32cd" points="38.59,-107.14 29.17,-111.98 39.55,-114.08 38.59,-107.14"/>
</a>
</g>
<text text-anchor="middle" x="633" y="-102" font-family="Helvetica,sans-Serif" font-size="10.00" fill="grey"> ptr</text>
</g>
<!-- Node13 -->
<g id="Node000013" class="node">
<title>Node13</title>
<g id="a_Node000013"><a xlink:href="classitk_1_1simple_1_1detail_1_1MemberFunctionFactoryBase.html" target="_top" xlink:title=" ">
<polygon fill="white" stroke="#666666" points="850,-182 686,-182 686,-130 850,-130 850,-182"/>
<text text-anchor="start" x="694" y="-170" font-family="Helvetica,sans-Serif" font-size="10.00">itk::simple::detail</text>
<text text-anchor="start" x="694" y="-159" font-family="Helvetica,sans-Serif" font-size="10.00">::MemberFunctionFactoryBase</text>
<text text-anchor="start" x="694" y="-148" font-family="Helvetica,sans-Serif" font-size="10.00">&lt; TMemberFunctionPointer,</text>
<text text-anchor="middle" x="768" y="-137" font-family="Helvetica,sans-Serif" font-size="10.00"> TKey &gt;</text>
</a>
</g>
</g>
<!-- Node13&#45;&gt;Node4 -->
<g id="edge12_Node000004_Node000013" class="edge">
<title>Node13&#45;&gt;Node4</title>
<g id="a_edge12_Node000004_Node000013"><a xlink:title=" ">
<path fill="none" stroke="orange" stroke-dasharray="5,2" d="M856.58,-184.74C861.1,-185.92 865.59,-187.01 870,-188 931.27,-201.76 947.91,-197.66 1010,-207 1017.08,-208.06 1024.43,-209.21 1031.79,-210.37"/>
<polygon fill="orange" stroke="orange" points="857.22,-181.29 846.66,-182.07 855.4,-188.05 857.22,-181.29"/>
</a>
</g>
<text text-anchor="start" x="879" y="-232" font-family="Helvetica,sans-Serif" font-size="10.00" fill="grey"> &lt; MemberFunctionType,</text>
<text text-anchor="start" x="879" y="-221" font-family="Helvetica,sans-Serif" font-size="10.00" fill="grey"> std::pair&lt; unsigned</text>
<text text-anchor="middle" x="940" y="-210" font-family="Helvetica,sans-Serif" font-size="10.00" fill="grey"> int, int &gt; &gt;</text>
</g>
<!-- Node16 -->
<g id="Node000016" class="node">
<title>Node16</title>
<g id="a_Node000016"><a xlink:href="classitk_1_1simple_1_1detail_1_1MemberFunctionFactoryBase.html" target="_top" xlink:title=" ">
<polygon fill="white" stroke="#666666" points="1200,-180 1028,-180 1028,-128 1200,-128 1200,-180"/>
<text text-anchor="start" x="1036" y="-168" font-family="Helvetica,sans-Serif" font-size="10.00">itk::simple::detail</text>
<text text-anchor="start" x="1036" y="-157" font-family="Helvetica,sans-Serif" font-size="10.00">::MemberFunctionFactoryBase</text>
<text text-anchor="start" x="1036" y="-146" font-family="Helvetica,sans-Serif" font-size="10.00">&lt; TMemberFunctionPointer,</text>
<text text-anchor="middle" x="1114" y="-135" font-family="Helvetica,sans-Serif" font-size="10.00"> std::pair&lt; unsigned int, int &gt; &gt;</text>
</a>
</g>
</g>
<!-- Node13&#45;&gt;Node16 -->
<g id="edge17_Node000016_Node000013" class="edge">
<title>Node13&#45;&gt;Node16</title>
<g id="a_edge17_Node000016_Node000013"><a xlink:title=" ">
<path fill="none" stroke="orange" stroke-dasharray="5,2" d="M860.12,-155.07C863.45,-155.05 866.76,-155.02 870,-155 922.42,-154.63 981.2,-154.39 1027.81,-154.23"/>
<polygon fill="orange" stroke="orange" points="860.01,-151.57 850.04,-155.16 860.06,-158.57 860.01,-151.57"/>
</a>
</g>
<text text-anchor="start" x="870" y="-180" font-family="Helvetica,sans-Serif" font-size="10.00" fill="grey"> &lt; TMemberFunctionPointer,</text>
<text text-anchor="start" x="870" y="-169" font-family="Helvetica,sans-Serif" font-size="10.00" fill="grey"> std::pair&lt; unsigned int,</text>
<text text-anchor="middle" x="940" y="-158" font-family="Helvetica,sans-Serif" font-size="10.00" fill="grey"> int &gt; &gt;</text>
</g>
<!-- Node14&#45;&gt;Node13 -->
<g id="edge13_Node000013_Node000014" class="edge">
<title>Node14&#45;&gt;Node13</title>
<g id="a_edge13_Node000013_Node000014"><a xlink:title=" ">
<path fill="none" stroke="#9a32cd" stroke-dasharray="5,2" d="M590.98,-156C621.49,-156 655.59,-156 685.6,-156"/>
<polygon fill="#9a32cd" stroke="#9a32cd" points="590.78,-152.5 580.78,-156 590.78,-159.5 590.78,-152.5"/>
</a>
</g>
<text text-anchor="middle" x="633" y="-159" font-family="Helvetica,sans-Serif" font-size="10.00" fill="grey"> m_PFunction</text>
</g>
<!-- Node15 -->
<g id="Node000015" class="node">
<title>Node15</title>
<g id="a_Node000015"><a xlink:href="classitk_1_1simple_1_1detail_1_1MemberFunctionFactory.html" target="_top" xlink:title="A class used to instantiate and generate function object to templated member functions.">
<polygon fill="white" stroke="#666666" points="1399,-182.5 1238,-182.5 1238,-141.5 1399,-141.5 1399,-182.5"/>
<text text-anchor="start" x="1246" y="-170.5" font-family="Helvetica,sans-Serif" font-size="10.00">itk::simple::detail</text>
<text text-anchor="start" x="1246" y="-159.5" font-family="Helvetica,sans-Serif" font-size="10.00">::MemberFunctionFactory</text>
<text text-anchor="middle" x="1318.5" y="-148.5" font-family="Helvetica,sans-Serif" font-size="10.00">&lt; TMemberFunctionPointer &gt;</text>
</a>
</g>
</g>
<!-- Node15&#45;&gt;Node3 -->
<g id="edge15_Node000003_Node000015" class="edge">
<title>Node15&#45;&gt;Node3</title>
<g id="a_edge15_Node000003_Node000015"><a xlink:title=" ">
<path fill="none" stroke="orange" stroke-dasharray="5,2" d="M1409.21,-171.16C1463.42,-176.69 1531.52,-183.65 1581.87,-188.79"/>
<polygon fill="orange" stroke="orange" points="1409.57,-167.68 1399.26,-170.14 1408.85,-174.64 1409.57,-167.68"/>
</a>
</g>
<text text-anchor="middle" x="1486.5" y="-188" font-family="Helvetica,sans-Serif" font-size="10.00" fill="grey"> &lt; MemberFunctionType &gt;</text>
</g>
<!-- Node16&#45;&gt;Node15 -->
<g id="edge16_Node000015_Node000016" class="edge">
<title>Node16&#45;&gt;Node15</title>
<g id="a_edge16_Node000015_Node000016"><a xlink:title=" ">
<path fill="none" stroke="darkgreen" d="M1210.55,-157.77C1219.67,-158.13 1228.85,-158.5 1237.79,-158.85"/>
<polygon fill="darkgreen" stroke="darkgreen" points="1210.42,-154.27 1200.29,-157.37 1210.15,-161.26 1210.42,-154.27"/>
</a>
</g>
</g>
<!-- Node17&#45;&gt;Node2 -->
<g id="edge18_Node000002_Node000017" class="edge">
<title>Node17&#45;&gt;Node2</title>
<g id="a_edge18_Node000002_Node000017"><a xlink:title=" ">
<path fill="none" stroke="orange" stroke-dasharray="5,2" d="M1387.59,-107.31C1397.77,-108.35 1408.15,-109.29 1418,-110 1569.91,-120.91 1746.87,-124.82 1852.76,-126.22"/>
<polygon fill="orange" stroke="orange" points="1387.82,-103.82 1377.5,-106.25 1387.08,-110.78 1387.82,-103.82"/>
</a>
</g>
<text text-anchor="start" x="1584" y="-148" font-family="Helvetica,sans-Serif" font-size="10.00" fill="grey"> &lt; itk::simple::detail</text>
<text text-anchor="start" x="1584" y="-137" font-family="Helvetica,sans-Serif" font-size="10.00" fill="grey">::MemberFunctionFactory</text>
<text text-anchor="middle" x="1653.5" y="-126" font-family="Helvetica,sans-Serif" font-size="10.00" fill="grey">&lt; MemberFunctionType &gt; &gt;</text>
</g>
<!-- Node19 -->
<g id="Node000019" class="node">
<title>Node19</title>
<g id="a_Node000019"><a xlink:title=" ">
<polygon fill="white" stroke="#666666" points="1734,-86 1573,-86 1573,-56 1734,-56 1734,-86"/>
<text text-anchor="start" x="1581" y="-74" font-family="Helvetica,sans-Serif" font-size="10.00">std::unique_ptr&lt; itk</text>
<text text-anchor="middle" x="1653.5" y="-63" font-family="Helvetica,sans-Serif" font-size="10.00">::simple::PimpleImageBase &gt;</text>
</a>
</g>
</g>
<!-- Node17&#45;&gt;Node19 -->
<g id="edge23_Node000019_Node000017" class="edge">
<title>Node17&#45;&gt;Node19</title>
<g id="a_edge23_Node000019_Node000017"><a xlink:title=" ">
<path fill="none" stroke="orange" stroke-dasharray="5,2" d="M1387.62,-91.04C1397.8,-89.96 1408.17,-88.9 1418,-88 1469.52,-83.26 1527.51,-79.04 1572.93,-76"/>
<polygon fill="orange" stroke="orange" points="1387.1,-87.58 1377.54,-92.14 1387.86,-94.54 1387.1,-87.58"/>
</a>
</g>
<text text-anchor="start" x="1418" y="-102" font-family="Helvetica,sans-Serif" font-size="10.00" fill="grey"> &lt; itk::simple::PimpleImage</text>
<text text-anchor="middle" x="1486.5" y="-91" font-family="Helvetica,sans-Serif" font-size="10.00" fill="grey">Base &gt;</text>
</g>
<!-- Node18 -->
<g id="Node000018" class="node">
<title>Node18</title>
<g id="a_Node000018"><a xlink:href="classitk_1_1simple_1_1Image.html" target="_top" xlink:title="The Image class for SimpleITK.">
<polygon fill="white" stroke="#666666" points="2000.5,-80.5 1895.5,-80.5 1895.5,-61.5 2000.5,-61.5 2000.5,-80.5"/>
<text text-anchor="middle" x="1948" y="-68.5" font-family="Helvetica,sans-Serif" font-size="10.00">itk::simple::Image</text>
</a>
</g>
</g>
<!-- Node18&#45;&gt;Node1 -->
<g id="edge20_Node000001_Node000018" class="edge">
<title>Node18&#45;&gt;Node1</title>
<g id="a_edge20_Node000001_Node000018"><a xlink:title=" ">
<path fill="none" stroke="#9a32cd" stroke-dasharray="5,2" d="M2010.9,-71C2068.37,-71 2154.36,-71 2217.72,-71"/>
<polygon fill="#9a32cd" stroke="#9a32cd" points="2010.87,-67.5 2000.87,-71 2010.87,-74.5 2010.87,-67.5"/>
</a>
</g>
<text text-anchor="middle" x="2130.5" y="-96" font-family="Helvetica,sans-Serif" font-size="10.00" fill="grey"> m_DeformationField</text>
<text text-anchor="middle" x="2130.5" y="-85" font-family="Helvetica,sans-Serif" font-size="10.00" fill="grey">m_MovingImage</text>
<text text-anchor="middle" x="2130.5" y="-74" font-family="Helvetica,sans-Serif" font-size="10.00" fill="grey">m_ResultImage</text>
</g>
<!-- Node19&#45;&gt;Node18 -->
<g id="edge21_Node000018_Node000019" class="edge">
<title>Node19&#45;&gt;Node18</title>
<g id="a_edge21_Node000018_Node000019"><a xlink:title=" ">
<path fill="none" stroke="#9a32cd" stroke-dasharray="5,2" d="M1744.12,-71C1793.62,-71 1853.35,-71 1895.14,-71"/>
<polygon fill="#9a32cd" stroke="#9a32cd" points="1744.04,-67.5 1734.04,-71 1744.04,-74.5 1744.04,-67.5"/>
</a>
</g>
<text text-anchor="middle" x="1793.5" y="-74" font-family="Helvetica,sans-Serif" font-size="10.00" fill="grey"> m_PimpleImage</text>
</g>
<!-- Node20 -->
<g id="Node000020" class="node">
<title>Node20</title>
<g id="a_Node000020"><a xlink:href="classitk_1_1simple_1_1PimpleImageBase.html" target="_top" xlink:title="Private implementation idiom image base class.">
<polygon fill="white" stroke="#666666" points="1400,-62.5 1237,-62.5 1237,-43.5 1400,-43.5 1400,-62.5"/>
<text text-anchor="middle" x="1318.5" y="-50.5" font-family="Helvetica,sans-Serif" font-size="10.00">itk::simple::PimpleImageBase</text>
</a>
</g>
</g>
<!-- Node20&#45;&gt;Node19 -->
<g id="edge22_Node000019_Node000020" class="edge">
<title>Node20&#45;&gt;Node19</title>
<g id="a_edge22_Node000019_Node000020"><a xlink:title=" ">
<path fill="none" stroke="#9a32cd" stroke-dasharray="5,2" d="M1410.11,-49.83C1453.95,-49.2 1507.3,-49.77 1555,-54 1560.82,-54.52 1566.81,-55.19 1572.83,-55.98"/>
<polygon fill="#9a32cd" stroke="#9a32cd" points="1409.98,-46.33 1400.04,-50 1410.1,-53.33 1409.98,-46.33"/>
</a>
</g>
<text text-anchor="middle" x="1486.5" y="-57" font-family="Helvetica,sans-Serif" font-size="10.00" fill="grey"> ptr</text>
</g>
<!-- Node21 -->
<g id="Node000021" class="node">
<title>Node21</title>
<g id="a_Node000021"><a xlink:title=" ">
<polygon fill="white" stroke="#666666" points="1980.5,-24.5 1915.5,-24.5 1915.5,-5.5 1980.5,-5.5 1980.5,-24.5"/>
<text text-anchor="middle" x="1948" y="-12.5" font-family="Helvetica,sans-Serif" font-size="10.00">std::string</text>
</a>
</g>
</g>
<!-- Node21&#45;&gt;Node1 -->
<g id="edge24_Node000001_Node000021" class="edge">
<title>Node21&#45;&gt;Node1</title>
<g id="a_edge24_Node000001_Node000021"><a xlink:title=" ">
<path fill="none" stroke="#9a32cd" stroke-dasharray="5,2" d="M1990.86,-14.65C2041.1,-15.03 2127.64,-18.26 2200,-34 2217.71,-37.85 2236.51,-44.14 2253,-50.44"/>
<polygon fill="#9a32cd" stroke="#9a32cd" points="1990.72,-11.15 1980.71,-14.61 1990.69,-18.15 1990.72,-11.15"/>
</a>
</g>
<text text-anchor="middle" x="2130.5" y="-59" font-family="Helvetica,sans-Serif" font-size="10.00" fill="grey"> m_LogFileName</text>
<text text-anchor="middle" x="2130.5" y="-48" font-family="Helvetica,sans-Serif" font-size="10.00" fill="grey">m_MovingPointSetFileName</text>
<text text-anchor="middle" x="2130.5" y="-37" font-family="Helvetica,sans-Serif" font-size="10.00" fill="grey">m_OutputDirectory</text>
</g>
<!-- Node22 -->
<g id="Node000022" class="node">
<title>Node22</title>
<g id="a_Node000022"><a xlink:title=" ">
<polygon fill="white" stroke="#666666" points="1705.5,-30 1601.5,-30 1601.5,0 1705.5,0 1705.5,-30"/>
<text text-anchor="start" x="1609.5" y="-18" font-family="Helvetica,sans-Serif" font-size="10.00">std::basic_string&lt;</text>
<text text-anchor="middle" x="1653.5" y="-7" font-family="Helvetica,sans-Serif" font-size="10.00"> Char &gt;</text>
</a>
</g>
</g>
<!-- Node22&#45;&gt;Node21 -->
<g id="edge25_Node000021_Node000022" class="edge">
<title>Node22&#45;&gt;Node21</title>
<g id="a_edge25_Node000021_Node000022"><a xlink:title=" ">
<path fill="none" stroke="#63b8ff" d="M1716.03,-15C1776.88,-15 1867.6,-15 1915.21,-15"/>
<polygon fill="#63b8ff" stroke="#63b8ff" points="1715.78,-11.5 1705.78,-15 1715.78,-18.5 1715.78,-11.5"/>
</a>
</g>
</g>
</g>
</svg>
