<?xml version="1.0" encoding="UTF-8" standalone="no"?>
<!DOCTYPE svg PUBLIC "-//W3C//DTD SVG 1.1//EN"
 "http://www.w3.org/Graphics/SVG/1.1/DTD/svg11.dtd">
<!-- Generated by graphviz version 2.43.0 (0)
 -->
<!-- Title: itk::simple::VersorRigid3DTransform Pages: 1 -->
<svg width="233pt" height="303pt"
 viewBox="0.00 0.00 232.50 303.00" xmlns="http://www.w3.org/2000/svg" xmlns:xlink="http://www.w3.org/1999/xlink">

<svg id="main" version="1.1" xmlns="http://www.w3.org/2000/svg" xmlns:xlink="http://www.w3.org/1999/xlink" xml:space="preserve">

<style type="text/css"><![CDATA[
.node, .edge {opacity: 0.7;}
.node.selected, .edge.selected {opacity: 1;}
.edge:hover path { stroke: red; }
.edge:hover polygon { stroke: red; fill: red; }
]]></style>
<script type="application/ecmascript" xlink:href="svg.min.js"/>
<svg id="graph" class="graph">
<g id="graph0" class="graph" transform="scale(1 1) rotate(0) translate(4 299)">
<title>itk::simple::VersorRigid3DTransform</title>
<!-- Node1 -->
<g id="Node000001" class="node">
<title>Node1</title>
<g id="a_Node000001"><a xlink:title="A rotation as a versor around a fixed center with translation of a 3D coordinate space.">
<polygon fill="#999999" stroke="#666666" points="159.5,-30 23.5,-30 23.5,0 159.5,0 159.5,-30"/>
<text text-anchor="start" x="31.5" y="-18" font-family="Helvetica,sans-Serif" font-size="10.00">itk::simple::VersorRigid3</text>
<text text-anchor="middle" x="91.5" y="-7" font-family="Helvetica,sans-Serif" font-size="10.00">DTransform</text>
</a>
</g>
</g>
<!-- Node2 -->
<g id="Node000002" class="node">
<title>Node2</title>
<g id="a_Node000002"><a xlink:href="classitk_1_1simple_1_1Transform.html" target="_top" xlink:title="A simplified wrapper around a variety of ITK transforms.">
<polygon fill="white" stroke="#666666" points="153,-86 30,-86 30,-67 153,-67 153,-86"/>
<text text-anchor="middle" x="91.5" y="-74" font-family="Helvetica,sans-Serif" font-size="10.00">itk::simple::Transform</text>
</a>
</g>
</g>
<!-- Node2&#45;&gt;Node1 -->
<g id="edge1_Node000001_Node000002" class="edge">
<title>Node2&#45;&gt;Node1</title>
<g id="a_edge1_Node000001_Node000002"><a xlink:title=" ">
<path fill="none" stroke="#63b8ff" d="M91.5,-56.73C91.5,-48.09 91.5,-38 91.5,-30.02"/>
<polygon fill="#63b8ff" stroke="#63b8ff" points="88,-56.98 91.5,-66.98 95,-56.98 88,-56.98"/>
</a>
</g>
</g>
<!-- Node3 -->
<g id="Node000003" class="node">
<title>Node3</title>
<g id="a_Node000003"><a xlink:title=" ">
<polygon fill="white" stroke="#666666" points="183,-163 0,-163 0,-133 183,-133 183,-163"/>
<text text-anchor="start" x="8" y="-151" font-family="Helvetica,sans-Serif" font-size="10.00">std::unique_ptr&lt; PimpleTransform</text>
<text text-anchor="middle" x="91.5" y="-140" font-family="Helvetica,sans-Serif" font-size="10.00">Base &gt;</text>
</a>
</g>
</g>
<!-- Node3&#45;&gt;Node2 -->
<g id="edge2_Node000002_Node000003" class="edge">
<title>Node3&#45;&gt;Node2</title>
<g id="a_edge2_Node000002_Node000003"><a xlink:title=" ">
<path fill="none" stroke="#9a32cd" stroke-dasharray="5,2" d="M91.5,-122.56C91.5,-109.95 91.5,-95.35 91.5,-86.27"/>
<polygon fill="#9a32cd" stroke="#9a32cd" points="88,-122.94 91.5,-132.94 95,-122.94 88,-122.94"/>
</a>
</g>
<text text-anchor="middle" x="142" y="-107" font-family="Helvetica,sans-Serif" font-size="10.00" fill="grey"> m_PimpleTransform</text>
</g>
<!-- Node4 -->
<g id="Node000004" class="node">
<title>Node4</title>
<g id="a_Node000004"><a xlink:title=" ">
<polygon fill="white" stroke="#666666" points="150.5,-229 32.5,-229 32.5,-210 150.5,-210 150.5,-229"/>
<text text-anchor="middle" x="91.5" y="-217" font-family="Helvetica,sans-Serif" font-size="10.00">std::unique_ptr&lt; T &gt;</text>
</a>
</g>
</g>
<!-- Node4&#45;&gt;Node3 -->
<g id="edge3_Node000003_Node000004" class="edge">
<title>Node4&#45;&gt;Node3</title>
<g id="a_edge3_Node000003_Node000004"><a xlink:title=" ">
<path fill="none" stroke="orange" stroke-dasharray="5,2" d="M91.5,-199.71C91.5,-188.19 91.5,-173.68 91.5,-163.14"/>
<polygon fill="orange" stroke="orange" points="88,-199.98 91.5,-209.98 95,-199.98 88,-199.98"/>
</a>
</g>
<text text-anchor="middle" x="158" y="-184" font-family="Helvetica,sans-Serif" font-size="10.00" fill="grey"> &lt; PimpleTransformBase &gt;</text>
</g>
<!-- Node5 -->
<g id="Node000005" class="node">
<title>Node5</title>
<g id="a_Node000005"><a xlink:title=" ">
<polygon fill="white" stroke="#666666" points="106,-295 77,-295 77,-276 106,-276 106,-295"/>
<text text-anchor="middle" x="91.5" y="-283" font-family="Helvetica,sans-Serif" font-size="10.00">T</text>
</a>
</g>
</g>
<!-- Node5&#45;&gt;Node4 -->
<g id="edge4_Node000004_Node000005" class="edge">
<title>Node5&#45;&gt;Node4</title>
<g id="a_edge4_Node000004_Node000005"><a xlink:title=" ">
<path fill="none" stroke="#9a32cd" stroke-dasharray="5,2" d="M91.5,-265.58C91.5,-253.63 91.5,-238.72 91.5,-229.41"/>
<polygon fill="#9a32cd" stroke="#9a32cd" points="88,-265.87 91.5,-275.87 95,-265.87 88,-265.87"/>
</a>
</g>
<text text-anchor="middle" x="100" y="-250" font-family="Helvetica,sans-Serif" font-size="10.00" fill="grey"> ptr</text>
</g>
</g>
</svg>
</svg>

<style type='text/css'>
<![CDATA[
[data-mouse-over-selected='false'] { opacity: 0.7; }
[data-mouse-over-selected='true']  { opacity: 1.0; }
]]>
</style>
<script type="application/ecmascript"><![CDATA[
document.addEventListener('DOMContentLoaded', (event) => {
  highlightEdges();
  highlightAdjacentNodes();
});
]]></script>
</svg>
