<?xml version="1.0" encoding="UTF-8" standalone="no"?>
<!DOCTYPE svg PUBLIC "-//W3C//DTD SVG 1.1//EN"
 "http://www.w3.org/Graphics/SVG/1.1/DTD/svg11.dtd">
<!-- Generated by graphviz version 2.43.0 (0)
 -->
<!-- Title: itk::HolderCommand&lt; T * &gt; Pages: 1 -->
<svg width="250pt" height="272pt"
 viewBox="0.00 0.00 250.00 272.00" xmlns="http://www.w3.org/2000/svg" xmlns:xlink="http://www.w3.org/1999/xlink">
<g id="graph0" class="graph" transform="scale(1 1) rotate(0) translate(4 268)">
<title>itk::HolderCommand&lt; T * &gt;</title>
<!-- Node1 -->
<g id="Node000001" class="node">
<title>Node1</title>
<g id="a_Node000001"><a xlink:title=" ">
<polygon fill="#999999" stroke="#666666" points="118,-30 0,-30 0,0 118,0 118,-30"/>
<text text-anchor="start" x="8" y="-18" font-family="Helvetica,sans-Serif" font-size="10.00">itk::HolderCommand</text>
<text text-anchor="middle" x="59" y="-7" font-family="Helvetica,sans-Serif" font-size="10.00">&lt; T * &gt;</text>
</a>
</g>
</g>
<!-- Node2 -->
<g id="Node000002" class="node">
<title>Node2</title>
<g id="a_Node000002"><a target="_parent" xlink:href="https://www.itk.org/Doxygen/html/classitk_1_1Command.html" xlink:title=" ">
<polygon fill="white" stroke="#666666" points="102,-152 16,-152 16,-133 102,-133 102,-152"/>
<text text-anchor="middle" x="59" y="-140" font-family="Helvetica,sans-Serif" font-size="10.00">itk::Command</text>
</a>
</g>
</g>
<!-- Node2&#45;&gt;Node1 -->
<g id="edge1_Node000001_Node000002" class="edge">
<title>Node2&#45;&gt;Node1</title>
<g id="a_edge1_Node000001_Node000002"><a xlink:title=" ">
<path fill="none" stroke="#63b8ff" d="M54.02,-122.76C51.5,-97.48 51.67,-53.02 54.52,-30.27"/>
<polygon fill="#63b8ff" stroke="#63b8ff" points="50.58,-123.42 55.37,-132.87 57.52,-122.5 50.58,-123.42"/>
</a>
</g>
</g>
<!-- Node2&#45;&gt;Node1 -->
<g id="edge4_Node000001_Node000002" class="edge">
<title>Node2&#45;&gt;Node1</title>
<g id="a_edge4_Node000001_Node000002"><a xlink:title=" ">
<path fill="none" stroke="#63b8ff" d="M63.98,-122.76C66.5,-97.48 66.33,-53.02 63.48,-30.27"/>
<polygon fill="#63b8ff" stroke="#63b8ff" points="60.48,-122.5 62.63,-132.87 67.42,-123.42 60.48,-122.5"/>
</a>
</g>
</g>
<!-- Node5 -->
<g id="Node000005" class="node">
<title>Node5</title>
<g id="a_Node000005"><a xlink:href="classitk_1_1HolderCommand.html" target="_top" xlink:title="An ITK Command class to hold a object until destruction.">
<polygon fill="white" stroke="#666666" points="242,-96 96,-96 96,-77 242,-77 242,-96"/>
<text text-anchor="middle" x="169" y="-84" font-family="Helvetica,sans-Serif" font-size="10.00">itk::HolderCommand&lt; T &gt;</text>
</a>
</g>
</g>
<!-- Node2&#45;&gt;Node5 -->
<g id="edge6_Node000005_Node000002" class="edge">
<title>Node2&#45;&gt;Node5</title>
<g id="a_edge6_Node000005_Node000002"><a xlink:title=" ">
<path fill="none" stroke="#63b8ff" d="M85.76,-128.36C106.16,-118.35 133.67,-104.85 151.37,-96.15"/>
<polygon fill="#63b8ff" stroke="#63b8ff" points="84.11,-125.28 76.67,-132.82 87.19,-131.56 84.11,-125.28"/>
</a>
</g>
</g>
<!-- Node3 -->
<g id="Node000003" class="node">
<title>Node3</title>
<g id="a_Node000003"><a target="_parent" xlink:href="https://www.itk.org/Doxygen/html/classitk_1_1Object.html" xlink:title=" ">
<polygon fill="white" stroke="#666666" points="92.5,-208 25.5,-208 25.5,-189 92.5,-189 92.5,-208"/>
<text text-anchor="middle" x="59" y="-196" font-family="Helvetica,sans-Serif" font-size="10.00">itk::Object</text>
</a>
</g>
</g>
<!-- Node3&#45;&gt;Node2 -->
<g id="edge2_Node000002_Node000003" class="edge">
<title>Node3&#45;&gt;Node2</title>
<g id="a_edge2_Node000002_Node000003"><a xlink:title=" ">
<path fill="none" stroke="#63b8ff" d="M59,-178.3C59,-169.41 59,-159.28 59,-152.25"/>
<polygon fill="#63b8ff" stroke="#63b8ff" points="55.5,-178.58 59,-188.58 62.5,-178.58 55.5,-178.58"/>
</a>
</g>
</g>
<!-- Node4 -->
<g id="Node000004" class="node">
<title>Node4</title>
<g id="a_Node000004"><a target="_parent" xlink:href="https://www.itk.org/Doxygen/html/classitk_1_1LightObject.html" xlink:title=" ">
<polygon fill="white" stroke="#666666" points="104.5,-264 13.5,-264 13.5,-245 104.5,-245 104.5,-264"/>
<text text-anchor="middle" x="59" y="-252" font-family="Helvetica,sans-Serif" font-size="10.00">itk::LightObject</text>
</a>
</g>
</g>
<!-- Node4&#45;&gt;Node3 -->
<g id="edge3_Node000003_Node000004" class="edge">
<title>Node4&#45;&gt;Node3</title>
<g id="a_edge3_Node000003_Node000004"><a xlink:title=" ">
<path fill="none" stroke="#63b8ff" d="M59,-234.3C59,-225.41 59,-215.28 59,-208.25"/>
<polygon fill="#63b8ff" stroke="#63b8ff" points="55.5,-234.58 59,-244.58 62.5,-234.58 55.5,-234.58"/>
</a>
</g>
</g>
<!-- Node5&#45;&gt;Node1 -->
<g id="edge5_Node000001_Node000005" class="edge">
<title>Node5&#45;&gt;Node1</title>
<g id="a_edge5_Node000001_Node000005"><a xlink:title=" ">
<path fill="none" stroke="orange" stroke-dasharray="5,2" d="M146.9,-71.54C127.86,-59.51 100.5,-42.22 81.38,-30.14"/>
<polygon fill="orange" stroke="orange" points="145.19,-74.6 155.51,-76.98 148.93,-68.68 145.19,-74.6"/>
</a>
</g>
<text text-anchor="middle" x="143" y="-51" font-family="Helvetica,sans-Serif" font-size="10.00" fill="grey"> &lt; T * &gt;</text>
</g>
</g>
</svg>
