<?xml version="1.0" encoding="UTF-8" standalone="no"?>
<!DOCTYPE svg PUBLIC "-//W3C//DTD SVG 1.1//EN"
 "http://www.w3.org/Graphics/SVG/1.1/DTD/svg11.dtd">
<!-- Generated by graphviz version 2.43.0 (0)
 -->
<!-- Title: itk::simple::ImageReaderBase Pages: 1 -->
<svg width="720pt" height="124pt"
 viewBox="0.00 0.00 720.00 123.50" xmlns="http://www.w3.org/2000/svg" xmlns:xlink="http://www.w3.org/1999/xlink">
<g id="graph0" class="graph" transform="scale(1 1) rotate(0) translate(4 119.5)">
<title>itk::simple::ImageReaderBase</title>
<!-- Node1 -->
<g id="Node000001" class="node">
<title>Node1</title>
<g id="a_Node000001"><a xlink:title="An abstract base class for image readers.">
<polygon fill="#999999" stroke="#666666" points="519,-72.5 355,-72.5 355,-53.5 519,-53.5 519,-72.5"/>
<text text-anchor="middle" x="437" y="-60.5" font-family="Helvetica,sans-Serif" font-size="10.00">itk::simple::ImageReaderBase</text>
</a>
</g>
</g>
<!-- Node4 -->
<g id="Node000004" class="node">
<title>Node4</title>
<g id="a_Node000004"><a xlink:href="classitk_1_1simple_1_1ImageFileReader.html" target="_top" xlink:title="Read an image file and return a SimpleITK Image.">
<polygon fill="white" stroke="#666666" points="712,-115.5 555,-115.5 555,-96.5 712,-96.5 712,-115.5"/>
<text text-anchor="middle" x="633.5" y="-103.5" font-family="Helvetica,sans-Serif" font-size="10.00">itk::simple::ImageFileReader</text>
</a>
</g>
</g>
<!-- Node1&#45;&gt;Node4 -->
<g id="edge3_Node000001_Node000004" class="edge">
<title>Node1&#45;&gt;Node4</title>
<g id="a_edge3_Node000001_Node000004"><a xlink:title=" ">
<path fill="none" stroke="#63b8ff" d="M491.32,-74.79C522.19,-81.61 560.52,-90.09 589.45,-96.48"/>
<polygon fill="#63b8ff" stroke="#63b8ff" points="491.69,-71.28 481.17,-72.54 490.17,-78.12 491.69,-71.28"/>
</a>
</g>
</g>
<!-- Node5 -->
<g id="Node000005" class="node">
<title>Node5</title>
<g id="a_Node000005"><a xlink:href="classitk_1_1simple_1_1ImageSeriesReader.html" target="_top" xlink:title="Read series of image files into a SimpleITK image.">
<polygon fill="white" stroke="#666666" points="701,-78 566,-78 566,-48 701,-48 701,-78"/>
<text text-anchor="start" x="574" y="-66" font-family="Helvetica,sans-Serif" font-size="10.00">itk::simple::ImageSeries</text>
<text text-anchor="middle" x="633.5" y="-55" font-family="Helvetica,sans-Serif" font-size="10.00">Reader</text>
</a>
</g>
</g>
<!-- Node1&#45;&gt;Node5 -->
<g id="edge4_Node000001_Node000005" class="edge">
<title>Node1&#45;&gt;Node5</title>
<g id="a_edge4_Node000001_Node000005"><a xlink:title=" ">
<path fill="none" stroke="#63b8ff" d="M529.33,-63C541.6,-63 553.99,-63 565.72,-63"/>
<polygon fill="#63b8ff" stroke="#63b8ff" points="529.08,-59.5 519.08,-63 529.08,-66.5 529.08,-59.5"/>
</a>
</g>
</g>
<!-- Node6 -->
<g id="Node000006" class="node">
<title>Node6</title>
<g id="a_Node000006"><a xlink:href="classitk_1_1simple_1_1ImportImageFilter.html" target="_top" xlink:title="Compose a 2D or 3D image and return a smart pointer to a SimpleITK image.">
<polygon fill="white" stroke="#666666" points="702,-30 565,-30 565,0 702,0 702,-30"/>
<text text-anchor="start" x="573" y="-18" font-family="Helvetica,sans-Serif" font-size="10.00">itk::simple::ImportImage</text>
<text text-anchor="middle" x="633.5" y="-7" font-family="Helvetica,sans-Serif" font-size="10.00">Filter</text>
</a>
</g>
</g>
<!-- Node1&#45;&gt;Node6 -->
<g id="edge5_Node000001_Node000006" class="edge">
<title>Node1&#45;&gt;Node6</title>
<g id="a_edge5_Node000001_Node000006"><a xlink:title=" ">
<path fill="none" stroke="#63b8ff" d="M486.77,-50.96C512.44,-44.63 544.17,-36.8 571.46,-30.06"/>
<polygon fill="#63b8ff" stroke="#63b8ff" points="485.76,-47.61 476.89,-53.4 487.44,-54.4 485.76,-47.61"/>
</a>
</g>
</g>
<!-- Node2 -->
<g id="Node000002" class="node">
<title>Node2</title>
<g id="a_Node000002"><a xlink:href="classitk_1_1simple_1_1ProcessObject.html" target="_top" xlink:title="Base class for SimpleITK classes based on ProcessObject.">
<polygon fill="white" stroke="#666666" points="319,-72.5 176,-72.5 176,-53.5 319,-53.5 319,-72.5"/>
<text text-anchor="middle" x="247.5" y="-60.5" font-family="Helvetica,sans-Serif" font-size="10.00">itk::simple::ProcessObject</text>
</a>
</g>
</g>
<!-- Node2&#45;&gt;Node1 -->
<g id="edge1_Node000001_Node000002" class="edge">
<title>Node2&#45;&gt;Node1</title>
<g id="a_edge1_Node000001_Node000002"><a xlink:title=" ">
<path fill="none" stroke="#63b8ff" d="M329.31,-63C337.74,-63 346.31,-63 354.74,-63"/>
<polygon fill="#63b8ff" stroke="#63b8ff" points="329.12,-59.5 319.12,-63 329.12,-66.5 329.12,-59.5"/>
</a>
</g>
</g>
<!-- Node3 -->
<g id="Node000003" class="node">
<title>Node3</title>
<g id="a_Node000003"><a xlink:href="classitk_1_1simple_1_1NonCopyable.html" target="_top" xlink:title="An inheritable class to disable copying of a class.">
<polygon fill="white" stroke="#666666" points="140,-72.5 0,-72.5 0,-53.5 140,-53.5 140,-72.5"/>
<text text-anchor="middle" x="70" y="-60.5" font-family="Helvetica,sans-Serif" font-size="10.00">itk::simple::NonCopyable</text>
</a>
</g>
</g>
<!-- Node3&#45;&gt;Node2 -->
<g id="edge2_Node000002_Node000003" class="edge">
<title>Node3&#45;&gt;Node2</title>
<g id="a_edge2_Node000002_Node000003"><a xlink:title=" ">
<path fill="none" stroke="darkgreen" d="M150.35,-63C158.81,-63 167.37,-63 175.72,-63"/>
<polygon fill="darkgreen" stroke="darkgreen" points="150.11,-59.5 140.11,-63 150.11,-66.5 150.11,-59.5"/>
</a>
</g>
</g>
</g>
</svg>
