<?xml version="1.0" encoding="UTF-8" standalone="no"?>
<!DOCTYPE svg PUBLIC "-//W3C//DTD SVG 1.1//EN"
 "http://www.w3.org/Graphics/SVG/1.1/DTD/svg11.dtd">
<!-- Generated by graphviz version 2.43.0 (0)
 -->
<!-- Title: sitkImageReaderBase.h Pages: 1 -->
<!--zoomable 533 -->

<svg id="main" version="1.1" xmlns="http://www.w3.org/2000/svg" xmlns:xlink="http://www.w3.org/1999/xlink" xml:space="preserve" onload="init(evt)">

<style type="text/css"><![CDATA[
.node, .edge {opacity: 0.7;}
.node.selected, .edge.selected {opacity: 1;}
.edge:hover path { stroke: red; }
.edge:hover polygon { stroke: red; fill: red; }
]]></style>

<defs>
  <circle id="rim" cx="0" cy="0" r="7"/>
  <circle id="rim2" cx="0" cy="0" r="3.5"/>
  <g id="zoomPlus">
    <use xlink:href="#rim" fill="#404040"><set attributeName="fill" to="#808080" begin="zoomplus.mouseover" end="zoomplus.mouseout"/></use>
    <path d="M-4,0h8M0,-4v8" fill="none" stroke="white" stroke-width="1.5" pointer-events="none"/>
  </g>
  <g id="zoomMin">
    <use xlink:href="#rim" fill="#404040"><set attributeName="fill" to="#808080" begin="zoomminus.mouseover" end="zoomminus.mouseout"/></use>
    <path d="M-4,0h8" fill="none" stroke="white" stroke-width="1.5" pointer-events="none"/>
  </g>
  <g id="arrowUp" transform="translate(30 24)">
    <use xlink:href="#rim"/>
    <path pointer-events="none" fill="none" stroke="white" stroke-width="1.5" d="M0,-3.0v7 M-2.5,-0.5L0,-3.0L2.5,-0.5"/>
  </g>
  <g id="arrowRight" transform="rotate(90) translate(36 -43)">
    <use xlink:href="#rim"/>
    <path pointer-events="none" fill="none" stroke="white" stroke-width="1.5" d="M0,-3.0v7 M-2.5,-0.5L0,-3.0L2.5,-0.5"/>
  </g>
  <g id="arrowDown" transform="rotate(180) translate(-30 -48)">
    <use xlink:href="#rim"/>
    <path pointer-events="none" fill="none" stroke="white" stroke-width="1.5" d="M0,-3.0v7 M-2.5,-0.5L0,-3.0L2.5,-0.5"/>
  </g>
  <g id="arrowLeft" transform="rotate(270) translate(-36 17)">
    <use xlink:href="#rim"/>
    <path pointer-events="none" fill="none" stroke="white" stroke-width="1.5" d="M0,-3.0v7 M-2.5,-0.5L0,-3.0L2.5,-0.5"/>
  </g>
  <g id="resetDef">
    <use xlink:href="#rim2" fill="#404040"><set attributeName="fill" to="#808080" begin="reset.mouseover" end="reset.mouseout"/></use>
  </g>
</defs>
<script type="application/ecmascript">
var viewWidth = 1558;
var viewHeight = 533;
var sectionId = 'dynsection-0';
</script>
<script type="application/ecmascript" xlink:href="svg.min.js"/>
<svg id="graph" class="graph">
<g id="viewport">
<title>sitkImageReaderBase.h</title>
<!-- Node1 -->
<g id="Node000001" class="node">
<title>Node1</title>
<g id="a_Node000001"><a xlink:title=" ">
<polygon fill="#999999" stroke="#666666" points="1348.53,-525 1215.53,-525 1215.53,-506 1348.53,-506 1348.53,-525"/>
<text text-anchor="middle" x="1282.03" y="-513" font-family="Helvetica,sans-Serif" font-size="10.00">sitkImageReaderBase.h</text>
</a>
</g>
</g>
<!-- Node2 -->
<g id="Node000002" class="node">
<title>Node2</title>
<g id="a_Node000002"><a xlink:href="sitkProcessObject_8h.html" target="_top" xlink:title=" ">
<polygon fill="white" stroke="#666666" points="1156.53,-470 1043.53,-470 1043.53,-451 1156.53,-451 1156.53,-470"/>
<text text-anchor="middle" x="1100.03" y="-458" font-family="Helvetica,sans-Serif" font-size="10.00">sitkProcessObject.h</text>
</a>
</g>
</g>
<!-- Node1&#45;&gt;Node2 -->
<g id="edge1_Node000001_Node000002" class="edge">
<title>Node1&#45;&gt;Node2</title>
<g id="a_edge1_Node000001_Node000002"><a xlink:title=" ">
<path fill="none" stroke="#63b8ff" d="M1252.79,-505.98C1221.97,-497.01 1173.26,-482.82 1139.15,-472.89"/>
<polygon fill="#63b8ff" stroke="#63b8ff" points="1140.08,-469.52 1129.5,-470.08 1138.13,-476.24 1140.08,-469.52"/>
</a>
</g>
</g>
<!-- Node31 -->
<g id="Node000031" class="node">
<title>Node31</title>
<g id="a_Node000031"><a xlink:href="sitkPixelIDValues_8h.html" target="_top" xlink:title=" ">
<polygon fill="white" stroke="#666666" points="1102.03,-244.5 992.03,-244.5 992.03,-225.5 1102.03,-225.5 1102.03,-244.5"/>
<text text-anchor="middle" x="1047.03" y="-232.5" font-family="Helvetica,sans-Serif" font-size="10.00">sitkPixelIDValues.h</text>
</a>
</g>
</g>
<!-- Node1&#45;&gt;Node31 -->
<g id="edge64_Node000001_Node000031" class="edge">
<title>Node1&#45;&gt;Node31</title>
<g id="a_edge64_Node000001_Node000031"><a xlink:title=" ">
<path fill="none" stroke="#63b8ff" d="M1272.89,-505.94C1255.64,-488.84 1220.03,-448.44 1220.03,-406.5 1220.03,-406.5 1220.03,-406.5 1220.03,-349.5 1220.03,-291.41 1151,-261.42 1100.15,-247.21"/>
<polygon fill="#63b8ff" stroke="#63b8ff" points="1100.81,-243.76 1090.24,-244.57 1099.01,-250.53 1100.81,-243.76"/>
</a>
</g>
</g>
<!-- Node38 -->
<g id="Node000038" class="node">
<title>Node38</title>
<g id="a_Node000038"><a xlink:href="sitkPathType_8h.html" target="_top" xlink:title=" ">
<polygon fill="white" stroke="#666666" points="1438.53,-360 1351.53,-360 1351.53,-341 1438.53,-341 1438.53,-360"/>
<text text-anchor="middle" x="1395.03" y="-348" font-family="Helvetica,sans-Serif" font-size="10.00">sitkPathType.h</text>
</a>
</g>
</g>
<!-- Node1&#45;&gt;Node38 -->
<g id="edge65_Node000001_Node000038" class="edge">
<title>Node1&#45;&gt;Node38</title>
<g id="a_edge65_Node000001_Node000038"><a xlink:title=" ">
<path fill="none" stroke="#63b8ff" d="M1288.11,-505.74C1306.04,-479.87 1359,-403.48 1382.98,-368.88"/>
<polygon fill="#63b8ff" stroke="#63b8ff" points="1386.11,-370.52 1388.93,-360.31 1380.36,-366.53 1386.11,-370.52"/>
</a>
</g>
</g>
<!-- Node39 -->
<g id="Node000039" class="node">
<title>Node39</title>
<g id="a_Node000039"><a xlink:href="sitkIO_8h.html" target="_top" xlink:title=" ">
<polygon fill="white" stroke="#666666" points="1526.03,-470 1472.03,-470 1472.03,-451 1526.03,-451 1526.03,-470"/>
<text text-anchor="middle" x="1499.03" y="-458" font-family="Helvetica,sans-Serif" font-size="10.00">sitkIO.h</text>
</a>
</g>
</g>
<!-- Node1&#45;&gt;Node39 -->
<g id="edge67_Node000001_Node000039" class="edge">
<title>Node1&#45;&gt;Node39</title>
<g id="a_edge67_Node000001_Node000039"><a xlink:title=" ">
<path fill="none" stroke="#63b8ff" d="M1316.9,-505.98C1356.66,-496.27 1421.4,-480.46 1462.03,-470.54"/>
<polygon fill="#63b8ff" stroke="#63b8ff" points="1462.93,-473.92 1471.81,-468.15 1461.27,-467.12 1462.93,-473.92"/>
</a>
</g>
</g>
<!-- Node3 -->
<g id="Node000003" class="node">
<title>Node3</title>
<g id="a_Node000003"><a xlink:href="sitkCommon_8h.html" target="_top" xlink:title=" ">
<polygon fill="white" stroke="#666666" points="1051.03,-129 963.03,-129 963.03,-110 1051.03,-110 1051.03,-129"/>
<text text-anchor="middle" x="1007.03" y="-117" font-family="Helvetica,sans-Serif" font-size="10.00">sitkCommon.h</text>
</a>
</g>
</g>
<!-- Node2&#45;&gt;Node3 -->
<g id="edge2_Node000002_Node000003" class="edge">
<title>Node2&#45;&gt;Node3</title>
<g id="a_edge2_Node000002_Node000003"><a xlink:title=" ">
<path fill="none" stroke="#63b8ff" d="M1109.56,-450.66C1143.57,-418.02 1254.11,-302 1200.03,-220 1177.67,-186.09 1151.67,-203.49 1116.03,-184 1102.84,-176.78 1100.86,-172.85 1088.03,-165 1069.85,-153.87 1048.71,-142.3 1032.59,-133.75"/>
<polygon fill="#63b8ff" stroke="#63b8ff" points="1034.22,-130.65 1023.74,-129.09 1030.96,-136.84 1034.22,-130.65"/>
</a>
</g>
</g>
<!-- Node11 -->
<g id="Node000011" class="node">
<title>Node11</title>
<g id="a_Node000011"><a xlink:href="sitkNonCopyable_8h.html" target="_top" xlink:title=" ">
<polygon fill="white" stroke="#666666" points="741.53,-184 632.53,-184 632.53,-165 741.53,-165 741.53,-184"/>
<text text-anchor="middle" x="687.03" y="-172" font-family="Helvetica,sans-Serif" font-size="10.00">sitkNonCopyable.h</text>
</a>
</g>
</g>
<!-- Node2&#45;&gt;Node11 -->
<g id="edge10_Node000002_Node000011" class="edge">
<title>Node2&#45;&gt;Node11</title>
<g id="a_edge10_Node000002_Node000011"><a xlink:title=" ">
<path fill="none" stroke="#63b8ff" d="M1043.14,-458.99C912.85,-456.29 604.03,-440.51 604.03,-351.5 604.03,-351.5 604.03,-351.5 604.03,-294.5 604.03,-250.56 642.57,-211.25 667.13,-190.66"/>
<polygon fill="#63b8ff" stroke="#63b8ff" points="669.56,-193.19 675.14,-184.18 665.16,-187.75 669.56,-193.19"/>
</a>
</g>
</g>
<!-- Node12 -->
<g id="Node000012" class="node">
<title>Node12</title>
<g id="a_Node000012"><a xlink:href="sitkTemplateFunctions_8h.html" target="_top" xlink:title=" ">
<polygon fill="white" stroke="#666666" points="1383.53,-244.5 1248.53,-244.5 1248.53,-225.5 1383.53,-225.5 1383.53,-244.5"/>
<text text-anchor="middle" x="1316.03" y="-232.5" font-family="Helvetica,sans-Serif" font-size="10.00">sitkTemplateFunctions.h</text>
</a>
</g>
</g>
<!-- Node2&#45;&gt;Node12 -->
<g id="edge12_Node000002_Node000012" class="edge">
<title>Node2&#45;&gt;Node12</title>
<g id="a_edge12_Node000002_Node000012"><a xlink:title=" ">
<path fill="none" stroke="#63b8ff" d="M1128.32,-450.88C1148.73,-443.66 1176.08,-431.81 1196.03,-415 1251.52,-368.25 1291.81,-289.6 1308.08,-254.22"/>
<polygon fill="#63b8ff" stroke="#63b8ff" points="1311.45,-255.26 1312.35,-244.71 1305.06,-252.4 1311.45,-255.26"/>
</a>
</g>
</g>
<!-- Node18 -->
<g id="Node000018" class="node">
<title>Node18</title>
<g id="a_Node000018"><a xlink:href="sitkEvent_8h.html" target="_top" xlink:title=" ">
<polygon fill="white" stroke="#666666" points="1191.53,-244.5 1120.53,-244.5 1120.53,-225.5 1191.53,-225.5 1191.53,-244.5"/>
<text text-anchor="middle" x="1156.03" y="-232.5" font-family="Helvetica,sans-Serif" font-size="10.00">sitkEvent.h</text>
</a>
</g>
</g>
<!-- Node2&#45;&gt;Node18 -->
<g id="edge22_Node000002_Node000018" class="edge">
<title>Node2&#45;&gt;Node18</title>
<g id="a_edge22_Node000002_Node000018"><a xlink:title=" ">
<path fill="none" stroke="#63b8ff" d="M1106.16,-450.73C1111.92,-442.05 1120.34,-428.19 1125.03,-415 1144.98,-358.91 1152.37,-288.23 1154.87,-254.96"/>
<polygon fill="#63b8ff" stroke="#63b8ff" points="1158.37,-255.05 1155.56,-244.84 1151.39,-254.57 1158.37,-255.05"/>
</a>
</g>
</g>
<!-- Node19 -->
<g id="Node000019" class="node">
<title>Node19</title>
<g id="a_Node000019"><a xlink:href="sitkImage_8h.html" target="_top" xlink:title=" ">
<polygon fill="white" stroke="#666666" points="883.03,-360 809.03,-360 809.03,-341 883.03,-341 883.03,-360"/>
<text text-anchor="middle" x="846.03" y="-348" font-family="Helvetica,sans-Serif" font-size="10.00">sitkImage.h</text>
</a>
</g>
</g>
<!-- Node2&#45;&gt;Node19 -->
<g id="edge25_Node000002_Node000019" class="edge">
<title>Node2&#45;&gt;Node19</title>
<g id="a_edge25_Node000002_Node000019"><a xlink:title=" ">
<path fill="none" stroke="#63b8ff" d="M1043.36,-455.47C982.39,-450.01 890.71,-438.15 865.03,-415 852.62,-403.81 848.18,-384.89 846.66,-370.61"/>
<polygon fill="#63b8ff" stroke="#63b8ff" points="850.13,-370.12 845.97,-360.38 843.15,-370.59 850.13,-370.12"/>
</a>
</g>
</g>
<!-- Node35 -->
<g id="Node000035" class="node">
<title>Node35</title>
<g id="a_Node000035"><a xlink:href="sitkImageConvert_8h.html" target="_top" xlink:title=" ">
<polygon fill="white" stroke="#666666" points="987.53,-415 874.53,-415 874.53,-396 987.53,-396 987.53,-415"/>
<text text-anchor="middle" x="931.03" y="-403" font-family="Helvetica,sans-Serif" font-size="10.00">sitkImageConvert.h</text>
</a>
</g>
</g>
<!-- Node2&#45;&gt;Node35 -->
<g id="edge60_Node000002_Node000035" class="edge">
<title>Node2&#45;&gt;Node35</title>
<g id="a_edge60_Node000002_Node000035"><a xlink:title=" ">
<path fill="none" stroke="#63b8ff" d="M1072.88,-450.98C1044.51,-442.09 999.8,-428.07 968.17,-418.15"/>
<polygon fill="#63b8ff" stroke="#63b8ff" points="968.99,-414.73 958.4,-415.08 966.89,-421.41 968.99,-414.73"/>
</a>
</g>
</g>
<!-- Node36 -->
<g id="Node000036" class="node">
<title>Node36</title>
<g id="a_Node000036"><a xlink:title=" ">
<polygon fill="#e0e0e0" stroke="#999999" points="1066.03,-415 1006.03,-415 1006.03,-396 1066.03,-396 1066.03,-415"/>
<text text-anchor="middle" x="1036.03" y="-403" font-family="Helvetica,sans-Serif" font-size="10.00">iostream</text>
</a>
</g>
</g>
<!-- Node2&#45;&gt;Node36 -->
<g id="edge62_Node000002_Node000036" class="edge">
<title>Node2&#45;&gt;Node36</title>
<g id="a_edge62_Node000002_Node000036"><a xlink:title=" ">
<path fill="none" stroke="#63b8ff" d="M1089.75,-450.98C1080.2,-443.07 1065.75,-431.11 1054.25,-421.58"/>
<polygon fill="#63b8ff" stroke="#63b8ff" points="1056.44,-418.85 1046.5,-415.17 1051.97,-424.24 1056.44,-418.85"/>
</a>
</g>
</g>
<!-- Node37 -->
<g id="Node000037" class="node">
<title>Node37</title>
<g id="a_Node000037"><a xlink:title=" ">
<polygon fill="#e0e0e0" stroke="#999999" points="1116.03,-415 1084.03,-415 1084.03,-396 1116.03,-396 1116.03,-415"/>
<text text-anchor="middle" x="1100.03" y="-403" font-family="Helvetica,sans-Serif" font-size="10.00">list</text>
</a>
</g>
</g>
<!-- Node2&#45;&gt;Node37 -->
<g id="edge63_Node000002_Node000037" class="edge">
<title>Node2&#45;&gt;Node37</title>
<g id="a_edge63_Node000002_Node000037"><a xlink:title=" ">
<path fill="none" stroke="#63b8ff" d="M1100.03,-450.75C1100.03,-443.8 1100.03,-433.85 1100.03,-425.13"/>
<polygon fill="#63b8ff" stroke="#63b8ff" points="1103.53,-425.09 1100.03,-415.09 1096.53,-425.09 1103.53,-425.09"/>
</a>
</g>
</g>
<!-- Node4 -->
<g id="Node000004" class="node">
<title>Node4</title>
<g id="a_Node000004"><a xlink:href="sitkMacro_8h.html" target="_top" xlink:title=" ">
<polygon fill="white" stroke="#666666" points="1044.03,-74 970.03,-74 970.03,-55 1044.03,-55 1044.03,-74"/>
<text text-anchor="middle" x="1007.03" y="-62" font-family="Helvetica,sans-Serif" font-size="10.00">sitkMacro.h</text>
</a>
</g>
</g>
<!-- Node3&#45;&gt;Node4 -->
<g id="edge3_Node000003_Node000004" class="edge">
<title>Node3&#45;&gt;Node4</title>
<g id="a_edge3_Node000003_Node000004"><a xlink:title=" ">
<path fill="none" stroke="#63b8ff" d="M1007.03,-109.75C1007.03,-102.8 1007.03,-92.85 1007.03,-84.13"/>
<polygon fill="#63b8ff" stroke="#63b8ff" points="1010.53,-84.09 1007.03,-74.09 1003.53,-84.09 1010.53,-84.09"/>
</a>
</g>
</g>
<!-- Node5 -->
<g id="Node000005" class="node">
<title>Node5</title>
<g id="a_Node000005"><a xlink:title=" ">
<polygon fill="#e0e0e0" stroke="#999999" points="716.53,-19 663.53,-19 663.53,0 716.53,0 716.53,-19"/>
<text text-anchor="middle" x="690.03" y="-7" font-family="Helvetica,sans-Serif" font-size="10.00">stdint.h</text>
</a>
</g>
</g>
<!-- Node4&#45;&gt;Node5 -->
<g id="edge4_Node000004_Node000005" class="edge">
<title>Node4&#45;&gt;Node5</title>
<g id="a_edge4_Node000004_Node000005"><a xlink:title=" ">
<path fill="none" stroke="#63b8ff" d="M969.74,-57.26C908.47,-47.02 787.27,-26.76 726.53,-16.6"/>
<polygon fill="#63b8ff" stroke="#63b8ff" points="727.06,-13.14 716.62,-14.94 725.91,-20.05 727.06,-13.14"/>
</a>
</g>
</g>
<!-- Node6 -->
<g id="Node000006" class="node">
<title>Node6</title>
<g id="a_Node000006"><a xlink:title=" ">
<polygon fill="#e0e0e0" stroke="#999999" points="1069.03,-19 1013.03,-19 1013.03,0 1069.03,0 1069.03,-19"/>
<text text-anchor="middle" x="1041.03" y="-7" font-family="Helvetica,sans-Serif" font-size="10.00">stddef.h</text>
</a>
</g>
</g>
<!-- Node4&#45;&gt;Node6 -->
<g id="edge5_Node000004_Node000006" class="edge">
<title>Node4&#45;&gt;Node6</title>
<g id="a_edge5_Node000004_Node000006"><a xlink:title=" ">
<path fill="none" stroke="#63b8ff" d="M1012.65,-54.75C1017.35,-47.42 1024.21,-36.73 1030,-27.7"/>
<polygon fill="#63b8ff" stroke="#63b8ff" points="1033.07,-29.4 1035.52,-19.09 1027.18,-25.62 1033.07,-29.4"/>
</a>
</g>
</g>
<!-- Node7 -->
<g id="Node000007" class="node">
<title>Node7</title>
<g id="a_Node000007"><a xlink:title=" ">
<polygon fill="#e0e0e0" stroke="#999999" points="1139.03,-19 1087.03,-19 1087.03,0 1139.03,0 1139.03,-19"/>
<text text-anchor="middle" x="1113.03" y="-7" font-family="Helvetica,sans-Serif" font-size="10.00">cassert</text>
</a>
</g>
</g>
<!-- Node4&#45;&gt;Node7 -->
<g id="edge6_Node000004_Node000007" class="edge">
<title>Node4&#45;&gt;Node7</title>
<g id="a_edge6_Node000004_Node000007"><a xlink:title=" ">
<path fill="none" stroke="#63b8ff" d="M1024.06,-54.98C1040.96,-46.54 1067.1,-33.47 1086.68,-23.68"/>
<polygon fill="#63b8ff" stroke="#63b8ff" points="1088.31,-26.77 1095.69,-19.17 1085.18,-20.51 1088.31,-26.77"/>
</a>
</g>
</g>
<!-- Node8 -->
<g id="Node000008" class="node">
<title>Node8</title>
<g id="a_Node000008"><a xlink:title=" ">
<polygon fill="#e0e0e0" stroke="#999999" points="933.03,-19 877.03,-19 877.03,0 933.03,0 933.03,-19"/>
<text text-anchor="middle" x="905.03" y="-7" font-family="Helvetica,sans-Serif" font-size="10.00">sstream</text>
</a>
</g>
</g>
<!-- Node4&#45;&gt;Node8 -->
<g id="edge7_Node000004_Node000008" class="edge">
<title>Node4&#45;&gt;Node8</title>
<g id="a_edge7_Node000004_Node000008"><a xlink:title=" ">
<path fill="none" stroke="#63b8ff" d="M990.65,-54.98C974.46,-46.57 949.46,-33.59 930.65,-23.81"/>
<polygon fill="#63b8ff" stroke="#63b8ff" points="932.21,-20.68 921.72,-19.17 928.98,-26.89 932.21,-20.68"/>
</a>
</g>
</g>
<!-- Node9 -->
<g id="Node000009" class="node">
<title>Node9</title>
<g id="a_Node000009"><a xlink:title=" ">
<polygon fill="#e0e0e0" stroke="#999999" points="995.03,-19 951.03,-19 951.03,0 995.03,0 995.03,-19"/>
<text text-anchor="middle" x="973.03" y="-7" font-family="Helvetica,sans-Serif" font-size="10.00">limits</text>
</a>
</g>
</g>
<!-- Node4&#45;&gt;Node9 -->
<g id="edge8_Node000004_Node000009" class="edge">
<title>Node4&#45;&gt;Node9</title>
<g id="a_edge8_Node000004_Node000009"><a xlink:title=" ">
<path fill="none" stroke="#63b8ff" d="M1001.42,-54.75C996.72,-47.42 989.86,-36.73 984.07,-27.7"/>
<polygon fill="#63b8ff" stroke="#63b8ff" points="986.89,-25.62 978.54,-19.09 981,-29.4 986.89,-25.62"/>
</a>
</g>
</g>
<!-- Node10 -->
<g id="Node000010" class="node">
<title>Node10</title>
<g id="a_Node000010"><a xlink:href="sitkConfigure_8h.html" target="_top" xlink:title=" ">
<polygon fill="white" stroke="#666666" points="511.03,-19 421.03,-19 421.03,0 511.03,0 511.03,-19"/>
<text text-anchor="middle" x="466.03" y="-7" font-family="Helvetica,sans-Serif" font-size="10.00">sitkConfigure.h</text>
</a>
</g>
</g>
<!-- Node4&#45;&gt;Node10 -->
<g id="edge9_Node000004_Node000010" class="edge">
<title>Node4&#45;&gt;Node10</title>
<g id="a_edge9_Node000004_Node000010"><a xlink:title=" ">
<path fill="none" stroke="#63b8ff" d="M969.85,-59.86C876.53,-50.72 632.05,-26.76 521.6,-15.94"/>
<polygon fill="#63b8ff" stroke="#63b8ff" points="521.64,-12.43 511.34,-14.94 520.95,-19.4 521.64,-12.43"/>
</a>
</g>
</g>
<!-- Node11&#45;&gt;Node3 -->
<g id="edge11_Node000011_Node000003" class="edge">
<title>Node11&#45;&gt;Node3</title>
<g id="a_edge11_Node000011_Node000003"><a xlink:title=" ">
<path fill="none" stroke="#63b8ff" d="M738.45,-164.98C797.24,-155.25 893.05,-139.38 952.94,-129.46"/>
<polygon fill="#63b8ff" stroke="#63b8ff" points="953.67,-132.89 962.96,-127.8 952.52,-125.98 953.67,-132.89"/>
</a>
</g>
</g>
<!-- Node12&#45;&gt;Node3 -->
<g id="edge14_Node000012_Node000003" class="edge">
<title>Node12&#45;&gt;Node3</title>
<g id="a_edge14_Node000012_Node000003"><a xlink:title=" ">
<path fill="none" stroke="#63b8ff" d="M1285.9,-225.45C1254.05,-216.18 1202.5,-200.47 1159.03,-184 1139.5,-176.6 1135.26,-173.17 1116.03,-165 1089.77,-153.84 1059.73,-141.62 1037.85,-132.81"/>
<polygon fill="#63b8ff" stroke="#63b8ff" points="1039,-129.5 1028.41,-129.02 1036.39,-135.99 1039,-129.5"/>
</a>
</g>
</g>
<!-- Node12&#45;&gt;Node4 -->
<g id="edge13_Node000012_Node000004" class="edge">
<title>Node12&#45;&gt;Node4</title>
<g id="a_edge13_Node000012_Node000004"><a xlink:title=" ">
<path fill="none" stroke="#63b8ff" d="M1360.16,-225.49C1402.98,-215.24 1458.2,-195.51 1434.03,-165 1387.07,-105.72 1155.73,-78.52 1054.55,-69.31"/>
<polygon fill="#63b8ff" stroke="#63b8ff" points="1054.58,-65.8 1044.31,-68.4 1053.96,-72.77 1054.58,-65.8"/>
</a>
</g>
</g>
<!-- Node13 -->
<g id="Node000013" class="node">
<title>Node13</title>
<g id="a_Node000013"><a xlink:href="sitkExceptionObject_8h.html" target="_top" xlink:title=" ">
<polygon fill="white" stroke="#666666" points="1425.53,-184 1302.53,-184 1302.53,-165 1425.53,-165 1425.53,-184"/>
<text text-anchor="middle" x="1364.03" y="-172" font-family="Helvetica,sans-Serif" font-size="10.00">sitkExceptionObject.h</text>
</a>
</g>
</g>
<!-- Node12&#45;&gt;Node13 -->
<g id="edge15_Node000012_Node000013" class="edge">
<title>Node12&#45;&gt;Node13</title>
<g id="a_edge15_Node000012_Node000013"><a xlink:title=" ">
<path fill="none" stroke="#63b8ff" d="M1323.12,-225.37C1330.28,-216.64 1341.53,-202.93 1350.42,-192.09"/>
<polygon fill="#63b8ff" stroke="#63b8ff" points="1353.29,-194.12 1356.92,-184.17 1347.87,-189.68 1353.29,-194.12"/>
</a>
</g>
</g>
<!-- Node15 -->
<g id="Node000015" class="node">
<title>Node15</title>
<g id="a_Node000015"><a xlink:title=" ">
<polygon fill="#e0e0e0" stroke="#999999" points="921.53,-184 874.53,-184 874.53,-165 921.53,-165 921.53,-184"/>
<text text-anchor="middle" x="898.03" y="-172" font-family="Helvetica,sans-Serif" font-size="10.00">vector</text>
</a>
</g>
</g>
<!-- Node12&#45;&gt;Node15 -->
<g id="edge19_Node000012_Node000015" class="edge">
<title>Node12&#45;&gt;Node15</title>
<g id="a_edge19_Node000012_Node000015"><a xlink:title=" ">
<path fill="none" stroke="#63b8ff" d="M1255.25,-225.49C1166.09,-213.01 1002.77,-190.16 932.11,-180.27"/>
<polygon fill="#63b8ff" stroke="#63b8ff" points="932.37,-176.77 921.98,-178.85 931.4,-183.7 932.37,-176.77"/>
</a>
</g>
</g>
<!-- Node16 -->
<g id="Node000016" class="node">
<title>Node16</title>
<g id="a_Node000016"><a xlink:title=" ">
<polygon fill="#e0e0e0" stroke="#999999" points="1035.53,-184 978.53,-184 978.53,-165 1035.53,-165 1035.53,-184"/>
<text text-anchor="middle" x="1007.03" y="-172" font-family="Helvetica,sans-Serif" font-size="10.00">ostream</text>
</a>
</g>
</g>
<!-- Node12&#45;&gt;Node16 -->
<g id="edge20_Node000012_Node000016" class="edge">
<title>Node12&#45;&gt;Node16</title>
<g id="a_edge20_Node000012_Node000016"><a xlink:title=" ">
<path fill="none" stroke="#63b8ff" d="M1271.1,-225.49C1210.44,-214.01 1103.33,-193.73 1045.94,-182.87"/>
<polygon fill="#63b8ff" stroke="#63b8ff" points="1046.3,-179.37 1035.82,-180.95 1045,-186.25 1046.3,-179.37"/>
</a>
</g>
</g>
<!-- Node17 -->
<g id="Node000017" class="node">
<title>Node17</title>
<g id="a_Node000017"><a xlink:title=" ">
<polygon fill="#e0e0e0" stroke="#999999" points="1221.53,-184 1168.53,-184 1168.53,-165 1221.53,-165 1221.53,-184"/>
<text text-anchor="middle" x="1195.03" y="-172" font-family="Helvetica,sans-Serif" font-size="10.00">iterator</text>
</a>
</g>
</g>
<!-- Node12&#45;&gt;Node17 -->
<g id="edge21_Node000012_Node000017" class="edge">
<title>Node12&#45;&gt;Node17</title>
<g id="a_edge21_Node000012_Node000017"><a xlink:title=" ">
<path fill="none" stroke="#63b8ff" d="M1298.44,-225.49C1278.28,-215.75 1245.02,-199.66 1221.67,-188.38"/>
<polygon fill="#63b8ff" stroke="#63b8ff" points="1223.18,-185.22 1212.65,-184.02 1220.13,-191.52 1223.18,-185.22"/>
</a>
</g>
</g>
<!-- Node13&#45;&gt;Node3 -->
<g id="edge17_Node000013_Node000003" class="edge">
<title>Node13&#45;&gt;Node3</title>
<g id="a_edge17_Node000013_Node000003"><a xlink:title=" ">
<path fill="none" stroke="#63b8ff" d="M1306.68,-164.98C1239.14,-154.96 1127.78,-138.43 1061.52,-128.59"/>
<polygon fill="#63b8ff" stroke="#63b8ff" points="1061.69,-125.08 1051.28,-127.07 1060.66,-132 1061.69,-125.08"/>
</a>
</g>
</g>
<!-- Node13&#45;&gt;Node4 -->
<g id="edge16_Node000013_Node000004" class="edge">
<title>Node13&#45;&gt;Node4</title>
<g id="a_edge16_Node000013_Node000004"><a xlink:title=" ">
<path fill="none" stroke="#63b8ff" d="M1335.72,-164.94C1271.93,-145.64 1116.93,-98.74 1044.94,-76.97"/>
<polygon fill="#63b8ff" stroke="#63b8ff" points="1045.93,-73.61 1035.35,-74.07 1043.91,-80.31 1045.93,-73.61"/>
</a>
</g>
</g>
<!-- Node14 -->
<g id="Node000014" class="node">
<title>Node14</title>
<g id="a_Node000014"><a xlink:title=" ">
<polygon fill="#e0e0e0" stroke="#999999" points="1521.03,-129 1463.03,-129 1463.03,-110 1521.03,-110 1521.03,-129"/>
<text text-anchor="middle" x="1492.03" y="-117" font-family="Helvetica,sans-Serif" font-size="10.00">memory</text>
</a>
</g>
</g>
<!-- Node13&#45;&gt;Node14 -->
<g id="edge18_Node000013_Node000014" class="edge">
<title>Node13&#45;&gt;Node14</title>
<g id="a_edge18_Node000013_Node000014"><a xlink:title=" ">
<path fill="none" stroke="#63b8ff" d="M1384.6,-164.98C1405.47,-156.34 1438.01,-142.87 1461.81,-133.02"/>
<polygon fill="#63b8ff" stroke="#63b8ff" points="1463.19,-136.23 1471.09,-129.17 1460.52,-129.76 1463.19,-136.23"/>
</a>
</g>
</g>
<!-- Node18&#45;&gt;Node3 -->
<g id="edge23_Node000018_Node000003" class="edge">
<title>Node18&#45;&gt;Node3</title>
<g id="a_edge23_Node000018_Node000003"><a xlink:title=" ">
<path fill="none" stroke="#63b8ff" d="M1143.91,-225.26C1130.25,-215.37 1107.41,-198.71 1088.03,-184 1066.54,-167.68 1042.22,-148.51 1025.88,-135.54"/>
<polygon fill="#63b8ff" stroke="#63b8ff" points="1027.7,-132.52 1017.7,-129.03 1023.34,-137.99 1027.7,-132.52"/>
</a>
</g>
</g>
<!-- Node18&#45;&gt;Node16 -->
<g id="edge24_Node000018_Node000016" class="edge">
<title>Node18&#45;&gt;Node16</title>
<g id="a_edge24_Node000018_Node000016"><a xlink:title=" ">
<path fill="none" stroke="#63b8ff" d="M1134.37,-225.49C1109.1,-215.57 1067.12,-199.09 1038.32,-187.78"/>
<polygon fill="#63b8ff" stroke="#63b8ff" points="1039.31,-184.41 1028.73,-184.02 1036.76,-190.93 1039.31,-184.41"/>
</a>
</g>
</g>
<!-- Node19&#45;&gt;Node3 -->
<g id="edge26_Node000019_Node000003" class="edge">
<title>Node19&#45;&gt;Node3</title>
<g id="a_edge26_Node000019_Node000003"><a xlink:title=" ">
<path fill="none" stroke="#63b8ff" d="M843.39,-340.9C835.13,-312.11 812.87,-218 857.03,-165 880.18,-137.23 919.8,-126.3 952.51,-122.22"/>
<polygon fill="#63b8ff" stroke="#63b8ff" points="953.29,-125.65 962.86,-121.12 952.55,-118.69 953.29,-125.65"/>
</a>
</g>
</g>
<!-- Node19&#45;&gt;Node12 -->
<g id="edge27_Node000019_Node000012" class="edge">
<title>Node19&#45;&gt;Node12</title>
<g id="a_edge27_Node000019_Node000012"><a xlink:title=" ">
<path fill="none" stroke="#63b8ff" d="M881.36,-340.97C965.42,-320.67 1177.26,-269.51 1270.63,-246.96"/>
<polygon fill="#63b8ff" stroke="#63b8ff" points="1271.72,-250.3 1280.62,-244.55 1270.08,-243.5 1271.72,-250.3"/>
</a>
</g>
</g>
<!-- Node19&#45;&gt;Node14 -->
<g id="edge58_Node000019_Node000014" class="edge">
<title>Node19&#45;&gt;Node14</title>
<g id="a_edge58_Node000019_Node000014"><a xlink:title=" ">
<path fill="none" stroke="#63b8ff" d="M883.26,-345.89C991.43,-334.9 1303.57,-299.58 1392.03,-250 1438.16,-224.15 1470.08,-167.43 1484.06,-138.39"/>
<polygon fill="#63b8ff" stroke="#63b8ff" points="1487.36,-139.6 1488.4,-129.06 1481.01,-136.65 1487.36,-139.6"/>
</a>
</g>
</g>
<!-- Node19&#45;&gt;Node15 -->
<g id="edge57_Node000019_Node000015" class="edge">
<title>Node19&#45;&gt;Node15</title>
<g id="a_edge57_Node000019_Node000015"><a xlink:title=" ">
<path fill="none" stroke="#63b8ff" d="M845.88,-340.94C845.78,-319.64 847.33,-262.84 865.03,-220 869.24,-209.82 876.29,-199.84 882.8,-191.92"/>
<polygon fill="#63b8ff" stroke="#63b8ff" points="885.57,-194.06 889.49,-184.22 880.29,-189.47 885.57,-194.06"/>
</a>
</g>
</g>
<!-- Node20 -->
<g id="Node000020" class="node">
<title>Node20</title>
<g id="a_Node000020"><a xlink:href="sitkDetail_8h.html" target="_top" xlink:title=" ">
<polygon fill="white" stroke="#666666" points="402.53,-305 329.53,-305 329.53,-286 402.53,-286 402.53,-305"/>
<text text-anchor="middle" x="366.03" y="-293" font-family="Helvetica,sans-Serif" font-size="10.00">sitkDetail.h</text>
</a>
</g>
</g>
<!-- Node19&#45;&gt;Node20 -->
<g id="edge28_Node000019_Node000020" class="edge">
<title>Node19&#45;&gt;Node20</title>
<g id="a_edge28_Node000019_Node000020"><a xlink:title=" ">
<path fill="none" stroke="#63b8ff" d="M808.77,-345.39C722.25,-335.83 507.93,-312.17 412.8,-301.66"/>
<polygon fill="#63b8ff" stroke="#63b8ff" points="412.94,-298.16 402.62,-300.54 412.17,-305.12 412.94,-298.16"/>
</a>
</g>
</g>
<!-- Node30 -->
<g id="Node000030" class="node">
<title>Node30</title>
<g id="a_Node000030"><a xlink:href="sitkPixelIDTokens_8h.html" target="_top" xlink:title=" ">
<polygon fill="white" stroke="#666666" points="780.03,-305 670.03,-305 670.03,-286 780.03,-286 780.03,-305"/>
<text text-anchor="middle" x="725.03" y="-293" font-family="Helvetica,sans-Serif" font-size="10.00">sitkPixelIDTokens.h</text>
</a>
</g>
</g>
<!-- Node19&#45;&gt;Node30 -->
<g id="edge46_Node000019_Node000030" class="edge">
<title>Node19&#45;&gt;Node30</title>
<g id="a_edge46_Node000019_Node000030"><a xlink:title=" ">
<path fill="none" stroke="#63b8ff" d="M826.59,-340.98C807.04,-332.42 776.65,-319.11 754.21,-309.28"/>
<polygon fill="#63b8ff" stroke="#63b8ff" points="755.39,-305.98 744.83,-305.17 752.58,-312.39 755.39,-305.98"/>
</a>
</g>
</g>
<!-- Node33 -->
<g id="Node000033" class="node">
<title>Node33</title>
<g id="a_Node000033"><a xlink:title=" ">
<polygon fill="#e0e0e0" stroke="#999999" points="721.53,-244.5 652.53,-244.5 652.53,-225.5 721.53,-225.5 721.53,-244.5"/>
<text text-anchor="middle" x="687.03" y="-232.5" font-family="Helvetica,sans-Serif" font-size="10.00">type_traits</text>
</a>
</g>
</g>
<!-- Node19&#45;&gt;Node33 -->
<g id="edge59_Node000019_Node000033" class="edge">
<title>Node19&#45;&gt;Node33</title>
<g id="a_edge59_Node000019_Node000033"><a xlink:title=" ">
<path fill="none" stroke="#63b8ff" d="M808.81,-345.92C760.18,-340.37 679.08,-327.9 661.03,-305 648.85,-289.53 660.69,-267.74 672.09,-252.81"/>
<polygon fill="#63b8ff" stroke="#63b8ff" points="674.93,-254.87 678.56,-244.91 669.52,-250.43 674.93,-254.87"/>
</a>
</g>
</g>
<!-- Node34 -->
<g id="Node000034" class="node">
<title>Node34</title>
<g id="a_Node000034"><a xlink:href="sitkInterpolator_8h.html" target="_top" xlink:title=" ">
<polygon fill="white" stroke="#666666" points="974.03,-244.5 874.03,-244.5 874.03,-225.5 974.03,-225.5 974.03,-244.5"/>
<text text-anchor="middle" x="924.03" y="-232.5" font-family="Helvetica,sans-Serif" font-size="10.00">sitkInterpolator.h</text>
</a>
</g>
</g>
<!-- Node19&#45;&gt;Node34 -->
<g id="edge54_Node000019_Node000034" class="edge">
<title>Node19&#45;&gt;Node34</title>
<g id="a_edge54_Node000019_Node000034"><a xlink:title=" ">
<path fill="none" stroke="#63b8ff" d="M851.9,-340.97C864.71,-322.32 895.44,-277.61 912.36,-252.99"/>
<polygon fill="#63b8ff" stroke="#63b8ff" points="915.32,-254.85 918.1,-244.63 909.56,-250.89 915.32,-254.85"/>
</a>
</g>
</g>
<!-- Node21 -->
<g id="Node000021" class="node">
<title>Node21</title>
<g id="a_Node000021"><a xlink:href="sitkMemberFunctionFactoryBase_8h.html" target="_top" xlink:title=" ">
<polygon fill="white" stroke="#666666" points="334.03,-250 182.03,-250 182.03,-220 334.03,-220 334.03,-250"/>
<text text-anchor="start" x="190.03" y="-238" font-family="Helvetica,sans-Serif" font-size="10.00">sitkMemberFunctionFactory</text>
<text text-anchor="middle" x="258.03" y="-227" font-family="Helvetica,sans-Serif" font-size="10.00">Base.h</text>
</a>
</g>
</g>
<!-- Node20&#45;&gt;Node21 -->
<g id="edge29_Node000020_Node000021" class="edge">
<title>Node20&#45;&gt;Node21</title>
<g id="a_edge29_Node000020_Node000021"><a xlink:title=" ">
<path fill="none" stroke="#63b8ff" d="M350.1,-285.87C335.1,-277.75 312.15,-265.31 292.91,-254.89"/>
<polygon fill="#63b8ff" stroke="#63b8ff" points="294.55,-251.8 284.09,-250.11 291.22,-257.96 294.55,-251.8"/>
</a>
</g>
</g>
<!-- Node26 -->
<g id="Node000026" class="node">
<title>Node26</title>
<g id="a_Node000026"><a xlink:title=" ">
<polygon fill="#e0e0e0" stroke="#999999" points="435.53,-184 296.53,-184 296.53,-165 435.53,-165 435.53,-184"/>
<text text-anchor="middle" x="366.03" y="-172" font-family="Helvetica,sans-Serif" font-size="10.00">Ancillary/FunctionTraits.h</text>
</a>
</g>
</g>
<!-- Node20&#45;&gt;Node26 -->
<g id="edge45_Node000020_Node000026" class="edge">
<title>Node20&#45;&gt;Node26</title>
<g id="a_edge45_Node000020_Node000026"><a xlink:title=" ">
<path fill="none" stroke="#63b8ff" d="M366.03,-285.94C366.03,-266.91 366.03,-220.69 366.03,-194.47"/>
<polygon fill="#63b8ff" stroke="#63b8ff" points="369.53,-194.3 366.03,-184.3 362.53,-194.3 369.53,-194.3"/>
</a>
</g>
</g>
<!-- Node21&#45;&gt;Node4 -->
<g id="edge38_Node000021_Node000004" class="edge">
<title>Node21&#45;&gt;Node4</title>
<g id="a_edge38_Node000021_Node000004"><a xlink:title=" ">
<path fill="none" stroke="#63b8ff" d="M334.23,-229.1C401.5,-223.19 501.57,-210.52 585.03,-184 603.03,-178.28 605.35,-171.63 623.03,-165 741.13,-120.74 886.78,-88.88 960.12,-74.34"/>
<polygon fill="#63b8ff" stroke="#63b8ff" points="960.84,-77.76 969.98,-72.4 959.49,-70.89 960.84,-77.76"/>
</a>
</g>
</g>
<!-- Node21&#45;&gt;Node10 -->
<g id="edge30_Node000021_Node000010" class="edge">
<title>Node21&#45;&gt;Node10</title>
<g id="a_edge30_Node000021_Node000010"><a xlink:title=" ">
<path fill="none" stroke="#63b8ff" d="M181.79,-228.78C117.99,-222.64 34.11,-209.81 13.03,-184 3.97,-172.9 -10.71,-140.22 14.03,-110 63.78,-49.25 301.03,-23.26 410.48,-14.37"/>
<polygon fill="#63b8ff" stroke="#63b8ff" points="410.97,-17.84 420.66,-13.56 410.42,-10.86 410.97,-17.84"/>
</a>
</g>
</g>
<!-- Node21&#45;&gt;Node11 -->
<g id="edge39_Node000021_Node000011" class="edge">
<title>Node21&#45;&gt;Node11</title>
<g id="a_edge39_Node000021_Node000011"><a xlink:title=" ">
<path fill="none" stroke="#63b8ff" d="M334.24,-223.61C416.15,-212.44 544.99,-194.87 622.21,-184.34"/>
<polygon fill="#63b8ff" stroke="#63b8ff" points="622.86,-187.78 632.29,-182.97 621.91,-180.85 622.86,-187.78"/>
</a>
</g>
</g>
<!-- Node22 -->
<g id="Node000022" class="node">
<title>Node22</title>
<g id="a_Node000022"><a xlink:href="sitkPixelIDTypes_8h.html" target="_top" xlink:title=" ">
<polygon fill="white" stroke="#666666" points="128.53,-129 23.53,-129 23.53,-110 128.53,-110 128.53,-129"/>
<text text-anchor="middle" x="76.03" y="-117" font-family="Helvetica,sans-Serif" font-size="10.00">sitkPixelIDTypes.h</text>
</a>
</g>
</g>
<!-- Node21&#45;&gt;Node22 -->
<g id="edge31_Node000021_Node000022" class="edge">
<title>Node21&#45;&gt;Node22</title>
<g id="a_edge31_Node000021_Node000022"><a xlink:title=" ">
<path fill="none" stroke="#63b8ff" d="M181.83,-228.17C120.42,-221.71 41.1,-208.74 21.03,-184 6.87,-166.53 29.72,-147.07 50.13,-134.36"/>
<polygon fill="#63b8ff" stroke="#63b8ff" points="52.07,-137.28 58.91,-129.18 48.52,-131.25 52.07,-137.28"/>
</a>
</g>
</g>
<!-- Node23 -->
<g id="Node000023" class="node">
<title>Node23</title>
<g id="a_Node000023"><a xlink:href="sitkPixelIDTypeLists_8h.html" target="_top" xlink:title=" ">
<polygon fill="white" stroke="#666666" points="576.03,-184 454.03,-184 454.03,-165 576.03,-165 576.03,-184"/>
<text text-anchor="middle" x="515.03" y="-172" font-family="Helvetica,sans-Serif" font-size="10.00">sitkPixelIDTypeLists.h</text>
</a>
</g>
</g>
<!-- Node21&#45;&gt;Node23 -->
<g id="edge32_Node000021_Node000023" class="edge">
<title>Node21&#45;&gt;Node23</title>
<g id="a_edge32_Node000021_Node000023"><a xlink:title=" ">
<path fill="none" stroke="#63b8ff" d="M319.59,-219.99C365,-209.65 425.88,-195.79 467.56,-186.31"/>
<polygon fill="#63b8ff" stroke="#63b8ff" points="468.48,-189.69 477.46,-184.05 466.93,-182.86 468.48,-189.69"/>
</a>
</g>
</g>
<!-- Node24 -->
<g id="Node000024" class="node">
<title>Node24</title>
<g id="a_Node000024"><a xlink:title=" ">
<polygon fill="#e0e0e0" stroke="#999999" points="371.53,-129 252.53,-129 252.53,-110 371.53,-110 371.53,-129"/>
<text text-anchor="middle" x="312.03" y="-117" font-family="Helvetica,sans-Serif" font-size="10.00">Ancillary/type_list2.h</text>
</a>
</g>
</g>
<!-- Node21&#45;&gt;Node24 -->
<g id="edge40_Node000021_Node000024" class="edge">
<title>Node21&#45;&gt;Node24</title>
<g id="a_edge40_Node000021_Node000024"><a xlink:title=" ">
<path fill="none" stroke="#63b8ff" d="M181.82,-233.61C100.67,-230.56 -10.45,-217.17 34.03,-165 60.27,-134.23 168.73,-124.64 242.17,-121.71"/>
<polygon fill="#63b8ff" stroke="#63b8ff" points="242.42,-125.21 252.28,-121.34 242.16,-118.21 242.42,-125.21"/>
</a>
</g>
</g>
<!-- Node21&#45;&gt;Node26 -->
<g id="edge41_Node000021_Node000026" class="edge">
<title>Node21&#45;&gt;Node26</title>
<g id="a_edge41_Node000021_Node000026"><a xlink:title=" ">
<path fill="none" stroke="#63b8ff" d="M283.9,-219.99C301.28,-210.58 324.05,-198.24 341.2,-188.95"/>
<polygon fill="#63b8ff" stroke="#63b8ff" points="342.96,-191.98 350.08,-184.14 339.62,-185.82 342.96,-191.98"/>
</a>
</g>
</g>
<!-- Node27 -->
<g id="Node000027" class="node">
<title>Node27</title>
<g id="a_Node000027"><a xlink:title=" ">
<polygon fill="#e0e0e0" stroke="#999999" points="136.53,-184 43.53,-184 43.53,-165 136.53,-165 136.53,-184"/>
<text text-anchor="middle" x="90.03" y="-172" font-family="Helvetica,sans-Serif" font-size="10.00">unordered_map</text>
</a>
</g>
</g>
<!-- Node21&#45;&gt;Node27 -->
<g id="edge42_Node000021_Node000027" class="edge">
<title>Node21&#45;&gt;Node27</title>
<g id="a_edge42_Node000021_Node000027"><a xlink:title=" ">
<path fill="none" stroke="#63b8ff" d="M217.79,-219.99C189.26,-210.05 151.39,-196.86 124.3,-187.43"/>
<polygon fill="#63b8ff" stroke="#63b8ff" points="125.44,-184.12 114.84,-184.14 123.14,-190.73 125.44,-184.12"/>
</a>
</g>
</g>
<!-- Node28 -->
<g id="Node000028" class="node">
<title>Node28</title>
<g id="a_Node000028"><a xlink:title=" ">
<polygon fill="#e0e0e0" stroke="#999999" points="219.53,-184 154.53,-184 154.53,-165 219.53,-165 219.53,-184"/>
<text text-anchor="middle" x="187.03" y="-172" font-family="Helvetica,sans-Serif" font-size="10.00">functional</text>
</a>
</g>
</g>
<!-- Node21&#45;&gt;Node28 -->
<g id="edge43_Node000021_Node000028" class="edge">
<title>Node21&#45;&gt;Node28</title>
<g id="a_edge43_Node000021_Node000028"><a xlink:title=" ">
<path fill="none" stroke="#63b8ff" d="M240.85,-219.84C230.23,-211.09 216.59,-199.85 205.71,-190.88"/>
<polygon fill="#63b8ff" stroke="#63b8ff" points="207.62,-187.92 197.67,-184.27 203.17,-193.33 207.62,-187.92"/>
</a>
</g>
</g>
<!-- Node29 -->
<g id="Node000029" class="node">
<title>Node29</title>
<g id="a_Node000029"><a xlink:title=" ">
<polygon fill="#e0e0e0" stroke="#999999" points="278.53,-184 237.53,-184 237.53,-165 278.53,-165 278.53,-184"/>
<text text-anchor="middle" x="258.03" y="-172" font-family="Helvetica,sans-Serif" font-size="10.00">tuple</text>
</a>
</g>
</g>
<!-- Node21&#45;&gt;Node29 -->
<g id="edge44_Node000021_Node000029" class="edge">
<title>Node21&#45;&gt;Node29</title>
<g id="a_edge44_Node000021_Node000029"><a xlink:title=" ">
<path fill="none" stroke="#63b8ff" d="M258.03,-219.84C258.03,-212.21 258.03,-202.7 258.03,-194.45"/>
<polygon fill="#63b8ff" stroke="#63b8ff" points="261.53,-194.27 258.03,-184.27 254.53,-194.27 261.53,-194.27"/>
</a>
</g>
</g>
<!-- Node23&#45;&gt;Node5 -->
<g id="edge33_Node000023_Node000005" class="edge">
<title>Node23&#45;&gt;Node5</title>
<g id="a_edge33_Node000023_Node000005"><a xlink:title=" ">
<path fill="none" stroke="#63b8ff" d="M524.44,-164.74C552.69,-138.42 637.05,-59.85 673.24,-26.14"/>
<polygon fill="#63b8ff" stroke="#63b8ff" points="675.65,-28.68 680.58,-19.31 670.88,-23.56 675.65,-28.68"/>
</a>
</g>
</g>
<!-- Node23&#45;&gt;Node10 -->
<g id="edge34_Node000023_Node000010" class="edge">
<title>Node23&#45;&gt;Node10</title>
<g id="a_edge34_Node000023_Node000010"><a xlink:title=" ">
<path fill="none" stroke="#63b8ff" d="M502.73,-164.85C492.48,-156.86 478.53,-143.98 472.03,-129 457.81,-96.21 460.11,-53.43 463.07,-29.27"/>
<polygon fill="#63b8ff" stroke="#63b8ff" points="466.55,-29.69 464.46,-19.3 459.61,-28.72 466.55,-29.69"/>
</a>
</g>
</g>
<!-- Node23&#45;&gt;Node22 -->
<g id="edge35_Node000023_Node000022" class="edge">
<title>Node23&#45;&gt;Node22</title>
<g id="a_edge35_Node000023_Node000022"><a xlink:title=" ">
<path fill="none" stroke="#63b8ff" d="M453.99,-166.13C370.88,-156.1 222.86,-138.23 138.84,-128.08"/>
<polygon fill="#63b8ff" stroke="#63b8ff" points="139.02,-124.58 128.67,-126.85 138.18,-131.53 139.02,-124.58"/>
</a>
</g>
</g>
<!-- Node23&#45;&gt;Node24 -->
<g id="edge36_Node000023_Node000024" class="edge">
<title>Node23&#45;&gt;Node24</title>
<g id="a_edge36_Node000023_Node000024"><a xlink:title=" ">
<path fill="none" stroke="#63b8ff" d="M482.42,-164.98C447.75,-155.93 392.77,-141.58 354.68,-131.64"/>
<polygon fill="#63b8ff" stroke="#63b8ff" points="355.47,-128.22 344.91,-129.08 353.7,-134.99 355.47,-128.22"/>
</a>
</g>
</g>
<!-- Node25 -->
<g id="Node000025" class="node">
<title>Node25</title>
<g id="a_Node000025"><a xlink:title=" ">
<polygon fill="#e0e0e0" stroke="#999999" points="540.53,-129 481.53,-129 481.53,-110 540.53,-110 540.53,-129"/>
<text text-anchor="middle" x="511.03" y="-117" font-family="Helvetica,sans-Serif" font-size="10.00">complex</text>
</a>
</g>
</g>
<!-- Node23&#45;&gt;Node25 -->
<g id="edge37_Node000023_Node000025" class="edge">
<title>Node23&#45;&gt;Node25</title>
<g id="a_edge37_Node000023_Node000025"><a xlink:title=" ">
<path fill="none" stroke="#63b8ff" d="M514.37,-164.75C513.85,-157.8 513.1,-147.85 512.44,-139.13"/>
<polygon fill="#63b8ff" stroke="#63b8ff" points="515.93,-138.8 511.68,-129.09 508.95,-139.32 515.93,-138.8"/>
</a>
</g>
</g>
<!-- Node30&#45;&gt;Node10 -->
<g id="edge47_Node000030_Node000010" class="edge">
<title>Node30&#45;&gt;Node10</title>
<g id="a_edge47_Node000030_Node000010"><a xlink:title=" ">
<path fill="none" stroke="#63b8ff" d="M730.73,-285.97C742.84,-266.98 770.03,-219.45 770.03,-175.5 770.03,-175.5 770.03,-175.5 770.03,-118.5 770.03,-66.31 608.91,-32.87 521.27,-18.54"/>
<polygon fill="#63b8ff" stroke="#63b8ff" points="521.65,-15.06 511.22,-16.93 520.54,-21.97 521.65,-15.06"/>
</a>
</g>
</g>
<!-- Node30&#45;&gt;Node31 -->
<g id="edge48_Node000030_Node000031" class="edge">
<title>Node30&#45;&gt;Node31</title>
<g id="a_edge48_Node000030_Node000031"><a xlink:title=" ">
<path fill="none" stroke="#63b8ff" d="M778.53,-285.99C830.79,-277.5 912.55,-263.78 983.03,-250 988.34,-248.96 993.87,-247.83 999.38,-246.67"/>
<polygon fill="#63b8ff" stroke="#63b8ff" points="1000.14,-250.09 1009.19,-244.57 998.68,-243.24 1000.14,-250.09"/>
</a>
</g>
</g>
<!-- Node30&#45;&gt;Node33 -->
<g id="edge53_Node000030_Node000033" class="edge">
<title>Node30&#45;&gt;Node33</title>
<g id="a_edge53_Node000030_Node000033"><a xlink:title=" ">
<path fill="none" stroke="#63b8ff" d="M719.43,-285.87C713.87,-277.31 705.2,-263.97 698.23,-253.24"/>
<polygon fill="#63b8ff" stroke="#63b8ff" points="701.05,-251.15 692.66,-244.67 695.18,-254.96 701.05,-251.15"/>
</a>
</g>
</g>
<!-- Node31&#45;&gt;Node3 -->
<g id="edge49_Node000031_Node000003" class="edge">
<title>Node31&#45;&gt;Node3</title>
<g id="a_edge49_Node000031_Node000003"><a xlink:title=" ">
<path fill="none" stroke="#63b8ff" d="M1022.07,-225.49C1003.76,-217.79 980.22,-204.46 969.03,-184 959.86,-167.23 974.19,-148.5 987.8,-135.76"/>
<polygon fill="#63b8ff" stroke="#63b8ff" points="990.31,-138.21 995.55,-129 985.71,-132.94 990.31,-138.21"/>
</a>
</g>
</g>
<!-- Node31&#45;&gt;Node16 -->
<g id="edge52_Node000031_Node000016" class="edge">
<title>Node31&#45;&gt;Node16</title>
<g id="a_edge52_Node000031_Node000016"><a xlink:title=" ">
<path fill="none" stroke="#63b8ff" d="M1041.13,-225.37C1035.28,-216.81 1026.16,-203.47 1018.82,-192.74"/>
<polygon fill="#63b8ff" stroke="#63b8ff" points="1021.49,-190.45 1012.96,-184.17 1015.72,-194.4 1021.49,-190.45"/>
</a>
</g>
</g>
<!-- Node31&#45;&gt;Node23 -->
<g id="edge50_Node000031_Node000023" class="edge">
<title>Node31&#45;&gt;Node23</title>
<g id="a_edge50_Node000031_Node000023"><a xlink:title=" ">
<path fill="none" stroke="#63b8ff" d="M1011.63,-225.46C1002.37,-223.44 992.36,-221.46 983.03,-220 908.55,-208.36 697.87,-190.34 586.33,-181.22"/>
<polygon fill="#63b8ff" stroke="#63b8ff" points="586.44,-177.72 576.18,-180.39 585.87,-184.69 586.44,-177.72"/>
</a>
</g>
</g>
<!-- Node32 -->
<g id="Node000032" class="node">
<title>Node32</title>
<g id="a_Node000032"><a xlink:title=" ">
<polygon fill="#e0e0e0" stroke="#999999" points="1284.03,-184 1240.03,-184 1240.03,-165 1284.03,-165 1284.03,-184"/>
<text text-anchor="middle" x="1262.03" y="-172" font-family="Helvetica,sans-Serif" font-size="10.00">string</text>
</a>
</g>
</g>
<!-- Node31&#45;&gt;Node32 -->
<g id="edge51_Node000031_Node000032" class="edge">
<title>Node31&#45;&gt;Node32</title>
<g id="a_edge51_Node000031_Node000032"><a xlink:title=" ">
<path fill="none" stroke="#63b8ff" d="M1078.3,-225.49C1118.88,-214.45 1189.33,-195.28 1230.2,-184.16"/>
<polygon fill="#63b8ff" stroke="#63b8ff" points="1231.18,-187.52 1239.91,-181.52 1229.34,-180.77 1231.18,-187.52"/>
</a>
</g>
</g>
<!-- Node34&#45;&gt;Node3 -->
<g id="edge55_Node000034_Node000003" class="edge">
<title>Node34&#45;&gt;Node3</title>
<g id="a_edge55_Node000034_Node000003"><a xlink:title=" ">
<path fill="none" stroke="#63b8ff" d="M907.08,-225.41C884.23,-212.69 848.24,-187.86 865.03,-165 885.03,-137.78 921.63,-126.76 952.66,-122.49"/>
<polygon fill="#63b8ff" stroke="#63b8ff" points="953.42,-125.92 962.94,-121.28 952.6,-118.97 953.42,-125.92"/>
</a>
</g>
</g>
<!-- Node34&#45;&gt;Node16 -->
<g id="edge56_Node000034_Node000016" class="edge">
<title>Node34&#45;&gt;Node16</title>
<g id="a_edge56_Node000034_Node000016"><a xlink:title=" ">
<path fill="none" stroke="#63b8ff" d="M936.28,-225.37C949.4,-216.12 970.45,-201.28 986.19,-190.19"/>
<polygon fill="#63b8ff" stroke="#63b8ff" points="988.58,-192.79 994.74,-184.17 984.55,-187.07 988.58,-192.79"/>
</a>
</g>
</g>
<!-- Node35&#45;&gt;Node19 -->
<g id="edge61_Node000035_Node000019" class="edge">
<title>Node35&#45;&gt;Node19</title>
<g id="a_edge61_Node000035_Node000019"><a xlink:title=" ">
<path fill="none" stroke="#63b8ff" d="M917.38,-395.98C904.2,-387.77 884.01,-375.18 868.47,-365.49"/>
<polygon fill="#63b8ff" stroke="#63b8ff" points="870.28,-362.49 859.94,-360.17 866.57,-368.43 870.28,-362.49"/>
</a>
</g>
</g>
<!-- Node38&#45;&gt;Node32 -->
<g id="edge66_Node000038_Node000032" class="edge">
<title>Node38&#45;&gt;Node32</title>
<g id="a_edge66_Node000038_Node000032"><a xlink:title=" ">
<path fill="none" stroke="#63b8ff" d="M1397.87,-340.89C1404.67,-318.45 1419.41,-257.38 1392.03,-220 1386.03,-211.8 1330.37,-194.79 1293.86,-184.34"/>
<polygon fill="#63b8ff" stroke="#63b8ff" points="1294.7,-180.94 1284.12,-181.57 1292.79,-187.67 1294.7,-180.94"/>
</a>
</g>
</g>
<!-- Node39&#45;&gt;Node4 -->
<g id="edge68_Node000039_Node000004" class="edge">
<title>Node39&#45;&gt;Node4</title>
<g id="a_edge68_Node000039_Node000004"><a xlink:title=" ">
<path fill="none" stroke="#63b8ff" d="M1506.2,-450.89C1520.02,-433.36 1549.03,-391.79 1549.03,-351.5 1549.03,-351.5 1549.03,-351.5 1549.03,-173.5 1549.03,-144.04 1552.89,-128.58 1530.03,-110 1493.57,-80.37 1176.42,-69.6 1054.5,-66.53"/>
<polygon fill="#63b8ff" stroke="#63b8ff" points="1054.43,-63.03 1044.35,-66.28 1054.26,-70.03 1054.43,-63.03"/>
</a>
</g>
</g>
</g>
</svg>

<g id="navigator" transform="translate(0 0)" fill="#404254">
  <rect fill="#f2f5e9" fill-opacity="0.5" stroke="#606060" stroke-width=".5" x="0" y="0" width="60" height="60"/>
  <use id="zoomplus" xlink:href="#zoomPlus" x="17" y="9" onmousedown="handleZoom(evt,'in')"/>
  <use id="zoomminus" xlink:href="#zoomMin" x="42" y="9" onmousedown="handleZoom(evt,'out')"/>
  <use id="reset" xlink:href="#resetDef" x="30" y="36" onmousedown="handleReset()"/>
   <use id="arrowup" xlink:href="#arrowUp" x="0" y="0" onmousedown="handlePan(0,-1)"/>
  <use id="arrowright" xlink:href="#arrowRight" x="0" y="0" onmousedown="handlePan(1,0)"/>
  <use id="arrowdown" xlink:href="#arrowDown" x="0" y="0" onmousedown="handlePan(0,1)"/>
  <use id="arrowleft" xlink:href="#arrowLeft" x="0" y="0" onmousedown="handlePan(-1,0)"/>
</g>
<svg viewBox="0 0 15 15" width="100%" height="30px" preserveAspectRatio="xMaxYMin meet">
 <g id="arrow_out" transform="scale(0.3 0.3)">
  <a xlink:href="sitkImageReaderBase_8h__incl_org.svg" target="_base">
   <rect id="button" ry="5" rx="5" y="6" x="6" height="38" width="38"
        fill="#f2f5e9" fill-opacity="0.5" stroke="#606060" stroke-width="1.0"/>
   <path id="arrow"
     d="M 11.500037,31.436501 C 11.940474,20.09759 22.043105,11.32322 32.158766,21.979434 L 37.068811,17.246167 C 37.068811,17.246167 37.088388,32 37.088388,32 L 22.160133,31.978069 C 22.160133,31.978069 26.997745,27.140456 26.997745,27.140456 C 18.528582,18.264221 13.291696,25.230495 11.500037,31.436501 z"
     style="fill:#404040;"/>
  </a>
 </g>
</svg>

<style type='text/css'>
<![CDATA[
[data-mouse-over-selected='false'] { opacity: 0.7; }
[data-mouse-over-selected='true']  { opacity: 1.0; }
]]>
</style>
<script type="application/ecmascript"><![CDATA[
document.addEventListener('DOMContentLoaded', (event) => {
  highlightEdges();
  highlightAdjacentNodes();
});
]]></script>
</svg>
