<?xml version="1.0" encoding="UTF-8" standalone="no"?>
<!DOCTYPE svg PUBLIC "-//W3C//DTD SVG 1.1//EN"
 "http://www.w3.org/Graphics/SVG/1.1/DTD/svg11.dtd">
<!-- Generated by graphviz version 2.43.0 (0)
 -->
<!-- Title: sitkExplicitITKVectorImage.h Pages: 1 -->
<svg width="450pt" height="192pt"
 viewBox="0.00 0.00 449.50 192.00" xmlns="http://www.w3.org/2000/svg" xmlns:xlink="http://www.w3.org/1999/xlink">
<g id="graph0" class="graph" transform="scale(1 1) rotate(0) translate(4 188)">
<title>sitkExplicitITKVectorImage.h</title>
<!-- Node1 -->
<g id="Node000001" class="node">
<title>Node1</title>
<g id="a_Node000001"><a xlink:title=" ">
<polygon fill="#999999" stroke="#666666" points="340,-184 183,-184 183,-165 340,-165 340,-184"/>
<text text-anchor="middle" x="261.5" y="-172" font-family="Helvetica,sans-Serif" font-size="10.00">sitkExplicitITKVectorImage.h</text>
</a>
</g>
</g>
<!-- Node2 -->
<g id="Node000002" class="node">
<title>Node2</title>
<g id="a_Node000002"><a xlink:href="sitkExplicit_8h.html" target="_top" xlink:title=" ">
<polygon fill="white" stroke="#666666" points="247.5,-129 167.5,-129 167.5,-110 247.5,-110 247.5,-129"/>
<text text-anchor="middle" x="207.5" y="-117" font-family="Helvetica,sans-Serif" font-size="10.00">sitkExplicit.h</text>
</a>
</g>
</g>
<!-- Node1&#45;&gt;Node2 -->
<g id="edge1_Node000001_Node000002" class="edge">
<title>Node1&#45;&gt;Node2</title>
<g id="a_edge1_Node000001_Node000002"><a xlink:title=" ">
<path fill="none" stroke="#63b8ff" d="M252.58,-164.75C244.72,-157.03 233.07,-145.6 223.58,-136.28"/>
<polygon fill="#63b8ff" stroke="#63b8ff" points="225.84,-133.6 216.25,-129.09 220.94,-138.59 225.84,-133.6"/>
</a>
</g>
</g>
<!-- Node10 -->
<g id="Node000010" class="node">
<title>Node10</title>
<g id="a_Node000010"><a target="_parent" xlink:href="https://www.itk.org/Doxygen/html/itkVectorImage_8h.html" xlink:title=" ">
<polygon fill="white" stroke="#666666" points="365.5,-129 265.5,-129 265.5,-110 365.5,-110 365.5,-129"/>
<text text-anchor="middle" x="315.5" y="-117" font-family="Helvetica,sans-Serif" font-size="10.00">itkVectorImage.h</text>
</a>
</g>
</g>
<!-- Node1&#45;&gt;Node10 -->
<g id="edge9_Node000001_Node000010" class="edge">
<title>Node1&#45;&gt;Node10</title>
<g id="a_edge9_Node000001_Node000010"><a xlink:title=" ">
<path fill="none" stroke="#63b8ff" d="M270.42,-164.75C278.28,-157.03 289.93,-145.6 299.42,-136.28"/>
<polygon fill="#63b8ff" stroke="#63b8ff" points="302.06,-138.59 306.75,-129.09 297.16,-133.6 302.06,-138.59"/>
</a>
</g>
</g>
<!-- Node3 -->
<g id="Node000003" class="node">
<title>Node3</title>
<g id="a_Node000003"><a xlink:href="sitkMacro_8h.html" target="_top" xlink:title=" ">
<polygon fill="white" stroke="#666666" points="244.5,-74 170.5,-74 170.5,-55 244.5,-55 244.5,-74"/>
<text text-anchor="middle" x="207.5" y="-62" font-family="Helvetica,sans-Serif" font-size="10.00">sitkMacro.h</text>
</a>
</g>
</g>
<!-- Node2&#45;&gt;Node3 -->
<g id="edge2_Node000002_Node000003" class="edge">
<title>Node2&#45;&gt;Node3</title>
<g id="a_edge2_Node000002_Node000003"><a xlink:title=" ">
<path fill="none" stroke="#63b8ff" d="M207.5,-109.75C207.5,-102.8 207.5,-92.85 207.5,-84.13"/>
<polygon fill="#63b8ff" stroke="#63b8ff" points="211,-84.09 207.5,-74.09 204,-84.09 211,-84.09"/>
</a>
</g>
</g>
<!-- Node4 -->
<g id="Node000004" class="node">
<title>Node4</title>
<g id="a_Node000004"><a xlink:title=" ">
<polygon fill="#e0e0e0" stroke="#999999" points="53,-19 0,-19 0,0 53,0 53,-19"/>
<text text-anchor="middle" x="26.5" y="-7" font-family="Helvetica,sans-Serif" font-size="10.00">stdint.h</text>
</a>
</g>
</g>
<!-- Node3&#45;&gt;Node4 -->
<g id="edge3_Node000003_Node000004" class="edge">
<title>Node3&#45;&gt;Node4</title>
<g id="a_edge3_Node000003_Node000004"><a xlink:title=" ">
<path fill="none" stroke="#63b8ff" d="M178.42,-54.98C147.08,-45.81 97.15,-31.19 63.15,-21.23"/>
<polygon fill="#63b8ff" stroke="#63b8ff" points="63.73,-17.75 53.15,-18.3 61.76,-24.47 63.73,-17.75"/>
</a>
</g>
</g>
<!-- Node5 -->
<g id="Node000005" class="node">
<title>Node5</title>
<g id="a_Node000005"><a xlink:title=" ">
<polygon fill="#e0e0e0" stroke="#999999" points="127.5,-19 71.5,-19 71.5,0 127.5,0 127.5,-19"/>
<text text-anchor="middle" x="99.5" y="-7" font-family="Helvetica,sans-Serif" font-size="10.00">stddef.h</text>
</a>
</g>
</g>
<!-- Node3&#45;&gt;Node5 -->
<g id="edge4_Node000003_Node000005" class="edge">
<title>Node3&#45;&gt;Node5</title>
<g id="a_edge4_Node000003_Node000005"><a xlink:title=" ">
<path fill="none" stroke="#63b8ff" d="M190.15,-54.98C172.93,-46.54 146.3,-33.47 126.35,-23.68"/>
<polygon fill="#63b8ff" stroke="#63b8ff" points="127.69,-20.43 117.17,-19.17 124.6,-26.72 127.69,-20.43"/>
</a>
</g>
</g>
<!-- Node6 -->
<g id="Node000006" class="node">
<title>Node6</title>
<g id="a_Node000006"><a xlink:title=" ">
<polygon fill="#e0e0e0" stroke="#999999" points="197.5,-19 145.5,-19 145.5,0 197.5,0 197.5,-19"/>
<text text-anchor="middle" x="171.5" y="-7" font-family="Helvetica,sans-Serif" font-size="10.00">cassert</text>
</a>
</g>
</g>
<!-- Node3&#45;&gt;Node6 -->
<g id="edge5_Node000003_Node000006" class="edge">
<title>Node3&#45;&gt;Node6</title>
<g id="a_edge5_Node000003_Node000006"><a xlink:title=" ">
<path fill="none" stroke="#63b8ff" d="M201.56,-54.75C196.52,-47.34 189.16,-36.5 182.99,-27.41"/>
<polygon fill="#63b8ff" stroke="#63b8ff" points="185.85,-25.39 177.33,-19.09 180.06,-29.33 185.85,-25.39"/>
</a>
</g>
</g>
<!-- Node7 -->
<g id="Node000007" class="node">
<title>Node7</title>
<g id="a_Node000007"><a xlink:title=" ">
<polygon fill="#e0e0e0" stroke="#999999" points="271.5,-19 215.5,-19 215.5,0 271.5,0 271.5,-19"/>
<text text-anchor="middle" x="243.5" y="-7" font-family="Helvetica,sans-Serif" font-size="10.00">sstream</text>
</a>
</g>
</g>
<!-- Node3&#45;&gt;Node7 -->
<g id="edge6_Node000003_Node000007" class="edge">
<title>Node3&#45;&gt;Node7</title>
<g id="a_edge6_Node000003_Node000007"><a xlink:title=" ">
<path fill="none" stroke="#63b8ff" d="M213.44,-54.75C218.48,-47.34 225.84,-36.5 232.01,-27.41"/>
<polygon fill="#63b8ff" stroke="#63b8ff" points="234.94,-29.33 237.67,-19.09 229.15,-25.39 234.94,-29.33"/>
</a>
</g>
</g>
<!-- Node8 -->
<g id="Node000008" class="node">
<title>Node8</title>
<g id="a_Node000008"><a xlink:title=" ">
<polygon fill="#e0e0e0" stroke="#999999" points="333.5,-19 289.5,-19 289.5,0 333.5,0 333.5,-19"/>
<text text-anchor="middle" x="311.5" y="-7" font-family="Helvetica,sans-Serif" font-size="10.00">limits</text>
</a>
</g>
</g>
<!-- Node3&#45;&gt;Node8 -->
<g id="edge7_Node000003_Node000008" class="edge">
<title>Node3&#45;&gt;Node8</title>
<g id="a_edge7_Node000003_Node000008"><a xlink:title=" ">
<path fill="none" stroke="#63b8ff" d="M224.21,-54.98C240.71,-46.57 266.2,-33.59 285.38,-23.81"/>
<polygon fill="#63b8ff" stroke="#63b8ff" points="287.17,-26.83 294.49,-19.17 283.99,-20.59 287.17,-26.83"/>
</a>
</g>
</g>
<!-- Node9 -->
<g id="Node000009" class="node">
<title>Node9</title>
<g id="a_Node000009"><a xlink:href="sitkConfigure_8h.html" target="_top" xlink:title=" ">
<polygon fill="white" stroke="#666666" points="441.5,-19 351.5,-19 351.5,0 441.5,0 441.5,-19"/>
<text text-anchor="middle" x="396.5" y="-7" font-family="Helvetica,sans-Serif" font-size="10.00">sitkConfigure.h</text>
</a>
</g>
</g>
<!-- Node3&#45;&gt;Node9 -->
<g id="edge8_Node000003_Node000009" class="edge">
<title>Node3&#45;&gt;Node9</title>
<g id="a_edge8_Node000003_Node000009"><a xlink:title=" ">
<path fill="none" stroke="#63b8ff" d="M237.87,-54.98C269.87,-46.01 320.46,-31.82 355.88,-21.89"/>
<polygon fill="#63b8ff" stroke="#63b8ff" points="357.21,-25.15 365.9,-19.08 355.32,-18.41 357.21,-25.15"/>
</a>
</g>
</g>
</g>
</svg>
