<?xml version="1.0" encoding="UTF-8" standalone="no"?>
<!DOCTYPE svg PUBLIC "-//W3C//DTD SVG 1.1//EN"
 "http://www.w3.org/Graphics/SVG/1.1/DTD/svg11.dtd">
<!-- Generated by graphviz version 2.43.0 (0)
 -->
<!-- Title: sitkPatchBasedDenoisingImageFilter.h Pages: 1 -->
<svg width="537pt" height="159pt"
 viewBox="0.00 0.00 537.00 159.00" xmlns="http://www.w3.org/2000/svg" xmlns:xlink="http://www.w3.org/1999/xlink">
<g id="graph0" class="graph" transform="scale(1 1) rotate(0) translate(4 155)">
<title>sitkPatchBasedDenoisingImageFilter.h</title>
<!-- Node1 -->
<g id="Node000001" class="node">
<title>Node1</title>
<g id="a_Node000001"><a xlink:title=" ">
<polygon fill="#999999" stroke="#666666" points="362.5,-151 192.5,-151 192.5,-121 362.5,-121 362.5,-151"/>
<text text-anchor="start" x="200.5" y="-139" font-family="Helvetica,sans-Serif" font-size="10.00">sitkPatchBasedDenoisingImage</text>
<text text-anchor="middle" x="277.5" y="-128" font-family="Helvetica,sans-Serif" font-size="10.00">Filter.h</text>
</a>
</g>
</g>
<!-- Node2 -->
<g id="Node000002" class="node">
<title>Node2</title>
<g id="a_Node000002"><a xlink:href="CMakeTmp_2SimpleITKBasicFiltersGeneratedHeaders_8h.html" target="_top" xlink:title=" ">
<polygon fill="white" stroke="#666666" points="173,-85 0,-85 0,-55 173,-55 173,-85"/>
<text text-anchor="start" x="8" y="-73" font-family="Helvetica,sans-Serif" font-size="10.00">SimpleITKBasicFiltersGenerated</text>
<text text-anchor="middle" x="86.5" y="-62" font-family="Helvetica,sans-Serif" font-size="10.00">Headers.h</text>
</a>
</g>
</g>
<!-- Node1&#45;&gt;Node2 -->
<g id="edge1_Node000001_Node000002" class="edge">
<title>Node1&#45;&gt;Node2</title>
<g id="a_edge1_Node000001_Node000002"><a xlink:title=" ">
<path fill="none" stroke="#63b8ff" d="M225.94,-117.72C195.34,-107.47 157.03,-94.63 128.32,-85.01"/>
<polygon fill="#63b8ff" stroke="#63b8ff" points="224.99,-121.1 235.58,-120.95 227.21,-114.46 224.99,-121.1"/>
</a>
</g>
</g>
<!-- Node3 -->
<g id="Node000003" class="node">
<title>Node3</title>
<g id="a_Node000003"><a xlink:href="include_2SimpleITKBasicFiltersGeneratedHeaders_8h.html" target="_top" xlink:title=" ">
<polygon fill="white" stroke="#666666" points="364,-85 191,-85 191,-55 364,-55 364,-85"/>
<text text-anchor="start" x="199" y="-73" font-family="Helvetica,sans-Serif" font-size="10.00">SimpleITKBasicFiltersGenerated</text>
<text text-anchor="middle" x="277.5" y="-62" font-family="Helvetica,sans-Serif" font-size="10.00">Headers.h</text>
</a>
</g>
</g>
<!-- Node1&#45;&gt;Node3 -->
<g id="edge2_Node000001_Node000003" class="edge">
<title>Node1&#45;&gt;Node3</title>
<g id="a_edge2_Node000001_Node000003"><a xlink:title=" ">
<path fill="none" stroke="#63b8ff" d="M277.5,-110.54C277.5,-101.96 277.5,-92.61 277.5,-85.16"/>
<polygon fill="#63b8ff" stroke="#63b8ff" points="274,-110.8 277.5,-120.8 281,-110.8 274,-110.8"/>
</a>
</g>
</g>
<!-- Node4 -->
<g id="Node000004" class="node">
<title>Node4</title>
<g id="a_Node000004"><a xlink:href="sitkAdditionalProcedures_8h.html" target="_top" xlink:title=" ">
<polygon fill="white" stroke="#666666" points="529,-79.5 382,-79.5 382,-60.5 529,-60.5 529,-79.5"/>
<text text-anchor="middle" x="455.5" y="-67.5" font-family="Helvetica,sans-Serif" font-size="10.00">sitkAdditionalProcedures.h</text>
</a>
</g>
</g>
<!-- Node1&#45;&gt;Node4 -->
<g id="edge3_Node000001_Node000004" class="edge">
<title>Node1&#45;&gt;Node4</title>
<g id="a_edge3_Node000001_Node000004"><a xlink:title=" ">
<path fill="none" stroke="#63b8ff" d="M326.4,-117.42C360.69,-105.09 405.03,-89.15 431.81,-79.52"/>
<polygon fill="#63b8ff" stroke="#63b8ff" points="324.79,-114.28 316.56,-120.95 327.16,-120.86 324.79,-114.28"/>
</a>
</g>
</g>
<!-- Node5 -->
<g id="Node000005" class="node">
<title>Node5</title>
<g id="a_Node000005"><a xlink:href="SimpleITK_8h.html" target="_top" xlink:title=" ">
<polygon fill="white" stroke="#666666" points="493,-19 418,-19 418,0 493,0 493,-19"/>
<text text-anchor="middle" x="455.5" y="-7" font-family="Helvetica,sans-Serif" font-size="10.00">SimpleITK.h</text>
</a>
</g>
</g>
<!-- Node4&#45;&gt;Node5 -->
<g id="edge4_Node000004_Node000005" class="edge">
<title>Node4&#45;&gt;Node5</title>
<g id="a_edge4_Node000004_Node000005"><a xlink:title=" ">
<path fill="none" stroke="#63b8ff" d="M455.5,-50.16C455.5,-39.74 455.5,-27.3 455.5,-19.17"/>
<polygon fill="#63b8ff" stroke="#63b8ff" points="452,-50.37 455.5,-60.37 459,-50.37 452,-50.37"/>
</a>
</g>
</g>
</g>
</svg>
