<?xml version="1.0" encoding="UTF-8" standalone="no"?>
<!DOCTYPE svg PUBLIC "-//W3C//DTD SVG 1.1//EN"
 "http://www.w3.org/Graphics/SVG/1.1/DTD/svg11.dtd">
<!-- Generated by graphviz version 2.43.0 (0)
 -->
<!-- Title: sitkDetail.h Pages: 1 -->
<svg width="821pt" height="313pt"
 viewBox="0.00 0.00 821.00 313.00" xmlns="http://www.w3.org/2000/svg" xmlns:xlink="http://www.w3.org/1999/xlink">
<g id="graph0" class="graph" transform="scale(1 1) rotate(0) translate(4 309)">
<title>sitkDetail.h</title>
<!-- Node1 -->
<g id="Node000001" class="node">
<title>Node1</title>
<g id="a_Node000001"><a xlink:title=" ">
<polygon fill="#999999" stroke="#666666" points="507,-305 434,-305 434,-286 507,-286 507,-305"/>
<text text-anchor="middle" x="470.5" y="-293" font-family="Helvetica,sans-Serif" font-size="10.00">sitkDetail.h</text>
</a>
</g>
</g>
<!-- Node2 -->
<g id="Node000002" class="node">
<title>Node2</title>
<g id="a_Node000002"><a xlink:href="sitkMemberFunctionFactoryBase_8h.html" target="_top" xlink:title=" ">
<polygon fill="white" stroke="#666666" points="494.5,-250 342.5,-250 342.5,-220 494.5,-220 494.5,-250"/>
<text text-anchor="start" x="350.5" y="-238" font-family="Helvetica,sans-Serif" font-size="10.00">sitkMemberFunctionFactory</text>
<text text-anchor="middle" x="418.5" y="-227" font-family="Helvetica,sans-Serif" font-size="10.00">Base.h</text>
</a>
</g>
</g>
<!-- Node1&#45;&gt;Node2 -->
<g id="edge1_Node000001_Node000002" class="edge">
<title>Node1&#45;&gt;Node2</title>
<g id="a_edge1_Node000001_Node000002"><a xlink:title=" ">
<path fill="none" stroke="#63b8ff" d="M462.83,-285.87C456.23,-278.44 446.43,-267.42 437.72,-257.62"/>
<polygon fill="#63b8ff" stroke="#63b8ff" points="440.31,-255.26 431.05,-250.11 435.07,-259.91 440.31,-255.26"/>
</a>
</g>
</g>
<!-- Node16 -->
<g id="Node000016" class="node">
<title>Node16</title>
<g id="a_Node000016"><a xlink:title=" ">
<polygon fill="#e0e0e0" stroke="#999999" points="813,-184 674,-184 674,-165 813,-165 813,-184"/>
<text text-anchor="middle" x="743.5" y="-172" font-family="Helvetica,sans-Serif" font-size="10.00">Ancillary/FunctionTraits.h</text>
</a>
</g>
</g>
<!-- Node1&#45;&gt;Node16 -->
<g id="edge25_Node000001_Node000016" class="edge">
<title>Node1&#45;&gt;Node16</title>
<g id="a_edge25_Node000001_Node000016"><a xlink:title=" ">
<path fill="none" stroke="#63b8ff" d="M490.13,-285.94C537.54,-265.28 658.44,-212.58 714.34,-188.21"/>
<polygon fill="#63b8ff" stroke="#63b8ff" points="715.91,-191.34 723.68,-184.14 713.11,-184.93 715.91,-191.34"/>
</a>
</g>
</g>
<!-- Node3 -->
<g id="Node000003" class="node">
<title>Node3</title>
<g id="a_Node000003"><a xlink:href="sitkConfigure_8h.html" target="_top" xlink:title=" ">
<polygon fill="white" stroke="#666666" points="514.5,-19 424.5,-19 424.5,0 514.5,0 514.5,-19"/>
<text text-anchor="middle" x="469.5" y="-7" font-family="Helvetica,sans-Serif" font-size="10.00">sitkConfigure.h</text>
</a>
</g>
</g>
<!-- Node2&#45;&gt;Node3 -->
<g id="edge2_Node000002_Node000003" class="edge">
<title>Node2&#45;&gt;Node3</title>
<g id="a_edge2_Node000002_Node000003"><a xlink:title=" ">
<path fill="none" stroke="#63b8ff" d="M494.65,-229.87C532.1,-224.14 575.52,-211.47 605.5,-184 624.68,-166.43 620.99,-154.62 625.5,-129 635.6,-71.69 562.52,-38.06 512.93,-22.05"/>
<polygon fill="#63b8ff" stroke="#63b8ff" points="513.95,-18.7 503.36,-19.08 511.87,-25.38 513.95,-18.7"/>
</a>
</g>
</g>
<!-- Node4 -->
<g id="Node000004" class="node">
<title>Node4</title>
<g id="a_Node000004"><a xlink:href="sitkPixelIDTypes_8h.html" target="_top" xlink:title=" ">
<polygon fill="white" stroke="#666666" points="288,-129 183,-129 183,-110 288,-110 288,-129"/>
<text text-anchor="middle" x="235.5" y="-117" font-family="Helvetica,sans-Serif" font-size="10.00">sitkPixelIDTypes.h</text>
</a>
</g>
</g>
<!-- Node2&#45;&gt;Node4 -->
<g id="edge3_Node000002_Node000004" class="edge">
<title>Node2&#45;&gt;Node4</title>
<g id="a_edge3_Node000002_Node000004"><a xlink:title=" ">
<path fill="none" stroke="#63b8ff" d="M342.38,-227.1C284.93,-220.13 212.94,-207.01 194.5,-184 181.92,-168.3 199.1,-148.64 214.92,-135.38"/>
<polygon fill="#63b8ff" stroke="#63b8ff" points="217.21,-138.03 222.9,-129.09 212.88,-132.54 217.21,-138.03"/>
</a>
</g>
</g>
<!-- Node5 -->
<g id="Node000005" class="node">
<title>Node5</title>
<g id="a_Node000005"><a xlink:href="sitkPixelIDTypeLists_8h.html" target="_top" xlink:title=" ">
<polygon fill="white" stroke="#666666" points="579.5,-184 457.5,-184 457.5,-165 579.5,-165 579.5,-184"/>
<text text-anchor="middle" x="518.5" y="-172" font-family="Helvetica,sans-Serif" font-size="10.00">sitkPixelIDTypeLists.h</text>
</a>
</g>
</g>
<!-- Node2&#45;&gt;Node5 -->
<g id="edge4_Node000002_Node000005" class="edge">
<title>Node2&#45;&gt;Node5</title>
<g id="a_edge4_Node000002_Node000005"><a xlink:title=" ">
<path fill="none" stroke="#63b8ff" d="M442.45,-219.99C458.39,-210.66 479.23,-198.47 495.06,-189.21"/>
<polygon fill="#63b8ff" stroke="#63b8ff" points="496.87,-192.21 503.73,-184.14 493.33,-186.17 496.87,-192.21"/>
</a>
</g>
</g>
<!-- Node7 -->
<g id="Node000007" class="node">
<title>Node7</title>
<g id="a_Node000007"><a xlink:title=" ">
<polygon fill="#e0e0e0" stroke="#999999" points="617,-129 498,-129 498,-110 617,-110 617,-129"/>
<text text-anchor="middle" x="557.5" y="-117" font-family="Helvetica,sans-Serif" font-size="10.00">Ancillary/type_list2.h</text>
</a>
</g>
</g>
<!-- Node2&#45;&gt;Node7 -->
<g id="edge20_Node000002_Node000007" class="edge">
<title>Node2&#45;&gt;Node7</title>
<g id="a_edge20_Node000002_Node000007"><a xlink:title=" ">
<path fill="none" stroke="#63b8ff" d="M494.65,-220.82C534.2,-212.26 576.7,-199.76 588.5,-184 599.56,-169.22 586.91,-149.88 574.6,-136.44"/>
<polygon fill="#63b8ff" stroke="#63b8ff" points="577.08,-133.97 567.57,-129.29 572.09,-138.88 577.08,-133.97"/>
</a>
</g>
</g>
<!-- Node9 -->
<g id="Node000009" class="node">
<title>Node9</title>
<g id="a_Node000009"><a xlink:href="sitkMacro_8h.html" target="_top" xlink:title=" ">
<polygon fill="white" stroke="#666666" points="193.5,-74 119.5,-74 119.5,-55 193.5,-55 193.5,-74"/>
<text text-anchor="middle" x="156.5" y="-62" font-family="Helvetica,sans-Serif" font-size="10.00">sitkMacro.h</text>
</a>
</g>
</g>
<!-- Node2&#45;&gt;Node9 -->
<g id="edge10_Node000002_Node000009" class="edge">
<title>Node2&#45;&gt;Node9</title>
<g id="a_edge10_Node000002_Node000009"><a xlink:title=" ">
<path fill="none" stroke="#63b8ff" d="M342.37,-226.27C283.56,-218.76 208.59,-205.31 186.5,-184 159.23,-157.69 155.41,-110.42 155.59,-84.24"/>
<polygon fill="#63b8ff" stroke="#63b8ff" points="159.09,-84.23 155.87,-74.14 152.09,-84.04 159.09,-84.23"/>
</a>
</g>
</g>
<!-- Node14 -->
<g id="Node000014" class="node">
<title>Node14</title>
<g id="a_Node000014"><a xlink:href="sitkNonCopyable_8h.html" target="_top" xlink:title=" ">
<polygon fill="white" stroke="#666666" points="109,-184 0,-184 0,-165 109,-165 109,-184"/>
<text text-anchor="middle" x="54.5" y="-172" font-family="Helvetica,sans-Serif" font-size="10.00">sitkNonCopyable.h</text>
</a>
</g>
</g>
<!-- Node2&#45;&gt;Node14 -->
<g id="edge17_Node000002_Node000014" class="edge">
<title>Node2&#45;&gt;Node14</title>
<g id="a_edge17_Node000002_Node000014"><a xlink:title=" ">
<path fill="none" stroke="#63b8ff" d="M342.19,-221.74C275.55,-211.03 179.96,-195.66 117.56,-185.63"/>
<polygon fill="#63b8ff" stroke="#63b8ff" points="117.89,-182.14 107.46,-184.01 116.77,-189.05 117.89,-182.14"/>
</a>
</g>
</g>
<!-- Node2&#45;&gt;Node16 -->
<g id="edge21_Node000002_Node000016" class="edge">
<title>Node2&#45;&gt;Node16</title>
<g id="a_edge21_Node000002_Node000016"><a xlink:title=" ">
<path fill="none" stroke="#63b8ff" d="M494.7,-220.28C553.22,-209.75 632.77,-195.43 686.01,-185.85"/>
<polygon fill="#63b8ff" stroke="#63b8ff" points="686.74,-189.27 695.96,-184.06 685.5,-182.38 686.74,-189.27"/>
</a>
</g>
</g>
<!-- Node17 -->
<g id="Node000017" class="node">
<title>Node17</title>
<g id="a_Node000017"><a xlink:title=" ">
<polygon fill="#e0e0e0" stroke="#999999" points="297,-184 204,-184 204,-165 297,-165 297,-184"/>
<text text-anchor="middle" x="250.5" y="-172" font-family="Helvetica,sans-Serif" font-size="10.00">unordered_map</text>
</a>
</g>
</g>
<!-- Node2&#45;&gt;Node17 -->
<g id="edge22_Node000002_Node000017" class="edge">
<title>Node2&#45;&gt;Node17</title>
<g id="a_edge22_Node000002_Node000017"><a xlink:title=" ">
<path fill="none" stroke="#63b8ff" d="M378.26,-219.99C349.73,-210.05 311.85,-196.86 284.77,-187.43"/>
<polygon fill="#63b8ff" stroke="#63b8ff" points="285.9,-184.12 275.31,-184.14 283.6,-190.73 285.9,-184.12"/>
</a>
</g>
</g>
<!-- Node18 -->
<g id="Node000018" class="node">
<title>Node18</title>
<g id="a_Node000018"><a xlink:title=" ">
<polygon fill="#e0e0e0" stroke="#999999" points="380,-184 315,-184 315,-165 380,-165 380,-184"/>
<text text-anchor="middle" x="347.5" y="-172" font-family="Helvetica,sans-Serif" font-size="10.00">functional</text>
</a>
</g>
</g>
<!-- Node2&#45;&gt;Node18 -->
<g id="edge23_Node000002_Node000018" class="edge">
<title>Node2&#45;&gt;Node18</title>
<g id="a_edge23_Node000002_Node000018"><a xlink:title=" ">
<path fill="none" stroke="#63b8ff" d="M401.31,-219.84C390.69,-211.09 377.06,-199.85 366.17,-190.88"/>
<polygon fill="#63b8ff" stroke="#63b8ff" points="368.08,-187.92 358.14,-184.27 363.63,-193.33 368.08,-187.92"/>
</a>
</g>
</g>
<!-- Node19 -->
<g id="Node000019" class="node">
<title>Node19</title>
<g id="a_Node000019"><a xlink:title=" ">
<polygon fill="#e0e0e0" stroke="#999999" points="439,-184 398,-184 398,-165 439,-165 439,-184"/>
<text text-anchor="middle" x="418.5" y="-172" font-family="Helvetica,sans-Serif" font-size="10.00">tuple</text>
</a>
</g>
</g>
<!-- Node2&#45;&gt;Node19 -->
<g id="edge24_Node000002_Node000019" class="edge">
<title>Node2&#45;&gt;Node19</title>
<g id="a_edge24_Node000002_Node000019"><a xlink:title=" ">
<path fill="none" stroke="#63b8ff" d="M418.5,-219.84C418.5,-212.21 418.5,-202.7 418.5,-194.45"/>
<polygon fill="#63b8ff" stroke="#63b8ff" points="422,-194.27 418.5,-184.27 415,-194.27 422,-194.27"/>
</a>
</g>
</g>
<!-- Node5&#45;&gt;Node3 -->
<g id="edge6_Node000005_Node000003" class="edge">
<title>Node5&#45;&gt;Node3</title>
<g id="a_edge6_Node000005_Node000003"><a xlink:title=" ">
<path fill="none" stroke="#63b8ff" d="M511.05,-164.95C504.07,-156.43 493.91,-142.69 488.5,-129 475.28,-95.52 471.25,-53.27 470.03,-29.33"/>
<polygon fill="#63b8ff" stroke="#63b8ff" points="473.52,-29.02 469.62,-19.16 466.52,-29.3 473.52,-29.02"/>
</a>
</g>
</g>
<!-- Node5&#45;&gt;Node4 -->
<g id="edge7_Node000005_Node000004" class="edge">
<title>Node5&#45;&gt;Node4</title>
<g id="a_edge7_Node000005_Node000004"><a xlink:title=" ">
<path fill="none" stroke="#63b8ff" d="M473.03,-164.98C423.56,-155.72 344.45,-140.9 291.27,-130.94"/>
<polygon fill="#63b8ff" stroke="#63b8ff" points="291.8,-127.48 281.33,-129.08 290.51,-134.36 291.8,-127.48"/>
</a>
</g>
</g>
<!-- Node6 -->
<g id="Node000006" class="node">
<title>Node6</title>
<g id="a_Node000006"><a xlink:title=" ">
<polygon fill="#e0e0e0" stroke="#999999" points="365,-19 312,-19 312,0 365,0 365,-19"/>
<text text-anchor="middle" x="338.5" y="-7" font-family="Helvetica,sans-Serif" font-size="10.00">stdint.h</text>
</a>
</g>
</g>
<!-- Node5&#45;&gt;Node6 -->
<g id="edge5_Node000005_Node000006" class="edge">
<title>Node5&#45;&gt;Node6</title>
<g id="a_edge5_Node000005_Node000006"><a xlink:title=" ">
<path fill="none" stroke="#63b8ff" d="M474.62,-164.94C437.06,-156.78 386.86,-143.59 372.5,-129 345.82,-101.88 339.8,-55.28 338.61,-29.33"/>
<polygon fill="#63b8ff" stroke="#63b8ff" points="342.1,-28.92 338.35,-19.01 335.1,-29.1 342.1,-28.92"/>
</a>
</g>
</g>
<!-- Node5&#45;&gt;Node7 -->
<g id="edge8_Node000005_Node000007" class="edge">
<title>Node5&#45;&gt;Node7</title>
<g id="a_edge8_Node000005_Node000007"><a xlink:title=" ">
<path fill="none" stroke="#63b8ff" d="M524.94,-164.75C530.39,-157.34 538.36,-146.5 545.06,-137.41"/>
<polygon fill="#63b8ff" stroke="#63b8ff" points="548.07,-139.22 551.18,-129.09 542.43,-135.07 548.07,-139.22"/>
</a>
</g>
</g>
<!-- Node8 -->
<g id="Node000008" class="node">
<title>Node8</title>
<g id="a_Node000008"><a xlink:title=" ">
<polygon fill="#e0e0e0" stroke="#999999" points="441,-129 382,-129 382,-110 441,-110 441,-129"/>
<text text-anchor="middle" x="411.5" y="-117" font-family="Helvetica,sans-Serif" font-size="10.00">complex</text>
</a>
</g>
</g>
<!-- Node5&#45;&gt;Node8 -->
<g id="edge9_Node000005_Node000008" class="edge">
<title>Node5&#45;&gt;Node8</title>
<g id="a_edge9_Node000005_Node000008"><a xlink:title=" ">
<path fill="none" stroke="#63b8ff" d="M501.31,-164.98C484.25,-156.54 457.87,-143.47 438.1,-133.68"/>
<polygon fill="#63b8ff" stroke="#63b8ff" points="439.52,-130.47 429,-129.17 436.41,-136.75 439.52,-130.47"/>
</a>
</g>
</g>
<!-- Node9&#45;&gt;Node3 -->
<g id="edge16_Node000009_Node000003" class="edge">
<title>Node9&#45;&gt;Node3</title>
<g id="a_edge16_Node000009_Node000003"><a xlink:title=" ">
<path fill="none" stroke="#63b8ff" d="M193.63,-57.21C248.24,-47.97 350.59,-30.63 414.1,-19.88"/>
<polygon fill="#63b8ff" stroke="#63b8ff" points="415.06,-23.27 424.33,-18.15 413.89,-16.37 415.06,-23.27"/>
</a>
</g>
</g>
<!-- Node9&#45;&gt;Node6 -->
<g id="edge11_Node000009_Node000006" class="edge">
<title>Node9&#45;&gt;Node6</title>
<g id="a_edge11_Node000009_Node000006"><a xlink:title=" ">
<path fill="none" stroke="#63b8ff" d="M185.74,-54.98C217.48,-45.74 268.18,-30.98 302.38,-21.02"/>
<polygon fill="#63b8ff" stroke="#63b8ff" points="303.37,-24.38 311.99,-18.22 301.41,-17.65 303.37,-24.38"/>
</a>
</g>
</g>
<!-- Node10 -->
<g id="Node000010" class="node">
<title>Node10</title>
<g id="a_Node000010"><a xlink:title=" ">
<polygon fill="#e0e0e0" stroke="#999999" points="218.5,-19 162.5,-19 162.5,0 218.5,0 218.5,-19"/>
<text text-anchor="middle" x="190.5" y="-7" font-family="Helvetica,sans-Serif" font-size="10.00">stddef.h</text>
</a>
</g>
</g>
<!-- Node9&#45;&gt;Node10 -->
<g id="edge12_Node000009_Node000010" class="edge">
<title>Node9&#45;&gt;Node10</title>
<g id="a_edge12_Node000009_Node000010"><a xlink:title=" ">
<path fill="none" stroke="#63b8ff" d="M162.11,-54.75C166.82,-47.42 173.67,-36.73 179.47,-27.7"/>
<polygon fill="#63b8ff" stroke="#63b8ff" points="182.54,-29.4 184.99,-19.09 176.64,-25.62 182.54,-29.4"/>
</a>
</g>
</g>
<!-- Node11 -->
<g id="Node000011" class="node">
<title>Node11</title>
<g id="a_Node000011"><a xlink:title=" ">
<polygon fill="#e0e0e0" stroke="#999999" points="288.5,-19 236.5,-19 236.5,0 288.5,0 288.5,-19"/>
<text text-anchor="middle" x="262.5" y="-7" font-family="Helvetica,sans-Serif" font-size="10.00">cassert</text>
</a>
</g>
</g>
<!-- Node9&#45;&gt;Node11 -->
<g id="edge13_Node000009_Node000011" class="edge">
<title>Node9&#45;&gt;Node11</title>
<g id="a_edge13_Node000009_Node000011"><a xlink:title=" ">
<path fill="none" stroke="#63b8ff" d="M173.53,-54.98C190.43,-46.54 216.56,-33.47 236.14,-23.68"/>
<polygon fill="#63b8ff" stroke="#63b8ff" points="237.78,-26.77 245.16,-19.17 234.65,-20.51 237.78,-26.77"/>
</a>
</g>
</g>
<!-- Node12 -->
<g id="Node000012" class="node">
<title>Node12</title>
<g id="a_Node000012"><a xlink:title=" ">
<polygon fill="#e0e0e0" stroke="#999999" points="82.5,-19 26.5,-19 26.5,0 82.5,0 82.5,-19"/>
<text text-anchor="middle" x="54.5" y="-7" font-family="Helvetica,sans-Serif" font-size="10.00">sstream</text>
</a>
</g>
</g>
<!-- Node9&#45;&gt;Node12 -->
<g id="edge14_Node000009_Node000012" class="edge">
<title>Node9&#45;&gt;Node12</title>
<g id="a_edge14_Node000009_Node000012"><a xlink:title=" ">
<path fill="none" stroke="#63b8ff" d="M140.11,-54.98C123.93,-46.57 98.93,-33.59 80.12,-23.81"/>
<polygon fill="#63b8ff" stroke="#63b8ff" points="81.67,-20.68 71.19,-19.17 78.45,-26.89 81.67,-20.68"/>
</a>
</g>
</g>
<!-- Node13 -->
<g id="Node000013" class="node">
<title>Node13</title>
<g id="a_Node000013"><a xlink:title=" ">
<polygon fill="#e0e0e0" stroke="#999999" points="144.5,-19 100.5,-19 100.5,0 144.5,0 144.5,-19"/>
<text text-anchor="middle" x="122.5" y="-7" font-family="Helvetica,sans-Serif" font-size="10.00">limits</text>
</a>
</g>
</g>
<!-- Node9&#45;&gt;Node13 -->
<g id="edge15_Node000009_Node000013" class="edge">
<title>Node9&#45;&gt;Node13</title>
<g id="a_edge15_Node000009_Node000013"><a xlink:title=" ">
<path fill="none" stroke="#63b8ff" d="M150.89,-54.75C146.18,-47.42 139.33,-36.73 133.53,-27.7"/>
<polygon fill="#63b8ff" stroke="#63b8ff" points="136.36,-25.62 128.01,-19.09 130.46,-29.4 136.36,-25.62"/>
</a>
</g>
</g>
<!-- Node15 -->
<g id="Node000015" class="node">
<title>Node15</title>
<g id="a_Node000015"><a xlink:href="sitkCommon_8h.html" target="_top" xlink:title=" ">
<polygon fill="white" stroke="#666666" points="104.5,-129 16.5,-129 16.5,-110 104.5,-110 104.5,-129"/>
<text text-anchor="middle" x="60.5" y="-117" font-family="Helvetica,sans-Serif" font-size="10.00">sitkCommon.h</text>
</a>
</g>
</g>
<!-- Node14&#45;&gt;Node15 -->
<g id="edge18_Node000014_Node000015" class="edge">
<title>Node14&#45;&gt;Node15</title>
<g id="a_edge18_Node000014_Node000015"><a xlink:title=" ">
<path fill="none" stroke="#63b8ff" d="M55.49,-164.75C56.28,-157.8 57.4,-147.85 58.39,-139.13"/>
<polygon fill="#63b8ff" stroke="#63b8ff" points="61.88,-139.42 59.53,-129.09 54.92,-138.63 61.88,-139.42"/>
</a>
</g>
</g>
<!-- Node15&#45;&gt;Node9 -->
<g id="edge19_Node000015_Node000009" class="edge">
<title>Node15&#45;&gt;Node9</title>
<g id="a_edge19_Node000015_Node000009"><a xlink:title=" ">
<path fill="none" stroke="#63b8ff" d="M75.92,-109.98C90.95,-101.69 114.04,-88.94 131.66,-79.22"/>
<polygon fill="#63b8ff" stroke="#63b8ff" points="133.73,-82.07 140.8,-74.17 130.35,-75.94 133.73,-82.07"/>
</a>
</g>
</g>
</g>
</svg>
