<?xml version="1.0" encoding="UTF-8" standalone="no"?>
<!DOCTYPE svg PUBLIC "-//W3C//DTD SVG 1.1//EN"
 "http://www.w3.org/Graphics/SVG/1.1/DTD/svg11.dtd">
<!-- Generated by graphviz version 2.43.0 (0)
 -->
<!-- Title: sitkIO.h Pages: 1 -->
<svg width="785pt" height="192pt"
 viewBox="0.00 0.00 785.00 192.00" xmlns="http://www.w3.org/2000/svg" xmlns:xlink="http://www.w3.org/1999/xlink">
<g id="graph0" class="graph" transform="scale(1 1) rotate(0) translate(4 188)">
<title>sitkIO.h</title>
<!-- Node1 -->
<g id="Node000001" class="node">
<title>Node1</title>
<g id="a_Node000001"><a xlink:title=" ">
<polygon fill="#999999" stroke="#666666" points="524.5,-184 470.5,-184 470.5,-165 524.5,-165 524.5,-184"/>
<text text-anchor="middle" x="497.5" y="-172" font-family="Helvetica,sans-Serif" font-size="10.00">sitkIO.h</text>
</a>
</g>
</g>
<!-- Node2 -->
<g id="Node000002" class="node">
<title>Node2</title>
<g id="a_Node000002"><a xlink:href="sitkImageFileWriter_8h.html" target="_top" xlink:title=" ">
<polygon fill="white" stroke="#666666" points="121,-74 0,-74 0,-55 121,-55 121,-74"/>
<text text-anchor="middle" x="60.5" y="-62" font-family="Helvetica,sans-Serif" font-size="10.00">sitkImageFileWriter.h</text>
</a>
</g>
</g>
<!-- Node1&#45;&gt;Node2 -->
<g id="edge1_Node000001_Node000002" class="edge">
<title>Node1&#45;&gt;Node2</title>
<g id="a_edge1_Node000001_Node000002"><a xlink:title=" ">
<path fill="none" stroke="#63b8ff" d="M460.48,-167.42C415.34,-159.73 336.85,-145.49 270.5,-129 203.04,-112.23 125.04,-87.1 85.81,-74.05"/>
<polygon fill="#63b8ff" stroke="#63b8ff" points="459.96,-170.88 470.4,-169.09 461.12,-163.97 459.96,-170.88"/>
</a>
</g>
</g>
<!-- Node4 -->
<g id="Node000004" class="node">
<title>Node4</title>
<g id="a_Node000004"><a xlink:href="sitkImageReaderBase_8h.html" target="_top" xlink:title=" ">
<polygon fill="white" stroke="#666666" points="412,-129 279,-129 279,-110 412,-110 412,-129"/>
<text text-anchor="middle" x="345.5" y="-117" font-family="Helvetica,sans-Serif" font-size="10.00">sitkImageReaderBase.h</text>
</a>
</g>
</g>
<!-- Node1&#45;&gt;Node4 -->
<g id="edge3_Node000001_Node000004" class="edge">
<title>Node1&#45;&gt;Node4</title>
<g id="a_edge3_Node000001_Node000004"><a xlink:title=" ">
<path fill="none" stroke="#63b8ff" d="M463.57,-161.67C435.23,-151.79 395.48,-137.93 370.11,-129.08"/>
<polygon fill="#63b8ff" stroke="#63b8ff" points="462.48,-165 473.08,-164.98 464.79,-158.39 462.48,-165"/>
</a>
</g>
</g>
<!-- Node8 -->
<g id="Node000008" class="node">
<title>Node8</title>
<g id="a_Node000008"><a xlink:href="sitkImageSeriesWriter_8h.html" target="_top" xlink:title=" ">
<polygon fill="white" stroke="#666666" points="564.5,-129 430.5,-129 430.5,-110 564.5,-110 564.5,-129"/>
<text text-anchor="middle" x="497.5" y="-117" font-family="Helvetica,sans-Serif" font-size="10.00">sitkImageSeriesWriter.h</text>
</a>
</g>
</g>
<!-- Node1&#45;&gt;Node8 -->
<g id="edge10_Node000001_Node000008" class="edge">
<title>Node1&#45;&gt;Node8</title>
<g id="a_edge10_Node000001_Node000008"><a xlink:title=" ">
<path fill="none" stroke="#63b8ff" d="M497.5,-154.66C497.5,-145.93 497.5,-135.99 497.5,-129.09"/>
<polygon fill="#63b8ff" stroke="#63b8ff" points="494,-154.75 497.5,-164.75 501,-154.75 494,-154.75"/>
</a>
</g>
</g>
<!-- Node9 -->
<g id="Node000009" class="node">
<title>Node9</title>
<g id="a_Node000009"><a xlink:href="sitkImageViewer_8h.html" target="_top" xlink:title=" ">
<polygon fill="white" stroke="#666666" points="690,-129 583,-129 583,-110 690,-110 690,-129"/>
<text text-anchor="middle" x="636.5" y="-117" font-family="Helvetica,sans-Serif" font-size="10.00">sitkImageViewer.h</text>
</a>
</g>
</g>
<!-- Node1&#45;&gt;Node9 -->
<g id="edge12_Node000001_Node000009" class="edge">
<title>Node1&#45;&gt;Node9</title>
<g id="a_edge12_Node000001_Node000009"><a xlink:title=" ">
<path fill="none" stroke="#63b8ff" d="M529.18,-161.42C554.97,-151.59 590.74,-137.95 613.76,-129.17"/>
<polygon fill="#63b8ff" stroke="#63b8ff" points="527.93,-158.15 519.83,-164.98 530.42,-164.69 527.93,-158.15"/>
</a>
</g>
</g>
<!-- Node10 -->
<g id="Node000010" class="node">
<title>Node10</title>
<g id="a_Node000010"><a xlink:href="sitkShow_8h.html" target="_top" xlink:title=" ">
<polygon fill="white" stroke="#666666" points="777,-129 708,-129 708,-110 777,-110 777,-129"/>
<text text-anchor="middle" x="742.5" y="-117" font-family="Helvetica,sans-Serif" font-size="10.00">sitkShow.h</text>
</a>
</g>
</g>
<!-- Node1&#45;&gt;Node10 -->
<g id="edge14_Node000001_Node000010" class="edge">
<title>Node1&#45;&gt;Node10</title>
<g id="a_edge14_Node000001_Node000010"><a xlink:title=" ">
<path fill="none" stroke="#63b8ff" d="M534.72,-165.45C581.72,-155.28 661.95,-137.92 707.75,-128.02"/>
<polygon fill="#63b8ff" stroke="#63b8ff" points="533.69,-162.09 524.66,-167.63 535.17,-168.93 533.69,-162.09"/>
</a>
</g>
</g>
<!-- Node3 -->
<g id="Node000003" class="node">
<title>Node3</title>
<g id="a_Node000003"><a xlink:href="SimpleITK_8h.html" target="_top" xlink:title=" ">
<polygon fill="white" stroke="#666666" points="542,-19 467,-19 467,0 542,0 542,-19"/>
<text text-anchor="middle" x="504.5" y="-7" font-family="Helvetica,sans-Serif" font-size="10.00">SimpleITK.h</text>
</a>
</g>
</g>
<!-- Node2&#45;&gt;Node3 -->
<g id="edge2_Node000002_Node000003" class="edge">
<title>Node2&#45;&gt;Node3</title>
<g id="a_edge2_Node000002_Node000003"><a xlink:title=" ">
<path fill="none" stroke="#63b8ff" d="M131.16,-54.8C260.39,-39.2 401.16,-22.62 466.97,-14.9"/>
<polygon fill="#63b8ff" stroke="#63b8ff" points="130.59,-51.35 121.08,-56.02 131.43,-58.3 130.59,-51.35"/>
</a>
</g>
</g>
<!-- Node5 -->
<g id="Node000005" class="node">
<title>Node5</title>
<g id="a_Node000005"><a xlink:href="sitkImageFileReader_8h.html" target="_top" xlink:title=" ">
<polygon fill="white" stroke="#666666" points="264,-74 139,-74 139,-55 264,-55 264,-74"/>
<text text-anchor="middle" x="201.5" y="-62" font-family="Helvetica,sans-Serif" font-size="10.00">sitkImageFileReader.h</text>
</a>
</g>
</g>
<!-- Node4&#45;&gt;Node5 -->
<g id="edge4_Node000004_Node000005" class="edge">
<title>Node4&#45;&gt;Node5</title>
<g id="a_edge4_Node000004_Node000005"><a xlink:title=" ">
<path fill="none" stroke="#63b8ff" d="M312.68,-106.42C285.97,-96.59 248.9,-82.95 225.06,-74.17"/>
<polygon fill="#63b8ff" stroke="#63b8ff" points="311.77,-109.82 322.36,-109.98 314.19,-103.25 311.77,-109.82"/>
</a>
</g>
</g>
<!-- Node6 -->
<g id="Node000006" class="node">
<title>Node6</title>
<g id="a_Node000006"><a xlink:href="sitkImageSeriesReader_8h.html" target="_top" xlink:title=" ">
<polygon fill="white" stroke="#666666" points="420.5,-74 282.5,-74 282.5,-55 420.5,-55 420.5,-74"/>
<text text-anchor="middle" x="351.5" y="-62" font-family="Helvetica,sans-Serif" font-size="10.00">sitkImageSeriesReader.h</text>
</a>
</g>
</g>
<!-- Node4&#45;&gt;Node6 -->
<g id="edge6_Node000004_Node000006" class="edge">
<title>Node4&#45;&gt;Node6</title>
<g id="a_edge6_Node000004_Node000006"><a xlink:title=" ">
<path fill="none" stroke="#63b8ff" d="M347.63,-99.66C348.62,-90.93 349.75,-80.99 350.53,-74.09"/>
<polygon fill="#63b8ff" stroke="#63b8ff" points="344.14,-99.42 346.49,-109.75 351.09,-100.21 344.14,-99.42"/>
</a>
</g>
</g>
<!-- Node7 -->
<g id="Node000007" class="node">
<title>Node7</title>
<g id="a_Node000007"><a xlink:href="sitkImportImageFilter_8h.html" target="_top" xlink:title=" ">
<polygon fill="white" stroke="#666666" points="570,-74 439,-74 439,-55 570,-55 570,-74"/>
<text text-anchor="middle" x="504.5" y="-62" font-family="Helvetica,sans-Serif" font-size="10.00">sitkImportImageFilter.h</text>
</a>
</g>
</g>
<!-- Node4&#45;&gt;Node7 -->
<g id="edge8_Node000004_Node000007" class="edge">
<title>Node4&#45;&gt;Node7</title>
<g id="a_edge8_Node000004_Node000007"><a xlink:title=" ">
<path fill="none" stroke="#63b8ff" d="M380.6,-106.8C410.28,-96.91 452.1,-82.97 478.75,-74.08"/>
<polygon fill="#63b8ff" stroke="#63b8ff" points="379.43,-103.5 371.05,-109.98 381.64,-110.14 379.43,-103.5"/>
</a>
</g>
</g>
<!-- Node5&#45;&gt;Node3 -->
<g id="edge5_Node000005_Node000003" class="edge">
<title>Node5&#45;&gt;Node3</title>
<g id="a_edge5_Node000005_Node000003"><a xlink:title=" ">
<path fill="none" stroke="#63b8ff" d="M260.07,-53.26C321.16,-42.57 415.12,-26.13 466.94,-17.07"/>
<polygon fill="#63b8ff" stroke="#63b8ff" points="259.43,-49.81 250.18,-54.98 260.64,-56.71 259.43,-49.81"/>
</a>
</g>
</g>
<!-- Node6&#45;&gt;Node3 -->
<g id="edge7_Node000006_Node000003" class="edge">
<title>Node6&#45;&gt;Node3</title>
<g id="a_edge7_Node000006_Node000003"><a xlink:title=" ">
<path fill="none" stroke="#63b8ff" d="M385.65,-51.67C414.18,-41.79 454.19,-27.93 479.73,-19.08"/>
<polygon fill="#63b8ff" stroke="#63b8ff" points="384.39,-48.4 376.08,-54.98 386.68,-55.02 384.39,-48.4"/>
</a>
</g>
</g>
<!-- Node7&#45;&gt;Node3 -->
<g id="edge9_Node000007_Node000003" class="edge">
<title>Node7&#45;&gt;Node3</title>
<g id="a_edge9_Node000007_Node000003"><a xlink:title=" ">
<path fill="none" stroke="#63b8ff" d="M504.5,-44.66C504.5,-35.93 504.5,-25.99 504.5,-19.09"/>
<polygon fill="#63b8ff" stroke="#63b8ff" points="501,-44.75 504.5,-54.75 508,-44.75 501,-44.75"/>
</a>
</g>
</g>
<!-- Node8&#45;&gt;Node3 -->
<g id="edge11_Node000008_Node000003" class="edge">
<title>Node8&#45;&gt;Node3</title>
<g id="a_edge11_Node000008_Node000003"><a xlink:title=" ">
<path fill="none" stroke="#63b8ff" d="M539.21,-106.09C554.66,-99.24 570.58,-88.98 579.5,-74 594.16,-49.37 557.28,-29.72 530.19,-19.12"/>
<polygon fill="#63b8ff" stroke="#63b8ff" points="537.67,-102.93 529.71,-109.92 540.3,-109.42 537.67,-102.93"/>
</a>
</g>
</g>
<!-- Node9&#45;&gt;Node3 -->
<g id="edge13_Node000009_Node000003" class="edge">
<title>Node9&#45;&gt;Node3</title>
<g id="a_edge13_Node000009_Node000003"><a xlink:title=" ">
<path fill="none" stroke="#63b8ff" d="M627.98,-100.6C620.67,-86.74 609.02,-67.8 594.5,-55 575.68,-38.4 549.55,-26.39 530.3,-19.07"/>
<polygon fill="#63b8ff" stroke="#63b8ff" points="624.91,-102.27 632.52,-109.64 631.16,-99.13 624.91,-102.27"/>
</a>
</g>
</g>
<!-- Node10&#45;&gt;Node3 -->
<g id="edge15_Node000010_Node000003" class="edge">
<title>Node10&#45;&gt;Node3</title>
<g id="a_edge15_Node000010_Node000003"><a xlink:title=" ">
<path fill="none" stroke="#63b8ff" d="M717.53,-105.09C692.33,-91.76 652.16,-71.03 616.5,-55 586.35,-41.44 550.75,-27.67 527.92,-19.11"/>
<polygon fill="#63b8ff" stroke="#63b8ff" points="715.94,-108.21 726.41,-109.81 719.23,-102.03 715.94,-108.21"/>
</a>
</g>
</g>
</g>
</svg>
