<?xml version="1.0" encoding="UTF-8" standalone="no"?>
<!DOCTYPE svg PUBLIC "-//W3C//DTD SVG 1.1//EN"
 "http://www.w3.org/Graphics/SVG/1.1/DTD/svg11.dtd">
<!-- Generated by graphviz version 2.43.0 (0)
 -->
<!-- Title: sitkDualMemberFunctionFactory.h Pages: 1 -->
<svg width="2614pt" height="159pt"
 viewBox="0.00 0.00 2614.00 159.00" xmlns="http://www.w3.org/2000/svg" xmlns:xlink="http://www.w3.org/1999/xlink">
<g id="graph0" class="graph" transform="scale(1 1) rotate(0) translate(4 155)">
<title>sitkDualMemberFunctionFactory.h</title>
<!-- Node1 -->
<g id="Node000001" class="node">
<title>Node1</title>
<g id="a_Node000001"><a xlink:title=" ">
<polygon fill="#999999" stroke="#666666" points="1370,-151 1188,-151 1188,-132 1370,-132 1370,-151"/>
<text text-anchor="middle" x="1279" y="-139" font-family="Helvetica,sans-Serif" font-size="10.00">sitkDualMemberFunctionFactory.h</text>
</a>
</g>
</g>
<!-- Node2 -->
<g id="Node000002" class="node">
<title>Node2</title>
<g id="a_Node000002"><a xlink:href="sitkCastImageFilter_8h.html" target="_top" xlink:title=" ">
<polygon fill="white" stroke="#666666" points="120,-90.5 0,-90.5 0,-71.5 120,-71.5 120,-90.5"/>
<text text-anchor="middle" x="60" y="-78.5" font-family="Helvetica,sans-Serif" font-size="10.00">sitkCastImageFilter.h</text>
</a>
</g>
</g>
<!-- Node1&#45;&gt;Node2 -->
<g id="edge1_Node000001_Node000002" class="edge">
<title>Node1&#45;&gt;Node2</title>
<g id="a_edge1_Node000001_Node000002"><a xlink:title=" ">
<path fill="none" stroke="#63b8ff" d="M1177.72,-138.68C935.99,-134 330.44,-120.17 129,-96 118.32,-94.72 106.83,-92.66 96.35,-90.52"/>
<polygon fill="#63b8ff" stroke="#63b8ff" points="1177.85,-142.18 1187.91,-138.88 1177.98,-135.18 1177.85,-142.18"/>
</a>
</g>
</g>
<!-- Node4 -->
<g id="Node000004" class="node">
<title>Node4</title>
<g id="a_Node000004"><a xlink:href="sitkClampImageFilter_8h.html" target="_top" xlink:title=" ">
<polygon fill="white" stroke="#666666" points="565,-90.5 435,-90.5 435,-71.5 565,-71.5 565,-90.5"/>
<text text-anchor="middle" x="500" y="-78.5" font-family="Helvetica,sans-Serif" font-size="10.00">sitkClampImageFilter.h</text>
</a>
</g>
</g>
<!-- Node1&#45;&gt;Node4 -->
<g id="edge3_Node000001_Node000004" class="edge">
<title>Node1&#45;&gt;Node4</title>
<g id="a_edge3_Node000001_Node000004"><a xlink:title=" ">
<path fill="none" stroke="#63b8ff" d="M1177.74,-137.96C1040.65,-133.64 788.56,-122.58 575,-96 563.83,-94.61 551.81,-92.6 540.73,-90.53"/>
<polygon fill="#63b8ff" stroke="#63b8ff" points="1177.72,-141.46 1187.82,-138.27 1177.93,-134.46 1177.72,-141.46"/>
</a>
</g>
</g>
<!-- Node7 -->
<g id="Node000007" class="node">
<title>Node7</title>
<g id="a_Node000007"><a xlink:href="sitkElastixImageFilterImpl_8h.html" target="_top" xlink:title=" ">
<polygon fill="white" stroke="#666666" points="2606,-90.5 2452,-90.5 2452,-71.5 2606,-71.5 2606,-90.5"/>
<text text-anchor="middle" x="2529" y="-78.5" font-family="Helvetica,sans-Serif" font-size="10.00">sitkElastixImageFilterImpl.h</text>
</a>
</g>
</g>
<!-- Node1&#45;&gt;Node7 -->
<g id="edge6_Node000001_Node000007" class="edge">
<title>Node1&#45;&gt;Node7</title>
<g id="a_edge6_Node000001_Node000007"><a xlink:title=" ">
<path fill="none" stroke="#63b8ff" d="M1380.21,-140.81C1582.61,-140.52 2051.44,-135.21 2443,-96 2456.1,-94.69 2470.22,-92.65 2483.17,-90.53"/>
<polygon fill="#63b8ff" stroke="#63b8ff" points="1380.19,-137.31 1370.19,-140.83 1380.19,-144.31 1380.19,-137.31"/>
</a>
</g>
</g>
<!-- Node8 -->
<g id="Node000008" class="node">
<title>Node8</title>
<g id="a_Node000008"><a xlink:href="sitkLabelIntensityStatisticsImageFilter_8h.html" target="_top" xlink:title=" ">
<polygon fill="white" stroke="#666666" points="732.5,-96 583.5,-96 583.5,-66 732.5,-66 732.5,-96"/>
<text text-anchor="start" x="591.5" y="-84" font-family="Helvetica,sans-Serif" font-size="10.00">sitkLabelIntensityStatistics</text>
<text text-anchor="middle" x="658" y="-73" font-family="Helvetica,sans-Serif" font-size="10.00">ImageFilter.h</text>
</a>
</g>
</g>
<!-- Node1&#45;&gt;Node8 -->
<g id="edge7_Node000001_Node000008" class="edge">
<title>Node1&#45;&gt;Node8</title>
<g id="a_edge7_Node000001_Node000008"><a xlink:title=" ">
<path fill="none" stroke="#63b8ff" d="M1177.58,-134.68C1069.22,-127.86 892.57,-115.02 741,-96 738.25,-95.65 735.44,-95.28 732.61,-94.89"/>
<polygon fill="#63b8ff" stroke="#63b8ff" points="1177.65,-138.19 1187.85,-135.32 1178.09,-131.2 1177.65,-138.19"/>
</a>
</g>
</g>
<!-- Node9 -->
<g id="Node000009" class="node">
<title>Node9</title>
<g id="a_Node000009"><a xlink:href="sitkLabelMapContourOverlayImageFilter_8h.html" target="_top" xlink:title=" ">
<polygon fill="white" stroke="#666666" points="908,-96 750,-96 750,-66 908,-66 908,-96"/>
<text text-anchor="start" x="758" y="-84" font-family="Helvetica,sans-Serif" font-size="10.00">sitkLabelMapContourOverlay</text>
<text text-anchor="middle" x="829" y="-73" font-family="Helvetica,sans-Serif" font-size="10.00">ImageFilter.h</text>
</a>
</g>
</g>
<!-- Node1&#45;&gt;Node9 -->
<g id="edge10_Node000001_Node000009" class="edge">
<title>Node1&#45;&gt;Node9</title>
<g id="a_edge10_Node000001_Node000009"><a xlink:title=" ">
<path fill="none" stroke="#63b8ff" d="M1193.2,-130.82C1119.78,-122.33 1011.32,-109.3 917,-96 914.09,-95.59 911.13,-95.16 908.13,-94.73"/>
<polygon fill="#63b8ff" stroke="#63b8ff" points="1192.99,-134.32 1203.32,-131.99 1193.79,-127.37 1192.99,-134.32"/>
</a>
</g>
</g>
<!-- Node10 -->
<g id="Node000010" class="node">
<title>Node10</title>
<g id="a_Node000010"><a xlink:href="sitkLabelMapMaskImageFilter_8h.html" target="_top" xlink:title=" ">
<polygon fill="white" stroke="#666666" points="1098,-90.5 926,-90.5 926,-71.5 1098,-71.5 1098,-90.5"/>
<text text-anchor="middle" x="1012" y="-78.5" font-family="Helvetica,sans-Serif" font-size="10.00">sitkLabelMapMaskImageFilter.h</text>
</a>
</g>
</g>
<!-- Node1&#45;&gt;Node10 -->
<g id="edge13_Node000001_Node000010" class="edge">
<title>Node1&#45;&gt;Node10</title>
<g id="a_edge13_Node000001_Node000010"><a xlink:title=" ">
<path fill="none" stroke="#63b8ff" d="M1230.26,-129.82C1178.7,-118.52 1098.35,-100.92 1050.87,-90.52"/>
<polygon fill="#63b8ff" stroke="#63b8ff" points="1229.66,-133.27 1240.18,-131.99 1231.16,-126.43 1229.66,-133.27"/>
</a>
</g>
</g>
<!-- Node11 -->
<g id="Node000011" class="node">
<title>Node11</title>
<g id="a_Node000011"><a xlink:href="sitkLabelMapOverlayImageFilter_8h.html" target="_top" xlink:title=" ">
<polygon fill="white" stroke="#666666" points="1267.5,-96 1116.5,-96 1116.5,-66 1267.5,-66 1267.5,-96"/>
<text text-anchor="start" x="1124.5" y="-84" font-family="Helvetica,sans-Serif" font-size="10.00">sitkLabelMapOverlayImage</text>
<text text-anchor="middle" x="1192" y="-73" font-family="Helvetica,sans-Serif" font-size="10.00">Filter.h</text>
</a>
</g>
</g>
<!-- Node1&#45;&gt;Node11 -->
<g id="edge16_Node000001_Node000011" class="edge">
<title>Node1&#45;&gt;Node11</title>
<g id="a_edge16_Node000001_Node000011"><a xlink:title=" ">
<path fill="none" stroke="#63b8ff" d="M1257.48,-126.03C1243.91,-116.9 1226.46,-105.17 1212.99,-96.11"/>
<polygon fill="#63b8ff" stroke="#63b8ff" points="1255.91,-129.19 1266.16,-131.87 1259.82,-123.38 1255.91,-129.19"/>
</a>
</g>
</g>
<!-- Node12 -->
<g id="Node000012" class="node">
<title>Node12</title>
<g id="a_Node000012"><a xlink:href="sitkLabelOverlayImageFilter_8h.html" target="_top" xlink:title=" ">
<polygon fill="white" stroke="#666666" points="1448.5,-90.5 1285.5,-90.5 1285.5,-71.5 1448.5,-71.5 1448.5,-90.5"/>
<text text-anchor="middle" x="1367" y="-78.5" font-family="Helvetica,sans-Serif" font-size="10.00">sitkLabelOverlayImageFilter.h</text>
</a>
</g>
</g>
<!-- Node1&#45;&gt;Node12 -->
<g id="edge19_Node000001_Node000012" class="edge">
<title>Node1&#45;&gt;Node12</title>
<g id="a_edge19_Node000001_Node000012"><a xlink:title=" ">
<path fill="none" stroke="#63b8ff" d="M1300.57,-126.16C1317.29,-115.05 1339.9,-100.01 1353.96,-90.67"/>
<polygon fill="#63b8ff" stroke="#63b8ff" points="1298.37,-123.42 1291.98,-131.87 1302.25,-129.25 1298.37,-123.42"/>
</a>
</g>
</g>
<!-- Node13 -->
<g id="Node000013" class="node">
<title>Node13</title>
<g id="a_Node000013"><a xlink:href="sitkLabelStatisticsImageFilter_8h.html" target="_top" xlink:title=" ">
<polygon fill="white" stroke="#666666" points="1603.5,-96 1466.5,-96 1466.5,-66 1603.5,-66 1603.5,-96"/>
<text text-anchor="start" x="1474.5" y="-84" font-family="Helvetica,sans-Serif" font-size="10.00">sitkLabelStatisticsImage</text>
<text text-anchor="middle" x="1535" y="-73" font-family="Helvetica,sans-Serif" font-size="10.00">Filter.h</text>
</a>
</g>
</g>
<!-- Node1&#45;&gt;Node13 -->
<g id="edge22_Node000001_Node000013" class="edge">
<title>Node1&#45;&gt;Node13</title>
<g id="a_edge22_Node000001_Node000013"><a xlink:title=" ">
<path fill="none" stroke="#63b8ff" d="M1326.07,-129.74C1367.52,-120.27 1428.16,-106.41 1473.45,-96.06"/>
<polygon fill="#63b8ff" stroke="#63b8ff" points="1325.19,-126.35 1316.22,-131.99 1326.75,-133.18 1325.19,-126.35"/>
</a>
</g>
</g>
<!-- Node14 -->
<g id="Node000014" class="node">
<title>Node14</title>
<g id="a_Node000014"><a xlink:href="sitkMaskImageFilter_8h.html" target="_top" xlink:title=" ">
<polygon fill="white" stroke="#666666" points="1746.5,-90.5 1621.5,-90.5 1621.5,-71.5 1746.5,-71.5 1746.5,-90.5"/>
<text text-anchor="middle" x="1684" y="-78.5" font-family="Helvetica,sans-Serif" font-size="10.00">sitkMaskImageFilter.h</text>
</a>
</g>
</g>
<!-- Node1&#45;&gt;Node14 -->
<g id="edge25_Node000001_Node000014" class="edge">
<title>Node1&#45;&gt;Node14</title>
<g id="a_edge25_Node000001_Node000014"><a xlink:title=" ">
<path fill="none" stroke="#63b8ff" d="M1363.33,-130.74C1430.99,-122.55 1528.32,-109.98 1613,-96 1622.79,-94.38 1633.3,-92.43 1643.16,-90.51"/>
<polygon fill="#63b8ff" stroke="#63b8ff" points="1362.66,-127.29 1353.15,-131.96 1363.5,-134.24 1362.66,-127.29"/>
</a>
</g>
</g>
<!-- Node15 -->
<g id="Node000015" class="node">
<title>Node15</title>
<g id="a_Node000015"><a xlink:href="sitkMaskNegatedImageFilter_8h.html" target="_top" xlink:title=" ">
<polygon fill="white" stroke="#666666" points="1931,-90.5 1765,-90.5 1765,-71.5 1931,-71.5 1931,-90.5"/>
<text text-anchor="middle" x="1848" y="-78.5" font-family="Helvetica,sans-Serif" font-size="10.00">sitkMaskNegatedImageFilter.h</text>
</a>
</g>
</g>
<!-- Node1&#45;&gt;Node15 -->
<g id="edge28_Node000001_Node000015" class="edge">
<title>Node1&#45;&gt;Node15</title>
<g id="a_edge28_Node000001_Node000015"><a xlink:title=" ">
<path fill="none" stroke="#63b8ff" d="M1380.23,-132.77C1476.91,-124.98 1626.63,-111.86 1756,-96 1768.83,-94.43 1782.62,-92.47 1795.53,-90.52"/>
<polygon fill="#63b8ff" stroke="#63b8ff" points="1379.86,-129.29 1370.17,-133.58 1380.42,-136.27 1379.86,-129.29"/>
</a>
</g>
</g>
<!-- Node16 -->
<g id="Node000016" class="node">
<title>Node16</title>
<g id="a_Node000016"><a xlink:href="sitkMorphologicalWatershedFromMarkersImageFilter_8h.html" target="_top" xlink:title=" ">
<polygon fill="white" stroke="#666666" points="2104.5,-96 1949.5,-96 1949.5,-66 2104.5,-66 2104.5,-96"/>
<text text-anchor="start" x="1957.5" y="-84" font-family="Helvetica,sans-Serif" font-size="10.00">sitkMorphologicalWatershed</text>
<text text-anchor="middle" x="2027" y="-73" font-family="Helvetica,sans-Serif" font-size="10.00">FromMarkersImageFilter.h</text>
</a>
</g>
</g>
<!-- Node1&#45;&gt;Node16 -->
<g id="edge31_Node000001_Node000016" class="edge">
<title>Node1&#45;&gt;Node16</title>
<g id="a_edge31_Node000001_Node000016"><a xlink:title=" ">
<path fill="none" stroke="#63b8ff" d="M1380.45,-136.58C1510.42,-130.89 1742.5,-118.49 1940,-96 1943.04,-95.65 1946.14,-95.28 1949.26,-94.87"/>
<polygon fill="#63b8ff" stroke="#63b8ff" points="1379.96,-133.1 1370.12,-137.03 1380.26,-140.09 1379.96,-133.1"/>
</a>
</g>
</g>
<!-- Node17 -->
<g id="Node000017" class="node">
<title>Node17</title>
<g id="a_Node000017"><a xlink:href="sitkResampleImageFilter_8h.html" target="_top" xlink:title=" ">
<polygon fill="white" stroke="#666666" points="2269.5,-90.5 2122.5,-90.5 2122.5,-71.5 2269.5,-71.5 2269.5,-90.5"/>
<text text-anchor="middle" x="2196" y="-78.5" font-family="Helvetica,sans-Serif" font-size="10.00">sitkResampleImageFilter.h</text>
</a>
</g>
</g>
<!-- Node1&#45;&gt;Node17 -->
<g id="edge34_Node000001_Node000017" class="edge">
<title>Node1&#45;&gt;Node17</title>
<g id="a_edge34_Node000001_Node000017"><a xlink:title=" ">
<path fill="none" stroke="#63b8ff" d="M1380.24,-138.88C1537.64,-135.52 1850.36,-125.43 2114,-96 2126.2,-94.64 2139.34,-92.64 2151.45,-90.57"/>
<polygon fill="#63b8ff" stroke="#63b8ff" points="1380.02,-135.39 1370.1,-139.1 1380.17,-142.39 1380.02,-135.39"/>
</a>
</g>
</g>
<!-- Node18 -->
<g id="Node000018" class="node">
<title>Node18</title>
<g id="a_Node000018"><a xlink:href="sitkShiftScaleImageFilter_8h.html" target="_top" xlink:title=" ">
<polygon fill="white" stroke="#666666" points="2434,-90.5 2288,-90.5 2288,-71.5 2434,-71.5 2434,-90.5"/>
<text text-anchor="middle" x="2361" y="-78.5" font-family="Helvetica,sans-Serif" font-size="10.00">sitkShiftScaleImageFilter.h</text>
</a>
</g>
</g>
<!-- Node1&#45;&gt;Node18 -->
<g id="edge37_Node000001_Node000018" class="edge">
<title>Node1&#45;&gt;Node18</title>
<g id="a_edge37_Node000001_Node000018"><a xlink:title=" ">
<path fill="none" stroke="#63b8ff" d="M1380.32,-140.16C1561.27,-138.61 1951.7,-131.08 2279,-96 2291.35,-94.68 2304.66,-92.66 2316.88,-90.57"/>
<polygon fill="#63b8ff" stroke="#63b8ff" points="1380.26,-136.66 1370.29,-140.24 1380.32,-143.66 1380.26,-136.66"/>
</a>
</g>
</g>
<!-- Node19 -->
<g id="Node000019" class="node">
<title>Node19</title>
<g id="a_Node000019"><a xlink:href="sitkVectorIndexSelectionCastImageFilter_8h.html" target="_top" xlink:title=" ">
<polygon fill="white" stroke="#666666" points="275.5,-96 138.5,-96 138.5,-66 275.5,-66 275.5,-96"/>
<text text-anchor="start" x="146.5" y="-84" font-family="Helvetica,sans-Serif" font-size="10.00">sitkVectorIndexSelection</text>
<text text-anchor="middle" x="207" y="-73" font-family="Helvetica,sans-Serif" font-size="10.00">CastImageFilter.h</text>
</a>
</g>
</g>
<!-- Node1&#45;&gt;Node19 -->
<g id="edge40_Node000001_Node000019" class="edge">
<title>Node1&#45;&gt;Node19</title>
<g id="a_edge40_Node000001_Node000019"><a xlink:title=" ">
<path fill="none" stroke="#63b8ff" d="M1177.52,-140.48C997.15,-139.44 609.1,-132.65 284,-96 281.3,-95.7 278.55,-95.35 275.78,-94.98"/>
<polygon fill="#63b8ff" stroke="#63b8ff" points="1177.77,-143.98 1187.79,-140.53 1177.81,-136.98 1177.77,-143.98"/>
</a>
</g>
</g>
<!-- Node20 -->
<g id="Node000020" class="node">
<title>Node20</title>
<g id="a_Node000020"><a xlink:href="sitkWarpImageFilter_8h.html" target="_top" xlink:title=" ">
<polygon fill="white" stroke="#666666" points="416.5,-90.5 293.5,-90.5 293.5,-71.5 416.5,-71.5 416.5,-90.5"/>
<text text-anchor="middle" x="355" y="-78.5" font-family="Helvetica,sans-Serif" font-size="10.00">sitkWarpImageFilter.h</text>
</a>
</g>
</g>
<!-- Node1&#45;&gt;Node20 -->
<g id="edge43_Node000001_Node000020" class="edge">
<title>Node1&#45;&gt;Node20</title>
<g id="a_edge43_Node000001_Node000020"><a xlink:title=" ">
<path fill="none" stroke="#63b8ff" d="M1177.41,-139.87C1017.13,-137.83 696,-129.49 426,-96 415.28,-94.67 403.75,-92.65 393.16,-90.56"/>
<polygon fill="#63b8ff" stroke="#63b8ff" points="1177.69,-143.38 1187.73,-140 1177.78,-136.38 1177.69,-143.38"/>
</a>
</g>
</g>
<!-- Node3 -->
<g id="Node000003" class="node">
<title>Node3</title>
<g id="a_Node000003"><a xlink:href="SimpleITK_8h.html" target="_top" xlink:title=" ">
<polygon fill="white" stroke="#666666" points="97.5,-24.5 22.5,-24.5 22.5,-5.5 97.5,-5.5 97.5,-24.5"/>
<text text-anchor="middle" x="60" y="-12.5" font-family="Helvetica,sans-Serif" font-size="10.00">SimpleITK.h</text>
</a>
</g>
</g>
<!-- Node2&#45;&gt;Node3 -->
<g id="edge2_Node000002_Node000003" class="edge">
<title>Node2&#45;&gt;Node3</title>
<g id="a_edge2_Node000002_Node000003"><a xlink:title=" ">
<path fill="none" stroke="#63b8ff" d="M60,-61.08C60,-49.13 60,-34.22 60,-24.91"/>
<polygon fill="#63b8ff" stroke="#63b8ff" points="56.5,-61.37 60,-71.37 63.5,-61.37 56.5,-61.37"/>
</a>
</g>
</g>
<!-- Node5 -->
<g id="Node000005" class="node">
<title>Node5</title>
<g id="a_Node000005"><a xlink:href="CMakeTmp_2SimpleITKBasicFiltersGeneratedHeaders_8h.html" target="_top" xlink:title=" ">
<polygon fill="white" stroke="#666666" points="1461.5,-30 1288.5,-30 1288.5,0 1461.5,0 1461.5,-30"/>
<text text-anchor="start" x="1296.5" y="-18" font-family="Helvetica,sans-Serif" font-size="10.00">SimpleITKBasicFiltersGenerated</text>
<text text-anchor="middle" x="1375" y="-7" font-family="Helvetica,sans-Serif" font-size="10.00">Headers.h</text>
</a>
</g>
</g>
<!-- Node4&#45;&gt;Node5 -->
<g id="edge4_Node000004_Node000005" class="edge">
<title>Node4&#45;&gt;Node5</title>
<g id="a_edge4_Node000004_Node000005"><a xlink:title=" ">
<path fill="none" stroke="#63b8ff" d="M550.23,-69.67C558.48,-68.25 566.96,-66.95 575,-66 886.57,-29.13 967.78,-60.91 1280,-30 1282.74,-29.73 1285.52,-29.43 1288.32,-29.12"/>
<polygon fill="#63b8ff" stroke="#63b8ff" points="549.55,-66.23 540.33,-71.45 550.79,-73.12 549.55,-66.23"/>
</a>
</g>
</g>
<!-- Node6 -->
<g id="Node000006" class="node">
<title>Node6</title>
<g id="a_Node000006"><a xlink:href="include_2SimpleITKBasicFiltersGeneratedHeaders_8h.html" target="_top" xlink:title=" ">
<polygon fill="white" stroke="#666666" points="1270.5,-30 1097.5,-30 1097.5,0 1270.5,0 1270.5,-30"/>
<text text-anchor="start" x="1105.5" y="-18" font-family="Helvetica,sans-Serif" font-size="10.00">SimpleITKBasicFiltersGenerated</text>
<text text-anchor="middle" x="1184" y="-7" font-family="Helvetica,sans-Serif" font-size="10.00">Headers.h</text>
</a>
</g>
</g>
<!-- Node4&#45;&gt;Node6 -->
<g id="edge5_Node000004_Node000006" class="edge">
<title>Node4&#45;&gt;Node6</title>
<g id="a_edge5_Node000004_Node000006"><a xlink:title=" ">
<path fill="none" stroke="#63b8ff" d="M551.38,-69.69C559.27,-68.31 567.34,-67.03 575,-66 760.32,-41.16 979.13,-26.83 1097.47,-20.3"/>
<polygon fill="#63b8ff" stroke="#63b8ff" points="550.75,-66.24 541.53,-71.46 551.99,-73.13 550.75,-66.24"/>
</a>
</g>
</g>
<!-- Node8&#45;&gt;Node5 -->
<g id="edge8_Node000008_Node000005" class="edge">
<title>Node8&#45;&gt;Node5</title>
<g id="a_edge8_Node000008_Node000005"><a xlink:title=" ">
<path fill="none" stroke="#63b8ff" d="M742.63,-65.89C981.17,-38.47 1044.53,-55.17 1280,-30 1282.74,-29.71 1285.51,-29.39 1288.31,-29.07"/>
<polygon fill="#63b8ff" stroke="#63b8ff" points="742.13,-62.42 732.61,-67.05 742.94,-69.37 742.13,-62.42"/>
</a>
</g>
</g>
<!-- Node8&#45;&gt;Node6 -->
<g id="edge9_Node000008_Node000006" class="edge">
<title>Node8&#45;&gt;Node6</title>
<g id="a_edge9_Node000008_Node000006"><a xlink:title=" ">
<path fill="none" stroke="#63b8ff" d="M742.69,-65.81C871.64,-47.87 1010.07,-33.11 1097.24,-24.38"/>
<polygon fill="#63b8ff" stroke="#63b8ff" points="742.04,-62.36 732.63,-67.21 743.02,-69.29 742.04,-62.36"/>
</a>
</g>
</g>
<!-- Node9&#45;&gt;Node5 -->
<g id="edge11_Node000009_Node000005" class="edge">
<title>Node9&#45;&gt;Node5</title>
<g id="a_edge11_Node000009_Node000005"><a xlink:title=" ">
<path fill="none" stroke="#63b8ff" d="M918.4,-65.87C1079.54,-45.43 1122.39,-49.42 1280,-30 1282.73,-29.66 1285.5,-29.31 1288.3,-28.95"/>
<polygon fill="#63b8ff" stroke="#63b8ff" points="917.6,-62.44 908.12,-67.19 918.49,-69.39 917.6,-62.44"/>
</a>
</g>
</g>
<!-- Node9&#45;&gt;Node6 -->
<g id="edge12_Node000009_Node000006" class="edge">
<title>Node9&#45;&gt;Node6</title>
<g id="a_edge12_Node000009_Node000006"><a xlink:title=" ">
<path fill="none" stroke="#63b8ff" d="M916.81,-64.17C974.89,-53.7 1050.37,-40.09 1106.28,-30.01"/>
<polygon fill="#63b8ff" stroke="#63b8ff" points="916.13,-60.74 906.91,-65.95 917.37,-67.63 916.13,-60.74"/>
</a>
</g>
</g>
<!-- Node10&#45;&gt;Node5 -->
<g id="edge14_Node000010_Node000005" class="edge">
<title>Node10&#45;&gt;Node5</title>
<g id="a_edge14_Node000010_Node000005"><a xlink:title=" ">
<path fill="none" stroke="#63b8ff" d="M1070.43,-69.7C1131.45,-58.94 1227.54,-42 1295.45,-30.02"/>
<polygon fill="#63b8ff" stroke="#63b8ff" points="1069.82,-66.25 1060.58,-71.44 1071.03,-73.15 1069.82,-66.25"/>
</a>
</g>
</g>
<!-- Node10&#45;&gt;Node6 -->
<g id="edge15_Node000010_Node000006" class="edge">
<title>Node10&#45;&gt;Node6</title>
<g id="a_edge15_Node000010_Node000006"><a xlink:title=" ">
<path fill="none" stroke="#63b8ff" d="M1044.82,-67.79C1073.7,-57.04 1115.75,-41.4 1146.06,-30.12"/>
<polygon fill="#63b8ff" stroke="#63b8ff" points="1043.35,-64.6 1035.2,-71.37 1045.79,-71.16 1043.35,-64.6"/>
</a>
</g>
</g>
<!-- Node11&#45;&gt;Node5 -->
<g id="edge17_Node000011_Node000005" class="edge">
<title>Node11&#45;&gt;Node5</title>
<g id="a_edge17_Node000011_Node000005"><a xlink:title=" ">
<path fill="none" stroke="#63b8ff" d="M1241.78,-62.59C1271.04,-52.36 1307.54,-39.59 1334.93,-30.01"/>
<polygon fill="#63b8ff" stroke="#63b8ff" points="1240.44,-59.35 1232.16,-65.95 1242.75,-65.96 1240.44,-59.35"/>
</a>
</g>
</g>
<!-- Node11&#45;&gt;Node6 -->
<g id="edge18_Node000011_Node000006" class="edge">
<title>Node11&#45;&gt;Node6</title>
<g id="a_edge18_Node000011_Node000006"><a xlink:title=" ">
<path fill="none" stroke="#63b8ff" d="M1188.98,-55.83C1187.9,-47.17 1186.71,-37.7 1185.77,-30.16"/>
<polygon fill="#63b8ff" stroke="#63b8ff" points="1185.51,-56.31 1190.22,-65.8 1192.46,-55.44 1185.51,-56.31"/>
</a>
</g>
</g>
<!-- Node12&#45;&gt;Node5 -->
<g id="edge20_Node000012_Node000005" class="edge">
<title>Node12&#45;&gt;Node5</title>
<g id="a_edge20_Node000012_Node000005"><a xlink:title=" ">
<path fill="none" stroke="#63b8ff" d="M1369.33,-61.35C1370.57,-51.47 1372.06,-39.51 1373.2,-30.36"/>
<polygon fill="#63b8ff" stroke="#63b8ff" points="1365.85,-61.01 1368.08,-71.37 1372.79,-61.88 1365.85,-61.01"/>
</a>
</g>
</g>
<!-- Node12&#45;&gt;Node6 -->
<g id="edge21_Node000012_Node000006" class="edge">
<title>Node12&#45;&gt;Node6</title>
<g id="a_edge21_Node000012_Node000006"><a xlink:title=" ">
<path fill="none" stroke="#63b8ff" d="M1332.48,-67.93C1301.74,-57.18 1256.75,-41.44 1224.36,-30.12"/>
<polygon fill="#63b8ff" stroke="#63b8ff" points="1331.72,-71.37 1342.32,-71.37 1334.04,-64.76 1331.72,-71.37"/>
</a>
</g>
</g>
<!-- Node13&#45;&gt;Node5 -->
<g id="edge23_Node000013_Node000005" class="edge">
<title>Node13&#45;&gt;Node5</title>
<g id="a_edge23_Node000013_Node000005"><a xlink:title=" ">
<path fill="none" stroke="#63b8ff" d="M1490.47,-62.19C1465.06,-52.02 1433.67,-39.47 1410.03,-30.01"/>
<polygon fill="#63b8ff" stroke="#63b8ff" points="1489.3,-65.49 1499.89,-65.95 1491.9,-58.99 1489.3,-65.49"/>
</a>
</g>
</g>
<!-- Node13&#45;&gt;Node6 -->
<g id="edge24_Node000013_Node000006" class="edge">
<title>Node13&#45;&gt;Node6</title>
<g id="a_edge24_Node000013_Node000006"><a xlink:title=" ">
<path fill="none" stroke="#63b8ff" d="M1456.58,-65.7C1398.19,-55.05 1318.89,-40.6 1260.88,-30.02"/>
<polygon fill="#63b8ff" stroke="#63b8ff" points="1456.02,-69.16 1466.49,-67.51 1457.28,-62.27 1456.02,-69.16"/>
</a>
</g>
</g>
<!-- Node14&#45;&gt;Node5 -->
<g id="edge26_Node000014_Node000005" class="edge">
<title>Node14&#45;&gt;Node5</title>
<g id="a_edge26_Node000014_Node000005"><a xlink:title=" ">
<path fill="none" stroke="#63b8ff" d="M1632.64,-69.36C1580.64,-58.59 1499.93,-41.87 1442.71,-30.02"/>
<polygon fill="#63b8ff" stroke="#63b8ff" points="1632.15,-72.83 1642.65,-71.44 1633.57,-65.98 1632.15,-72.83"/>
</a>
</g>
</g>
<!-- Node14&#45;&gt;Node6 -->
<g id="edge27_Node000014_Node000006" class="edge">
<title>Node14&#45;&gt;Node6</title>
<g id="a_edge27_Node000014_Node000006"><a xlink:title=" ">
<path fill="none" stroke="#63b8ff" d="M1633.83,-69.54C1626.85,-68.25 1619.76,-67.03 1613,-66 1465.84,-43.58 1427.68,-48.74 1280,-30 1276.91,-29.61 1273.76,-29.2 1270.59,-28.78"/>
<polygon fill="#63b8ff" stroke="#63b8ff" points="1633.45,-73.03 1643.93,-71.47 1634.76,-66.16 1633.45,-73.03"/>
</a>
</g>
</g>
<!-- Node15&#45;&gt;Node5 -->
<g id="edge29_Node000015_Node000005" class="edge">
<title>Node15&#45;&gt;Node5</title>
<g id="a_edge29_Node000015_Node000005"><a xlink:title=" ">
<path fill="none" stroke="#63b8ff" d="M1782.93,-69.93C1773.89,-68.58 1764.72,-67.24 1756,-66 1655.1,-51.7 1538.97,-36.67 1461.7,-26.86"/>
<polygon fill="#63b8ff" stroke="#63b8ff" points="1782.65,-73.42 1793.05,-71.45 1783.69,-66.5 1782.65,-73.42"/>
</a>
</g>
</g>
<!-- Node15&#45;&gt;Node6 -->
<g id="edge30_Node000015_Node000006" class="edge">
<title>Node15&#45;&gt;Node6</title>
<g id="a_edge30_Node000015_Node000006"><a xlink:title=" ">
<path fill="none" stroke="#63b8ff" d="M1786.47,-69.98C1776.31,-68.51 1765.87,-67.12 1756,-66 1545.2,-42.02 1490.87,-53.32 1280,-30 1276.9,-29.66 1273.75,-29.29 1270.57,-28.91"/>
<polygon fill="#63b8ff" stroke="#63b8ff" points="1786.11,-73.46 1796.51,-71.46 1787.13,-66.54 1786.11,-73.46"/>
</a>
</g>
</g>
<!-- Node16&#45;&gt;Node5 -->
<g id="edge32_Node000016_Node000005" class="edge">
<title>Node16&#45;&gt;Node5</title>
<g id="a_edge32_Node000016_Node000005"><a xlink:title=" ">
<path fill="none" stroke="#63b8ff" d="M1939.32,-65.98C1763.86,-44.41 1570.87,-29.41 1461.83,-21.75"/>
<polygon fill="#63b8ff" stroke="#63b8ff" points="1938.9,-69.45 1949.25,-67.21 1939.76,-62.5 1938.9,-69.45"/>
</a>
</g>
</g>
<!-- Node16&#45;&gt;Node6 -->
<g id="edge33_Node000016_Node000006" class="edge">
<title>Node16&#45;&gt;Node6</title>
<g id="a_edge33_Node000016_Node000006"><a xlink:title=" ">
<path fill="none" stroke="#63b8ff" d="M1939.2,-66C1646.19,-35.17 1569.03,-58.9 1280,-30 1276.9,-29.69 1273.75,-29.35 1270.56,-28.99"/>
<polygon fill="#63b8ff" stroke="#63b8ff" points="1938.95,-69.5 1949.27,-67.08 1939.69,-62.54 1938.95,-69.5"/>
</a>
</g>
</g>
<!-- Node17&#45;&gt;Node5 -->
<g id="edge35_Node000017_Node000005" class="edge">
<title>Node17&#45;&gt;Node5</title>
<g id="a_edge35_Node000017_Node000005"><a xlink:title=" ">
<path fill="none" stroke="#63b8ff" d="M2140.99,-69.82C2131.99,-68.38 2122.75,-67.04 2114,-66 1879.05,-38.07 1600.07,-24.46 1461.73,-19.01"/>
<polygon fill="#63b8ff" stroke="#63b8ff" points="2140.57,-73.3 2151.01,-71.47 2141.71,-66.39 2140.57,-73.3"/>
</a>
</g>
</g>
<!-- Node17&#45;&gt;Node6 -->
<g id="edge36_Node000017_Node000006" class="edge">
<title>Node17&#45;&gt;Node6</title>
<g id="a_edge36_Node000017_Node000006"><a xlink:title=" ">
<path fill="none" stroke="#63b8ff" d="M2142.27,-69.83C2132.88,-68.34 2123.18,-66.98 2114,-66 1745.08,-26.7 1649.37,-64.81 1280,-30 1276.9,-29.71 1273.74,-29.38 1270.56,-29.04"/>
<polygon fill="#63b8ff" stroke="#63b8ff" points="2141.87,-73.31 2152.31,-71.49 2143.01,-66.41 2141.87,-73.31"/>
</a>
</g>
</g>
<!-- Node18&#45;&gt;Node5 -->
<g id="edge38_Node000018_Node000005" class="edge">
<title>Node18&#45;&gt;Node5</title>
<g id="a_edge38_Node000018_Node000005"><a xlink:title=" ">
<path fill="none" stroke="#63b8ff" d="M2306.32,-69.78C2297.22,-68.33 2287.86,-67 2279,-66 1980.08,-32.33 1622.89,-21.06 1461.59,-17.51"/>
<polygon fill="#63b8ff" stroke="#63b8ff" points="2306.01,-73.27 2316.45,-71.44 2307.15,-66.36 2306.01,-73.27"/>
</a>
</g>
</g>
<!-- Node18&#45;&gt;Node6 -->
<g id="edge39_Node000018_Node000006" class="edge">
<title>Node18&#45;&gt;Node6</title>
<g id="a_edge39_Node000018_Node000006"><a xlink:title=" ">
<path fill="none" stroke="#63b8ff" d="M2307.28,-69.78C2297.88,-68.29 2288.18,-66.94 2279,-66 1837.05,-20.51 1722.47,-70.12 1280,-30 1276.9,-29.72 1273.74,-29.4 1270.56,-29.06"/>
<polygon fill="#63b8ff" stroke="#63b8ff" points="2306.88,-73.26 2317.32,-71.43 2308.02,-66.35 2306.88,-73.26"/>
</a>
</g>
</g>
<!-- Node19&#45;&gt;Node5 -->
<g id="edge41_Node000019_Node000005" class="edge">
<title>Node19&#45;&gt;Node5</title>
<g id="a_edge41_Node000019_Node000005"><a xlink:title=" ">
<path fill="none" stroke="#63b8ff" d="M285.9,-65.9C726.13,-19.04 842.22,-70.05 1280,-30 1282.74,-29.75 1285.52,-29.47 1288.33,-29.18"/>
<polygon fill="#63b8ff" stroke="#63b8ff" points="285.34,-62.44 275.78,-66.99 286.09,-69.4 285.34,-62.44"/>
</a>
</g>
</g>
<!-- Node19&#45;&gt;Node6 -->
<g id="edge42_Node000019_Node000006" class="edge">
<title>Node19&#45;&gt;Node6</title>
<g id="a_edge42_Node000019_Node000006"><a xlink:title=" ">
<path fill="none" stroke="#63b8ff" d="M286.09,-65.85C589.18,-30.63 938.46,-20.28 1097.44,-17.23"/>
<polygon fill="#63b8ff" stroke="#63b8ff" points="285.31,-62.41 275.78,-67.06 286.12,-69.37 285.31,-62.41"/>
</a>
</g>
</g>
<!-- Node20&#45;&gt;Node5 -->
<g id="edge44_Node000020_Node000005" class="edge">
<title>Node20&#45;&gt;Node5</title>
<g id="a_edge44_Node000020_Node000005"><a xlink:title=" ">
<path fill="none" stroke="#63b8ff" d="M402.78,-69.55C410.51,-68.15 418.45,-66.9 426,-66 803.23,-21.12 901.79,-65.74 1280,-30 1282.74,-29.74 1285.52,-29.46 1288.32,-29.15"/>
<polygon fill="#63b8ff" stroke="#63b8ff" points="401.96,-66.14 392.78,-71.44 403.26,-73.02 401.96,-66.14"/>
</a>
</g>
</g>
<!-- Node20&#45;&gt;Node6 -->
<g id="edge45_Node000020_Node000006" class="edge">
<title>Node20&#45;&gt;Node6</title>
<g id="a_edge45_Node000020_Node000006"><a xlink:title=" ">
<path fill="none" stroke="#63b8ff" d="M403.58,-69.56C411.06,-68.2 418.72,-66.95 426,-66 667.92,-34.3 956.04,-22.31 1097.25,-18.09"/>
<polygon fill="#63b8ff" stroke="#63b8ff" points="402.72,-66.16 393.54,-71.46 404.02,-73.04 402.72,-66.16"/>
</a>
</g>
</g>
</g>
</svg>
