<?xml version="1.0" encoding="UTF-8" standalone="no"?>
<!DOCTYPE svg PUBLIC "-//W3C//DTD SVG 1.1//EN"
 "http://www.w3.org/Graphics/SVG/1.1/DTD/svg11.dtd">
<!-- Generated by graphviz version 2.43.0 (0)
 -->
<!-- Title: sitkTransform.h Pages: 1 -->
<svg width="1409pt" height="423pt"
 viewBox="0.00 0.00 1408.98 423.00" xmlns="http://www.w3.org/2000/svg" xmlns:xlink="http://www.w3.org/1999/xlink">
<g id="graph0" class="graph" transform="scale(1 1) rotate(0) translate(4 419)">
<title>sitkTransform.h</title>
<!-- Node1 -->
<g id="Node000001" class="node">
<title>Node1</title>
<g id="a_Node000001"><a xlink:title=" ">
<polygon fill="#999999" stroke="#666666" points="409.48,-415 317.48,-415 317.48,-396 409.48,-396 409.48,-415"/>
<text text-anchor="middle" x="363.48" y="-403" font-family="Helvetica,sans-Serif" font-size="10.00">sitkTransform.h</text>
</a>
</g>
</g>
<!-- Node2 -->
<g id="Node000002" class="node">
<title>Node2</title>
<g id="a_Node000002"><a xlink:href="sitkCommon_8h.html" target="_top" xlink:title=" ">
<polygon fill="white" stroke="#666666" points="374.48,-129 286.48,-129 286.48,-110 374.48,-110 374.48,-129"/>
<text text-anchor="middle" x="330.48" y="-117" font-family="Helvetica,sans-Serif" font-size="10.00">sitkCommon.h</text>
</a>
</g>
</g>
<!-- Node1&#45;&gt;Node2 -->
<g id="edge1_Node000001_Node000002" class="edge">
<title>Node1&#45;&gt;Node2</title>
<g id="a_edge1_Node000001_Node000002"><a xlink:title=" ">
<path fill="none" stroke="#63b8ff" d="M317.26,-400.62C237.29,-391.09 75.48,-358.64 10.48,-250 -49.82,-149.21 169.73,-126.84 276.01,-121.9"/>
<polygon fill="#63b8ff" stroke="#63b8ff" points="276.39,-125.38 286.23,-121.46 276.09,-118.39 276.39,-125.38"/>
</a>
</g>
</g>
<!-- Node10 -->
<g id="Node000010" class="node">
<title>Node10</title>
<g id="a_Node000010"><a xlink:href="sitkExceptionObject_8h.html" target="_top" xlink:title=" ">
<polygon fill="white" stroke="#666666" points="142.98,-244.5 19.98,-244.5 19.98,-225.5 142.98,-225.5 142.98,-244.5"/>
<text text-anchor="middle" x="81.48" y="-232.5" font-family="Helvetica,sans-Serif" font-size="10.00">sitkExceptionObject.h</text>
</a>
</g>
</g>
<!-- Node1&#45;&gt;Node10 -->
<g id="edge9_Node000001_Node000010" class="edge">
<title>Node1&#45;&gt;Node10</title>
<g id="a_edge9_Node000001_Node000010"><a xlink:title=" ">
<path fill="none" stroke="#63b8ff" d="M340.39,-395.89C301.03,-380.67 219.21,-346.65 157.48,-305 134.55,-289.53 111.48,-267.44 96.87,-252.46"/>
<polygon fill="#63b8ff" stroke="#63b8ff" points="99.13,-249.75 89.69,-244.95 94.07,-254.59 99.13,-249.75"/>
</a>
</g>
</g>
<!-- Node12 -->
<g id="Node000012" class="node">
<title>Node12</title>
<g id="a_Node000012"><a xlink:href="sitkImage_8h.html" target="_top" xlink:title=" ">
<polygon fill="white" stroke="#666666" points="476.48,-360 402.48,-360 402.48,-341 476.48,-341 476.48,-360"/>
<text text-anchor="middle" x="439.48" y="-348" font-family="Helvetica,sans-Serif" font-size="10.00">sitkImage.h</text>
</a>
</g>
</g>
<!-- Node1&#45;&gt;Node12 -->
<g id="edge13_Node000001_Node000012" class="edge">
<title>Node1&#45;&gt;Node12</title>
<g id="a_edge13_Node000001_Node000012"><a xlink:title=" ">
<path fill="none" stroke="#63b8ff" d="M375.69,-395.98C387.26,-387.92 404.86,-375.65 418.64,-366.03"/>
<polygon fill="#63b8ff" stroke="#63b8ff" points="420.85,-368.76 427.05,-360.17 416.85,-363.02 420.85,-368.76"/>
</a>
</g>
</g>
<!-- Node14 -->
<g id="Node000014" class="node">
<title>Node14</title>
<g id="a_Node000014"><a xlink:title=" ">
<polygon fill="#e0e0e0" stroke="#999999" points="394.98,-244.5 347.98,-244.5 347.98,-225.5 394.98,-225.5 394.98,-244.5"/>
<text text-anchor="middle" x="371.48" y="-232.5" font-family="Helvetica,sans-Serif" font-size="10.00">vector</text>
</a>
</g>
</g>
<!-- Node1&#45;&gt;Node14 -->
<g id="edge57_Node000001_Node000014" class="edge">
<title>Node1&#45;&gt;Node14</title>
<g id="a_edge57_Node000001_Node000014"><a xlink:title=" ">
<path fill="none" stroke="#63b8ff" d="M363.89,-395.91C365.13,-369.89 368.85,-291.47 370.58,-255.01"/>
<polygon fill="#63b8ff" stroke="#63b8ff" points="374.09,-254.93 371.07,-244.77 367.1,-254.6 374.09,-254.93"/>
</a>
</g>
</g>
<!-- Node33 -->
<g id="Node000033" class="node">
<title>Node33</title>
<g id="a_Node000033"><a xlink:href="sitkPathType_8h.html" target="_top" xlink:title=" ">
<polygon fill="white" stroke="#666666" points="750.98,-360 663.98,-360 663.98,-341 750.98,-341 750.98,-360"/>
<text text-anchor="middle" x="707.48" y="-348" font-family="Helvetica,sans-Serif" font-size="10.00">sitkPathType.h</text>
</a>
</g>
</g>
<!-- Node1&#45;&gt;Node33 -->
<g id="edge55_Node000001_Node000033" class="edge">
<title>Node1&#45;&gt;Node33</title>
<g id="a_edge55_Node000001_Node000033"><a xlink:title=" ">
<path fill="none" stroke="#63b8ff" d="M409.52,-397.41C472.91,-387.64 586.82,-370.09 653.94,-359.75"/>
<polygon fill="#63b8ff" stroke="#63b8ff" points="654.54,-363.2 663.89,-358.22 653.47,-356.28 654.54,-363.2"/>
</a>
</g>
</g>
<!-- Node3 -->
<g id="Node000003" class="node">
<title>Node3</title>
<g id="a_Node000003"><a xlink:href="sitkMacro_8h.html" target="_top" xlink:title=" ">
<polygon fill="white" stroke="#666666" points="398.48,-74 324.48,-74 324.48,-55 398.48,-55 398.48,-74"/>
<text text-anchor="middle" x="361.48" y="-62" font-family="Helvetica,sans-Serif" font-size="10.00">sitkMacro.h</text>
</a>
</g>
</g>
<!-- Node2&#45;&gt;Node3 -->
<g id="edge2_Node000002_Node000003" class="edge">
<title>Node2&#45;&gt;Node3</title>
<g id="a_edge2_Node000002_Node000003"><a xlink:title=" ">
<path fill="none" stroke="#63b8ff" d="M335.6,-109.75C339.85,-102.49 346.01,-91.95 351.26,-82.98"/>
<polygon fill="#63b8ff" stroke="#63b8ff" points="354.43,-84.49 356.46,-74.09 348.39,-80.95 354.43,-84.49"/>
</a>
</g>
</g>
<!-- Node4 -->
<g id="Node000004" class="node">
<title>Node4</title>
<g id="a_Node000004"><a xlink:title=" ">
<polygon fill="#e0e0e0" stroke="#999999" points="680.98,-19 627.98,-19 627.98,0 680.98,0 680.98,-19"/>
<text text-anchor="middle" x="654.48" y="-7" font-family="Helvetica,sans-Serif" font-size="10.00">stdint.h</text>
</a>
</g>
</g>
<!-- Node3&#45;&gt;Node4 -->
<g id="edge3_Node000003_Node000004" class="edge">
<title>Node3&#45;&gt;Node4</title>
<g id="a_edge3_Node000003_Node000004"><a xlink:title=" ">
<path fill="none" stroke="#63b8ff" d="M398.59,-56.79C454.98,-46.59 561.62,-27.3 617.77,-17.14"/>
<polygon fill="#63b8ff" stroke="#63b8ff" points="618.43,-20.58 627.65,-15.35 617.18,-13.69 618.43,-20.58"/>
</a>
</g>
</g>
<!-- Node5 -->
<g id="Node000005" class="node">
<title>Node5</title>
<g id="a_Node000005"><a xlink:title=" ">
<polygon fill="#e0e0e0" stroke="#999999" points="281.48,-19 225.48,-19 225.48,0 281.48,0 281.48,-19"/>
<text text-anchor="middle" x="253.48" y="-7" font-family="Helvetica,sans-Serif" font-size="10.00">stddef.h</text>
</a>
</g>
</g>
<!-- Node3&#45;&gt;Node5 -->
<g id="edge4_Node000003_Node000005" class="edge">
<title>Node3&#45;&gt;Node5</title>
<g id="a_edge4_Node000003_Node000005"><a xlink:title=" ">
<path fill="none" stroke="#63b8ff" d="M344.13,-54.98C326.91,-46.54 300.28,-33.47 280.34,-23.68"/>
<polygon fill="#63b8ff" stroke="#63b8ff" points="281.67,-20.43 271.15,-19.17 278.59,-26.72 281.67,-20.43"/>
</a>
</g>
</g>
<!-- Node6 -->
<g id="Node000006" class="node">
<title>Node6</title>
<g id="a_Node000006"><a xlink:title=" ">
<polygon fill="#e0e0e0" stroke="#999999" points="351.48,-19 299.48,-19 299.48,0 351.48,0 351.48,-19"/>
<text text-anchor="middle" x="325.48" y="-7" font-family="Helvetica,sans-Serif" font-size="10.00">cassert</text>
</a>
</g>
</g>
<!-- Node3&#45;&gt;Node6 -->
<g id="edge5_Node000003_Node000006" class="edge">
<title>Node3&#45;&gt;Node6</title>
<g id="a_edge5_Node000003_Node000006"><a xlink:title=" ">
<path fill="none" stroke="#63b8ff" d="M355.54,-54.75C350.51,-47.34 343.15,-36.5 336.97,-27.41"/>
<polygon fill="#63b8ff" stroke="#63b8ff" points="339.83,-25.39 331.32,-19.09 334.04,-29.33 339.83,-25.39"/>
</a>
</g>
</g>
<!-- Node7 -->
<g id="Node000007" class="node">
<title>Node7</title>
<g id="a_Node000007"><a xlink:title=" ">
<polygon fill="#e0e0e0" stroke="#999999" points="425.48,-19 369.48,-19 369.48,0 425.48,0 425.48,-19"/>
<text text-anchor="middle" x="397.48" y="-7" font-family="Helvetica,sans-Serif" font-size="10.00">sstream</text>
</a>
</g>
</g>
<!-- Node3&#45;&gt;Node7 -->
<g id="edge6_Node000003_Node000007" class="edge">
<title>Node3&#45;&gt;Node7</title>
<g id="a_edge6_Node000003_Node000007"><a xlink:title=" ">
<path fill="none" stroke="#63b8ff" d="M367.43,-54.75C372.46,-47.34 379.82,-36.5 386,-27.41"/>
<polygon fill="#63b8ff" stroke="#63b8ff" points="388.92,-29.33 391.65,-19.09 383.13,-25.39 388.92,-29.33"/>
</a>
</g>
</g>
<!-- Node8 -->
<g id="Node000008" class="node">
<title>Node8</title>
<g id="a_Node000008"><a xlink:title=" ">
<polygon fill="#e0e0e0" stroke="#999999" points="487.48,-19 443.48,-19 443.48,0 487.48,0 487.48,-19"/>
<text text-anchor="middle" x="465.48" y="-7" font-family="Helvetica,sans-Serif" font-size="10.00">limits</text>
</a>
</g>
</g>
<!-- Node3&#45;&gt;Node8 -->
<g id="edge7_Node000003_Node000008" class="edge">
<title>Node3&#45;&gt;Node8</title>
<g id="a_edge7_Node000003_Node000008"><a xlink:title=" ">
<path fill="none" stroke="#63b8ff" d="M378.19,-54.98C394.7,-46.57 420.18,-33.59 439.36,-23.81"/>
<polygon fill="#63b8ff" stroke="#63b8ff" points="441.15,-26.83 448.47,-19.17 437.97,-20.59 441.15,-26.83"/>
</a>
</g>
</g>
<!-- Node9 -->
<g id="Node000009" class="node">
<title>Node9</title>
<g id="a_Node000009"><a xlink:href="sitkConfigure_8h.html" target="_top" xlink:title=" ">
<polygon fill="white" stroke="#666666" points="850.48,-19 760.48,-19 760.48,0 850.48,0 850.48,-19"/>
<text text-anchor="middle" x="805.48" y="-7" font-family="Helvetica,sans-Serif" font-size="10.00">sitkConfigure.h</text>
</a>
</g>
</g>
<!-- Node3&#45;&gt;Node9 -->
<g id="edge8_Node000003_Node000009" class="edge">
<title>Node3&#45;&gt;Node9</title>
<g id="a_edge8_Node000003_Node000009"><a xlink:title=" ">
<path fill="none" stroke="#63b8ff" d="M398.57,-59.07C476.72,-49.74 658.63,-28.03 750.42,-17.07"/>
<polygon fill="#63b8ff" stroke="#63b8ff" points="750.84,-20.55 760.35,-15.89 750.01,-13.6 750.84,-20.55"/>
</a>
</g>
</g>
<!-- Node10&#45;&gt;Node2 -->
<g id="edge11_Node000010_Node000002" class="edge">
<title>Node10&#45;&gt;Node2</title>
<g id="a_edge11_Node000010_Node000002"><a xlink:title=" ">
<path fill="none" stroke="#63b8ff" d="M88,-225.32C99.52,-210.58 125,-180.75 153.48,-165 191.63,-143.9 239.89,-132.63 276.38,-126.71"/>
<polygon fill="#63b8ff" stroke="#63b8ff" points="276.99,-130.16 286.34,-125.18 275.92,-123.24 276.99,-130.16"/>
</a>
</g>
</g>
<!-- Node10&#45;&gt;Node3 -->
<g id="edge10_Node000010_Node000003" class="edge">
<title>Node10&#45;&gt;Node3</title>
<g id="a_edge10_Node000010_Node000003"><a xlink:title=" ">
<path fill="none" stroke="#63b8ff" d="M84.75,-225.16C90.49,-210.72 103.7,-182 123.48,-165 179.68,-116.7 262.66,-89.27 314.33,-75.91"/>
<polygon fill="#63b8ff" stroke="#63b8ff" points="315.38,-79.25 324.22,-73.42 313.67,-72.46 315.38,-79.25"/>
</a>
</g>
</g>
<!-- Node11 -->
<g id="Node000011" class="node">
<title>Node11</title>
<g id="a_Node000011"><a xlink:title=" ">
<polygon fill="#e0e0e0" stroke="#999999" points="253.48,-184 195.48,-184 195.48,-165 253.48,-165 253.48,-184"/>
<text text-anchor="middle" x="224.48" y="-172" font-family="Helvetica,sans-Serif" font-size="10.00">memory</text>
</a>
</g>
</g>
<!-- Node10&#45;&gt;Node11 -->
<g id="edge12_Node000010_Node000011" class="edge">
<title>Node10&#45;&gt;Node11</title>
<g id="a_edge12_Node000010_Node000011"><a xlink:title=" ">
<path fill="none" stroke="#63b8ff" d="M102.28,-225.49C126.42,-215.62 166.47,-199.23 194.1,-187.93"/>
<polygon fill="#63b8ff" stroke="#63b8ff" points="195.73,-191.04 203.66,-184.02 193.08,-184.56 195.73,-191.04"/>
</a>
</g>
</g>
<!-- Node12&#45;&gt;Node2 -->
<g id="edge14_Node000012_Node000002" class="edge">
<title>Node12&#45;&gt;Node2</title>
<g id="a_edge14_Node000012_Node000002"><a xlink:title=" ">
<path fill="none" stroke="#63b8ff" d="M402.33,-348.38C339.77,-345.63 217.57,-336.29 190.48,-305 149.74,-257.94 149.53,-215.09 186.48,-165 207.02,-137.16 244.74,-126.21 276.43,-122.13"/>
<polygon fill="#63b8ff" stroke="#63b8ff" points="276.91,-125.59 286.47,-121.03 276.15,-118.63 276.91,-125.59"/>
</a>
</g>
</g>
<!-- Node12&#45;&gt;Node11 -->
<g id="edge53_Node000012_Node000011" class="edge">
<title>Node12&#45;&gt;Node11</title>
<g id="a_edge53_Node000012_Node000011"><a xlink:title=" ">
<path fill="none" stroke="#63b8ff" d="M439.91,-340.79C440.56,-317.58 438.94,-253.72 404.48,-220 384.75,-200.69 310.65,-187.28 263.9,-180.53"/>
<polygon fill="#63b8ff" stroke="#63b8ff" points="264.19,-177.04 253.8,-179.11 263.21,-183.97 264.19,-177.04"/>
</a>
</g>
</g>
<!-- Node13 -->
<g id="Node000013" class="node">
<title>Node13</title>
<g id="a_Node000013"><a xlink:href="sitkTemplateFunctions_8h.html" target="_top" xlink:title=" ">
<polygon fill="white" stroke="#666666" points="334.98,-305 199.98,-305 199.98,-286 334.98,-286 334.98,-305"/>
<text text-anchor="middle" x="267.48" y="-293" font-family="Helvetica,sans-Serif" font-size="10.00">sitkTemplateFunctions.h</text>
</a>
</g>
</g>
<!-- Node12&#45;&gt;Node13 -->
<g id="edge15_Node000012_Node000013" class="edge">
<title>Node12&#45;&gt;Node13</title>
<g id="a_edge15_Node000012_Node000013"><a xlink:title=" ">
<path fill="none" stroke="#63b8ff" d="M411.85,-340.98C382.97,-332.09 337.47,-318.07 305.28,-308.15"/>
<polygon fill="#63b8ff" stroke="#63b8ff" points="305.92,-304.68 295.33,-305.08 303.86,-311.37 305.92,-304.68"/>
</a>
</g>
</g>
<!-- Node12&#45;&gt;Node14 -->
<g id="edge52_Node000012_Node000014" class="edge">
<title>Node12&#45;&gt;Node14</title>
<g id="a_edge52_Node000012_Node000014"><a xlink:title=" ">
<path fill="none" stroke="#63b8ff" d="M434.37,-340.97C423.25,-322.4 396.65,-278.01 381.86,-253.32"/>
<polygon fill="#63b8ff" stroke="#63b8ff" points="384.79,-251.41 376.65,-244.63 378.79,-255.01 384.79,-251.41"/>
</a>
</g>
</g>
<!-- Node17 -->
<g id="Node000017" class="node">
<title>Node17</title>
<g id="a_Node000017"><a xlink:href="sitkDetail_8h.html" target="_top" xlink:title=" ">
<polygon fill="white" stroke="#666666" points="1020.98,-305 947.98,-305 947.98,-286 1020.98,-286 1020.98,-305"/>
<text text-anchor="middle" x="984.48" y="-293" font-family="Helvetica,sans-Serif" font-size="10.00">sitkDetail.h</text>
</a>
</g>
</g>
<!-- Node12&#45;&gt;Node17 -->
<g id="edge22_Node000012_Node000017" class="edge">
<title>Node12&#45;&gt;Node17</title>
<g id="a_edge22_Node000012_Node000017"><a xlink:title=" ">
<path fill="none" stroke="#63b8ff" d="M476.51,-345.9C572.85,-336.53 831.19,-311.41 937.64,-301.06"/>
<polygon fill="#63b8ff" stroke="#63b8ff" points="938.14,-304.52 947.76,-300.07 937.47,-297.56 938.14,-304.52"/>
</a>
</g>
</g>
<!-- Node28 -->
<g id="Node000028" class="node">
<title>Node28</title>
<g id="a_Node000028"><a xlink:href="sitkPixelIDTokens_8h.html" target="_top" xlink:title=" ">
<polygon fill="white" stroke="#666666" points="670.48,-305 560.48,-305 560.48,-286 670.48,-286 670.48,-305"/>
<text text-anchor="middle" x="615.48" y="-293" font-family="Helvetica,sans-Serif" font-size="10.00">sitkPixelIDTokens.h</text>
</a>
</g>
</g>
<!-- Node12&#45;&gt;Node28 -->
<g id="edge41_Node000012_Node000028" class="edge">
<title>Node12&#45;&gt;Node28</title>
<g id="a_edge41_Node000012_Node000028"><a xlink:title=" ">
<path fill="none" stroke="#63b8ff" d="M467.76,-340.98C497.44,-332.05 544.27,-317.94 577.23,-308.02"/>
<polygon fill="#63b8ff" stroke="#63b8ff" points="578.42,-311.32 586.98,-305.08 576.4,-304.61 578.42,-311.32"/>
</a>
</g>
</g>
<!-- Node31 -->
<g id="Node000031" class="node">
<title>Node31</title>
<g id="a_Node000031"><a xlink:title=" ">
<polygon fill="#e0e0e0" stroke="#999999" points="638.98,-244.5 569.98,-244.5 569.98,-225.5 638.98,-225.5 638.98,-244.5"/>
<text text-anchor="middle" x="604.48" y="-232.5" font-family="Helvetica,sans-Serif" font-size="10.00">type_traits</text>
</a>
</g>
</g>
<!-- Node12&#45;&gt;Node31 -->
<g id="edge54_Node000012_Node000031" class="edge">
<title>Node12&#45;&gt;Node31</title>
<g id="a_edge54_Node000012_Node000031"><a xlink:title=" ">
<path fill="none" stroke="#63b8ff" d="M451.88,-340.97C479.95,-321.66 548.61,-274.43 583.46,-250.46"/>
<polygon fill="#63b8ff" stroke="#63b8ff" points="585.68,-253.18 591.94,-244.63 581.71,-247.41 585.68,-253.18"/>
</a>
</g>
</g>
<!-- Node32 -->
<g id="Node000032" class="node">
<title>Node32</title>
<g id="a_Node000032"><a xlink:href="sitkInterpolator_8h.html" target="_top" xlink:title=" ">
<polygon fill="white" stroke="#666666" points="551.48,-244.5 451.48,-244.5 451.48,-225.5 551.48,-225.5 551.48,-244.5"/>
<text text-anchor="middle" x="501.48" y="-232.5" font-family="Helvetica,sans-Serif" font-size="10.00">sitkInterpolator.h</text>
</a>
</g>
</g>
<!-- Node12&#45;&gt;Node32 -->
<g id="edge49_Node000012_Node000032" class="edge">
<title>Node12&#45;&gt;Node32</title>
<g id="a_edge49_Node000012_Node000032"><a xlink:title=" ">
<path fill="none" stroke="#63b8ff" d="M444.14,-340.97C454.24,-322.48 478.32,-278.4 491.84,-253.64"/>
<polygon fill="#63b8ff" stroke="#63b8ff" points="495.05,-255.08 496.77,-244.63 488.9,-251.73 495.05,-255.08"/>
</a>
</g>
</g>
<!-- Node13&#45;&gt;Node2 -->
<g id="edge17_Node000013_Node000002" class="edge">
<title>Node13&#45;&gt;Node2</title>
<g id="a_edge17_Node000013_Node000002"><a xlink:title=" ">
<path fill="none" stroke="#63b8ff" d="M268.79,-285.69C272.19,-264.29 282.36,-208.14 301.48,-165 305.77,-155.32 312.05,-145.38 317.66,-137.35"/>
<polygon fill="#63b8ff" stroke="#63b8ff" points="320.53,-139.36 323.58,-129.21 314.87,-135.24 320.53,-139.36"/>
</a>
</g>
</g>
<!-- Node13&#45;&gt;Node3 -->
<g id="edge16_Node000013_Node000003" class="edge">
<title>Node13&#45;&gt;Node3</title>
<g id="a_edge16_Node000013_Node000003"><a xlink:title=" ">
<path fill="none" stroke="#63b8ff" d="M199.78,-292.33C131.94,-288.55 34.25,-278.23 10.48,-250 1.9,-239.8 4.22,-231.77 10.48,-220 69.6,-108.79 232.99,-77.57 314.28,-68.85"/>
<polygon fill="#63b8ff" stroke="#63b8ff" points="314.65,-72.34 324.25,-67.85 313.95,-65.37 314.65,-72.34"/>
</a>
</g>
</g>
<!-- Node13&#45;&gt;Node10 -->
<g id="edge18_Node000013_Node000010" class="edge">
<title>Node13&#45;&gt;Node10</title>
<g id="a_edge18_Node000013_Node000010"><a xlink:title=" ">
<path fill="none" stroke="#63b8ff" d="M240.44,-285.99C208.2,-275.86 154.19,-258.87 118.2,-247.55"/>
<polygon fill="#63b8ff" stroke="#63b8ff" points="119.15,-244.18 108.56,-244.52 117.05,-250.86 119.15,-244.18"/>
</a>
</g>
</g>
<!-- Node13&#45;&gt;Node14 -->
<g id="edge19_Node000013_Node000014" class="edge">
<title>Node13&#45;&gt;Node14</title>
<g id="a_edge19_Node000013_Node000014"><a xlink:title=" ">
<path fill="none" stroke="#63b8ff" d="M282.83,-285.87C299.8,-276.32 327.38,-260.81 347.27,-249.62"/>
<polygon fill="#63b8ff" stroke="#63b8ff" points="349.07,-252.62 356.07,-244.67 345.64,-246.52 349.07,-252.62"/>
</a>
</g>
</g>
<!-- Node15 -->
<g id="Node000015" class="node">
<title>Node15</title>
<g id="a_Node000015"><a xlink:title=" ">
<polygon fill="#e0e0e0" stroke="#999999" points="366.98,-184 309.98,-184 309.98,-165 366.98,-165 366.98,-184"/>
<text text-anchor="middle" x="338.48" y="-172" font-family="Helvetica,sans-Serif" font-size="10.00">ostream</text>
</a>
</g>
</g>
<!-- Node13&#45;&gt;Node15 -->
<g id="edge20_Node000013_Node000015" class="edge">
<title>Node13&#45;&gt;Node15</title>
<g id="a_edge20_Node000013_Node000015"><a xlink:title=" ">
<path fill="none" stroke="#63b8ff" d="M273.16,-285.7C278.89,-276.76 287.94,-262.51 295.48,-250 307.12,-230.7 319.98,-208.26 328.58,-193.09"/>
<polygon fill="#63b8ff" stroke="#63b8ff" points="331.69,-194.71 333.56,-184.28 325.59,-191.26 331.69,-194.71"/>
</a>
</g>
</g>
<!-- Node16 -->
<g id="Node000016" class="node">
<title>Node16</title>
<g id="a_Node000016"><a xlink:title=" ">
<polygon fill="#e0e0e0" stroke="#999999" points="252.98,-244.5 199.98,-244.5 199.98,-225.5 252.98,-225.5 252.98,-244.5"/>
<text text-anchor="middle" x="226.48" y="-232.5" font-family="Helvetica,sans-Serif" font-size="10.00">iterator</text>
</a>
</g>
</g>
<!-- Node13&#45;&gt;Node16 -->
<g id="edge21_Node000013_Node000016" class="edge">
<title>Node13&#45;&gt;Node16</title>
<g id="a_edge21_Node000013_Node000016"><a xlink:title=" ">
<path fill="none" stroke="#63b8ff" d="M261.43,-285.87C255.38,-277.23 245.9,-263.7 238.34,-252.92"/>
<polygon fill="#63b8ff" stroke="#63b8ff" points="241.16,-250.85 232.56,-244.67 235.43,-254.87 241.16,-250.85"/>
</a>
</g>
</g>
<!-- Node18 -->
<g id="Node000018" class="node">
<title>Node18</title>
<g id="a_Node000018"><a xlink:href="sitkMemberFunctionFactoryBase_8h.html" target="_top" xlink:title=" ">
<polygon fill="white" stroke="#666666" points="1060.48,-250 908.48,-250 908.48,-220 1060.48,-220 1060.48,-250"/>
<text text-anchor="start" x="916.48" y="-238" font-family="Helvetica,sans-Serif" font-size="10.00">sitkMemberFunctionFactory</text>
<text text-anchor="middle" x="984.48" y="-227" font-family="Helvetica,sans-Serif" font-size="10.00">Base.h</text>
</a>
</g>
</g>
<!-- Node17&#45;&gt;Node18 -->
<g id="edge23_Node000017_Node000018" class="edge">
<title>Node17&#45;&gt;Node18</title>
<g id="a_edge23_Node000017_Node000018"><a xlink:title=" ">
<path fill="none" stroke="#63b8ff" d="M984.48,-285.87C984.48,-279.11 984.48,-269.35 984.48,-260.26"/>
<polygon fill="#63b8ff" stroke="#63b8ff" points="987.98,-260.11 984.48,-250.11 980.98,-260.11 987.98,-260.11"/>
</a>
</g>
</g>
<!-- Node24 -->
<g id="Node000024" class="node">
<title>Node24</title>
<g id="a_Node000024"><a xlink:title=" ">
<polygon fill="#e0e0e0" stroke="#999999" points="1400.98,-184 1261.98,-184 1261.98,-165 1400.98,-165 1400.98,-184"/>
<text text-anchor="middle" x="1331.48" y="-172" font-family="Helvetica,sans-Serif" font-size="10.00">Ancillary/FunctionTraits.h</text>
</a>
</g>
</g>
<!-- Node17&#45;&gt;Node24 -->
<g id="edge40_Node000017_Node000024" class="edge">
<title>Node17&#45;&gt;Node24</title>
<g id="a_edge40_Node000017_Node000024"><a xlink:title=" ">
<path fill="none" stroke="#63b8ff" d="M1009.44,-285.94C1070.31,-265.07 1226.56,-211.48 1296.6,-187.46"/>
<polygon fill="#63b8ff" stroke="#63b8ff" points="1297.96,-190.7 1306.29,-184.14 1295.69,-184.07 1297.96,-190.7"/>
</a>
</g>
</g>
<!-- Node18&#45;&gt;Node3 -->
<g id="edge32_Node000018_Node000003" class="edge">
<title>Node18&#45;&gt;Node3</title>
<g id="a_edge32_Node000018_Node000003"><a xlink:title=" ">
<path fill="none" stroke="#63b8ff" d="M908.34,-227.87C845.93,-221.34 755.92,-208.44 680.48,-184 662.52,-178.18 659.86,-172.39 642.48,-165 556.84,-128.59 452.88,-94.24 398.58,-77.02"/>
<polygon fill="#63b8ff" stroke="#63b8ff" points="399.63,-73.68 389.04,-74.01 397.52,-80.35 399.63,-73.68"/>
</a>
</g>
</g>
<!-- Node18&#45;&gt;Node9 -->
<g id="edge24_Node000018_Node000009" class="edge">
<title>Node18&#45;&gt;Node9</title>
<g id="a_edge24_Node000018_Node000009"><a xlink:title=" ">
<path fill="none" stroke="#63b8ff" d="M972.77,-220C961.77,-205.06 948.75,-181.33 961.48,-165 1003.34,-111.29 1144.31,-165.23 1104.48,-110 1048.86,-32.87 930.92,-14.61 860.93,-10.83"/>
<polygon fill="#63b8ff" stroke="#63b8ff" points="860.7,-7.32 850.55,-10.36 860.38,-14.31 860.7,-7.32"/>
</a>
</g>
</g>
<!-- Node19 -->
<g id="Node000019" class="node">
<title>Node19</title>
<g id="a_Node000019"><a xlink:href="sitkPixelIDTypes_8h.html" target="_top" xlink:title=" ">
<polygon fill="white" stroke="#666666" points="957.98,-129 852.98,-129 852.98,-110 957.98,-110 957.98,-129"/>
<text text-anchor="middle" x="905.48" y="-117" font-family="Helvetica,sans-Serif" font-size="10.00">sitkPixelIDTypes.h</text>
</a>
</g>
</g>
<!-- Node18&#45;&gt;Node19 -->
<g id="edge25_Node000018_Node000019" class="edge">
<title>Node18&#45;&gt;Node19</title>
<g id="a_edge25_Node000018_Node000019"><a xlink:title=" ">
<path fill="none" stroke="#63b8ff" d="M963.59,-219.91C951.58,-210.87 937.03,-198.2 927.48,-184 918.33,-170.39 912.59,-152.57 909.28,-139.27"/>
<polygon fill="#63b8ff" stroke="#63b8ff" points="912.66,-138.35 907.05,-129.36 905.83,-139.88 912.66,-138.35"/>
</a>
</g>
</g>
<!-- Node20 -->
<g id="Node000020" class="node">
<title>Node20</title>
<g id="a_Node000020"><a xlink:href="sitkPixelIDTypeLists_8h.html" target="_top" xlink:title=" ">
<polygon fill="white" stroke="#666666" points="811.48,-184 689.48,-184 689.48,-165 811.48,-165 811.48,-184"/>
<text text-anchor="middle" x="750.48" y="-172" font-family="Helvetica,sans-Serif" font-size="10.00">sitkPixelIDTypeLists.h</text>
</a>
</g>
</g>
<!-- Node18&#45;&gt;Node20 -->
<g id="edge26_Node000018_Node000020" class="edge">
<title>Node18&#45;&gt;Node20</title>
<g id="a_edge26_Node000018_Node000020"><a xlink:title=" ">
<path fill="none" stroke="#63b8ff" d="M928.43,-219.99C887.35,-209.72 832.36,-195.97 794.43,-186.49"/>
<polygon fill="#63b8ff" stroke="#63b8ff" points="795.25,-183.08 784.7,-184.05 793.55,-189.87 795.25,-183.08"/>
</a>
</g>
</g>
<!-- Node21 -->
<g id="Node000021" class="node">
<title>Node21</title>
<g id="a_Node000021"><a xlink:title=" ">
<polygon fill="#e0e0e0" stroke="#999999" points="1094.98,-129 975.98,-129 975.98,-110 1094.98,-110 1094.98,-129"/>
<text text-anchor="middle" x="1035.48" y="-117" font-family="Helvetica,sans-Serif" font-size="10.00">Ancillary/type_list2.h</text>
</a>
</g>
</g>
<!-- Node18&#45;&gt;Node21 -->
<g id="edge35_Node000018_Node000021" class="edge">
<title>Node18&#45;&gt;Node21</title>
<g id="a_edge35_Node000018_Node000021"><a xlink:title=" ">
<path fill="none" stroke="#63b8ff" d="M1060.53,-227.62C1119.84,-220.88 1195.28,-207.82 1214.48,-184 1247.77,-142.69 1168.52,-128.23 1105.03,-123.18"/>
<polygon fill="#63b8ff" stroke="#63b8ff" points="1105.22,-119.68 1094.99,-122.45 1104.71,-126.66 1105.22,-119.68"/>
</a>
</g>
</g>
<!-- Node23 -->
<g id="Node000023" class="node">
<title>Node23</title>
<g id="a_Node000023"><a xlink:href="sitkNonCopyable_8h.html" target="_top" xlink:title=" ">
<polygon fill="white" stroke="#666666" points="632.98,-184 523.98,-184 523.98,-165 632.98,-165 632.98,-184"/>
<text text-anchor="middle" x="578.48" y="-172" font-family="Helvetica,sans-Serif" font-size="10.00">sitkNonCopyable.h</text>
</a>
</g>
</g>
<!-- Node18&#45;&gt;Node23 -->
<g id="edge33_Node000018_Node000023" class="edge">
<title>Node18&#45;&gt;Node23</title>
<g id="a_edge33_Node000018_Node000023"><a xlink:title=" ">
<path fill="none" stroke="#63b8ff" d="M908.36,-222.49C902.65,-221.64 896.98,-220.8 891.48,-220 805.7,-207.45 706.61,-193.44 643.3,-184.56"/>
<polygon fill="#63b8ff" stroke="#63b8ff" points="643.46,-181.05 633.07,-183.12 642.48,-187.98 643.46,-181.05"/>
</a>
</g>
</g>
<!-- Node18&#45;&gt;Node24 -->
<g id="edge36_Node000018_Node000024" class="edge">
<title>Node18&#45;&gt;Node24</title>
<g id="a_edge36_Node000018_Node000024"><a xlink:title=" ">
<path fill="none" stroke="#63b8ff" d="M1060.63,-221.16C1123.78,-210.52 1212.35,-195.58 1270.79,-185.73"/>
<polygon fill="#63b8ff" stroke="#63b8ff" points="1271.7,-189.13 1280.98,-184.01 1270.53,-182.23 1271.7,-189.13"/>
</a>
</g>
</g>
<!-- Node25 -->
<g id="Node000025" class="node">
<title>Node25</title>
<g id="a_Node000025"><a xlink:title=" ">
<polygon fill="#e0e0e0" stroke="#999999" points="1121.98,-184 1028.98,-184 1028.98,-165 1121.98,-165 1121.98,-184"/>
<text text-anchor="middle" x="1075.48" y="-172" font-family="Helvetica,sans-Serif" font-size="10.00">unordered_map</text>
</a>
</g>
</g>
<!-- Node18&#45;&gt;Node25 -->
<g id="edge37_Node000018_Node000025" class="edge">
<title>Node18&#45;&gt;Node25</title>
<g id="a_edge37_Node000018_Node000025"><a xlink:title=" ">
<path fill="none" stroke="#63b8ff" d="M1006.51,-219.84C1020.75,-210.68 1039.21,-198.82 1053.45,-189.66"/>
<polygon fill="#63b8ff" stroke="#63b8ff" points="1055.59,-192.45 1062.11,-184.09 1051.81,-186.56 1055.59,-192.45"/>
</a>
</g>
</g>
<!-- Node26 -->
<g id="Node000026" class="node">
<title>Node26</title>
<g id="a_Node000026"><a xlink:title=" ">
<polygon fill="#e0e0e0" stroke="#999999" points="1204.98,-184 1139.98,-184 1139.98,-165 1204.98,-165 1204.98,-184"/>
<text text-anchor="middle" x="1172.48" y="-172" font-family="Helvetica,sans-Serif" font-size="10.00">functional</text>
</a>
</g>
</g>
<!-- Node18&#45;&gt;Node26 -->
<g id="edge38_Node000018_Node000026" class="edge">
<title>Node18&#45;&gt;Node26</title>
<g id="a_edge38_Node000018_Node000026"><a xlink:title=" ">
<path fill="none" stroke="#63b8ff" d="M1029.51,-219.99C1061.82,-209.94 1104.83,-196.55 1135.21,-187.1"/>
<polygon fill="#63b8ff" stroke="#63b8ff" points="1136.49,-190.37 1144.99,-184.05 1134.41,-183.68 1136.49,-190.37"/>
</a>
</g>
</g>
<!-- Node27 -->
<g id="Node000027" class="node">
<title>Node27</title>
<g id="a_Node000027"><a xlink:title=" ">
<polygon fill="#e0e0e0" stroke="#999999" points="1010.98,-184 969.98,-184 969.98,-165 1010.98,-165 1010.98,-184"/>
<text text-anchor="middle" x="990.48" y="-172" font-family="Helvetica,sans-Serif" font-size="10.00">tuple</text>
</a>
</g>
</g>
<!-- Node18&#45;&gt;Node27 -->
<g id="edge39_Node000018_Node000027" class="edge">
<title>Node18&#45;&gt;Node27</title>
<g id="a_edge39_Node000018_Node000027"><a xlink:title=" ">
<path fill="none" stroke="#63b8ff" d="M985.94,-219.84C986.72,-212.21 987.69,-202.7 988.54,-194.45"/>
<polygon fill="#63b8ff" stroke="#63b8ff" points="992.04,-194.57 989.58,-184.27 985.08,-193.86 992.04,-194.57"/>
</a>
</g>
</g>
<!-- Node20&#45;&gt;Node4 -->
<g id="edge27_Node000020_Node000004" class="edge">
<title>Node20&#45;&gt;Node4</title>
<g id="a_edge27_Node000020_Node000004"><a xlink:title=" ">
<path fill="none" stroke="#63b8ff" d="M748.59,-164.93C745.62,-152.39 739.18,-128.51 729.48,-110 712.77,-78.1 686.07,-45.6 669.44,-26.78"/>
<polygon fill="#63b8ff" stroke="#63b8ff" points="671.87,-24.25 662.59,-19.15 666.67,-28.93 671.87,-24.25"/>
</a>
</g>
</g>
<!-- Node20&#45;&gt;Node9 -->
<g id="edge28_Node000020_Node000009" class="edge">
<title>Node20&#45;&gt;Node9</title>
<g id="a_edge28_Node000020_Node000009"><a xlink:title=" ">
<path fill="none" stroke="#63b8ff" d="M753.44,-164.74C762.06,-139.2 787.29,-64.43 799.16,-29.23"/>
<polygon fill="#63b8ff" stroke="#63b8ff" points="802.63,-29.9 802.51,-19.31 796,-27.66 802.63,-29.9"/>
</a>
</g>
</g>
<!-- Node20&#45;&gt;Node19 -->
<g id="edge29_Node000020_Node000019" class="edge">
<title>Node20&#45;&gt;Node19</title>
<g id="a_edge29_Node000020_Node000019"><a xlink:title=" ">
<path fill="none" stroke="#63b8ff" d="M775.39,-164.98C801.18,-156.16 841.7,-142.31 870.66,-132.41"/>
<polygon fill="#63b8ff" stroke="#63b8ff" points="872.05,-135.63 880.38,-129.08 869.79,-129.01 872.05,-135.63"/>
</a>
</g>
</g>
<!-- Node20&#45;&gt;Node21 -->
<g id="edge30_Node000020_Node000021" class="edge">
<title>Node20&#45;&gt;Node21</title>
<g id="a_edge30_Node000020_Node000021"><a xlink:title=" ">
<path fill="none" stroke="#63b8ff" d="M796.27,-164.98C846.09,-155.72 925.76,-140.9 979.32,-130.94"/>
<polygon fill="#63b8ff" stroke="#63b8ff" points="980.14,-134.35 989.33,-129.08 978.86,-127.47 980.14,-134.35"/>
</a>
</g>
</g>
<!-- Node22 -->
<g id="Node000022" class="node">
<title>Node22</title>
<g id="a_Node000022"><a xlink:title=" ">
<polygon fill="#e0e0e0" stroke="#999999" points="719.98,-129 660.98,-129 660.98,-110 719.98,-110 719.98,-129"/>
<text text-anchor="middle" x="690.48" y="-117" font-family="Helvetica,sans-Serif" font-size="10.00">complex</text>
</a>
</g>
</g>
<!-- Node20&#45;&gt;Node22 -->
<g id="edge31_Node000020_Node000022" class="edge">
<title>Node20&#45;&gt;Node22</title>
<g id="a_edge31_Node000020_Node000022"><a xlink:title=" ">
<path fill="none" stroke="#63b8ff" d="M740.84,-164.98C731.97,-157.15 718.61,-145.34 707.87,-135.86"/>
<polygon fill="#63b8ff" stroke="#63b8ff" points="710.11,-133.17 700.3,-129.17 705.48,-138.41 710.11,-133.17"/>
</a>
</g>
</g>
<!-- Node23&#45;&gt;Node2 -->
<g id="edge34_Node000023_Node000002" class="edge">
<title>Node23&#45;&gt;Node2</title>
<g id="a_edge34_Node000023_Node000002"><a xlink:title=" ">
<path fill="none" stroke="#63b8ff" d="M538.64,-164.98C495.65,-155.8 427.11,-141.15 380.52,-131.19"/>
<polygon fill="#63b8ff" stroke="#63b8ff" points="381.15,-127.75 370.64,-129.08 379.69,-134.59 381.15,-127.75"/>
</a>
</g>
</g>
<!-- Node28&#45;&gt;Node9 -->
<g id="edge42_Node000028_Node000009" class="edge">
<title>Node28&#45;&gt;Node9</title>
<g id="a_edge42_Node000028_Node000009"><a xlink:title=" ">
<path fill="none" stroke="#63b8ff" d="M670.76,-289.02C703.95,-283.48 745.58,-272.35 776.48,-250 805.05,-229.34 810.27,-217.74 820.48,-184 837.02,-129.38 821.02,-60.99 811.47,-28.82"/>
<polygon fill="#63b8ff" stroke="#63b8ff" points="814.74,-27.55 808.42,-19.04 808.05,-29.63 814.74,-27.55"/>
</a>
</g>
</g>
<!-- Node29 -->
<g id="Node000029" class="node">
<title>Node29</title>
<g id="a_Node000029"><a xlink:href="sitkPixelIDValues_8h.html" target="_top" xlink:title=" ">
<polygon fill="white" stroke="#666666" points="767.48,-244.5 657.48,-244.5 657.48,-225.5 767.48,-225.5 767.48,-244.5"/>
<text text-anchor="middle" x="712.48" y="-232.5" font-family="Helvetica,sans-Serif" font-size="10.00">sitkPixelIDValues.h</text>
</a>
</g>
</g>
<!-- Node28&#45;&gt;Node29 -->
<g id="edge43_Node000028_Node000029" class="edge">
<title>Node28&#45;&gt;Node29</title>
<g id="a_edge43_Node000028_Node000029"><a xlink:title=" ">
<path fill="none" stroke="#63b8ff" d="M629.8,-285.87C645.48,-276.41 670.88,-261.09 689.4,-249.92"/>
<polygon fill="#63b8ff" stroke="#63b8ff" points="691.36,-252.83 698.11,-244.67 687.74,-246.83 691.36,-252.83"/>
</a>
</g>
</g>
<!-- Node28&#45;&gt;Node31 -->
<g id="edge48_Node000028_Node000031" class="edge">
<title>Node28&#45;&gt;Node31</title>
<g id="a_edge48_Node000028_Node000031"><a xlink:title=" ">
<path fill="none" stroke="#63b8ff" d="M613.86,-285.87C612.32,-277.66 609.94,-265.04 607.97,-254.55"/>
<polygon fill="#63b8ff" stroke="#63b8ff" points="611.4,-253.85 606.11,-244.67 604.52,-255.14 611.4,-253.85"/>
</a>
</g>
</g>
<!-- Node29&#45;&gt;Node2 -->
<g id="edge44_Node000029_Node000002" class="edge">
<title>Node29&#45;&gt;Node2</title>
<g id="a_edge44_Node000029_Node000002"><a xlink:title=" ">
<path fill="none" stroke="#63b8ff" d="M674.62,-225.5C666.04,-223.63 656.96,-221.7 648.48,-220 561.65,-202.53 535.62,-214.54 452.48,-184 436.6,-178.16 434.39,-173.01 419.48,-165 398.94,-153.96 375.31,-142.19 357.57,-133.53"/>
<polygon fill="#63b8ff" stroke="#63b8ff" points="358.89,-130.28 348.37,-129.06 355.84,-136.58 358.89,-130.28"/>
</a>
</g>
</g>
<!-- Node29&#45;&gt;Node15 -->
<g id="edge47_Node000029_Node000015" class="edge">
<title>Node29&#45;&gt;Node15</title>
<g id="a_edge47_Node000029_Node000015"><a xlink:title=" ">
<path fill="none" stroke="#63b8ff" d="M675.69,-225.47C666.8,-223.55 657.32,-221.6 648.48,-220 551.32,-202.42 436.02,-187.39 377.2,-180.14"/>
<polygon fill="#63b8ff" stroke="#63b8ff" points="377.58,-176.66 367.23,-178.92 376.73,-183.61 377.58,-176.66"/>
</a>
</g>
</g>
<!-- Node29&#45;&gt;Node20 -->
<g id="edge45_Node000029_Node000020" class="edge">
<title>Node29&#45;&gt;Node20</title>
<g id="a_edge45_Node000029_Node000020"><a xlink:title=" ">
<path fill="none" stroke="#63b8ff" d="M718.09,-225.37C723.65,-216.81 732.31,-203.47 739.28,-192.74"/>
<polygon fill="#63b8ff" stroke="#63b8ff" points="742.34,-194.46 744.85,-184.17 736.47,-190.65 742.34,-194.46"/>
</a>
</g>
</g>
<!-- Node30 -->
<g id="Node000030" class="node">
<title>Node30</title>
<g id="a_Node000030"><a xlink:title=" ">
<polygon fill="#e0e0e0" stroke="#999999" points="505.48,-184 461.48,-184 461.48,-165 505.48,-165 505.48,-184"/>
<text text-anchor="middle" x="483.48" y="-172" font-family="Helvetica,sans-Serif" font-size="10.00">string</text>
</a>
</g>
</g>
<!-- Node29&#45;&gt;Node30 -->
<g id="edge46_Node000029_Node000030" class="edge">
<title>Node29&#45;&gt;Node30</title>
<g id="a_edge46_Node000029_Node000030"><a xlink:title=" ">
<path fill="none" stroke="#63b8ff" d="M678.29,-225.44C638.97,-215.58 572.52,-198.81 515.48,-184 515.38,-183.97 515.28,-183.95 515.18,-183.92"/>
<polygon fill="#63b8ff" stroke="#63b8ff" points="516.07,-180.54 505.51,-181.38 514.29,-187.31 516.07,-180.54"/>
</a>
</g>
</g>
<!-- Node32&#45;&gt;Node2 -->
<g id="edge50_Node000032_Node000002" class="edge">
<title>Node32&#45;&gt;Node2</title>
<g id="a_edge50_Node000032_Node000002"><a xlink:title=" ">
<path fill="none" stroke="#63b8ff" d="M486.77,-225.46C470.2,-215.75 442.58,-199.25 419.48,-184 395.34,-168.06 368.39,-148.59 350.54,-135.44"/>
<polygon fill="#63b8ff" stroke="#63b8ff" points="352.22,-132.33 342.1,-129.2 348.06,-137.96 352.22,-132.33"/>
</a>
</g>
</g>
<!-- Node32&#45;&gt;Node15 -->
<g id="edge51_Node000032_Node000015" class="edge">
<title>Node32&#45;&gt;Node15</title>
<g id="a_edge51_Node000032_Node000015"><a xlink:title=" ">
<path fill="none" stroke="#63b8ff" d="M477.78,-225.49C449.9,-215.49 403.41,-198.8 371.88,-187.49"/>
<polygon fill="#63b8ff" stroke="#63b8ff" points="372.81,-184.1 362.21,-184.02 370.44,-190.69 372.81,-184.1"/>
</a>
</g>
</g>
<!-- Node33&#45;&gt;Node30 -->
<g id="edge56_Node000033_Node000030" class="edge">
<title>Node33&#45;&gt;Node30</title>
<g id="a_edge56_Node000033_Node000030"><a xlink:title=" ">
<path fill="none" stroke="#63b8ff" d="M718.69,-340.82C745.91,-318.73 810.79,-259.37 776.48,-220 739.82,-177.93 588.09,-193.83 515.84,-183.52"/>
<polygon fill="#63b8ff" stroke="#63b8ff" points="516.23,-180.03 505.78,-181.8 515.05,-186.93 516.23,-180.03"/>
</a>
</g>
</g>
</g>
</svg>
