<?xml version="1.0" encoding="UTF-8" standalone="no"?>
<!DOCTYPE svg PUBLIC "-//W3C//DTD SVG 1.1//EN"
 "http://www.w3.org/Graphics/SVG/1.1/DTD/svg11.dtd">
<!-- Generated by graphviz version 2.43.0 (0)
 -->
<!-- Title: sitkPixelIDTokens.h Pages: 1 -->
<svg width="787pt" height="247pt"
 viewBox="0.00 0.00 786.50 247.00" xmlns="http://www.w3.org/2000/svg" xmlns:xlink="http://www.w3.org/1999/xlink">
<g id="graph0" class="graph" transform="scale(1 1) rotate(0) translate(4 243)">
<title>sitkPixelIDTokens.h</title>
<!-- Node1 -->
<g id="Node000001" class="node">
<title>Node1</title>
<g id="a_Node000001"><a xlink:title=" ">
<polygon fill="#999999" stroke="#666666" points="555.5,-239 445.5,-239 445.5,-220 555.5,-220 555.5,-239"/>
<text text-anchor="middle" x="500.5" y="-227" font-family="Helvetica,sans-Serif" font-size="10.00">sitkPixelIDTokens.h</text>
</a>
</g>
</g>
<!-- Node2 -->
<g id="Node000002" class="node">
<title>Node2</title>
<g id="a_Node000002"><a xlink:href="sitkConfigure_8h.html" target="_top" xlink:title=" ">
<polygon fill="white" stroke="#666666" points="498.5,-19 408.5,-19 408.5,0 498.5,0 498.5,-19"/>
<text text-anchor="middle" x="453.5" y="-7" font-family="Helvetica,sans-Serif" font-size="10.00">sitkConfigure.h</text>
</a>
</g>
</g>
<!-- Node1&#45;&gt;Node2 -->
<g id="edge1_Node000001_Node000002" class="edge">
<title>Node1&#45;&gt;Node2</title>
<g id="a_edge1_Node000001_Node000002"><a xlink:title=" ">
<path fill="none" stroke="#63b8ff" d="M499.46,-219.81C497.02,-200.13 490.46,-150.7 481.5,-110 475.19,-81.31 465.5,-48.63 459.33,-28.79"/>
<polygon fill="#63b8ff" stroke="#63b8ff" points="462.66,-27.69 456.31,-19.2 455.98,-29.79 462.66,-27.69"/>
</a>
</g>
</g>
<!-- Node3 -->
<g id="Node000003" class="node">
<title>Node3</title>
<g id="a_Node000003"><a xlink:href="sitkPixelIDValues_8h.html" target="_top" xlink:title=" ">
<polygon fill="white" stroke="#666666" points="392.5,-184 282.5,-184 282.5,-165 392.5,-165 392.5,-184"/>
<text text-anchor="middle" x="337.5" y="-172" font-family="Helvetica,sans-Serif" font-size="10.00">sitkPixelIDValues.h</text>
</a>
</g>
</g>
<!-- Node1&#45;&gt;Node3 -->
<g id="edge2_Node000001_Node000003" class="edge">
<title>Node1&#45;&gt;Node3</title>
<g id="a_edge2_Node000001_Node000003"><a xlink:title=" ">
<path fill="none" stroke="#63b8ff" d="M474.31,-219.98C447.06,-211.13 404.2,-197.19 373.72,-187.28"/>
<polygon fill="#63b8ff" stroke="#63b8ff" points="374.49,-183.85 363.89,-184.08 372.32,-190.5 374.49,-183.85"/>
</a>
</g>
</g>
<!-- Node17 -->
<g id="Node000017" class="node">
<title>Node17</title>
<g id="a_Node000017"><a xlink:title=" ">
<polygon fill="#e0e0e0" stroke="#999999" points="598,-184 529,-184 529,-165 598,-165 598,-184"/>
<text text-anchor="middle" x="563.5" y="-172" font-family="Helvetica,sans-Serif" font-size="10.00">type_traits</text>
</a>
</g>
</g>
<!-- Node1&#45;&gt;Node17 -->
<g id="edge19_Node000001_Node000017" class="edge">
<title>Node1&#45;&gt;Node17</title>
<g id="a_edge19_Node000001_Node000017"><a xlink:title=" ">
<path fill="none" stroke="#63b8ff" d="M510.62,-219.98C519.94,-212.15 533.97,-200.34 545.24,-190.86"/>
<polygon fill="#63b8ff" stroke="#63b8ff" points="547.79,-193.29 553.19,-184.17 543.29,-187.93 547.79,-193.29"/>
</a>
</g>
</g>
<!-- Node4 -->
<g id="Node000004" class="node">
<title>Node4</title>
<g id="a_Node000004"><a xlink:href="sitkCommon_8h.html" target="_top" xlink:title=" ">
<polygon fill="white" stroke="#666666" points="472.5,-129 384.5,-129 384.5,-110 472.5,-110 472.5,-129"/>
<text text-anchor="middle" x="428.5" y="-117" font-family="Helvetica,sans-Serif" font-size="10.00">sitkCommon.h</text>
</a>
</g>
</g>
<!-- Node3&#45;&gt;Node4 -->
<g id="edge3_Node000003_Node000004" class="edge">
<title>Node3&#45;&gt;Node4</title>
<g id="a_edge3_Node000003_Node000004"><a xlink:title=" ">
<path fill="none" stroke="#63b8ff" d="M352.12,-164.98C366.36,-156.69 388.25,-143.94 404.95,-134.22"/>
<polygon fill="#63b8ff" stroke="#63b8ff" points="406.73,-137.23 413.61,-129.17 403.21,-131.18 406.73,-137.23"/>
</a>
</g>
</g>
<!-- Node11 -->
<g id="Node000011" class="node">
<title>Node11</title>
<g id="a_Node000011"><a xlink:href="sitkPixelIDTypeLists_8h.html" target="_top" xlink:title=" ">
<polygon fill="white" stroke="#666666" points="326.5,-74 204.5,-74 204.5,-55 326.5,-55 326.5,-74"/>
<text text-anchor="middle" x="265.5" y="-62" font-family="Helvetica,sans-Serif" font-size="10.00">sitkPixelIDTypeLists.h</text>
</a>
</g>
</g>
<!-- Node3&#45;&gt;Node11 -->
<g id="edge11_Node000003_Node000011" class="edge">
<title>Node3&#45;&gt;Node11</title>
<g id="a_edge11_Node000003_Node000011"><a xlink:title=" ">
<path fill="none" stroke="#63b8ff" d="M292.04,-164.96C271.73,-158.64 249.66,-147.72 237.5,-129 227.81,-114.08 238.61,-95.25 249.49,-81.98"/>
<polygon fill="#63b8ff" stroke="#63b8ff" points="252.41,-83.96 256.44,-74.16 247.18,-79.31 252.41,-83.96"/>
</a>
</g>
</g>
<!-- Node15 -->
<g id="Node000015" class="node">
<title>Node15</title>
<g id="a_Node000015"><a xlink:title=" ">
<polygon fill="#e0e0e0" stroke="#999999" points="290.5,-129 246.5,-129 246.5,-110 290.5,-110 290.5,-129"/>
<text text-anchor="middle" x="268.5" y="-117" font-family="Helvetica,sans-Serif" font-size="10.00">string</text>
</a>
</g>
</g>
<!-- Node3&#45;&gt;Node15 -->
<g id="edge17_Node000003_Node000015" class="edge">
<title>Node3&#45;&gt;Node15</title>
<g id="a_edge17_Node000003_Node000015"><a xlink:title=" ">
<path fill="none" stroke="#63b8ff" d="M326.41,-164.98C316.01,-157 300.24,-144.88 287.78,-135.31"/>
<polygon fill="#63b8ff" stroke="#63b8ff" points="289.85,-132.49 279.79,-129.17 285.59,-138.04 289.85,-132.49"/>
</a>
</g>
</g>
<!-- Node16 -->
<g id="Node000016" class="node">
<title>Node16</title>
<g id="a_Node000016"><a xlink:title=" ">
<polygon fill="#e0e0e0" stroke="#999999" points="366,-129 309,-129 309,-110 366,-110 366,-129"/>
<text text-anchor="middle" x="337.5" y="-117" font-family="Helvetica,sans-Serif" font-size="10.00">ostream</text>
</a>
</g>
</g>
<!-- Node3&#45;&gt;Node16 -->
<g id="edge18_Node000003_Node000016" class="edge">
<title>Node3&#45;&gt;Node16</title>
<g id="a_edge18_Node000003_Node000016"><a xlink:title=" ">
<path fill="none" stroke="#63b8ff" d="M337.5,-164.75C337.5,-157.8 337.5,-147.85 337.5,-139.13"/>
<polygon fill="#63b8ff" stroke="#63b8ff" points="341,-139.09 337.5,-129.09 334,-139.09 341,-139.09"/>
</a>
</g>
</g>
<!-- Node5 -->
<g id="Node000005" class="node">
<title>Node5</title>
<g id="a_Node000005"><a xlink:href="sitkMacro_8h.html" target="_top" xlink:title=" ">
<polygon fill="white" stroke="#666666" points="602.5,-74 528.5,-74 528.5,-55 602.5,-55 602.5,-74"/>
<text text-anchor="middle" x="565.5" y="-62" font-family="Helvetica,sans-Serif" font-size="10.00">sitkMacro.h</text>
</a>
</g>
</g>
<!-- Node4&#45;&gt;Node5 -->
<g id="edge4_Node000004_Node000005" class="edge">
<title>Node4&#45;&gt;Node5</title>
<g id="a_edge4_Node000004_Node000005"><a xlink:title=" ">
<path fill="none" stroke="#63b8ff" d="M450.51,-109.98C472.95,-101.3 507.98,-87.75 533.49,-77.88"/>
<polygon fill="#63b8ff" stroke="#63b8ff" points="535.02,-81.04 543.09,-74.17 532.5,-74.51 535.02,-81.04"/>
</a>
</g>
</g>
<!-- Node5&#45;&gt;Node2 -->
<g id="edge10_Node000005_Node000002" class="edge">
<title>Node5&#45;&gt;Node2</title>
<g id="a_edge10_Node000005_Node000002"><a xlink:title=" ">
<path fill="none" stroke="#63b8ff" d="M547.51,-54.98C529.57,-46.5 501.78,-33.35 481.07,-23.54"/>
<polygon fill="#63b8ff" stroke="#63b8ff" points="482.36,-20.28 471.82,-19.17 479.36,-26.61 482.36,-20.28"/>
</a>
</g>
</g>
<!-- Node6 -->
<g id="Node000006" class="node">
<title>Node6</title>
<g id="a_Node000006"><a xlink:title=" ">
<polygon fill="#e0e0e0" stroke="#999999" points="390,-19 337,-19 337,0 390,0 390,-19"/>
<text text-anchor="middle" x="363.5" y="-7" font-family="Helvetica,sans-Serif" font-size="10.00">stdint.h</text>
</a>
</g>
</g>
<!-- Node5&#45;&gt;Node6 -->
<g id="edge5_Node000005_Node000006" class="edge">
<title>Node5&#45;&gt;Node6</title>
<g id="a_edge5_Node000005_Node000006"><a xlink:title=" ">
<path fill="none" stroke="#63b8ff" d="M533.05,-54.98C496.75,-45.46 438.11,-30.08 400.18,-20.12"/>
<polygon fill="#63b8ff" stroke="#63b8ff" points="400.63,-16.62 390.07,-17.47 398.85,-23.39 400.63,-16.62"/>
</a>
</g>
</g>
<!-- Node7 -->
<g id="Node000007" class="node">
<title>Node7</title>
<g id="a_Node000007"><a xlink:title=" ">
<polygon fill="#e0e0e0" stroke="#999999" points="778.5,-19 722.5,-19 722.5,0 778.5,0 778.5,-19"/>
<text text-anchor="middle" x="750.5" y="-7" font-family="Helvetica,sans-Serif" font-size="10.00">stddef.h</text>
</a>
</g>
</g>
<!-- Node5&#45;&gt;Node7 -->
<g id="edge6_Node000005_Node000007" class="edge">
<title>Node5&#45;&gt;Node7</title>
<g id="a_edge6_Node000005_Node000007"><a xlink:title=" ">
<path fill="none" stroke="#63b8ff" d="M595.22,-54.98C627.11,-45.85 677.84,-31.32 712.58,-21.36"/>
<polygon fill="#63b8ff" stroke="#63b8ff" points="713.72,-24.68 722.37,-18.56 711.79,-17.95 713.72,-24.68"/>
</a>
</g>
</g>
<!-- Node8 -->
<g id="Node000008" class="node">
<title>Node8</title>
<g id="a_Node000008"><a xlink:title=" ">
<polygon fill="#e0e0e0" stroke="#999999" points="568.5,-19 516.5,-19 516.5,0 568.5,0 568.5,-19"/>
<text text-anchor="middle" x="542.5" y="-7" font-family="Helvetica,sans-Serif" font-size="10.00">cassert</text>
</a>
</g>
</g>
<!-- Node5&#45;&gt;Node8 -->
<g id="edge7_Node000005_Node000008" class="edge">
<title>Node5&#45;&gt;Node8</title>
<g id="a_edge7_Node000005_Node000008"><a xlink:title=" ">
<path fill="none" stroke="#63b8ff" d="M561.7,-54.75C558.59,-47.57 554.08,-37.18 550.21,-28.27"/>
<polygon fill="#63b8ff" stroke="#63b8ff" points="553.42,-26.87 546.23,-19.09 547,-29.66 553.42,-26.87"/>
</a>
</g>
</g>
<!-- Node9 -->
<g id="Node000009" class="node">
<title>Node9</title>
<g id="a_Node000009"><a xlink:title=" ">
<polygon fill="#e0e0e0" stroke="#999999" points="642.5,-19 586.5,-19 586.5,0 642.5,0 642.5,-19"/>
<text text-anchor="middle" x="614.5" y="-7" font-family="Helvetica,sans-Serif" font-size="10.00">sstream</text>
</a>
</g>
</g>
<!-- Node5&#45;&gt;Node9 -->
<g id="edge8_Node000005_Node000009" class="edge">
<title>Node5&#45;&gt;Node9</title>
<g id="a_edge8_Node000005_Node000009"><a xlink:title=" ">
<path fill="none" stroke="#63b8ff" d="M573.59,-54.75C580.66,-47.11 591.09,-35.82 599.65,-26.56"/>
<polygon fill="#63b8ff" stroke="#63b8ff" points="602.34,-28.81 606.56,-19.09 597.2,-24.06 602.34,-28.81"/>
</a>
</g>
</g>
<!-- Node10 -->
<g id="Node000010" class="node">
<title>Node10</title>
<g id="a_Node000010"><a xlink:title=" ">
<polygon fill="#e0e0e0" stroke="#999999" points="704.5,-19 660.5,-19 660.5,0 704.5,0 704.5,-19"/>
<text text-anchor="middle" x="682.5" y="-7" font-family="Helvetica,sans-Serif" font-size="10.00">limits</text>
</a>
</g>
</g>
<!-- Node5&#45;&gt;Node10 -->
<g id="edge9_Node000005_Node000010" class="edge">
<title>Node5&#45;&gt;Node10</title>
<g id="a_edge9_Node000005_Node000010"><a xlink:title=" ">
<path fill="none" stroke="#63b8ff" d="M584.3,-54.98C603.12,-46.46 632.32,-33.23 654,-23.41"/>
<polygon fill="#63b8ff" stroke="#63b8ff" points="655.7,-26.48 663.36,-19.17 652.81,-20.11 655.7,-26.48"/>
</a>
</g>
</g>
<!-- Node11&#45;&gt;Node2 -->
<g id="edge13_Node000011_Node000002" class="edge">
<title>Node11&#45;&gt;Node2</title>
<g id="a_edge13_Node000011_Node000002"><a xlink:title=" ">
<path fill="none" stroke="#63b8ff" d="M295.71,-54.98C327.54,-46.01 377.86,-31.82 413.1,-21.89"/>
<polygon fill="#63b8ff" stroke="#63b8ff" points="414.38,-25.16 423.06,-19.08 412.48,-18.43 414.38,-25.16"/>
</a>
</g>
</g>
<!-- Node11&#45;&gt;Node6 -->
<g id="edge12_Node000011_Node000006" class="edge">
<title>Node11&#45;&gt;Node6</title>
<g id="a_edge12_Node000011_Node000006"><a xlink:title=" ">
<path fill="none" stroke="#63b8ff" d="M281.25,-54.98C296.73,-46.61 320.59,-33.7 338.64,-23.95"/>
<polygon fill="#63b8ff" stroke="#63b8ff" points="340.34,-27.01 347.47,-19.17 337.01,-20.85 340.34,-27.01"/>
</a>
</g>
</g>
<!-- Node12 -->
<g id="Node000012" class="node">
<title>Node12</title>
<g id="a_Node000012"><a xlink:href="sitkPixelIDTypes_8h.html" target="_top" xlink:title=" ">
<polygon fill="white" stroke="#666666" points="105,-19 0,-19 0,0 105,0 105,-19"/>
<text text-anchor="middle" x="52.5" y="-7" font-family="Helvetica,sans-Serif" font-size="10.00">sitkPixelIDTypes.h</text>
</a>
</g>
</g>
<!-- Node11&#45;&gt;Node12 -->
<g id="edge14_Node000011_Node000012" class="edge">
<title>Node11&#45;&gt;Node12</title>
<g id="a_edge14_Node000011_Node000012"><a xlink:title=" ">
<path fill="none" stroke="#63b8ff" d="M231.28,-54.98C194.74,-45.89 136.72,-31.46 96.74,-21.51"/>
<polygon fill="#63b8ff" stroke="#63b8ff" points="97.54,-18.1 86.99,-19.08 95.85,-24.89 97.54,-18.1"/>
</a>
</g>
</g>
<!-- Node13 -->
<g id="Node000013" class="node">
<title>Node13</title>
<g id="a_Node000013"><a xlink:title=" ">
<polygon fill="#e0e0e0" stroke="#999999" points="242,-19 123,-19 123,0 242,0 242,-19"/>
<text text-anchor="middle" x="182.5" y="-7" font-family="Helvetica,sans-Serif" font-size="10.00">Ancillary/type_list2.h</text>
</a>
</g>
</g>
<!-- Node11&#45;&gt;Node13 -->
<g id="edge15_Node000011_Node000013" class="edge">
<title>Node11&#45;&gt;Node13</title>
<g id="a_edge15_Node000011_Node000013"><a xlink:title=" ">
<path fill="none" stroke="#63b8ff" d="M252.16,-54.98C239.41,-46.84 219.95,-34.41 204.83,-24.76"/>
<polygon fill="#63b8ff" stroke="#63b8ff" points="206.39,-21.6 196.08,-19.17 202.62,-27.5 206.39,-21.6"/>
</a>
</g>
</g>
<!-- Node14 -->
<g id="Node000014" class="node">
<title>Node14</title>
<g id="a_Node000014"><a xlink:title=" ">
<polygon fill="#e0e0e0" stroke="#999999" points="319,-19 260,-19 260,0 319,0 319,-19"/>
<text text-anchor="middle" x="289.5" y="-7" font-family="Helvetica,sans-Serif" font-size="10.00">complex</text>
</a>
</g>
</g>
<!-- Node11&#45;&gt;Node14 -->
<g id="edge16_Node000011_Node000014" class="edge">
<title>Node11&#45;&gt;Node14</title>
<g id="a_edge16_Node000011_Node000014"><a xlink:title=" ">
<path fill="none" stroke="#63b8ff" d="M269.46,-54.75C272.71,-47.57 277.42,-37.18 281.45,-28.27"/>
<polygon fill="#63b8ff" stroke="#63b8ff" points="284.67,-29.64 285.61,-19.09 278.3,-26.75 284.67,-29.64"/>
</a>
</g>
</g>
</g>
</svg>
