<?xml version="1.0" encoding="UTF-8" standalone="no"?>
<!DOCTYPE svg PUBLIC "-//W3C//DTD SVG 1.1//EN"
 "http://www.w3.org/Graphics/SVG/1.1/DTD/svg11.dtd">
<!-- Generated by graphviz version 2.43.0 (0)
 -->
<!-- Title: sitkExplicit.h Pages: 1 -->
<!--zoomable 148 -->

<svg id="main" version="1.1" xmlns="http://www.w3.org/2000/svg" xmlns:xlink="http://www.w3.org/1999/xlink" xml:space="preserve" onload="init(evt)">

<style type="text/css"><![CDATA[
.node, .edge {opacity: 0.7;}
.node.selected, .edge.selected {opacity: 1;}
.edge:hover path { stroke: red; }
.edge:hover polygon { stroke: red; fill: red; }
]]></style>

<defs>
  <circle id="rim" cx="0" cy="0" r="7"/>
  <circle id="rim2" cx="0" cy="0" r="3.5"/>
  <g id="zoomPlus">
    <use xlink:href="#rim" fill="#404040"><set attributeName="fill" to="#808080" begin="zoomplus.mouseover" end="zoomplus.mouseout"/></use>
    <path d="M-4,0h8M0,-4v8" fill="none" stroke="white" stroke-width="1.5" pointer-events="none"/>
  </g>
  <g id="zoomMin">
    <use xlink:href="#rim" fill="#404040"><set attributeName="fill" to="#808080" begin="zoomminus.mouseover" end="zoomminus.mouseout"/></use>
    <path d="M-4,0h8" fill="none" stroke="white" stroke-width="1.5" pointer-events="none"/>
  </g>
  <g id="arrowUp" transform="translate(30 24)">
    <use xlink:href="#rim"/>
    <path pointer-events="none" fill="none" stroke="white" stroke-width="1.5" d="M0,-3.0v7 M-2.5,-0.5L0,-3.0L2.5,-0.5"/>
  </g>
  <g id="arrowRight" transform="rotate(90) translate(36 -43)">
    <use xlink:href="#rim"/>
    <path pointer-events="none" fill="none" stroke="white" stroke-width="1.5" d="M0,-3.0v7 M-2.5,-0.5L0,-3.0L2.5,-0.5"/>
  </g>
  <g id="arrowDown" transform="rotate(180) translate(-30 -48)">
    <use xlink:href="#rim"/>
    <path pointer-events="none" fill="none" stroke="white" stroke-width="1.5" d="M0,-3.0v7 M-2.5,-0.5L0,-3.0L2.5,-0.5"/>
  </g>
  <g id="arrowLeft" transform="rotate(270) translate(-36 17)">
    <use xlink:href="#rim"/>
    <path pointer-events="none" fill="none" stroke="white" stroke-width="1.5" d="M0,-3.0v7 M-2.5,-0.5L0,-3.0L2.5,-0.5"/>
  </g>
  <g id="resetDef">
    <use xlink:href="#rim2" fill="#404040"><set attributeName="fill" to="#808080" begin="reset.mouseover" end="reset.mouseout"/></use>
  </g>
</defs>
<script type="application/ecmascript">
var viewWidth = 2873;
var viewHeight = 148;
var sectionId = 'dynsection-1';
</script>
<script type="application/ecmascript" xlink:href="svg.min.js"/>
<svg id="graph" class="graph">
<g id="viewport">
<title>sitkExplicit.h</title>
<!-- Node1 -->
<g id="Node000001" class="node">
<title>Node1</title>
<g id="a_Node000001"><a xlink:title=" ">
<polygon fill="#999999" stroke="#666666" points="1459,-140 1379,-140 1379,-121 1459,-121 1459,-140"/>
<text text-anchor="middle" x="1419" y="-128" font-family="Helvetica,sans-Serif" font-size="10.00">sitkExplicit.h</text>
</a>
</g>
</g>
<!-- Node2 -->
<g id="Node000002" class="node">
<title>Node2</title>
<g id="a_Node000002"><a xlink:href="sitkExplicitITKComposeImageFilter_8h.html" target="_top" xlink:title=" ">
<polygon fill="white" stroke="#666666" points="162,-85 0,-85 0,-55 162,-55 162,-85"/>
<text text-anchor="start" x="8" y="-73" font-family="Helvetica,sans-Serif" font-size="10.00">sitkExplicitITKComposeImage</text>
<text text-anchor="middle" x="81" y="-62" font-family="Helvetica,sans-Serif" font-size="10.00">Filter.h</text>
</a>
</g>
</g>
<!-- Node1&#45;&gt;Node2 -->
<g id="edge1_Node000001_Node000002" class="edge">
<title>Node1&#45;&gt;Node2</title>
<g id="a_edge1_Node000001_Node000002"><a xlink:title=" ">
<path fill="none" stroke="#63b8ff" d="M1368.63,-129.84C1199.24,-130.55 634.76,-129.18 171,-85 168.17,-84.73 165.29,-84.43 162.38,-84.1"/>
<polygon fill="#63b8ff" stroke="#63b8ff" points="1368.77,-133.34 1378.75,-129.8 1368.73,-126.34 1368.77,-133.34"/>
</a>
</g>
</g>
<!-- Node4 -->
<g id="Node000004" class="node">
<title>Node4</title>
<g id="a_Node000004"><a xlink:href="sitkExplicitITKDefaultPixelAccessor_8h.html" target="_top" xlink:title=" ">
<polygon fill="white" stroke="#666666" points="326,-85 180,-85 180,-55 326,-55 326,-85"/>
<text text-anchor="start" x="188" y="-73" font-family="Helvetica,sans-Serif" font-size="10.00">sitkExplicitITKDefaultPixel</text>
<text text-anchor="middle" x="253" y="-62" font-family="Helvetica,sans-Serif" font-size="10.00">Accessor.h</text>
</a>
</g>
</g>
<!-- Node1&#45;&gt;Node4 -->
<g id="edge3_Node000001_Node000004" class="edge">
<title>Node1&#45;&gt;Node4</title>
<g id="a_edge3_Node000001_Node000004"><a xlink:title=" ">
<path fill="none" stroke="#63b8ff" d="M1368.34,-129.72C1213.25,-129.9 731.43,-126.8 335,-85 332.13,-84.7 329.2,-84.36 326.25,-83.98"/>
<polygon fill="#63b8ff" stroke="#63b8ff" points="1368.51,-133.22 1378.51,-129.7 1368.5,-126.22 1368.51,-133.22"/>
</a>
</g>
</g>
<!-- Node5 -->
<g id="Node000005" class="node">
<title>Node5</title>
<g id="a_Node000005"><a xlink:href="sitkExplicitITKDefaultVectorPixelAccessor_8h.html" target="_top" xlink:title=" ">
<polygon fill="white" stroke="#666666" points="497.5,-85 344.5,-85 344.5,-55 497.5,-55 497.5,-85"/>
<text text-anchor="start" x="352.5" y="-73" font-family="Helvetica,sans-Serif" font-size="10.00">sitkExplicitITKDefaultVector</text>
<text text-anchor="middle" x="421" y="-62" font-family="Helvetica,sans-Serif" font-size="10.00">PixelAccessor.h</text>
</a>
</g>
</g>
<!-- Node1&#45;&gt;Node5 -->
<g id="edge5_Node000001_Node000005" class="edge">
<title>Node1&#45;&gt;Node5</title>
<g id="a_edge5_Node000001_Node000005"><a xlink:title=" ">
<path fill="none" stroke="#63b8ff" d="M1368.61,-129.03C1230.47,-127.31 834.26,-119.51 507,-85 503.99,-84.68 500.93,-84.33 497.84,-83.95"/>
<polygon fill="#63b8ff" stroke="#63b8ff" points="1368.83,-132.53 1378.87,-129.15 1368.92,-125.53 1368.83,-132.53"/>
</a>
</g>
</g>
<!-- Node6 -->
<g id="Node000006" class="node">
<title>Node6</title>
<g id="a_Node000006"><a xlink:href="sitkExplicitITKImage_8h.html" target="_top" xlink:title=" ">
<polygon fill="white" stroke="#666666" points="642,-79.5 516,-79.5 516,-60.5 642,-60.5 642,-79.5"/>
<text text-anchor="middle" x="579" y="-67.5" font-family="Helvetica,sans-Serif" font-size="10.00">sitkExplicitITKImage.h</text>
</a>
</g>
</g>
<!-- Node1&#45;&gt;Node6 -->
<g id="edge7_Node000001_Node000006" class="edge">
<title>Node1&#45;&gt;Node6</title>
<g id="a_edge7_Node000001_Node000006"><a xlink:title=" ">
<path fill="none" stroke="#63b8ff" d="M1368.61,-128.92C1245.56,-126.98 920.11,-118.81 651,-85 640.13,-83.64 628.44,-81.61 617.71,-79.52"/>
<polygon fill="#63b8ff" stroke="#63b8ff" points="1368.8,-132.42 1378.85,-129.07 1368.9,-125.42 1368.8,-132.42"/>
</a>
</g>
</g>
<!-- Node7 -->
<g id="Node000007" class="node">
<title>Node7</title>
<g id="a_Node000007"><a xlink:href="sitkExplicitITKImageBase_8h.html" target="_top" xlink:title=" ">
<polygon fill="white" stroke="#666666" points="810,-79.5 660,-79.5 660,-60.5 810,-60.5 810,-79.5"/>
<text text-anchor="middle" x="735" y="-67.5" font-family="Helvetica,sans-Serif" font-size="10.00">sitkExplicitITKImageBase.h</text>
</a>
</g>
</g>
<!-- Node1&#45;&gt;Node7 -->
<g id="edge9_Node000001_Node000007" class="edge">
<title>Node1&#45;&gt;Node7</title>
<g id="a_edge9_Node000001_Node000007"><a xlink:title=" ">
<path fill="none" stroke="#63b8ff" d="M1368.72,-127.32C1265.43,-122.5 1022.03,-109.4 819,-85 806.82,-83.54 793.7,-81.55 781.54,-79.53"/>
<polygon fill="#63b8ff" stroke="#63b8ff" points="1368.7,-130.82 1378.85,-127.79 1369.03,-123.83 1368.7,-130.82"/>
</a>
</g>
</g>
<!-- Node8 -->
<g id="Node000008" class="node">
<title>Node8</title>
<g id="a_Node000008"><a xlink:href="sitkExplicitITKImageConstIterator_8h.html" target="_top" xlink:title=" ">
<polygon fill="white" stroke="#666666" points="973.5,-85 828.5,-85 828.5,-55 973.5,-55 973.5,-85"/>
<text text-anchor="start" x="836.5" y="-73" font-family="Helvetica,sans-Serif" font-size="10.00">sitkExplicitITKImageConst</text>
<text text-anchor="middle" x="901" y="-62" font-family="Helvetica,sans-Serif" font-size="10.00">Iterator.h</text>
</a>
</g>
</g>
<!-- Node1&#45;&gt;Node8 -->
<g id="edge11_Node000001_Node000008" class="edge">
<title>Node1&#45;&gt;Node8</title>
<g id="a_edge11_Node000001_Node000008"><a xlink:title=" ">
<path fill="none" stroke="#63b8ff" d="M1368.47,-125.46C1287.11,-118.69 1122.07,-103.95 983,-85 979.99,-84.59 976.93,-84.15 973.84,-83.7"/>
<polygon fill="#63b8ff" stroke="#63b8ff" points="1368.66,-128.98 1378.92,-126.32 1369.24,-122.01 1368.66,-128.98"/>
</a>
</g>
</g>
<!-- Node9 -->
<g id="Node000009" class="node">
<title>Node9</title>
<g id="a_Node000009"><a xlink:href="sitkExplicitITKImageRegion_8h.html" target="_top" xlink:title=" ">
<polygon fill="white" stroke="#666666" points="1152,-79.5 992,-79.5 992,-60.5 1152,-60.5 1152,-79.5"/>
<text text-anchor="middle" x="1072" y="-67.5" font-family="Helvetica,sans-Serif" font-size="10.00">sitkExplicitITKImageRegion.h</text>
</a>
</g>
</g>
<!-- Node1&#45;&gt;Node9 -->
<g id="edge13_Node000001_Node000009" class="edge">
<title>Node1&#45;&gt;Node9</title>
<g id="a_edge13_Node000001_Node000009"><a xlink:title=" ">
<path fill="none" stroke="#63b8ff" d="M1368.75,-121.03C1303.05,-109.95 1188.62,-90.66 1122.71,-79.55"/>
<polygon fill="#63b8ff" stroke="#63b8ff" points="1368.41,-124.52 1378.86,-122.73 1369.58,-117.62 1368.41,-124.52"/>
</a>
</g>
</g>
<!-- Node10 -->
<g id="Node000010" class="node">
<title>Node10</title>
<g id="a_Node000010"><a xlink:href="sitkExplicitITKImageRegionConstIterator_8h.html" target="_top" xlink:title=" ">
<polygon fill="white" stroke="#666666" points="1321.5,-85 1170.5,-85 1170.5,-55 1321.5,-55 1321.5,-85"/>
<text text-anchor="start" x="1178.5" y="-73" font-family="Helvetica,sans-Serif" font-size="10.00">sitkExplicitITKImageRegion</text>
<text text-anchor="middle" x="1246" y="-62" font-family="Helvetica,sans-Serif" font-size="10.00">ConstIterator.h</text>
</a>
</g>
</g>
<!-- Node1&#45;&gt;Node10 -->
<g id="edge15_Node000001_Node000010" class="edge">
<title>Node1&#45;&gt;Node10</title>
<g id="a_edge15_Node000001_Node000010"><a xlink:title=" ">
<path fill="none" stroke="#63b8ff" d="M1384.12,-117.71C1356.25,-108.28 1317.1,-95.04 1287.59,-85.06"/>
<polygon fill="#63b8ff" stroke="#63b8ff" points="1383.25,-121.11 1393.84,-120.99 1385.49,-114.47 1383.25,-121.11"/>
</a>
</g>
</g>
<!-- Node11 -->
<g id="Node000011" class="node">
<title>Node11</title>
<g id="a_Node000011"><a xlink:href="sitkExplicitITKImageScanlineConstIterator_8h.html" target="_top" xlink:title=" ">
<polygon fill="white" stroke="#666666" points="1498,-85 1340,-85 1340,-55 1498,-55 1498,-85"/>
<text text-anchor="start" x="1348" y="-73" font-family="Helvetica,sans-Serif" font-size="10.00">sitkExplicitITKImageScanline</text>
<text text-anchor="middle" x="1419" y="-62" font-family="Helvetica,sans-Serif" font-size="10.00">ConstIterator.h</text>
</a>
</g>
</g>
<!-- Node1&#45;&gt;Node11 -->
<g id="edge17_Node000001_Node000011" class="edge">
<title>Node1&#45;&gt;Node11</title>
<g id="a_edge17_Node000001_Node000011"><a xlink:title=" ">
<path fill="none" stroke="#63b8ff" d="M1419,-110.65C1419,-102.36 1419,-92.78 1419,-85.11"/>
<polygon fill="#63b8ff" stroke="#63b8ff" points="1415.5,-110.87 1419,-120.87 1422.5,-110.87 1415.5,-110.87"/>
</a>
</g>
</g>
<!-- Node12 -->
<g id="Node000012" class="node">
<title>Node12</title>
<g id="a_Node000012"><a xlink:href="sitkExplicitITKImageScanlineIterator_8h.html" target="_top" xlink:title=" ">
<polygon fill="white" stroke="#666666" points="1674,-85 1516,-85 1516,-55 1674,-55 1674,-85"/>
<text text-anchor="start" x="1524" y="-73" font-family="Helvetica,sans-Serif" font-size="10.00">sitkExplicitITKImageScanline</text>
<text text-anchor="middle" x="1595" y="-62" font-family="Helvetica,sans-Serif" font-size="10.00">Iterator.h</text>
</a>
</g>
</g>
<!-- Node1&#45;&gt;Node12 -->
<g id="edge19_Node000001_Node000012" class="edge">
<title>Node1&#45;&gt;Node12</title>
<g id="a_edge19_Node000001_Node000012"><a xlink:title=" ">
<path fill="none" stroke="#63b8ff" d="M1454.11,-117.83C1482.49,-108.4 1522.54,-95.09 1552.69,-85.06"/>
<polygon fill="#63b8ff" stroke="#63b8ff" points="1452.98,-114.52 1444.59,-120.99 1455.19,-121.16 1452.98,-114.52"/>
</a>
</g>
</g>
<!-- Node13 -->
<g id="Node000013" class="node">
<title>Node13</title>
<g id="a_Node000013"><a xlink:href="sitkExplicitITKImageSource_8h.html" target="_top" xlink:title=" ">
<polygon fill="white" stroke="#666666" points="1850.5,-79.5 1691.5,-79.5 1691.5,-60.5 1850.5,-60.5 1850.5,-79.5"/>
<text text-anchor="middle" x="1771" y="-67.5" font-family="Helvetica,sans-Serif" font-size="10.00">sitkExplicitITKImageSource.h</text>
</a>
</g>
</g>
<!-- Node1&#45;&gt;Node13 -->
<g id="edge21_Node000001_Node000013" class="edge">
<title>Node1&#45;&gt;Node13</title>
<g id="a_edge21_Node000001_Node000013"><a xlink:title=" ">
<path fill="none" stroke="#63b8ff" d="M1469.27,-121.15C1535.82,-110.09 1652.54,-90.69 1719.63,-79.54"/>
<polygon fill="#63b8ff" stroke="#63b8ff" points="1468.33,-117.75 1459.04,-122.85 1469.47,-124.66 1468.33,-117.75"/>
</a>
</g>
</g>
<!-- Node14 -->
<g id="Node000014" class="node">
<title>Node14</title>
<g id="a_Node000014"><a xlink:href="sitkExplicitITKImageToImageFilter_8h.html" target="_top" xlink:title=" ">
<polygon fill="white" stroke="#666666" points="2026,-85 1868,-85 1868,-55 2026,-55 2026,-85"/>
<text text-anchor="start" x="1876" y="-73" font-family="Helvetica,sans-Serif" font-size="10.00">sitkExplicitITKImageToImage</text>
<text text-anchor="middle" x="1947" y="-62" font-family="Helvetica,sans-Serif" font-size="10.00">Filter.h</text>
</a>
</g>
</g>
<!-- Node1&#45;&gt;Node14 -->
<g id="edge23_Node000001_Node000014" class="edge">
<title>Node1&#45;&gt;Node14</title>
<g id="a_edge23_Node000001_Node000014"><a xlink:title=" ">
<path fill="none" stroke="#63b8ff" d="M1469.26,-125.4C1551.25,-118.49 1718.78,-103.47 1860,-85 1862.58,-84.66 1865.2,-84.31 1867.84,-83.94"/>
<polygon fill="#63b8ff" stroke="#63b8ff" points="1468.9,-121.92 1459.22,-126.24 1469.48,-128.89 1468.9,-121.92"/>
</a>
</g>
</g>
<!-- Node15 -->
<g id="Node000015" class="node">
<title>Node15</title>
<g id="a_Node000015"><a xlink:href="sitkExplicitITKImportImageContainer_8h.html" target="_top" xlink:title=" ">
<polygon fill="white" stroke="#666666" points="2192.5,-85 2043.5,-85 2043.5,-55 2192.5,-55 2192.5,-85"/>
<text text-anchor="start" x="2051.5" y="-73" font-family="Helvetica,sans-Serif" font-size="10.00">sitkExplicitITKImportImage</text>
<text text-anchor="middle" x="2118" y="-62" font-family="Helvetica,sans-Serif" font-size="10.00">Container.h</text>
</a>
</g>
</g>
<!-- Node1&#45;&gt;Node15 -->
<g id="edge25_Node000001_Node000015" class="edge">
<title>Node1&#45;&gt;Node15</title>
<g id="a_edge25_Node000001_Node000015"><a xlink:title=" ">
<path fill="none" stroke="#63b8ff" d="M1469.14,-127.49C1574.32,-122.93 1825.6,-110.17 2035,-85 2037.76,-84.67 2040.56,-84.31 2043.39,-83.93"/>
<polygon fill="#63b8ff" stroke="#63b8ff" points="1468.97,-124 1459.12,-127.92 1469.26,-130.99 1468.97,-124"/>
</a>
</g>
</g>
<!-- Node16 -->
<g id="Node000016" class="node">
<title>Node16</title>
<g id="a_Node000016"><a xlink:href="sitkExplicitITKInPlaceImageFilter_8h.html" target="_top" xlink:title=" ">
<polygon fill="white" stroke="#666666" points="2363,-85 2211,-85 2211,-55 2363,-55 2363,-85"/>
<text text-anchor="start" x="2219" y="-73" font-family="Helvetica,sans-Serif" font-size="10.00">sitkExplicitITKInPlaceImage</text>
<text text-anchor="middle" x="2287" y="-62" font-family="Helvetica,sans-Serif" font-size="10.00">Filter.h</text>
</a>
</g>
</g>
<!-- Node1&#45;&gt;Node16 -->
<g id="edge27_Node000001_Node000016" class="edge">
<title>Node1&#45;&gt;Node16</title>
<g id="a_edge27_Node000001_Node000016"><a xlink:title=" ">
<path fill="none" stroke="#63b8ff" d="M1469.41,-128.49C1594.04,-125.6 1926.51,-115.43 2202,-85 2204.82,-84.69 2207.7,-84.35 2210.6,-83.98"/>
<polygon fill="#63b8ff" stroke="#63b8ff" points="1468.97,-125 1459.05,-128.73 1469.13,-132 1468.97,-125"/>
</a>
</g>
</g>
<!-- Node17 -->
<g id="Node000017" class="node">
<title>Node17</title>
<g id="a_Node000017"><a xlink:href="sitkExplicitITKLabelMap_8h.html" target="_top" xlink:title=" ">
<polygon fill="white" stroke="#666666" points="2524.5,-79.5 2381.5,-79.5 2381.5,-60.5 2524.5,-60.5 2524.5,-79.5"/>
<text text-anchor="middle" x="2453" y="-67.5" font-family="Helvetica,sans-Serif" font-size="10.00">sitkExplicitITKLabelMap.h</text>
</a>
</g>
</g>
<!-- Node1&#45;&gt;Node17 -->
<g id="edge29_Node000001_Node000017" class="edge">
<title>Node1&#45;&gt;Node17</title>
<g id="a_edge29_Node000001_Node000017"><a xlink:title=" ">
<path fill="none" stroke="#63b8ff" d="M1469.23,-129.35C1611.35,-128.46 2028.25,-122.58 2372,-85 2384.2,-83.67 2397.34,-81.65 2409.42,-79.56"/>
<polygon fill="#63b8ff" stroke="#63b8ff" points="1469.07,-125.85 1459.09,-129.41 1469.1,-132.85 1469.07,-125.85"/>
</a>
</g>
</g>
<!-- Node18 -->
<g id="Node000018" class="node">
<title>Node18</title>
<g id="a_Node000018"><a xlink:href="sitkExplicitITKVectorImage_8h.html" target="_top" xlink:title=" ">
<polygon fill="white" stroke="#666666" points="2699.5,-79.5 2542.5,-79.5 2542.5,-60.5 2699.5,-60.5 2699.5,-79.5"/>
<text text-anchor="middle" x="2621" y="-67.5" font-family="Helvetica,sans-Serif" font-size="10.00">sitkExplicitITKVectorImage.h</text>
</a>
</g>
</g>
<!-- Node1&#45;&gt;Node18 -->
<g id="edge31_Node000001_Node000018" class="edge">
<title>Node1&#45;&gt;Node18</title>
<g id="a_edge31_Node000001_Node000018"><a xlink:title=" ">
<path fill="none" stroke="#63b8ff" d="M1469.45,-129.63C1627.13,-129.59 2124.62,-125.96 2534,-85 2547.24,-83.67 2561.53,-81.63 2574.63,-79.52"/>
<polygon fill="#63b8ff" stroke="#63b8ff" points="1469.12,-126.13 1459.12,-129.63 1469.12,-133.13 1469.12,-126.13"/>
</a>
</g>
</g>
<!-- Node19 -->
<g id="Node000019" class="node">
<title>Node19</title>
<g id="a_Node000019"><a xlink:href="sitkExplicitITKVectorIndexSelectionCastImageFilter_8h.html" target="_top" xlink:title=" ">
<polygon fill="white" stroke="#666666" points="2864.5,-85 2717.5,-85 2717.5,-55 2864.5,-55 2864.5,-85"/>
<text text-anchor="start" x="2725.5" y="-73" font-family="Helvetica,sans-Serif" font-size="10.00">sitkExplicitITKVectorIndex</text>
<text text-anchor="middle" x="2791" y="-62" font-family="Helvetica,sans-Serif" font-size="10.00">SelectionCastImageFilter.h</text>
</a>
</g>
</g>
<!-- Node1&#45;&gt;Node19 -->
<g id="edge33_Node000001_Node000019" class="edge">
<title>Node1&#45;&gt;Node19</title>
<g id="a_edge33_Node000001_Node000019"><a xlink:title=" ">
<path fill="none" stroke="#63b8ff" d="M1469.45,-128.67C1676.55,-125.11 2462.08,-110.22 2709,-85 2711.73,-84.72 2714.51,-84.41 2717.31,-84.06"/>
<polygon fill="#63b8ff" stroke="#63b8ff" points="1469.12,-125.17 1459.18,-128.84 1469.24,-132.17 1469.12,-125.17"/>
</a>
</g>
</g>
<!-- Node3 -->
<g id="Node000003" class="node">
<title>Node3</title>
<g id="a_Node000003"><a xlink:href="sitkExplicitITK_8h.html" target="_top" xlink:title=" ">
<polygon fill="white" stroke="#666666" points="1466.5,-19 1371.5,-19 1371.5,0 1466.5,0 1466.5,-19"/>
<text text-anchor="middle" x="1419" y="-7" font-family="Helvetica,sans-Serif" font-size="10.00">sitkExplicitITK.h</text>
</a>
</g>
</g>
<!-- Node2&#45;&gt;Node3 -->
<g id="edge2_Node000002_Node000003" class="edge">
<title>Node2&#45;&gt;Node3</title>
<g id="a_edge2_Node000002_Node000003"><a xlink:title=" ">
<path fill="none" stroke="#63b8ff" d="M172.48,-54.94C645.21,-10.57 1206.33,-9.45 1371.26,-10.17"/>
<polygon fill="#63b8ff" stroke="#63b8ff" points="172.01,-51.47 162.38,-55.9 172.67,-58.44 172.01,-51.47"/>
</a>
</g>
</g>
<!-- Node4&#45;&gt;Node3 -->
<g id="edge4_Node000004_Node000003" class="edge">
<title>Node4&#45;&gt;Node3</title>
<g id="a_edge4_Node000004_Node000003"><a xlink:title=" ">
<path fill="none" stroke="#63b8ff" d="M336.42,-54.95C742.02,-12.88 1220.72,-10.06 1371.29,-10.28"/>
<polygon fill="#63b8ff" stroke="#63b8ff" points="335.83,-51.49 326.25,-56.02 336.56,-58.45 335.83,-51.49"/>
</a>
</g>
</g>
<!-- Node5&#45;&gt;Node3 -->
<g id="edge6_Node000005_Node000003" class="edge">
<title>Node5&#45;&gt;Node3</title>
<g id="a_edge6_Node000005_Node000003"><a xlink:title=" ">
<path fill="none" stroke="#63b8ff" d="M508.27,-54.96C844.65,-20.1 1237.24,-12.57 1371.38,-10.94"/>
<polygon fill="#63b8ff" stroke="#63b8ff" points="507.42,-51.53 497.84,-56.05 508.15,-58.49 507.42,-51.53"/>
</a>
</g>
</g>
<!-- Node6&#45;&gt;Node3 -->
<g id="edge8_Node000006_Node000003" class="edge">
<title>Node6&#45;&gt;Node3</title>
<g id="a_edge8_Node000006_Node000003"><a xlink:title=" ">
<path fill="none" stroke="#63b8ff" d="M627.74,-58.61C635.49,-57.22 643.44,-55.95 651,-55 921.99,-20.96 1250.11,-12.91 1371.16,-11.05"/>
<polygon fill="#63b8ff" stroke="#63b8ff" points="626.89,-55.2 617.71,-60.48 628.18,-62.08 626.89,-55.2"/>
</a>
</g>
</g>
<!-- Node7&#45;&gt;Node3 -->
<g id="edge10_Node000007_Node000003" class="edge">
<title>Node7&#45;&gt;Node3</title>
<g id="a_edge10_Node000007_Node000003"><a xlink:title=" ">
<path fill="none" stroke="#63b8ff" d="M791.69,-58.83C800.81,-57.4 810.15,-56.06 819,-55 1023.82,-30.39 1269.72,-17.27 1371.41,-12.55"/>
<polygon fill="#63b8ff" stroke="#63b8ff" points="790.86,-55.42 781.54,-60.47 791.97,-62.33 790.86,-55.42"/>
</a>
</g>
</g>
<!-- Node8&#45;&gt;Node3 -->
<g id="edge12_Node000008_Node000003" class="edge">
<title>Node8&#45;&gt;Node3</title>
<g id="a_edge12_Node000008_Node000003"><a xlink:title=" ">
<path fill="none" stroke="#63b8ff" d="M983.97,-54.93C1131.27,-35.15 1293,-20.79 1371.46,-14.3"/>
<polygon fill="#63b8ff" stroke="#63b8ff" points="983.28,-51.49 973.84,-56.3 984.22,-58.43 983.28,-51.49"/>
</a>
</g>
</g>
<!-- Node9&#45;&gt;Node3 -->
<g id="edge14_Node000009_Node000003" class="edge">
<title>Node9&#45;&gt;Node3</title>
<g id="a_edge14_Node000009_Node000003"><a xlink:title=" ">
<path fill="none" stroke="#63b8ff" d="M1132.58,-58.79C1200.46,-47.34 1309.13,-29.02 1371.27,-18.55"/>
<polygon fill="#63b8ff" stroke="#63b8ff" points="1131.74,-55.38 1122.46,-60.49 1132.9,-62.28 1131.74,-55.38"/>
</a>
</g>
</g>
<!-- Node10&#45;&gt;Node3 -->
<g id="edge16_Node000010_Node000003" class="edge">
<title>Node10&#45;&gt;Node3</title>
<g id="a_edge16_Node000010_Node000003"><a xlink:title=" ">
<path fill="none" stroke="#63b8ff" d="M1297.04,-51.74C1328.86,-40.98 1368.43,-27.6 1393.7,-19.05"/>
<polygon fill="#63b8ff" stroke="#63b8ff" points="1295.79,-48.47 1287.44,-54.99 1298.03,-55.1 1295.79,-48.47"/>
</a>
</g>
</g>
<!-- Node11&#45;&gt;Node3 -->
<g id="edge18_Node000011_Node000003" class="edge">
<title>Node11&#45;&gt;Node3</title>
<g id="a_edge18_Node000011_Node000003"><a xlink:title=" ">
<path fill="none" stroke="#63b8ff" d="M1419,-44.75C1419,-35.72 1419,-26.03 1419,-19.27"/>
<polygon fill="#63b8ff" stroke="#63b8ff" points="1415.5,-44.84 1419,-54.84 1422.5,-44.84 1415.5,-44.84"/>
</a>
</g>
</g>
<!-- Node12&#45;&gt;Node3 -->
<g id="edge20_Node000012_Node000003" class="edge">
<title>Node12&#45;&gt;Node3</title>
<g id="a_edge20_Node000012_Node000003"><a xlink:title=" ">
<path fill="none" stroke="#63b8ff" d="M1543.07,-51.74C1510.7,-40.98 1470.45,-27.6 1444.73,-19.05"/>
<polygon fill="#63b8ff" stroke="#63b8ff" points="1542.25,-55.15 1552.84,-54.99 1544.46,-48.51 1542.25,-55.15"/>
</a>
</g>
</g>
<!-- Node13&#45;&gt;Node3 -->
<g id="edge22_Node000013_Node000003" class="edge">
<title>Node13&#45;&gt;Node3</title>
<g id="a_edge22_Node000013_Node000003"><a xlink:title=" ">
<path fill="none" stroke="#63b8ff" d="M1709.93,-58.85C1640.79,-47.36 1529.59,-28.88 1466.58,-18.41"/>
<polygon fill="#63b8ff" stroke="#63b8ff" points="1709.38,-62.31 1719.82,-60.49 1710.53,-55.4 1709.38,-62.31"/>
</a>
</g>
</g>
<!-- Node14&#45;&gt;Node3 -->
<g id="edge24_Node000014_Node000003" class="edge">
<title>Node14&#45;&gt;Node3</title>
<g id="a_edge24_Node000014_Node000003"><a xlink:title=" ">
<path fill="none" stroke="#63b8ff" d="M1857.67,-54.74C1709.74,-35.66 1545.95,-21.04 1466.75,-14.39"/>
<polygon fill="#63b8ff" stroke="#63b8ff" points="1857.48,-58.24 1867.84,-56.06 1858.38,-51.3 1857.48,-58.24"/>
</a>
</g>
</g>
<!-- Node15&#45;&gt;Node3 -->
<g id="edge26_Node000015_Node000003" class="edge">
<title>Node15&#45;&gt;Node3</title>
<g id="a_edge26_Node000015_Node000003"><a xlink:title=" ">
<path fill="none" stroke="#63b8ff" d="M2033.4,-54.88C1816.31,-29.25 1568.78,-16.8 1466.68,-12.4"/>
<polygon fill="#63b8ff" stroke="#63b8ff" points="2033.05,-58.36 2043.39,-56.07 2033.88,-51.41 2033.05,-58.36"/>
</a>
</g>
</g>
<!-- Node16&#45;&gt;Node3 -->
<g id="edge28_Node000016_Node000003" class="edge">
<title>Node16&#45;&gt;Node3</title>
<g id="a_edge28_Node000016_Node000003"><a xlink:title=" ">
<path fill="none" stroke="#63b8ff" d="M2200.52,-54.92C1916.74,-24.12 1587.92,-14.22 1466.81,-11.45"/>
<polygon fill="#63b8ff" stroke="#63b8ff" points="2200.28,-58.41 2210.6,-56.02 2201.04,-51.45 2200.28,-58.41"/>
</a>
</g>
</g>
<!-- Node17&#45;&gt;Node3 -->
<g id="edge30_Node000017_Node000003" class="edge">
<title>Node17&#45;&gt;Node3</title>
<g id="a_edge30_Node000017_Node000003"><a xlink:title=" ">
<path fill="none" stroke="#63b8ff" d="M2399.32,-58.76C2390.23,-57.3 2380.86,-55.97 2372,-55 2026.23,-17.19 1606.45,-11.47 1466.76,-10.63"/>
<polygon fill="#63b8ff" stroke="#63b8ff" points="2398.98,-62.25 2409.42,-60.44 2400.13,-55.34 2398.98,-62.25"/>
</a>
</g>
</g>
<!-- Node18&#45;&gt;Node3 -->
<g id="edge32_Node000018_Node000003" class="edge">
<title>Node18&#45;&gt;Node3</title>
<g id="a_edge32_Node000018_Node000003"><a xlink:title=" ">
<path fill="none" stroke="#63b8ff" d="M2564.62,-58.92C2554.45,-57.39 2543.93,-55.99 2534,-55 2122.2,-13.8 1621.25,-10.37 1466.69,-10.37"/>
<polygon fill="#63b8ff" stroke="#63b8ff" points="2564.21,-62.4 2574.63,-60.48 2565.29,-55.48 2564.21,-62.4"/>
</a>
</g>
</g>
<!-- Node19&#45;&gt;Node3 -->
<g id="edge34_Node000019_Node000003" class="edge">
<title>Node19&#45;&gt;Node3</title>
<g id="a_edge34_Node000019_Node000003"><a xlink:title=" ">
<path fill="none" stroke="#63b8ff" d="M2707.29,-54.94C2440.99,-29.29 1667.04,-14.71 1466.75,-11.29"/>
<polygon fill="#63b8ff" stroke="#63b8ff" points="2707.01,-58.43 2717.31,-55.94 2707.7,-51.47 2707.01,-58.43"/>
</a>
</g>
</g>
</g>
</svg>

<g id="navigator" transform="translate(0 0)" fill="#404254">
  <rect fill="#f2f5e9" fill-opacity="0.5" stroke="#606060" stroke-width=".5" x="0" y="0" width="60" height="60"/>
  <use id="zoomplus" xlink:href="#zoomPlus" x="17" y="9" onmousedown="handleZoom(evt,'in')"/>
  <use id="zoomminus" xlink:href="#zoomMin" x="42" y="9" onmousedown="handleZoom(evt,'out')"/>
  <use id="reset" xlink:href="#resetDef" x="30" y="36" onmousedown="handleReset()"/>
   <use id="arrowup" xlink:href="#arrowUp" x="0" y="0" onmousedown="handlePan(0,-1)"/>
  <use id="arrowright" xlink:href="#arrowRight" x="0" y="0" onmousedown="handlePan(1,0)"/>
  <use id="arrowdown" xlink:href="#arrowDown" x="0" y="0" onmousedown="handlePan(0,1)"/>
  <use id="arrowleft" xlink:href="#arrowLeft" x="0" y="0" onmousedown="handlePan(-1,0)"/>
</g>
<svg viewBox="0 0 15 15" width="100%" height="30px" preserveAspectRatio="xMaxYMin meet">
 <g id="arrow_out" transform="scale(0.3 0.3)">
  <a xlink:href="sitkExplicit_8h__dep__incl_org.svg" target="_base">
   <rect id="button" ry="5" rx="5" y="6" x="6" height="38" width="38"
        fill="#f2f5e9" fill-opacity="0.5" stroke="#606060" stroke-width="1.0"/>
   <path id="arrow"
     d="M 11.500037,31.436501 C 11.940474,20.09759 22.043105,11.32322 32.158766,21.979434 L 37.068811,17.246167 C 37.068811,17.246167 37.088388,32 37.088388,32 L 22.160133,31.978069 C 22.160133,31.978069 26.997745,27.140456 26.997745,27.140456 C 18.528582,18.264221 13.291696,25.230495 11.500037,31.436501 z"
     style="fill:#404040;"/>
  </a>
 </g>
</svg>

<style type='text/css'>
<![CDATA[
[data-mouse-over-selected='false'] { opacity: 0.7; }
[data-mouse-over-selected='true']  { opacity: 1.0; }
]]>
</style>
<script type="application/ecmascript"><![CDATA[
document.addEventListener('DOMContentLoaded', (event) => {
  highlightEdges();
  highlightAdjacentNodes();
});
]]></script>
</svg>
