<?xml version="1.0" encoding="UTF-8" standalone="no"?>
<!DOCTYPE svg PUBLIC "-//W3C//DTD SVG 1.1//EN"
 "http://www.w3.org/Graphics/SVG/1.1/DTD/svg11.dtd">
<!-- Generated by graphviz version 2.43.0 (0)
 -->
<!-- Title: sitkImageViewer.h Pages: 1 -->
<!--zoomable 533 -->

<svg id="main" version="1.1" xmlns="http://www.w3.org/2000/svg" xmlns:xlink="http://www.w3.org/1999/xlink" xml:space="preserve" onload="init(evt)">

<style type="text/css"><![CDATA[
.node, .edge {opacity: 0.7;}
.node.selected, .edge.selected {opacity: 1;}
.edge:hover path { stroke: red; }
.edge:hover polygon { stroke: red; fill: red; }
]]></style>

<defs>
  <circle id="rim" cx="0" cy="0" r="7"/>
  <circle id="rim2" cx="0" cy="0" r="3.5"/>
  <g id="zoomPlus">
    <use xlink:href="#rim" fill="#404040"><set attributeName="fill" to="#808080" begin="zoomplus.mouseover" end="zoomplus.mouseout"/></use>
    <path d="M-4,0h8M0,-4v8" fill="none" stroke="white" stroke-width="1.5" pointer-events="none"/>
  </g>
  <g id="zoomMin">
    <use xlink:href="#rim" fill="#404040"><set attributeName="fill" to="#808080" begin="zoomminus.mouseover" end="zoomminus.mouseout"/></use>
    <path d="M-4,0h8" fill="none" stroke="white" stroke-width="1.5" pointer-events="none"/>
  </g>
  <g id="arrowUp" transform="translate(30 24)">
    <use xlink:href="#rim"/>
    <path pointer-events="none" fill="none" stroke="white" stroke-width="1.5" d="M0,-3.0v7 M-2.5,-0.5L0,-3.0L2.5,-0.5"/>
  </g>
  <g id="arrowRight" transform="rotate(90) translate(36 -43)">
    <use xlink:href="#rim"/>
    <path pointer-events="none" fill="none" stroke="white" stroke-width="1.5" d="M0,-3.0v7 M-2.5,-0.5L0,-3.0L2.5,-0.5"/>
  </g>
  <g id="arrowDown" transform="rotate(180) translate(-30 -48)">
    <use xlink:href="#rim"/>
    <path pointer-events="none" fill="none" stroke="white" stroke-width="1.5" d="M0,-3.0v7 M-2.5,-0.5L0,-3.0L2.5,-0.5"/>
  </g>
  <g id="arrowLeft" transform="rotate(270) translate(-36 17)">
    <use xlink:href="#rim"/>
    <path pointer-events="none" fill="none" stroke="white" stroke-width="1.5" d="M0,-3.0v7 M-2.5,-0.5L0,-3.0L2.5,-0.5"/>
  </g>
  <g id="resetDef">
    <use xlink:href="#rim2" fill="#404040"><set attributeName="fill" to="#808080" begin="reset.mouseover" end="reset.mouseout"/></use>
  </g>
</defs>
<script type="application/ecmascript">
var viewWidth = 1608;
var viewHeight = 533;
var sectionId = 'dynsection-0';
</script>
<script type="application/ecmascript" xlink:href="svg.min.js"/>
<svg id="graph" class="graph">
<g id="viewport">
<title>sitkImageViewer.h</title>
<!-- Node1 -->
<g id="Node000001" class="node">
<title>Node1</title>
<g id="a_Node000001"><a xlink:title=" ">
<polygon fill="#999999" stroke="#666666" points="672.5,-525 565.5,-525 565.5,-506 672.5,-506 672.5,-525"/>
<text text-anchor="middle" x="619" y="-513" font-family="Helvetica,sans-Serif" font-size="10.00">sitkImageViewer.h</text>
</a>
</g>
</g>
<!-- Node2 -->
<g id="Node000002" class="node">
<title>Node2</title>
<g id="a_Node000002"><a xlink:href="sitkImage_8h.html" target="_top" xlink:title=" ">
<polygon fill="white" stroke="#666666" points="581,-360 507,-360 507,-341 581,-341 581,-360"/>
<text text-anchor="middle" x="544" y="-348" font-family="Helvetica,sans-Serif" font-size="10.00">sitkImage.h</text>
</a>
</g>
</g>
<!-- Node1&#45;&gt;Node2 -->
<g id="edge1_Node000001_Node000002" class="edge">
<title>Node1&#45;&gt;Node2</title>
<g id="a_edge1_Node000001_Node000002"><a xlink:title=" ">
<path fill="none" stroke="#63b8ff" d="M630.71,-505.73C656.34,-485.46 712.98,-434.18 685,-396 663.71,-366.95 623.4,-356.38 591.31,-352.75"/>
<polygon fill="#63b8ff" stroke="#63b8ff" points="591.5,-349.26 581.22,-351.81 590.85,-356.22 591.5,-349.26"/>
</a>
</g>
</g>
<!-- Node33 -->
<g id="Node000033" class="node">
<title>Node33</title>
<g id="a_Node000033"><a xlink:href="sitkPathType_8h.html" target="_top" xlink:title=" ">
<polygon fill="white" stroke="#666666" points="1083.5,-360 996.5,-360 996.5,-341 1083.5,-341 1083.5,-360"/>
<text text-anchor="middle" x="1040" y="-348" font-family="Helvetica,sans-Serif" font-size="10.00">sitkPathType.h</text>
</a>
</g>
</g>
<!-- Node1&#45;&gt;Node33 -->
<g id="edge53_Node000001_Node000033" class="edge">
<title>Node1&#45;&gt;Node33</title>
<g id="a_edge53_Node000001_Node000033"><a xlink:title=" ">
<path fill="none" stroke="#63b8ff" d="M672.56,-509.25C746.81,-499.96 883.06,-475.53 982,-415 1001.22,-403.24 1017.94,-383.27 1028.43,-368.86"/>
<polygon fill="#63b8ff" stroke="#63b8ff" points="1031.52,-370.54 1034.38,-360.34 1025.78,-366.53 1031.52,-370.54"/>
</a>
</g>
</g>
<!-- Node34 -->
<g id="Node000034" class="node">
<title>Node34</title>
<g id="a_Node000034"><a xlink:href="sitkIO_8h.html" target="_top" xlink:title=" ">
<polygon fill="white" stroke="#666666" points="243,-470 189,-470 189,-451 243,-451 243,-470"/>
<text text-anchor="middle" x="216" y="-458" font-family="Helvetica,sans-Serif" font-size="10.00">sitkIO.h</text>
</a>
</g>
</g>
<!-- Node1&#45;&gt;Node34 -->
<g id="edge55_Node000001_Node000034" class="edge">
<title>Node1&#45;&gt;Node34</title>
<g id="a_edge55_Node000001_Node000034"><a xlink:title=" ">
<path fill="none" stroke="#63b8ff" d="M565.48,-507.46C482.43,-496.54 324.61,-475.78 252.99,-466.37"/>
<polygon fill="#63b8ff" stroke="#63b8ff" points="253.44,-462.89 243.07,-465.06 252.53,-469.83 253.44,-462.89"/>
</a>
</g>
</g>
<!-- Node35 -->
<g id="Node000035" class="node">
<title>Node35</title>
<g id="a_Node000035"><a xlink:href="sitkProcessObject_8h.html" target="_top" xlink:title=" ">
<polygon fill="white" stroke="#666666" points="590.5,-470 477.5,-470 477.5,-451 590.5,-451 590.5,-470"/>
<text text-anchor="middle" x="534" y="-458" font-family="Helvetica,sans-Serif" font-size="10.00">sitkProcessObject.h</text>
</a>
</g>
</g>
<!-- Node1&#45;&gt;Node35 -->
<g id="edge57_Node000001_Node000035" class="edge">
<title>Node1&#45;&gt;Node35</title>
<g id="a_edge57_Node000001_Node000035"><a xlink:title=" ">
<path fill="none" stroke="#63b8ff" d="M605.34,-505.98C592.16,-497.77 571.97,-485.18 556.43,-475.49"/>
<polygon fill="#63b8ff" stroke="#63b8ff" points="558.24,-472.49 547.91,-470.17 554.54,-478.43 558.24,-472.49"/>
</a>
</g>
</g>
<!-- Node3 -->
<g id="Node000003" class="node">
<title>Node3</title>
<g id="a_Node000003"><a xlink:href="sitkCommon_8h.html" target="_top" xlink:title=" ">
<polygon fill="white" stroke="#666666" points="607,-129 519,-129 519,-110 607,-110 607,-129"/>
<text text-anchor="middle" x="563" y="-117" font-family="Helvetica,sans-Serif" font-size="10.00">sitkCommon.h</text>
</a>
</g>
</g>
<!-- Node2&#45;&gt;Node3 -->
<g id="edge2_Node000002_Node000003" class="edge">
<title>Node2&#45;&gt;Node3</title>
<g id="a_edge2_Node000002_Node000003"><a xlink:title=" ">
<path fill="none" stroke="#63b8ff" d="M544.72,-340.8C547.5,-307.29 557.56,-186.08 561.45,-139.2"/>
<polygon fill="#63b8ff" stroke="#63b8ff" points="564.94,-139.46 562.28,-129.21 557.96,-138.88 564.94,-139.46"/>
</a>
</g>
</g>
<!-- Node11 -->
<g id="Node000011" class="node">
<title>Node11</title>
<g id="a_Node000011"><a xlink:href="sitkTemplateFunctions_8h.html" target="_top" xlink:title=" ">
<polygon fill="white" stroke="#666666" points="397.5,-244.5 262.5,-244.5 262.5,-225.5 397.5,-225.5 397.5,-244.5"/>
<text text-anchor="middle" x="330" y="-232.5" font-family="Helvetica,sans-Serif" font-size="10.00">sitkTemplateFunctions.h</text>
</a>
</g>
</g>
<!-- Node2&#45;&gt;Node11 -->
<g id="edge10_Node000002_Node000011" class="edge">
<title>Node2&#45;&gt;Node11</title>
<g id="a_edge10_Node000002_Node000011"><a xlink:title=" ">
<path fill="none" stroke="#63b8ff" d="M527.92,-340.97C490.97,-321.37 399.8,-273.02 355.28,-249.41"/>
<polygon fill="#63b8ff" stroke="#63b8ff" points="356.75,-246.22 346.27,-244.63 353.47,-252.41 356.75,-246.22"/>
</a>
</g>
</g>
<!-- Node13 -->
<g id="Node000013" class="node">
<title>Node13</title>
<g id="a_Node000013"><a xlink:title=" ">
<polygon fill="#e0e0e0" stroke="#999999" points="161,-129 103,-129 103,-110 161,-110 161,-129"/>
<text text-anchor="middle" x="132" y="-117" font-family="Helvetica,sans-Serif" font-size="10.00">memory</text>
</a>
</g>
</g>
<!-- Node2&#45;&gt;Node13 -->
<g id="edge51_Node000002_Node000013" class="edge">
<title>Node2&#45;&gt;Node13</title>
<g id="a_edge51_Node000002_Node000013"><a xlink:title=" ">
<path fill="none" stroke="#63b8ff" d="M506.79,-343.1C401.4,-324.08 105.35,-264.2 57,-184 43.88,-162.23 71.42,-144.3 96.75,-133.1"/>
<polygon fill="#63b8ff" stroke="#63b8ff" points="98.37,-136.22 106.26,-129.15 95.68,-129.76 98.37,-136.22"/>
</a>
</g>
</g>
<!-- Node14 -->
<g id="Node000014" class="node">
<title>Node14</title>
<g id="a_Node000014"><a xlink:title=" ">
<polygon fill="#e0e0e0" stroke="#999999" points="113.5,-184 66.5,-184 66.5,-165 113.5,-165 113.5,-184"/>
<text text-anchor="middle" x="90" y="-172" font-family="Helvetica,sans-Serif" font-size="10.00">vector</text>
</a>
</g>
</g>
<!-- Node2&#45;&gt;Node14 -->
<g id="edge50_Node000002_Node000014" class="edge">
<title>Node2&#45;&gt;Node14</title>
<g id="a_edge50_Node000002_Node000014"><a xlink:title=" ">
<path fill="none" stroke="#63b8ff" d="M515.98,-340.94C463.7,-324.74 347.99,-287.84 253,-250 204.01,-230.49 148.45,-204.16 116.49,-188.59"/>
<polygon fill="#63b8ff" stroke="#63b8ff" points="117.88,-185.38 107.36,-184.13 114.81,-191.67 117.88,-185.38"/>
</a>
</g>
</g>
<!-- Node17 -->
<g id="Node000017" class="node">
<title>Node17</title>
<g id="a_Node000017"><a xlink:href="sitkDetail_8h.html" target="_top" xlink:title=" ">
<polygon fill="white" stroke="#666666" points="939.5,-305 866.5,-305 866.5,-286 939.5,-286 939.5,-305"/>
<text text-anchor="middle" x="903" y="-293" font-family="Helvetica,sans-Serif" font-size="10.00">sitkDetail.h</text>
</a>
</g>
</g>
<!-- Node2&#45;&gt;Node17 -->
<g id="edge20_Node000002_Node000017" class="edge">
<title>Node2&#45;&gt;Node17</title>
<g id="a_edge20_Node000002_Node000017"><a xlink:title=" ">
<path fill="none" stroke="#63b8ff" d="M581.18,-344.72C638.1,-337.3 750.53,-322.19 856.46,-305.02"/>
<polygon fill="#63b8ff" stroke="#63b8ff" points="857.06,-308.47 866.37,-303.41 855.93,-301.57 857.06,-308.47"/>
</a>
</g>
</g>
<!-- Node28 -->
<g id="Node000028" class="node">
<title>Node28</title>
<g id="a_Node000028"><a xlink:href="sitkPixelIDTokens_8h.html" target="_top" xlink:title=" ">
<polygon fill="white" stroke="#666666" points="848,-305 738,-305 738,-286 848,-286 848,-305"/>
<text text-anchor="middle" x="793" y="-293" font-family="Helvetica,sans-Serif" font-size="10.00">sitkPixelIDTokens.h</text>
</a>
</g>
</g>
<!-- Node2&#45;&gt;Node28 -->
<g id="edge39_Node000002_Node000028" class="edge">
<title>Node2&#45;&gt;Node28</title>
<g id="a_edge39_Node000002_Node000028"><a xlink:title=" ">
<path fill="none" stroke="#63b8ff" d="M581.01,-341.62C624.01,-332.47 695.17,-317.32 743.05,-307.13"/>
<polygon fill="#63b8ff" stroke="#63b8ff" points="743.84,-310.54 752.9,-305.04 742.39,-303.69 743.84,-310.54"/>
</a>
</g>
</g>
<!-- Node31 -->
<g id="Node000031" class="node">
<title>Node31</title>
<g id="a_Node000031"><a xlink:title=" ">
<polygon fill="#e0e0e0" stroke="#999999" points="769.5,-244.5 700.5,-244.5 700.5,-225.5 769.5,-225.5 769.5,-244.5"/>
<text text-anchor="middle" x="735" y="-232.5" font-family="Helvetica,sans-Serif" font-size="10.00">type_traits</text>
</a>
</g>
</g>
<!-- Node2&#45;&gt;Node31 -->
<g id="edge52_Node000002_Node000031" class="edge">
<title>Node2&#45;&gt;Node31</title>
<g id="a_edge52_Node000002_Node000031"><a xlink:title=" ">
<path fill="none" stroke="#63b8ff" d="M581.06,-344.59C611.58,-339.07 654.76,-327.71 686,-305 704.33,-291.68 718.36,-269.37 726.61,-253.73"/>
<polygon fill="#63b8ff" stroke="#63b8ff" points="729.85,-255.09 731.19,-244.58 723.59,-251.96 729.85,-255.09"/>
</a>
</g>
</g>
<!-- Node32 -->
<g id="Node000032" class="node">
<title>Node32</title>
<g id="a_Node000032"><a xlink:href="sitkInterpolator_8h.html" target="_top" xlink:title=" ">
<polygon fill="white" stroke="#666666" points="516,-244.5 416,-244.5 416,-225.5 516,-225.5 516,-244.5"/>
<text text-anchor="middle" x="466" y="-232.5" font-family="Helvetica,sans-Serif" font-size="10.00">sitkInterpolator.h</text>
</a>
</g>
</g>
<!-- Node2&#45;&gt;Node32 -->
<g id="edge47_Node000002_Node000032" class="edge">
<title>Node2&#45;&gt;Node32</title>
<g id="a_edge47_Node000002_Node000032"><a xlink:title=" ">
<path fill="none" stroke="#63b8ff" d="M538.14,-340.97C525.32,-322.32 494.6,-277.61 477.68,-252.99"/>
<polygon fill="#63b8ff" stroke="#63b8ff" points="480.48,-250.89 471.93,-244.63 474.71,-254.85 480.48,-250.89"/>
</a>
</g>
</g>
<!-- Node4 -->
<g id="Node000004" class="node">
<title>Node4</title>
<g id="a_Node000004"><a xlink:href="sitkMacro_8h.html" target="_top" xlink:title=" ">
<polygon fill="white" stroke="#666666" points="600,-74 526,-74 526,-55 600,-55 600,-74"/>
<text text-anchor="middle" x="563" y="-62" font-family="Helvetica,sans-Serif" font-size="10.00">sitkMacro.h</text>
</a>
</g>
</g>
<!-- Node3&#45;&gt;Node4 -->
<g id="edge3_Node000003_Node000004" class="edge">
<title>Node3&#45;&gt;Node4</title>
<g id="a_edge3_Node000003_Node000004"><a xlink:title=" ">
<path fill="none" stroke="#63b8ff" d="M563,-109.75C563,-102.8 563,-92.85 563,-84.13"/>
<polygon fill="#63b8ff" stroke="#63b8ff" points="566.5,-84.09 563,-74.09 559.5,-84.09 566.5,-84.09"/>
</a>
</g>
</g>
<!-- Node5 -->
<g id="Node000005" class="node">
<title>Node5</title>
<g id="a_Node000005"><a xlink:title=" ">
<polygon fill="#e0e0e0" stroke="#999999" points="1202.5,-19 1149.5,-19 1149.5,0 1202.5,0 1202.5,-19"/>
<text text-anchor="middle" x="1176" y="-7" font-family="Helvetica,sans-Serif" font-size="10.00">stdint.h</text>
</a>
</g>
</g>
<!-- Node4&#45;&gt;Node5 -->
<g id="edge4_Node000004_Node000005" class="edge">
<title>Node4&#45;&gt;Node5</title>
<g id="a_edge4_Node000004_Node000005"><a xlink:title=" ">
<path fill="none" stroke="#63b8ff" d="M600.42,-60.26C710.11,-50.78 1029.92,-23.13 1139.03,-13.7"/>
<polygon fill="#63b8ff" stroke="#63b8ff" points="1139.55,-17.16 1149.21,-12.82 1138.95,-10.19 1139.55,-17.16"/>
</a>
</g>
</g>
<!-- Node6 -->
<g id="Node000006" class="node">
<title>Node6</title>
<g id="a_Node000006"><a xlink:title=" ">
<polygon fill="#e0e0e0" stroke="#999999" points="483,-19 427,-19 427,0 483,0 483,-19"/>
<text text-anchor="middle" x="455" y="-7" font-family="Helvetica,sans-Serif" font-size="10.00">stddef.h</text>
</a>
</g>
</g>
<!-- Node4&#45;&gt;Node6 -->
<g id="edge5_Node000004_Node000006" class="edge">
<title>Node4&#45;&gt;Node6</title>
<g id="a_edge5_Node000004_Node000006"><a xlink:title=" ">
<path fill="none" stroke="#63b8ff" d="M545.65,-54.98C528.43,-46.54 501.8,-33.47 481.85,-23.68"/>
<polygon fill="#63b8ff" stroke="#63b8ff" points="483.19,-20.43 472.67,-19.17 480.1,-26.72 483.19,-20.43"/>
</a>
</g>
</g>
<!-- Node7 -->
<g id="Node000007" class="node">
<title>Node7</title>
<g id="a_Node000007"><a xlink:title=" ">
<polygon fill="#e0e0e0" stroke="#999999" points="553,-19 501,-19 501,0 553,0 553,-19"/>
<text text-anchor="middle" x="527" y="-7" font-family="Helvetica,sans-Serif" font-size="10.00">cassert</text>
</a>
</g>
</g>
<!-- Node4&#45;&gt;Node7 -->
<g id="edge6_Node000004_Node000007" class="edge">
<title>Node4&#45;&gt;Node7</title>
<g id="a_edge6_Node000004_Node000007"><a xlink:title=" ">
<path fill="none" stroke="#63b8ff" d="M557.06,-54.75C552.02,-47.34 544.66,-36.5 538.49,-27.41"/>
<polygon fill="#63b8ff" stroke="#63b8ff" points="541.35,-25.39 532.83,-19.09 535.56,-29.33 541.35,-25.39"/>
</a>
</g>
</g>
<!-- Node8 -->
<g id="Node000008" class="node">
<title>Node8</title>
<g id="a_Node000008"><a xlink:title=" ">
<polygon fill="#e0e0e0" stroke="#999999" points="627,-19 571,-19 571,0 627,0 627,-19"/>
<text text-anchor="middle" x="599" y="-7" font-family="Helvetica,sans-Serif" font-size="10.00">sstream</text>
</a>
</g>
</g>
<!-- Node4&#45;&gt;Node8 -->
<g id="edge7_Node000004_Node000008" class="edge">
<title>Node4&#45;&gt;Node8</title>
<g id="a_edge7_Node000004_Node000008"><a xlink:title=" ">
<path fill="none" stroke="#63b8ff" d="M568.94,-54.75C573.98,-47.34 581.34,-36.5 587.51,-27.41"/>
<polygon fill="#63b8ff" stroke="#63b8ff" points="590.44,-29.33 593.17,-19.09 584.65,-25.39 590.44,-29.33"/>
</a>
</g>
</g>
<!-- Node9 -->
<g id="Node000009" class="node">
<title>Node9</title>
<g id="a_Node000009"><a xlink:title=" ">
<polygon fill="#e0e0e0" stroke="#999999" points="689,-19 645,-19 645,0 689,0 689,-19"/>
<text text-anchor="middle" x="667" y="-7" font-family="Helvetica,sans-Serif" font-size="10.00">limits</text>
</a>
</g>
</g>
<!-- Node4&#45;&gt;Node9 -->
<g id="edge8_Node000004_Node000009" class="edge">
<title>Node4&#45;&gt;Node9</title>
<g id="a_edge8_Node000004_Node000009"><a xlink:title=" ">
<path fill="none" stroke="#63b8ff" d="M579.71,-54.98C596.21,-46.57 621.7,-33.59 640.88,-23.81"/>
<polygon fill="#63b8ff" stroke="#63b8ff" points="642.67,-26.83 649.99,-19.17 639.49,-20.59 642.67,-26.83"/>
</a>
</g>
</g>
<!-- Node10 -->
<g id="Node000010" class="node">
<title>Node10</title>
<g id="a_Node000010"><a xlink:href="sitkConfigure_8h.html" target="_top" xlink:title=" ">
<polygon fill="white" stroke="#666666" points="1434,-19 1344,-19 1344,0 1434,0 1434,-19"/>
<text text-anchor="middle" x="1389" y="-7" font-family="Helvetica,sans-Serif" font-size="10.00">sitkConfigure.h</text>
</a>
</g>
</g>
<!-- Node4&#45;&gt;Node10 -->
<g id="edge9_Node000004_Node000010" class="edge">
<title>Node4&#45;&gt;Node10</title>
<g id="a_edge9_Node000004_Node000010"><a xlink:title=" ">
<path fill="none" stroke="#63b8ff" d="M600.1,-61.12C731.66,-52.68 1176.47,-24.14 1333.52,-14.06"/>
<polygon fill="#63b8ff" stroke="#63b8ff" points="1334.13,-17.53 1343.89,-13.39 1333.68,-10.54 1334.13,-17.53"/>
</a>
</g>
</g>
<!-- Node11&#45;&gt;Node3 -->
<g id="edge12_Node000011_Node000003" class="edge">
<title>Node11&#45;&gt;Node3</title>
<g id="a_edge12_Node000011_Node000003"><a xlink:title=" ">
<path fill="none" stroke="#63b8ff" d="M341.72,-225.47C361.32,-211.47 402.31,-183.38 440,-165 467.27,-151.7 499.57,-140.17 524.23,-132.17"/>
<polygon fill="#63b8ff" stroke="#63b8ff" points="525.49,-135.45 533.96,-129.08 523.36,-128.78 525.49,-135.45"/>
</a>
</g>
</g>
<!-- Node11&#45;&gt;Node4 -->
<g id="edge11_Node000011_Node000004" class="edge">
<title>Node11&#45;&gt;Node4</title>
<g id="a_edge11_Node000011_Node000004"><a xlink:title=" ">
<path fill="none" stroke="#63b8ff" d="M337.9,-225.32C350.64,-211.62 376.81,-184.5 402,-165 447.17,-130.03 505.23,-96.67 537.85,-78.86"/>
<polygon fill="#63b8ff" stroke="#63b8ff" points="539.6,-81.89 546.73,-74.06 536.27,-75.74 539.6,-81.89"/>
</a>
</g>
</g>
<!-- Node12 -->
<g id="Node000012" class="node">
<title>Node12</title>
<g id="a_Node000012"><a xlink:href="sitkExceptionObject_8h.html" target="_top" xlink:title=" ">
<polygon fill="white" stroke="#666666" points="325.5,-184 202.5,-184 202.5,-165 325.5,-165 325.5,-184"/>
<text text-anchor="middle" x="264" y="-172" font-family="Helvetica,sans-Serif" font-size="10.00">sitkExceptionObject.h</text>
</a>
</g>
</g>
<!-- Node11&#45;&gt;Node12 -->
<g id="edge13_Node000011_Node000012" class="edge">
<title>Node11&#45;&gt;Node12</title>
<g id="a_edge13_Node000011_Node000012"><a xlink:title=" ">
<path fill="none" stroke="#63b8ff" d="M320.26,-225.37C310.03,-216.3 293.71,-201.84 281.28,-190.82"/>
<polygon fill="#63b8ff" stroke="#63b8ff" points="283.58,-188.18 273.78,-184.17 278.94,-193.42 283.58,-188.18"/>
</a>
</g>
</g>
<!-- Node11&#45;&gt;Node14 -->
<g id="edge17_Node000011_Node000014" class="edge">
<title>Node11&#45;&gt;Node14</title>
<g id="a_edge17_Node000011_Node000014"><a xlink:title=" ">
<path fill="none" stroke="#63b8ff" d="M293.49,-225.5C253.93,-216.23 188.71,-200.77 123.75,-184.4"/>
<polygon fill="#63b8ff" stroke="#63b8ff" points="124.3,-180.93 113.75,-181.88 122.59,-187.72 124.3,-180.93"/>
</a>
</g>
</g>
<!-- Node15 -->
<g id="Node000015" class="node">
<title>Node15</title>
<g id="a_Node000015"><a xlink:title=" ">
<polygon fill="#e0e0e0" stroke="#999999" points="515.5,-184 458.5,-184 458.5,-165 515.5,-165 515.5,-184"/>
<text text-anchor="middle" x="487" y="-172" font-family="Helvetica,sans-Serif" font-size="10.00">ostream</text>
</a>
</g>
</g>
<!-- Node11&#45;&gt;Node15 -->
<g id="edge18_Node000011_Node000015" class="edge">
<title>Node11&#45;&gt;Node15</title>
<g id="a_edge18_Node000011_Node000015"><a xlink:title=" ">
<path fill="none" stroke="#63b8ff" d="M352.83,-225.49C379.57,-215.53 424.08,-198.95 454.44,-187.63"/>
<polygon fill="#63b8ff" stroke="#63b8ff" points="455.99,-190.79 464.14,-184.02 453.55,-184.23 455.99,-190.79"/>
</a>
</g>
</g>
<!-- Node16 -->
<g id="Node000016" class="node">
<title>Node16</title>
<g id="a_Node000016"><a xlink:title=" ">
<polygon fill="#e0e0e0" stroke="#999999" points="184.5,-184 131.5,-184 131.5,-165 184.5,-165 184.5,-184"/>
<text text-anchor="middle" x="158" y="-172" font-family="Helvetica,sans-Serif" font-size="10.00">iterator</text>
</a>
</g>
</g>
<!-- Node11&#45;&gt;Node16 -->
<g id="edge19_Node000011_Node000016" class="edge">
<title>Node11&#45;&gt;Node16</title>
<g id="a_edge19_Node000011_Node000016"><a xlink:title=" ">
<path fill="none" stroke="#63b8ff" d="M304.99,-225.49C275.44,-215.44 226.09,-198.66 192.81,-187.34"/>
<polygon fill="#63b8ff" stroke="#63b8ff" points="193.63,-183.92 183.04,-184.02 191.38,-190.55 193.63,-183.92"/>
</a>
</g>
</g>
<!-- Node12&#45;&gt;Node3 -->
<g id="edge15_Node000012_Node000003" class="edge">
<title>Node12&#45;&gt;Node3</title>
<g id="a_edge15_Node000012_Node000003"><a xlink:title=" ">
<path fill="none" stroke="#63b8ff" d="M312.04,-164.98C365.81,-155.45 452.74,-140.05 508.87,-130.1"/>
<polygon fill="#63b8ff" stroke="#63b8ff" points="509.74,-133.5 518.98,-128.3 508.52,-126.6 509.74,-133.5"/>
</a>
</g>
</g>
<!-- Node12&#45;&gt;Node4 -->
<g id="edge14_Node000012_Node000004" class="edge">
<title>Node12&#45;&gt;Node4</title>
<g id="a_edge14_Node000012_Node000004"><a xlink:title=" ">
<path fill="none" stroke="#63b8ff" d="M271.47,-164.95C284.11,-151.07 311.15,-123.81 340,-110 396.61,-82.9 468.91,-72.3 515.58,-68.15"/>
<polygon fill="#63b8ff" stroke="#63b8ff" points="516.03,-71.63 525.71,-67.32 515.46,-64.65 516.03,-71.63"/>
</a>
</g>
</g>
<!-- Node12&#45;&gt;Node13 -->
<g id="edge16_Node000012_Node000013" class="edge">
<title>Node12&#45;&gt;Node13</title>
<g id="a_edge16_Node000012_Node000013"><a xlink:title=" ">
<path fill="none" stroke="#63b8ff" d="M242.79,-164.98C221.27,-156.34 187.72,-142.87 163.17,-133.02"/>
<polygon fill="#63b8ff" stroke="#63b8ff" points="164.18,-129.65 153.59,-129.17 161.57,-136.14 164.18,-129.65"/>
</a>
</g>
</g>
<!-- Node18 -->
<g id="Node000018" class="node">
<title>Node18</title>
<g id="a_Node000018"><a xlink:href="sitkMemberFunctionFactoryBase_8h.html" target="_top" xlink:title=" ">
<polygon fill="white" stroke="#666666" points="1192,-250 1040,-250 1040,-220 1192,-220 1192,-250"/>
<text text-anchor="start" x="1048" y="-238" font-family="Helvetica,sans-Serif" font-size="10.00">sitkMemberFunctionFactory</text>
<text text-anchor="middle" x="1116" y="-227" font-family="Helvetica,sans-Serif" font-size="10.00">Base.h</text>
</a>
</g>
</g>
<!-- Node17&#45;&gt;Node18 -->
<g id="edge21_Node000017_Node000018" class="edge">
<title>Node17&#45;&gt;Node18</title>
<g id="a_edge21_Node000017_Node000018"><a xlink:title=" ">
<path fill="none" stroke="#63b8ff" d="M933.97,-285.99C965.56,-277.32 1015.42,-263.62 1054.97,-252.76"/>
<polygon fill="#63b8ff" stroke="#63b8ff" points="1056.08,-256.09 1064.79,-250.06 1054.22,-249.34 1056.08,-256.09"/>
</a>
</g>
</g>
<!-- Node24 -->
<g id="Node000024" class="node">
<title>Node24</title>
<g id="a_Node000024"><a xlink:title=" ">
<polygon fill="#e0e0e0" stroke="#999999" points="976.5,-184 837.5,-184 837.5,-165 976.5,-165 976.5,-184"/>
<text text-anchor="middle" x="907" y="-172" font-family="Helvetica,sans-Serif" font-size="10.00">Ancillary/FunctionTraits.h</text>
</a>
</g>
</g>
<!-- Node17&#45;&gt;Node24 -->
<g id="edge38_Node000017_Node000024" class="edge">
<title>Node17&#45;&gt;Node24</title>
<g id="a_edge38_Node000017_Node000024"><a xlink:title=" ">
<path fill="none" stroke="#63b8ff" d="M903.99,-285.98C904.98,-277.04 906.44,-262.55 907,-250 907.85,-231.05 907.73,-209.37 907.47,-194.3"/>
<polygon fill="#63b8ff" stroke="#63b8ff" points="910.96,-194.15 907.25,-184.22 903.96,-194.29 910.96,-194.15"/>
</a>
</g>
</g>
<!-- Node18&#45;&gt;Node4 -->
<g id="edge30_Node000018_Node000004" class="edge">
<title>Node18&#45;&gt;Node4</title>
<g id="a_edge30_Node000018_Node000004"><a xlink:title=" ">
<path fill="none" stroke="#63b8ff" d="M1183.96,-219.96C1223.34,-208.76 1261.16,-190.67 1239,-165 1197.69,-117.16 756.59,-80.01 610.04,-68.91"/>
<polygon fill="#63b8ff" stroke="#63b8ff" points="610.24,-65.42 600,-68.16 609.71,-72.4 610.24,-65.42"/>
</a>
</g>
</g>
<!-- Node18&#45;&gt;Node10 -->
<g id="edge22_Node000018_Node000010" class="edge">
<title>Node18&#45;&gt;Node10</title>
<g id="a_edge22_Node000018_Node000010"><a xlink:title=" ">
<path fill="none" stroke="#63b8ff" d="M1192.08,-222C1196.79,-221.31 1201.46,-220.64 1206,-220 1333.75,-202.08 1372.56,-227.51 1494,-184 1537.06,-168.57 1558.93,-169.07 1581,-129 1614.08,-68.95 1512.19,-35.62 1444.42,-20.55"/>
<polygon fill="#63b8ff" stroke="#63b8ff" points="1444.78,-17.05 1434.27,-18.37 1443.31,-23.89 1444.78,-17.05"/>
</a>
</g>
</g>
<!-- Node19 -->
<g id="Node000019" class="node">
<title>Node19</title>
<g id="a_Node000019"><a xlink:href="sitkPixelIDTypes_8h.html" target="_top" xlink:title=" ">
<polygon fill="white" stroke="#666666" points="1434.5,-129 1329.5,-129 1329.5,-110 1434.5,-110 1434.5,-129"/>
<text text-anchor="middle" x="1382" y="-117" font-family="Helvetica,sans-Serif" font-size="10.00">sitkPixelIDTypes.h</text>
</a>
</g>
</g>
<!-- Node18&#45;&gt;Node19 -->
<g id="edge23_Node000018_Node000019" class="edge">
<title>Node18&#45;&gt;Node19</title>
<g id="a_edge23_Node000018_Node000019"><a xlink:title=" ">
<path fill="none" stroke="#63b8ff" d="M1192.1,-222.1C1196.8,-221.39 1201.47,-220.68 1206,-220 1261.29,-211.7 1418.4,-226.27 1455,-184 1472.04,-164.32 1441.7,-145.2 1415.1,-133.17"/>
<polygon fill="#63b8ff" stroke="#63b8ff" points="1416.13,-129.8 1405.56,-129.07 1413.37,-136.23 1416.13,-129.8"/>
</a>
</g>
</g>
<!-- Node20 -->
<g id="Node000020" class="node">
<title>Node20</title>
<g id="a_Node000020"><a xlink:href="sitkPixelIDTypeLists_8h.html" target="_top" xlink:title=" ">
<polygon fill="white" stroke="#666666" points="1446,-184 1324,-184 1324,-165 1446,-165 1446,-184"/>
<text text-anchor="middle" x="1385" y="-172" font-family="Helvetica,sans-Serif" font-size="10.00">sitkPixelIDTypeLists.h</text>
</a>
</g>
</g>
<!-- Node18&#45;&gt;Node20 -->
<g id="edge24_Node000018_Node000020" class="edge">
<title>Node18&#45;&gt;Node20</title>
<g id="a_edge24_Node000018_Node000020"><a xlink:title=" ">
<path fill="none" stroke="#63b8ff" d="M1180.43,-219.99C1228.16,-209.61 1292.23,-195.68 1335.86,-186.19"/>
<polygon fill="#63b8ff" stroke="#63b8ff" points="1336.64,-189.6 1345.67,-184.05 1335.15,-182.76 1336.64,-189.6"/>
</a>
</g>
</g>
<!-- Node21 -->
<g id="Node000021" class="node">
<title>Node21</title>
<g id="a_Node000021"><a xlink:title=" ">
<polygon fill="#e0e0e0" stroke="#999999" points="1571.5,-129 1452.5,-129 1452.5,-110 1571.5,-110 1571.5,-129"/>
<text text-anchor="middle" x="1512" y="-117" font-family="Helvetica,sans-Serif" font-size="10.00">Ancillary/type_list2.h</text>
</a>
</g>
</g>
<!-- Node18&#45;&gt;Node21 -->
<g id="edge33_Node000018_Node000021" class="edge">
<title>Node18&#45;&gt;Node21</title>
<g id="a_edge33_Node000018_Node000021"><a xlink:title=" ">
<path fill="none" stroke="#63b8ff" d="M1192.09,-222.06C1196.8,-221.35 1201.46,-220.66 1206,-220 1323.62,-202.86 1370.69,-247.76 1471,-184 1487.58,-173.46 1498.78,-153.54 1505.23,-138.81"/>
<polygon fill="#63b8ff" stroke="#63b8ff" points="1508.61,-139.79 1509.1,-129.21 1502.12,-137.18 1508.61,-139.79"/>
</a>
</g>
</g>
<!-- Node23 -->
<g id="Node000023" class="node">
<title>Node23</title>
<g id="a_Node000023"><a xlink:href="sitkNonCopyable_8h.html" target="_top" xlink:title=" ">
<polygon fill="white" stroke="#666666" points="819.5,-184 710.5,-184 710.5,-165 819.5,-165 819.5,-184"/>
<text text-anchor="middle" x="765" y="-172" font-family="Helvetica,sans-Serif" font-size="10.00">sitkNonCopyable.h</text>
</a>
</g>
</g>
<!-- Node18&#45;&gt;Node23 -->
<g id="edge31_Node000018_Node000023" class="edge">
<title>Node18&#45;&gt;Node23</title>
<g id="a_edge31_Node000018_Node000023"><a xlink:title=" ">
<path fill="none" stroke="#63b8ff" d="M1039.84,-221.31C975.8,-210.63 885.44,-195.57 826.07,-185.68"/>
<polygon fill="#63b8ff" stroke="#63b8ff" points="826.52,-182.21 816.09,-184.01 825.37,-189.11 826.52,-182.21"/>
</a>
</g>
</g>
<!-- Node18&#45;&gt;Node24 -->
<g id="edge34_Node000018_Node000024" class="edge">
<title>Node18&#45;&gt;Node24</title>
<g id="a_edge34_Node000018_Node000024"><a xlink:title=" ">
<path fill="none" stroke="#63b8ff" d="M1065.94,-219.99C1029.71,-209.85 981.38,-196.32 947.56,-186.85"/>
<polygon fill="#63b8ff" stroke="#63b8ff" points="948.13,-183.38 937.56,-184.05 946.25,-190.12 948.13,-183.38"/>
</a>
</g>
</g>
<!-- Node25 -->
<g id="Node000025" class="node">
<title>Node25</title>
<g id="a_Node000025"><a xlink:title=" ">
<polygon fill="#e0e0e0" stroke="#999999" points="1087.5,-184 994.5,-184 994.5,-165 1087.5,-165 1087.5,-184"/>
<text text-anchor="middle" x="1041" y="-172" font-family="Helvetica,sans-Serif" font-size="10.00">unordered_map</text>
</a>
</g>
</g>
<!-- Node18&#45;&gt;Node25 -->
<g id="edge35_Node000018_Node000025" class="edge">
<title>Node18&#45;&gt;Node25</title>
<g id="a_edge35_Node000018_Node000025"><a xlink:title=" ">
<path fill="none" stroke="#63b8ff" d="M1097.84,-219.84C1086.51,-211 1071.94,-199.63 1060.38,-190.62"/>
<polygon fill="#63b8ff" stroke="#63b8ff" points="1062.28,-187.66 1052.24,-184.27 1057.97,-193.18 1062.28,-187.66"/>
</a>
</g>
</g>
<!-- Node26 -->
<g id="Node000026" class="node">
<title>Node26</title>
<g id="a_Node000026"><a xlink:title=" ">
<polygon fill="#e0e0e0" stroke="#999999" points="1170.5,-184 1105.5,-184 1105.5,-165 1170.5,-165 1170.5,-184"/>
<text text-anchor="middle" x="1138" y="-172" font-family="Helvetica,sans-Serif" font-size="10.00">functional</text>
</a>
</g>
</g>
<!-- Node18&#45;&gt;Node26 -->
<g id="edge36_Node000018_Node000026" class="edge">
<title>Node18&#45;&gt;Node26</title>
<g id="a_edge36_Node000018_Node000026"><a xlink:title=" ">
<path fill="none" stroke="#63b8ff" d="M1121.33,-219.84C1124.26,-212.04 1127.93,-202.27 1131.08,-193.89"/>
<polygon fill="#63b8ff" stroke="#63b8ff" points="1134.46,-194.86 1134.7,-184.27 1127.91,-192.39 1134.46,-194.86"/>
</a>
</g>
</g>
<!-- Node27 -->
<g id="Node000027" class="node">
<title>Node27</title>
<g id="a_Node000027"><a xlink:title=" ">
<polygon fill="#e0e0e0" stroke="#999999" points="1229.5,-184 1188.5,-184 1188.5,-165 1229.5,-165 1229.5,-184"/>
<text text-anchor="middle" x="1209" y="-172" font-family="Helvetica,sans-Serif" font-size="10.00">tuple</text>
</a>
</g>
</g>
<!-- Node18&#45;&gt;Node27 -->
<g id="edge37_Node000018_Node000027" class="edge">
<title>Node18&#45;&gt;Node27</title>
<g id="a_edge37_Node000018_Node000027"><a xlink:title=" ">
<path fill="none" stroke="#63b8ff" d="M1138.51,-219.84C1153.06,-210.68 1171.93,-198.82 1186.49,-189.66"/>
<polygon fill="#63b8ff" stroke="#63b8ff" points="1188.74,-192.38 1195.34,-184.09 1185.01,-186.46 1188.74,-192.38"/>
</a>
</g>
</g>
<!-- Node20&#45;&gt;Node5 -->
<g id="edge25_Node000020_Node000005" class="edge">
<title>Node20&#45;&gt;Node5</title>
<g id="a_edge25_Node000020_Node000005"><a xlink:title=" ">
<path fill="none" stroke="#63b8ff" d="M1369.89,-164.92C1355.22,-156.39 1332.51,-142.63 1314,-129 1267.85,-95.02 1217.78,-49.66 1192.54,-26.14"/>
<polygon fill="#63b8ff" stroke="#63b8ff" points="1194.66,-23.33 1184.97,-19.04 1189.88,-28.44 1194.66,-23.33"/>
</a>
</g>
</g>
<!-- Node20&#45;&gt;Node10 -->
<g id="edge26_Node000020_Node000010" class="edge">
<title>Node20&#45;&gt;Node10</title>
<g id="a_edge26_Node000020_Node000010"><a xlink:title=" ">
<path fill="none" stroke="#63b8ff" d="M1363.21,-164.87C1348.36,-157.69 1329.84,-145.91 1321,-129 1317.09,-121.52 1318.51,-118.07 1321,-110 1331.23,-76.89 1356.69,-44.97 1373.39,-26.56"/>
<polygon fill="#63b8ff" stroke="#63b8ff" points="1376.09,-28.8 1380.36,-19.1 1370.97,-24.02 1376.09,-28.8"/>
</a>
</g>
</g>
<!-- Node20&#45;&gt;Node19 -->
<g id="edge27_Node000020_Node000019" class="edge">
<title>Node20&#45;&gt;Node19</title>
<g id="a_edge27_Node000020_Node000019"><a xlink:title=" ">
<path fill="none" stroke="#63b8ff" d="M1384.5,-164.75C1384.11,-157.8 1383.55,-147.85 1383.05,-139.13"/>
<polygon fill="#63b8ff" stroke="#63b8ff" points="1386.55,-138.88 1382.49,-129.09 1379.56,-139.27 1386.55,-138.88"/>
</a>
</g>
</g>
<!-- Node20&#45;&gt;Node21 -->
<g id="edge28_Node000020_Node000021" class="edge">
<title>Node20&#45;&gt;Node21</title>
<g id="a_edge28_Node000020_Node000021"><a xlink:title=" ">
<path fill="none" stroke="#63b8ff" d="M1405.4,-164.98C1426.02,-156.38 1458.11,-142.99 1481.69,-133.15"/>
<polygon fill="#63b8ff" stroke="#63b8ff" points="1483.34,-136.25 1491.22,-129.17 1480.65,-129.79 1483.34,-136.25"/>
</a>
</g>
</g>
<!-- Node22 -->
<g id="Node000022" class="node">
<title>Node22</title>
<g id="a_Node000022"><a xlink:title=" ">
<polygon fill="#e0e0e0" stroke="#999999" points="1234.5,-129 1175.5,-129 1175.5,-110 1234.5,-110 1234.5,-129"/>
<text text-anchor="middle" x="1205" y="-117" font-family="Helvetica,sans-Serif" font-size="10.00">complex</text>
</a>
</g>
</g>
<!-- Node20&#45;&gt;Node22 -->
<g id="edge29_Node000020_Node000022" class="edge">
<title>Node20&#45;&gt;Node22</title>
<g id="a_edge29_Node000020_Node000022"><a xlink:title=" ">
<path fill="none" stroke="#63b8ff" d="M1356.08,-164.98C1325.73,-156.05 1277.83,-141.94 1244.12,-132.02"/>
<polygon fill="#63b8ff" stroke="#63b8ff" points="1244.73,-128.55 1234.15,-129.08 1242.75,-135.26 1244.73,-128.55"/>
</a>
</g>
</g>
<!-- Node23&#45;&gt;Node3 -->
<g id="edge32_Node000023_Node000003" class="edge">
<title>Node23&#45;&gt;Node3</title>
<g id="a_edge32_Node000023_Node000003"><a xlink:title=" ">
<path fill="none" stroke="#63b8ff" d="M732.55,-164.98C698.04,-155.93 643.34,-141.58 605.44,-131.64"/>
<polygon fill="#63b8ff" stroke="#63b8ff" points="606.27,-128.23 595.71,-129.08 604.49,-135.01 606.27,-128.23"/>
</a>
</g>
</g>
<!-- Node28&#45;&gt;Node10 -->
<g id="edge40_Node000028_Node000010" class="edge">
<title>Node28&#45;&gt;Node10</title>
<g id="a_edge40_Node000028_Node000010"><a xlink:title=" ">
<path fill="none" stroke="#63b8ff" d="M848.31,-287.17C851.59,-286.77 854.84,-286.37 858,-286 1159.76,-250.44 1261.29,-317.99 1534,-184 1567.36,-167.61 1581.62,-162.84 1597,-129 1608.98,-102.63 1573.28,-56.06 1572,-55 1536.2,-25.37 1483.74,-14.92 1444.16,-11.49"/>
<polygon fill="#63b8ff" stroke="#63b8ff" points="1444.37,-8 1434.14,-10.75 1443.85,-14.98 1444.37,-8"/>
</a>
</g>
</g>
<!-- Node29 -->
<g id="Node000029" class="node">
<title>Node29</title>
<g id="a_Node000029"><a xlink:href="sitkPixelIDValues_8h.html" target="_top" xlink:title=" ">
<polygon fill="white" stroke="#666666" points="898,-244.5 788,-244.5 788,-225.5 898,-225.5 898,-244.5"/>
<text text-anchor="middle" x="843" y="-232.5" font-family="Helvetica,sans-Serif" font-size="10.00">sitkPixelIDValues.h</text>
</a>
</g>
</g>
<!-- Node28&#45;&gt;Node29 -->
<g id="edge41_Node000028_Node000029" class="edge">
<title>Node28&#45;&gt;Node29</title>
<g id="a_edge41_Node000028_Node000029"><a xlink:title=" ">
<path fill="none" stroke="#63b8ff" d="M800.38,-285.87C807.91,-277.05 819.79,-263.16 829.09,-252.27"/>
<polygon fill="#63b8ff" stroke="#63b8ff" points="831.76,-254.54 835.59,-244.67 826.43,-250 831.76,-254.54"/>
</a>
</g>
</g>
<!-- Node28&#45;&gt;Node31 -->
<g id="edge46_Node000028_Node000031" class="edge">
<title>Node28&#45;&gt;Node31</title>
<g id="a_edge46_Node000028_Node000031"><a xlink:title=" ">
<path fill="none" stroke="#63b8ff" d="M784.44,-285.87C775.62,-276.97 761.66,-262.89 750.82,-251.95"/>
<polygon fill="#63b8ff" stroke="#63b8ff" points="753.12,-249.3 743.59,-244.67 748.15,-254.23 753.12,-249.3"/>
</a>
</g>
</g>
<!-- Node29&#45;&gt;Node3 -->
<g id="edge42_Node000029_Node000003" class="edge">
<title>Node29&#45;&gt;Node3</title>
<g id="a_edge42_Node000029_Node000003"><a xlink:title=" ">
<path fill="none" stroke="#63b8ff" d="M804.07,-225.46C749.08,-213.24 653.68,-191.43 639,-184 615.18,-171.95 592.3,-151.16 577.98,-136.67"/>
<polygon fill="#63b8ff" stroke="#63b8ff" points="580.41,-134.14 570.95,-129.36 575.36,-138.99 580.41,-134.14"/>
</a>
</g>
</g>
<!-- Node29&#45;&gt;Node15 -->
<g id="edge45_Node000029_Node000015" class="edge">
<title>Node29&#45;&gt;Node15</title>
<g id="a_edge45_Node000029_Node000015"><a xlink:title=" ">
<path fill="none" stroke="#63b8ff" d="M805.86,-225.45C797.07,-223.55 787.72,-221.62 779,-220 688.76,-203.27 581.99,-188.18 525.9,-180.62"/>
<polygon fill="#63b8ff" stroke="#63b8ff" points="526.08,-177.11 515.7,-179.25 525.15,-184.05 526.08,-177.11"/>
</a>
</g>
</g>
<!-- Node29&#45;&gt;Node20 -->
<g id="edge43_Node000029_Node000020" class="edge">
<title>Node29&#45;&gt;Node20</title>
<g id="a_edge43_Node000029_Node000020"><a xlink:title=" ">
<path fill="none" stroke="#63b8ff" d="M898.2,-228.04C997.11,-217.37 1204.38,-195 1313.82,-183.18"/>
<polygon fill="#63b8ff" stroke="#63b8ff" points="1314.21,-186.66 1323.77,-182.11 1313.46,-179.7 1314.21,-186.66"/>
</a>
</g>
</g>
<!-- Node30 -->
<g id="Node000030" class="node">
<title>Node30</title>
<g id="a_Node000030"><a xlink:title=" ">
<polygon fill="#e0e0e0" stroke="#999999" points="692,-184 648,-184 648,-165 692,-165 692,-184"/>
<text text-anchor="middle" x="670" y="-172" font-family="Helvetica,sans-Serif" font-size="10.00">string</text>
</a>
</g>
</g>
<!-- Node29&#45;&gt;Node30 -->
<g id="edge44_Node000029_Node000030" class="edge">
<title>Node29&#45;&gt;Node30</title>
<g id="a_edge44_Node000029_Node000030"><a xlink:title=" ">
<path fill="none" stroke="#63b8ff" d="M817.84,-225.49C787.19,-215.13 735.34,-197.6 701.91,-186.29"/>
<polygon fill="#63b8ff" stroke="#63b8ff" points="702.76,-182.88 692.17,-183 700.52,-189.51 702.76,-182.88"/>
</a>
</g>
</g>
<!-- Node32&#45;&gt;Node3 -->
<g id="edge48_Node000032_Node000003" class="edge">
<title>Node32&#45;&gt;Node3</title>
<g id="a_edge48_Node000032_Node000003"><a xlink:title=" ">
<path fill="none" stroke="#63b8ff" d="M459.68,-225.14C450.58,-211.19 436.19,-183.74 449,-165 462.62,-145.06 486.63,-134.05 509.11,-127.98"/>
<polygon fill="#63b8ff" stroke="#63b8ff" points="510.05,-131.35 518.95,-125.59 508.4,-124.55 510.05,-131.35"/>
</a>
</g>
</g>
<!-- Node32&#45;&gt;Node15 -->
<g id="edge49_Node000032_Node000015" class="edge">
<title>Node32&#45;&gt;Node15</title>
<g id="a_edge49_Node000032_Node000015"><a xlink:title=" ">
<path fill="none" stroke="#63b8ff" d="M469.1,-225.37C472.08,-217.07 476.67,-204.28 480.46,-193.72"/>
<polygon fill="#63b8ff" stroke="#63b8ff" points="483.8,-194.76 483.89,-184.17 477.22,-192.4 483.8,-194.76"/>
</a>
</g>
</g>
<!-- Node33&#45;&gt;Node30 -->
<g id="edge54_Node000033_Node000030" class="edge">
<title>Node33&#45;&gt;Node30</title>
<g id="a_edge54_Node000033_Node000030"><a xlink:title=" ">
<path fill="none" stroke="#63b8ff" d="M1034.02,-340.77C1017.18,-316.94 966.68,-250.53 907,-220 827.46,-179.3 794.61,-202.19 702.34,-183.8"/>
<polygon fill="#63b8ff" stroke="#63b8ff" points="702.83,-180.33 692.32,-181.69 701.38,-187.18 702.83,-180.33"/>
</a>
</g>
</g>
<!-- Node34&#45;&gt;Node4 -->
<g id="edge56_Node000034_Node000004" class="edge">
<title>Node34&#45;&gt;Node4</title>
<g id="a_edge56_Node000034_Node000004"><a xlink:title=" ">
<path fill="none" stroke="#63b8ff" d="M188.64,-458.23C130.52,-453.91 0,-434.93 0,-351.5 0,-351.5 0,-351.5 0,-173.5 0,-123.08 46.54,-127.02 94,-110 170.76,-82.47 412.49,-70.83 515.62,-67.03"/>
<polygon fill="#63b8ff" stroke="#63b8ff" points="515.87,-70.52 525.74,-66.66 515.62,-63.52 515.87,-70.52"/>
</a>
</g>
</g>
<!-- Node35&#45;&gt;Node2 -->
<g id="edge64_Node000035_Node000002" class="edge">
<title>Node35&#45;&gt;Node2</title>
<g id="a_edge64_Node000035_Node000002"><a xlink:title=" ">
<path fill="none" stroke="#63b8ff" d="M534.82,-450.66C536.44,-433.17 540.08,-393.8 542.26,-370.27"/>
<polygon fill="#63b8ff" stroke="#63b8ff" points="545.76,-370.44 543.2,-360.16 538.79,-369.79 545.76,-370.44"/>
</a>
</g>
</g>
<!-- Node35&#45;&gt;Node3 -->
<g id="edge58_Node000035_Node000003" class="edge">
<title>Node35&#45;&gt;Node3</title>
<g id="a_edge58_Node000035_Node000003"><a xlink:title=" ">
<path fill="none" stroke="#63b8ff" d="M569.13,-450.93C603.44,-442.4 657.05,-428.65 703,-415 814.76,-381.81 1110.65,-323.68 1201,-250 1233.07,-223.85 1267.28,-195.21 1239,-165 1196.86,-119.99 770.24,-118.86 617.24,-119.92"/>
<polygon fill="#63b8ff" stroke="#63b8ff" points="617.11,-116.42 607.14,-120 617.16,-123.42 617.11,-116.42"/>
</a>
</g>
</g>
<!-- Node35&#45;&gt;Node11 -->
<g id="edge60_Node000035_Node000011" class="edge">
<title>Node35&#45;&gt;Node11</title>
<g id="a_edge60_Node000035_Node000011"><a xlink:title=" ">
<path fill="none" stroke="#63b8ff" d="M477.1,-452.45C430.73,-445.49 370.33,-433.22 354,-415 313.59,-369.92 320.48,-291 326.32,-254.94"/>
<polygon fill="#63b8ff" stroke="#63b8ff" points="329.81,-255.3 328.11,-244.84 322.91,-254.07 329.81,-255.3"/>
</a>
</g>
</g>
<!-- Node35&#45;&gt;Node23 -->
<g id="edge59_Node000035_Node000023" class="edge">
<title>Node35&#45;&gt;Node23</title>
<g id="a_edge59_Node000035_Node000023"><a xlink:title=" ">
<path fill="none" stroke="#63b8ff" d="M477.46,-455.5C427.04,-449.42 364.42,-434.16 387,-396 455.69,-279.94 540.11,-323.77 653,-250 671.31,-238.04 673.97,-232.38 692,-220 707.96,-209.04 726.61,-197.7 741.06,-189.21"/>
<polygon fill="#63b8ff" stroke="#63b8ff" points="743,-192.13 749.88,-184.07 739.48,-186.08 743,-192.13"/>
</a>
</g>
</g>
<!-- Node36 -->
<g id="Node000036" class="node">
<title>Node36</title>
<g id="a_Node000036"><a xlink:href="sitkEvent_8h.html" target="_top" xlink:title=" ">
<polygon fill="white" stroke="#666666" points="643.5,-244.5 572.5,-244.5 572.5,-225.5 643.5,-225.5 643.5,-244.5"/>
<text text-anchor="middle" x="608" y="-232.5" font-family="Helvetica,sans-Serif" font-size="10.00">sitkEvent.h</text>
</a>
</g>
</g>
<!-- Node35&#45;&gt;Node36 -->
<g id="edge61_Node000035_Node000036" class="edge">
<title>Node35&#45;&gt;Node36</title>
<g id="a_edge61_Node000035_Node000036"><a xlink:title=" ">
<path fill="none" stroke="#63b8ff" d="M590.76,-458.63C623.92,-454.82 663.4,-443.89 685,-415 724.95,-361.58 657.67,-284.25 624.65,-251.54"/>
<polygon fill="#63b8ff" stroke="#63b8ff" points="627.06,-249.01 617.44,-244.57 622.2,-254.04 627.06,-249.01"/>
</a>
</g>
</g>
<!-- Node37 -->
<g id="Node000037" class="node">
<title>Node37</title>
<g id="a_Node000037"><a xlink:href="sitkImageConvert_8h.html" target="_top" xlink:title=" ">
<polygon fill="white" stroke="#666666" points="675.5,-415 562.5,-415 562.5,-396 675.5,-396 675.5,-415"/>
<text text-anchor="middle" x="619" y="-403" font-family="Helvetica,sans-Serif" font-size="10.00">sitkImageConvert.h</text>
</a>
</g>
</g>
<!-- Node35&#45;&gt;Node37 -->
<g id="edge65_Node000035_Node000037" class="edge">
<title>Node35&#45;&gt;Node37</title>
<g id="a_edge65_Node000035_Node000037"><a xlink:title=" ">
<path fill="none" stroke="#63b8ff" d="M547.66,-450.98C560.84,-442.77 581.03,-430.18 596.57,-420.49"/>
<polygon fill="#63b8ff" stroke="#63b8ff" points="598.46,-423.43 605.09,-415.17 594.76,-417.49 598.46,-423.43"/>
</a>
</g>
</g>
<!-- Node38 -->
<g id="Node000038" class="node">
<title>Node38</title>
<g id="a_Node000038"><a xlink:title=" ">
<polygon fill="#e0e0e0" stroke="#999999" points="456,-415 396,-415 396,-396 456,-396 456,-415"/>
<text text-anchor="middle" x="426" y="-403" font-family="Helvetica,sans-Serif" font-size="10.00">iostream</text>
</a>
</g>
</g>
<!-- Node35&#45;&gt;Node38 -->
<g id="edge67_Node000035_Node000038" class="edge">
<title>Node35&#45;&gt;Node38</title>
<g id="a_edge67_Node000035_Node000038"><a xlink:title=" ">
<path fill="none" stroke="#63b8ff" d="M516.65,-450.98C499.43,-442.54 472.8,-429.47 452.85,-419.68"/>
<polygon fill="#63b8ff" stroke="#63b8ff" points="454.19,-416.43 443.67,-415.17 451.1,-422.72 454.19,-416.43"/>
</a>
</g>
</g>
<!-- Node39 -->
<g id="Node000039" class="node">
<title>Node39</title>
<g id="a_Node000039"><a xlink:title=" ">
<polygon fill="#e0e0e0" stroke="#999999" points="506,-415 474,-415 474,-396 506,-396 506,-415"/>
<text text-anchor="middle" x="490" y="-403" font-family="Helvetica,sans-Serif" font-size="10.00">list</text>
</a>
</g>
</g>
<!-- Node35&#45;&gt;Node39 -->
<g id="edge68_Node000035_Node000039" class="edge">
<title>Node35&#45;&gt;Node39</title>
<g id="a_edge68_Node000035_Node000039"><a xlink:title=" ">
<path fill="none" stroke="#63b8ff" d="M526.73,-450.75C520.46,-443.18 511.21,-432.05 503.57,-422.84"/>
<polygon fill="#63b8ff" stroke="#63b8ff" points="506.21,-420.55 497.13,-415.09 500.83,-425.02 506.21,-420.55"/>
</a>
</g>
</g>
<!-- Node36&#45;&gt;Node3 -->
<g id="edge62_Node000036_Node000003" class="edge">
<title>Node36&#45;&gt;Node3</title>
<g id="a_edge62_Node000036_Node000003"><a xlink:title=" ">
<path fill="none" stroke="#63b8ff" d="M604.62,-225.47C597.32,-207.06 579.97,-163.29 570.13,-138.48"/>
<polygon fill="#63b8ff" stroke="#63b8ff" points="573.36,-137.14 566.42,-129.13 566.85,-139.72 573.36,-137.14"/>
</a>
</g>
</g>
<!-- Node36&#45;&gt;Node15 -->
<g id="edge63_Node000036_Node000015" class="edge">
<title>Node36&#45;&gt;Node15</title>
<g id="a_edge63_Node000036_Node000015"><a xlink:title=" ">
<path fill="none" stroke="#63b8ff" d="M590.41,-225.49C570.24,-215.75 536.98,-199.66 513.64,-188.38"/>
<polygon fill="#63b8ff" stroke="#63b8ff" points="515.14,-185.22 504.62,-184.02 512.1,-191.52 515.14,-185.22"/>
</a>
</g>
</g>
<!-- Node37&#45;&gt;Node2 -->
<g id="edge66_Node000037_Node000002" class="edge">
<title>Node37&#45;&gt;Node2</title>
<g id="a_edge66_Node000037_Node000002"><a xlink:title=" ">
<path fill="none" stroke="#63b8ff" d="M606.95,-395.98C595.54,-387.92 578.17,-375.65 564.57,-366.03"/>
<polygon fill="#63b8ff" stroke="#63b8ff" points="566.46,-363.08 556.27,-360.17 562.42,-368.8 566.46,-363.08"/>
</a>
</g>
</g>
</g>
</svg>

<g id="navigator" transform="translate(0 0)" fill="#404254">
  <rect fill="#f2f5e9" fill-opacity="0.5" stroke="#606060" stroke-width=".5" x="0" y="0" width="60" height="60"/>
  <use id="zoomplus" xlink:href="#zoomPlus" x="17" y="9" onmousedown="handleZoom(evt,'in')"/>
  <use id="zoomminus" xlink:href="#zoomMin" x="42" y="9" onmousedown="handleZoom(evt,'out')"/>
  <use id="reset" xlink:href="#resetDef" x="30" y="36" onmousedown="handleReset()"/>
   <use id="arrowup" xlink:href="#arrowUp" x="0" y="0" onmousedown="handlePan(0,-1)"/>
  <use id="arrowright" xlink:href="#arrowRight" x="0" y="0" onmousedown="handlePan(1,0)"/>
  <use id="arrowdown" xlink:href="#arrowDown" x="0" y="0" onmousedown="handlePan(0,1)"/>
  <use id="arrowleft" xlink:href="#arrowLeft" x="0" y="0" onmousedown="handlePan(-1,0)"/>
</g>
<svg viewBox="0 0 15 15" width="100%" height="30px" preserveAspectRatio="xMaxYMin meet">
 <g id="arrow_out" transform="scale(0.3 0.3)">
  <a xlink:href="sitkImageViewer_8h__incl_org.svg" target="_base">
   <rect id="button" ry="5" rx="5" y="6" x="6" height="38" width="38"
        fill="#f2f5e9" fill-opacity="0.5" stroke="#606060" stroke-width="1.0"/>
   <path id="arrow"
     d="M 11.500037,31.436501 C 11.940474,20.09759 22.043105,11.32322 32.158766,21.979434 L 37.068811,17.246167 C 37.068811,17.246167 37.088388,32 37.088388,32 L 22.160133,31.978069 C 22.160133,31.978069 26.997745,27.140456 26.997745,27.140456 C 18.528582,18.264221 13.291696,25.230495 11.500037,31.436501 z"
     style="fill:#404040;"/>
  </a>
 </g>
</svg>

<style type='text/css'>
<![CDATA[
[data-mouse-over-selected='false'] { opacity: 0.7; }
[data-mouse-over-selected='true']  { opacity: 1.0; }
]]>
</style>
<script type="application/ecmascript"><![CDATA[
document.addEventListener('DOMContentLoaded', (event) => {
  highlightEdges();
  highlightAdjacentNodes();
});
]]></script>
</svg>
