<?xml version="1.0" encoding="UTF-8" standalone="no"?>
<!DOCTYPE svg PUBLIC "-//W3C//DTD SVG 1.1//EN"
 "http://www.w3.org/Graphics/SVG/1.1/DTD/svg11.dtd">
<!-- Generated by graphviz version 2.43.0 (0)
 -->
<!-- Title: sitkElastixImageFilterImpl.h Pages: 1 -->
<svg width="1872pt" height="478pt"
 viewBox="0.00 0.00 1872.00 478.00" xmlns="http://www.w3.org/2000/svg" xmlns:xlink="http://www.w3.org/1999/xlink">
<g id="graph0" class="graph" transform="scale(1 1) rotate(0) translate(4 474)">
<title>sitkElastixImageFilterImpl.h</title>
<!-- Node1 -->
<g id="Node000001" class="node">
<title>Node1</title>
<g id="a_Node000001"><a xlink:title=" ">
<polygon fill="#999999" stroke="#666666" points="1406.5,-470 1252.5,-470 1252.5,-451 1406.5,-451 1406.5,-470"/>
<text text-anchor="middle" x="1329.5" y="-458" font-family="Helvetica,sans-Serif" font-size="10.00">sitkElastixImageFilterImpl.h</text>
</a>
</g>
</g>
<!-- Node2 -->
<g id="Node000002" class="node">
<title>Node2</title>
<g id="a_Node000002"><a xlink:href="sitkElastixImageFilter_8h.html" target="_top" xlink:title=" ">
<polygon fill="white" stroke="#666666" points="839,-415 708,-415 708,-396 839,-396 839,-415"/>
<text text-anchor="middle" x="773.5" y="-403" font-family="Helvetica,sans-Serif" font-size="10.00">sitkElastixImageFilter.h</text>
</a>
</g>
</g>
<!-- Node1&#45;&gt;Node2 -->
<g id="edge1_Node000001_Node000002" class="edge">
<title>Node1&#45;&gt;Node2</title>
<g id="a_edge1_Node000001_Node000002"><a xlink:title=" ">
<path fill="none" stroke="#63b8ff" d="M1252.48,-452.16C1146.05,-442.01 955.18,-423.82 849.36,-413.73"/>
<polygon fill="#63b8ff" stroke="#63b8ff" points="849.68,-410.25 839.39,-412.78 849.02,-417.21 849.68,-410.25"/>
</a>
</g>
</g>
<!-- Node36 -->
<g id="Node000036" class="node">
<title>Node36</title>
<g id="a_Node000036"><a xlink:href="sitkMemberFunctionFactory_8h.html" target="_top" xlink:title=" ">
<polygon fill="white" stroke="#666666" points="1371,-360 1212,-360 1212,-341 1371,-341 1371,-360"/>
<text text-anchor="middle" x="1291.5" y="-348" font-family="Helvetica,sans-Serif" font-size="10.00">sitkMemberFunctionFactory.h</text>
</a>
</g>
</g>
<!-- Node1&#45;&gt;Node36 -->
<g id="edge61_Node000001_Node000036" class="edge">
<title>Node1&#45;&gt;Node36</title>
<g id="a_edge61_Node000001_Node000036"><a xlink:title=" ">
<path fill="none" stroke="#63b8ff" d="M1326.39,-450.66C1320.18,-433.01 1306.13,-393.09 1297.88,-369.64"/>
<polygon fill="#63b8ff" stroke="#63b8ff" points="1301.17,-368.43 1294.55,-360.16 1294.56,-370.75 1301.17,-368.43"/>
</a>
</g>
</g>
<!-- Node38 -->
<g id="Node000038" class="node">
<title>Node38</title>
<g id="a_Node000038"><a xlink:href="sitkDualMemberFunctionFactory_8h.html" target="_top" xlink:title=" ">
<polygon fill="white" stroke="#666666" points="1598.5,-360 1416.5,-360 1416.5,-341 1598.5,-341 1598.5,-360"/>
<text text-anchor="middle" x="1507.5" y="-348" font-family="Helvetica,sans-Serif" font-size="10.00">sitkDualMemberFunctionFactory.h</text>
</a>
</g>
</g>
<!-- Node1&#45;&gt;Node38 -->
<g id="edge66_Node000001_Node000038" class="edge">
<title>Node1&#45;&gt;Node38</title>
<g id="a_edge66_Node000001_Node000038"><a xlink:title=" ">
<path fill="none" stroke="#63b8ff" d="M1329.58,-450.78C1330.19,-437.15 1333.4,-410.84 1348.5,-396 1364.98,-379.81 1386.83,-369.41 1409.05,-362.75"/>
<polygon fill="#63b8ff" stroke="#63b8ff" points="1410.21,-366.06 1418.92,-360.03 1408.35,-359.31 1410.21,-366.06"/>
</a>
</g>
</g>
<!-- Node40 -->
<g id="Node000040" class="node">
<title>Node40</title>
<g id="a_Node000040"><a xlink:title=" ">
<polygon fill="#e0e0e0" stroke="#999999" points="1524,-415 1357,-415 1357,-396 1524,-396 1524,-415"/>
<text text-anchor="middle" x="1440.5" y="-403" font-family="Helvetica,sans-Serif" font-size="10.00">itkElastixRegistrationMethod.h</text>
</a>
</g>
</g>
<!-- Node1&#45;&gt;Node40 -->
<g id="edge70_Node000001_Node000040" class="edge">
<title>Node1&#45;&gt;Node40</title>
<g id="a_edge70_Node000001_Node000040"><a xlink:title=" ">
<path fill="none" stroke="#63b8ff" d="M1347.33,-450.98C1365.11,-442.5 1392.65,-429.35 1413.18,-419.54"/>
<polygon fill="#63b8ff" stroke="#63b8ff" points="1414.83,-422.64 1422.34,-415.17 1411.81,-416.32 1414.83,-422.64"/>
</a>
</g>
</g>
<!-- Node41 -->
<g id="Node000041" class="node">
<title>Node41</title>
<g id="a_Node000041"><a xlink:title=" ">
<polygon fill="#e0e0e0" stroke="#999999" points="1664.5,-415 1542.5,-415 1542.5,-396 1664.5,-396 1664.5,-415"/>
<text text-anchor="middle" x="1603.5" y="-403" font-family="Helvetica,sans-Serif" font-size="10.00">elxParameterObject.h</text>
</a>
</g>
</g>
<!-- Node1&#45;&gt;Node41 -->
<g id="edge71_Node000001_Node000041" class="edge">
<title>Node1&#45;&gt;Node41</title>
<g id="a_edge71_Node000001_Node000041"><a xlink:title=" ">
<path fill="none" stroke="#63b8ff" d="M1373.52,-450.98C1421.32,-441.74 1497.7,-426.97 1549.18,-417.01"/>
<polygon fill="#63b8ff" stroke="#63b8ff" points="1549.98,-420.42 1559.13,-415.08 1548.65,-413.54 1549.98,-420.42"/>
</a>
</g>
</g>
<!-- Node3 -->
<g id="Node000003" class="node">
<title>Node3</title>
<g id="a_Node000003"><a xlink:href="sitkElastixTransformixWrappers_8h.html" target="_top" xlink:title=" ">
<polygon fill="white" stroke="#666666" points="181,-129 0,-129 0,-110 181,-110 181,-129"/>
<text text-anchor="middle" x="90.5" y="-117" font-family="Helvetica,sans-Serif" font-size="10.00">sitkElastixTransformixWrappers.h</text>
</a>
</g>
</g>
<!-- Node2&#45;&gt;Node3 -->
<g id="edge2_Node000002_Node000003" class="edge">
<title>Node2&#45;&gt;Node3</title>
<g id="a_edge2_Node000002_Node000003"><a xlink:title=" ">
<path fill="none" stroke="#63b8ff" d="M707.71,-400.3C543.83,-388.95 130.5,-354.58 130.5,-296.5 130.5,-296.5 130.5,-296.5 130.5,-234 130.5,-198.31 112.69,-159.71 100.84,-137.98"/>
<polygon fill="#63b8ff" stroke="#63b8ff" points="103.87,-136.23 95.89,-129.25 97.78,-139.68 103.87,-136.23"/>
</a>
</g>
</g>
<!-- Node11 -->
<g id="Node000011" class="node">
<title>Node11</title>
<g id="a_Node000011"><a xlink:href="sitkCommon_8h.html" target="_top" xlink:title=" ">
<polygon fill="white" stroke="#666666" points="840.5,-129 752.5,-129 752.5,-110 840.5,-110 840.5,-129"/>
<text text-anchor="middle" x="796.5" y="-117" font-family="Helvetica,sans-Serif" font-size="10.00">sitkCommon.h</text>
</a>
</g>
</g>
<!-- Node2&#45;&gt;Node11 -->
<g id="edge10_Node000002_Node000011" class="edge">
<title>Node2&#45;&gt;Node11</title>
<g id="a_edge10_Node000002_Node000011"><a xlink:title=" ">
<path fill="none" stroke="#63b8ff" d="M805.68,-395.91C845.53,-383.36 911.65,-355.76 940.5,-305 980.19,-235.16 872.7,-163.16 821.68,-133.98"/>
<polygon fill="#63b8ff" stroke="#63b8ff" points="823.3,-130.88 812.86,-129.04 819.88,-136.98 823.3,-130.88"/>
</a>
</g>
</g>
<!-- Node12 -->
<g id="Node000012" class="node">
<title>Node12</title>
<g id="a_Node000012"><a xlink:href="sitkImage_8h.html" target="_top" xlink:title=" ">
<polygon fill="white" stroke="#666666" points="773.5,-360 699.5,-360 699.5,-341 773.5,-341 773.5,-360"/>
<text text-anchor="middle" x="736.5" y="-348" font-family="Helvetica,sans-Serif" font-size="10.00">sitkImage.h</text>
</a>
</g>
</g>
<!-- Node2&#45;&gt;Node12 -->
<g id="edge12_Node000002_Node000012" class="edge">
<title>Node2&#45;&gt;Node12</title>
<g id="a_edge12_Node000002_Node000012"><a xlink:title=" ">
<path fill="none" stroke="#63b8ff" d="M767.39,-395.75C762.22,-388.34 754.65,-377.5 748.31,-368.41"/>
<polygon fill="#63b8ff" stroke="#63b8ff" points="751.09,-366.29 742.5,-360.09 745.35,-370.29 751.09,-366.29"/>
</a>
</g>
</g>
<!-- Node15 -->
<g id="Node000015" class="node">
<title>Node15</title>
<g id="a_Node000015"><a xlink:title=" ">
<polygon fill="#e0e0e0" stroke="#999999" points="631.5,-184 573.5,-184 573.5,-165 631.5,-165 631.5,-184"/>
<text text-anchor="middle" x="602.5" y="-172" font-family="Helvetica,sans-Serif" font-size="10.00">memory</text>
</a>
</g>
</g>
<!-- Node2&#45;&gt;Node15 -->
<g id="edge58_Node000002_Node000015" class="edge">
<title>Node2&#45;&gt;Node15</title>
<g id="a_edge58_Node000002_Node000015"><a xlink:title=" ">
<path fill="none" stroke="#63b8ff" d="M749.27,-395.99C731.28,-388.7 707.09,-376.71 690.5,-360 641.99,-311.15 616.46,-230.38 606.95,-194.13"/>
<polygon fill="#63b8ff" stroke="#63b8ff" points="610.24,-192.86 604.41,-184.02 603.45,-194.57 610.24,-192.86"/>
</a>
</g>
</g>
<!-- Node16 -->
<g id="Node000016" class="node">
<title>Node16</title>
<g id="a_Node000016"><a xlink:title=" ">
<polygon fill="#e0e0e0" stroke="#999999" points="574,-244.5 527,-244.5 527,-225.5 574,-225.5 574,-244.5"/>
<text text-anchor="middle" x="550.5" y="-232.5" font-family="Helvetica,sans-Serif" font-size="10.00">vector</text>
</a>
</g>
</g>
<!-- Node2&#45;&gt;Node16 -->
<g id="edge60_Node000002_Node000016" class="edge">
<title>Node2&#45;&gt;Node16</title>
<g id="a_edge60_Node000002_Node000016"><a xlink:title=" ">
<path fill="none" stroke="#63b8ff" d="M709.64,-395.99C663.37,-388.59 606.01,-376.46 588.5,-360 558.94,-332.2 552.17,-282.07 550.75,-254.84"/>
<polygon fill="#63b8ff" stroke="#63b8ff" points="554.24,-254.59 550.42,-244.71 547.24,-254.82 554.24,-254.59"/>
</a>
</g>
</g>
<!-- Node32 -->
<g id="Node000032" class="node">
<title>Node32</title>
<g id="a_Node000032"><a xlink:title=" ">
<polygon fill="#e0e0e0" stroke="#999999" points="1032.5,-184 988.5,-184 988.5,-165 1032.5,-165 1032.5,-184"/>
<text text-anchor="middle" x="1010.5" y="-172" font-family="Helvetica,sans-Serif" font-size="10.00">string</text>
</a>
</g>
</g>
<!-- Node2&#45;&gt;Node32 -->
<g id="edge59_Node000002_Node000032" class="edge">
<title>Node2&#45;&gt;Node32</title>
<g id="a_edge59_Node000002_Node000032"><a xlink:title=" ">
<path fill="none" stroke="#63b8ff" d="M839.01,-398.14C921.97,-385.96 1059.84,-350.79 1107.5,-250 1113.2,-237.95 1114.7,-231.22 1107.5,-220 1099.95,-208.23 1067.57,-194.87 1042.28,-185.88"/>
<polygon fill="#63b8ff" stroke="#63b8ff" points="1043.25,-182.51 1032.65,-182.55 1040.96,-189.13 1043.25,-182.51"/>
</a>
</g>
</g>
<!-- Node35 -->
<g id="Node000035" class="node">
<title>Node35</title>
<g id="a_Node000035"><a xlink:title=" ">
<polygon fill="#e0e0e0" stroke="#999999" points="829.5,-360 791.5,-360 791.5,-341 829.5,-341 829.5,-360"/>
<text text-anchor="middle" x="810.5" y="-348" font-family="Helvetica,sans-Serif" font-size="10.00">map</text>
</a>
</g>
</g>
<!-- Node2&#45;&gt;Node35 -->
<g id="edge57_Node000002_Node000035" class="edge">
<title>Node2&#45;&gt;Node35</title>
<g id="a_edge57_Node000002_Node000035"><a xlink:title=" ">
<path fill="none" stroke="#63b8ff" d="M779.61,-395.75C784.78,-388.34 792.35,-377.5 798.69,-368.41"/>
<polygon fill="#63b8ff" stroke="#63b8ff" points="801.65,-370.29 804.5,-360.09 795.91,-366.29 801.65,-370.29"/>
</a>
</g>
</g>
<!-- Node4 -->
<g id="Node000004" class="node">
<title>Node4</title>
<g id="a_Node000004"><a xlink:href="sitkMacro_8h.html" target="_top" xlink:title=" ">
<polygon fill="white" stroke="#666666" points="833.5,-74 759.5,-74 759.5,-55 833.5,-55 833.5,-74"/>
<text text-anchor="middle" x="796.5" y="-62" font-family="Helvetica,sans-Serif" font-size="10.00">sitkMacro.h</text>
</a>
</g>
</g>
<!-- Node3&#45;&gt;Node4 -->
<g id="edge3_Node000003_Node000004" class="edge">
<title>Node3&#45;&gt;Node4</title>
<g id="a_edge3_Node000003_Node000004"><a xlink:title=" ">
<path fill="none" stroke="#63b8ff" d="M181.27,-111.11C186.09,-110.73 190.85,-110.36 195.5,-110 401.53,-94.03 647.39,-76.22 748.98,-68.91"/>
<polygon fill="#63b8ff" stroke="#63b8ff" points="749.49,-72.38 759.22,-68.17 748.99,-65.4 749.49,-72.38"/>
</a>
</g>
</g>
<!-- Node5 -->
<g id="Node000005" class="node">
<title>Node5</title>
<g id="a_Node000005"><a xlink:title=" ">
<polygon fill="#e0e0e0" stroke="#999999" points="1077,-19 1024,-19 1024,0 1077,0 1077,-19"/>
<text text-anchor="middle" x="1050.5" y="-7" font-family="Helvetica,sans-Serif" font-size="10.00">stdint.h</text>
</a>
</g>
</g>
<!-- Node4&#45;&gt;Node5 -->
<g id="edge4_Node000004_Node000005" class="edge">
<title>Node4&#45;&gt;Node5</title>
<g id="a_edge4_Node000004_Node000005"><a xlink:title=" ">
<path fill="none" stroke="#63b8ff" d="M833.71,-55.74C881.97,-45.66 965.68,-28.2 1013.73,-18.17"/>
<polygon fill="#63b8ff" stroke="#63b8ff" points="1014.63,-21.56 1023.7,-16.09 1013.2,-14.71 1014.63,-21.56"/>
</a>
</g>
</g>
<!-- Node6 -->
<g id="Node000006" class="node">
<title>Node6</title>
<g id="a_Node000006"><a xlink:title=" ">
<polygon fill="#e0e0e0" stroke="#999999" points="858.5,-19 802.5,-19 802.5,0 858.5,0 858.5,-19"/>
<text text-anchor="middle" x="830.5" y="-7" font-family="Helvetica,sans-Serif" font-size="10.00">stddef.h</text>
</a>
</g>
</g>
<!-- Node4&#45;&gt;Node6 -->
<g id="edge5_Node000004_Node000006" class="edge">
<title>Node4&#45;&gt;Node6</title>
<g id="a_edge5_Node000004_Node000006"><a xlink:title=" ">
<path fill="none" stroke="#63b8ff" d="M802.11,-54.75C806.82,-47.42 813.67,-36.73 819.47,-27.7"/>
<polygon fill="#63b8ff" stroke="#63b8ff" points="822.54,-29.4 824.99,-19.09 816.64,-25.62 822.54,-29.4"/>
</a>
</g>
</g>
<!-- Node7 -->
<g id="Node000007" class="node">
<title>Node7</title>
<g id="a_Node000007"><a xlink:title=" ">
<polygon fill="#e0e0e0" stroke="#999999" points="928.5,-19 876.5,-19 876.5,0 928.5,0 928.5,-19"/>
<text text-anchor="middle" x="902.5" y="-7" font-family="Helvetica,sans-Serif" font-size="10.00">cassert</text>
</a>
</g>
</g>
<!-- Node4&#45;&gt;Node7 -->
<g id="edge6_Node000004_Node000007" class="edge">
<title>Node4&#45;&gt;Node7</title>
<g id="a_edge6_Node000004_Node000007"><a xlink:title=" ">
<path fill="none" stroke="#63b8ff" d="M813.53,-54.98C830.43,-46.54 856.56,-33.47 876.14,-23.68"/>
<polygon fill="#63b8ff" stroke="#63b8ff" points="877.78,-26.77 885.16,-19.17 874.65,-20.51 877.78,-26.77"/>
</a>
</g>
</g>
<!-- Node8 -->
<g id="Node000008" class="node">
<title>Node8</title>
<g id="a_Node000008"><a xlink:title=" ">
<polygon fill="#e0e0e0" stroke="#999999" points="722.5,-19 666.5,-19 666.5,0 722.5,0 722.5,-19"/>
<text text-anchor="middle" x="694.5" y="-7" font-family="Helvetica,sans-Serif" font-size="10.00">sstream</text>
</a>
</g>
</g>
<!-- Node4&#45;&gt;Node8 -->
<g id="edge7_Node000004_Node000008" class="edge">
<title>Node4&#45;&gt;Node8</title>
<g id="a_edge7_Node000004_Node000008"><a xlink:title=" ">
<path fill="none" stroke="#63b8ff" d="M780.11,-54.98C763.93,-46.57 738.93,-33.59 720.12,-23.81"/>
<polygon fill="#63b8ff" stroke="#63b8ff" points="721.67,-20.68 711.19,-19.17 718.45,-26.89 721.67,-20.68"/>
</a>
</g>
</g>
<!-- Node9 -->
<g id="Node000009" class="node">
<title>Node9</title>
<g id="a_Node000009"><a xlink:title=" ">
<polygon fill="#e0e0e0" stroke="#999999" points="784.5,-19 740.5,-19 740.5,0 784.5,0 784.5,-19"/>
<text text-anchor="middle" x="762.5" y="-7" font-family="Helvetica,sans-Serif" font-size="10.00">limits</text>
</a>
</g>
</g>
<!-- Node4&#45;&gt;Node9 -->
<g id="edge8_Node000004_Node000009" class="edge">
<title>Node4&#45;&gt;Node9</title>
<g id="a_edge8_Node000004_Node000009"><a xlink:title=" ">
<path fill="none" stroke="#63b8ff" d="M790.89,-54.75C786.18,-47.42 779.33,-36.73 773.53,-27.7"/>
<polygon fill="#63b8ff" stroke="#63b8ff" points="776.36,-25.62 768.01,-19.09 770.46,-29.4 776.36,-25.62"/>
</a>
</g>
</g>
<!-- Node10 -->
<g id="Node000010" class="node">
<title>Node10</title>
<g id="a_Node000010"><a xlink:href="sitkConfigure_8h.html" target="_top" xlink:title=" ">
<polygon fill="white" stroke="#666666" points="1295.5,-19 1205.5,-19 1205.5,0 1295.5,0 1295.5,-19"/>
<text text-anchor="middle" x="1250.5" y="-7" font-family="Helvetica,sans-Serif" font-size="10.00">sitkConfigure.h</text>
</a>
</g>
</g>
<!-- Node4&#45;&gt;Node10 -->
<g id="edge9_Node000004_Node000010" class="edge">
<title>Node4&#45;&gt;Node10</title>
<g id="a_edge9_Node000004_Node000010"><a xlink:title=" ">
<path fill="none" stroke="#63b8ff" d="M833.65,-59.16C913.36,-49.86 1101.15,-27.93 1195.04,-16.97"/>
<polygon fill="#63b8ff" stroke="#63b8ff" points="1195.66,-20.43 1205.19,-15.79 1194.85,-13.47 1195.66,-20.43"/>
</a>
</g>
</g>
<!-- Node11&#45;&gt;Node4 -->
<g id="edge11_Node000011_Node000004" class="edge">
<title>Node11&#45;&gt;Node4</title>
<g id="a_edge11_Node000011_Node000004"><a xlink:title=" ">
<path fill="none" stroke="#63b8ff" d="M796.5,-109.75C796.5,-102.8 796.5,-92.85 796.5,-84.13"/>
<polygon fill="#63b8ff" stroke="#63b8ff" points="800,-84.09 796.5,-74.09 793,-84.09 800,-84.09"/>
</a>
</g>
</g>
<!-- Node12&#45;&gt;Node11 -->
<g id="edge13_Node000012_Node000011" class="edge">
<title>Node12&#45;&gt;Node11</title>
<g id="a_edge13_Node000012_Node000011"><a xlink:title=" ">
<path fill="none" stroke="#63b8ff" d="M740.86,-340.97C749.3,-324.07 767.89,-284.95 777.5,-250 788.1,-211.43 793.11,-164.67 795.2,-139.22"/>
<polygon fill="#63b8ff" stroke="#63b8ff" points="798.7,-139.37 795.97,-129.13 791.72,-138.84 798.7,-139.37"/>
</a>
</g>
</g>
<!-- Node13 -->
<g id="Node000013" class="node">
<title>Node13</title>
<g id="a_Node000013"><a xlink:href="sitkTemplateFunctions_8h.html" target="_top" xlink:title=" ">
<polygon fill="white" stroke="#666666" points="511,-305 376,-305 376,-286 511,-286 511,-305"/>
<text text-anchor="middle" x="443.5" y="-293" font-family="Helvetica,sans-Serif" font-size="10.00">sitkTemplateFunctions.h</text>
</a>
</g>
</g>
<!-- Node12&#45;&gt;Node13 -->
<g id="edge14_Node000012_Node000013" class="edge">
<title>Node12&#45;&gt;Node13</title>
<g id="a_edge14_Node000012_Node000013"><a xlink:title=" ">
<path fill="none" stroke="#63b8ff" d="M699.39,-342.79C649.24,-333.72 559.36,-317.46 500.58,-306.83"/>
<polygon fill="#63b8ff" stroke="#63b8ff" points="501.17,-303.38 490.71,-305.04 499.93,-310.26 501.17,-303.38"/>
</a>
</g>
</g>
<!-- Node12&#45;&gt;Node15 -->
<g id="edge55_Node000012_Node000015" class="edge">
<title>Node12&#45;&gt;Node15</title>
<g id="a_edge55_Node000012_Node000015"><a xlink:title=" ">
<path fill="none" stroke="#63b8ff" d="M729.89,-340.99C716.56,-323.82 685.47,-283.76 659.5,-250 644.37,-230.33 627.05,-207.68 615.52,-192.57"/>
<polygon fill="#63b8ff" stroke="#63b8ff" points="618,-190.06 609.15,-184.23 612.44,-194.3 618,-190.06"/>
</a>
</g>
</g>
<!-- Node12&#45;&gt;Node16 -->
<g id="edge54_Node000012_Node000016" class="edge">
<title>Node12&#45;&gt;Node16</title>
<g id="a_edge54_Node000012_Node000016"><a xlink:title=" ">
<path fill="none" stroke="#63b8ff" d="M722.52,-340.97C690.61,-321.5 612.16,-273.63 573.21,-249.86"/>
<polygon fill="#63b8ff" stroke="#63b8ff" points="575,-246.85 564.64,-244.63 571.36,-252.83 575,-246.85"/>
</a>
</g>
</g>
<!-- Node19 -->
<g id="Node000019" class="node">
<title>Node19</title>
<g id="a_Node000019"><a xlink:href="sitkDetail_8h.html" target="_top" xlink:title=" ">
<polygon fill="white" stroke="#666666" points="1455,-305 1382,-305 1382,-286 1455,-286 1455,-305"/>
<text text-anchor="middle" x="1418.5" y="-293" font-family="Helvetica,sans-Serif" font-size="10.00">sitkDetail.h</text>
</a>
</g>
</g>
<!-- Node12&#45;&gt;Node19 -->
<g id="edge24_Node000012_Node000019" class="edge">
<title>Node12&#45;&gt;Node19</title>
<g id="a_edge24_Node000012_Node000019"><a xlink:title=" ">
<path fill="none" stroke="#63b8ff" d="M773.6,-342.24C776.6,-341.78 779.6,-341.36 782.5,-341 1040.39,-309.44 1110.59,-336.77 1371.56,-305.09"/>
<polygon fill="#63b8ff" stroke="#63b8ff" points="1372.23,-308.53 1381.72,-303.84 1371.37,-301.59 1372.23,-308.53"/>
</a>
</g>
</g>
<!-- Node30 -->
<g id="Node000030" class="node">
<title>Node30</title>
<g id="a_Node000030"><a xlink:href="sitkPixelIDTokens_8h.html" target="_top" xlink:title=" ">
<polygon fill="white" stroke="#666666" points="931.5,-305 821.5,-305 821.5,-286 931.5,-286 931.5,-305"/>
<text text-anchor="middle" x="876.5" y="-293" font-family="Helvetica,sans-Serif" font-size="10.00">sitkPixelIDTokens.h</text>
</a>
</g>
</g>
<!-- Node12&#45;&gt;Node30 -->
<g id="edge43_Node000012_Node000030" class="edge">
<title>Node12&#45;&gt;Node30</title>
<g id="a_edge43_Node000012_Node000030"><a xlink:title=" ">
<path fill="none" stroke="#63b8ff" d="M758.99,-340.98C782.02,-332.27 818.04,-318.63 844.13,-308.75"/>
<polygon fill="#63b8ff" stroke="#63b8ff" points="845.48,-311.98 853.6,-305.17 843.01,-305.44 845.48,-311.98"/>
</a>
</g>
</g>
<!-- Node33 -->
<g id="Node000033" class="node">
<title>Node33</title>
<g id="a_Node000033"><a xlink:title=" ">
<polygon fill="#e0e0e0" stroke="#999999" points="894,-244.5 825,-244.5 825,-225.5 894,-225.5 894,-244.5"/>
<text text-anchor="middle" x="859.5" y="-232.5" font-family="Helvetica,sans-Serif" font-size="10.00">type_traits</text>
</a>
</g>
</g>
<!-- Node12&#45;&gt;Node33 -->
<g id="edge56_Node000012_Node000033" class="edge">
<title>Node12&#45;&gt;Node33</title>
<g id="a_edge56_Node000012_Node000033"><a xlink:title=" ">
<path fill="none" stroke="#63b8ff" d="M745.74,-340.97C766.31,-321.99 816.12,-276.03 842.48,-251.71"/>
<polygon fill="#63b8ff" stroke="#63b8ff" points="845.17,-253.98 850.15,-244.63 840.42,-248.84 845.17,-253.98"/>
</a>
</g>
</g>
<!-- Node34 -->
<g id="Node000034" class="node">
<title>Node34</title>
<g id="a_Node000034"><a xlink:href="sitkInterpolator_8h.html" target="_top" xlink:title=" ">
<polygon fill="white" stroke="#666666" points="768.5,-244.5 668.5,-244.5 668.5,-225.5 768.5,-225.5 768.5,-244.5"/>
<text text-anchor="middle" x="718.5" y="-232.5" font-family="Helvetica,sans-Serif" font-size="10.00">sitkInterpolator.h</text>
</a>
</g>
</g>
<!-- Node12&#45;&gt;Node34 -->
<g id="edge51_Node000012_Node000034" class="edge">
<title>Node12&#45;&gt;Node34</title>
<g id="a_edge51_Node000012_Node000034"><a xlink:title=" ">
<path fill="none" stroke="#63b8ff" d="M735.15,-340.97C732.25,-322.73 725.41,-279.57 721.46,-254.64"/>
<polygon fill="#63b8ff" stroke="#63b8ff" points="724.89,-253.96 719.87,-244.63 717.98,-255.05 724.89,-253.96"/>
</a>
</g>
</g>
<!-- Node13&#45;&gt;Node4 -->
<g id="edge15_Node000013_Node000004" class="edge">
<title>Node13&#45;&gt;Node4</title>
<g id="a_edge15_Node000013_Node000004"><a xlink:title=" ">
<path fill="none" stroke="#63b8ff" d="M375.94,-292.52C312.68,-287.54 231.22,-271.34 255.5,-220 271.97,-185.17 287.76,-181.66 322.5,-165 467.67,-95.39 660.83,-74.25 749,-68.01"/>
<polygon fill="#63b8ff" stroke="#63b8ff" points="749.48,-71.49 759.22,-67.32 749.01,-64.5 749.48,-71.49"/>
</a>
</g>
</g>
<!-- Node13&#45;&gt;Node11 -->
<g id="edge16_Node000013_Node000011" class="edge">
<title>Node13&#45;&gt;Node11</title>
<g id="a_edge16_Node000013_Node000011"><a xlink:title=" ">
<path fill="none" stroke="#63b8ff" d="M375.94,-288.93C312.89,-281.03 233.15,-262.48 266.5,-220 324.64,-145.94 618.6,-126.83 741.92,-122.05"/>
<polygon fill="#63b8ff" stroke="#63b8ff" points="742.39,-125.53 752.26,-121.66 742.13,-118.54 742.39,-125.53"/>
</a>
</g>
</g>
<!-- Node14 -->
<g id="Node000014" class="node">
<title>Node14</title>
<g id="a_Node000014"><a xlink:href="sitkExceptionObject_8h.html" target="_top" xlink:title=" ">
<polygon fill="white" stroke="#666666" points="399,-244.5 276,-244.5 276,-225.5 399,-225.5 399,-244.5"/>
<text text-anchor="middle" x="337.5" y="-232.5" font-family="Helvetica,sans-Serif" font-size="10.00">sitkExceptionObject.h</text>
</a>
</g>
</g>
<!-- Node13&#45;&gt;Node14 -->
<g id="edge17_Node000013_Node000014" class="edge">
<title>Node13&#45;&gt;Node14</title>
<g id="a_edge17_Node000013_Node000014"><a xlink:title=" ">
<path fill="none" stroke="#63b8ff" d="M427.86,-285.87C410.56,-276.32 382.45,-260.81 362.17,-249.62"/>
<polygon fill="#63b8ff" stroke="#63b8ff" points="363.65,-246.43 353.2,-244.67 360.27,-252.56 363.65,-246.43"/>
</a>
</g>
</g>
<!-- Node13&#45;&gt;Node16 -->
<g id="edge21_Node000013_Node000016" class="edge">
<title>Node13&#45;&gt;Node16</title>
<g id="a_edge21_Node000013_Node000016"><a xlink:title=" ">
<path fill="none" stroke="#63b8ff" d="M459.29,-285.87C476.83,-276.28 505.38,-260.67 525.87,-249.47"/>
<polygon fill="#63b8ff" stroke="#63b8ff" points="527.55,-252.54 534.65,-244.67 524.19,-246.39 527.55,-252.54"/>
</a>
</g>
</g>
<!-- Node17 -->
<g id="Node000017" class="node">
<title>Node17</title>
<g id="a_Node000017"><a xlink:title=" ">
<polygon fill="#e0e0e0" stroke="#999999" points="768,-184 711,-184 711,-165 768,-165 768,-184"/>
<text text-anchor="middle" x="739.5" y="-172" font-family="Helvetica,sans-Serif" font-size="10.00">ostream</text>
</a>
</g>
</g>
<!-- Node13&#45;&gt;Node17 -->
<g id="edge22_Node000013_Node000017" class="edge">
<title>Node13&#45;&gt;Node17</title>
<g id="a_edge22_Node000013_Node000017"><a xlink:title=" ">
<path fill="none" stroke="#63b8ff" d="M449.28,-285.97C460.46,-270.19 486.67,-236.57 517.5,-220 548.64,-203.26 645.65,-188.07 700.57,-180.52"/>
<polygon fill="#63b8ff" stroke="#63b8ff" points="701.2,-183.97 710.64,-179.16 700.26,-177.03 701.2,-183.97"/>
</a>
</g>
</g>
<!-- Node18 -->
<g id="Node000018" class="node">
<title>Node18</title>
<g id="a_Node000018"><a xlink:title=" ">
<polygon fill="#e0e0e0" stroke="#999999" points="470,-244.5 417,-244.5 417,-225.5 470,-225.5 470,-244.5"/>
<text text-anchor="middle" x="443.5" y="-232.5" font-family="Helvetica,sans-Serif" font-size="10.00">iterator</text>
</a>
</g>
</g>
<!-- Node13&#45;&gt;Node18 -->
<g id="edge23_Node000013_Node000018" class="edge">
<title>Node13&#45;&gt;Node18</title>
<g id="a_edge23_Node000013_Node000018"><a xlink:title=" ">
<path fill="none" stroke="#63b8ff" d="M443.5,-285.87C443.5,-277.75 443.5,-265.31 443.5,-254.89"/>
<polygon fill="#63b8ff" stroke="#63b8ff" points="447,-254.67 443.5,-244.67 440,-254.67 447,-254.67"/>
</a>
</g>
</g>
<!-- Node14&#45;&gt;Node4 -->
<g id="edge18_Node000014_Node000004" class="edge">
<title>Node14&#45;&gt;Node4</title>
<g id="a_edge18_Node000014_Node000004"><a xlink:title=" ">
<path fill="none" stroke="#63b8ff" d="M355.26,-225.3C383.65,-211.56 441.21,-184.41 491.5,-165 585.32,-128.79 698.52,-94.17 757.09,-76.9"/>
<polygon fill="#63b8ff" stroke="#63b8ff" points="758.08,-80.25 766.69,-74.08 756.11,-73.54 758.08,-80.25"/>
</a>
</g>
</g>
<!-- Node14&#45;&gt;Node11 -->
<g id="edge19_Node000014_Node000011" class="edge">
<title>Node14&#45;&gt;Node11</title>
<g id="a_edge19_Node000014_Node000011"><a xlink:title=" ">
<path fill="none" stroke="#63b8ff" d="M362.45,-225.47C403.99,-211.48 490.12,-183.38 564.5,-165 624.78,-150.1 694.9,-137.26 742.14,-129.26"/>
<polygon fill="#63b8ff" stroke="#63b8ff" points="742.87,-132.68 752.15,-127.57 741.71,-125.78 742.87,-132.68"/>
</a>
</g>
</g>
<!-- Node14&#45;&gt;Node15 -->
<g id="edge20_Node000014_Node000015" class="edge">
<title>Node14&#45;&gt;Node15</title>
<g id="a_edge20_Node000014_Node000015"><a xlink:title=" ">
<path fill="none" stroke="#63b8ff" d="M376.03,-225.49C426.13,-214.44 513.14,-195.23 563.47,-184.12"/>
<polygon fill="#63b8ff" stroke="#63b8ff" points="564.32,-187.51 573.33,-181.94 562.81,-180.68 564.32,-187.51"/>
</a>
</g>
</g>
<!-- Node20 -->
<g id="Node000020" class="node">
<title>Node20</title>
<g id="a_Node000020"><a xlink:href="sitkMemberFunctionFactoryBase_8h.html" target="_top" xlink:title=" ">
<polygon fill="white" stroke="#666666" points="1597.5,-250 1445.5,-250 1445.5,-220 1597.5,-220 1597.5,-250"/>
<text text-anchor="start" x="1453.5" y="-238" font-family="Helvetica,sans-Serif" font-size="10.00">sitkMemberFunctionFactory</text>
<text text-anchor="middle" x="1521.5" y="-227" font-family="Helvetica,sans-Serif" font-size="10.00">Base.h</text>
</a>
</g>
</g>
<!-- Node19&#45;&gt;Node20 -->
<g id="edge25_Node000019_Node000020" class="edge">
<title>Node19&#45;&gt;Node20</title>
<g id="a_edge25_Node000019_Node000020"><a xlink:title=" ">
<path fill="none" stroke="#63b8ff" d="M1433.7,-285.87C1447.8,-277.86 1469.3,-265.65 1487.49,-255.31"/>
<polygon fill="#63b8ff" stroke="#63b8ff" points="1489.68,-258.1 1496.65,-250.11 1486.22,-252.01 1489.68,-258.1"/>
</a>
</g>
</g>
<!-- Node26 -->
<g id="Node000026" class="node">
<title>Node26</title>
<g id="a_Node000026"><a xlink:title=" ">
<polygon fill="#e0e0e0" stroke="#999999" points="1190,-184 1051,-184 1051,-165 1190,-165 1190,-184"/>
<text text-anchor="middle" x="1120.5" y="-172" font-family="Helvetica,sans-Serif" font-size="10.00">Ancillary/FunctionTraits.h</text>
</a>
</g>
</g>
<!-- Node19&#45;&gt;Node26 -->
<g id="edge42_Node000019_Node000026" class="edge">
<title>Node19&#45;&gt;Node26</title>
<g id="a_edge42_Node000019_Node000026"><a xlink:title=" ">
<path fill="none" stroke="#63b8ff" d="M1397.07,-285.94C1345.11,-265.19 1212.26,-212.14 1151.57,-187.91"/>
<polygon fill="#63b8ff" stroke="#63b8ff" points="1152.72,-184.6 1142.14,-184.14 1150.13,-191.1 1152.72,-184.6"/>
</a>
</g>
</g>
<!-- Node20&#45;&gt;Node4 -->
<g id="edge34_Node000020_Node000004" class="edge">
<title>Node20&#45;&gt;Node4</title>
<g id="a_edge34_Node000020_Node000004"><a xlink:title=" ">
<path fill="none" stroke="#63b8ff" d="M1470.59,-219.97C1439.51,-210.87 1399.22,-198.11 1364.5,-184 1347.01,-176.89 1344.4,-171.02 1326.5,-165 1153.95,-106.93 937.73,-79.67 843.74,-69.92"/>
<polygon fill="#63b8ff" stroke="#63b8ff" points="844,-66.43 833.7,-68.9 843.29,-73.39 844,-66.43"/>
</a>
</g>
</g>
<!-- Node20&#45;&gt;Node10 -->
<g id="edge26_Node000020_Node000010" class="edge">
<title>Node20&#45;&gt;Node10</title>
<g id="a_edge26_Node000020_Node000010"><a xlink:title=" ">
<path fill="none" stroke="#63b8ff" d="M1553.56,-219.84C1599.21,-197.71 1673.91,-153 1640.5,-110 1599.61,-57.37 1403.13,-27.93 1305.63,-16.34"/>
<polygon fill="#63b8ff" stroke="#63b8ff" points="1306,-12.86 1295.66,-15.18 1305.18,-19.81 1306,-12.86"/>
</a>
</g>
</g>
<!-- Node21 -->
<g id="Node000021" class="node">
<title>Node21</title>
<g id="a_Node000021"><a xlink:href="sitkPixelIDTypes_8h.html" target="_top" xlink:title=" ">
<polygon fill="white" stroke="#666666" points="1494,-129 1389,-129 1389,-110 1494,-110 1494,-129"/>
<text text-anchor="middle" x="1441.5" y="-117" font-family="Helvetica,sans-Serif" font-size="10.00">sitkPixelIDTypes.h</text>
</a>
</g>
</g>
<!-- Node20&#45;&gt;Node21 -->
<g id="edge27_Node000020_Node000021" class="edge">
<title>Node20&#45;&gt;Node21</title>
<g id="a_edge27_Node000020_Node000021"><a xlink:title=" ">
<path fill="none" stroke="#63b8ff" d="M1540.58,-219.97C1557.43,-205.82 1577.47,-183.49 1564.5,-165 1555.35,-151.96 1519.28,-139.84 1488.55,-131.56"/>
<polygon fill="#63b8ff" stroke="#63b8ff" points="1489.36,-128.15 1478.8,-129.01 1487.58,-134.93 1489.36,-128.15"/>
</a>
</g>
</g>
<!-- Node22 -->
<g id="Node000022" class="node">
<title>Node22</title>
<g id="a_Node000022"><a xlink:href="sitkPixelIDTypeLists_8h.html" target="_top" xlink:title=" ">
<polygon fill="white" stroke="#666666" points="1495.5,-184 1373.5,-184 1373.5,-165 1495.5,-165 1495.5,-184"/>
<text text-anchor="middle" x="1434.5" y="-172" font-family="Helvetica,sans-Serif" font-size="10.00">sitkPixelIDTypeLists.h</text>
</a>
</g>
</g>
<!-- Node20&#45;&gt;Node22 -->
<g id="edge28_Node000020_Node000022" class="edge">
<title>Node20&#45;&gt;Node22</title>
<g id="a_edge28_Node000020_Node000022"><a xlink:title=" ">
<path fill="none" stroke="#63b8ff" d="M1500.44,-219.84C1486.96,-210.77 1469.51,-199.04 1455.95,-189.92"/>
<polygon fill="#63b8ff" stroke="#63b8ff" points="1457.53,-186.77 1447.28,-184.09 1453.63,-192.58 1457.53,-186.77"/>
</a>
</g>
</g>
<!-- Node23 -->
<g id="Node000023" class="node">
<title>Node23</title>
<g id="a_Node000023"><a xlink:title=" ">
<polygon fill="#e0e0e0" stroke="#999999" points="1631,-129 1512,-129 1512,-110 1631,-110 1631,-129"/>
<text text-anchor="middle" x="1571.5" y="-117" font-family="Helvetica,sans-Serif" font-size="10.00">Ancillary/type_list2.h</text>
</a>
</g>
</g>
<!-- Node20&#45;&gt;Node23 -->
<g id="edge37_Node000020_Node000023" class="edge">
<title>Node20&#45;&gt;Node23</title>
<g id="a_edge37_Node000020_Node000023"><a xlink:title=" ">
<path fill="none" stroke="#63b8ff" d="M1557.03,-219.96C1572.39,-211.9 1588.81,-200.13 1597.5,-184 1605.68,-168.83 1596.32,-150.54 1586.62,-137.49"/>
<polygon fill="#63b8ff" stroke="#63b8ff" points="1589.08,-134.97 1580.07,-129.39 1583.64,-139.37 1589.08,-134.97"/>
</a>
</g>
</g>
<!-- Node25 -->
<g id="Node000025" class="node">
<title>Node25</title>
<g id="a_Node000025"><a xlink:href="sitkNonCopyable_8h.html" target="_top" xlink:title=" ">
<polygon fill="white" stroke="#666666" points="1317,-184 1208,-184 1208,-165 1317,-165 1317,-184"/>
<text text-anchor="middle" x="1262.5" y="-172" font-family="Helvetica,sans-Serif" font-size="10.00">sitkNonCopyable.h</text>
</a>
</g>
</g>
<!-- Node20&#45;&gt;Node25 -->
<g id="edge35_Node000020_Node000025" class="edge">
<title>Node20&#45;&gt;Node25</title>
<g id="a_edge35_Node000020_Node000025"><a xlink:title=" ">
<path fill="none" stroke="#63b8ff" d="M1459.46,-219.99C1413.7,-209.65 1352.34,-195.79 1310.34,-186.31"/>
<polygon fill="#63b8ff" stroke="#63b8ff" points="1310.9,-182.84 1300.37,-184.05 1309.35,-189.67 1310.9,-182.84"/>
</a>
</g>
</g>
<!-- Node20&#45;&gt;Node26 -->
<g id="edge38_Node000020_Node000026" class="edge">
<title>Node20&#45;&gt;Node26</title>
<g id="a_edge38_Node000020_Node000026"><a xlink:title=" ">
<path fill="none" stroke="#63b8ff" d="M1445.13,-222.86C1371.27,-212.08 1260.37,-195.91 1189.22,-185.52"/>
<polygon fill="#63b8ff" stroke="#63b8ff" points="1189.42,-182.02 1179.02,-184.04 1188.41,-188.94 1189.42,-182.02"/>
</a>
</g>
</g>
<!-- Node27 -->
<g id="Node000027" class="node">
<title>Node27</title>
<g id="a_Node000027"><a xlink:title=" ">
<polygon fill="#e0e0e0" stroke="#999999" points="1781,-184 1688,-184 1688,-165 1781,-165 1781,-184"/>
<text text-anchor="middle" x="1734.5" y="-172" font-family="Helvetica,sans-Serif" font-size="10.00">unordered_map</text>
</a>
</g>
</g>
<!-- Node20&#45;&gt;Node27 -->
<g id="edge39_Node000020_Node000027" class="edge">
<title>Node20&#45;&gt;Node27</title>
<g id="a_edge39_Node000020_Node000027"><a xlink:title=" ">
<path fill="none" stroke="#63b8ff" d="M1572.52,-219.99C1609.6,-209.8 1659.12,-196.2 1693.61,-186.73"/>
<polygon fill="#63b8ff" stroke="#63b8ff" points="1694.64,-190.08 1703.36,-184.05 1692.79,-183.33 1694.64,-190.08"/>
</a>
</g>
</g>
<!-- Node28 -->
<g id="Node000028" class="node">
<title>Node28</title>
<g id="a_Node000028"><a xlink:title=" ">
<polygon fill="#e0e0e0" stroke="#999999" points="1864,-184 1799,-184 1799,-165 1864,-165 1864,-184"/>
<text text-anchor="middle" x="1831.5" y="-172" font-family="Helvetica,sans-Serif" font-size="10.00">functional</text>
</a>
</g>
</g>
<!-- Node20&#45;&gt;Node28 -->
<g id="edge40_Node000020_Node000028" class="edge">
<title>Node20&#45;&gt;Node28</title>
<g id="a_edge40_Node000020_Node000028"><a xlink:title=" ">
<path fill="none" stroke="#63b8ff" d="M1597.53,-220.3C1649.02,-210.92 1718.87,-198 1788.95,-184.28"/>
<polygon fill="#63b8ff" stroke="#63b8ff" points="1789.7,-187.7 1798.84,-182.33 1788.35,-180.83 1789.7,-187.7"/>
</a>
</g>
</g>
<!-- Node29 -->
<g id="Node000029" class="node">
<title>Node29</title>
<g id="a_Node000029"><a xlink:title=" ">
<polygon fill="#e0e0e0" stroke="#999999" points="1555,-184 1514,-184 1514,-165 1555,-165 1555,-184"/>
<text text-anchor="middle" x="1534.5" y="-172" font-family="Helvetica,sans-Serif" font-size="10.00">tuple</text>
</a>
</g>
</g>
<!-- Node20&#45;&gt;Node29 -->
<g id="edge41_Node000020_Node000029" class="edge">
<title>Node20&#45;&gt;Node29</title>
<g id="a_edge41_Node000020_Node000029"><a xlink:title=" ">
<path fill="none" stroke="#63b8ff" d="M1524.65,-219.84C1526.36,-212.13 1528.5,-202.49 1530.35,-194.17"/>
<polygon fill="#63b8ff" stroke="#63b8ff" points="1533.8,-194.79 1532.55,-184.27 1526.97,-193.27 1533.8,-194.79"/>
</a>
</g>
</g>
<!-- Node22&#45;&gt;Node5 -->
<g id="edge29_Node000022_Node000005" class="edge">
<title>Node22&#45;&gt;Node5</title>
<g id="a_edge29_Node000022_Node000005"><a xlink:title=" ">
<path fill="none" stroke="#63b8ff" d="M1389.5,-164.93C1354.65,-157.54 1305.57,-145.44 1264.5,-129 1190.36,-99.31 1109.66,-49.29 1072.05,-24.83"/>
<polygon fill="#63b8ff" stroke="#63b8ff" points="1073.73,-21.75 1063.45,-19.2 1069.89,-27.6 1073.73,-21.75"/>
</a>
</g>
</g>
<!-- Node22&#45;&gt;Node10 -->
<g id="edge30_Node000022_Node000010" class="edge">
<title>Node22&#45;&gt;Node10</title>
<g id="a_edge30_Node000022_Node000010"><a xlink:title=" ">
<path fill="none" stroke="#63b8ff" d="M1423.61,-164.79C1412.61,-155.93 1395.19,-141.73 1380.5,-129 1339.04,-93.06 1291.73,-49.19 1267.21,-26.23"/>
<polygon fill="#63b8ff" stroke="#63b8ff" points="1269.5,-23.58 1259.82,-19.29 1264.71,-28.68 1269.5,-23.58"/>
</a>
</g>
</g>
<!-- Node22&#45;&gt;Node21 -->
<g id="edge31_Node000022_Node000021" class="edge">
<title>Node22&#45;&gt;Node21</title>
<g id="a_edge31_Node000022_Node000021"><a xlink:title=" ">
<path fill="none" stroke="#63b8ff" d="M1435.66,-164.75C1436.57,-157.8 1437.89,-147.85 1439.04,-139.13"/>
<polygon fill="#63b8ff" stroke="#63b8ff" points="1442.53,-139.46 1440.37,-129.09 1435.59,-138.54 1442.53,-139.46"/>
</a>
</g>
</g>
<!-- Node22&#45;&gt;Node23 -->
<g id="edge32_Node000022_Node000023" class="edge">
<title>Node22&#45;&gt;Node23</title>
<g id="a_edge32_Node000022_Node000023"><a xlink:title=" ">
<path fill="none" stroke="#63b8ff" d="M1456.51,-164.98C1478.95,-156.3 1513.98,-142.75 1539.49,-132.88"/>
<polygon fill="#63b8ff" stroke="#63b8ff" points="1541.02,-136.04 1549.09,-129.17 1538.5,-129.51 1541.02,-136.04"/>
</a>
</g>
</g>
<!-- Node24 -->
<g id="Node000024" class="node">
<title>Node24</title>
<g id="a_Node000024"><a xlink:title=" ">
<polygon fill="#e0e0e0" stroke="#999999" points="1332,-129 1273,-129 1273,-110 1332,-110 1332,-129"/>
<text text-anchor="middle" x="1302.5" y="-117" font-family="Helvetica,sans-Serif" font-size="10.00">complex</text>
</a>
</g>
</g>
<!-- Node22&#45;&gt;Node24 -->
<g id="edge33_Node000022_Node000024" class="edge">
<title>Node22&#45;&gt;Node24</title>
<g id="a_edge33_Node000022_Node000024"><a xlink:title=" ">
<path fill="none" stroke="#63b8ff" d="M1413.29,-164.98C1391.77,-156.34 1358.22,-142.87 1333.67,-133.02"/>
<polygon fill="#63b8ff" stroke="#63b8ff" points="1334.68,-129.65 1324.09,-129.17 1332.07,-136.14 1334.68,-129.65"/>
</a>
</g>
</g>
<!-- Node25&#45;&gt;Node11 -->
<g id="edge36_Node000025_Node000011" class="edge">
<title>Node25&#45;&gt;Node11</title>
<g id="a_edge36_Node000025_Node000011"><a xlink:title=" ">
<path fill="none" stroke="#63b8ff" d="M1207.87,-166.05C1205.04,-165.69 1202.24,-165.34 1199.5,-165 1074.8,-149.7 928.08,-134.11 850.67,-126.06"/>
<polygon fill="#63b8ff" stroke="#63b8ff" points="850.98,-122.58 840.67,-125.02 850.25,-129.54 850.98,-122.58"/>
</a>
</g>
</g>
<!-- Node30&#45;&gt;Node10 -->
<g id="edge44_Node000030_Node000010" class="edge">
<title>Node30&#45;&gt;Node10</title>
<g id="a_edge44_Node000030_Node000010"><a xlink:title=" ">
<path fill="none" stroke="#63b8ff" d="M881.81,-285.69C895.63,-263.31 934.78,-203.32 979.5,-165 1057.15,-98.45 1167.7,-46.02 1220.36,-23.08"/>
<polygon fill="#63b8ff" stroke="#63b8ff" points="1221.99,-26.19 1229.79,-19.02 1219.23,-19.76 1221.99,-26.19"/>
</a>
</g>
</g>
<!-- Node31 -->
<g id="Node000031" class="node">
<title>Node31</title>
<g id="a_Node000031"><a xlink:href="sitkPixelIDValues_8h.html" target="_top" xlink:title=" ">
<polygon fill="white" stroke="#666666" points="1098.5,-244.5 988.5,-244.5 988.5,-225.5 1098.5,-225.5 1098.5,-244.5"/>
<text text-anchor="middle" x="1043.5" y="-232.5" font-family="Helvetica,sans-Serif" font-size="10.00">sitkPixelIDValues.h</text>
</a>
</g>
</g>
<!-- Node30&#45;&gt;Node31 -->
<g id="edge45_Node000030_Node000031" class="edge">
<title>Node30&#45;&gt;Node31</title>
<g id="a_edge45_Node000030_Node000031"><a xlink:title=" ">
<path fill="none" stroke="#63b8ff" d="M900.78,-285.99C929.48,-275.94 977.39,-259.16 1009.7,-247.84"/>
<polygon fill="#63b8ff" stroke="#63b8ff" points="1010.91,-251.13 1019.19,-244.52 1008.59,-244.52 1010.91,-251.13"/>
</a>
</g>
</g>
<!-- Node30&#45;&gt;Node33 -->
<g id="edge50_Node000030_Node000033" class="edge">
<title>Node30&#45;&gt;Node33</title>
<g id="a_edge50_Node000030_Node000033"><a xlink:title=" ">
<path fill="none" stroke="#63b8ff" d="M873.99,-285.87C871.61,-277.66 867.94,-265.04 864.89,-254.55"/>
<polygon fill="#63b8ff" stroke="#63b8ff" points="868.17,-253.29 862.02,-244.67 861.45,-255.25 868.17,-253.29"/>
</a>
</g>
</g>
<!-- Node31&#45;&gt;Node11 -->
<g id="edge46_Node000031_Node000011" class="edge">
<title>Node31&#45;&gt;Node11</title>
<g id="a_edge46_Node000031_Node000011"><a xlink:title=" ">
<path fill="none" stroke="#63b8ff" d="M1025.73,-225.31C998.48,-212.04 944.67,-186.05 898.5,-165 874.18,-153.91 846.35,-141.81 825.91,-133.03"/>
<polygon fill="#63b8ff" stroke="#63b8ff" points="827.09,-129.73 816.52,-129.01 824.33,-136.16 827.09,-129.73"/>
</a>
</g>
</g>
<!-- Node31&#45;&gt;Node17 -->
<g id="edge49_Node000031_Node000017" class="edge">
<title>Node31&#45;&gt;Node17</title>
<g id="a_edge49_Node000031_Node000017"><a xlink:title=" ">
<path fill="none" stroke="#63b8ff" d="M999.3,-225.49C939.77,-214.04 834.79,-193.84 778.21,-182.95"/>
<polygon fill="#63b8ff" stroke="#63b8ff" points="778.72,-179.48 768.24,-181.03 777.39,-186.36 778.72,-179.48"/>
</a>
</g>
</g>
<!-- Node31&#45;&gt;Node22 -->
<g id="edge47_Node000031_Node000022" class="edge">
<title>Node31&#45;&gt;Node22</title>
<g id="a_edge47_Node000031_Node000022"><a xlink:title=" ">
<path fill="none" stroke="#63b8ff" d="M1098.69,-225.74C1169.4,-215.16 1291.88,-196.84 1367.76,-185.49"/>
<polygon fill="#63b8ff" stroke="#63b8ff" points="1368.31,-188.94 1377.69,-184 1367.28,-182.02 1368.31,-188.94"/>
</a>
</g>
</g>
<!-- Node31&#45;&gt;Node32 -->
<g id="edge48_Node000031_Node000032" class="edge">
<title>Node31&#45;&gt;Node32</title>
<g id="a_edge48_Node000031_Node000032"><a xlink:title=" ">
<path fill="none" stroke="#63b8ff" d="M1038.63,-225.37C1033.85,-216.9 1026.43,-203.74 1020.41,-193.07"/>
<polygon fill="#63b8ff" stroke="#63b8ff" points="1023.35,-191.16 1015.39,-184.17 1017.25,-194.6 1023.35,-191.16"/>
</a>
</g>
</g>
<!-- Node34&#45;&gt;Node11 -->
<g id="edge52_Node000034_Node000011" class="edge">
<title>Node34&#45;&gt;Node11</title>
<g id="a_edge52_Node000034_Node000011"><a xlink:title=" ">
<path fill="none" stroke="#63b8ff" d="M712.54,-225.23C703.96,-211.4 690.4,-184.12 702.5,-165 712.35,-149.44 729.27,-139.22 746.06,-132.55"/>
<polygon fill="#63b8ff" stroke="#63b8ff" points="747.66,-135.69 755.88,-129.01 745.29,-129.1 747.66,-135.69"/>
</a>
</g>
</g>
<!-- Node34&#45;&gt;Node17 -->
<g id="edge53_Node000034_Node000017" class="edge">
<title>Node34&#45;&gt;Node17</title>
<g id="a_edge53_Node000034_Node000017"><a xlink:title=" ">
<path fill="none" stroke="#63b8ff" d="M721.6,-225.37C724.58,-217.07 729.17,-204.28 732.96,-193.72"/>
<polygon fill="#63b8ff" stroke="#63b8ff" points="736.3,-194.76 736.39,-184.17 729.72,-192.4 736.3,-194.76"/>
</a>
</g>
</g>
<!-- Node36&#45;&gt;Node19 -->
<g id="edge62_Node000036_Node000019" class="edge">
<title>Node36&#45;&gt;Node19</title>
<g id="a_edge62_Node000036_Node000019"><a xlink:title=" ">
<path fill="none" stroke="#63b8ff" d="M1311.9,-340.98C1332.52,-332.38 1364.61,-318.99 1388.19,-309.15"/>
<polygon fill="#63b8ff" stroke="#63b8ff" points="1389.84,-312.25 1397.72,-305.17 1387.15,-305.79 1389.84,-312.25"/>
</a>
</g>
</g>
<!-- Node36&#45;&gt;Node20 -->
<g id="edge63_Node000036_Node000020" class="edge">
<title>Node36&#45;&gt;Node20</title>
<g id="a_edge63_Node000036_Node000020"><a xlink:title=" ">
<path fill="none" stroke="#63b8ff" d="M1365.45,-340.95C1397.75,-334.67 1434.92,-323.79 1464.5,-305 1482.64,-293.48 1497.81,-274.27 1507.93,-259.04"/>
<polygon fill="#63b8ff" stroke="#63b8ff" points="1511.16,-260.49 1513.56,-250.17 1505.25,-256.74 1511.16,-260.49"/>
</a>
</g>
</g>
<!-- Node36&#45;&gt;Node31 -->
<g id="edge64_Node000036_Node000031" class="edge">
<title>Node36&#45;&gt;Node31</title>
<g id="a_edge64_Node000036_Node000031"><a xlink:title=" ">
<path fill="none" stroke="#63b8ff" d="M1269.61,-340.85C1247.86,-332.15 1213.65,-318.18 1184.5,-305 1143.85,-286.62 1097.53,-263.53 1069.42,-249.27"/>
<polygon fill="#63b8ff" stroke="#63b8ff" points="1070.77,-246.04 1060.27,-244.62 1067.6,-252.27 1070.77,-246.04"/>
</a>
</g>
</g>
<!-- Node37 -->
<g id="Node000037" class="node">
<title>Node37</title>
<g id="a_Node000037"><a xlink:title=" ">
<polygon fill="#e0e0e0" stroke="#999999" points="1364,-305 1193,-305 1193,-286 1364,-286 1364,-305"/>
<text text-anchor="middle" x="1278.5" y="-293" font-family="Helvetica,sans-Serif" font-size="10.00">sitkMemberFunctionFactory.hxx</text>
</a>
</g>
</g>
<!-- Node36&#45;&gt;Node37 -->
<g id="edge65_Node000036_Node000037" class="edge">
<title>Node36&#45;&gt;Node37</title>
<g id="a_edge65_Node000036_Node000037"><a xlink:title=" ">
<path fill="none" stroke="#63b8ff" d="M1289.35,-340.75C1287.63,-333.72 1285.15,-323.62 1283,-314.84"/>
<polygon fill="#63b8ff" stroke="#63b8ff" points="1286.39,-313.97 1280.61,-305.09 1279.59,-315.63 1286.39,-313.97"/>
</a>
</g>
</g>
<!-- Node38&#45;&gt;Node19 -->
<g id="edge67_Node000038_Node000019" class="edge">
<title>Node38&#45;&gt;Node19</title>
<g id="a_edge67_Node000038_Node000019"><a xlink:title=" ">
<path fill="none" stroke="#63b8ff" d="M1493.2,-340.98C1479.4,-332.77 1458.26,-320.18 1441.99,-310.49"/>
<polygon fill="#63b8ff" stroke="#63b8ff" points="1443.44,-307.28 1433.06,-305.17 1439.86,-313.29 1443.44,-307.28"/>
</a>
</g>
</g>
<!-- Node38&#45;&gt;Node20 -->
<g id="edge68_Node000038_Node000020" class="edge">
<title>Node38&#45;&gt;Node20</title>
<g id="a_edge68_Node000038_Node000020"><a xlink:title=" ">
<path fill="none" stroke="#63b8ff" d="M1508.55,-340.97C1510.64,-324.01 1515.39,-285.5 1518.52,-260.14"/>
<polygon fill="#63b8ff" stroke="#63b8ff" points="1522,-260.53 1519.75,-250.18 1515.05,-259.68 1522,-260.53"/>
</a>
</g>
</g>
<!-- Node39 -->
<g id="Node000039" class="node">
<title>Node39</title>
<g id="a_Node000039"><a xlink:title=" ">
<polygon fill="#e0e0e0" stroke="#999999" points="1743.5,-305 1549.5,-305 1549.5,-286 1743.5,-286 1743.5,-305"/>
<text text-anchor="middle" x="1646.5" y="-293" font-family="Helvetica,sans-Serif" font-size="10.00">sitkDualMemberFunctionFactory.hxx</text>
</a>
</g>
</g>
<!-- Node38&#45;&gt;Node39 -->
<g id="edge69_Node000038_Node000039" class="edge">
<title>Node38&#45;&gt;Node39</title>
<g id="a_edge69_Node000038_Node000039"><a xlink:title=" ">
<path fill="none" stroke="#63b8ff" d="M1529.83,-340.98C1552.7,-332.27 1588.46,-318.63 1614.36,-308.75"/>
<polygon fill="#63b8ff" stroke="#63b8ff" points="1615.66,-312 1623.76,-305.17 1613.17,-305.46 1615.66,-312"/>
</a>
</g>
</g>
</g>
</svg>
