<?xml version="1.0" encoding="UTF-8" standalone="no"?>
<!DOCTYPE svg PUBLIC "-//W3C//DTD SVG 1.1//EN"
 "http://www.w3.org/Graphics/SVG/1.1/DTD/svg11.dtd">
<!-- Generated by graphviz version 2.43.0 (0)
 -->
<!-- Title: itk::simple::IsBasic&lt; itk::Image&lt; TPixelType, VImageDimension &gt; &gt; Pages: 1 -->
<svg width="729pt" height="112pt"
 viewBox="0.00 0.00 729.00 112.00" xmlns="http://www.w3.org/2000/svg" xmlns:xlink="http://www.w3.org/1999/xlink">
<g id="graph0" class="graph" transform="scale(1 1) rotate(0) translate(4 108)">
<title>itk::simple::IsBasic&lt; itk::Image&lt; TPixelType, VImageDimension &gt; &gt;</title>
<!-- Node1 -->
<g id="Node000001" class="node">
<title>Node1</title>
<g id="a_Node000001"><a xlink:title=" ">
<polygon fill="#999999" stroke="#666666" points="721,-77.5 578,-77.5 578,-36.5 721,-36.5 721,-77.5"/>
<text text-anchor="start" x="586" y="-65.5" font-family="Helvetica,sans-Serif" font-size="10.00">itk::simple::IsBasic</text>
<text text-anchor="start" x="586" y="-54.5" font-family="Helvetica,sans-Serif" font-size="10.00">&lt; itk::Image&lt; TPixelType,</text>
<text text-anchor="middle" x="649.5" y="-43.5" font-family="Helvetica,sans-Serif" font-size="10.00"> VImageDimension &gt; &gt;</text>
</a>
</g>
</g>
<!-- Node2 -->
<g id="Node000002" class="node">
<title>Node2</title>
<g id="a_Node000002"><a xlink:href="structitk_1_1simple_1_1IsBasic.html" target="_top" xlink:title=" ">
<polygon fill="white" stroke="#666666" points="541,-52 335,-52 335,0 541,0 541,-52"/>
<text text-anchor="start" x="343" y="-40" font-family="Helvetica,sans-Serif" font-size="10.00">itk::simple::IsBasic</text>
<text text-anchor="start" x="343" y="-29" font-family="Helvetica,sans-Serif" font-size="10.00">&lt; ImageTypeToPixelID</text>
<text text-anchor="start" x="343" y="-18" font-family="Helvetica,sans-Serif" font-size="10.00">&lt; itk::Image&lt; TPixelType,</text>
<text text-anchor="middle" x="438" y="-7" font-family="Helvetica,sans-Serif" font-size="10.00"> VImageDimension &gt; &gt;::PixelIDType &gt;</text>
</a>
</g>
</g>
<!-- Node2&#45;&gt;Node1 -->
<g id="edge1_Node000001_Node000002" class="edge">
<title>Node2&#45;&gt;Node1</title>
<g id="a_edge1_Node000001_Node000002"><a xlink:title=" ">
<path fill="none" stroke="#63b8ff" d="M551.43,-42.64C560.39,-43.96 569.28,-45.28 577.82,-46.54"/>
<polygon fill="#63b8ff" stroke="#63b8ff" points="551.7,-39.14 541.3,-41.14 550.68,-46.06 551.7,-39.14"/>
</a>
</g>
</g>
<!-- Node3 -->
<g id="Node000003" class="node">
<title>Node3</title>
<g id="a_Node000003"><a xlink:href="structitk_1_1simple_1_1IsBasic.html" target="_top" xlink:title=" ">
<polygon fill="white" stroke="#666666" points="109,-72 0,-72 0,-42 109,-42 109,-72"/>
<text text-anchor="start" x="8" y="-60" font-family="Helvetica,sans-Serif" font-size="10.00">itk::simple::IsBasic</text>
<text text-anchor="middle" x="54.5" y="-49" font-family="Helvetica,sans-Serif" font-size="10.00">&lt; TPixelIDType &gt;</text>
</a>
</g>
</g>
<!-- Node3&#45;&gt;Node1 -->
<g id="edge3_Node000001_Node000003" class="edge">
<title>Node3&#45;&gt;Node1</title>
<g id="a_edge3_Node000001_Node000003"><a xlink:title=" ">
<path fill="none" stroke="orange" stroke-dasharray="5,2" d="M119.25,-72.94C121.86,-73.34 124.45,-73.7 127,-74 287.37,-92.8 477.25,-77.18 577.79,-65.95"/>
<polygon fill="orange" stroke="orange" points="119.59,-69.45 109.14,-71.17 118.38,-76.34 119.59,-69.45"/>
</a>
</g>
<text text-anchor="start" x="373" y="-96" font-family="Helvetica,sans-Serif" font-size="10.00" fill="grey"> &lt; itk::Image&lt; TPixelType,</text>
<text text-anchor="middle" x="438" y="-85" font-family="Helvetica,sans-Serif" font-size="10.00" fill="grey"> VImageDimension &gt; &gt;</text>
</g>
<!-- Node3&#45;&gt;Node2 -->
<g id="edge2_Node000002_Node000003" class="edge">
<title>Node3&#45;&gt;Node2</title>
<g id="a_edge2_Node000002_Node000003"><a xlink:title=" ">
<path fill="none" stroke="orange" stroke-dasharray="5,2" d="M119.28,-42.15C121.88,-41.73 124.46,-41.34 127,-41 195.88,-31.7 274.06,-27.96 334.67,-26.54"/>
<polygon fill="orange" stroke="orange" points="118.43,-38.75 109.2,-43.95 119.66,-45.64 118.43,-38.75"/>
</a>
</g>
<text text-anchor="start" x="127" y="-66" font-family="Helvetica,sans-Serif" font-size="10.00" fill="grey"> &lt; ImageTypeToPixelID</text>
<text text-anchor="start" x="127" y="-55" font-family="Helvetica,sans-Serif" font-size="10.00" fill="grey">&lt; itk::Image&lt; TPixelType,</text>
<text text-anchor="middle" x="222" y="-44" font-family="Helvetica,sans-Serif" font-size="10.00" fill="grey"> VImageDimension &gt; &gt;::PixelIDType &gt;</text>
</g>
</g>
</svg>
