<?xml version="1.0" encoding="UTF-8" standalone="no"?>
<!DOCTYPE svg PUBLIC "-//W3C//DTD SVG 1.1//EN"
 "http://www.w3.org/Graphics/SVG/1.1/DTD/svg11.dtd">
<!-- Generated by graphviz version 2.43.0 (0)
 -->
<!-- Title: itk::simple::IsLabel&lt; TPixelIDType &gt; Pages: 1 -->
<svg width="713pt" height="199pt"
 viewBox="0.00 0.00 713.00 199.00" xmlns="http://www.w3.org/2000/svg" xmlns:xlink="http://www.w3.org/1999/xlink">
<g id="graph0" class="graph" transform="scale(1 1) rotate(0) translate(4 195)">
<title>itk::simple::IsLabel&lt; TPixelIDType &gt;</title>
<!-- Node1 -->
<g id="Node000001" class="node">
<title>Node1</title>
<g id="a_Node000001"><a xlink:title=" ">
<polygon fill="#999999" stroke="#666666" points="109,-81 0,-81 0,-51 109,-51 109,-81"/>
<text text-anchor="start" x="8" y="-69" font-family="Helvetica,sans-Serif" font-size="10.00">itk::simple::IsLabel</text>
<text text-anchor="middle" x="54.5" y="-58" font-family="Helvetica,sans-Serif" font-size="10.00">&lt; TPixelIDType &gt;</text>
</a>
</g>
</g>
<!-- Node2 -->
<g id="Node000002" class="node">
<title>Node2</title>
<g id="a_Node000002"><a xlink:href="structitk_1_1simple_1_1IsLabel.html" target="_top" xlink:title=" ">
<polygon fill="white" stroke="#666666" points="507,-191 358,-191 358,-117 507,-117 507,-191"/>
<text text-anchor="start" x="366" y="-179" font-family="Helvetica,sans-Serif" font-size="10.00">itk::simple::IsLabel</text>
<text text-anchor="start" x="366" y="-168" font-family="Helvetica,sans-Serif" font-size="10.00">&lt; ImageTypeToPixelID</text>
<text text-anchor="start" x="366" y="-157" font-family="Helvetica,sans-Serif" font-size="10.00">&lt; itk::LabelMap&lt; itk::</text>
<text text-anchor="start" x="366" y="-146" font-family="Helvetica,sans-Serif" font-size="10.00">LabelObject&lt; TLabelType,</text>
<text text-anchor="start" x="366" y="-135" font-family="Helvetica,sans-Serif" font-size="10.00"> VImageDimension &gt; &gt; &gt;::</text>
<text text-anchor="middle" x="432.5" y="-124" font-family="Helvetica,sans-Serif" font-size="10.00">PixelIDType &gt;</text>
</a>
</g>
</g>
<!-- Node1&#45;&gt;Node2 -->
<g id="edge1_Node000001_Node000002" class="edge">
<title>Node1&#45;&gt;Node2</title>
<g id="a_edge1_Node000001_Node000002"><a xlink:title=" ">
<path fill="none" stroke="orange" stroke-dasharray="5,2" d="M119.23,-80.92C185.21,-96.36 288.19,-120.46 357.67,-136.72"/>
<polygon fill="orange" stroke="orange" points="119.91,-77.48 109.37,-78.61 118.31,-84.3 119.91,-77.48"/>
</a>
</g>
<text text-anchor="start" x="127" y="-163" font-family="Helvetica,sans-Serif" font-size="10.00" fill="grey"> &lt; ImageTypeToPixelID</text>
<text text-anchor="start" x="127" y="-152" font-family="Helvetica,sans-Serif" font-size="10.00" fill="grey">&lt; itk::LabelMap&lt; itk</text>
<text text-anchor="start" x="127" y="-141" font-family="Helvetica,sans-Serif" font-size="10.00" fill="grey">::LabelObject&lt; TLabelType,</text>
<text text-anchor="middle" x="227.5" y="-130" font-family="Helvetica,sans-Serif" font-size="10.00" fill="grey"> VImageDimension &gt; &gt; &gt;::PixelIDType &gt;</text>
</g>
<!-- Node3 -->
<g id="Node000003" class="node">
<title>Node3</title>
<g id="a_Node000003"><a xlink:href="structitk_1_1simple_1_1IsLabel_3_01itk_1_1LabelMap_3_01itk_1_1LabelObject_3_01TLabelType_00_01VImageDimension_01_4_01_4_01_4.html" target="_top" xlink:title=" ">
<polygon fill="white" stroke="#666666" points="705,-104 556,-104 556,-52 705,-52 705,-104"/>
<text text-anchor="start" x="564" y="-92" font-family="Helvetica,sans-Serif" font-size="10.00">itk::simple::IsLabel</text>
<text text-anchor="start" x="564" y="-81" font-family="Helvetica,sans-Serif" font-size="10.00">&lt; itk::LabelMap&lt; itk</text>
<text text-anchor="start" x="564" y="-70" font-family="Helvetica,sans-Serif" font-size="10.00">::LabelObject&lt; TLabelType,</text>
<text text-anchor="middle" x="630.5" y="-59" font-family="Helvetica,sans-Serif" font-size="10.00"> VImageDimension &gt; &gt; &gt;</text>
</a>
</g>
</g>
<!-- Node1&#45;&gt;Node3 -->
<g id="edge4_Node000001_Node000003" class="edge">
<title>Node1&#45;&gt;Node3</title>
<g id="a_edge4_Node000001_Node000003"><a xlink:title=" ">
<path fill="none" stroke="orange" stroke-dasharray="5,2" d="M119.27,-67.08C208.64,-68.63 376.2,-71.68 519,-75 530.9,-75.28 543.51,-75.6 555.8,-75.92"/>
<polygon fill="orange" stroke="orange" points="119.09,-63.58 109.03,-66.91 118.97,-70.58 119.09,-63.58"/>
</a>
</g>
<text text-anchor="start" x="366" y="-100" font-family="Helvetica,sans-Serif" font-size="10.00" fill="grey"> &lt; itk::LabelMap&lt; itk</text>
<text text-anchor="start" x="366" y="-89" font-family="Helvetica,sans-Serif" font-size="10.00" fill="grey">::LabelObject&lt; TLabelType,</text>
<text text-anchor="middle" x="432.5" y="-78" font-family="Helvetica,sans-Serif" font-size="10.00" fill="grey"> VImageDimension &gt; &gt; &gt;</text>
</g>
<!-- Node4 -->
<g id="Node000004" class="node">
<title>Node4</title>
<g id="a_Node000004"><a xlink:href="structitk_1_1simple_1_1IsLabel_3_01LabelPixelID_3_01TPixelType_01_4_01_4.html" target="_top" xlink:title=" ">
<polygon fill="white" stroke="#666666" points="519,-30 346,-30 346,0 519,0 519,-30"/>
<text text-anchor="start" x="354" y="-18" font-family="Helvetica,sans-Serif" font-size="10.00">itk::simple::IsLabel</text>
<text text-anchor="middle" x="432.5" y="-7" font-family="Helvetica,sans-Serif" font-size="10.00">&lt; LabelPixelID&lt; TPixelType &gt; &gt;</text>
</a>
</g>
</g>
<!-- Node1&#45;&gt;Node4 -->
<g id="edge3_Node000001_Node000004" class="edge">
<title>Node1&#45;&gt;Node4</title>
<g id="a_edge3_Node000001_Node000004"><a xlink:title=" ">
<path fill="none" stroke="orange" stroke-dasharray="5,2" d="M102.5,-47.7C110.57,-45.09 118.96,-42.72 127,-41 199.9,-25.4 284.5,-19.1 346,-16.58"/>
<polygon fill="orange" stroke="orange" points="101.2,-44.44 92.84,-50.96 103.44,-51.07 101.2,-44.44"/>
</a>
</g>
<text text-anchor="middle" x="227.5" y="-44" font-family="Helvetica,sans-Serif" font-size="10.00" fill="grey"> &lt; LabelPixelID&lt; TPixelType &gt; &gt;</text>
</g>
<!-- Node2&#45;&gt;Node3 -->
<g id="edge2_Node000002_Node000003" class="edge">
<title>Node2&#45;&gt;Node3</title>
<g id="a_edge2_Node000002_Node000003"><a xlink:title=" ">
<path fill="none" stroke="#63b8ff" d="M516.49,-121.82C531.78,-115.89 547.58,-109.77 562.34,-104.04"/>
<polygon fill="#63b8ff" stroke="#63b8ff" points="515.1,-118.61 507.04,-125.48 517.63,-125.13 515.1,-118.61"/>
</a>
</g>
</g>
</g>
</svg>
