<?xml version="1.0" encoding="UTF-8" standalone="no"?>
<!DOCTYPE svg PUBLIC "-//W3C//DTD SVG 1.1//EN"
 "http://www.w3.org/Graphics/SVG/1.1/DTD/svg11.dtd">
<!-- Generated by graphviz version 2.43.0 (0)
 -->
<!-- Title: itk::simple::IsInstantiated&lt; TPixelIDType, VImageDimension &gt; Pages: 1 -->
<!--zoomable 425 -->

<svg id="main" version="1.1" xmlns="http://www.w3.org/2000/svg" xmlns:xlink="http://www.w3.org/1999/xlink" xml:space="preserve" onload="init(evt)">

<style type="text/css"><![CDATA[
.node, .edge {opacity: 0.7;}
.node.selected, .edge.selected {opacity: 1;}
.edge:hover path { stroke: red; }
.edge:hover polygon { stroke: red; fill: red; }
]]></style>

<defs>
  <circle id="rim" cx="0" cy="0" r="7"/>
  <circle id="rim2" cx="0" cy="0" r="3.5"/>
  <g id="zoomPlus">
    <use xlink:href="#rim" fill="#404040"><set attributeName="fill" to="#808080" begin="zoomplus.mouseover" end="zoomplus.mouseout"/></use>
    <path d="M-4,0h8M0,-4v8" fill="none" stroke="white" stroke-width="1.5" pointer-events="none"/>
  </g>
  <g id="zoomMin">
    <use xlink:href="#rim" fill="#404040"><set attributeName="fill" to="#808080" begin="zoomminus.mouseover" end="zoomminus.mouseout"/></use>
    <path d="M-4,0h8" fill="none" stroke="white" stroke-width="1.5" pointer-events="none"/>
  </g>
  <g id="arrowUp" transform="translate(30 24)">
    <use xlink:href="#rim"/>
    <path pointer-events="none" fill="none" stroke="white" stroke-width="1.5" d="M0,-3.0v7 M-2.5,-0.5L0,-3.0L2.5,-0.5"/>
  </g>
  <g id="arrowRight" transform="rotate(90) translate(36 -43)">
    <use xlink:href="#rim"/>
    <path pointer-events="none" fill="none" stroke="white" stroke-width="1.5" d="M0,-3.0v7 M-2.5,-0.5L0,-3.0L2.5,-0.5"/>
  </g>
  <g id="arrowDown" transform="rotate(180) translate(-30 -48)">
    <use xlink:href="#rim"/>
    <path pointer-events="none" fill="none" stroke="white" stroke-width="1.5" d="M0,-3.0v7 M-2.5,-0.5L0,-3.0L2.5,-0.5"/>
  </g>
  <g id="arrowLeft" transform="rotate(270) translate(-36 17)">
    <use xlink:href="#rim"/>
    <path pointer-events="none" fill="none" stroke="white" stroke-width="1.5" d="M0,-3.0v7 M-2.5,-0.5L0,-3.0L2.5,-0.5"/>
  </g>
  <g id="resetDef">
    <use xlink:href="#rim2" fill="#404040"><set attributeName="fill" to="#808080" begin="reset.mouseover" end="reset.mouseout"/></use>
  </g>
</defs>
<script type="application/ecmascript">
var viewWidth = 915;
var viewHeight = 425;
var sectionId = 'dynsection-0';
</script>
<script type="application/ecmascript" xlink:href="svg.min.js"/>
<svg id="graph" class="graph">
<g id="viewport">
<title>itk::simple::IsInstantiated&lt; TPixelIDType, VImageDimension &gt;</title>
<!-- Node1 -->
<g id="Node000001" class="node">
<title>Node1</title>
<g id="a_Node000001"><a xlink:title=" ">
<polygon fill="#999999" stroke="#666666" points="197,-213.31 0,-213.31 0,-183.31 197,-183.31 197,-213.31"/>
<text text-anchor="start" x="8" y="-201.31" font-family="Helvetica,sans-Serif" font-size="10.00">itk::simple::IsInstantiated</text>
<text text-anchor="middle" x="98.5" y="-190.31" font-family="Helvetica,sans-Serif" font-size="10.00">&lt; TPixelIDType, VImageDimension &gt;</text>
</a>
</g>
</g>
<!-- Node2 -->
<g id="Node000002" class="node">
<title>Node2</title>
<g id="a_Node000002"><a xlink:href="structitk_1_1simple_1_1IsInstantiated.html" target="_top" xlink:title=" ">
<polygon fill="white" stroke="#666666" points="642,-401.31 430,-401.31 430,-349.31 642,-349.31 642,-401.31"/>
<text text-anchor="start" x="438" y="-389.31" font-family="Helvetica,sans-Serif" font-size="10.00">itk::simple::IsInstantiated</text>
<text text-anchor="start" x="438" y="-378.31" font-family="Helvetica,sans-Serif" font-size="10.00">&lt; ImageTypeToPixelID&lt; itk</text>
<text text-anchor="start" x="438" y="-367.31" font-family="Helvetica,sans-Serif" font-size="10.00">::Image&lt; TPixelType, VImageDimension</text>
<text text-anchor="middle" x="536" y="-356.31" font-family="Helvetica,sans-Serif" font-size="10.00"> &gt; &gt;::PixelIDType, VImageDimension &gt;</text>
</a>
</g>
</g>
<!-- Node1&#45;&gt;Node2 -->
<g id="edge1_Node000001_Node000002" class="edge">
<title>Node1&#45;&gt;Node2</title>
<g id="a_edge1_Node000001_Node000002"><a xlink:title=" ">
<path fill="none" stroke="orange" stroke-dasharray="5,2" d="M114.37,-222.37C133.72,-251.41 170.37,-299.34 215,-323.31 280.82,-358.67 364.43,-371.34 429.67,-375.35"/>
<polygon fill="orange" stroke="orange" points="117.09,-220.13 108.71,-213.66 111.23,-223.95 117.09,-220.13"/>
</a>
</g>
<text text-anchor="start" x="221" y="-409.31" font-family="Helvetica,sans-Serif" font-size="10.00" fill="grey"> &lt; ImageTypeToPixelID</text>
<text text-anchor="start" x="221" y="-398.31" font-family="Helvetica,sans-Serif" font-size="10.00" fill="grey">&lt; itk::Image&lt; TPixelType,</text>
<text text-anchor="start" x="221" y="-387.31" font-family="Helvetica,sans-Serif" font-size="10.00" fill="grey"> VImageDimension &gt; &gt;::PixelIDType,</text>
<text text-anchor="middle" x="311.5" y="-376.31" font-family="Helvetica,sans-Serif" font-size="10.00" fill="grey"> VImageDimension &gt;</text>
</g>
<!-- Node3 -->
<g id="Node000003" class="node">
<title>Node3</title>
<g id="a_Node000003"><a xlink:href="structitk_1_1simple_1_1IsInstantiated_3_01itk_1_1Image_3_01TPixelType_00_01VImageDimension_01_4_00_010_01_4.html" target="_top" xlink:title=" ">
<polygon fill="white" stroke="#666666" points="867,-341.81 723,-341.81 723,-300.81 867,-300.81 867,-341.81"/>
<text text-anchor="start" x="731" y="-329.81" font-family="Helvetica,sans-Serif" font-size="10.00">itk::simple::IsInstantiated</text>
<text text-anchor="start" x="731" y="-318.81" font-family="Helvetica,sans-Serif" font-size="10.00">&lt; itk::Image&lt; TPixelType,</text>
<text text-anchor="middle" x="795" y="-307.81" font-family="Helvetica,sans-Serif" font-size="10.00"> VImageDimension &gt;, 0 &gt;</text>
</a>
</g>
</g>
<!-- Node1&#45;&gt;Node3 -->
<g id="edge7_Node000001_Node000003" class="edge">
<title>Node1&#45;&gt;Node3</title>
<g id="a_edge7_Node000001_Node000003"><a xlink:title=" ">
<path fill="none" stroke="orange" stroke-dasharray="5,2" d="M120.27,-220.72C141.68,-242.14 177.2,-273.19 215,-287.31 261.4,-304.65 578.48,-315.42 722.77,-319.48"/>
<polygon fill="orange" stroke="orange" points="122.53,-218.03 113.04,-213.32 117.52,-222.92 122.53,-218.03"/>
</a>
</g>
<text text-anchor="start" x="471" y="-330.31" font-family="Helvetica,sans-Serif" font-size="10.00" fill="grey"> &lt; itk::Image&lt; TPixelType,</text>
<text text-anchor="middle" x="536" y="-319.31" font-family="Helvetica,sans-Serif" font-size="10.00" fill="grey"> VImageDimension &gt;, 0 &gt;</text>
</g>
<!-- Node4 -->
<g id="Node000004" class="node">
<title>Node4</title>
<g id="a_Node000004"><a xlink:href="structitk_1_1simple_1_1IsInstantiated.html" target="_top" xlink:title=" ">
<polygon fill="white" stroke="#666666" points="646,-272.81 426,-272.81 426,-209.81 646,-209.81 646,-272.81"/>
<text text-anchor="start" x="434" y="-260.81" font-family="Helvetica,sans-Serif" font-size="10.00">itk::simple::IsInstantiated</text>
<text text-anchor="start" x="434" y="-249.81" font-family="Helvetica,sans-Serif" font-size="10.00">&lt; ImageTypeToPixelID&lt; itk</text>
<text text-anchor="start" x="434" y="-238.81" font-family="Helvetica,sans-Serif" font-size="10.00">::LabelMap&lt; itk::LabelObject</text>
<text text-anchor="start" x="434" y="-227.81" font-family="Helvetica,sans-Serif" font-size="10.00">&lt; TLabelType, VImageDimension</text>
<text text-anchor="middle" x="536" y="-216.81" font-family="Helvetica,sans-Serif" font-size="10.00"> &gt; &gt; &gt;::PixelIDType, VImageDimension &gt;</text>
</a>
</g>
</g>
<!-- Node1&#45;&gt;Node4 -->
<g id="edge3_Node000001_Node000004" class="edge">
<title>Node1&#45;&gt;Node4</title>
<g id="a_edge3_Node000001_Node000004"><a xlink:title=" ">
<path fill="none" stroke="orange" stroke-dasharray="5,2" d="M207.33,-208.96C273.85,-215.53 358.94,-223.93 425.73,-230.52"/>
<polygon fill="orange" stroke="orange" points="207.53,-205.46 197.23,-207.96 206.84,-212.43 207.53,-205.46"/>
</a>
</g>
<text text-anchor="start" x="215" y="-275.31" font-family="Helvetica,sans-Serif" font-size="10.00" fill="grey"> &lt; ImageTypeToPixelID</text>
<text text-anchor="start" x="215" y="-264.31" font-family="Helvetica,sans-Serif" font-size="10.00" fill="grey">&lt; itk::LabelMap&lt; itk</text>
<text text-anchor="start" x="215" y="-253.31" font-family="Helvetica,sans-Serif" font-size="10.00" fill="grey">::LabelObject&lt; TLabelType,</text>
<text text-anchor="start" x="215" y="-242.31" font-family="Helvetica,sans-Serif" font-size="10.00" fill="grey"> VImageDimension &gt; &gt; &gt;::PixelIDType,</text>
<text text-anchor="middle" x="311.5" y="-231.31" font-family="Helvetica,sans-Serif" font-size="10.00" fill="grey"> VImageDimension &gt;</text>
</g>
<!-- Node5 -->
<g id="Node000005" class="node">
<title>Node5</title>
<g id="a_Node000005"><a xlink:href="structitk_1_1simple_1_1IsInstantiated_3_01itk_1_1LabelMap_3_01itk_1_1LabelObject_3_01TLabelType_8c9763b073bdea276b13f9d4c521053d.html" target="_top" xlink:title=" ">
<polygon fill="white" stroke="#666666" points="907,-205.81 683,-205.81 683,-164.81 907,-164.81 907,-205.81"/>
<text text-anchor="start" x="691" y="-193.81" font-family="Helvetica,sans-Serif" font-size="10.00">itk::simple::IsInstantiated</text>
<text text-anchor="start" x="691" y="-182.81" font-family="Helvetica,sans-Serif" font-size="10.00">&lt; itk::LabelMap&lt; itk::LabelObject</text>
<text text-anchor="middle" x="795" y="-171.81" font-family="Helvetica,sans-Serif" font-size="10.00">&lt; TLabelType, VImageDimension &gt; &gt;, 0 &gt;</text>
</a>
</g>
</g>
<!-- Node1&#45;&gt;Node5 -->
<g id="edge8_Node000001_Node000005" class="edge">
<title>Node1&#45;&gt;Node5</title>
<g id="a_edge8_Node000001_Node000005"><a xlink:title=" ">
<path fill="none" stroke="orange" stroke-dasharray="5,2" d="M207.24,-185.91C270.8,-179.22 352.86,-171.67 426,-168.31 523.68,-163.83 548.38,-162.72 646,-168.31 658.01,-169 670.53,-170 683,-171.17"/>
<polygon fill="orange" stroke="orange" points="206.78,-182.44 197.2,-186.98 207.52,-189.4 206.78,-182.44"/>
</a>
</g>
<text text-anchor="start" x="466.5" y="-193.31" font-family="Helvetica,sans-Serif" font-size="10.00" fill="grey"> &lt; itk::LabelMap&lt; itk</text>
<text text-anchor="start" x="466.5" y="-182.31" font-family="Helvetica,sans-Serif" font-size="10.00" fill="grey">::LabelObject&lt; TLabelType,</text>
<text text-anchor="middle" x="536" y="-171.31" font-family="Helvetica,sans-Serif" font-size="10.00" fill="grey"> VImageDimension &gt; &gt;, 0 &gt;</text>
</g>
<!-- Node6 -->
<g id="Node000006" class="node">
<title>Node6</title>
<g id="a_Node000006"><a xlink:href="structitk_1_1simple_1_1IsInstantiated.html" target="_top" xlink:title=" ">
<polygon fill="white" stroke="#666666" points="634.5,-121.81 437.5,-121.81 437.5,-58.81 634.5,-58.81 634.5,-121.81"/>
<text text-anchor="start" x="445.5" y="-109.81" font-family="Helvetica,sans-Serif" font-size="10.00">itk::simple::IsInstantiated</text>
<text text-anchor="start" x="445.5" y="-98.81" font-family="Helvetica,sans-Serif" font-size="10.00">&lt; ImageTypeToPixelID&lt; itk</text>
<text text-anchor="start" x="445.5" y="-87.81" font-family="Helvetica,sans-Serif" font-size="10.00">::VectorImage&lt; TPixelType,</text>
<text text-anchor="start" x="445.5" y="-76.81" font-family="Helvetica,sans-Serif" font-size="10.00"> VImageDimension &gt; &gt;::PixelIDType,</text>
<text text-anchor="middle" x="536" y="-65.81" font-family="Helvetica,sans-Serif" font-size="10.00"> VImageDimension &gt;</text>
</a>
</g>
</g>
<!-- Node1&#45;&gt;Node6 -->
<g id="edge5_Node000001_Node000006" class="edge">
<title>Node1&#45;&gt;Node6</title>
<g id="a_edge5_Node000001_Node000006"><a xlink:title=" ">
<path fill="none" stroke="orange" stroke-dasharray="5,2" d="M118.05,-175.31C138.8,-151.53 174.82,-115.78 215,-100.31 285.81,-73.06 372.08,-72.03 437.2,-77"/>
<polygon fill="orange" stroke="orange" points="115.18,-173.28 111.36,-183.17 120.51,-177.82 115.18,-173.28"/>
</a>
</g>
<text text-anchor="start" x="221" y="-136.31" font-family="Helvetica,sans-Serif" font-size="10.00" fill="grey"> &lt; ImageTypeToPixelID</text>
<text text-anchor="start" x="221" y="-125.31" font-family="Helvetica,sans-Serif" font-size="10.00" fill="grey">&lt; itk::VectorImage&lt; TPixelType,</text>
<text text-anchor="start" x="221" y="-114.31" font-family="Helvetica,sans-Serif" font-size="10.00" fill="grey"> VImageDimension &gt; &gt;::PixelIDType,</text>
<text text-anchor="middle" x="311.5" y="-103.31" font-family="Helvetica,sans-Serif" font-size="10.00" fill="grey"> VImageDimension &gt;</text>
</g>
<!-- Node7 -->
<g id="Node000007" class="node">
<title>Node7</title>
<g id="a_Node000007"><a xlink:href="structitk_1_1simple_1_1IsInstantiated_3_01itk_1_1VectorImage_3_01TPixelType_00_01VImageDimension_01_4_00_010_01_4.html" target="_top" xlink:title=" ">
<polygon fill="white" stroke="#666666" points="882,-54.81 708,-54.81 708,-13.81 882,-13.81 882,-54.81"/>
<text text-anchor="start" x="716" y="-42.81" font-family="Helvetica,sans-Serif" font-size="10.00">itk::simple::IsInstantiated</text>
<text text-anchor="start" x="716" y="-31.81" font-family="Helvetica,sans-Serif" font-size="10.00">&lt; itk::VectorImage&lt; TPixelType,</text>
<text text-anchor="middle" x="795" y="-20.81" font-family="Helvetica,sans-Serif" font-size="10.00"> VImageDimension &gt;, 0 &gt;</text>
</a>
</g>
</g>
<!-- Node1&#45;&gt;Node7 -->
<g id="edge9_Node000001_Node000007" class="edge">
<title>Node1&#45;&gt;Node7</title>
<g id="a_edge9_Node000001_Node000007"><a xlink:title=" ">
<path fill="none" stroke="orange" stroke-dasharray="5,2" d="M114.58,-174.3C134.15,-145.19 171.02,-96.76 215,-70.31 368.42,21.94 587.93,3.44 707.78,-16.49"/>
<polygon fill="orange" stroke="orange" points="111.42,-172.74 108.85,-183.02 117.27,-176.58 111.42,-172.74"/>
</a>
</g>
<text text-anchor="start" x="456" y="-33.31" font-family="Helvetica,sans-Serif" font-size="10.00" fill="grey"> &lt; itk::VectorImage</text>
<text text-anchor="start" x="456" y="-22.31" font-family="Helvetica,sans-Serif" font-size="10.00" fill="grey">&lt; TPixelType, VImageDimension</text>
<text text-anchor="middle" x="536" y="-11.31" font-family="Helvetica,sans-Serif" font-size="10.00" fill="grey"> &gt;, 0 &gt;</text>
</g>
<!-- Node2&#45;&gt;Node3 -->
<g id="edge2_Node000002_Node000003" class="edge">
<title>Node2&#45;&gt;Node3</title>
<g id="a_edge2_Node000002_Node000003"><a xlink:title=" ">
<path fill="none" stroke="#63b8ff" d="M652.15,-351.12C676.14,-346.08 700.77,-340.9 722.62,-336.31"/>
<polygon fill="#63b8ff" stroke="#63b8ff" points="651.34,-347.71 642.27,-353.19 652.78,-354.56 651.34,-347.71"/>
</a>
</g>
</g>
<!-- Node4&#45;&gt;Node5 -->
<g id="edge4_Node000004_Node000005" class="edge">
<title>Node4&#45;&gt;Node5</title>
<g id="a_edge4_Node000004_Node000005"><a xlink:title=" ">
<path fill="none" stroke="#63b8ff" d="M656.4,-215.3C670.94,-212.13 685.64,-208.92 699.74,-205.85"/>
<polygon fill="#63b8ff" stroke="#63b8ff" points="655.39,-211.93 646.36,-217.48 656.88,-218.77 655.39,-211.93"/>
</a>
</g>
</g>
<!-- Node6&#45;&gt;Node7 -->
<g id="edge6_Node000006_Node000007" class="edge">
<title>Node6&#45;&gt;Node7</title>
<g id="a_edge6_Node000006_Node000007"><a xlink:title=" ">
<path fill="none" stroke="#63b8ff" d="M644.51,-66.89C665.65,-62.28 687.58,-57.5 707.91,-53.07"/>
<polygon fill="#63b8ff" stroke="#63b8ff" points="643.55,-63.51 634.53,-69.06 645.04,-70.35 643.55,-63.51"/>
</a>
</g>
</g>
</g>
</svg>

<g id="navigator" transform="translate(0 0)" fill="#404254">
  <rect fill="#f2f5e9" fill-opacity="0.5" stroke="#606060" stroke-width=".5" x="0" y="0" width="60" height="60"/>
  <use id="zoomplus" xlink:href="#zoomPlus" x="17" y="9" onmousedown="handleZoom(evt,'in')"/>
  <use id="zoomminus" xlink:href="#zoomMin" x="42" y="9" onmousedown="handleZoom(evt,'out')"/>
  <use id="reset" xlink:href="#resetDef" x="30" y="36" onmousedown="handleReset()"/>
   <use id="arrowup" xlink:href="#arrowUp" x="0" y="0" onmousedown="handlePan(0,-1)"/>
  <use id="arrowright" xlink:href="#arrowRight" x="0" y="0" onmousedown="handlePan(1,0)"/>
  <use id="arrowdown" xlink:href="#arrowDown" x="0" y="0" onmousedown="handlePan(0,1)"/>
  <use id="arrowleft" xlink:href="#arrowLeft" x="0" y="0" onmousedown="handlePan(-1,0)"/>
</g>
<svg viewBox="0 0 15 15" width="100%" height="30px" preserveAspectRatio="xMaxYMin meet">
 <g id="arrow_out" transform="scale(0.3 0.3)">
  <a xlink:href="structitk_1_1simple_1_1IsInstantiated__inherit__graph_org.svg" target="_base">
   <rect id="button" ry="5" rx="5" y="6" x="6" height="38" width="38"
        fill="#f2f5e9" fill-opacity="0.5" stroke="#606060" stroke-width="1.0"/>
   <path id="arrow"
     d="M 11.500037,31.436501 C 11.940474,20.09759 22.043105,11.32322 32.158766,21.979434 L 37.068811,17.246167 C 37.068811,17.246167 37.088388,32 37.088388,32 L 22.160133,31.978069 C 22.160133,31.978069 26.997745,27.140456 26.997745,27.140456 C 18.528582,18.264221 13.291696,25.230495 11.500037,31.436501 z"
     style="fill:#404040;"/>
  </a>
 </g>
</svg>

<style type='text/css'>
<![CDATA[
[data-mouse-over-selected='false'] { opacity: 0.7; }
[data-mouse-over-selected='true']  { opacity: 1.0; }
]]>
</style>
<script type="application/ecmascript"><![CDATA[
document.addEventListener('DOMContentLoaded', (event) => {
  highlightEdges();
  highlightAdjacentNodes();
});
]]></script>
</svg>
