<?xml version="1.0" encoding="UTF-8" standalone="no"?>
<!DOCTYPE svg PUBLIC "-//W3C//DTD SVG 1.1//EN"
 "http://www.w3.org/Graphics/SVG/1.1/DTD/svg11.dtd">
<!-- Generated by graphviz version 2.43.0 (0)
 -->
<!-- Title: itk::simple::FastMarchingUpwindGradientImageFilter Pages: 1 -->
<svg width="2884pt" height="417pt"
 viewBox="0.00 0.00 2884.00 417.00" xmlns="http://www.w3.org/2000/svg" xmlns:xlink="http://www.w3.org/1999/xlink">
<g id="graph0" class="graph" transform="scale(1 1) rotate(0) translate(4 413)">
<title>itk::simple::FastMarchingUpwindGradientImageFilter</title>
<polygon fill="white" stroke="transparent" points="-4,4 -4,-413 2880,-413 2880,4 -4,4"/>
<!-- Node1 -->
<g id="node1" class="node">
<title>Node1</title>
<g id="a_node1"><a xlink:title="Generates the upwind gradient field of fast marching arrival times.">
<polygon fill="#bfbfbf" stroke="black" points="2725,-49 2725,-79 2876,-79 2876,-49 2725,-49"/>
<text text-anchor="start" x="2733" y="-67" font-family="Helvetica,sans-Serif" font-size="10.00">itk::simple::FastMarching</text>
<text text-anchor="middle" x="2800.5" y="-56" font-family="Helvetica,sans-Serif" font-size="10.00">UpwindGradientImageFilter</text>
</a>
</g>
</g>
<!-- Node2 -->
<g id="node2" class="node">
<title>Node2</title>
<g id="a_node2"><a xlink:href="classitk_1_1simple_1_1ImageFilter.html" target="_top" xlink:title="The base interface for SimpleITK filters that take one input image.">
<polygon fill="white" stroke="black" points="2435,-142.5 2435,-161.5 2565,-161.5 2565,-142.5 2435,-142.5"/>
<text text-anchor="middle" x="2500" y="-149.5" font-family="Helvetica,sans-Serif" font-size="10.00">itk::simple::ImageFilter</text>
</a>
</g>
</g>
<!-- Node2&#45;&gt;Node1 -->
<g id="edge1" class="edge">
<title>Node2&#45;&gt;Node1</title>
<path fill="none" stroke="midnightblue" d="M2557.31,-140.26C2599.05,-131.03 2657.11,-117.07 2707,-101 2726.59,-94.69 2747.96,-86.25 2765.21,-79.03"/>
<polygon fill="midnightblue" stroke="midnightblue" points="2556.35,-136.89 2547.33,-142.45 2557.84,-143.73 2556.35,-136.89"/>
</g>
<!-- Node3 -->
<g id="node3" class="node">
<title>Node3</title>
<g id="a_node3"><a xlink:href="classitk_1_1simple_1_1ProcessObject.html" target="_top" xlink:title="Base class for SimpleITK classes based on ProcessObject.">
<polygon fill="white" stroke="black" points="2133,-301.5 2133,-320.5 2276,-320.5 2276,-301.5 2133,-301.5"/>
<text text-anchor="middle" x="2204.5" y="-308.5" font-family="Helvetica,sans-Serif" font-size="10.00">itk::simple::ProcessObject</text>
</a>
</g>
</g>
<!-- Node3&#45;&gt;Node2 -->
<g id="edge2" class="edge">
<title>Node3&#45;&gt;Node2</title>
<path fill="none" stroke="midnightblue" d="M2232.54,-296.35C2291.81,-264.24 2431.85,-188.38 2481.32,-161.58"/>
<polygon fill="midnightblue" stroke="midnightblue" points="2230.54,-293.45 2223.42,-301.29 2233.88,-299.61 2230.54,-293.45"/>
</g>
<!-- Node4 -->
<g id="node4" class="node">
<title>Node4</title>
<g id="a_node4"><a xlink:href="classitk_1_1simple_1_1NonCopyable.html" target="_top" xlink:title="An inheritable class to disable copying of a class.">
<polygon fill="white" stroke="black" points="382,-389.5 382,-408.5 522,-408.5 522,-389.5 382,-389.5"/>
<text text-anchor="middle" x="452" y="-396.5" font-family="Helvetica,sans-Serif" font-size="10.00">itk::simple::NonCopyable</text>
</a>
</g>
</g>
<!-- Node4&#45;&gt;Node3 -->
<g id="edge3" class="edge">
<title>Node4&#45;&gt;Node3</title>
<path fill="none" stroke="darkgreen" d="M532.21,-398.64C601.94,-398.35 706.21,-398 797,-398 797,-398 797,-398 1864.5,-398 1987.85,-398 2128.74,-343.29 2181.79,-320.64"/>
<polygon fill="darkgreen" stroke="darkgreen" points="532.17,-395.14 522.18,-398.68 532.2,-402.14 532.17,-395.14"/>
</g>
<!-- Node8 -->
<g id="node8" class="node">
<title>Node8</title>
<g id="a_node8"><a xlink:href="classitk_1_1simple_1_1ObjectOwnedBase.html" target="_top" xlink:title="An abstract base class to connect this object with the lifetime of another.">
<polygon fill="white" stroke="black" points="716,-328.5 716,-347.5 880,-347.5 880,-328.5 716,-328.5"/>
<text text-anchor="middle" x="798" y="-335.5" font-family="Helvetica,sans-Serif" font-size="10.00">itk::simple::ObjectOwnedBase</text>
</a>
</g>
</g>
<!-- Node4&#45;&gt;Node8 -->
<g id="edge8" class="edge">
<title>Node4&#45;&gt;Node8</title>
<path fill="none" stroke="midnightblue" d="M523.13,-387.9C572.18,-379.99 639.18,-368.86 698,-358 715.42,-354.78 734.5,-350.99 751.22,-347.58"/>
<polygon fill="midnightblue" stroke="midnightblue" points="522.57,-384.45 513.26,-389.49 523.69,-391.36 522.57,-384.45"/>
</g>
<!-- Node5 -->
<g id="node5" class="node">
<title>Node5</title>
<g id="a_node5"><a xlink:title=" ">
<polygon fill="white" stroke="#bfbfbf" points="1770,-296 1770,-326 1957,-326 1957,-296 1770,-296"/>
<text text-anchor="start" x="1778" y="-314" font-family="Helvetica,sans-Serif" font-size="10.00">std::list&lt; itk::simple</text>
<text text-anchor="middle" x="1863.5" y="-303" font-family="Helvetica,sans-Serif" font-size="10.00">::ProcessObject::EventCommand &gt;</text>
</a>
</g>
</g>
<!-- Node5&#45;&gt;Node3 -->
<g id="edge4" class="edge">
<title>Node5&#45;&gt;Node3</title>
<path fill="none" stroke="#9a32cd" stroke-dasharray="5,2" d="M1967.34,-311C2020.84,-311 2084.87,-311 2132.76,-311"/>
<polygon fill="#9a32cd" stroke="#9a32cd" points="1967.13,-307.5 1957.13,-311 1967.13,-314.5 1967.13,-307.5"/>
<text text-anchor="middle" x="2040" y="-314" font-family="Helvetica,sans-Serif" font-size="10.00"> m_Commands</text>
</g>
<!-- Node6 -->
<g id="node6" class="node">
<title>Node6</title>
<g id="a_node6"><a xlink:href="structitk_1_1simple_1_1ProcessObject_1_1EventCommand.html" target="_top" xlink:title=" ">
<polygon fill="white" stroke="black" points="1412.5,-320 1412.5,-350 1555.5,-350 1555.5,-320 1412.5,-320"/>
<text text-anchor="start" x="1420.5" y="-338" font-family="Helvetica,sans-Serif" font-size="10.00">itk::simple::ProcessObject</text>
<text text-anchor="middle" x="1484" y="-327" font-family="Helvetica,sans-Serif" font-size="10.00">::EventCommand</text>
</a>
</g>
</g>
<!-- Node6&#45;&gt;Node5 -->
<g id="edge5" class="edge">
<title>Node6&#45;&gt;Node5</title>
<path fill="none" stroke="#9a32cd" stroke-dasharray="5,2" d="M1565.72,-329.87C1625.58,-326.06 1707.29,-320.87 1769.81,-316.89"/>
<polygon fill="#9a32cd" stroke="#9a32cd" points="1565.32,-326.39 1555.56,-330.51 1565.76,-333.37 1565.32,-326.39"/>
<text text-anchor="middle" x="1670" y="-330" font-family="Helvetica,sans-Serif" font-size="10.00"> elements</text>
</g>
<!-- Node7 -->
<g id="node7" class="node">
<title>Node7</title>
<g id="a_node7"><a xlink:href="classitk_1_1simple_1_1Command.html" target="_top" xlink:title="An implementation of the Command design pattern for callback.">
<polygon fill="white" stroke="black" points="1077.5,-326.5 1077.5,-345.5 1202.5,-345.5 1202.5,-326.5 1077.5,-326.5"/>
<text text-anchor="middle" x="1140" y="-333.5" font-family="Helvetica,sans-Serif" font-size="10.00">itk::simple::Command</text>
</a>
</g>
</g>
<!-- Node7&#45;&gt;Node6 -->
<g id="edge6" class="edge">
<title>Node7&#45;&gt;Node6</title>
<path fill="none" stroke="#9a32cd" stroke-dasharray="5,2" d="M1212.83,-335.79C1271.46,-335.62 1353.86,-335.38 1412.21,-335.21"/>
<polygon fill="#9a32cd" stroke="#9a32cd" points="1212.53,-332.29 1202.54,-335.82 1212.55,-339.29 1212.53,-332.29"/>
<text text-anchor="middle" x="1310" y="-338" font-family="Helvetica,sans-Serif" font-size="10.00"> m_Command</text>
</g>
<!-- Node8&#45;&gt;Node7 -->
<g id="edge7" class="edge">
<title>Node8&#45;&gt;Node7</title>
<path fill="none" stroke="midnightblue" d="M890.13,-337.46C949.45,-337.12 1025.23,-336.67 1077.5,-336.36"/>
<polygon fill="midnightblue" stroke="midnightblue" points="889.99,-333.96 880.01,-337.52 890.03,-340.96 889.99,-333.96"/>
</g>
<!-- Node9 -->
<g id="node9" class="node">
<title>Node9</title>
<g id="a_node9"><a xlink:title=" ">
<polygon fill="white" stroke="#bfbfbf" points="387.5,-329.5 387.5,-370.5 516.5,-370.5 516.5,-329.5 387.5,-329.5"/>
<text text-anchor="start" x="395.5" y="-358.5" font-family="Helvetica,sans-Serif" font-size="10.00">std::multimap&lt; itk</text>
<text text-anchor="start" x="395.5" y="-347.5" font-family="Helvetica,sans-Serif" font-size="10.00">::Object *, std::function</text>
<text text-anchor="middle" x="452" y="-336.5" font-family="Helvetica,sans-Serif" font-size="10.00">&lt; void()&gt; &gt;</text>
</a>
</g>
</g>
<!-- Node9&#45;&gt;Node8 -->
<g id="edge9" class="edge">
<title>Node9&#45;&gt;Node8</title>
<path fill="none" stroke="#9a32cd" stroke-dasharray="5,2" d="M527.03,-347.42C582.59,-345.48 658.62,-342.83 715.84,-340.83"/>
<polygon fill="#9a32cd" stroke="#9a32cd" points="526.77,-343.92 516.9,-347.77 527.01,-350.92 526.77,-343.92"/>
<text text-anchor="middle" x="619" y="-349" font-family="Helvetica,sans-Serif" font-size="10.00"> m_ReferencedObjectsCallbacks</text>
</g>
<!-- Node10 -->
<g id="node10" class="node">
<title>Node10</title>
<g id="a_node10"><a xlink:title="STL class.">
<polygon fill="white" stroke="#bfbfbf" points="114,-337.5 114,-356.5 240,-356.5 240,-337.5 114,-337.5"/>
<text text-anchor="middle" x="177" y="-344.5" font-family="Helvetica,sans-Serif" font-size="10.00">std::multimap&lt; K, T &gt;</text>
</a>
</g>
</g>
<!-- Node10&#45;&gt;Node9 -->
<g id="edge10" class="edge">
<title>Node10&#45;&gt;Node9</title>
<path fill="none" stroke="orange" stroke-dasharray="5,2" d="M250.3,-347.79C292.82,-348.26 346.1,-348.85 387.08,-349.3"/>
<polygon fill="orange" stroke="orange" points="250.33,-344.29 240.29,-347.68 250.25,-351.29 250.33,-344.29"/>
<text text-anchor="start" x="258" y="-363" font-family="Helvetica,sans-Serif" font-size="10.00"> &lt; itk::Object *, std</text>
<text text-anchor="middle" x="311" y="-352" font-family="Helvetica,sans-Serif" font-size="10.00">::function&lt; void()&gt; &gt;</text>
</g>
<!-- Node11 -->
<g id="node11" class="node">
<title>Node11</title>
<g id="a_node11"><a xlink:title=" ">
<polygon fill="white" stroke="#bfbfbf" points="0,-337.5 0,-356.5 29,-356.5 29,-337.5 0,-337.5"/>
<text text-anchor="middle" x="14.5" y="-344.5" font-family="Helvetica,sans-Serif" font-size="10.00">K</text>
</a>
</g>
</g>
<!-- Node11&#45;&gt;Node10 -->
<g id="edge11" class="edge">
<title>Node11&#45;&gt;Node10</title>
<path fill="none" stroke="#9a32cd" stroke-dasharray="5,2" d="M39.34,-347C58.97,-347 87.71,-347 113.77,-347"/>
<polygon fill="#9a32cd" stroke="#9a32cd" points="39.18,-343.5 29.18,-347 39.18,-350.5 39.18,-343.5"/>
<text text-anchor="middle" x="71.5" y="-350" font-family="Helvetica,sans-Serif" font-size="10.00"> keys</text>
</g>
<!-- Node12 -->
<g id="node12" class="node">
<title>Node12</title>
<g id="a_node12"><a xlink:title=" ">
<polygon fill="white" stroke="#bfbfbf" points="0,-221.5 0,-240.5 29,-240.5 29,-221.5 0,-221.5"/>
<text text-anchor="middle" x="14.5" y="-228.5" font-family="Helvetica,sans-Serif" font-size="10.00">T</text>
</a>
</g>
</g>
<!-- Node12&#45;&gt;Node10 -->
<g id="edge12" class="edge">
<title>Node12&#45;&gt;Node10</title>
<path fill="none" stroke="#9a32cd" stroke-dasharray="5,2" d="M29.17,-248.5C46.66,-269.75 78.92,-305.33 114,-326 121.83,-330.62 130.82,-334.4 139.49,-337.42"/>
<polygon fill="#9a32cd" stroke="#9a32cd" points="31.81,-246.2 22.81,-240.6 26.36,-250.59 31.81,-246.2"/>
<text text-anchor="middle" x="71.5" y="-316" font-family="Helvetica,sans-Serif" font-size="10.00"> elements</text>
</g>
<!-- Node15 -->
<g id="node15" class="node">
<title>Node15</title>
<g id="a_node15"><a xlink:title="STL class.">
<polygon fill="white" stroke="#bfbfbf" points="270.5,-246.5 270.5,-265.5 351.5,-265.5 351.5,-246.5 270.5,-246.5"/>
<text text-anchor="middle" x="311" y="-253.5" font-family="Helvetica,sans-Serif" font-size="10.00">std::list&lt; T &gt;</text>
</a>
</g>
</g>
<!-- Node12&#45;&gt;Node15 -->
<g id="edge16" class="edge">
<title>Node12&#45;&gt;Node15</title>
<path fill="none" stroke="#9a32cd" stroke-dasharray="5,2" d="M39.29,-233.02C89.82,-237.31 208.31,-247.37 270.42,-252.64"/>
<polygon fill="#9a32cd" stroke="#9a32cd" points="39.57,-229.53 29.31,-232.17 38.98,-236.51 39.57,-229.53"/>
<text text-anchor="middle" x="71.5" y="-240" font-family="Helvetica,sans-Serif" font-size="10.00"> elements</text>
</g>
<!-- Node22 -->
<g id="node22" class="node">
<title>Node22</title>
<g id="a_node22"><a xlink:title="STL class.">
<polygon fill="white" stroke="#bfbfbf" points="560,-135.5 560,-154.5 678,-154.5 678,-135.5 560,-135.5"/>
<text text-anchor="middle" x="619" y="-142.5" font-family="Helvetica,sans-Serif" font-size="10.00">std::unique_ptr&lt; T &gt;</text>
</a>
</g>
</g>
<!-- Node12&#45;&gt;Node22 -->
<g id="edge25" class="edge">
<title>Node12&#45;&gt;Node22</title>
<path fill="none" stroke="#9a32cd" stroke-dasharray="5,2" d="M39.18,-227.62C126.37,-215.17 431.16,-171.67 559.9,-153.29"/>
<polygon fill="#9a32cd" stroke="#9a32cd" points="38.62,-224.16 29.22,-229.04 39.61,-231.09 38.62,-224.16"/>
<text text-anchor="middle" x="177" y="-219" font-family="Helvetica,sans-Serif" font-size="10.00"> ptr</text>
</g>
<!-- Node25 -->
<g id="node25" class="node">
<title>Node25</title>
<g id="a_node25"><a xlink:title="STL class.">
<polygon fill="white" stroke="#bfbfbf" points="128.5,-97.5 128.5,-116.5 225.5,-116.5 225.5,-97.5 128.5,-97.5"/>
<text text-anchor="middle" x="177" y="-104.5" font-family="Helvetica,sans-Serif" font-size="10.00">std::vector&lt; T &gt;</text>
</a>
</g>
</g>
<!-- Node12&#45;&gt;Node25 -->
<g id="edge29" class="edge">
<title>Node12&#45;&gt;Node25</title>
<path fill="none" stroke="#9a32cd" stroke-dasharray="5,2" d="M22.16,-211.95C27.34,-199.35 35.58,-183.16 47,-172 74.9,-144.75 116.5,-126.62 144.87,-116.59"/>
<polygon fill="#9a32cd" stroke="#9a32cd" points="18.81,-210.91 18.52,-221.5 25.35,-213.4 18.81,-210.91"/>
<text text-anchor="middle" x="71.5" y="-175" font-family="Helvetica,sans-Serif" font-size="10.00"> elements</text>
</g>
<!-- Node13 -->
<g id="node13" class="node">
<title>Node13</title>
<g id="a_node13"><a xlink:title="STL class.">
<polygon fill="white" stroke="#bfbfbf" points="419.5,-291.5 419.5,-310.5 484.5,-310.5 484.5,-291.5 419.5,-291.5"/>
<text text-anchor="middle" x="452" y="-298.5" font-family="Helvetica,sans-Serif" font-size="10.00">std::string</text>
</a>
</g>
</g>
<!-- Node13&#45;&gt;Node8 -->
<g id="edge13" class="edge">
<title>Node13&#45;&gt;Node8</title>
<path fill="none" stroke="#9a32cd" stroke-dasharray="5,2" d="M494.91,-305.03C543.71,-309.79 626.74,-318.05 698,-326 705.05,-326.79 712.39,-327.63 719.73,-328.49"/>
<polygon fill="#9a32cd" stroke="#9a32cd" points="495.03,-301.53 484.74,-304.04 494.35,-308.5 495.03,-301.53"/>
<text text-anchor="middle" x="619" y="-329" font-family="Helvetica,sans-Serif" font-size="10.00"> m_Name</text>
</g>
<!-- Node14 -->
<g id="node14" class="node">
<title>Node14</title>
<g id="a_node14"><a xlink:title="STL class.">
<polygon fill="white" stroke="#bfbfbf" points="125,-286 125,-316 229,-316 229,-286 125,-286"/>
<text text-anchor="start" x="133" y="-304" font-family="Helvetica,sans-Serif" font-size="10.00">std::basic_string&lt;</text>
<text text-anchor="middle" x="177" y="-293" font-family="Helvetica,sans-Serif" font-size="10.00"> char &gt;</text>
</a>
</g>
</g>
<!-- Node14&#45;&gt;Node13 -->
<g id="edge14" class="edge">
<title>Node14&#45;&gt;Node13</title>
<path fill="none" stroke="midnightblue" d="M239.16,-301C295.05,-301 375.46,-301 419.39,-301"/>
<polygon fill="midnightblue" stroke="midnightblue" points="239.03,-297.5 229.03,-301 239.03,-304.5 239.03,-297.5"/>
</g>
<!-- Node15&#45;&gt;Node5 -->
<g id="edge15" class="edge">
<title>Node15&#45;&gt;Node5</title>
<path fill="none" stroke="orange" stroke-dasharray="5,2" d="M361.91,-257.77C583.26,-265.62 1478.15,-297.37 1769.98,-307.72"/>
<polygon fill="orange" stroke="orange" points="362,-254.27 351.89,-257.41 361.75,-261.27 362,-254.27"/>
<text text-anchor="start" x="898" y="-295" font-family="Helvetica,sans-Serif" font-size="10.00"> &lt; itk::simple::ProcessObject</text>
<text text-anchor="middle" x="969" y="-284" font-family="Helvetica,sans-Serif" font-size="10.00">::EventCommand &gt;</text>
</g>
<!-- Node16 -->
<g id="node16" class="node">
<title>Node16</title>
<g id="a_node16"><a xlink:title=" ">
<polygon fill="white" stroke="#bfbfbf" points="2405,-77.5 2405,-118.5 2595,-118.5 2595,-77.5 2405,-77.5"/>
<text text-anchor="start" x="2413" y="-106.5" font-family="Helvetica,sans-Serif" font-size="10.00">std::unique_ptr&lt; itk</text>
<text text-anchor="start" x="2413" y="-95.5" font-family="Helvetica,sans-Serif" font-size="10.00">::simple::detail::MemberFunction</text>
<text text-anchor="middle" x="2500" y="-84.5" font-family="Helvetica,sans-Serif" font-size="10.00">Factory&lt; MemberFunctionType &gt; &gt;</text>
</a>
</g>
</g>
<!-- Node16&#45;&gt;Node1 -->
<g id="edge17" class="edge">
<title>Node16&#45;&gt;Node1</title>
<path fill="none" stroke="#9a32cd" stroke-dasharray="5,2" d="M2605.22,-86.13C2644.63,-81.64 2688.67,-76.62 2724.84,-72.5"/>
<polygon fill="#9a32cd" stroke="#9a32cd" points="2604.58,-82.68 2595.04,-87.29 2605.37,-89.63 2604.58,-82.68"/>
<text text-anchor="middle" x="2660" y="-89" font-family="Helvetica,sans-Serif" font-size="10.00"> m_MemberFactory</text>
</g>
<!-- Node17 -->
<g id="node17" class="node">
<title>Node17</title>
<g id="a_node17"><a xlink:href="classitk_1_1simple_1_1detail_1_1MemberFunctionFactory.html" target="_top" xlink:title=" ">
<polygon fill="white" stroke="black" points="2133,-155.5 2133,-196.5 2276,-196.5 2276,-155.5 2133,-155.5"/>
<text text-anchor="start" x="2141" y="-184.5" font-family="Helvetica,sans-Serif" font-size="10.00">itk::simple::detail</text>
<text text-anchor="start" x="2141" y="-173.5" font-family="Helvetica,sans-Serif" font-size="10.00">::MemberFunctionFactory</text>
<text text-anchor="middle" x="2204.5" y="-162.5" font-family="Helvetica,sans-Serif" font-size="10.00">&lt; MemberFunctionType &gt;</text>
</a>
</g>
</g>
<!-- Node17&#45;&gt;Node16 -->
<g id="edge18" class="edge">
<title>Node17&#45;&gt;Node16</title>
<path fill="none" stroke="#9a32cd" stroke-dasharray="5,2" d="M2285.89,-154.64C2328.21,-143.39 2379.87,-129.66 2421.73,-118.54"/>
<polygon fill="#9a32cd" stroke="#9a32cd" points="2284.94,-151.27 2276.17,-157.22 2286.74,-158.03 2284.94,-151.27"/>
<text text-anchor="middle" x="2345.5" y="-152" font-family="Helvetica,sans-Serif" font-size="10.00"> ptr</text>
</g>
<!-- Node18 -->
<g id="node18" class="node">
<title>Node18</title>
<g id="a_node18"><a xlink:href="classitk_1_1simple_1_1detail_1_1MemberFunctionFactoryBase.html" target="_top" xlink:title=" ">
<polygon fill="white" stroke="black" points="1588,-202 1588,-254 1752,-254 1752,-202 1588,-202"/>
<text text-anchor="start" x="1596" y="-242" font-family="Helvetica,sans-Serif" font-size="10.00">itk::simple::detail</text>
<text text-anchor="start" x="1596" y="-231" font-family="Helvetica,sans-Serif" font-size="10.00">::MemberFunctionFactoryBase</text>
<text text-anchor="start" x="1596" y="-220" font-family="Helvetica,sans-Serif" font-size="10.00">&lt; MemberFunctionType, std</text>
<text text-anchor="middle" x="1670" y="-209" font-family="Helvetica,sans-Serif" font-size="10.00">::pair&lt; unsigned int, int &gt; &gt;</text>
</a>
</g>
</g>
<!-- Node18&#45;&gt;Node17 -->
<g id="edge19" class="edge">
<title>Node18&#45;&gt;Node17</title>
<path fill="none" stroke="darkgreen" d="M1762.62,-222.38C1850.61,-216.47 1987.19,-205.93 2105,-191 2114.01,-189.86 2123.47,-188.55 2132.81,-187.2"/>
<polygon fill="darkgreen" stroke="darkgreen" points="1762.14,-218.9 1752.4,-223.06 1762.61,-225.89 1762.14,-218.9"/>
</g>
<!-- Node19 -->
<g id="node19" class="node">
<title>Node19</title>
<g id="a_node19"><a xlink:href="classitk_1_1simple_1_1detail_1_1MemberFunctionFactoryBase.html" target="_top" xlink:title="A base class for the MemberFunctionFactory.">
<polygon fill="white" stroke="black" points="1058,-188 1058,-218 1222,-218 1222,-188 1058,-188"/>
<text text-anchor="start" x="1066" y="-206" font-family="Helvetica,sans-Serif" font-size="10.00">itk::simple::detail</text>
<text text-anchor="middle" x="1140" y="-195" font-family="Helvetica,sans-Serif" font-size="10.00">::MemberFunctionFactoryBase</text>
</a>
</g>
</g>
<!-- Node19&#45;&gt;Node18 -->
<g id="edge20" class="edge">
<title>Node19&#45;&gt;Node18</title>
<path fill="none" stroke="orange" stroke-dasharray="5,2" d="M1232.23,-208.58C1234.85,-208.73 1237.44,-208.87 1240,-209 1361.17,-215.35 1501.66,-221.31 1587.93,-224.8"/>
<polygon fill="orange" stroke="orange" points="1232.21,-205.08 1222.04,-208.02 1231.83,-212.07 1232.21,-205.08"/>
<text text-anchor="start" x="1249" y="-240" font-family="Helvetica,sans-Serif" font-size="10.00"> &lt; MemberFunctionType,</text>
<text text-anchor="start" x="1249" y="-229" font-family="Helvetica,sans-Serif" font-size="10.00"> std::pair&lt; unsigned</text>
<text text-anchor="middle" x="1310" y="-218" font-family="Helvetica,sans-Serif" font-size="10.00"> int, int &gt; &gt;</text>
</g>
<!-- Node21 -->
<g id="node21" class="node">
<title>Node21</title>
<g id="a_node21"><a xlink:href="classitk_1_1simple_1_1detail_1_1MemberFunctionFactoryBase.html" target="_top" xlink:title=" ">
<polygon fill="white" stroke="black" points="1398,-150 1398,-202 1570,-202 1570,-150 1398,-150"/>
<text text-anchor="start" x="1406" y="-190" font-family="Helvetica,sans-Serif" font-size="10.00">itk::simple::detail</text>
<text text-anchor="start" x="1406" y="-179" font-family="Helvetica,sans-Serif" font-size="10.00">::MemberFunctionFactoryBase</text>
<text text-anchor="start" x="1406" y="-168" font-family="Helvetica,sans-Serif" font-size="10.00">&lt; TMemberFunctionPointer,</text>
<text text-anchor="middle" x="1484" y="-157" font-family="Helvetica,sans-Serif" font-size="10.00"> std::pair&lt; unsigned int, int &gt; &gt;</text>
</a>
</g>
</g>
<!-- Node19&#45;&gt;Node21 -->
<g id="edge23" class="edge">
<title>Node19&#45;&gt;Node21</title>
<path fill="none" stroke="orange" stroke-dasharray="5,2" d="M1196.35,-185.12C1210.43,-181.34 1225.65,-177.92 1240,-176 1292.06,-169.03 1350.96,-168.84 1397.73,-170.48"/>
<polygon fill="orange" stroke="orange" points="1195.01,-181.86 1186.32,-187.92 1196.89,-188.6 1195.01,-181.86"/>
<text text-anchor="start" x="1240" y="-201" font-family="Helvetica,sans-Serif" font-size="10.00"> &lt; TMemberFunctionPointer,</text>
<text text-anchor="start" x="1240" y="-190" font-family="Helvetica,sans-Serif" font-size="10.00"> std::pair&lt; unsigned int,</text>
<text text-anchor="middle" x="1310" y="-179" font-family="Helvetica,sans-Serif" font-size="10.00"> int &gt; &gt;</text>
</g>
<!-- Node20 -->
<g id="node20" class="node">
<title>Node20</title>
<g id="a_node20"><a xlink:href="classitk_1_1simple_1_1detail_1_1MemberFunctionFactory.html" target="_top" xlink:title="A class used to instantiate and generate function object to templated member functions.">
<polygon fill="white" stroke="black" points="1783,-155.5 1783,-196.5 1944,-196.5 1944,-155.5 1783,-155.5"/>
<text text-anchor="start" x="1791" y="-184.5" font-family="Helvetica,sans-Serif" font-size="10.00">itk::simple::detail</text>
<text text-anchor="start" x="1791" y="-173.5" font-family="Helvetica,sans-Serif" font-size="10.00">::MemberFunctionFactory</text>
<text text-anchor="middle" x="1863.5" y="-162.5" font-family="Helvetica,sans-Serif" font-size="10.00">&lt; TMemberFunctionPointer &gt;</text>
</a>
</g>
</g>
<!-- Node20&#45;&gt;Node17 -->
<g id="edge21" class="edge">
<title>Node20&#45;&gt;Node17</title>
<path fill="none" stroke="orange" stroke-dasharray="5,2" d="M1954.64,-176C2010.43,-176 2081.02,-176 2132.76,-176"/>
<polygon fill="orange" stroke="orange" points="1954.41,-172.5 1944.41,-176 1954.41,-179.5 1954.41,-172.5"/>
<text text-anchor="middle" x="2040" y="-179" font-family="Helvetica,sans-Serif" font-size="10.00"> &lt; MemberFunctionType &gt;</text>
</g>
<!-- Node21&#45;&gt;Node20 -->
<g id="edge22" class="edge">
<title>Node21&#45;&gt;Node20</title>
<path fill="none" stroke="darkgreen" d="M1580.45,-176C1642.96,-176 1723.71,-176 1782.78,-176"/>
<polygon fill="darkgreen" stroke="darkgreen" points="1580.19,-172.5 1570.19,-176 1580.19,-179.5 1580.19,-172.5"/>
</g>
<!-- Node22&#45;&gt;Node16 -->
<g id="edge24" class="edge">
<title>Node22&#45;&gt;Node16</title>
<path fill="none" stroke="orange" stroke-dasharray="5,2" d="M672.63,-133.41C740.53,-119.49 862.46,-98 968,-98 968,-98 968,-98 2205.5,-98 2272.12,-98 2347.25,-98 2404.82,-98"/>
<polygon fill="orange" stroke="orange" points="671.69,-130.03 662.61,-135.49 673.11,-136.88 671.69,-130.03"/>
<text text-anchor="start" x="1414.5" y="-123" font-family="Helvetica,sans-Serif" font-size="10.00"> &lt; itk::simple::detail</text>
<text text-anchor="start" x="1414.5" y="-112" font-family="Helvetica,sans-Serif" font-size="10.00">::MemberFunctionFactory</text>
<text text-anchor="middle" x="1484" y="-101" font-family="Helvetica,sans-Serif" font-size="10.00">&lt; MemberFunctionType &gt; &gt;</text>
</g>
<!-- Node23 -->
<g id="node23" class="node">
<title>Node23</title>
<g id="a_node23"><a xlink:title=" ">
<polygon fill="white" stroke="#bfbfbf" points="732.5,-36 732.5,-66 863.5,-66 863.5,-36 732.5,-36"/>
<text text-anchor="start" x="740.5" y="-54" font-family="Helvetica,sans-Serif" font-size="10.00">std::vector&lt; std::vector</text>
<text text-anchor="middle" x="798" y="-43" font-family="Helvetica,sans-Serif" font-size="10.00">&lt; unsigned int &gt; &gt;</text>
</a>
</g>
</g>
<!-- Node23&#45;&gt;Node1 -->
<g id="edge26" class="edge">
<title>Node23&#45;&gt;Node1</title>
<path fill="none" stroke="#9a32cd" stroke-dasharray="5,2" d="M873.86,-49.96C942.75,-49.09 1047.76,-48 1139,-48 1139,-48 1139,-48 2501,-48 2577.29,-48 2664.39,-53.28 2724.73,-57.77"/>
<polygon fill="#9a32cd" stroke="#9a32cd" points="873.5,-46.46 863.55,-50.09 873.59,-53.46 873.5,-46.46"/>
<text text-anchor="middle" x="1863.5" y="-62" font-family="Helvetica,sans-Serif" font-size="10.00"> m_TargetPoints</text>
<text text-anchor="middle" x="1863.5" y="-51" font-family="Helvetica,sans-Serif" font-size="10.00">m_TrialPoints</text>
</g>
<!-- Node24 -->
<g id="node24" class="node">
<title>Node24</title>
<g id="a_node24"><a xlink:title=" ">
<polygon fill="white" stroke="#bfbfbf" points="390,-92 390,-122 514,-122 514,-92 390,-92"/>
<text text-anchor="start" x="398" y="-110" font-family="Helvetica,sans-Serif" font-size="10.00">std::vector&lt; unsigned</text>
<text text-anchor="middle" x="452" y="-99" font-family="Helvetica,sans-Serif" font-size="10.00"> int &gt;</text>
</a>
</g>
</g>
<!-- Node24&#45;&gt;Node23 -->
<g id="edge27" class="edge">
<title>Node24&#45;&gt;Node23</title>
<path fill="none" stroke="#9a32cd" stroke-dasharray="5,2" d="M524.08,-95.43C585.35,-85.45 673.06,-71.18 732.38,-61.52"/>
<polygon fill="#9a32cd" stroke="#9a32cd" points="523.41,-91.99 514.1,-97.05 524.54,-98.9 523.41,-91.99"/>
<text text-anchor="middle" x="619" y="-95" font-family="Helvetica,sans-Serif" font-size="10.00"> elements</text>
</g>
<!-- Node25&#45;&gt;Node23 -->
<g id="edge30" class="edge">
<title>Node25&#45;&gt;Node23</title>
<path fill="none" stroke="orange" stroke-dasharray="5,2" d="M219.77,-94.73C260.69,-83.34 325.03,-67.1 382,-60 505.18,-44.64 650.48,-45.87 732.36,-48.33"/>
<polygon fill="orange" stroke="orange" points="218.82,-91.36 210.14,-97.44 220.71,-98.1 218.82,-91.36"/>
<text text-anchor="start" x="391" y="-74" font-family="Helvetica,sans-Serif" font-size="10.00"> &lt; std::vector&lt; unsigned</text>
<text text-anchor="middle" x="452" y="-63" font-family="Helvetica,sans-Serif" font-size="10.00"> int &gt; &gt;</text>
</g>
<!-- Node25&#45;&gt;Node24 -->
<g id="edge28" class="edge">
<title>Node25&#45;&gt;Node24</title>
<path fill="none" stroke="orange" stroke-dasharray="5,2" d="M235.77,-107C280.94,-107 343.57,-107 389.63,-107"/>
<polygon fill="orange" stroke="orange" points="235.55,-103.5 225.55,-107 235.55,-110.5 235.55,-103.5"/>
<text text-anchor="middle" x="311" y="-110" font-family="Helvetica,sans-Serif" font-size="10.00"> &lt; unsigned int &gt;</text>
</g>
<!-- Node26 -->
<g id="node26" class="node">
<title>Node26</title>
<g id="a_node26"><a xlink:href="classitk_1_1simple_1_1Image.html" target="_top" xlink:title="The Image class for SimpleITK.">
<polygon fill="white" stroke="black" points="2447.5,-0.5 2447.5,-19.5 2552.5,-19.5 2552.5,-0.5 2447.5,-0.5"/>
<text text-anchor="middle" x="2500" y="-7.5" font-family="Helvetica,sans-Serif" font-size="10.00">itk::simple::Image</text>
</a>
</g>
</g>
<!-- Node26&#45;&gt;Node1 -->
<g id="edge31" class="edge">
<title>Node26&#45;&gt;Node1</title>
<path fill="none" stroke="#9a32cd" stroke-dasharray="5,2" d="M2562.75,-8.25C2604.13,-8.45 2659.51,-11.37 2707,-23 2730.03,-28.64 2754.5,-39.73 2772.48,-48.96"/>
<polygon fill="#9a32cd" stroke="#9a32cd" points="2562.55,-4.75 2552.55,-8.25 2562.55,-11.75 2562.55,-4.75"/>
<text text-anchor="middle" x="2660" y="-26" font-family="Helvetica,sans-Serif" font-size="10.00"> m_GradientImage</text>
</g>
<!-- Node27 -->
<g id="node27" class="node">
<title>Node27</title>
<g id="a_node27"><a xlink:href="classitk_1_1simple_1_1PimpleImageBase.html" target="_top" xlink:title="Private implementation idiom image base class.">
<polygon fill="white" stroke="black" points="2123,-0.5 2123,-19.5 2286,-19.5 2286,-0.5 2123,-0.5"/>
<text text-anchor="middle" x="2204.5" y="-7.5" font-family="Helvetica,sans-Serif" font-size="10.00">itk::simple::PimpleImageBase</text>
</a>
</g>
</g>
<!-- Node27&#45;&gt;Node26 -->
<g id="edge32" class="edge">
<title>Node27&#45;&gt;Node26</title>
<path fill="none" stroke="#9a32cd" stroke-dasharray="5,2" d="M2296.19,-10C2345.82,-10 2405.51,-10 2447.24,-10"/>
<polygon fill="#9a32cd" stroke="#9a32cd" points="2296.09,-6.5 2286.09,-10 2296.09,-13.5 2296.09,-6.5"/>
<text text-anchor="middle" x="2345.5" y="-13" font-family="Helvetica,sans-Serif" font-size="10.00"> m_PimpleImage</text>
</g>
</g>
</svg>
