<?xml version="1.0" encoding="UTF-8" standalone="no"?>
<!DOCTYPE svg PUBLIC "-//W3C//DTD SVG 1.1//EN"
 "http://www.w3.org/Graphics/SVG/1.1/DTD/svg11.dtd">
<!-- Generated by graphviz version 2.43.0 (0)
 -->
<!-- Title: itk::simple::LabelIntensityStatisticsImageFilter Pages: 1 -->
<svg width="2865pt" height="411pt"
 viewBox="0.00 0.00 2865.00 411.00" xmlns="http://www.w3.org/2000/svg" xmlns:xlink="http://www.w3.org/1999/xlink">
<g id="graph0" class="graph" transform="scale(1 1) rotate(0) translate(4 407)">
<title>itk::simple::LabelIntensityStatisticsImageFilter</title>
<polygon fill="white" stroke="transparent" points="-4,4 -4,-407 2861,-407 2861,4 -4,4"/>
<!-- Node1 -->
<g id="node1" class="node">
<title>Node1</title>
<g id="a_node1"><a xlink:title="a convenient class to convert a label image to a label map and valuate the statistics attributes at o...">
<polygon fill="#bfbfbf" stroke="black" points="2714,-204 2714,-234 2857,-234 2857,-204 2714,-204"/>
<text text-anchor="start" x="2722" y="-222" font-family="Helvetica,sans-Serif" font-size="10.00">itk::simple::LabelIntensity</text>
<text text-anchor="middle" x="2785.5" y="-211" font-family="Helvetica,sans-Serif" font-size="10.00">StatisticsImageFilter</text>
</a>
</g>
</g>
<!-- Node2 -->
<g id="node2" class="node">
<title>Node2</title>
<g id="a_node2"><a xlink:href="classitk_1_1simple_1_1ImageFilter.html" target="_top" xlink:title="The base interface for SimpleITK filters that take one input image.">
<polygon fill="white" stroke="black" points="2380.5,-258.5 2380.5,-277.5 2510.5,-277.5 2510.5,-258.5 2380.5,-258.5"/>
<text text-anchor="middle" x="2445.5" y="-265.5" font-family="Helvetica,sans-Serif" font-size="10.00">itk::simple::ImageFilter</text>
</a>
</g>
</g>
<!-- Node2&#45;&gt;Node1 -->
<g id="edge1" class="edge">
<title>Node2&#45;&gt;Node1</title>
<path fill="none" stroke="midnightblue" d="M2520.65,-257.94C2570.31,-251.13 2637.11,-241.79 2696,-233 2701.85,-232.13 2707.91,-231.21 2713.99,-230.27"/>
<polygon fill="midnightblue" stroke="midnightblue" points="2520.08,-254.49 2510.64,-259.32 2521.03,-261.43 2520.08,-254.49"/>
</g>
<!-- Node3 -->
<g id="node3" class="node">
<title>Node3</title>
<g id="a_node3"><a xlink:href="classitk_1_1simple_1_1ProcessObject.html" target="_top" xlink:title="Base class for SimpleITK classes based on ProcessObject.">
<polygon fill="white" stroke="black" points="2124.5,-260.5 2124.5,-279.5 2267.5,-279.5 2267.5,-260.5 2124.5,-260.5"/>
<text text-anchor="middle" x="2196" y="-267.5" font-family="Helvetica,sans-Serif" font-size="10.00">itk::simple::ProcessObject</text>
</a>
</g>
</g>
<!-- Node3&#45;&gt;Node2 -->
<g id="edge2" class="edge">
<title>Node3&#45;&gt;Node2</title>
<path fill="none" stroke="midnightblue" d="M2277.73,-269.35C2310.95,-269.08 2348.88,-268.77 2380.16,-268.52"/>
<polygon fill="midnightblue" stroke="midnightblue" points="2277.56,-265.85 2267.59,-269.43 2277.62,-272.85 2277.56,-265.85"/>
</g>
<!-- Node4 -->
<g id="node4" class="node">
<title>Node4</title>
<g id="a_node4"><a xlink:href="classitk_1_1simple_1_1NonCopyable.html" target="_top" xlink:title="An inheritable class to disable copying of a class.">
<polygon fill="white" stroke="black" points="382,-383.5 382,-402.5 522,-402.5 522,-383.5 382,-383.5"/>
<text text-anchor="middle" x="452" y="-390.5" font-family="Helvetica,sans-Serif" font-size="10.00">itk::simple::NonCopyable</text>
</a>
</g>
</g>
<!-- Node4&#45;&gt;Node3 -->
<g id="edge3" class="edge">
<title>Node4&#45;&gt;Node3</title>
<path fill="none" stroke="darkgreen" d="M532.21,-392.64C601.94,-392.35 706.21,-392 797,-392 797,-392 797,-392 1856.5,-392 1988.93,-392 2134.16,-308.33 2180.17,-279.57"/>
<polygon fill="darkgreen" stroke="darkgreen" points="532.17,-389.14 522.18,-392.68 532.2,-396.14 532.17,-389.14"/>
</g>
<!-- Node8 -->
<g id="node8" class="node">
<title>Node8</title>
<g id="a_node8"><a xlink:href="classitk_1_1simple_1_1ObjectOwnedBase.html" target="_top" xlink:title="An abstract base class to connect this object with the lifetime of another.">
<polygon fill="white" stroke="black" points="716,-314.5 716,-333.5 880,-333.5 880,-314.5 716,-314.5"/>
<text text-anchor="middle" x="798" y="-321.5" font-family="Helvetica,sans-Serif" font-size="10.00">itk::simple::ObjectOwnedBase</text>
</a>
</g>
</g>
<!-- Node4&#45;&gt;Node8 -->
<g id="edge8" class="edge">
<title>Node4&#45;&gt;Node8</title>
<path fill="none" stroke="midnightblue" d="M527.09,-381.93C586.97,-372.79 666.32,-360.2 698,-353 721.75,-347.6 748.21,-339.76 767.79,-333.59"/>
<polygon fill="midnightblue" stroke="midnightblue" points="526.27,-378.52 516.91,-383.48 527.32,-385.44 526.27,-378.52"/>
</g>
<!-- Node5 -->
<g id="node5" class="node">
<title>Node5</title>
<g id="a_node5"><a xlink:title=" ">
<polygon fill="white" stroke="#bfbfbf" points="1762,-255 1762,-285 1949,-285 1949,-255 1762,-255"/>
<text text-anchor="start" x="1770" y="-273" font-family="Helvetica,sans-Serif" font-size="10.00">std::list&lt; itk::simple</text>
<text text-anchor="middle" x="1855.5" y="-262" font-family="Helvetica,sans-Serif" font-size="10.00">::ProcessObject::EventCommand &gt;</text>
</a>
</g>
</g>
<!-- Node5&#45;&gt;Node3 -->
<g id="edge4" class="edge">
<title>Node5&#45;&gt;Node3</title>
<path fill="none" stroke="#9a32cd" stroke-dasharray="5,2" d="M1959.61,-270C2012.91,-270 2076.6,-270 2124.28,-270"/>
<polygon fill="#9a32cd" stroke="#9a32cd" points="1959.44,-266.5 1949.44,-270 1959.44,-273.5 1959.44,-266.5"/>
<text text-anchor="middle" x="2032" y="-273" font-family="Helvetica,sans-Serif" font-size="10.00"> m_Commands</text>
</g>
<!-- Node6 -->
<g id="node6" class="node">
<title>Node6</title>
<g id="a_node6"><a xlink:href="structitk_1_1simple_1_1ProcessObject_1_1EventCommand.html" target="_top" xlink:title=" ">
<polygon fill="white" stroke="black" points="1408.5,-299 1408.5,-329 1551.5,-329 1551.5,-299 1408.5,-299"/>
<text text-anchor="start" x="1416.5" y="-317" font-family="Helvetica,sans-Serif" font-size="10.00">itk::simple::ProcessObject</text>
<text text-anchor="middle" x="1480" y="-306" font-family="Helvetica,sans-Serif" font-size="10.00">::EventCommand</text>
</a>
</g>
</g>
<!-- Node6&#45;&gt;Node5 -->
<g id="edge5" class="edge">
<title>Node6&#45;&gt;Node5</title>
<path fill="none" stroke="#9a32cd" stroke-dasharray="5,2" d="M1561.69,-304.49C1620.53,-297.56 1700.38,-288.16 1761.84,-280.92"/>
<polygon fill="#9a32cd" stroke="#9a32cd" points="1561.21,-301.03 1551.69,-305.67 1562.03,-307.98 1561.21,-301.03"/>
<text text-anchor="middle" x="1662" y="-306" font-family="Helvetica,sans-Serif" font-size="10.00"> elements</text>
</g>
<!-- Node7 -->
<g id="node7" class="node">
<title>Node7</title>
<g id="a_node7"><a xlink:href="classitk_1_1simple_1_1Command.html" target="_top" xlink:title="An implementation of the Command design pattern for callback.">
<polygon fill="white" stroke="black" points="1077.5,-310.5 1077.5,-329.5 1202.5,-329.5 1202.5,-310.5 1077.5,-310.5"/>
<text text-anchor="middle" x="1140" y="-317.5" font-family="Helvetica,sans-Serif" font-size="10.00">itk::simple::Command</text>
</a>
</g>
</g>
<!-- Node7&#45;&gt;Node6 -->
<g id="edge6" class="edge">
<title>Node7&#45;&gt;Node6</title>
<path fill="none" stroke="#9a32cd" stroke-dasharray="5,2" d="M1212.74,-318.73C1270.44,-317.7 1351.09,-316.27 1408.47,-315.25"/>
<polygon fill="#9a32cd" stroke="#9a32cd" points="1212.54,-315.23 1202.6,-318.91 1212.66,-322.23 1212.54,-315.23"/>
<text text-anchor="middle" x="1310" y="-322" font-family="Helvetica,sans-Serif" font-size="10.00"> m_Command</text>
</g>
<!-- Node8&#45;&gt;Node7 -->
<g id="edge7" class="edge">
<title>Node8&#45;&gt;Node7</title>
<path fill="none" stroke="midnightblue" d="M890.13,-322.93C949.45,-322.23 1025.23,-321.34 1077.5,-320.72"/>
<polygon fill="midnightblue" stroke="midnightblue" points="889.96,-319.43 880.01,-323.05 890.05,-326.43 889.96,-319.43"/>
</g>
<!-- Node9 -->
<g id="node9" class="node">
<title>Node9</title>
<g id="a_node9"><a xlink:title=" ">
<polygon fill="white" stroke="#bfbfbf" points="387.5,-285.5 387.5,-326.5 516.5,-326.5 516.5,-285.5 387.5,-285.5"/>
<text text-anchor="start" x="395.5" y="-314.5" font-family="Helvetica,sans-Serif" font-size="10.00">std::multimap&lt; itk</text>
<text text-anchor="start" x="395.5" y="-303.5" font-family="Helvetica,sans-Serif" font-size="10.00">::Object *, std::function</text>
<text text-anchor="middle" x="452" y="-292.5" font-family="Helvetica,sans-Serif" font-size="10.00">&lt; void()&gt; &gt;</text>
</a>
</g>
</g>
<!-- Node9&#45;&gt;Node8 -->
<g id="edge9" class="edge">
<title>Node9&#45;&gt;Node8</title>
<path fill="none" stroke="#9a32cd" stroke-dasharray="5,2" d="M526.71,-303.69C575.42,-302.88 640.62,-303.16 698,-308 714.22,-309.37 731.8,-311.87 747.58,-314.5"/>
<polygon fill="#9a32cd" stroke="#9a32cd" points="526.51,-300.19 516.58,-303.88 526.64,-307.19 526.51,-300.19"/>
<text text-anchor="middle" x="619" y="-311" font-family="Helvetica,sans-Serif" font-size="10.00"> m_ReferencedObjectsCallbacks</text>
</g>
<!-- Node10 -->
<g id="node10" class="node">
<title>Node10</title>
<g id="a_node10"><a xlink:title="STL class.">
<polygon fill="white" stroke="#bfbfbf" points="114,-296.5 114,-315.5 240,-315.5 240,-296.5 114,-296.5"/>
<text text-anchor="middle" x="177" y="-303.5" font-family="Helvetica,sans-Serif" font-size="10.00">std::multimap&lt; K, T &gt;</text>
</a>
</g>
</g>
<!-- Node10&#45;&gt;Node9 -->
<g id="edge10" class="edge">
<title>Node10&#45;&gt;Node9</title>
<path fill="none" stroke="orange" stroke-dasharray="5,2" d="M250.3,-306C292.82,-306 346.1,-306 387.08,-306"/>
<polygon fill="orange" stroke="orange" points="250.29,-302.5 240.29,-306 250.29,-309.5 250.29,-302.5"/>
<text text-anchor="start" x="258" y="-320" font-family="Helvetica,sans-Serif" font-size="10.00"> &lt; itk::Object *, std</text>
<text text-anchor="middle" x="311" y="-309" font-family="Helvetica,sans-Serif" font-size="10.00">::function&lt; void()&gt; &gt;</text>
</g>
<!-- Node11 -->
<g id="node11" class="node">
<title>Node11</title>
<g id="a_node11"><a xlink:title=" ">
<polygon fill="white" stroke="#bfbfbf" points="0,-314.5 0,-333.5 29,-333.5 29,-314.5 0,-314.5"/>
<text text-anchor="middle" x="14.5" y="-321.5" font-family="Helvetica,sans-Serif" font-size="10.00">K</text>
</a>
</g>
</g>
<!-- Node11&#45;&gt;Node10 -->
<g id="edge11" class="edge">
<title>Node11&#45;&gt;Node10</title>
<path fill="none" stroke="#9a32cd" stroke-dasharray="5,2" d="M39.34,-321.33C58.97,-319.13 87.71,-315.9 113.77,-312.98"/>
<polygon fill="#9a32cd" stroke="#9a32cd" points="38.73,-317.87 29.18,-322.47 39.51,-324.83 38.73,-317.87"/>
<text text-anchor="middle" x="71.5" y="-324" font-family="Helvetica,sans-Serif" font-size="10.00"> keys</text>
</g>
<!-- Node12 -->
<g id="node12" class="node">
<title>Node12</title>
<g id="a_node12"><a xlink:title=" ">
<polygon fill="white" stroke="#bfbfbf" points="0,-229.5 0,-248.5 29,-248.5 29,-229.5 0,-229.5"/>
<text text-anchor="middle" x="14.5" y="-236.5" font-family="Helvetica,sans-Serif" font-size="10.00">T</text>
</a>
</g>
</g>
<!-- Node12&#45;&gt;Node10 -->
<g id="edge12" class="edge">
<title>Node12&#45;&gt;Node10</title>
<path fill="none" stroke="#9a32cd" stroke-dasharray="5,2" d="M30.97,-255.85C35.76,-260.3 41.28,-264.76 47,-268 70.77,-281.46 99.76,-290.56 124.23,-296.46"/>
<polygon fill="#9a32cd" stroke="#9a32cd" points="33.26,-253.19 23.72,-248.58 28.31,-258.13 33.26,-253.19"/>
<text text-anchor="middle" x="71.5" y="-292" font-family="Helvetica,sans-Serif" font-size="10.00"> elements</text>
</g>
<!-- Node15 -->
<g id="node15" class="node">
<title>Node15</title>
<g id="a_node15"><a xlink:title="STL class.">
<polygon fill="white" stroke="#bfbfbf" points="270.5,-247.5 270.5,-266.5 351.5,-266.5 351.5,-247.5 270.5,-247.5"/>
<text text-anchor="middle" x="311" y="-254.5" font-family="Helvetica,sans-Serif" font-size="10.00">std::list&lt; T &gt;</text>
</a>
</g>
</g>
<!-- Node12&#45;&gt;Node15 -->
<g id="edge16" class="edge">
<title>Node12&#45;&gt;Node15</title>
<path fill="none" stroke="#9a32cd" stroke-dasharray="5,2" d="M39.6,-240.47C90.31,-243.57 208.44,-250.79 270.42,-254.58"/>
<polygon fill="#9a32cd" stroke="#9a32cd" points="39.5,-236.96 29.31,-239.84 39.08,-243.95 39.5,-236.96"/>
<text text-anchor="middle" x="71.5" y="-247" font-family="Helvetica,sans-Serif" font-size="10.00"> elements</text>
</g>
<!-- Node22 -->
<g id="node22" class="node">
<title>Node22</title>
<g id="a_node22"><a xlink:title="STL class.">
<polygon fill="white" stroke="#bfbfbf" points="560,-155.5 560,-174.5 678,-174.5 678,-155.5 560,-155.5"/>
<text text-anchor="middle" x="619" y="-162.5" font-family="Helvetica,sans-Serif" font-size="10.00">std::unique_ptr&lt; T &gt;</text>
</a>
</g>
</g>
<!-- Node12&#45;&gt;Node22 -->
<g id="edge25" class="edge">
<title>Node12&#45;&gt;Node22</title>
<path fill="none" stroke="#9a32cd" stroke-dasharray="5,2" d="M32.21,-222.72C36.76,-218.85 41.86,-214.99 47,-212 74.35,-196.11 82.97,-194.12 114,-188 272.98,-156.64 465.39,-158.59 559.89,-162.09"/>
<polygon fill="#9a32cd" stroke="#9a32cd" points="29.79,-220.19 24.73,-229.49 34.49,-225.38 29.79,-220.19"/>
<text text-anchor="middle" x="177" y="-191" font-family="Helvetica,sans-Serif" font-size="10.00"> ptr</text>
</g>
<!-- Node24 -->
<g id="node24" class="node">
<title>Node24</title>
<g id="a_node24"><a xlink:title="STL class.">
<polygon fill="white" stroke="#bfbfbf" points="128.5,-208.5 128.5,-227.5 225.5,-227.5 225.5,-208.5 128.5,-208.5"/>
<text text-anchor="middle" x="177" y="-215.5" font-family="Helvetica,sans-Serif" font-size="10.00">std::vector&lt; T &gt;</text>
</a>
</g>
</g>
<!-- Node12&#45;&gt;Node24 -->
<g id="edge28" class="edge">
<title>Node12&#45;&gt;Node24</title>
<path fill="none" stroke="#9a32cd" stroke-dasharray="5,2" d="M38.32,-226C41.17,-224.8 44.11,-223.75 47,-223 73.36,-216.15 103.75,-214.67 128.42,-215.02"/>
<polygon fill="#9a32cd" stroke="#9a32cd" points="36.57,-222.96 29.1,-230.47 39.62,-229.26 36.57,-222.96"/>
<text text-anchor="middle" x="71.5" y="-226" font-family="Helvetica,sans-Serif" font-size="10.00"> elements</text>
</g>
<!-- Node13 -->
<g id="node13" class="node">
<title>Node13</title>
<g id="a_node13"><a xlink:title="STL class.">
<polygon fill="white" stroke="#bfbfbf" points="419.5,-345.5 419.5,-364.5 484.5,-364.5 484.5,-345.5 419.5,-345.5"/>
<text text-anchor="middle" x="452" y="-352.5" font-family="Helvetica,sans-Serif" font-size="10.00">std::string</text>
</a>
</g>
</g>
<!-- Node13&#45;&gt;Node8 -->
<g id="edge13" class="edge">
<title>Node13&#45;&gt;Node8</title>
<path fill="none" stroke="#9a32cd" stroke-dasharray="5,2" d="M494.79,-348.08C509.1,-345.89 525.22,-343.62 540,-342 598.69,-335.57 665.18,-330.99 715.83,-328.05"/>
<polygon fill="#9a32cd" stroke="#9a32cd" points="494.08,-344.65 484.74,-349.65 495.16,-351.56 494.08,-344.65"/>
<text text-anchor="middle" x="619" y="-345" font-family="Helvetica,sans-Serif" font-size="10.00"> m_Name</text>
</g>
<!-- Node14 -->
<g id="node14" class="node">
<title>Node14</title>
<g id="a_node14"><a xlink:title="STL class.">
<polygon fill="white" stroke="#bfbfbf" points="125,-340 125,-370 229,-370 229,-340 125,-340"/>
<text text-anchor="start" x="133" y="-358" font-family="Helvetica,sans-Serif" font-size="10.00">std::basic_string&lt;</text>
<text text-anchor="middle" x="177" y="-347" font-family="Helvetica,sans-Serif" font-size="10.00"> char &gt;</text>
</a>
</g>
</g>
<!-- Node14&#45;&gt;Node13 -->
<g id="edge14" class="edge">
<title>Node14&#45;&gt;Node13</title>
<path fill="none" stroke="midnightblue" d="M239.16,-355C295.05,-355 375.46,-355 419.39,-355"/>
<polygon fill="midnightblue" stroke="midnightblue" points="239.03,-351.5 229.03,-355 239.03,-358.5 239.03,-351.5"/>
</g>
<!-- Node15&#45;&gt;Node5 -->
<g id="edge15" class="edge">
<title>Node15&#45;&gt;Node5</title>
<path fill="none" stroke="orange" stroke-dasharray="5,2" d="M361.65,-257C422.19,-257 527.6,-257 618,-257 618,-257 618,-257 1481,-257 1576.7,-257 1686.12,-261.32 1761.67,-264.97"/>
<polygon fill="orange" stroke="orange" points="361.61,-253.5 351.61,-257 361.61,-260.5 361.61,-253.5"/>
<text text-anchor="start" x="898" y="-271" font-family="Helvetica,sans-Serif" font-size="10.00"> &lt; itk::simple::ProcessObject</text>
<text text-anchor="middle" x="969" y="-260" font-family="Helvetica,sans-Serif" font-size="10.00">::EventCommand &gt;</text>
</g>
<!-- Node16 -->
<g id="node16" class="node">
<title>Node16</title>
<g id="a_node16"><a xlink:title=" ">
<polygon fill="white" stroke="#bfbfbf" points="2330,-137.5 2330,-178.5 2561,-178.5 2561,-137.5 2330,-137.5"/>
<text text-anchor="start" x="2338" y="-166.5" font-family="Helvetica,sans-Serif" font-size="10.00">std::unique_ptr&lt; itk</text>
<text text-anchor="start" x="2338" y="-155.5" font-family="Helvetica,sans-Serif" font-size="10.00">::simple::detail::DualMember</text>
<text text-anchor="middle" x="2445.5" y="-144.5" font-family="Helvetica,sans-Serif" font-size="10.00">FunctionFactory&lt; MemberFunctionType &gt; &gt;</text>
</a>
</g>
</g>
<!-- Node16&#45;&gt;Node1 -->
<g id="edge17" class="edge">
<title>Node16&#45;&gt;Node1</title>
<path fill="none" stroke="#9a32cd" stroke-dasharray="5,2" d="M2571.11,-172.69C2611.18,-178.29 2655.65,-185.43 2696,-194 2708.96,-196.75 2722.82,-200.35 2735.64,-203.95"/>
<polygon fill="#9a32cd" stroke="#9a32cd" points="2571.4,-169.2 2561.02,-171.3 2570.45,-176.13 2571.4,-169.2"/>
<text text-anchor="middle" x="2637.5" y="-197" font-family="Helvetica,sans-Serif" font-size="10.00"> m_DualMemberFactory</text>
</g>
<!-- Node17 -->
<g id="node17" class="node">
<title>Node17</title>
<g id="a_node17"><a xlink:href="classitk_1_1simple_1_1detail_1_1DualMemberFunctionFactory.html" target="_top" xlink:title=" ">
<polygon fill="white" stroke="black" points="2115,-69.5 2115,-110.5 2277,-110.5 2277,-69.5 2115,-69.5"/>
<text text-anchor="start" x="2123" y="-98.5" font-family="Helvetica,sans-Serif" font-size="10.00">itk::simple::detail</text>
<text text-anchor="start" x="2123" y="-87.5" font-family="Helvetica,sans-Serif" font-size="10.00">::DualMemberFunctionFactory</text>
<text text-anchor="middle" x="2196" y="-76.5" font-family="Helvetica,sans-Serif" font-size="10.00">&lt; MemberFunctionType &gt;</text>
</a>
</g>
</g>
<!-- Node17&#45;&gt;Node16 -->
<g id="edge18" class="edge">
<title>Node17&#45;&gt;Node16</title>
<path fill="none" stroke="#9a32cd" stroke-dasharray="5,2" d="M2281.89,-113.32C2310.46,-121.17 2342.1,-129.87 2369.82,-137.48"/>
<polygon fill="#9a32cd" stroke="#9a32cd" points="2282.5,-109.86 2271.93,-110.59 2280.65,-116.61 2282.5,-109.86"/>
<text text-anchor="middle" x="2303.5" y="-123" font-family="Helvetica,sans-Serif" font-size="10.00"> ptr</text>
</g>
<!-- Node18 -->
<g id="node18" class="node">
<title>Node18</title>
<g id="a_node18"><a xlink:href="classitk_1_1simple_1_1detail_1_1MemberFunctionFactoryBase.html" target="_top" xlink:title=" ">
<polygon fill="white" stroke="black" points="1580,-0.5 1580,-63.5 1744,-63.5 1744,-0.5 1580,-0.5"/>
<text text-anchor="start" x="1588" y="-51.5" font-family="Helvetica,sans-Serif" font-size="10.00">itk::simple::detail</text>
<text text-anchor="start" x="1588" y="-40.5" font-family="Helvetica,sans-Serif" font-size="10.00">::MemberFunctionFactoryBase</text>
<text text-anchor="start" x="1588" y="-29.5" font-family="Helvetica,sans-Serif" font-size="10.00">&lt; MemberFunctionType, std</text>
<text text-anchor="start" x="1588" y="-18.5" font-family="Helvetica,sans-Serif" font-size="10.00">::tuple&lt; unsigned int, int,</text>
<text text-anchor="middle" x="1662" y="-7.5" font-family="Helvetica,sans-Serif" font-size="10.00"> unsigned int, int &gt; &gt;</text>
</a>
</g>
</g>
<!-- Node18&#45;&gt;Node17 -->
<g id="edge19" class="edge">
<title>Node18&#45;&gt;Node17</title>
<path fill="none" stroke="darkgreen" d="M1754.39,-40.39C1810.57,-45.69 1883.99,-52.85 1949,-60 2004.38,-66.09 2066.68,-73.69 2114.73,-79.72"/>
<polygon fill="darkgreen" stroke="darkgreen" points="1754.39,-36.87 1744.11,-39.42 1753.74,-43.84 1754.39,-36.87"/>
</g>
<!-- Node19 -->
<g id="node19" class="node">
<title>Node19</title>
<g id="a_node19"><a xlink:href="classitk_1_1simple_1_1detail_1_1MemberFunctionFactoryBase.html" target="_top" xlink:title="A base class for the MemberFunctionFactory.">
<polygon fill="white" stroke="black" points="1058,-46 1058,-76 1222,-76 1222,-46 1058,-46"/>
<text text-anchor="start" x="1066" y="-64" font-family="Helvetica,sans-Serif" font-size="10.00">itk::simple::detail</text>
<text text-anchor="middle" x="1140" y="-53" font-family="Helvetica,sans-Serif" font-size="10.00">::MemberFunctionFactoryBase</text>
</a>
</g>
</g>
<!-- Node19&#45;&gt;Node18 -->
<g id="edge20" class="edge">
<title>Node19&#45;&gt;Node18</title>
<path fill="none" stroke="orange" stroke-dasharray="5,2" d="M1182.05,-41.9C1199.51,-34.77 1220.35,-27.55 1240,-24 1356.72,-2.9 1494.6,-11.76 1579.93,-21.08"/>
<polygon fill="orange" stroke="orange" points="1180.58,-38.72 1172.72,-45.83 1183.3,-45.17 1180.58,-38.72"/>
<text text-anchor="start" x="1249" y="-60" font-family="Helvetica,sans-Serif" font-size="10.00"> &lt; MemberFunctionType,</text>
<text text-anchor="start" x="1249" y="-49" font-family="Helvetica,sans-Serif" font-size="10.00"> std::tuple&lt; unsigned</text>
<text text-anchor="start" x="1249" y="-38" font-family="Helvetica,sans-Serif" font-size="10.00"> int, int, unsigned int,</text>
<text text-anchor="middle" x="1310" y="-27" font-family="Helvetica,sans-Serif" font-size="10.00"> int &gt; &gt;</text>
</g>
<!-- Node21 -->
<g id="node21" class="node">
<title>Node21</title>
<g id="a_node21"><a xlink:href="classitk_1_1simple_1_1detail_1_1MemberFunctionFactoryBase.html" target="_top" xlink:title=" ">
<polygon fill="white" stroke="black" points="1398,-58.5 1398,-121.5 1562,-121.5 1562,-58.5 1398,-58.5"/>
<text text-anchor="start" x="1406" y="-109.5" font-family="Helvetica,sans-Serif" font-size="10.00">itk::simple::detail</text>
<text text-anchor="start" x="1406" y="-98.5" font-family="Helvetica,sans-Serif" font-size="10.00">::MemberFunctionFactoryBase</text>
<text text-anchor="start" x="1406" y="-87.5" font-family="Helvetica,sans-Serif" font-size="10.00">&lt; TMemberFunctionPointer,</text>
<text text-anchor="start" x="1406" y="-76.5" font-family="Helvetica,sans-Serif" font-size="10.00"> std::tuple&lt; unsigned int,</text>
<text text-anchor="middle" x="1480" y="-65.5" font-family="Helvetica,sans-Serif" font-size="10.00"> int, unsigned int, int &gt; &gt;</text>
</a>
</g>
</g>
<!-- Node19&#45;&gt;Node21 -->
<g id="edge23" class="edge">
<title>Node19&#45;&gt;Node21</title>
<path fill="none" stroke="orange" stroke-dasharray="5,2" d="M1232.22,-71.26C1234.84,-71.51 1237.44,-71.76 1240,-72 1292.51,-76.89 1351.62,-81.35 1397.91,-84.61"/>
<polygon fill="orange" stroke="orange" points="1232.32,-67.75 1222.02,-70.24 1231.62,-74.72 1232.32,-67.75"/>
<text text-anchor="start" x="1240" y="-109" font-family="Helvetica,sans-Serif" font-size="10.00"> &lt; TMemberFunctionPointer,</text>
<text text-anchor="start" x="1240" y="-98" font-family="Helvetica,sans-Serif" font-size="10.00"> std::tuple&lt; unsigned int,</text>
<text text-anchor="middle" x="1310" y="-87" font-family="Helvetica,sans-Serif" font-size="10.00"> int, unsigned int, int &gt; &gt;</text>
</g>
<!-- Node20 -->
<g id="node20" class="node">
<title>Node20</title>
<g id="a_node20"><a xlink:href="classitk_1_1simple_1_1detail_1_1DualMemberFunctionFactory.html" target="_top" xlink:title="A class used to instantiate and generate function objects of templated member functions with two temp...">
<polygon fill="white" stroke="black" points="1774.5,-69.5 1774.5,-110.5 1936.5,-110.5 1936.5,-69.5 1774.5,-69.5"/>
<text text-anchor="start" x="1782.5" y="-98.5" font-family="Helvetica,sans-Serif" font-size="10.00">itk::simple::detail</text>
<text text-anchor="start" x="1782.5" y="-87.5" font-family="Helvetica,sans-Serif" font-size="10.00">::DualMemberFunctionFactory</text>
<text text-anchor="middle" x="1855.5" y="-76.5" font-family="Helvetica,sans-Serif" font-size="10.00">&lt; TMemberFunctionPointer &gt;</text>
</a>
</g>
</g>
<!-- Node20&#45;&gt;Node17 -->
<g id="edge21" class="edge">
<title>Node20&#45;&gt;Node17</title>
<path fill="none" stroke="orange" stroke-dasharray="5,2" d="M1946.99,-90C1999.23,-90 2064.36,-90 2114.77,-90"/>
<polygon fill="orange" stroke="orange" points="1946.72,-86.5 1936.72,-90 1946.72,-93.5 1946.72,-86.5"/>
<text text-anchor="middle" x="2032" y="-93" font-family="Helvetica,sans-Serif" font-size="10.00"> &lt; MemberFunctionType &gt;</text>
</g>
<!-- Node21&#45;&gt;Node20 -->
<g id="edge22" class="edge">
<title>Node21&#45;&gt;Node20</title>
<path fill="none" stroke="darkgreen" d="M1572.18,-90C1633.98,-90 1714.9,-90 1774.26,-90"/>
<polygon fill="darkgreen" stroke="darkgreen" points="1572.04,-86.5 1562.04,-90 1572.04,-93.5 1572.04,-86.5"/>
</g>
<!-- Node22&#45;&gt;Node16 -->
<g id="edge24" class="edge">
<title>Node22&#45;&gt;Node16</title>
<path fill="none" stroke="orange" stroke-dasharray="5,2" d="M688.22,-162.82C758.37,-160.76 870.81,-158 968,-158 968,-158 968,-158 2197,-158 2240.4,-158 2288.08,-158 2329.9,-158"/>
<polygon fill="orange" stroke="orange" points="688.07,-159.32 678.18,-163.11 688.28,-166.32 688.07,-159.32"/>
<text text-anchor="start" x="1407" y="-183" font-family="Helvetica,sans-Serif" font-size="10.00"> &lt; itk::simple::detail</text>
<text text-anchor="start" x="1407" y="-172" font-family="Helvetica,sans-Serif" font-size="10.00">::DualMemberFunctionFactory</text>
<text text-anchor="middle" x="1480" y="-161" font-family="Helvetica,sans-Serif" font-size="10.00">&lt; MemberFunctionType &gt; &gt;</text>
</g>
<!-- Node23 -->
<g id="node23" class="node">
<title>Node23</title>
<g id="a_node23"><a xlink:title=" ">
<polygon fill="white" stroke="#bfbfbf" points="906.5,-208.5 906.5,-227.5 1031.5,-227.5 1031.5,-208.5 906.5,-208.5"/>
<text text-anchor="middle" x="969" y="-215.5" font-family="Helvetica,sans-Serif" font-size="10.00">std::vector&lt; int64_t &gt;</text>
</a>
</g>
</g>
<!-- Node23&#45;&gt;Node1 -->
<g id="edge26" class="edge">
<title>Node23&#45;&gt;Node1</title>
<path fill="none" stroke="#9a32cd" stroke-dasharray="5,2" d="M1041.81,-218.33C1110.43,-218.63 1216.77,-219 1309,-219 1309,-219 1309,-219 2446.5,-219 2538.92,-219 2645.56,-219 2713.94,-219"/>
<polygon fill="#9a32cd" stroke="#9a32cd" points="1041.56,-214.83 1031.55,-218.29 1041.53,-221.83 1041.56,-214.83"/>
<text text-anchor="middle" x="1855.5" y="-222" font-family="Helvetica,sans-Serif" font-size="10.00"> m_Labels</text>
</g>
<!-- Node24&#45;&gt;Node23 -->
<g id="edge27" class="edge">
<title>Node24&#45;&gt;Node23</title>
<path fill="none" stroke="orange" stroke-dasharray="5,2" d="M235.64,-218C380.23,-218 757.35,-218 906.24,-218"/>
<polygon fill="orange" stroke="orange" points="235.64,-214.5 225.64,-218 235.64,-221.5 235.64,-214.5"/>
<text text-anchor="middle" x="452" y="-221" font-family="Helvetica,sans-Serif" font-size="10.00"> &lt; int64_t &gt;</text>
</g>
</g>
</svg>
