<?xml version="1.0" encoding="UTF-8" standalone="no"?>
<!DOCTYPE svg PUBLIC "-//W3C//DTD SVG 1.1//EN"
 "http://www.w3.org/Graphics/SVG/1.1/DTD/svg11.dtd">
<!-- Generated by graphviz version 2.43.0 (0)
 -->
<!-- Title: itk::simple::TransformixImageFilter Pages: 1 -->
<svg width="1833pt" height="297pt"
 viewBox="0.00 0.00 1833.00 297.00" xmlns="http://www.w3.org/2000/svg" xmlns:xlink="http://www.w3.org/1999/xlink">
<g id="graph0" class="graph" transform="scale(1 1) rotate(0) translate(4 293)">
<title>itk::simple::TransformixImageFilter</title>
<polygon fill="white" stroke="transparent" points="-4,4 -4,-293 1829,-293 1829,4 -4,4"/>
<!-- Node1 -->
<g id="node1" class="node">
<title>Node1</title>
<g id="a_node1"><a xlink:title=" ">
<polygon fill="#bfbfbf" stroke="black" points="1693,-74.5 1693,-104.5 1825,-104.5 1825,-74.5 1693,-74.5"/>
<text text-anchor="start" x="1701" y="-92.5" font-family="Helvetica,sans-Serif" font-size="10.00">itk::simple::Transformix</text>
<text text-anchor="middle" x="1759" y="-81.5" font-family="Helvetica,sans-Serif" font-size="10.00">ImageFilter</text>
</a>
</g>
</g>
<!-- Node2 -->
<g id="node2" class="node">
<title>Node2</title>
<g id="a_node2"><a xlink:title=" ">
<polygon fill="white" stroke="#bfbfbf" points="1328,-153 1328,-194 1518,-194 1518,-153 1328,-153"/>
<text text-anchor="start" x="1336" y="-182" font-family="Helvetica,sans-Serif" font-size="10.00">std::unique_ptr&lt; itk</text>
<text text-anchor="start" x="1336" y="-171" font-family="Helvetica,sans-Serif" font-size="10.00">::simple::detail::MemberFunction</text>
<text text-anchor="middle" x="1423" y="-160" font-family="Helvetica,sans-Serif" font-size="10.00">Factory&lt; MemberFunctionType &gt; &gt;</text>
</a>
</g>
</g>
<!-- Node2&#45;&gt;Node1 -->
<g id="edge1" class="edge">
<title>Node2&#45;&gt;Node1</title>
<path fill="none" stroke="#9a32cd" stroke-dasharray="5,2" d="M1528.08,-167.52C1574.07,-162.62 1628.2,-153.71 1675,-137.5 1697.65,-129.66 1721.08,-115.45 1737.25,-104.52"/>
<polygon fill="#9a32cd" stroke="#9a32cd" points="1527.68,-164.04 1518.09,-168.54 1528.39,-171.01 1527.68,-164.04"/>
<text text-anchor="middle" x="1605.5" y="-168.5" font-family="Helvetica,sans-Serif" font-size="10.00"> m_MemberFactory</text>
</g>
<!-- Node3 -->
<g id="node3" class="node">
<title>Node3</title>
<g id="a_node3"><a xlink:href="classitk_1_1simple_1_1detail_1_1MemberFunctionFactory.html" target="_top" xlink:title=" ">
<polygon fill="white" stroke="black" points="1057,-225 1057,-266 1200,-266 1200,-225 1057,-225"/>
<text text-anchor="start" x="1065" y="-254" font-family="Helvetica,sans-Serif" font-size="10.00">itk::simple::detail</text>
<text text-anchor="start" x="1065" y="-243" font-family="Helvetica,sans-Serif" font-size="10.00">::MemberFunctionFactory</text>
<text text-anchor="middle" x="1128.5" y="-232" font-family="Helvetica,sans-Serif" font-size="10.00">&lt; MemberFunctionType &gt;</text>
</a>
</g>
</g>
<!-- Node3&#45;&gt;Node2 -->
<g id="edge2" class="edge">
<title>Node3&#45;&gt;Node2</title>
<path fill="none" stroke="#9a32cd" stroke-dasharray="5,2" d="M1210.02,-225.68C1249.99,-215.84 1298.24,-203.96 1338.61,-194.03"/>
<polygon fill="#9a32cd" stroke="#9a32cd" points="1209.18,-222.28 1200.31,-228.07 1210.85,-229.08 1209.18,-222.28"/>
<text text-anchor="middle" x="1268.5" y="-222.5" font-family="Helvetica,sans-Serif" font-size="10.00"> ptr</text>
</g>
<!-- Node4 -->
<g id="node4" class="node">
<title>Node4</title>
<g id="a_node4"><a xlink:href="classitk_1_1simple_1_1detail_1_1MemberFunctionFactoryBase.html" target="_top" xlink:title=" ">
<polygon fill="white" stroke="black" points="530,-236.5 530,-288.5 694,-288.5 694,-236.5 530,-236.5"/>
<text text-anchor="start" x="538" y="-276.5" font-family="Helvetica,sans-Serif" font-size="10.00">itk::simple::detail</text>
<text text-anchor="start" x="538" y="-265.5" font-family="Helvetica,sans-Serif" font-size="10.00">::MemberFunctionFactoryBase</text>
<text text-anchor="start" x="538" y="-254.5" font-family="Helvetica,sans-Serif" font-size="10.00">&lt; MemberFunctionType, std</text>
<text text-anchor="middle" x="612" y="-243.5" font-family="Helvetica,sans-Serif" font-size="10.00">::pair&lt; unsigned int, int &gt; &gt;</text>
</a>
</g>
</g>
<!-- Node4&#45;&gt;Node3 -->
<g id="edge3" class="edge">
<title>Node4&#45;&gt;Node3</title>
<path fill="none" stroke="darkgreen" d="M704.4,-259.48C805.12,-256.15 964.94,-250.87 1056.62,-247.84"/>
<polygon fill="darkgreen" stroke="darkgreen" points="704.12,-255.99 694.24,-259.82 704.35,-262.98 704.12,-255.99"/>
</g>
<!-- Node5 -->
<g id="node5" class="node">
<title>Node5</title>
<g id="a_node5"><a xlink:href="classitk_1_1simple_1_1detail_1_1MemberFunctionFactoryBase.html" target="_top" xlink:title="A base class for the MemberFunctionFactory.">
<polygon fill="white" stroke="black" points="0,-219.5 0,-249.5 164,-249.5 164,-219.5 0,-219.5"/>
<text text-anchor="start" x="8" y="-237.5" font-family="Helvetica,sans-Serif" font-size="10.00">itk::simple::detail</text>
<text text-anchor="middle" x="82" y="-226.5" font-family="Helvetica,sans-Serif" font-size="10.00">::MemberFunctionFactoryBase</text>
</a>
</g>
</g>
<!-- Node5&#45;&gt;Node4 -->
<g id="edge4" class="edge">
<title>Node5&#45;&gt;Node4</title>
<path fill="none" stroke="orange" stroke-dasharray="5,2" d="M174.23,-240.06C176.85,-240.21 179.44,-240.36 182,-240.5 303.18,-247.28 443.67,-254.33 529.94,-258.57"/>
<polygon fill="orange" stroke="orange" points="174.22,-236.55 164.04,-239.47 173.82,-243.54 174.22,-236.55"/>
<text text-anchor="start" x="191" y="-272.5" font-family="Helvetica,sans-Serif" font-size="10.00"> &lt; MemberFunctionType,</text>
<text text-anchor="start" x="191" y="-261.5" font-family="Helvetica,sans-Serif" font-size="10.00"> std::pair&lt; unsigned</text>
<text text-anchor="middle" x="252" y="-250.5" font-family="Helvetica,sans-Serif" font-size="10.00"> int, int &gt; &gt;</text>
</g>
<!-- Node7 -->
<g id="node7" class="node">
<title>Node7</title>
<g id="a_node7"><a xlink:href="classitk_1_1simple_1_1detail_1_1MemberFunctionFactoryBase.html" target="_top" xlink:title=" ">
<polygon fill="white" stroke="black" points="340,-181.5 340,-233.5 512,-233.5 512,-181.5 340,-181.5"/>
<text text-anchor="start" x="348" y="-221.5" font-family="Helvetica,sans-Serif" font-size="10.00">itk::simple::detail</text>
<text text-anchor="start" x="348" y="-210.5" font-family="Helvetica,sans-Serif" font-size="10.00">::MemberFunctionFactoryBase</text>
<text text-anchor="start" x="348" y="-199.5" font-family="Helvetica,sans-Serif" font-size="10.00">&lt; TMemberFunctionPointer,</text>
<text text-anchor="middle" x="426" y="-188.5" font-family="Helvetica,sans-Serif" font-size="10.00"> std::pair&lt; unsigned int, int &gt; &gt;</text>
</a>
</g>
</g>
<!-- Node5&#45;&gt;Node7 -->
<g id="edge7" class="edge">
<title>Node5&#45;&gt;Node7</title>
<path fill="none" stroke="orange" stroke-dasharray="5,2" d="M138.35,-216.62C152.43,-212.84 167.65,-209.42 182,-207.5 234.06,-200.53 292.96,-200.34 339.73,-201.98"/>
<polygon fill="orange" stroke="orange" points="137.01,-213.36 128.32,-219.42 138.89,-220.1 137.01,-213.36"/>
<text text-anchor="start" x="182" y="-232.5" font-family="Helvetica,sans-Serif" font-size="10.00"> &lt; TMemberFunctionPointer,</text>
<text text-anchor="start" x="182" y="-221.5" font-family="Helvetica,sans-Serif" font-size="10.00"> std::pair&lt; unsigned int,</text>
<text text-anchor="middle" x="252" y="-210.5" font-family="Helvetica,sans-Serif" font-size="10.00"> int &gt; &gt;</text>
</g>
<!-- Node6 -->
<g id="node6" class="node">
<title>Node6</title>
<g id="a_node6"><a xlink:href="classitk_1_1simple_1_1detail_1_1MemberFunctionFactory.html" target="_top" xlink:title="A class used to instantiate and generate function object to templated member functions.">
<polygon fill="white" stroke="black" points="713,-189 713,-230 874,-230 874,-189 713,-189"/>
<text text-anchor="start" x="721" y="-218" font-family="Helvetica,sans-Serif" font-size="10.00">itk::simple::detail</text>
<text text-anchor="start" x="721" y="-207" font-family="Helvetica,sans-Serif" font-size="10.00">::MemberFunctionFactory</text>
<text text-anchor="middle" x="793.5" y="-196" font-family="Helvetica,sans-Serif" font-size="10.00">&lt; TMemberFunctionPointer &gt;</text>
</a>
</g>
</g>
<!-- Node6&#45;&gt;Node3 -->
<g id="edge5" class="edge">
<title>Node6&#45;&gt;Node3</title>
<path fill="none" stroke="orange" stroke-dasharray="5,2" d="M884.21,-219.2C938.42,-225.06 1006.52,-232.42 1056.87,-237.86"/>
<polygon fill="orange" stroke="orange" points="884.58,-215.72 874.26,-218.12 883.83,-222.68 884.58,-215.72"/>
<text text-anchor="middle" x="961.5" y="-237.5" font-family="Helvetica,sans-Serif" font-size="10.00"> &lt; MemberFunctionType &gt;</text>
</g>
<!-- Node7&#45;&gt;Node6 -->
<g id="edge6" class="edge">
<title>Node7&#45;&gt;Node6</title>
<path fill="none" stroke="darkgreen" d="M522.34,-208.02C581.54,-208.35 656.75,-208.76 712.77,-209.06"/>
<polygon fill="darkgreen" stroke="darkgreen" points="522.25,-204.52 512.23,-207.97 522.21,-211.52 522.25,-204.52"/>
</g>
<!-- Node8 -->
<g id="node8" class="node">
<title>Node8</title>
<g id="a_node8"><a xlink:title="STL class.">
<polygon fill="white" stroke="#bfbfbf" points="734.5,-131 734.5,-150 852.5,-150 852.5,-131 734.5,-131"/>
<text text-anchor="middle" x="793.5" y="-138" font-family="Helvetica,sans-Serif" font-size="10.00">std::unique_ptr&lt; T &gt;</text>
</a>
</g>
</g>
<!-- Node8&#45;&gt;Node2 -->
<g id="edge8" class="edge">
<title>Node8&#45;&gt;Node2</title>
<path fill="none" stroke="orange" stroke-dasharray="5,2" d="M851.97,-151.82C865.39,-154.07 879.65,-156.15 893,-157.5 1044.53,-172.79 1221.6,-174.99 1327.61,-174.64"/>
<polygon fill="orange" stroke="orange" points="852.36,-148.33 841.91,-150.07 851.16,-155.23 852.36,-148.33"/>
<text text-anchor="start" x="1059" y="-198.5" font-family="Helvetica,sans-Serif" font-size="10.00"> &lt; itk::simple::detail</text>
<text text-anchor="start" x="1059" y="-187.5" font-family="Helvetica,sans-Serif" font-size="10.00">::MemberFunctionFactory</text>
<text text-anchor="middle" x="1128.5" y="-176.5" font-family="Helvetica,sans-Serif" font-size="10.00">&lt; MemberFunctionType &gt; &gt;</text>
</g>
<!-- Node11 -->
<g id="node11" class="node">
<title>Node11</title>
<g id="a_node11"><a xlink:title=" ">
<polygon fill="white" stroke="#bfbfbf" points="1048,-98.5 1048,-128.5 1209,-128.5 1209,-98.5 1048,-98.5"/>
<text text-anchor="start" x="1056" y="-116.5" font-family="Helvetica,sans-Serif" font-size="10.00">std::unique_ptr&lt; itk</text>
<text text-anchor="middle" x="1128.5" y="-105.5" font-family="Helvetica,sans-Serif" font-size="10.00">::simple::PimpleImageBase &gt;</text>
</a>
</g>
</g>
<!-- Node8&#45;&gt;Node11 -->
<g id="edge13" class="edge">
<title>Node8&#45;&gt;Node11</title>
<path fill="none" stroke="orange" stroke-dasharray="5,2" d="M862.61,-134.98C916.28,-130.63 991.23,-124.55 1047.71,-119.97"/>
<polygon fill="orange" stroke="orange" points="862.19,-131.5 852.5,-135.8 862.75,-138.48 862.19,-131.5"/>
<text text-anchor="start" x="893" y="-145.5" font-family="Helvetica,sans-Serif" font-size="10.00"> &lt; itk::simple::PimpleImage</text>
<text text-anchor="middle" x="961.5" y="-134.5" font-family="Helvetica,sans-Serif" font-size="10.00">Base &gt;</text>
</g>
<!-- Node9 -->
<g id="node9" class="node">
<title>Node9</title>
<g id="a_node9"><a xlink:title=" ">
<polygon fill="white" stroke="#bfbfbf" points="411.5,-70 411.5,-89 440.5,-89 440.5,-70 411.5,-70"/>
<text text-anchor="middle" x="426" y="-77" font-family="Helvetica,sans-Serif" font-size="10.00">T</text>
</a>
</g>
</g>
<!-- Node9&#45;&gt;Node8 -->
<g id="edge9" class="edge">
<title>Node9&#45;&gt;Node8</title>
<path fill="none" stroke="#9a32cd" stroke-dasharray="5,2" d="M450.77,-83.47C507.83,-92.99 653.9,-117.37 735.38,-130.97"/>
<polygon fill="#9a32cd" stroke="#9a32cd" points="451.32,-80.01 440.88,-81.82 450.17,-86.92 451.32,-80.01"/>
<text text-anchor="middle" x="612" y="-124.5" font-family="Helvetica,sans-Serif" font-size="10.00"> ptr</text>
</g>
<!-- Node16 -->
<g id="node16" class="node">
<title>Node16</title>
<g id="a_node16"><a xlink:title="STL class.">
<polygon fill="white" stroke="#bfbfbf" points="743,-17 743,-36 844,-36 844,-17 743,-17"/>
<text text-anchor="middle" x="793.5" y="-24" font-family="Helvetica,sans-Serif" font-size="10.00">std::map&lt; K, T &gt;</text>
</a>
</g>
</g>
<!-- Node9&#45;&gt;Node16 -->
<g id="edge19" class="edge">
<title>Node9&#45;&gt;Node16</title>
<path fill="none" stroke="#9a32cd" stroke-dasharray="5,2" d="M450.34,-72.58C471.08,-66.68 502.32,-58.39 530,-53.5 603.54,-40.51 689.85,-33.11 742.86,-29.46"/>
<polygon fill="#9a32cd" stroke="#9a32cd" points="449.16,-69.28 440.53,-75.42 451.1,-76 449.16,-69.28"/>
<text text-anchor="middle" x="612" y="-56.5" font-family="Helvetica,sans-Serif" font-size="10.00"> elements</text>
</g>
<!-- Node18 -->
<g id="node18" class="node">
<title>Node18</title>
<g id="a_node18"><a xlink:title="STL class.">
<polygon fill="white" stroke="#bfbfbf" points="745,-55 745,-74 842,-74 842,-55 745,-55"/>
<text text-anchor="middle" x="793.5" y="-62" font-family="Helvetica,sans-Serif" font-size="10.00">std::vector&lt; T &gt;</text>
</a>
</g>
</g>
<!-- Node9&#45;&gt;Node18 -->
<g id="edge21" class="edge">
<title>Node9&#45;&gt;Node18</title>
<path fill="none" stroke="#9a32cd" stroke-dasharray="5,2" d="M451.19,-78.51C510.89,-76.06 666.1,-69.69 744.98,-66.45"/>
<polygon fill="#9a32cd" stroke="#9a32cd" points="450.73,-75.02 440.88,-78.93 451.02,-82.02 450.73,-75.02"/>
<text text-anchor="middle" x="612" y="-77.5" font-family="Helvetica,sans-Serif" font-size="10.00"> elements</text>
</g>
<!-- Node10 -->
<g id="node10" class="node">
<title>Node10</title>
<g id="a_node10"><a xlink:href="classitk_1_1simple_1_1Image.html" target="_top" xlink:title="The Image class for SimpleITK.">
<polygon fill="white" stroke="black" points="1370.5,-97 1370.5,-116 1475.5,-116 1475.5,-97 1370.5,-97"/>
<text text-anchor="middle" x="1423" y="-104" font-family="Helvetica,sans-Serif" font-size="10.00">itk::simple::Image</text>
</a>
</g>
</g>
<!-- Node10&#45;&gt;Node1 -->
<g id="edge10" class="edge">
<title>Node10&#45;&gt;Node1</title>
<path fill="none" stroke="#9a32cd" stroke-dasharray="5,2" d="M1486.09,-103.34C1544.95,-100.34 1633.02,-95.86 1692.86,-92.82"/>
<polygon fill="#9a32cd" stroke="#9a32cd" points="1485.63,-99.86 1475.82,-103.86 1485.99,-106.85 1485.63,-99.86"/>
<text text-anchor="middle" x="1605.5" y="-125.5" font-family="Helvetica,sans-Serif" font-size="10.00"> m_DeformationField</text>
<text text-anchor="middle" x="1605.5" y="-114.5" font-family="Helvetica,sans-Serif" font-size="10.00">m_MovingImage</text>
<text text-anchor="middle" x="1605.5" y="-103.5" font-family="Helvetica,sans-Serif" font-size="10.00">m_ResultImage</text>
</g>
<!-- Node11&#45;&gt;Node10 -->
<g id="edge11" class="edge">
<title>Node11&#45;&gt;Node10</title>
<path fill="none" stroke="#9a32cd" stroke-dasharray="5,2" d="M1219.12,-111.36C1268.62,-110.17 1328.35,-108.74 1370.14,-107.74"/>
<polygon fill="#9a32cd" stroke="#9a32cd" points="1218.95,-107.86 1209.04,-111.6 1219.12,-114.86 1218.95,-107.86"/>
<text text-anchor="middle" x="1268.5" y="-113.5" font-family="Helvetica,sans-Serif" font-size="10.00"> m_PimpleImage</text>
</g>
<!-- Node12 -->
<g id="node12" class="node">
<title>Node12</title>
<g id="a_node12"><a xlink:href="classitk_1_1simple_1_1PimpleImageBase.html" target="_top" xlink:title="Private implementation idiom image base class.">
<polygon fill="white" stroke="black" points="712,-93 712,-112 875,-112 875,-93 712,-93"/>
<text text-anchor="middle" x="793.5" y="-100" font-family="Helvetica,sans-Serif" font-size="10.00">itk::simple::PimpleImageBase</text>
</a>
</g>
</g>
<!-- Node12&#45;&gt;Node11 -->
<g id="edge12" class="edge">
<title>Node12&#45;&gt;Node11</title>
<path fill="none" stroke="#9a32cd" stroke-dasharray="5,2" d="M885.26,-100.81C929.03,-100.53 982.27,-100.96 1030,-103.5 1035.78,-103.81 1041.74,-104.21 1047.74,-104.68"/>
<polygon fill="#9a32cd" stroke="#9a32cd" points="885.18,-97.31 875.21,-100.89 885.24,-104.31 885.18,-97.31"/>
<text text-anchor="middle" x="961.5" y="-106.5" font-family="Helvetica,sans-Serif" font-size="10.00"> ptr</text>
</g>
<!-- Node13 -->
<g id="node13" class="node">
<title>Node13</title>
<g id="a_node13"><a xlink:title="STL class.">
<polygon fill="white" stroke="#bfbfbf" points="1390.5,-8 1390.5,-27 1455.5,-27 1455.5,-8 1390.5,-8"/>
<text text-anchor="middle" x="1423" y="-15" font-family="Helvetica,sans-Serif" font-size="10.00">std::string</text>
</a>
</g>
</g>
<!-- Node13&#45;&gt;Node1 -->
<g id="edge14" class="edge">
<title>Node13&#45;&gt;Node1</title>
<path fill="none" stroke="#9a32cd" stroke-dasharray="5,2" d="M1465.77,-9.13C1516.9,-0.79 1605.26,7.42 1675,-18.5 1705.04,-29.66 1731.59,-57.03 1746.17,-74.34"/>
<polygon fill="#9a32cd" stroke="#9a32cd" points="1465.02,-5.71 1455.76,-10.85 1466.2,-12.61 1465.02,-5.71"/>
<text text-anchor="middle" x="1605.5" y="-43.5" font-family="Helvetica,sans-Serif" font-size="10.00"> m_OutputDirectory</text>
<text text-anchor="middle" x="1605.5" y="-32.5" font-family="Helvetica,sans-Serif" font-size="10.00">m_LogFileName</text>
<text text-anchor="middle" x="1605.5" y="-21.5" font-family="Helvetica,sans-Serif" font-size="10.00">m_MovingPointSetFileName</text>
</g>
<!-- Node14 -->
<g id="node14" class="node">
<title>Node14</title>
<g id="a_node14"><a xlink:title="STL class.">
<polygon fill="white" stroke="#bfbfbf" points="1076.5,-0.5 1076.5,-30.5 1180.5,-30.5 1180.5,-0.5 1076.5,-0.5"/>
<text text-anchor="start" x="1084.5" y="-18.5" font-family="Helvetica,sans-Serif" font-size="10.00">std::basic_string&lt;</text>
<text text-anchor="middle" x="1128.5" y="-7.5" font-family="Helvetica,sans-Serif" font-size="10.00"> char &gt;</text>
</a>
</g>
</g>
<!-- Node14&#45;&gt;Node13 -->
<g id="edge15" class="edge">
<title>Node14&#45;&gt;Node13</title>
<path fill="none" stroke="midnightblue" d="M1191.03,-15.92C1251.88,-16.34 1342.6,-16.96 1390.21,-17.28"/>
<polygon fill="midnightblue" stroke="midnightblue" points="1190.81,-12.42 1180.78,-15.85 1190.76,-19.42 1190.81,-12.42"/>
</g>
<!-- Node15 -->
<g id="node15" class="node">
<title>Node15</title>
<g id="a_node15"><a xlink:title=" ">
<polygon fill="white" stroke="#bfbfbf" points="1053,-49.5 1053,-79.5 1204,-79.5 1204,-49.5 1053,-49.5"/>
<text text-anchor="start" x="1061" y="-67.5" font-family="Helvetica,sans-Serif" font-size="10.00">std::vector&lt; ParameterMap</text>
<text text-anchor="middle" x="1128.5" y="-56.5" font-family="Helvetica,sans-Serif" font-size="10.00">Type &gt;</text>
</a>
</g>
</g>
<!-- Node15&#45;&gt;Node1 -->
<g id="edge16" class="edge">
<title>Node15&#45;&gt;Node1</title>
<path fill="none" stroke="#9a32cd" stroke-dasharray="5,2" d="M1214.71,-66.56C1293.43,-68.6 1413.64,-72.06 1518,-76.5 1577.2,-79.02 1644.57,-82.74 1692.83,-85.56"/>
<polygon fill="#9a32cd" stroke="#9a32cd" points="1214.45,-63.05 1204.36,-66.3 1214.27,-70.05 1214.45,-63.05"/>
<text text-anchor="middle" x="1423" y="-79.5" font-family="Helvetica,sans-Serif" font-size="10.00"> m_TransformParameterMapVector</text>
</g>
<!-- Node16&#45;&gt;Node15 -->
<g id="edge17" class="edge">
<title>Node16&#45;&gt;Node15</title>
<path fill="none" stroke="#9a32cd" stroke-dasharray="5,2" d="M854.35,-31.43C902.01,-35.57 970.38,-42.01 1030,-49.5 1037.39,-50.43 1045.09,-51.48 1052.77,-52.57"/>
<polygon fill="#9a32cd" stroke="#9a32cd" points="854.47,-27.92 844.21,-30.55 853.87,-34.9 854.47,-27.92"/>
<text text-anchor="middle" x="961.5" y="-52.5" font-family="Helvetica,sans-Serif" font-size="10.00"> elements</text>
</g>
<!-- Node17 -->
<g id="node17" class="node">
<title>Node17</title>
<g id="a_node17"><a xlink:title=" ">
<polygon fill="white" stroke="#bfbfbf" points="411.5,-2 411.5,-21 440.5,-21 440.5,-2 411.5,-2"/>
<text text-anchor="middle" x="426" y="-9" font-family="Helvetica,sans-Serif" font-size="10.00">K</text>
</a>
</g>
</g>
<!-- Node17&#45;&gt;Node16 -->
<g id="edge18" class="edge">
<title>Node17&#45;&gt;Node16</title>
<path fill="none" stroke="#9a32cd" stroke-dasharray="5,2" d="M450.65,-10.5C497.28,-8.77 604.33,-5.99 694,-12.5 709.94,-13.66 727.21,-15.81 742.79,-18.08"/>
<polygon fill="#9a32cd" stroke="#9a32cd" points="450.5,-7 440.64,-10.89 450.77,-14 450.5,-7"/>
<text text-anchor="middle" x="612" y="-15.5" font-family="Helvetica,sans-Serif" font-size="10.00"> keys</text>
</g>
<!-- Node18&#45;&gt;Node15 -->
<g id="edge20" class="edge">
<title>Node18&#45;&gt;Node15</title>
<path fill="none" stroke="orange" stroke-dasharray="5,2" d="M852.24,-64.5C907.83,-64.5 992.17,-64.5 1052.84,-64.5"/>
<polygon fill="orange" stroke="orange" points="852.21,-61 842.21,-64.5 852.21,-68 852.21,-61"/>
<text text-anchor="middle" x="961.5" y="-67.5" font-family="Helvetica,sans-Serif" font-size="10.00"> &lt; ParameterMapType &gt;</text>
</g>
</g>
</svg>
