<?xml version="1.0" encoding="UTF-8" standalone="no"?>
<!DOCTYPE svg PUBLIC "-//W3C//DTD SVG 1.1//EN"
 "http://www.w3.org/Graphics/SVG/1.1/DTD/svg11.dtd">
<!-- Generated by graphviz version 2.43.0 (0)
 -->
<!-- Title: itk::simple::ResampleImageFilter Pages: 1 -->
<svg width="2925pt" height="373pt"
 viewBox="0.00 0.00 2925.00 373.00" xmlns="http://www.w3.org/2000/svg" xmlns:xlink="http://www.w3.org/1999/xlink">
<g id="graph0" class="graph" transform="scale(1 1) rotate(0) translate(4 369)">
<title>itk::simple::ResampleImageFilter</title>
<polygon fill="white" stroke="transparent" points="-4,4 -4,-369 2921,-369 2921,4 -4,4"/>
<!-- Node1 -->
<g id="node1" class="node">
<title>Node1</title>
<g id="a_node1"><a xlink:title="Resample an image via a coordinate transform.">
<polygon fill="#bfbfbf" stroke="black" points="2763,-129 2763,-159 2917,-159 2917,-129 2763,-129"/>
<text text-anchor="start" x="2771" y="-147" font-family="Helvetica,sans-Serif" font-size="10.00">itk::simple::ResampleImage</text>
<text text-anchor="middle" x="2840" y="-136" font-family="Helvetica,sans-Serif" font-size="10.00">Filter</text>
</a>
</g>
</g>
<!-- Node2 -->
<g id="node2" class="node">
<title>Node2</title>
<g id="a_node2"><a xlink:href="classitk_1_1simple_1_1ImageFilter.html" target="_top" xlink:title="The base interface for SimpleITK filters that take one input image.">
<polygon fill="white" stroke="black" points="2429.5,-274.5 2429.5,-293.5 2559.5,-293.5 2559.5,-274.5 2429.5,-274.5"/>
<text text-anchor="middle" x="2494.5" y="-281.5" font-family="Helvetica,sans-Serif" font-size="10.00">itk::simple::ImageFilter</text>
</a>
</g>
</g>
<!-- Node2&#45;&gt;Node1 -->
<g id="edge1" class="edge">
<title>Node2&#45;&gt;Node1</title>
<path fill="none" stroke="midnightblue" d="M2551.18,-272.15C2602.96,-259.96 2681.45,-238.44 2745,-208 2773.13,-194.52 2802.35,-173.3 2820.59,-159.03"/>
<polygon fill="midnightblue" stroke="midnightblue" points="2550.15,-268.8 2541.19,-274.47 2551.73,-275.62 2550.15,-268.8"/>
</g>
<!-- Node3 -->
<g id="node3" class="node">
<title>Node3</title>
<g id="a_node3"><a xlink:href="classitk_1_1simple_1_1ProcessObject.html" target="_top" xlink:title="Base class for SimpleITK classes based on ProcessObject.">
<polygon fill="white" stroke="black" points="2124.5,-275.5 2124.5,-294.5 2267.5,-294.5 2267.5,-275.5 2124.5,-275.5"/>
<text text-anchor="middle" x="2196" y="-282.5" font-family="Helvetica,sans-Serif" font-size="10.00">itk::simple::ProcessObject</text>
</a>
</g>
</g>
<!-- Node3&#45;&gt;Node2 -->
<g id="edge2" class="edge">
<title>Node3&#45;&gt;Node2</title>
<path fill="none" stroke="midnightblue" d="M2277.94,-284.73C2325.61,-284.57 2385.07,-284.37 2429.46,-284.22"/>
<polygon fill="midnightblue" stroke="midnightblue" points="2277.63,-281.23 2267.64,-284.76 2277.65,-288.23 2277.63,-281.23"/>
</g>
<!-- Node4 -->
<g id="node4" class="node">
<title>Node4</title>
<g id="a_node4"><a xlink:href="classitk_1_1simple_1_1NonCopyable.html" target="_top" xlink:title="An inheritable class to disable copying of a class.">
<polygon fill="white" stroke="black" points="382,-345.5 382,-364.5 522,-364.5 522,-345.5 382,-345.5"/>
<text text-anchor="middle" x="452" y="-352.5" font-family="Helvetica,sans-Serif" font-size="10.00">itk::simple::NonCopyable</text>
</a>
</g>
</g>
<!-- Node4&#45;&gt;Node3 -->
<g id="edge3" class="edge">
<title>Node4&#45;&gt;Node3</title>
<path fill="none" stroke="darkgreen" d="M532.21,-354.64C601.94,-354.35 706.21,-354 797,-354 797,-354 797,-354 1856.5,-354 1974.05,-354 2110.03,-313.55 2167.31,-294.59"/>
<polygon fill="darkgreen" stroke="darkgreen" points="532.17,-351.14 522.18,-354.68 532.2,-358.14 532.17,-351.14"/>
</g>
<!-- Node8 -->
<g id="node8" class="node">
<title>Node8</title>
<g id="a_node8"><a xlink:href="classitk_1_1simple_1_1ObjectOwnedBase.html" target="_top" xlink:title="An abstract base class to connect this object with the lifetime of another.">
<polygon fill="white" stroke="black" points="716,-288.5 716,-307.5 880,-307.5 880,-288.5 716,-288.5"/>
<text text-anchor="middle" x="798" y="-295.5" font-family="Helvetica,sans-Serif" font-size="10.00">itk::simple::ObjectOwnedBase</text>
</a>
</g>
</g>
<!-- Node4&#45;&gt;Node8 -->
<g id="edge8" class="edge">
<title>Node4&#45;&gt;Node8</title>
<path fill="none" stroke="midnightblue" d="M522.31,-343.84C571.38,-335.9 638.75,-324.92 698,-315 712.28,-312.61 727.7,-309.98 742.03,-307.52"/>
<polygon fill="midnightblue" stroke="midnightblue" points="521.74,-340.39 512.43,-345.44 522.86,-347.3 521.74,-340.39"/>
</g>
<!-- Node5 -->
<g id="node5" class="node">
<title>Node5</title>
<g id="a_node5"><a xlink:title=" ">
<polygon fill="white" stroke="#bfbfbf" points="1762,-270 1762,-300 1949,-300 1949,-270 1762,-270"/>
<text text-anchor="start" x="1770" y="-288" font-family="Helvetica,sans-Serif" font-size="10.00">std::list&lt; itk::simple</text>
<text text-anchor="middle" x="1855.5" y="-277" font-family="Helvetica,sans-Serif" font-size="10.00">::ProcessObject::EventCommand &gt;</text>
</a>
</g>
</g>
<!-- Node5&#45;&gt;Node3 -->
<g id="edge4" class="edge">
<title>Node5&#45;&gt;Node3</title>
<path fill="none" stroke="#9a32cd" stroke-dasharray="5,2" d="M1959.61,-285C2012.91,-285 2076.6,-285 2124.28,-285"/>
<polygon fill="#9a32cd" stroke="#9a32cd" points="1959.44,-281.5 1949.44,-285 1959.44,-288.5 1959.44,-281.5"/>
<text text-anchor="middle" x="2032" y="-288" font-family="Helvetica,sans-Serif" font-size="10.00"> m_Commands</text>
</g>
<!-- Node6 -->
<g id="node6" class="node">
<title>Node6</title>
<g id="a_node6"><a xlink:href="structitk_1_1simple_1_1ProcessObject_1_1EventCommand.html" target="_top" xlink:title=" ">
<polygon fill="white" stroke="black" points="1408.5,-273 1408.5,-303 1551.5,-303 1551.5,-273 1408.5,-273"/>
<text text-anchor="start" x="1416.5" y="-291" font-family="Helvetica,sans-Serif" font-size="10.00">itk::simple::ProcessObject</text>
<text text-anchor="middle" x="1480" y="-280" font-family="Helvetica,sans-Serif" font-size="10.00">::EventCommand</text>
</a>
</g>
</g>
<!-- Node6&#45;&gt;Node5 -->
<g id="edge5" class="edge">
<title>Node6&#45;&gt;Node5</title>
<path fill="none" stroke="#9a32cd" stroke-dasharray="5,2" d="M1562.05,-287.35C1620.86,-286.88 1700.51,-286.24 1761.84,-285.74"/>
<polygon fill="#9a32cd" stroke="#9a32cd" points="1561.66,-283.85 1551.69,-287.43 1561.72,-290.85 1561.66,-283.85"/>
<text text-anchor="middle" x="1662" y="-290" font-family="Helvetica,sans-Serif" font-size="10.00"> elements</text>
</g>
<!-- Node7 -->
<g id="node7" class="node">
<title>Node7</title>
<g id="a_node7"><a xlink:href="classitk_1_1simple_1_1Command.html" target="_top" xlink:title="An implementation of the Command design pattern for callback.">
<polygon fill="white" stroke="black" points="1077.5,-278.5 1077.5,-297.5 1202.5,-297.5 1202.5,-278.5 1077.5,-278.5"/>
<text text-anchor="middle" x="1140" y="-285.5" font-family="Helvetica,sans-Serif" font-size="10.00">itk::simple::Command</text>
</a>
</g>
</g>
<!-- Node7&#45;&gt;Node6 -->
<g id="edge6" class="edge">
<title>Node7&#45;&gt;Node6</title>
<path fill="none" stroke="#9a32cd" stroke-dasharray="5,2" d="M1212.74,-288C1270.44,-288 1351.09,-288 1408.47,-288"/>
<polygon fill="#9a32cd" stroke="#9a32cd" points="1212.6,-284.5 1202.6,-288 1212.6,-291.5 1212.6,-284.5"/>
<text text-anchor="middle" x="1310" y="-291" font-family="Helvetica,sans-Serif" font-size="10.00"> m_Command</text>
</g>
<!-- Node8&#45;&gt;Node7 -->
<g id="edge7" class="edge">
<title>Node8&#45;&gt;Node7</title>
<path fill="none" stroke="midnightblue" d="M890.13,-295.32C949.45,-293.58 1025.23,-291.35 1077.5,-289.81"/>
<polygon fill="midnightblue" stroke="midnightblue" points="889.9,-291.82 880.01,-295.62 890.11,-298.82 889.9,-291.82"/>
</g>
<!-- Node9 -->
<g id="node9" class="node">
<title>Node9</title>
<g id="a_node9"><a xlink:title=" ">
<polygon fill="white" stroke="#bfbfbf" points="387.5,-247.5 387.5,-288.5 516.5,-288.5 516.5,-247.5 387.5,-247.5"/>
<text text-anchor="start" x="395.5" y="-276.5" font-family="Helvetica,sans-Serif" font-size="10.00">std::multimap&lt; itk</text>
<text text-anchor="start" x="395.5" y="-265.5" font-family="Helvetica,sans-Serif" font-size="10.00">::Object *, std::function</text>
<text text-anchor="middle" x="452" y="-254.5" font-family="Helvetica,sans-Serif" font-size="10.00">&lt; void()&gt; &gt;</text>
</a>
</g>
</g>
<!-- Node9&#45;&gt;Node8 -->
<g id="edge9" class="edge">
<title>Node9&#45;&gt;Node8</title>
<path fill="none" stroke="#9a32cd" stroke-dasharray="5,2" d="M526.74,-270.23C575.46,-272.19 640.67,-275.75 698,-282 713.14,-283.65 729.5,-286.04 744.47,-288.48"/>
<polygon fill="#9a32cd" stroke="#9a32cd" points="526.73,-266.73 516.6,-269.84 526.46,-273.72 526.73,-266.73"/>
<text text-anchor="middle" x="619" y="-285" font-family="Helvetica,sans-Serif" font-size="10.00"> m_ReferencedObjectsCallbacks</text>
</g>
<!-- Node10 -->
<g id="node10" class="node">
<title>Node10</title>
<g id="a_node10"><a xlink:title="STL class.">
<polygon fill="white" stroke="#bfbfbf" points="114,-258.5 114,-277.5 240,-277.5 240,-258.5 114,-258.5"/>
<text text-anchor="middle" x="177" y="-265.5" font-family="Helvetica,sans-Serif" font-size="10.00">std::multimap&lt; K, T &gt;</text>
</a>
</g>
</g>
<!-- Node10&#45;&gt;Node9 -->
<g id="edge10" class="edge">
<title>Node10&#45;&gt;Node9</title>
<path fill="none" stroke="orange" stroke-dasharray="5,2" d="M250.3,-268C292.82,-268 346.1,-268 387.08,-268"/>
<polygon fill="orange" stroke="orange" points="250.29,-264.5 240.29,-268 250.29,-271.5 250.29,-264.5"/>
<text text-anchor="start" x="258" y="-282" font-family="Helvetica,sans-Serif" font-size="10.00"> &lt; itk::Object *, std</text>
<text text-anchor="middle" x="311" y="-271" font-family="Helvetica,sans-Serif" font-size="10.00">::function&lt; void()&gt; &gt;</text>
</g>
<!-- Node11 -->
<g id="node11" class="node">
<title>Node11</title>
<g id="a_node11"><a xlink:title=" ">
<polygon fill="white" stroke="#bfbfbf" points="0,-277.5 0,-296.5 29,-296.5 29,-277.5 0,-277.5"/>
<text text-anchor="middle" x="14.5" y="-284.5" font-family="Helvetica,sans-Serif" font-size="10.00">K</text>
</a>
</g>
</g>
<!-- Node11&#45;&gt;Node10 -->
<g id="edge11" class="edge">
<title>Node11&#45;&gt;Node10</title>
<path fill="none" stroke="#9a32cd" stroke-dasharray="5,2" d="M39.34,-284.18C58.97,-281.85 87.71,-278.45 113.77,-275.37"/>
<polygon fill="#9a32cd" stroke="#9a32cd" points="38.7,-280.73 29.18,-285.38 39.53,-287.68 38.7,-280.73"/>
<text text-anchor="middle" x="71.5" y="-285" font-family="Helvetica,sans-Serif" font-size="10.00"> keys</text>
</g>
<!-- Node12 -->
<g id="node12" class="node">
<title>Node12</title>
<g id="a_node12"><a xlink:title=" ">
<polygon fill="white" stroke="#bfbfbf" points="0,-190.5 0,-209.5 29,-209.5 29,-190.5 0,-190.5"/>
<text text-anchor="middle" x="14.5" y="-197.5" font-family="Helvetica,sans-Serif" font-size="10.00">T</text>
</a>
</g>
</g>
<!-- Node12&#45;&gt;Node10 -->
<g id="edge12" class="edge">
<title>Node12&#45;&gt;Node10</title>
<path fill="none" stroke="#9a32cd" stroke-dasharray="5,2" d="M30.02,-217.29C34.97,-222.31 40.82,-227.4 47,-231 69.44,-244.1 96.8,-252.8 120.54,-258.46"/>
<polygon fill="#9a32cd" stroke="#9a32cd" points="32.41,-214.72 23.08,-209.7 27.24,-219.44 32.41,-214.72"/>
<text text-anchor="middle" x="71.5" y="-254" font-family="Helvetica,sans-Serif" font-size="10.00"> elements</text>
</g>
<!-- Node15 -->
<g id="node15" class="node">
<title>Node15</title>
<g id="a_node15"><a xlink:title="STL class.">
<polygon fill="white" stroke="#bfbfbf" points="270.5,-209.5 270.5,-228.5 351.5,-228.5 351.5,-209.5 270.5,-209.5"/>
<text text-anchor="middle" x="311" y="-216.5" font-family="Helvetica,sans-Serif" font-size="10.00">std::list&lt; T &gt;</text>
</a>
</g>
</g>
<!-- Node12&#45;&gt;Node15 -->
<g id="edge16" class="edge">
<title>Node12&#45;&gt;Node15</title>
<path fill="none" stroke="#9a32cd" stroke-dasharray="5,2" d="M39.6,-201.56C90.31,-204.83 208.44,-212.45 270.42,-216.45"/>
<polygon fill="#9a32cd" stroke="#9a32cd" points="39.51,-198.04 29.31,-200.89 39.06,-205.03 39.51,-198.04"/>
<text text-anchor="middle" x="71.5" y="-209" font-family="Helvetica,sans-Serif" font-size="10.00"> elements</text>
</g>
<!-- Node22 -->
<g id="node22" class="node">
<title>Node22</title>
<g id="a_node22"><a xlink:title="STL class.">
<polygon fill="white" stroke="#bfbfbf" points="560,-26.5 560,-45.5 678,-45.5 678,-26.5 560,-26.5"/>
<text text-anchor="middle" x="619" y="-33.5" font-family="Helvetica,sans-Serif" font-size="10.00">std::unique_ptr&lt; T &gt;</text>
</a>
</g>
</g>
<!-- Node12&#45;&gt;Node22 -->
<g id="edge25" class="edge">
<title>Node12&#45;&gt;Node22</title>
<path fill="none" stroke="#9a32cd" stroke-dasharray="5,2" d="M28.75,-182.44C33.87,-176.74 40.15,-170.89 47,-167 216.31,-70.72 451.83,-45.18 559.77,-38.42"/>
<polygon fill="#9a32cd" stroke="#9a32cd" points="25.82,-180.49 22.15,-190.43 31.22,-184.95 25.82,-180.49"/>
<text text-anchor="middle" x="177" y="-136" font-family="Helvetica,sans-Serif" font-size="10.00"> ptr</text>
</g>
<!-- Node24 -->
<g id="node24" class="node">
<title>Node24</title>
<g id="a_node24"><a xlink:title="STL class.">
<polygon fill="white" stroke="#bfbfbf" points="2147.5,-171.5 2147.5,-190.5 2244.5,-190.5 2244.5,-171.5 2147.5,-171.5"/>
<text text-anchor="middle" x="2196" y="-178.5" font-family="Helvetica,sans-Serif" font-size="10.00">std::vector&lt; T &gt;</text>
</a>
</g>
</g>
<!-- Node12&#45;&gt;Node24 -->
<g id="edge28" class="edge">
<title>Node12&#45;&gt;Node24</title>
<path fill="none" stroke="#9a32cd" stroke-dasharray="5,2" d="M39.09,-195.44C70.29,-189.82 127.06,-181 176,-181 176,-181 176,-181 1856.5,-181 1960.22,-181 2081.83,-181 2147.35,-181"/>
<polygon fill="#9a32cd" stroke="#9a32cd" points="38.37,-192.02 29.18,-197.28 39.65,-198.9 38.37,-192.02"/>
<text text-anchor="middle" x="969" y="-184" font-family="Helvetica,sans-Serif" font-size="10.00"> elements</text>
</g>
<!-- Node13 -->
<g id="node13" class="node">
<title>Node13</title>
<g id="a_node13"><a xlink:title="STL class.">
<polygon fill="white" stroke="#bfbfbf" points="419.5,-307.5 419.5,-326.5 484.5,-326.5 484.5,-307.5 419.5,-307.5"/>
<text text-anchor="middle" x="452" y="-314.5" font-family="Helvetica,sans-Serif" font-size="10.00">std::string</text>
</a>
</g>
</g>
<!-- Node13&#45;&gt;Node8 -->
<g id="edge13" class="edge">
<title>Node13&#45;&gt;Node8</title>
<path fill="none" stroke="#9a32cd" stroke-dasharray="5,2" d="M494.75,-309.68C509.05,-307.46 525.18,-305.27 540,-304 598.69,-298.95 665.19,-297.51 715.83,-297.3"/>
<polygon fill="#9a32cd" stroke="#9a32cd" points="494.03,-306.25 484.71,-311.29 495.13,-313.16 494.03,-306.25"/>
<text text-anchor="middle" x="619" y="-307" font-family="Helvetica,sans-Serif" font-size="10.00"> m_Name</text>
</g>
<!-- Node14 -->
<g id="node14" class="node">
<title>Node14</title>
<g id="a_node14"><a xlink:title="STL class.">
<polygon fill="white" stroke="#bfbfbf" points="125,-302 125,-332 229,-332 229,-302 125,-302"/>
<text text-anchor="start" x="133" y="-320" font-family="Helvetica,sans-Serif" font-size="10.00">std::basic_string&lt;</text>
<text text-anchor="middle" x="177" y="-309" font-family="Helvetica,sans-Serif" font-size="10.00"> char &gt;</text>
</a>
</g>
</g>
<!-- Node14&#45;&gt;Node13 -->
<g id="edge14" class="edge">
<title>Node14&#45;&gt;Node13</title>
<path fill="none" stroke="midnightblue" d="M239.16,-317C295.05,-317 375.46,-317 419.39,-317"/>
<polygon fill="midnightblue" stroke="midnightblue" points="239.03,-313.5 229.03,-317 239.03,-320.5 239.03,-313.5"/>
</g>
<!-- Node15&#45;&gt;Node5 -->
<g id="edge15" class="edge">
<title>Node15&#45;&gt;Node5</title>
<path fill="none" stroke="orange" stroke-dasharray="5,2" d="M361.65,-219C422.19,-219 527.6,-219 618,-219 618,-219 618,-219 1481,-219 1597.39,-219 1731.1,-250.46 1802.74,-269.94"/>
<polygon fill="orange" stroke="orange" points="361.61,-215.5 351.61,-219 361.61,-222.5 361.61,-215.5"/>
<text text-anchor="start" x="898" y="-233" font-family="Helvetica,sans-Serif" font-size="10.00"> &lt; itk::simple::ProcessObject</text>
<text text-anchor="middle" x="969" y="-222" font-family="Helvetica,sans-Serif" font-size="10.00">::EventCommand &gt;</text>
</g>
<!-- Node16 -->
<g id="node16" class="node">
<title>Node16</title>
<g id="a_node16"><a xlink:title=" ">
<polygon fill="white" stroke="#bfbfbf" points="2379,-74.5 2379,-115.5 2610,-115.5 2610,-74.5 2379,-74.5"/>
<text text-anchor="start" x="2387" y="-103.5" font-family="Helvetica,sans-Serif" font-size="10.00">std::unique_ptr&lt; itk</text>
<text text-anchor="start" x="2387" y="-92.5" font-family="Helvetica,sans-Serif" font-size="10.00">::simple::detail::DualMember</text>
<text text-anchor="middle" x="2494.5" y="-81.5" font-family="Helvetica,sans-Serif" font-size="10.00">FunctionFactory&lt; MemberFunctionType &gt; &gt;</text>
</a>
</g>
</g>
<!-- Node16&#45;&gt;Node1 -->
<g id="edge17" class="edge">
<title>Node16&#45;&gt;Node1</title>
<path fill="none" stroke="#9a32cd" stroke-dasharray="5,2" d="M2620.2,-111.43C2660.1,-116.83 2704.44,-123 2745,-129 2750.8,-129.86 2756.81,-130.77 2762.84,-131.7"/>
<polygon fill="#9a32cd" stroke="#9a32cd" points="2620.54,-107.94 2610.16,-110.07 2619.6,-114.88 2620.54,-107.94"/>
<text text-anchor="middle" x="2686.5" y="-132" font-family="Helvetica,sans-Serif" font-size="10.00"> m_DualMemberFactory</text>
</g>
<!-- Node17 -->
<g id="node17" class="node">
<title>Node17</title>
<g id="a_node17"><a xlink:href="classitk_1_1simple_1_1detail_1_1DualMemberFunctionFactory.html" target="_top" xlink:title=" ">
<polygon fill="white" stroke="black" points="2115,-74.5 2115,-115.5 2277,-115.5 2277,-74.5 2115,-74.5"/>
<text text-anchor="start" x="2123" y="-103.5" font-family="Helvetica,sans-Serif" font-size="10.00">itk::simple::detail</text>
<text text-anchor="start" x="2123" y="-92.5" font-family="Helvetica,sans-Serif" font-size="10.00">::DualMemberFunctionFactory</text>
<text text-anchor="middle" x="2196" y="-81.5" font-family="Helvetica,sans-Serif" font-size="10.00">&lt; MemberFunctionType &gt;</text>
</a>
</g>
</g>
<!-- Node17&#45;&gt;Node16 -->
<g id="edge18" class="edge">
<title>Node17&#45;&gt;Node16</title>
<path fill="none" stroke="#9a32cd" stroke-dasharray="5,2" d="M2287.3,-95C2316.2,-95 2348.58,-95 2378.97,-95"/>
<polygon fill="#9a32cd" stroke="#9a32cd" points="2287.24,-91.5 2277.24,-95 2287.24,-98.5 2287.24,-91.5"/>
<text text-anchor="middle" x="2328" y="-98" font-family="Helvetica,sans-Serif" font-size="10.00"> ptr</text>
</g>
<!-- Node18 -->
<g id="node18" class="node">
<title>Node18</title>
<g id="a_node18"><a xlink:href="classitk_1_1simple_1_1detail_1_1MemberFunctionFactoryBase.html" target="_top" xlink:title=" ">
<polygon fill="white" stroke="black" points="1580,-30.5 1580,-93.5 1744,-93.5 1744,-30.5 1580,-30.5"/>
<text text-anchor="start" x="1588" y="-81.5" font-family="Helvetica,sans-Serif" font-size="10.00">itk::simple::detail</text>
<text text-anchor="start" x="1588" y="-70.5" font-family="Helvetica,sans-Serif" font-size="10.00">::MemberFunctionFactoryBase</text>
<text text-anchor="start" x="1588" y="-59.5" font-family="Helvetica,sans-Serif" font-size="10.00">&lt; MemberFunctionType, std</text>
<text text-anchor="start" x="1588" y="-48.5" font-family="Helvetica,sans-Serif" font-size="10.00">::tuple&lt; unsigned int, int,</text>
<text text-anchor="middle" x="1662" y="-37.5" font-family="Helvetica,sans-Serif" font-size="10.00"> unsigned int, int &gt; &gt;</text>
</a>
</g>
</g>
<!-- Node18&#45;&gt;Node17 -->
<g id="edge19" class="edge">
<title>Node18&#45;&gt;Node17</title>
<path fill="none" stroke="darkgreen" d="M1754.32,-67.66C1855.81,-73.96 2018.1,-84.03 2114.84,-90.03"/>
<polygon fill="darkgreen" stroke="darkgreen" points="1754.29,-64.16 1744.09,-67.03 1753.85,-71.14 1754.29,-64.16"/>
</g>
<!-- Node19 -->
<g id="node19" class="node">
<title>Node19</title>
<g id="a_node19"><a xlink:href="classitk_1_1simple_1_1detail_1_1MemberFunctionFactoryBase.html" target="_top" xlink:title="A base class for the MemberFunctionFactory.">
<polygon fill="white" stroke="black" points="1058,-80 1058,-110 1222,-110 1222,-80 1058,-80"/>
<text text-anchor="start" x="1066" y="-98" font-family="Helvetica,sans-Serif" font-size="10.00">itk::simple::detail</text>
<text text-anchor="middle" x="1140" y="-87" font-family="Helvetica,sans-Serif" font-size="10.00">::MemberFunctionFactoryBase</text>
</a>
</g>
</g>
<!-- Node19&#45;&gt;Node18 -->
<g id="edge20" class="edge">
<title>Node19&#45;&gt;Node18</title>
<path fill="none" stroke="orange" stroke-dasharray="5,2" d="M1182.05,-75.9C1199.51,-68.77 1220.35,-61.55 1240,-58 1356.7,-36.9 1494.59,-44.16 1579.92,-52.3"/>
<polygon fill="orange" stroke="orange" points="1180.58,-72.72 1172.72,-79.83 1183.3,-79.17 1180.58,-72.72"/>
<text text-anchor="start" x="1249" y="-94" font-family="Helvetica,sans-Serif" font-size="10.00"> &lt; MemberFunctionType,</text>
<text text-anchor="start" x="1249" y="-83" font-family="Helvetica,sans-Serif" font-size="10.00"> std::tuple&lt; unsigned</text>
<text text-anchor="start" x="1249" y="-72" font-family="Helvetica,sans-Serif" font-size="10.00"> int, int, unsigned int,</text>
<text text-anchor="middle" x="1310" y="-61" font-family="Helvetica,sans-Serif" font-size="10.00"> int &gt; &gt;</text>
</g>
<!-- Node21 -->
<g id="node21" class="node">
<title>Node21</title>
<g id="a_node21"><a xlink:href="classitk_1_1simple_1_1detail_1_1MemberFunctionFactoryBase.html" target="_top" xlink:title=" ">
<polygon fill="white" stroke="black" points="1398,-89.5 1398,-152.5 1562,-152.5 1562,-89.5 1398,-89.5"/>
<text text-anchor="start" x="1406" y="-140.5" font-family="Helvetica,sans-Serif" font-size="10.00">itk::simple::detail</text>
<text text-anchor="start" x="1406" y="-129.5" font-family="Helvetica,sans-Serif" font-size="10.00">::MemberFunctionFactoryBase</text>
<text text-anchor="start" x="1406" y="-118.5" font-family="Helvetica,sans-Serif" font-size="10.00">&lt; TMemberFunctionPointer,</text>
<text text-anchor="start" x="1406" y="-107.5" font-family="Helvetica,sans-Serif" font-size="10.00"> std::tuple&lt; unsigned int,</text>
<text text-anchor="middle" x="1480" y="-96.5" font-family="Helvetica,sans-Serif" font-size="10.00"> int, unsigned int, int &gt; &gt;</text>
</a>
</g>
</g>
<!-- Node19&#45;&gt;Node21 -->
<g id="edge23" class="edge">
<title>Node19&#45;&gt;Node21</title>
<path fill="none" stroke="orange" stroke-dasharray="5,2" d="M1232.22,-105.3C1234.84,-105.54 1237.44,-105.78 1240,-106 1292.5,-110.56 1351.6,-114.28 1397.9,-116.88"/>
<polygon fill="orange" stroke="orange" points="1232.3,-101.79 1222.01,-104.32 1231.63,-108.76 1232.3,-101.79"/>
<text text-anchor="start" x="1240" y="-141" font-family="Helvetica,sans-Serif" font-size="10.00"> &lt; TMemberFunctionPointer,</text>
<text text-anchor="start" x="1240" y="-130" font-family="Helvetica,sans-Serif" font-size="10.00"> std::tuple&lt; unsigned int,</text>
<text text-anchor="middle" x="1310" y="-119" font-family="Helvetica,sans-Serif" font-size="10.00"> int, unsigned int, int &gt; &gt;</text>
</g>
<!-- Node20 -->
<g id="node20" class="node">
<title>Node20</title>
<g id="a_node20"><a xlink:href="classitk_1_1simple_1_1detail_1_1DualMemberFunctionFactory.html" target="_top" xlink:title="A class used to instantiate and generate function objects of templated member functions with two temp...">
<polygon fill="white" stroke="black" points="1774.5,-92.5 1774.5,-133.5 1936.5,-133.5 1936.5,-92.5 1774.5,-92.5"/>
<text text-anchor="start" x="1782.5" y="-121.5" font-family="Helvetica,sans-Serif" font-size="10.00">itk::simple::detail</text>
<text text-anchor="start" x="1782.5" y="-110.5" font-family="Helvetica,sans-Serif" font-size="10.00">::DualMemberFunctionFactory</text>
<text text-anchor="middle" x="1855.5" y="-99.5" font-family="Helvetica,sans-Serif" font-size="10.00">&lt; TMemberFunctionPointer &gt;</text>
</a>
</g>
</g>
<!-- Node20&#45;&gt;Node17 -->
<g id="edge21" class="edge">
<title>Node20&#45;&gt;Node17</title>
<path fill="none" stroke="orange" stroke-dasharray="5,2" d="M1946.99,-108.19C1999.23,-105.41 2064.36,-101.95 2114.77,-99.27"/>
<polygon fill="orange" stroke="orange" points="1946.52,-104.71 1936.72,-108.73 1946.89,-111.7 1946.52,-104.71"/>
<text text-anchor="middle" x="2032" y="-110" font-family="Helvetica,sans-Serif" font-size="10.00"> &lt; MemberFunctionType &gt;</text>
</g>
<!-- Node21&#45;&gt;Node20 -->
<g id="edge22" class="edge">
<title>Node21&#45;&gt;Node20</title>
<path fill="none" stroke="darkgreen" d="M1572.18,-119.05C1633.98,-117.72 1714.9,-115.99 1774.26,-114.72"/>
<polygon fill="darkgreen" stroke="darkgreen" points="1571.97,-115.55 1562.04,-119.26 1572.12,-122.55 1571.97,-115.55"/>
</g>
<!-- Node22&#45;&gt;Node16 -->
<g id="edge24" class="edge">
<title>Node22&#45;&gt;Node16</title>
<path fill="none" stroke="orange" stroke-dasharray="5,2" d="M686.77,-24.96C756.67,-14.38 869.73,0 968,0 968,0 968,0 2197,0 2282.89,0 2296.93,-39.65 2379,-65 2389.5,-68.25 2400.62,-71.44 2411.63,-74.47"/>
<polygon fill="orange" stroke="orange" points="686.13,-21.52 676.78,-26.49 687.19,-28.44 686.13,-21.52"/>
<text text-anchor="start" x="1407" y="-25" font-family="Helvetica,sans-Serif" font-size="10.00"> &lt; itk::simple::detail</text>
<text text-anchor="start" x="1407" y="-14" font-family="Helvetica,sans-Serif" font-size="10.00">::DualMemberFunctionFactory</text>
<text text-anchor="middle" x="1480" y="-3" font-family="Helvetica,sans-Serif" font-size="10.00">&lt; MemberFunctionType &gt; &gt;</text>
</g>
<!-- Node23 -->
<g id="node23" class="node">
<title>Node23</title>
<g id="a_node23"><a xlink:title=" ">
<polygon fill="white" stroke="#bfbfbf" points="2429,-134.5 2429,-153.5 2560,-153.5 2560,-134.5 2429,-134.5"/>
<text text-anchor="middle" x="2494.5" y="-141.5" font-family="Helvetica,sans-Serif" font-size="10.00">std::vector&lt; uint32_t &gt;</text>
</a>
</g>
</g>
<!-- Node23&#45;&gt;Node1 -->
<g id="edge26" class="edge">
<title>Node23&#45;&gt;Node1</title>
<path fill="none" stroke="#9a32cd" stroke-dasharray="5,2" d="M2570.15,-144C2627.22,-144 2705.59,-144 2762.99,-144"/>
<polygon fill="#9a32cd" stroke="#9a32cd" points="2570.11,-140.5 2560.11,-144 2570.11,-147.5 2570.11,-140.5"/>
<text text-anchor="middle" x="2686.5" y="-147" font-family="Helvetica,sans-Serif" font-size="10.00"> m_Size</text>
</g>
<!-- Node24&#45;&gt;Node23 -->
<g id="edge27" class="edge">
<title>Node24&#45;&gt;Node23</title>
<path fill="none" stroke="orange" stroke-dasharray="5,2" d="M2254.74,-172.49C2267.96,-170.62 2281.96,-168.69 2295,-167 2339.56,-161.24 2389.83,-155.42 2428.63,-151.08"/>
<polygon fill="orange" stroke="orange" points="2254.22,-169.03 2244.82,-173.91 2255.21,-175.96 2254.22,-169.03"/>
<text text-anchor="middle" x="2328" y="-170" font-family="Helvetica,sans-Serif" font-size="10.00"> &lt; uint32_t &gt;</text>
</g>
<!-- Node26 -->
<g id="node26" class="node">
<title>Node26</title>
<g id="a_node26"><a xlink:title=" ">
<polygon fill="white" stroke="#bfbfbf" points="2432.5,-172.5 2432.5,-191.5 2556.5,-191.5 2556.5,-172.5 2432.5,-172.5"/>
<text text-anchor="middle" x="2494.5" y="-179.5" font-family="Helvetica,sans-Serif" font-size="10.00">std::vector&lt; double &gt;</text>
</a>
</g>
</g>
<!-- Node24&#45;&gt;Node26 -->
<g id="edge31" class="edge">
<title>Node24&#45;&gt;Node26</title>
<path fill="none" stroke="orange" stroke-dasharray="5,2" d="M2254.86,-181.2C2305.97,-181.37 2380.28,-181.62 2432.36,-181.79"/>
<polygon fill="orange" stroke="orange" points="2254.65,-177.69 2244.64,-181.16 2254.63,-184.69 2254.65,-177.69"/>
<text text-anchor="middle" x="2328" y="-185" font-family="Helvetica,sans-Serif" font-size="10.00"> &lt; double &gt;</text>
</g>
<!-- Node25 -->
<g id="node25" class="node">
<title>Node25</title>
<g id="a_node25"><a xlink:href="classitk_1_1simple_1_1Transform.html" target="_top" xlink:title="A simplified wrapper around a variety of ITK transforms.">
<polygon fill="white" stroke="black" points="2433,-36.5 2433,-55.5 2556,-55.5 2556,-36.5 2433,-36.5"/>
<text text-anchor="middle" x="2494.5" y="-43.5" font-family="Helvetica,sans-Serif" font-size="10.00">itk::simple::Transform</text>
</a>
</g>
</g>
<!-- Node25&#45;&gt;Node1 -->
<g id="edge29" class="edge">
<title>Node25&#45;&gt;Node1</title>
<path fill="none" stroke="#9a32cd" stroke-dasharray="5,2" d="M2565.95,-55.22C2616.75,-63.17 2686.4,-76.78 2745,-98 2768.4,-106.47 2793.68,-119.05 2812.12,-128.92"/>
<polygon fill="#9a32cd" stroke="#9a32cd" points="2566.47,-51.76 2556.05,-53.7 2565.41,-58.67 2566.47,-51.76"/>
<text text-anchor="middle" x="2686.5" y="-101" font-family="Helvetica,sans-Serif" font-size="10.00"> m_Transform</text>
</g>
<!-- Node26&#45;&gt;Node1 -->
<g id="edge30" class="edge">
<title>Node26&#45;&gt;Node1</title>
<path fill="none" stroke="#9a32cd" stroke-dasharray="5,2" d="M2566.66,-176.14C2616.63,-171.79 2684.99,-165.35 2745,-158 2750.81,-157.29 2756.82,-156.5 2762.86,-155.68"/>
<polygon fill="#9a32cd" stroke="#9a32cd" points="2566.27,-172.67 2556.61,-177.01 2566.87,-179.64 2566.27,-172.67"/>
<text text-anchor="middle" x="2686.5" y="-196" font-family="Helvetica,sans-Serif" font-size="10.00"> m_OutputSpacing</text>
<text text-anchor="middle" x="2686.5" y="-185" font-family="Helvetica,sans-Serif" font-size="10.00">m_OutputOrigin</text>
<text text-anchor="middle" x="2686.5" y="-174" font-family="Helvetica,sans-Serif" font-size="10.00">m_OutputDirection</text>
</g>
</g>
</svg>
