<?xml version="1.0" encoding="UTF-8" standalone="no"?>
<!DOCTYPE svg PUBLIC "-//W3C//DTD SVG 1.1//EN"
 "http://www.w3.org/Graphics/SVG/1.1/DTD/svg11.dtd">
<!-- Generated by graphviz version 2.43.0 (0)
 -->
<!-- Title: itk::simple::TransformixImageFilter Pages: 1 -->
<!--zoomable 299 -->
<svg id="main" version="1.1" xmlns="http://www.w3.org/2000/svg" xmlns:xlink="http://www.w3.org/1999/xlink" xml:space="preserve" onload="init(evt)">
<style type="text/css"><![CDATA[
.edge:hover path { stroke: red; }
.edge:hover polygon { stroke: red; fill: red; }
]]></style>
<script type="text/javascript"><![CDATA[
var edges = document.getElementsByTagName('g');
if (edges && edges.length) {
  for (var i=0;i<edges.length;i++) {
    if (edges[i].id.substr(0,4)=='edge') {
      edges[i].setAttribute('class','edge');
    }
  }
}
]]></script>
        <defs>
                <circle id="rim" cx="0" cy="0" r="7"/>
                <circle id="rim2" cx="0" cy="0" r="3.5"/>
                <g id="zoomPlus">
                        <use xlink:href="#rim" fill="#404040">
                                <set attributeName="fill" to="#808080" begin="zoomplus.mouseover" end="zoomplus.mouseout"/>
                        </use>
                        <path d="M-4,0h8M0,-4v8" fill="none" stroke="white" stroke-width="1.5" pointer-events="none"/>
                </g>
                <g id="zoomMin">
                        <use xlink:href="#rim" fill="#404040">
                                <set attributeName="fill" to="#808080" begin="zoomminus.mouseover" end="zoomminus.mouseout"/>
                        </use>
                        <path d="M-4,0h8" fill="none" stroke="white" stroke-width="1.5" pointer-events="none"/>
                </g>
                <g id="dirArrow">
                        <path fill="none" stroke="white" stroke-width="1.5" d="M0,-3.0v7 M-2.5,-0.5L0,-3.0L2.5,-0.5"/>
                </g>
               <g id="resetDef">
                       <use xlink:href="#rim2" fill="#404040">
                               <set attributeName="fill" to="#808080" begin="reset.mouseover" end="reset.mouseout"/>
                       </use>
               </g>
        </defs>

<script type="text/javascript">
var viewWidth = 1912;
var viewHeight = 299;
var sectionId = 'dynsection-0';
</script>
<script xlink:href="svgpan.js"/>
<svg id="graph" class="graph">
<g id="viewport">
<title>itk::simple::TransformixImageFilter</title>
<polygon fill="white" stroke="transparent" points="-4,4 -4,-294.91 1908,-294.91 1908,4 -4,4"/>
<!-- Node1 -->
<g id="node1" class="node">
<title>Node1</title>
<g id="a_node1"><a xlink:title=" ">
<polygon fill="#bfbfbf" stroke="black" points="1772,-107.41 1772,-137.41 1904,-137.41 1904,-107.41 1772,-107.41"/>
<text text-anchor="start" x="1780" y="-125.41" font-family="Helvetica,sans-Serif" font-size="10.00">itk::simple::Transformix</text>
<text text-anchor="middle" x="1838" y="-114.41" font-family="Helvetica,sans-Serif" font-size="10.00">ImageFilter</text>
</a>
</g>
</g>
<!-- Node2 -->
<g id="node2" class="node">
<title>Node2</title>
<g id="a_node2"><a xlink:title=" ">
<polygon fill="white" stroke="#bfbfbf" points="1377,-185.91 1377,-226.91 1567,-226.91 1567,-185.91 1377,-185.91"/>
<text text-anchor="start" x="1385" y="-214.91" font-family="Helvetica,sans-Serif" font-size="10.00">std::unique_ptr&lt; itk</text>
<text text-anchor="start" x="1385" y="-203.91" font-family="Helvetica,sans-Serif" font-size="10.00">::simple::detail::MemberFunction</text>
<text text-anchor="middle" x="1472" y="-192.91" font-family="Helvetica,sans-Serif" font-size="10.00">Factory&lt; MemberFunctionType &gt; &gt;</text>
</a>
</g>
</g>
<!-- Node2&#45;&gt;Node1 -->
<g id="edge1" class="edge">
<title>Node2&#45;&gt;Node1</title>
<path fill="none" stroke="#9a32cd" stroke-dasharray="5,2" d="M1577.53,-207.46C1631.59,-205.08 1697.83,-197.54 1754,-177.41 1778.9,-168.49 1803.68,-150.59 1819.6,-137.63"/>
<polygon fill="#9a32cd" stroke="#9a32cd" points="1577.09,-203.98 1567.23,-207.86 1577.36,-210.97 1577.09,-203.98"/>
<text text-anchor="middle" x="1669.5" y="-209.41" font-family="Helvetica,sans-Serif" font-size="10.00"> m_MemberFactory</text>
</g>
<!-- Node3 -->
<g id="node3" class="node">
<title>Node3</title>
<g id="a_node3"><a xlink:href="classitk_1_1simple_1_1detail_1_1MemberFunctionFactory.html" target="_top" xlink:title=" ">
<polygon fill="white" stroke="black" points="1049,-223.91 1049,-264.91 1192,-264.91 1192,-223.91 1049,-223.91"/>
<text text-anchor="start" x="1057" y="-252.91" font-family="Helvetica,sans-Serif" font-size="10.00">itk::simple::detail</text>
<text text-anchor="start" x="1057" y="-241.91" font-family="Helvetica,sans-Serif" font-size="10.00">::MemberFunctionFactory</text>
<text text-anchor="middle" x="1120.5" y="-230.91" font-family="Helvetica,sans-Serif" font-size="10.00">&lt; MemberFunctionType &gt;</text>
</a>
</g>
</g>
<!-- Node3&#45;&gt;Node2 -->
<g id="edge2" class="edge">
<title>Node3&#45;&gt;Node2</title>
<path fill="none" stroke="#9a32cd" stroke-dasharray="5,2" d="M1202.21,-237.94C1248.22,-233.99 1306.91,-228.54 1359,-222.41 1364.85,-221.72 1370.87,-220.98 1376.94,-220.2"/>
<polygon fill="#9a32cd" stroke="#9a32cd" points="1201.67,-234.47 1192,-238.8 1202.26,-241.44 1201.67,-234.47"/>
<text text-anchor="middle" x="1289.5" y="-238.41" font-family="Helvetica,sans-Serif" font-size="10.00"> ptr</text>
</g>
<!-- Node4 -->
<g id="node4" class="node">
<title>Node4</title>
<g id="a_node4"><a xlink:href="classitk_1_1simple_1_1detail_1_1MemberFunctionFactoryBase.html" target="_top" xlink:title=" ">
<polygon fill="white" stroke="black" points="530,-238.41 530,-290.41 694,-290.41 694,-238.41 530,-238.41"/>
<text text-anchor="start" x="538" y="-278.41" font-family="Helvetica,sans-Serif" font-size="10.00">itk::simple::detail</text>
<text text-anchor="start" x="538" y="-267.41" font-family="Helvetica,sans-Serif" font-size="10.00">::MemberFunctionFactoryBase</text>
<text text-anchor="start" x="538" y="-256.41" font-family="Helvetica,sans-Serif" font-size="10.00">&lt; MemberFunctionType, std</text>
<text text-anchor="middle" x="612" y="-245.41" font-family="Helvetica,sans-Serif" font-size="10.00">::pair&lt; unsigned int, int &gt; &gt;</text>
</a>
</g>
</g>
<!-- Node4&#45;&gt;Node3 -->
<g id="edge3" class="edge">
<title>Node4&#45;&gt;Node3</title>
<path fill="none" stroke="darkgreen" d="M704.4,-260.87C787.09,-257.65 912.21,-252.76 1021,-248.41 1029.98,-248.06 1039.42,-247.68 1048.75,-247.3"/>
<polygon fill="darkgreen" stroke="darkgreen" points="704.14,-257.37 694.28,-261.26 704.41,-264.37 704.14,-257.37"/>
</g>
<!-- Node5 -->
<g id="node5" class="node">
<title>Node5</title>
<g id="a_node5"><a xlink:href="classitk_1_1simple_1_1detail_1_1MemberFunctionFactoryBase.html" target="_top" xlink:title="A base class for the MemberFunctionFactory.">
<polygon fill="white" stroke="black" points="0,-222.41 0,-252.41 164,-252.41 164,-222.41 0,-222.41"/>
<text text-anchor="start" x="8" y="-240.41" font-family="Helvetica,sans-Serif" font-size="10.00">itk::simple::detail</text>
<text text-anchor="middle" x="82" y="-229.41" font-family="Helvetica,sans-Serif" font-size="10.00">::MemberFunctionFactoryBase</text>
</a>
</g>
</g>
<!-- Node5&#45;&gt;Node4 -->
<g id="edge4" class="edge">
<title>Node5&#45;&gt;Node4</title>
<path fill="none" stroke="orange" stroke-dasharray="5,2" d="M174.23,-242.98C176.85,-243.13 179.44,-243.27 182,-243.41 303.18,-250.05 443.67,-256.74 529.94,-260.73"/>
<polygon fill="orange" stroke="orange" points="174.22,-239.48 164.04,-242.4 173.82,-246.46 174.22,-239.48"/>
<text text-anchor="start" x="191" y="-275.41" font-family="Helvetica,sans-Serif" font-size="10.00"> &lt; MemberFunctionType,</text>
<text text-anchor="start" x="191" y="-264.41" font-family="Helvetica,sans-Serif" font-size="10.00"> std::pair&lt; unsigned</text>
<text text-anchor="middle" x="252" y="-253.41" font-family="Helvetica,sans-Serif" font-size="10.00"> int, int &gt; &gt;</text>
</g>
<!-- Node7 -->
<g id="node7" class="node">
<title>Node7</title>
<g id="a_node7"><a xlink:href="classitk_1_1simple_1_1detail_1_1MemberFunctionFactoryBase.html" target="_top" xlink:title=" ">
<polygon fill="white" stroke="black" points="340,-184.41 340,-236.41 512,-236.41 512,-184.41 340,-184.41"/>
<text text-anchor="start" x="348" y="-224.41" font-family="Helvetica,sans-Serif" font-size="10.00">itk::simple::detail</text>
<text text-anchor="start" x="348" y="-213.41" font-family="Helvetica,sans-Serif" font-size="10.00">::MemberFunctionFactoryBase</text>
<text text-anchor="start" x="348" y="-202.41" font-family="Helvetica,sans-Serif" font-size="10.00">&lt; TMemberFunctionPointer,</text>
<text text-anchor="middle" x="426" y="-191.41" font-family="Helvetica,sans-Serif" font-size="10.00"> std::pair&lt; unsigned int, int &gt; &gt;</text>
</a>
</g>
</g>
<!-- Node5&#45;&gt;Node7 -->
<g id="edge7" class="edge">
<title>Node5&#45;&gt;Node7</title>
<path fill="none" stroke="orange" stroke-dasharray="5,2" d="M138.35,-219.54C152.43,-215.76 167.65,-212.34 182,-210.41 234.06,-203.44 292.96,-203.25 339.73,-204.9"/>
<polygon fill="orange" stroke="orange" points="137.01,-216.27 128.32,-222.33 138.89,-223.02 137.01,-216.27"/>
<text text-anchor="start" x="182" y="-235.41" font-family="Helvetica,sans-Serif" font-size="10.00"> &lt; TMemberFunctionPointer,</text>
<text text-anchor="start" x="182" y="-224.41" font-family="Helvetica,sans-Serif" font-size="10.00"> std::pair&lt; unsigned int,</text>
<text text-anchor="middle" x="252" y="-213.41" font-family="Helvetica,sans-Serif" font-size="10.00"> int &gt; &gt;</text>
</g>
<!-- Node6 -->
<g id="node6" class="node">
<title>Node6</title>
<g id="a_node6"><a xlink:href="classitk_1_1simple_1_1detail_1_1MemberFunctionFactory.html" target="_top" xlink:title="A class used to instantiate and generate function object to templated member functions.">
<polygon fill="white" stroke="black" points="712,-190.91 712,-231.91 873,-231.91 873,-190.91 712,-190.91"/>
<text text-anchor="start" x="720" y="-219.91" font-family="Helvetica,sans-Serif" font-size="10.00">itk::simple::detail</text>
<text text-anchor="start" x="720" y="-208.91" font-family="Helvetica,sans-Serif" font-size="10.00">::MemberFunctionFactory</text>
<text text-anchor="middle" x="792.5" y="-197.91" font-family="Helvetica,sans-Serif" font-size="10.00">&lt; TMemberFunctionPointer &gt;</text>
</a>
</g>
</g>
<!-- Node6&#45;&gt;Node3 -->
<g id="edge5" class="edge">
<title>Node6&#45;&gt;Node3</title>
<path fill="none" stroke="orange" stroke-dasharray="5,2" d="M883.51,-220.52C935.68,-225.81 1000.42,-232.36 1048.89,-237.27"/>
<polygon fill="orange" stroke="orange" points="883.55,-217.01 873.25,-219.49 882.85,-223.98 883.55,-217.01"/>
<text text-anchor="middle" x="956" y="-236.41" font-family="Helvetica,sans-Serif" font-size="10.00"> &lt; MemberFunctionType &gt;</text>
</g>
<!-- Node7&#45;&gt;Node6 -->
<g id="edge6" class="edge">
<title>Node7&#45;&gt;Node6</title>
<path fill="none" stroke="darkgreen" d="M522.52,-210.68C581.45,-210.84 656.16,-211.04 711.88,-211.2"/>
<polygon fill="darkgreen" stroke="darkgreen" points="522.47,-207.18 512.46,-210.65 522.45,-214.18 522.47,-207.18"/>
</g>
<!-- Node8 -->
<g id="node8" class="node">
<title>Node8</title>
<g id="a_node8"><a xlink:title="STL class.">
<polygon fill="white" stroke="#bfbfbf" points="1061.5,-178.91 1061.5,-197.91 1179.5,-197.91 1179.5,-178.91 1061.5,-178.91"/>
<text text-anchor="middle" x="1120.5" y="-185.91" font-family="Helvetica,sans-Serif" font-size="10.00">std::unique_ptr&lt; T &gt;</text>
</a>
</g>
</g>
<!-- Node8&#45;&gt;Node2 -->
<g id="edge8" class="edge">
<title>Node8&#45;&gt;Node2</title>
<path fill="none" stroke="orange" stroke-dasharray="5,2" d="M1189.84,-186.06C1237.36,-185.07 1302.13,-185 1359,-189.41 1364.78,-189.86 1370.72,-190.43 1376.7,-191.09"/>
<polygon fill="orange" stroke="orange" points="1189.59,-182.56 1179.67,-186.29 1189.75,-189.56 1189.59,-182.56"/>
<text text-anchor="start" x="1220" y="-214.41" font-family="Helvetica,sans-Serif" font-size="10.00"> &lt; itk::simple::detail</text>
<text text-anchor="start" x="1220" y="-203.41" font-family="Helvetica,sans-Serif" font-size="10.00">::MemberFunctionFactory</text>
<text text-anchor="middle" x="1289.5" y="-192.41" font-family="Helvetica,sans-Serif" font-size="10.00">&lt; MemberFunctionType &gt; &gt;</text>
</g>
<!-- Node9 -->
<g id="node9" class="node">
<title>Node9</title>
<g id="a_node9"><a xlink:title=" ">
<polygon fill="white" stroke="#bfbfbf" points="778,-77.91 778,-96.91 807,-96.91 807,-77.91 778,-77.91"/>
<text text-anchor="middle" x="792.5" y="-84.91" font-family="Helvetica,sans-Serif" font-size="10.00">T</text>
</a>
</g>
</g>
<!-- Node9&#45;&gt;Node8 -->
<g id="edge9" class="edge">
<title>Node9&#45;&gt;Node8</title>
<path fill="none" stroke="#9a32cd" stroke-dasharray="5,2" d="M816.82,-95.99C860.18,-111.76 956.34,-145.91 1039,-169.41 1050.88,-172.79 1063.86,-176.04 1075.86,-178.87"/>
<polygon fill="#9a32cd" stroke="#9a32cd" points="817.8,-92.62 807.21,-92.48 815.4,-99.2 817.8,-92.62"/>
<text text-anchor="middle" x="956" y="-166.41" font-family="Helvetica,sans-Serif" font-size="10.00"> ptr</text>
</g>
<!-- Node15 -->
<g id="node15" class="node">
<title>Node15</title>
<g id="a_node15"><a xlink:title="STL class.">
<polygon fill="white" stroke="#bfbfbf" points="1070,-52.91 1070,-71.91 1171,-71.91 1171,-52.91 1070,-52.91"/>
<text text-anchor="middle" x="1120.5" y="-59.91" font-family="Helvetica,sans-Serif" font-size="10.00">std::map&lt; K, T &gt;</text>
</a>
</g>
</g>
<!-- Node9&#45;&gt;Node15 -->
<g id="edge17" class="edge">
<title>Node9&#45;&gt;Node15</title>
<path fill="none" stroke="#9a32cd" stroke-dasharray="5,2" d="M817.17,-85.6C870.01,-81.55 998.5,-71.69 1069.79,-66.23"/>
<polygon fill="#9a32cd" stroke="#9a32cd" points="816.8,-82.12 807.09,-86.37 817.33,-89.1 816.8,-82.12"/>
<text text-anchor="middle" x="956" y="-82.41" font-family="Helvetica,sans-Serif" font-size="10.00"> elements</text>
</g>
<!-- Node17 -->
<g id="node17" class="node">
<title>Node17</title>
<g id="a_node17"><a xlink:title="STL class.">
<polygon fill="white" stroke="#bfbfbf" points="1072,-14.91 1072,-33.91 1169,-33.91 1169,-14.91 1072,-14.91"/>
<text text-anchor="middle" x="1120.5" y="-21.91" font-family="Helvetica,sans-Serif" font-size="10.00">std::vector&lt; T &gt;</text>
</a>
</g>
</g>
<!-- Node9&#45;&gt;Node17 -->
<g id="edge19" class="edge">
<title>Node9&#45;&gt;Node17</title>
<path fill="none" stroke="#9a32cd" stroke-dasharray="5,2" d="M816.76,-78.79C836.33,-71.84 865.16,-62.29 891,-56.41 952.72,-42.39 1025.29,-33.48 1071.81,-28.72"/>
<polygon fill="#9a32cd" stroke="#9a32cd" points="815.4,-75.56 807.18,-82.25 817.78,-82.15 815.4,-75.56"/>
<text text-anchor="middle" x="956" y="-59.41" font-family="Helvetica,sans-Serif" font-size="10.00"> elements</text>
</g>
<!-- Node10 -->
<g id="node10" class="node">
<title>Node10</title>
<g id="a_node10"><a xlink:href="classitk_1_1simple_1_1Image.html" target="_top" xlink:title="The Image class for SimpleITK.">
<polygon fill="white" stroke="black" points="1419.5,-140.91 1419.5,-159.91 1524.5,-159.91 1524.5,-140.91 1419.5,-140.91"/>
<text text-anchor="middle" x="1472" y="-147.91" font-family="Helvetica,sans-Serif" font-size="10.00">itk::simple::Image</text>
</a>
</g>
</g>
<!-- Node10&#45;&gt;Node1 -->
<g id="edge10" class="edge">
<title>Node10&#45;&gt;Node1</title>
<path fill="none" stroke="#9a32cd" stroke-dasharray="5,2" d="M1535.01,-145.64C1600.95,-140.57 1704.79,-132.58 1771.88,-127.42"/>
<polygon fill="#9a32cd" stroke="#9a32cd" points="1534.47,-142.17 1524.77,-146.43 1535,-149.15 1534.47,-142.17"/>
<text text-anchor="middle" x="1669.5" y="-165.41" font-family="Helvetica,sans-Serif" font-size="10.00"> m_DeformationField</text>
<text text-anchor="middle" x="1669.5" y="-154.41" font-family="Helvetica,sans-Serif" font-size="10.00">m_MovingImage</text>
<text text-anchor="middle" x="1669.5" y="-143.41" font-family="Helvetica,sans-Serif" font-size="10.00">m_ResultImage</text>
</g>
<!-- Node11 -->
<g id="node11" class="node">
<title>Node11</title>
<g id="a_node11"><a xlink:href="classitk_1_1simple_1_1PimpleImageBase.html" target="_top" xlink:title="Private implementation idiom image base class.">
<polygon fill="white" stroke="black" points="1039,-140.91 1039,-159.91 1202,-159.91 1202,-140.91 1039,-140.91"/>
<text text-anchor="middle" x="1120.5" y="-147.91" font-family="Helvetica,sans-Serif" font-size="10.00">itk::simple::PimpleImageBase</text>
</a>
</g>
</g>
<!-- Node11&#45;&gt;Node10 -->
<g id="edge11" class="edge">
<title>Node11&#45;&gt;Node10</title>
<path fill="none" stroke="#9a32cd" stroke-dasharray="5,2" d="M1212.51,-150.41C1278.42,-150.41 1365.14,-150.41 1419.49,-150.41"/>
<polygon fill="#9a32cd" stroke="#9a32cd" points="1212.12,-146.91 1202.12,-150.41 1212.12,-153.91 1212.12,-146.91"/>
<text text-anchor="middle" x="1289.5" y="-153.41" font-family="Helvetica,sans-Serif" font-size="10.00"> m_PimpleImage</text>
</g>
<!-- Node12 -->
<g id="node12" class="node">
<title>Node12</title>
<g id="a_node12"><a xlink:title="STL class.">
<polygon fill="white" stroke="#bfbfbf" points="1439.5,-95.91 1439.5,-114.91 1504.5,-114.91 1504.5,-95.91 1439.5,-95.91"/>
<text text-anchor="middle" x="1472" y="-102.91" font-family="Helvetica,sans-Serif" font-size="10.00">std::string</text>
</a>
</g>
</g>
<!-- Node12&#45;&gt;Node1 -->
<g id="edge12" class="edge">
<title>Node12&#45;&gt;Node1</title>
<path fill="none" stroke="#9a32cd" stroke-dasharray="5,2" d="M1514.95,-98.93C1570.13,-91.54 1669.98,-82.09 1754,-95.41 1769.12,-97.81 1785.22,-102.52 1799.19,-107.34"/>
<polygon fill="#9a32cd" stroke="#9a32cd" points="1514.27,-95.49 1504.85,-100.33 1515.23,-102.43 1514.27,-95.49"/>
<text text-anchor="middle" x="1669.5" y="-120.41" font-family="Helvetica,sans-Serif" font-size="10.00"> m_OutputDirectory</text>
<text text-anchor="middle" x="1669.5" y="-109.41" font-family="Helvetica,sans-Serif" font-size="10.00">m_LogFileName</text>
<text text-anchor="middle" x="1669.5" y="-98.41" font-family="Helvetica,sans-Serif" font-size="10.00">m_MovingPointSetFileName</text>
</g>
<!-- Node13 -->
<g id="node13" class="node">
<title>Node13</title>
<g id="a_node13"><a xlink:title="STL class.">
<polygon fill="white" stroke="#bfbfbf" points="1068.5,-91.41 1068.5,-121.41 1172.5,-121.41 1172.5,-91.41 1068.5,-91.41"/>
<text text-anchor="start" x="1076.5" y="-109.41" font-family="Helvetica,sans-Serif" font-size="10.00">std::basic_string&lt;</text>
<text text-anchor="middle" x="1120.5" y="-98.41" font-family="Helvetica,sans-Serif" font-size="10.00"> char &gt;</text>
</a>
</g>
</g>
<!-- Node13&#45;&gt;Node12 -->
<g id="edge13" class="edge">
<title>Node13&#45;&gt;Node12</title>
<path fill="none" stroke="midnightblue" d="M1182.93,-106.24C1257.86,-106.02 1381.67,-105.67 1439.46,-105.5"/>
<polygon fill="midnightblue" stroke="midnightblue" points="1182.68,-102.74 1172.69,-106.27 1182.7,-109.74 1182.68,-102.74"/>
</g>
<!-- Node14 -->
<g id="node14" class="node">
<title>Node14</title>
<g id="a_node14"><a xlink:title=" ">
<polygon fill="white" stroke="#bfbfbf" points="1396.5,-45.41 1396.5,-75.41 1547.5,-75.41 1547.5,-45.41 1396.5,-45.41"/>
<text text-anchor="start" x="1404.5" y="-63.41" font-family="Helvetica,sans-Serif" font-size="10.00">std::vector&lt; ParameterMap</text>
<text text-anchor="middle" x="1472" y="-52.41" font-family="Helvetica,sans-Serif" font-size="10.00">Type &gt;</text>
</a>
</g>
</g>
<!-- Node14&#45;&gt;Node1 -->
<g id="edge14" class="edge">
<title>Node14&#45;&gt;Node1</title>
<path fill="none" stroke="#9a32cd" stroke-dasharray="5,2" d="M1557.66,-54.38C1614.35,-52.81 1690.03,-55.53 1754,-74.41 1777.31,-81.29 1801.03,-95.94 1817.11,-107.25"/>
<polygon fill="#9a32cd" stroke="#9a32cd" points="1557.54,-50.88 1547.66,-54.71 1557.77,-57.88 1557.54,-50.88"/>
<text text-anchor="middle" x="1669.5" y="-77.41" font-family="Helvetica,sans-Serif" font-size="10.00"> m_TransformParameterMapVector</text>
</g>
<!-- Node15&#45;&gt;Node14 -->
<g id="edge15" class="edge">
<title>Node15&#45;&gt;Node14</title>
<path fill="none" stroke="#9a32cd" stroke-dasharray="5,2" d="M1181.56,-62.07C1241.06,-61.73 1332.32,-61.21 1396.42,-60.84"/>
<polygon fill="#9a32cd" stroke="#9a32cd" points="1181.18,-58.57 1171.2,-62.13 1181.22,-65.57 1181.18,-58.57"/>
<text text-anchor="middle" x="1289.5" y="-65.41" font-family="Helvetica,sans-Serif" font-size="10.00"> elements</text>
</g>
<!-- Node16 -->
<g id="node16" class="node">
<title>Node16</title>
<g id="a_node16"><a xlink:title=" ">
<polygon fill="white" stroke="#bfbfbf" points="778,-9.91 778,-28.91 807,-28.91 807,-9.91 778,-9.91"/>
<text text-anchor="middle" x="792.5" y="-16.91" font-family="Helvetica,sans-Serif" font-size="10.00">K</text>
</a>
</g>
</g>
<!-- Node16&#45;&gt;Node15 -->
<g id="edge16" class="edge">
<title>Node16&#45;&gt;Node15</title>
<path fill="none" stroke="#9a32cd" stroke-dasharray="5,2" d="M817.07,-13.13C860.13,-2.97 953.32,12.75 1021,-20.41 1032.66,-26.12 1028.07,-36.42 1039,-43.41 1048.19,-49.3 1059.02,-53.36 1069.71,-56.17"/>
<polygon fill="#9a32cd" stroke="#9a32cd" points="816.11,-9.76 807.24,-15.56 817.79,-16.55 816.11,-9.76"/>
<text text-anchor="middle" x="956" y="-23.41" font-family="Helvetica,sans-Serif" font-size="10.00"> keys</text>
</g>
<!-- Node17&#45;&gt;Node14 -->
<g id="edge18" class="edge">
<title>Node17&#45;&gt;Node14</title>
<path fill="none" stroke="orange" stroke-dasharray="5,2" d="M1179.53,-29.27C1227.65,-33.42 1297.83,-39.76 1359,-46.41 1371.08,-47.73 1383.88,-49.23 1396.33,-50.74"/>
<polygon fill="orange" stroke="orange" points="1179.57,-25.76 1169.31,-28.39 1178.97,-32.73 1179.57,-25.76"/>
<text text-anchor="middle" x="1289.5" y="-49.41" font-family="Helvetica,sans-Serif" font-size="10.00"> &lt; ParameterMapType &gt;</text>
</g>
</g>
</svg>
        <g id="navigator" transform="translate(0 0)" fill="#404254">
                <rect fill="#f2f5e9" fill-opacity="0.5" stroke="#606060" stroke-width=".5" x="0" y="0" width="60" height="60"/>
                <use id="zoomplus" xlink:href="#zoomPlus" x="17" y="9" onmousedown="handleZoom(evt,'in')"/>
                <use id="zoomminus" xlink:href="#zoomMin" x="42" y="9" onmousedown="handleZoom(evt,'out')"/>
                <use id="reset" xlink:href="#resetDef" x="30" y="36" onmousedown="handleReset()"/>
                <g id="arrowUp" xlink:href="#dirArrow" transform="translate(30 24)" onmousedown="handlePan(0,-1)">
                  <use xlink:href="#rim" fill="#404040">
                        <set attributeName="fill" to="#808080" begin="arrowUp.mouseover" end="arrowUp.mouseout"/>
                  </use>
                  <path fill="none" stroke="white" stroke-width="1.5" d="M0,-3.0v7 M-2.5,-0.5L0,-3.0L2.5,-0.5"/>
                </g>
                <g id="arrowRight" xlink:href="#dirArrow" transform="rotate(90) translate(36 -43)" onmousedown="handlePan(1,0)">
                  <use xlink:href="#rim" fill="#404040">
                        <set attributeName="fill" to="#808080" begin="arrowRight.mouseover" end="arrowRight.mouseout"/>
                  </use>
                  <path fill="none" stroke="white" stroke-width="1.5" d="M0,-3.0v7 M-2.5,-0.5L0,-3.0L2.5,-0.5"/>
                </g>
                <g id="arrowDown" xlink:href="#dirArrow" transform="rotate(180) translate(-30 -48)" onmousedown="handlePan(0,1)">
                  <use xlink:href="#rim" fill="#404040">
                        <set attributeName="fill" to="#808080" begin="arrowDown.mouseover" end="arrowDown.mouseout"/>
                  </use>
                  <path fill="none" stroke="white" stroke-width="1.5" d="M0,-3.0v7 M-2.5,-0.5L0,-3.0L2.5,-0.5"/>
                </g>
                <g id="arrowLeft" xlink:href="#dirArrow" transform="rotate(270) translate(-36 17)" onmousedown="handlePan(-1,0)">
                  <use xlink:href="#rim" fill="#404040">
                        <set attributeName="fill" to="#808080" begin="arrowLeft.mouseover" end="arrowLeft.mouseout"/>
                  </use>
                  <path fill="none" stroke="white" stroke-width="1.5" d="M0,-3.0v7 M-2.5,-0.5L0,-3.0L2.5,-0.5"/>
                </g>
        </g>
        <svg viewBox="0 0 15 15" width="100%" height="30px" preserveAspectRatio="xMaxYMin meet">
         <g id="arrow_out" transform="scale(0.3 0.3)">
          <a xlink:href="classitk_1_1simple_1_1TransformixImageFilter__coll__graph_org.svg" target="_base">
           <rect id="button" ry="5" rx="5" y="6" x="6" height="38" width="38"
                fill="#f2f5e9" fill-opacity="0.5" stroke="#606060" stroke-width="1.0"/>
           <path id="arrow"
             d="M 11.500037,31.436501 C 11.940474,20.09759 22.043105,11.32322 32.158766,21.979434 L 37.068811,17.246167 C 37.068811,17.246167 37.088388,32 37.088388,32 L 22.160133,31.978069 C 22.160133,31.978069 26.997745,27.140456 26.997745,27.140456 C 18.528582,18.264221 13.291696,25.230495 11.500037,31.436501 z"
             style="fill:#404040;"/>
          </a>
         </g>
        </svg>
</svg>
