<?xml version="1.0" encoding="UTF-8" standalone="no"?>
<!DOCTYPE svg PUBLIC "-//W3C//DTD SVG 1.1//EN"
 "http://www.w3.org/Graphics/SVG/1.1/DTD/svg11.dtd">
<!-- Generated by graphviz version 2.43.0 (0)
 -->
<!-- Title: itk::simple::ElastixImageFilter::ElastixImageFilterImpl Pages: 1 -->
<!--zoomable 444 -->

<svg id="main" version="1.1" xmlns="http://www.w3.org/2000/svg" xmlns:xlink="http://www.w3.org/1999/xlink" xml:space="preserve" onload="init(evt)">

<style type="text/css"><![CDATA[
.node, .edge {opacity: 0.7;}
.node.selected, .edge.selected {opacity: 1;}
.edge:hover path { stroke: red; }
.edge:hover polygon { stroke: red; fill: red; }
]]></style>

<defs>
  <circle id="rim" cx="0" cy="0" r="7"/>
  <circle id="rim2" cx="0" cy="0" r="3.5"/>
  <g id="zoomPlus">
    <use xlink:href="#rim" fill="#404040"><set attributeName="fill" to="#808080" begin="zoomplus.mouseover" end="zoomplus.mouseout"/></use>
    <path d="M-4,0h8M0,-4v8" fill="none" stroke="white" stroke-width="1.5" pointer-events="none"/>
  </g>
  <g id="zoomMin">
    <use xlink:href="#rim" fill="#404040"><set attributeName="fill" to="#808080" begin="zoomminus.mouseover" end="zoomminus.mouseout"/></use>
    <path d="M-4,0h8" fill="none" stroke="white" stroke-width="1.5" pointer-events="none"/>
  </g>
  <g id="arrowUp" transform="translate(30 24)">
    <use xlink:href="#rim"/>
    <path pointer-events="none" fill="none" stroke="white" stroke-width="1.5" d="M0,-3.0v7 M-2.5,-0.5L0,-3.0L2.5,-0.5"/>
  </g>
  <g id="arrowRight" transform="rotate(90) translate(36 -43)">
    <use xlink:href="#rim"/>
    <path pointer-events="none" fill="none" stroke="white" stroke-width="1.5" d="M0,-3.0v7 M-2.5,-0.5L0,-3.0L2.5,-0.5"/>
  </g>
  <g id="arrowDown" transform="rotate(180) translate(-30 -48)">
    <use xlink:href="#rim"/>
    <path pointer-events="none" fill="none" stroke="white" stroke-width="1.5" d="M0,-3.0v7 M-2.5,-0.5L0,-3.0L2.5,-0.5"/>
  </g>
  <g id="arrowLeft" transform="rotate(270) translate(-36 17)">
    <use xlink:href="#rim"/>
    <path pointer-events="none" fill="none" stroke="white" stroke-width="1.5" d="M0,-3.0v7 M-2.5,-0.5L0,-3.0L2.5,-0.5"/>
  </g>
  <g id="resetDef">
    <use xlink:href="#rim2" fill="#404040"><set attributeName="fill" to="#808080" begin="reset.mouseover" end="reset.mouseout"/></use>
  </g>
</defs>
<script type="application/ecmascript">
var viewWidth = 1583;
var viewHeight = 444;
var sectionId = 'dynsection-0';
</script>
<script type="application/ecmascript" xlink:href="svg.min.js"/>
<svg id="graph" class="graph">
<g id="viewport">
<title>itk::simple::ElastixImageFilter::ElastixImageFilterImpl</title>
<!-- Node1 -->
<g id="Node000001" class="node">
<title>Node1</title>
<g id="a_Node000001"><a xlink:title=" ">
<polygon fill="#999999" stroke="#666666" points="1575,-164 1417,-164 1417,-134 1575,-134 1575,-164"/>
<text text-anchor="start" x="1425" y="-152" font-family="Helvetica,sans-Serif" font-size="10.00">itk::simple::ElastixImage</text>
<text text-anchor="middle" x="1496" y="-141" font-family="Helvetica,sans-Serif" font-size="10.00">Filter::ElastixImageFilterImpl</text>
</a>
</g>
</g>
<!-- Node2 -->
<g id="Node000002" class="node">
<title>Node2</title>
<g id="a_Node000002"><a xlink:title=" ">
<polygon fill="white" stroke="#666666" points="1215,-284.5 984,-284.5 984,-243.5 1215,-243.5 1215,-284.5"/>
<text text-anchor="start" x="992" y="-272.5" font-family="Helvetica,sans-Serif" font-size="10.00">std::unique_ptr&lt; itk</text>
<text text-anchor="start" x="992" y="-261.5" font-family="Helvetica,sans-Serif" font-size="10.00">::simple::detail::DualMember</text>
<text text-anchor="middle" x="1099.5" y="-250.5" font-family="Helvetica,sans-Serif" font-size="10.00">FunctionFactory&lt; MemberFunctionType &gt; &gt;</text>
</a>
</g>
</g>
<!-- Node2&#45;&gt;Node1 -->
<g id="edge1_Node000001_Node000002" class="edge">
<title>Node2&#45;&gt;Node1</title>
<g id="a_edge1_Node000001_Node000002"><a xlink:title=" ">
<path fill="none" stroke="#9a32cd" stroke-dasharray="5,2" d="M1225.3,-266.52C1280.47,-263.57 1344.95,-254.4 1399,-231 1434,-215.85 1465.77,-183.41 1482.53,-164.19"/>
<polygon fill="#9a32cd" stroke="#9a32cd" points="1224.93,-263.03 1215.11,-267 1225.26,-270.02 1224.93,-263.03"/>
</a>
</g>
<text text-anchor="middle" x="1316" y="-269" font-family="Helvetica,sans-Serif" font-size="10.00" fill="grey"> m_DualMemberFactory</text>
</g>
<!-- Node3 -->
<g id="Node000003" class="node">
<title>Node3</title>
<g id="a_Node000003"><a xlink:href="classitk_1_1simple_1_1detail_1_1DualMemberFunctionFactory.html" target="_top" xlink:title=" ">
<polygon fill="white" stroke="#666666" points="828,-316.5 666,-316.5 666,-275.5 828,-275.5 828,-316.5"/>
<text text-anchor="start" x="674" y="-304.5" font-family="Helvetica,sans-Serif" font-size="10.00">itk::simple::detail</text>
<text text-anchor="start" x="674" y="-293.5" font-family="Helvetica,sans-Serif" font-size="10.00">::DualMemberFunctionFactory</text>
<text text-anchor="middle" x="747" y="-282.5" font-family="Helvetica,sans-Serif" font-size="10.00">&lt; MemberFunctionType &gt;</text>
</a>
</g>
</g>
<!-- Node3&#45;&gt;Node2 -->
<g id="edge2_Node000002_Node000003" class="edge">
<title>Node3&#45;&gt;Node2</title>
<g id="a_edge2_Node000002_Node000003"><a xlink:title=" ">
<path fill="none" stroke="#9a32cd" stroke-dasharray="5,2" d="M838.59,-287.73C882.92,-283.68 936.77,-278.77 983.92,-274.46"/>
<polygon fill="#9a32cd" stroke="#9a32cd" points="838.05,-284.26 828.41,-288.66 838.69,-291.23 838.05,-284.26"/>
</a>
</g>
<text text-anchor="middle" x="906" y="-289" font-family="Helvetica,sans-Serif" font-size="10.00" fill="grey"> ptr</text>
</g>
<!-- Node4 -->
<g id="Node000004" class="node">
<title>Node4</title>
<g id="a_Node000004"><a xlink:title=" ">
<polygon fill="white" stroke="#666666" points="493,-436 261,-436 261,-340 493,-340 493,-436"/>
<text text-anchor="start" x="269" y="-424" font-family="Helvetica,sans-Serif" font-size="10.00">MemberFunctionFactoryBase</text>
<text text-anchor="start" x="269" y="-413" font-family="Helvetica,sans-Serif" font-size="10.00">&lt; MemberFunctionType, std</text>
<text text-anchor="start" x="269" y="-402" font-family="Helvetica,sans-Serif" font-size="10.00">::tuple&lt; unsigned int, int,</text>
<text text-anchor="start" x="269" y="-391" font-family="Helvetica,sans-Serif" font-size="10.00"> unsigned int, int &gt;, std::</text>
<text text-anchor="start" x="269" y="-380" font-family="Helvetica,sans-Serif" font-size="10.00">unordered_map&lt;std::tuple&lt;unsigned</text>
<text text-anchor="start" x="269" y="-369" font-family="Helvetica,sans-Serif" font-size="10.00"> int, int, unsigned int, int&gt;, MemberFunction</text>
<text text-anchor="start" x="269" y="-358" font-family="Helvetica,sans-Serif" font-size="10.00">Type, hash&lt;std::tuple&lt;unsigned int, int,</text>
<text text-anchor="middle" x="377" y="-347" font-family="Helvetica,sans-Serif" font-size="10.00"> unsigned int, int&gt;&gt;&gt; &gt;</text>
</a>
</g>
</g>
<!-- Node4&#45;&gt;Node3 -->
<g id="edge3_Node000003_Node000004" class="edge">
<title>Node4&#45;&gt;Node3</title>
<g id="a_edge3_Node000003_Node000004"><a xlink:title=" ">
<path fill="none" stroke="darkgreen" d="M503.13,-356.72C556.95,-343.26 618.27,-327.93 665.83,-316.04"/>
<polygon fill="darkgreen" stroke="darkgreen" points="502.03,-353.39 493.18,-359.21 503.73,-360.18 502.03,-353.39"/>
</a>
</g>
</g>
<!-- Node5 -->
<g id="Node000005" class="node">
<title>Node5</title>
<g id="a_Node000005"><a xlink:href="classitk_1_1simple_1_1detail_1_1DualMemberFunctionFactory.html" target="_top" xlink:title="A class used to instantiate and generate function objects of templated member functions with two temp...">
<polygon fill="white" stroke="#666666" points="458,-322 296,-322 296,-270 458,-270 458,-322"/>
<text text-anchor="start" x="304" y="-310" font-family="Helvetica,sans-Serif" font-size="10.00">itk::simple::detail</text>
<text text-anchor="start" x="304" y="-299" font-family="Helvetica,sans-Serif" font-size="10.00">::DualMemberFunctionFactory</text>
<text text-anchor="start" x="304" y="-288" font-family="Helvetica,sans-Serif" font-size="10.00">&lt; TMemberFunctionPointer,</text>
<text text-anchor="middle" x="377" y="-277" font-family="Helvetica,sans-Serif" font-size="10.00"> TContainer &gt;</text>
</a>
</g>
</g>
<!-- Node5&#45;&gt;Node3 -->
<g id="edge4_Node000003_Node000005" class="edge">
<title>Node5&#45;&gt;Node3</title>
<g id="a_edge4_Node000003_Node000005"><a xlink:title=" ">
<path fill="none" stroke="orange" stroke-dasharray="5,2" d="M468.6,-296C529.02,-296 607.73,-296 665.87,-296"/>
<polygon fill="orange" stroke="orange" points="468.3,-292.5 458.3,-296 468.3,-299.5 468.3,-292.5"/>
</a>
</g>
<text text-anchor="middle" x="579.5" y="-299" font-family="Helvetica,sans-Serif" font-size="10.00" fill="grey"> &lt; MemberFunctionType &gt;</text>
</g>
<!-- Node6 -->
<g id="Node000006" class="node">
<title>Node6</title>
<g id="a_Node000006"><a xlink:title=" ">
<polygon fill="white" stroke="#666666" points="208,-349.5 0,-349.5 0,-242.5 208,-242.5 208,-349.5"/>
<text text-anchor="start" x="8" y="-337.5" font-family="Helvetica,sans-Serif" font-size="10.00">MemberFunctionFactoryBase</text>
<text text-anchor="start" x="8" y="-326.5" font-family="Helvetica,sans-Serif" font-size="10.00">&lt; TMemberFunctionPointer,</text>
<text text-anchor="start" x="8" y="-315.5" font-family="Helvetica,sans-Serif" font-size="10.00"> std::tuple&lt; unsigned int,</text>
<text text-anchor="start" x="8" y="-304.5" font-family="Helvetica,sans-Serif" font-size="10.00"> int, unsigned int, int &gt;,</text>
<text text-anchor="start" x="8" y="-293.5" font-family="Helvetica,sans-Serif" font-size="10.00"> std::unordered_map&lt;std::tuple</text>
<text text-anchor="start" x="8" y="-282.5" font-family="Helvetica,sans-Serif" font-size="10.00">&lt;unsigned int, int, unsigned int,</text>
<text text-anchor="start" x="8" y="-271.5" font-family="Helvetica,sans-Serif" font-size="10.00"> int&gt;, TMemberFunctionPointer, hash</text>
<text text-anchor="start" x="8" y="-260.5" font-family="Helvetica,sans-Serif" font-size="10.00">&lt;std::tuple&lt;unsigned int, int, unsigned</text>
<text text-anchor="middle" x="104" y="-249.5" font-family="Helvetica,sans-Serif" font-size="10.00"> int, int&gt;&gt;&gt; &gt;</text>
</a>
</g>
</g>
<!-- Node6&#45;&gt;Node5 -->
<g id="edge5_Node000005_Node000006" class="edge">
<title>Node6&#45;&gt;Node5</title>
<g id="a_edge5_Node000005_Node000006"><a xlink:title=" ">
<path fill="none" stroke="darkgreen" d="M218.51,-296C244.49,-296 271.58,-296 295.82,-296"/>
<polygon fill="darkgreen" stroke="darkgreen" points="218.23,-292.5 208.23,-296 218.23,-299.5 218.23,-292.5"/>
</a>
</g>
</g>
<!-- Node7 -->
<g id="Node000007" class="node">
<title>Node7</title>
<g id="a_Node000007"><a xlink:title=" ">
<polygon fill="white" stroke="#666666" points="436,-173.5 318,-173.5 318,-154.5 436,-154.5 436,-173.5"/>
<text text-anchor="middle" x="377" y="-161.5" font-family="Helvetica,sans-Serif" font-size="10.00">std::unique_ptr&lt; T &gt;</text>
</a>
</g>
</g>
<!-- Node7&#45;&gt;Node2 -->
<g id="edge6_Node000002_Node000007" class="edge">
<title>Node7&#45;&gt;Node2</title>
<g id="a_edge6_Node000002_Node000007"><a xlink:title=" ">
<path fill="none" stroke="orange" stroke-dasharray="5,2" d="M446.22,-159.3C534.87,-154.58 694.16,-150.81 828,-173 891.51,-183.53 911.02,-183.52 966,-217 975.66,-222.88 974.16,-229.41 984,-235 989.53,-238.14 995.39,-240.95 1001.44,-243.45"/>
<polygon fill="orange" stroke="orange" points="445.82,-155.82 436.03,-159.87 446.21,-162.81 445.82,-155.82"/>
</a>
</g>
<text text-anchor="start" x="674" y="-198" font-family="Helvetica,sans-Serif" font-size="10.00" fill="grey"> &lt; itk::simple::detail</text>
<text text-anchor="start" x="674" y="-187" font-family="Helvetica,sans-Serif" font-size="10.00" fill="grey">::DualMemberFunctionFactory</text>
<text text-anchor="middle" x="747" y="-176" font-family="Helvetica,sans-Serif" font-size="10.00" fill="grey">&lt; MemberFunctionType &gt; &gt;</text>
</g>
<!-- Node12 -->
<g id="Node000012" class="node">
<title>Node12</title>
<g id="a_Node000012"><a xlink:title=" ">
<polygon fill="white" stroke="#666666" points="827.5,-245 666.5,-245 666.5,-215 827.5,-215 827.5,-245"/>
<text text-anchor="start" x="674.5" y="-233" font-family="Helvetica,sans-Serif" font-size="10.00">std::unique_ptr&lt; itk</text>
<text text-anchor="middle" x="747" y="-222" font-family="Helvetica,sans-Serif" font-size="10.00">::simple::PimpleImageBase &gt;</text>
</a>
</g>
</g>
<!-- Node7&#45;&gt;Node12 -->
<g id="edge14_Node000012_Node000007" class="edge">
<title>Node7&#45;&gt;Node12</title>
<g id="a_edge14_Node000012_Node000007"><a xlink:title=" ">
<path fill="none" stroke="orange" stroke-dasharray="5,2" d="M446.08,-173.45C500.82,-181.38 579.6,-193.55 648,-207 660,-209.36 672.77,-212.15 684.98,-214.96"/>
<polygon fill="orange" stroke="orange" points="446.55,-169.98 436.15,-172.02 445.55,-176.91 446.55,-169.98"/>
</a>
</g>
<text text-anchor="start" x="511" y="-221" font-family="Helvetica,sans-Serif" font-size="10.00" fill="grey"> &lt; itk::simple::PimpleImage</text>
<text text-anchor="middle" x="579.5" y="-210" font-family="Helvetica,sans-Serif" font-size="10.00" fill="grey">Base &gt;</text>
</g>
<!-- Node8 -->
<g id="Node000008" class="node">
<title>Node8</title>
<g id="a_Node000008"><a xlink:title=" ">
<polygon fill="white" stroke="#666666" points="118.5,-151.5 89.5,-151.5 89.5,-132.5 118.5,-132.5 118.5,-151.5"/>
<text text-anchor="middle" x="104" y="-139.5" font-family="Helvetica,sans-Serif" font-size="10.00">T</text>
</a>
</g>
</g>
<!-- Node8&#45;&gt;Node7 -->
<g id="edge7_Node000007_Node000008" class="edge">
<title>Node8&#45;&gt;Node7</title>
<g id="a_edge7_Node000007_Node000008"><a xlink:title=" ">
<path fill="none" stroke="#9a32cd" stroke-dasharray="5,2" d="M128.92,-143.94C170.94,-147.35 259.16,-154.51 318,-159.29"/>
<polygon fill="#9a32cd" stroke="#9a32cd" points="129.06,-140.44 118.81,-143.12 128.5,-147.42 129.06,-140.44"/>
</a>
</g>
<text text-anchor="middle" x="234.5" y="-156" font-family="Helvetica,sans-Serif" font-size="10.00" fill="grey"> ptr</text>
</g>
<!-- Node10 -->
<g id="Node000010" class="node">
<title>Node10</title>
<g id="a_Node000010"><a xlink:title=" ">
<polygon fill="white" stroke="#666666" points="795.5,-127.5 698.5,-127.5 698.5,-108.5 795.5,-108.5 795.5,-127.5"/>
<text text-anchor="middle" x="747" y="-115.5" font-family="Helvetica,sans-Serif" font-size="10.00">std::vector&lt; T &gt;</text>
</a>
</g>
</g>
<!-- Node8&#45;&gt;Node10 -->
<g id="edge10_Node000010_Node000008" class="edge">
<title>Node8&#45;&gt;Node10</title>
<g id="a_edge10_Node000010_Node000008"><a xlink:title=" ">
<path fill="none" stroke="#9a32cd" stroke-dasharray="5,2" d="M128.9,-140.85C159.51,-139.4 214.2,-136.87 261,-135 421.37,-128.59 611.63,-122.31 698.49,-119.51"/>
<polygon fill="#9a32cd" stroke="#9a32cd" points="128.59,-137.37 118.77,-141.34 128.93,-144.36 128.59,-137.37"/>
</a>
</g>
<text text-anchor="middle" x="377" y="-138" font-family="Helvetica,sans-Serif" font-size="10.00" fill="grey"> elements</text>
</g>
<!-- Node9 -->
<g id="Node000009" class="node">
<title>Node9</title>
<g id="a_Node000009"><a xlink:title=" ">
<polygon fill="white" stroke="#666666" points="1160.5,-157.5 1038.5,-157.5 1038.5,-138.5 1160.5,-138.5 1160.5,-157.5"/>
<text text-anchor="middle" x="1099.5" y="-145.5" font-family="Helvetica,sans-Serif" font-size="10.00">std::vector&lt; Image &gt;</text>
</a>
</g>
</g>
<!-- Node9&#45;&gt;Node1 -->
<g id="edge8_Node000001_Node000009" class="edge">
<title>Node9&#45;&gt;Node1</title>
<g id="a_edge8_Node000001_Node000009"><a xlink:title=" ">
<path fill="none" stroke="#9a32cd" stroke-dasharray="5,2" d="M1171.2,-148.18C1240.36,-148.35 1345.44,-148.62 1417,-148.8"/>
<polygon fill="#9a32cd" stroke="#9a32cd" points="1170.85,-144.68 1160.85,-148.15 1170.84,-151.68 1170.85,-144.68"/>
</a>
</g>
<text text-anchor="middle" x="1316" y="-184" font-family="Helvetica,sans-Serif" font-size="10.00" fill="grey"> m_FixedImages</text>
<text text-anchor="middle" x="1316" y="-173" font-family="Helvetica,sans-Serif" font-size="10.00" fill="grey">m_FixedMasks</text>
<text text-anchor="middle" x="1316" y="-162" font-family="Helvetica,sans-Serif" font-size="10.00" fill="grey">m_MovingImages</text>
<text text-anchor="middle" x="1316" y="-151" font-family="Helvetica,sans-Serif" font-size="10.00" fill="grey">m_MovingMasks</text>
</g>
<!-- Node10&#45;&gt;Node9 -->
<g id="edge9_Node000009_Node000010" class="edge">
<title>Node10&#45;&gt;Node9</title>
<g id="a_edge9_Node000009_Node000010"><a xlink:title=" ">
<path fill="none" stroke="orange" stroke-dasharray="5,2" d="M805.99,-122.96C870.21,-128.46 973.26,-137.28 1038.34,-142.85"/>
<polygon fill="orange" stroke="orange" points="805.9,-119.44 795.63,-122.08 805.3,-126.42 805.9,-119.44"/>
</a>
</g>
<text text-anchor="middle" x="906" y="-139" font-family="Helvetica,sans-Serif" font-size="10.00" fill="grey"> &lt; Image &gt;</text>
</g>
<!-- Node16 -->
<g id="Node000016" class="node">
<title>Node16</title>
<g id="a_Node000016"><a xlink:title=" ">
<polygon fill="white" stroke="#666666" points="1175,-119 1024,-119 1024,-89 1175,-89 1175,-119"/>
<text text-anchor="start" x="1032" y="-107" font-family="Helvetica,sans-Serif" font-size="10.00">std::vector&lt; ParameterMap</text>
<text text-anchor="middle" x="1099.5" y="-96" font-family="Helvetica,sans-Serif" font-size="10.00">Type &gt;</text>
</a>
</g>
</g>
<!-- Node10&#45;&gt;Node16 -->
<g id="edge18_Node000016_Node000010" class="edge">
<title>Node10&#45;&gt;Node16</title>
<g id="a_edge18_Node000016_Node000010"><a xlink:title=" ">
<path fill="none" stroke="orange" stroke-dasharray="5,2" d="M805.66,-109.1C818.88,-107.41 832.9,-105.89 846,-105 905.7,-100.94 973.52,-100.92 1023.83,-101.8"/>
<polygon fill="orange" stroke="orange" points="805.18,-105.64 795.73,-110.42 806.1,-112.57 805.18,-105.64"/>
</a>
</g>
<text text-anchor="middle" x="906" y="-108" font-family="Helvetica,sans-Serif" font-size="10.00" fill="grey"> &lt; ParameterMapType &gt;</text>
</g>
<!-- Node11 -->
<g id="Node000011" class="node">
<title>Node11</title>
<g id="a_Node000011"><a xlink:href="classitk_1_1simple_1_1Image.html" target="_top" xlink:title="The Image class for SimpleITK.">
<polygon fill="white" stroke="#666666" points="1152,-225.5 1047,-225.5 1047,-206.5 1152,-206.5 1152,-225.5"/>
<text text-anchor="middle" x="1099.5" y="-213.5" font-family="Helvetica,sans-Serif" font-size="10.00">itk::simple::Image</text>
</a>
</g>
</g>
<!-- Node11&#45;&gt;Node1 -->
<g id="edge11_Node000001_Node000011" class="edge">
<title>Node11&#45;&gt;Node1</title>
<g id="a_edge11_Node000001_Node000011"><a xlink:title=" ">
<path fill="none" stroke="#9a32cd" stroke-dasharray="5,2" d="M1162.38,-217.93C1223.51,-218.33 1319.16,-214.89 1399,-194 1424.11,-187.43 1450.68,-174.45 1469.49,-164.11"/>
<polygon fill="#9a32cd" stroke="#9a32cd" points="1162.16,-214.43 1152.13,-217.82 1162.09,-221.43 1162.16,-214.43"/>
</a>
</g>
<text text-anchor="middle" x="1316" y="-219" font-family="Helvetica,sans-Serif" font-size="10.00" fill="grey"> m_ResultImage</text>
</g>
<!-- Node12&#45;&gt;Node11 -->
<g id="edge12_Node000011_Node000012" class="edge">
<title>Node12&#45;&gt;Node11</title>
<g id="a_edge12_Node000011_Node000012"><a xlink:title=" ">
<path fill="none" stroke="#9a32cd" stroke-dasharray="5,2" d="M837.57,-226.42C903.92,-223.77 992,-220.25 1046.96,-218.06"/>
<polygon fill="#9a32cd" stroke="#9a32cd" points="837.39,-222.93 827.53,-226.82 837.67,-229.92 837.39,-222.93"/>
</a>
</g>
<text text-anchor="middle" x="906" y="-228" font-family="Helvetica,sans-Serif" font-size="10.00" fill="grey"> m_PimpleImage</text>
</g>
<!-- Node13 -->
<g id="Node000013" class="node">
<title>Node13</title>
<g id="a_Node000013"><a xlink:href="classitk_1_1simple_1_1PimpleImageBase.html" target="_top" xlink:title="Private implementation idiom image base class.">
<polygon fill="white" stroke="#666666" points="458.5,-251.5 295.5,-251.5 295.5,-232.5 458.5,-232.5 458.5,-251.5"/>
<text text-anchor="middle" x="377" y="-239.5" font-family="Helvetica,sans-Serif" font-size="10.00">itk::simple::PimpleImageBase</text>
</a>
</g>
</g>
<!-- Node13&#45;&gt;Node12 -->
<g id="edge13_Node000012_Node000013" class="edge">
<title>Node13&#45;&gt;Node12</title>
<g id="a_edge13_Node000012_Node000013"><a xlink:title=" ">
<path fill="none" stroke="#9a32cd" stroke-dasharray="5,2" d="M469.08,-239.03C529.61,-237.06 608.35,-234.49 666.38,-232.6"/>
<polygon fill="#9a32cd" stroke="#9a32cd" points="468.64,-235.54 458.76,-239.37 468.87,-242.54 468.64,-235.54"/>
</a>
</g>
<text text-anchor="middle" x="579.5" y="-240" font-family="Helvetica,sans-Serif" font-size="10.00" fill="grey"> ptr</text>
</g>
<!-- Node14 -->
<g id="Node000014" class="node">
<title>Node14</title>
<g id="a_Node000014"><a xlink:title=" ">
<polygon fill="white" stroke="#666666" points="1132,-24.5 1067,-24.5 1067,-5.5 1132,-5.5 1132,-24.5"/>
<text text-anchor="middle" x="1099.5" y="-12.5" font-family="Helvetica,sans-Serif" font-size="10.00">std::string</text>
</a>
</g>
</g>
<!-- Node14&#45;&gt;Node1 -->
<g id="edge15_Node000001_Node000014" class="edge">
<title>Node14&#45;&gt;Node1</title>
<g id="a_edge15_Node000001_Node000014"><a xlink:title=" ">
<path fill="none" stroke="#9a32cd" stroke-dasharray="5,2" d="M1142.51,-8.19C1202.85,-0.5 1315.91,6.04 1399,-36 1442.18,-57.85 1473.71,-108.55 1487.42,-133.94"/>
<polygon fill="#9a32cd" stroke="#9a32cd" points="1141.67,-4.77 1132.23,-9.58 1142.61,-11.71 1141.67,-4.77"/>
</a>
</g>
<text text-anchor="middle" x="1316" y="-94" font-family="Helvetica,sans-Serif" font-size="10.00" fill="grey"> m_FixedPointSetFileName</text>
<text text-anchor="start" x="1245" y="-83" font-family="Helvetica,sans-Serif" font-size="10.00" fill="grey">m_InitialTransformParameter</text>
<text text-anchor="middle" x="1316" y="-72" font-family="Helvetica,sans-Serif" font-size="10.00" fill="grey">MapFileName</text>
<text text-anchor="middle" x="1316" y="-61" font-family="Helvetica,sans-Serif" font-size="10.00" fill="grey">m_LogFileName</text>
<text text-anchor="middle" x="1316" y="-50" font-family="Helvetica,sans-Serif" font-size="10.00" fill="grey">m_MovingPointSetFileName</text>
<text text-anchor="middle" x="1316" y="-39" font-family="Helvetica,sans-Serif" font-size="10.00" fill="grey">m_OutputDirectory</text>
</g>
<!-- Node15 -->
<g id="Node000015" class="node">
<title>Node15</title>
<g id="a_Node000015"><a xlink:title=" ">
<polygon fill="white" stroke="#666666" points="799,-30 695,-30 695,0 799,0 799,-30"/>
<text text-anchor="start" x="703" y="-18" font-family="Helvetica,sans-Serif" font-size="10.00">std::basic_string&lt;</text>
<text text-anchor="middle" x="747" y="-7" font-family="Helvetica,sans-Serif" font-size="10.00"> Char &gt;</text>
</a>
</g>
</g>
<!-- Node15&#45;&gt;Node14 -->
<g id="edge16_Node000014_Node000015" class="edge">
<title>Node15&#45;&gt;Node14</title>
<g id="a_edge16_Node000014_Node000015"><a xlink:title=" ">
<path fill="none" stroke="#63b8ff" d="M809.61,-15C884.75,-15 1008.91,-15 1066.87,-15"/>
<polygon fill="#63b8ff" stroke="#63b8ff" points="809.34,-11.5 799.34,-15 809.34,-18.5 809.34,-11.5"/>
</a>
</g>
</g>
<!-- Node16&#45;&gt;Node1 -->
<g id="edge17_Node000001_Node000016" class="edge">
<title>Node16&#45;&gt;Node1</title>
<g id="a_edge17_Node000001_Node000016"><a xlink:title=" ">
<path fill="none" stroke="#9a32cd" stroke-dasharray="5,2" d="M1185.41,-104.3C1245.44,-105.69 1327.62,-109.95 1399,-122 1415.56,-124.79 1433.35,-129.35 1449.07,-133.93"/>
<polygon fill="#9a32cd" stroke="#9a32cd" points="1185.29,-100.8 1175.22,-104.09 1185.14,-107.8 1185.29,-100.8"/>
</a>
</g>
<text text-anchor="middle" x="1316" y="-136" font-family="Helvetica,sans-Serif" font-size="10.00" fill="grey"> m_ParameterMapVector</text>
<text text-anchor="middle" x="1316" y="-125" font-family="Helvetica,sans-Serif" font-size="10.00" fill="grey">m_TransformParameterMapVector</text>
</g>
</g>
</svg>

<g id="navigator" transform="translate(0 0)" fill="#404254">
  <rect fill="#f2f5e9" fill-opacity="0.5" stroke="#606060" stroke-width=".5" x="0" y="0" width="60" height="60"/>
  <use id="zoomplus" xlink:href="#zoomPlus" x="17" y="9" onmousedown="handleZoom(evt,'in')"/>
  <use id="zoomminus" xlink:href="#zoomMin" x="42" y="9" onmousedown="handleZoom(evt,'out')"/>
  <use id="reset" xlink:href="#resetDef" x="30" y="36" onmousedown="handleReset()"/>
   <use id="arrowup" xlink:href="#arrowUp" x="0" y="0" onmousedown="handlePan(0,-1)"/>
  <use id="arrowright" xlink:href="#arrowRight" x="0" y="0" onmousedown="handlePan(1,0)"/>
  <use id="arrowdown" xlink:href="#arrowDown" x="0" y="0" onmousedown="handlePan(0,1)"/>
  <use id="arrowleft" xlink:href="#arrowLeft" x="0" y="0" onmousedown="handlePan(-1,0)"/>
</g>
<svg viewBox="0 0 15 15" width="100%" height="30px" preserveAspectRatio="xMaxYMin meet">
 <g id="arrow_out" transform="scale(0.3 0.3)">
  <a xlink:href="classitk_1_1simple_1_1ElastixImageFilter_1_1ElastixImageFilterImpl__coll__graph_org.svg" target="_base">
   <rect id="button" ry="5" rx="5" y="6" x="6" height="38" width="38"
        fill="#f2f5e9" fill-opacity="0.5" stroke="#606060" stroke-width="1.0"/>
   <path id="arrow"
     d="M 11.500037,31.436501 C 11.940474,20.09759 22.043105,11.32322 32.158766,21.979434 L 37.068811,17.246167 C 37.068811,17.246167 37.088388,32 37.088388,32 L 22.160133,31.978069 C 22.160133,31.978069 26.997745,27.140456 26.997745,27.140456 C 18.528582,18.264221 13.291696,25.230495 11.500037,31.436501 z"
     style="fill:#404040;"/>
  </a>
 </g>
</svg>

<style type='text/css'>
<![CDATA[
[data-mouse-over-selected='false'] { opacity: 0.7; }
[data-mouse-over-selected='true']  { opacity: 1.0; }
]]>
</style>
<script type="application/ecmascript"><![CDATA[
document.addEventListener('DOMContentLoaded', (event) => {
  highlightEdges();
  highlightAdjacentNodes();
});
]]></script>
</svg>
