<?xml version="1.0" encoding="UTF-8" standalone="no"?>
<!DOCTYPE svg PUBLIC "-//W3C//DTD SVG 1.1//EN"
 "http://www.w3.org/Graphics/SVG/1.1/DTD/svg11.dtd">
<!-- Generated by graphviz version 2.43.0 (0)
 -->
<!-- Title: itk::simple::ElastixImageFilter Pages: 1 -->
<svg width="1956pt" height="350pt"
 viewBox="0.00 0.00 1956.00 349.50" xmlns="http://www.w3.org/2000/svg" xmlns:xlink="http://www.w3.org/1999/xlink">
<g id="graph0" class="graph" transform="scale(1 1) rotate(0) translate(4 345.5)">
<title>itk::simple::ElastixImageFilter</title>
<polygon fill="white" stroke="transparent" points="-4,4 -4,-345.5 1952,-345.5 1952,4 -4,4"/>
<!-- Node1 -->
<g id="node1" class="node">
<title>Node1</title>
<g id="a_node1"><a xlink:title="The class that wraps the elastix registration library.">
<polygon fill="#bfbfbf" stroke="black" points="1810,-134.5 1810,-164.5 1948,-164.5 1948,-134.5 1810,-134.5"/>
<text text-anchor="start" x="1818" y="-152.5" font-family="Helvetica,sans-Serif" font-size="10.00">itk::simple::ElastixImage</text>
<text text-anchor="middle" x="1879" y="-141.5" font-family="Helvetica,sans-Serif" font-size="10.00">Filter</text>
</a>
</g>
</g>
<!-- Node2 -->
<g id="node2" class="node">
<title>Node2</title>
<g id="a_node2"><a xlink:title=" ">
<polygon fill="white" stroke="#bfbfbf" points="1377,-238 1377,-279 1608,-279 1608,-238 1377,-238"/>
<text text-anchor="start" x="1385" y="-267" font-family="Helvetica,sans-Serif" font-size="10.00">std::unique_ptr&lt; itk</text>
<text text-anchor="start" x="1385" y="-256" font-family="Helvetica,sans-Serif" font-size="10.00">::simple::detail::DualMember</text>
<text text-anchor="middle" x="1492.5" y="-245" font-family="Helvetica,sans-Serif" font-size="10.00">FunctionFactory&lt; MemberFunctionType &gt; &gt;</text>
</a>
</g>
</g>
<!-- Node2&#45;&gt;Node1 -->
<g id="edge1" class="edge">
<title>Node2&#45;&gt;Node1</title>
<path fill="none" stroke="#9a32cd" stroke-dasharray="5,2" d="M1618.32,-259.45C1673.49,-255.89 1737.96,-246.11 1792,-222.5 1822.15,-209.33 1849.76,-182.01 1865.19,-164.78"/>
<polygon fill="#9a32cd" stroke="#9a32cd" points="1617.9,-255.97 1608.13,-260.05 1618.31,-262.96 1617.9,-255.97"/>
<text text-anchor="middle" x="1709" y="-261.5" font-family="Helvetica,sans-Serif" font-size="10.00"> m_DualMemberFactory</text>
</g>
<!-- Node3 -->
<g id="node3" class="node">
<title>Node3</title>
<g id="a_node3"><a xlink:href="classitk_1_1simple_1_1detail_1_1DualMemberFunctionFactory.html" target="_top" xlink:title=" ">
<polygon fill="white" stroke="black" points="1033,-277 1033,-318 1195,-318 1195,-277 1033,-277"/>
<text text-anchor="start" x="1041" y="-306" font-family="Helvetica,sans-Serif" font-size="10.00">itk::simple::detail</text>
<text text-anchor="start" x="1041" y="-295" font-family="Helvetica,sans-Serif" font-size="10.00">::DualMemberFunctionFactory</text>
<text text-anchor="middle" x="1114" y="-284" font-family="Helvetica,sans-Serif" font-size="10.00">&lt; MemberFunctionType &gt;</text>
</a>
</g>
</g>
<!-- Node3&#45;&gt;Node2 -->
<g id="edge2" class="edge">
<title>Node3&#45;&gt;Node2</title>
<path fill="none" stroke="#9a32cd" stroke-dasharray="5,2" d="M1204.99,-290.2C1251.09,-286.26 1308.09,-281.06 1359,-275.5 1364.88,-274.86 1370.9,-274.18 1376.98,-273.47"/>
<polygon fill="#9a32cd" stroke="#9a32cd" points="1204.69,-286.71 1195.02,-291.05 1205.28,-293.69 1204.69,-286.71"/>
<text text-anchor="middle" x="1286" y="-291.5" font-family="Helvetica,sans-Serif" font-size="10.00"> ptr</text>
</g>
<!-- Node4 -->
<g id="node4" class="node">
<title>Node4</title>
<g id="a_node4"><a xlink:href="classitk_1_1simple_1_1detail_1_1MemberFunctionFactoryBase.html" target="_top" xlink:title=" ">
<polygon fill="white" stroke="black" points="522,-220 522,-283 686,-283 686,-220 522,-220"/>
<text text-anchor="start" x="530" y="-271" font-family="Helvetica,sans-Serif" font-size="10.00">itk::simple::detail</text>
<text text-anchor="start" x="530" y="-260" font-family="Helvetica,sans-Serif" font-size="10.00">::MemberFunctionFactoryBase</text>
<text text-anchor="start" x="530" y="-249" font-family="Helvetica,sans-Serif" font-size="10.00">&lt; MemberFunctionType, std</text>
<text text-anchor="start" x="530" y="-238" font-family="Helvetica,sans-Serif" font-size="10.00">::tuple&lt; unsigned int, int,</text>
<text text-anchor="middle" x="604" y="-227" font-family="Helvetica,sans-Serif" font-size="10.00"> unsigned int, int &gt; &gt;</text>
</a>
</g>
</g>
<!-- Node4&#45;&gt;Node3 -->
<g id="edge3" class="edge">
<title>Node4&#45;&gt;Node3</title>
<path fill="none" stroke="darkgreen" d="M696.38,-258.87C746.72,-263.01 810.33,-268.36 867,-273.5 922.45,-278.53 984.88,-284.63 1032.98,-289.42"/>
<polygon fill="darkgreen" stroke="darkgreen" points="696.42,-255.36 686.16,-258.03 695.84,-262.34 696.42,-255.36"/>
</g>
<!-- Node5 -->
<g id="node5" class="node">
<title>Node5</title>
<g id="a_node5"><a xlink:href="classitk_1_1simple_1_1detail_1_1MemberFunctionFactoryBase.html" target="_top" xlink:title="A base class for the MemberFunctionFactory.">
<polygon fill="white" stroke="black" points="0,-264.5 0,-294.5 164,-294.5 164,-264.5 0,-264.5"/>
<text text-anchor="start" x="8" y="-282.5" font-family="Helvetica,sans-Serif" font-size="10.00">itk::simple::detail</text>
<text text-anchor="middle" x="82" y="-271.5" font-family="Helvetica,sans-Serif" font-size="10.00">::MemberFunctionFactoryBase</text>
</a>
</g>
</g>
<!-- Node5&#45;&gt;Node4 -->
<g id="edge4" class="edge">
<title>Node5&#45;&gt;Node4</title>
<path fill="none" stroke="orange" stroke-dasharray="5,2" d="M125.39,-260.4C142.59,-253.63 162.88,-246.87 182,-243.5 298.81,-222.92 436.67,-231.64 521.97,-240.79"/>
<polygon fill="orange" stroke="orange" points="123.6,-257.35 115.66,-264.36 126.24,-263.84 123.6,-257.35"/>
<text text-anchor="start" x="191" y="-279.5" font-family="Helvetica,sans-Serif" font-size="10.00"> &lt; MemberFunctionType,</text>
<text text-anchor="start" x="191" y="-268.5" font-family="Helvetica,sans-Serif" font-size="10.00"> std::tuple&lt; unsigned</text>
<text text-anchor="start" x="191" y="-257.5" font-family="Helvetica,sans-Serif" font-size="10.00"> int, int, unsigned int,</text>
<text text-anchor="middle" x="252" y="-246.5" font-family="Helvetica,sans-Serif" font-size="10.00"> int &gt; &gt;</text>
</g>
<!-- Node7 -->
<g id="node7" class="node">
<title>Node7</title>
<g id="a_node7"><a xlink:href="classitk_1_1simple_1_1detail_1_1MemberFunctionFactoryBase.html" target="_top" xlink:title=" ">
<polygon fill="white" stroke="black" points="340,-278 340,-341 504,-341 504,-278 340,-278"/>
<text text-anchor="start" x="348" y="-329" font-family="Helvetica,sans-Serif" font-size="10.00">itk::simple::detail</text>
<text text-anchor="start" x="348" y="-318" font-family="Helvetica,sans-Serif" font-size="10.00">::MemberFunctionFactoryBase</text>
<text text-anchor="start" x="348" y="-307" font-family="Helvetica,sans-Serif" font-size="10.00">&lt; TMemberFunctionPointer,</text>
<text text-anchor="start" x="348" y="-296" font-family="Helvetica,sans-Serif" font-size="10.00"> std::tuple&lt; unsigned int,</text>
<text text-anchor="middle" x="422" y="-285" font-family="Helvetica,sans-Serif" font-size="10.00"> int, unsigned int, int &gt; &gt;</text>
</a>
</g>
</g>
<!-- Node5&#45;&gt;Node7 -->
<g id="edge7" class="edge">
<title>Node5&#45;&gt;Node7</title>
<path fill="none" stroke="orange" stroke-dasharray="5,2" d="M174.21,-290.71C176.84,-290.99 179.44,-291.25 182,-291.5 234.49,-296.66 293.59,-301.12 339.89,-304.31"/>
<polygon fill="orange" stroke="orange" points="174.32,-287.21 164.01,-289.62 173.58,-294.17 174.32,-287.21"/>
<text text-anchor="start" x="182" y="-327.5" font-family="Helvetica,sans-Serif" font-size="10.00"> &lt; TMemberFunctionPointer,</text>
<text text-anchor="start" x="182" y="-316.5" font-family="Helvetica,sans-Serif" font-size="10.00"> std::tuple&lt; unsigned int,</text>
<text text-anchor="middle" x="252" y="-305.5" font-family="Helvetica,sans-Serif" font-size="10.00"> int, unsigned int, int &gt; &gt;</text>
</g>
<!-- Node6 -->
<g id="node6" class="node">
<title>Node6</title>
<g id="a_node6"><a xlink:href="classitk_1_1simple_1_1detail_1_1DualMemberFunctionFactory.html" target="_top" xlink:title="A class used to instantiate and generate function objects of templated member functions with two temp...">
<polygon fill="white" stroke="black" points="704.5,-283 704.5,-324 866.5,-324 866.5,-283 704.5,-283"/>
<text text-anchor="start" x="712.5" y="-312" font-family="Helvetica,sans-Serif" font-size="10.00">itk::simple::detail</text>
<text text-anchor="start" x="712.5" y="-301" font-family="Helvetica,sans-Serif" font-size="10.00">::DualMemberFunctionFactory</text>
<text text-anchor="middle" x="785.5" y="-290" font-family="Helvetica,sans-Serif" font-size="10.00">&lt; TMemberFunctionPointer &gt;</text>
</a>
</g>
</g>
<!-- Node6&#45;&gt;Node3 -->
<g id="edge5" class="edge">
<title>Node6&#45;&gt;Node3</title>
<path fill="none" stroke="orange" stroke-dasharray="5,2" d="M877.03,-301.84C925.86,-300.94 985.59,-299.84 1032.74,-298.97"/>
<polygon fill="orange" stroke="orange" points="876.72,-298.34 866.79,-302.02 876.85,-305.34 876.72,-298.34"/>
<text text-anchor="middle" x="950" y="-304.5" font-family="Helvetica,sans-Serif" font-size="10.00"> &lt; MemberFunctionType &gt;</text>
</g>
<!-- Node7&#45;&gt;Node6 -->
<g id="edge6" class="edge">
<title>Node7&#45;&gt;Node6</title>
<path fill="none" stroke="darkgreen" d="M514.48,-307.98C572.96,-307.01 648.11,-305.76 704.27,-304.83"/>
<polygon fill="darkgreen" stroke="darkgreen" points="514.07,-304.49 504.13,-308.15 514.18,-311.49 514.07,-304.49"/>
</g>
<!-- Node8 -->
<g id="node8" class="node">
<title>Node8</title>
<g id="a_node8"><a xlink:title="STL class.">
<polygon fill="white" stroke="#bfbfbf" points="1055,-224 1055,-243 1173,-243 1173,-224 1055,-224"/>
<text text-anchor="middle" x="1114" y="-231" font-family="Helvetica,sans-Serif" font-size="10.00">std::unique_ptr&lt; T &gt;</text>
</a>
</g>
</g>
<!-- Node8&#45;&gt;Node2 -->
<g id="edge8" class="edge">
<title>Node8&#45;&gt;Node2</title>
<path fill="none" stroke="orange" stroke-dasharray="5,2" d="M1183.41,-234.5C1232.37,-235.59 1299.82,-237.84 1359,-242.5 1364.77,-242.95 1370.69,-243.47 1376.65,-244.04"/>
<polygon fill="orange" stroke="orange" points="1183.32,-231 1173.25,-234.29 1183.18,-238 1183.32,-231"/>
<text text-anchor="start" x="1213" y="-267.5" font-family="Helvetica,sans-Serif" font-size="10.00"> &lt; itk::simple::detail</text>
<text text-anchor="start" x="1213" y="-256.5" font-family="Helvetica,sans-Serif" font-size="10.00">::DualMemberFunctionFactory</text>
<text text-anchor="middle" x="1286" y="-245.5" font-family="Helvetica,sans-Serif" font-size="10.00">&lt; MemberFunctionType &gt; &gt;</text>
</g>
<!-- Node9 -->
<g id="node9" class="node">
<title>Node9</title>
<g id="a_node9"><a xlink:title=" ">
<polygon fill="white" stroke="#bfbfbf" points="771,-139 771,-158 800,-158 800,-139 771,-139"/>
<text text-anchor="middle" x="785.5" y="-146" font-family="Helvetica,sans-Serif" font-size="10.00">T</text>
</a>
</g>
</g>
<!-- Node9&#45;&gt;Node8 -->
<g id="edge9" class="edge">
<title>Node9&#45;&gt;Node8</title>
<path fill="none" stroke="#9a32cd" stroke-dasharray="5,2" d="M810.05,-151.5C827.36,-154.73 850.62,-161.29 867,-174.5 879.4,-184.5 871.7,-196.72 885,-205.5 898.92,-214.69 991.97,-223.82 1054.81,-229.05"/>
<polygon fill="#9a32cd" stroke="#9a32cd" points="810.59,-148.04 800.16,-149.9 809.47,-154.95 810.59,-148.04"/>
<text text-anchor="middle" x="950" y="-227.5" font-family="Helvetica,sans-Serif" font-size="10.00"> ptr</text>
</g>
<!-- Node13 -->
<g id="node13" class="node">
<title>Node13</title>
<g id="a_node13"><a xlink:title="STL class.">
<polygon fill="white" stroke="#bfbfbf" points="1065.5,-139 1065.5,-158 1162.5,-158 1162.5,-139 1065.5,-139"/>
<text text-anchor="middle" x="1114" y="-146" font-family="Helvetica,sans-Serif" font-size="10.00">std::vector&lt; T &gt;</text>
</a>
</g>
</g>
<!-- Node9&#45;&gt;Node13 -->
<g id="edge14" class="edge">
<title>Node9&#45;&gt;Node13</title>
<path fill="none" stroke="#9a32cd" stroke-dasharray="5,2" d="M810.31,-148.5C863.84,-148.5 994.49,-148.5 1065.38,-148.5"/>
<polygon fill="#9a32cd" stroke="#9a32cd" points="810.11,-145 800.11,-148.5 810.11,-152 810.11,-145"/>
<text text-anchor="middle" x="950" y="-151.5" font-family="Helvetica,sans-Serif" font-size="10.00"> elements</text>
</g>
<!-- Node17 -->
<g id="node17" class="node">
<title>Node17</title>
<g id="a_node17"><a xlink:title="STL class.">
<polygon fill="white" stroke="#bfbfbf" points="1063.5,-71 1063.5,-90 1164.5,-90 1164.5,-71 1063.5,-71"/>
<text text-anchor="middle" x="1114" y="-78" font-family="Helvetica,sans-Serif" font-size="10.00">std::map&lt; K, T &gt;</text>
</a>
</g>
</g>
<!-- Node9&#45;&gt;Node17 -->
<g id="edge21" class="edge">
<title>Node9&#45;&gt;Node17</title>
<path fill="none" stroke="#9a32cd" stroke-dasharray="5,2" d="M810.07,-143.59C863.9,-132.38 996.65,-104.73 1067.2,-90.04"/>
<polygon fill="#9a32cd" stroke="#9a32cd" points="809.19,-140.2 800.11,-145.66 810.62,-147.05 809.19,-140.2"/>
<text text-anchor="middle" x="950" y="-129.5" font-family="Helvetica,sans-Serif" font-size="10.00"> elements</text>
</g>
<!-- Node10 -->
<g id="node10" class="node">
<title>Node10</title>
<g id="a_node10"><a xlink:title=" ">
<polygon fill="white" stroke="#bfbfbf" points="1431.5,-140 1431.5,-159 1553.5,-159 1553.5,-140 1431.5,-140"/>
<text text-anchor="middle" x="1492.5" y="-147" font-family="Helvetica,sans-Serif" font-size="10.00">std::vector&lt; Image &gt;</text>
</a>
</g>
</g>
<!-- Node10&#45;&gt;Node1 -->
<g id="edge10" class="edge">
<title>Node10&#45;&gt;Node1</title>
<path fill="none" stroke="#9a32cd" stroke-dasharray="5,2" d="M1563.64,-149.5C1633.68,-149.5 1740.62,-149.5 1809.92,-149.5"/>
<polygon fill="#9a32cd" stroke="#9a32cd" points="1563.58,-146 1553.58,-149.5 1563.58,-153 1563.58,-146"/>
<text text-anchor="middle" x="1709" y="-185.5" font-family="Helvetica,sans-Serif" font-size="10.00"> m_MovingImages</text>
<text text-anchor="middle" x="1709" y="-174.5" font-family="Helvetica,sans-Serif" font-size="10.00">m_FixedImages</text>
<text text-anchor="middle" x="1709" y="-163.5" font-family="Helvetica,sans-Serif" font-size="10.00">m_FixedMasks</text>
<text text-anchor="middle" x="1709" y="-152.5" font-family="Helvetica,sans-Serif" font-size="10.00">m_MovingMasks</text>
</g>
<!-- Node11 -->
<g id="node11" class="node">
<title>Node11</title>
<g id="a_node11"><a xlink:href="classitk_1_1simple_1_1Image.html" target="_top" xlink:title="The Image class for SimpleITK.">
<polygon fill="white" stroke="black" points="1061.5,-184 1061.5,-203 1166.5,-203 1166.5,-184 1061.5,-184"/>
<text text-anchor="middle" x="1114" y="-191" font-family="Helvetica,sans-Serif" font-size="10.00">itk::simple::Image</text>
</a>
</g>
</g>
<!-- Node11&#45;&gt;Node1 -->
<g id="edge15" class="edge">
<title>Node11&#45;&gt;Node1</title>
<path fill="none" stroke="#9a32cd" stroke-dasharray="5,2" d="M1176.95,-197.38C1321.33,-205.81 1676.64,-222.86 1792,-194.5 1815.4,-188.75 1839.49,-175.38 1856.2,-164.7"/>
<polygon fill="#9a32cd" stroke="#9a32cd" points="1177.12,-193.88 1166.93,-196.79 1176.71,-200.87 1177.12,-193.88"/>
<text text-anchor="middle" x="1492.5" y="-212.5" font-family="Helvetica,sans-Serif" font-size="10.00"> m_ResultImage</text>
</g>
<!-- Node11&#45;&gt;Node10 -->
<g id="edge11" class="edge">
<title>Node11&#45;&gt;Node10</title>
<path fill="none" stroke="#9a32cd" stroke-dasharray="5,2" d="M1176.62,-186.3C1247,-178.07 1361.43,-164.7 1431.24,-156.54"/>
<polygon fill="#9a32cd" stroke="#9a32cd" points="1176.09,-182.84 1166.56,-187.47 1176.9,-189.79 1176.09,-182.84"/>
<text text-anchor="middle" x="1286" y="-184.5" font-family="Helvetica,sans-Serif" font-size="10.00"> elements</text>
</g>
<!-- Node12 -->
<g id="node12" class="node">
<title>Node12</title>
<g id="a_node12"><a xlink:href="classitk_1_1simple_1_1PimpleImageBase.html" target="_top" xlink:title="Private implementation idiom image base class.">
<polygon fill="white" stroke="black" points="704,-184 704,-203 867,-203 867,-184 704,-184"/>
<text text-anchor="middle" x="785.5" y="-191" font-family="Helvetica,sans-Serif" font-size="10.00">itk::simple::PimpleImageBase</text>
</a>
</g>
</g>
<!-- Node12&#45;&gt;Node11 -->
<g id="edge12" class="edge">
<title>Node12&#45;&gt;Node11</title>
<path fill="none" stroke="#9a32cd" stroke-dasharray="5,2" d="M877.33,-193.5C936.62,-193.5 1011.9,-193.5 1061.21,-193.5"/>
<polygon fill="#9a32cd" stroke="#9a32cd" points="877.21,-190 867.21,-193.5 877.21,-197 877.21,-190"/>
<text text-anchor="middle" x="950" y="-196.5" font-family="Helvetica,sans-Serif" font-size="10.00"> m_PimpleImage</text>
</g>
<!-- Node13&#45;&gt;Node10 -->
<g id="edge13" class="edge">
<title>Node13&#45;&gt;Node10</title>
<path fill="none" stroke="orange" stroke-dasharray="5,2" d="M1173.1,-148.65C1243.21,-148.84 1360.52,-149.15 1431.49,-149.34"/>
<polygon fill="orange" stroke="orange" points="1172.69,-145.15 1162.68,-148.63 1172.67,-152.15 1172.69,-145.15"/>
<text text-anchor="middle" x="1286" y="-151.5" font-family="Helvetica,sans-Serif" font-size="10.00"> &lt; Image &gt;</text>
</g>
<!-- Node16 -->
<g id="node16" class="node">
<title>Node16</title>
<g id="a_node16"><a xlink:title=" ">
<polygon fill="white" stroke="#bfbfbf" points="1417,-89.5 1417,-119.5 1568,-119.5 1568,-89.5 1417,-89.5"/>
<text text-anchor="start" x="1425" y="-107.5" font-family="Helvetica,sans-Serif" font-size="10.00">std::vector&lt; ParameterMap</text>
<text text-anchor="middle" x="1492.5" y="-96.5" font-family="Helvetica,sans-Serif" font-size="10.00">Type &gt;</text>
</a>
</g>
</g>
<!-- Node13&#45;&gt;Node16 -->
<g id="edge22" class="edge">
<title>Node13&#45;&gt;Node16</title>
<path fill="none" stroke="orange" stroke-dasharray="5,2" d="M1172.71,-139.19C1185.93,-137.19 1199.94,-135.18 1213,-133.5 1281.95,-124.64 1360.77,-116.63 1416.92,-111.28"/>
<polygon fill="orange" stroke="orange" points="1172.14,-135.74 1162.79,-140.71 1173.2,-142.66 1172.14,-135.74"/>
<text text-anchor="middle" x="1286" y="-136.5" font-family="Helvetica,sans-Serif" font-size="10.00"> &lt; ParameterMapType &gt;</text>
</g>
<!-- Node14 -->
<g id="node14" class="node">
<title>Node14</title>
<g id="a_node14"><a xlink:title="STL class.">
<polygon fill="white" stroke="#bfbfbf" points="1460,-6 1460,-25 1525,-25 1525,-6 1460,-6"/>
<text text-anchor="middle" x="1492.5" y="-13" font-family="Helvetica,sans-Serif" font-size="10.00">std::string</text>
</a>
</g>
</g>
<!-- Node14&#45;&gt;Node1 -->
<g id="edge16" class="edge">
<title>Node14&#45;&gt;Node1</title>
<path fill="none" stroke="#9a32cd" stroke-dasharray="5,2" d="M1534.97,-8.21C1595.47,0.26 1709.69,7.96 1792,-36.5 1832.78,-58.53 1860.04,-109.14 1871.65,-134.48"/>
<polygon fill="#9a32cd" stroke="#9a32cd" points="1534.4,-4.76 1525.02,-9.68 1535.43,-11.68 1534.4,-4.76"/>
<text text-anchor="middle" x="1709" y="-94.5" font-family="Helvetica,sans-Serif" font-size="10.00"> m_OutputDirectory</text>
<text text-anchor="start" x="1638" y="-83.5" font-family="Helvetica,sans-Serif" font-size="10.00">m_InitialTransformParameter</text>
<text text-anchor="middle" x="1709" y="-72.5" font-family="Helvetica,sans-Serif" font-size="10.00">MapFileName</text>
<text text-anchor="middle" x="1709" y="-61.5" font-family="Helvetica,sans-Serif" font-size="10.00">m_FixedPointSetFileName</text>
<text text-anchor="middle" x="1709" y="-50.5" font-family="Helvetica,sans-Serif" font-size="10.00">m_LogFileName</text>
<text text-anchor="middle" x="1709" y="-39.5" font-family="Helvetica,sans-Serif" font-size="10.00">m_MovingPointSetFileName</text>
</g>
<!-- Node15 -->
<g id="node15" class="node">
<title>Node15</title>
<g id="a_node15"><a xlink:title="STL class.">
<polygon fill="white" stroke="#bfbfbf" points="1062,-0.5 1062,-30.5 1166,-30.5 1166,-0.5 1062,-0.5"/>
<text text-anchor="start" x="1070" y="-18.5" font-family="Helvetica,sans-Serif" font-size="10.00">std::basic_string&lt;</text>
<text text-anchor="middle" x="1114" y="-7.5" font-family="Helvetica,sans-Serif" font-size="10.00"> char &gt;</text>
</a>
</g>
</g>
<!-- Node15&#45;&gt;Node14 -->
<g id="edge17" class="edge">
<title>Node15&#45;&gt;Node14</title>
<path fill="none" stroke="midnightblue" d="M1176.24,-15.5C1257.3,-15.5 1397.25,-15.5 1459.75,-15.5"/>
<polygon fill="midnightblue" stroke="midnightblue" points="1176.17,-12 1166.17,-15.5 1176.17,-19 1176.17,-12"/>
</g>
<!-- Node16&#45;&gt;Node1 -->
<g id="edge18" class="edge">
<title>Node16&#45;&gt;Node1</title>
<path fill="none" stroke="#9a32cd" stroke-dasharray="5,2" d="M1578.49,-104.73C1638.56,-106.15 1720.75,-110.64 1792,-123.5 1806.28,-126.08 1821.53,-130.21 1835.17,-134.43"/>
<polygon fill="#9a32cd" stroke="#9a32cd" points="1578.36,-101.23 1568.29,-104.51 1578.21,-108.23 1578.36,-101.23"/>
<text text-anchor="middle" x="1709" y="-137.5" font-family="Helvetica,sans-Serif" font-size="10.00"> m_ParameterMapVector</text>
<text text-anchor="middle" x="1709" y="-126.5" font-family="Helvetica,sans-Serif" font-size="10.00">m_TransformParameterMapVector</text>
</g>
<!-- Node17&#45;&gt;Node16 -->
<g id="edge19" class="edge">
<title>Node17&#45;&gt;Node16</title>
<path fill="none" stroke="#9a32cd" stroke-dasharray="5,2" d="M1174.85,-77.96C1224.33,-76.52 1296.36,-75.97 1359,-81.5 1378.19,-83.19 1398.77,-86.18 1417.85,-89.46"/>
<polygon fill="#9a32cd" stroke="#9a32cd" points="1174.53,-74.46 1164.65,-78.27 1174.75,-81.46 1174.53,-74.46"/>
<text text-anchor="middle" x="1286" y="-84.5" font-family="Helvetica,sans-Serif" font-size="10.00"> elements</text>
</g>
<!-- Node18 -->
<g id="node18" class="node">
<title>Node18</title>
<g id="a_node18"><a xlink:title=" ">
<polygon fill="white" stroke="#bfbfbf" points="771,-71 771,-90 800,-90 800,-71 771,-71"/>
<text text-anchor="middle" x="785.5" y="-78" font-family="Helvetica,sans-Serif" font-size="10.00">K</text>
</a>
</g>
</g>
<!-- Node18&#45;&gt;Node17 -->
<g id="edge20" class="edge">
<title>Node18&#45;&gt;Node17</title>
<path fill="none" stroke="#9a32cd" stroke-dasharray="5,2" d="M810.21,-80.5C863.12,-80.5 991.81,-80.5 1063.21,-80.5"/>
<polygon fill="#9a32cd" stroke="#9a32cd" points="810.11,-77 800.11,-80.5 810.11,-84 810.11,-77"/>
<text text-anchor="middle" x="950" y="-83.5" font-family="Helvetica,sans-Serif" font-size="10.00"> keys</text>
</g>
</g>
</svg>
