<?xml version="1.0" encoding="UTF-8" standalone="no"?>
<!DOCTYPE svg PUBLIC "-//W3C//DTD SVG 1.1//EN"
 "http://www.w3.org/Graphics/SVG/1.1/DTD/svg11.dtd">
<!-- Generated by graphviz version 2.43.0 (0)
 -->
<!-- Title: itk::HashImageFilter&lt; TImageType &gt; Pages: 1 -->
<svg width="3038pt" height="534pt"
 viewBox="0.00 0.00 3038.00 534.00" xmlns="http://www.w3.org/2000/svg" xmlns:xlink="http://www.w3.org/1999/xlink">
<g id="graph0" class="graph" transform="scale(1 1) rotate(0) translate(4 530)">
<title>itk::HashImageFilter&lt; TImageType &gt;</title>
<polygon fill="white" stroke="transparent" points="-4,4 -4,-530 3034,-530 3034,4 -4,4"/>
<!-- Node1 -->
<g id="node1" class="node">
<title>Node1</title>
<g id="a_node1"><a xlink:title="Generates a hash string from an image.">
<polygon fill="#bfbfbf" stroke="black" points="2914,-243 2914,-273 3030,-273 3030,-243 2914,-243"/>
<text text-anchor="start" x="2922" y="-261" font-family="Helvetica,sans-Serif" font-size="10.00">itk::HashImageFilter</text>
<text text-anchor="middle" x="2972" y="-250" font-family="Helvetica,sans-Serif" font-size="10.00">&lt; TImageType &gt;</text>
</a>
</g>
</g>
<!-- Node2 -->
<g id="node2" class="node">
<title>Node2</title>
<g id="a_node2"><a xlink:href="https://www.itk.org/Doxygen/html/classitk_1_1CastImageFilter.html" xlink:title=" ">
<polygon fill="white" stroke="black" points="2629,-274 2629,-304 2793,-304 2793,-274 2629,-274"/>
<text text-anchor="start" x="2637" y="-292" font-family="Helvetica,sans-Serif" font-size="10.00">itk::CastImageFilter</text>
<text text-anchor="middle" x="2711" y="-281" font-family="Helvetica,sans-Serif" font-size="10.00">&lt; TImageType, TImageType &gt;</text>
</a>
</g>
</g>
<!-- Node2&#45;&gt;Node1 -->
<g id="edge1" class="edge">
<title>Node2&#45;&gt;Node1</title>
<path fill="none" stroke="midnightblue" d="M2803.48,-278.05C2840.24,-273.65 2881.48,-268.71 2913.85,-264.84"/>
<polygon fill="midnightblue" stroke="midnightblue" points="2802.75,-274.61 2793.24,-279.28 2803.58,-281.56 2802.75,-274.61"/>
</g>
<!-- Node3 -->
<g id="node3" class="node">
<title>Node3</title>
<g id="a_node3"><a xlink:href="https://www.itk.org/Doxygen/html/classitk_1_1InPlaceImageFilter.html" xlink:title=" ">
<polygon fill="white" stroke="black" points="2053,-269 2053,-299 2229,-299 2229,-269 2053,-269"/>
<text text-anchor="start" x="2061" y="-287" font-family="Helvetica,sans-Serif" font-size="10.00">itk::InPlaceImageFilter</text>
<text text-anchor="middle" x="2141" y="-276" font-family="Helvetica,sans-Serif" font-size="10.00">&lt; TInputImage, TOutputImage &gt;</text>
</a>
</g>
</g>
<!-- Node3&#45;&gt;Node2 -->
<g id="edge2" class="edge">
<title>Node3&#45;&gt;Node2</title>
<path fill="none" stroke="midnightblue" d="M2239.25,-286.8C2241.86,-286.87 2244.45,-286.93 2247,-287 2408.74,-291.21 2449.23,-294.45 2611,-292 2616.85,-291.91 2622.89,-291.79 2628.96,-291.66"/>
<polygon fill="midnightblue" stroke="midnightblue" points="2239.18,-283.29 2229.09,-286.52 2238.99,-290.29 2239.18,-283.29"/>
</g>
<!-- Node32 -->
<g id="node32" class="node">
<title>Node32</title>
<g id="a_node32"><a xlink:href="https://www.itk.org/Doxygen/html/classitk_1_1CastImageFilter.html" xlink:title=" ">
<polygon fill="white" stroke="black" points="2266,-247 2266,-277 2442,-277 2442,-247 2266,-247"/>
<text text-anchor="start" x="2274" y="-265" font-family="Helvetica,sans-Serif" font-size="10.00">itk::CastImageFilter</text>
<text text-anchor="middle" x="2354" y="-254" font-family="Helvetica,sans-Serif" font-size="10.00">&lt; TInputImage, TOutputImage &gt;</text>
</a>
</g>
</g>
<!-- Node3&#45;&gt;Node32 -->
<g id="edge44" class="edge">
<title>Node3&#45;&gt;Node32</title>
<path fill="none" stroke="midnightblue" d="M2239.07,-273.88C2247.99,-272.95 2256.99,-272.01 2265.82,-271.09"/>
<polygon fill="midnightblue" stroke="midnightblue" points="2238.62,-270.41 2229.04,-274.92 2239.35,-277.37 2238.62,-270.41"/>
</g>
<!-- Node4 -->
<g id="node4" class="node">
<title>Node4</title>
<g id="a_node4"><a xlink:href="https://www.itk.org/Doxygen/html/classitk_1_1ImageToImageFilter.html" xlink:title=" ">
<polygon fill="white" stroke="black" points="1840,-269 1840,-299 2016,-299 2016,-269 1840,-269"/>
<text text-anchor="start" x="1848" y="-287" font-family="Helvetica,sans-Serif" font-size="10.00">itk::ImageToImageFilter</text>
<text text-anchor="middle" x="1928" y="-276" font-family="Helvetica,sans-Serif" font-size="10.00">&lt; TInputImage, TOutputImage &gt;</text>
</a>
</g>
</g>
<!-- Node4&#45;&gt;Node3 -->
<g id="edge3" class="edge">
<title>Node4&#45;&gt;Node3</title>
<path fill="none" stroke="midnightblue" d="M2026.07,-284C2034.99,-284 2043.99,-284 2052.82,-284"/>
<polygon fill="midnightblue" stroke="midnightblue" points="2026.04,-280.5 2016.04,-284 2026.04,-287.5 2026.04,-280.5"/>
</g>
<!-- Node5 -->
<g id="node5" class="node">
<title>Node5</title>
<g id="a_node5"><a xlink:href="https://www.itk.org/Doxygen/html/classitk_1_1ImageSource.html" xlink:title=" ">
<polygon fill="white" stroke="black" points="1640.5,-301 1640.5,-331 1789.5,-331 1789.5,-301 1640.5,-301"/>
<text text-anchor="start" x="1648.5" y="-319" font-family="Helvetica,sans-Serif" font-size="10.00">itk::ImageSource&lt; TOutput</text>
<text text-anchor="middle" x="1715" y="-308" font-family="Helvetica,sans-Serif" font-size="10.00">Image &gt;</text>
</a>
</g>
</g>
<!-- Node5&#45;&gt;Node4 -->
<g id="edge4" class="edge">
<title>Node5&#45;&gt;Node4</title>
<path fill="none" stroke="midnightblue" d="M1799.55,-303.33C1812.85,-301.31 1826.62,-299.22 1839.99,-297.2"/>
<polygon fill="midnightblue" stroke="midnightblue" points="1798.86,-299.89 1789.5,-304.85 1799.91,-306.81 1798.86,-299.89"/>
</g>
<!-- Node6 -->
<g id="node6" class="node">
<title>Node6</title>
<g id="a_node6"><a xlink:href="https://www.itk.org/Doxygen/html/classitk_1_1ProcessObject.html" xlink:title=" ">
<polygon fill="white" stroke="black" points="1466.5,-328.5 1466.5,-347.5 1570.5,-347.5 1570.5,-328.5 1466.5,-328.5"/>
<text text-anchor="middle" x="1518.5" y="-335.5" font-family="Helvetica,sans-Serif" font-size="10.00">itk::ProcessObject</text>
</a>
</g>
</g>
<!-- Node6&#45;&gt;Node5 -->
<g id="edge5" class="edge">
<title>Node6&#45;&gt;Node5</title>
<path fill="none" stroke="midnightblue" d="M1580.57,-331.09C1599.48,-328.95 1620.52,-326.57 1640.19,-324.35"/>
<polygon fill="midnightblue" stroke="midnightblue" points="1580.15,-327.62 1570.6,-332.22 1580.93,-334.57 1580.15,-327.62"/>
</g>
<!-- Node7 -->
<g id="node7" class="node">
<title>Node7</title>
<g id="a_node7"><a xlink:href="https://www.itk.org/Doxygen/html/classitk_1_1Object.html" xlink:title=" ">
<polygon fill="white" stroke="black" points="1151,-367.5 1151,-386.5 1218,-386.5 1218,-367.5 1151,-367.5"/>
<text text-anchor="middle" x="1184.5" y="-374.5" font-family="Helvetica,sans-Serif" font-size="10.00">itk::Object</text>
</a>
</g>
</g>
<!-- Node7&#45;&gt;Node6 -->
<g id="edge6" class="edge">
<title>Node7&#45;&gt;Node6</title>
<path fill="none" stroke="midnightblue" d="M1228.43,-373.31C1277.14,-368.95 1358.92,-361.13 1429,-352 1441.03,-350.43 1453.95,-348.52 1466.09,-346.62"/>
<polygon fill="midnightblue" stroke="midnightblue" points="1227.91,-369.84 1218.26,-374.21 1228.53,-376.81 1227.91,-369.84"/>
</g>
<!-- Node8 -->
<g id="node8" class="node">
<title>Node8</title>
<g id="a_node8"><a xlink:href="https://www.itk.org/Doxygen/html/classitk_1_1LightObject.html" xlink:title=" ">
<polygon fill="white" stroke="black" points="834.5,-388.5 834.5,-407.5 925.5,-407.5 925.5,-388.5 834.5,-388.5"/>
<text text-anchor="middle" x="880" y="-395.5" font-family="Helvetica,sans-Serif" font-size="10.00">itk::LightObject</text>
</a>
</g>
</g>
<!-- Node8&#45;&gt;Node7 -->
<g id="edge7" class="edge">
<title>Node8&#45;&gt;Node7</title>
<path fill="none" stroke="midnightblue" d="M935.74,-394.2C998.47,-389.84 1099.23,-382.85 1150.79,-379.27"/>
<polygon fill="midnightblue" stroke="midnightblue" points="935.37,-390.72 925.63,-394.9 935.85,-397.7 935.37,-390.72"/>
</g>
<!-- Node9 -->
<g id="node9" class="node">
<title>Node9</title>
<g id="a_node9"><a xlink:title=" ">
<polygon fill="white" stroke="#bfbfbf" points="492,-389.5 492,-408.5 599,-408.5 599,-389.5 492,-389.5"/>
<text text-anchor="middle" x="545.5" y="-396.5" font-family="Helvetica,sans-Serif" font-size="10.00">std::atomic&lt; int &gt;</text>
</a>
</g>
</g>
<!-- Node9&#45;&gt;Node8 -->
<g id="edge8" class="edge">
<title>Node9&#45;&gt;Node8</title>
<path fill="none" stroke="#9a32cd" stroke-dasharray="5,2" d="M609.41,-398.81C675.06,-398.61 776.36,-398.31 834.28,-398.13"/>
<polygon fill="#9a32cd" stroke="#9a32cd" points="609.18,-395.31 599.19,-398.84 609.2,-402.31 609.18,-395.31"/>
<text text-anchor="middle" x="721.5" y="-401" font-family="Helvetica,sans-Serif" font-size="10.00"> m_ReferenceCount</text>
</g>
<!-- Node10 -->
<g id="node10" class="node">
<title>Node10</title>
<g id="a_node10"><a xlink:title="STL class.">
<polygon fill="white" stroke="#bfbfbf" points="135.5,-373.5 135.5,-392.5 235.5,-392.5 235.5,-373.5 135.5,-373.5"/>
<text text-anchor="middle" x="185.5" y="-380.5" font-family="Helvetica,sans-Serif" font-size="10.00">std::atomic&lt; T &gt;</text>
</a>
</g>
</g>
<!-- Node10&#45;&gt;Node9 -->
<g id="edge9" class="edge">
<title>Node10&#45;&gt;Node9</title>
<path fill="none" stroke="orange" stroke-dasharray="5,2" d="M245.74,-385.65C314.37,-388.71 426.38,-393.72 492,-396.65"/>
<polygon fill="orange" stroke="orange" points="245.67,-382.14 235.53,-385.19 245.36,-389.13 245.67,-382.14"/>
<text text-anchor="middle" x="359" y="-397" font-family="Helvetica,sans-Serif" font-size="10.00"> &lt; int &gt;</text>
</g>
<!-- Node19 -->
<g id="node19" class="node">
<title>Node19</title>
<g id="a_node19"><a xlink:href="https://www.itk.org/Doxygen/html/classitk_1_1TimeStamp.html" xlink:title=" ">
<polygon fill="white" stroke="black" points="834,-350.5 834,-369.5 926,-369.5 926,-350.5 834,-350.5"/>
<text text-anchor="middle" x="880" y="-357.5" font-family="Helvetica,sans-Serif" font-size="10.00">itk::TimeStamp</text>
</a>
</g>
</g>
<!-- Node10&#45;&gt;Node19 -->
<g id="edge21" class="edge">
<title>Node10&#45;&gt;Node19</title>
<path fill="none" stroke="#9a32cd" stroke-dasharray="5,2" d="M245.59,-379.48C301.17,-376.29 386.7,-371.69 461,-369 596.65,-364.08 757.16,-361.55 833.83,-360.54"/>
<polygon fill="#9a32cd" stroke="#9a32cd" points="245.35,-375.99 235.57,-380.06 245.76,-382.98 245.35,-375.99"/>
<text text-anchor="middle" x="545.5" y="-372" font-family="Helvetica,sans-Serif" font-size="10.00"> m_GlobalTimeStamp</text>
</g>
<!-- Node23 -->
<g id="node23" class="node">
<title>Node23</title>
<g id="a_node23"><a xlink:title=" ">
<polygon fill="white" stroke="#bfbfbf" points="654.5,-427.5 654.5,-446.5 788.5,-446.5 788.5,-427.5 654.5,-427.5"/>
<text text-anchor="middle" x="721.5" y="-434.5" font-family="Helvetica,sans-Serif" font-size="10.00">std::atomic&lt; uint32_t &gt;</text>
</a>
</g>
</g>
<!-- Node10&#45;&gt;Node23 -->
<g id="edge30" class="edge">
<title>Node10&#45;&gt;Node23</title>
<path fill="none" stroke="orange" stroke-dasharray="5,2" d="M223.13,-395.75C238.9,-400.72 257.66,-405.95 275,-409 408.18,-432.45 566.79,-436.94 654.29,-437.42"/>
<polygon fill="orange" stroke="orange" points="223.83,-392.3 213.24,-392.55 221.68,-398.96 223.83,-392.3"/>
<text text-anchor="middle" x="359" y="-431" font-family="Helvetica,sans-Serif" font-size="10.00"> &lt; uint32_t &gt;</text>
</g>
<!-- Node11 -->
<g id="node11" class="node">
<title>Node11</title>
<g id="a_node11"><a xlink:title=" ">
<polygon fill="white" stroke="#bfbfbf" points="0,-351.5 0,-370.5 29,-370.5 29,-351.5 0,-351.5"/>
<text text-anchor="middle" x="14.5" y="-358.5" font-family="Helvetica,sans-Serif" font-size="10.00">T</text>
</a>
</g>
</g>
<!-- Node11&#45;&gt;Node10 -->
<g id="edge10" class="edge">
<title>Node11&#45;&gt;Node10</title>
<path fill="none" stroke="#9a32cd" stroke-dasharray="5,2" d="M39,-364.06C63.8,-367.29 103.63,-372.47 135.35,-376.6"/>
<polygon fill="#9a32cd" stroke="#9a32cd" points="39.41,-360.58 29.04,-362.76 38.51,-367.52 39.41,-360.58"/>
<text text-anchor="middle" x="71.5" y="-374" font-family="Helvetica,sans-Serif" font-size="10.00"> ptr</text>
</g>
<!-- Node16 -->
<g id="node16" class="node">
<title>Node16</title>
<g id="a_node16"><a xlink:title="STL class.">
<polygon fill="white" stroke="#bfbfbf" points="135,-254.5 135,-273.5 236,-273.5 236,-254.5 135,-254.5"/>
<text text-anchor="middle" x="185.5" y="-261.5" font-family="Helvetica,sans-Serif" font-size="10.00">std::map&lt; K, T &gt;</text>
</a>
</g>
</g>
<!-- Node11&#45;&gt;Node16 -->
<g id="edge17" class="edge">
<title>Node11&#45;&gt;Node16</title>
<path fill="none" stroke="#9a32cd" stroke-dasharray="5,2" d="M28.71,-343.54C33.93,-337.44 40.28,-330.91 47,-326 80.41,-301.6 124.96,-283.7 154.17,-273.57"/>
<polygon fill="#9a32cd" stroke="#9a32cd" points="25.94,-341.4 22.37,-351.38 31.38,-345.8 25.94,-341.4"/>
<text text-anchor="middle" x="71.5" y="-329" font-family="Helvetica,sans-Serif" font-size="10.00"> elements</text>
</g>
<!-- Node18 -->
<g id="node18" class="node">
<title>Node18</title>
<g id="a_node18"><a xlink:title="STL class.">
<polygon fill="white" stroke="#bfbfbf" points="126.5,-323.5 126.5,-342.5 244.5,-342.5 244.5,-323.5 126.5,-323.5"/>
<text text-anchor="middle" x="185.5" y="-330.5" font-family="Helvetica,sans-Serif" font-size="10.00">std::shared_ptr&lt; T &gt;</text>
</a>
</g>
</g>
<!-- Node11&#45;&gt;Node18 -->
<g id="edge19" class="edge">
<title>Node11&#45;&gt;Node18</title>
<path fill="none" stroke="#9a32cd" stroke-dasharray="5,2" d="M38.73,-352.27C41.49,-351.42 44.29,-350.63 47,-350 72.76,-343.98 101.77,-340 126.48,-337.41"/>
<polygon fill="#9a32cd" stroke="#9a32cd" points="37.46,-349 29.11,-355.53 39.71,-355.63 37.46,-349"/>
<text text-anchor="middle" x="71.5" y="-353" font-family="Helvetica,sans-Serif" font-size="10.00"> ptr</text>
</g>
<!-- Node26 -->
<g id="node26" class="node">
<title>Node26</title>
<g id="a_node26"><a xlink:title="STL class.">
<polygon fill="white" stroke="#bfbfbf" points="137,-436.5 137,-455.5 234,-455.5 234,-436.5 137,-436.5"/>
<text text-anchor="middle" x="185.5" y="-443.5" font-family="Helvetica,sans-Serif" font-size="10.00">std::vector&lt; T &gt;</text>
</a>
</g>
</g>
<!-- Node11&#45;&gt;Node26 -->
<g id="edge34" class="edge">
<title>Node11&#45;&gt;Node26</title>
<path fill="none" stroke="#9a32cd" stroke-dasharray="5,2" d="M33.97,-376.95C38.12,-380.16 42.59,-383.35 47,-386 83.16,-407.73 128.62,-425.99 157.13,-436.46"/>
<polygon fill="#9a32cd" stroke="#9a32cd" points="36.04,-374.12 26.07,-370.53 31.62,-379.55 36.04,-374.12"/>
<text text-anchor="middle" x="71.5" y="-413" font-family="Helvetica,sans-Serif" font-size="10.00"> elements</text>
</g>
<!-- Node12 -->
<g id="node12" class="node">
<title>Node12</title>
<g id="a_node12"><a xlink:title="STL class.">
<polygon fill="white" stroke="#bfbfbf" points="847.5,-192.5 847.5,-211.5 912.5,-211.5 912.5,-192.5 847.5,-192.5"/>
<text text-anchor="middle" x="880" y="-199.5" font-family="Helvetica,sans-Serif" font-size="10.00">std::string</text>
</a>
</g>
</g>
<!-- Node12&#45;&gt;Node7 -->
<g id="edge11" class="edge">
<title>Node12&#45;&gt;Node7</title>
<path fill="none" stroke="#9a32cd" stroke-dasharray="5,2" d="M921.64,-214.9C966.31,-230.95 1037.61,-262.33 1082,-311 1095.68,-326.01 1084.77,-339.56 1100,-353 1114.03,-365.37 1134.05,-371.39 1150.98,-374.31"/>
<polygon fill="#9a32cd" stroke="#9a32cd" points="922.58,-211.53 911.98,-211.53 920.26,-218.13 922.58,-211.53"/>
<text text-anchor="middle" x="1023.5" y="-314" font-family="Helvetica,sans-Serif" font-size="10.00"> m_ObjectName</text>
</g>
<!-- Node20 -->
<g id="node20" class="node">
<title>Node20</title>
<g id="a_node20"><a xlink:title=" ">
<polygon fill="white" stroke="#bfbfbf" points="1103.5,-170 1103.5,-200 1265.5,-200 1265.5,-170 1103.5,-170"/>
<text text-anchor="start" x="1111.5" y="-188" font-family="Helvetica,sans-Serif" font-size="10.00">std::set&lt; DataObjectIdentifier</text>
<text text-anchor="middle" x="1184.5" y="-177" font-family="Helvetica,sans-Serif" font-size="10.00">Type &gt;</text>
</a>
</g>
</g>
<!-- Node12&#45;&gt;Node20 -->
<g id="edge23" class="edge">
<title>Node12&#45;&gt;Node20</title>
<path fill="none" stroke="#9a32cd" stroke-dasharray="5,2" d="M922.64,-192.5C936.09,-189.86 951.11,-187.34 965,-186 1010.69,-181.58 1062,-181.12 1103.41,-181.86"/>
<polygon fill="#9a32cd" stroke="#9a32cd" points="921.81,-189.1 912.71,-194.53 923.21,-195.96 921.81,-189.1"/>
<text text-anchor="middle" x="1023.5" y="-189" font-family="Helvetica,sans-Serif" font-size="10.00"> keys</text>
</g>
<!-- Node22 -->
<g id="node22" class="node">
<title>Node22</title>
<g id="a_node22"><a xlink:title=" ">
<polygon fill="white" stroke="#bfbfbf" points="1100,-264 1100,-294 1269,-294 1269,-264 1100,-264"/>
<text text-anchor="start" x="1108" y="-282" font-family="Helvetica,sans-Serif" font-size="10.00">std::map&lt; DataObjectIdentifier</text>
<text text-anchor="middle" x="1184.5" y="-271" font-family="Helvetica,sans-Serif" font-size="10.00">Type, bool &gt;</text>
</a>
</g>
</g>
<!-- Node12&#45;&gt;Node22 -->
<g id="edge27" class="edge">
<title>Node12&#45;&gt;Node22</title>
<path fill="none" stroke="#9a32cd" stroke-dasharray="5,2" d="M922.82,-200.52C964.21,-200.26 1028.91,-203.11 1082,-220 1112.69,-229.76 1144.16,-249.95 1163.76,-263.97"/>
<polygon fill="#9a32cd" stroke="#9a32cd" points="922.78,-197.02 912.82,-200.65 922.86,-204.02 922.78,-197.02"/>
<text text-anchor="middle" x="1023.5" y="-223" font-family="Helvetica,sans-Serif" font-size="10.00"> keys</text>
</g>
<!-- Node27 -->
<g id="node27" class="node">
<title>Node27</title>
<g id="a_node27"><a xlink:title=" ">
<polygon fill="white" stroke="#bfbfbf" points="1100,-95 1100,-125 1269,-125 1269,-95 1100,-95"/>
<text text-anchor="start" x="1108" y="-113" font-family="Helvetica,sans-Serif" font-size="10.00">std::map&lt; DataObjectIdentifier</text>
<text text-anchor="middle" x="1184.5" y="-102" font-family="Helvetica,sans-Serif" font-size="10.00">Type, DataObjectPointer &gt;</text>
</a>
</g>
</g>
<!-- Node12&#45;&gt;Node27 -->
<g id="edge38" class="edge">
<title>Node12&#45;&gt;Node27</title>
<path fill="none" stroke="#9a32cd" stroke-dasharray="5,2" d="M911.04,-188.28C926.89,-181.36 946.77,-173.14 965,-167 1014.78,-150.23 1072.32,-135.4 1115.84,-125.07"/>
<polygon fill="#9a32cd" stroke="#9a32cd" points="909.47,-185.15 901.75,-192.4 912.31,-191.55 909.47,-185.15"/>
<text text-anchor="middle" x="1023.5" y="-170" font-family="Helvetica,sans-Serif" font-size="10.00"> keys</text>
</g>
<!-- Node13 -->
<g id="node13" class="node">
<title>Node13</title>
<g id="a_node13"><a xlink:title="STL class.">
<polygon fill="white" stroke="#bfbfbf" points="493.5,-187 493.5,-217 597.5,-217 597.5,-187 493.5,-187"/>
<text text-anchor="start" x="501.5" y="-205" font-family="Helvetica,sans-Serif" font-size="10.00">std::basic_string&lt;</text>
<text text-anchor="middle" x="545.5" y="-194" font-family="Helvetica,sans-Serif" font-size="10.00"> char &gt;</text>
</a>
</g>
</g>
<!-- Node13&#45;&gt;Node12 -->
<g id="edge12" class="edge">
<title>Node13&#45;&gt;Node12</title>
<path fill="none" stroke="midnightblue" d="M607.85,-202C678.64,-202 792.34,-202 847.27,-202"/>
<polygon fill="midnightblue" stroke="midnightblue" points="607.72,-198.5 597.72,-202 607.72,-205.5 607.72,-198.5"/>
</g>
<!-- Node14 -->
<g id="node14" class="node">
<title>Node14</title>
<g id="a_node14"><a xlink:href="https://www.itk.org/Doxygen/html/classitk_1_1MetaDataDictionary.html" xlink:title=" ">
<polygon fill="white" stroke="black" points="813,-302.5 813,-321.5 947,-321.5 947,-302.5 813,-302.5"/>
<text text-anchor="middle" x="880" y="-309.5" font-family="Helvetica,sans-Serif" font-size="10.00">itk::MetaDataDictionary</text>
</a>
</g>
</g>
<!-- Node14&#45;&gt;Node7 -->
<g id="edge13" class="edge">
<title>Node14&#45;&gt;Node7</title>
<path fill="none" stroke="#9a32cd" stroke-dasharray="5,2" d="M947.53,-323.32C986.8,-330.31 1037.4,-339.87 1082,-350 1105.12,-355.25 1130.93,-362.13 1150.74,-367.63"/>
<polygon fill="#9a32cd" stroke="#9a32cd" points="948,-319.85 937.54,-321.55 946.78,-326.74 948,-319.85"/>
<text text-anchor="middle" x="1023.5" y="-353" font-family="Helvetica,sans-Serif" font-size="10.00"> m_MetaDataDictionary</text>
</g>
<!-- Node15 -->
<g id="node15" class="node">
<title>Node15</title>
<g id="a_node15"><a xlink:title=" ">
<polygon fill="white" stroke="#bfbfbf" points="471,-293 471,-323 620,-323 620,-293 471,-293"/>
<text text-anchor="start" x="479" y="-311" font-family="Helvetica,sans-Serif" font-size="10.00">std::shared_ptr&lt; MetaData</text>
<text text-anchor="middle" x="545.5" y="-300" font-family="Helvetica,sans-Serif" font-size="10.00">DictionaryMapType &gt;</text>
</a>
</g>
</g>
<!-- Node15&#45;&gt;Node14 -->
<g id="edge14" class="edge">
<title>Node15&#45;&gt;Node14</title>
<path fill="none" stroke="#9a32cd" stroke-dasharray="5,2" d="M630.63,-309.01C687.09,-309.69 760.43,-310.57 812.74,-311.2"/>
<polygon fill="#9a32cd" stroke="#9a32cd" points="630.33,-305.51 620.29,-308.89 630.25,-312.51 630.33,-305.51"/>
<text text-anchor="middle" x="721.5" y="-313" font-family="Helvetica,sans-Serif" font-size="10.00"> m_Dictionary</text>
</g>
<!-- Node16&#45;&gt;Node15 -->
<g id="edge15" class="edge">
<title>Node16&#45;&gt;Node15</title>
<path fill="none" stroke="#9a32cd" stroke-dasharray="5,2" d="M246.07,-271.42C255.74,-272.62 265.65,-273.85 275,-275 341.2,-283.17 416.55,-292.39 470.72,-299"/>
<polygon fill="#9a32cd" stroke="#9a32cd" points="246.47,-267.94 236.11,-270.18 245.61,-274.89 246.47,-267.94"/>
<text text-anchor="middle" x="359" y="-298" font-family="Helvetica,sans-Serif" font-size="10.00"> ptr</text>
</g>
<!-- Node16&#45;&gt;Node22 -->
<g id="edge28" class="edge">
<title>Node16&#45;&gt;Node22</title>
<path fill="none" stroke="orange" stroke-dasharray="5,2" d="M246.31,-264.9C416.42,-267.46 903.36,-274.79 1099.82,-277.74"/>
<polygon fill="orange" stroke="orange" points="246.33,-261.4 236.28,-264.75 246.23,-268.4 246.33,-261.4"/>
<text text-anchor="start" x="652" y="-287" font-family="Helvetica,sans-Serif" font-size="10.00"> &lt; DataObjectIdentifierType,</text>
<text text-anchor="middle" x="721.5" y="-276" font-family="Helvetica,sans-Serif" font-size="10.00"> bool &gt;</text>
</g>
<!-- Node16&#45;&gt;Node27 -->
<g id="edge39" class="edge">
<title>Node16&#45;&gt;Node27</title>
<path fill="none" stroke="orange" stroke-dasharray="5,2" d="M201.33,-246.66C239.24,-203.83 344.95,-93.64 461,-54 706.55,29.89 1025.41,-57.74 1140.07,-94.97"/>
<polygon fill="orange" stroke="orange" points="198.61,-244.45 194.67,-254.29 203.88,-249.06 198.61,-244.45"/>
<text text-anchor="start" x="652" y="-37" font-family="Helvetica,sans-Serif" font-size="10.00"> &lt; DataObjectIdentifierType,</text>
<text text-anchor="middle" x="721.5" y="-26" font-family="Helvetica,sans-Serif" font-size="10.00"> DataObjectPointer &gt;</text>
</g>
<!-- Node17 -->
<g id="node17" class="node">
<title>Node17</title>
<g id="a_node17"><a xlink:title=" ">
<polygon fill="white" stroke="#bfbfbf" points="0,-153.5 0,-172.5 29,-172.5 29,-153.5 0,-153.5"/>
<text text-anchor="middle" x="14.5" y="-160.5" font-family="Helvetica,sans-Serif" font-size="10.00">K</text>
</a>
</g>
</g>
<!-- Node17&#45;&gt;Node16 -->
<g id="edge16" class="edge">
<title>Node17&#45;&gt;Node16</title>
<path fill="none" stroke="#9a32cd" stroke-dasharray="5,2" d="M37.93,-176.41C72.56,-197.1 138.17,-236.31 168.45,-254.41"/>
<polygon fill="#9a32cd" stroke="#9a32cd" points="39.42,-173.22 29.04,-171.09 35.83,-179.23 39.42,-173.22"/>
<text text-anchor="middle" x="71.5" y="-214" font-family="Helvetica,sans-Serif" font-size="10.00"> keys</text>
</g>
<!-- Node21 -->
<g id="node21" class="node">
<title>Node21</title>
<g id="a_node21"><a xlink:title="STL class.">
<polygon fill="white" stroke="#bfbfbf" points="318,-0.5 318,-19.5 400,-19.5 400,-0.5 318,-0.5"/>
<text text-anchor="middle" x="359" y="-7.5" font-family="Helvetica,sans-Serif" font-size="10.00">std::set&lt; K &gt;</text>
</a>
</g>
</g>
<!-- Node17&#45;&gt;Node21 -->
<g id="edge25" class="edge">
<title>Node17&#45;&gt;Node21</title>
<path fill="none" stroke="#9a32cd" stroke-dasharray="5,2" d="M37.47,-148.01C80.82,-119.18 181.32,-56.03 275,-24 288.55,-19.37 303.89,-16.23 317.66,-14.12"/>
<polygon fill="#9a32cd" stroke="#9a32cd" points="35.46,-145.14 29.11,-153.62 39.36,-150.95 35.46,-145.14"/>
<text text-anchor="middle" x="71.5" y="-144" font-family="Helvetica,sans-Serif" font-size="10.00"> keys</text>
</g>
<!-- Node18&#45;&gt;Node15 -->
<g id="edge18" class="edge">
<title>Node18&#45;&gt;Node15</title>
<path fill="none" stroke="orange" stroke-dasharray="5,2" d="M254.85,-328.23C316.62,-323.91 407.3,-317.58 470.69,-313.15"/>
<polygon fill="orange" stroke="orange" points="254.55,-324.74 244.82,-328.93 255.04,-331.72 254.55,-324.74"/>
<text text-anchor="middle" x="359" y="-329" font-family="Helvetica,sans-Serif" font-size="10.00"> &lt; MetaDataDictionaryMapType &gt;</text>
</g>
<!-- Node19&#45;&gt;Node6 -->
<g id="edge40" class="edge">
<title>Node19&#45;&gt;Node6</title>
<path fill="none" stroke="#9a32cd" stroke-dasharray="5,2" d="M936.53,-356.12C980.78,-353.17 1044.33,-349.25 1100,-347 1232.02,-341.66 1387.67,-339.36 1466.39,-338.48"/>
<polygon fill="#9a32cd" stroke="#9a32cd" points="936.02,-352.65 926.27,-356.81 936.49,-359.63 936.02,-352.65"/>
<text text-anchor="middle" x="1184.5" y="-350" font-family="Helvetica,sans-Serif" font-size="10.00"> m_OutputInformationMTime</text>
</g>
<!-- Node19&#45;&gt;Node7 -->
<g id="edge20" class="edge">
<title>Node19&#45;&gt;Node7</title>
<path fill="none" stroke="#9a32cd" stroke-dasharray="5,2" d="M936.42,-363.11C999.26,-366.65 1099.62,-372.29 1150.95,-375.17"/>
<polygon fill="#9a32cd" stroke="#9a32cd" points="936.47,-359.61 926.29,-362.55 936.08,-366.6 936.47,-359.61"/>
<text text-anchor="middle" x="1023.5" y="-374" font-family="Helvetica,sans-Serif" font-size="10.00"> m_MTime</text>
</g>
<!-- Node20&#45;&gt;Node6 -->
<g id="edge22" class="edge">
<title>Node20&#45;&gt;Node6</title>
<path fill="none" stroke="#9a32cd" stroke-dasharray="5,2" d="M1275.72,-191.21C1326.96,-199.33 1388.71,-217.54 1429,-258 1448.94,-278.03 1426.78,-299.25 1447,-319 1452.44,-324.31 1459.2,-328.18 1466.37,-330.99"/>
<polygon fill="#9a32cd" stroke="#9a32cd" points="1276.03,-187.72 1265.62,-189.72 1275,-194.65 1276.03,-187.72"/>
<text text-anchor="middle" x="1358" y="-261" font-family="Helvetica,sans-Serif" font-size="10.00"> m_RequiredInputNames</text>
</g>
<!-- Node21&#45;&gt;Node20 -->
<g id="edge24" class="edge">
<title>Node21&#45;&gt;Node20</title>
<path fill="none" stroke="orange" stroke-dasharray="5,2" d="M372.92,-27.92C390.14,-50.17 422.91,-87.1 461,-103 715.98,-209.43 815.27,-59.92 1082,-132 1111.17,-139.88 1141.48,-157.09 1161.3,-169.77"/>
<polygon fill="orange" stroke="orange" points="375.52,-25.55 366.72,-19.66 369.92,-29.76 375.52,-25.55"/>
<text text-anchor="middle" x="721.5" y="-146" font-family="Helvetica,sans-Serif" font-size="10.00"> &lt; DataObjectIdentifierType &gt;</text>
</g>
<!-- Node22&#45;&gt;Node6 -->
<g id="edge26" class="edge">
<title>Node22&#45;&gt;Node6</title>
<path fill="none" stroke="#9a32cd" stroke-dasharray="5,2" d="M1279.41,-273.77C1326.23,-274.6 1382.61,-280.98 1429,-302 1439.02,-306.54 1437.4,-313.63 1447,-319 1453.86,-322.84 1461.53,-325.93 1469.22,-328.41"/>
<polygon fill="#9a32cd" stroke="#9a32cd" points="1279.3,-270.27 1269.27,-273.67 1279.24,-277.27 1279.3,-270.27"/>
<text text-anchor="start" x="1287" y="-316" font-family="Helvetica,sans-Serif" font-size="10.00"> m_CachedInputReleaseData</text>
<text text-anchor="middle" x="1358" y="-305" font-family="Helvetica,sans-Serif" font-size="10.00">Flags</text>
</g>
<!-- Node23&#45;&gt;Node6 -->
<g id="edge29" class="edge">
<title>Node23&#45;&gt;Node6</title>
<path fill="none" stroke="#9a32cd" stroke-dasharray="5,2" d="M798.93,-432.91C904.74,-426.87 1101.72,-414.28 1269,-396 1340.42,-388.2 1359.57,-391.45 1429,-373 1453.11,-366.59 1479.57,-355.57 1497.22,-347.6"/>
<polygon fill="#9a32cd" stroke="#9a32cd" points="798.46,-429.43 788.67,-433.49 798.85,-436.42 798.46,-429.43"/>
<text text-anchor="middle" x="1023.5" y="-425" font-family="Helvetica,sans-Serif" font-size="10.00"> m_Progress</text>
</g>
<!-- Node24 -->
<g id="node24" class="node">
<title>Node24</title>
<g id="a_node24"><a xlink:title=" ">
<polygon fill="white" stroke="#bfbfbf" points="461,-466 461,-496 630,-496 630,-466 461,-466"/>
<text text-anchor="start" x="469" y="-484" font-family="Helvetica,sans-Serif" font-size="10.00">std::vector&lt; DataObjectPointer</text>
<text text-anchor="middle" x="545.5" y="-473" font-family="Helvetica,sans-Serif" font-size="10.00">Map::iterator &gt;</text>
</a>
</g>
</g>
<!-- Node24&#45;&gt;Node6 -->
<g id="edge31" class="edge">
<title>Node24&#45;&gt;Node6</title>
<path fill="none" stroke="#9a32cd" stroke-dasharray="5,2" d="M640.15,-474.01C747.09,-465.86 927.26,-451.63 1082,-437 1165.21,-429.13 1185.97,-426.63 1269,-417 1340.19,-408.74 1361.83,-421.99 1429,-397 1459.98,-385.47 1490.9,-361.22 1506.7,-347.67"/>
<polygon fill="#9a32cd" stroke="#9a32cd" points="639.74,-470.53 630.04,-474.77 640.27,-477.51 639.74,-470.53"/>
<text text-anchor="middle" x="1023.5" y="-461" font-family="Helvetica,sans-Serif" font-size="10.00"> m_IndexedOutputs</text>
<text text-anchor="middle" x="1023.5" y="-450" font-family="Helvetica,sans-Serif" font-size="10.00">m_IndexedInputs</text>
</g>
<!-- Node25 -->
<g id="node25" class="node">
<title>Node25</title>
<g id="a_node25"><a xlink:title="STL iterator class.">
<polygon fill="white" stroke="#bfbfbf" points="114,-506.5 114,-525.5 257,-525.5 257,-506.5 114,-506.5"/>
<text text-anchor="middle" x="185.5" y="-513.5" font-family="Helvetica,sans-Serif" font-size="10.00">std::map&lt; K, T &gt;::iterator</text>
</a>
</g>
</g>
<!-- Node25&#45;&gt;Node24 -->
<g id="edge32" class="edge">
<title>Node25&#45;&gt;Node24</title>
<path fill="none" stroke="#9a32cd" stroke-dasharray="5,2" d="M267.28,-509.94C317.83,-505.94 384.27,-500.28 443,-494 448.83,-493.38 454.84,-492.7 460.9,-491.99"/>
<polygon fill="#9a32cd" stroke="#9a32cd" points="266.76,-506.47 257.07,-510.75 267.31,-513.45 266.76,-506.47"/>
<text text-anchor="middle" x="359" y="-512" font-family="Helvetica,sans-Serif" font-size="10.00"> elements</text>
</g>
<!-- Node26&#45;&gt;Node24 -->
<g id="edge33" class="edge">
<title>Node26&#45;&gt;Node24</title>
<path fill="none" stroke="orange" stroke-dasharray="5,2" d="M244.35,-450.27C296.38,-454.27 374.88,-460.72 443,-468 448.83,-468.62 454.84,-469.3 460.9,-470.01"/>
<polygon fill="orange" stroke="orange" points="244.54,-446.77 234.3,-449.5 244.01,-453.75 244.54,-446.77"/>
<text text-anchor="start" x="296.5" y="-482" font-family="Helvetica,sans-Serif" font-size="10.00"> &lt; DataObjectPointerMap</text>
<text text-anchor="middle" x="359" y="-471" font-family="Helvetica,sans-Serif" font-size="10.00">::iterator &gt;</text>
</g>
<!-- Node27&#45;&gt;Node6 -->
<g id="edge35" class="edge">
<title>Node27&#45;&gt;Node6</title>
<path fill="none" stroke="#9a32cd" stroke-dasharray="5,2" d="M1279.25,-107.83C1330.93,-111.92 1391.94,-126.4 1429,-168 1473.96,-218.46 1402.79,-267.88 1447,-319 1452.14,-324.94 1458.93,-329.12 1466.26,-332.04"/>
<polygon fill="#9a32cd" stroke="#9a32cd" points="1279.26,-104.32 1269.05,-107.15 1278.79,-111.31 1279.26,-104.32"/>
<text text-anchor="middle" x="1358" y="-182" font-family="Helvetica,sans-Serif" font-size="10.00"> m_Outputs</text>
<text text-anchor="middle" x="1358" y="-171" font-family="Helvetica,sans-Serif" font-size="10.00">m_Inputs</text>
</g>
<!-- Node28 -->
<g id="node28" class="node">
<title>Node28</title>
<g id="a_node28"><a xlink:href="https://www.itk.org/Doxygen/html/classitk_1_1SmartPointer.html" xlink:title=" ">
<polygon fill="white" stroke="black" points="826.5,-64 826.5,-94 933.5,-94 933.5,-64 826.5,-64"/>
<text text-anchor="start" x="834.5" y="-82" font-family="Helvetica,sans-Serif" font-size="10.00">itk::SmartPointer&lt;</text>
<text text-anchor="middle" x="880" y="-71" font-family="Helvetica,sans-Serif" font-size="10.00"> Self &gt;</text>
</a>
</g>
</g>
<!-- Node28&#45;&gt;Node27 -->
<g id="edge36" class="edge">
<title>Node28&#45;&gt;Node27</title>
<path fill="none" stroke="#9a32cd" stroke-dasharray="5,2" d="M943.68,-81.81C983.41,-83.97 1035.82,-87.54 1082,-93 1087.86,-93.69 1093.89,-94.49 1099.95,-95.35"/>
<polygon fill="#9a32cd" stroke="#9a32cd" points="943.78,-78.31 933.61,-81.27 943.41,-85.3 943.78,-78.31"/>
<text text-anchor="middle" x="1023.5" y="-96" font-family="Helvetica,sans-Serif" font-size="10.00"> elements</text>
</g>
<!-- Node29 -->
<g id="node29" class="node">
<title>Node29</title>
<g id="a_node29"><a xlink:href="https://www.itk.org/Doxygen/html/classitk_1_1SmartPointer.html" xlink:title=" ">
<polygon fill="white" stroke="black" points="492,-64 492,-94 599,-94 599,-64 492,-64"/>
<text text-anchor="start" x="500" y="-82" font-family="Helvetica,sans-Serif" font-size="10.00">itk::SmartPointer&lt;</text>
<text text-anchor="middle" x="545.5" y="-71" font-family="Helvetica,sans-Serif" font-size="10.00"> TObjectType &gt;</text>
</a>
</g>
</g>
<!-- Node29&#45;&gt;Node28 -->
<g id="edge37" class="edge">
<title>Node29&#45;&gt;Node28</title>
<path fill="none" stroke="orange" stroke-dasharray="5,2" d="M609.35,-79C672.08,-79 767.39,-79 826.29,-79"/>
<polygon fill="orange" stroke="orange" points="609.19,-75.5 599.19,-79 609.19,-82.5 609.19,-75.5"/>
<text text-anchor="middle" x="721.5" y="-82" font-family="Helvetica,sans-Serif" font-size="10.00"> &lt; Self &gt;</text>
</g>
<!-- Node30 -->
<g id="node30" class="node">
<title>Node30</title>
<g id="a_node30"><a xlink:href="https://www.itk.org/Doxygen/html/structitk_1_1ImageSourceCommon.html" xlink:title=" ">
<polygon fill="white" stroke="black" points="1447,-290.5 1447,-309.5 1590,-309.5 1590,-290.5 1447,-290.5"/>
<text text-anchor="middle" x="1518.5" y="-297.5" font-family="Helvetica,sans-Serif" font-size="10.00">itk::ImageSourceCommon</text>
</a>
</g>
</g>
<!-- Node30&#45;&gt;Node5 -->
<g id="edge41" class="edge">
<title>Node30&#45;&gt;Node5</title>
<path fill="none" stroke="#8b1a1a" d="M1600.31,-306.65C1613.58,-307.74 1627.26,-308.86 1640.34,-309.94"/>
<polygon fill="#8b1a1a" stroke="#8b1a1a" points="1600.52,-303.15 1590.27,-305.82 1599.95,-310.13 1600.52,-303.15"/>
</g>
<!-- Node31 -->
<g id="node31" class="node">
<title>Node31</title>
<g id="a_node31"><a xlink:href="https://www.itk.org/Doxygen/html/classitk_1_1ImageToImageFilterCommon.html" xlink:title=" ">
<polygon fill="white" stroke="black" points="1627,-262.5 1627,-281.5 1803,-281.5 1803,-262.5 1627,-262.5"/>
<text text-anchor="middle" x="1715" y="-269.5" font-family="Helvetica,sans-Serif" font-size="10.00">itk::ImageToImageFilterCommon</text>
</a>
</g>
</g>
<!-- Node31&#45;&gt;Node4 -->
<g id="edge42" class="edge">
<title>Node31&#45;&gt;Node4</title>
<path fill="none" stroke="#8b1a1a" d="M1813.07,-277.52C1821.99,-278.03 1830.99,-278.54 1839.82,-279.04"/>
<polygon fill="#8b1a1a" stroke="#8b1a1a" points="1813.22,-274.02 1803.04,-276.95 1812.83,-281.01 1813.22,-274.02"/>
</g>
<!-- Node32&#45;&gt;Node2 -->
<g id="edge43" class="edge">
<title>Node32&#45;&gt;Node2</title>
<path fill="none" stroke="orange" stroke-dasharray="5,2" d="M2452.14,-269.06C2499.98,-272.57 2558.52,-276.93 2611,-281 2616.85,-281.45 2622.88,-281.93 2628.96,-282.41"/>
<polygon fill="orange" stroke="orange" points="2452.33,-265.56 2442.1,-268.32 2451.82,-272.54 2452.33,-265.56"/>
<text text-anchor="middle" x="2535.5" y="-284" font-family="Helvetica,sans-Serif" font-size="10.00"> &lt; TImageType, TImageType &gt;</text>
</g>
<!-- Node33 -->
<g id="node33" class="node">
<title>Node33</title>
<g id="a_node33"><a xlink:href="https://www.itk.org/Doxygen/html/classHashFunction.html" xlink:title=" ">
<polygon fill="white" stroke="black" points="2669.5,-235.5 2669.5,-254.5 2752.5,-254.5 2752.5,-235.5 2669.5,-235.5"/>
<text text-anchor="middle" x="2711" y="-242.5" font-family="Helvetica,sans-Serif" font-size="10.00">HashFunction</text>
</a>
</g>
</g>
<!-- Node33&#45;&gt;Node1 -->
<g id="edge45" class="edge">
<title>Node33&#45;&gt;Node1</title>
<path fill="none" stroke="#9a32cd" stroke-dasharray="5,2" d="M2762.8,-247.55C2806.17,-249.73 2868.5,-252.86 2913.65,-255.12"/>
<polygon fill="#9a32cd" stroke="#9a32cd" points="2762.92,-244.05 2752.75,-247.05 2762.57,-251.04 2762.92,-244.05"/>
<text text-anchor="middle" x="2853.5" y="-258" font-family="Helvetica,sans-Serif" font-size="10.00"> m_HashFunction</text>
</g>
</g>
</svg>
