<?xml version="1.0" encoding="UTF-8" standalone="no"?>
<!DOCTYPE svg PUBLIC "-//W3C//DTD SVG 1.1//EN"
 "http://www.w3.org/Graphics/SVG/1.1/DTD/svg11.dtd">
<!-- Generated by graphviz version 2.43.0 (0)
 -->
<!-- Title: itk::simple::ImageReaderBase Pages: 1 -->
<!--zoomable 616 -->
<svg id="main" version="1.1" xmlns="http://www.w3.org/2000/svg" xmlns:xlink="http://www.w3.org/1999/xlink" xml:space="preserve" onload="init(evt)">
<style type="text/css"><![CDATA[
.edge:hover path { stroke: red; }
.edge:hover polygon { stroke: red; fill: red; }
]]></style>
<script type="text/javascript"><![CDATA[
var edges = document.getElementsByTagName('g');
if (edges && edges.length) {
  for (var i=0;i<edges.length;i++) {
    if (edges[i].id.substr(0,4)=='edge') {
      edges[i].setAttribute('class','edge');
    }
  }
}
]]></script>
        <defs>
                <circle id="rim" cx="0" cy="0" r="7"/>
                <circle id="rim2" cx="0" cy="0" r="3.5"/>
                <g id="zoomPlus">
                        <use xlink:href="#rim" fill="#404040">
                                <set attributeName="fill" to="#808080" begin="zoomplus.mouseover" end="zoomplus.mouseout"/>
                        </use>
                        <path d="M-4,0h8M0,-4v8" fill="none" stroke="white" stroke-width="1.5" pointer-events="none"/>
                </g>
                <g id="zoomMin">
                        <use xlink:href="#rim" fill="#404040">
                                <set attributeName="fill" to="#808080" begin="zoomminus.mouseover" end="zoomminus.mouseout"/>
                        </use>
                        <path d="M-4,0h8" fill="none" stroke="white" stroke-width="1.5" pointer-events="none"/>
                </g>
                <g id="dirArrow">
                        <path fill="none" stroke="white" stroke-width="1.5" d="M0,-3.0v7 M-2.5,-0.5L0,-3.0L2.5,-0.5"/>
                </g>
               <g id="resetDef">
                       <use xlink:href="#rim2" fill="#404040">
                               <set attributeName="fill" to="#808080" begin="reset.mouseover" end="reset.mouseout"/>
                       </use>
               </g>
        </defs>

<script type="text/javascript">
var viewWidth = 3109;
var viewHeight = 616;
var sectionId = 'dynsection-1';
</script>
<script xlink:href="svgpan.js"/>
<svg id="graph" class="graph">
<g id="viewport">
<title>itk::simple::ImageReaderBase</title>
<polygon fill="white" stroke="transparent" points="-4,4 -4,-611.5 3105,-611.5 3105,4 -4,4"/>
<!-- Node1 -->
<g id="node1" class="node">
<title>Node1</title>
<g id="a_node1"><a xlink:title="An abstract base class for image readers.">
<polygon fill="#bfbfbf" stroke="black" points="2937,-127 2937,-146 3101,-146 3101,-127 2937,-127"/>
<text text-anchor="middle" x="3019" y="-134" font-family="Helvetica,sans-Serif" font-size="10.00">itk::simple::ImageReaderBase</text>
</a>
</g>
</g>
<!-- Node2 -->
<g id="node2" class="node">
<title>Node2</title>
<g id="a_node2"><a xlink:href="classitk_1_1simple_1_1ProcessObject.html" target="_top" xlink:title="Base class for SimpleITK classes based on ProcessObject.">
<polygon fill="white" stroke="black" points="2757,-202 2757,-221 2900,-221 2900,-202 2757,-202"/>
<text text-anchor="middle" x="2828.5" y="-209" font-family="Helvetica,sans-Serif" font-size="10.00">itk::simple::ProcessObject</text>
</a>
</g>
</g>
<!-- Node2&#45;&gt;Node1 -->
<g id="edge1" class="edge">
<title>Node2&#45;&gt;Node1</title>
<path fill="none" stroke="midnightblue" d="M2863.27,-198.07C2900.85,-183.11 2960.66,-159.31 2993.84,-146.11"/>
<polygon fill="midnightblue" stroke="midnightblue" points="2861.75,-194.9 2853.76,-201.85 2864.34,-201.4 2861.75,-194.9"/>
</g>
<!-- Node3 -->
<g id="node3" class="node">
<title>Node3</title>
<g id="a_node3"><a xlink:href="classitk_1_1simple_1_1NonCopyable.html" target="_top" xlink:title="An inheritable class to disable copying of a class.">
<polygon fill="white" stroke="black" points="1448,-299 1448,-318 1588,-318 1588,-299 1448,-299"/>
<text text-anchor="middle" x="1518" y="-306" font-family="Helvetica,sans-Serif" font-size="10.00">itk::simple::NonCopyable</text>
</a>
</g>
</g>
<!-- Node3&#45;&gt;Node2 -->
<g id="edge2" class="edge">
<title>Node3&#45;&gt;Node2</title>
<path fill="none" stroke="darkgreen" d="M1571.18,-296.78C1652.95,-278.81 1807.77,-246.5 1864,-246.5 1864,-246.5 1864,-246.5 2554.5,-246.5 2634.78,-246.5 2727.26,-231.43 2781.36,-221.06"/>
<polygon fill="darkgreen" stroke="darkgreen" points="1570.35,-293.38 1561.34,-298.95 1571.86,-300.21 1570.35,-293.38"/>
</g>
<!-- Node7 -->
<g id="node7" class="node">
<title>Node7</title>
<g id="a_node7"><a xlink:href="classitk_1_1simple_1_1ObjectOwnedBase.html" target="_top" xlink:title="An abstract base class to connect this object with the lifetime of another.">
<polygon fill="white" stroke="black" points="1783,-299 1783,-318 1947,-318 1947,-299 1783,-299"/>
<text text-anchor="middle" x="1865" y="-306" font-family="Helvetica,sans-Serif" font-size="10.00">itk::simple::ObjectOwnedBase</text>
</a>
</g>
</g>
<!-- Node3&#45;&gt;Node7 -->
<g id="edge7" class="edge">
<title>Node3&#45;&gt;Node7</title>
<path fill="none" stroke="midnightblue" d="M1598.5,-308.5C1653.79,-308.5 1727.26,-308.5 1782.9,-308.5"/>
<polygon fill="midnightblue" stroke="midnightblue" points="1598.4,-305 1588.4,-308.5 1598.4,-312 1598.4,-305"/>
</g>
<!-- Node4 -->
<g id="node4" class="node">
<title>Node4</title>
<g id="a_node4"><a xlink:title=" ">
<polygon fill="white" stroke="#bfbfbf" points="2460,-293.5 2460,-323.5 2647,-323.5 2647,-293.5 2460,-293.5"/>
<text text-anchor="start" x="2468" y="-311.5" font-family="Helvetica,sans-Serif" font-size="10.00">std::list&lt; itk::simple</text>
<text text-anchor="middle" x="2553.5" y="-300.5" font-family="Helvetica,sans-Serif" font-size="10.00">::ProcessObject::EventCommand &gt;</text>
</a>
</g>
</g>
<!-- Node4&#45;&gt;Node2 -->
<g id="edge3" class="edge">
<title>Node4&#45;&gt;Node2</title>
<path fill="none" stroke="#9a32cd" stroke-dasharray="5,2" d="M2639.22,-291.18C2671.07,-283.45 2707.25,-273.19 2739,-260.5 2766.4,-249.55 2795.95,-231.87 2813.03,-221.01"/>
<polygon fill="#9a32cd" stroke="#9a32cd" points="2638.4,-287.78 2629.48,-293.5 2640.02,-294.59 2638.4,-287.78"/>
<text text-anchor="middle" x="2702" y="-286.5" font-family="Helvetica,sans-Serif" font-size="10.00"> m_Commands</text>
</g>
<!-- Node5 -->
<g id="node5" class="node">
<title>Node5</title>
<g id="a_node5"><a xlink:href="structitk_1_1simple_1_1ProcessObject_1_1EventCommand.html" target="_top" xlink:title=" ">
<polygon fill="white" stroke="black" points="2232,-293.5 2232,-323.5 2375,-323.5 2375,-293.5 2232,-293.5"/>
<text text-anchor="start" x="2240" y="-311.5" font-family="Helvetica,sans-Serif" font-size="10.00">itk::simple::ProcessObject</text>
<text text-anchor="middle" x="2303.5" y="-300.5" font-family="Helvetica,sans-Serif" font-size="10.00">::EventCommand</text>
</a>
</g>
</g>
<!-- Node5&#45;&gt;Node4 -->
<g id="edge4" class="edge">
<title>Node5&#45;&gt;Node4</title>
<path fill="none" stroke="#9a32cd" stroke-dasharray="5,2" d="M2385.29,-308.5C2409.12,-308.5 2435.38,-308.5 2459.89,-308.5"/>
<polygon fill="#9a32cd" stroke="#9a32cd" points="2385.23,-305 2375.23,-308.5 2385.23,-312 2385.23,-305"/>
<text text-anchor="middle" x="2417.5" y="-311.5" font-family="Helvetica,sans-Serif" font-size="10.00"> elements</text>
</g>
<!-- Node6 -->
<g id="node6" class="node">
<title>Node6</title>
<g id="a_node6"><a xlink:href="classitk_1_1simple_1_1Command.html" target="_top" xlink:title="An implementation of the Command design pattern for callback.">
<polygon fill="white" stroke="black" points="1984,-299 1984,-318 2109,-318 2109,-299 1984,-299"/>
<text text-anchor="middle" x="2046.5" y="-306" font-family="Helvetica,sans-Serif" font-size="10.00">itk::simple::Command</text>
</a>
</g>
</g>
<!-- Node6&#45;&gt;Node5 -->
<g id="edge5" class="edge">
<title>Node6&#45;&gt;Node5</title>
<path fill="none" stroke="#9a32cd" stroke-dasharray="5,2" d="M2119.43,-308.5C2154.63,-308.5 2196.85,-308.5 2231.88,-308.5"/>
<polygon fill="#9a32cd" stroke="#9a32cd" points="2119.23,-305 2109.23,-308.5 2119.23,-312 2119.23,-305"/>
<text text-anchor="middle" x="2170.5" y="-311.5" font-family="Helvetica,sans-Serif" font-size="10.00"> m_Command</text>
</g>
<!-- Node7&#45;&gt;Node6 -->
<g id="edge6" class="edge">
<title>Node7&#45;&gt;Node6</title>
<path fill="none" stroke="midnightblue" d="M1957.25,-308.5C1966.27,-308.5 1975.26,-308.5 1983.87,-308.5"/>
<polygon fill="midnightblue" stroke="midnightblue" points="1957.09,-305 1947.09,-308.5 1957.08,-312 1957.09,-305"/>
</g>
<!-- Node8 -->
<g id="node8" class="node">
<title>Node8</title>
<g id="a_node8"><a xlink:title=" ">
<polygon fill="white" stroke="#bfbfbf" points="1453.5,-383 1453.5,-424 1582.5,-424 1582.5,-383 1453.5,-383"/>
<text text-anchor="start" x="1461.5" y="-412" font-family="Helvetica,sans-Serif" font-size="10.00">std::multimap&lt; itk</text>
<text text-anchor="start" x="1461.5" y="-401" font-family="Helvetica,sans-Serif" font-size="10.00">::Object *, std::function</text>
<text text-anchor="middle" x="1518" y="-390" font-family="Helvetica,sans-Serif" font-size="10.00">&lt; void()&gt; &gt;</text>
</a>
</g>
</g>
<!-- Node8&#45;&gt;Node7 -->
<g id="edge8" class="edge">
<title>Node8&#45;&gt;Node7</title>
<path fill="none" stroke="#9a32cd" stroke-dasharray="5,2" d="M1592.72,-383.2C1665.62,-363.13 1774.01,-333.28 1829.11,-318.11"/>
<polygon fill="#9a32cd" stroke="#9a32cd" points="1591.39,-379.94 1582.68,-385.96 1593.25,-386.68 1591.39,-379.94"/>
<text text-anchor="middle" x="1686" y="-381.5" font-family="Helvetica,sans-Serif" font-size="10.00"> m_ReferencedObjectsCallbacks</text>
</g>
<!-- Node9 -->
<g id="node9" class="node">
<title>Node9</title>
<g id="a_node9"><a xlink:href="https://www.itk.org/Doxygen/html/classitk_1_1Object.html" xlink:title=" ">
<polygon fill="white" stroke="black" points="1151,-388 1151,-407 1218,-407 1218,-388 1151,-388"/>
<text text-anchor="middle" x="1184.5" y="-395" font-family="Helvetica,sans-Serif" font-size="10.00">itk::Object</text>
</a>
</g>
</g>
<!-- Node9&#45;&gt;Node8 -->
<g id="edge9" class="edge">
<title>Node9&#45;&gt;Node8</title>
<path fill="none" stroke="#9a32cd" stroke-dasharray="5,2" d="M1228.32,-398.28C1285.45,-399.31 1387.07,-401.15 1453.23,-402.35"/>
<polygon fill="#9a32cd" stroke="#9a32cd" points="1228.25,-394.77 1218.19,-398.09 1228.13,-401.77 1228.25,-394.77"/>
<text text-anchor="middle" x="1358" y="-405.5" font-family="Helvetica,sans-Serif" font-size="10.00"> keys</text>
</g>
<!-- Node24 -->
<g id="node24" class="node">
<title>Node24</title>
<g id="a_node24"><a xlink:href="https://www.itk.org/Doxygen/html/classitk_1_1ProcessObject.html" xlink:title=" ">
<polygon fill="white" stroke="black" points="1466,-261 1466,-280 1570,-280 1570,-261 1466,-261"/>
<text text-anchor="middle" x="1518" y="-268" font-family="Helvetica,sans-Serif" font-size="10.00">itk::ProcessObject</text>
</a>
</g>
</g>
<!-- Node9&#45;&gt;Node24 -->
<g id="edge32" class="edge">
<title>Node9&#45;&gt;Node24</title>
<path fill="none" stroke="midnightblue" d="M1228.53,-395.72C1290.42,-392.29 1400.28,-382.59 1429,-356.5 1451.82,-335.76 1425.23,-311.33 1447,-289.5 1452.25,-284.24 1458.79,-280.39 1465.76,-277.59"/>
<polygon fill="midnightblue" stroke="midnightblue" points="1228.1,-392.24 1218.3,-396.26 1228.47,-399.23 1228.1,-392.24"/>
</g>
<!-- Node10 -->
<g id="node10" class="node">
<title>Node10</title>
<g id="a_node10"><a xlink:href="https://www.itk.org/Doxygen/html/classitk_1_1LightObject.html" xlink:title=" ">
<polygon fill="white" stroke="black" points="834.5,-438 834.5,-457 925.5,-457 925.5,-438 834.5,-438"/>
<text text-anchor="middle" x="880" y="-445" font-family="Helvetica,sans-Serif" font-size="10.00">itk::LightObject</text>
</a>
</g>
</g>
<!-- Node10&#45;&gt;Node9 -->
<g id="edge10" class="edge">
<title>Node10&#45;&gt;Node9</title>
<path fill="none" stroke="midnightblue" d="M935.5,-442.48C976.08,-438.31 1032.75,-431.6 1082,-422.5 1105.2,-418.22 1131.01,-411.84 1150.8,-406.59"/>
<polygon fill="midnightblue" stroke="midnightblue" points="935.14,-438.99 925.54,-443.48 935.84,-445.96 935.14,-438.99"/>
</g>
<!-- Node11 -->
<g id="node11" class="node">
<title>Node11</title>
<g id="a_node11"><a xlink:title=" ">
<polygon fill="white" stroke="#bfbfbf" points="492,-439 492,-458 599,-458 599,-439 492,-439"/>
<text text-anchor="middle" x="545.5" y="-446" font-family="Helvetica,sans-Serif" font-size="10.00">std::atomic&lt; int &gt;</text>
</a>
</g>
</g>
<!-- Node11&#45;&gt;Node10 -->
<g id="edge11" class="edge">
<title>Node11&#45;&gt;Node10</title>
<path fill="none" stroke="#9a32cd" stroke-dasharray="5,2" d="M609.41,-448.31C675.06,-448.11 776.36,-447.81 834.28,-447.63"/>
<polygon fill="#9a32cd" stroke="#9a32cd" points="609.18,-444.81 599.19,-448.34 609.2,-451.81 609.18,-444.81"/>
<text text-anchor="middle" x="721.5" y="-451.5" font-family="Helvetica,sans-Serif" font-size="10.00"> m_ReferenceCount</text>
</g>
<!-- Node12 -->
<g id="node12" class="node">
<title>Node12</title>
<g id="a_node12"><a xlink:title="STL class.">
<polygon fill="white" stroke="#bfbfbf" points="135.5,-350 135.5,-369 235.5,-369 235.5,-350 135.5,-350"/>
<text text-anchor="middle" x="185.5" y="-357" font-family="Helvetica,sans-Serif" font-size="10.00">std::atomic&lt; T &gt;</text>
</a>
</g>
</g>
<!-- Node12&#45;&gt;Node11 -->
<g id="edge12" class="edge">
<title>Node12&#45;&gt;Node11</title>
<path fill="none" stroke="orange" stroke-dasharray="5,2" d="M245,-370.38C249.34,-372.61 253.41,-375.29 257,-378.5 273.35,-393.15 257.43,-411.33 275,-424.5 308.12,-449.33 423.38,-451.35 491.98,-450.19"/>
<polygon fill="orange" stroke="orange" points="246.36,-367.15 235.79,-366.4 243.58,-373.58 246.36,-367.15"/>
<text text-anchor="middle" x="359" y="-453.5" font-family="Helvetica,sans-Serif" font-size="10.00"> &lt; int &gt;</text>
</g>
<!-- Node21 -->
<g id="node21" class="node">
<title>Node21</title>
<g id="a_node21"><a xlink:href="https://www.itk.org/Doxygen/html/classitk_1_1TimeStamp.html" xlink:title=" ">
<polygon fill="white" stroke="black" points="834,-350 834,-369 926,-369 926,-350 834,-350"/>
<text text-anchor="middle" x="880" y="-357" font-family="Helvetica,sans-Serif" font-size="10.00">itk::TimeStamp</text>
</a>
</g>
</g>
<!-- Node12&#45;&gt;Node21 -->
<g id="edge24" class="edge">
<title>Node12&#45;&gt;Node21</title>
<path fill="none" stroke="#9a32cd" stroke-dasharray="5,2" d="M245.96,-359.5C381.82,-359.5 712.58,-359.5 833.64,-359.5"/>
<polygon fill="#9a32cd" stroke="#9a32cd" points="245.75,-356 235.75,-359.5 245.75,-363 245.75,-356"/>
<text text-anchor="middle" x="545.5" y="-362.5" font-family="Helvetica,sans-Serif" font-size="10.00"> m_GlobalTimeStamp</text>
</g>
<!-- Node28 -->
<g id="node28" class="node">
<title>Node28</title>
<g id="a_node28"><a xlink:title=" ">
<polygon fill="white" stroke="#bfbfbf" points="654.5,-290 654.5,-309 788.5,-309 788.5,-290 654.5,-290"/>
<text text-anchor="middle" x="721.5" y="-297" font-family="Helvetica,sans-Serif" font-size="10.00">std::atomic&lt; uint32_t &gt;</text>
</a>
</g>
</g>
<!-- Node12&#45;&gt;Node28 -->
<g id="edge41" class="edge">
<title>Node12&#45;&gt;Node28</title>
<path fill="none" stroke="orange" stroke-dasharray="5,2" d="M203.79,-342.76C220.48,-327.87 247.23,-307.14 275,-298.5 343.68,-277.12 547.74,-287.34 654.19,-294.52"/>
<polygon fill="orange" stroke="orange" points="201.01,-340.57 196.03,-349.92 205.75,-345.71 201.01,-340.57"/>
<text text-anchor="middle" x="359" y="-301.5" font-family="Helvetica,sans-Serif" font-size="10.00"> &lt; uint32_t &gt;</text>
</g>
<!-- Node13 -->
<g id="node13" class="node">
<title>Node13</title>
<g id="a_node13"><a xlink:title=" ">
<polygon fill="white" stroke="#bfbfbf" points="0,-409 0,-428 29,-428 29,-409 0,-409"/>
<text text-anchor="middle" x="14.5" y="-416" font-family="Helvetica,sans-Serif" font-size="10.00">T</text>
</a>
</g>
</g>
<!-- Node13&#45;&gt;Node12 -->
<g id="edge13" class="edge">
<title>Node13&#45;&gt;Node12</title>
<path fill="none" stroke="#9a32cd" stroke-dasharray="5,2" d="M28.98,-401.13C34.07,-395.67 40.27,-390.12 47,-386.5 74.1,-371.92 107.99,-365.16 135.35,-362.04"/>
<polygon fill="#9a32cd" stroke="#9a32cd" points="26.23,-398.96 22.4,-408.84 31.55,-403.51 26.23,-398.96"/>
<text text-anchor="middle" x="71.5" y="-389.5" font-family="Helvetica,sans-Serif" font-size="10.00"> ptr</text>
</g>
<!-- Node18 -->
<g id="node18" class="node">
<title>Node18</title>
<g id="a_node18"><a xlink:title="STL class.">
<polygon fill="white" stroke="#bfbfbf" points="135,-253 135,-272 236,-272 236,-253 135,-253"/>
<text text-anchor="middle" x="185.5" y="-260" font-family="Helvetica,sans-Serif" font-size="10.00">std::map&lt; K, T &gt;</text>
</a>
</g>
</g>
<!-- Node13&#45;&gt;Node18 -->
<g id="edge20" class="edge">
<title>Node13&#45;&gt;Node18</title>
<path fill="none" stroke="#9a32cd" stroke-dasharray="5,2" d="M14.87,-398.67C15.14,-371.93 19.8,-324.56 47,-297.5 59.44,-285.12 100.64,-275.68 134.72,-269.74"/>
<polygon fill="#9a32cd" stroke="#9a32cd" points="11.37,-398.78 14.96,-408.75 18.37,-398.71 11.37,-398.78"/>
<text text-anchor="middle" x="71.5" y="-300.5" font-family="Helvetica,sans-Serif" font-size="10.00"> elements</text>
</g>
<!-- Node20 -->
<g id="node20" class="node">
<title>Node20</title>
<g id="a_node20"><a xlink:title="STL class.">
<polygon fill="white" stroke="#bfbfbf" points="126.5,-426 126.5,-445 244.5,-445 244.5,-426 126.5,-426"/>
<text text-anchor="middle" x="185.5" y="-433" font-family="Helvetica,sans-Serif" font-size="10.00">std::shared_ptr&lt; T &gt;</text>
</a>
</g>
</g>
<!-- Node13&#45;&gt;Node20 -->
<g id="edge22" class="edge">
<title>Node13&#45;&gt;Node20</title>
<path fill="none" stroke="#9a32cd" stroke-dasharray="5,2" d="M39.01,-420.86C61.46,-423.12 96.23,-426.62 126.14,-429.63"/>
<polygon fill="#9a32cd" stroke="#9a32cd" points="39.34,-417.38 29.04,-419.86 38.64,-424.35 39.34,-417.38"/>
<text text-anchor="middle" x="71.5" y="-429.5" font-family="Helvetica,sans-Serif" font-size="10.00"> ptr</text>
</g>
<!-- Node22 -->
<g id="node22" class="node">
<title>Node22</title>
<g id="a_node22"><a xlink:title="STL class.">
<polygon fill="white" stroke="#bfbfbf" points="122.5,-388 122.5,-407 248.5,-407 248.5,-388 122.5,-388"/>
<text text-anchor="middle" x="185.5" y="-395" font-family="Helvetica,sans-Serif" font-size="10.00">std::multimap&lt; K, T &gt;</text>
</a>
</g>
</g>
<!-- Node13&#45;&gt;Node22 -->
<g id="edge27" class="edge">
<title>Node13&#45;&gt;Node22</title>
<path fill="none" stroke="#9a32cd" stroke-dasharray="5,2" d="M38.7,-409.63C41.46,-408.8 44.28,-408.06 47,-407.5 71.37,-402.45 98.64,-399.85 122.42,-398.55"/>
<polygon fill="#9a32cd" stroke="#9a32cd" points="37.43,-406.37 29.08,-412.88 39.67,-413 37.43,-406.37"/>
<text text-anchor="middle" x="71.5" y="-410.5" font-family="Helvetica,sans-Serif" font-size="10.00"> elements</text>
</g>
<!-- Node23 -->
<g id="node23" class="node">
<title>Node23</title>
<g id="a_node23"><a xlink:title="STL class.">
<polygon fill="white" stroke="#bfbfbf" points="318.5,-578 318.5,-597 399.5,-597 399.5,-578 318.5,-578"/>
<text text-anchor="middle" x="359" y="-585" font-family="Helvetica,sans-Serif" font-size="10.00">std::list&lt; T &gt;</text>
</a>
</g>
</g>
<!-- Node13&#45;&gt;Node23 -->
<g id="edge30" class="edge">
<title>Node13&#45;&gt;Node23</title>
<path fill="none" stroke="#9a32cd" stroke-dasharray="5,2" d="M16.57,-438.38C18.81,-462.51 25.71,-503.32 47,-530.5 68.11,-557.45 81.26,-558.49 114,-568.5 183.48,-589.75 269.01,-591.09 318.14,-589.64"/>
<polygon fill="#9a32cd" stroke="#9a32cd" points="20.05,-438.01 15.82,-428.29 13.07,-438.53 20.05,-438.01"/>
<text text-anchor="middle" x="71.5" y="-565.5" font-family="Helvetica,sans-Serif" font-size="10.00"> elements</text>
</g>
<!-- Node31 -->
<g id="node31" class="node">
<title>Node31</title>
<g id="a_node31"><a xlink:title="STL class.">
<polygon fill="white" stroke="#bfbfbf" points="137,-540 137,-559 234,-559 234,-540 137,-540"/>
<text text-anchor="middle" x="185.5" y="-547" font-family="Helvetica,sans-Serif" font-size="10.00">std::vector&lt; T &gt;</text>
</a>
</g>
</g>
<!-- Node13&#45;&gt;Node31 -->
<g id="edge45" class="edge">
<title>Node13&#45;&gt;Node31</title>
<path fill="none" stroke="#9a32cd" stroke-dasharray="5,2" d="M26.64,-436.85C42.77,-461.85 75,-506.25 114,-530.5 120.89,-534.78 128.74,-538.11 136.64,-540.7"/>
<polygon fill="#9a32cd" stroke="#9a32cd" points="29.55,-434.91 21.26,-428.31 23.62,-438.64 29.55,-434.91"/>
<text text-anchor="middle" x="71.5" y="-518.5" font-family="Helvetica,sans-Serif" font-size="10.00"> elements</text>
</g>
<!-- Node14 -->
<g id="node14" class="node">
<title>Node14</title>
<g id="a_node14"><a xlink:title="STL class.">
<polygon fill="white" stroke="#bfbfbf" points="847.5,-180 847.5,-199 912.5,-199 912.5,-180 847.5,-180"/>
<text text-anchor="middle" x="880" y="-187" font-family="Helvetica,sans-Serif" font-size="10.00">std::string</text>
</a>
</g>
</g>
<!-- Node14&#45;&gt;Node1 -->
<g id="edge52" class="edge">
<title>Node14&#45;&gt;Node1</title>
<path fill="none" stroke="#9a32cd" stroke-dasharray="5,2" d="M918.06,-176.71C932.6,-171.92 949.49,-166.65 965,-162.5 1134.57,-117.16 1181.48,-114.5 1357,-114.5 1357,-114.5 1357,-114.5 2829.5,-114.5 2875.46,-114.5 2927.31,-121.03 2964.97,-126.98"/>
<polygon fill="#9a32cd" stroke="#9a32cd" points="916.79,-173.44 908.41,-179.93 919.01,-180.08 916.79,-173.44"/>
<text text-anchor="middle" x="2046.5" y="-117.5" font-family="Helvetica,sans-Serif" font-size="10.00"> m_ImageIOName</text>
</g>
<!-- Node14&#45;&gt;Node7 -->
<g id="edge28" class="edge">
<title>Node14&#45;&gt;Node7</title>
<path fill="none" stroke="#9a32cd" stroke-dasharray="5,2" d="M922.7,-189.23C1033.12,-188.71 1331.33,-188.58 1429,-201.5 1584.74,-222.11 1765.54,-276.81 1834.89,-298.98"/>
<polygon fill="#9a32cd" stroke="#9a32cd" points="922.6,-185.73 912.61,-189.28 922.63,-192.73 922.6,-185.73"/>
<text text-anchor="middle" x="1358" y="-204.5" font-family="Helvetica,sans-Serif" font-size="10.00"> m_Name</text>
</g>
<!-- Node14&#45;&gt;Node9 -->
<g id="edge14" class="edge">
<title>Node14&#45;&gt;Node9</title>
<path fill="none" stroke="#9a32cd" stroke-dasharray="5,2" d="M889.03,-208.32C901.49,-235.44 927.98,-285.43 965,-314.5 1008.57,-348.71 1030.23,-337.79 1082,-357.5 1108.73,-367.68 1139.24,-379.76 1159.77,-387.97"/>
<polygon fill="#9a32cd" stroke="#9a32cd" points="892.2,-206.85 884.94,-199.14 885.81,-209.7 892.2,-206.85"/>
<text text-anchor="middle" x="1023.5" y="-360.5" font-family="Helvetica,sans-Serif" font-size="10.00"> m_ObjectName</text>
</g>
<!-- Node25 -->
<g id="node25" class="node">
<title>Node25</title>
<g id="a_node25"><a xlink:title=" ">
<polygon fill="white" stroke="#bfbfbf" points="1103.5,-143.5 1103.5,-173.5 1265.5,-173.5 1265.5,-143.5 1103.5,-143.5"/>
<text text-anchor="start" x="1111.5" y="-161.5" font-family="Helvetica,sans-Serif" font-size="10.00">std::set&lt; DataObjectIdentifier</text>
<text text-anchor="middle" x="1184.5" y="-150.5" font-family="Helvetica,sans-Serif" font-size="10.00">Type &gt;</text>
</a>
</g>
</g>
<!-- Node14&#45;&gt;Node25 -->
<g id="edge34" class="edge">
<title>Node14&#45;&gt;Node25</title>
<path fill="none" stroke="#9a32cd" stroke-dasharray="5,2" d="M922.8,-183.07C936.25,-181.12 951.24,-179.08 965,-177.5 1010.77,-172.24 1062.09,-167.71 1103.48,-164.39"/>
<polygon fill="#9a32cd" stroke="#9a32cd" points="922.24,-179.61 912.86,-184.53 923.26,-186.54 922.24,-179.61"/>
<text text-anchor="middle" x="1023.5" y="-180.5" font-family="Helvetica,sans-Serif" font-size="10.00"> keys</text>
</g>
<!-- Node27 -->
<g id="node27" class="node">
<title>Node27</title>
<g id="a_node27"><a xlink:title=" ">
<polygon fill="white" stroke="#bfbfbf" points="1100,-240.5 1100,-270.5 1269,-270.5 1269,-240.5 1100,-240.5"/>
<text text-anchor="start" x="1108" y="-258.5" font-family="Helvetica,sans-Serif" font-size="10.00">std::map&lt; DataObjectIdentifier</text>
<text text-anchor="middle" x="1184.5" y="-247.5" font-family="Helvetica,sans-Serif" font-size="10.00">Type, bool &gt;</text>
</a>
</g>
</g>
<!-- Node14&#45;&gt;Node27 -->
<g id="edge38" class="edge">
<title>Node14&#45;&gt;Node27</title>
<path fill="none" stroke="#9a32cd" stroke-dasharray="5,2" d="M921.58,-201.88C935.3,-205.85 950.75,-210.1 965,-213.5 978.62,-216.75 1046.91,-229.79 1103.57,-240.49"/>
<polygon fill="#9a32cd" stroke="#9a32cd" points="922.52,-198.51 911.94,-199.05 920.55,-205.22 922.52,-198.51"/>
<text text-anchor="middle" x="1023.5" y="-238.5" font-family="Helvetica,sans-Serif" font-size="10.00"> keys</text>
</g>
<!-- Node32 -->
<g id="node32" class="node">
<title>Node32</title>
<g id="a_node32"><a xlink:title=" ">
<polygon fill="white" stroke="#bfbfbf" points="1100,-50.5 1100,-80.5 1269,-80.5 1269,-50.5 1100,-50.5"/>
<text text-anchor="start" x="1108" y="-68.5" font-family="Helvetica,sans-Serif" font-size="10.00">std::map&lt; DataObjectIdentifier</text>
<text text-anchor="middle" x="1184.5" y="-57.5" font-family="Helvetica,sans-Serif" font-size="10.00">Type, DataObjectPointer &gt;</text>
</a>
</g>
</g>
<!-- Node14&#45;&gt;Node32 -->
<g id="edge49" class="edge">
<title>Node14&#45;&gt;Node32</title>
<path fill="none" stroke="#9a32cd" stroke-dasharray="5,2" d="M896.64,-172.3C912.37,-156.04 938.08,-132.17 965,-118.5 1006.94,-97.2 1057.81,-84.21 1099.91,-76.43"/>
<polygon fill="#9a32cd" stroke="#9a32cd" points="894.08,-169.91 889.76,-179.59 899.17,-174.71 894.08,-169.91"/>
<text text-anchor="middle" x="1023.5" y="-121.5" font-family="Helvetica,sans-Serif" font-size="10.00"> keys</text>
</g>
<!-- Node15 -->
<g id="node15" class="node">
<title>Node15</title>
<g id="a_node15"><a xlink:title="STL class.">
<polygon fill="white" stroke="#bfbfbf" points="493.5,-174.5 493.5,-204.5 597.5,-204.5 597.5,-174.5 493.5,-174.5"/>
<text text-anchor="start" x="501.5" y="-192.5" font-family="Helvetica,sans-Serif" font-size="10.00">std::basic_string&lt;</text>
<text text-anchor="middle" x="545.5" y="-181.5" font-family="Helvetica,sans-Serif" font-size="10.00"> char &gt;</text>
</a>
</g>
</g>
<!-- Node15&#45;&gt;Node14 -->
<g id="edge15" class="edge">
<title>Node15&#45;&gt;Node14</title>
<path fill="none" stroke="midnightblue" d="M607.85,-189.5C678.64,-189.5 792.34,-189.5 847.27,-189.5"/>
<polygon fill="midnightblue" stroke="midnightblue" points="607.72,-186 597.72,-189.5 607.72,-193 607.72,-186"/>
</g>
<!-- Node16 -->
<g id="node16" class="node">
<title>Node16</title>
<g id="a_node16"><a xlink:href="https://www.itk.org/Doxygen/html/classitk_1_1MetaDataDictionary.html" xlink:title=" ">
<polygon fill="white" stroke="black" points="813,-398 813,-417 947,-417 947,-398 813,-398"/>
<text text-anchor="middle" x="880" y="-405" font-family="Helvetica,sans-Serif" font-size="10.00">itk::MetaDataDictionary</text>
</a>
</g>
</g>
<!-- Node16&#45;&gt;Node9 -->
<g id="edge16" class="edge">
<title>Node16&#45;&gt;Node9</title>
<path fill="none" stroke="#9a32cd" stroke-dasharray="5,2" d="M957.47,-407.33C995,-407 1040.88,-406.22 1082,-404.5 1104.94,-403.54 1130.76,-401.75 1150.61,-400.22"/>
<polygon fill="#9a32cd" stroke="#9a32cd" points="957.08,-403.83 947.11,-407.41 957.14,-410.83 957.08,-403.83"/>
<text text-anchor="middle" x="1023.5" y="-410.5" font-family="Helvetica,sans-Serif" font-size="10.00"> m_MetaDataDictionary</text>
</g>
<!-- Node17 -->
<g id="node17" class="node">
<title>Node17</title>
<g id="a_node17"><a xlink:title=" ">
<polygon fill="white" stroke="#bfbfbf" points="471,-389.5 471,-419.5 620,-419.5 620,-389.5 471,-389.5"/>
<text text-anchor="start" x="479" y="-407.5" font-family="Helvetica,sans-Serif" font-size="10.00">std::shared_ptr&lt; MetaData</text>
<text text-anchor="middle" x="545.5" y="-396.5" font-family="Helvetica,sans-Serif" font-size="10.00">DictionaryMapType &gt;</text>
</a>
</g>
</g>
<!-- Node17&#45;&gt;Node16 -->
<g id="edge17" class="edge">
<title>Node17&#45;&gt;Node16</title>
<path fill="none" stroke="#9a32cd" stroke-dasharray="5,2" d="M630.63,-405.26C687.09,-405.77 760.43,-406.43 812.74,-406.9"/>
<polygon fill="#9a32cd" stroke="#9a32cd" points="630.32,-401.76 620.29,-405.17 630.26,-408.76 630.32,-401.76"/>
<text text-anchor="middle" x="721.5" y="-410.5" font-family="Helvetica,sans-Serif" font-size="10.00"> m_Dictionary</text>
</g>
<!-- Node18&#45;&gt;Node17 -->
<g id="edge18" class="edge">
<title>Node18&#45;&gt;Node17</title>
<path fill="none" stroke="#9a32cd" stroke-dasharray="5,2" d="M210.69,-277.39C228.16,-287.77 252.53,-301.49 275,-311.5 348.47,-344.22 437.26,-372.87 492.31,-389.44"/>
<polygon fill="#9a32cd" stroke="#9a32cd" points="212.12,-274.17 201.75,-272.01 208.51,-280.17 212.12,-274.17"/>
<text text-anchor="middle" x="359" y="-376.5" font-family="Helvetica,sans-Serif" font-size="10.00"> ptr</text>
</g>
<!-- Node18&#45;&gt;Node27 -->
<g id="edge39" class="edge">
<title>Node18&#45;&gt;Node27</title>
<path fill="none" stroke="orange" stroke-dasharray="5,2" d="M246.07,-261.93C333.99,-261.09 503.68,-259.53 648,-258.5 807.67,-257.36 994.13,-256.4 1099.56,-255.89"/>
<polygon fill="orange" stroke="orange" points="245.98,-258.43 236.01,-262.02 246.05,-265.43 245.98,-258.43"/>
<text text-anchor="start" x="652" y="-272.5" font-family="Helvetica,sans-Serif" font-size="10.00"> &lt; DataObjectIdentifierType,</text>
<text text-anchor="middle" x="721.5" y="-261.5" font-family="Helvetica,sans-Serif" font-size="10.00"> bool &gt;</text>
</g>
<!-- Node18&#45;&gt;Node32 -->
<g id="edge50" class="edge">
<title>Node18&#45;&gt;Node32</title>
<path fill="none" stroke="orange" stroke-dasharray="5,2" d="M192.71,-242.97C203.72,-211.95 229.87,-152.19 275,-125.5 412.93,-43.93 902.24,-53.93 1099.83,-61.62"/>
<polygon fill="orange" stroke="orange" points="189.33,-242.05 189.44,-252.64 195.96,-244.29 189.33,-242.05"/>
<text text-anchor="start" x="652" y="-75.5" font-family="Helvetica,sans-Serif" font-size="10.00"> &lt; DataObjectIdentifierType,</text>
<text text-anchor="middle" x="721.5" y="-64.5" font-family="Helvetica,sans-Serif" font-size="10.00"> DataObjectPointer &gt;</text>
</g>
<!-- Node19 -->
<g id="node19" class="node">
<title>Node19</title>
<g id="a_node19"><a xlink:title=" ">
<polygon fill="white" stroke="#bfbfbf" points="0,-253 0,-272 29,-272 29,-253 0,-253"/>
<text text-anchor="middle" x="14.5" y="-260" font-family="Helvetica,sans-Serif" font-size="10.00">K</text>
</a>
</g>
</g>
<!-- Node19&#45;&gt;Node18 -->
<g id="edge19" class="edge">
<title>Node19&#45;&gt;Node18</title>
<path fill="none" stroke="#9a32cd" stroke-dasharray="5,2" d="M39.29,-262.5C64.02,-262.5 103.44,-262.5 134.98,-262.5"/>
<polygon fill="#9a32cd" stroke="#9a32cd" points="39.04,-259 29.04,-262.5 39.04,-266 39.04,-259"/>
<text text-anchor="middle" x="71.5" y="-265.5" font-family="Helvetica,sans-Serif" font-size="10.00"> keys</text>
</g>
<!-- Node19&#45;&gt;Node22 -->
<g id="edge26" class="edge">
<title>Node19&#45;&gt;Node22</title>
<path fill="none" stroke="#9a32cd" stroke-dasharray="5,2" d="M25.6,-280.8C31.29,-290.39 38.88,-302.07 47,-311.5 65.91,-333.46 76.31,-333.24 96,-354.5 105.06,-364.28 102.96,-371.02 114,-378.5 119.77,-382.41 126.32,-385.52 133.04,-387.98"/>
<polygon fill="#9a32cd" stroke="#9a32cd" points="28.6,-279 20.59,-272.07 22.53,-282.48 28.6,-279"/>
<text text-anchor="middle" x="71.5" y="-357.5" font-family="Helvetica,sans-Serif" font-size="10.00"> keys</text>
</g>
<!-- Node26 -->
<g id="node26" class="node">
<title>Node26</title>
<g id="a_node26"><a xlink:title="STL class.">
<polygon fill="white" stroke="#bfbfbf" points="318,-135 318,-154 400,-154 400,-135 318,-135"/>
<text text-anchor="middle" x="359" y="-142" font-family="Helvetica,sans-Serif" font-size="10.00">std::set&lt; K &gt;</text>
</a>
</g>
</g>
<!-- Node19&#45;&gt;Node26 -->
<g id="edge36" class="edge">
<title>Node19&#45;&gt;Node26</title>
<path fill="none" stroke="#9a32cd" stroke-dasharray="5,2" d="M38.46,-251.16C41.31,-249.87 44.21,-248.62 47,-247.5 146.22,-207.63 267.43,-170.77 324.83,-154"/>
<polygon fill="#9a32cd" stroke="#9a32cd" points="36.69,-248.13 29.13,-255.55 39.67,-254.46 36.69,-248.13"/>
<text text-anchor="middle" x="71.5" y="-250.5" font-family="Helvetica,sans-Serif" font-size="10.00"> keys</text>
</g>
<!-- Node20&#45;&gt;Node17 -->
<g id="edge21" class="edge">
<title>Node20&#45;&gt;Node17</title>
<path fill="none" stroke="orange" stroke-dasharray="5,2" d="M227.96,-423.28C242.68,-419.45 259.46,-415.67 275,-413.5 340.84,-404.32 416.56,-402.56 470.94,-402.8"/>
<polygon fill="orange" stroke="orange" points="226.89,-419.95 218.13,-425.92 228.7,-426.71 226.89,-419.95"/>
<text text-anchor="middle" x="359" y="-416.5" font-family="Helvetica,sans-Serif" font-size="10.00"> &lt; MetaDataDictionaryMapType &gt;</text>
</g>
<!-- Node21&#45;&gt;Node9 -->
<g id="edge23" class="edge">
<title>Node21&#45;&gt;Node9</title>
<path fill="none" stroke="#9a32cd" stroke-dasharray="5,2" d="M936.5,-366.83C946,-368.06 955.79,-369.33 965,-370.5 1030.98,-378.9 1108.21,-388.35 1150.91,-393.55"/>
<polygon fill="#9a32cd" stroke="#9a32cd" points="936.7,-363.32 926.33,-365.5 935.79,-370.26 936.7,-363.32"/>
<text text-anchor="middle" x="1023.5" y="-388.5" font-family="Helvetica,sans-Serif" font-size="10.00"> m_MTime</text>
</g>
<!-- Node21&#45;&gt;Node24 -->
<g id="edge51" class="edge">
<title>Node21&#45;&gt;Node24</title>
<path fill="none" stroke="#9a32cd" stroke-dasharray="5,2" d="M924.65,-347.4C937.55,-344.29 951.76,-341.32 965,-339.5 1067.23,-325.48 1340.95,-375.31 1429,-321.5 1442.92,-312.99 1434.13,-299.53 1447,-289.5 1452.56,-285.17 1459.04,-281.82 1465.77,-279.24"/>
<polygon fill="#9a32cd" stroke="#9a32cd" points="923.49,-344.08 914.64,-349.9 925.19,-350.88 923.49,-344.08"/>
<text text-anchor="middle" x="1184.5" y="-350.5" font-family="Helvetica,sans-Serif" font-size="10.00"> m_OutputInformationMTime</text>
</g>
<!-- Node22&#45;&gt;Node8 -->
<g id="edge25" class="edge">
<title>Node22&#45;&gt;Node8</title>
<path fill="none" stroke="orange" stroke-dasharray="5,2" d="M251.55,-412.18C253.47,-413.5 255.29,-414.94 257,-416.5 274.12,-432.16 256.44,-451.58 275,-465.5 336.48,-511.6 888.2,-509.89 965,-512.5 1016.97,-514.27 1030.22,-517.31 1082,-512.5 1238.23,-497.99 1280.28,-497.51 1429,-447.5 1446.97,-441.46 1465.9,-432.38 1481.58,-424.04"/>
<polygon fill="orange" stroke="orange" points="253.07,-409.02 242.65,-407.1 249.6,-415.1 253.07,-409.02"/>
<text text-anchor="start" x="827" y="-525.5" font-family="Helvetica,sans-Serif" font-size="10.00"> &lt; itk::Object *, std</text>
<text text-anchor="middle" x="880" y="-514.5" font-family="Helvetica,sans-Serif" font-size="10.00">::function&lt; void()&gt; &gt;</text>
</g>
<!-- Node23&#45;&gt;Node4 -->
<g id="edge29" class="edge">
<title>Node23&#45;&gt;Node4</title>
<path fill="none" stroke="orange" stroke-dasharray="5,2" d="M409.97,-587.05C479.56,-586.46 609.62,-585.5 720.5,-585.5 720.5,-585.5 720.5,-585.5 2304.5,-585.5 2446.18,-585.5 2527.22,-381.86 2547.45,-323.79"/>
<polygon fill="orange" stroke="orange" points="409.71,-583.55 399.74,-587.14 409.77,-590.55 409.71,-583.55"/>
<text text-anchor="start" x="1447" y="-599.5" font-family="Helvetica,sans-Serif" font-size="10.00"> &lt; itk::simple::ProcessObject</text>
<text text-anchor="middle" x="1518" y="-588.5" font-family="Helvetica,sans-Serif" font-size="10.00">::EventCommand &gt;</text>
</g>
<!-- Node24&#45;&gt;Node2 -->
<g id="edge31" class="edge">
<title>Node24&#45;&gt;Node2</title>
<path fill="none" stroke="#9a32cd" stroke-dasharray="5,2" d="M1547.49,-256.5C1564.46,-248.59 1586.59,-239.02 1607,-232.5 1718.27,-196.95 1747.19,-177.5 1864,-177.5 1864,-177.5 1864,-177.5 2554.5,-177.5 2634.02,-177.5 2725.59,-191.88 2779.89,-201.94"/>
<polygon fill="#9a32cd" stroke="#9a32cd" points="1545.69,-253.48 1538.15,-260.92 1548.69,-259.8 1545.69,-253.48"/>
<text text-anchor="middle" x="2170.5" y="-180.5" font-family="Helvetica,sans-Serif" font-size="10.00"> m_ActiveProcess</text>
</g>
<!-- Node25&#45;&gt;Node24 -->
<g id="edge33" class="edge">
<title>Node25&#45;&gt;Node24</title>
<path fill="none" stroke="#9a32cd" stroke-dasharray="5,2" d="M1217.1,-179.06C1236.58,-190.92 1262.44,-205.27 1287,-214.5 1347.47,-237.23 1366.35,-229.78 1429,-245.5 1447.79,-250.22 1468.66,-256.12 1485.36,-261"/>
<polygon fill="#9a32cd" stroke="#9a32cd" points="1218.71,-175.93 1208.36,-173.64 1215.02,-181.88 1218.71,-175.93"/>
<text text-anchor="middle" x="1358" y="-248.5" font-family="Helvetica,sans-Serif" font-size="10.00"> m_RequiredInputNames</text>
</g>
<!-- Node26&#45;&gt;Node25 -->
<g id="edge35" class="edge">
<title>Node26&#45;&gt;Node25</title>
<path fill="none" stroke="orange" stroke-dasharray="5,2" d="M410.59,-145.36C549.06,-147.71 935.17,-154.28 1103.42,-157.14"/>
<polygon fill="orange" stroke="orange" points="410.33,-141.86 400.28,-145.18 410.22,-148.85 410.33,-141.86"/>
<text text-anchor="middle" x="721.5" y="-155.5" font-family="Helvetica,sans-Serif" font-size="10.00"> &lt; DataObjectIdentifierType &gt;</text>
</g>
<!-- Node27&#45;&gt;Node24 -->
<g id="edge37" class="edge">
<title>Node27&#45;&gt;Node24</title>
<path fill="none" stroke="#9a32cd" stroke-dasharray="5,2" d="M1279.49,-259.75C1340.03,-262.49 1416.4,-265.95 1465.94,-268.19"/>
<polygon fill="#9a32cd" stroke="#9a32cd" points="1279.3,-256.24 1269.15,-259.29 1278.98,-263.23 1279.3,-256.24"/>
<text text-anchor="start" x="1287" y="-280.5" font-family="Helvetica,sans-Serif" font-size="10.00"> m_CachedInputReleaseData</text>
<text text-anchor="middle" x="1358" y="-269.5" font-family="Helvetica,sans-Serif" font-size="10.00">Flags</text>
</g>
<!-- Node28&#45;&gt;Node24 -->
<g id="edge40" class="edge">
<title>Node28&#45;&gt;Node24</title>
<path fill="none" stroke="#9a32cd" stroke-dasharray="5,2" d="M798.85,-304.58C928.85,-311.93 1201.26,-321.68 1429,-292.5 1439.31,-291.18 1462.38,-285.37 1482.32,-280.05"/>
<polygon fill="#9a32cd" stroke="#9a32cd" points="798.79,-301.07 788.6,-303.99 798.38,-308.06 798.79,-301.07"/>
<text text-anchor="middle" x="1023.5" y="-315.5" font-family="Helvetica,sans-Serif" font-size="10.00"> m_Progress</text>
</g>
<!-- Node29 -->
<g id="node29" class="node">
<title>Node29</title>
<g id="a_node29"><a xlink:title=" ">
<polygon fill="white" stroke="#bfbfbf" points="461,-515.5 461,-545.5 630,-545.5 630,-515.5 461,-515.5"/>
<text text-anchor="start" x="469" y="-533.5" font-family="Helvetica,sans-Serif" font-size="10.00">std::vector&lt; DataObjectPointer</text>
<text text-anchor="middle" x="545.5" y="-522.5" font-family="Helvetica,sans-Serif" font-size="10.00">Map::iterator &gt;</text>
</a>
</g>
</g>
<!-- Node29&#45;&gt;Node24 -->
<g id="edge42" class="edge">
<title>Node29&#45;&gt;Node24</title>
<path fill="none" stroke="#9a32cd" stroke-dasharray="5,2" d="M640.31,-521.56C861.86,-500.03 1401.1,-445.06 1429,-417.5 1469.87,-377.13 1409,-332.59 1447,-289.5 1452.08,-283.74 1458.71,-279.64 1465.87,-276.75"/>
<polygon fill="#9a32cd" stroke="#9a32cd" points="639.94,-518.08 630.32,-522.53 640.61,-525.04 639.94,-518.08"/>
<text text-anchor="middle" x="1023.5" y="-500.5" font-family="Helvetica,sans-Serif" font-size="10.00"> m_IndexedOutputs</text>
<text text-anchor="middle" x="1023.5" y="-489.5" font-family="Helvetica,sans-Serif" font-size="10.00">m_IndexedInputs</text>
</g>
<!-- Node30 -->
<g id="node30" class="node">
<title>Node30</title>
<g id="a_node30"><a xlink:title="STL iterator class.">
<polygon fill="white" stroke="#bfbfbf" points="114,-502 114,-521 257,-521 257,-502 114,-502"/>
<text text-anchor="middle" x="185.5" y="-509" font-family="Helvetica,sans-Serif" font-size="10.00">std::map&lt; K, T &gt;::iterator</text>
</a>
</g>
</g>
<!-- Node30&#45;&gt;Node29 -->
<g id="edge43" class="edge">
<title>Node30&#45;&gt;Node29</title>
<path fill="none" stroke="#9a32cd" stroke-dasharray="5,2" d="M267.31,-511.24C317.86,-511.61 384.3,-513.07 443,-517.5 448.85,-517.94 454.87,-518.49 460.93,-519.1"/>
<polygon fill="#9a32cd" stroke="#9a32cd" points="267.11,-507.74 257.09,-511.18 267.07,-514.74 267.11,-507.74"/>
<text text-anchor="middle" x="359" y="-520.5" font-family="Helvetica,sans-Serif" font-size="10.00"> elements</text>
</g>
<!-- Node31&#45;&gt;Node29 -->
<g id="edge44" class="edge">
<title>Node31&#45;&gt;Node29</title>
<path fill="none" stroke="orange" stroke-dasharray="5,2" d="M244.23,-546.44C302.82,-543.33 394.14,-538.48 460.7,-534.95"/>
<polygon fill="orange" stroke="orange" points="243.84,-542.95 234.04,-546.98 244.21,-549.94 243.84,-542.95"/>
<text text-anchor="start" x="296.5" y="-557.5" font-family="Helvetica,sans-Serif" font-size="10.00"> &lt; DataObjectPointerMap</text>
<text text-anchor="middle" x="359" y="-546.5" font-family="Helvetica,sans-Serif" font-size="10.00">::iterator &gt;</text>
</g>
<!-- Node32&#45;&gt;Node24 -->
<g id="edge46" class="edge">
<title>Node32&#45;&gt;Node24</title>
<path fill="none" stroke="#9a32cd" stroke-dasharray="5,2" d="M1262.21,-83.31C1312.98,-97.73 1379.13,-121.77 1429,-158.5 1468.82,-187.83 1500.13,-239.69 1511.93,-260.98"/>
<polygon fill="#9a32cd" stroke="#9a32cd" points="1262.84,-79.85 1252.27,-80.55 1260.97,-86.6 1262.84,-79.85"/>
<text text-anchor="middle" x="1358" y="-172.5" font-family="Helvetica,sans-Serif" font-size="10.00"> m_Outputs</text>
<text text-anchor="middle" x="1358" y="-161.5" font-family="Helvetica,sans-Serif" font-size="10.00">m_Inputs</text>
</g>
<!-- Node33 -->
<g id="node33" class="node">
<title>Node33</title>
<g id="a_node33"><a xlink:href="https://www.itk.org/Doxygen/html/classitk_1_1SmartPointer.html" xlink:title=" ">
<polygon fill="white" stroke="black" points="826.5,-0.5 826.5,-30.5 933.5,-30.5 933.5,-0.5 826.5,-0.5"/>
<text text-anchor="start" x="834.5" y="-18.5" font-family="Helvetica,sans-Serif" font-size="10.00">itk::SmartPointer&lt;</text>
<text text-anchor="middle" x="880" y="-7.5" font-family="Helvetica,sans-Serif" font-size="10.00"> Self &gt;</text>
</a>
</g>
</g>
<!-- Node33&#45;&gt;Node32 -->
<g id="edge47" class="edge">
<title>Node33&#45;&gt;Node32</title>
<path fill="none" stroke="#9a32cd" stroke-dasharray="5,2" d="M944.01,-18.18C983.86,-20.68 1036.29,-25.46 1082,-34.5 1101.7,-38.4 1123.03,-44.6 1141.02,-50.43"/>
<polygon fill="#9a32cd" stroke="#9a32cd" points="944.09,-14.68 933.9,-17.58 943.67,-21.67 944.09,-14.68"/>
<text text-anchor="middle" x="1023.5" y="-37.5" font-family="Helvetica,sans-Serif" font-size="10.00"> elements</text>
</g>
<!-- Node34 -->
<g id="node34" class="node">
<title>Node34</title>
<g id="a_node34"><a xlink:href="https://www.itk.org/Doxygen/html/classitk_1_1SmartPointer.html" xlink:title=" ">
<polygon fill="white" stroke="black" points="492,-0.5 492,-30.5 599,-30.5 599,-0.5 492,-0.5"/>
<text text-anchor="start" x="500" y="-18.5" font-family="Helvetica,sans-Serif" font-size="10.00">itk::SmartPointer&lt;</text>
<text text-anchor="middle" x="545.5" y="-7.5" font-family="Helvetica,sans-Serif" font-size="10.00"> TObjectType &gt;</text>
</a>
</g>
</g>
<!-- Node34&#45;&gt;Node33 -->
<g id="edge48" class="edge">
<title>Node34&#45;&gt;Node33</title>
<path fill="none" stroke="orange" stroke-dasharray="5,2" d="M609.35,-15.5C672.08,-15.5 767.39,-15.5 826.29,-15.5"/>
<polygon fill="orange" stroke="orange" points="609.19,-12 599.19,-15.5 609.19,-19 609.19,-12"/>
<text text-anchor="middle" x="721.5" y="-18.5" font-family="Helvetica,sans-Serif" font-size="10.00"> &lt; Self &gt;</text>
</g>
</g>
</svg>
        <g id="navigator" transform="translate(0 0)" fill="#404254">
                <rect fill="#f2f5e9" fill-opacity="0.5" stroke="#606060" stroke-width=".5" x="0" y="0" width="60" height="60"/>
                <use id="zoomplus" xlink:href="#zoomPlus" x="17" y="9" onmousedown="handleZoom(evt,'in')"/>
                <use id="zoomminus" xlink:href="#zoomMin" x="42" y="9" onmousedown="handleZoom(evt,'out')"/>
                <use id="reset" xlink:href="#resetDef" x="30" y="36" onmousedown="handleReset()"/>
                <g id="arrowUp" xlink:href="#dirArrow" transform="translate(30 24)" onmousedown="handlePan(0,-1)">
                  <use xlink:href="#rim" fill="#404040">
                        <set attributeName="fill" to="#808080" begin="arrowUp.mouseover" end="arrowUp.mouseout"/>
                  </use>
                  <path fill="none" stroke="white" stroke-width="1.5" d="M0,-3.0v7 M-2.5,-0.5L0,-3.0L2.5,-0.5"/>
                </g>
                <g id="arrowRight" xlink:href="#dirArrow" transform="rotate(90) translate(36 -43)" onmousedown="handlePan(1,0)">
                  <use xlink:href="#rim" fill="#404040">
                        <set attributeName="fill" to="#808080" begin="arrowRight.mouseover" end="arrowRight.mouseout"/>
                  </use>
                  <path fill="none" stroke="white" stroke-width="1.5" d="M0,-3.0v7 M-2.5,-0.5L0,-3.0L2.5,-0.5"/>
                </g>
                <g id="arrowDown" xlink:href="#dirArrow" transform="rotate(180) translate(-30 -48)" onmousedown="handlePan(0,1)">
                  <use xlink:href="#rim" fill="#404040">
                        <set attributeName="fill" to="#808080" begin="arrowDown.mouseover" end="arrowDown.mouseout"/>
                  </use>
                  <path fill="none" stroke="white" stroke-width="1.5" d="M0,-3.0v7 M-2.5,-0.5L0,-3.0L2.5,-0.5"/>
                </g>
                <g id="arrowLeft" xlink:href="#dirArrow" transform="rotate(270) translate(-36 17)" onmousedown="handlePan(-1,0)">
                  <use xlink:href="#rim" fill="#404040">
                        <set attributeName="fill" to="#808080" begin="arrowLeft.mouseover" end="arrowLeft.mouseout"/>
                  </use>
                  <path fill="none" stroke="white" stroke-width="1.5" d="M0,-3.0v7 M-2.5,-0.5L0,-3.0L2.5,-0.5"/>
                </g>
        </g>
        <svg viewBox="0 0 15 15" width="100%" height="30px" preserveAspectRatio="xMaxYMin meet">
         <g id="arrow_out" transform="scale(0.3 0.3)">
          <a xlink:href="classitk_1_1simple_1_1ImageReaderBase__coll__graph_org.svg" target="_base">
           <rect id="button" ry="5" rx="5" y="6" x="6" height="38" width="38"
                fill="#f2f5e9" fill-opacity="0.5" stroke="#606060" stroke-width="1.0"/>
           <path id="arrow"
             d="M 11.500037,31.436501 C 11.940474,20.09759 22.043105,11.32322 32.158766,21.979434 L 37.068811,17.246167 C 37.068811,17.246167 37.088388,32 37.088388,32 L 22.160133,31.978069 C 22.160133,31.978069 26.997745,27.140456 26.997745,27.140456 C 18.528582,18.264221 13.291696,25.230495 11.500037,31.436501 z"
             style="fill:#404040;"/>
          </a>
         </g>
        </svg>
</svg>
