<?xml version="1.0" encoding="UTF-8" standalone="no"?>
<!DOCTYPE svg PUBLIC "-//W3C//DTD SVG 1.1//EN"
 "http://www.w3.org/Graphics/SVG/1.1/DTD/svg11.dtd">
<!-- Generated by graphviz version 2.43.0 (0)
 -->
<!-- Title: itk::simple::LabelMapContourOverlayImageFilter Pages: 1 -->
<!--zoomable 373 -->
<svg id="main" version="1.1" xmlns="http://www.w3.org/2000/svg" xmlns:xlink="http://www.w3.org/1999/xlink" xml:space="preserve" onload="init(evt)">
<style type="text/css"><![CDATA[
.edge:hover path { stroke: red; }
.edge:hover polygon { stroke: red; fill: red; }
]]></style>
<script type="text/javascript"><![CDATA[
var edges = document.getElementsByTagName('g');
if (edges && edges.length) {
  for (var i=0;i<edges.length;i++) {
    if (edges[i].id.substr(0,4)=='edge') {
      edges[i].setAttribute('class','edge');
    }
  }
}
]]></script>
        <defs>
                <circle id="rim" cx="0" cy="0" r="7"/>
                <circle id="rim2" cx="0" cy="0" r="3.5"/>
                <g id="zoomPlus">
                        <use xlink:href="#rim" fill="#404040">
                                <set attributeName="fill" to="#808080" begin="zoomplus.mouseover" end="zoomplus.mouseout"/>
                        </use>
                        <path d="M-4,0h8M0,-4v8" fill="none" stroke="white" stroke-width="1.5" pointer-events="none"/>
                </g>
                <g id="zoomMin">
                        <use xlink:href="#rim" fill="#404040">
                                <set attributeName="fill" to="#808080" begin="zoomminus.mouseover" end="zoomminus.mouseout"/>
                        </use>
                        <path d="M-4,0h8" fill="none" stroke="white" stroke-width="1.5" pointer-events="none"/>
                </g>
                <g id="dirArrow">
                        <path fill="none" stroke="white" stroke-width="1.5" d="M0,-3.0v7 M-2.5,-0.5L0,-3.0L2.5,-0.5"/>
                </g>
               <g id="resetDef">
                       <use xlink:href="#rim2" fill="#404040">
                               <set attributeName="fill" to="#808080" begin="reset.mouseover" end="reset.mouseout"/>
                       </use>
               </g>
        </defs>

<script type="text/javascript">
var viewWidth = 2951;
var viewHeight = 373;
var sectionId = 'dynsection-1';
</script>
<script xlink:href="svgpan.js"/>
<svg id="graph" class="graph">
<g id="viewport">
<title>itk::simple::LabelMapContourOverlayImageFilter</title>
<polygon fill="white" stroke="transparent" points="-4,4 -4,-369 2947,-369 2947,4 -4,4"/>
<!-- Node1 -->
<g id="node1" class="node">
<title>Node1</title>
<g id="a_node1"><a xlink:title="Apply a colormap to the contours (outlines) of each object in a label map and superimpose it on top o...">
<polygon fill="#bfbfbf" stroke="black" points="2783,-150 2783,-180 2943,-180 2943,-150 2783,-150"/>
<text text-anchor="start" x="2791" y="-168" font-family="Helvetica,sans-Serif" font-size="10.00">itk::simple::LabelMapContour</text>
<text text-anchor="middle" x="2863" y="-157" font-family="Helvetica,sans-Serif" font-size="10.00">OverlayImageFilter</text>
</a>
</g>
</g>
<!-- Node2 -->
<g id="node2" class="node">
<title>Node2</title>
<g id="a_node2"><a xlink:href="classitk_1_1simple_1_1ImageFilter.html" target="_top" xlink:title="The base interface for SimpleITK filters that take one input image.">
<polygon fill="white" stroke="black" points="2449.5,-225.5 2449.5,-244.5 2579.5,-244.5 2579.5,-225.5 2449.5,-225.5"/>
<text text-anchor="middle" x="2514.5" y="-232.5" font-family="Helvetica,sans-Serif" font-size="10.00">itk::simple::ImageFilter</text>
</a>
</g>
</g>
<!-- Node2&#45;&gt;Node1 -->
<g id="edge1" class="edge">
<title>Node2&#45;&gt;Node1</title>
<path fill="none" stroke="midnightblue" d="M2589.82,-231.35C2639.95,-227.61 2707.24,-220.08 2765,-205 2787.91,-199.02 2812.57,-188.8 2831.29,-180.18"/>
<polygon fill="midnightblue" stroke="midnightblue" points="2589.44,-227.87 2579.71,-232.07 2589.93,-234.85 2589.44,-227.87"/>
</g>
<!-- Node3 -->
<g id="node3" class="node">
<title>Node3</title>
<g id="a_node3"><a xlink:href="classitk_1_1simple_1_1ProcessObject.html" target="_top" xlink:title="Base class for SimpleITK classes based on ProcessObject.">
<polygon fill="white" stroke="black" points="2124.5,-249.5 2124.5,-268.5 2267.5,-268.5 2267.5,-249.5 2124.5,-249.5"/>
<text text-anchor="middle" x="2196" y="-256.5" font-family="Helvetica,sans-Serif" font-size="10.00">itk::simple::ProcessObject</text>
</a>
</g>
</g>
<!-- Node3&#45;&gt;Node2 -->
<g id="edge2" class="edge">
<title>Node3&#45;&gt;Node2</title>
<path fill="none" stroke="midnightblue" d="M2277.73,-252.88C2330.96,-248.84 2399.75,-243.63 2449.27,-239.87"/>
<polygon fill="midnightblue" stroke="midnightblue" points="2277.34,-249.4 2267.63,-253.64 2277.87,-256.38 2277.34,-249.4"/>
</g>
<!-- Node4 -->
<g id="node4" class="node">
<title>Node4</title>
<g id="a_node4"><a xlink:href="classitk_1_1simple_1_1NonCopyable.html" target="_top" xlink:title="An inheritable class to disable copying of a class.">
<polygon fill="white" stroke="black" points="382,-345.5 382,-364.5 522,-364.5 522,-345.5 382,-345.5"/>
<text text-anchor="middle" x="452" y="-352.5" font-family="Helvetica,sans-Serif" font-size="10.00">itk::simple::NonCopyable</text>
</a>
</g>
</g>
<!-- Node4&#45;&gt;Node3 -->
<g id="edge3" class="edge">
<title>Node4&#45;&gt;Node3</title>
<path fill="none" stroke="darkgreen" d="M532.21,-354.64C601.94,-354.35 706.21,-354 797,-354 797,-354 797,-354 1856.5,-354 1981.93,-354 2124.11,-292.78 2175.32,-268.63"/>
<polygon fill="darkgreen" stroke="darkgreen" points="532.17,-351.14 522.18,-354.68 532.2,-358.14 532.17,-351.14"/>
</g>
<!-- Node8 -->
<g id="node8" class="node">
<title>Node8</title>
<g id="a_node8"><a xlink:href="classitk_1_1simple_1_1ObjectOwnedBase.html" target="_top" xlink:title="An abstract base class to connect this object with the lifetime of another.">
<polygon fill="white" stroke="black" points="716,-276.5 716,-295.5 880,-295.5 880,-276.5 716,-276.5"/>
<text text-anchor="middle" x="798" y="-283.5" font-family="Helvetica,sans-Serif" font-size="10.00">itk::simple::ObjectOwnedBase</text>
</a>
</g>
</g>
<!-- Node4&#45;&gt;Node8 -->
<g id="edge8" class="edge">
<title>Node4&#45;&gt;Node8</title>
<path fill="none" stroke="midnightblue" d="M527.09,-343.93C586.97,-334.79 666.32,-322.2 698,-315 721.75,-309.6 748.21,-301.76 767.79,-295.59"/>
<polygon fill="midnightblue" stroke="midnightblue" points="526.27,-340.52 516.91,-345.48 527.32,-347.44 526.27,-340.52"/>
</g>
<!-- Node5 -->
<g id="node5" class="node">
<title>Node5</title>
<g id="a_node5"><a xlink:title=" ">
<polygon fill="white" stroke="#bfbfbf" points="1762,-244 1762,-274 1949,-274 1949,-244 1762,-244"/>
<text text-anchor="start" x="1770" y="-262" font-family="Helvetica,sans-Serif" font-size="10.00">std::list&lt; itk::simple</text>
<text text-anchor="middle" x="1855.5" y="-251" font-family="Helvetica,sans-Serif" font-size="10.00">::ProcessObject::EventCommand &gt;</text>
</a>
</g>
</g>
<!-- Node5&#45;&gt;Node3 -->
<g id="edge4" class="edge">
<title>Node5&#45;&gt;Node3</title>
<path fill="none" stroke="#9a32cd" stroke-dasharray="5,2" d="M1959.61,-259C2012.91,-259 2076.6,-259 2124.28,-259"/>
<polygon fill="#9a32cd" stroke="#9a32cd" points="1959.44,-255.5 1949.44,-259 1959.44,-262.5 1959.44,-255.5"/>
<text text-anchor="middle" x="2032" y="-262" font-family="Helvetica,sans-Serif" font-size="10.00"> m_Commands</text>
</g>
<!-- Node6 -->
<g id="node6" class="node">
<title>Node6</title>
<g id="a_node6"><a xlink:href="structitk_1_1simple_1_1ProcessObject_1_1EventCommand.html" target="_top" xlink:title=" ">
<polygon fill="white" stroke="black" points="1408.5,-253 1408.5,-283 1551.5,-283 1551.5,-253 1408.5,-253"/>
<text text-anchor="start" x="1416.5" y="-271" font-family="Helvetica,sans-Serif" font-size="10.00">itk::simple::ProcessObject</text>
<text text-anchor="middle" x="1480" y="-260" font-family="Helvetica,sans-Serif" font-size="10.00">::EventCommand</text>
</a>
</g>
</g>
<!-- Node6&#45;&gt;Node5 -->
<g id="edge5" class="edge">
<title>Node6&#45;&gt;Node5</title>
<path fill="none" stroke="#9a32cd" stroke-dasharray="5,2" d="M1562.05,-266.05C1620.86,-264.63 1700.51,-262.71 1761.84,-261.23"/>
<polygon fill="#9a32cd" stroke="#9a32cd" points="1561.6,-262.56 1551.69,-266.3 1561.77,-269.55 1561.6,-262.56"/>
<text text-anchor="middle" x="1662" y="-269" font-family="Helvetica,sans-Serif" font-size="10.00"> elements</text>
</g>
<!-- Node7 -->
<g id="node7" class="node">
<title>Node7</title>
<g id="a_node7"><a xlink:href="classitk_1_1simple_1_1Command.html" target="_top" xlink:title="An implementation of the Command design pattern for callback.">
<polygon fill="white" stroke="black" points="1077.5,-259.5 1077.5,-278.5 1202.5,-278.5 1202.5,-259.5 1077.5,-259.5"/>
<text text-anchor="middle" x="1140" y="-266.5" font-family="Helvetica,sans-Serif" font-size="10.00">itk::simple::Command</text>
</a>
</g>
</g>
<!-- Node7&#45;&gt;Node6 -->
<g id="edge6" class="edge">
<title>Node7&#45;&gt;Node6</title>
<path fill="none" stroke="#9a32cd" stroke-dasharray="5,2" d="M1212.74,-268.79C1270.44,-268.62 1351.09,-268.38 1408.47,-268.21"/>
<polygon fill="#9a32cd" stroke="#9a32cd" points="1212.59,-265.29 1202.6,-268.82 1212.61,-272.29 1212.59,-265.29"/>
<text text-anchor="middle" x="1310" y="-272" font-family="Helvetica,sans-Serif" font-size="10.00"> m_Command</text>
</g>
<!-- Node8&#45;&gt;Node7 -->
<g id="edge7" class="edge">
<title>Node8&#45;&gt;Node7</title>
<path fill="none" stroke="midnightblue" d="M890.13,-281.44C949.45,-278.48 1025.23,-274.69 1077.5,-272.08"/>
<polygon fill="midnightblue" stroke="midnightblue" points="889.82,-277.95 880.01,-281.95 890.17,-284.95 889.82,-277.95"/>
</g>
<!-- Node9 -->
<g id="node9" class="node">
<title>Node9</title>
<g id="a_node9"><a xlink:title=" ">
<polygon fill="white" stroke="#bfbfbf" points="387.5,-247.5 387.5,-288.5 516.5,-288.5 516.5,-247.5 387.5,-247.5"/>
<text text-anchor="start" x="395.5" y="-276.5" font-family="Helvetica,sans-Serif" font-size="10.00">std::multimap&lt; itk</text>
<text text-anchor="start" x="395.5" y="-265.5" font-family="Helvetica,sans-Serif" font-size="10.00">::Object *, std::function</text>
<text text-anchor="middle" x="452" y="-254.5" font-family="Helvetica,sans-Serif" font-size="10.00">&lt; void()&gt; &gt;</text>
</a>
</g>
</g>
<!-- Node9&#45;&gt;Node8 -->
<g id="edge9" class="edge">
<title>Node9&#45;&gt;Node8</title>
<path fill="none" stroke="#9a32cd" stroke-dasharray="5,2" d="M526.71,-265.69C575.42,-264.88 640.62,-265.16 698,-270 714.22,-271.37 731.8,-273.87 747.58,-276.5"/>
<polygon fill="#9a32cd" stroke="#9a32cd" points="526.51,-262.19 516.58,-265.88 526.64,-269.19 526.51,-262.19"/>
<text text-anchor="middle" x="619" y="-273" font-family="Helvetica,sans-Serif" font-size="10.00"> m_ReferencedObjectsCallbacks</text>
</g>
<!-- Node10 -->
<g id="node10" class="node">
<title>Node10</title>
<g id="a_node10"><a xlink:title="STL class.">
<polygon fill="white" stroke="#bfbfbf" points="114,-258.5 114,-277.5 240,-277.5 240,-258.5 114,-258.5"/>
<text text-anchor="middle" x="177" y="-265.5" font-family="Helvetica,sans-Serif" font-size="10.00">std::multimap&lt; K, T &gt;</text>
</a>
</g>
</g>
<!-- Node10&#45;&gt;Node9 -->
<g id="edge10" class="edge">
<title>Node10&#45;&gt;Node9</title>
<path fill="none" stroke="orange" stroke-dasharray="5,2" d="M250.3,-268C292.82,-268 346.1,-268 387.08,-268"/>
<polygon fill="orange" stroke="orange" points="250.29,-264.5 240.29,-268 250.29,-271.5 250.29,-264.5"/>
<text text-anchor="start" x="258" y="-282" font-family="Helvetica,sans-Serif" font-size="10.00"> &lt; itk::Object *, std</text>
<text text-anchor="middle" x="311" y="-271" font-family="Helvetica,sans-Serif" font-size="10.00">::function&lt; void()&gt; &gt;</text>
</g>
<!-- Node11 -->
<g id="node11" class="node">
<title>Node11</title>
<g id="a_node11"><a xlink:title=" ">
<polygon fill="white" stroke="#bfbfbf" points="0,-277.5 0,-296.5 29,-296.5 29,-277.5 0,-277.5"/>
<text text-anchor="middle" x="14.5" y="-284.5" font-family="Helvetica,sans-Serif" font-size="10.00">K</text>
</a>
</g>
</g>
<!-- Node11&#45;&gt;Node10 -->
<g id="edge11" class="edge">
<title>Node11&#45;&gt;Node10</title>
<path fill="none" stroke="#9a32cd" stroke-dasharray="5,2" d="M39.34,-284.18C58.97,-281.85 87.71,-278.45 113.77,-275.37"/>
<polygon fill="#9a32cd" stroke="#9a32cd" points="38.7,-280.73 29.18,-285.38 39.53,-287.68 38.7,-280.73"/>
<text text-anchor="middle" x="71.5" y="-286" font-family="Helvetica,sans-Serif" font-size="10.00"> keys</text>
</g>
<!-- Node12 -->
<g id="node12" class="node">
<title>Node12</title>
<g id="a_node12"><a xlink:title=" ">
<polygon fill="white" stroke="#bfbfbf" points="0,-190.5 0,-209.5 29,-209.5 29,-190.5 0,-190.5"/>
<text text-anchor="middle" x="14.5" y="-197.5" font-family="Helvetica,sans-Serif" font-size="10.00">T</text>
</a>
</g>
</g>
<!-- Node12&#45;&gt;Node10 -->
<g id="edge12" class="edge">
<title>Node12&#45;&gt;Node10</title>
<path fill="none" stroke="#9a32cd" stroke-dasharray="5,2" d="M30.02,-217.29C34.97,-222.31 40.82,-227.4 47,-231 69.44,-244.1 96.8,-252.8 120.54,-258.46"/>
<polygon fill="#9a32cd" stroke="#9a32cd" points="32.41,-214.72 23.08,-209.7 27.24,-219.44 32.41,-214.72"/>
<text text-anchor="middle" x="71.5" y="-255" font-family="Helvetica,sans-Serif" font-size="10.00"> elements</text>
</g>
<!-- Node15 -->
<g id="node15" class="node">
<title>Node15</title>
<g id="a_node15"><a xlink:title="STL class.">
<polygon fill="white" stroke="#bfbfbf" points="270.5,-209.5 270.5,-228.5 351.5,-228.5 351.5,-209.5 270.5,-209.5"/>
<text text-anchor="middle" x="311" y="-216.5" font-family="Helvetica,sans-Serif" font-size="10.00">std::list&lt; T &gt;</text>
</a>
</g>
</g>
<!-- Node12&#45;&gt;Node15 -->
<g id="edge16" class="edge">
<title>Node12&#45;&gt;Node15</title>
<path fill="none" stroke="#9a32cd" stroke-dasharray="5,2" d="M39.6,-201.56C90.31,-204.83 208.44,-212.45 270.42,-216.45"/>
<polygon fill="#9a32cd" stroke="#9a32cd" points="39.51,-198.04 29.31,-200.89 39.06,-205.03 39.51,-198.04"/>
<text text-anchor="middle" x="71.5" y="-209" font-family="Helvetica,sans-Serif" font-size="10.00"> elements</text>
</g>
<!-- Node22 -->
<g id="node22" class="node">
<title>Node22</title>
<g id="a_node22"><a xlink:title="STL class.">
<polygon fill="white" stroke="#bfbfbf" points="560,-26.5 560,-45.5 678,-45.5 678,-26.5 560,-26.5"/>
<text text-anchor="middle" x="619" y="-33.5" font-family="Helvetica,sans-Serif" font-size="10.00">std::unique_ptr&lt; T &gt;</text>
</a>
</g>
</g>
<!-- Node12&#45;&gt;Node22 -->
<g id="edge25" class="edge">
<title>Node12&#45;&gt;Node22</title>
<path fill="none" stroke="#9a32cd" stroke-dasharray="5,2" d="M28.75,-182.44C33.87,-176.74 40.15,-170.89 47,-167 216.31,-70.72 451.83,-45.18 559.77,-38.42"/>
<polygon fill="#9a32cd" stroke="#9a32cd" points="25.82,-180.49 22.15,-190.43 31.22,-184.95 25.82,-180.49"/>
<text text-anchor="middle" x="177" y="-136" font-family="Helvetica,sans-Serif" font-size="10.00"> ptr</text>
</g>
<!-- Node24 -->
<g id="node24" class="node">
<title>Node24</title>
<g id="a_node24"><a xlink:title="STL class.">
<polygon fill="white" stroke="#bfbfbf" points="2147.5,-171.5 2147.5,-190.5 2244.5,-190.5 2244.5,-171.5 2147.5,-171.5"/>
<text text-anchor="middle" x="2196" y="-178.5" font-family="Helvetica,sans-Serif" font-size="10.00">std::vector&lt; T &gt;</text>
</a>
</g>
</g>
<!-- Node12&#45;&gt;Node24 -->
<g id="edge28" class="edge">
<title>Node12&#45;&gt;Node24</title>
<path fill="none" stroke="#9a32cd" stroke-dasharray="5,2" d="M39.09,-195.44C70.29,-189.82 127.06,-181 176,-181 176,-181 176,-181 1856.5,-181 1960.22,-181 2081.83,-181 2147.35,-181"/>
<polygon fill="#9a32cd" stroke="#9a32cd" points="38.37,-192.02 29.18,-197.28 39.65,-198.9 38.37,-192.02"/>
<text text-anchor="middle" x="969" y="-184" font-family="Helvetica,sans-Serif" font-size="10.00"> elements</text>
</g>
<!-- Node13 -->
<g id="node13" class="node">
<title>Node13</title>
<g id="a_node13"><a xlink:title="STL class.">
<polygon fill="white" stroke="#bfbfbf" points="419.5,-307.5 419.5,-326.5 484.5,-326.5 484.5,-307.5 419.5,-307.5"/>
<text text-anchor="middle" x="452" y="-314.5" font-family="Helvetica,sans-Serif" font-size="10.00">std::string</text>
</a>
</g>
</g>
<!-- Node13&#45;&gt;Node8 -->
<g id="edge13" class="edge">
<title>Node13&#45;&gt;Node8</title>
<path fill="none" stroke="#9a32cd" stroke-dasharray="5,2" d="M494.79,-310.08C509.1,-307.89 525.22,-305.62 540,-304 598.69,-297.57 665.18,-292.99 715.83,-290.05"/>
<polygon fill="#9a32cd" stroke="#9a32cd" points="494.08,-306.65 484.74,-311.65 495.16,-313.56 494.08,-306.65"/>
<text text-anchor="middle" x="619" y="-307" font-family="Helvetica,sans-Serif" font-size="10.00"> m_Name</text>
</g>
<!-- Node14 -->
<g id="node14" class="node">
<title>Node14</title>
<g id="a_node14"><a xlink:title="STL class.">
<polygon fill="white" stroke="#bfbfbf" points="125,-302 125,-332 229,-332 229,-302 125,-302"/>
<text text-anchor="start" x="133" y="-320" font-family="Helvetica,sans-Serif" font-size="10.00">std::basic_string&lt;</text>
<text text-anchor="middle" x="177" y="-309" font-family="Helvetica,sans-Serif" font-size="10.00"> char &gt;</text>
</a>
</g>
</g>
<!-- Node14&#45;&gt;Node13 -->
<g id="edge14" class="edge">
<title>Node14&#45;&gt;Node13</title>
<path fill="none" stroke="midnightblue" d="M239.16,-317C295.05,-317 375.46,-317 419.39,-317"/>
<polygon fill="midnightblue" stroke="midnightblue" points="239.03,-313.5 229.03,-317 239.03,-320.5 239.03,-313.5"/>
</g>
<!-- Node15&#45;&gt;Node5 -->
<g id="edge15" class="edge">
<title>Node15&#45;&gt;Node5</title>
<path fill="none" stroke="orange" stroke-dasharray="5,2" d="M361.65,-219C422.19,-219 527.6,-219 618,-219 618,-219 618,-219 1481,-219 1578.5,-219 1689.5,-232.64 1764.98,-243.99"/>
<polygon fill="orange" stroke="orange" points="361.61,-215.5 351.61,-219 361.61,-222.5 361.61,-215.5"/>
<text text-anchor="start" x="898" y="-233" font-family="Helvetica,sans-Serif" font-size="10.00"> &lt; itk::simple::ProcessObject</text>
<text text-anchor="middle" x="969" y="-222" font-family="Helvetica,sans-Serif" font-size="10.00">::EventCommand &gt;</text>
</g>
<!-- Node16 -->
<g id="node16" class="node">
<title>Node16</title>
<g id="a_node16"><a xlink:title=" ">
<polygon fill="white" stroke="#bfbfbf" points="2399,-59.5 2399,-100.5 2630,-100.5 2630,-59.5 2399,-59.5"/>
<text text-anchor="start" x="2407" y="-88.5" font-family="Helvetica,sans-Serif" font-size="10.00">std::unique_ptr&lt; itk</text>
<text text-anchor="start" x="2407" y="-77.5" font-family="Helvetica,sans-Serif" font-size="10.00">::simple::detail::DualMember</text>
<text text-anchor="middle" x="2514.5" y="-66.5" font-family="Helvetica,sans-Serif" font-size="10.00">FunctionFactory&lt; MemberFunctionType &gt; &gt;</text>
</a>
</g>
</g>
<!-- Node16&#45;&gt;Node1 -->
<g id="edge17" class="edge">
<title>Node16&#45;&gt;Node1</title>
<path fill="none" stroke="#9a32cd" stroke-dasharray="5,2" d="M2640.07,-102.02C2680.22,-110.03 2724.74,-119.89 2765,-131 2784.27,-136.32 2805.24,-143.49 2822.74,-149.88"/>
<polygon fill="#9a32cd" stroke="#9a32cd" points="2640.72,-98.58 2630.23,-100.07 2639.36,-105.44 2640.72,-98.58"/>
<text text-anchor="middle" x="2706.5" y="-134" font-family="Helvetica,sans-Serif" font-size="10.00"> m_DualMemberFactory</text>
</g>
<!-- Node17 -->
<g id="node17" class="node">
<title>Node17</title>
<g id="a_node17"><a xlink:href="classitk_1_1simple_1_1detail_1_1DualMemberFunctionFactory.html" target="_top" xlink:title=" ">
<polygon fill="white" stroke="black" points="2115,-59.5 2115,-100.5 2277,-100.5 2277,-59.5 2115,-59.5"/>
<text text-anchor="start" x="2123" y="-88.5" font-family="Helvetica,sans-Serif" font-size="10.00">itk::simple::detail</text>
<text text-anchor="start" x="2123" y="-77.5" font-family="Helvetica,sans-Serif" font-size="10.00">::DualMemberFunctionFactory</text>
<text text-anchor="middle" x="2196" y="-66.5" font-family="Helvetica,sans-Serif" font-size="10.00">&lt; MemberFunctionType &gt;</text>
</a>
</g>
</g>
<!-- Node17&#45;&gt;Node16 -->
<g id="edge18" class="edge">
<title>Node17&#45;&gt;Node16</title>
<path fill="none" stroke="#9a32cd" stroke-dasharray="5,2" d="M2287.4,-80C2322.13,-80 2362.25,-80 2398.96,-80"/>
<polygon fill="#9a32cd" stroke="#9a32cd" points="2287.28,-76.5 2277.28,-80 2287.28,-83.5 2287.28,-76.5"/>
<text text-anchor="middle" x="2338" y="-83" font-family="Helvetica,sans-Serif" font-size="10.00"> ptr</text>
</g>
<!-- Node18 -->
<g id="node18" class="node">
<title>Node18</title>
<g id="a_node18"><a xlink:href="classitk_1_1simple_1_1detail_1_1MemberFunctionFactoryBase.html" target="_top" xlink:title=" ">
<polygon fill="white" stroke="black" points="1580,-30.5 1580,-93.5 1744,-93.5 1744,-30.5 1580,-30.5"/>
<text text-anchor="start" x="1588" y="-81.5" font-family="Helvetica,sans-Serif" font-size="10.00">itk::simple::detail</text>
<text text-anchor="start" x="1588" y="-70.5" font-family="Helvetica,sans-Serif" font-size="10.00">::MemberFunctionFactoryBase</text>
<text text-anchor="start" x="1588" y="-59.5" font-family="Helvetica,sans-Serif" font-size="10.00">&lt; MemberFunctionType, std</text>
<text text-anchor="start" x="1588" y="-48.5" font-family="Helvetica,sans-Serif" font-size="10.00">::tuple&lt; unsigned int, int,</text>
<text text-anchor="middle" x="1662" y="-37.5" font-family="Helvetica,sans-Serif" font-size="10.00"> unsigned int, int &gt; &gt;</text>
</a>
</g>
</g>
<!-- Node18&#45;&gt;Node17 -->
<g id="edge19" class="edge">
<title>Node18&#45;&gt;Node17</title>
<path fill="none" stroke="darkgreen" d="M1754.32,-65.09C1855.81,-68.52 2018.1,-74.01 2114.84,-77.29"/>
<polygon fill="darkgreen" stroke="darkgreen" points="1754.2,-61.58 1744.09,-64.74 1753.96,-68.58 1754.2,-61.58"/>
</g>
<!-- Node19 -->
<g id="node19" class="node">
<title>Node19</title>
<g id="a_node19"><a xlink:href="classitk_1_1simple_1_1detail_1_1MemberFunctionFactoryBase.html" target="_top" xlink:title="A base class for the MemberFunctionFactory.">
<polygon fill="white" stroke="black" points="1058,-80 1058,-110 1222,-110 1222,-80 1058,-80"/>
<text text-anchor="start" x="1066" y="-98" font-family="Helvetica,sans-Serif" font-size="10.00">itk::simple::detail</text>
<text text-anchor="middle" x="1140" y="-87" font-family="Helvetica,sans-Serif" font-size="10.00">::MemberFunctionFactoryBase</text>
</a>
</g>
</g>
<!-- Node19&#45;&gt;Node18 -->
<g id="edge20" class="edge">
<title>Node19&#45;&gt;Node18</title>
<path fill="none" stroke="orange" stroke-dasharray="5,2" d="M1182.05,-75.9C1199.51,-68.77 1220.35,-61.55 1240,-58 1356.7,-36.9 1494.59,-44.16 1579.92,-52.3"/>
<polygon fill="orange" stroke="orange" points="1180.58,-72.72 1172.72,-79.83 1183.3,-79.17 1180.58,-72.72"/>
<text text-anchor="start" x="1249" y="-94" font-family="Helvetica,sans-Serif" font-size="10.00"> &lt; MemberFunctionType,</text>
<text text-anchor="start" x="1249" y="-83" font-family="Helvetica,sans-Serif" font-size="10.00"> std::tuple&lt; unsigned</text>
<text text-anchor="start" x="1249" y="-72" font-family="Helvetica,sans-Serif" font-size="10.00"> int, int, unsigned int,</text>
<text text-anchor="middle" x="1310" y="-61" font-family="Helvetica,sans-Serif" font-size="10.00"> int &gt; &gt;</text>
</g>
<!-- Node21 -->
<g id="node21" class="node">
<title>Node21</title>
<g id="a_node21"><a xlink:href="classitk_1_1simple_1_1detail_1_1MemberFunctionFactoryBase.html" target="_top" xlink:title=" ">
<polygon fill="white" stroke="black" points="1398,-89.5 1398,-152.5 1562,-152.5 1562,-89.5 1398,-89.5"/>
<text text-anchor="start" x="1406" y="-140.5" font-family="Helvetica,sans-Serif" font-size="10.00">itk::simple::detail</text>
<text text-anchor="start" x="1406" y="-129.5" font-family="Helvetica,sans-Serif" font-size="10.00">::MemberFunctionFactoryBase</text>
<text text-anchor="start" x="1406" y="-118.5" font-family="Helvetica,sans-Serif" font-size="10.00">&lt; TMemberFunctionPointer,</text>
<text text-anchor="start" x="1406" y="-107.5" font-family="Helvetica,sans-Serif" font-size="10.00"> std::tuple&lt; unsigned int,</text>
<text text-anchor="middle" x="1480" y="-96.5" font-family="Helvetica,sans-Serif" font-size="10.00"> int, unsigned int, int &gt; &gt;</text>
</a>
</g>
</g>
<!-- Node19&#45;&gt;Node21 -->
<g id="edge23" class="edge">
<title>Node19&#45;&gt;Node21</title>
<path fill="none" stroke="orange" stroke-dasharray="5,2" d="M1232.22,-105.3C1234.84,-105.54 1237.44,-105.78 1240,-106 1292.5,-110.56 1351.6,-114.28 1397.9,-116.88"/>
<polygon fill="orange" stroke="orange" points="1232.3,-101.79 1222.01,-104.32 1231.63,-108.76 1232.3,-101.79"/>
<text text-anchor="start" x="1240" y="-141" font-family="Helvetica,sans-Serif" font-size="10.00"> &lt; TMemberFunctionPointer,</text>
<text text-anchor="start" x="1240" y="-130" font-family="Helvetica,sans-Serif" font-size="10.00"> std::tuple&lt; unsigned int,</text>
<text text-anchor="middle" x="1310" y="-119" font-family="Helvetica,sans-Serif" font-size="10.00"> int, unsigned int, int &gt; &gt;</text>
</g>
<!-- Node20 -->
<g id="node20" class="node">
<title>Node20</title>
<g id="a_node20"><a xlink:href="classitk_1_1simple_1_1detail_1_1DualMemberFunctionFactory.html" target="_top" xlink:title="A class used to instantiate and generate function objects of templated member functions with two temp...">
<polygon fill="white" stroke="black" points="1774.5,-96.5 1774.5,-137.5 1936.5,-137.5 1936.5,-96.5 1774.5,-96.5"/>
<text text-anchor="start" x="1782.5" y="-125.5" font-family="Helvetica,sans-Serif" font-size="10.00">itk::simple::detail</text>
<text text-anchor="start" x="1782.5" y="-114.5" font-family="Helvetica,sans-Serif" font-size="10.00">::DualMemberFunctionFactory</text>
<text text-anchor="middle" x="1855.5" y="-103.5" font-family="Helvetica,sans-Serif" font-size="10.00">&lt; TMemberFunctionPointer &gt;</text>
</a>
</g>
</g>
<!-- Node20&#45;&gt;Node17 -->
<g id="edge21" class="edge">
<title>Node20&#45;&gt;Node17</title>
<path fill="none" stroke="orange" stroke-dasharray="5,2" d="M1946.66,-107.14C1998.96,-101.43 2064.26,-94.29 2114.77,-88.77"/>
<polygon fill="orange" stroke="orange" points="1946.28,-103.67 1936.72,-108.23 1947.04,-110.62 1946.28,-103.67"/>
<text text-anchor="middle" x="2032" y="-107" font-family="Helvetica,sans-Serif" font-size="10.00"> &lt; MemberFunctionType &gt;</text>
</g>
<!-- Node21&#45;&gt;Node20 -->
<g id="edge22" class="edge">
<title>Node21&#45;&gt;Node20</title>
<path fill="none" stroke="darkgreen" d="M1572.18,-120.02C1633.98,-119.36 1714.9,-118.5 1774.26,-117.86"/>
<polygon fill="darkgreen" stroke="darkgreen" points="1572.01,-116.53 1562.04,-120.13 1572.08,-123.52 1572.01,-116.53"/>
</g>
<!-- Node22&#45;&gt;Node16 -->
<g id="edge24" class="edge">
<title>Node22&#45;&gt;Node16</title>
<path fill="none" stroke="orange" stroke-dasharray="5,2" d="M686.77,-24.96C756.67,-14.38 869.73,0 968,0 968,0 968,0 2197,0 2293.92,0 2402.57,-35.69 2464.05,-59.4"/>
<polygon fill="orange" stroke="orange" points="686.13,-21.52 676.78,-26.49 687.19,-28.44 686.13,-21.52"/>
<text text-anchor="start" x="1407" y="-25" font-family="Helvetica,sans-Serif" font-size="10.00"> &lt; itk::simple::detail</text>
<text text-anchor="start" x="1407" y="-14" font-family="Helvetica,sans-Serif" font-size="10.00">::DualMemberFunctionFactory</text>
<text text-anchor="middle" x="1480" y="-3" font-family="Helvetica,sans-Serif" font-size="10.00">&lt; MemberFunctionType &gt; &gt;</text>
</g>
<!-- Node23 -->
<g id="node23" class="node">
<title>Node23</title>
<g id="a_node23"><a xlink:title=" ">
<polygon fill="white" stroke="#bfbfbf" points="2452,-134.5 2452,-153.5 2577,-153.5 2577,-134.5 2452,-134.5"/>
<text text-anchor="middle" x="2514.5" y="-141.5" font-family="Helvetica,sans-Serif" font-size="10.00">std::vector&lt; uint8_t &gt;</text>
</a>
</g>
</g>
<!-- Node23&#45;&gt;Node1 -->
<g id="edge26" class="edge">
<title>Node23&#45;&gt;Node1</title>
<path fill="none" stroke="#9a32cd" stroke-dasharray="5,2" d="M2587.17,-144.38C2637.1,-145.11 2705.2,-147.05 2765,-152 2770.84,-152.48 2776.87,-153.07 2782.93,-153.73"/>
<polygon fill="#9a32cd" stroke="#9a32cd" points="2587.17,-140.88 2577.12,-144.24 2587.07,-147.88 2587.17,-140.88"/>
<text text-anchor="middle" x="2706.5" y="-155" font-family="Helvetica,sans-Serif" font-size="10.00"> m_Colormap</text>
</g>
<!-- Node24&#45;&gt;Node23 -->
<g id="edge27" class="edge">
<title>Node24&#45;&gt;Node23</title>
<path fill="none" stroke="orange" stroke-dasharray="5,2" d="M2254.77,-173.85C2267.99,-172.23 2281.98,-170.54 2295,-169 2347.89,-162.74 2408.02,-155.88 2451.8,-150.93"/>
<polygon fill="orange" stroke="orange" points="2254.34,-170.38 2244.84,-175.06 2255.19,-177.32 2254.34,-170.38"/>
<text text-anchor="middle" x="2338" y="-172" font-family="Helvetica,sans-Serif" font-size="10.00"> &lt; uint8_t &gt;</text>
</g>
<!-- Node25 -->
<g id="node25" class="node">
<title>Node25</title>
<g id="a_node25"><a xlink:title=" ">
<polygon fill="white" stroke="#bfbfbf" points="2452.5,-173 2452.5,-203 2576.5,-203 2576.5,-173 2452.5,-173"/>
<text text-anchor="start" x="2460.5" y="-191" font-family="Helvetica,sans-Serif" font-size="10.00">std::vector&lt; unsigned</text>
<text text-anchor="middle" x="2514.5" y="-180" font-family="Helvetica,sans-Serif" font-size="10.00"> int &gt;</text>
</a>
</g>
</g>
<!-- Node24&#45;&gt;Node25 -->
<g id="edge30" class="edge">
<title>Node24&#45;&gt;Node25</title>
<path fill="none" stroke="orange" stroke-dasharray="5,2" d="M2254.83,-182.28C2310.78,-183.52 2395.28,-185.39 2452.34,-186.65"/>
<polygon fill="orange" stroke="orange" points="2254.8,-178.78 2244.73,-182.06 2254.65,-185.78 2254.8,-178.78"/>
<text text-anchor="middle" x="2338" y="-188" font-family="Helvetica,sans-Serif" font-size="10.00"> &lt; unsigned int &gt;</text>
</g>
<!-- Node25&#45;&gt;Node1 -->
<g id="edge29" class="edge">
<title>Node25&#45;&gt;Node1</title>
<path fill="none" stroke="#9a32cd" stroke-dasharray="5,2" d="M2586.67,-183.28C2643.75,-179.49 2723.8,-174.17 2782.88,-170.25"/>
<polygon fill="#9a32cd" stroke="#9a32cd" points="2586.4,-179.79 2576.65,-183.94 2586.86,-186.77 2586.4,-179.79"/>
<text text-anchor="middle" x="2706.5" y="-193" font-family="Helvetica,sans-Serif" font-size="10.00"> m_DilationRadius</text>
<text text-anchor="middle" x="2706.5" y="-182" font-family="Helvetica,sans-Serif" font-size="10.00">m_ContourThickness</text>
</g>
</g>
</svg>
        <g id="navigator" transform="translate(0 0)" fill="#404254">
                <rect fill="#f2f5e9" fill-opacity="0.5" stroke="#606060" stroke-width=".5" x="0" y="0" width="60" height="60"/>
                <use id="zoomplus" xlink:href="#zoomPlus" x="17" y="9" onmousedown="handleZoom(evt,'in')"/>
                <use id="zoomminus" xlink:href="#zoomMin" x="42" y="9" onmousedown="handleZoom(evt,'out')"/>
                <use id="reset" xlink:href="#resetDef" x="30" y="36" onmousedown="handleReset()"/>
                <g id="arrowUp" xlink:href="#dirArrow" transform="translate(30 24)" onmousedown="handlePan(0,-1)">
                  <use xlink:href="#rim" fill="#404040">
                        <set attributeName="fill" to="#808080" begin="arrowUp.mouseover" end="arrowUp.mouseout"/>
                  </use>
                  <path fill="none" stroke="white" stroke-width="1.5" d="M0,-3.0v7 M-2.5,-0.5L0,-3.0L2.5,-0.5"/>
                </g>
                <g id="arrowRight" xlink:href="#dirArrow" transform="rotate(90) translate(36 -43)" onmousedown="handlePan(1,0)">
                  <use xlink:href="#rim" fill="#404040">
                        <set attributeName="fill" to="#808080" begin="arrowRight.mouseover" end="arrowRight.mouseout"/>
                  </use>
                  <path fill="none" stroke="white" stroke-width="1.5" d="M0,-3.0v7 M-2.5,-0.5L0,-3.0L2.5,-0.5"/>
                </g>
                <g id="arrowDown" xlink:href="#dirArrow" transform="rotate(180) translate(-30 -48)" onmousedown="handlePan(0,1)">
                  <use xlink:href="#rim" fill="#404040">
                        <set attributeName="fill" to="#808080" begin="arrowDown.mouseover" end="arrowDown.mouseout"/>
                  </use>
                  <path fill="none" stroke="white" stroke-width="1.5" d="M0,-3.0v7 M-2.5,-0.5L0,-3.0L2.5,-0.5"/>
                </g>
                <g id="arrowLeft" xlink:href="#dirArrow" transform="rotate(270) translate(-36 17)" onmousedown="handlePan(-1,0)">
                  <use xlink:href="#rim" fill="#404040">
                        <set attributeName="fill" to="#808080" begin="arrowLeft.mouseover" end="arrowLeft.mouseout"/>
                  </use>
                  <path fill="none" stroke="white" stroke-width="1.5" d="M0,-3.0v7 M-2.5,-0.5L0,-3.0L2.5,-0.5"/>
                </g>
        </g>
        <svg viewBox="0 0 15 15" width="100%" height="30px" preserveAspectRatio="xMaxYMin meet">
         <g id="arrow_out" transform="scale(0.3 0.3)">
          <a xlink:href="classitk_1_1simple_1_1LabelMapContourOverlayImageFilter__coll__graph_org.svg" target="_base">
           <rect id="button" ry="5" rx="5" y="6" x="6" height="38" width="38"
                fill="#f2f5e9" fill-opacity="0.5" stroke="#606060" stroke-width="1.0"/>
           <path id="arrow"
             d="M 11.500037,31.436501 C 11.940474,20.09759 22.043105,11.32322 32.158766,21.979434 L 37.068811,17.246167 C 37.068811,17.246167 37.088388,32 37.088388,32 L 22.160133,31.978069 C 22.160133,31.978069 26.997745,27.140456 26.997745,27.140456 C 18.528582,18.264221 13.291696,25.230495 11.500037,31.436501 z"
             style="fill:#404040;"/>
          </a>
         </g>
        </svg>
</svg>
