<?xml version="1.0" encoding="UTF-8" standalone="no"?>
<!DOCTYPE svg PUBLIC "-//W3C//DTD SVG 1.1//EN"
 "http://www.w3.org/Graphics/SVG/1.1/DTD/svg11.dtd">
<!-- Generated by graphviz version 2.43.0 (0)
 -->
<!-- Title: itk::simple::detail::DualMemberFunctionFactory&lt; TMemberFunctionPointer &gt; Pages: 1 -->
<svg width="1491pt" height="135pt"
 viewBox="0.00 0.00 1491.00 134.50" xmlns="http://www.w3.org/2000/svg" xmlns:xlink="http://www.w3.org/1999/xlink">
<g id="graph0" class="graph" transform="scale(1 1) rotate(0) translate(4 130.5)">
<title>itk::simple::detail::DualMemberFunctionFactory&lt; TMemberFunctionPointer &gt;</title>
<polygon fill="white" stroke="transparent" points="-4,4 -4,-130.5 1487,-130.5 1487,4 -4,4"/>
<!-- Node1 -->
<g id="node1" class="node">
<title>Node1</title>
<g id="a_node1"><a xlink:title="A class used to instantiate and generate function objects of templated member functions with two temp...">
<polygon fill="#bfbfbf" stroke="black" points="1321,-38 1321,-79 1483,-79 1483,-38 1321,-38"/>
<text text-anchor="start" x="1329" y="-67" font-family="Helvetica,sans-Serif" font-size="10.00">itk::simple::detail</text>
<text text-anchor="start" x="1329" y="-56" font-family="Helvetica,sans-Serif" font-size="10.00">::DualMemberFunctionFactory</text>
<text text-anchor="middle" x="1402" y="-45" font-family="Helvetica,sans-Serif" font-size="10.00">&lt; TMemberFunctionPointer &gt;</text>
</a>
</g>
</g>
<!-- Node2 -->
<g id="node2" class="node">
<title>Node2</title>
<g id="a_node2"><a xlink:href="classitk_1_1simple_1_1detail_1_1MemberFunctionFactoryBase.html" target="_top" xlink:title=" ">
<polygon fill="white" stroke="black" points="1120,-27 1120,-90 1284,-90 1284,-27 1120,-27"/>
<text text-anchor="start" x="1128" y="-78" font-family="Helvetica,sans-Serif" font-size="10.00">itk::simple::detail</text>
<text text-anchor="start" x="1128" y="-67" font-family="Helvetica,sans-Serif" font-size="10.00">::MemberFunctionFactoryBase</text>
<text text-anchor="start" x="1128" y="-56" font-family="Helvetica,sans-Serif" font-size="10.00">&lt; TMemberFunctionPointer,</text>
<text text-anchor="start" x="1128" y="-45" font-family="Helvetica,sans-Serif" font-size="10.00"> std::tuple&lt; unsigned int,</text>
<text text-anchor="middle" x="1202" y="-34" font-family="Helvetica,sans-Serif" font-size="10.00"> int, unsigned int, int &gt; &gt;</text>
</a>
</g>
</g>
<!-- Node2&#45;&gt;Node1 -->
<g id="edge1" class="edge">
<title>Node2&#45;&gt;Node1</title>
<path fill="none" stroke="darkgreen" d="M1294.16,-58.5C1303.11,-58.5 1312.15,-58.5 1320.98,-58.5"/>
<polygon fill="darkgreen" stroke="darkgreen" points="1294.11,-55 1284.11,-58.5 1294.11,-62 1294.11,-55"/>
</g>
<!-- Node3 -->
<g id="node3" class="node">
<title>Node3</title>
<g id="a_node3"><a xlink:title=" ">
<polygon fill="white" stroke="#bfbfbf" points="592,-49.5 592,-123.5 762,-123.5 762,-49.5 592,-49.5"/>
<text text-anchor="start" x="600" y="-111.5" font-family="Helvetica,sans-Serif" font-size="10.00">std::unordered_map</text>
<text text-anchor="start" x="600" y="-100.5" font-family="Helvetica,sans-Serif" font-size="10.00">&lt; std::tuple&lt; unsigned</text>
<text text-anchor="start" x="600" y="-89.5" font-family="Helvetica,sans-Serif" font-size="10.00"> int, int, unsigned int,</text>
<text text-anchor="start" x="600" y="-78.5" font-family="Helvetica,sans-Serif" font-size="10.00"> int &gt;, FunctionObjectType,</text>
<text text-anchor="start" x="600" y="-67.5" font-family="Helvetica,sans-Serif" font-size="10.00"> hash&lt; std::tuple&lt; unsigned</text>
<text text-anchor="middle" x="677" y="-56.5" font-family="Helvetica,sans-Serif" font-size="10.00"> int, int, unsigned int, int &gt; &gt; &gt;</text>
</a>
</g>
</g>
<!-- Node3&#45;&gt;Node2 -->
<g id="edge2" class="edge">
<title>Node3&#45;&gt;Node2</title>
<path fill="none" stroke="#9a32cd" stroke-dasharray="5,2" d="M772.3,-87.94C858.38,-88.33 989.04,-86.61 1102,-75.5 1107.81,-74.93 1113.8,-74.22 1119.82,-73.41"/>
<polygon fill="#9a32cd" stroke="#9a32cd" points="772.31,-84.44 762.29,-87.88 772.27,-91.44 772.31,-84.44"/>
<text text-anchor="middle" x="862" y="-90.5" font-family="Helvetica,sans-Serif" font-size="10.00"> m_PFunction</text>
</g>
<!-- Node4 -->
<g id="node4" class="node">
<title>Node4</title>
<g id="a_node4"><a xlink:title="STL class.">
<polygon fill="white" stroke="#bfbfbf" points="114,-43.5 114,-73.5 228,-73.5 228,-43.5 114,-43.5"/>
<text text-anchor="start" x="122" y="-61.5" font-family="Helvetica,sans-Serif" font-size="10.00">std::unordered_map</text>
<text text-anchor="middle" x="171" y="-50.5" font-family="Helvetica,sans-Serif" font-size="10.00">&lt; K, T &gt;</text>
</a>
</g>
</g>
<!-- Node4&#45;&gt;Node3 -->
<g id="edge3" class="edge">
<title>Node4&#45;&gt;Node3</title>
<path fill="none" stroke="orange" stroke-dasharray="5,2" d="M238.52,-62.2C329.36,-67.24 492.24,-76.29 591.58,-81.81"/>
<polygon fill="orange" stroke="orange" points="238.53,-58.69 228.35,-61.63 238.14,-65.68 238.53,-58.69"/>
<text text-anchor="start" x="246" y="-118.5" font-family="Helvetica,sans-Serif" font-size="10.00"> &lt; std::tuple&lt; unsigned</text>
<text text-anchor="start" x="246" y="-107.5" font-family="Helvetica,sans-Serif" font-size="10.00"> int, int, unsigned int,</text>
<text text-anchor="start" x="246" y="-96.5" font-family="Helvetica,sans-Serif" font-size="10.00"> int &gt;, FunctionObjectType,</text>
<text text-anchor="start" x="246" y="-85.5" font-family="Helvetica,sans-Serif" font-size="10.00"> hash&lt; std::tuple&lt; unsigned</text>
<text text-anchor="middle" x="323" y="-74.5" font-family="Helvetica,sans-Serif" font-size="10.00"> int, int, unsigned int, int &gt; &gt; &gt;</text>
</g>
<!-- Node8 -->
<g id="node8" class="node">
<title>Node8</title>
<g id="a_node8"><a xlink:title=" ">
<polygon fill="white" stroke="#bfbfbf" points="418,-13 418,-54 574,-54 574,-13 418,-13"/>
<text text-anchor="start" x="426" y="-42" font-family="Helvetica,sans-Serif" font-size="10.00">std::unordered_map</text>
<text text-anchor="start" x="426" y="-31" font-family="Helvetica,sans-Serif" font-size="10.00">&lt; TKey, FunctionObjectType,</text>
<text text-anchor="middle" x="496" y="-20" font-family="Helvetica,sans-Serif" font-size="10.00"> hash&lt; TKey &gt; &gt;</text>
</a>
</g>
</g>
<!-- Node4&#45;&gt;Node8 -->
<g id="edge8" class="edge">
<title>Node4&#45;&gt;Node8</title>
<path fill="none" stroke="orange" stroke-dasharray="5,2" d="M238.34,-41.66C240.92,-41.23 243.48,-40.84 246,-40.5 303.22,-32.82 368.48,-31.25 417.83,-31.5"/>
<polygon fill="orange" stroke="orange" points="237.53,-38.25 228.33,-43.5 238.8,-45.13 237.53,-38.25"/>
<text text-anchor="start" x="251.5" y="-54.5" font-family="Helvetica,sans-Serif" font-size="10.00"> &lt; TKey, FunctionObjectType,</text>
<text text-anchor="middle" x="323" y="-43.5" font-family="Helvetica,sans-Serif" font-size="10.00"> hash&lt; TKey &gt; &gt;</text>
</g>
<!-- Node5 -->
<g id="node5" class="node">
<title>Node5</title>
<g id="a_node5"><a xlink:title=" ">
<polygon fill="white" stroke="#bfbfbf" points="0,-68 0,-87 29,-87 29,-68 0,-68"/>
<text text-anchor="middle" x="14.5" y="-75" font-family="Helvetica,sans-Serif" font-size="10.00">K</text>
</a>
</g>
</g>
<!-- Node5&#45;&gt;Node4 -->
<g id="edge4" class="edge">
<title>Node5&#45;&gt;Node4</title>
<path fill="none" stroke="#9a32cd" stroke-dasharray="5,2" d="M39.19,-74.59C59,-72.15 88.08,-68.57 113.78,-65.41"/>
<polygon fill="#9a32cd" stroke="#9a32cd" points="38.71,-71.12 29.21,-75.81 39.56,-78.07 38.71,-71.12"/>
<text text-anchor="middle" x="71.5" y="-75.5" font-family="Helvetica,sans-Serif" font-size="10.00"> keys</text>
</g>
<!-- Node6 -->
<g id="node6" class="node">
<title>Node6</title>
<g id="a_node6"><a xlink:title=" ">
<polygon fill="white" stroke="#bfbfbf" points="0,-30 0,-49 29,-49 29,-30 0,-30"/>
<text text-anchor="middle" x="14.5" y="-37" font-family="Helvetica,sans-Serif" font-size="10.00">T</text>
</a>
</g>
</g>
<!-- Node6&#45;&gt;Node4 -->
<g id="edge5" class="edge">
<title>Node6&#45;&gt;Node4</title>
<path fill="none" stroke="#9a32cd" stroke-dasharray="5,2" d="M39.19,-42.41C59,-44.85 88.08,-48.43 113.78,-51.59"/>
<polygon fill="#9a32cd" stroke="#9a32cd" points="39.56,-38.93 29.21,-41.19 38.71,-45.88 39.56,-38.93"/>
<text text-anchor="middle" x="71.5" y="-52.5" font-family="Helvetica,sans-Serif" font-size="10.00"> elements</text>
</g>
<!-- Node7 -->
<g id="node7" class="node">
<title>Node7</title>
<g id="a_node7"><a xlink:href="classitk_1_1simple_1_1detail_1_1MemberFunctionFactoryBase.html" target="_top" xlink:title=" ">
<polygon fill="white" stroke="black" points="780,-0.5 780,-52.5 944,-52.5 944,-0.5 780,-0.5"/>
<text text-anchor="start" x="788" y="-40.5" font-family="Helvetica,sans-Serif" font-size="10.00">itk::simple::detail</text>
<text text-anchor="start" x="788" y="-29.5" font-family="Helvetica,sans-Serif" font-size="10.00">::MemberFunctionFactoryBase</text>
<text text-anchor="start" x="788" y="-18.5" font-family="Helvetica,sans-Serif" font-size="10.00">&lt; TMemberFunctionPointer,</text>
<text text-anchor="middle" x="862" y="-7.5" font-family="Helvetica,sans-Serif" font-size="10.00"> TKey &gt;</text>
</a>
</g>
</g>
<!-- Node7&#45;&gt;Node2 -->
<g id="edge6" class="edge">
<title>Node7&#45;&gt;Node2</title>
<path fill="none" stroke="orange" stroke-dasharray="5,2" d="M954.44,-30.62C999.04,-33.13 1053.41,-36.96 1102,-42.5 1107.79,-43.16 1113.77,-43.92 1119.77,-44.75"/>
<polygon fill="orange" stroke="orange" points="954.38,-27.11 944.2,-30.05 953.99,-34.1 954.38,-27.11"/>
<text text-anchor="start" x="962" y="-67.5" font-family="Helvetica,sans-Serif" font-size="10.00"> &lt; TMemberFunctionPointer,</text>
<text text-anchor="start" x="962" y="-56.5" font-family="Helvetica,sans-Serif" font-size="10.00"> std::tuple&lt; unsigned int,</text>
<text text-anchor="middle" x="1032" y="-45.5" font-family="Helvetica,sans-Serif" font-size="10.00"> int, unsigned int, int &gt; &gt;</text>
</g>
<!-- Node8&#45;&gt;Node7 -->
<g id="edge7" class="edge">
<title>Node8&#45;&gt;Node7</title>
<path fill="none" stroke="#9a32cd" stroke-dasharray="5,2" d="M584.32,-30.69C586.91,-30.62 589.47,-30.56 592,-30.5 655.04,-29.04 726.4,-28 779.77,-27.35"/>
<polygon fill="#9a32cd" stroke="#9a32cd" points="584.15,-27.19 574.25,-30.95 584.34,-34.19 584.15,-27.19"/>
<text text-anchor="middle" x="677" y="-33.5" font-family="Helvetica,sans-Serif" font-size="10.00"> m_PFunction</text>
</g>
</g>
</svg>
