<?xml version="1.0" encoding="UTF-8" standalone="no"?>
<!DOCTYPE svg PUBLIC "-//W3C//DTD SVG 1.1//EN"
 "http://www.w3.org/Graphics/SVG/1.1/DTD/svg11.dtd">
<!-- Generated by graphviz version 2.40.1 (20161225.0304)
 -->
<!-- Title: itk::simple::ObjectOwnedBase Pages: 1 -->
<svg width="320pt" height="196pt"
 viewBox="0.00 0.00 320.00 196.00" xmlns="http://www.w3.org/2000/svg" xmlns:xlink="http://www.w3.org/1999/xlink">
<g id="graph0" class="graph" transform="scale(1 1) rotate(0) translate(4 192)">
<title>itk::simple::ObjectOwnedBase</title>
<polygon fill="#ffffff" stroke="transparent" points="-4,4 -4,-192 316,-192 316,4 -4,4"/>
<!-- Node1 -->
<g id="node1" class="node">
<title>Node1</title>
<g id="a_node1"><a xlink:title="An abstract base class to connect this object with the lifetime of another.">
<polygon fill="#bfbfbf" stroke="#000000" points="82.5,-112.5 82.5,-131.5 246.5,-131.5 246.5,-112.5 82.5,-112.5"/>
<text text-anchor="middle" x="164.5" y="-119.5" font-family="Helvetica,sans-Serif" font-size="10.00" fill="#000000">itk::simple::ObjectOwnedBase</text>
</a>
</g>
</g>
<!-- Node3 -->
<g id="node3" class="node">
<title>Node3</title>
<g id="a_node3"><a xlink:href="classitk_1_1simple_1_1Command.html" target="_top" xlink:title="An implementation of the Command design pattern for callback.">
<polygon fill="#ffffff" stroke="#000000" points="29,-56.5 29,-75.5 154,-75.5 154,-56.5 29,-56.5"/>
<text text-anchor="middle" x="91.5" y="-63.5" font-family="Helvetica,sans-Serif" font-size="10.00" fill="#000000">itk::simple::Command</text>
</a>
</g>
</g>
<!-- Node1&#45;&gt;Node3 -->
<g id="edge2" class="edge">
<title>Node1&#45;&gt;Node3</title>
<path fill="none" stroke="#191970" d="M143.549,-105.928C130.7893,-96.1397 114.9115,-83.9595 104.0699,-75.6427"/>
<polygon fill="#191970" stroke="#191970" points="141.7197,-108.9359 151.7844,-112.2455 145.9804,-103.3819 141.7197,-108.9359"/>
</g>
<!-- Node5 -->
<g id="node5" class="node">
<title>Node5</title>
<g id="a_node5"><a xlink:href="classitk_1_1simple_1_1LoggerBase.html" target="_top" xlink:title="A base class to handle SimpleITK and ITK messages and logging.">
<polygon fill="#ffffff" stroke="#000000" points="177,-56.5 177,-75.5 308,-75.5 308,-56.5 177,-56.5"/>
<text text-anchor="middle" x="242.5" y="-63.5" font-family="Helvetica,sans-Serif" font-size="10.00" fill="#000000">itk::simple::LoggerBase</text>
</a>
</g>
</g>
<!-- Node1&#45;&gt;Node5 -->
<g id="edge4" class="edge">
<title>Node1&#45;&gt;Node5</title>
<path fill="none" stroke="#191970" d="M186.4936,-106.2097C200.1929,-96.3743 217.3736,-84.0394 229.0691,-75.6427"/>
<polygon fill="#191970" stroke="#191970" points="184.1686,-103.5703 178.0866,-112.2455 188.2511,-109.2566 184.1686,-103.5703"/>
</g>
<!-- Node2 -->
<g id="node2" class="node">
<title>Node2</title>
<g id="a_node2"><a xlink:href="classitk_1_1simple_1_1NonCopyable.html" target="_top" xlink:title="An inheritable class to disable copying of a class.">
<polygon fill="#ffffff" stroke="#000000" points="94.5,-168.5 94.5,-187.5 234.5,-187.5 234.5,-168.5 94.5,-168.5"/>
<text text-anchor="middle" x="164.5" y="-175.5" font-family="Helvetica,sans-Serif" font-size="10.00" fill="#000000">itk::simple::NonCopyable</text>
</a>
</g>
</g>
<!-- Node2&#45;&gt;Node1 -->
<g id="edge1" class="edge">
<title>Node2&#45;&gt;Node1</title>
<path fill="none" stroke="#191970" d="M164.5,-158.1575C164.5,-149.155 164.5,-138.9199 164.5,-131.6427"/>
<polygon fill="#191970" stroke="#191970" points="161.0001,-158.2455 164.5,-168.2455 168.0001,-158.2456 161.0001,-158.2455"/>
</g>
<!-- Node4 -->
<g id="node4" class="node">
<title>Node4</title>
<g id="a_node4"><a xlink:href="classitk_1_1simple_1_1FunctionCommand.html" target="_top" xlink:title="A Command class which allows setting an external function, or member function.">
<polygon fill="#ffffff" stroke="#000000" points="0,-.5 0,-19.5 165,-19.5 165,-.5 0,-.5"/>
<text text-anchor="middle" x="82.5" y="-7.5" font-family="Helvetica,sans-Serif" font-size="10.00" fill="#000000">itk::simple::FunctionCommand</text>
</a>
</g>
</g>
<!-- Node3&#45;&gt;Node4 -->
<g id="edge3" class="edge">
<title>Node3&#45;&gt;Node4</title>
<path fill="none" stroke="#191970" d="M88.311,-46.1575C86.8642,-37.155 85.2193,-26.9199 84.0497,-19.6427"/>
<polygon fill="#191970" stroke="#191970" points="84.8898,-46.9276 89.9323,-56.2455 91.8011,-45.8168 84.8898,-46.9276"/>
</g>
<!-- Node6 -->
<g id="node6" class="node">
<title>Node6</title>
<g id="a_node6"><a xlink:href="classitk_1_1simple_1_1SITK__FINAL.html" target="_top" xlink:title=" ">
<polygon fill="#ffffff" stroke="#000000" points="183,-.5 183,-19.5 312,-19.5 312,-.5 183,-.5"/>
<text text-anchor="middle" x="247.5" y="-7.5" font-family="Helvetica,sans-Serif" font-size="10.00" fill="#000000">itk::simple::SITK_FINAL</text>
</a>
</g>
</g>
<!-- Node5&#45;&gt;Node6 -->
<g id="edge5" class="edge">
<title>Node5&#45;&gt;Node6</title>
<path fill="none" stroke="#191970" d="M244.2717,-46.1575C245.0754,-37.155 245.9893,-26.9199 246.639,-19.6427"/>
<polygon fill="#191970" stroke="#191970" points="240.7742,-45.9739 243.3709,-56.2455 247.7465,-46.5965 240.7742,-45.9739"/>
</g>
</g>
</svg>
