<?xml version="1.0" encoding="UTF-8" standalone="no"?>
<!DOCTYPE svg PUBLIC "-//W3C//DTD SVG 1.1//EN"
 "http://www.w3.org/Graphics/SVG/1.1/DTD/svg11.dtd">
<!-- Generated by graphviz version 2.43.0 (0)
 -->
<!-- Title: itk::simple::DivideFloorImageFilter Pages: 1 -->
<svg width="2930pt" height="429pt"
 viewBox="0.00 0.00 2930.00 429.00" xmlns="http://www.w3.org/2000/svg" xmlns:xlink="http://www.w3.org/1999/xlink">
<g id="graph0" class="graph" transform="scale(1 1) rotate(0) translate(4 425)">
<title>itk::simple::DivideFloorImageFilter</title>
<polygon fill="white" stroke="transparent" points="-4,4 -4,-425 2926,-425 2926,4 -4,4"/>
<!-- Node1 -->
<g id="node1" class="node">
<title>Node1</title>
<g id="a_node1"><a xlink:title="Implements pixel&#45;wise generic operation of two images, or of an image and a constant.">
<polygon fill="#bfbfbf" stroke="black" points="2791,-224 2791,-254 2922,-254 2922,-224 2791,-224"/>
<text text-anchor="start" x="2799" y="-242" font-family="Helvetica,sans-Serif" font-size="10.00">itk::simple::DivideFloor</text>
<text text-anchor="middle" x="2856.5" y="-231" font-family="Helvetica,sans-Serif" font-size="10.00">ImageFilter</text>
</a>
</g>
</g>
<!-- Node2 -->
<g id="node2" class="node">
<title>Node2</title>
<g id="a_node2"><a xlink:href="classitk_1_1simple_1_1ImageFilter.html" target="_top" xlink:title="The base interface for SimpleITK filters that take one input image.">
<polygon fill="white" stroke="black" points="2492,-147.5 2492,-166.5 2622,-166.5 2622,-147.5 2492,-147.5"/>
<text text-anchor="middle" x="2557" y="-154.5" font-family="Helvetica,sans-Serif" font-size="10.00">itk::simple::ImageFilter</text>
</a>
</g>
</g>
<!-- Node2&#45;&gt;Node1 -->
<g id="edge1" class="edge">
<title>Node2&#45;&gt;Node1</title>
<path fill="none" stroke="midnightblue" d="M2602.49,-169.26C2655.43,-183.85 2743.81,-208.22 2800.86,-223.94"/>
<polygon fill="midnightblue" stroke="midnightblue" points="2603.28,-165.85 2592.71,-166.57 2601.42,-172.6 2603.28,-165.85"/>
</g>
<!-- Node3 -->
<g id="node3" class="node">
<title>Node3</title>
<g id="a_node3"><a xlink:href="classitk_1_1simple_1_1ProcessObject.html" target="_top" xlink:title="Base class for SimpleITK classes based on ProcessObject.">
<polygon fill="white" stroke="black" points="2132,-129.5 2132,-148.5 2275,-148.5 2275,-129.5 2132,-129.5"/>
<text text-anchor="middle" x="2203.5" y="-136.5" font-family="Helvetica,sans-Serif" font-size="10.00">itk::simple::ProcessObject</text>
</a>
</g>
</g>
<!-- Node3&#45;&gt;Node2 -->
<g id="edge2" class="edge">
<title>Node3&#45;&gt;Node2</title>
<path fill="none" stroke="midnightblue" d="M2285.46,-143.15C2348.19,-146.36 2433.9,-150.75 2491.91,-153.72"/>
<polygon fill="midnightblue" stroke="midnightblue" points="2285.37,-139.64 2275.21,-142.62 2285.02,-146.63 2285.37,-139.64"/>
</g>
<!-- Node4 -->
<g id="node4" class="node">
<title>Node4</title>
<g id="a_node4"><a xlink:href="classitk_1_1simple_1_1NonCopyable.html" target="_top" xlink:title="An inheritable class to disable copying of a class.">
<polygon fill="white" stroke="black" points="382,-137.5 382,-156.5 522,-156.5 522,-137.5 382,-137.5"/>
<text text-anchor="middle" x="452" y="-144.5" font-family="Helvetica,sans-Serif" font-size="10.00">itk::simple::NonCopyable</text>
</a>
</g>
</g>
<!-- Node4&#45;&gt;Node3 -->
<g id="edge3" class="edge">
<title>Node4&#45;&gt;Node3</title>
<path fill="none" stroke="darkgreen" d="M532.21,-145.56C601.93,-144.41 706.2,-143 797,-143 797,-143 797,-143 1864.5,-143 1956.93,-143 2063.56,-141.49 2131.94,-140.32"/>
<polygon fill="darkgreen" stroke="darkgreen" points="532.12,-142.06 522.18,-145.72 532.24,-149.06 532.12,-142.06"/>
</g>
<!-- Node8 -->
<g id="node8" class="node">
<title>Node8</title>
<g id="a_node8"><a xlink:href="classitk_1_1simple_1_1ObjectOwnedBase.html" target="_top" xlink:title="An abstract base class to connect this object with the lifetime of another.">
<polygon fill="white" stroke="black" points="716,-82.5 716,-101.5 880,-101.5 880,-82.5 716,-82.5"/>
<text text-anchor="middle" x="798" y="-89.5" font-family="Helvetica,sans-Serif" font-size="10.00">itk::simple::ObjectOwnedBase</text>
</a>
</g>
</g>
<!-- Node4&#45;&gt;Node8 -->
<g id="edge8" class="edge">
<title>Node4&#45;&gt;Node8</title>
<path fill="none" stroke="midnightblue" d="M517.6,-135.74C525.15,-134.46 532.74,-133.19 540,-132 606.06,-121.17 681.8,-109.46 733.85,-101.54"/>
<polygon fill="midnightblue" stroke="midnightblue" points="517.01,-132.29 507.74,-137.42 518.19,-139.19 517.01,-132.29"/>
</g>
<!-- Node5 -->
<g id="node5" class="node">
<title>Node5</title>
<g id="a_node5"><a xlink:title=" ">
<polygon fill="white" stroke="#bfbfbf" points="1770,-77 1770,-107 1957,-107 1957,-77 1770,-77"/>
<text text-anchor="start" x="1778" y="-95" font-family="Helvetica,sans-Serif" font-size="10.00">std::list&lt; itk::simple</text>
<text text-anchor="middle" x="1863.5" y="-84" font-family="Helvetica,sans-Serif" font-size="10.00">::ProcessObject::EventCommand &gt;</text>
</a>
</g>
</g>
<!-- Node5&#45;&gt;Node3 -->
<g id="edge4" class="edge">
<title>Node5&#45;&gt;Node3</title>
<path fill="none" stroke="#9a32cd" stroke-dasharray="5,2" d="M1967.26,-100.05C2011.63,-104.25 2064.04,-110.16 2111,-118 2129.01,-121 2148.77,-125.4 2165.31,-129.39"/>
<polygon fill="#9a32cd" stroke="#9a32cd" points="1967.32,-96.54 1957.04,-99.1 1966.67,-103.51 1967.32,-96.54"/>
<text text-anchor="middle" x="2043" y="-121" font-family="Helvetica,sans-Serif" font-size="10.00"> m_Commands</text>
</g>
<!-- Node6 -->
<g id="node6" class="node">
<title>Node6</title>
<g id="a_node6"><a xlink:href="structitk_1_1simple_1_1ProcessObject_1_1EventCommand.html" target="_top" xlink:title=" ">
<polygon fill="white" stroke="black" points="1412.5,-77 1412.5,-107 1555.5,-107 1555.5,-77 1412.5,-77"/>
<text text-anchor="start" x="1420.5" y="-95" font-family="Helvetica,sans-Serif" font-size="10.00">itk::simple::ProcessObject</text>
<text text-anchor="middle" x="1484" y="-84" font-family="Helvetica,sans-Serif" font-size="10.00">::EventCommand</text>
</a>
</g>
</g>
<!-- Node6&#45;&gt;Node5 -->
<g id="edge5" class="edge">
<title>Node6&#45;&gt;Node5</title>
<path fill="none" stroke="#9a32cd" stroke-dasharray="5,2" d="M1565.72,-92C1625.58,-92 1707.29,-92 1769.81,-92"/>
<polygon fill="#9a32cd" stroke="#9a32cd" points="1565.56,-88.5 1555.56,-92 1565.56,-95.5 1565.56,-88.5"/>
<text text-anchor="middle" x="1670" y="-95" font-family="Helvetica,sans-Serif" font-size="10.00"> elements</text>
</g>
<!-- Node7 -->
<g id="node7" class="node">
<title>Node7</title>
<g id="a_node7"><a xlink:href="classitk_1_1simple_1_1Command.html" target="_top" xlink:title="An implementation of the Command design pattern for callback.">
<polygon fill="white" stroke="black" points="1077.5,-82.5 1077.5,-101.5 1202.5,-101.5 1202.5,-82.5 1077.5,-82.5"/>
<text text-anchor="middle" x="1140" y="-89.5" font-family="Helvetica,sans-Serif" font-size="10.00">itk::simple::Command</text>
</a>
</g>
</g>
<!-- Node7&#45;&gt;Node6 -->
<g id="edge6" class="edge">
<title>Node7&#45;&gt;Node6</title>
<path fill="none" stroke="#9a32cd" stroke-dasharray="5,2" d="M1212.83,-92C1271.46,-92 1353.86,-92 1412.21,-92"/>
<polygon fill="#9a32cd" stroke="#9a32cd" points="1212.54,-88.5 1202.54,-92 1212.54,-95.5 1212.54,-88.5"/>
<text text-anchor="middle" x="1310" y="-95" font-family="Helvetica,sans-Serif" font-size="10.00"> m_Command</text>
</g>
<!-- Node8&#45;&gt;Node7 -->
<g id="edge7" class="edge">
<title>Node8&#45;&gt;Node7</title>
<path fill="none" stroke="midnightblue" d="M890.13,-92C949.45,-92 1025.23,-92 1077.5,-92"/>
<polygon fill="midnightblue" stroke="midnightblue" points="890.01,-88.5 880.01,-92 890.01,-95.5 890.01,-88.5"/>
</g>
<!-- Node9 -->
<g id="node9" class="node">
<title>Node9</title>
<g id="a_node9"><a xlink:title=" ">
<polygon fill="white" stroke="#bfbfbf" points="387.5,-77.5 387.5,-118.5 516.5,-118.5 516.5,-77.5 387.5,-77.5"/>
<text text-anchor="start" x="395.5" y="-106.5" font-family="Helvetica,sans-Serif" font-size="10.00">std::multimap&lt; itk</text>
<text text-anchor="start" x="395.5" y="-95.5" font-family="Helvetica,sans-Serif" font-size="10.00">::Object *, std::function</text>
<text text-anchor="middle" x="452" y="-84.5" font-family="Helvetica,sans-Serif" font-size="10.00">&lt; void()&gt; &gt;</text>
</a>
</g>
</g>
<!-- Node9&#45;&gt;Node8 -->
<g id="edge9" class="edge">
<title>Node9&#45;&gt;Node8</title>
<path fill="none" stroke="#9a32cd" stroke-dasharray="5,2" d="M526.97,-93.48C531.38,-93.29 535.75,-93.13 540,-93 598.87,-91.2 665.36,-90.99 715.96,-91.21"/>
<polygon fill="#9a32cd" stroke="#9a32cd" points="526.48,-90 516.65,-93.95 526.8,-96.99 526.48,-90"/>
<text text-anchor="middle" x="619" y="-96" font-family="Helvetica,sans-Serif" font-size="10.00"> m_ReferencedObjectsCallbacks</text>
</g>
<!-- Node10 -->
<g id="node10" class="node">
<title>Node10</title>
<g id="a_node10"><a xlink:title="STL class.">
<polygon fill="white" stroke="#bfbfbf" points="114,-88.5 114,-107.5 240,-107.5 240,-88.5 114,-88.5"/>
<text text-anchor="middle" x="177" y="-95.5" font-family="Helvetica,sans-Serif" font-size="10.00">std::multimap&lt; K, T &gt;</text>
</a>
</g>
</g>
<!-- Node10&#45;&gt;Node9 -->
<g id="edge10" class="edge">
<title>Node10&#45;&gt;Node9</title>
<path fill="none" stroke="orange" stroke-dasharray="5,2" d="M250.3,-98C292.82,-98 346.1,-98 387.08,-98"/>
<polygon fill="orange" stroke="orange" points="250.29,-94.5 240.29,-98 250.29,-101.5 250.29,-94.5"/>
<text text-anchor="start" x="258" y="-112" font-family="Helvetica,sans-Serif" font-size="10.00"> &lt; itk::Object *, std</text>
<text text-anchor="middle" x="311" y="-101" font-family="Helvetica,sans-Serif" font-size="10.00">::function&lt; void()&gt; &gt;</text>
</g>
<!-- Node11 -->
<g id="node11" class="node">
<title>Node11</title>
<g id="a_node11"><a xlink:title=" ">
<polygon fill="white" stroke="#bfbfbf" points="0,-69.5 0,-88.5 29,-88.5 29,-69.5 0,-69.5"/>
<text text-anchor="middle" x="14.5" y="-76.5" font-family="Helvetica,sans-Serif" font-size="10.00">K</text>
</a>
</g>
</g>
<!-- Node11&#45;&gt;Node10 -->
<g id="edge11" class="edge">
<title>Node11&#45;&gt;Node10</title>
<path fill="none" stroke="#9a32cd" stroke-dasharray="5,2" d="M39.35,-78.89C55.41,-79.06 77.04,-79.77 96,-82 108.66,-83.49 122.31,-85.91 134.68,-88.42"/>
<polygon fill="#9a32cd" stroke="#9a32cd" points="39.24,-75.39 29.23,-78.84 39.21,-82.39 39.24,-75.39"/>
<text text-anchor="middle" x="71.5" y="-85" font-family="Helvetica,sans-Serif" font-size="10.00"> keys</text>
</g>
<!-- Node12 -->
<g id="node12" class="node">
<title>Node12</title>
<g id="a_node12"><a xlink:title=" ">
<polygon fill="white" stroke="#bfbfbf" points="0,-107.5 0,-126.5 29,-126.5 29,-107.5 0,-107.5"/>
<text text-anchor="middle" x="14.5" y="-114.5" font-family="Helvetica,sans-Serif" font-size="10.00">T</text>
</a>
</g>
</g>
<!-- Node12&#45;&gt;Node10 -->
<g id="edge12" class="edge">
<title>Node12&#45;&gt;Node10</title>
<path fill="none" stroke="#9a32cd" stroke-dasharray="5,2" d="M39.34,-114.18C58.97,-111.85 87.71,-108.45 113.77,-105.37"/>
<polygon fill="#9a32cd" stroke="#9a32cd" points="38.7,-110.73 29.18,-115.38 39.53,-117.68 38.7,-110.73"/>
<text text-anchor="middle" x="71.5" y="-115" font-family="Helvetica,sans-Serif" font-size="10.00"> elements</text>
</g>
<!-- Node15 -->
<g id="node15" class="node">
<title>Node15</title>
<g id="a_node15"><a xlink:title="STL class.">
<polygon fill="white" stroke="#bfbfbf" points="270.5,-0.5 270.5,-19.5 351.5,-19.5 351.5,-0.5 270.5,-0.5"/>
<text text-anchor="middle" x="311" y="-7.5" font-family="Helvetica,sans-Serif" font-size="10.00">std::list&lt; T &gt;</text>
</a>
</g>
</g>
<!-- Node12&#45;&gt;Node15 -->
<g id="edge16" class="edge">
<title>Node12&#45;&gt;Node15</title>
<path fill="none" stroke="#9a32cd" stroke-dasharray="5,2" d="M28.25,-99.2C28.51,-98.8 28.76,-98.4 29,-98 37.97,-83.44 34.88,-76.06 47,-64 70.82,-40.31 81.8,-38.58 114,-29 166.59,-13.36 230.28,-9.86 270.48,-9.43"/>
<polygon fill="#9a32cd" stroke="#9a32cd" points="25.34,-97.26 22.62,-107.5 31.13,-101.19 25.34,-97.26"/>
<text text-anchor="middle" x="71.5" y="-67" font-family="Helvetica,sans-Serif" font-size="10.00"> elements</text>
</g>
<!-- Node22 -->
<g id="node22" class="node">
<title>Node22</title>
<g id="a_node22"><a xlink:title="STL class.">
<polygon fill="white" stroke="#bfbfbf" points="2144.5,-387.5 2144.5,-406.5 2262.5,-406.5 2262.5,-387.5 2144.5,-387.5"/>
<text text-anchor="middle" x="2203.5" y="-394.5" font-family="Helvetica,sans-Serif" font-size="10.00">std::unique_ptr&lt; T &gt;</text>
</a>
</g>
</g>
<!-- Node12&#45;&gt;Node22 -->
<g id="edge25" class="edge">
<title>Node12&#45;&gt;Node22</title>
<path fill="none" stroke="#9a32cd" stroke-dasharray="5,2" d="M17.3,-136.59C24.32,-200.21 55.75,-397 176,-397 176,-397 176,-397 1864.5,-397 1962.79,-397 2077.16,-397 2144.49,-397"/>
<polygon fill="#9a32cd" stroke="#9a32cd" points="20.78,-136.23 16.29,-126.64 13.82,-136.94 20.78,-136.23"/>
<text text-anchor="middle" x="969" y="-400" font-family="Helvetica,sans-Serif" font-size="10.00"> ptr</text>
</g>
<!-- Node13 -->
<g id="node13" class="node">
<title>Node13</title>
<g id="a_node13"><a xlink:title="STL class.">
<polygon fill="white" stroke="#bfbfbf" points="419.5,-39.5 419.5,-58.5 484.5,-58.5 484.5,-39.5 419.5,-39.5"/>
<text text-anchor="middle" x="452" y="-46.5" font-family="Helvetica,sans-Serif" font-size="10.00">std::string</text>
</a>
</g>
</g>
<!-- Node13&#45;&gt;Node8 -->
<g id="edge13" class="edge">
<title>Node13&#45;&gt;Node8</title>
<path fill="none" stroke="#9a32cd" stroke-dasharray="5,2" d="M494.96,-52.97C543.81,-57.75 626.89,-66.34 698,-76 712.06,-77.91 727.2,-80.23 741.31,-82.49"/>
<polygon fill="#9a32cd" stroke="#9a32cd" points="495.07,-49.47 484.78,-51.99 494.39,-56.44 495.07,-49.47"/>
<text text-anchor="middle" x="619" y="-79" font-family="Helvetica,sans-Serif" font-size="10.00"> m_Name</text>
</g>
<!-- Node14 -->
<g id="node14" class="node">
<title>Node14</title>
<g id="a_node14"><a xlink:title="STL class.">
<polygon fill="white" stroke="#bfbfbf" points="125,-39 125,-69 229,-69 229,-39 125,-39"/>
<text text-anchor="start" x="133" y="-57" font-family="Helvetica,sans-Serif" font-size="10.00">std::basic_string&lt;</text>
<text text-anchor="middle" x="177" y="-46" font-family="Helvetica,sans-Serif" font-size="10.00"> char &gt;</text>
</a>
</g>
</g>
<!-- Node14&#45;&gt;Node13 -->
<g id="edge14" class="edge">
<title>Node14&#45;&gt;Node13</title>
<path fill="none" stroke="midnightblue" d="M239.16,-52.88C295.05,-51.86 375.46,-50.38 419.39,-49.58"/>
<polygon fill="midnightblue" stroke="midnightblue" points="238.96,-49.38 229.03,-53.07 239.09,-56.38 238.96,-49.38"/>
</g>
<!-- Node15&#45;&gt;Node5 -->
<g id="edge15" class="edge">
<title>Node15&#45;&gt;Node5</title>
<path fill="none" stroke="orange" stroke-dasharray="5,2" d="M361.65,-10.26C422.19,-10.56 527.6,-11 618,-11 618,-11 618,-11 1485,-11 1609.34,-11 1751.69,-53.53 1820.67,-76.95"/>
<polygon fill="orange" stroke="orange" points="361.63,-6.76 351.61,-10.21 361.59,-13.76 361.63,-6.76"/>
<text text-anchor="start" x="898" y="-25" font-family="Helvetica,sans-Serif" font-size="10.00"> &lt; itk::simple::ProcessObject</text>
<text text-anchor="middle" x="969" y="-14" font-family="Helvetica,sans-Serif" font-size="10.00">::EventCommand &gt;</text>
</g>
<!-- Node16 -->
<g id="node16" class="node">
<title>Node16</title>
<g id="a_node16"><a xlink:title=" ">
<polygon fill="white" stroke="#bfbfbf" points="2462,-343.5 2462,-384.5 2652,-384.5 2652,-343.5 2462,-343.5"/>
<text text-anchor="start" x="2470" y="-372.5" font-family="Helvetica,sans-Serif" font-size="10.00">std::unique_ptr&lt; itk</text>
<text text-anchor="start" x="2470" y="-361.5" font-family="Helvetica,sans-Serif" font-size="10.00">::simple::detail::MemberFunction</text>
<text text-anchor="middle" x="2557" y="-350.5" font-family="Helvetica,sans-Serif" font-size="10.00">Factory&lt; MemberFunctionType &gt; &gt;</text>
</a>
</g>
</g>
<!-- Node16&#45;&gt;Node1 -->
<g id="edge17" class="edge">
<title>Node16&#45;&gt;Node1</title>
<path fill="none" stroke="#9a32cd" stroke-dasharray="5,2" d="M2618.01,-339.51C2661.2,-321.8 2720.81,-297.19 2773,-275 2788.96,-268.21 2806.59,-260.54 2821.44,-254.03"/>
<polygon fill="#9a32cd" stroke="#9a32cd" points="2616.43,-336.38 2608.5,-343.41 2619.09,-342.86 2616.43,-336.38"/>
<text text-anchor="middle" x="2723" y="-319" font-family="Helvetica,sans-Serif" font-size="10.00"> m_MemberFactory</text>
</g>
<!-- Node17 -->
<g id="node17" class="node">
<title>Node17</title>
<g id="a_node17"><a xlink:href="classitk_1_1simple_1_1detail_1_1MemberFunctionFactory.html" target="_top" xlink:title=" ">
<polygon fill="white" stroke="black" points="2132,-327.5 2132,-368.5 2275,-368.5 2275,-327.5 2132,-327.5"/>
<text text-anchor="start" x="2140" y="-356.5" font-family="Helvetica,sans-Serif" font-size="10.00">itk::simple::detail</text>
<text text-anchor="start" x="2140" y="-345.5" font-family="Helvetica,sans-Serif" font-size="10.00">::MemberFunctionFactory</text>
<text text-anchor="middle" x="2203.5" y="-334.5" font-family="Helvetica,sans-Serif" font-size="10.00">&lt; MemberFunctionType &gt;</text>
</a>
</g>
</g>
<!-- Node17&#45;&gt;Node16 -->
<g id="edge18" class="edge">
<title>Node17&#45;&gt;Node16</title>
<path fill="none" stroke="#9a32cd" stroke-dasharray="5,2" d="M2285.5,-351.69C2338.05,-354.08 2406.74,-357.21 2461.75,-359.71"/>
<polygon fill="#9a32cd" stroke="#9a32cd" points="2285.36,-348.18 2275.21,-351.22 2285.04,-355.17 2285.36,-348.18"/>
<text text-anchor="middle" x="2368.5" y="-361" font-family="Helvetica,sans-Serif" font-size="10.00"> ptr</text>
</g>
<!-- Node18 -->
<g id="node18" class="node">
<title>Node18</title>
<g id="a_node18"><a xlink:href="classitk_1_1simple_1_1detail_1_1MemberFunctionFactoryBase.html" target="_top" xlink:title=" ">
<polygon fill="white" stroke="black" points="1588,-323 1588,-375 1752,-375 1752,-323 1588,-323"/>
<text text-anchor="start" x="1596" y="-363" font-family="Helvetica,sans-Serif" font-size="10.00">itk::simple::detail</text>
<text text-anchor="start" x="1596" y="-352" font-family="Helvetica,sans-Serif" font-size="10.00">::MemberFunctionFactoryBase</text>
<text text-anchor="start" x="1596" y="-341" font-family="Helvetica,sans-Serif" font-size="10.00">&lt; MemberFunctionType, std</text>
<text text-anchor="middle" x="1670" y="-330" font-family="Helvetica,sans-Serif" font-size="10.00">::pair&lt; unsigned int, int &gt; &gt;</text>
</a>
</g>
</g>
<!-- Node18&#45;&gt;Node17 -->
<g id="edge19" class="edge">
<title>Node18&#45;&gt;Node17</title>
<path fill="none" stroke="darkgreen" d="M1762.25,-348.83C1866.98,-348.63 2036.52,-348.31 2131.75,-348.13"/>
<polygon fill="darkgreen" stroke="darkgreen" points="1762.01,-345.33 1752.01,-348.85 1762.02,-352.33 1762.01,-345.33"/>
</g>
<!-- Node19 -->
<g id="node19" class="node">
<title>Node19</title>
<g id="a_node19"><a xlink:href="classitk_1_1simple_1_1detail_1_1MemberFunctionFactoryBase.html" target="_top" xlink:title="A base class for the MemberFunctionFactory.">
<polygon fill="white" stroke="black" points="1058,-250 1058,-280 1222,-280 1222,-250 1058,-250"/>
<text text-anchor="start" x="1066" y="-268" font-family="Helvetica,sans-Serif" font-size="10.00">itk::simple::detail</text>
<text text-anchor="middle" x="1140" y="-257" font-family="Helvetica,sans-Serif" font-size="10.00">::MemberFunctionFactoryBase</text>
</a>
</g>
</g>
<!-- Node19&#45;&gt;Node18 -->
<g id="edge20" class="edge">
<title>Node19&#45;&gt;Node18</title>
<path fill="none" stroke="orange" stroke-dasharray="5,2" d="M1170.26,-285.77C1189.2,-298.05 1214.93,-312.59 1240,-320 1357.23,-354.64 1500.01,-356.83 1587.69,-353.91"/>
<polygon fill="orange" stroke="orange" points="1172.06,-282.77 1161.8,-280.15 1168.19,-288.6 1172.06,-282.77"/>
<text text-anchor="start" x="1249" y="-370" font-family="Helvetica,sans-Serif" font-size="10.00"> &lt; MemberFunctionType,</text>
<text text-anchor="start" x="1249" y="-359" font-family="Helvetica,sans-Serif" font-size="10.00"> std::pair&lt; unsigned</text>
<text text-anchor="middle" x="1310" y="-348" font-family="Helvetica,sans-Serif" font-size="10.00"> int, int &gt; &gt;</text>
</g>
<!-- Node21 -->
<g id="node21" class="node">
<title>Node21</title>
<g id="a_node21"><a xlink:href="classitk_1_1simple_1_1detail_1_1MemberFunctionFactoryBase.html" target="_top" xlink:title=" ">
<polygon fill="white" stroke="black" points="1398,-267 1398,-319 1570,-319 1570,-267 1398,-267"/>
<text text-anchor="start" x="1406" y="-307" font-family="Helvetica,sans-Serif" font-size="10.00">itk::simple::detail</text>
<text text-anchor="start" x="1406" y="-296" font-family="Helvetica,sans-Serif" font-size="10.00">::MemberFunctionFactoryBase</text>
<text text-anchor="start" x="1406" y="-285" font-family="Helvetica,sans-Serif" font-size="10.00">&lt; TMemberFunctionPointer,</text>
<text text-anchor="middle" x="1484" y="-274" font-family="Helvetica,sans-Serif" font-size="10.00"> std::pair&lt; unsigned int, int &gt; &gt;</text>
</a>
</g>
</g>
<!-- Node19&#45;&gt;Node21 -->
<g id="edge23" class="edge">
<title>Node19&#45;&gt;Node21</title>
<path fill="none" stroke="orange" stroke-dasharray="5,2" d="M1232.16,-272.46C1283.55,-276.67 1347.36,-281.9 1397.76,-286.02"/>
<polygon fill="orange" stroke="orange" points="1232.3,-268.96 1222.05,-271.64 1231.73,-275.94 1232.3,-268.96"/>
<text text-anchor="start" x="1240" y="-308" font-family="Helvetica,sans-Serif" font-size="10.00"> &lt; TMemberFunctionPointer,</text>
<text text-anchor="start" x="1240" y="-297" font-family="Helvetica,sans-Serif" font-size="10.00"> std::pair&lt; unsigned int,</text>
<text text-anchor="middle" x="1310" y="-286" font-family="Helvetica,sans-Serif" font-size="10.00"> int &gt; &gt;</text>
</g>
<!-- Node25 -->
<g id="node25" class="node">
<title>Node25</title>
<g id="a_node25"><a xlink:href="classitk_1_1simple_1_1detail_1_1MemberFunctionFactoryBase.html" target="_top" xlink:title=" ">
<polygon fill="white" stroke="black" points="1588,-217 1588,-269 1752,-269 1752,-217 1588,-217"/>
<text text-anchor="start" x="1596" y="-257" font-family="Helvetica,sans-Serif" font-size="10.00">itk::simple::detail</text>
<text text-anchor="start" x="1596" y="-246" font-family="Helvetica,sans-Serif" font-size="10.00">::MemberFunctionFactoryBase</text>
<text text-anchor="start" x="1596" y="-235" font-family="Helvetica,sans-Serif" font-size="10.00">&lt; MemberFunction2Type, std</text>
<text text-anchor="middle" x="1670" y="-224" font-family="Helvetica,sans-Serif" font-size="10.00">::pair&lt; unsigned int, int &gt; &gt;</text>
</a>
</g>
</g>
<!-- Node19&#45;&gt;Node25 -->
<g id="edge29" class="edge">
<title>Node19&#45;&gt;Node25</title>
<path fill="none" stroke="orange" stroke-dasharray="5,2" d="M1192.49,-246.91C1207.6,-242.42 1224.29,-238.25 1240,-236 1360.19,-218.76 1501.24,-226.31 1587.87,-234.07"/>
<polygon fill="orange" stroke="orange" points="1191.34,-243.6 1182.81,-249.88 1193.4,-250.29 1191.34,-243.6"/>
<text text-anchor="start" x="1246" y="-261" font-family="Helvetica,sans-Serif" font-size="10.00"> &lt; MemberFunction2Type,</text>
<text text-anchor="start" x="1246" y="-250" font-family="Helvetica,sans-Serif" font-size="10.00"> std::pair&lt; unsigned</text>
<text text-anchor="middle" x="1310" y="-239" font-family="Helvetica,sans-Serif" font-size="10.00"> int, int &gt; &gt;</text>
</g>
<!-- Node28 -->
<g id="node28" class="node">
<title>Node28</title>
<g id="a_node28"><a xlink:href="classitk_1_1simple_1_1detail_1_1MemberFunctionFactoryBase.html" target="_top" xlink:title=" ">
<polygon fill="white" stroke="black" points="1588,-159 1588,-211 1752,-211 1752,-159 1588,-159"/>
<text text-anchor="start" x="1596" y="-199" font-family="Helvetica,sans-Serif" font-size="10.00">itk::simple::detail</text>
<text text-anchor="start" x="1596" y="-188" font-family="Helvetica,sans-Serif" font-size="10.00">::MemberFunctionFactoryBase</text>
<text text-anchor="start" x="1596" y="-177" font-family="Helvetica,sans-Serif" font-size="10.00">&lt; MemberFunction1Type, std</text>
<text text-anchor="middle" x="1670" y="-166" font-family="Helvetica,sans-Serif" font-size="10.00">::pair&lt; unsigned int, int &gt; &gt;</text>
</a>
</g>
</g>
<!-- Node19&#45;&gt;Node28 -->
<g id="edge35" class="edge">
<title>Node19&#45;&gt;Node28</title>
<path fill="none" stroke="orange" stroke-dasharray="5,2" d="M1161.49,-242.34C1179.93,-223.76 1208.86,-198.81 1240,-188 1355.57,-147.89 1499.44,-158.02 1587.72,-170.42"/>
<polygon fill="orange" stroke="orange" points="1158.66,-240.23 1154.25,-249.86 1163.71,-245.09 1158.66,-240.23"/>
<text text-anchor="start" x="1246" y="-213" font-family="Helvetica,sans-Serif" font-size="10.00"> &lt; MemberFunction1Type,</text>
<text text-anchor="start" x="1246" y="-202" font-family="Helvetica,sans-Serif" font-size="10.00"> std::pair&lt; unsigned</text>
<text text-anchor="middle" x="1310" y="-191" font-family="Helvetica,sans-Serif" font-size="10.00"> int, int &gt; &gt;</text>
</g>
<!-- Node20 -->
<g id="node20" class="node">
<title>Node20</title>
<g id="a_node20"><a xlink:href="classitk_1_1simple_1_1detail_1_1MemberFunctionFactory.html" target="_top" xlink:title="A class used to instantiate and generate function object to templated member functions.">
<polygon fill="white" stroke="black" points="1783,-272.5 1783,-313.5 1944,-313.5 1944,-272.5 1783,-272.5"/>
<text text-anchor="start" x="1791" y="-301.5" font-family="Helvetica,sans-Serif" font-size="10.00">itk::simple::detail</text>
<text text-anchor="start" x="1791" y="-290.5" font-family="Helvetica,sans-Serif" font-size="10.00">::MemberFunctionFactory</text>
<text text-anchor="middle" x="1863.5" y="-279.5" font-family="Helvetica,sans-Serif" font-size="10.00">&lt; TMemberFunctionPointer &gt;</text>
</a>
</g>
</g>
<!-- Node20&#45;&gt;Node17 -->
<g id="edge21" class="edge">
<title>Node20&#45;&gt;Node17</title>
<path fill="none" stroke="orange" stroke-dasharray="5,2" d="M1954.16,-301.41C2001.11,-306.54 2059.41,-314.04 2111,-324 2117.77,-325.31 2124.79,-326.83 2131.78,-328.47"/>
<polygon fill="orange" stroke="orange" points="1954.33,-297.91 1944.02,-300.32 1953.58,-304.87 1954.33,-297.91"/>
<text text-anchor="middle" x="2043" y="-327" font-family="Helvetica,sans-Serif" font-size="10.00"> &lt; MemberFunctionType &gt;</text>
</g>
<!-- Node24 -->
<g id="node24" class="node">
<title>Node24</title>
<g id="a_node24"><a xlink:href="classitk_1_1simple_1_1detail_1_1MemberFunctionFactory.html" target="_top" xlink:title=" ">
<polygon fill="white" stroke="black" points="2129,-253.5 2129,-294.5 2278,-294.5 2278,-253.5 2129,-253.5"/>
<text text-anchor="start" x="2137" y="-282.5" font-family="Helvetica,sans-Serif" font-size="10.00">itk::simple::detail</text>
<text text-anchor="start" x="2137" y="-271.5" font-family="Helvetica,sans-Serif" font-size="10.00">::MemberFunctionFactory</text>
<text text-anchor="middle" x="2203.5" y="-260.5" font-family="Helvetica,sans-Serif" font-size="10.00">&lt; MemberFunction2Type &gt;</text>
</a>
</g>
</g>
<!-- Node20&#45;&gt;Node24 -->
<g id="edge30" class="edge">
<title>Node20&#45;&gt;Node24</title>
<path fill="none" stroke="orange" stroke-dasharray="5,2" d="M1954.18,-287.96C2008.72,-284.89 2077.51,-281.03 2128.85,-278.14"/>
<polygon fill="orange" stroke="orange" points="1953.96,-284.47 1944.17,-288.52 1954.35,-291.45 1953.96,-284.47"/>
<text text-anchor="middle" x="2043" y="-289" font-family="Helvetica,sans-Serif" font-size="10.00"> &lt; MemberFunction2Type &gt;</text>
</g>
<!-- Node27 -->
<g id="node27" class="node">
<title>Node27</title>
<g id="a_node27"><a xlink:href="classitk_1_1simple_1_1detail_1_1MemberFunctionFactory.html" target="_top" xlink:title=" ">
<polygon fill="white" stroke="black" points="2129,-167.5 2129,-208.5 2278,-208.5 2278,-167.5 2129,-167.5"/>
<text text-anchor="start" x="2137" y="-196.5" font-family="Helvetica,sans-Serif" font-size="10.00">itk::simple::detail</text>
<text text-anchor="start" x="2137" y="-185.5" font-family="Helvetica,sans-Serif" font-size="10.00">::MemberFunctionFactory</text>
<text text-anchor="middle" x="2203.5" y="-174.5" font-family="Helvetica,sans-Serif" font-size="10.00">&lt; MemberFunction1Type &gt;</text>
</a>
</g>
</g>
<!-- Node20&#45;&gt;Node27 -->
<g id="edge36" class="edge">
<title>Node20&#45;&gt;Node27</title>
<path fill="none" stroke="orange" stroke-dasharray="5,2" d="M1940.49,-269.39C1999.34,-251.11 2080.05,-226.04 2136.28,-208.57"/>
<polygon fill="orange" stroke="orange" points="1939.39,-266.07 1930.87,-272.38 1941.46,-272.76 1939.39,-266.07"/>
<text text-anchor="middle" x="2043" y="-259" font-family="Helvetica,sans-Serif" font-size="10.00"> &lt; MemberFunction1Type &gt;</text>
</g>
<!-- Node21&#45;&gt;Node20 -->
<g id="edge22" class="edge">
<title>Node21&#45;&gt;Node20</title>
<path fill="none" stroke="darkgreen" d="M1580.45,-293C1642.96,-293 1723.71,-293 1782.78,-293"/>
<polygon fill="darkgreen" stroke="darkgreen" points="1580.19,-289.5 1570.19,-293 1580.19,-296.5 1580.19,-289.5"/>
</g>
<!-- Node22&#45;&gt;Node16 -->
<g id="edge24" class="edge">
<title>Node22&#45;&gt;Node16</title>
<path fill="none" stroke="orange" stroke-dasharray="5,2" d="M2272.66,-390.6C2326.48,-385.55 2402.16,-378.44 2461.76,-372.85"/>
<polygon fill="orange" stroke="orange" points="2272.17,-387.13 2262.54,-391.55 2272.83,-394.1 2272.17,-387.13"/>
<text text-anchor="start" x="2299" y="-413" font-family="Helvetica,sans-Serif" font-size="10.00"> &lt; itk::simple::detail</text>
<text text-anchor="start" x="2299" y="-402" font-family="Helvetica,sans-Serif" font-size="10.00">::MemberFunctionFactory</text>
<text text-anchor="middle" x="2368.5" y="-391" font-family="Helvetica,sans-Serif" font-size="10.00">&lt; MemberFunctionType &gt; &gt;</text>
</g>
<!-- Node23 -->
<g id="node23" class="node">
<title>Node23</title>
<g id="a_node23"><a xlink:title=" ">
<polygon fill="white" stroke="#bfbfbf" points="2459,-255.5 2459,-296.5 2655,-296.5 2655,-255.5 2459,-255.5"/>
<text text-anchor="start" x="2467" y="-284.5" font-family="Helvetica,sans-Serif" font-size="10.00">std::unique_ptr&lt; itk</text>
<text text-anchor="start" x="2467" y="-273.5" font-family="Helvetica,sans-Serif" font-size="10.00">::simple::detail::MemberFunction</text>
<text text-anchor="middle" x="2557" y="-262.5" font-family="Helvetica,sans-Serif" font-size="10.00">Factory&lt; MemberFunction2Type &gt; &gt;</text>
</a>
</g>
</g>
<!-- Node22&#45;&gt;Node23 -->
<g id="edge31" class="edge">
<title>Node22&#45;&gt;Node23</title>
<path fill="none" stroke="orange" stroke-dasharray="5,2" d="M2271.73,-383.15C2273.96,-381.6 2276.06,-379.89 2278,-378 2298.85,-357.67 2274.12,-334.22 2296,-315 2308.43,-304.08 2390.19,-293.02 2458.76,-285.48"/>
<polygon fill="orange" stroke="orange" points="2269.57,-380.35 2262.61,-388.33 2273.03,-386.43 2269.57,-380.35"/>
<text text-anchor="start" x="2296" y="-340" font-family="Helvetica,sans-Serif" font-size="10.00"> &lt; itk::simple::detail</text>
<text text-anchor="start" x="2296" y="-329" font-family="Helvetica,sans-Serif" font-size="10.00">::MemberFunctionFactory</text>
<text text-anchor="middle" x="2368.5" y="-318" font-family="Helvetica,sans-Serif" font-size="10.00">&lt; MemberFunction2Type &gt; &gt;</text>
</g>
<!-- Node26 -->
<g id="node26" class="node">
<title>Node26</title>
<g id="a_node26"><a xlink:title=" ">
<polygon fill="white" stroke="#bfbfbf" points="2459,-195.5 2459,-236.5 2655,-236.5 2655,-195.5 2459,-195.5"/>
<text text-anchor="start" x="2467" y="-224.5" font-family="Helvetica,sans-Serif" font-size="10.00">std::unique_ptr&lt; itk</text>
<text text-anchor="start" x="2467" y="-213.5" font-family="Helvetica,sans-Serif" font-size="10.00">::simple::detail::MemberFunction</text>
<text text-anchor="middle" x="2557" y="-202.5" font-family="Helvetica,sans-Serif" font-size="10.00">Factory&lt; MemberFunction1Type &gt; &gt;</text>
</a>
</g>
</g>
<!-- Node22&#45;&gt;Node26 -->
<g id="edge37" class="edge">
<title>Node22&#45;&gt;Node26</title>
<path fill="none" stroke="orange" stroke-dasharray="5,2" d="M2271.36,-384.08C2273.76,-382.29 2276,-380.27 2278,-378 2319.77,-330.6 2250.3,-280.62 2296,-237 2318.97,-215.07 2394.81,-210.87 2458.69,-211.55"/>
<polygon fill="orange" stroke="orange" points="2269.36,-381.19 2262.58,-389.33 2272.96,-387.2 2269.36,-381.19"/>
<text text-anchor="start" x="2296" y="-262" font-family="Helvetica,sans-Serif" font-size="10.00"> &lt; itk::simple::detail</text>
<text text-anchor="start" x="2296" y="-251" font-family="Helvetica,sans-Serif" font-size="10.00">::MemberFunctionFactory</text>
<text text-anchor="middle" x="2368.5" y="-240" font-family="Helvetica,sans-Serif" font-size="10.00">&lt; MemberFunction1Type &gt; &gt;</text>
</g>
<!-- Node23&#45;&gt;Node1 -->
<g id="edge26" class="edge">
<title>Node23&#45;&gt;Node1</title>
<path fill="none" stroke="#9a32cd" stroke-dasharray="5,2" d="M2665,-262.69C2707,-257.47 2753.83,-251.64 2790.55,-247.08"/>
<polygon fill="#9a32cd" stroke="#9a32cd" points="2664.49,-259.23 2655,-263.94 2665.36,-266.17 2664.49,-259.23"/>
<text text-anchor="middle" x="2723" y="-263" font-family="Helvetica,sans-Serif" font-size="10.00"> m_MemberFactory2</text>
</g>
<!-- Node24&#45;&gt;Node23 -->
<g id="edge27" class="edge">
<title>Node24&#45;&gt;Node23</title>
<path fill="none" stroke="#9a32cd" stroke-dasharray="5,2" d="M2288.07,-274.26C2333.33,-274.43 2390.23,-274.67 2441,-275 2446.79,-275.04 2452.74,-275.08 2458.75,-275.12"/>
<polygon fill="#9a32cd" stroke="#9a32cd" points="2288.02,-270.76 2278.01,-274.23 2287.99,-277.76 2288.02,-270.76"/>
<text text-anchor="middle" x="2368.5" y="-278" font-family="Helvetica,sans-Serif" font-size="10.00"> ptr</text>
</g>
<!-- Node25&#45;&gt;Node24 -->
<g id="edge28" class="edge">
<title>Node25&#45;&gt;Node24</title>
<path fill="none" stroke="darkgreen" d="M1762.15,-248.32C1865.81,-254.36 2033.05,-264.12 2128.83,-269.7"/>
<polygon fill="darkgreen" stroke="darkgreen" points="1762.2,-244.81 1752.01,-247.73 1761.79,-251.8 1762.2,-244.81"/>
</g>
<!-- Node26&#45;&gt;Node1 -->
<g id="edge32" class="edge">
<title>Node26&#45;&gt;Node1</title>
<path fill="none" stroke="#9a32cd" stroke-dasharray="5,2" d="M2665,-224.27C2707,-227.52 2753.83,-231.14 2790.55,-233.98"/>
<polygon fill="#9a32cd" stroke="#9a32cd" points="2665.24,-220.78 2655,-223.5 2664.7,-227.76 2665.24,-220.78"/>
<text text-anchor="middle" x="2723" y="-235" font-family="Helvetica,sans-Serif" font-size="10.00"> m_MemberFactory1</text>
</g>
<!-- Node27&#45;&gt;Node26 -->
<g id="edge33" class="edge">
<title>Node27&#45;&gt;Node26</title>
<path fill="none" stroke="#9a32cd" stroke-dasharray="5,2" d="M2288.67,-185.14C2291.14,-185.08 2293.59,-185.04 2296,-185 2360.44,-183.94 2377.11,-176.54 2441,-185 2457.6,-187.2 2475.21,-191.11 2491.53,-195.43"/>
<polygon fill="#9a32cd" stroke="#9a32cd" points="2288.32,-181.64 2278.41,-185.37 2288.48,-188.64 2288.32,-181.64"/>
<text text-anchor="middle" x="2368.5" y="-188" font-family="Helvetica,sans-Serif" font-size="10.00"> ptr</text>
</g>
<!-- Node28&#45;&gt;Node27 -->
<g id="edge34" class="edge">
<title>Node28&#45;&gt;Node27</title>
<path fill="none" stroke="darkgreen" d="M1762.15,-185.51C1865.81,-186.1 2033.05,-187.04 2128.83,-187.58"/>
<polygon fill="darkgreen" stroke="darkgreen" points="1762.03,-182.01 1752.01,-185.46 1761.99,-189.01 1762.03,-182.01"/>
</g>
</g>
</svg>
