<?xml version="1.0" encoding="UTF-8" standalone="no"?>
<!DOCTYPE svg PUBLIC "-//W3C//DTD SVG 1.1//EN"
 "http://www.w3.org/Graphics/SVG/1.1/DTD/svg11.dtd">
<!-- Generated by graphviz version 2.43.0 (0)
 -->
<!-- Title: itk::simple::ImageReaderBase Pages: 1 -->
<svg width="635pt" height="631pt"
 viewBox="0.00 0.00 635.00 631.00" xmlns="http://www.w3.org/2000/svg" xmlns:xlink="http://www.w3.org/1999/xlink">
<g id="graph0" class="graph" transform="scale(1 1) rotate(0) translate(4 627)">
<title>itk::simple::ImageReaderBase</title>
<polygon fill="white" stroke="transparent" points="-4,4 -4,-627 631,-627 631,4 -4,4"/>
<!-- Node1 -->
<g id="node1" class="node">
<title>Node1</title>
<g id="a_node1"><a xlink:title="An abstract base class for image readers.">
<polygon fill="#bfbfbf" stroke="black" points="223,-0.5 223,-19.5 387,-19.5 387,-0.5 223,-0.5"/>
<text text-anchor="middle" x="305" y="-7.5" font-family="Helvetica,sans-Serif" font-size="10.00">itk::simple::ImageReaderBase</text>
</a>
</g>
</g>
<!-- Node2 -->
<g id="node2" class="node">
<title>Node2</title>
<g id="a_node2"><a xlink:href="classitk_1_1simple_1_1ProcessObject.html" target="_top" xlink:title="Base class for SimpleITK classes based on ProcessObject.">
<polygon fill="white" stroke="black" points="171.5,-57.5 171.5,-76.5 314.5,-76.5 314.5,-57.5 171.5,-57.5"/>
<text text-anchor="middle" x="243" y="-64.5" font-family="Helvetica,sans-Serif" font-size="10.00">itk::simple::ProcessObject</text>
</a>
</g>
</g>
<!-- Node2&#45;&gt;Node1 -->
<g id="edge1" class="edge">
<title>Node2&#45;&gt;Node1</title>
<path fill="none" stroke="midnightblue" d="M260.24,-50.71C271.5,-40.72 285.81,-28.02 295.18,-19.71"/>
<polygon fill="midnightblue" stroke="midnightblue" points="257.85,-48.15 252.69,-57.41 262.49,-53.39 257.85,-48.15"/>
</g>
<!-- Node3 -->
<g id="node3" class="node">
<title>Node3</title>
<g id="a_node3"><a xlink:href="classitk_1_1simple_1_1NonCopyable.html" target="_top" xlink:title="An inheritable class to disable copying of a class.">
<polygon fill="white" stroke="black" points="0,-436.5 0,-455.5 140,-455.5 140,-436.5 0,-436.5"/>
<text text-anchor="middle" x="70" y="-443.5" font-family="Helvetica,sans-Serif" font-size="10.00">itk::simple::NonCopyable</text>
</a>
</g>
</g>
<!-- Node3&#45;&gt;Node2 -->
<g id="edge2" class="edge">
<title>Node3&#45;&gt;Node2</title>
<path fill="none" stroke="darkgreen" d="M68.43,-425.84C67.31,-410.49 66,-388.37 66,-369 66,-369 66,-369 66,-138.5 66,-90.79 122.2,-74.46 171.26,-69.3"/>
<polygon fill="darkgreen" stroke="darkgreen" points="64.97,-426.42 69.23,-436.12 71.95,-425.88 64.97,-426.42"/>
</g>
<!-- Node7 -->
<g id="node7" class="node">
<title>Node7</title>
<g id="a_node7"><a xlink:href="classitk_1_1simple_1_1ObjectOwnedBase.html" target="_top" xlink:title="An abstract base class to connect this object with the lifetime of another.">
<polygon fill="white" stroke="black" points="95,-358.5 95,-377.5 259,-377.5 259,-358.5 95,-358.5"/>
<text text-anchor="middle" x="177" y="-365.5" font-family="Helvetica,sans-Serif" font-size="10.00">itk::simple::ObjectOwnedBase</text>
</a>
</g>
</g>
<!-- Node3&#45;&gt;Node7 -->
<g id="edge7" class="edge">
<title>Node3&#45;&gt;Node7</title>
<path fill="none" stroke="midnightblue" d="M83.7,-428.6C92.91,-418.31 105.75,-405.27 119,-396 129.74,-388.49 142.9,-382.16 153.97,-377.53"/>
<polygon fill="midnightblue" stroke="midnightblue" points="80.79,-426.62 76.89,-436.47 86.08,-431.2 80.79,-426.62"/>
</g>
<!-- Node4 -->
<g id="node4" class="node">
<title>Node4</title>
<g id="a_node4"><a xlink:title=" ">
<polygon fill="white" stroke="#bfbfbf" points="149.5,-124.5 149.5,-154.5 336.5,-154.5 336.5,-124.5 149.5,-124.5"/>
<text text-anchor="start" x="157.5" y="-142.5" font-family="Helvetica,sans-Serif" font-size="10.00">std::list&lt; itk::simple</text>
<text text-anchor="middle" x="243" y="-131.5" font-family="Helvetica,sans-Serif" font-size="10.00">::ProcessObject::EventCommand &gt;</text>
</a>
</g>
</g>
<!-- Node4&#45;&gt;Node2 -->
<g id="edge3" class="edge">
<title>Node4&#45;&gt;Node2</title>
<path fill="none" stroke="#9a32cd" stroke-dasharray="5,2" d="M243,-114.09C243,-101.21 243,-86.2 243,-76.89"/>
<polygon fill="#9a32cd" stroke="#9a32cd" points="239.5,-114.23 243,-124.23 246.5,-114.23 239.5,-114.23"/>
<text text-anchor="middle" x="280" y="-98" font-family="Helvetica,sans-Serif" font-size="10.00"> m_Commands</text>
</g>
<!-- Node5 -->
<g id="node5" class="node">
<title>Node5</title>
<g id="a_node5"><a xlink:href="structitk_1_1simple_1_1ProcessObject_1_1EventCommand.html" target="_top" xlink:title=" ">
<polygon fill="white" stroke="black" points="135.5,-202.5 135.5,-232.5 278.5,-232.5 278.5,-202.5 135.5,-202.5"/>
<text text-anchor="start" x="143.5" y="-220.5" font-family="Helvetica,sans-Serif" font-size="10.00">itk::simple::ProcessObject</text>
<text text-anchor="middle" x="207" y="-209.5" font-family="Helvetica,sans-Serif" font-size="10.00">::EventCommand</text>
</a>
</g>
</g>
<!-- Node5&#45;&gt;Node4 -->
<g id="edge4" class="edge">
<title>Node5&#45;&gt;Node4</title>
<path fill="none" stroke="#9a32cd" stroke-dasharray="5,2" d="M218.21,-192.83C224.13,-180.35 231.19,-165.44 236.26,-154.73"/>
<polygon fill="#9a32cd" stroke="#9a32cd" points="214.89,-191.67 213.77,-202.2 221.22,-194.67 214.89,-191.67"/>
<text text-anchor="middle" x="252.5" y="-176" font-family="Helvetica,sans-Serif" font-size="10.00"> elements</text>
</g>
<!-- Node6 -->
<g id="node6" class="node">
<title>Node6</title>
<g id="a_node6"><a xlink:href="classitk_1_1simple_1_1Command.html" target="_top" xlink:title="An implementation of the Command design pattern for callback.">
<polygon fill="white" stroke="black" points="134.5,-280.5 134.5,-299.5 259.5,-299.5 259.5,-280.5 134.5,-280.5"/>
<text text-anchor="middle" x="197" y="-287.5" font-family="Helvetica,sans-Serif" font-size="10.00">itk::simple::Command</text>
</a>
</g>
</g>
<!-- Node6&#45;&gt;Node5 -->
<g id="edge5" class="edge">
<title>Node6&#45;&gt;Node5</title>
<path fill="none" stroke="#9a32cd" stroke-dasharray="5,2" d="M199.66,-270.24C201.34,-258.41 203.47,-243.38 205,-232.58"/>
<polygon fill="#9a32cd" stroke="#9a32cd" points="196.17,-269.96 198.23,-280.36 203.1,-270.95 196.17,-269.96"/>
<text text-anchor="middle" x="237.5" y="-254" font-family="Helvetica,sans-Serif" font-size="10.00"> m_Command</text>
</g>
<!-- Node7&#45;&gt;Node6 -->
<g id="edge6" class="edge">
<title>Node7&#45;&gt;Node6</title>
<path fill="none" stroke="midnightblue" d="M181.94,-348.22C186.03,-332.7 191.64,-311.36 194.73,-299.62"/>
<polygon fill="midnightblue" stroke="midnightblue" points="178.45,-347.72 179.29,-358.28 185.22,-349.5 178.45,-347.72"/>
</g>
<!-- Node8 -->
<g id="node8" class="node">
<title>Node8</title>
<g id="a_node8"><a xlink:title=" ">
<polygon fill="white" stroke="#bfbfbf" points="166.5,-425.5 166.5,-466.5 295.5,-466.5 295.5,-425.5 166.5,-425.5"/>
<text text-anchor="start" x="174.5" y="-454.5" font-family="Helvetica,sans-Serif" font-size="10.00">std::multimap&lt; itk</text>
<text text-anchor="start" x="174.5" y="-443.5" font-family="Helvetica,sans-Serif" font-size="10.00">::Object *, std::function</text>
<text text-anchor="middle" x="231" y="-432.5" font-family="Helvetica,sans-Serif" font-size="10.00">&lt; void()&gt; &gt;</text>
</a>
</g>
</g>
<!-- Node8&#45;&gt;Node7 -->
<g id="edge8" class="edge">
<title>Node8&#45;&gt;Node7</title>
<path fill="none" stroke="#9a32cd" stroke-dasharray="5,2" d="M156.82,-425.2C142.02,-419.74 129.59,-413.52 125,-407 116.05,-394.29 132.15,-384.18 148.74,-377.59"/>
<polygon fill="#9a32cd" stroke="#9a32cd" points="155.7,-428.51 166.29,-428.49 158,-421.9 155.7,-428.51"/>
<text text-anchor="middle" x="204" y="-399" font-family="Helvetica,sans-Serif" font-size="10.00"> m_ReferencedObjectsCallbacks</text>
</g>
<!-- Node9 -->
<g id="node9" class="node">
<title>Node9</title>
<g id="a_node9"><a xlink:title="STL class.">
<polygon fill="white" stroke="#bfbfbf" points="171,-531 171,-550 297,-550 297,-531 171,-531"/>
<text text-anchor="middle" x="234" y="-538" font-family="Helvetica,sans-Serif" font-size="10.00">std::multimap&lt; K, T &gt;</text>
</a>
</g>
</g>
<!-- Node9&#45;&gt;Node8 -->
<g id="edge9" class="edge">
<title>Node9&#45;&gt;Node8</title>
<path fill="none" stroke="orange" stroke-dasharray="5,2" d="M233.4,-520.91C232.89,-505.22 232.16,-482.81 231.64,-466.79"/>
<polygon fill="orange" stroke="orange" points="229.9,-521.08 233.72,-530.96 236.9,-520.86 229.9,-521.08"/>
<text text-anchor="start" x="233" y="-499" font-family="Helvetica,sans-Serif" font-size="10.00"> &lt; itk::Object *, std</text>
<text text-anchor="middle" x="286" y="-488" font-family="Helvetica,sans-Serif" font-size="10.00">::function&lt; void()&gt; &gt;</text>
</g>
<!-- Node10 -->
<g id="node10" class="node">
<title>Node10</title>
<g id="a_node10"><a xlink:title=" ">
<polygon fill="white" stroke="#bfbfbf" points="219.5,-603.5 219.5,-622.5 248.5,-622.5 248.5,-603.5 219.5,-603.5"/>
<text text-anchor="middle" x="234" y="-610.5" font-family="Helvetica,sans-Serif" font-size="10.00">K</text>
</a>
</g>
</g>
<!-- Node10&#45;&gt;Node9 -->
<g id="edge10" class="edge">
<title>Node10&#45;&gt;Node9</title>
<path fill="none" stroke="#9a32cd" stroke-dasharray="5,2" d="M234,-592.94C234,-579.03 234,-560.82 234,-550.22"/>
<polygon fill="#9a32cd" stroke="#9a32cd" points="230.5,-593.36 234,-603.36 237.5,-593.36 230.5,-593.36"/>
<text text-anchor="middle" x="247" y="-577" font-family="Helvetica,sans-Serif" font-size="10.00"> keys</text>
</g>
<!-- Node11 -->
<g id="node11" class="node">
<title>Node11</title>
<g id="a_node11"><a xlink:title=" ">
<polygon fill="white" stroke="#bfbfbf" points="379.5,-603.5 379.5,-622.5 408.5,-622.5 408.5,-603.5 379.5,-603.5"/>
<text text-anchor="middle" x="394" y="-610.5" font-family="Helvetica,sans-Serif" font-size="10.00">T</text>
</a>
</g>
</g>
<!-- Node11&#45;&gt;Node9 -->
<g id="edge11" class="edge">
<title>Node11&#45;&gt;Node9</title>
<path fill="none" stroke="#9a32cd" stroke-dasharray="5,2" d="M369.78,-601.33C337.95,-587.3 282.64,-562.93 253.4,-550.05"/>
<polygon fill="#9a32cd" stroke="#9a32cd" points="368.67,-604.66 379.23,-605.49 371.49,-598.26 368.67,-604.66"/>
<text text-anchor="middle" x="353.5" y="-577" font-family="Helvetica,sans-Serif" font-size="10.00"> elements</text>
</g>
<!-- Node14 -->
<g id="node14" class="node">
<title>Node14</title>
<g id="a_node14"><a xlink:title="STL class.">
<polygon fill="white" stroke="#bfbfbf" points="425.5,-486.5 425.5,-505.5 506.5,-505.5 506.5,-486.5 425.5,-486.5"/>
<text text-anchor="middle" x="466" y="-493.5" font-family="Helvetica,sans-Serif" font-size="10.00">std::list&lt; T &gt;</text>
</a>
</g>
</g>
<!-- Node11&#45;&gt;Node14 -->
<g id="edge15" class="edge">
<title>Node11&#45;&gt;Node14</title>
<path fill="none" stroke="#9a32cd" stroke-dasharray="5,2" d="M404.9,-594.59C420.52,-569.64 448.69,-524.65 460.53,-505.74"/>
<polygon fill="#9a32cd" stroke="#9a32cd" points="401.75,-593.02 399.41,-603.36 407.68,-596.74 401.75,-593.02"/>
<text text-anchor="middle" x="440.5" y="-577" font-family="Helvetica,sans-Serif" font-size="10.00"> elements</text>
</g>
<!-- Node12 -->
<g id="node12" class="node">
<title>Node12</title>
<g id="a_node12"><a xlink:title="STL class.">
<polygon fill="white" stroke="#bfbfbf" points="334.5,-436.5 334.5,-455.5 399.5,-455.5 399.5,-436.5 334.5,-436.5"/>
<text text-anchor="middle" x="367" y="-443.5" font-family="Helvetica,sans-Serif" font-size="10.00">std::string</text>
</a>
</g>
</g>
<!-- Node12&#45;&gt;Node1 -->
<g id="edge16" class="edge">
<title>Node12&#45;&gt;Node1</title>
<path fill="none" stroke="#9a32cd" stroke-dasharray="5,2" d="M367.39,-425.83C367.67,-410.46 368,-388.35 368,-369 368,-369 368,-369 368,-66 368,-43.64 345.2,-28.28 327.03,-19.59"/>
<polygon fill="#9a32cd" stroke="#9a32cd" points="363.89,-426.04 367.19,-436.11 370.89,-426.18 363.89,-426.04"/>
<text text-anchor="middle" x="412.5" y="-215" font-family="Helvetica,sans-Serif" font-size="10.00"> m_ImageIOName</text>
</g>
<!-- Node12&#45;&gt;Node7 -->
<g id="edge12" class="edge">
<title>Node12&#45;&gt;Node7</title>
<path fill="none" stroke="#9a32cd" stroke-dasharray="5,2" d="M344.52,-430.93C324.06,-418.31 295.26,-401.02 283,-396 263.58,-388.05 241.18,-381.93 221.98,-377.54"/>
<polygon fill="#9a32cd" stroke="#9a32cd" points="342.89,-434.04 353.24,-436.34 346.58,-428.09 342.89,-434.04"/>
<text text-anchor="middle" x="328" y="-399" font-family="Helvetica,sans-Serif" font-size="10.00"> m_Name</text>
</g>
<!-- Node13 -->
<g id="node13" class="node">
<title>Node13</title>
<g id="a_node13"><a xlink:title="STL class.">
<polygon fill="white" stroke="#bfbfbf" points="315,-525.5 315,-555.5 419,-555.5 419,-525.5 315,-525.5"/>
<text text-anchor="start" x="323" y="-543.5" font-family="Helvetica,sans-Serif" font-size="10.00">std::basic_string&lt;</text>
<text text-anchor="middle" x="367" y="-532.5" font-family="Helvetica,sans-Serif" font-size="10.00"> char &gt;</text>
</a>
</g>
</g>
<!-- Node13&#45;&gt;Node12 -->
<g id="edge13" class="edge">
<title>Node13&#45;&gt;Node12</title>
<path fill="none" stroke="midnightblue" d="M367,-515.38C367,-495.74 367,-469.12 367,-455.62"/>
<polygon fill="midnightblue" stroke="midnightblue" points="363.5,-515.45 367,-525.45 370.5,-515.45 363.5,-515.45"/>
</g>
<!-- Node14&#45;&gt;Node4 -->
<g id="edge14" class="edge">
<title>Node14&#45;&gt;Node4</title>
<path fill="none" stroke="orange" stroke-dasharray="5,2" d="M472.04,-476.71C477.6,-458.21 485,-428.69 485,-402.5 485,-402.5 485,-402.5 485,-216.5 485,-184.02 404.66,-163.74 336.56,-152.38"/>
<polygon fill="orange" stroke="orange" points="468.64,-475.86 468.97,-486.45 475.31,-477.96 468.64,-475.86"/>
<text text-anchor="start" x="485" y="-332" font-family="Helvetica,sans-Serif" font-size="10.00"> &lt; itk::simple::ProcessObject</text>
<text text-anchor="middle" x="556" y="-321" font-family="Helvetica,sans-Serif" font-size="10.00">::EventCommand &gt;</text>
</g>
</g>
</svg>
