<?xml version="1.0" encoding="UTF-8" standalone="no"?>
<!DOCTYPE svg PUBLIC "-//W3C//DTD SVG 1.1//EN"
 "http://www.w3.org/Graphics/SVG/1.1/DTD/svg11.dtd">
<!-- Generated by graphviz version 2.43.0 (0)
 -->
<!-- Title: itk::simple::ElastixImageFilter Pages: 1 -->
<svg width="1967pt" height="398pt"
 viewBox="0.00 0.00 1967.00 398.40" xmlns="http://www.w3.org/2000/svg" xmlns:xlink="http://www.w3.org/1999/xlink">
<g id="graph0" class="graph" transform="scale(1 1) rotate(0) translate(4 394.4)">
<title>itk::simple::ElastixImageFilter</title>
<polygon fill="white" stroke="transparent" points="-4,4 -4,-394.4 1963,-394.4 1963,4 -4,4"/>
<!-- Node1 -->
<g id="node1" class="node">
<title>Node1</title>
<g id="a_node1"><a xlink:title="The class that wraps the elastix registration library.">
<polygon fill="#bfbfbf" stroke="black" points="1821,-149.4 1821,-179.4 1959,-179.4 1959,-149.4 1821,-149.4"/>
<text text-anchor="start" x="1829" y="-167.4" font-family="Helvetica,sans-Serif" font-size="10.00">itk::simple::ElastixImage</text>
<text text-anchor="middle" x="1890" y="-156.4" font-family="Helvetica,sans-Serif" font-size="10.00">Filter</text>
</a>
</g>
</g>
<!-- Node2 -->
<g id="node2" class="node">
<title>Node2</title>
<g id="a_node2"><a xlink:title=" ">
<polygon fill="white" stroke="#bfbfbf" points="1412,-252.9 1412,-293.9 1643,-293.9 1643,-252.9 1412,-252.9"/>
<text text-anchor="start" x="1420" y="-281.9" font-family="Helvetica,sans-Serif" font-size="10.00">std::unique_ptr&lt; itk</text>
<text text-anchor="start" x="1420" y="-270.9" font-family="Helvetica,sans-Serif" font-size="10.00">::simple::detail::DualMember</text>
<text text-anchor="middle" x="1527.5" y="-259.9" font-family="Helvetica,sans-Serif" font-size="10.00">FunctionFactory&lt; MemberFunctionType &gt; &gt;</text>
</a>
</g>
</g>
<!-- Node2&#45;&gt;Node1 -->
<g id="edge1" class="edge">
<title>Node2&#45;&gt;Node1</title>
<path fill="none" stroke="#9a32cd" stroke-dasharray="5,2" d="M1653.5,-272C1701.87,-267.66 1756.64,-257.94 1803,-237.4 1833.08,-224.07 1860.72,-196.79 1876.16,-179.62"/>
<polygon fill="#9a32cd" stroke="#9a32cd" points="1652.96,-268.53 1643.28,-272.84 1653.54,-275.51 1652.96,-268.53"/>
<text text-anchor="middle" x="1732" y="-273.4" font-family="Helvetica,sans-Serif" font-size="10.00"> m_DualMemberFactory</text>
</g>
<!-- Node3 -->
<g id="node3" class="node">
<title>Node3</title>
<g id="a_node3"><a xlink:href="classitk_1_1simple_1_1detail_1_1DualMemberFunctionFactory.html" target="_top" xlink:title=" ">
<polygon fill="white" stroke="black" points="1048,-288.9 1048,-329.9 1210,-329.9 1210,-288.9 1048,-288.9"/>
<text text-anchor="start" x="1056" y="-317.9" font-family="Helvetica,sans-Serif" font-size="10.00">itk::simple::detail</text>
<text text-anchor="start" x="1056" y="-306.9" font-family="Helvetica,sans-Serif" font-size="10.00">::DualMemberFunctionFactory</text>
<text text-anchor="middle" x="1129" y="-295.9" font-family="Helvetica,sans-Serif" font-size="10.00">&lt; MemberFunctionType &gt;</text>
</a>
</g>
</g>
<!-- Node3&#45;&gt;Node2 -->
<g id="edge2" class="edge">
<title>Node3&#45;&gt;Node2</title>
<path fill="none" stroke="#9a32cd" stroke-dasharray="5,2" d="M1220.28,-301.2C1277.08,-296.04 1350.89,-289.34 1411.82,-283.81"/>
<polygon fill="#9a32cd" stroke="#9a32cd" points="1219.88,-297.72 1210.24,-302.11 1220.51,-304.69 1219.88,-297.72"/>
<text text-anchor="middle" x="1311" y="-302.4" font-family="Helvetica,sans-Serif" font-size="10.00"> ptr</text>
</g>
<!-- Node4 -->
<g id="node4" class="node">
<title>Node4</title>
<g id="a_node4"><a xlink:href="classitk_1_1simple_1_1detail_1_1MemberFunctionFactoryBase.html" target="_top" xlink:title=" ">
<polygon fill="white" stroke="black" points="522,-326.9 522,-389.9 686,-389.9 686,-326.9 522,-326.9"/>
<text text-anchor="start" x="530" y="-377.9" font-family="Helvetica,sans-Serif" font-size="10.00">itk::simple::detail</text>
<text text-anchor="start" x="530" y="-366.9" font-family="Helvetica,sans-Serif" font-size="10.00">::MemberFunctionFactoryBase</text>
<text text-anchor="start" x="530" y="-355.9" font-family="Helvetica,sans-Serif" font-size="10.00">&lt; MemberFunctionType, std</text>
<text text-anchor="start" x="530" y="-344.9" font-family="Helvetica,sans-Serif" font-size="10.00">::tuple&lt; unsigned int, int,</text>
<text text-anchor="middle" x="604" y="-333.9" font-family="Helvetica,sans-Serif" font-size="10.00"> unsigned int, int &gt; &gt;</text>
</a>
</g>
</g>
<!-- Node4&#45;&gt;Node3 -->
<g id="edge3" class="edge">
<title>Node4&#45;&gt;Node3</title>
<path fill="none" stroke="darkgreen" d="M696.2,-351.93C782.34,-345.52 915.11,-334.87 1030,-322.4 1035.8,-321.77 1041.79,-321.07 1047.81,-320.35"/>
<polygon fill="darkgreen" stroke="darkgreen" points="695.9,-348.44 686.19,-352.67 696.42,-355.42 695.9,-348.44"/>
</g>
<!-- Node5 -->
<g id="node5" class="node">
<title>Node5</title>
<g id="a_node5"><a xlink:href="classitk_1_1simple_1_1detail_1_1MemberFunctionFactoryBase.html" target="_top" xlink:title="A base class for the MemberFunctionFactory.">
<polygon fill="white" stroke="black" points="0,-316.4 0,-346.4 164,-346.4 164,-316.4 0,-316.4"/>
<text text-anchor="start" x="8" y="-334.4" font-family="Helvetica,sans-Serif" font-size="10.00">itk::simple::detail</text>
<text text-anchor="middle" x="82" y="-323.4" font-family="Helvetica,sans-Serif" font-size="10.00">::MemberFunctionFactoryBase</text>
</a>
</g>
</g>
<!-- Node5&#45;&gt;Node4 -->
<g id="edge4" class="edge">
<title>Node5&#45;&gt;Node4</title>
<path fill="none" stroke="orange" stroke-dasharray="5,2" d="M174.23,-336.96C176.85,-337.11 179.44,-337.25 182,-337.4 300.19,-343.92 437.1,-350.59 521.89,-354.61"/>
<polygon fill="orange" stroke="orange" points="174.22,-333.45 164.04,-336.38 173.82,-340.44 174.22,-333.45"/>
<text text-anchor="start" x="191" y="-380.4" font-family="Helvetica,sans-Serif" font-size="10.00"> &lt; MemberFunctionType,</text>
<text text-anchor="start" x="191" y="-369.4" font-family="Helvetica,sans-Serif" font-size="10.00"> std::tuple&lt; unsigned</text>
<text text-anchor="start" x="191" y="-358.4" font-family="Helvetica,sans-Serif" font-size="10.00"> int, int, unsigned int,</text>
<text text-anchor="middle" x="252" y="-347.4" font-family="Helvetica,sans-Serif" font-size="10.00"> int &gt; &gt;</text>
</g>
<!-- Node7 -->
<g id="node7" class="node">
<title>Node7</title>
<g id="a_node7"><a xlink:href="classitk_1_1simple_1_1detail_1_1MemberFunctionFactoryBase.html" target="_top" xlink:title=" ">
<polygon fill="white" stroke="black" points="340,-267.9 340,-330.9 504,-330.9 504,-267.9 340,-267.9"/>
<text text-anchor="start" x="348" y="-318.9" font-family="Helvetica,sans-Serif" font-size="10.00">itk::simple::detail</text>
<text text-anchor="start" x="348" y="-307.9" font-family="Helvetica,sans-Serif" font-size="10.00">::MemberFunctionFactoryBase</text>
<text text-anchor="start" x="348" y="-296.9" font-family="Helvetica,sans-Serif" font-size="10.00">&lt; TMemberFunctionPointer,</text>
<text text-anchor="start" x="348" y="-285.9" font-family="Helvetica,sans-Serif" font-size="10.00"> std::tuple&lt; unsigned int,</text>
<text text-anchor="middle" x="422" y="-274.9" font-family="Helvetica,sans-Serif" font-size="10.00"> int, unsigned int, int &gt; &gt;</text>
</a>
</g>
</g>
<!-- Node5&#45;&gt;Node7 -->
<g id="edge7" class="edge">
<title>Node5&#45;&gt;Node7</title>
<path fill="none" stroke="orange" stroke-dasharray="5,2" d="M138.79,-313.61C152.76,-309.88 167.81,-306.45 182,-304.4 234.17,-296.85 293.39,-295.56 339.84,-296.18"/>
<polygon fill="orange" stroke="orange" points="137.54,-310.33 128.84,-316.38 139.41,-317.07 137.54,-310.33"/>
<text text-anchor="start" x="182" y="-329.4" font-family="Helvetica,sans-Serif" font-size="10.00"> &lt; TMemberFunctionPointer,</text>
<text text-anchor="start" x="182" y="-318.4" font-family="Helvetica,sans-Serif" font-size="10.00"> std::tuple&lt; unsigned int,</text>
<text text-anchor="middle" x="252" y="-307.4" font-family="Helvetica,sans-Serif" font-size="10.00"> int, unsigned int, int &gt; &gt;</text>
</g>
<!-- Node6 -->
<g id="node6" class="node">
<title>Node6</title>
<g id="a_node6"><a xlink:href="classitk_1_1simple_1_1detail_1_1DualMemberFunctionFactory.html" target="_top" xlink:title="A class used to instantiate and generate function objects of templated member functions with two temp...">
<polygon fill="white" stroke="black" points="704,-284.9 704,-325.9 866,-325.9 866,-284.9 704,-284.9"/>
<text text-anchor="start" x="712" y="-313.9" font-family="Helvetica,sans-Serif" font-size="10.00">itk::simple::detail</text>
<text text-anchor="start" x="712" y="-302.9" font-family="Helvetica,sans-Serif" font-size="10.00">::DualMemberFunctionFactory</text>
<text text-anchor="middle" x="785" y="-291.9" font-family="Helvetica,sans-Serif" font-size="10.00">&lt; TMemberFunctionPointer &gt;</text>
</a>
</g>
</g>
<!-- Node6&#45;&gt;Node3 -->
<g id="edge5" class="edge">
<title>Node6&#45;&gt;Node3</title>
<path fill="none" stroke="orange" stroke-dasharray="5,2" d="M876.3,-306.45C929.54,-307.07 996.33,-307.86 1047.73,-308.46"/>
<polygon fill="orange" stroke="orange" points="876.22,-302.95 866.18,-306.33 876.14,-309.95 876.22,-302.95"/>
<text text-anchor="middle" x="957" y="-310.4" font-family="Helvetica,sans-Serif" font-size="10.00"> &lt; MemberFunctionType &gt;</text>
</g>
<!-- Node7&#45;&gt;Node6 -->
<g id="edge6" class="edge">
<title>Node7&#45;&gt;Node6</title>
<path fill="none" stroke="darkgreen" d="M514.35,-300.91C572.76,-301.88 647.79,-303.13 703.88,-304.06"/>
<polygon fill="darkgreen" stroke="darkgreen" points="514.07,-297.41 504.02,-300.74 513.96,-304.41 514.07,-297.41"/>
</g>
<!-- Node8 -->
<g id="node8" class="node">
<title>Node8</title>
<g id="a_node8"><a xlink:title="STL class.">
<polygon fill="white" stroke="#bfbfbf" points="363,-210.9 363,-229.9 481,-229.9 481,-210.9 363,-210.9"/>
<text text-anchor="middle" x="422" y="-217.9" font-family="Helvetica,sans-Serif" font-size="10.00">std::unique_ptr&lt; T &gt;</text>
</a>
</g>
</g>
<!-- Node8&#45;&gt;Node2 -->
<g id="edge8" class="edge">
<title>Node8&#45;&gt;Node2</title>
<path fill="none" stroke="orange" stroke-dasharray="5,2" d="M475.3,-232.01C490.31,-234.91 506.74,-237.68 522,-239.4 691.18,-258.38 1186.03,-268.17 1411.81,-271.76"/>
<polygon fill="orange" stroke="orange" points="475.66,-228.51 465.17,-229.99 474.3,-235.38 475.66,-228.51"/>
<text text-anchor="start" x="884" y="-288.4" font-family="Helvetica,sans-Serif" font-size="10.00"> &lt; itk::simple::detail</text>
<text text-anchor="start" x="884" y="-277.4" font-family="Helvetica,sans-Serif" font-size="10.00">::DualMemberFunctionFactory</text>
<text text-anchor="middle" x="957" y="-266.4" font-family="Helvetica,sans-Serif" font-size="10.00">&lt; MemberFunctionType &gt; &gt;</text>
</g>
<!-- Node12 -->
<g id="node12" class="node">
<title>Node12</title>
<g id="a_node12"><a xlink:title=" ">
<polygon fill="white" stroke="#bfbfbf" points="704.5,-191.4 704.5,-221.4 865.5,-221.4 865.5,-191.4 704.5,-191.4"/>
<text text-anchor="start" x="712.5" y="-209.4" font-family="Helvetica,sans-Serif" font-size="10.00">std::unique_ptr&lt; itk</text>
<text text-anchor="middle" x="785" y="-198.4" font-family="Helvetica,sans-Serif" font-size="10.00">::simple::PimpleImageBase &gt;</text>
</a>
</g>
</g>
<!-- Node8&#45;&gt;Node12 -->
<g id="edge14" class="edge">
<title>Node8&#45;&gt;Node12</title>
<path fill="none" stroke="orange" stroke-dasharray="5,2" d="M491.23,-217.75C551.83,-215.4 640.43,-211.96 704.28,-209.49"/>
<polygon fill="orange" stroke="orange" points="490.86,-214.26 481,-218.15 491.13,-221.26 490.86,-214.26"/>
<text text-anchor="start" x="535.5" y="-229.4" font-family="Helvetica,sans-Serif" font-size="10.00"> &lt; itk::simple::PimpleImage</text>
<text text-anchor="middle" x="604" y="-218.4" font-family="Helvetica,sans-Serif" font-size="10.00">Base &gt;</text>
</g>
<!-- Node9 -->
<g id="node9" class="node">
<title>Node9</title>
<g id="a_node9"><a xlink:title=" ">
<polygon fill="white" stroke="#bfbfbf" points="67.5,-135.9 67.5,-154.9 96.5,-154.9 96.5,-135.9 67.5,-135.9"/>
<text text-anchor="middle" x="82" y="-142.9" font-family="Helvetica,sans-Serif" font-size="10.00">T</text>
</a>
</g>
</g>
<!-- Node9&#45;&gt;Node8 -->
<g id="edge9" class="edge">
<title>Node9&#45;&gt;Node8</title>
<path fill="none" stroke="#9a32cd" stroke-dasharray="5,2" d="M106.76,-150.67C163.2,-163.19 305.97,-194.87 378.02,-210.86"/>
<polygon fill="#9a32cd" stroke="#9a32cd" points="107.19,-147.18 96.67,-148.43 105.67,-154.01 107.19,-147.18"/>
<text text-anchor="middle" x="252" y="-200.4" font-family="Helvetica,sans-Serif" font-size="10.00"> ptr</text>
</g>
<!-- Node14 -->
<g id="node14" class="node">
<title>Node14</title>
<g id="a_node14"><a xlink:title="STL class.">
<polygon fill="white" stroke="#bfbfbf" points="373.5,-134.9 373.5,-153.9 470.5,-153.9 470.5,-134.9 373.5,-134.9"/>
<text text-anchor="middle" x="422" y="-141.9" font-family="Helvetica,sans-Serif" font-size="10.00">std::vector&lt; T &gt;</text>
</a>
</g>
</g>
<!-- Node9&#45;&gt;Node14 -->
<g id="edge16" class="edge">
<title>Node9&#45;&gt;Node14</title>
<path fill="none" stroke="#9a32cd" stroke-dasharray="5,2" d="M106.88,-145.32C162.22,-145.16 300.08,-144.75 373.4,-144.54"/>
<polygon fill="#9a32cd" stroke="#9a32cd" points="106.66,-141.83 96.67,-145.35 106.68,-148.82 106.66,-141.83"/>
<text text-anchor="middle" x="252" y="-147.4" font-family="Helvetica,sans-Serif" font-size="10.00"> elements</text>
</g>
<!-- Node18 -->
<g id="node18" class="node">
<title>Node18</title>
<g id="a_node18"><a xlink:title="STL class.">
<polygon fill="white" stroke="#bfbfbf" points="371.5,-73.9 371.5,-92.9 472.5,-92.9 472.5,-73.9 371.5,-73.9"/>
<text text-anchor="middle" x="422" y="-80.9" font-family="Helvetica,sans-Serif" font-size="10.00">std::map&lt; K, T &gt;</text>
</a>
</g>
</g>
<!-- Node9&#45;&gt;Node18 -->
<g id="edge23" class="edge">
<title>Node9&#45;&gt;Node18</title>
<path fill="none" stroke="#9a32cd" stroke-dasharray="5,2" d="M106.79,-141.03C161.6,-130.98 297.69,-106.01 371.5,-92.48"/>
<polygon fill="#9a32cd" stroke="#9a32cd" points="105.87,-137.64 96.67,-142.89 107.14,-144.53 105.87,-137.64"/>
<text text-anchor="middle" x="252" y="-129.4" font-family="Helvetica,sans-Serif" font-size="10.00"> elements</text>
</g>
<!-- Node10 -->
<g id="node10" class="node">
<title>Node10</title>
<g id="a_node10"><a xlink:title=" ">
<polygon fill="white" stroke="#bfbfbf" points="1466.5,-154.9 1466.5,-173.9 1588.5,-173.9 1588.5,-154.9 1466.5,-154.9"/>
<text text-anchor="middle" x="1527.5" y="-161.9" font-family="Helvetica,sans-Serif" font-size="10.00">std::vector&lt; Image &gt;</text>
</a>
</g>
</g>
<!-- Node10&#45;&gt;Node1 -->
<g id="edge10" class="edge">
<title>Node10&#45;&gt;Node1</title>
<path fill="none" stroke="#9a32cd" stroke-dasharray="5,2" d="M1598.87,-164.4C1663.05,-164.4 1757.28,-164.4 1820.77,-164.4"/>
<polygon fill="#9a32cd" stroke="#9a32cd" points="1598.84,-160.9 1588.84,-164.4 1598.84,-167.9 1598.84,-160.9"/>
<text text-anchor="middle" x="1732" y="-200.4" font-family="Helvetica,sans-Serif" font-size="10.00"> m_MovingImages</text>
<text text-anchor="middle" x="1732" y="-189.4" font-family="Helvetica,sans-Serif" font-size="10.00">m_FixedImages</text>
<text text-anchor="middle" x="1732" y="-178.4" font-family="Helvetica,sans-Serif" font-size="10.00">m_FixedMasks</text>
<text text-anchor="middle" x="1732" y="-167.4" font-family="Helvetica,sans-Serif" font-size="10.00">m_MovingMasks</text>
</g>
<!-- Node11 -->
<g id="node11" class="node">
<title>Node11</title>
<g id="a_node11"><a xlink:href="classitk_1_1simple_1_1Image.html" target="_top" xlink:title="The Image class for SimpleITK.">
<polygon fill="white" stroke="black" points="1076.5,-196.9 1076.5,-215.9 1181.5,-215.9 1181.5,-196.9 1076.5,-196.9"/>
<text text-anchor="middle" x="1129" y="-203.9" font-family="Helvetica,sans-Serif" font-size="10.00">itk::simple::Image</text>
</a>
</g>
</g>
<!-- Node11&#45;&gt;Node1 -->
<g id="edge17" class="edge">
<title>Node11&#45;&gt;Node1</title>
<path fill="none" stroke="#9a32cd" stroke-dasharray="5,2" d="M1192.02,-210.51C1335.82,-219.42 1688.43,-237.56 1803,-209.4 1826.4,-203.64 1850.49,-190.28 1867.2,-179.6"/>
<polygon fill="#9a32cd" stroke="#9a32cd" points="1191.82,-206.99 1181.62,-209.86 1191.38,-213.97 1191.82,-206.99"/>
<text text-anchor="middle" x="1527.5" y="-227.4" font-family="Helvetica,sans-Serif" font-size="10.00"> m_ResultImage</text>
</g>
<!-- Node11&#45;&gt;Node10 -->
<g id="edge11" class="edge">
<title>Node11&#45;&gt;Node10</title>
<path fill="none" stroke="#9a32cd" stroke-dasharray="5,2" d="M1192.06,-199.82C1266.98,-191.89 1392.11,-178.63 1466.22,-170.78"/>
<polygon fill="#9a32cd" stroke="#9a32cd" points="1191.41,-196.37 1181.84,-200.9 1192.15,-203.33 1191.41,-196.37"/>
<text text-anchor="middle" x="1311" y="-197.4" font-family="Helvetica,sans-Serif" font-size="10.00"> elements</text>
</g>
<!-- Node12&#45;&gt;Node11 -->
<g id="edge12" class="edge">
<title>Node12&#45;&gt;Node11</title>
<path fill="none" stroke="#9a32cd" stroke-dasharray="5,2" d="M875.83,-206.4C939.72,-206.4 1023.29,-206.4 1076.33,-206.4"/>
<polygon fill="#9a32cd" stroke="#9a32cd" points="875.75,-202.9 865.75,-206.4 875.75,-209.9 875.75,-202.9"/>
<text text-anchor="middle" x="957" y="-209.4" font-family="Helvetica,sans-Serif" font-size="10.00"> m_PimpleImage</text>
</g>
<!-- Node13 -->
<g id="node13" class="node">
<title>Node13</title>
<g id="a_node13"><a xlink:href="classitk_1_1simple_1_1PimpleImageBase.html" target="_top" xlink:title="Private implementation idiom image base class.">
<polygon fill="white" stroke="black" points="340.5,-172.9 340.5,-191.9 503.5,-191.9 503.5,-172.9 340.5,-172.9"/>
<text text-anchor="middle" x="422" y="-179.9" font-family="Helvetica,sans-Serif" font-size="10.00">itk::simple::PimpleImageBase</text>
</a>
</g>
</g>
<!-- Node13&#45;&gt;Node12 -->
<g id="edge13" class="edge">
<title>Node13&#45;&gt;Node12</title>
<path fill="none" stroke="#9a32cd" stroke-dasharray="5,2" d="M513.94,-185.49C564.63,-187.57 628.88,-190.78 686,-195.4 691.97,-195.88 698.14,-196.43 704.35,-197.03"/>
<polygon fill="#9a32cd" stroke="#9a32cd" points="513.79,-181.98 503.66,-185.08 513.51,-188.98 513.79,-181.98"/>
<text text-anchor="middle" x="604" y="-198.4" font-family="Helvetica,sans-Serif" font-size="10.00"> ptr</text>
</g>
<!-- Node14&#45;&gt;Node10 -->
<g id="edge15" class="edge">
<title>Node14&#45;&gt;Node10</title>
<path fill="none" stroke="orange" stroke-dasharray="5,2" d="M480.82,-145.44C670.55,-148.88 1273.05,-159.8 1466.25,-163.3"/>
<polygon fill="orange" stroke="orange" points="480.83,-141.94 470.77,-145.26 480.71,-148.94 480.83,-141.94"/>
<text text-anchor="middle" x="957" y="-157.4" font-family="Helvetica,sans-Serif" font-size="10.00"> &lt; Image &gt;</text>
</g>
<!-- Node17 -->
<g id="node17" class="node">
<title>Node17</title>
<g id="a_node17"><a xlink:title=" ">
<polygon fill="white" stroke="#bfbfbf" points="709.5,-68.4 709.5,-98.4 860.5,-98.4 860.5,-68.4 709.5,-68.4"/>
<text text-anchor="start" x="717.5" y="-86.4" font-family="Helvetica,sans-Serif" font-size="10.00">std::vector&lt; ParameterMap</text>
<text text-anchor="middle" x="785" y="-75.4" font-family="Helvetica,sans-Serif" font-size="10.00">Type &gt;</text>
</a>
</g>
</g>
<!-- Node14&#45;&gt;Node17 -->
<g id="edge24" class="edge">
<title>Node14&#45;&gt;Node17</title>
<path fill="none" stroke="orange" stroke-dasharray="5,2" d="M475.42,-132.69C490.43,-129.49 506.83,-126.16 522,-123.4 594.54,-110.18 613.11,-109.53 686,-98.4 693.57,-97.24 701.47,-96.03 709.36,-94.82"/>
<polygon fill="orange" stroke="orange" points="474.33,-129.34 465.29,-134.86 475.8,-136.18 474.33,-129.34"/>
<text text-anchor="middle" x="604" y="-126.4" font-family="Helvetica,sans-Serif" font-size="10.00"> &lt; ParameterMapType &gt;</text>
</g>
<!-- Node15 -->
<g id="node15" class="node">
<title>Node15</title>
<g id="a_node15"><a xlink:title="STL class.">
<polygon fill="white" stroke="#bfbfbf" points="1495,-73.9 1495,-92.9 1560,-92.9 1560,-73.9 1495,-73.9"/>
<text text-anchor="middle" x="1527.5" y="-80.9" font-family="Helvetica,sans-Serif" font-size="10.00">std::string</text>
</a>
</g>
</g>
<!-- Node15&#45;&gt;Node1 -->
<g id="edge18" class="edge">
<title>Node15&#45;&gt;Node1</title>
<path fill="none" stroke="#9a32cd" stroke-dasharray="5,2" d="M1570.35,-77.1C1625.62,-70.55 1725.05,-64.91 1803,-94.4 1833.25,-105.84 1860.83,-132.41 1876.22,-149.32"/>
<polygon fill="#9a32cd" stroke="#9a32cd" points="1569.72,-73.66 1560.24,-78.37 1570.59,-80.6 1569.72,-73.66"/>
<text text-anchor="middle" x="1732" y="-152.4" font-family="Helvetica,sans-Serif" font-size="10.00"> m_OutputDirectory</text>
<text text-anchor="start" x="1661" y="-141.4" font-family="Helvetica,sans-Serif" font-size="10.00">m_InitialTransformParameter</text>
<text text-anchor="middle" x="1732" y="-130.4" font-family="Helvetica,sans-Serif" font-size="10.00">MapFileName</text>
<text text-anchor="middle" x="1732" y="-119.4" font-family="Helvetica,sans-Serif" font-size="10.00">m_FixedPointSetFileName</text>
<text text-anchor="middle" x="1732" y="-108.4" font-family="Helvetica,sans-Serif" font-size="10.00">m_LogFileName</text>
<text text-anchor="middle" x="1732" y="-97.4" font-family="Helvetica,sans-Serif" font-size="10.00">m_MovingPointSetFileName</text>
</g>
<!-- Node16 -->
<g id="node16" class="node">
<title>Node16</title>
<g id="a_node16"><a xlink:title="STL class.">
<polygon fill="white" stroke="#bfbfbf" points="1077,-71.4 1077,-101.4 1181,-101.4 1181,-71.4 1077,-71.4"/>
<text text-anchor="start" x="1085" y="-89.4" font-family="Helvetica,sans-Serif" font-size="10.00">std::basic_string&lt;</text>
<text text-anchor="middle" x="1129" y="-78.4" font-family="Helvetica,sans-Serif" font-size="10.00"> char &gt;</text>
</a>
</g>
</g>
<!-- Node16&#45;&gt;Node15 -->
<g id="edge19" class="edge">
<title>Node16&#45;&gt;Node15</title>
<path fill="none" stroke="midnightblue" d="M1191.12,-85.93C1276.7,-85.29 1429.12,-84.13 1494.87,-83.63"/>
<polygon fill="midnightblue" stroke="midnightblue" points="1191,-82.43 1181.02,-86.01 1191.05,-89.43 1191,-82.43"/>
</g>
<!-- Node17&#45;&gt;Node1 -->
<g id="edge20" class="edge">
<title>Node17&#45;&gt;Node1</title>
<path fill="none" stroke="#9a32cd" stroke-dasharray="5,2" d="M870.76,-74.71C922.01,-69.85 988.69,-64.21 1048,-61.4 1383.19,-45.48 1498.35,72.3 1803,-68.4 1839.97,-85.47 1867.84,-126.79 1880.86,-149.25"/>
<polygon fill="#9a32cd" stroke="#9a32cd" points="870.34,-71.23 860.72,-75.67 871.01,-78.2 870.34,-71.23"/>
<text text-anchor="middle" x="1311" y="-56.4" font-family="Helvetica,sans-Serif" font-size="10.00"> m_ParameterMapVector</text>
<text text-anchor="middle" x="1311" y="-45.4" font-family="Helvetica,sans-Serif" font-size="10.00">m_TransformParameterMapVector</text>
</g>
<!-- Node18&#45;&gt;Node17 -->
<g id="edge21" class="edge">
<title>Node18&#45;&gt;Node17</title>
<path fill="none" stroke="#9a32cd" stroke-dasharray="5,2" d="M482.85,-83.4C544.96,-83.4 642.21,-83.4 709.31,-83.4"/>
<polygon fill="#9a32cd" stroke="#9a32cd" points="482.82,-79.9 472.82,-83.4 482.82,-86.9 482.82,-79.9"/>
<text text-anchor="middle" x="604" y="-86.4" font-family="Helvetica,sans-Serif" font-size="10.00"> elements</text>
</g>
<!-- Node19 -->
<g id="node19" class="node">
<title>Node19</title>
<g id="a_node19"><a xlink:title=" ">
<polygon fill="white" stroke="#bfbfbf" points="67.5,-67.9 67.5,-86.9 96.5,-86.9 96.5,-67.9 67.5,-67.9"/>
<text text-anchor="middle" x="82" y="-74.9" font-family="Helvetica,sans-Serif" font-size="10.00">K</text>
</a>
</g>
</g>
<!-- Node19&#45;&gt;Node18 -->
<g id="edge22" class="edge">
<title>Node19&#45;&gt;Node18</title>
<path fill="none" stroke="#9a32cd" stroke-dasharray="5,2" d="M106.78,-77.13C149.75,-76.73 243.21,-76.24 322,-78.4 338.08,-78.83 355.63,-79.62 371.41,-80.44"/>
<polygon fill="#9a32cd" stroke="#9a32cd" points="106.71,-73.63 96.74,-77.23 106.78,-80.63 106.71,-73.63"/>
<text text-anchor="middle" x="252" y="-81.4" font-family="Helvetica,sans-Serif" font-size="10.00"> keys</text>
</g>
</g>
</svg>
