<?xml version="1.0" encoding="UTF-8" standalone="no"?>
<!DOCTYPE svg PUBLIC "-//W3C//DTD SVG 1.1//EN"
 "http://www.w3.org/Graphics/SVG/1.1/DTD/svg11.dtd">
<!-- Generated by graphviz version 2.43.0 (0)
 -->
<!-- Title: itk::simple::TransformixImageFilter::TransformixImageFilterImpl Pages: 1 -->
<!--zoomable 327 -->

<svg id="main" version="1.1" xmlns="http://www.w3.org/2000/svg" xmlns:xlink="http://www.w3.org/1999/xlink" xml:space="preserve" onload="init(evt)">

<style type="text/css"><![CDATA[
.node, .edge {opacity: 0.7;}
.node.selected, .edge.selected {opacity: 1;}
.edge:hover path { stroke: red; }
.edge:hover polygon { stroke: red; fill: red; }
]]></style>

<defs>
  <circle id="rim" cx="0" cy="0" r="7"/>
  <circle id="rim2" cx="0" cy="0" r="3.5"/>
  <g id="zoomPlus">
    <use xlink:href="#rim" fill="#404040"><set attributeName="fill" to="#808080" begin="zoomplus.mouseover" end="zoomplus.mouseout"/></use>
    <path d="M-4,0h8M0,-4v8" fill="none" stroke="white" stroke-width="1.5" pointer-events="none"/>
  </g>
  <g id="zoomMin">
    <use xlink:href="#rim" fill="#404040"><set attributeName="fill" to="#808080" begin="zoomminus.mouseover" end="zoomminus.mouseout"/></use>
    <path d="M-4,0h8" fill="none" stroke="white" stroke-width="1.5" pointer-events="none"/>
  </g>
  <g id="arrowUp" transform="translate(30 24)">
    <use xlink:href="#rim"/>
    <path pointer-events="none" fill="none" stroke="white" stroke-width="1.5" d="M0,-3.0v7 M-2.5,-0.5L0,-3.0L2.5,-0.5"/>
  </g>
  <g id="arrowRight" transform="rotate(90) translate(36 -43)">
    <use xlink:href="#rim"/>
    <path pointer-events="none" fill="none" stroke="white" stroke-width="1.5" d="M0,-3.0v7 M-2.5,-0.5L0,-3.0L2.5,-0.5"/>
  </g>
  <g id="arrowDown" transform="rotate(180) translate(-30 -48)">
    <use xlink:href="#rim"/>
    <path pointer-events="none" fill="none" stroke="white" stroke-width="1.5" d="M0,-3.0v7 M-2.5,-0.5L0,-3.0L2.5,-0.5"/>
  </g>
  <g id="arrowLeft" transform="rotate(270) translate(-36 17)">
    <use xlink:href="#rim"/>
    <path pointer-events="none" fill="none" stroke="white" stroke-width="1.5" d="M0,-3.0v7 M-2.5,-0.5L0,-3.0L2.5,-0.5"/>
  </g>
  <g id="resetDef">
    <use xlink:href="#rim2" fill="#404040"><set attributeName="fill" to="#808080" begin="reset.mouseover" end="reset.mouseout"/></use>
  </g>
</defs>
<script type="application/ecmascript">
var viewWidth = 2452;
var viewHeight = 327;
var sectionId = 'dynsection-0';
</script>
<script type="application/ecmascript" xlink:href="svg.min.js"/>
<svg id="graph" class="graph">
<g id="viewport">
<title>itk::simple::TransformixImageFilter::TransformixImageFilterImpl</title>
<!-- Node1 -->
<g id="Node000001" class="node">
<title>Node1</title>
<g id="a_Node000001"><a xlink:title=" ">
<polygon fill="#999999" stroke="#666666" points="2444,-91.5 2277,-91.5 2277,-50.5 2444,-50.5 2444,-91.5"/>
<text text-anchor="start" x="2285" y="-79.5" font-family="Helvetica,sans-Serif" font-size="10.00">itk::simple::Transformix</text>
<text text-anchor="start" x="2285" y="-68.5" font-family="Helvetica,sans-Serif" font-size="10.00">ImageFilter::TransformixImage</text>
<text text-anchor="middle" x="2360.5" y="-57.5" font-family="Helvetica,sans-Serif" font-size="10.00">FilterImpl</text>
</a>
</g>
</g>
<!-- Node2 -->
<g id="Node000002" class="node">
<title>Node2</title>
<g id="a_Node000002"><a xlink:title=" ">
<polygon fill="white" stroke="#666666" points="2102,-147.5 1912,-147.5 1912,-106.5 2102,-106.5 2102,-147.5"/>
<text text-anchor="start" x="1920" y="-135.5" font-family="Helvetica,sans-Serif" font-size="10.00">std::unique_ptr&lt; itk</text>
<text text-anchor="start" x="1920" y="-124.5" font-family="Helvetica,sans-Serif" font-size="10.00">::simple::detail::MemberFunction</text>
<text text-anchor="middle" x="2007" y="-113.5" font-family="Helvetica,sans-Serif" font-size="10.00">Factory&lt; MemberFunctionType &gt; &gt;</text>
</a>
</g>
</g>
<!-- Node2&#45;&gt;Node1 -->
<g id="edge1_Node000001_Node000002" class="edge">
<title>Node2&#45;&gt;Node1</title>
<g id="a_edge1_Node000001_Node000002"><a xlink:title=" ">
<path fill="none" stroke="#9a32cd" stroke-dasharray="5,2" d="M2112.21,-123.44C2157.66,-120.46 2211.34,-115 2259,-105 2274.68,-101.71 2291.31,-96.73 2306.44,-91.59"/>
<polygon fill="#9a32cd" stroke="#9a32cd" points="2111.81,-119.96 2102.05,-124.08 2112.25,-126.95 2111.81,-119.96"/>
</a>
</g>
<text text-anchor="middle" x="2189.5" y="-125" font-family="Helvetica,sans-Serif" font-size="10.00" fill="grey"> m_MemberFactory</text>
</g>
<!-- Node3 -->
<g id="Node000003" class="node">
<title>Node3</title>
<g id="a_Node000003"><a xlink:href="classitk_1_1simple_1_1detail_1_1MemberFunctionFactory.html" target="_top" xlink:title=" ">
<polygon fill="white" stroke="#666666" points="1784,-216.5 1641,-216.5 1641,-175.5 1784,-175.5 1784,-216.5"/>
<text text-anchor="start" x="1649" y="-204.5" font-family="Helvetica,sans-Serif" font-size="10.00">itk::simple::detail</text>
<text text-anchor="start" x="1649" y="-193.5" font-family="Helvetica,sans-Serif" font-size="10.00">::MemberFunctionFactory</text>
<text text-anchor="middle" x="1712.5" y="-182.5" font-family="Helvetica,sans-Serif" font-size="10.00">&lt; MemberFunctionType &gt;</text>
</a>
</g>
</g>
<!-- Node3&#45;&gt;Node2 -->
<g id="edge2_Node000002_Node000003" class="edge">
<title>Node3&#45;&gt;Node2</title>
<g id="a_edge2_Node000002_Node000003"><a xlink:title=" ">
<path fill="none" stroke="#9a32cd" stroke-dasharray="5,2" d="M1794.48,-176.9C1833.13,-167.78 1879.44,-156.85 1918.86,-147.56"/>
<polygon fill="#9a32cd" stroke="#9a32cd" points="1793.24,-173.59 1784.31,-179.3 1794.84,-180.41 1793.24,-173.59"/>
</a>
</g>
<text text-anchor="middle" x="1852.5" y="-174" font-family="Helvetica,sans-Serif" font-size="10.00" fill="grey"> ptr</text>
</g>
<!-- Node4 -->
<g id="Node000004" class="node">
<title>Node4</title>
<g id="a_Node000004"><a xlink:href="classitk_1_1simple_1_1detail_1_1MemberFunctionFactoryBase.html" target="_top" xlink:title=" ">
<polygon fill="white" stroke="#666666" points="1255,-250 1091,-250 1091,-198 1255,-198 1255,-250"/>
<text text-anchor="start" x="1099" y="-238" font-family="Helvetica,sans-Serif" font-size="10.00">itk::simple::detail</text>
<text text-anchor="start" x="1099" y="-227" font-family="Helvetica,sans-Serif" font-size="10.00">::MemberFunctionFactoryBase</text>
<text text-anchor="start" x="1099" y="-216" font-family="Helvetica,sans-Serif" font-size="10.00">&lt; MemberFunctionType, std</text>
<text text-anchor="middle" x="1173" y="-205" font-family="Helvetica,sans-Serif" font-size="10.00">::pair&lt; unsigned int, int &gt; &gt;</text>
</a>
</g>
</g>
<!-- Node4&#45;&gt;Node3 -->
<g id="edge3_Node000003_Node000004" class="edge">
<title>Node4&#45;&gt;Node3</title>
<g id="a_edge3_Node000003_Node000004"><a xlink:title=" ">
<path fill="none" stroke="darkgreen" d="M1265.11,-219.25C1371.3,-213.72 1544.48,-204.7 1640.95,-199.68"/>
<polygon fill="darkgreen" stroke="darkgreen" points="1264.86,-215.76 1255.05,-219.78 1265.22,-222.75 1264.86,-215.76"/>
</a>
</g>
</g>
<!-- Node5 -->
<g id="Node000005" class="node">
<title>Node5</title>
<g id="a_Node000005"><a xlink:title=" ">
<polygon fill="white" stroke="#666666" points="911,-297.5 735,-297.5 735,-234.5 911,-234.5 911,-297.5"/>
<text text-anchor="start" x="743" y="-285.5" font-family="Helvetica,sans-Serif" font-size="10.00">std::unordered_map</text>
<text text-anchor="start" x="743" y="-274.5" font-family="Helvetica,sans-Serif" font-size="10.00">&lt; std::pair&lt; unsigned</text>
<text text-anchor="start" x="743" y="-263.5" font-family="Helvetica,sans-Serif" font-size="10.00"> int, int &gt;, MemberFunctionType,</text>
<text text-anchor="start" x="743" y="-252.5" font-family="Helvetica,sans-Serif" font-size="10.00"> hash&lt; std::pair&lt; unsigned int,</text>
<text text-anchor="middle" x="823" y="-241.5" font-family="Helvetica,sans-Serif" font-size="10.00"> int &gt; &gt; &gt;</text>
</a>
</g>
</g>
<!-- Node5&#45;&gt;Node4 -->
<g id="edge4_Node000004_Node000005" class="edge">
<title>Node5&#45;&gt;Node4</title>
<g id="a_edge4_Node000004_Node000005"><a xlink:title=" ">
<path fill="none" stroke="#9a32cd" stroke-dasharray="5,2" d="M921.33,-259.56C966.39,-255.99 1020.55,-250.86 1069,-244 1076.12,-242.99 1083.5,-241.82 1090.89,-240.55"/>
<polygon fill="#9a32cd" stroke="#9a32cd" points="920.97,-256.08 911.27,-260.34 921.52,-263.05 920.97,-256.08"/>
</a>
</g>
<text text-anchor="middle" x="999" y="-261" font-family="Helvetica,sans-Serif" font-size="10.00" fill="grey"> m_PFunction</text>
</g>
<!-- Node6 -->
<g id="Node000006" class="node">
<title>Node6</title>
<g id="a_Node000006"><a xlink:title=" ">
<polygon fill="white" stroke="#666666" points="597.5,-305 485.5,-305 485.5,-275 597.5,-275 597.5,-305"/>
<text text-anchor="start" x="493.5" y="-293" font-family="Helvetica,sans-Serif" font-size="10.00">std::pair&lt; unsigned</text>
<text text-anchor="middle" x="541.5" y="-282" font-family="Helvetica,sans-Serif" font-size="10.00"> int, int &gt;</text>
</a>
</g>
</g>
<!-- Node6&#45;&gt;Node5 -->
<g id="edge5_Node000005_Node000006" class="edge">
<title>Node6&#45;&gt;Node5</title>
<g id="a_edge5_Node000005_Node000006"><a xlink:title=" ">
<path fill="none" stroke="#9a32cd" stroke-dasharray="5,2" d="M608.11,-284.37C645.96,-281.12 694.01,-276.99 734.98,-273.47"/>
<polygon fill="#9a32cd" stroke="#9a32cd" points="607.38,-280.92 597.72,-285.26 607.98,-287.89 607.38,-280.92"/>
</a>
</g>
<text text-anchor="middle" x="684" y="-283" font-family="Helvetica,sans-Serif" font-size="10.00" fill="grey"> keys</text>
</g>
<!-- Node7 -->
<g id="Node000007" class="node">
<title>Node7</title>
<g id="a_Node000007"><a xlink:title=" ">
<polygon fill="white" stroke="#666666" points="241.5,-299.5 132.5,-299.5 132.5,-280.5 241.5,-280.5 241.5,-299.5"/>
<text text-anchor="middle" x="187" y="-287.5" font-family="Helvetica,sans-Serif" font-size="10.00">std::pair&lt; T1, T2 &gt;</text>
</a>
</g>
</g>
<!-- Node7&#45;&gt;Node6 -->
<g id="edge6_Node000006_Node000007" class="edge">
<title>Node7&#45;&gt;Node6</title>
<g id="a_edge6_Node000006_Node000007"><a xlink:title=" ">
<path fill="none" stroke="orange" stroke-dasharray="5,2" d="M251.91,-290C318.59,-290 422.05,-290 485.29,-290"/>
<polygon fill="orange" stroke="orange" points="251.54,-286.5 241.54,-290 251.54,-293.5 251.54,-286.5"/>
</a>
</g>
<text text-anchor="middle" x="347" y="-293" font-family="Helvetica,sans-Serif" font-size="10.00" fill="grey"> &lt; unsigned int, int &gt;</text>
</g>
<!-- Node8 -->
<g id="Node000008" class="node">
<title>Node8</title>
<g id="a_Node000008"><a xlink:title=" ">
<polygon fill="white" stroke="#666666" points="29,-318.5 0,-318.5 0,-299.5 29,-299.5 29,-318.5"/>
<text text-anchor="middle" x="14.5" y="-306.5" font-family="Helvetica,sans-Serif" font-size="10.00">T1</text>
</a>
</g>
</g>
<!-- Node8&#45;&gt;Node7 -->
<g id="edge7_Node000007_Node000008" class="edge">
<title>Node8&#45;&gt;Node7</title>
<g id="a_edge7_Node000007_Node000008"><a xlink:title=" ">
<path fill="none" stroke="#9a32cd" stroke-dasharray="5,2" d="M39.11,-306.37C63.04,-303.7 100.91,-299.48 132.21,-295.99"/>
<polygon fill="#9a32cd" stroke="#9a32cd" points="38.72,-302.89 29.16,-307.48 39.49,-309.85 38.72,-302.89"/>
</a>
</g>
<text text-anchor="middle" x="79.5" y="-308" font-family="Helvetica,sans-Serif" font-size="10.00" fill="grey"> first_type</text>
</g>
<!-- Node9 -->
<g id="Node000009" class="node">
<title>Node9</title>
<g id="a_Node000009"><a xlink:title=" ">
<polygon fill="white" stroke="#666666" points="29,-281.5 0,-281.5 0,-262.5 29,-262.5 29,-281.5"/>
<text text-anchor="middle" x="14.5" y="-269.5" font-family="Helvetica,sans-Serif" font-size="10.00">T2</text>
</a>
</g>
</g>
<!-- Node9&#45;&gt;Node7 -->
<g id="edge8_Node000007_Node000009" class="edge">
<title>Node9&#45;&gt;Node7</title>
<g id="a_edge8_Node000007_Node000009"><a xlink:title=" ">
<path fill="none" stroke="#9a32cd" stroke-dasharray="5,2" d="M39.44,-272.03C59.02,-272.28 87.38,-273.18 112,-276 121.48,-277.09 131.57,-278.69 141.16,-280.43"/>
<polygon fill="#9a32cd" stroke="#9a32cd" points="39.32,-268.53 29.29,-271.94 39.26,-275.52 39.32,-268.53"/>
</a>
</g>
<text text-anchor="middle" x="79.5" y="-279" font-family="Helvetica,sans-Serif" font-size="10.00" fill="grey"> second_type</text>
</g>
<!-- Node10 -->
<g id="Node000010" class="node">
<title>Node10</title>
<g id="a_Node000010"><a xlink:title=" ">
<polygon fill="white" stroke="#666666" points="244,-175 130,-175 130,-145 244,-145 244,-175"/>
<text text-anchor="start" x="138" y="-163" font-family="Helvetica,sans-Serif" font-size="10.00">std::unordered_map</text>
<text text-anchor="middle" x="187" y="-152" font-family="Helvetica,sans-Serif" font-size="10.00">&lt; K, T &gt;</text>
</a>
</g>
</g>
<!-- Node10&#45;&gt;Node5 -->
<g id="edge9_Node000005_Node000010" class="edge">
<title>Node10&#45;&gt;Node5</title>
<g id="a_edge9_Node000005_Node000010"><a xlink:title=" ">
<path fill="none" stroke="orange" stroke-dasharray="5,2" d="M236.71,-178.19C245.06,-180.8 253.71,-183.21 262,-185 423.98,-219.96 469.52,-194.93 633,-222 666.57,-227.56 703.07,-235.58 734.96,-243.25"/>
<polygon fill="orange" stroke="orange" points="237.68,-174.82 227.09,-175.05 235.51,-181.48 237.68,-174.82"/>
</a>
</g>
<text text-anchor="start" x="462" y="-258" font-family="Helvetica,sans-Serif" font-size="10.00" fill="grey"> &lt; std::pair&lt; unsigned</text>
<text text-anchor="start" x="462" y="-247" font-family="Helvetica,sans-Serif" font-size="10.00" fill="grey"> int, int &gt;, MemberFunction</text>
<text text-anchor="start" x="462" y="-236" font-family="Helvetica,sans-Serif" font-size="10.00" fill="grey">Type, hash&lt; std::pair&lt; unsigned</text>
<text text-anchor="middle" x="541.5" y="-225" font-family="Helvetica,sans-Serif" font-size="10.00" fill="grey"> int, int &gt; &gt; &gt;</text>
</g>
<!-- Node14 -->
<g id="Node000014" class="node">
<title>Node14</title>
<g id="a_Node000014"><a xlink:title=" ">
<polygon fill="white" stroke="#666666" points="633,-176.5 450,-176.5 450,-135.5 633,-135.5 633,-176.5"/>
<text text-anchor="start" x="458" y="-164.5" font-family="Helvetica,sans-Serif" font-size="10.00">std::unordered_map</text>
<text text-anchor="start" x="458" y="-153.5" font-family="Helvetica,sans-Serif" font-size="10.00">&lt; TKey, TMemberFunctionPointer,</text>
<text text-anchor="middle" x="541.5" y="-142.5" font-family="Helvetica,sans-Serif" font-size="10.00"> hash&lt; TKey &gt; &gt;</text>
</a>
</g>
</g>
<!-- Node10&#45;&gt;Node14 -->
<g id="edge14_Node000014_Node000010" class="edge">
<title>Node10&#45;&gt;Node14</title>
<g id="a_edge14_Node000014_Node000010"><a xlink:title=" ">
<path fill="none" stroke="orange" stroke-dasharray="5,2" d="M254.26,-159.25C309.47,-158.62 388.66,-157.72 449.76,-157.03"/>
<polygon fill="orange" stroke="orange" points="254.2,-155.75 244.24,-159.36 254.28,-162.75 254.2,-155.75"/>
</a>
</g>
<text text-anchor="start" x="262" y="-173" font-family="Helvetica,sans-Serif" font-size="10.00" fill="grey"> &lt; TKey, TMemberFunctionPointer,</text>
<text text-anchor="middle" x="347" y="-162" font-family="Helvetica,sans-Serif" font-size="10.00" fill="grey"> hash&lt; TKey &gt; &gt;</text>
</g>
<!-- Node11 -->
<g id="Node000011" class="node">
<title>Node11</title>
<g id="a_Node000011"><a xlink:title=" ">
<polygon fill="white" stroke="#666666" points="29,-175.5 0,-175.5 0,-156.5 29,-156.5 29,-175.5"/>
<text text-anchor="middle" x="14.5" y="-163.5" font-family="Helvetica,sans-Serif" font-size="10.00">K</text>
</a>
</g>
</g>
<!-- Node11&#45;&gt;Node10 -->
<g id="edge10_Node000010_Node000011" class="edge">
<title>Node11&#45;&gt;Node10</title>
<g id="a_edge10_Node000010_Node000011"><a xlink:title=" ">
<path fill="none" stroke="#9a32cd" stroke-dasharray="5,2" d="M39.19,-165.17C62.54,-164.34 99.09,-163.06 129.87,-161.98"/>
<polygon fill="#9a32cd" stroke="#9a32cd" points="39.04,-161.67 29.16,-165.52 39.28,-168.67 39.04,-161.67"/>
</a>
</g>
<text text-anchor="middle" x="79.5" y="-167" font-family="Helvetica,sans-Serif" font-size="10.00" fill="grey"> keys</text>
</g>
<!-- Node12 -->
<g id="Node000012" class="node">
<title>Node12</title>
<g id="a_Node000012"><a xlink:title=" ">
<polygon fill="white" stroke="#666666" points="29,-123.5 0,-123.5 0,-104.5 29,-104.5 29,-123.5"/>
<text text-anchor="middle" x="14.5" y="-111.5" font-family="Helvetica,sans-Serif" font-size="10.00">T</text>
</a>
</g>
</g>
<!-- Node12&#45;&gt;Node10 -->
<g id="edge11_Node000010_Node000012" class="edge">
<title>Node12&#45;&gt;Node10</title>
<g id="a_edge11_Node000010_Node000012"><a xlink:title=" ">
<path fill="none" stroke="#9a32cd" stroke-dasharray="5,2" d="M38.91,-120.32C62.35,-126.64 99.27,-136.6 130.27,-144.96"/>
<polygon fill="#9a32cd" stroke="#9a32cd" points="39.73,-116.91 29.16,-117.69 37.91,-123.67 39.73,-116.91"/>
</a>
</g>
<text text-anchor="middle" x="79.5" y="-142" font-family="Helvetica,sans-Serif" font-size="10.00" fill="grey"> elements</text>
</g>
<!-- Node17 -->
<g id="Node000017" class="node">
<title>Node17</title>
<g id="a_Node000017"><a xlink:title=" ">
<polygon fill="white" stroke="#666666" points="1436.5,-108.5 1318.5,-108.5 1318.5,-89.5 1436.5,-89.5 1436.5,-108.5"/>
<text text-anchor="middle" x="1377.5" y="-96.5" font-family="Helvetica,sans-Serif" font-size="10.00">std::unique_ptr&lt; T &gt;</text>
</a>
</g>
</g>
<!-- Node12&#45;&gt;Node17 -->
<g id="edge19_Node000017_Node000012" class="edge">
<title>Node12&#45;&gt;Node17</title>
<g id="a_edge19_Node000017_Node000012"><a xlink:title=" ">
<path fill="none" stroke="#9a32cd" stroke-dasharray="5,2" d="M39.17,-110.6C72.04,-106.17 133.41,-99 186,-99 186,-99 186,-99 1174,-99 1222.69,-99 1277.97,-99 1318.45,-99"/>
<polygon fill="#9a32cd" stroke="#9a32cd" points="38.59,-107.14 29.17,-111.98 39.55,-114.08 38.59,-107.14"/>
</a>
</g>
<text text-anchor="middle" x="684" y="-102" font-family="Helvetica,sans-Serif" font-size="10.00" fill="grey"> ptr</text>
</g>
<!-- Node13 -->
<g id="Node000013" class="node">
<title>Node13</title>
<g id="a_Node000013"><a xlink:href="classitk_1_1simple_1_1detail_1_1MemberFunctionFactoryBase.html" target="_top" xlink:title=" ">
<polygon fill="white" stroke="#666666" points="905,-182 741,-182 741,-130 905,-130 905,-182"/>
<text text-anchor="start" x="749" y="-170" font-family="Helvetica,sans-Serif" font-size="10.00">itk::simple::detail</text>
<text text-anchor="start" x="749" y="-159" font-family="Helvetica,sans-Serif" font-size="10.00">::MemberFunctionFactoryBase</text>
<text text-anchor="start" x="749" y="-148" font-family="Helvetica,sans-Serif" font-size="10.00">&lt; TMemberFunctionPointer,</text>
<text text-anchor="middle" x="823" y="-137" font-family="Helvetica,sans-Serif" font-size="10.00"> TKey, TContainer &gt;</text>
</a>
</g>
</g>
<!-- Node13&#45;&gt;Node4 -->
<g id="edge12_Node000004_Node000013" class="edge">
<title>Node13&#45;&gt;Node4</title>
<g id="a_edge12_Node000004_Node000013"><a xlink:title=" ">
<path fill="none" stroke="orange" stroke-dasharray="5,2" d="M914.69,-184.62C919.51,-185.84 924.3,-186.97 929,-188 990.34,-201.42 1006.91,-197.66 1069,-207 1076.08,-208.06 1083.43,-209.21 1090.79,-210.37"/>
<polygon fill="orange" stroke="orange" points="915.33,-181.17 904.77,-182.04 913.56,-187.95 915.33,-181.17"/>
</a>
</g>
<text text-anchor="start" x="938" y="-232" font-family="Helvetica,sans-Serif" font-size="10.00" fill="grey"> &lt; MemberFunctionType,</text>
<text text-anchor="start" x="938" y="-221" font-family="Helvetica,sans-Serif" font-size="10.00" fill="grey"> std::pair&lt; unsigned</text>
<text text-anchor="middle" x="999" y="-210" font-family="Helvetica,sans-Serif" font-size="10.00" fill="grey"> int, int &gt; &gt;</text>
</g>
<!-- Node16 -->
<g id="Node000016" class="node">
<title>Node16</title>
<g id="a_Node000016"><a xlink:href="classitk_1_1simple_1_1detail_1_1MemberFunctionFactoryBase.html" target="_top" xlink:title=" ">
<polygon fill="white" stroke="#666666" points="1259,-180 1087,-180 1087,-128 1259,-128 1259,-180"/>
<text text-anchor="start" x="1095" y="-168" font-family="Helvetica,sans-Serif" font-size="10.00">itk::simple::detail</text>
<text text-anchor="start" x="1095" y="-157" font-family="Helvetica,sans-Serif" font-size="10.00">::MemberFunctionFactoryBase</text>
<text text-anchor="start" x="1095" y="-146" font-family="Helvetica,sans-Serif" font-size="10.00">&lt; TMemberFunctionPointer,</text>
<text text-anchor="middle" x="1173" y="-135" font-family="Helvetica,sans-Serif" font-size="10.00"> std::pair&lt; unsigned int, int &gt; &gt;</text>
</a>
</g>
</g>
<!-- Node13&#45;&gt;Node16 -->
<g id="edge17_Node000016_Node000013" class="edge">
<title>Node13&#45;&gt;Node16</title>
<g id="a_edge17_Node000016_Node000013"><a xlink:title=" ">
<path fill="none" stroke="orange" stroke-dasharray="5,2" d="M915.3,-155.1C919.93,-155.06 924.52,-155.03 929,-155 981.42,-154.64 1040.2,-154.4 1086.81,-154.24"/>
<polygon fill="orange" stroke="orange" points="915.08,-151.6 905.11,-155.18 915.14,-158.6 915.08,-151.6"/>
</a>
</g>
<text text-anchor="start" x="929" y="-180" font-family="Helvetica,sans-Serif" font-size="10.00" fill="grey"> &lt; TMemberFunctionPointer,</text>
<text text-anchor="start" x="929" y="-169" font-family="Helvetica,sans-Serif" font-size="10.00" fill="grey"> std::pair&lt; unsigned int,</text>
<text text-anchor="middle" x="999" y="-158" font-family="Helvetica,sans-Serif" font-size="10.00" fill="grey"> int &gt; &gt;</text>
</g>
<!-- Node14&#45;&gt;Node13 -->
<g id="edge13_Node000013_Node000014" class="edge">
<title>Node14&#45;&gt;Node13</title>
<g id="a_edge13_Node000013_Node000014"><a xlink:title=" ">
<path fill="none" stroke="#9a32cd" stroke-dasharray="5,2" d="M643.5,-156C675.43,-156 710.3,-156 740.67,-156"/>
<polygon fill="#9a32cd" stroke="#9a32cd" points="643.25,-152.5 633.25,-156 643.25,-159.5 643.25,-152.5"/>
</a>
</g>
<text text-anchor="middle" x="684" y="-159" font-family="Helvetica,sans-Serif" font-size="10.00" fill="grey"> m_PFunction</text>
</g>
<!-- Node15 -->
<g id="Node000015" class="node">
<title>Node15</title>
<g id="a_Node000015"><a xlink:href="classitk_1_1simple_1_1detail_1_1MemberFunctionFactory.html" target="_top" xlink:title="A class used to instantiate and generate function object to templated member functions.">
<polygon fill="white" stroke="#666666" points="1458,-182.5 1297,-182.5 1297,-141.5 1458,-141.5 1458,-182.5"/>
<text text-anchor="start" x="1305" y="-170.5" font-family="Helvetica,sans-Serif" font-size="10.00">itk::simple::detail</text>
<text text-anchor="start" x="1305" y="-159.5" font-family="Helvetica,sans-Serif" font-size="10.00">::MemberFunctionFactory</text>
<text text-anchor="middle" x="1377.5" y="-148.5" font-family="Helvetica,sans-Serif" font-size="10.00">&lt; TMemberFunctionPointer &gt;</text>
</a>
</g>
</g>
<!-- Node15&#45;&gt;Node3 -->
<g id="edge15_Node000003_Node000015" class="edge">
<title>Node15&#45;&gt;Node3</title>
<g id="a_edge15_Node000003_Node000015"><a xlink:title=" ">
<path fill="none" stroke="orange" stroke-dasharray="5,2" d="M1468.21,-171.16C1522.42,-176.69 1590.52,-183.65 1640.87,-188.79"/>
<polygon fill="orange" stroke="orange" points="1468.57,-167.68 1458.26,-170.14 1467.85,-174.64 1468.57,-167.68"/>
</a>
</g>
<text text-anchor="middle" x="1545.5" y="-188" font-family="Helvetica,sans-Serif" font-size="10.00" fill="grey"> &lt; MemberFunctionType &gt;</text>
</g>
<!-- Node16&#45;&gt;Node15 -->
<g id="edge16_Node000015_Node000016" class="edge">
<title>Node16&#45;&gt;Node15</title>
<g id="a_edge16_Node000015_Node000016"><a xlink:title=" ">
<path fill="none" stroke="darkgreen" d="M1269.55,-157.77C1278.67,-158.13 1287.85,-158.5 1296.79,-158.85"/>
<polygon fill="darkgreen" stroke="darkgreen" points="1269.42,-154.27 1259.29,-157.37 1269.15,-161.26 1269.42,-154.27"/>
</a>
</g>
</g>
<!-- Node17&#45;&gt;Node2 -->
<g id="edge18_Node000002_Node000017" class="edge">
<title>Node17&#45;&gt;Node2</title>
<g id="a_edge18_Node000002_Node000017"><a xlink:title=" ">
<path fill="none" stroke="orange" stroke-dasharray="5,2" d="M1446.59,-107.31C1456.77,-108.35 1467.15,-109.29 1477,-110 1628.91,-120.91 1805.87,-124.82 1911.76,-126.22"/>
<polygon fill="orange" stroke="orange" points="1446.82,-103.82 1436.5,-106.25 1446.08,-110.78 1446.82,-103.82"/>
</a>
</g>
<text text-anchor="start" x="1643" y="-148" font-family="Helvetica,sans-Serif" font-size="10.00" fill="grey"> &lt; itk::simple::detail</text>
<text text-anchor="start" x="1643" y="-137" font-family="Helvetica,sans-Serif" font-size="10.00" fill="grey">::MemberFunctionFactory</text>
<text text-anchor="middle" x="1712.5" y="-126" font-family="Helvetica,sans-Serif" font-size="10.00" fill="grey">&lt; MemberFunctionType &gt; &gt;</text>
</g>
<!-- Node19 -->
<g id="Node000019" class="node">
<title>Node19</title>
<g id="a_Node000019"><a xlink:title=" ">
<polygon fill="white" stroke="#666666" points="1793,-86 1632,-86 1632,-56 1793,-56 1793,-86"/>
<text text-anchor="start" x="1640" y="-74" font-family="Helvetica,sans-Serif" font-size="10.00">std::unique_ptr&lt; itk</text>
<text text-anchor="middle" x="1712.5" y="-63" font-family="Helvetica,sans-Serif" font-size="10.00">::simple::PimpleImageBase &gt;</text>
</a>
</g>
</g>
<!-- Node17&#45;&gt;Node19 -->
<g id="edge23_Node000019_Node000017" class="edge">
<title>Node17&#45;&gt;Node19</title>
<g id="a_edge23_Node000019_Node000017"><a xlink:title=" ">
<path fill="none" stroke="orange" stroke-dasharray="5,2" d="M1446.62,-91.04C1456.8,-89.96 1467.17,-88.9 1477,-88 1528.52,-83.26 1586.51,-79.04 1631.93,-76"/>
<polygon fill="orange" stroke="orange" points="1446.1,-87.58 1436.54,-92.14 1446.86,-94.54 1446.1,-87.58"/>
</a>
</g>
<text text-anchor="start" x="1477" y="-102" font-family="Helvetica,sans-Serif" font-size="10.00" fill="grey"> &lt; itk::simple::PimpleImage</text>
<text text-anchor="middle" x="1545.5" y="-91" font-family="Helvetica,sans-Serif" font-size="10.00" fill="grey">Base &gt;</text>
</g>
<!-- Node18 -->
<g id="Node000018" class="node">
<title>Node18</title>
<g id="a_Node000018"><a xlink:href="classitk_1_1simple_1_1Image.html" target="_top" xlink:title="The Image class for SimpleITK.">
<polygon fill="white" stroke="#666666" points="2059.5,-80.5 1954.5,-80.5 1954.5,-61.5 2059.5,-61.5 2059.5,-80.5"/>
<text text-anchor="middle" x="2007" y="-68.5" font-family="Helvetica,sans-Serif" font-size="10.00">itk::simple::Image</text>
</a>
</g>
</g>
<!-- Node18&#45;&gt;Node1 -->
<g id="edge20_Node000001_Node000018" class="edge">
<title>Node18&#45;&gt;Node1</title>
<g id="a_edge20_Node000001_Node000018"><a xlink:title=" ">
<path fill="none" stroke="#9a32cd" stroke-dasharray="5,2" d="M2069.9,-71C2127.37,-71 2213.36,-71 2276.72,-71"/>
<polygon fill="#9a32cd" stroke="#9a32cd" points="2069.87,-67.5 2059.87,-71 2069.87,-74.5 2069.87,-67.5"/>
</a>
</g>
<text text-anchor="middle" x="2189.5" y="-96" font-family="Helvetica,sans-Serif" font-size="10.00" fill="grey"> m_DeformationField</text>
<text text-anchor="middle" x="2189.5" y="-85" font-family="Helvetica,sans-Serif" font-size="10.00" fill="grey">m_MovingImage</text>
<text text-anchor="middle" x="2189.5" y="-74" font-family="Helvetica,sans-Serif" font-size="10.00" fill="grey">m_ResultImage</text>
</g>
<!-- Node19&#45;&gt;Node18 -->
<g id="edge21_Node000018_Node000019" class="edge">
<title>Node19&#45;&gt;Node18</title>
<g id="a_edge21_Node000018_Node000019"><a xlink:title=" ">
<path fill="none" stroke="#9a32cd" stroke-dasharray="5,2" d="M1803.12,-71C1852.62,-71 1912.35,-71 1954.14,-71"/>
<polygon fill="#9a32cd" stroke="#9a32cd" points="1803.04,-67.5 1793.04,-71 1803.04,-74.5 1803.04,-67.5"/>
</a>
</g>
<text text-anchor="middle" x="1852.5" y="-74" font-family="Helvetica,sans-Serif" font-size="10.00" fill="grey"> m_PimpleImage</text>
</g>
<!-- Node20 -->
<g id="Node000020" class="node">
<title>Node20</title>
<g id="a_Node000020"><a xlink:href="classitk_1_1simple_1_1PimpleImageBase.html" target="_top" xlink:title="Private implementation idiom image base class.">
<polygon fill="white" stroke="#666666" points="1459,-62.5 1296,-62.5 1296,-43.5 1459,-43.5 1459,-62.5"/>
<text text-anchor="middle" x="1377.5" y="-50.5" font-family="Helvetica,sans-Serif" font-size="10.00">itk::simple::PimpleImageBase</text>
</a>
</g>
</g>
<!-- Node20&#45;&gt;Node19 -->
<g id="edge22_Node000019_Node000020" class="edge">
<title>Node20&#45;&gt;Node19</title>
<g id="a_edge22_Node000019_Node000020"><a xlink:title=" ">
<path fill="none" stroke="#9a32cd" stroke-dasharray="5,2" d="M1469.11,-49.83C1512.95,-49.2 1566.3,-49.77 1614,-54 1619.82,-54.52 1625.81,-55.19 1631.83,-55.98"/>
<polygon fill="#9a32cd" stroke="#9a32cd" points="1468.98,-46.33 1459.04,-50 1469.1,-53.33 1468.98,-46.33"/>
</a>
</g>
<text text-anchor="middle" x="1545.5" y="-57" font-family="Helvetica,sans-Serif" font-size="10.00" fill="grey"> ptr</text>
</g>
<!-- Node21 -->
<g id="Node000021" class="node">
<title>Node21</title>
<g id="a_Node000021"><a xlink:title=" ">
<polygon fill="white" stroke="#666666" points="2039.5,-24.5 1974.5,-24.5 1974.5,-5.5 2039.5,-5.5 2039.5,-24.5"/>
<text text-anchor="middle" x="2007" y="-12.5" font-family="Helvetica,sans-Serif" font-size="10.00">std::string</text>
</a>
</g>
</g>
<!-- Node21&#45;&gt;Node1 -->
<g id="edge24_Node000001_Node000021" class="edge">
<title>Node21&#45;&gt;Node1</title>
<g id="a_edge24_Node000001_Node000021"><a xlink:title=" ">
<path fill="none" stroke="#9a32cd" stroke-dasharray="5,2" d="M2049.86,-14.65C2100.1,-15.03 2186.64,-18.26 2259,-34 2276.71,-37.85 2295.51,-44.14 2312,-50.44"/>
<polygon fill="#9a32cd" stroke="#9a32cd" points="2049.72,-11.15 2039.71,-14.61 2049.69,-18.15 2049.72,-11.15"/>
</a>
</g>
<text text-anchor="middle" x="2189.5" y="-59" font-family="Helvetica,sans-Serif" font-size="10.00" fill="grey"> m_LogFileName</text>
<text text-anchor="middle" x="2189.5" y="-48" font-family="Helvetica,sans-Serif" font-size="10.00" fill="grey">m_MovingPointSetFileName</text>
<text text-anchor="middle" x="2189.5" y="-37" font-family="Helvetica,sans-Serif" font-size="10.00" fill="grey">m_OutputDirectory</text>
</g>
<!-- Node22 -->
<g id="Node000022" class="node">
<title>Node22</title>
<g id="a_Node000022"><a xlink:title=" ">
<polygon fill="white" stroke="#666666" points="1764.5,-30 1660.5,-30 1660.5,0 1764.5,0 1764.5,-30"/>
<text text-anchor="start" x="1668.5" y="-18" font-family="Helvetica,sans-Serif" font-size="10.00">std::basic_string&lt;</text>
<text text-anchor="middle" x="1712.5" y="-7" font-family="Helvetica,sans-Serif" font-size="10.00"> Char &gt;</text>
</a>
</g>
</g>
<!-- Node22&#45;&gt;Node21 -->
<g id="edge25_Node000021_Node000022" class="edge">
<title>Node22&#45;&gt;Node21</title>
<g id="a_edge25_Node000021_Node000022"><a xlink:title=" ">
<path fill="none" stroke="#63b8ff" d="M1775.03,-15C1835.88,-15 1926.6,-15 1974.21,-15"/>
<polygon fill="#63b8ff" stroke="#63b8ff" points="1774.78,-11.5 1764.78,-15 1774.78,-18.5 1774.78,-11.5"/>
</a>
</g>
</g>
</g>
</svg>

<g id="navigator" transform="translate(0 0)" fill="#404254">
  <rect fill="#f2f5e9" fill-opacity="0.5" stroke="#606060" stroke-width=".5" x="0" y="0" width="60" height="60"/>
  <use id="zoomplus" xlink:href="#zoomPlus" x="17" y="9" onmousedown="handleZoom(evt,'in')"/>
  <use id="zoomminus" xlink:href="#zoomMin" x="42" y="9" onmousedown="handleZoom(evt,'out')"/>
  <use id="reset" xlink:href="#resetDef" x="30" y="36" onmousedown="handleReset()"/>
   <use id="arrowup" xlink:href="#arrowUp" x="0" y="0" onmousedown="handlePan(0,-1)"/>
  <use id="arrowright" xlink:href="#arrowRight" x="0" y="0" onmousedown="handlePan(1,0)"/>
  <use id="arrowdown" xlink:href="#arrowDown" x="0" y="0" onmousedown="handlePan(0,1)"/>
  <use id="arrowleft" xlink:href="#arrowLeft" x="0" y="0" onmousedown="handlePan(-1,0)"/>
</g>
<svg viewBox="0 0 15 15" width="100%" height="30px" preserveAspectRatio="xMaxYMin meet">
 <g id="arrow_out" transform="scale(0.3 0.3)">
  <a xlink:href="classitk_1_1simple_1_1TransformixImageFilter_1_1TransformixImageFilterImpl__coll__graph_org.svg" target="_base">
   <rect id="button" ry="5" rx="5" y="6" x="6" height="38" width="38"
        fill="#f2f5e9" fill-opacity="0.5" stroke="#606060" stroke-width="1.0"/>
   <path id="arrow"
     d="M 11.500037,31.436501 C 11.940474,20.09759 22.043105,11.32322 32.158766,21.979434 L 37.068811,17.246167 C 37.068811,17.246167 37.088388,32 37.088388,32 L 22.160133,31.978069 C 22.160133,31.978069 26.997745,27.140456 26.997745,27.140456 C 18.528582,18.264221 13.291696,25.230495 11.500037,31.436501 z"
     style="fill:#404040;"/>
  </a>
 </g>
</svg>

<style type='text/css'>
<![CDATA[
[data-mouse-over-selected='false'] { opacity: 0.7; }
[data-mouse-over-selected='true']  { opacity: 1.0; }
]]>
</style>
<script type="application/ecmascript"><![CDATA[
document.addEventListener('DOMContentLoaded', (event) => {
  highlightEdges();
  highlightAdjacentNodes();
});
]]></script>
</svg>
