<?xml version="1.0" encoding="UTF-8" standalone="no"?>
<!DOCTYPE svg PUBLIC "-//W3C//DTD SVG 1.1//EN"
 "http://www.w3.org/Graphics/SVG/1.1/DTD/svg11.dtd">
<!-- Generated by graphviz version 2.43.0 (0)
 -->
<!-- Title: itk::HashImageFilter&lt; TImageType &gt; Pages: 1 -->
<svg width="2696pt" height="105pt"
 viewBox="0.00 0.00 2696.00 105.00" xmlns="http://www.w3.org/2000/svg" xmlns:xlink="http://www.w3.org/1999/xlink">
<g id="graph0" class="graph" transform="scale(1 1) rotate(0) translate(4 101)">
<title>itk::HashImageFilter&lt; TImageType &gt;</title>
<!-- Node1 -->
<g id="Node000001" class="node">
<title>Node1</title>
<g id="a_Node000001"><a xlink:title="Generates a hash string from an image.">
<polygon fill="#999999" stroke="#666666" points="2688,-74.5 2572,-74.5 2572,-44.5 2688,-44.5 2688,-74.5"/>
<text text-anchor="start" x="2580" y="-62.5" font-family="Helvetica,sans-Serif" font-size="10.00">itk::HashImageFilter</text>
<text text-anchor="middle" x="2630" y="-51.5" font-family="Helvetica,sans-Serif" font-size="10.00">&lt; TImageType &gt;</text>
</a>
</g>
</g>
<!-- Node2 -->
<g id="Node000002" class="node">
<title>Node2</title>
<g id="a_Node000002"><a target="_parent" xlink:href="https://www.itk.org/Doxygen/html/classitk_1_1CastImageFilter.html" xlink:title=" ">
<polygon fill="white" stroke="#666666" points="2535,-74.5 2371,-74.5 2371,-44.5 2535,-44.5 2535,-74.5"/>
<text text-anchor="start" x="2379" y="-62.5" font-family="Helvetica,sans-Serif" font-size="10.00">itk::CastImageFilter</text>
<text text-anchor="middle" x="2453" y="-51.5" font-family="Helvetica,sans-Serif" font-size="10.00">&lt; TImageType, TImageType &gt;</text>
</a>
</g>
</g>
<!-- Node2&#45;&gt;Node1 -->
<g id="edge1_Node000001_Node000002" class="edge">
<title>Node2&#45;&gt;Node1</title>
<g id="a_edge1_Node000001_Node000002"><a xlink:title=" ">
<path fill="none" stroke="#63b8ff" d="M2545.31,-59.5C2554.35,-59.5 2563.34,-59.5 2571.89,-59.5"/>
<polygon fill="#63b8ff" stroke="#63b8ff" points="2545.1,-56 2535.1,-59.5 2545.1,-63 2545.1,-56"/>
</a>
</g>
</g>
<!-- Node3 -->
<g id="Node000003" class="node">
<title>Node3</title>
<g id="a_Node000003"><a target="_parent" xlink:href="https://www.itk.org/Doxygen/html/classitk_1_1InPlaceImageFilter.html" xlink:title=" ">
<polygon fill="white" stroke="#666666" points="1994,-73.5 1818,-73.5 1818,-43.5 1994,-43.5 1994,-73.5"/>
<text text-anchor="start" x="1826" y="-61.5" font-family="Helvetica,sans-Serif" font-size="10.00">itk::InPlaceImageFilter</text>
<text text-anchor="middle" x="1906" y="-50.5" font-family="Helvetica,sans-Serif" font-size="10.00">&lt; TInputImage, TOutputImage &gt;</text>
</a>
</g>
</g>
<!-- Node3&#45;&gt;Node2 -->
<g id="edge2_Node000002_Node000003" class="edge">
<title>Node3&#45;&gt;Node2</title>
<g id="a_edge2_Node000002_Node000003"><a xlink:title=" ">
<path fill="none" stroke="#63b8ff" d="M2004.25,-62.58C2013.29,-62.91 2022.32,-63.22 2031,-63.5 2174.05,-68.06 2209.99,-73.27 2353,-67.5 2358.86,-67.26 2364.91,-66.95 2370.99,-66.58"/>
<polygon fill="#63b8ff" stroke="#63b8ff" points="2004.17,-59.07 1994.05,-62.2 2003.91,-66.07 2004.17,-59.07"/>
</a>
</g>
</g>
<!-- Node14 -->
<g id="Node000014" class="node">
<title>Node14</title>
<g id="a_Node000014"><a target="_parent" xlink:href="https://www.itk.org/Doxygen/html/classitk_1_1CastImageFilter.html" xlink:title=" ">
<polygon fill="white" stroke="#666666" points="2184,-55 2031,-55 2031,-14 2184,-14 2184,-55"/>
<text text-anchor="start" x="2039" y="-43" font-family="Helvetica,sans-Serif" font-size="10.00">itk::CastImageFilter</text>
<text text-anchor="start" x="2039" y="-32" font-family="Helvetica,sans-Serif" font-size="10.00">&lt; typename TInputImage,</text>
<text text-anchor="middle" x="2107.5" y="-21" font-family="Helvetica,sans-Serif" font-size="10.00"> typename TOutputImage &gt;</text>
</a>
</g>
</g>
<!-- Node3&#45;&gt;Node14 -->
<g id="edge19_Node000014_Node000003" class="edge">
<title>Node3&#45;&gt;Node14</title>
<g id="a_edge19_Node000014_Node000003"><a xlink:title=" ">
<path fill="none" stroke="#63b8ff" d="M2004.23,-46.8C2013.13,-45.73 2022.05,-44.66 2030.72,-43.62"/>
<polygon fill="#63b8ff" stroke="#63b8ff" points="2003.72,-43.34 1994.21,-48.01 2004.56,-50.29 2003.72,-43.34"/>
</a>
</g>
</g>
<!-- Node4 -->
<g id="Node000004" class="node">
<title>Node4</title>
<g id="a_Node000004"><a target="_parent" xlink:href="https://www.itk.org/Doxygen/html/classitk_1_1ImageToImageFilter.html" xlink:title=" ">
<polygon fill="white" stroke="#666666" points="1429,-72.5 1261,-72.5 1261,-42.5 1429,-42.5 1429,-72.5"/>
<text text-anchor="start" x="1269" y="-60.5" font-family="Helvetica,sans-Serif" font-size="10.00">itk::ImageToImageFilter</text>
<text text-anchor="middle" x="1345" y="-49.5" font-family="Helvetica,sans-Serif" font-size="10.00">&lt; TInputImage, TInputImage &gt;</text>
</a>
</g>
</g>
<!-- Node4&#45;&gt;Node3 -->
<g id="edge3_Node000003_Node000004" class="edge">
<title>Node4&#45;&gt;Node3</title>
<g id="a_edge3_Node000003_Node000004"><a xlink:title=" ">
<path fill="none" stroke="#63b8ff" d="M1439.4,-61.56C1448.39,-61.9 1457.37,-62.22 1466,-62.5 1614.38,-67.33 1651.65,-72.14 1800,-66.5 1805.85,-66.28 1811.87,-65.99 1817.94,-65.65"/>
<polygon fill="#63b8ff" stroke="#63b8ff" points="1439.4,-58.06 1429.27,-61.17 1439.13,-65.05 1439.4,-58.06"/>
</a>
</g>
</g>
<!-- Node13 -->
<g id="Node000013" class="node">
<title>Node13</title>
<g id="a_Node000013"><a target="_parent" xlink:href="https://www.itk.org/Doxygen/html/classitk_1_1InPlaceImageFilter.html" xlink:title=" ">
<polygon fill="white" stroke="#666666" points="1619,-54 1466,-54 1466,-13 1619,-13 1619,-54"/>
<text text-anchor="start" x="1474" y="-42" font-family="Helvetica,sans-Serif" font-size="10.00">itk::InPlaceImageFilter</text>
<text text-anchor="start" x="1474" y="-31" font-family="Helvetica,sans-Serif" font-size="10.00">&lt; typename TInputImage,</text>
<text text-anchor="middle" x="1542.5" y="-20" font-family="Helvetica,sans-Serif" font-size="10.00"> typename TOutputImage &gt;</text>
</a>
</g>
</g>
<!-- Node4&#45;&gt;Node13 -->
<g id="edge17_Node000013_Node000004" class="edge">
<title>Node4&#45;&gt;Node13</title>
<g id="a_edge17_Node000013_Node000004"><a xlink:title=" ">
<path fill="none" stroke="#63b8ff" d="M1439.22,-46.06C1448.14,-44.96 1457.1,-43.86 1465.82,-42.79"/>
<polygon fill="#63b8ff" stroke="#63b8ff" points="1438.69,-42.59 1429.19,-47.29 1439.55,-49.54 1438.69,-42.59"/>
</a>
</g>
</g>
<!-- Node5 -->
<g id="Node000005" class="node">
<title>Node5</title>
<g id="a_Node000005"><a target="_parent" xlink:href="https://www.itk.org/Doxygen/html/classitk_1_1ImageSource.html" xlink:title=" ">
<polygon fill="white" stroke="#666666" points="866.5,-47.5 717.5,-47.5 717.5,-17.5 866.5,-17.5 866.5,-47.5"/>
<text text-anchor="start" x="725.5" y="-35.5" font-family="Helvetica,sans-Serif" font-size="10.00">itk::ImageSource&lt; TOutput</text>
<text text-anchor="middle" x="792" y="-24.5" font-family="Helvetica,sans-Serif" font-size="10.00">Image &gt;</text>
</a>
</g>
</g>
<!-- Node5&#45;&gt;Node4 -->
<g id="edge4_Node000004_Node000005" class="edge">
<title>Node5&#45;&gt;Node4</title>
<g id="a_edge4_Node000004_Node000005"><a xlink:title=" ">
<path fill="none" stroke="#63b8ff" d="M876.92,-28.66C890.32,-28.18 904.04,-27.76 917,-27.5 984.99,-26.13 1002.1,-23.79 1070,-27.5 1134.27,-31.01 1206.64,-39.11 1260.86,-46.01"/>
<polygon fill="#63b8ff" stroke="#63b8ff" points="876.61,-25.17 866.75,-29.04 876.87,-32.16 876.61,-25.17"/>
</a>
</g>
</g>
<!-- Node12 -->
<g id="Node000012" class="node">
<title>Node12</title>
<g id="a_Node000012"><a target="_parent" xlink:href="https://www.itk.org/Doxygen/html/classitk_1_1ImageToImageFilter.html" xlink:title=" ">
<polygon fill="white" stroke="#666666" points="1070,-78 917,-78 917,-37 1070,-37 1070,-78"/>
<text text-anchor="start" x="925" y="-66" font-family="Helvetica,sans-Serif" font-size="10.00">itk::ImageToImageFilter</text>
<text text-anchor="start" x="925" y="-55" font-family="Helvetica,sans-Serif" font-size="10.00">&lt; typename TInputImage,</text>
<text text-anchor="middle" x="993.5" y="-44" font-family="Helvetica,sans-Serif" font-size="10.00"> typename TOutputImage &gt;</text>
</a>
</g>
</g>
<!-- Node5&#45;&gt;Node12 -->
<g id="edge14_Node000012_Node000005" class="edge">
<title>Node5&#45;&gt;Node12</title>
<g id="a_edge14_Node000012_Node000005"><a xlink:title=" ">
<path fill="none" stroke="#63b8ff" d="M876.77,-43C890.03,-44.66 903.68,-46.37 916.75,-48.01"/>
<polygon fill="#63b8ff" stroke="#63b8ff" points="877.08,-39.51 866.72,-41.74 876.21,-46.45 877.08,-39.51"/>
</a>
</g>
</g>
<!-- Node6 -->
<g id="Node000006" class="node">
<title>Node6</title>
<g id="a_Node000006"><a target="_parent" xlink:href="https://www.itk.org/Doxygen/html/classitk_1_1ProcessObject.html" xlink:title=" ">
<polygon fill="white" stroke="#666666" points="355.5,-19 251.5,-19 251.5,0 355.5,0 355.5,-19"/>
<text text-anchor="middle" x="303.5" y="-7" font-family="Helvetica,sans-Serif" font-size="10.00">itk::ProcessObject</text>
</a>
</g>
</g>
<!-- Node6&#45;&gt;Node5 -->
<g id="edge5_Node000005_Node000006" class="edge">
<title>Node6&#45;&gt;Node5</title>
<g id="a_edge5_Node000005_Node000006"><a xlink:title=" ">
<path fill="none" stroke="#63b8ff" d="M365.88,-8.83C380.96,-8.69 397.06,-8.57 412,-8.5 483.11,-8.17 500.99,-4.62 572,-8.5 620.6,-11.15 674.99,-17.1 717.42,-22.41"/>
<polygon fill="#63b8ff" stroke="#63b8ff" points="365.59,-5.33 355.63,-8.93 365.66,-12.33 365.59,-5.33"/>
</a>
</g>
</g>
<!-- Node10 -->
<g id="Node000010" class="node">
<title>Node10</title>
<g id="a_Node000010"><a target="_parent" xlink:href="https://www.itk.org/Doxygen/html/classitk_1_1ImageSource.html" xlink:title=" ">
<polygon fill="white" stroke="#666666" points="572,-47.5 412,-47.5 412,-17.5 572,-17.5 572,-47.5"/>
<text text-anchor="start" x="420" y="-35.5" font-family="Helvetica,sans-Serif" font-size="10.00">itk::ImageSource&lt; typename</text>
<text text-anchor="middle" x="492" y="-24.5" font-family="Helvetica,sans-Serif" font-size="10.00"> TOutputImage &gt;</text>
</a>
</g>
</g>
<!-- Node6&#45;&gt;Node10 -->
<g id="edge10_Node000010_Node000006" class="edge">
<title>Node6&#45;&gt;Node10</title>
<g id="a_edge10_Node000010_Node000006"><a xlink:title=" ">
<path fill="none" stroke="#63b8ff" d="M365.89,-17.07C380.55,-18.88 396.4,-20.83 411.74,-22.73"/>
<polygon fill="#63b8ff" stroke="#63b8ff" points="366.31,-13.6 355.96,-15.85 365.45,-20.54 366.31,-13.6"/>
</a>
</g>
</g>
<!-- Node7 -->
<g id="Node000007" class="node">
<title>Node7</title>
<g id="a_Node000007"><a target="_parent" xlink:href="https://www.itk.org/Doxygen/html/classitk_1_1Object.html" xlink:title=" ">
<polygon fill="white" stroke="#666666" points="195,-19 128,-19 128,0 195,0 195,-19"/>
<text text-anchor="middle" x="161.5" y="-7" font-family="Helvetica,sans-Serif" font-size="10.00">itk::Object</text>
</a>
</g>
</g>
<!-- Node7&#45;&gt;Node6 -->
<g id="edge6_Node000006_Node000007" class="edge">
<title>Node7&#45;&gt;Node6</title>
<g id="a_edge6_Node000006_Node000007"><a xlink:title=" ">
<path fill="none" stroke="#63b8ff" d="M205.49,-9.5C219.95,-9.5 236.22,-9.5 251.25,-9.5"/>
<polygon fill="#63b8ff" stroke="#63b8ff" points="205.32,-6 195.32,-9.5 205.32,-13 205.32,-6"/>
</a>
</g>
</g>
<!-- Node8 -->
<g id="Node000008" class="node">
<title>Node8</title>
<g id="a_Node000008"><a target="_parent" xlink:href="https://www.itk.org/Doxygen/html/classitk_1_1LightObject.html" xlink:title=" ">
<polygon fill="white" stroke="#666666" points="91,-19 0,-19 0,0 91,0 91,-19"/>
<text text-anchor="middle" x="45.5" y="-7" font-family="Helvetica,sans-Serif" font-size="10.00">itk::LightObject</text>
</a>
</g>
</g>
<!-- Node8&#45;&gt;Node7 -->
<g id="edge7_Node000007_Node000008" class="edge">
<title>Node8&#45;&gt;Node7</title>
<g id="a_edge7_Node000007_Node000008"><a xlink:title=" ">
<path fill="none" stroke="#63b8ff" d="M101.39,-9.5C110.45,-9.5 119.59,-9.5 127.88,-9.5"/>
<polygon fill="#63b8ff" stroke="#63b8ff" points="101.23,-6 91.23,-9.5 101.23,-13 101.23,-6"/>
</a>
</g>
</g>
<!-- Node9 -->
<g id="Node000009" class="node">
<title>Node9</title>
<g id="a_Node000009"><a target="_parent" xlink:href="https://www.itk.org/Doxygen/html/structitk_1_1ImageSourceCommon.html" xlink:title=" ">
<polygon fill="white" stroke="#666666" points="375,-66 232,-66 232,-47 375,-47 375,-66"/>
<text text-anchor="middle" x="303.5" y="-54" font-family="Helvetica,sans-Serif" font-size="10.00">itk::ImageSourceCommon</text>
</a>
</g>
</g>
<!-- Node9&#45;&gt;Node5 -->
<g id="edge8_Node000005_Node000009" class="edge">
<title>Node9&#45;&gt;Node5</title>
<g id="a_edge8_Node000005_Node000009"><a xlink:title=" ">
<path fill="none" stroke="#8b1a1a" d="M385.34,-59.52C388.27,-59.53 391.16,-59.52 394,-59.5 523.88,-58.41 556.9,-61.8 686,-47.5 696.16,-46.37 706.85,-45.03 717.36,-43.62"/>
<polygon fill="#8b1a1a" stroke="#8b1a1a" points="385.37,-56.02 375.33,-59.42 385.3,-63.02 385.37,-56.02"/>
</a>
</g>
</g>
<!-- Node9&#45;&gt;Node10 -->
<g id="edge11_Node000010_Node000009" class="edge">
<title>Node9&#45;&gt;Node10</title>
<g id="a_edge11_Node000010_Node000009"><a xlink:title=" ">
<path fill="none" stroke="#8b1a1a" d="M385.01,-46.14C393.95,-44.99 403.04,-43.82 411.96,-42.67"/>
<polygon fill="#8b1a1a" stroke="#8b1a1a" points="384.48,-42.68 375.01,-47.43 385.37,-49.62 384.48,-42.68"/>
</a>
</g>
</g>
<!-- Node10&#45;&gt;Node5 -->
<g id="edge9_Node000005_Node000010" class="edge">
<title>Node10&#45;&gt;Node5</title>
<g id="a_edge9_Node000005_Node000010"><a xlink:title=" ">
<path fill="none" stroke="orange" stroke-dasharray="5,2" d="M582.29,-32.5C625.43,-32.5 676.58,-32.5 717.45,-32.5"/>
<polygon fill="orange" stroke="orange" points="582.08,-29 572.08,-32.5 582.08,-36 582.08,-29"/>
</a>
</g>
<text text-anchor="middle" x="638" y="-35.5" font-family="Helvetica,sans-Serif" font-size="10.00" fill="grey"> &lt; TOutputImage &gt;</text>
</g>
<!-- Node11 -->
<g id="Node000011" class="node">
<title>Node11</title>
<g id="a_Node000011"><a target="_parent" xlink:href="https://www.itk.org/Doxygen/html/classitk_1_1ImageToImageFilterCommon.html" xlink:title=" ">
<polygon fill="white" stroke="#666666" points="880,-97 704,-97 704,-78 880,-78 880,-97"/>
<text text-anchor="middle" x="792" y="-85" font-family="Helvetica,sans-Serif" font-size="10.00">itk::ImageToImageFilterCommon</text>
</a>
</g>
</g>
<!-- Node11&#45;&gt;Node4 -->
<g id="edge12_Node000004_Node000011" class="edge">
<title>Node11&#45;&gt;Node4</title>
<g id="a_edge12_Node000004_Node000011"><a xlink:title=" ">
<path fill="none" stroke="#8b1a1a" d="M890.16,-89.55C943.31,-90.16 1010.31,-90.08 1070,-87.5 1147.11,-84.16 1166.35,-81.51 1243,-72.5 1248.81,-71.82 1254.8,-71.06 1260.83,-70.26"/>
<polygon fill="#8b1a1a" stroke="#8b1a1a" points="890.1,-86.05 880.06,-89.43 890.02,-93.05 890.1,-86.05"/>
</a>
</g>
</g>
<!-- Node11&#45;&gt;Node12 -->
<g id="edge15_Node000012_Node000011" class="edge">
<title>Node11&#45;&gt;Node12</title>
<g id="a_edge15_Node000012_Node000011"><a xlink:title=" ">
<path fill="none" stroke="#8b1a1a" d="M866.45,-76.46C882.83,-73.99 900.23,-71.38 916.7,-68.9"/>
<polygon fill="#8b1a1a" stroke="#8b1a1a" points="865.77,-73.02 856.4,-77.97 866.81,-79.94 865.77,-73.02"/>
</a>
</g>
</g>
<!-- Node12&#45;&gt;Node4 -->
<g id="edge13_Node000004_Node000012" class="edge">
<title>Node12&#45;&gt;Node4</title>
<g id="a_edge13_Node000004_Node000012"><a xlink:title=" ">
<path fill="none" stroke="orange" stroke-dasharray="5,2" d="M1080.42,-57.5C1135.46,-57.5 1206.52,-57.5 1260.98,-57.5"/>
<polygon fill="orange" stroke="orange" points="1080.34,-54 1070.34,-57.5 1080.34,-61 1080.34,-54"/>
</a>
</g>
<text text-anchor="middle" x="1165.5" y="-60.5" font-family="Helvetica,sans-Serif" font-size="10.00" fill="grey"> &lt; TInputImage, TInputImage &gt;</text>
</g>
<!-- Node13&#45;&gt;Node3 -->
<g id="edge16_Node000003_Node000013" class="edge">
<title>Node13&#45;&gt;Node3</title>
<g id="a_edge16_Node000003_Node000013"><a xlink:title=" ">
<path fill="none" stroke="orange" stroke-dasharray="5,2" d="M1629.34,-39.44C1686.25,-43.37 1760.7,-48.52 1817.88,-52.48"/>
<polygon fill="orange" stroke="orange" points="1629.5,-35.94 1619.28,-38.74 1629.02,-42.92 1629.5,-35.94"/>
</a>
</g>
<text text-anchor="middle" x="1718.5" y="-54.5" font-family="Helvetica,sans-Serif" font-size="10.00" fill="grey"> &lt; TInputImage, TOutputImage &gt;</text>
</g>
<!-- Node14&#45;&gt;Node2 -->
<g id="edge18_Node000002_Node000014" class="edge">
<title>Node14&#45;&gt;Node2</title>
<g id="a_edge18_Node000002_Node000014"><a xlink:title=" ">
<path fill="none" stroke="orange" stroke-dasharray="5,2" d="M2194.56,-40.76C2248.63,-44.7 2317.92,-49.74 2371,-53.6"/>
<polygon fill="orange" stroke="orange" points="2194.54,-37.25 2184.31,-40.02 2194.03,-44.23 2194.54,-37.25"/>
</a>
</g>
<text text-anchor="middle" x="2277.5" y="-55.5" font-family="Helvetica,sans-Serif" font-size="10.00" fill="grey"> &lt; TImageType, TImageType &gt;</text>
</g>
</g>
</svg>
