<?xml version="1.0" encoding="UTF-8" standalone="no"?>
<!DOCTYPE svg PUBLIC "-//W3C//DTD SVG 1.1//EN"
 "http://www.w3.org/Graphics/SVG/1.1/DTD/svg11.dtd">
<!-- Generated by graphviz version 2.43.0 (0)
 -->
<!-- Title: itk::simple::ScalarImageKmeansImageFilter Pages: 1 -->
<!--zoomable 395 -->
<svg id="main" version="1.1" xmlns="http://www.w3.org/2000/svg" xmlns:xlink="http://www.w3.org/1999/xlink" xml:space="preserve" onload="init(evt)">
<style type="text/css"><![CDATA[
.edge:hover path { stroke: red; }
.edge:hover polygon { stroke: red; fill: red; }
]]></style>
<script type="text/javascript"><![CDATA[
var edges = document.getElementsByTagName('g');
if (edges && edges.length) {
  for (var i=0;i<edges.length;i++) {
    if (edges[i].id.substr(0,4)=='edge') {
      edges[i].setAttribute('class','edge');
    }
  }
}
]]></script>
        <defs>
                <circle id="rim" cx="0" cy="0" r="7"/>
                <circle id="rim2" cx="0" cy="0" r="3.5"/>
                <g id="zoomPlus">
                        <use xlink:href="#rim" fill="#404040">
                                <set attributeName="fill" to="#808080" begin="zoomplus.mouseover" end="zoomplus.mouseout"/>
                        </use>
                        <path d="M-4,0h8M0,-4v8" fill="none" stroke="white" stroke-width="1.5" pointer-events="none"/>
                </g>
                <g id="zoomMin">
                        <use xlink:href="#rim" fill="#404040">
                                <set attributeName="fill" to="#808080" begin="zoomminus.mouseover" end="zoomminus.mouseout"/>
                        </use>
                        <path d="M-4,0h8" fill="none" stroke="white" stroke-width="1.5" pointer-events="none"/>
                </g>
                <g id="dirArrow">
                        <path fill="none" stroke="white" stroke-width="1.5" d="M0,-3.0v7 M-2.5,-0.5L0,-3.0L2.5,-0.5"/>
                </g>
               <g id="resetDef">
                       <use xlink:href="#rim2" fill="#404040">
                               <set attributeName="fill" to="#808080" begin="reset.mouseover" end="reset.mouseout"/>
                       </use>
               </g>
        </defs>

<script type="text/javascript">
var viewWidth = 2782;
var viewHeight = 395;
var sectionId = 'dynsection-1';
</script>
<script xlink:href="svgpan.js"/>
<svg id="graph" class="graph">
<g id="viewport">
<title>itk::simple::ScalarImageKmeansImageFilter</title>
<polygon fill="white" stroke="transparent" points="-4,4 -4,-390.5 2778,-390.5 2778,4 -4,4"/>
<!-- Node1 -->
<g id="node1" class="node">
<title>Node1</title>
<g id="a_node1"><a xlink:title="Classifies the intensity values of a scalar image using the K&#45;Means algorithm.">
<polygon fill="#bfbfbf" stroke="black" points="2639,-187.5 2639,-217.5 2774,-217.5 2774,-187.5 2639,-187.5"/>
<text text-anchor="start" x="2647" y="-205.5" font-family="Helvetica,sans-Serif" font-size="10.00">itk::simple::ScalarImage</text>
<text text-anchor="middle" x="2706.5" y="-194.5" font-family="Helvetica,sans-Serif" font-size="10.00">KmeansImageFilter</text>
</a>
</g>
</g>
<!-- Node2 -->
<g id="node2" class="node">
<title>Node2</title>
<g id="a_node2"><a xlink:href="classitk_1_1simple_1_1ImageFilter.html" target="_top" xlink:title="The base interface for SimpleITK filters that take one input image.">
<polygon fill="white" stroke="black" points="2349,-246 2349,-265 2479,-265 2479,-246 2349,-246"/>
<text text-anchor="middle" x="2414" y="-253" font-family="Helvetica,sans-Serif" font-size="10.00">itk::simple::ImageFilter</text>
</a>
</g>
</g>
<!-- Node2&#45;&gt;Node1 -->
<g id="edge1" class="edge">
<title>Node2&#45;&gt;Node1</title>
<path fill="none" stroke="midnightblue" d="M2477.14,-244.16C2524.7,-235.49 2590.18,-223.54 2638.83,-214.66"/>
<polygon fill="midnightblue" stroke="midnightblue" points="2476.48,-240.73 2467.27,-245.96 2477.74,-247.61 2476.48,-240.73"/>
</g>
<!-- Node3 -->
<g id="node3" class="node">
<title>Node3</title>
<g id="a_node3"><a xlink:href="classitk_1_1simple_1_1ProcessObject.html" target="_top" xlink:title="Base class for SimpleITK classes based on ProcessObject.">
<polygon fill="white" stroke="black" points="2123,-250 2123,-269 2266,-269 2266,-250 2123,-250"/>
<text text-anchor="middle" x="2194.5" y="-257" font-family="Helvetica,sans-Serif" font-size="10.00">itk::simple::ProcessObject</text>
</a>
</g>
</g>
<!-- Node3&#45;&gt;Node2 -->
<g id="edge2" class="edge">
<title>Node3&#45;&gt;Node2</title>
<path fill="none" stroke="midnightblue" d="M2276.27,-258.01C2300.26,-257.57 2326.21,-257.1 2348.99,-256.68"/>
<polygon fill="midnightblue" stroke="midnightblue" points="2276.05,-254.52 2266.12,-258.2 2276.18,-261.52 2276.05,-254.52"/>
</g>
<!-- Node4 -->
<g id="node4" class="node">
<title>Node4</title>
<g id="a_node4"><a xlink:href="classitk_1_1simple_1_1NonCopyable.html" target="_top" xlink:title="An inheritable class to disable copying of a class.">
<polygon fill="white" stroke="black" points="382,-367 382,-386 522,-386 522,-367 382,-367"/>
<text text-anchor="middle" x="452" y="-374" font-family="Helvetica,sans-Serif" font-size="10.00">itk::simple::NonCopyable</text>
</a>
</g>
</g>
<!-- Node4&#45;&gt;Node3 -->
<g id="edge3" class="edge">
<title>Node4&#45;&gt;Node3</title>
<path fill="none" stroke="darkgreen" d="M532.21,-376.14C601.94,-375.85 706.21,-375.5 797,-375.5 797,-375.5 797,-375.5 1864.5,-375.5 1991.99,-375.5 2132.26,-297.07 2178.1,-269.19"/>
<polygon fill="darkgreen" stroke="darkgreen" points="532.17,-372.64 522.18,-376.18 532.2,-379.64 532.17,-372.64"/>
</g>
<!-- Node8 -->
<g id="node8" class="node">
<title>Node8</title>
<g id="a_node8"><a xlink:href="classitk_1_1simple_1_1ObjectOwnedBase.html" target="_top" xlink:title="An abstract base class to connect this object with the lifetime of another.">
<polygon fill="white" stroke="black" points="716,-298 716,-317 880,-317 880,-298 716,-298"/>
<text text-anchor="middle" x="798" y="-305" font-family="Helvetica,sans-Serif" font-size="10.00">itk::simple::ObjectOwnedBase</text>
</a>
</g>
</g>
<!-- Node4&#45;&gt;Node8 -->
<g id="edge8" class="edge">
<title>Node4&#45;&gt;Node8</title>
<path fill="none" stroke="midnightblue" d="M527.09,-365.43C586.97,-356.29 666.32,-343.7 698,-336.5 721.75,-331.1 748.21,-323.26 767.79,-317.09"/>
<polygon fill="midnightblue" stroke="midnightblue" points="526.27,-362.02 516.91,-366.98 527.32,-368.94 526.27,-362.02"/>
</g>
<!-- Node5 -->
<g id="node5" class="node">
<title>Node5</title>
<g id="a_node5"><a xlink:title=" ">
<polygon fill="white" stroke="#bfbfbf" points="1770,-244.5 1770,-274.5 1957,-274.5 1957,-244.5 1770,-244.5"/>
<text text-anchor="start" x="1778" y="-262.5" font-family="Helvetica,sans-Serif" font-size="10.00">std::list&lt; itk::simple</text>
<text text-anchor="middle" x="1863.5" y="-251.5" font-family="Helvetica,sans-Serif" font-size="10.00">::ProcessObject::EventCommand &gt;</text>
</a>
</g>
</g>
<!-- Node5&#45;&gt;Node3 -->
<g id="edge4" class="edge">
<title>Node5&#45;&gt;Node3</title>
<path fill="none" stroke="#9a32cd" stroke-dasharray="5,2" d="M1967.33,-259.5C2017.85,-259.5 2077.45,-259.5 2122.79,-259.5"/>
<polygon fill="#9a32cd" stroke="#9a32cd" points="1967.02,-256 1957.02,-259.5 1967.02,-263 1967.02,-256"/>
<text text-anchor="middle" x="2040" y="-262.5" font-family="Helvetica,sans-Serif" font-size="10.00"> m_Commands</text>
</g>
<!-- Node6 -->
<g id="node6" class="node">
<title>Node6</title>
<g id="a_node6"><a xlink:href="structitk_1_1simple_1_1ProcessObject_1_1EventCommand.html" target="_top" xlink:title=" ">
<polygon fill="white" stroke="black" points="1412.5,-280.5 1412.5,-310.5 1555.5,-310.5 1555.5,-280.5 1412.5,-280.5"/>
<text text-anchor="start" x="1420.5" y="-298.5" font-family="Helvetica,sans-Serif" font-size="10.00">itk::simple::ProcessObject</text>
<text text-anchor="middle" x="1484" y="-287.5" font-family="Helvetica,sans-Serif" font-size="10.00">::EventCommand</text>
</a>
</g>
</g>
<!-- Node6&#45;&gt;Node5 -->
<g id="edge5" class="edge">
<title>Node6&#45;&gt;Node5</title>
<path fill="none" stroke="#9a32cd" stroke-dasharray="5,2" d="M1565.72,-287.8C1625.58,-282.09 1707.29,-274.3 1769.81,-268.34"/>
<polygon fill="#9a32cd" stroke="#9a32cd" points="1565.18,-284.34 1555.56,-288.77 1565.85,-291.31 1565.18,-284.34"/>
<text text-anchor="middle" x="1670" y="-288.5" font-family="Helvetica,sans-Serif" font-size="10.00"> elements</text>
</g>
<!-- Node7 -->
<g id="node7" class="node">
<title>Node7</title>
<g id="a_node7"><a xlink:href="classitk_1_1simple_1_1Command.html" target="_top" xlink:title="An implementation of the Command design pattern for callback.">
<polygon fill="white" stroke="black" points="1077.5,-289 1077.5,-308 1202.5,-308 1202.5,-289 1077.5,-289"/>
<text text-anchor="middle" x="1140" y="-296" font-family="Helvetica,sans-Serif" font-size="10.00">itk::simple::Command</text>
</a>
</g>
</g>
<!-- Node7&#45;&gt;Node6 -->
<g id="edge6" class="edge">
<title>Node7&#45;&gt;Node6</title>
<path fill="none" stroke="#9a32cd" stroke-dasharray="5,2" d="M1212.83,-297.87C1271.46,-297.36 1353.86,-296.63 1412.21,-296.12"/>
<polygon fill="#9a32cd" stroke="#9a32cd" points="1212.51,-294.37 1202.54,-297.96 1212.57,-301.37 1212.51,-294.37"/>
<text text-anchor="middle" x="1310" y="-301.5" font-family="Helvetica,sans-Serif" font-size="10.00"> m_Command</text>
</g>
<!-- Node8&#45;&gt;Node7 -->
<g id="edge7" class="edge">
<title>Node8&#45;&gt;Node7</title>
<path fill="none" stroke="midnightblue" d="M890.13,-305.09C949.45,-303.52 1025.23,-301.51 1077.5,-300.13"/>
<polygon fill="midnightblue" stroke="midnightblue" points="889.91,-301.59 880.01,-305.36 890.1,-308.59 889.91,-301.59"/>
</g>
<!-- Node9 -->
<g id="node9" class="node">
<title>Node9</title>
<g id="a_node9"><a xlink:title=" ">
<polygon fill="white" stroke="#bfbfbf" points="387.5,-269 387.5,-310 516.5,-310 516.5,-269 387.5,-269"/>
<text text-anchor="start" x="395.5" y="-298" font-family="Helvetica,sans-Serif" font-size="10.00">std::multimap&lt; itk</text>
<text text-anchor="start" x="395.5" y="-287" font-family="Helvetica,sans-Serif" font-size="10.00">::Object *, std::function</text>
<text text-anchor="middle" x="452" y="-276" font-family="Helvetica,sans-Serif" font-size="10.00">&lt; void()&gt; &gt;</text>
</a>
</g>
</g>
<!-- Node9&#45;&gt;Node8 -->
<g id="edge9" class="edge">
<title>Node9&#45;&gt;Node8</title>
<path fill="none" stroke="#9a32cd" stroke-dasharray="5,2" d="M526.71,-287.19C575.42,-286.38 640.62,-286.66 698,-291.5 714.22,-292.87 731.8,-295.37 747.58,-298"/>
<polygon fill="#9a32cd" stroke="#9a32cd" points="526.51,-283.69 516.58,-287.38 526.64,-290.69 526.51,-283.69"/>
<text text-anchor="middle" x="619" y="-294.5" font-family="Helvetica,sans-Serif" font-size="10.00"> m_ReferencedObjectsCallbacks</text>
</g>
<!-- Node10 -->
<g id="node10" class="node">
<title>Node10</title>
<g id="a_node10"><a xlink:title="STL class.">
<polygon fill="white" stroke="#bfbfbf" points="114,-280 114,-299 240,-299 240,-280 114,-280"/>
<text text-anchor="middle" x="177" y="-287" font-family="Helvetica,sans-Serif" font-size="10.00">std::multimap&lt; K, T &gt;</text>
</a>
</g>
</g>
<!-- Node10&#45;&gt;Node9 -->
<g id="edge10" class="edge">
<title>Node10&#45;&gt;Node9</title>
<path fill="none" stroke="orange" stroke-dasharray="5,2" d="M250.3,-289.5C292.82,-289.5 346.1,-289.5 387.08,-289.5"/>
<polygon fill="orange" stroke="orange" points="250.29,-286 240.29,-289.5 250.29,-293 250.29,-286"/>
<text text-anchor="start" x="258" y="-303.5" font-family="Helvetica,sans-Serif" font-size="10.00"> &lt; itk::Object *, std</text>
<text text-anchor="middle" x="311" y="-292.5" font-family="Helvetica,sans-Serif" font-size="10.00">::function&lt; void()&gt; &gt;</text>
</g>
<!-- Node11 -->
<g id="node11" class="node">
<title>Node11</title>
<g id="a_node11"><a xlink:title=" ">
<polygon fill="white" stroke="#bfbfbf" points="0,-298 0,-317 29,-317 29,-298 0,-298"/>
<text text-anchor="middle" x="14.5" y="-305" font-family="Helvetica,sans-Serif" font-size="10.00">K</text>
</a>
</g>
</g>
<!-- Node11&#45;&gt;Node10 -->
<g id="edge11" class="edge">
<title>Node11&#45;&gt;Node10</title>
<path fill="none" stroke="#9a32cd" stroke-dasharray="5,2" d="M39.34,-304.83C58.97,-302.63 87.71,-299.4 113.77,-296.48"/>
<polygon fill="#9a32cd" stroke="#9a32cd" points="38.73,-301.37 29.18,-305.97 39.51,-308.33 38.73,-301.37"/>
<text text-anchor="middle" x="71.5" y="-307.5" font-family="Helvetica,sans-Serif" font-size="10.00"> keys</text>
</g>
<!-- Node12 -->
<g id="node12" class="node">
<title>Node12</title>
<g id="a_node12"><a xlink:title=" ">
<polygon fill="white" stroke="#bfbfbf" points="0,-213 0,-232 29,-232 29,-213 0,-213"/>
<text text-anchor="middle" x="14.5" y="-220" font-family="Helvetica,sans-Serif" font-size="10.00">T</text>
</a>
</g>
</g>
<!-- Node12&#45;&gt;Node10 -->
<g id="edge12" class="edge">
<title>Node12&#45;&gt;Node10</title>
<path fill="none" stroke="#9a32cd" stroke-dasharray="5,2" d="M30.97,-239.35C35.76,-243.8 41.28,-248.26 47,-251.5 70.77,-264.96 99.76,-274.06 124.23,-279.96"/>
<polygon fill="#9a32cd" stroke="#9a32cd" points="33.26,-236.69 23.72,-232.08 28.31,-241.63 33.26,-236.69"/>
<text text-anchor="middle" x="71.5" y="-275.5" font-family="Helvetica,sans-Serif" font-size="10.00"> elements</text>
</g>
<!-- Node15 -->
<g id="node15" class="node">
<title>Node15</title>
<g id="a_node15"><a xlink:title="STL class.">
<polygon fill="white" stroke="#bfbfbf" points="270.5,-231 270.5,-250 351.5,-250 351.5,-231 270.5,-231"/>
<text text-anchor="middle" x="311" y="-238" font-family="Helvetica,sans-Serif" font-size="10.00">std::list&lt; T &gt;</text>
</a>
</g>
</g>
<!-- Node12&#45;&gt;Node15 -->
<g id="edge16" class="edge">
<title>Node12&#45;&gt;Node15</title>
<path fill="none" stroke="#9a32cd" stroke-dasharray="5,2" d="M39.6,-223.97C90.31,-227.07 208.44,-234.29 270.42,-238.08"/>
<polygon fill="#9a32cd" stroke="#9a32cd" points="39.5,-220.46 29.31,-223.34 39.08,-227.45 39.5,-220.46"/>
<text text-anchor="middle" x="71.5" y="-230.5" font-family="Helvetica,sans-Serif" font-size="10.00"> elements</text>
</g>
<!-- Node22 -->
<g id="node22" class="node">
<title>Node22</title>
<g id="a_node22"><a xlink:title="STL class.">
<polygon fill="white" stroke="#bfbfbf" points="560,-136 560,-155 678,-155 678,-136 560,-136"/>
<text text-anchor="middle" x="619" y="-143" font-family="Helvetica,sans-Serif" font-size="10.00">std::unique_ptr&lt; T &gt;</text>
</a>
</g>
</g>
<!-- Node12&#45;&gt;Node22 -->
<g id="edge25" class="edge">
<title>Node12&#45;&gt;Node22</title>
<path fill="none" stroke="#9a32cd" stroke-dasharray="5,2" d="M32.21,-206.22C36.76,-202.35 41.86,-198.49 47,-195.5 74.35,-179.61 82.99,-177.71 114,-171.5 272.93,-139.65 465.36,-140.26 559.88,-143.04"/>
<polygon fill="#9a32cd" stroke="#9a32cd" points="29.79,-203.69 24.73,-212.99 34.49,-208.88 29.79,-203.69"/>
<text text-anchor="middle" x="177" y="-174.5" font-family="Helvetica,sans-Serif" font-size="10.00"> ptr</text>
</g>
<!-- Node24 -->
<g id="node24" class="node">
<title>Node24</title>
<g id="a_node24"><a xlink:title="STL class.">
<polygon fill="white" stroke="#bfbfbf" points="128.5,-192 128.5,-211 225.5,-211 225.5,-192 128.5,-192"/>
<text text-anchor="middle" x="177" y="-199" font-family="Helvetica,sans-Serif" font-size="10.00">std::vector&lt; T &gt;</text>
</a>
</g>
</g>
<!-- Node12&#45;&gt;Node24 -->
<g id="edge28" class="edge">
<title>Node12&#45;&gt;Node24</title>
<path fill="none" stroke="#9a32cd" stroke-dasharray="5,2" d="M38.32,-209.5C41.17,-208.3 44.11,-207.25 47,-206.5 73.36,-199.65 103.75,-198.17 128.42,-198.52"/>
<polygon fill="#9a32cd" stroke="#9a32cd" points="36.57,-206.46 29.1,-213.97 39.62,-212.76 36.57,-206.46"/>
<text text-anchor="middle" x="71.5" y="-209.5" font-family="Helvetica,sans-Serif" font-size="10.00"> elements</text>
</g>
<!-- Node13 -->
<g id="node13" class="node">
<title>Node13</title>
<g id="a_node13"><a xlink:title="STL class.">
<polygon fill="white" stroke="#bfbfbf" points="419.5,-329 419.5,-348 484.5,-348 484.5,-329 419.5,-329"/>
<text text-anchor="middle" x="452" y="-336" font-family="Helvetica,sans-Serif" font-size="10.00">std::string</text>
</a>
</g>
</g>
<!-- Node13&#45;&gt;Node8 -->
<g id="edge13" class="edge">
<title>Node13&#45;&gt;Node8</title>
<path fill="none" stroke="#9a32cd" stroke-dasharray="5,2" d="M494.79,-331.58C509.1,-329.39 525.22,-327.12 540,-325.5 598.69,-319.07 665.18,-314.49 715.83,-311.55"/>
<polygon fill="#9a32cd" stroke="#9a32cd" points="494.08,-328.15 484.74,-333.15 495.16,-335.06 494.08,-328.15"/>
<text text-anchor="middle" x="619" y="-328.5" font-family="Helvetica,sans-Serif" font-size="10.00"> m_Name</text>
</g>
<!-- Node14 -->
<g id="node14" class="node">
<title>Node14</title>
<g id="a_node14"><a xlink:title="STL class.">
<polygon fill="white" stroke="#bfbfbf" points="125,-323.5 125,-353.5 229,-353.5 229,-323.5 125,-323.5"/>
<text text-anchor="start" x="133" y="-341.5" font-family="Helvetica,sans-Serif" font-size="10.00">std::basic_string&lt;</text>
<text text-anchor="middle" x="177" y="-330.5" font-family="Helvetica,sans-Serif" font-size="10.00"> char &gt;</text>
</a>
</g>
</g>
<!-- Node14&#45;&gt;Node13 -->
<g id="edge14" class="edge">
<title>Node14&#45;&gt;Node13</title>
<path fill="none" stroke="midnightblue" d="M239.16,-338.5C295.05,-338.5 375.46,-338.5 419.39,-338.5"/>
<polygon fill="midnightblue" stroke="midnightblue" points="239.03,-335 229.03,-338.5 239.03,-342 239.03,-335"/>
</g>
<!-- Node15&#45;&gt;Node5 -->
<g id="edge15" class="edge">
<title>Node15&#45;&gt;Node5</title>
<path fill="none" stroke="orange" stroke-dasharray="5,2" d="M361.65,-240.5C422.19,-240.5 527.6,-240.5 618,-240.5 618,-240.5 618,-240.5 1485,-240.5 1582.28,-240.5 1693.49,-246.87 1769.87,-252.24"/>
<polygon fill="orange" stroke="orange" points="361.61,-237 351.61,-240.5 361.61,-244 361.61,-237"/>
<text text-anchor="start" x="898" y="-254.5" font-family="Helvetica,sans-Serif" font-size="10.00"> &lt; itk::simple::ProcessObject</text>
<text text-anchor="middle" x="969" y="-243.5" font-family="Helvetica,sans-Serif" font-size="10.00">::EventCommand &gt;</text>
</g>
<!-- Node16 -->
<g id="node16" class="node">
<title>Node16</title>
<g id="a_node16"><a xlink:title=" ">
<polygon fill="white" stroke="#bfbfbf" points="2319,-121 2319,-162 2509,-162 2509,-121 2319,-121"/>
<text text-anchor="start" x="2327" y="-150" font-family="Helvetica,sans-Serif" font-size="10.00">std::unique_ptr&lt; itk</text>
<text text-anchor="start" x="2327" y="-139" font-family="Helvetica,sans-Serif" font-size="10.00">::simple::detail::MemberFunction</text>
<text text-anchor="middle" x="2414" y="-128" font-family="Helvetica,sans-Serif" font-size="10.00">Factory&lt; MemberFunctionType &gt; &gt;</text>
</a>
</g>
</g>
<!-- Node16&#45;&gt;Node1 -->
<g id="edge17" class="edge">
<title>Node16&#45;&gt;Node1</title>
<path fill="none" stroke="#9a32cd" stroke-dasharray="5,2" d="M2519.09,-157.3C2551.86,-162.92 2588.09,-169.78 2621,-177.5 2633.06,-180.33 2645.95,-183.87 2657.94,-187.39"/>
<polygon fill="#9a32cd" stroke="#9a32cd" points="2519.48,-153.82 2509.04,-155.6 2518.31,-160.72 2519.48,-153.82"/>
<text text-anchor="middle" x="2574" y="-180.5" font-family="Helvetica,sans-Serif" font-size="10.00"> m_MemberFactory</text>
</g>
<!-- Node17 -->
<g id="node17" class="node">
<title>Node17</title>
<g id="a_node17"><a xlink:href="classitk_1_1simple_1_1detail_1_1MemberFunctionFactory.html" target="_top" xlink:title=" ">
<polygon fill="white" stroke="black" points="2123,-58 2123,-99 2266,-99 2266,-58 2123,-58"/>
<text text-anchor="start" x="2131" y="-87" font-family="Helvetica,sans-Serif" font-size="10.00">itk::simple::detail</text>
<text text-anchor="start" x="2131" y="-76" font-family="Helvetica,sans-Serif" font-size="10.00">::MemberFunctionFactory</text>
<text text-anchor="middle" x="2194.5" y="-65" font-family="Helvetica,sans-Serif" font-size="10.00">&lt; MemberFunctionType &gt;</text>
</a>
</g>
</g>
<!-- Node17&#45;&gt;Node16 -->
<g id="edge18" class="edge">
<title>Node17&#45;&gt;Node16</title>
<path fill="none" stroke="#9a32cd" stroke-dasharray="5,2" d="M2275.94,-101.8C2297.61,-108.08 2320.88,-114.82 2341.99,-120.93"/>
<polygon fill="#9a32cd" stroke="#9a32cd" points="2276.69,-98.37 2266.12,-98.95 2274.75,-105.1 2276.69,-98.37"/>
<text text-anchor="middle" x="2292.5" y="-111.5" font-family="Helvetica,sans-Serif" font-size="10.00"> ptr</text>
</g>
<!-- Node18 -->
<g id="node18" class="node">
<title>Node18</title>
<g id="a_node18"><a xlink:href="classitk_1_1simple_1_1detail_1_1MemberFunctionFactoryBase.html" target="_top" xlink:title=" ">
<polygon fill="white" stroke="black" points="1588,-0.5 1588,-52.5 1752,-52.5 1752,-0.5 1588,-0.5"/>
<text text-anchor="start" x="1596" y="-40.5" font-family="Helvetica,sans-Serif" font-size="10.00">itk::simple::detail</text>
<text text-anchor="start" x="1596" y="-29.5" font-family="Helvetica,sans-Serif" font-size="10.00">::MemberFunctionFactoryBase</text>
<text text-anchor="start" x="1596" y="-18.5" font-family="Helvetica,sans-Serif" font-size="10.00">&lt; MemberFunctionType, std</text>
<text text-anchor="middle" x="1670" y="-7.5" font-family="Helvetica,sans-Serif" font-size="10.00">::pair&lt; unsigned int, int &gt; &gt;</text>
</a>
</g>
</g>
<!-- Node18&#45;&gt;Node17 -->
<g id="edge19" class="edge">
<title>Node18&#45;&gt;Node17</title>
<path fill="none" stroke="darkgreen" d="M1762.44,-32.38C1818.63,-36.28 1892.05,-41.89 1957,-48.5 2012.9,-54.19 2076.01,-62.28 2122.98,-68.63"/>
<polygon fill="darkgreen" stroke="darkgreen" points="1762.37,-28.87 1752.15,-31.67 1761.89,-35.85 1762.37,-28.87"/>
</g>
<!-- Node19 -->
<g id="node19" class="node">
<title>Node19</title>
<g id="a_node19"><a xlink:href="classitk_1_1simple_1_1detail_1_1MemberFunctionFactoryBase.html" target="_top" xlink:title="A base class for the MemberFunctionFactory.">
<polygon fill="white" stroke="black" points="1058,-36.5 1058,-66.5 1222,-66.5 1222,-36.5 1058,-36.5"/>
<text text-anchor="start" x="1066" y="-54.5" font-family="Helvetica,sans-Serif" font-size="10.00">itk::simple::detail</text>
<text text-anchor="middle" x="1140" y="-43.5" font-family="Helvetica,sans-Serif" font-size="10.00">::MemberFunctionFactoryBase</text>
</a>
</g>
</g>
<!-- Node19&#45;&gt;Node18 -->
<g id="edge20" class="edge">
<title>Node19&#45;&gt;Node18</title>
<path fill="none" stroke="orange" stroke-dasharray="5,2" d="M1192.49,-33.41C1207.6,-28.92 1224.29,-24.75 1240,-22.5 1360.18,-5.26 1501.24,-11.6 1587.87,-18.47"/>
<polygon fill="orange" stroke="orange" points="1191.34,-30.1 1182.81,-36.38 1193.4,-36.79 1191.34,-30.1"/>
<text text-anchor="start" x="1249" y="-47.5" font-family="Helvetica,sans-Serif" font-size="10.00"> &lt; MemberFunctionType,</text>
<text text-anchor="start" x="1249" y="-36.5" font-family="Helvetica,sans-Serif" font-size="10.00"> std::pair&lt; unsigned</text>
<text text-anchor="middle" x="1310" y="-25.5" font-family="Helvetica,sans-Serif" font-size="10.00"> int, int &gt; &gt;</text>
</g>
<!-- Node21 -->
<g id="node21" class="node">
<title>Node21</title>
<g id="a_node21"><a xlink:href="classitk_1_1simple_1_1detail_1_1MemberFunctionFactoryBase.html" target="_top" xlink:title=" ">
<polygon fill="white" stroke="black" points="1398,-52.5 1398,-104.5 1570,-104.5 1570,-52.5 1398,-52.5"/>
<text text-anchor="start" x="1406" y="-92.5" font-family="Helvetica,sans-Serif" font-size="10.00">itk::simple::detail</text>
<text text-anchor="start" x="1406" y="-81.5" font-family="Helvetica,sans-Serif" font-size="10.00">::MemberFunctionFactoryBase</text>
<text text-anchor="start" x="1406" y="-70.5" font-family="Helvetica,sans-Serif" font-size="10.00">&lt; TMemberFunctionPointer,</text>
<text text-anchor="middle" x="1484" y="-59.5" font-family="Helvetica,sans-Serif" font-size="10.00"> std::pair&lt; unsigned int, int &gt; &gt;</text>
</a>
</g>
</g>
<!-- Node19&#45;&gt;Node21 -->
<g id="edge23" class="edge">
<title>Node19&#45;&gt;Node21</title>
<path fill="none" stroke="orange" stroke-dasharray="5,2" d="M1232.16,-58.7C1283.55,-62.75 1347.36,-67.79 1397.76,-71.77"/>
<polygon fill="orange" stroke="orange" points="1232.29,-55.2 1222.05,-57.9 1231.74,-62.17 1232.29,-55.2"/>
<text text-anchor="start" x="1240" y="-95.5" font-family="Helvetica,sans-Serif" font-size="10.00"> &lt; TMemberFunctionPointer,</text>
<text text-anchor="start" x="1240" y="-84.5" font-family="Helvetica,sans-Serif" font-size="10.00"> std::pair&lt; unsigned int,</text>
<text text-anchor="middle" x="1310" y="-73.5" font-family="Helvetica,sans-Serif" font-size="10.00"> int &gt; &gt;</text>
</g>
<!-- Node20 -->
<g id="node20" class="node">
<title>Node20</title>
<g id="a_node20"><a xlink:href="classitk_1_1simple_1_1detail_1_1MemberFunctionFactory.html" target="_top" xlink:title="A class used to instantiate and generate function object to templated member functions.">
<polygon fill="white" stroke="black" points="1783,-58 1783,-99 1944,-99 1944,-58 1783,-58"/>
<text text-anchor="start" x="1791" y="-87" font-family="Helvetica,sans-Serif" font-size="10.00">itk::simple::detail</text>
<text text-anchor="start" x="1791" y="-76" font-family="Helvetica,sans-Serif" font-size="10.00">::MemberFunctionFactory</text>
<text text-anchor="middle" x="1863.5" y="-65" font-family="Helvetica,sans-Serif" font-size="10.00">&lt; TMemberFunctionPointer &gt;</text>
</a>
</g>
</g>
<!-- Node20&#45;&gt;Node17 -->
<g id="edge21" class="edge">
<title>Node20&#45;&gt;Node17</title>
<path fill="none" stroke="orange" stroke-dasharray="5,2" d="M1954.24,-78.5C2007.34,-78.5 2073.64,-78.5 2122.98,-78.5"/>
<polygon fill="orange" stroke="orange" points="1954.14,-75 1944.14,-78.5 1954.14,-82 1954.14,-75"/>
<text text-anchor="middle" x="2040" y="-81.5" font-family="Helvetica,sans-Serif" font-size="10.00"> &lt; MemberFunctionType &gt;</text>
</g>
<!-- Node21&#45;&gt;Node20 -->
<g id="edge22" class="edge">
<title>Node21&#45;&gt;Node20</title>
<path fill="none" stroke="darkgreen" d="M1580.45,-78.5C1642.96,-78.5 1723.71,-78.5 1782.78,-78.5"/>
<polygon fill="darkgreen" stroke="darkgreen" points="1580.19,-75 1570.19,-78.5 1580.19,-82 1580.19,-75"/>
</g>
<!-- Node22&#45;&gt;Node16 -->
<g id="edge24" class="edge">
<title>Node22&#45;&gt;Node16</title>
<path fill="none" stroke="orange" stroke-dasharray="5,2" d="M688.22,-144.25C758.38,-143.08 870.82,-141.5 968,-141.5 968,-141.5 968,-141.5 2195.5,-141.5 2235.9,-141.5 2280.53,-141.5 2318.79,-141.5"/>
<polygon fill="orange" stroke="orange" points="688.12,-140.75 678.18,-144.42 688.24,-147.75 688.12,-140.75"/>
<text text-anchor="start" x="1414.5" y="-166.5" font-family="Helvetica,sans-Serif" font-size="10.00"> &lt; itk::simple::detail</text>
<text text-anchor="start" x="1414.5" y="-155.5" font-family="Helvetica,sans-Serif" font-size="10.00">::MemberFunctionFactory</text>
<text text-anchor="middle" x="1484" y="-144.5" font-family="Helvetica,sans-Serif" font-size="10.00">&lt; MemberFunctionType &gt; &gt;</text>
</g>
<!-- Node23 -->
<g id="node23" class="node">
<title>Node23</title>
<g id="a_node23"><a xlink:title=" ">
<polygon fill="white" stroke="#bfbfbf" points="907,-192 907,-211 1031,-211 1031,-192 907,-192"/>
<text text-anchor="middle" x="969" y="-199" font-family="Helvetica,sans-Serif" font-size="10.00">std::vector&lt; double &gt;</text>
</a>
</g>
</g>
<!-- Node23&#45;&gt;Node1 -->
<g id="edge26" class="edge">
<title>Node23&#45;&gt;Node1</title>
<path fill="none" stroke="#9a32cd" stroke-dasharray="5,2" d="M1041.5,-201.83C1110.11,-202.12 1216.63,-202.5 1309,-202.5 1309,-202.5 1309,-202.5 2415,-202.5 2491.79,-202.5 2579.99,-202.5 2638.87,-202.5"/>
<polygon fill="#9a32cd" stroke="#9a32cd" points="1041.26,-198.33 1031.24,-201.79 1041.23,-205.33 1041.26,-198.33"/>
<text text-anchor="middle" x="1863.5" y="-216.5" font-family="Helvetica,sans-Serif" font-size="10.00"> m_FinalMeans</text>
<text text-anchor="middle" x="1863.5" y="-205.5" font-family="Helvetica,sans-Serif" font-size="10.00">m_ClassWithInitialMean</text>
</g>
<!-- Node24&#45;&gt;Node23 -->
<g id="edge27" class="edge">
<title>Node24&#45;&gt;Node23</title>
<path fill="none" stroke="orange" stroke-dasharray="5,2" d="M235.65,-201.5C380.43,-201.5 758.3,-201.5 906.8,-201.5"/>
<polygon fill="orange" stroke="orange" points="235.64,-198 225.64,-201.5 235.64,-205 235.64,-198"/>
<text text-anchor="middle" x="452" y="-204.5" font-family="Helvetica,sans-Serif" font-size="10.00"> &lt; double &gt;</text>
</g>
</g>
</svg>
        <g id="navigator" transform="translate(0 0)" fill="#404254">
                <rect fill="#f2f5e9" fill-opacity="0.5" stroke="#606060" stroke-width=".5" x="0" y="0" width="60" height="60"/>
                <use id="zoomplus" xlink:href="#zoomPlus" x="17" y="9" onmousedown="handleZoom(evt,'in')"/>
                <use id="zoomminus" xlink:href="#zoomMin" x="42" y="9" onmousedown="handleZoom(evt,'out')"/>
                <use id="reset" xlink:href="#resetDef" x="30" y="36" onmousedown="handleReset()"/>
                <g id="arrowUp" xlink:href="#dirArrow" transform="translate(30 24)" onmousedown="handlePan(0,-1)">
                  <use xlink:href="#rim" fill="#404040">
                        <set attributeName="fill" to="#808080" begin="arrowUp.mouseover" end="arrowUp.mouseout"/>
                  </use>
                  <path fill="none" stroke="white" stroke-width="1.5" d="M0,-3.0v7 M-2.5,-0.5L0,-3.0L2.5,-0.5"/>
                </g>
                <g id="arrowRight" xlink:href="#dirArrow" transform="rotate(90) translate(36 -43)" onmousedown="handlePan(1,0)">
                  <use xlink:href="#rim" fill="#404040">
                        <set attributeName="fill" to="#808080" begin="arrowRight.mouseover" end="arrowRight.mouseout"/>
                  </use>
                  <path fill="none" stroke="white" stroke-width="1.5" d="M0,-3.0v7 M-2.5,-0.5L0,-3.0L2.5,-0.5"/>
                </g>
                <g id="arrowDown" xlink:href="#dirArrow" transform="rotate(180) translate(-30 -48)" onmousedown="handlePan(0,1)">
                  <use xlink:href="#rim" fill="#404040">
                        <set attributeName="fill" to="#808080" begin="arrowDown.mouseover" end="arrowDown.mouseout"/>
                  </use>
                  <path fill="none" stroke="white" stroke-width="1.5" d="M0,-3.0v7 M-2.5,-0.5L0,-3.0L2.5,-0.5"/>
                </g>
                <g id="arrowLeft" xlink:href="#dirArrow" transform="rotate(270) translate(-36 17)" onmousedown="handlePan(-1,0)">
                  <use xlink:href="#rim" fill="#404040">
                        <set attributeName="fill" to="#808080" begin="arrowLeft.mouseover" end="arrowLeft.mouseout"/>
                  </use>
                  <path fill="none" stroke="white" stroke-width="1.5" d="M0,-3.0v7 M-2.5,-0.5L0,-3.0L2.5,-0.5"/>
                </g>
        </g>
        <svg viewBox="0 0 15 15" width="100%" height="30px" preserveAspectRatio="xMaxYMin meet">
         <g id="arrow_out" transform="scale(0.3 0.3)">
          <a xlink:href="classitk_1_1simple_1_1ScalarImageKmeansImageFilter__coll__graph_org.svg" target="_base">
           <rect id="button" ry="5" rx="5" y="6" x="6" height="38" width="38"
                fill="#f2f5e9" fill-opacity="0.5" stroke="#606060" stroke-width="1.0"/>
           <path id="arrow"
             d="M 11.500037,31.436501 C 11.940474,20.09759 22.043105,11.32322 32.158766,21.979434 L 37.068811,17.246167 C 37.068811,17.246167 37.088388,32 37.088388,32 L 22.160133,31.978069 C 22.160133,31.978069 26.997745,27.140456 26.997745,27.140456 C 18.528582,18.264221 13.291696,25.230495 11.500037,31.436501 z"
             style="fill:#404040;"/>
          </a>
         </g>
        </svg>
</svg>
