<?xml version="1.0" encoding="UTF-8" standalone="no"?>
<!DOCTYPE svg PUBLIC "-//W3C//DTD SVG 1.1//EN"
 "http://www.w3.org/Graphics/SVG/1.1/DTD/svg11.dtd">
<!-- Generated by graphviz version 2.43.0 (0)
 -->
<!-- Title: itk::simple::CollidingFrontsImageFilter Pages: 1 -->
<svg width="2794pt" height="431pt"
 viewBox="0.00 0.00 2794.00 430.50" xmlns="http://www.w3.org/2000/svg" xmlns:xlink="http://www.w3.org/1999/xlink">
<g id="graph0" class="graph" transform="scale(1 1) rotate(0) translate(4 426.5)">
<title>itk::simple::CollidingFrontsImageFilter</title>
<polygon fill="white" stroke="transparent" points="-4,4 -4,-426.5 2790,-426.5 2790,4 -4,4"/>
<!-- Node1 -->
<g id="node1" class="node">
<title>Node1</title>
<g id="a_node1"><a xlink:title="Selects a region of space where two independent fronts run towards each other.">
<polygon fill="#bfbfbf" stroke="black" points="2639,-202.5 2639,-232.5 2786,-232.5 2786,-202.5 2639,-202.5"/>
<text text-anchor="start" x="2647" y="-220.5" font-family="Helvetica,sans-Serif" font-size="10.00">itk::simple::CollidingFronts</text>
<text text-anchor="middle" x="2712.5" y="-209.5" font-family="Helvetica,sans-Serif" font-size="10.00">ImageFilter</text>
</a>
</g>
</g>
<!-- Node2 -->
<g id="node2" class="node">
<title>Node2</title>
<g id="a_node2"><a xlink:href="classitk_1_1simple_1_1ImageFilter.html" target="_top" xlink:title="The base interface for SimpleITK filters that take one input image.">
<polygon fill="white" stroke="black" points="2349,-268 2349,-287 2479,-287 2479,-268 2349,-268"/>
<text text-anchor="middle" x="2414" y="-275" font-family="Helvetica,sans-Serif" font-size="10.00">itk::simple::ImageFilter</text>
</a>
</g>
</g>
<!-- Node2&#45;&gt;Node1 -->
<g id="edge1" class="edge">
<title>Node2&#45;&gt;Node1</title>
<path fill="none" stroke="midnightblue" d="M2471.79,-266.01C2519.26,-256.4 2587.27,-242.64 2638.73,-232.23"/>
<polygon fill="midnightblue" stroke="midnightblue" points="2471.09,-262.58 2461.98,-267.99 2472.48,-269.44 2471.09,-262.58"/>
</g>
<!-- Node3 -->
<g id="node3" class="node">
<title>Node3</title>
<g id="a_node3"><a xlink:href="classitk_1_1simple_1_1ProcessObject.html" target="_top" xlink:title="Base class for SimpleITK classes based on ProcessObject.">
<polygon fill="white" stroke="black" points="2123,-276 2123,-295 2266,-295 2266,-276 2123,-276"/>
<text text-anchor="middle" x="2194.5" y="-283" font-family="Helvetica,sans-Serif" font-size="10.00">itk::simple::ProcessObject</text>
</a>
</g>
</g>
<!-- Node3&#45;&gt;Node2 -->
<g id="edge2" class="edge">
<title>Node3&#45;&gt;Node2</title>
<path fill="none" stroke="midnightblue" d="M2276.27,-282.53C2300.26,-281.65 2326.21,-280.69 2348.99,-279.85"/>
<polygon fill="midnightblue" stroke="midnightblue" points="2275.98,-279.04 2266.12,-282.9 2276.24,-286.03 2275.98,-279.04"/>
</g>
<!-- Node4 -->
<g id="node4" class="node">
<title>Node4</title>
<g id="a_node4"><a xlink:href="classitk_1_1simple_1_1NonCopyable.html" target="_top" xlink:title="An inheritable class to disable copying of a class.">
<polygon fill="white" stroke="black" points="382,-403 382,-422 522,-422 522,-403 382,-403"/>
<text text-anchor="middle" x="452" y="-410" font-family="Helvetica,sans-Serif" font-size="10.00">itk::simple::NonCopyable</text>
</a>
</g>
</g>
<!-- Node4&#45;&gt;Node3 -->
<g id="edge3" class="edge">
<title>Node4&#45;&gt;Node3</title>
<path fill="none" stroke="darkgreen" d="M532.21,-412.14C601.94,-411.85 706.21,-411.5 797,-411.5 797,-411.5 797,-411.5 1864.5,-411.5 1994.47,-411.5 2135.36,-324.68 2179.49,-295.18"/>
<polygon fill="darkgreen" stroke="darkgreen" points="532.17,-408.64 522.18,-412.18 532.2,-415.64 532.17,-408.64"/>
</g>
<!-- Node8 -->
<g id="node8" class="node">
<title>Node8</title>
<g id="a_node8"><a xlink:href="classitk_1_1simple_1_1ObjectOwnedBase.html" target="_top" xlink:title="An abstract base class to connect this object with the lifetime of another.">
<polygon fill="white" stroke="black" points="716,-344 716,-363 880,-363 880,-344 716,-344"/>
<text text-anchor="middle" x="798" y="-351" font-family="Helvetica,sans-Serif" font-size="10.00">itk::simple::ObjectOwnedBase</text>
</a>
</g>
</g>
<!-- Node4&#45;&gt;Node8 -->
<g id="edge8" class="edge">
<title>Node4&#45;&gt;Node8</title>
<path fill="none" stroke="midnightblue" d="M518.37,-401.3C567.72,-392.84 637.12,-380.95 698,-370.5 712.09,-368.08 727.32,-365.47 741.5,-363.03"/>
<polygon fill="midnightblue" stroke="midnightblue" points="517.73,-397.86 508.46,-403 518.91,-404.76 517.73,-397.86"/>
</g>
<!-- Node5 -->
<g id="node5" class="node">
<title>Node5</title>
<g id="a_node5"><a xlink:title=" ">
<polygon fill="white" stroke="#bfbfbf" points="1770,-270.5 1770,-300.5 1957,-300.5 1957,-270.5 1770,-270.5"/>
<text text-anchor="start" x="1778" y="-288.5" font-family="Helvetica,sans-Serif" font-size="10.00">std::list&lt; itk::simple</text>
<text text-anchor="middle" x="1863.5" y="-277.5" font-family="Helvetica,sans-Serif" font-size="10.00">::ProcessObject::EventCommand &gt;</text>
</a>
</g>
</g>
<!-- Node5&#45;&gt;Node3 -->
<g id="edge4" class="edge">
<title>Node5&#45;&gt;Node3</title>
<path fill="none" stroke="#9a32cd" stroke-dasharray="5,2" d="M1967.33,-285.5C2017.85,-285.5 2077.45,-285.5 2122.79,-285.5"/>
<polygon fill="#9a32cd" stroke="#9a32cd" points="1967.02,-282 1957.02,-285.5 1967.02,-289 1967.02,-282"/>
<text text-anchor="middle" x="2040" y="-288.5" font-family="Helvetica,sans-Serif" font-size="10.00"> m_Commands</text>
</g>
<!-- Node6 -->
<g id="node6" class="node">
<title>Node6</title>
<g id="a_node6"><a xlink:href="structitk_1_1simple_1_1ProcessObject_1_1EventCommand.html" target="_top" xlink:title=" ">
<polygon fill="white" stroke="black" points="1412.5,-315.5 1412.5,-345.5 1555.5,-345.5 1555.5,-315.5 1412.5,-315.5"/>
<text text-anchor="start" x="1420.5" y="-333.5" font-family="Helvetica,sans-Serif" font-size="10.00">itk::simple::ProcessObject</text>
<text text-anchor="middle" x="1484" y="-322.5" font-family="Helvetica,sans-Serif" font-size="10.00">::EventCommand</text>
</a>
</g>
</g>
<!-- Node6&#45;&gt;Node5 -->
<g id="edge5" class="edge">
<title>Node6&#45;&gt;Node5</title>
<path fill="none" stroke="#9a32cd" stroke-dasharray="5,2" d="M1565.72,-320.88C1625.58,-313.74 1707.29,-304 1769.81,-296.55"/>
<polygon fill="#9a32cd" stroke="#9a32cd" points="1565.08,-317.43 1555.56,-322.09 1565.91,-324.38 1565.08,-317.43"/>
<text text-anchor="middle" x="1670" y="-319.5" font-family="Helvetica,sans-Serif" font-size="10.00"> elements</text>
</g>
<!-- Node7 -->
<g id="node7" class="node">
<title>Node7</title>
<g id="a_node7"><a xlink:href="classitk_1_1simple_1_1Command.html" target="_top" xlink:title="An implementation of the Command design pattern for callback.">
<polygon fill="white" stroke="black" points="1077.5,-335 1077.5,-354 1202.5,-354 1202.5,-335 1077.5,-335"/>
<text text-anchor="middle" x="1140" y="-342" font-family="Helvetica,sans-Serif" font-size="10.00">itk::simple::Command</text>
</a>
</g>
</g>
<!-- Node7&#45;&gt;Node6 -->
<g id="edge6" class="edge">
<title>Node7&#45;&gt;Node6</title>
<path fill="none" stroke="#9a32cd" stroke-dasharray="5,2" d="M1212.83,-341.56C1271.46,-339.16 1353.86,-335.79 1412.21,-333.4"/>
<polygon fill="#9a32cd" stroke="#9a32cd" points="1212.39,-338.07 1202.54,-341.98 1212.67,-345.07 1212.39,-338.07"/>
<text text-anchor="middle" x="1310" y="-342.5" font-family="Helvetica,sans-Serif" font-size="10.00"> m_Command</text>
</g>
<!-- Node8&#45;&gt;Node7 -->
<g id="edge7" class="edge">
<title>Node8&#45;&gt;Node7</title>
<path fill="none" stroke="midnightblue" d="M890.13,-351.09C949.45,-349.52 1025.23,-347.51 1077.5,-346.13"/>
<polygon fill="midnightblue" stroke="midnightblue" points="889.91,-347.59 880.01,-351.36 890.1,-354.59 889.91,-347.59"/>
</g>
<!-- Node9 -->
<g id="node9" class="node">
<title>Node9</title>
<g id="a_node9"><a xlink:title=" ">
<polygon fill="white" stroke="#bfbfbf" points="387.5,-343 387.5,-384 516.5,-384 516.5,-343 387.5,-343"/>
<text text-anchor="start" x="395.5" y="-372" font-family="Helvetica,sans-Serif" font-size="10.00">std::multimap&lt; itk</text>
<text text-anchor="start" x="395.5" y="-361" font-family="Helvetica,sans-Serif" font-size="10.00">::Object *, std::function</text>
<text text-anchor="middle" x="452" y="-350" font-family="Helvetica,sans-Serif" font-size="10.00">&lt; void()&gt; &gt;</text>
</a>
</g>
</g>
<!-- Node9&#45;&gt;Node8 -->
<g id="edge9" class="edge">
<title>Node9&#45;&gt;Node8</title>
<path fill="none" stroke="#9a32cd" stroke-dasharray="5,2" d="M526.98,-359.98C531.38,-359.81 535.75,-359.65 540,-359.5 598.88,-357.46 665.37,-355.93 715.96,-354.92"/>
<polygon fill="#9a32cd" stroke="#9a32cd" points="526.51,-356.5 516.66,-360.41 526.8,-363.49 526.51,-356.5"/>
<text text-anchor="middle" x="619" y="-362.5" font-family="Helvetica,sans-Serif" font-size="10.00"> m_ReferencedObjectsCallbacks</text>
</g>
<!-- Node10 -->
<g id="node10" class="node">
<title>Node10</title>
<g id="a_node10"><a xlink:title="STL class.">
<polygon fill="white" stroke="#bfbfbf" points="114,-351 114,-370 240,-370 240,-351 114,-351"/>
<text text-anchor="middle" x="177" y="-358" font-family="Helvetica,sans-Serif" font-size="10.00">std::multimap&lt; K, T &gt;</text>
</a>
</g>
</g>
<!-- Node10&#45;&gt;Node9 -->
<g id="edge10" class="edge">
<title>Node10&#45;&gt;Node9</title>
<path fill="none" stroke="orange" stroke-dasharray="5,2" d="M250.3,-361.29C292.82,-361.76 346.1,-362.35 387.08,-362.8"/>
<polygon fill="orange" stroke="orange" points="250.33,-357.79 240.29,-361.18 250.25,-364.79 250.33,-357.79"/>
<text text-anchor="start" x="258" y="-376.5" font-family="Helvetica,sans-Serif" font-size="10.00"> &lt; itk::Object *, std</text>
<text text-anchor="middle" x="311" y="-365.5" font-family="Helvetica,sans-Serif" font-size="10.00">::function&lt; void()&gt; &gt;</text>
</g>
<!-- Node11 -->
<g id="node11" class="node">
<title>Node11</title>
<g id="a_node11"><a xlink:title=" ">
<polygon fill="white" stroke="#bfbfbf" points="0,-351 0,-370 29,-370 29,-351 0,-351"/>
<text text-anchor="middle" x="14.5" y="-358" font-family="Helvetica,sans-Serif" font-size="10.00">K</text>
</a>
</g>
</g>
<!-- Node11&#45;&gt;Node10 -->
<g id="edge11" class="edge">
<title>Node11&#45;&gt;Node10</title>
<path fill="none" stroke="#9a32cd" stroke-dasharray="5,2" d="M39.34,-360.5C58.97,-360.5 87.71,-360.5 113.77,-360.5"/>
<polygon fill="#9a32cd" stroke="#9a32cd" points="39.18,-357 29.18,-360.5 39.18,-364 39.18,-357"/>
<text text-anchor="middle" x="71.5" y="-363.5" font-family="Helvetica,sans-Serif" font-size="10.00"> keys</text>
</g>
<!-- Node12 -->
<g id="node12" class="node">
<title>Node12</title>
<g id="a_node12"><a xlink:title=" ">
<polygon fill="white" stroke="#bfbfbf" points="0,-244 0,-263 29,-263 29,-244 0,-244"/>
<text text-anchor="middle" x="14.5" y="-251" font-family="Helvetica,sans-Serif" font-size="10.00">T</text>
</a>
</g>
</g>
<!-- Node12&#45;&gt;Node10 -->
<g id="edge12" class="edge">
<title>Node12&#45;&gt;Node10</title>
<path fill="none" stroke="#9a32cd" stroke-dasharray="5,2" d="M30.57,-270.49C48.6,-289.84 80.58,-321.13 114,-339.5 122.27,-344.04 131.69,-347.85 140.65,-350.91"/>
<polygon fill="#9a32cd" stroke="#9a32cd" points="33.06,-268.02 23.73,-263 27.89,-272.75 33.06,-268.02"/>
<text text-anchor="middle" x="71.5" y="-330.5" font-family="Helvetica,sans-Serif" font-size="10.00"> elements</text>
</g>
<!-- Node15 -->
<g id="node15" class="node">
<title>Node15</title>
<g id="a_node15"><a xlink:title="STL class.">
<polygon fill="white" stroke="#bfbfbf" points="270.5,-264 270.5,-283 351.5,-283 351.5,-264 270.5,-264"/>
<text text-anchor="middle" x="311" y="-271" font-family="Helvetica,sans-Serif" font-size="10.00">std::list&lt; T &gt;</text>
</a>
</g>
</g>
<!-- Node12&#45;&gt;Node15 -->
<g id="edge16" class="edge">
<title>Node12&#45;&gt;Node15</title>
<path fill="none" stroke="#9a32cd" stroke-dasharray="5,2" d="M39.6,-255.14C90.31,-258.58 208.44,-266.6 270.42,-270.81"/>
<polygon fill="#9a32cd" stroke="#9a32cd" points="39.52,-251.62 29.31,-254.44 39.05,-258.61 39.52,-251.62"/>
<text text-anchor="middle" x="71.5" y="-262.5" font-family="Helvetica,sans-Serif" font-size="10.00"> elements</text>
</g>
<!-- Node22 -->
<g id="node22" class="node">
<title>Node22</title>
<g id="a_node22"><a xlink:title="STL class.">
<polygon fill="white" stroke="#bfbfbf" points="560,-128 560,-147 678,-147 678,-128 560,-128"/>
<text text-anchor="middle" x="619" y="-135" font-family="Helvetica,sans-Serif" font-size="10.00">std::unique_ptr&lt; T &gt;</text>
</a>
</g>
</g>
<!-- Node12&#45;&gt;Node22 -->
<g id="edge25" class="edge">
<title>Node12&#45;&gt;Node22</title>
<path fill="none" stroke="#9a32cd" stroke-dasharray="5,2" d="M32.21,-237.22C36.76,-233.35 41.86,-229.49 47,-226.5 74.35,-210.61 83.25,-209.9 114,-202.5 272.69,-164.32 465.23,-147.38 559.82,-140.92"/>
<polygon fill="#9a32cd" stroke="#9a32cd" points="29.79,-234.69 24.73,-243.99 34.49,-239.88 29.79,-234.69"/>
<text text-anchor="middle" x="177" y="-205.5" font-family="Helvetica,sans-Serif" font-size="10.00"> ptr</text>
</g>
<!-- Node25 -->
<g id="node25" class="node">
<title>Node25</title>
<g id="a_node25"><a xlink:title="STL class.">
<polygon fill="white" stroke="#bfbfbf" points="128.5,-223 128.5,-242 225.5,-242 225.5,-223 128.5,-223"/>
<text text-anchor="middle" x="177" y="-230" font-family="Helvetica,sans-Serif" font-size="10.00">std::vector&lt; T &gt;</text>
</a>
</g>
</g>
<!-- Node12&#45;&gt;Node25 -->
<g id="edge29" class="edge">
<title>Node12&#45;&gt;Node25</title>
<path fill="none" stroke="#9a32cd" stroke-dasharray="5,2" d="M38.32,-240.5C41.17,-239.3 44.11,-238.25 47,-237.5 73.36,-230.65 103.75,-229.17 128.42,-229.52"/>
<polygon fill="#9a32cd" stroke="#9a32cd" points="36.57,-237.46 29.1,-244.97 39.62,-243.76 36.57,-237.46"/>
<text text-anchor="middle" x="71.5" y="-240.5" font-family="Helvetica,sans-Serif" font-size="10.00"> elements</text>
</g>
<!-- Node13 -->
<g id="node13" class="node">
<title>Node13</title>
<g id="a_node13"><a xlink:title="STL class.">
<polygon fill="white" stroke="#bfbfbf" points="419.5,-305 419.5,-324 484.5,-324 484.5,-305 419.5,-305"/>
<text text-anchor="middle" x="452" y="-312" font-family="Helvetica,sans-Serif" font-size="10.00">std::string</text>
</a>
</g>
</g>
<!-- Node13&#45;&gt;Node8 -->
<g id="edge13" class="edge">
<title>Node13&#45;&gt;Node8</title>
<path fill="none" stroke="#9a32cd" stroke-dasharray="5,2" d="M494.94,-318.28C543.77,-322.8 626.83,-330.84 698,-339.5 709.11,-340.85 720.91,-342.41 732.34,-343.99"/>
<polygon fill="#9a32cd" stroke="#9a32cd" points="495.04,-314.77 484.76,-317.34 494.4,-321.75 495.04,-314.77"/>
<text text-anchor="middle" x="619" y="-342.5" font-family="Helvetica,sans-Serif" font-size="10.00"> m_Name</text>
</g>
<!-- Node14 -->
<g id="node14" class="node">
<title>Node14</title>
<g id="a_node14"><a xlink:title="STL class.">
<polygon fill="white" stroke="#bfbfbf" points="125,-299.5 125,-329.5 229,-329.5 229,-299.5 125,-299.5"/>
<text text-anchor="start" x="133" y="-317.5" font-family="Helvetica,sans-Serif" font-size="10.00">std::basic_string&lt;</text>
<text text-anchor="middle" x="177" y="-306.5" font-family="Helvetica,sans-Serif" font-size="10.00"> char &gt;</text>
</a>
</g>
</g>
<!-- Node14&#45;&gt;Node13 -->
<g id="edge14" class="edge">
<title>Node14&#45;&gt;Node13</title>
<path fill="none" stroke="midnightblue" d="M239.16,-314.5C295.05,-314.5 375.46,-314.5 419.39,-314.5"/>
<polygon fill="midnightblue" stroke="midnightblue" points="239.03,-311 229.03,-314.5 239.03,-318 239.03,-311"/>
</g>
<!-- Node15&#45;&gt;Node5 -->
<g id="edge15" class="edge">
<title>Node15&#45;&gt;Node5</title>
<path fill="none" stroke="orange" stroke-dasharray="5,2" d="M361.65,-274.29C422.19,-275.17 527.6,-276.5 618,-276.5 618,-276.5 618,-276.5 1485,-276.5 1582.19,-276.5 1693.41,-279.52 1769.82,-282.06"/>
<polygon fill="orange" stroke="orange" points="361.66,-270.79 351.61,-274.14 361.56,-277.78 361.66,-270.79"/>
<text text-anchor="start" x="898" y="-290.5" font-family="Helvetica,sans-Serif" font-size="10.00"> &lt; itk::simple::ProcessObject</text>
<text text-anchor="middle" x="969" y="-279.5" font-family="Helvetica,sans-Serif" font-size="10.00">::EventCommand &gt;</text>
</g>
<!-- Node16 -->
<g id="node16" class="node">
<title>Node16</title>
<g id="a_node16"><a xlink:title=" ">
<polygon fill="white" stroke="#bfbfbf" points="2319,-121 2319,-162 2509,-162 2509,-121 2319,-121"/>
<text text-anchor="start" x="2327" y="-150" font-family="Helvetica,sans-Serif" font-size="10.00">std::unique_ptr&lt; itk</text>
<text text-anchor="start" x="2327" y="-139" font-family="Helvetica,sans-Serif" font-size="10.00">::simple::detail::MemberFunction</text>
<text text-anchor="middle" x="2414" y="-128" font-family="Helvetica,sans-Serif" font-size="10.00">Factory&lt; MemberFunctionType &gt; &gt;</text>
</a>
</g>
</g>
<!-- Node16&#45;&gt;Node1 -->
<g id="edge17" class="edge">
<title>Node16&#45;&gt;Node1</title>
<path fill="none" stroke="#9a32cd" stroke-dasharray="5,2" d="M2509.8,-164.41C2544.8,-173.01 2584.76,-183.01 2621,-192.5 2632.98,-195.64 2645.83,-199.12 2657.97,-202.46"/>
<polygon fill="#9a32cd" stroke="#9a32cd" points="2510.62,-161 2500.07,-162.02 2508.95,-167.8 2510.62,-161"/>
<text text-anchor="middle" x="2574" y="-195.5" font-family="Helvetica,sans-Serif" font-size="10.00"> m_MemberFactory</text>
</g>
<!-- Node17 -->
<g id="node17" class="node">
<title>Node17</title>
<g id="a_node17"><a xlink:href="classitk_1_1simple_1_1detail_1_1MemberFunctionFactory.html" target="_top" xlink:title=" ">
<polygon fill="white" stroke="black" points="2123,-58 2123,-99 2266,-99 2266,-58 2123,-58"/>
<text text-anchor="start" x="2131" y="-87" font-family="Helvetica,sans-Serif" font-size="10.00">itk::simple::detail</text>
<text text-anchor="start" x="2131" y="-76" font-family="Helvetica,sans-Serif" font-size="10.00">::MemberFunctionFactory</text>
<text text-anchor="middle" x="2194.5" y="-65" font-family="Helvetica,sans-Serif" font-size="10.00">&lt; MemberFunctionType &gt;</text>
</a>
</g>
</g>
<!-- Node17&#45;&gt;Node16 -->
<g id="edge18" class="edge">
<title>Node17&#45;&gt;Node16</title>
<path fill="none" stroke="#9a32cd" stroke-dasharray="5,2" d="M2275.94,-101.8C2297.61,-108.08 2320.88,-114.82 2341.99,-120.93"/>
<polygon fill="#9a32cd" stroke="#9a32cd" points="2276.69,-98.37 2266.12,-98.95 2274.75,-105.1 2276.69,-98.37"/>
<text text-anchor="middle" x="2292.5" y="-111.5" font-family="Helvetica,sans-Serif" font-size="10.00"> ptr</text>
</g>
<!-- Node18 -->
<g id="node18" class="node">
<title>Node18</title>
<g id="a_node18"><a xlink:href="classitk_1_1simple_1_1detail_1_1MemberFunctionFactoryBase.html" target="_top" xlink:title=" ">
<polygon fill="white" stroke="black" points="1588,-0.5 1588,-52.5 1752,-52.5 1752,-0.5 1588,-0.5"/>
<text text-anchor="start" x="1596" y="-40.5" font-family="Helvetica,sans-Serif" font-size="10.00">itk::simple::detail</text>
<text text-anchor="start" x="1596" y="-29.5" font-family="Helvetica,sans-Serif" font-size="10.00">::MemberFunctionFactoryBase</text>
<text text-anchor="start" x="1596" y="-18.5" font-family="Helvetica,sans-Serif" font-size="10.00">&lt; MemberFunctionType, std</text>
<text text-anchor="middle" x="1670" y="-7.5" font-family="Helvetica,sans-Serif" font-size="10.00">::pair&lt; unsigned int, int &gt; &gt;</text>
</a>
</g>
</g>
<!-- Node18&#45;&gt;Node17 -->
<g id="edge19" class="edge">
<title>Node18&#45;&gt;Node17</title>
<path fill="none" stroke="darkgreen" d="M1762.44,-32.38C1818.63,-36.28 1892.05,-41.89 1957,-48.5 2012.9,-54.19 2076.01,-62.28 2122.98,-68.63"/>
<polygon fill="darkgreen" stroke="darkgreen" points="1762.37,-28.87 1752.15,-31.67 1761.89,-35.85 1762.37,-28.87"/>
</g>
<!-- Node19 -->
<g id="node19" class="node">
<title>Node19</title>
<g id="a_node19"><a xlink:href="classitk_1_1simple_1_1detail_1_1MemberFunctionFactoryBase.html" target="_top" xlink:title="A base class for the MemberFunctionFactory.">
<polygon fill="white" stroke="black" points="1058,-36.5 1058,-66.5 1222,-66.5 1222,-36.5 1058,-36.5"/>
<text text-anchor="start" x="1066" y="-54.5" font-family="Helvetica,sans-Serif" font-size="10.00">itk::simple::detail</text>
<text text-anchor="middle" x="1140" y="-43.5" font-family="Helvetica,sans-Serif" font-size="10.00">::MemberFunctionFactoryBase</text>
</a>
</g>
</g>
<!-- Node19&#45;&gt;Node18 -->
<g id="edge20" class="edge">
<title>Node19&#45;&gt;Node18</title>
<path fill="none" stroke="orange" stroke-dasharray="5,2" d="M1192.49,-33.41C1207.6,-28.92 1224.29,-24.75 1240,-22.5 1360.18,-5.26 1501.24,-11.6 1587.87,-18.47"/>
<polygon fill="orange" stroke="orange" points="1191.34,-30.1 1182.81,-36.38 1193.4,-36.79 1191.34,-30.1"/>
<text text-anchor="start" x="1249" y="-47.5" font-family="Helvetica,sans-Serif" font-size="10.00"> &lt; MemberFunctionType,</text>
<text text-anchor="start" x="1249" y="-36.5" font-family="Helvetica,sans-Serif" font-size="10.00"> std::pair&lt; unsigned</text>
<text text-anchor="middle" x="1310" y="-25.5" font-family="Helvetica,sans-Serif" font-size="10.00"> int, int &gt; &gt;</text>
</g>
<!-- Node21 -->
<g id="node21" class="node">
<title>Node21</title>
<g id="a_node21"><a xlink:href="classitk_1_1simple_1_1detail_1_1MemberFunctionFactoryBase.html" target="_top" xlink:title=" ">
<polygon fill="white" stroke="black" points="1398,-52.5 1398,-104.5 1570,-104.5 1570,-52.5 1398,-52.5"/>
<text text-anchor="start" x="1406" y="-92.5" font-family="Helvetica,sans-Serif" font-size="10.00">itk::simple::detail</text>
<text text-anchor="start" x="1406" y="-81.5" font-family="Helvetica,sans-Serif" font-size="10.00">::MemberFunctionFactoryBase</text>
<text text-anchor="start" x="1406" y="-70.5" font-family="Helvetica,sans-Serif" font-size="10.00">&lt; TMemberFunctionPointer,</text>
<text text-anchor="middle" x="1484" y="-59.5" font-family="Helvetica,sans-Serif" font-size="10.00"> std::pair&lt; unsigned int, int &gt; &gt;</text>
</a>
</g>
</g>
<!-- Node19&#45;&gt;Node21 -->
<g id="edge23" class="edge">
<title>Node19&#45;&gt;Node21</title>
<path fill="none" stroke="orange" stroke-dasharray="5,2" d="M1232.16,-58.7C1283.55,-62.75 1347.36,-67.79 1397.76,-71.77"/>
<polygon fill="orange" stroke="orange" points="1232.29,-55.2 1222.05,-57.9 1231.74,-62.17 1232.29,-55.2"/>
<text text-anchor="start" x="1240" y="-95.5" font-family="Helvetica,sans-Serif" font-size="10.00"> &lt; TMemberFunctionPointer,</text>
<text text-anchor="start" x="1240" y="-84.5" font-family="Helvetica,sans-Serif" font-size="10.00"> std::pair&lt; unsigned int,</text>
<text text-anchor="middle" x="1310" y="-73.5" font-family="Helvetica,sans-Serif" font-size="10.00"> int &gt; &gt;</text>
</g>
<!-- Node20 -->
<g id="node20" class="node">
<title>Node20</title>
<g id="a_node20"><a xlink:href="classitk_1_1simple_1_1detail_1_1MemberFunctionFactory.html" target="_top" xlink:title="A class used to instantiate and generate function object to templated member functions.">
<polygon fill="white" stroke="black" points="1783,-58 1783,-99 1944,-99 1944,-58 1783,-58"/>
<text text-anchor="start" x="1791" y="-87" font-family="Helvetica,sans-Serif" font-size="10.00">itk::simple::detail</text>
<text text-anchor="start" x="1791" y="-76" font-family="Helvetica,sans-Serif" font-size="10.00">::MemberFunctionFactory</text>
<text text-anchor="middle" x="1863.5" y="-65" font-family="Helvetica,sans-Serif" font-size="10.00">&lt; TMemberFunctionPointer &gt;</text>
</a>
</g>
</g>
<!-- Node20&#45;&gt;Node17 -->
<g id="edge21" class="edge">
<title>Node20&#45;&gt;Node17</title>
<path fill="none" stroke="orange" stroke-dasharray="5,2" d="M1954.24,-78.5C2007.34,-78.5 2073.64,-78.5 2122.98,-78.5"/>
<polygon fill="orange" stroke="orange" points="1954.14,-75 1944.14,-78.5 1954.14,-82 1954.14,-75"/>
<text text-anchor="middle" x="2040" y="-81.5" font-family="Helvetica,sans-Serif" font-size="10.00"> &lt; MemberFunctionType &gt;</text>
</g>
<!-- Node21&#45;&gt;Node20 -->
<g id="edge22" class="edge">
<title>Node21&#45;&gt;Node20</title>
<path fill="none" stroke="darkgreen" d="M1580.45,-78.5C1642.96,-78.5 1723.71,-78.5 1782.78,-78.5"/>
<polygon fill="darkgreen" stroke="darkgreen" points="1580.19,-75 1570.19,-78.5 1580.19,-82 1580.19,-75"/>
</g>
<!-- Node22&#45;&gt;Node16 -->
<g id="edge24" class="edge">
<title>Node22&#45;&gt;Node16</title>
<path fill="none" stroke="orange" stroke-dasharray="5,2" d="M688.22,-138.75C758.38,-139.92 870.82,-141.5 968,-141.5 968,-141.5 968,-141.5 2195.5,-141.5 2235.9,-141.5 2280.53,-141.5 2318.79,-141.5"/>
<polygon fill="orange" stroke="orange" points="688.24,-135.25 678.18,-138.58 688.12,-142.25 688.24,-135.25"/>
<text text-anchor="start" x="1414.5" y="-166.5" font-family="Helvetica,sans-Serif" font-size="10.00"> &lt; itk::simple::detail</text>
<text text-anchor="start" x="1414.5" y="-155.5" font-family="Helvetica,sans-Serif" font-size="10.00">::MemberFunctionFactory</text>
<text text-anchor="middle" x="1484" y="-144.5" font-family="Helvetica,sans-Serif" font-size="10.00">&lt; MemberFunctionType &gt; &gt;</text>
</g>
<!-- Node23 -->
<g id="node23" class="node">
<title>Node23</title>
<g id="a_node23"><a xlink:title=" ">
<polygon fill="white" stroke="#bfbfbf" points="732.5,-202.5 732.5,-232.5 863.5,-232.5 863.5,-202.5 732.5,-202.5"/>
<text text-anchor="start" x="740.5" y="-220.5" font-family="Helvetica,sans-Serif" font-size="10.00">std::vector&lt; std::vector</text>
<text text-anchor="middle" x="798" y="-209.5" font-family="Helvetica,sans-Serif" font-size="10.00">&lt; unsigned int &gt; &gt;</text>
</a>
</g>
</g>
<!-- Node23&#45;&gt;Node1 -->
<g id="edge26" class="edge">
<title>Node23&#45;&gt;Node1</title>
<path fill="none" stroke="#9a32cd" stroke-dasharray="5,2" d="M873.86,-217.5C942.76,-217.5 1047.76,-217.5 1139,-217.5 1139,-217.5 1139,-217.5 2415,-217.5 2491.44,-217.5 2578.97,-217.5 2639,-217.5"/>
<polygon fill="#9a32cd" stroke="#9a32cd" points="873.55,-214 863.55,-217.5 873.55,-221 873.55,-214"/>
<text text-anchor="middle" x="1863.5" y="-231.5" font-family="Helvetica,sans-Serif" font-size="10.00"> m_SeedPoints1</text>
<text text-anchor="middle" x="1863.5" y="-220.5" font-family="Helvetica,sans-Serif" font-size="10.00">m_SeedPoints2</text>
</g>
<!-- Node24 -->
<g id="node24" class="node">
<title>Node24</title>
<g id="a_node24"><a xlink:title=" ">
<polygon fill="white" stroke="#bfbfbf" points="390,-217.5 390,-247.5 514,-247.5 514,-217.5 390,-217.5"/>
<text text-anchor="start" x="398" y="-235.5" font-family="Helvetica,sans-Serif" font-size="10.00">std::vector&lt; unsigned</text>
<text text-anchor="middle" x="452" y="-224.5" font-family="Helvetica,sans-Serif" font-size="10.00"> int &gt;</text>
</a>
</g>
</g>
<!-- Node24&#45;&gt;Node23 -->
<g id="edge27" class="edge">
<title>Node24&#45;&gt;Node23</title>
<path fill="none" stroke="#9a32cd" stroke-dasharray="5,2" d="M524.46,-229.38C585.72,-226.71 673.18,-222.9 732.38,-220.32"/>
<polygon fill="#9a32cd" stroke="#9a32cd" points="523.94,-225.9 514.1,-229.84 524.25,-232.9 523.94,-225.9"/>
<text text-anchor="middle" x="619" y="-231.5" font-family="Helvetica,sans-Serif" font-size="10.00"> elements</text>
</g>
<!-- Node25&#45;&gt;Node23 -->
<g id="edge30" class="edge">
<title>Node25&#45;&gt;Node23</title>
<path fill="none" stroke="orange" stroke-dasharray="5,2" d="M219.28,-220.09C260.15,-208.49 324.74,-192.01 382,-185.5 505.5,-171.46 650.38,-190.73 732.17,-204.89"/>
<polygon fill="orange" stroke="orange" points="218.06,-216.79 209.42,-222.92 219.99,-223.52 218.06,-216.79"/>
<text text-anchor="start" x="391" y="-199.5" font-family="Helvetica,sans-Serif" font-size="10.00"> &lt; std::vector&lt; unsigned</text>
<text text-anchor="middle" x="452" y="-188.5" font-family="Helvetica,sans-Serif" font-size="10.00"> int &gt; &gt;</text>
</g>
<!-- Node25&#45;&gt;Node24 -->
<g id="edge28" class="edge">
<title>Node25&#45;&gt;Node24</title>
<path fill="none" stroke="orange" stroke-dasharray="5,2" d="M235.77,-232.5C280.94,-232.5 343.57,-232.5 389.63,-232.5"/>
<polygon fill="orange" stroke="orange" points="235.55,-229 225.55,-232.5 235.55,-236 235.55,-229"/>
<text text-anchor="middle" x="311" y="-235.5" font-family="Helvetica,sans-Serif" font-size="10.00"> &lt; unsigned int &gt;</text>
</g>
</g>
</svg>
