<?xml version="1.0" encoding="UTF-8" standalone="no"?>
<!DOCTYPE svg PUBLIC "-//W3C//DTD SVG 1.1//EN"
 "http://www.w3.org/Graphics/SVG/1.1/DTD/svg11.dtd">
<!-- Generated by graphviz version 2.43.0 (0)
 -->
<!-- Title: itk::simple::RegionOfInterestImageFilter Pages: 1 -->
<!--zoomable 363 -->
<svg id="main" version="1.1" xmlns="http://www.w3.org/2000/svg" xmlns:xlink="http://www.w3.org/1999/xlink" xml:space="preserve" onload="init(evt)">
<style type="text/css"><![CDATA[
.edge:hover path { stroke: red; }
.edge:hover polygon { stroke: red; fill: red; }
]]></style>
<script type="text/javascript"><![CDATA[
var edges = document.getElementsByTagName('g');
if (edges && edges.length) {
  for (var i=0;i<edges.length;i++) {
    if (edges[i].id.substr(0,4)=='edge') {
      edges[i].setAttribute('class','edge');
    }
  }
}
]]></script>
        <defs>
                <circle id="rim" cx="0" cy="0" r="7"/>
                <circle id="rim2" cx="0" cy="0" r="3.5"/>
                <g id="zoomPlus">
                        <use xlink:href="#rim" fill="#404040">
                                <set attributeName="fill" to="#808080" begin="zoomplus.mouseover" end="zoomplus.mouseout"/>
                        </use>
                        <path d="M-4,0h8M0,-4v8" fill="none" stroke="white" stroke-width="1.5" pointer-events="none"/>
                </g>
                <g id="zoomMin">
                        <use xlink:href="#rim" fill="#404040">
                                <set attributeName="fill" to="#808080" begin="zoomminus.mouseover" end="zoomminus.mouseout"/>
                        </use>
                        <path d="M-4,0h8" fill="none" stroke="white" stroke-width="1.5" pointer-events="none"/>
                </g>
                <g id="dirArrow">
                        <path fill="none" stroke="white" stroke-width="1.5" d="M0,-3.0v7 M-2.5,-0.5L0,-3.0L2.5,-0.5"/>
                </g>
               <g id="resetDef">
                       <use xlink:href="#rim2" fill="#404040">
                               <set attributeName="fill" to="#808080" begin="reset.mouseover" end="reset.mouseout"/>
                       </use>
               </g>
        </defs>

<script type="text/javascript">
var viewWidth = 2873;
var viewHeight = 363;
var sectionId = 'dynsection-1';
</script>
<script xlink:href="svgpan.js"/>
<svg id="graph" class="graph">
<g id="viewport">
<title>itk::simple::RegionOfInterestImageFilter</title>
<polygon fill="white" stroke="transparent" points="-4,4 -4,-359 2869,-359 2869,4 -4,4"/>
<!-- Node1 -->
<g id="node1" class="node">
<title>Node1</title>
<g id="a_node1"><a xlink:title="Extract a region of interest from the input image.">
<polygon fill="#bfbfbf" stroke="black" points="2708,-150 2708,-180 2865,-180 2865,-150 2708,-150"/>
<text text-anchor="start" x="2716" y="-168" font-family="Helvetica,sans-Serif" font-size="10.00">itk::simple::RegionOfInterest</text>
<text text-anchor="middle" x="2786.5" y="-157" font-family="Helvetica,sans-Serif" font-size="10.00">ImageFilter</text>
</a>
</g>
</g>
<!-- Node2 -->
<g id="node2" class="node">
<title>Node2</title>
<g id="a_node2"><a xlink:href="classitk_1_1simple_1_1ImageFilter.html" target="_top" xlink:title="The base interface for SimpleITK filters that take one input image.">
<polygon fill="white" stroke="black" points="2418,-229.5 2418,-248.5 2548,-248.5 2548,-229.5 2418,-229.5"/>
<text text-anchor="middle" x="2483" y="-236.5" font-family="Helvetica,sans-Serif" font-size="10.00">itk::simple::ImageFilter</text>
</a>
</g>
</g>
<!-- Node2&#45;&gt;Node1 -->
<g id="edge1" class="edge">
<title>Node2&#45;&gt;Node1</title>
<path fill="none" stroke="midnightblue" d="M2544.99,-227.54C2586.18,-219.41 2641.65,-207.73 2690,-195 2706.64,-190.62 2724.69,-185.14 2740.57,-180.07"/>
<polygon fill="midnightblue" stroke="midnightblue" points="2544.25,-224.11 2535.11,-229.47 2545.6,-230.98 2544.25,-224.11"/>
</g>
<!-- Node3 -->
<g id="node3" class="node">
<title>Node3</title>
<g id="a_node3"><a xlink:href="classitk_1_1simple_1_1ProcessObject.html" target="_top" xlink:title="Base class for SimpleITK classes based on ProcessObject.">
<polygon fill="white" stroke="black" points="2123,-245.5 2123,-264.5 2266,-264.5 2266,-245.5 2123,-245.5"/>
<text text-anchor="middle" x="2194.5" y="-252.5" font-family="Helvetica,sans-Serif" font-size="10.00">itk::simple::ProcessObject</text>
</a>
</g>
</g>
<!-- Node3&#45;&gt;Node2 -->
<g id="edge2" class="edge">
<title>Node3&#45;&gt;Node2</title>
<path fill="none" stroke="midnightblue" d="M2276.58,-250.47C2321.33,-247.97 2376.12,-244.91 2417.86,-242.58"/>
<polygon fill="midnightblue" stroke="midnightblue" points="2276.11,-246.99 2266.32,-251.04 2276.5,-253.98 2276.11,-246.99"/>
</g>
<!-- Node4 -->
<g id="node4" class="node">
<title>Node4</title>
<g id="a_node4"><a xlink:href="classitk_1_1simple_1_1NonCopyable.html" target="_top" xlink:title="An inheritable class to disable copying of a class.">
<polygon fill="white" stroke="black" points="382,-335.5 382,-354.5 522,-354.5 522,-335.5 382,-335.5"/>
<text text-anchor="middle" x="452" y="-342.5" font-family="Helvetica,sans-Serif" font-size="10.00">itk::simple::NonCopyable</text>
</a>
</g>
</g>
<!-- Node4&#45;&gt;Node3 -->
<g id="edge3" class="edge">
<title>Node4&#45;&gt;Node3</title>
<path fill="none" stroke="darkgreen" d="M532.21,-344.64C601.94,-344.35 706.21,-344 797,-344 797,-344 797,-344 1864.5,-344 1985.21,-344 2122.46,-287.48 2173.23,-264.52"/>
<polygon fill="darkgreen" stroke="darkgreen" points="532.17,-341.14 522.18,-344.68 532.2,-348.14 532.17,-341.14"/>
</g>
<!-- Node8 -->
<g id="node8" class="node">
<title>Node8</title>
<g id="a_node8"><a xlink:href="classitk_1_1simple_1_1ObjectOwnedBase.html" target="_top" xlink:title="An abstract base class to connect this object with the lifetime of another.">
<polygon fill="white" stroke="black" points="716,-266.5 716,-285.5 880,-285.5 880,-266.5 716,-266.5"/>
<text text-anchor="middle" x="798" y="-273.5" font-family="Helvetica,sans-Serif" font-size="10.00">itk::simple::ObjectOwnedBase</text>
</a>
</g>
</g>
<!-- Node4&#45;&gt;Node8 -->
<g id="edge8" class="edge">
<title>Node4&#45;&gt;Node8</title>
<path fill="none" stroke="midnightblue" d="M527.09,-333.93C586.97,-324.79 666.32,-312.2 698,-305 721.75,-299.6 748.21,-291.76 767.79,-285.59"/>
<polygon fill="midnightblue" stroke="midnightblue" points="526.27,-330.52 516.91,-335.48 527.32,-337.44 526.27,-330.52"/>
</g>
<!-- Node5 -->
<g id="node5" class="node">
<title>Node5</title>
<g id="a_node5"><a xlink:title=" ">
<polygon fill="white" stroke="#bfbfbf" points="1770,-240 1770,-270 1957,-270 1957,-240 1770,-240"/>
<text text-anchor="start" x="1778" y="-258" font-family="Helvetica,sans-Serif" font-size="10.00">std::list&lt; itk::simple</text>
<text text-anchor="middle" x="1863.5" y="-247" font-family="Helvetica,sans-Serif" font-size="10.00">::ProcessObject::EventCommand &gt;</text>
</a>
</g>
</g>
<!-- Node5&#45;&gt;Node3 -->
<g id="edge4" class="edge">
<title>Node5&#45;&gt;Node3</title>
<path fill="none" stroke="#9a32cd" stroke-dasharray="5,2" d="M1967.33,-255C2017.85,-255 2077.45,-255 2122.79,-255"/>
<polygon fill="#9a32cd" stroke="#9a32cd" points="1967.02,-251.5 1957.02,-255 1967.02,-258.5 1967.02,-251.5"/>
<text text-anchor="middle" x="2040" y="-258" font-family="Helvetica,sans-Serif" font-size="10.00"> m_Commands</text>
</g>
<!-- Node6 -->
<g id="node6" class="node">
<title>Node6</title>
<g id="a_node6"><a xlink:href="structitk_1_1simple_1_1ProcessObject_1_1EventCommand.html" target="_top" xlink:title=" ">
<polygon fill="white" stroke="black" points="1412.5,-258 1412.5,-288 1555.5,-288 1555.5,-258 1412.5,-258"/>
<text text-anchor="start" x="1420.5" y="-276" font-family="Helvetica,sans-Serif" font-size="10.00">itk::simple::ProcessObject</text>
<text text-anchor="middle" x="1484" y="-265" font-family="Helvetica,sans-Serif" font-size="10.00">::EventCommand</text>
</a>
</g>
</g>
<!-- Node6&#45;&gt;Node5 -->
<g id="edge5" class="edge">
<title>Node6&#45;&gt;Node5</title>
<path fill="none" stroke="#9a32cd" stroke-dasharray="5,2" d="M1565.72,-269.15C1625.58,-266.3 1707.29,-262.4 1769.81,-259.42"/>
<polygon fill="#9a32cd" stroke="#9a32cd" points="1565.38,-265.66 1555.56,-269.64 1565.72,-272.66 1565.38,-265.66"/>
<text text-anchor="middle" x="1670" y="-271" font-family="Helvetica,sans-Serif" font-size="10.00"> elements</text>
</g>
<!-- Node7 -->
<g id="node7" class="node">
<title>Node7</title>
<g id="a_node7"><a xlink:href="classitk_1_1simple_1_1Command.html" target="_top" xlink:title="An implementation of the Command design pattern for callback.">
<polygon fill="white" stroke="black" points="1077.5,-264.5 1077.5,-283.5 1202.5,-283.5 1202.5,-264.5 1077.5,-264.5"/>
<text text-anchor="middle" x="1140" y="-271.5" font-family="Helvetica,sans-Serif" font-size="10.00">itk::simple::Command</text>
</a>
</g>
</g>
<!-- Node7&#45;&gt;Node6 -->
<g id="edge6" class="edge">
<title>Node7&#45;&gt;Node6</title>
<path fill="none" stroke="#9a32cd" stroke-dasharray="5,2" d="M1212.83,-273.79C1271.46,-273.62 1353.86,-273.38 1412.21,-273.21"/>
<polygon fill="#9a32cd" stroke="#9a32cd" points="1212.53,-270.29 1202.54,-273.82 1212.55,-277.29 1212.53,-270.29"/>
<text text-anchor="middle" x="1310" y="-277" font-family="Helvetica,sans-Serif" font-size="10.00"> m_Command</text>
</g>
<!-- Node8&#45;&gt;Node7 -->
<g id="edge7" class="edge">
<title>Node8&#45;&gt;Node7</title>
<path fill="none" stroke="midnightblue" d="M890.13,-275.46C949.45,-275.12 1025.23,-274.67 1077.5,-274.36"/>
<polygon fill="midnightblue" stroke="midnightblue" points="889.99,-271.96 880.01,-275.52 890.03,-278.96 889.99,-271.96"/>
</g>
<!-- Node9 -->
<g id="node9" class="node">
<title>Node9</title>
<g id="a_node9"><a xlink:title=" ">
<polygon fill="white" stroke="#bfbfbf" points="387.5,-237.5 387.5,-278.5 516.5,-278.5 516.5,-237.5 387.5,-237.5"/>
<text text-anchor="start" x="395.5" y="-266.5" font-family="Helvetica,sans-Serif" font-size="10.00">std::multimap&lt; itk</text>
<text text-anchor="start" x="395.5" y="-255.5" font-family="Helvetica,sans-Serif" font-size="10.00">::Object *, std::function</text>
<text text-anchor="middle" x="452" y="-244.5" font-family="Helvetica,sans-Serif" font-size="10.00">&lt; void()&gt; &gt;</text>
</a>
</g>
</g>
<!-- Node9&#45;&gt;Node8 -->
<g id="edge9" class="edge">
<title>Node9&#45;&gt;Node8</title>
<path fill="none" stroke="#9a32cd" stroke-dasharray="5,2" d="M526.71,-255.69C575.42,-254.88 640.62,-255.16 698,-260 714.22,-261.37 731.8,-263.87 747.58,-266.5"/>
<polygon fill="#9a32cd" stroke="#9a32cd" points="526.51,-252.19 516.58,-255.88 526.64,-259.19 526.51,-252.19"/>
<text text-anchor="middle" x="619" y="-263" font-family="Helvetica,sans-Serif" font-size="10.00"> m_ReferencedObjectsCallbacks</text>
</g>
<!-- Node10 -->
<g id="node10" class="node">
<title>Node10</title>
<g id="a_node10"><a xlink:title="STL class.">
<polygon fill="white" stroke="#bfbfbf" points="114,-248.5 114,-267.5 240,-267.5 240,-248.5 114,-248.5"/>
<text text-anchor="middle" x="177" y="-255.5" font-family="Helvetica,sans-Serif" font-size="10.00">std::multimap&lt; K, T &gt;</text>
</a>
</g>
</g>
<!-- Node10&#45;&gt;Node9 -->
<g id="edge10" class="edge">
<title>Node10&#45;&gt;Node9</title>
<path fill="none" stroke="orange" stroke-dasharray="5,2" d="M250.3,-258C292.82,-258 346.1,-258 387.08,-258"/>
<polygon fill="orange" stroke="orange" points="250.29,-254.5 240.29,-258 250.29,-261.5 250.29,-254.5"/>
<text text-anchor="start" x="258" y="-272" font-family="Helvetica,sans-Serif" font-size="10.00"> &lt; itk::Object *, std</text>
<text text-anchor="middle" x="311" y="-261" font-family="Helvetica,sans-Serif" font-size="10.00">::function&lt; void()&gt; &gt;</text>
</g>
<!-- Node11 -->
<g id="node11" class="node">
<title>Node11</title>
<g id="a_node11"><a xlink:title=" ">
<polygon fill="white" stroke="#bfbfbf" points="0,-267.5 0,-286.5 29,-286.5 29,-267.5 0,-267.5"/>
<text text-anchor="middle" x="14.5" y="-274.5" font-family="Helvetica,sans-Serif" font-size="10.00">K</text>
</a>
</g>
</g>
<!-- Node11&#45;&gt;Node10 -->
<g id="edge11" class="edge">
<title>Node11&#45;&gt;Node10</title>
<path fill="none" stroke="#9a32cd" stroke-dasharray="5,2" d="M39.34,-274.18C58.97,-271.85 87.71,-268.45 113.77,-265.37"/>
<polygon fill="#9a32cd" stroke="#9a32cd" points="38.7,-270.73 29.18,-275.38 39.53,-277.68 38.7,-270.73"/>
<text text-anchor="middle" x="71.5" y="-276" font-family="Helvetica,sans-Serif" font-size="10.00"> keys</text>
</g>
<!-- Node12 -->
<g id="node12" class="node">
<title>Node12</title>
<g id="a_node12"><a xlink:title=" ">
<polygon fill="white" stroke="#bfbfbf" points="0,-180.5 0,-199.5 29,-199.5 29,-180.5 0,-180.5"/>
<text text-anchor="middle" x="14.5" y="-187.5" font-family="Helvetica,sans-Serif" font-size="10.00">T</text>
</a>
</g>
</g>
<!-- Node12&#45;&gt;Node10 -->
<g id="edge12" class="edge">
<title>Node12&#45;&gt;Node10</title>
<path fill="none" stroke="#9a32cd" stroke-dasharray="5,2" d="M30.02,-207.29C34.97,-212.31 40.82,-217.4 47,-221 69.44,-234.1 96.8,-242.8 120.54,-248.46"/>
<polygon fill="#9a32cd" stroke="#9a32cd" points="32.41,-204.72 23.08,-199.7 27.24,-209.44 32.41,-204.72"/>
<text text-anchor="middle" x="71.5" y="-245" font-family="Helvetica,sans-Serif" font-size="10.00"> elements</text>
</g>
<!-- Node15 -->
<g id="node15" class="node">
<title>Node15</title>
<g id="a_node15"><a xlink:title="STL class.">
<polygon fill="white" stroke="#bfbfbf" points="270.5,-199.5 270.5,-218.5 351.5,-218.5 351.5,-199.5 270.5,-199.5"/>
<text text-anchor="middle" x="311" y="-206.5" font-family="Helvetica,sans-Serif" font-size="10.00">std::list&lt; T &gt;</text>
</a>
</g>
</g>
<!-- Node12&#45;&gt;Node15 -->
<g id="edge16" class="edge">
<title>Node12&#45;&gt;Node15</title>
<path fill="none" stroke="#9a32cd" stroke-dasharray="5,2" d="M39.6,-191.56C90.31,-194.83 208.44,-202.45 270.42,-206.45"/>
<polygon fill="#9a32cd" stroke="#9a32cd" points="39.51,-188.04 29.31,-190.89 39.06,-195.03 39.51,-188.04"/>
<text text-anchor="middle" x="71.5" y="-199" font-family="Helvetica,sans-Serif" font-size="10.00"> elements</text>
</g>
<!-- Node22 -->
<g id="node22" class="node">
<title>Node22</title>
<g id="a_node22"><a xlink:title="STL class.">
<polygon fill="white" stroke="#bfbfbf" points="560,-23.5 560,-42.5 678,-42.5 678,-23.5 560,-23.5"/>
<text text-anchor="middle" x="619" y="-30.5" font-family="Helvetica,sans-Serif" font-size="10.00">std::unique_ptr&lt; T &gt;</text>
</a>
</g>
</g>
<!-- Node12&#45;&gt;Node22 -->
<g id="edge25" class="edge">
<title>Node12&#45;&gt;Node22</title>
<path fill="none" stroke="#9a32cd" stroke-dasharray="5,2" d="M28.73,-172.39C33.85,-166.69 40.13,-160.85 47,-157 216.42,-61.95 451.89,-39.72 559.79,-34.55"/>
<polygon fill="#9a32cd" stroke="#9a32cd" points="25.79,-170.45 22.13,-180.4 31.19,-174.91 25.79,-170.45"/>
<text text-anchor="middle" x="177" y="-126" font-family="Helvetica,sans-Serif" font-size="10.00"> ptr</text>
</g>
<!-- Node24 -->
<g id="node24" class="node">
<title>Node24</title>
<g id="a_node24"><a xlink:title="STL class.">
<polygon fill="white" stroke="#bfbfbf" points="2146,-161.5 2146,-180.5 2243,-180.5 2243,-161.5 2146,-161.5"/>
<text text-anchor="middle" x="2194.5" y="-168.5" font-family="Helvetica,sans-Serif" font-size="10.00">std::vector&lt; T &gt;</text>
</a>
</g>
</g>
<!-- Node12&#45;&gt;Node24 -->
<g id="edge28" class="edge">
<title>Node12&#45;&gt;Node24</title>
<path fill="none" stroke="#9a32cd" stroke-dasharray="5,2" d="M39.09,-185.44C70.29,-179.82 127.06,-171 176,-171 176,-171 176,-171 1864.5,-171 1964.6,-171 2081.83,-171 2145.83,-171"/>
<polygon fill="#9a32cd" stroke="#9a32cd" points="38.37,-182.02 29.18,-187.28 39.65,-188.9 38.37,-182.02"/>
<text text-anchor="middle" x="969" y="-174" font-family="Helvetica,sans-Serif" font-size="10.00"> elements</text>
</g>
<!-- Node13 -->
<g id="node13" class="node">
<title>Node13</title>
<g id="a_node13"><a xlink:title="STL class.">
<polygon fill="white" stroke="#bfbfbf" points="419.5,-297.5 419.5,-316.5 484.5,-316.5 484.5,-297.5 419.5,-297.5"/>
<text text-anchor="middle" x="452" y="-304.5" font-family="Helvetica,sans-Serif" font-size="10.00">std::string</text>
</a>
</g>
</g>
<!-- Node13&#45;&gt;Node8 -->
<g id="edge13" class="edge">
<title>Node13&#45;&gt;Node8</title>
<path fill="none" stroke="#9a32cd" stroke-dasharray="5,2" d="M494.79,-300.08C509.1,-297.89 525.22,-295.62 540,-294 598.69,-287.57 665.18,-282.99 715.83,-280.05"/>
<polygon fill="#9a32cd" stroke="#9a32cd" points="494.08,-296.65 484.74,-301.65 495.16,-303.56 494.08,-296.65"/>
<text text-anchor="middle" x="619" y="-297" font-family="Helvetica,sans-Serif" font-size="10.00"> m_Name</text>
</g>
<!-- Node14 -->
<g id="node14" class="node">
<title>Node14</title>
<g id="a_node14"><a xlink:title="STL class.">
<polygon fill="white" stroke="#bfbfbf" points="125,-292 125,-322 229,-322 229,-292 125,-292"/>
<text text-anchor="start" x="133" y="-310" font-family="Helvetica,sans-Serif" font-size="10.00">std::basic_string&lt;</text>
<text text-anchor="middle" x="177" y="-299" font-family="Helvetica,sans-Serif" font-size="10.00"> char &gt;</text>
</a>
</g>
</g>
<!-- Node14&#45;&gt;Node13 -->
<g id="edge14" class="edge">
<title>Node14&#45;&gt;Node13</title>
<path fill="none" stroke="midnightblue" d="M239.16,-307C295.05,-307 375.46,-307 419.39,-307"/>
<polygon fill="midnightblue" stroke="midnightblue" points="239.03,-303.5 229.03,-307 239.03,-310.5 239.03,-303.5"/>
</g>
<!-- Node15&#45;&gt;Node5 -->
<g id="edge15" class="edge">
<title>Node15&#45;&gt;Node5</title>
<path fill="none" stroke="orange" stroke-dasharray="5,2" d="M361.65,-209C422.19,-209 527.6,-209 618,-209 618,-209 618,-209 1485,-209 1589.32,-209 1708.66,-226.52 1784.75,-239.94"/>
<polygon fill="orange" stroke="orange" points="361.61,-205.5 351.61,-209 361.61,-212.5 361.61,-205.5"/>
<text text-anchor="start" x="898" y="-223" font-family="Helvetica,sans-Serif" font-size="10.00"> &lt; itk::simple::ProcessObject</text>
<text text-anchor="middle" x="969" y="-212" font-family="Helvetica,sans-Serif" font-size="10.00">::EventCommand &gt;</text>
</g>
<!-- Node16 -->
<g id="node16" class="node">
<title>Node16</title>
<g id="a_node16"><a xlink:title=" ">
<polygon fill="white" stroke="#bfbfbf" points="2388,-59.5 2388,-100.5 2578,-100.5 2578,-59.5 2388,-59.5"/>
<text text-anchor="start" x="2396" y="-88.5" font-family="Helvetica,sans-Serif" font-size="10.00">std::unique_ptr&lt; itk</text>
<text text-anchor="start" x="2396" y="-77.5" font-family="Helvetica,sans-Serif" font-size="10.00">::simple::detail::MemberFunction</text>
<text text-anchor="middle" x="2483" y="-66.5" font-family="Helvetica,sans-Serif" font-size="10.00">Factory&lt; MemberFunctionType &gt; &gt;</text>
</a>
</g>
</g>
<!-- Node16&#45;&gt;Node1 -->
<g id="edge17" class="edge">
<title>Node16&#45;&gt;Node1</title>
<path fill="none" stroke="#9a32cd" stroke-dasharray="5,2" d="M2582.42,-103.03C2616.64,-111.51 2655.18,-121.61 2690,-132 2707.99,-137.37 2727.62,-144.01 2744.38,-149.93"/>
<polygon fill="#9a32cd" stroke="#9a32cd" points="2582.96,-99.56 2572.41,-100.56 2581.29,-106.35 2582.96,-99.56"/>
<text text-anchor="middle" x="2643" y="-135" font-family="Helvetica,sans-Serif" font-size="10.00"> m_MemberFactory</text>
</g>
<!-- Node17 -->
<g id="node17" class="node">
<title>Node17</title>
<g id="a_node17"><a xlink:href="classitk_1_1simple_1_1detail_1_1MemberFunctionFactory.html" target="_top" xlink:title=" ">
<polygon fill="white" stroke="black" points="2123,-59.5 2123,-100.5 2266,-100.5 2266,-59.5 2123,-59.5"/>
<text text-anchor="start" x="2131" y="-88.5" font-family="Helvetica,sans-Serif" font-size="10.00">itk::simple::detail</text>
<text text-anchor="start" x="2131" y="-77.5" font-family="Helvetica,sans-Serif" font-size="10.00">::MemberFunctionFactory</text>
<text text-anchor="middle" x="2194.5" y="-66.5" font-family="Helvetica,sans-Serif" font-size="10.00">&lt; MemberFunctionType &gt;</text>
</a>
</g>
</g>
<!-- Node17&#45;&gt;Node16 -->
<g id="edge18" class="edge">
<title>Node17&#45;&gt;Node16</title>
<path fill="none" stroke="#9a32cd" stroke-dasharray="5,2" d="M2276.41,-80C2311.12,-80 2351.89,-80 2387.94,-80"/>
<polygon fill="#9a32cd" stroke="#9a32cd" points="2276.32,-76.5 2266.32,-80 2276.32,-83.5 2276.32,-76.5"/>
<text text-anchor="middle" x="2327" y="-83" font-family="Helvetica,sans-Serif" font-size="10.00"> ptr</text>
</g>
<!-- Node18 -->
<g id="node18" class="node">
<title>Node18</title>
<g id="a_node18"><a xlink:href="classitk_1_1simple_1_1detail_1_1MemberFunctionFactoryBase.html" target="_top" xlink:title=" ">
<polygon fill="white" stroke="black" points="1588,-36 1588,-88 1752,-88 1752,-36 1588,-36"/>
<text text-anchor="start" x="1596" y="-76" font-family="Helvetica,sans-Serif" font-size="10.00">itk::simple::detail</text>
<text text-anchor="start" x="1596" y="-65" font-family="Helvetica,sans-Serif" font-size="10.00">::MemberFunctionFactoryBase</text>
<text text-anchor="start" x="1596" y="-54" font-family="Helvetica,sans-Serif" font-size="10.00">&lt; MemberFunctionType, std</text>
<text text-anchor="middle" x="1670" y="-43" font-family="Helvetica,sans-Serif" font-size="10.00">::pair&lt; unsigned int, int &gt; &gt;</text>
</a>
</g>
</g>
<!-- Node18&#45;&gt;Node17 -->
<g id="edge19" class="edge">
<title>Node18&#45;&gt;Node17</title>
<path fill="none" stroke="darkgreen" d="M1762.11,-65.14C1864.72,-68.67 2029.31,-74.34 2122.73,-77.56"/>
<polygon fill="darkgreen" stroke="darkgreen" points="1762.18,-61.64 1752.07,-64.79 1761.94,-68.64 1762.18,-61.64"/>
</g>
<!-- Node19 -->
<g id="node19" class="node">
<title>Node19</title>
<g id="a_node19"><a xlink:href="classitk_1_1simple_1_1detail_1_1MemberFunctionFactoryBase.html" target="_top" xlink:title="A base class for the MemberFunctionFactory.">
<polygon fill="white" stroke="black" points="1058,-74 1058,-104 1222,-104 1222,-74 1058,-74"/>
<text text-anchor="start" x="1066" y="-92" font-family="Helvetica,sans-Serif" font-size="10.00">itk::simple::detail</text>
<text text-anchor="middle" x="1140" y="-81" font-family="Helvetica,sans-Serif" font-size="10.00">::MemberFunctionFactoryBase</text>
</a>
</g>
</g>
<!-- Node19&#45;&gt;Node18 -->
<g id="edge20" class="edge">
<title>Node19&#45;&gt;Node18</title>
<path fill="none" stroke="orange" stroke-dasharray="5,2" d="M1192.49,-70.91C1207.6,-66.42 1224.29,-62.25 1240,-60 1360.17,-42.76 1501.23,-48.29 1587.86,-54.57"/>
<polygon fill="orange" stroke="orange" points="1191.34,-67.6 1182.81,-73.88 1193.4,-74.29 1191.34,-67.6"/>
<text text-anchor="start" x="1249" y="-85" font-family="Helvetica,sans-Serif" font-size="10.00"> &lt; MemberFunctionType,</text>
<text text-anchor="start" x="1249" y="-74" font-family="Helvetica,sans-Serif" font-size="10.00"> std::pair&lt; unsigned</text>
<text text-anchor="middle" x="1310" y="-63" font-family="Helvetica,sans-Serif" font-size="10.00"> int, int &gt; &gt;</text>
</g>
<!-- Node21 -->
<g id="node21" class="node">
<title>Node21</title>
<g id="a_node21"><a xlink:href="classitk_1_1simple_1_1detail_1_1MemberFunctionFactoryBase.html" target="_top" xlink:title=" ">
<polygon fill="white" stroke="black" points="1398,-90 1398,-142 1570,-142 1570,-90 1398,-90"/>
<text text-anchor="start" x="1406" y="-130" font-family="Helvetica,sans-Serif" font-size="10.00">itk::simple::detail</text>
<text text-anchor="start" x="1406" y="-119" font-family="Helvetica,sans-Serif" font-size="10.00">::MemberFunctionFactoryBase</text>
<text text-anchor="start" x="1406" y="-108" font-family="Helvetica,sans-Serif" font-size="10.00">&lt; TMemberFunctionPointer,</text>
<text text-anchor="middle" x="1484" y="-97" font-family="Helvetica,sans-Serif" font-size="10.00"> std::pair&lt; unsigned int, int &gt; &gt;</text>
</a>
</g>
</g>
<!-- Node19&#45;&gt;Node21 -->
<g id="edge23" class="edge">
<title>Node19&#45;&gt;Node21</title>
<path fill="none" stroke="orange" stroke-dasharray="5,2" d="M1232.16,-96.2C1283.55,-100.25 1347.36,-105.29 1397.76,-109.27"/>
<polygon fill="orange" stroke="orange" points="1232.29,-92.7 1222.05,-95.4 1231.74,-99.67 1232.29,-92.7"/>
<text text-anchor="start" x="1240" y="-133" font-family="Helvetica,sans-Serif" font-size="10.00"> &lt; TMemberFunctionPointer,</text>
<text text-anchor="start" x="1240" y="-122" font-family="Helvetica,sans-Serif" font-size="10.00"> std::pair&lt; unsigned int,</text>
<text text-anchor="middle" x="1310" y="-111" font-family="Helvetica,sans-Serif" font-size="10.00"> int &gt; &gt;</text>
</g>
<!-- Node20 -->
<g id="node20" class="node">
<title>Node20</title>
<g id="a_node20"><a xlink:href="classitk_1_1simple_1_1detail_1_1MemberFunctionFactory.html" target="_top" xlink:title="A class used to instantiate and generate function object to templated member functions.">
<polygon fill="white" stroke="black" points="1783,-94.5 1783,-135.5 1944,-135.5 1944,-94.5 1783,-94.5"/>
<text text-anchor="start" x="1791" y="-123.5" font-family="Helvetica,sans-Serif" font-size="10.00">itk::simple::detail</text>
<text text-anchor="start" x="1791" y="-112.5" font-family="Helvetica,sans-Serif" font-size="10.00">::MemberFunctionFactory</text>
<text text-anchor="middle" x="1863.5" y="-101.5" font-family="Helvetica,sans-Serif" font-size="10.00">&lt; TMemberFunctionPointer &gt;</text>
</a>
</g>
</g>
<!-- Node20&#45;&gt;Node17 -->
<g id="edge21" class="edge">
<title>Node20&#45;&gt;Node17</title>
<path fill="none" stroke="orange" stroke-dasharray="5,2" d="M1954.24,-105.45C2007.34,-99.8 2073.64,-92.75 2122.98,-87.5"/>
<polygon fill="orange" stroke="orange" points="1953.72,-101.99 1944.14,-106.53 1954.46,-108.95 1953.72,-101.99"/>
<text text-anchor="middle" x="2040" y="-106" font-family="Helvetica,sans-Serif" font-size="10.00"> &lt; MemberFunctionType &gt;</text>
</g>
<!-- Node21&#45;&gt;Node20 -->
<g id="edge22" class="edge">
<title>Node21&#45;&gt;Node20</title>
<path fill="none" stroke="darkgreen" d="M1580.45,-115.75C1642.96,-115.58 1723.71,-115.37 1782.78,-115.21"/>
<polygon fill="darkgreen" stroke="darkgreen" points="1580.18,-112.25 1570.19,-115.77 1580.2,-119.25 1580.18,-112.25"/>
</g>
<!-- Node22&#45;&gt;Node16 -->
<g id="edge24" class="edge">
<title>Node22&#45;&gt;Node16</title>
<path fill="none" stroke="orange" stroke-dasharray="5,2" d="M688.04,-22.71C758.06,-13.03 870.39,0 968,0 968,0 968,0 2195.5,0 2283.81,0 2381.97,-35.69 2437.43,-59.4"/>
<polygon fill="orange" stroke="orange" points="687.45,-19.26 678.03,-24.11 688.42,-26.19 687.45,-19.26"/>
<text text-anchor="start" x="1414.5" y="-25" font-family="Helvetica,sans-Serif" font-size="10.00"> &lt; itk::simple::detail</text>
<text text-anchor="start" x="1414.5" y="-14" font-family="Helvetica,sans-Serif" font-size="10.00">::MemberFunctionFactory</text>
<text text-anchor="middle" x="1484" y="-3" font-family="Helvetica,sans-Serif" font-size="10.00">&lt; MemberFunctionType &gt; &gt;</text>
</g>
<!-- Node23 -->
<g id="node23" class="node">
<title>Node23</title>
<g id="a_node23"><a xlink:title=" ">
<polygon fill="white" stroke="#bfbfbf" points="2431,-134.5 2431,-153.5 2535,-153.5 2535,-134.5 2431,-134.5"/>
<text text-anchor="middle" x="2483" y="-141.5" font-family="Helvetica,sans-Serif" font-size="10.00">std::vector&lt; int &gt;</text>
</a>
</g>
</g>
<!-- Node23&#45;&gt;Node1 -->
<g id="edge26" class="edge">
<title>Node23&#45;&gt;Node1</title>
<path fill="none" stroke="#9a32cd" stroke-dasharray="5,2" d="M2545.41,-144.84C2586.42,-145.78 2641.52,-147.77 2690,-152 2695.83,-152.51 2701.86,-153.12 2707.91,-153.8"/>
<polygon fill="#9a32cd" stroke="#9a32cd" points="2545.38,-141.33 2535.3,-144.62 2545.23,-148.33 2545.38,-141.33"/>
<text text-anchor="middle" x="2643" y="-155" font-family="Helvetica,sans-Serif" font-size="10.00"> m_Index</text>
</g>
<!-- Node24&#45;&gt;Node23 -->
<g id="edge27" class="edge">
<title>Node24&#45;&gt;Node23</title>
<path fill="none" stroke="orange" stroke-dasharray="5,2" d="M2253.33,-165.03C2263.55,-164 2274.08,-162.95 2284,-162 2333.82,-157.2 2390.72,-152.06 2430.71,-148.51"/>
<polygon fill="orange" stroke="orange" points="2252.85,-161.56 2243.26,-166.05 2253.56,-168.52 2252.85,-161.56"/>
<text text-anchor="middle" x="2327" y="-165" font-family="Helvetica,sans-Serif" font-size="10.00"> &lt; int &gt;</text>
</g>
<!-- Node25 -->
<g id="node25" class="node">
<title>Node25</title>
<g id="a_node25"><a xlink:title=" ">
<polygon fill="white" stroke="#bfbfbf" points="2421,-173 2421,-203 2545,-203 2545,-173 2421,-173"/>
<text text-anchor="start" x="2429" y="-191" font-family="Helvetica,sans-Serif" font-size="10.00">std::vector&lt; unsigned</text>
<text text-anchor="middle" x="2483" y="-180" font-family="Helvetica,sans-Serif" font-size="10.00"> int &gt;</text>
</a>
</g>
</g>
<!-- Node24&#45;&gt;Node25 -->
<g id="edge30" class="edge">
<title>Node24&#45;&gt;Node25</title>
<path fill="none" stroke="orange" stroke-dasharray="5,2" d="M2253.18,-174.42C2301.79,-177.31 2371.16,-181.42 2420.76,-184.37"/>
<polygon fill="orange" stroke="orange" points="2253.32,-170.92 2243.13,-173.83 2252.91,-177.91 2253.32,-170.92"/>
<text text-anchor="middle" x="2327" y="-185" font-family="Helvetica,sans-Serif" font-size="10.00"> &lt; unsigned int &gt;</text>
</g>
<!-- Node25&#45;&gt;Node1 -->
<g id="edge29" class="edge">
<title>Node25&#45;&gt;Node1</title>
<path fill="none" stroke="#9a32cd" stroke-dasharray="5,2" d="M2555.18,-182.57C2601.09,-179.07 2660.8,-174.51 2707.92,-170.92"/>
<polygon fill="#9a32cd" stroke="#9a32cd" points="2554.72,-179.1 2545.01,-183.35 2555.25,-186.07 2554.72,-179.1"/>
<text text-anchor="middle" x="2643" y="-183" font-family="Helvetica,sans-Serif" font-size="10.00"> m_Size</text>
</g>
</g>
</svg>
        <g id="navigator" transform="translate(0 0)" fill="#404254">
                <rect fill="#f2f5e9" fill-opacity="0.5" stroke="#606060" stroke-width=".5" x="0" y="0" width="60" height="60"/>
                <use id="zoomplus" xlink:href="#zoomPlus" x="17" y="9" onmousedown="handleZoom(evt,'in')"/>
                <use id="zoomminus" xlink:href="#zoomMin" x="42" y="9" onmousedown="handleZoom(evt,'out')"/>
                <use id="reset" xlink:href="#resetDef" x="30" y="36" onmousedown="handleReset()"/>
                <g id="arrowUp" xlink:href="#dirArrow" transform="translate(30 24)" onmousedown="handlePan(0,-1)">
                  <use xlink:href="#rim" fill="#404040">
                        <set attributeName="fill" to="#808080" begin="arrowUp.mouseover" end="arrowUp.mouseout"/>
                  </use>
                  <path fill="none" stroke="white" stroke-width="1.5" d="M0,-3.0v7 M-2.5,-0.5L0,-3.0L2.5,-0.5"/>
                </g>
                <g id="arrowRight" xlink:href="#dirArrow" transform="rotate(90) translate(36 -43)" onmousedown="handlePan(1,0)">
                  <use xlink:href="#rim" fill="#404040">
                        <set attributeName="fill" to="#808080" begin="arrowRight.mouseover" end="arrowRight.mouseout"/>
                  </use>
                  <path fill="none" stroke="white" stroke-width="1.5" d="M0,-3.0v7 M-2.5,-0.5L0,-3.0L2.5,-0.5"/>
                </g>
                <g id="arrowDown" xlink:href="#dirArrow" transform="rotate(180) translate(-30 -48)" onmousedown="handlePan(0,1)">
                  <use xlink:href="#rim" fill="#404040">
                        <set attributeName="fill" to="#808080" begin="arrowDown.mouseover" end="arrowDown.mouseout"/>
                  </use>
                  <path fill="none" stroke="white" stroke-width="1.5" d="M0,-3.0v7 M-2.5,-0.5L0,-3.0L2.5,-0.5"/>
                </g>
                <g id="arrowLeft" xlink:href="#dirArrow" transform="rotate(270) translate(-36 17)" onmousedown="handlePan(-1,0)">
                  <use xlink:href="#rim" fill="#404040">
                        <set attributeName="fill" to="#808080" begin="arrowLeft.mouseover" end="arrowLeft.mouseout"/>
                  </use>
                  <path fill="none" stroke="white" stroke-width="1.5" d="M0,-3.0v7 M-2.5,-0.5L0,-3.0L2.5,-0.5"/>
                </g>
        </g>
        <svg viewBox="0 0 15 15" width="100%" height="30px" preserveAspectRatio="xMaxYMin meet">
         <g id="arrow_out" transform="scale(0.3 0.3)">
          <a xlink:href="classitk_1_1simple_1_1RegionOfInterestImageFilter__coll__graph_org.svg" target="_base">
           <rect id="button" ry="5" rx="5" y="6" x="6" height="38" width="38"
                fill="#f2f5e9" fill-opacity="0.5" stroke="#606060" stroke-width="1.0"/>
           <path id="arrow"
             d="M 11.500037,31.436501 C 11.940474,20.09759 22.043105,11.32322 32.158766,21.979434 L 37.068811,17.246167 C 37.068811,17.246167 37.088388,32 37.088388,32 L 22.160133,31.978069 C 22.160133,31.978069 26.997745,27.140456 26.997745,27.140456 C 18.528582,18.264221 13.291696,25.230495 11.500037,31.436501 z"
             style="fill:#404040;"/>
          </a>
         </g>
        </svg>
</svg>
