<?xml version="1.0" encoding="UTF-8" standalone="no"?>
<!DOCTYPE svg PUBLIC "-//W3C//DTD SVG 1.1//EN"
 "http://www.w3.org/Graphics/SVG/1.1/DTD/svg11.dtd">
<!-- Generated by graphviz version 2.43.0 (0)
 -->
<!-- Title: itk::simple::detail::MemberFunctionFactoryBase&lt; TMemberFunctionPointer, TKey, TContainer &gt; Pages: 1 -->
<svg width="270pt" height="302pt"
 viewBox="0.00 0.00 269.50 302.00" xmlns="http://www.w3.org/2000/svg" xmlns:xlink="http://www.w3.org/1999/xlink">
<g id="graph0" class="graph" transform="scale(1 1) rotate(0) translate(4 298)">
<title>itk::simple::detail::MemberFunctionFactoryBase&lt; TMemberFunctionPointer, TKey, TContainer &gt;</title>
<!-- Node1 -->
<g id="Node000001" class="node">
<title>Node1</title>
<g id="a_Node000001"><a xlink:title=" ">
<polygon fill="#999999" stroke="#666666" points="173.5,-52 9.5,-52 9.5,0 173.5,0 173.5,-52"/>
<text text-anchor="start" x="17.5" y="-40" font-family="Helvetica,sans-Serif" font-size="10.00">itk::simple::detail</text>
<text text-anchor="start" x="17.5" y="-29" font-family="Helvetica,sans-Serif" font-size="10.00">::MemberFunctionFactoryBase</text>
<text text-anchor="start" x="17.5" y="-18" font-family="Helvetica,sans-Serif" font-size="10.00">&lt; TMemberFunctionPointer,</text>
<text text-anchor="middle" x="91.5" y="-7" font-family="Helvetica,sans-Serif" font-size="10.00"> TKey, TContainer &gt;</text>
</a>
</g>
</g>
<!-- Node2 -->
<g id="Node000002" class="node">
<title>Node2</title>
<g id="a_Node000002"><a xlink:title=" ">
<polygon fill="white" stroke="#666666" points="183,-140 0,-140 0,-99 183,-99 183,-140"/>
<text text-anchor="start" x="8" y="-128" font-family="Helvetica,sans-Serif" font-size="10.00">std::unordered_map</text>
<text text-anchor="start" x="8" y="-117" font-family="Helvetica,sans-Serif" font-size="10.00">&lt; TKey, TMemberFunctionPointer,</text>
<text text-anchor="middle" x="91.5" y="-106" font-family="Helvetica,sans-Serif" font-size="10.00"> hash&lt; TKey &gt; &gt;</text>
</a>
</g>
</g>
<!-- Node2&#45;&gt;Node1 -->
<g id="edge1_Node000001_Node000002" class="edge">
<title>Node2&#45;&gt;Node1</title>
<g id="a_edge1_Node000001_Node000002"><a xlink:title=" ">
<path fill="none" stroke="#9a32cd" stroke-dasharray="5,2" d="M91.5,-88.39C91.5,-76.62 91.5,-63.28 91.5,-52.05"/>
<polygon fill="#9a32cd" stroke="#9a32cd" points="88,-88.65 91.5,-98.65 95,-88.65 88,-88.65"/>
</a>
</g>
<text text-anchor="middle" x="124.5" y="-73" font-family="Helvetica,sans-Serif" font-size="10.00" fill="grey"> m_PFunction</text>
</g>
<!-- Node3 -->
<g id="Node000003" class="node">
<title>Node3</title>
<g id="a_Node000003"><a xlink:title=" ">
<polygon fill="white" stroke="#666666" points="148.5,-228 34.5,-228 34.5,-198 148.5,-198 148.5,-228"/>
<text text-anchor="start" x="42.5" y="-216" font-family="Helvetica,sans-Serif" font-size="10.00">std::unordered_map</text>
<text text-anchor="middle" x="91.5" y="-205" font-family="Helvetica,sans-Serif" font-size="10.00">&lt; K, T &gt;</text>
</a>
</g>
</g>
<!-- Node3&#45;&gt;Node2 -->
<g id="edge2_Node000002_Node000003" class="edge">
<title>Node3&#45;&gt;Node2</title>
<g id="a_edge2_Node000002_Node000003"><a xlink:title=" ">
<path fill="none" stroke="orange" stroke-dasharray="5,2" d="M91.5,-187.69C91.5,-172.82 91.5,-154.05 91.5,-140.13"/>
<polygon fill="orange" stroke="orange" points="88,-187.7 91.5,-197.7 95,-187.7 88,-187.7"/>
</a>
</g>
<text text-anchor="start" x="91.5" y="-172" font-family="Helvetica,sans-Serif" font-size="10.00" fill="grey"> &lt; TKey, TMemberFunctionPointer,</text>
<text text-anchor="middle" x="176.5" y="-161" font-family="Helvetica,sans-Serif" font-size="10.00" fill="grey"> hash&lt; TKey &gt; &gt;</text>
</g>
<!-- Node4 -->
<g id="Node000004" class="node">
<title>Node4</title>
<g id="a_Node000004"><a xlink:title=" ">
<polygon fill="white" stroke="#666666" points="82,-294 53,-294 53,-275 82,-275 82,-294"/>
<text text-anchor="middle" x="67.5" y="-282" font-family="Helvetica,sans-Serif" font-size="10.00">K</text>
</a>
</g>
</g>
<!-- Node4&#45;&gt;Node3 -->
<g id="edge3_Node000003_Node000004" class="edge">
<title>Node4&#45;&gt;Node3</title>
<g id="a_edge3_Node000003_Node000004"><a xlink:title=" ">
<path fill="none" stroke="#9a32cd" stroke-dasharray="5,2" d="M65.84,-264.86C65.86,-258.71 66.5,-251.94 68.5,-246 70.64,-239.65 74.51,-233.47 78.48,-228.26"/>
<polygon fill="#9a32cd" stroke="#9a32cd" points="62.35,-265.09 66.32,-274.91 69.34,-264.76 62.35,-265.09"/>
</a>
</g>
<text text-anchor="middle" x="81.5" y="-249" font-family="Helvetica,sans-Serif" font-size="10.00" fill="grey"> keys</text>
</g>
<!-- Node5 -->
<g id="Node000005" class="node">
<title>Node5</title>
<g id="a_Node000005"><a xlink:title=" ">
<polygon fill="white" stroke="#666666" points="131,-294 102,-294 102,-275 131,-275 131,-294"/>
<text text-anchor="middle" x="116.5" y="-282" font-family="Helvetica,sans-Serif" font-size="10.00">T</text>
</a>
</g>
</g>
<!-- Node5&#45;&gt;Node3 -->
<g id="edge4_Node000003_Node000005" class="edge">
<title>Node5&#45;&gt;Node3</title>
<g id="a_edge4_Node000003_Node000005"><a xlink:title=" ">
<path fill="none" stroke="#9a32cd" stroke-dasharray="5,2" d="M110,-265.43C105.82,-253.8 100.46,-238.9 96.59,-228.14"/>
<polygon fill="#9a32cd" stroke="#9a32cd" points="106.76,-266.75 113.43,-274.98 113.34,-264.38 106.76,-266.75"/>
</a>
</g>
<text text-anchor="middle" x="130" y="-249" font-family="Helvetica,sans-Serif" font-size="10.00" fill="grey"> elements</text>
</g>
</g>
</svg>
