<?xml version="1.0" encoding="UTF-8" standalone="no"?>
<!DOCTYPE svg PUBLIC "-//W3C//DTD SVG 1.1//EN"
 "http://www.w3.org/Graphics/SVG/1.1/DTD/svg11.dtd">
<!-- Generated by graphviz version 2.40.1 (20161225.0304)
 -->
<!-- Title: itk::simple::FunctionCommand Pages: 1 -->
<!--zoomable 284 -->
<svg id="main" version="1.1" xmlns="http://www.w3.org/2000/svg" xmlns:xlink="http://www.w3.org/1999/xlink" xml:space="preserve" onload="init(evt)">
<style type="text/css"><![CDATA[
.edge:hover path { stroke: red; }
.edge:hover polygon { stroke: red; fill: red; }
]]></style>
<script type="text/javascript"><![CDATA[
var edges = document.getElementsByTagName('g');
if (edges && edges.length) {
  for (var i=0;i<edges.length;i++) {
    if (edges[i].id.substr(0,4)=='edge') {
      edges[i].setAttribute('class','edge');
    }
  }
}
]]></script>
        <defs>
                <circle id="rim" cx="0" cy="0" r="7"/>
                <circle id="rim2" cx="0" cy="0" r="3.5"/>
                <g id="zoomPlus">
                        <use xlink:href="#rim" fill="#404040">
                                <set attributeName="fill" to="#808080" begin="zoomplus.mouseover" end="zoomplus.mouseout"/>
                        </use>
                        <path d="M-4,0h8M0,-4v8" fill="none" stroke="white" stroke-width="1.5" pointer-events="none"/>
                </g>
                <g id="zoomMin">
                        <use xlink:href="#rim" fill="#404040">
                                <set attributeName="fill" to="#808080" begin="zoomminus.mouseover" end="zoomminus.mouseout"/>
                        </use>
                        <path d="M-4,0h8" fill="none" stroke="white" stroke-width="1.5" pointer-events="none"/>
                </g>
                <g id="dirArrow">
                        <path fill="none" stroke="white" stroke-width="1.5" d="M0,-3.0v7 M-2.5,-0.5L0,-3.0L2.5,-0.5"/>
                </g>
               <g id="resetDef">
                       <use xlink:href="#rim2" fill="#404040">
                               <set attributeName="fill" to="#808080" begin="reset.mouseover" end="reset.mouseout"/>
                       </use>
               </g>
        </defs>

<script type="text/javascript">
var viewWidth = 2027;
var viewHeight = 284;
var sectionId = 'dynsection-1';
</script>
<script xlink:href="svgpan.js"/>
<svg id="graph" class="graph">
<g id="viewport">
<title>itk::simple::FunctionCommand</title>
<polygon fill="#ffffff" stroke="transparent" points="-4,4 -4,-280 2023,-280 2023,4 -4,4"/>
<!-- Node1 -->
<g id="node1" class="node">
<title>Node1</title>
<g id="a_node1"><a xlink:title="A Command class which allows setting an external function, or member function.">
<polygon fill="#bfbfbf" stroke="#000000" points="1854,-218.5 1854,-237.5 2019,-237.5 2019,-218.5 1854,-218.5"/>
<text text-anchor="middle" x="1936.5" y="-225.5" font-family="Helvetica,sans-Serif" font-size="10.00" fill="#000000">itk::simple::FunctionCommand</text>
</a>
</g>
</g>
<!-- Node2 -->
<g id="node2" class="node">
<title>Node2</title>
<g id="a_node2"><a xlink:href="classitk_1_1simple_1_1Command.html" target="_top" xlink:title="An implementation of the Command design pattern for callback.">
<polygon fill="#ffffff" stroke="#000000" points="1692,-218.5 1692,-237.5 1817,-237.5 1817,-218.5 1692,-218.5"/>
<text text-anchor="middle" x="1754.5" y="-225.5" font-family="Helvetica,sans-Serif" font-size="10.00" fill="#000000">itk::simple::Command</text>
</a>
</g>
</g>
<!-- Node2&#45;&gt;Node1 -->
<g id="edge1" class="edge">
<title>Node2&#45;&gt;Node1</title>
<path fill="none" stroke="#191970" d="M1827.2594,-228C1835.9935,-228 1844.9613,-228 1853.823,-228"/>
<polygon fill="#191970" stroke="#191970" points="1827.1341,-224.5001 1817.1341,-228 1827.134,-231.5001 1827.1341,-224.5001"/>
</g>
<!-- Node3 -->
<g id="node3" class="node">
<title>Node3</title>
<g id="a_node3"><a xlink:href="classitk_1_1simple_1_1ObjectOwnedBase.html" target="_top" xlink:title="An abstract base class to connect this object with the lifetime of another.">
<polygon fill="#ffffff" stroke="#000000" points="1491,-218.5 1491,-237.5 1655,-237.5 1655,-218.5 1491,-218.5"/>
<text text-anchor="middle" x="1573" y="-225.5" font-family="Helvetica,sans-Serif" font-size="10.00" fill="#000000">itk::simple::ObjectOwnedBase</text>
</a>
</g>
</g>
<!-- Node3&#45;&gt;Node2 -->
<g id="edge2" class="edge">
<title>Node3&#45;&gt;Node2</title>
<path fill="none" stroke="#191970" d="M1665.3608,-228C1674.3219,-228 1683.262,-228 1691.8315,-228"/>
<polygon fill="#191970" stroke="#191970" points="1665.2533,-224.5001 1655.2533,-228 1665.2532,-231.5001 1665.2533,-224.5001"/>
</g>
<!-- Node4 -->
<g id="node4" class="node">
<title>Node4</title>
<g id="a_node4"><a xlink:href="classitk_1_1simple_1_1NonCopyable.html" target="_top" xlink:title="An inheritable class to disable copying of a class.">
<polygon fill="#ffffff" stroke="#000000" points="1158,-256.5 1158,-275.5 1298,-275.5 1298,-256.5 1158,-256.5"/>
<text text-anchor="middle" x="1228" y="-263.5" font-family="Helvetica,sans-Serif" font-size="10.00" fill="#000000">itk::simple::NonCopyable</text>
</a>
</g>
</g>
<!-- Node4&#45;&gt;Node3 -->
<g id="edge3" class="edge">
<title>Node4&#45;&gt;Node3</title>
<path fill="none" stroke="#191970" d="M1308.048,-259.0025C1355.9566,-254.6044 1418.0258,-248.538 1473,-242 1484.315,-240.6543 1496.331,-239.0894 1507.9625,-237.5034"/>
<polygon fill="#191970" stroke="#191970" points="1307.6878,-255.5207 1298.0474,-259.9152 1308.3241,-262.4917 1307.6878,-255.5207"/>
</g>
<!-- Node5 -->
<g id="node5" class="node">
<title>Node5</title>
<g id="a_node5"><a xlink:title=" ">
<polygon fill="#ffffff" stroke="#bfbfbf" points="1163.5,-158.5 1163.5,-199.5 1292.5,-199.5 1292.5,-158.5 1163.5,-158.5"/>
<text text-anchor="start" x="1171.5" y="-187.5" font-family="Helvetica,sans-Serif" font-size="10.00" fill="#000000">std::multimap&lt; itk</text>
<text text-anchor="start" x="1171.5" y="-176.5" font-family="Helvetica,sans-Serif" font-size="10.00" fill="#000000">::Object *, std::function</text>
<text text-anchor="middle" x="1228" y="-165.5" font-family="Helvetica,sans-Serif" font-size="10.00" fill="#000000">&lt; void()&gt; &gt;</text>
</a>
</g>
</g>
<!-- Node5&#45;&gt;Node3 -->
<g id="edge4" class="edge">
<title>Node5&#45;&gt;Node3</title>
<path fill="none" stroke="#9a32cd" stroke-dasharray="5,2" d="M1302.7151,-183.4508C1351.4415,-187.0577 1416.2864,-193.188 1473,-203 1495.5708,-206.905 1520.5708,-213.155 1539.9281,-218.4287"/>
<polygon fill="#9a32cd" stroke="#9a32cd" points="1302.7968,-179.9477 1292.5708,-182.7191 1302.2931,-186.9296 1302.7968,-179.9477"/>
<text text-anchor="middle" x="1394.5" y="-206" font-family="Helvetica,sans-Serif" font-size="10.00" fill="#000000"> m_ReferencedObjectsCallbacks</text>
</g>
<!-- Node6 -->
<g id="node6" class="node">
<title>Node6</title>
<g id="a_node6"><a xlink:href="https://www.itk.org/Doxygen/html/classitk_1_1Object.html" xlink:title=" ">
<polygon fill="#ffffff" stroke="#000000" points="1007,-110.5 1007,-129.5 1074,-129.5 1074,-110.5 1007,-110.5"/>
<text text-anchor="middle" x="1040.5" y="-117.5" font-family="Helvetica,sans-Serif" font-size="10.00" fill="#000000">itk::Object</text>
</a>
</g>
</g>
<!-- Node6&#45;&gt;Node5 -->
<g id="edge5" class="edge">
<title>Node6&#45;&gt;Node5</title>
<path fill="none" stroke="#9a32cd" stroke-dasharray="5,2" d="M1080.8728,-132.704C1104.8837,-140.2594 1135.9001,-150.0192 1163.2598,-158.6284"/>
<polygon fill="#9a32cd" stroke="#9a32cd" points="1081.6319,-129.2737 1071.0424,-129.6107 1079.5307,-135.9509 1081.6319,-129.2737"/>
<text text-anchor="middle" x="1116" y="-155" font-family="Helvetica,sans-Serif" font-size="10.00" fill="#000000"> keys</text>
</g>
<!-- Node7 -->
<g id="node7" class="node">
<title>Node7</title>
<g id="a_node7"><a xlink:href="https://www.itk.org/Doxygen/html/classitk_1_1LightObject.html" xlink:title=" ">
<polygon fill="#ffffff" stroke="#000000" points="743,-64.5 743,-83.5 834,-83.5 834,-64.5 743,-64.5"/>
<text text-anchor="middle" x="788.5" y="-71.5" font-family="Helvetica,sans-Serif" font-size="10.00" fill="#000000">itk::LightObject</text>
</a>
</g>
</g>
<!-- Node7&#45;&gt;Node6 -->
<g id="edge6" class="edge">
<title>Node7&#45;&gt;Node6</title>
<path fill="none" stroke="#191970" d="M844.0733,-81.2385C884.4834,-86.8974 940.3931,-95.5458 989,-106 994.9785,-107.2858 1001.2974,-108.8392 1007.3838,-110.4367"/>
<polygon fill="#191970" stroke="#191970" points="844.5327,-77.7688 834.1473,-79.8649 843.5731,-84.7027 844.5327,-77.7688"/>
</g>
<!-- Node8 -->
<g id="node8" class="node">
<title>Node8</title>
<g id="a_node8"><a xlink:title=" ">
<polygon fill="#ffffff" stroke="#bfbfbf" points="462.5,-71.5 462.5,-90.5 569.5,-90.5 569.5,-71.5 462.5,-71.5"/>
<text text-anchor="middle" x="516" y="-78.5" font-family="Helvetica,sans-Serif" font-size="10.00" fill="#000000">std::atomic&lt; int &gt;</text>
</a>
</g>
</g>
<!-- Node8&#45;&gt;Node7 -->
<g id="edge7" class="edge">
<title>Node8&#45;&gt;Node7</title>
<path fill="none" stroke="#9a32cd" stroke-dasharray="5,2" d="M579.5731,-79.3669C629.592,-78.082 698.0857,-76.3226 742.802,-75.1739"/>
<polygon fill="#9a32cd" stroke="#9a32cd" points="579.4189,-75.8696 569.5121,-79.6254 579.5987,-82.8673 579.4189,-75.8696"/>
<text text-anchor="middle" x="656" y="-82" font-family="Helvetica,sans-Serif" font-size="10.00" fill="#000000"> m_ReferenceCount</text>
</g>
<!-- Node9 -->
<g id="node9" class="node">
<title>Node9</title>
<g id="a_node9"><a xlink:title="STL class.">
<polygon fill="#ffffff" stroke="#bfbfbf" points="127,-102.5 127,-121.5 227,-121.5 227,-102.5 127,-102.5"/>
<text text-anchor="middle" x="177" y="-109.5" font-family="Helvetica,sans-Serif" font-size="10.00" fill="#000000">std::atomic&lt; T &gt;</text>
</a>
</g>
</g>
<!-- Node9&#45;&gt;Node8 -->
<g id="edge8" class="edge">
<title>Node9&#45;&gt;Node8</title>
<path fill="none" stroke="#ffa500" stroke-dasharray="5,2" d="M210.1531,-98.9482C224.6093,-93.891 241.9017,-88.6804 258,-86 327.8229,-74.3744 409.7356,-75.1945 462.2178,-77.5261"/>
<polygon fill="#ffa500" stroke="#ffa500" points="208.8574,-95.6949 200.6475,-102.3918 211.2417,-102.2763 208.8574,-95.6949"/>
<text text-anchor="middle" x="341" y="-89" font-family="Helvetica,sans-Serif" font-size="10.00" fill="#000000"> &lt; int &gt;</text>
</g>
<!-- Node18 -->
<g id="node18" class="node">
<title>Node18</title>
<g id="a_node18"><a xlink:href="https://www.itk.org/Doxygen/html/classitk_1_1TimeStamp.html" xlink:title=" ">
<polygon fill="#ffffff" stroke="#000000" points="610,-109.5 610,-128.5 702,-128.5 702,-109.5 610,-109.5"/>
<text text-anchor="middle" x="656" y="-116.5" font-family="Helvetica,sans-Serif" font-size="10.00" fill="#000000">itk::TimeStamp</text>
</a>
</g>
</g>
<!-- Node9&#45;&gt;Node18 -->
<g id="edge20" class="edge">
<title>Node9&#45;&gt;Node18</title>
<path fill="none" stroke="#9a32cd" stroke-dasharray="5,2" d="M237.5924,-112.8855C334.6431,-114.3038 522.8516,-117.0542 609.849,-118.3256"/>
<polygon fill="#9a32cd" stroke="#9a32cd" points="237.4062,-109.3825 227.3561,-112.7359 237.3038,-116.3817 237.4062,-109.3825"/>
<text text-anchor="middle" x="341" y="-119" font-family="Helvetica,sans-Serif" font-size="10.00" fill="#000000"> m_GlobalTimeStamp</text>
</g>
<!-- Node10 -->
<g id="node10" class="node">
<title>Node10</title>
<g id="a_node10"><a xlink:title=" ">
<polygon fill="#ffffff" stroke="#bfbfbf" points="0,-68.5 0,-87.5 29,-87.5 29,-68.5 0,-68.5"/>
<text text-anchor="middle" x="14.5" y="-75.5" font-family="Helvetica,sans-Serif" font-size="10.00" fill="#000000">T</text>
</a>
</g>
</g>
<!-- Node10&#45;&gt;Node9 -->
<g id="edge9" class="edge">
<title>Node10&#45;&gt;Node9</title>
<path fill="none" stroke="#9a32cd" stroke-dasharray="5,2" d="M38.7934,-87.5244C41.5385,-88.4346 44.314,-89.2835 47,-90 72.9875,-96.932 102.506,-102.1353 126.8394,-105.7364"/>
<polygon fill="#9a32cd" stroke="#9a32cd" points="39.7923,-84.1645 29.1977,-84.0864 37.4312,-90.7543 39.7923,-84.1645"/>
<text text-anchor="middle" x="71.5" y="-104" font-family="Helvetica,sans-Serif" font-size="10.00" fill="#000000"> ptr</text>
</g>
<!-- Node15 -->
<g id="node15" class="node">
<title>Node15</title>
<g id="a_node15"><a xlink:title="STL class.">
<polygon fill="#ffffff" stroke="#bfbfbf" points="126.5,-38.5 126.5,-57.5 227.5,-57.5 227.5,-38.5 126.5,-38.5"/>
<text text-anchor="middle" x="177" y="-45.5" font-family="Helvetica,sans-Serif" font-size="10.00" fill="#000000">std::map&lt; K, T &gt;</text>
</a>
</g>
</g>
<!-- Node10&#45;&gt;Node15 -->
<g id="edge16" class="edge">
<title>Node10&#45;&gt;Node15</title>
<path fill="none" stroke="#9a32cd" stroke-dasharray="5,2" d="M27.0311,-60.4168C32.4105,-54.3399 39.249,-48.2453 47,-45 74.4875,-33.4912 108.1915,-34.6484 134.3932,-38.4697"/>
<polygon fill="#9a32cd" stroke="#9a32cd" points="24.1458,-58.4215 20.6512,-68.4234 29.6203,-62.7838 24.1458,-58.4215"/>
<text text-anchor="middle" x="71.5" y="-48" font-family="Helvetica,sans-Serif" font-size="10.00" fill="#000000"> elements</text>
</g>
<!-- Node17 -->
<g id="node17" class="node">
<title>Node17</title>
<g id="a_node17"><a xlink:title="STL class.">
<polygon fill="#ffffff" stroke="#bfbfbf" points="118,-.5 118,-19.5 236,-19.5 236,-.5 118,-.5"/>
<text text-anchor="middle" x="177" y="-7.5" font-family="Helvetica,sans-Serif" font-size="10.00" fill="#000000">std::shared_ptr&lt; T &gt;</text>
</a>
</g>
</g>
<!-- Node10&#45;&gt;Node17 -->
<g id="edge18" class="edge">
<title>Node10&#45;&gt;Node17</title>
<path fill="none" stroke="#9a32cd" stroke-dasharray="5,2" d="M20.1457,-58.9104C25.0459,-45.9333 33.5171,-29.6137 47,-21 67.7098,-7.7693 94.2168,-3.7778 117.8868,-3.5704"/>
<polygon fill="#9a32cd" stroke="#9a32cd" points="16.828,-57.796 16.9539,-68.3901 23.462,-60.0298 16.828,-57.796"/>
<text text-anchor="middle" x="71.5" y="-24" font-family="Helvetica,sans-Serif" font-size="10.00" fill="#000000"> ptr</text>
</g>
<!-- Node19 -->
<g id="node19" class="node">
<title>Node19</title>
<g id="a_node19"><a xlink:title="STL class.">
<polygon fill="#ffffff" stroke="#bfbfbf" points="114,-169.5 114,-188.5 240,-188.5 240,-169.5 114,-169.5"/>
<text text-anchor="middle" x="177" y="-176.5" font-family="Helvetica,sans-Serif" font-size="10.00" fill="#000000">std::multimap&lt; K, T &gt;</text>
</a>
</g>
</g>
<!-- Node10&#45;&gt;Node19 -->
<g id="edge23" class="edge">
<title>Node10&#45;&gt;Node19</title>
<path fill="none" stroke="#9a32cd" stroke-dasharray="5,2" d="M27.2592,-95.8907C32.7784,-102.7732 39.655,-110.3317 47,-116 64.9192,-129.8287 122.1971,-155.4763 154.4235,-169.4015"/>
<polygon fill="#9a32cd" stroke="#9a32cd" points="29.8959,-93.5754 21.0612,-87.7275 24.3208,-97.8084 29.8959,-93.5754"/>
<text text-anchor="middle" x="71.5" y="-145" font-family="Helvetica,sans-Serif" font-size="10.00" fill="#000000"> elements</text>
</g>
<!-- Node11 -->
<g id="node11" class="node">
<title>Node11</title>
<g id="a_node11"><a xlink:title="STL class.">
<polygon fill="#ffffff" stroke="#bfbfbf" points="756,-219.5 756,-238.5 821,-238.5 821,-219.5 756,-219.5"/>
<text text-anchor="middle" x="788.5" y="-226.5" font-family="Helvetica,sans-Serif" font-size="10.00" fill="#000000">std::string</text>
</a>
</g>
</g>
<!-- Node11&#45;&gt;Node3 -->
<g id="edge24" class="edge">
<title>Node11&#45;&gt;Node3</title>
<path fill="none" stroke="#9a32cd" stroke-dasharray="5,2" d="M831.5754,-228.9451C957.3079,-228.7848 1325.3511,-228.3157 1490.7892,-228.1048"/>
<polygon fill="#9a32cd" stroke="#9a32cd" points="831.2057,-225.4455 821.2102,-228.9583 831.2147,-232.4455 831.2057,-225.4455"/>
<text text-anchor="middle" x="1116" y="-231" font-family="Helvetica,sans-Serif" font-size="10.00" fill="#000000"> m_Name</text>
</g>
<!-- Node11&#45;&gt;Node6 -->
<g id="edge10" class="edge">
<title>Node11&#45;&gt;Node6</title>
<path fill="none" stroke="#9a32cd" stroke-dasharray="5,2" d="M826.1155,-216.0419C835.6016,-212.6053 845.7243,-208.7913 855,-205 916.484,-179.8695 987.4135,-145.9537 1020.9697,-129.6027"/>
<polygon fill="#9a32cd" stroke="#9a32cd" points="824.7615,-212.8089 816.5225,-219.4699 827.1171,-219.4007 824.7615,-212.8089"/>
<text text-anchor="middle" x="931" y="-200" font-family="Helvetica,sans-Serif" font-size="10.00" fill="#000000"> m_ObjectName</text>
</g>
<!-- Node12 -->
<g id="node12" class="node">
<title>Node12</title>
<g id="a_node12"><a xlink:title="STL class.">
<polygon fill="#ffffff" stroke="#bfbfbf" points="464,-214 464,-244 568,-244 568,-214 464,-214"/>
<text text-anchor="start" x="472" y="-232" font-family="Helvetica,sans-Serif" font-size="10.00" fill="#000000">std::basic_string&lt;</text>
<text text-anchor="middle" x="516" y="-221" font-family="Helvetica,sans-Serif" font-size="10.00" fill="#000000"> char &gt;</text>
</a>
</g>
</g>
<!-- Node12&#45;&gt;Node11 -->
<g id="edge11" class="edge">
<title>Node12&#45;&gt;Node11</title>
<path fill="none" stroke="#191970" d="M578.2419,-229C633.4471,-229 711.9232,-229 755.718,-229"/>
<polygon fill="#191970" stroke="#191970" points="578.2184,-225.5001 568.2183,-229 578.2183,-232.5001 578.2184,-225.5001"/>
</g>
<!-- Node13 -->
<g id="node13" class="node">
<title>Node13</title>
<g id="a_node13"><a xlink:href="https://www.itk.org/Doxygen/html/classitk_1_1MetaDataDictionary.html" xlink:title=" ">
<polygon fill="#ffffff" stroke="#000000" points="722,-26.5 722,-45.5 855,-45.5 855,-26.5 722,-26.5"/>
<text text-anchor="middle" x="788.5" y="-33.5" font-family="Helvetica,sans-Serif" font-size="10.00" fill="#000000">itk::MetaDataDictionary</text>
</a>
</g>
</g>
<!-- Node13&#45;&gt;Node6 -->
<g id="edge12" class="edge">
<title>Node13&#45;&gt;Node6</title>
<path fill="none" stroke="#9a32cd" stroke-dasharray="5,2" d="M865.3861,-38.9141C904.1578,-42.9343 950.9067,-51.809 989,-71 1007.7369,-80.4394 1024.2993,-98.9501 1033.3126,-110.3217"/>
<polygon fill="#9a32cd" stroke="#9a32cd" points="865.4805,-35.4074 855.1949,-37.9487 864.8203,-42.3762 865.4805,-35.4074"/>
<text text-anchor="middle" x="931" y="-74" font-family="Helvetica,sans-Serif" font-size="10.00" fill="#000000"> m_MetaDataDictionary</text>
</g>
<!-- Node14 -->
<g id="node14" class="node">
<title>Node14</title>
<g id="a_node14"><a xlink:title=" ">
<polygon fill="#ffffff" stroke="#bfbfbf" points="442,-21 442,-51 590,-51 590,-21 442,-21"/>
<text text-anchor="start" x="450" y="-39" font-family="Helvetica,sans-Serif" font-size="10.00" fill="#000000">std::shared_ptr&lt; MetaData</text>
<text text-anchor="middle" x="516" y="-28" font-family="Helvetica,sans-Serif" font-size="10.00" fill="#000000">DictionaryMapType &gt;</text>
</a>
</g>
</g>
<!-- Node14&#45;&gt;Node13 -->
<g id="edge13" class="edge">
<title>Node14&#45;&gt;Node13</title>
<path fill="none" stroke="#9a32cd" stroke-dasharray="5,2" d="M600.4076,-36C639.4896,-36 685.2598,-36 721.8642,-36"/>
<polygon fill="#9a32cd" stroke="#9a32cd" points="600.1019,-32.5001 590.1019,-36 600.1018,-39.5001 600.1019,-32.5001"/>
<text text-anchor="middle" x="656" y="-39" font-family="Helvetica,sans-Serif" font-size="10.00" fill="#000000"> m_Dictionary</text>
</g>
<!-- Node15&#45;&gt;Node14 -->
<g id="edge14" class="edge">
<title>Node15&#45;&gt;Node14</title>
<path fill="none" stroke="#9a32cd" stroke-dasharray="5,2" d="M238.0911,-45.8375C295.2991,-43.8124 380.8959,-40.7824 441.9626,-38.6208"/>
<polygon fill="#9a32cd" stroke="#9a32cd" points="237.6216,-42.3518 227.7517,-46.2035 237.8693,-49.3474 237.6216,-42.3518"/>
<text text-anchor="middle" x="341" y="-49" font-family="Helvetica,sans-Serif" font-size="10.00" fill="#000000"> ptr</text>
</g>
<!-- Node16 -->
<g id="node16" class="node">
<title>Node16</title>
<g id="a_node16"><a xlink:title=" ">
<polygon fill="#ffffff" stroke="#bfbfbf" points="0,-138.5 0,-157.5 29,-157.5 29,-138.5 0,-138.5"/>
<text text-anchor="middle" x="14.5" y="-145.5" font-family="Helvetica,sans-Serif" font-size="10.00" fill="#000000">K</text>
</a>
</g>
</g>
<!-- Node16&#45;&gt;Node15 -->
<g id="edge15" class="edge">
<title>Node16&#45;&gt;Node15</title>
<path fill="none" stroke="#9a32cd" stroke-dasharray="5,2" d="M18.5154,-127.9809C22.8097,-111.8234 31.2475,-89.7515 47,-77 59.2669,-67.0701 95.412,-59.4846 126.4839,-54.5666"/>
<polygon fill="#9a32cd" stroke="#9a32cd" points="15.0334,-127.5006 16.1655,-138.0348 21.8497,-129.0939 15.0334,-127.5006"/>
<text text-anchor="middle" x="71.5" y="-80" font-family="Helvetica,sans-Serif" font-size="10.00" fill="#000000"> keys</text>
</g>
<!-- Node16&#45;&gt;Node19 -->
<g id="edge22" class="edge">
<title>Node16&#45;&gt;Node19</title>
<path fill="none" stroke="#9a32cd" stroke-dasharray="5,2" d="M38.8517,-155.8903C41.586,-156.6575 44.3429,-157.3798 47,-158 68.5956,-163.0411 92.4899,-167.277 113.8404,-170.5941"/>
<polygon fill="#9a32cd" stroke="#9a32cd" points="39.851,-152.5361 29.2671,-153.0165 37.8405,-159.2412 39.851,-152.5361"/>
<text text-anchor="middle" x="71.5" y="-171" font-family="Helvetica,sans-Serif" font-size="10.00" fill="#000000"> keys</text>
</g>
<!-- Node17&#45;&gt;Node14 -->
<g id="edge17" class="edge">
<title>Node17&#45;&gt;Node14</title>
<path fill="none" stroke="#ffa500" stroke-dasharray="5,2" d="M246.492,-13.1354C296.0317,-15.6354 364.1803,-19.6121 424,-25 429.7676,-25.5195 435.7324,-26.1104 441.7249,-26.7424"/>
<polygon fill="#ffa500" stroke="#ffa500" points="246.3744,-9.6253 236.2129,-12.6244 246.0268,-16.6167 246.3744,-9.6253"/>
<text text-anchor="middle" x="341" y="-28" font-family="Helvetica,sans-Serif" font-size="10.00" fill="#000000"> &lt; MetaDataDictionaryMapType &gt;</text>
</g>
<!-- Node18&#45;&gt;Node6 -->
<g id="edge19" class="edge">
<title>Node18&#45;&gt;Node6</title>
<path fill="none" stroke="#9a32cd" stroke-dasharray="5,2" d="M712.4241,-119.1467C793.6233,-119.3579 940.9041,-119.741 1006.9159,-119.9127"/>
<polygon fill="#9a32cd" stroke="#9a32cd" points="712.3888,-115.6467 702.3797,-119.1206 712.3705,-122.6467 712.3888,-115.6467"/>
<text text-anchor="middle" x="788.5" y="-123" font-family="Helvetica,sans-Serif" font-size="10.00" fill="#000000"> m_MTime</text>
</g>
<!-- Node19&#45;&gt;Node5 -->
<g id="edge21" class="edge">
<title>Node19&#45;&gt;Node5</title>
<path fill="none" stroke="#ffa500" stroke-dasharray="5,2" d="M250.3807,-179C319.0435,-179 424.472,-179 516,-179 516,-179 516,-179 1040.5,-179 1081.3529,-179 1127.2126,-179 1163.352,-179"/>
<polygon fill="#ffa500" stroke="#ffa500" points="250.1039,-175.5001 240.1039,-179 250.1039,-182.5001 250.1039,-175.5001"/>
<text text-anchor="start" x="735.5" y="-193" font-family="Helvetica,sans-Serif" font-size="10.00" fill="#000000"> &lt; itk::Object *, std</text>
<text text-anchor="middle" x="788.5" y="-182" font-family="Helvetica,sans-Serif" font-size="10.00" fill="#000000">::function&lt; void()&gt; &gt;</text>
</g>
</g>
</svg>
        <g id="navigator" transform="translate(0 0)" fill="#404254">
                <rect fill="#f2f5e9" fill-opacity="0.5" stroke="#606060" stroke-width=".5" x="0" y="0" width="60" height="60"/>
                <use id="zoomplus" xlink:href="#zoomPlus" x="17" y="9" onmousedown="handleZoom(evt,'in')"/>
                <use id="zoomminus" xlink:href="#zoomMin" x="42" y="9" onmousedown="handleZoom(evt,'out')"/>
                <use id="reset" xlink:href="#resetDef" x="30" y="36" onmousedown="handleReset()"/>
                <g id="arrowUp" xlink:href="#dirArrow" transform="translate(30 24)" onmousedown="handlePan(0,-1)">
                  <use xlink:href="#rim" fill="#404040">
                        <set attributeName="fill" to="#808080" begin="arrowUp.mouseover" end="arrowUp.mouseout"/>
                  </use>
                  <path fill="none" stroke="white" stroke-width="1.5" d="M0,-3.0v7 M-2.5,-0.5L0,-3.0L2.5,-0.5"/>
                </g>
                <g id="arrowRight" xlink:href="#dirArrow" transform="rotate(90) translate(36 -43)" onmousedown="handlePan(1,0)">
                  <use xlink:href="#rim" fill="#404040">
                        <set attributeName="fill" to="#808080" begin="arrowRight.mouseover" end="arrowRight.mouseout"/>
                  </use>
                  <path fill="none" stroke="white" stroke-width="1.5" d="M0,-3.0v7 M-2.5,-0.5L0,-3.0L2.5,-0.5"/>
                </g>
                <g id="arrowDown" xlink:href="#dirArrow" transform="rotate(180) translate(-30 -48)" onmousedown="handlePan(0,1)">
                  <use xlink:href="#rim" fill="#404040">
                        <set attributeName="fill" to="#808080" begin="arrowDown.mouseover" end="arrowDown.mouseout"/>
                  </use>
                  <path fill="none" stroke="white" stroke-width="1.5" d="M0,-3.0v7 M-2.5,-0.5L0,-3.0L2.5,-0.5"/>
                </g>
                <g id="arrowLeft" xlink:href="#dirArrow" transform="rotate(270) translate(-36 17)" onmousedown="handlePan(-1,0)">
                  <use xlink:href="#rim" fill="#404040">
                        <set attributeName="fill" to="#808080" begin="arrowLeft.mouseover" end="arrowLeft.mouseout"/>
                  </use>
                  <path fill="none" stroke="white" stroke-width="1.5" d="M0,-3.0v7 M-2.5,-0.5L0,-3.0L2.5,-0.5"/>
                </g>
        </g>
        <svg viewBox="0 0 15 15" width="100%" height="30px" preserveAspectRatio="xMaxYMin meet">
         <g id="arrow_out" transform="scale(0.3 0.3)">
          <a xlink:href="classitk_1_1simple_1_1FunctionCommand__coll__graph_org.svg" target="_base">
           <rect id="button" ry="5" rx="5" y="6" x="6" height="38" width="38"
                fill="#f2f5e9" fill-opacity="0.5" stroke="#606060" stroke-width="1.0"/>
           <path id="arrow"
             d="M 11.500037,31.436501 C 11.940474,20.09759 22.043105,11.32322 32.158766,21.979434 L 37.068811,17.246167 C 37.068811,17.246167 37.088388,32 37.088388,32 L 22.160133,31.978069 C 22.160133,31.978069 26.997745,27.140456 26.997745,27.140456 C 18.528582,18.264221 13.291696,25.230495 11.500037,31.436501 z"
             style="fill:#404040;"/>
          </a>
         </g>
        </svg>
</svg>
