<?xml version="1.0" encoding="UTF-8" standalone="no"?>
<!DOCTYPE svg PUBLIC "-//W3C//DTD SVG 1.1//EN"
 "http://www.w3.org/Graphics/SVG/1.1/DTD/svg11.dtd">
<!-- Generated by graphviz version 2.43.0 (0)
 -->
<!-- Title: itk::simple::GridImageSource Pages: 1 -->
<svg width="2874pt" height="363pt"
 viewBox="0.00 0.00 2874.00 363.00" xmlns="http://www.w3.org/2000/svg" xmlns:xlink="http://www.w3.org/1999/xlink">
<g id="graph0" class="graph" transform="scale(1 1) rotate(0) translate(4 359)">
<title>itk::simple::GridImageSource</title>
<polygon fill="white" stroke="transparent" points="-4,4 -4,-359 2870,-359 2870,4 -4,4"/>
<!-- Node1 -->
<g id="node1" class="node">
<title>Node1</title>
<g id="a_node1"><a xlink:title="Generate an n&#45;dimensional image of a grid.">
<polygon fill="#bfbfbf" stroke="black" points="2708,-139.5 2708,-158.5 2866,-158.5 2866,-139.5 2708,-139.5"/>
<text text-anchor="middle" x="2787" y="-146.5" font-family="Helvetica,sans-Serif" font-size="10.00">itk::simple::GridImageSource</text>
</a>
</g>
</g>
<!-- Node2 -->
<g id="node2" class="node">
<title>Node2</title>
<g id="a_node2"><a xlink:href="classitk_1_1simple_1_1ImageFilter.html" target="_top" xlink:title="The base interface for SimpleITK filters that take one input image.">
<polygon fill="white" stroke="black" points="2418,-239.5 2418,-258.5 2548,-258.5 2548,-239.5 2418,-239.5"/>
<text text-anchor="middle" x="2483" y="-246.5" font-family="Helvetica,sans-Serif" font-size="10.00">itk::simple::ImageFilter</text>
</a>
</g>
</g>
<!-- Node2&#45;&gt;Node1 -->
<g id="edge1" class="edge">
<title>Node2&#45;&gt;Node1</title>
<path fill="none" stroke="midnightblue" d="M2558.27,-255.44C2598.7,-256.16 2648.74,-252.4 2690,-235 2730,-218.13 2764.5,-177.44 2778.87,-158.72"/>
<polygon fill="midnightblue" stroke="midnightblue" points="2558.3,-251.94 2548.21,-255.16 2558.11,-258.93 2558.3,-251.94"/>
</g>
<!-- Node3 -->
<g id="node3" class="node">
<title>Node3</title>
<g id="a_node3"><a xlink:href="classitk_1_1simple_1_1ProcessObject.html" target="_top" xlink:title="Base class for SimpleITK classes based on ProcessObject.">
<polygon fill="white" stroke="black" points="2123,-242.5 2123,-261.5 2266,-261.5 2266,-242.5 2123,-242.5"/>
<text text-anchor="middle" x="2194.5" y="-249.5" font-family="Helvetica,sans-Serif" font-size="10.00">itk::simple::ProcessObject</text>
</a>
</g>
</g>
<!-- Node3&#45;&gt;Node2 -->
<g id="edge2" class="edge">
<title>Node3&#45;&gt;Node2</title>
<path fill="none" stroke="midnightblue" d="M2276.58,-251.15C2321.33,-250.68 2376.12,-250.11 2417.86,-249.67"/>
<polygon fill="midnightblue" stroke="midnightblue" points="2276.28,-247.65 2266.32,-251.26 2276.36,-254.65 2276.28,-247.65"/>
</g>
<!-- Node4 -->
<g id="node4" class="node">
<title>Node4</title>
<g id="a_node4"><a xlink:href="classitk_1_1simple_1_1NonCopyable.html" target="_top" xlink:title="An inheritable class to disable copying of a class.">
<polygon fill="white" stroke="black" points="382,-335.5 382,-354.5 522,-354.5 522,-335.5 382,-335.5"/>
<text text-anchor="middle" x="452" y="-342.5" font-family="Helvetica,sans-Serif" font-size="10.00">itk::simple::NonCopyable</text>
</a>
</g>
</g>
<!-- Node4&#45;&gt;Node3 -->
<g id="edge3" class="edge">
<title>Node4&#45;&gt;Node3</title>
<path fill="none" stroke="darkgreen" d="M532.21,-344.64C601.94,-344.35 706.21,-344 797,-344 797,-344 797,-344 1864.5,-344 1985.79,-344 2123.24,-285.29 2173.64,-261.67"/>
<polygon fill="darkgreen" stroke="darkgreen" points="532.17,-341.14 522.18,-344.68 532.2,-348.14 532.17,-341.14"/>
</g>
<!-- Node8 -->
<g id="node8" class="node">
<title>Node8</title>
<g id="a_node8"><a xlink:href="classitk_1_1simple_1_1ObjectOwnedBase.html" target="_top" xlink:title="An abstract base class to connect this object with the lifetime of another.">
<polygon fill="white" stroke="black" points="716,-273.5 716,-292.5 880,-292.5 880,-273.5 716,-273.5"/>
<text text-anchor="middle" x="798" y="-280.5" font-family="Helvetica,sans-Serif" font-size="10.00">itk::simple::ObjectOwnedBase</text>
</a>
</g>
</g>
<!-- Node4&#45;&gt;Node8 -->
<g id="edge8" class="edge">
<title>Node4&#45;&gt;Node8</title>
<path fill="none" stroke="midnightblue" d="M527.78,-333.92C576.4,-326.44 641.11,-315.96 698,-305 717.36,-301.27 738.73,-296.59 756.65,-292.51"/>
<polygon fill="midnightblue" stroke="midnightblue" points="527.01,-330.5 517.66,-335.47 528.07,-337.42 527.01,-330.5"/>
</g>
<!-- Node5 -->
<g id="node5" class="node">
<title>Node5</title>
<g id="a_node5"><a xlink:title=" ">
<polygon fill="white" stroke="#bfbfbf" points="1770,-237 1770,-267 1957,-267 1957,-237 1770,-237"/>
<text text-anchor="start" x="1778" y="-255" font-family="Helvetica,sans-Serif" font-size="10.00">std::list&lt; itk::simple</text>
<text text-anchor="middle" x="1863.5" y="-244" font-family="Helvetica,sans-Serif" font-size="10.00">::ProcessObject::EventCommand &gt;</text>
</a>
</g>
</g>
<!-- Node5&#45;&gt;Node3 -->
<g id="edge4" class="edge">
<title>Node5&#45;&gt;Node3</title>
<path fill="none" stroke="#9a32cd" stroke-dasharray="5,2" d="M1967.33,-252C2017.85,-252 2077.45,-252 2122.79,-252"/>
<polygon fill="#9a32cd" stroke="#9a32cd" points="1967.02,-248.5 1957.02,-252 1967.02,-255.5 1967.02,-248.5"/>
<text text-anchor="middle" x="2040" y="-255" font-family="Helvetica,sans-Serif" font-size="10.00"> m_Commands</text>
</g>
<!-- Node6 -->
<g id="node6" class="node">
<title>Node6</title>
<g id="a_node6"><a xlink:href="structitk_1_1simple_1_1ProcessObject_1_1EventCommand.html" target="_top" xlink:title=" ">
<polygon fill="white" stroke="black" points="1412.5,-248 1412.5,-278 1555.5,-278 1555.5,-248 1412.5,-248"/>
<text text-anchor="start" x="1420.5" y="-266" font-family="Helvetica,sans-Serif" font-size="10.00">itk::simple::ProcessObject</text>
<text text-anchor="middle" x="1484" y="-255" font-family="Helvetica,sans-Serif" font-size="10.00">::EventCommand</text>
</a>
</g>
</g>
<!-- Node6&#45;&gt;Node5 -->
<g id="edge5" class="edge">
<title>Node6&#45;&gt;Node5</title>
<path fill="none" stroke="#9a32cd" stroke-dasharray="5,2" d="M1565.72,-260.65C1625.58,-258.9 1707.29,-256.52 1769.81,-254.7"/>
<polygon fill="#9a32cd" stroke="#9a32cd" points="1565.46,-257.15 1555.56,-260.94 1565.66,-264.15 1565.46,-257.15"/>
<text text-anchor="middle" x="1670" y="-263" font-family="Helvetica,sans-Serif" font-size="10.00"> elements</text>
</g>
<!-- Node7 -->
<g id="node7" class="node">
<title>Node7</title>
<g id="a_node7"><a xlink:href="classitk_1_1simple_1_1Command.html" target="_top" xlink:title="An implementation of the Command design pattern for callback.">
<polygon fill="white" stroke="black" points="1077.5,-253.5 1077.5,-272.5 1202.5,-272.5 1202.5,-253.5 1077.5,-253.5"/>
<text text-anchor="middle" x="1140" y="-260.5" font-family="Helvetica,sans-Serif" font-size="10.00">itk::simple::Command</text>
</a>
</g>
</g>
<!-- Node7&#45;&gt;Node6 -->
<g id="edge6" class="edge">
<title>Node7&#45;&gt;Node6</title>
<path fill="none" stroke="#9a32cd" stroke-dasharray="5,2" d="M1212.83,-263C1271.46,-263 1353.86,-263 1412.21,-263"/>
<polygon fill="#9a32cd" stroke="#9a32cd" points="1212.54,-259.5 1202.54,-263 1212.54,-266.5 1212.54,-259.5"/>
<text text-anchor="middle" x="1310" y="-266" font-family="Helvetica,sans-Serif" font-size="10.00"> m_Command</text>
</g>
<!-- Node8&#45;&gt;Node7 -->
<g id="edge7" class="edge">
<title>Node8&#45;&gt;Node7</title>
<path fill="none" stroke="midnightblue" d="M890.13,-277.64C949.45,-274.15 1025.23,-269.69 1077.5,-266.62"/>
<polygon fill="midnightblue" stroke="midnightblue" points="889.78,-274.15 880.01,-278.23 890.19,-281.14 889.78,-274.15"/>
</g>
<!-- Node9 -->
<g id="node9" class="node">
<title>Node9</title>
<g id="a_node9"><a xlink:title=" ">
<polygon fill="white" stroke="#bfbfbf" points="387.5,-237.5 387.5,-278.5 516.5,-278.5 516.5,-237.5 387.5,-237.5"/>
<text text-anchor="start" x="395.5" y="-266.5" font-family="Helvetica,sans-Serif" font-size="10.00">std::multimap&lt; itk</text>
<text text-anchor="start" x="395.5" y="-255.5" font-family="Helvetica,sans-Serif" font-size="10.00">::Object *, std::function</text>
<text text-anchor="middle" x="452" y="-244.5" font-family="Helvetica,sans-Serif" font-size="10.00">&lt; void()&gt; &gt;</text>
</a>
</g>
</g>
<!-- Node9&#45;&gt;Node8 -->
<g id="edge9" class="edge">
<title>Node9&#45;&gt;Node8</title>
<path fill="none" stroke="#9a32cd" stroke-dasharray="5,2" d="M526.68,-260.04C575.38,-261.77 640.58,-264.83 698,-270 708.45,-270.94 719.48,-272.16 730.25,-273.48"/>
<polygon fill="#9a32cd" stroke="#9a32cd" points="526.67,-256.54 516.55,-259.69 526.43,-263.53 526.67,-256.54"/>
<text text-anchor="middle" x="619" y="-273" font-family="Helvetica,sans-Serif" font-size="10.00"> m_ReferencedObjectsCallbacks</text>
</g>
<!-- Node10 -->
<g id="node10" class="node">
<title>Node10</title>
<g id="a_node10"><a xlink:title="STL class.">
<polygon fill="white" stroke="#bfbfbf" points="114,-248.5 114,-267.5 240,-267.5 240,-248.5 114,-248.5"/>
<text text-anchor="middle" x="177" y="-255.5" font-family="Helvetica,sans-Serif" font-size="10.00">std::multimap&lt; K, T &gt;</text>
</a>
</g>
</g>
<!-- Node10&#45;&gt;Node9 -->
<g id="edge10" class="edge">
<title>Node10&#45;&gt;Node9</title>
<path fill="none" stroke="orange" stroke-dasharray="5,2" d="M250.3,-258C292.82,-258 346.1,-258 387.08,-258"/>
<polygon fill="orange" stroke="orange" points="250.29,-254.5 240.29,-258 250.29,-261.5 250.29,-254.5"/>
<text text-anchor="start" x="258" y="-272" font-family="Helvetica,sans-Serif" font-size="10.00"> &lt; itk::Object *, std</text>
<text text-anchor="middle" x="311" y="-261" font-family="Helvetica,sans-Serif" font-size="10.00">::function&lt; void()&gt; &gt;</text>
</g>
<!-- Node11 -->
<g id="node11" class="node">
<title>Node11</title>
<g id="a_node11"><a xlink:title=" ">
<polygon fill="white" stroke="#bfbfbf" points="0,-267.5 0,-286.5 29,-286.5 29,-267.5 0,-267.5"/>
<text text-anchor="middle" x="14.5" y="-274.5" font-family="Helvetica,sans-Serif" font-size="10.00">K</text>
</a>
</g>
</g>
<!-- Node11&#45;&gt;Node10 -->
<g id="edge11" class="edge">
<title>Node11&#45;&gt;Node10</title>
<path fill="none" stroke="#9a32cd" stroke-dasharray="5,2" d="M39.34,-274.18C58.97,-271.85 87.71,-268.45 113.77,-265.37"/>
<polygon fill="#9a32cd" stroke="#9a32cd" points="38.7,-270.73 29.18,-275.38 39.53,-277.68 38.7,-270.73"/>
<text text-anchor="middle" x="71.5" y="-276" font-family="Helvetica,sans-Serif" font-size="10.00"> keys</text>
</g>
<!-- Node12 -->
<g id="node12" class="node">
<title>Node12</title>
<g id="a_node12"><a xlink:title=" ">
<polygon fill="white" stroke="#bfbfbf" points="0,-180.5 0,-199.5 29,-199.5 29,-180.5 0,-180.5"/>
<text text-anchor="middle" x="14.5" y="-187.5" font-family="Helvetica,sans-Serif" font-size="10.00">T</text>
</a>
</g>
</g>
<!-- Node12&#45;&gt;Node10 -->
<g id="edge12" class="edge">
<title>Node12&#45;&gt;Node10</title>
<path fill="none" stroke="#9a32cd" stroke-dasharray="5,2" d="M30.02,-207.29C34.97,-212.31 40.82,-217.4 47,-221 69.44,-234.1 96.8,-242.8 120.54,-248.46"/>
<polygon fill="#9a32cd" stroke="#9a32cd" points="32.41,-204.72 23.08,-199.7 27.24,-209.44 32.41,-204.72"/>
<text text-anchor="middle" x="71.5" y="-245" font-family="Helvetica,sans-Serif" font-size="10.00"> elements</text>
</g>
<!-- Node15 -->
<g id="node15" class="node">
<title>Node15</title>
<g id="a_node15"><a xlink:title="STL class.">
<polygon fill="white" stroke="#bfbfbf" points="270.5,-199.5 270.5,-218.5 351.5,-218.5 351.5,-199.5 270.5,-199.5"/>
<text text-anchor="middle" x="311" y="-206.5" font-family="Helvetica,sans-Serif" font-size="10.00">std::list&lt; T &gt;</text>
</a>
</g>
</g>
<!-- Node12&#45;&gt;Node15 -->
<g id="edge16" class="edge">
<title>Node12&#45;&gt;Node15</title>
<path fill="none" stroke="#9a32cd" stroke-dasharray="5,2" d="M39.6,-191.56C90.31,-194.83 208.44,-202.45 270.42,-206.45"/>
<polygon fill="#9a32cd" stroke="#9a32cd" points="39.51,-188.04 29.31,-190.89 39.06,-195.03 39.51,-188.04"/>
<text text-anchor="middle" x="71.5" y="-199" font-family="Helvetica,sans-Serif" font-size="10.00"> elements</text>
</g>
<!-- Node22 -->
<g id="node22" class="node">
<title>Node22</title>
<g id="a_node22"><a xlink:title="STL class.">
<polygon fill="white" stroke="#bfbfbf" points="560,-23.5 560,-42.5 678,-42.5 678,-23.5 560,-23.5"/>
<text text-anchor="middle" x="619" y="-30.5" font-family="Helvetica,sans-Serif" font-size="10.00">std::unique_ptr&lt; T &gt;</text>
</a>
</g>
</g>
<!-- Node12&#45;&gt;Node22 -->
<g id="edge25" class="edge">
<title>Node12&#45;&gt;Node22</title>
<path fill="none" stroke="#9a32cd" stroke-dasharray="5,2" d="M28.73,-172.39C33.85,-166.69 40.13,-160.85 47,-157 216.42,-61.95 451.89,-39.72 559.79,-34.55"/>
<polygon fill="#9a32cd" stroke="#9a32cd" points="25.79,-170.45 22.13,-180.4 31.19,-174.91 25.79,-170.45"/>
<text text-anchor="middle" x="177" y="-126" font-family="Helvetica,sans-Serif" font-size="10.00"> ptr</text>
</g>
<!-- Node24 -->
<g id="node24" class="node">
<title>Node24</title>
<g id="a_node24"><a xlink:title="STL class.">
<polygon fill="white" stroke="#bfbfbf" points="2146,-161.5 2146,-180.5 2243,-180.5 2243,-161.5 2146,-161.5"/>
<text text-anchor="middle" x="2194.5" y="-168.5" font-family="Helvetica,sans-Serif" font-size="10.00">std::vector&lt; T &gt;</text>
</a>
</g>
</g>
<!-- Node12&#45;&gt;Node24 -->
<g id="edge28" class="edge">
<title>Node12&#45;&gt;Node24</title>
<path fill="none" stroke="#9a32cd" stroke-dasharray="5,2" d="M39.09,-185.44C70.29,-179.82 127.06,-171 176,-171 176,-171 176,-171 1864.5,-171 1964.6,-171 2081.83,-171 2145.83,-171"/>
<polygon fill="#9a32cd" stroke="#9a32cd" points="38.37,-182.02 29.18,-187.28 39.65,-188.9 38.37,-182.02"/>
<text text-anchor="middle" x="969" y="-174" font-family="Helvetica,sans-Serif" font-size="10.00"> elements</text>
</g>
<!-- Node13 -->
<g id="node13" class="node">
<title>Node13</title>
<g id="a_node13"><a xlink:title="STL class.">
<polygon fill="white" stroke="#bfbfbf" points="419.5,-297.5 419.5,-316.5 484.5,-316.5 484.5,-297.5 419.5,-297.5"/>
<text text-anchor="middle" x="452" y="-304.5" font-family="Helvetica,sans-Serif" font-size="10.00">std::string</text>
</a>
</g>
</g>
<!-- Node13&#45;&gt;Node8 -->
<g id="edge13" class="edge">
<title>Node13&#45;&gt;Node8</title>
<path fill="none" stroke="#9a32cd" stroke-dasharray="5,2" d="M494.77,-299.85C509.07,-297.64 525.2,-295.42 540,-294 598.68,-288.38 665.18,-285.63 715.82,-284.28"/>
<polygon fill="#9a32cd" stroke="#9a32cd" points="494.05,-296.42 484.72,-301.44 495.14,-303.33 494.05,-296.42"/>
<text text-anchor="middle" x="619" y="-297" font-family="Helvetica,sans-Serif" font-size="10.00"> m_Name</text>
</g>
<!-- Node14 -->
<g id="node14" class="node">
<title>Node14</title>
<g id="a_node14"><a xlink:title="STL class.">
<polygon fill="white" stroke="#bfbfbf" points="125,-292 125,-322 229,-322 229,-292 125,-292"/>
<text text-anchor="start" x="133" y="-310" font-family="Helvetica,sans-Serif" font-size="10.00">std::basic_string&lt;</text>
<text text-anchor="middle" x="177" y="-299" font-family="Helvetica,sans-Serif" font-size="10.00"> char &gt;</text>
</a>
</g>
</g>
<!-- Node14&#45;&gt;Node13 -->
<g id="edge14" class="edge">
<title>Node14&#45;&gt;Node13</title>
<path fill="none" stroke="midnightblue" d="M239.16,-307C295.05,-307 375.46,-307 419.39,-307"/>
<polygon fill="midnightblue" stroke="midnightblue" points="239.03,-303.5 229.03,-307 239.03,-310.5 239.03,-303.5"/>
</g>
<!-- Node15&#45;&gt;Node5 -->
<g id="edge15" class="edge">
<title>Node15&#45;&gt;Node5</title>
<path fill="none" stroke="orange" stroke-dasharray="5,2" d="M361.65,-209C422.19,-209 527.6,-209 618,-209 618,-209 618,-209 1485,-209 1586.58,-209 1702.56,-224.56 1778.85,-236.96"/>
<polygon fill="orange" stroke="orange" points="361.61,-205.5 351.61,-209 361.61,-212.5 361.61,-205.5"/>
<text text-anchor="start" x="898" y="-223" font-family="Helvetica,sans-Serif" font-size="10.00"> &lt; itk::simple::ProcessObject</text>
<text text-anchor="middle" x="969" y="-212" font-family="Helvetica,sans-Serif" font-size="10.00">::EventCommand &gt;</text>
</g>
<!-- Node16 -->
<g id="node16" class="node">
<title>Node16</title>
<g id="a_node16"><a xlink:title=" ">
<polygon fill="white" stroke="#bfbfbf" points="2388,-50.5 2388,-91.5 2578,-91.5 2578,-50.5 2388,-50.5"/>
<text text-anchor="start" x="2396" y="-79.5" font-family="Helvetica,sans-Serif" font-size="10.00">std::unique_ptr&lt; itk</text>
<text text-anchor="start" x="2396" y="-68.5" font-family="Helvetica,sans-Serif" font-size="10.00">::simple::detail::MemberFunction</text>
<text text-anchor="middle" x="2483" y="-57.5" font-family="Helvetica,sans-Serif" font-size="10.00">Factory&lt; MemberFunctionType &gt; &gt;</text>
</a>
</g>
</g>
<!-- Node16&#45;&gt;Node1 -->
<g id="edge17" class="edge">
<title>Node16&#45;&gt;Node1</title>
<path fill="none" stroke="#9a32cd" stroke-dasharray="5,2" d="M2588.2,-91.3C2620.98,-98.35 2657.18,-106.81 2690,-116 2714.27,-122.8 2741.38,-132.3 2760.58,-139.36"/>
<polygon fill="#9a32cd" stroke="#9a32cd" points="2588.65,-87.82 2578.14,-89.17 2587.2,-94.67 2588.65,-87.82"/>
<text text-anchor="middle" x="2643" y="-119" font-family="Helvetica,sans-Serif" font-size="10.00"> m_MemberFactory</text>
</g>
<!-- Node17 -->
<g id="node17" class="node">
<title>Node17</title>
<g id="a_node17"><a xlink:href="classitk_1_1simple_1_1detail_1_1MemberFunctionFactory.html" target="_top" xlink:title=" ">
<polygon fill="white" stroke="black" points="2123,-50.5 2123,-91.5 2266,-91.5 2266,-50.5 2123,-50.5"/>
<text text-anchor="start" x="2131" y="-79.5" font-family="Helvetica,sans-Serif" font-size="10.00">itk::simple::detail</text>
<text text-anchor="start" x="2131" y="-68.5" font-family="Helvetica,sans-Serif" font-size="10.00">::MemberFunctionFactory</text>
<text text-anchor="middle" x="2194.5" y="-57.5" font-family="Helvetica,sans-Serif" font-size="10.00">&lt; MemberFunctionType &gt;</text>
</a>
</g>
</g>
<!-- Node17&#45;&gt;Node16 -->
<g id="edge18" class="edge">
<title>Node17&#45;&gt;Node16</title>
<path fill="none" stroke="#9a32cd" stroke-dasharray="5,2" d="M2276.41,-71C2311.12,-71 2351.89,-71 2387.94,-71"/>
<polygon fill="#9a32cd" stroke="#9a32cd" points="2276.32,-67.5 2266.32,-71 2276.32,-74.5 2276.32,-67.5"/>
<text text-anchor="middle" x="2327" y="-74" font-family="Helvetica,sans-Serif" font-size="10.00"> ptr</text>
</g>
<!-- Node18 -->
<g id="node18" class="node">
<title>Node18</title>
<g id="a_node18"><a xlink:href="classitk_1_1simple_1_1detail_1_1MemberFunctionFactoryBase.html" target="_top" xlink:title=" ">
<polygon fill="white" stroke="black" points="1588,-36 1588,-88 1752,-88 1752,-36 1588,-36"/>
<text text-anchor="start" x="1596" y="-76" font-family="Helvetica,sans-Serif" font-size="10.00">itk::simple::detail</text>
<text text-anchor="start" x="1596" y="-65" font-family="Helvetica,sans-Serif" font-size="10.00">::MemberFunctionFactoryBase</text>
<text text-anchor="start" x="1596" y="-54" font-family="Helvetica,sans-Serif" font-size="10.00">&lt; MemberFunctionType, std</text>
<text text-anchor="middle" x="1670" y="-43" font-family="Helvetica,sans-Serif" font-size="10.00">::pair&lt; unsigned int, int &gt; &gt;</text>
</a>
</g>
</g>
<!-- Node18&#45;&gt;Node17 -->
<g id="edge19" class="edge">
<title>Node18&#45;&gt;Node17</title>
<path fill="none" stroke="darkgreen" d="M1762.11,-63.57C1864.72,-65.34 2029.31,-68.17 2122.73,-69.78"/>
<polygon fill="darkgreen" stroke="darkgreen" points="1762.13,-60.07 1752.07,-63.4 1762.01,-67.07 1762.13,-60.07"/>
</g>
<!-- Node19 -->
<g id="node19" class="node">
<title>Node19</title>
<g id="a_node19"><a xlink:href="classitk_1_1simple_1_1detail_1_1MemberFunctionFactoryBase.html" target="_top" xlink:title="A base class for the MemberFunctionFactory.">
<polygon fill="white" stroke="black" points="1058,-74 1058,-104 1222,-104 1222,-74 1058,-74"/>
<text text-anchor="start" x="1066" y="-92" font-family="Helvetica,sans-Serif" font-size="10.00">itk::simple::detail</text>
<text text-anchor="middle" x="1140" y="-81" font-family="Helvetica,sans-Serif" font-size="10.00">::MemberFunctionFactoryBase</text>
</a>
</g>
</g>
<!-- Node19&#45;&gt;Node18 -->
<g id="edge20" class="edge">
<title>Node19&#45;&gt;Node18</title>
<path fill="none" stroke="orange" stroke-dasharray="5,2" d="M1192.49,-70.91C1207.6,-66.42 1224.29,-62.25 1240,-60 1360.17,-42.76 1501.23,-48.29 1587.86,-54.57"/>
<polygon fill="orange" stroke="orange" points="1191.34,-67.6 1182.81,-73.88 1193.4,-74.29 1191.34,-67.6"/>
<text text-anchor="start" x="1249" y="-85" font-family="Helvetica,sans-Serif" font-size="10.00"> &lt; MemberFunctionType,</text>
<text text-anchor="start" x="1249" y="-74" font-family="Helvetica,sans-Serif" font-size="10.00"> std::pair&lt; unsigned</text>
<text text-anchor="middle" x="1310" y="-63" font-family="Helvetica,sans-Serif" font-size="10.00"> int, int &gt; &gt;</text>
</g>
<!-- Node21 -->
<g id="node21" class="node">
<title>Node21</title>
<g id="a_node21"><a xlink:href="classitk_1_1simple_1_1detail_1_1MemberFunctionFactoryBase.html" target="_top" xlink:title=" ">
<polygon fill="white" stroke="black" points="1398,-90 1398,-142 1570,-142 1570,-90 1398,-90"/>
<text text-anchor="start" x="1406" y="-130" font-family="Helvetica,sans-Serif" font-size="10.00">itk::simple::detail</text>
<text text-anchor="start" x="1406" y="-119" font-family="Helvetica,sans-Serif" font-size="10.00">::MemberFunctionFactoryBase</text>
<text text-anchor="start" x="1406" y="-108" font-family="Helvetica,sans-Serif" font-size="10.00">&lt; TMemberFunctionPointer,</text>
<text text-anchor="middle" x="1484" y="-97" font-family="Helvetica,sans-Serif" font-size="10.00"> std::pair&lt; unsigned int, int &gt; &gt;</text>
</a>
</g>
</g>
<!-- Node19&#45;&gt;Node21 -->
<g id="edge23" class="edge">
<title>Node19&#45;&gt;Node21</title>
<path fill="none" stroke="orange" stroke-dasharray="5,2" d="M1232.16,-96.2C1283.55,-100.25 1347.36,-105.29 1397.76,-109.27"/>
<polygon fill="orange" stroke="orange" points="1232.29,-92.7 1222.05,-95.4 1231.74,-99.67 1232.29,-92.7"/>
<text text-anchor="start" x="1240" y="-133" font-family="Helvetica,sans-Serif" font-size="10.00"> &lt; TMemberFunctionPointer,</text>
<text text-anchor="start" x="1240" y="-122" font-family="Helvetica,sans-Serif" font-size="10.00"> std::pair&lt; unsigned int,</text>
<text text-anchor="middle" x="1310" y="-111" font-family="Helvetica,sans-Serif" font-size="10.00"> int &gt; &gt;</text>
</g>
<!-- Node20 -->
<g id="node20" class="node">
<title>Node20</title>
<g id="a_node20"><a xlink:href="classitk_1_1simple_1_1detail_1_1MemberFunctionFactory.html" target="_top" xlink:title="A class used to instantiate and generate function object to templated member functions.">
<polygon fill="white" stroke="black" points="1783,-94.5 1783,-135.5 1944,-135.5 1944,-94.5 1783,-94.5"/>
<text text-anchor="start" x="1791" y="-123.5" font-family="Helvetica,sans-Serif" font-size="10.00">itk::simple::detail</text>
<text text-anchor="start" x="1791" y="-112.5" font-family="Helvetica,sans-Serif" font-size="10.00">::MemberFunctionFactory</text>
<text text-anchor="middle" x="1863.5" y="-101.5" font-family="Helvetica,sans-Serif" font-size="10.00">&lt; TMemberFunctionPointer &gt;</text>
</a>
</g>
</g>
<!-- Node20&#45;&gt;Node17 -->
<g id="edge21" class="edge">
<title>Node20&#45;&gt;Node17</title>
<path fill="none" stroke="orange" stroke-dasharray="5,2" d="M1954.24,-103C2007.34,-95.9 2073.64,-87.03 2122.98,-80.43"/>
<polygon fill="orange" stroke="orange" points="1953.59,-99.55 1944.14,-104.35 1954.52,-106.49 1953.59,-99.55"/>
<text text-anchor="middle" x="2040" y="-103" font-family="Helvetica,sans-Serif" font-size="10.00"> &lt; MemberFunctionType &gt;</text>
</g>
<!-- Node21&#45;&gt;Node20 -->
<g id="edge22" class="edge">
<title>Node21&#45;&gt;Node20</title>
<path fill="none" stroke="darkgreen" d="M1580.45,-115.75C1642.96,-115.58 1723.71,-115.37 1782.78,-115.21"/>
<polygon fill="darkgreen" stroke="darkgreen" points="1580.18,-112.25 1570.19,-115.77 1580.2,-119.25 1580.18,-112.25"/>
</g>
<!-- Node22&#45;&gt;Node16 -->
<g id="edge24" class="edge">
<title>Node22&#45;&gt;Node16</title>
<path fill="none" stroke="orange" stroke-dasharray="5,2" d="M688.04,-22.71C758.06,-13.03 870.39,0 968,0 968,0 968,0 2195.5,0 2280.05,0 2374.63,-29.49 2431.18,-50.46"/>
<polygon fill="orange" stroke="orange" points="687.45,-19.26 678.03,-24.11 688.42,-26.19 687.45,-19.26"/>
<text text-anchor="start" x="1414.5" y="-25" font-family="Helvetica,sans-Serif" font-size="10.00"> &lt; itk::simple::detail</text>
<text text-anchor="start" x="1414.5" y="-14" font-family="Helvetica,sans-Serif" font-size="10.00">::MemberFunctionFactory</text>
<text text-anchor="middle" x="1484" y="-3" font-family="Helvetica,sans-Serif" font-size="10.00">&lt; MemberFunctionType &gt; &gt;</text>
</g>
<!-- Node23 -->
<g id="node23" class="node">
<title>Node23</title>
<g id="a_node23"><a xlink:title=" ">
<polygon fill="white" stroke="#bfbfbf" points="2421,-117 2421,-147 2545,-147 2545,-117 2421,-117"/>
<text text-anchor="start" x="2429" y="-135" font-family="Helvetica,sans-Serif" font-size="10.00">std::vector&lt; unsigned</text>
<text text-anchor="middle" x="2483" y="-124" font-family="Helvetica,sans-Serif" font-size="10.00"> int &gt;</text>
</a>
</g>
</g>
<!-- Node23&#45;&gt;Node1 -->
<g id="edge26" class="edge">
<title>Node23&#45;&gt;Node1</title>
<path fill="none" stroke="#9a32cd" stroke-dasharray="5,2" d="M2555.51,-130.15C2595.2,-129.76 2645.41,-130.32 2690,-134 2704.29,-135.18 2719.67,-137.23 2733.85,-139.44"/>
<polygon fill="#9a32cd" stroke="#9a32cd" points="2555.36,-126.65 2545.4,-130.27 2555.44,-133.65 2555.36,-126.65"/>
<text text-anchor="middle" x="2643" y="-137" font-family="Helvetica,sans-Serif" font-size="10.00"> m_Size</text>
</g>
<!-- Node24&#45;&gt;Node23 -->
<g id="edge27" class="edge">
<title>Node24&#45;&gt;Node23</title>
<path fill="none" stroke="orange" stroke-dasharray="5,2" d="M2253.32,-162.38C2263.54,-160.89 2274.08,-159.38 2284,-158 2329.84,-151.62 2381.72,-144.83 2420.87,-139.78"/>
<polygon fill="orange" stroke="orange" points="2252.64,-158.94 2243.25,-163.85 2253.65,-165.87 2252.64,-158.94"/>
<text text-anchor="middle" x="2327" y="-161" font-family="Helvetica,sans-Serif" font-size="10.00"> &lt; unsigned int &gt;</text>
</g>
<!-- Node25 -->
<g id="node25" class="node">
<title>Node25</title>
<g id="a_node25"><a xlink:title=" ">
<polygon fill="white" stroke="#bfbfbf" points="2421,-166.5 2421,-185.5 2545,-185.5 2545,-166.5 2421,-166.5"/>
<text text-anchor="middle" x="2483" y="-173.5" font-family="Helvetica,sans-Serif" font-size="10.00">std::vector&lt; double &gt;</text>
</a>
</g>
</g>
<!-- Node24&#45;&gt;Node25 -->
<g id="edge30" class="edge">
<title>Node24&#45;&gt;Node25</title>
<path fill="none" stroke="orange" stroke-dasharray="5,2" d="M2253.18,-172.01C2301.79,-172.85 2371.16,-174.07 2420.76,-174.93"/>
<polygon fill="orange" stroke="orange" points="2253.19,-168.51 2243.13,-171.83 2253.07,-175.51 2253.19,-168.51"/>
<text text-anchor="middle" x="2327" y="-177" font-family="Helvetica,sans-Serif" font-size="10.00"> &lt; double &gt;</text>
</g>
<!-- Node25&#45;&gt;Node1 -->
<g id="edge29" class="edge">
<title>Node25&#45;&gt;Node1</title>
<path fill="none" stroke="#9a32cd" stroke-dasharray="5,2" d="M2555.26,-169.63C2601.07,-165.53 2660.61,-160.21 2707.74,-156"/>
<polygon fill="#9a32cd" stroke="#9a32cd" points="2554.76,-166.16 2545.11,-170.54 2555.39,-173.13 2554.76,-166.16"/>
<text text-anchor="middle" x="2643" y="-224" font-family="Helvetica,sans-Serif" font-size="10.00"> m_Spacing</text>
<text text-anchor="middle" x="2643" y="-213" font-family="Helvetica,sans-Serif" font-size="10.00">m_Origin</text>
<text text-anchor="middle" x="2643" y="-202" font-family="Helvetica,sans-Serif" font-size="10.00">m_Sigma</text>
<text text-anchor="middle" x="2643" y="-191" font-family="Helvetica,sans-Serif" font-size="10.00">m_Direction</text>
<text text-anchor="middle" x="2643" y="-180" font-family="Helvetica,sans-Serif" font-size="10.00">m_GridSpacing</text>
<text text-anchor="middle" x="2643" y="-169" font-family="Helvetica,sans-Serif" font-size="10.00">m_GridOffset</text>
</g>
</g>
</svg>
