<?xml version="1.0" encoding="UTF-8" standalone="no"?>
<!DOCTYPE svg PUBLIC "-//W3C//DTD SVG 1.1//EN"
 "http://www.w3.org/Graphics/SVG/1.1/DTD/svg11.dtd">
<!-- Generated by graphviz version 2.43.0 (0)
 -->
<!-- Title: itk::simple::TransformixImageFilter Pages: 1 -->
<!--zoomable 316 -->
<svg id="main" version="1.1" xmlns="http://www.w3.org/2000/svg" xmlns:xlink="http://www.w3.org/1999/xlink" xml:space="preserve" onload="init(evt)">
<style type="text/css"><![CDATA[
.edge:hover path { stroke: red; }
.edge:hover polygon { stroke: red; fill: red; }
]]></style>
<script type="text/javascript"><![CDATA[
var edges = document.getElementsByTagName('g');
if (edges && edges.length) {
  for (var i=0;i<edges.length;i++) {
    if (edges[i].id.substr(0,4)=='edge') {
      edges[i].setAttribute('class','edge');
    }
  }
}
]]></script>
        <defs>
                <circle id="rim" cx="0" cy="0" r="7"/>
                <circle id="rim2" cx="0" cy="0" r="3.5"/>
                <g id="zoomPlus">
                        <use xlink:href="#rim" fill="#404040">
                                <set attributeName="fill" to="#808080" begin="zoomplus.mouseover" end="zoomplus.mouseout"/>
                        </use>
                        <path d="M-4,0h8M0,-4v8" fill="none" stroke="white" stroke-width="1.5" pointer-events="none"/>
                </g>
                <g id="zoomMin">
                        <use xlink:href="#rim" fill="#404040">
                                <set attributeName="fill" to="#808080" begin="zoomminus.mouseover" end="zoomminus.mouseout"/>
                        </use>
                        <path d="M-4,0h8" fill="none" stroke="white" stroke-width="1.5" pointer-events="none"/>
                </g>
                <g id="dirArrow">
                        <path fill="none" stroke="white" stroke-width="1.5" d="M0,-3.0v7 M-2.5,-0.5L0,-3.0L2.5,-0.5"/>
                </g>
               <g id="resetDef">
                       <use xlink:href="#rim2" fill="#404040">
                               <set attributeName="fill" to="#808080" begin="reset.mouseover" end="reset.mouseout"/>
                       </use>
               </g>
        </defs>

<script type="text/javascript">
var viewWidth = 2423;
var viewHeight = 316;
var sectionId = 'dynsection-0';
</script>
<script xlink:href="svgpan.js"/>
<svg id="graph" class="graph">
<g id="viewport">
<title>itk::simple::TransformixImageFilter</title>
<polygon fill="white" stroke="transparent" points="-4,4 -4,-311.61 2419,-311.61 2419,4 -4,4"/>
<!-- Node1 -->
<g id="node1" class="node">
<title>Node1</title>
<g id="a_node1"><a xlink:title=" ">
<polygon fill="#bfbfbf" stroke="black" points="2283,-165.61 2283,-195.61 2415,-195.61 2415,-165.61 2283,-165.61"/>
<text text-anchor="start" x="2291" y="-183.61" font-family="Helvetica,sans-Serif" font-size="10.00">itk::simple::Transformix</text>
<text text-anchor="middle" x="2349" y="-172.61" font-family="Helvetica,sans-Serif" font-size="10.00">ImageFilter</text>
</a>
</g>
</g>
<!-- Node2 -->
<g id="node2" class="node">
<title>Node2</title>
<g id="a_node2"><a xlink:title=" ">
<polygon fill="white" stroke="#bfbfbf" points="1918,-160.11 1918,-201.11 2108,-201.11 2108,-160.11 1918,-160.11"/>
<text text-anchor="start" x="1926" y="-189.11" font-family="Helvetica,sans-Serif" font-size="10.00">std::unique_ptr&lt; itk</text>
<text text-anchor="start" x="1926" y="-178.11" font-family="Helvetica,sans-Serif" font-size="10.00">::simple::detail::MemberFunction</text>
<text text-anchor="middle" x="2013" y="-167.11" font-family="Helvetica,sans-Serif" font-size="10.00">Factory&lt; MemberFunctionType &gt; &gt;</text>
</a>
</g>
</g>
<!-- Node2&#45;&gt;Node1 -->
<g id="edge1" class="edge">
<title>Node2&#45;&gt;Node1</title>
<path fill="none" stroke="#9a32cd" stroke-dasharray="5,2" d="M2118.64,-180.61C2172.42,-180.61 2236.29,-180.61 2282.95,-180.61"/>
<polygon fill="#9a32cd" stroke="#9a32cd" points="2118.37,-177.11 2108.37,-180.61 2118.37,-184.11 2118.37,-177.11"/>
<text text-anchor="middle" x="2195.5" y="-183.61" font-family="Helvetica,sans-Serif" font-size="10.00"> m_MemberFactory</text>
</g>
<!-- Node3 -->
<g id="node3" class="node">
<title>Node3</title>
<g id="a_node3"><a xlink:href="classitk_1_1simple_1_1detail_1_1MemberFunctionFactory.html" target="_top" xlink:title=" ">
<polygon fill="white" stroke="black" points="1572,-68.11 1572,-109.11 1715,-109.11 1715,-68.11 1572,-68.11"/>
<text text-anchor="start" x="1580" y="-97.11" font-family="Helvetica,sans-Serif" font-size="10.00">itk::simple::detail</text>
<text text-anchor="start" x="1580" y="-86.11" font-family="Helvetica,sans-Serif" font-size="10.00">::MemberFunctionFactory</text>
<text text-anchor="middle" x="1643.5" y="-75.11" font-family="Helvetica,sans-Serif" font-size="10.00">&lt; MemberFunctionType &gt;</text>
</a>
</g>
</g>
<!-- Node3&#45;&gt;Node2 -->
<g id="edge2" class="edge">
<title>Node3&#45;&gt;Node2</title>
<path fill="none" stroke="#9a32cd" stroke-dasharray="5,2" d="M1689.64,-113.91C1705.73,-121.97 1724.28,-130.19 1742,-135.61 1809.86,-156.37 1830.05,-146.66 1900,-158.61 1905.86,-159.62 1911.88,-160.68 1917.95,-161.79"/>
<polygon fill="#9a32cd" stroke="#9a32cd" points="1690.96,-110.66 1680.47,-109.21 1687.77,-116.89 1690.96,-110.66"/>
<text text-anchor="middle" x="1821" y="-161.61" font-family="Helvetica,sans-Serif" font-size="10.00"> ptr</text>
</g>
<!-- Node4 -->
<g id="node4" class="node">
<title>Node4</title>
<g id="a_node4"><a xlink:href="classitk_1_1simple_1_1detail_1_1MemberFunctionFactoryBase.html" target="_top" xlink:title=" ">
<polygon fill="white" stroke="black" points="1016,-78.61 1016,-130.61 1180,-130.61 1180,-78.61 1016,-78.61"/>
<text text-anchor="start" x="1024" y="-118.61" font-family="Helvetica,sans-Serif" font-size="10.00">itk::simple::detail</text>
<text text-anchor="start" x="1024" y="-107.61" font-family="Helvetica,sans-Serif" font-size="10.00">::MemberFunctionFactoryBase</text>
<text text-anchor="start" x="1024" y="-96.61" font-family="Helvetica,sans-Serif" font-size="10.00">&lt; MemberFunctionType, std</text>
<text text-anchor="middle" x="1098" y="-85.61" font-family="Helvetica,sans-Serif" font-size="10.00">::pair&lt; unsigned int, int &gt; &gt;</text>
</a>
</g>
</g>
<!-- Node4&#45;&gt;Node3 -->
<g id="edge3" class="edge">
<title>Node4&#45;&gt;Node3</title>
<path fill="none" stroke="darkgreen" d="M1190.26,-101.93C1297.76,-98.76 1474.07,-93.57 1571.76,-90.7"/>
<polygon fill="darkgreen" stroke="darkgreen" points="1189.97,-98.43 1180.07,-102.23 1190.17,-105.43 1189.97,-98.43"/>
</g>
<!-- Node5 -->
<g id="node5" class="node">
<title>Node5</title>
<g id="a_node5"><a xlink:title=" ">
<polygon fill="white" stroke="#bfbfbf" points="668,-94.11 668,-157.11 836,-157.11 836,-94.11 668,-94.11"/>
<text text-anchor="start" x="676" y="-145.11" font-family="Helvetica,sans-Serif" font-size="10.00">std::unordered_map</text>
<text text-anchor="start" x="676" y="-134.11" font-family="Helvetica,sans-Serif" font-size="10.00">&lt; std::pair&lt; unsigned</text>
<text text-anchor="start" x="676" y="-123.11" font-family="Helvetica,sans-Serif" font-size="10.00"> int, int &gt;, FunctionObjectType,</text>
<text text-anchor="start" x="676" y="-112.11" font-family="Helvetica,sans-Serif" font-size="10.00"> hash&lt; std::pair&lt; unsigned int,</text>
<text text-anchor="middle" x="752" y="-101.11" font-family="Helvetica,sans-Serif" font-size="10.00"> int &gt; &gt; &gt;</text>
</a>
</g>
</g>
<!-- Node5&#45;&gt;Node4 -->
<g id="edge4" class="edge">
<title>Node5&#45;&gt;Node4</title>
<path fill="none" stroke="#9a32cd" stroke-dasharray="5,2" d="M846.13,-133.78C890.98,-136.13 945.45,-136.65 994,-130.61 1001.14,-129.73 1008.49,-128.51 1015.83,-127.08"/>
<polygon fill="#9a32cd" stroke="#9a32cd" points="846.3,-130.29 836.12,-133.22 845.91,-137.27 846.3,-130.29"/>
<text text-anchor="middle" x="924" y="-138.61" font-family="Helvetica,sans-Serif" font-size="10.00"> m_PFunction</text>
</g>
<!-- Node12 -->
<g id="node12" class="node">
<title>Node12</title>
<g id="a_node12"><a xlink:href="classitk_1_1simple_1_1detail_1_1MemberFunctionFactoryBase.html" target="_top" xlink:title=" ">
<polygon fill="white" stroke="black" points="1012,-7.61 1012,-59.61 1184,-59.61 1184,-7.61 1012,-7.61"/>
<text text-anchor="start" x="1020" y="-47.61" font-family="Helvetica,sans-Serif" font-size="10.00">itk::simple::detail</text>
<text text-anchor="start" x="1020" y="-36.61" font-family="Helvetica,sans-Serif" font-size="10.00">::MemberFunctionFactoryBase</text>
<text text-anchor="start" x="1020" y="-25.61" font-family="Helvetica,sans-Serif" font-size="10.00">&lt; TMemberFunctionPointer,</text>
<text text-anchor="middle" x="1098" y="-14.61" font-family="Helvetica,sans-Serif" font-size="10.00"> std::pair&lt; unsigned int, int &gt; &gt;</text>
</a>
</g>
</g>
<!-- Node5&#45;&gt;Node12 -->
<g id="edge13" class="edge">
<title>Node5&#45;&gt;Node12</title>
<path fill="none" stroke="#9a32cd" stroke-dasharray="5,2" d="M829.86,-88.28C831.96,-86.76 834.02,-85.21 836,-83.61 845.85,-75.7 842.91,-67.67 854,-61.61 867.84,-54.06 947.39,-45.85 1011.76,-40.28"/>
<polygon fill="#9a32cd" stroke="#9a32cd" points="827.82,-85.44 821.5,-93.94 831.74,-91.23 827.82,-85.44"/>
<text text-anchor="middle" x="924" y="-64.61" font-family="Helvetica,sans-Serif" font-size="10.00"> m_PFunction</text>
</g>
<!-- Node6 -->
<g id="node6" class="node">
<title>Node6</title>
<g id="a_node6"><a xlink:title="STL class.">
<polygon fill="white" stroke="#bfbfbf" points="114,-92.61 114,-122.61 228,-122.61 228,-92.61 114,-92.61"/>
<text text-anchor="start" x="122" y="-110.61" font-family="Helvetica,sans-Serif" font-size="10.00">std::unordered_map</text>
<text text-anchor="middle" x="171" y="-99.61" font-family="Helvetica,sans-Serif" font-size="10.00">&lt; K, T &gt;</text>
</a>
</g>
</g>
<!-- Node6&#45;&gt;Node5 -->
<g id="edge5" class="edge">
<title>Node6&#45;&gt;Node5</title>
<path fill="none" stroke="orange" stroke-dasharray="5,2" d="M238.29,-109.67C344.27,-112.97 551.71,-119.42 667.61,-123.02"/>
<polygon fill="orange" stroke="orange" points="238.15,-106.17 228.04,-109.36 237.93,-113.17 238.15,-106.17"/>
<text text-anchor="start" x="407" y="-156.61" font-family="Helvetica,sans-Serif" font-size="10.00"> &lt; std::pair&lt; unsigned</text>
<text text-anchor="start" x="407" y="-145.61" font-family="Helvetica,sans-Serif" font-size="10.00"> int, int &gt;, FunctionObject</text>
<text text-anchor="start" x="407" y="-134.61" font-family="Helvetica,sans-Serif" font-size="10.00">Type, hash&lt; std::pair&lt; unsigned</text>
<text text-anchor="middle" x="486.5" y="-123.61" font-family="Helvetica,sans-Serif" font-size="10.00"> int, int &gt; &gt; &gt;</text>
</g>
<!-- Node10 -->
<g id="node10" class="node">
<title>Node10</title>
<g id="a_node10"><a xlink:title=" ">
<polygon fill="white" stroke="#bfbfbf" points="408.5,-34.11 408.5,-75.11 564.5,-75.11 564.5,-34.11 408.5,-34.11"/>
<text text-anchor="start" x="416.5" y="-63.11" font-family="Helvetica,sans-Serif" font-size="10.00">std::unordered_map</text>
<text text-anchor="start" x="416.5" y="-52.11" font-family="Helvetica,sans-Serif" font-size="10.00">&lt; TKey, FunctionObjectType,</text>
<text text-anchor="middle" x="486.5" y="-41.11" font-family="Helvetica,sans-Serif" font-size="10.00"> hash&lt; TKey &gt; &gt;</text>
</a>
</g>
</g>
<!-- Node6&#45;&gt;Node10 -->
<g id="edge10" class="edge">
<title>Node6&#45;&gt;Node10</title>
<path fill="none" stroke="orange" stroke-dasharray="5,2" d="M221.02,-89.46C229.28,-86.86 237.82,-84.45 246,-82.61 299.61,-70.56 361.2,-63.51 408.5,-59.5"/>
<polygon fill="orange" stroke="orange" points="219.92,-86.13 211.5,-92.57 222.1,-92.79 219.92,-86.13"/>
<text text-anchor="start" x="246" y="-96.61" font-family="Helvetica,sans-Serif" font-size="10.00"> &lt; TKey, FunctionObjectType,</text>
<text text-anchor="middle" x="317.5" y="-85.61" font-family="Helvetica,sans-Serif" font-size="10.00"> hash&lt; TKey &gt; &gt;</text>
</g>
<!-- Node7 -->
<g id="node7" class="node">
<title>Node7</title>
<g id="a_node7"><a xlink:title=" ">
<polygon fill="white" stroke="#bfbfbf" points="0,-105.11 0,-124.11 29,-124.11 29,-105.11 0,-105.11"/>
<text text-anchor="middle" x="14.5" y="-112.11" font-family="Helvetica,sans-Serif" font-size="10.00">K</text>
</a>
</g>
</g>
<!-- Node7&#45;&gt;Node6 -->
<g id="edge6" class="edge">
<title>Node7&#45;&gt;Node6</title>
<path fill="none" stroke="#9a32cd" stroke-dasharray="5,2" d="M38.29,-101.5C41.15,-100.32 44.09,-99.31 47,-98.61 68.45,-93.48 92.55,-93.93 113.69,-96.31"/>
<polygon fill="#9a32cd" stroke="#9a32cd" points="36.55,-98.46 29.07,-105.96 39.59,-104.76 36.55,-98.46"/>
<text text-anchor="middle" x="71.5" y="-101.61" font-family="Helvetica,sans-Serif" font-size="10.00"> keys</text>
</g>
<!-- Node21 -->
<g id="node21" class="node">
<title>Node21</title>
<g id="a_node21"><a xlink:title="STL class.">
<polygon fill="white" stroke="#bfbfbf" points="120.5,-220.11 120.5,-239.11 221.5,-239.11 221.5,-220.11 120.5,-220.11"/>
<text text-anchor="middle" x="171" y="-227.11" font-family="Helvetica,sans-Serif" font-size="10.00">std::map&lt; K, T &gt;</text>
</a>
</g>
</g>
<!-- Node7&#45;&gt;Node21 -->
<g id="edge27" class="edge">
<title>Node7&#45;&gt;Node21</title>
<path fill="none" stroke="#9a32cd" stroke-dasharray="5,2" d="M39.32,-114.91C56.28,-116.13 78.99,-119.89 96,-130.61 131.76,-153.16 156.3,-199.63 165.72,-219.86"/>
<polygon fill="#9a32cd" stroke="#9a32cd" points="39.27,-111.4 29.12,-114.43 38.94,-118.4 39.27,-111.4"/>
<text text-anchor="middle" x="71.5" y="-133.61" font-family="Helvetica,sans-Serif" font-size="10.00"> keys</text>
</g>
<!-- Node8 -->
<g id="node8" class="node">
<title>Node8</title>
<g id="a_node8"><a xlink:title=" ">
<polygon fill="white" stroke="#bfbfbf" points="0,-201.11 0,-220.11 29,-220.11 29,-201.11 0,-201.11"/>
<text text-anchor="middle" x="14.5" y="-208.11" font-family="Helvetica,sans-Serif" font-size="10.00">T</text>
</a>
</g>
</g>
<!-- Node8&#45;&gt;Node6 -->
<g id="edge7" class="edge">
<title>Node8&#45;&gt;Node6</title>
<path fill="none" stroke="#9a32cd" stroke-dasharray="5,2" d="M25.53,-192.44C31,-183.77 38.41,-173.76 47,-166.61 65.49,-151.22 74.29,-153.99 96,-143.61 110.18,-136.84 125.84,-129.24 139.08,-122.77"/>
<polygon fill="#9a32cd" stroke="#9a32cd" points="22.48,-190.72 20.39,-201.11 28.5,-194.29 22.48,-190.72"/>
<text text-anchor="middle" x="71.5" y="-169.61" font-family="Helvetica,sans-Serif" font-size="10.00"> elements</text>
</g>
<!-- Node13 -->
<g id="node13" class="node">
<title>Node13</title>
<g id="a_node13"><a xlink:title="STL class.">
<polygon fill="white" stroke="#bfbfbf" points="1246.5,-178.11 1246.5,-197.11 1364.5,-197.11 1364.5,-178.11 1246.5,-178.11"/>
<text text-anchor="middle" x="1305.5" y="-185.11" font-family="Helvetica,sans-Serif" font-size="10.00">std::unique_ptr&lt; T &gt;</text>
</a>
</g>
</g>
<!-- Node8&#45;&gt;Node13 -->
<g id="edge16" class="edge">
<title>Node8&#45;&gt;Node13</title>
<path fill="none" stroke="#9a32cd" stroke-dasharray="5,2" d="M39.06,-205.9C69.26,-200.27 123.31,-191.61 170,-191.61 170,-191.61 170,-191.61 1099,-191.61 1148.78,-191.61 1205.33,-190.43 1246.49,-189.35"/>
<polygon fill="#9a32cd" stroke="#9a32cd" points="38.23,-202.49 29.07,-207.81 39.55,-209.37 38.23,-202.49"/>
<text text-anchor="middle" x="617" y="-194.61" font-family="Helvetica,sans-Serif" font-size="10.00"> ptr</text>
</g>
<!-- Node8&#45;&gt;Node21 -->
<g id="edge28" class="edge">
<title>Node8&#45;&gt;Node21</title>
<path fill="none" stroke="#9a32cd" stroke-dasharray="5,2" d="M39.41,-213.55C60.97,-216.21 93.36,-220.19 120.48,-223.52"/>
<polygon fill="#9a32cd" stroke="#9a32cd" points="39.56,-210.05 29.21,-212.3 38.71,-216.99 39.56,-210.05"/>
<text text-anchor="middle" x="71.5" y="-222.61" font-family="Helvetica,sans-Serif" font-size="10.00"> elements</text>
</g>
<!-- Node22 -->
<g id="node22" class="node">
<title>Node22</title>
<g id="a_node22"><a xlink:title="STL class.">
<polygon fill="white" stroke="#bfbfbf" points="122.5,-258.11 122.5,-277.11 219.5,-277.11 219.5,-258.11 122.5,-258.11"/>
<text text-anchor="middle" x="171" y="-265.11" font-family="Helvetica,sans-Serif" font-size="10.00">std::vector&lt; T &gt;</text>
</a>
</g>
</g>
<!-- Node8&#45;&gt;Node22 -->
<g id="edge30" class="edge">
<title>Node8&#45;&gt;Node22</title>
<path fill="none" stroke="#9a32cd" stroke-dasharray="5,2" d="M33.76,-226.4C37.92,-229.45 42.46,-232.38 47,-234.61 70.61,-246.21 98.85,-254.16 122.31,-259.34"/>
<polygon fill="#9a32cd" stroke="#9a32cd" points="35.9,-223.63 25.88,-220.18 31.56,-229.12 35.9,-223.63"/>
<text text-anchor="middle" x="71.5" y="-255.61" font-family="Helvetica,sans-Serif" font-size="10.00"> elements</text>
</g>
<!-- Node9 -->
<g id="node9" class="node">
<title>Node9</title>
<g id="a_node9"><a xlink:href="classitk_1_1simple_1_1detail_1_1MemberFunctionFactoryBase.html" target="_top" xlink:title=" ">
<polygon fill="white" stroke="black" points="670,-22.61 670,-74.61 834,-74.61 834,-22.61 670,-22.61"/>
<text text-anchor="start" x="678" y="-62.61" font-family="Helvetica,sans-Serif" font-size="10.00">itk::simple::detail</text>
<text text-anchor="start" x="678" y="-51.61" font-family="Helvetica,sans-Serif" font-size="10.00">::MemberFunctionFactoryBase</text>
<text text-anchor="start" x="678" y="-40.61" font-family="Helvetica,sans-Serif" font-size="10.00">&lt; TMemberFunctionPointer,</text>
<text text-anchor="middle" x="752" y="-29.61" font-family="Helvetica,sans-Serif" font-size="10.00"> TKey &gt;</text>
</a>
</g>
</g>
<!-- Node9&#45;&gt;Node4 -->
<g id="edge8" class="edge">
<title>Node9&#45;&gt;Node4</title>
<path fill="none" stroke="orange" stroke-dasharray="5,2" d="M844.13,-72.64C847.46,-73.34 850.75,-74 854,-74.61 884.12,-80.33 957.45,-89.13 1015.73,-95.72"/>
<polygon fill="orange" stroke="orange" points="844.62,-69.17 834.11,-70.46 843.13,-76.01 844.62,-69.17"/>
<text text-anchor="start" x="863" y="-118.61" font-family="Helvetica,sans-Serif" font-size="10.00"> &lt; MemberFunctionType,</text>
<text text-anchor="start" x="863" y="-107.61" font-family="Helvetica,sans-Serif" font-size="10.00"> std::pair&lt; unsigned</text>
<text text-anchor="middle" x="924" y="-96.61" font-family="Helvetica,sans-Serif" font-size="10.00"> int, int &gt; &gt;</text>
</g>
<!-- Node9&#45;&gt;Node12 -->
<g id="edge14" class="edge">
<title>Node9&#45;&gt;Node12</title>
<path fill="none" stroke="orange" stroke-dasharray="5,2" d="M815.68,-18.85C828.12,-14.19 841.27,-10.1 854,-7.61 915.07,4.31 932.25,0.06 994,-7.61 999.86,-8.34 1005.86,-9.29 1011.88,-10.4"/>
<polygon fill="orange" stroke="orange" points="814.37,-15.61 806.33,-22.51 816.92,-22.13 814.37,-15.61"/>
<text text-anchor="start" x="854" y="-32.61" font-family="Helvetica,sans-Serif" font-size="10.00"> &lt; TMemberFunctionPointer,</text>
<text text-anchor="start" x="854" y="-21.61" font-family="Helvetica,sans-Serif" font-size="10.00"> std::pair&lt; unsigned int,</text>
<text text-anchor="middle" x="924" y="-10.61" font-family="Helvetica,sans-Serif" font-size="10.00"> int &gt; &gt;</text>
</g>
<!-- Node10&#45;&gt;Node9 -->
<g id="edge9" class="edge">
<title>Node10&#45;&gt;Node9</title>
<path fill="none" stroke="#9a32cd" stroke-dasharray="5,2" d="M574.98,-52.62C605.49,-51.93 639.59,-51.15 669.6,-50.47"/>
<polygon fill="#9a32cd" stroke="#9a32cd" points="574.7,-49.13 564.78,-52.85 574.86,-56.13 574.7,-49.13"/>
<text text-anchor="middle" x="617" y="-55.61" font-family="Helvetica,sans-Serif" font-size="10.00"> m_PFunction</text>
</g>
<!-- Node11 -->
<g id="node11" class="node">
<title>Node11</title>
<g id="a_node11"><a xlink:href="classitk_1_1simple_1_1detail_1_1MemberFunctionFactory.html" target="_top" xlink:title="A class used to instantiate and generate function object to templated member functions.">
<polygon fill="white" stroke="black" points="1225,-29.11 1225,-70.11 1386,-70.11 1386,-29.11 1225,-29.11"/>
<text text-anchor="start" x="1233" y="-58.11" font-family="Helvetica,sans-Serif" font-size="10.00">itk::simple::detail</text>
<text text-anchor="start" x="1233" y="-47.11" font-family="Helvetica,sans-Serif" font-size="10.00">::MemberFunctionFactory</text>
<text text-anchor="middle" x="1305.5" y="-36.11" font-family="Helvetica,sans-Serif" font-size="10.00">&lt; TMemberFunctionPointer &gt;</text>
</a>
</g>
</g>
<!-- Node11&#45;&gt;Node3 -->
<g id="edge11" class="edge">
<title>Node11&#45;&gt;Node3</title>
<path fill="none" stroke="orange" stroke-dasharray="5,2" d="M1396.03,-58.86C1440.8,-63.62 1495.79,-69.65 1545,-75.61 1553.73,-76.67 1562.89,-77.83 1571.96,-79.01"/>
<polygon fill="orange" stroke="orange" points="1396.37,-55.38 1386.05,-57.8 1395.63,-62.34 1396.37,-55.38"/>
<text text-anchor="middle" x="1476.5" y="-78.61" font-family="Helvetica,sans-Serif" font-size="10.00"> &lt; MemberFunctionType &gt;</text>
</g>
<!-- Node12&#45;&gt;Node11 -->
<g id="edge12" class="edge">
<title>Node12&#45;&gt;Node11</title>
<path fill="none" stroke="darkgreen" d="M1194.23,-41.03C1204.45,-41.82 1214.76,-42.63 1224.77,-43.41"/>
<polygon fill="darkgreen" stroke="darkgreen" points="1194.31,-37.52 1184.07,-40.24 1193.77,-44.5 1194.31,-37.52"/>
</g>
<!-- Node13&#45;&gt;Node2 -->
<g id="edge15" class="edge">
<title>Node13&#45;&gt;Node2</title>
<path fill="none" stroke="orange" stroke-dasharray="5,2" d="M1374.88,-186.94C1501.71,-185.68 1773.6,-182.98 1917.76,-181.55"/>
<polygon fill="orange" stroke="orange" points="1374.5,-183.44 1364.53,-187.04 1374.57,-190.44 1374.5,-183.44"/>
<text text-anchor="start" x="1574" y="-209.61" font-family="Helvetica,sans-Serif" font-size="10.00"> &lt; itk::simple::detail</text>
<text text-anchor="start" x="1574" y="-198.61" font-family="Helvetica,sans-Serif" font-size="10.00">::MemberFunctionFactory</text>
<text text-anchor="middle" x="1643.5" y="-187.61" font-family="Helvetica,sans-Serif" font-size="10.00">&lt; MemberFunctionType &gt; &gt;</text>
</g>
<!-- Node15 -->
<g id="node15" class="node">
<title>Node15</title>
<g id="a_node15"><a xlink:title=" ">
<polygon fill="white" stroke="#bfbfbf" points="1563,-235.61 1563,-265.61 1724,-265.61 1724,-235.61 1563,-235.61"/>
<text text-anchor="start" x="1571" y="-253.61" font-family="Helvetica,sans-Serif" font-size="10.00">std::unique_ptr&lt; itk</text>
<text text-anchor="middle" x="1643.5" y="-242.61" font-family="Helvetica,sans-Serif" font-size="10.00">::simple::PimpleImageBase &gt;</text>
</a>
</g>
</g>
<!-- Node13&#45;&gt;Node15 -->
<g id="edge20" class="edge">
<title>Node13&#45;&gt;Node15</title>
<path fill="none" stroke="orange" stroke-dasharray="5,2" d="M1374.59,-196.21C1422.49,-202.74 1487.96,-212.62 1545,-224.61 1559.74,-227.71 1575.58,-231.67 1590.12,-235.55"/>
<polygon fill="orange" stroke="orange" points="1375.02,-192.74 1364.65,-194.87 1374.09,-199.67 1375.02,-192.74"/>
<text text-anchor="start" x="1408" y="-238.61" font-family="Helvetica,sans-Serif" font-size="10.00"> &lt; itk::simple::PimpleImage</text>
<text text-anchor="middle" x="1476.5" y="-227.61" font-family="Helvetica,sans-Serif" font-size="10.00">Base &gt;</text>
</g>
<!-- Node19 -->
<g id="node19" class="node">
<title>Node19</title>
<g id="a_node19"><a xlink:title=" ">
<polygon fill="white" stroke="#bfbfbf" points="1742,-103.61 1742,-133.61 1900,-133.61 1900,-103.61 1742,-103.61"/>
<text text-anchor="start" x="1750" y="-121.61" font-family="Helvetica,sans-Serif" font-size="10.00">std::unique_ptr&lt; Transformix</text>
<text text-anchor="middle" x="1821" y="-110.61" font-family="Helvetica,sans-Serif" font-size="10.00">ImageFilterImpl &gt;</text>
</a>
</g>
</g>
<!-- Node13&#45;&gt;Node19 -->
<g id="edge24" class="edge">
<title>Node13&#45;&gt;Node19</title>
<path fill="none" stroke="orange" stroke-dasharray="5,2" d="M1334.91,-173.71C1354.86,-164.62 1382.44,-153.41 1408,-147.61 1469.37,-133.71 1640.22,-125.24 1741.61,-121.29"/>
<polygon fill="orange" stroke="orange" points="1333.36,-170.57 1325.77,-177.96 1336.32,-176.91 1333.36,-170.57"/>
<text text-anchor="start" x="1412.5" y="-161.61" font-family="Helvetica,sans-Serif" font-size="10.00"> &lt; TransformixImageFilter</text>
<text text-anchor="middle" x="1476.5" y="-150.61" font-family="Helvetica,sans-Serif" font-size="10.00">Impl &gt;</text>
</g>
<!-- Node14 -->
<g id="node14" class="node">
<title>Node14</title>
<g id="a_node14"><a xlink:href="classitk_1_1simple_1_1Image.html" target="_top" xlink:title="The Image class for SimpleITK.">
<polygon fill="white" stroke="black" points="1960.5,-229.11 1960.5,-248.11 2065.5,-248.11 2065.5,-229.11 1960.5,-229.11"/>
<text text-anchor="middle" x="2013" y="-236.11" font-family="Helvetica,sans-Serif" font-size="10.00">itk::simple::Image</text>
</a>
</g>
</g>
<!-- Node14&#45;&gt;Node1 -->
<g id="edge17" class="edge">
<title>Node14&#45;&gt;Node1</title>
<path fill="none" stroke="#9a32cd" stroke-dasharray="5,2" d="M2076.11,-228.14C2126.92,-219.53 2200.64,-206.94 2265,-195.61 2270.77,-194.6 2276.76,-193.53 2282.77,-192.46"/>
<polygon fill="#9a32cd" stroke="#9a32cd" points="2075.22,-224.74 2065.94,-229.86 2076.39,-231.64 2075.22,-224.74"/>
<text text-anchor="middle" x="2195.5" y="-243.61" font-family="Helvetica,sans-Serif" font-size="10.00"> m_DeformationField</text>
<text text-anchor="middle" x="2195.5" y="-232.61" font-family="Helvetica,sans-Serif" font-size="10.00">m_MovingImage</text>
<text text-anchor="middle" x="2195.5" y="-221.61" font-family="Helvetica,sans-Serif" font-size="10.00">m_ResultImage</text>
</g>
<!-- Node15&#45;&gt;Node14 -->
<g id="edge18" class="edge">
<title>Node15&#45;&gt;Node14</title>
<path fill="none" stroke="#9a32cd" stroke-dasharray="5,2" d="M1734.52,-247.67C1805.49,-245.36 1901.93,-242.21 1960.42,-240.3"/>
<polygon fill="#9a32cd" stroke="#9a32cd" points="1734.12,-244.19 1724.24,-248.01 1734.35,-251.18 1734.12,-244.19"/>
<text text-anchor="middle" x="1821" y="-249.61" font-family="Helvetica,sans-Serif" font-size="10.00"> m_PimpleImage</text>
</g>
<!-- Node16 -->
<g id="node16" class="node">
<title>Node16</title>
<g id="a_node16"><a xlink:href="classitk_1_1simple_1_1PimpleImageBase.html" target="_top" xlink:title="Private implementation idiom image base class.">
<polygon fill="white" stroke="black" points="1224,-241.11 1224,-260.11 1387,-260.11 1387,-241.11 1224,-241.11"/>
<text text-anchor="middle" x="1305.5" y="-248.11" font-family="Helvetica,sans-Serif" font-size="10.00">itk::simple::PimpleImageBase</text>
</a>
</g>
</g>
<!-- Node16&#45;&gt;Node15 -->
<g id="edge19" class="edge">
<title>Node16&#45;&gt;Node15</title>
<path fill="none" stroke="#9a32cd" stroke-dasharray="5,2" d="M1397.56,-250.61C1449.21,-250.61 1513.24,-250.61 1562.87,-250.61"/>
<polygon fill="#9a32cd" stroke="#9a32cd" points="1397.41,-247.11 1387.41,-250.61 1397.41,-254.11 1397.41,-247.11"/>
<text text-anchor="middle" x="1476.5" y="-253.61" font-family="Helvetica,sans-Serif" font-size="10.00"> ptr</text>
</g>
<!-- Node17 -->
<g id="node17" class="node">
<title>Node17</title>
<g id="a_node17"><a xlink:title="STL class.">
<polygon fill="white" stroke="#bfbfbf" points="1980.5,-28.11 1980.5,-47.11 2045.5,-47.11 2045.5,-28.11 1980.5,-28.11"/>
<text text-anchor="middle" x="2013" y="-35.11" font-family="Helvetica,sans-Serif" font-size="10.00">std::string</text>
</a>
</g>
</g>
<!-- Node17&#45;&gt;Node1 -->
<g id="edge21" class="edge">
<title>Node17&#45;&gt;Node1</title>
<path fill="none" stroke="#9a32cd" stroke-dasharray="5,2" d="M2056,-35.42C2108.45,-34.57 2199.28,-39.52 2265,-77.61 2301.36,-98.69 2328.15,-142.27 2340.47,-165.41"/>
<polygon fill="#9a32cd" stroke="#9a32cd" points="2055.64,-31.92 2045.73,-35.66 2055.81,-38.92 2055.64,-31.92"/>
<text text-anchor="middle" x="2195.5" y="-102.61" font-family="Helvetica,sans-Serif" font-size="10.00"> m_OutputDirectory</text>
<text text-anchor="middle" x="2195.5" y="-91.61" font-family="Helvetica,sans-Serif" font-size="10.00">m_LogFileName</text>
<text text-anchor="middle" x="2195.5" y="-80.61" font-family="Helvetica,sans-Serif" font-size="10.00">m_MovingPointSetFileName</text>
</g>
<!-- Node18 -->
<g id="node18" class="node">
<title>Node18</title>
<g id="a_node18"><a xlink:title="STL class.">
<polygon fill="white" stroke="#bfbfbf" points="1591.5,-18.61 1591.5,-48.61 1695.5,-48.61 1695.5,-18.61 1591.5,-18.61"/>
<text text-anchor="start" x="1599.5" y="-36.61" font-family="Helvetica,sans-Serif" font-size="10.00">std::basic_string&lt;</text>
<text text-anchor="middle" x="1643.5" y="-25.61" font-family="Helvetica,sans-Serif" font-size="10.00"> char &gt;</text>
</a>
</g>
</g>
<!-- Node18&#45;&gt;Node17 -->
<g id="edge22" class="edge">
<title>Node18&#45;&gt;Node17</title>
<path fill="none" stroke="midnightblue" d="M1705.9,-34.28C1784.93,-35.14 1919.31,-36.61 1980.26,-37.27"/>
<polygon fill="midnightblue" stroke="midnightblue" points="1705.64,-30.78 1695.6,-34.17 1705.56,-37.78 1705.64,-30.78"/>
</g>
<!-- Node19&#45;&gt;Node1 -->
<g id="edge23" class="edge">
<title>Node19&#45;&gt;Node1</title>
<path fill="none" stroke="#9a32cd" stroke-dasharray="5,2" d="M1910.19,-122.9C1966.83,-126.19 2041.91,-131.56 2108,-139.61 2167.48,-146.86 2234.67,-158.65 2282.8,-167.73"/>
<polygon fill="#9a32cd" stroke="#9a32cd" points="1910.37,-119.4 1900.19,-122.33 1909.97,-126.39 1910.37,-119.4"/>
<text text-anchor="middle" x="2013" y="-142.61" font-family="Helvetica,sans-Serif" font-size="10.00"> m_Pimple</text>
</g>
<!-- Node20 -->
<g id="node20" class="node">
<title>Node20</title>
<g id="a_node20"><a xlink:title=" ">
<polygon fill="white" stroke="#bfbfbf" points="411,-252.61 411,-282.61 562,-282.61 562,-252.61 411,-252.61"/>
<text text-anchor="start" x="419" y="-270.61" font-family="Helvetica,sans-Serif" font-size="10.00">std::vector&lt; ParameterMap</text>
<text text-anchor="middle" x="486.5" y="-259.61" font-family="Helvetica,sans-Serif" font-size="10.00">Type &gt;</text>
</a>
</g>
</g>
<!-- Node20&#45;&gt;Node1 -->
<g id="edge25" class="edge">
<title>Node20&#45;&gt;Node1</title>
<path fill="none" stroke="#9a32cd" stroke-dasharray="5,2" d="M572.31,-281.72C623.83,-289.1 691.03,-296.61 751,-296.61 751,-296.61 751,-296.61 2014,-296.61 2127.03,-296.61 2163.14,-304.61 2265,-255.61 2294.58,-241.39 2321.28,-213.26 2336.01,-195.78"/>
<polygon fill="#9a32cd" stroke="#9a32cd" points="572.62,-278.23 562.22,-280.25 571.61,-285.16 572.62,-278.23"/>
<text text-anchor="middle" x="1305.5" y="-299.61" font-family="Helvetica,sans-Serif" font-size="10.00"> m_TransformParameterMapVector</text>
</g>
<!-- Node21&#45;&gt;Node20 -->
<g id="edge26" class="edge">
<title>Node21&#45;&gt;Node20</title>
<path fill="none" stroke="#9a32cd" stroke-dasharray="5,2" d="M231.79,-235.16C275.43,-239.4 335.96,-245.69 389,-252.61 396.06,-253.54 403.4,-254.56 410.74,-255.63"/>
<polygon fill="#9a32cd" stroke="#9a32cd" points="231.93,-231.66 221.64,-234.18 231.25,-238.63 231.93,-231.66"/>
<text text-anchor="middle" x="317.5" y="-255.61" font-family="Helvetica,sans-Serif" font-size="10.00"> elements</text>
</g>
<!-- Node22&#45;&gt;Node20 -->
<g id="edge29" class="edge">
<title>Node22&#45;&gt;Node20</title>
<path fill="none" stroke="orange" stroke-dasharray="5,2" d="M229.8,-267.61C280.77,-267.61 355.36,-267.61 410.83,-267.61"/>
<polygon fill="orange" stroke="orange" points="229.61,-264.11 219.61,-267.61 229.61,-271.11 229.61,-264.11"/>
<text text-anchor="middle" x="317.5" y="-270.61" font-family="Helvetica,sans-Serif" font-size="10.00"> &lt; ParameterMapType &gt;</text>
</g>
</g>
</svg>
        <g id="navigator" transform="translate(0 0)" fill="#404254">
                <rect fill="#f2f5e9" fill-opacity="0.5" stroke="#606060" stroke-width=".5" x="0" y="0" width="60" height="60"/>
                <use id="zoomplus" xlink:href="#zoomPlus" x="17" y="9" onmousedown="handleZoom(evt,'in')"/>
                <use id="zoomminus" xlink:href="#zoomMin" x="42" y="9" onmousedown="handleZoom(evt,'out')"/>
                <use id="reset" xlink:href="#resetDef" x="30" y="36" onmousedown="handleReset()"/>
                <g id="arrowUp" xlink:href="#dirArrow" transform="translate(30 24)" onmousedown="handlePan(0,-1)">
                  <use xlink:href="#rim" fill="#404040">
                        <set attributeName="fill" to="#808080" begin="arrowUp.mouseover" end="arrowUp.mouseout"/>
                  </use>
                  <path fill="none" stroke="white" stroke-width="1.5" d="M0,-3.0v7 M-2.5,-0.5L0,-3.0L2.5,-0.5"/>
                </g>
                <g id="arrowRight" xlink:href="#dirArrow" transform="rotate(90) translate(36 -43)" onmousedown="handlePan(1,0)">
                  <use xlink:href="#rim" fill="#404040">
                        <set attributeName="fill" to="#808080" begin="arrowRight.mouseover" end="arrowRight.mouseout"/>
                  </use>
                  <path fill="none" stroke="white" stroke-width="1.5" d="M0,-3.0v7 M-2.5,-0.5L0,-3.0L2.5,-0.5"/>
                </g>
                <g id="arrowDown" xlink:href="#dirArrow" transform="rotate(180) translate(-30 -48)" onmousedown="handlePan(0,1)">
                  <use xlink:href="#rim" fill="#404040">
                        <set attributeName="fill" to="#808080" begin="arrowDown.mouseover" end="arrowDown.mouseout"/>
                  </use>
                  <path fill="none" stroke="white" stroke-width="1.5" d="M0,-3.0v7 M-2.5,-0.5L0,-3.0L2.5,-0.5"/>
                </g>
                <g id="arrowLeft" xlink:href="#dirArrow" transform="rotate(270) translate(-36 17)" onmousedown="handlePan(-1,0)">
                  <use xlink:href="#rim" fill="#404040">
                        <set attributeName="fill" to="#808080" begin="arrowLeft.mouseover" end="arrowLeft.mouseout"/>
                  </use>
                  <path fill="none" stroke="white" stroke-width="1.5" d="M0,-3.0v7 M-2.5,-0.5L0,-3.0L2.5,-0.5"/>
                </g>
        </g>
        <svg viewBox="0 0 15 15" width="100%" height="30px" preserveAspectRatio="xMaxYMin meet">
         <g id="arrow_out" transform="scale(0.3 0.3)">
          <a xlink:href="classitk_1_1simple_1_1TransformixImageFilter__coll__graph_org.svg" target="_base">
           <rect id="button" ry="5" rx="5" y="6" x="6" height="38" width="38"
                fill="#f2f5e9" fill-opacity="0.5" stroke="#606060" stroke-width="1.0"/>
           <path id="arrow"
             d="M 11.500037,31.436501 C 11.940474,20.09759 22.043105,11.32322 32.158766,21.979434 L 37.068811,17.246167 C 37.068811,17.246167 37.088388,32 37.088388,32 L 22.160133,31.978069 C 22.160133,31.978069 26.997745,27.140456 26.997745,27.140456 C 18.528582,18.264221 13.291696,25.230495 11.500037,31.436501 z"
             style="fill:#404040;"/>
          </a>
         </g>
        </svg>
</svg>
