<?xml version="1.0" encoding="UTF-8" standalone="no"?>
<!DOCTYPE svg PUBLIC "-//W3C//DTD SVG 1.1//EN"
 "http://www.w3.org/Graphics/SVG/1.1/DTD/svg11.dtd">
<!-- Generated by graphviz version 2.43.0 (0)
 -->
<!-- Title: itk::simple::ImageSeriesWriter Pages: 1 -->
<svg width="2517pt" height="395pt"
 viewBox="0.00 0.00 2517.00 394.50" xmlns="http://www.w3.org/2000/svg" xmlns:xlink="http://www.w3.org/1999/xlink">
<g id="graph0" class="graph" transform="scale(1 1) rotate(0) translate(4 390.5)">
<title>itk::simple::ImageSeriesWriter</title>
<polygon fill="white" stroke="transparent" points="-4,4 -4,-390.5 2513,-390.5 2513,4 -4,4"/>
<!-- Node1 -->
<g id="node1" class="node">
<title>Node1</title>
<g id="a_node1"><a xlink:title="Writer series of image from a SimpleITK image.">
<polygon fill="#bfbfbf" stroke="black" points="2374,-280.5 2374,-310.5 2509,-310.5 2509,-280.5 2374,-280.5"/>
<text text-anchor="start" x="2382" y="-298.5" font-family="Helvetica,sans-Serif" font-size="10.00">itk::simple::ImageSeries</text>
<text text-anchor="middle" x="2441.5" y="-287.5" font-family="Helvetica,sans-Serif" font-size="10.00">Writer</text>
</a>
</g>
</g>
<!-- Node2 -->
<g id="node2" class="node">
<title>Node2</title>
<g id="a_node2"><a xlink:href="classitk_1_1simple_1_1ProcessObject.html" target="_top" xlink:title="Base class for SimpleITK classes based on ProcessObject.">
<polygon fill="white" stroke="black" points="2077.5,-257 2077.5,-276 2220.5,-276 2220.5,-257 2077.5,-257"/>
<text text-anchor="middle" x="2149" y="-264" font-family="Helvetica,sans-Serif" font-size="10.00">itk::simple::ProcessObject</text>
</a>
</g>
</g>
<!-- Node2&#45;&gt;Node1 -->
<g id="edge1" class="edge">
<title>Node2&#45;&gt;Node1</title>
<path fill="none" stroke="midnightblue" d="M2230.74,-274.56C2275.86,-279.06 2331.39,-284.61 2373.99,-288.86"/>
<polygon fill="midnightblue" stroke="midnightblue" points="2230.99,-271.07 2220.69,-273.56 2230.3,-278.03 2230.99,-271.07"/>
</g>
<!-- Node3 -->
<g id="node3" class="node">
<title>Node3</title>
<g id="a_node3"><a xlink:href="classitk_1_1simple_1_1NonCopyable.html" target="_top" xlink:title="An inheritable class to disable copying of a class.">
<polygon fill="white" stroke="black" points="382,-267 382,-286 522,-286 522,-267 382,-267"/>
<text text-anchor="middle" x="452" y="-274" font-family="Helvetica,sans-Serif" font-size="10.00">itk::simple::NonCopyable</text>
</a>
</g>
</g>
<!-- Node3&#45;&gt;Node2 -->
<g id="edge2" class="edge">
<title>Node3&#45;&gt;Node2</title>
<path fill="none" stroke="darkgreen" d="M532.2,-272.89C601.91,-270.03 706.17,-266.5 797,-266.5 797,-266.5 797,-266.5 1851.5,-266.5 1928.71,-266.5 2017.24,-266.5 2077.31,-266.5"/>
<polygon fill="darkgreen" stroke="darkgreen" points="532.01,-269.4 522.17,-273.31 532.3,-276.39 532.01,-269.4"/>
</g>
<!-- Node7 -->
<g id="node7" class="node">
<title>Node7</title>
<g id="a_node7"><a xlink:href="classitk_1_1simple_1_1ObjectOwnedBase.html" target="_top" xlink:title="An abstract base class to connect this object with the lifetime of another.">
<polygon fill="white" stroke="black" points="716,-219 716,-238 880,-238 880,-219 716,-219"/>
<text text-anchor="middle" x="798" y="-226" font-family="Helvetica,sans-Serif" font-size="10.00">itk::simple::ObjectOwnedBase</text>
</a>
</g>
</g>
<!-- Node3&#45;&gt;Node7 -->
<g id="edge7" class="edge">
<title>Node3&#45;&gt;Node7</title>
<path fill="none" stroke="midnightblue" d="M497.9,-264.46C511.36,-261.18 526.21,-257.88 540,-255.5 598.47,-245.42 665.12,-238.55 715.89,-234.26"/>
<polygon fill="midnightblue" stroke="midnightblue" points="496.77,-261.14 487.91,-266.96 498.46,-267.93 496.77,-261.14"/>
</g>
<!-- Node4 -->
<g id="node4" class="node">
<title>Node4</title>
<g id="a_node4"><a xlink:title=" ">
<polygon fill="white" stroke="#bfbfbf" points="1757,-207.5 1757,-237.5 1944,-237.5 1944,-207.5 1757,-207.5"/>
<text text-anchor="start" x="1765" y="-225.5" font-family="Helvetica,sans-Serif" font-size="10.00">std::list&lt; itk::simple</text>
<text text-anchor="middle" x="1850.5" y="-214.5" font-family="Helvetica,sans-Serif" font-size="10.00">::ProcessObject::EventCommand &gt;</text>
</a>
</g>
</g>
<!-- Node4&#45;&gt;Node2 -->
<g id="edge3" class="edge">
<title>Node4&#45;&gt;Node2</title>
<path fill="none" stroke="#9a32cd" stroke-dasharray="5,2" d="M1954.34,-230.94C1981.01,-233.72 2009.65,-237.22 2036,-241.5 2060.97,-245.56 2088.73,-251.74 2110.37,-256.95"/>
<polygon fill="#9a32cd" stroke="#9a32cd" points="1954.52,-227.44 1944.22,-229.91 1953.82,-234.4 1954.52,-227.44"/>
<text text-anchor="middle" x="1999" y="-244.5" font-family="Helvetica,sans-Serif" font-size="10.00"> m_Commands</text>
</g>
<!-- Node5 -->
<g id="node5" class="node">
<title>Node5</title>
<g id="a_node5"><a xlink:href="structitk_1_1simple_1_1ProcessObject_1_1EventCommand.html" target="_top" xlink:title=" ">
<polygon fill="white" stroke="black" points="1439,-207.5 1439,-237.5 1582,-237.5 1582,-207.5 1439,-207.5"/>
<text text-anchor="start" x="1447" y="-225.5" font-family="Helvetica,sans-Serif" font-size="10.00">itk::simple::ProcessObject</text>
<text text-anchor="middle" x="1510.5" y="-214.5" font-family="Helvetica,sans-Serif" font-size="10.00">::EventCommand</text>
</a>
</g>
</g>
<!-- Node5&#45;&gt;Node4 -->
<g id="edge4" class="edge">
<title>Node5&#45;&gt;Node4</title>
<path fill="none" stroke="#9a32cd" stroke-dasharray="5,2" d="M1592.38,-222.5C1641.88,-222.5 1705.39,-222.5 1756.9,-222.5"/>
<polygon fill="#9a32cd" stroke="#9a32cd" points="1592.36,-219 1582.36,-222.5 1592.36,-226 1592.36,-219"/>
<text text-anchor="middle" x="1674" y="-225.5" font-family="Helvetica,sans-Serif" font-size="10.00"> elements</text>
</g>
<!-- Node6 -->
<g id="node6" class="node">
<title>Node6</title>
<g id="a_node6"><a xlink:href="classitk_1_1simple_1_1Command.html" target="_top" xlink:title="An implementation of the Command design pattern for callback.">
<polygon fill="white" stroke="black" points="1081.5,-216 1081.5,-235 1206.5,-235 1206.5,-216 1081.5,-216"/>
<text text-anchor="middle" x="1144" y="-223" font-family="Helvetica,sans-Serif" font-size="10.00">itk::simple::Command</text>
</a>
</g>
</g>
<!-- Node6&#45;&gt;Node5 -->
<g id="edge5" class="edge">
<title>Node6&#45;&gt;Node5</title>
<path fill="none" stroke="#9a32cd" stroke-dasharray="5,2" d="M1216.9,-224.91C1281.24,-224.38 1375,-223.61 1438.93,-223.08"/>
<polygon fill="#9a32cd" stroke="#9a32cd" points="1216.8,-221.41 1206.83,-224.99 1216.86,-228.41 1216.8,-221.41"/>
<text text-anchor="middle" x="1330" y="-228.5" font-family="Helvetica,sans-Serif" font-size="10.00"> m_Command</text>
</g>
<!-- Node7&#45;&gt;Node6 -->
<g id="edge6" class="edge">
<title>Node7&#45;&gt;Node6</title>
<path fill="none" stroke="midnightblue" d="M890.38,-227.7C950.7,-227.18 1028.13,-226.5 1081.27,-226.04"/>
<polygon fill="midnightblue" stroke="midnightblue" points="890.06,-224.21 880.09,-227.79 890.12,-231.21 890.06,-224.21"/>
</g>
<!-- Node8 -->
<g id="node8" class="node">
<title>Node8</title>
<g id="a_node8"><a xlink:title=" ">
<polygon fill="white" stroke="#bfbfbf" points="387.5,-207 387.5,-248 516.5,-248 516.5,-207 387.5,-207"/>
<text text-anchor="start" x="395.5" y="-236" font-family="Helvetica,sans-Serif" font-size="10.00">std::multimap&lt; itk</text>
<text text-anchor="start" x="395.5" y="-225" font-family="Helvetica,sans-Serif" font-size="10.00">::Object *, std::function</text>
<text text-anchor="middle" x="452" y="-214" font-family="Helvetica,sans-Serif" font-size="10.00">&lt; void()&gt; &gt;</text>
</a>
</g>
</g>
<!-- Node8&#45;&gt;Node7 -->
<g id="edge8" class="edge">
<title>Node8&#45;&gt;Node7</title>
<path fill="none" stroke="#9a32cd" stroke-dasharray="5,2" d="M526.55,-217.54C531.1,-217.13 535.61,-216.78 540,-216.5 610.08,-212.09 627.91,-212.27 698,-216.5 707.51,-217.07 717.5,-217.96 727.32,-218.99"/>
<polygon fill="#9a32cd" stroke="#9a32cd" points="526.19,-214.06 516.58,-218.52 526.88,-221.03 526.19,-214.06"/>
<text text-anchor="middle" x="619" y="-219.5" font-family="Helvetica,sans-Serif" font-size="10.00"> m_ReferencedObjectsCallbacks</text>
</g>
<!-- Node9 -->
<g id="node9" class="node">
<title>Node9</title>
<g id="a_node9"><a xlink:title="STL class.">
<polygon fill="white" stroke="#bfbfbf" points="114,-218 114,-237 240,-237 240,-218 114,-218"/>
<text text-anchor="middle" x="177" y="-225" font-family="Helvetica,sans-Serif" font-size="10.00">std::multimap&lt; K, T &gt;</text>
</a>
</g>
</g>
<!-- Node9&#45;&gt;Node8 -->
<g id="edge9" class="edge">
<title>Node9&#45;&gt;Node8</title>
<path fill="none" stroke="orange" stroke-dasharray="5,2" d="M250.3,-227.5C292.82,-227.5 346.1,-227.5 387.08,-227.5"/>
<polygon fill="orange" stroke="orange" points="250.29,-224 240.29,-227.5 250.29,-231 250.29,-224"/>
<text text-anchor="start" x="258" y="-241.5" font-family="Helvetica,sans-Serif" font-size="10.00"> &lt; itk::Object *, std</text>
<text text-anchor="middle" x="311" y="-230.5" font-family="Helvetica,sans-Serif" font-size="10.00">::function&lt; void()&gt; &gt;</text>
</g>
<!-- Node10 -->
<g id="node10" class="node">
<title>Node10</title>
<g id="a_node10"><a xlink:title=" ">
<polygon fill="white" stroke="#bfbfbf" points="0,-367 0,-386 29,-386 29,-367 0,-367"/>
<text text-anchor="middle" x="14.5" y="-374" font-family="Helvetica,sans-Serif" font-size="10.00">K</text>
</a>
</g>
</g>
<!-- Node10&#45;&gt;Node9 -->
<g id="edge10" class="edge">
<title>Node10&#45;&gt;Node9</title>
<path fill="none" stroke="#9a32cd" stroke-dasharray="5,2" d="M39.07,-376.3C57.13,-374.84 81.36,-369.86 96,-354.5 121.44,-327.8 93.93,-304.44 114,-273.5 124.43,-257.42 142.56,-244.95 156.52,-237.08"/>
<polygon fill="#9a32cd" stroke="#9a32cd" points="38.83,-372.81 29.02,-376.81 39.18,-379.8 38.83,-372.81"/>
<text text-anchor="middle" x="71.5" y="-377.5" font-family="Helvetica,sans-Serif" font-size="10.00"> keys</text>
</g>
<!-- Node11 -->
<g id="node11" class="node">
<title>Node11</title>
<g id="a_node11"><a xlink:title=" ">
<polygon fill="white" stroke="#bfbfbf" points="0,-199 0,-218 29,-218 29,-199 0,-199"/>
<text text-anchor="middle" x="14.5" y="-206" font-family="Helvetica,sans-Serif" font-size="10.00">T</text>
</a>
</g>
</g>
<!-- Node11&#45;&gt;Node9 -->
<g id="edge11" class="edge">
<title>Node11&#45;&gt;Node9</title>
<path fill="none" stroke="#9a32cd" stroke-dasharray="5,2" d="M39.34,-211.32C58.97,-213.65 87.71,-217.05 113.77,-220.13"/>
<polygon fill="#9a32cd" stroke="#9a32cd" points="39.53,-207.82 29.18,-210.12 38.7,-214.77 39.53,-207.82"/>
<text text-anchor="middle" x="71.5" y="-221.5" font-family="Helvetica,sans-Serif" font-size="10.00"> elements</text>
</g>
<!-- Node14 -->
<g id="node14" class="node">
<title>Node14</title>
<g id="a_node14"><a xlink:title="STL class.">
<polygon fill="white" stroke="#bfbfbf" points="270.5,-171 270.5,-190 351.5,-190 351.5,-171 270.5,-171"/>
<text text-anchor="middle" x="311" y="-178" font-family="Helvetica,sans-Serif" font-size="10.00">std::list&lt; T &gt;</text>
</a>
</g>
</g>
<!-- Node11&#45;&gt;Node14 -->
<g id="edge15" class="edge">
<title>Node11&#45;&gt;Node14</title>
<path fill="none" stroke="#9a32cd" stroke-dasharray="5,2" d="M38.73,-200.44C41.49,-199.69 44.29,-199.01 47,-198.5 125.23,-183.63 218.62,-180.66 270.42,-180.28"/>
<polygon fill="#9a32cd" stroke="#9a32cd" points="37.65,-197.11 29.12,-203.39 39.7,-203.81 37.65,-197.11"/>
<text text-anchor="middle" x="71.5" y="-201.5" font-family="Helvetica,sans-Serif" font-size="10.00"> elements</text>
</g>
<!-- Node21 -->
<g id="node21" class="node">
<title>Node21</title>
<g id="a_node21"><a xlink:title="STL class.">
<polygon fill="white" stroke="#bfbfbf" points="560,-125 560,-144 678,-144 678,-125 560,-125"/>
<text text-anchor="middle" x="619" y="-132" font-family="Helvetica,sans-Serif" font-size="10.00">std::unique_ptr&lt; T &gt;</text>
</a>
</g>
</g>
<!-- Node11&#45;&gt;Node21 -->
<g id="edge24" class="edge">
<title>Node11&#45;&gt;Node21</title>
<path fill="none" stroke="#9a32cd" stroke-dasharray="5,2" d="M36.63,-193.24C40.01,-191.15 43.53,-189.16 47,-187.5 75.16,-174.04 83.32,-172.2 114,-166.5 273.26,-136.93 465.14,-133.37 559.62,-133.69"/>
<polygon fill="#9a32cd" stroke="#9a32cd" points="34.59,-190.4 28.19,-198.84 38.45,-196.23 34.59,-190.4"/>
<text text-anchor="middle" x="177" y="-169.5" font-family="Helvetica,sans-Serif" font-size="10.00"> ptr</text>
</g>
<!-- Node23 -->
<g id="node23" class="node">
<title>Node23</title>
<g id="a_node23"><a xlink:title="STL class.">
<polygon fill="white" stroke="#bfbfbf" points="262.5,-354 262.5,-373 359.5,-373 359.5,-354 262.5,-354"/>
<text text-anchor="middle" x="311" y="-361" font-family="Helvetica,sans-Serif" font-size="10.00">std::vector&lt; T &gt;</text>
</a>
</g>
</g>
<!-- Node11&#45;&gt;Node23 -->
<g id="edge29" class="edge">
<title>Node11&#45;&gt;Node23</title>
<path fill="none" stroke="#9a32cd" stroke-dasharray="5,2" d="M25.84,-226.92C41.41,-252.86 73.42,-299.62 114,-323.5 159.64,-350.36 220.46,-359.41 262.18,-362.34"/>
<polygon fill="#9a32cd" stroke="#9a32cd" points="28.75,-224.97 20.69,-218.1 22.7,-228.5 28.75,-224.97"/>
<text text-anchor="middle" x="71.5" y="-312.5" font-family="Helvetica,sans-Serif" font-size="10.00"> elements</text>
</g>
<!-- Node12 -->
<g id="node12" class="node">
<title>Node12</title>
<g id="a_node12"><a xlink:title="STL class.">
<polygon fill="white" stroke="#bfbfbf" points="419.5,-311 419.5,-330 484.5,-330 484.5,-311 419.5,-311"/>
<text text-anchor="middle" x="452" y="-318" font-family="Helvetica,sans-Serif" font-size="10.00">std::string</text>
</a>
</g>
</g>
<!-- Node12&#45;&gt;Node1 -->
<g id="edge25" class="edge">
<title>Node12&#45;&gt;Node1</title>
<path fill="none" stroke="#9a32cd" stroke-dasharray="5,2" d="M494.99,-321.5C559.8,-322.96 688.09,-325.5 797,-325.5 797,-325.5 797,-325.5 2150,-325.5 2227.07,-325.5 2315.03,-314.92 2373.78,-306.33"/>
<polygon fill="#9a32cd" stroke="#9a32cd" points="494.85,-318 484.77,-321.27 494.69,-325 494.85,-318"/>
<text text-anchor="middle" x="1510.5" y="-339.5" font-family="Helvetica,sans-Serif" font-size="10.00"> m_Compressor</text>
<text text-anchor="middle" x="1510.5" y="-328.5" font-family="Helvetica,sans-Serif" font-size="10.00">m_ImageIOName</text>
</g>
<!-- Node12&#45;&gt;Node7 -->
<g id="edge12" class="edge">
<title>Node12&#45;&gt;Node7</title>
<path fill="none" stroke="#9a32cd" stroke-dasharray="5,2" d="M494.38,-310.75C553.71,-296.71 659.97,-271.29 698,-260.5 722.33,-253.6 749.66,-244.68 769.43,-238.01"/>
<polygon fill="#9a32cd" stroke="#9a32cd" points="493.51,-307.36 484.58,-313.07 495.12,-314.17 493.51,-307.36"/>
<text text-anchor="middle" x="619" y="-301.5" font-family="Helvetica,sans-Serif" font-size="10.00"> m_Name</text>
</g>
<!-- Node22 -->
<g id="node22" class="node">
<title>Node22</title>
<g id="a_node22"><a xlink:title=" ">
<polygon fill="white" stroke="#bfbfbf" points="728,-366 728,-385 868,-385 868,-366 728,-366"/>
<text text-anchor="middle" x="798" y="-373" font-family="Helvetica,sans-Serif" font-size="10.00">std::vector&lt; std::string &gt;</text>
</a>
</g>
</g>
<!-- Node12&#45;&gt;Node22 -->
<g id="edge27" class="edge">
<title>Node12&#45;&gt;Node22</title>
<path fill="none" stroke="#9a32cd" stroke-dasharray="5,2" d="M494.82,-328.52C509.13,-331.17 525.25,-334.07 540,-336.5 610.02,-348.03 627.86,-348.73 698,-359.5 711.34,-361.55 725.67,-363.82 739.18,-366"/>
<polygon fill="#9a32cd" stroke="#9a32cd" points="495.24,-325.04 484.77,-326.64 493.95,-331.92 495.24,-325.04"/>
<text text-anchor="middle" x="619" y="-362.5" font-family="Helvetica,sans-Serif" font-size="10.00"> elements</text>
</g>
<!-- Node13 -->
<g id="node13" class="node">
<title>Node13</title>
<g id="a_node13"><a xlink:title="STL class.">
<polygon fill="white" stroke="#bfbfbf" points="125,-283.5 125,-313.5 229,-313.5 229,-283.5 125,-283.5"/>
<text text-anchor="start" x="133" y="-301.5" font-family="Helvetica,sans-Serif" font-size="10.00">std::basic_string&lt;</text>
<text text-anchor="middle" x="177" y="-290.5" font-family="Helvetica,sans-Serif" font-size="10.00"> char &gt;</text>
</a>
</g>
</g>
<!-- Node13&#45;&gt;Node12 -->
<g id="edge13" class="edge">
<title>Node13&#45;&gt;Node12</title>
<path fill="none" stroke="midnightblue" d="M239.16,-303.43C295.05,-307.93 375.46,-314.41 419.39,-317.95"/>
<polygon fill="midnightblue" stroke="midnightblue" points="239.28,-299.93 229.03,-302.61 238.72,-306.9 239.28,-299.93"/>
</g>
<!-- Node14&#45;&gt;Node4 -->
<g id="edge14" class="edge">
<title>Node14&#45;&gt;Node4</title>
<path fill="none" stroke="orange" stroke-dasharray="5,2" d="M361.65,-179.98C422.19,-179.38 527.6,-178.5 618,-178.5 618,-178.5 618,-178.5 1511.5,-178.5 1603.52,-178.5 1708.46,-194.73 1776.67,-207.48"/>
<polygon fill="orange" stroke="orange" points="361.58,-176.48 351.61,-180.08 361.64,-183.48 361.58,-176.48"/>
<text text-anchor="start" x="898" y="-192.5" font-family="Helvetica,sans-Serif" font-size="10.00"> &lt; itk::simple::ProcessObject</text>
<text text-anchor="middle" x="969" y="-181.5" font-family="Helvetica,sans-Serif" font-size="10.00">::EventCommand &gt;</text>
</g>
<!-- Node15 -->
<g id="node15" class="node">
<title>Node15</title>
<g id="a_node15"><a xlink:title=" ">
<polygon fill="white" stroke="#bfbfbf" points="2054,-110 2054,-151 2244,-151 2244,-110 2054,-110"/>
<text text-anchor="start" x="2062" y="-139" font-family="Helvetica,sans-Serif" font-size="10.00">std::unique_ptr&lt; itk</text>
<text text-anchor="start" x="2062" y="-128" font-family="Helvetica,sans-Serif" font-size="10.00">::simple::detail::MemberFunction</text>
<text text-anchor="middle" x="2149" y="-117" font-family="Helvetica,sans-Serif" font-size="10.00">Factory&lt; MemberFunctionType &gt; &gt;</text>
</a>
</g>
</g>
<!-- Node15&#45;&gt;Node1 -->
<g id="edge16" class="edge">
<title>Node15&#45;&gt;Node1</title>
<path fill="none" stroke="#9a32cd" stroke-dasharray="5,2" d="M2195.26,-156.21C2256.55,-191.02 2363.98,-252.04 2413.77,-280.32"/>
<polygon fill="#9a32cd" stroke="#9a32cd" points="2196.63,-152.96 2186.2,-151.06 2193.17,-159.05 2196.63,-152.96"/>
<text text-anchor="middle" x="2309" y="-250.5" font-family="Helvetica,sans-Serif" font-size="10.00"> m_MemberFactory</text>
</g>
<!-- Node16 -->
<g id="node16" class="node">
<title>Node16</title>
<g id="a_node16"><a xlink:href="classitk_1_1simple_1_1detail_1_1MemberFunctionFactory.html" target="_top" xlink:title=" ">
<polygon fill="white" stroke="black" points="1779,-60 1779,-101 1922,-101 1922,-60 1779,-60"/>
<text text-anchor="start" x="1787" y="-89" font-family="Helvetica,sans-Serif" font-size="10.00">itk::simple::detail</text>
<text text-anchor="start" x="1787" y="-78" font-family="Helvetica,sans-Serif" font-size="10.00">::MemberFunctionFactory</text>
<text text-anchor="middle" x="1850.5" y="-67" font-family="Helvetica,sans-Serif" font-size="10.00">&lt; MemberFunctionType &gt;</text>
</a>
</g>
</g>
<!-- Node16&#45;&gt;Node15 -->
<g id="edge17" class="edge">
<title>Node16&#45;&gt;Node15</title>
<path fill="none" stroke="#9a32cd" stroke-dasharray="5,2" d="M1932.54,-89.97C1964.83,-94.14 2002.26,-99.46 2036,-105.5 2043.55,-106.85 2051.36,-108.36 2059.19,-109.95"/>
<polygon fill="#9a32cd" stroke="#9a32cd" points="1932.61,-86.45 1922.25,-88.66 1931.72,-93.39 1932.61,-86.45"/>
<text text-anchor="middle" x="1999" y="-108.5" font-family="Helvetica,sans-Serif" font-size="10.00"> ptr</text>
</g>
<!-- Node17 -->
<g id="node17" class="node">
<title>Node17</title>
<g id="a_node17"><a xlink:href="classitk_1_1simple_1_1detail_1_1MemberFunctionFactoryBase.html" target="_top" xlink:title=" ">
<polygon fill="white" stroke="black" points="1248,-54.5 1248,-106.5 1412,-106.5 1412,-54.5 1248,-54.5"/>
<text text-anchor="start" x="1256" y="-94.5" font-family="Helvetica,sans-Serif" font-size="10.00">itk::simple::detail</text>
<text text-anchor="start" x="1256" y="-83.5" font-family="Helvetica,sans-Serif" font-size="10.00">::MemberFunctionFactoryBase</text>
<text text-anchor="start" x="1256" y="-72.5" font-family="Helvetica,sans-Serif" font-size="10.00">&lt; MemberFunctionType, std</text>
<text text-anchor="middle" x="1330" y="-61.5" font-family="Helvetica,sans-Serif" font-size="10.00">::pair&lt; unsigned int, int &gt; &gt;</text>
</a>
</g>
</g>
<!-- Node17&#45;&gt;Node16 -->
<g id="edge18" class="edge">
<title>Node17&#45;&gt;Node16</title>
<path fill="none" stroke="darkgreen" d="M1422.27,-80.5C1523.92,-80.5 1686.08,-80.5 1778.63,-80.5"/>
<polygon fill="darkgreen" stroke="darkgreen" points="1422.02,-77 1412.02,-80.5 1422.02,-84 1422.02,-77"/>
</g>
<!-- Node18 -->
<g id="node18" class="node">
<title>Node18</title>
<g id="a_node18"><a xlink:href="classitk_1_1simple_1_1detail_1_1MemberFunctionFactoryBase.html" target="_top" xlink:title="A base class for the MemberFunctionFactory.">
<polygon fill="white" stroke="black" points="716,-38.5 716,-68.5 880,-68.5 880,-38.5 716,-38.5"/>
<text text-anchor="start" x="724" y="-56.5" font-family="Helvetica,sans-Serif" font-size="10.00">itk::simple::detail</text>
<text text-anchor="middle" x="798" y="-45.5" font-family="Helvetica,sans-Serif" font-size="10.00">::MemberFunctionFactoryBase</text>
</a>
</g>
</g>
<!-- Node18&#45;&gt;Node17 -->
<g id="edge19" class="edge">
<title>Node18&#45;&gt;Node17</title>
<path fill="none" stroke="orange" stroke-dasharray="5,2" d="M890.23,-59.07C892.85,-59.22 895.44,-59.36 898,-59.5 1019.93,-66.17 1161.32,-72.86 1247.96,-76.84"/>
<polygon fill="orange" stroke="orange" points="890.22,-55.56 880.04,-58.49 889.82,-62.55 890.22,-55.56"/>
<text text-anchor="start" x="908" y="-92.5" font-family="Helvetica,sans-Serif" font-size="10.00"> &lt; MemberFunctionType,</text>
<text text-anchor="start" x="908" y="-81.5" font-family="Helvetica,sans-Serif" font-size="10.00"> std::pair&lt; unsigned</text>
<text text-anchor="middle" x="969" y="-70.5" font-family="Helvetica,sans-Serif" font-size="10.00"> int, int &gt; &gt;</text>
</g>
<!-- Node20 -->
<g id="node20" class="node">
<title>Node20</title>
<g id="a_node20"><a xlink:href="classitk_1_1simple_1_1detail_1_1MemberFunctionFactoryBase.html" target="_top" xlink:title=" ">
<polygon fill="white" stroke="black" points="1058,-0.5 1058,-52.5 1230,-52.5 1230,-0.5 1058,-0.5"/>
<text text-anchor="start" x="1066" y="-40.5" font-family="Helvetica,sans-Serif" font-size="10.00">itk::simple::detail</text>
<text text-anchor="start" x="1066" y="-29.5" font-family="Helvetica,sans-Serif" font-size="10.00">::MemberFunctionFactoryBase</text>
<text text-anchor="start" x="1066" y="-18.5" font-family="Helvetica,sans-Serif" font-size="10.00">&lt; TMemberFunctionPointer,</text>
<text text-anchor="middle" x="1144" y="-7.5" font-family="Helvetica,sans-Serif" font-size="10.00"> std::pair&lt; unsigned int, int &gt; &gt;</text>
</a>
</g>
</g>
<!-- Node18&#45;&gt;Node20 -->
<g id="edge22" class="edge">
<title>Node18&#45;&gt;Node20</title>
<path fill="none" stroke="orange" stroke-dasharray="5,2" d="M854.35,-35.62C868.43,-31.84 883.65,-28.42 898,-26.5 950.8,-19.43 1010.58,-19.28 1057.88,-20.97"/>
<polygon fill="orange" stroke="orange" points="853.01,-32.36 844.32,-38.42 854.89,-39.1 853.01,-32.36"/>
<text text-anchor="start" x="899" y="-51.5" font-family="Helvetica,sans-Serif" font-size="10.00"> &lt; TMemberFunctionPointer,</text>
<text text-anchor="start" x="899" y="-40.5" font-family="Helvetica,sans-Serif" font-size="10.00"> std::pair&lt; unsigned int,</text>
<text text-anchor="middle" x="969" y="-29.5" font-family="Helvetica,sans-Serif" font-size="10.00"> int &gt; &gt;</text>
</g>
<!-- Node19 -->
<g id="node19" class="node">
<title>Node19</title>
<g id="a_node19"><a xlink:href="classitk_1_1simple_1_1detail_1_1MemberFunctionFactory.html" target="_top" xlink:title="A class used to instantiate and generate function object to templated member functions.">
<polygon fill="white" stroke="black" points="1430,-10 1430,-51 1591,-51 1591,-10 1430,-10"/>
<text text-anchor="start" x="1438" y="-39" font-family="Helvetica,sans-Serif" font-size="10.00">itk::simple::detail</text>
<text text-anchor="start" x="1438" y="-28" font-family="Helvetica,sans-Serif" font-size="10.00">::MemberFunctionFactory</text>
<text text-anchor="middle" x="1510.5" y="-17" font-family="Helvetica,sans-Serif" font-size="10.00">&lt; TMemberFunctionPointer &gt;</text>
</a>
</g>
</g>
<!-- Node19&#45;&gt;Node16 -->
<g id="edge20" class="edge">
<title>Node19&#45;&gt;Node16</title>
<path fill="none" stroke="orange" stroke-dasharray="5,2" d="M1601.23,-38C1643.23,-42.11 1693.84,-47.93 1739,-55.5 1752,-57.68 1765.76,-60.43 1779,-63.3"/>
<polygon fill="orange" stroke="orange" points="1601.32,-34.49 1591.03,-37.02 1600.65,-41.46 1601.32,-34.49"/>
<text text-anchor="middle" x="1674" y="-58.5" font-family="Helvetica,sans-Serif" font-size="10.00"> &lt; MemberFunctionType &gt;</text>
</g>
<!-- Node20&#45;&gt;Node19 -->
<g id="edge21" class="edge">
<title>Node20&#45;&gt;Node19</title>
<path fill="none" stroke="darkgreen" d="M1240.52,-27.55C1299.45,-28.19 1374.16,-29.01 1429.88,-29.63"/>
<polygon fill="darkgreen" stroke="darkgreen" points="1240.5,-24.05 1230.46,-27.44 1240.42,-31.05 1240.5,-24.05"/>
</g>
<!-- Node21&#45;&gt;Node15 -->
<g id="edge23" class="edge">
<title>Node21&#45;&gt;Node15</title>
<path fill="none" stroke="orange" stroke-dasharray="5,2" d="M688.22,-133.25C758.38,-132.08 870.82,-130.5 968,-130.5 968,-130.5 968,-130.5 1851.5,-130.5 1919.19,-130.5 1995.57,-130.5 2053.86,-130.5"/>
<polygon fill="orange" stroke="orange" points="688.12,-129.75 678.18,-133.42 688.24,-136.75 688.12,-129.75"/>
<text text-anchor="start" x="1260.5" y="-155.5" font-family="Helvetica,sans-Serif" font-size="10.00"> &lt; itk::simple::detail</text>
<text text-anchor="start" x="1260.5" y="-144.5" font-family="Helvetica,sans-Serif" font-size="10.00">::MemberFunctionFactory</text>
<text text-anchor="middle" x="1330" y="-133.5" font-family="Helvetica,sans-Serif" font-size="10.00">&lt; MemberFunctionType &gt; &gt;</text>
</g>
<!-- Node22&#45;&gt;Node1 -->
<g id="edge26" class="edge">
<title>Node22&#45;&gt;Node1</title>
<path fill="none" stroke="#9a32cd" stroke-dasharray="5,2" d="M878.21,-375.5C947.94,-375.5 1052.21,-375.5 1143,-375.5 1143,-375.5 1143,-375.5 2150,-375.5 2242.94,-375.5 2267.97,-369.31 2356,-339.5 2377.31,-332.28 2399.82,-320.32 2416.25,-310.68"/>
<polygon fill="#9a32cd" stroke="#9a32cd" points="878.18,-372 868.18,-375.5 878.18,-379 878.18,-372"/>
<text text-anchor="middle" x="1674" y="-378.5" font-family="Helvetica,sans-Serif" font-size="10.00"> m_FileNames</text>
</g>
<!-- Node23&#45;&gt;Node22 -->
<g id="edge28" class="edge">
<title>Node23&#45;&gt;Node22</title>
<path fill="none" stroke="orange" stroke-dasharray="5,2" d="M369.69,-365.45C415.78,-366.97 482.03,-369.05 540,-370.5 603.57,-372.09 676,-373.46 727.73,-374.36"/>
<polygon fill="orange" stroke="orange" points="369.7,-361.95 359.59,-365.12 369.47,-368.95 369.7,-361.95"/>
<text text-anchor="middle" x="452" y="-372.5" font-family="Helvetica,sans-Serif" font-size="10.00"> &lt; std::string &gt;</text>
</g>
</g>
</svg>
