<?xml version="1.0" encoding="UTF-8" standalone="no"?>
<!DOCTYPE svg PUBLIC "-//W3C//DTD SVG 1.1//EN"
 "http://www.w3.org/Graphics/SVG/1.1/DTD/svg11.dtd">
<!-- Generated by graphviz version 2.43.0 (0)
 -->
<!-- Title: itk::simple::detail::MemberFunctionFactoryBase&lt; TMemberFunctionPointer, TKey &gt; Pages: 1 -->
<!--zoomable 246 -->

<svg id="main" version="1.1" xmlns="http://www.w3.org/2000/svg" xmlns:xlink="http://www.w3.org/1999/xlink" xml:space="preserve" onload="init(evt)">

<style type="text/css"><![CDATA[
.node, .edge {opacity: 0.7;}
.node.selected, .edge.selected {opacity: 1;}
.edge:hover path { stroke: red; }
.edge:hover polygon { stroke: red; fill: red; }
]]></style>

<defs>
  <circle id="rim" cx="0" cy="0" r="7"/>
  <circle id="rim2" cx="0" cy="0" r="3.5"/>
  <g id="zoomPlus">
    <use xlink:href="#rim" fill="#404040"><set attributeName="fill" to="#808080" begin="zoomplus.mouseover" end="zoomplus.mouseout"/></use>
    <path d="M-4,0h8M0,-4v8" fill="none" stroke="white" stroke-width="1.5" pointer-events="none"/>
  </g>
  <g id="zoomMin">
    <use xlink:href="#rim" fill="#404040"><set attributeName="fill" to="#808080" begin="zoomminus.mouseover" end="zoomminus.mouseout"/></use>
    <path d="M-4,0h8" fill="none" stroke="white" stroke-width="1.5" pointer-events="none"/>
  </g>
  <g id="arrowUp" transform="translate(30 24)">
    <use xlink:href="#rim"/>
    <path pointer-events="none" fill="none" stroke="white" stroke-width="1.5" d="M0,-3.0v7 M-2.5,-0.5L0,-3.0L2.5,-0.5"/>
  </g>
  <g id="arrowRight" transform="rotate(90) translate(36 -43)">
    <use xlink:href="#rim"/>
    <path pointer-events="none" fill="none" stroke="white" stroke-width="1.5" d="M0,-3.0v7 M-2.5,-0.5L0,-3.0L2.5,-0.5"/>
  </g>
  <g id="arrowDown" transform="rotate(180) translate(-30 -48)">
    <use xlink:href="#rim"/>
    <path pointer-events="none" fill="none" stroke="white" stroke-width="1.5" d="M0,-3.0v7 M-2.5,-0.5L0,-3.0L2.5,-0.5"/>
  </g>
  <g id="arrowLeft" transform="rotate(270) translate(-36 17)">
    <use xlink:href="#rim"/>
    <path pointer-events="none" fill="none" stroke="white" stroke-width="1.5" d="M0,-3.0v7 M-2.5,-0.5L0,-3.0L2.5,-0.5"/>
  </g>
  <g id="resetDef">
    <use xlink:href="#rim2" fill="#404040"><set attributeName="fill" to="#808080" begin="reset.mouseover" end="reset.mouseout"/></use>
  </g>
</defs>
<script type="application/ecmascript">
var viewWidth = 1210;
var viewHeight = 246;
var sectionId = 'dynsection-0';
</script>
<script type="application/ecmascript" xlink:href="svg.min.js"/>
<svg id="graph" class="graph">
<g id="viewport">
<title>itk::simple::detail::MemberFunctionFactoryBase&lt; TMemberFunctionPointer, TKey &gt;</title>
<!-- Node1 -->
<g id="Node000001" class="node">
<title>Node1</title>
<g id="a_Node000001"><a xlink:title=" ">
<polygon fill="#999999" stroke="#666666" points="164,-136 0,-136 0,-84 164,-84 164,-136"/>
<text text-anchor="start" x="8" y="-124" font-family="Helvetica,sans-Serif" font-size="10.00">itk::simple::detail</text>
<text text-anchor="start" x="8" y="-113" font-family="Helvetica,sans-Serif" font-size="10.00">::MemberFunctionFactoryBase</text>
<text text-anchor="start" x="8" y="-102" font-family="Helvetica,sans-Serif" font-size="10.00">&lt; TMemberFunctionPointer,</text>
<text text-anchor="middle" x="82" y="-91" font-family="Helvetica,sans-Serif" font-size="10.00"> TKey &gt;</text>
</a>
</g>
</g>
<!-- Node2 -->
<g id="Node000002" class="node">
<title>Node2</title>
<g id="a_Node000002"><a xlink:href="classitk_1_1simple_1_1detail_1_1MemberFunctionFactoryBase.html" target="_top" xlink:title=" ">
<polygon fill="white" stroke="#666666" points="508,-232.5 344,-232.5 344,-169.5 508,-169.5 508,-232.5"/>
<text text-anchor="start" x="352" y="-220.5" font-family="Helvetica,sans-Serif" font-size="10.00">itk::simple::detail</text>
<text text-anchor="start" x="352" y="-209.5" font-family="Helvetica,sans-Serif" font-size="10.00">::MemberFunctionFactoryBase</text>
<text text-anchor="start" x="352" y="-198.5" font-family="Helvetica,sans-Serif" font-size="10.00">&lt; TMemberFunctionPointer,</text>
<text text-anchor="start" x="352" y="-187.5" font-family="Helvetica,sans-Serif" font-size="10.00"> std::tuple&lt; unsigned int,</text>
<text text-anchor="middle" x="426" y="-176.5" font-family="Helvetica,sans-Serif" font-size="10.00"> int, unsigned int, int &gt; &gt;</text>
</a>
</g>
</g>
<!-- Node1&#45;&gt;Node2 -->
<g id="edge1_Node000001_Node000002" class="edge">
<title>Node1&#45;&gt;Node2</title>
<g id="a_edge1_Node000001_Node000002"><a xlink:title=" ">
<path fill="none" stroke="orange" stroke-dasharray="5,2" d="M117.33,-142.84C135.18,-157.83 158.21,-174.19 182,-183 233.57,-202.1 295.43,-206.44 343.83,-206.09"/>
<polygon fill="orange" stroke="orange" points="119.36,-139.96 109.5,-136.07 114.78,-145.26 119.36,-139.96"/>
</a>
</g>
<text text-anchor="start" x="182" y="-230" font-family="Helvetica,sans-Serif" font-size="10.00" fill="grey"> &lt; TMemberFunctionPointer,</text>
<text text-anchor="start" x="182" y="-219" font-family="Helvetica,sans-Serif" font-size="10.00" fill="grey"> std::tuple&lt; unsigned int,</text>
<text text-anchor="middle" x="252" y="-208" font-family="Helvetica,sans-Serif" font-size="10.00" fill="grey"> int, unsigned int, int &gt; &gt;</text>
</g>
<!-- Node5 -->
<g id="Node000005" class="node">
<title>Node5</title>
<g id="a_Node000005"><a xlink:href="classitk_1_1simple_1_1detail_1_1MemberFunctionFactoryBase.html" target="_top" xlink:title=" ">
<polygon fill="white" stroke="#666666" points="512,-52 340,-52 340,0 512,0 512,-52"/>
<text text-anchor="start" x="348" y="-40" font-family="Helvetica,sans-Serif" font-size="10.00">itk::simple::detail</text>
<text text-anchor="start" x="348" y="-29" font-family="Helvetica,sans-Serif" font-size="10.00">::MemberFunctionFactoryBase</text>
<text text-anchor="start" x="348" y="-18" font-family="Helvetica,sans-Serif" font-size="10.00">&lt; TMemberFunctionPointer,</text>
<text text-anchor="middle" x="426" y="-7" font-family="Helvetica,sans-Serif" font-size="10.00"> std::pair&lt; unsigned int, int &gt; &gt;</text>
</a>
</g>
</g>
<!-- Node1&#45;&gt;Node5 -->
<g id="edge4_Node000001_Node000005" class="edge">
<title>Node1&#45;&gt;Node5</title>
<g id="a_edge4_Node000001_Node000005"><a xlink:title=" ">
<path fill="none" stroke="orange" stroke-dasharray="5,2" d="M112.02,-76.17C130.05,-57.82 154.91,-36.92 182,-27 232.12,-8.65 292.04,-8.2 339.84,-12.43"/>
<polygon fill="orange" stroke="orange" points="109.08,-74.18 104.72,-83.84 114.15,-79.01 109.08,-74.18"/>
</a>
</g>
<text text-anchor="start" x="182" y="-52" font-family="Helvetica,sans-Serif" font-size="10.00" fill="grey"> &lt; TMemberFunctionPointer,</text>
<text text-anchor="start" x="182" y="-41" font-family="Helvetica,sans-Serif" font-size="10.00" fill="grey"> std::pair&lt; unsigned int,</text>
<text text-anchor="middle" x="252" y="-30" font-family="Helvetica,sans-Serif" font-size="10.00" fill="grey"> int &gt; &gt;</text>
</g>
<!-- Node8 -->
<g id="Node000008" class="node">
<title>Node8</title>
<g id="a_Node000008"><a xlink:href="classitk_1_1simple_1_1detail_1_1MemberFunctionFactoryBase.html" target="_top" xlink:title=" ">
<polygon fill="white" stroke="#666666" points="694,-179.5 530,-179.5 530,-116.5 694,-116.5 694,-179.5"/>
<text text-anchor="start" x="538" y="-167.5" font-family="Helvetica,sans-Serif" font-size="10.00">itk::simple::detail</text>
<text text-anchor="start" x="538" y="-156.5" font-family="Helvetica,sans-Serif" font-size="10.00">::MemberFunctionFactoryBase</text>
<text text-anchor="start" x="538" y="-145.5" font-family="Helvetica,sans-Serif" font-size="10.00">&lt; MemberFunctionType, std</text>
<text text-anchor="start" x="538" y="-134.5" font-family="Helvetica,sans-Serif" font-size="10.00">::tuple&lt; unsigned int, int,</text>
<text text-anchor="middle" x="612" y="-123.5" font-family="Helvetica,sans-Serif" font-size="10.00"> unsigned int, int &gt; &gt;</text>
</a>
</g>
</g>
<!-- Node1&#45;&gt;Node8 -->
<g id="edge7_Node000001_Node000008" class="edge">
<title>Node1&#45;&gt;Node8</title>
<g id="a_edge7_Node000001_Node000008"><a xlink:title=" ">
<path fill="none" stroke="orange" stroke-dasharray="5,2" d="M174.17,-116.56C274.38,-123.77 433.88,-135.25 529.9,-142.16"/>
<polygon fill="orange" stroke="orange" points="174.28,-113.06 164.05,-115.83 173.78,-120.04 174.28,-113.06"/>
</a>
</g>
<text text-anchor="start" x="191" y="-162" font-family="Helvetica,sans-Serif" font-size="10.00" fill="grey"> &lt; MemberFunctionType,</text>
<text text-anchor="start" x="191" y="-151" font-family="Helvetica,sans-Serif" font-size="10.00" fill="grey"> std::tuple&lt; unsigned</text>
<text text-anchor="start" x="191" y="-140" font-family="Helvetica,sans-Serif" font-size="10.00" fill="grey"> int, int, unsigned int,</text>
<text text-anchor="middle" x="252" y="-129" font-family="Helvetica,sans-Serif" font-size="10.00" fill="grey"> int &gt; &gt;</text>
</g>
<!-- Node9 -->
<g id="Node000009" class="node">
<title>Node9</title>
<g id="a_Node000009"><a xlink:href="classitk_1_1simple_1_1detail_1_1MemberFunctionFactoryBase.html" target="_top" xlink:title=" ">
<polygon fill="white" stroke="#666666" points="694,-107 530,-107 530,-55 694,-55 694,-107"/>
<text text-anchor="start" x="538" y="-95" font-family="Helvetica,sans-Serif" font-size="10.00">itk::simple::detail</text>
<text text-anchor="start" x="538" y="-84" font-family="Helvetica,sans-Serif" font-size="10.00">::MemberFunctionFactoryBase</text>
<text text-anchor="start" x="538" y="-73" font-family="Helvetica,sans-Serif" font-size="10.00">&lt; MemberFunctionType, std</text>
<text text-anchor="middle" x="612" y="-62" font-family="Helvetica,sans-Serif" font-size="10.00">::pair&lt; unsigned int, int &gt; &gt;</text>
</a>
</g>
</g>
<!-- Node1&#45;&gt;Node9 -->
<g id="edge9_Node000001_Node000009" class="edge">
<title>Node1&#45;&gt;Node9</title>
<g id="a_edge9_Node000001_Node000009"><a xlink:title=" ">
<path fill="none" stroke="orange" stroke-dasharray="5,2" d="M174.28,-84.18C176.88,-83.74 179.45,-83.35 182,-83 302.29,-66.61 443.32,-70.28 529.91,-75.11"/>
<polygon fill="orange" stroke="orange" points="173.42,-80.78 164.23,-86.04 174.7,-87.66 173.42,-80.78"/>
</a>
</g>
<text text-anchor="start" x="191" y="-108" font-family="Helvetica,sans-Serif" font-size="10.00" fill="grey"> &lt; MemberFunctionType,</text>
<text text-anchor="start" x="191" y="-97" font-family="Helvetica,sans-Serif" font-size="10.00" fill="grey"> std::pair&lt; unsigned</text>
<text text-anchor="middle" x="252" y="-86" font-family="Helvetica,sans-Serif" font-size="10.00" fill="grey"> int, int &gt; &gt;</text>
</g>
<!-- Node3 -->
<g id="Node000003" class="node">
<title>Node3</title>
<g id="a_Node000003"><a xlink:href="classitk_1_1simple_1_1detail_1_1DualMemberFunctionFactory.html" target="_top" xlink:title="A class used to instantiate and generate function objects of templated member functions with two temp...">
<polygon fill="white" stroke="#666666" points="874,-218.5 712,-218.5 712,-177.5 874,-177.5 874,-218.5"/>
<text text-anchor="start" x="720" y="-206.5" font-family="Helvetica,sans-Serif" font-size="10.00">itk::simple::detail</text>
<text text-anchor="start" x="720" y="-195.5" font-family="Helvetica,sans-Serif" font-size="10.00">::DualMemberFunctionFactory</text>
<text text-anchor="middle" x="793" y="-184.5" font-family="Helvetica,sans-Serif" font-size="10.00">&lt; TMemberFunctionPointer &gt;</text>
</a>
</g>
</g>
<!-- Node2&#45;&gt;Node3 -->
<g id="edge2_Node000002_Node000003" class="edge">
<title>Node2&#45;&gt;Node3</title>
<g id="a_edge2_Node000002_Node000003"><a xlink:title=" ">
<path fill="none" stroke="darkgreen" d="M518.15,-200.25C577.68,-199.76 654.67,-199.13 711.85,-198.66"/>
<polygon fill="darkgreen" stroke="darkgreen" points="517.98,-196.75 508.01,-200.33 518.03,-203.75 517.98,-196.75"/>
</a>
</g>
</g>
<!-- Node4 -->
<g id="Node000004" class="node">
<title>Node4</title>
<g id="a_Node000004"><a xlink:href="classitk_1_1simple_1_1detail_1_1DualMemberFunctionFactory.html" target="_top" xlink:title=" ">
<polygon fill="white" stroke="#666666" points="1202,-184.5 1040,-184.5 1040,-143.5 1202,-143.5 1202,-184.5"/>
<text text-anchor="start" x="1048" y="-172.5" font-family="Helvetica,sans-Serif" font-size="10.00">itk::simple::detail</text>
<text text-anchor="start" x="1048" y="-161.5" font-family="Helvetica,sans-Serif" font-size="10.00">::DualMemberFunctionFactory</text>
<text text-anchor="middle" x="1121" y="-150.5" font-family="Helvetica,sans-Serif" font-size="10.00">&lt; MemberFunctionType &gt;</text>
</a>
</g>
</g>
<!-- Node3&#45;&gt;Node4 -->
<g id="edge3_Node000003_Node000004" class="edge">
<title>Node3&#45;&gt;Node4</title>
<g id="a_edge3_Node000003_Node000004"><a xlink:title=" ">
<path fill="none" stroke="orange" stroke-dasharray="5,2" d="M884.4,-188.57C933.14,-183.49 992.78,-177.27 1039.86,-172.36"/>
<polygon fill="orange" stroke="orange" points="883.75,-185.12 874.17,-189.64 884.48,-192.08 883.75,-185.12"/>
</a>
</g>
<text text-anchor="middle" x="957" y="-190" font-family="Helvetica,sans-Serif" font-size="10.00" fill="grey"> &lt; MemberFunctionType &gt;</text>
</g>
<!-- Node6 -->
<g id="Node000006" class="node">
<title>Node6</title>
<g id="a_Node000006"><a xlink:href="classitk_1_1simple_1_1detail_1_1MemberFunctionFactory.html" target="_top" xlink:title="A class used to instantiate and generate function object to templated member functions.">
<polygon fill="white" stroke="#666666" points="873.5,-51.5 712.5,-51.5 712.5,-10.5 873.5,-10.5 873.5,-51.5"/>
<text text-anchor="start" x="720.5" y="-39.5" font-family="Helvetica,sans-Serif" font-size="10.00">itk::simple::detail</text>
<text text-anchor="start" x="720.5" y="-28.5" font-family="Helvetica,sans-Serif" font-size="10.00">::MemberFunctionFactory</text>
<text text-anchor="middle" x="793" y="-17.5" font-family="Helvetica,sans-Serif" font-size="10.00">&lt; TMemberFunctionPointer &gt;</text>
</a>
</g>
</g>
<!-- Node5&#45;&gt;Node6 -->
<g id="edge5_Node000005_Node000006" class="edge">
<title>Node5&#45;&gt;Node6</title>
<g id="a_edge5_Node000005_Node000006"><a xlink:title=" ">
<path fill="none" stroke="darkgreen" d="M522.21,-27.3C581.33,-28.11 656.43,-29.14 712.38,-29.91"/>
<polygon fill="darkgreen" stroke="darkgreen" points="522.16,-23.8 512.12,-27.17 522.07,-30.8 522.16,-23.8"/>
</a>
</g>
</g>
<!-- Node7 -->
<g id="Node000007" class="node">
<title>Node7</title>
<g id="a_Node000007"><a xlink:href="classitk_1_1simple_1_1detail_1_1MemberFunctionFactory.html" target="_top" xlink:title=" ">
<polygon fill="white" stroke="#666666" points="1192.5,-88.5 1049.5,-88.5 1049.5,-47.5 1192.5,-47.5 1192.5,-88.5"/>
<text text-anchor="start" x="1057.5" y="-76.5" font-family="Helvetica,sans-Serif" font-size="10.00">itk::simple::detail</text>
<text text-anchor="start" x="1057.5" y="-65.5" font-family="Helvetica,sans-Serif" font-size="10.00">::MemberFunctionFactory</text>
<text text-anchor="middle" x="1121" y="-54.5" font-family="Helvetica,sans-Serif" font-size="10.00">&lt; MemberFunctionType &gt;</text>
</a>
</g>
</g>
<!-- Node6&#45;&gt;Node7 -->
<g id="edge6_Node000006_Node000007" class="edge">
<title>Node6&#45;&gt;Node7</title>
<g id="a_edge6_Node000006_Node000007"><a xlink:title=" ">
<path fill="none" stroke="orange" stroke-dasharray="5,2" d="M883.89,-40.59C925.87,-45.14 976.51,-50.72 1022,-56 1030.85,-57.03 1040.15,-58.13 1049.35,-59.24"/>
<polygon fill="orange" stroke="orange" points="884.01,-37.08 873.69,-39.49 883.26,-44.04 884.01,-37.08"/>
</a>
</g>
<text text-anchor="middle" x="957" y="-59" font-family="Helvetica,sans-Serif" font-size="10.00" fill="grey"> &lt; MemberFunctionType &gt;</text>
</g>
<!-- Node8&#45;&gt;Node4 -->
<g id="edge8_Node000008_Node000004" class="edge">
<title>Node8&#45;&gt;Node4</title>
<g id="a_edge8_Node000008_Node000004"><a xlink:title=" ">
<path fill="none" stroke="darkgreen" d="M704.42,-150.88C800.06,-153.9 948.72,-158.59 1039.9,-161.47"/>
<polygon fill="darkgreen" stroke="darkgreen" points="704.28,-147.38 694.18,-150.56 704.06,-154.38 704.28,-147.38"/>
</a>
</g>
</g>
<!-- Node9&#45;&gt;Node7 -->
<g id="edge10_Node000009_Node000007" class="edge">
<title>Node9&#45;&gt;Node7</title>
<g id="a_edge10_Node000009_Node000007"><a xlink:title=" ">
<path fill="none" stroke="darkgreen" d="M704.47,-78.65C803.47,-76.12 959.24,-72.12 1049.29,-69.81"/>
<polygon fill="darkgreen" stroke="darkgreen" points="704.08,-75.16 694.18,-78.92 704.26,-82.16 704.08,-75.16"/>
</a>
</g>
</g>
</g>
</svg>

<g id="navigator" transform="translate(0 0)" fill="#404254">
  <rect fill="#f2f5e9" fill-opacity="0.5" stroke="#606060" stroke-width=".5" x="0" y="0" width="60" height="60"/>
  <use id="zoomplus" xlink:href="#zoomPlus" x="17" y="9" onmousedown="handleZoom(evt,'in')"/>
  <use id="zoomminus" xlink:href="#zoomMin" x="42" y="9" onmousedown="handleZoom(evt,'out')"/>
  <use id="reset" xlink:href="#resetDef" x="30" y="36" onmousedown="handleReset()"/>
   <use id="arrowup" xlink:href="#arrowUp" x="0" y="0" onmousedown="handlePan(0,-1)"/>
  <use id="arrowright" xlink:href="#arrowRight" x="0" y="0" onmousedown="handlePan(1,0)"/>
  <use id="arrowdown" xlink:href="#arrowDown" x="0" y="0" onmousedown="handlePan(0,1)"/>
  <use id="arrowleft" xlink:href="#arrowLeft" x="0" y="0" onmousedown="handlePan(-1,0)"/>
</g>
<svg viewBox="0 0 15 15" width="100%" height="30px" preserveAspectRatio="xMaxYMin meet">
 <g id="arrow_out" transform="scale(0.3 0.3)">
  <a xlink:href="classitk_1_1simple_1_1detail_1_1MemberFunctionFactoryBase__inherit__graph_org.svg" target="_base">
   <rect id="button" ry="5" rx="5" y="6" x="6" height="38" width="38"
        fill="#f2f5e9" fill-opacity="0.5" stroke="#606060" stroke-width="1.0"/>
   <path id="arrow"
     d="M 11.500037,31.436501 C 11.940474,20.09759 22.043105,11.32322 32.158766,21.979434 L 37.068811,17.246167 C 37.068811,17.246167 37.088388,32 37.088388,32 L 22.160133,31.978069 C 22.160133,31.978069 26.997745,27.140456 26.997745,27.140456 C 18.528582,18.264221 13.291696,25.230495 11.500037,31.436501 z"
     style="fill:#404040;"/>
  </a>
 </g>
</svg>

<style type='text/css'>
<![CDATA[
[data-mouse-over-selected='false'] { opacity: 0.7; }
[data-mouse-over-selected='true']  { opacity: 1.0; }
]]>
</style>
<script type="application/ecmascript"><![CDATA[
document.addEventListener('DOMContentLoaded', (event) => {
  highlightEdges();
  highlightAdjacentNodes();
});
]]></script>
</svg>
