<?xml version="1.0" encoding="UTF-8" standalone="no"?>
<!DOCTYPE svg PUBLIC "-//W3C//DTD SVG 1.1//EN"
 "http://www.w3.org/Graphics/SVG/1.1/DTD/svg11.dtd">
<!-- Generated by graphviz version 2.43.0 (0)
 -->
<!-- Title: itk::simple::HashImageFilter Pages: 1 -->
<svg width="2537pt" height="320pt"
 viewBox="0.00 0.00 2537.00 320.00" xmlns="http://www.w3.org/2000/svg" xmlns:xlink="http://www.w3.org/1999/xlink">
<g id="graph0" class="graph" transform="scale(1 1) rotate(0) translate(4 316)">
<title>itk::simple::HashImageFilter</title>
<polygon fill="white" stroke="transparent" points="-4,4 -4,-316 2533,-316 2533,4 -4,4"/>
<!-- Node1 -->
<g id="node1" class="node">
<title>Node1</title>
<g id="a_node1"><a xlink:title="Compute the sha1 or md5 hash of an image.">
<polygon fill="#bfbfbf" stroke="black" points="2374,-124.5 2374,-143.5 2529,-143.5 2529,-124.5 2374,-124.5"/>
<text text-anchor="middle" x="2451.5" y="-131.5" font-family="Helvetica,sans-Serif" font-size="10.00">itk::simple::HashImageFilter</text>
</a>
</g>
</g>
<!-- Node2 -->
<g id="node2" class="node">
<title>Node2</title>
<g id="a_node2"><a xlink:href="classitk_1_1simple_1_1ProcessObject.html" target="_top" xlink:title="Base class for SimpleITK classes based on ProcessObject.">
<polygon fill="white" stroke="black" points="2077.5,-178.5 2077.5,-197.5 2220.5,-197.5 2220.5,-178.5 2077.5,-178.5"/>
<text text-anchor="middle" x="2149" y="-185.5" font-family="Helvetica,sans-Serif" font-size="10.00">itk::simple::ProcessObject</text>
</a>
</g>
</g>
<!-- Node2&#45;&gt;Node1 -->
<g id="edge1" class="edge">
<title>Node2&#45;&gt;Node1</title>
<path fill="none" stroke="midnightblue" d="M2212.96,-176.69C2267.64,-166.86 2345.95,-152.79 2397.49,-143.53"/>
<polygon fill="midnightblue" stroke="midnightblue" points="2212.25,-173.26 2203.03,-178.47 2213.49,-180.15 2212.25,-173.26"/>
</g>
<!-- Node3 -->
<g id="node3" class="node">
<title>Node3</title>
<g id="a_node3"><a xlink:href="classitk_1_1simple_1_1NonCopyable.html" target="_top" xlink:title="An inheritable class to disable copying of a class.">
<polygon fill="white" stroke="black" points="382,-292.5 382,-311.5 522,-311.5 522,-292.5 382,-292.5"/>
<text text-anchor="middle" x="452" y="-299.5" font-family="Helvetica,sans-Serif" font-size="10.00">itk::simple::NonCopyable</text>
</a>
</g>
</g>
<!-- Node3&#45;&gt;Node2 -->
<g id="edge2" class="edge">
<title>Node3&#45;&gt;Node2</title>
<path fill="none" stroke="darkgreen" d="M532.21,-301.64C601.94,-301.35 706.21,-301 797,-301 797,-301 797,-301 1851.5,-301 1967.18,-301 2092.59,-224.96 2133.93,-197.63"/>
<polygon fill="darkgreen" stroke="darkgreen" points="532.17,-298.14 522.18,-301.68 532.2,-305.14 532.17,-298.14"/>
</g>
<!-- Node7 -->
<g id="node7" class="node">
<title>Node7</title>
<g id="a_node7"><a xlink:href="classitk_1_1simple_1_1ObjectOwnedBase.html" target="_top" xlink:title="An abstract base class to connect this object with the lifetime of another.">
<polygon fill="white" stroke="black" points="716,-234.5 716,-253.5 880,-253.5 880,-234.5 716,-234.5"/>
<text text-anchor="middle" x="798" y="-241.5" font-family="Helvetica,sans-Serif" font-size="10.00">itk::simple::ObjectOwnedBase</text>
</a>
</g>
</g>
<!-- Node3&#45;&gt;Node7 -->
<g id="edge7" class="edge">
<title>Node3&#45;&gt;Node7</title>
<path fill="none" stroke="midnightblue" d="M519.44,-290.8C583.67,-279.97 679.93,-263.74 740.55,-253.52"/>
<polygon fill="midnightblue" stroke="midnightblue" points="518.7,-287.37 509.42,-292.49 519.86,-294.28 518.7,-287.37"/>
</g>
<!-- Node4 -->
<g id="node4" class="node">
<title>Node4</title>
<g id="a_node4"><a xlink:title=" ">
<polygon fill="white" stroke="#bfbfbf" points="1757,-173 1757,-203 1944,-203 1944,-173 1757,-173"/>
<text text-anchor="start" x="1765" y="-191" font-family="Helvetica,sans-Serif" font-size="10.00">std::list&lt; itk::simple</text>
<text text-anchor="middle" x="1850.5" y="-180" font-family="Helvetica,sans-Serif" font-size="10.00">::ProcessObject::EventCommand &gt;</text>
</a>
</g>
</g>
<!-- Node4&#45;&gt;Node2 -->
<g id="edge3" class="edge">
<title>Node4&#45;&gt;Node2</title>
<path fill="none" stroke="#9a32cd" stroke-dasharray="5,2" d="M1954.3,-188C1994.88,-188 2040.49,-188 2077.26,-188"/>
<polygon fill="#9a32cd" stroke="#9a32cd" points="1954.09,-184.5 1944.09,-188 1954.09,-191.5 1954.09,-184.5"/>
<text text-anchor="middle" x="1999" y="-191" font-family="Helvetica,sans-Serif" font-size="10.00"> m_Commands</text>
</g>
<!-- Node5 -->
<g id="node5" class="node">
<title>Node5</title>
<g id="a_node5"><a xlink:href="structitk_1_1simple_1_1ProcessObject_1_1EventCommand.html" target="_top" xlink:title=" ">
<polygon fill="white" stroke="black" points="1439,-212 1439,-242 1582,-242 1582,-212 1439,-212"/>
<text text-anchor="start" x="1447" y="-230" font-family="Helvetica,sans-Serif" font-size="10.00">itk::simple::ProcessObject</text>
<text text-anchor="middle" x="1510.5" y="-219" font-family="Helvetica,sans-Serif" font-size="10.00">::EventCommand</text>
</a>
</g>
</g>
<!-- Node5&#45;&gt;Node4 -->
<g id="edge4" class="edge">
<title>Node5&#45;&gt;Node4</title>
<path fill="none" stroke="#9a32cd" stroke-dasharray="5,2" d="M1592.38,-217.67C1641.88,-211.96 1705.39,-204.63 1756.9,-198.68"/>
<polygon fill="#9a32cd" stroke="#9a32cd" points="1591.89,-214.2 1582.36,-218.82 1592.69,-221.15 1591.89,-214.2"/>
<text text-anchor="middle" x="1674" y="-218" font-family="Helvetica,sans-Serif" font-size="10.00"> elements</text>
</g>
<!-- Node6 -->
<g id="node6" class="node">
<title>Node6</title>
<g id="a_node6"><a xlink:href="classitk_1_1simple_1_1Command.html" target="_top" xlink:title="An implementation of the Command design pattern for callback.">
<polygon fill="white" stroke="black" points="1081.5,-222.5 1081.5,-241.5 1206.5,-241.5 1206.5,-222.5 1081.5,-222.5"/>
<text text-anchor="middle" x="1144" y="-229.5" font-family="Helvetica,sans-Serif" font-size="10.00">itk::simple::Command</text>
</a>
</g>
</g>
<!-- Node6&#45;&gt;Node5 -->
<g id="edge5" class="edge">
<title>Node6&#45;&gt;Node5</title>
<path fill="none" stroke="#9a32cd" stroke-dasharray="5,2" d="M1216.9,-231.01C1281.24,-230.13 1375,-228.84 1438.93,-227.97"/>
<polygon fill="#9a32cd" stroke="#9a32cd" points="1216.78,-227.51 1206.83,-231.15 1216.88,-234.51 1216.78,-227.51"/>
<text text-anchor="middle" x="1330" y="-233" font-family="Helvetica,sans-Serif" font-size="10.00"> m_Command</text>
</g>
<!-- Node7&#45;&gt;Node6 -->
<g id="edge6" class="edge">
<title>Node7&#45;&gt;Node6</title>
<path fill="none" stroke="midnightblue" d="M890.38,-240.81C950.7,-238.71 1028.13,-236.01 1081.27,-234.15"/>
<polygon fill="midnightblue" stroke="midnightblue" points="889.96,-237.32 880.09,-241.17 890.2,-244.32 889.96,-237.32"/>
</g>
<!-- Node8 -->
<g id="node8" class="node">
<title>Node8</title>
<g id="a_node8"><a xlink:title=" ">
<polygon fill="white" stroke="#bfbfbf" points="387.5,-232.5 387.5,-273.5 516.5,-273.5 516.5,-232.5 387.5,-232.5"/>
<text text-anchor="start" x="395.5" y="-261.5" font-family="Helvetica,sans-Serif" font-size="10.00">std::multimap&lt; itk</text>
<text text-anchor="start" x="395.5" y="-250.5" font-family="Helvetica,sans-Serif" font-size="10.00">::Object *, std::function</text>
<text text-anchor="middle" x="452" y="-239.5" font-family="Helvetica,sans-Serif" font-size="10.00">&lt; void()&gt; &gt;</text>
</a>
</g>
</g>
<!-- Node8&#45;&gt;Node7 -->
<g id="edge8" class="edge">
<title>Node8&#45;&gt;Node7</title>
<path fill="none" stroke="#9a32cd" stroke-dasharray="5,2" d="M526.98,-249.46C531.38,-249.3 535.75,-249.14 540,-249 598.88,-247.07 665.36,-245.8 715.96,-245.03"/>
<polygon fill="#9a32cd" stroke="#9a32cd" points="526.51,-245.98 516.66,-249.88 526.79,-252.97 526.51,-245.98"/>
<text text-anchor="middle" x="619" y="-252" font-family="Helvetica,sans-Serif" font-size="10.00"> m_ReferencedObjectsCallbacks</text>
</g>
<!-- Node9 -->
<g id="node9" class="node">
<title>Node9</title>
<g id="a_node9"><a xlink:title="STL class.">
<polygon fill="white" stroke="#bfbfbf" points="114,-241.5 114,-260.5 240,-260.5 240,-241.5 114,-241.5"/>
<text text-anchor="middle" x="177" y="-248.5" font-family="Helvetica,sans-Serif" font-size="10.00">std::multimap&lt; K, T &gt;</text>
</a>
</g>
</g>
<!-- Node9&#45;&gt;Node8 -->
<g id="edge9" class="edge">
<title>Node9&#45;&gt;Node8</title>
<path fill="none" stroke="orange" stroke-dasharray="5,2" d="M250.3,-251.53C292.82,-251.84 346.1,-252.23 387.08,-252.53"/>
<polygon fill="orange" stroke="orange" points="250.31,-248.03 240.29,-251.46 250.26,-255.03 250.31,-248.03"/>
<text text-anchor="start" x="258" y="-266" font-family="Helvetica,sans-Serif" font-size="10.00"> &lt; itk::Object *, std</text>
<text text-anchor="middle" x="311" y="-255" font-family="Helvetica,sans-Serif" font-size="10.00">::function&lt; void()&gt; &gt;</text>
</g>
<!-- Node10 -->
<g id="node10" class="node">
<title>Node10</title>
<g id="a_node10"><a xlink:title=" ">
<polygon fill="white" stroke="#bfbfbf" points="0,-241.5 0,-260.5 29,-260.5 29,-241.5 0,-241.5"/>
<text text-anchor="middle" x="14.5" y="-248.5" font-family="Helvetica,sans-Serif" font-size="10.00">K</text>
</a>
</g>
</g>
<!-- Node10&#45;&gt;Node9 -->
<g id="edge10" class="edge">
<title>Node10&#45;&gt;Node9</title>
<path fill="none" stroke="#9a32cd" stroke-dasharray="5,2" d="M39.34,-251C58.97,-251 87.71,-251 113.77,-251"/>
<polygon fill="#9a32cd" stroke="#9a32cd" points="39.18,-247.5 29.18,-251 39.18,-254.5 39.18,-247.5"/>
<text text-anchor="middle" x="71.5" y="-254" font-family="Helvetica,sans-Serif" font-size="10.00"> keys</text>
</g>
<!-- Node11 -->
<g id="node11" class="node">
<title>Node11</title>
<g id="a_node11"><a xlink:title=" ">
<polygon fill="white" stroke="#bfbfbf" points="0,-151.5 0,-170.5 29,-170.5 29,-151.5 0,-151.5"/>
<text text-anchor="middle" x="14.5" y="-158.5" font-family="Helvetica,sans-Serif" font-size="10.00">T</text>
</a>
</g>
</g>
<!-- Node11&#45;&gt;Node9 -->
<g id="edge11" class="edge">
<title>Node11&#45;&gt;Node9</title>
<path fill="none" stroke="#9a32cd" stroke-dasharray="5,2" d="M34.88,-177.09C54.01,-192.35 84.6,-215.11 114,-230 122.82,-234.47 132.81,-238.32 142.15,-241.47"/>
<polygon fill="#9a32cd" stroke="#9a32cd" points="36.91,-174.23 26.94,-170.66 32.5,-179.67 36.91,-174.23"/>
<text text-anchor="middle" x="71.5" y="-221" font-family="Helvetica,sans-Serif" font-size="10.00"> elements</text>
</g>
<!-- Node14 -->
<g id="node14" class="node">
<title>Node14</title>
<g id="a_node14"><a xlink:title="STL class.">
<polygon fill="white" stroke="#bfbfbf" points="270.5,-154.5 270.5,-173.5 351.5,-173.5 351.5,-154.5 270.5,-154.5"/>
<text text-anchor="middle" x="311" y="-161.5" font-family="Helvetica,sans-Serif" font-size="10.00">std::list&lt; T &gt;</text>
</a>
</g>
</g>
<!-- Node11&#45;&gt;Node14 -->
<g id="edge15" class="edge">
<title>Node11&#45;&gt;Node14</title>
<path fill="none" stroke="#9a32cd" stroke-dasharray="5,2" d="M39.6,-161.25C90.31,-161.76 208.44,-162.97 270.42,-163.6"/>
<polygon fill="#9a32cd" stroke="#9a32cd" points="39.34,-157.74 29.31,-161.14 39.27,-164.74 39.34,-157.74"/>
<text text-anchor="middle" x="71.5" y="-165" font-family="Helvetica,sans-Serif" font-size="10.00"> elements</text>
</g>
<!-- Node21 -->
<g id="node21" class="node">
<title>Node21</title>
<g id="a_node21"><a xlink:title="STL class.">
<polygon fill="white" stroke="#bfbfbf" points="560,-22.5 560,-41.5 678,-41.5 678,-22.5 560,-22.5"/>
<text text-anchor="middle" x="619" y="-29.5" font-family="Helvetica,sans-Serif" font-size="10.00">std::unique_ptr&lt; T &gt;</text>
</a>
</g>
</g>
<!-- Node11&#45;&gt;Node21 -->
<g id="edge24" class="edge">
<title>Node11&#45;&gt;Node21</title>
<path fill="none" stroke="#9a32cd" stroke-dasharray="5,2" d="M39.03,-155.96C129.28,-136.64 454.22,-67.07 573.6,-41.51"/>
<polygon fill="#9a32cd" stroke="#9a32cd" points="38.26,-152.55 29.22,-158.06 39.73,-159.39 38.26,-152.55"/>
<text text-anchor="middle" x="177" y="-142" font-family="Helvetica,sans-Serif" font-size="10.00"> ptr</text>
</g>
<!-- Node12 -->
<g id="node12" class="node">
<title>Node12</title>
<g id="a_node12"><a xlink:title="STL class.">
<polygon fill="white" stroke="#bfbfbf" points="419.5,-194.5 419.5,-213.5 484.5,-213.5 484.5,-194.5 419.5,-194.5"/>
<text text-anchor="middle" x="452" y="-201.5" font-family="Helvetica,sans-Serif" font-size="10.00">std::string</text>
</a>
</g>
</g>
<!-- Node12&#45;&gt;Node7 -->
<g id="edge12" class="edge">
<title>Node12&#45;&gt;Node7</title>
<path fill="none" stroke="#9a32cd" stroke-dasharray="5,2" d="M494.93,-208C543.76,-212.77 626.81,-221.19 698,-230 709.03,-231.36 720.73,-232.92 732.07,-234.49"/>
<polygon fill="#9a32cd" stroke="#9a32cd" points="495.05,-204.5 484.76,-207.01 494.37,-211.46 495.05,-204.5"/>
<text text-anchor="middle" x="619" y="-233" font-family="Helvetica,sans-Serif" font-size="10.00"> m_Name</text>
</g>
<!-- Node13 -->
<g id="node13" class="node">
<title>Node13</title>
<g id="a_node13"><a xlink:title="STL class.">
<polygon fill="white" stroke="#bfbfbf" points="125,-190 125,-220 229,-220 229,-190 125,-190"/>
<text text-anchor="start" x="133" y="-208" font-family="Helvetica,sans-Serif" font-size="10.00">std::basic_string&lt;</text>
<text text-anchor="middle" x="177" y="-197" font-family="Helvetica,sans-Serif" font-size="10.00"> char &gt;</text>
</a>
</g>
</g>
<!-- Node13&#45;&gt;Node12 -->
<g id="edge13" class="edge">
<title>Node13&#45;&gt;Node12</title>
<path fill="none" stroke="midnightblue" d="M239.16,-204.78C295.05,-204.57 375.46,-204.28 419.39,-204.12"/>
<polygon fill="midnightblue" stroke="midnightblue" points="239.02,-201.28 229.03,-204.81 239.04,-208.28 239.02,-201.28"/>
</g>
<!-- Node14&#45;&gt;Node4 -->
<g id="edge14" class="edge">
<title>Node14&#45;&gt;Node4</title>
<path fill="none" stroke="orange" stroke-dasharray="5,2" d="M361.65,-164.52C422.19,-165.12 527.6,-166 618,-166 618,-166 618,-166 1511.5,-166 1594.56,-166 1688.86,-172.7 1756.71,-178.7"/>
<polygon fill="orange" stroke="orange" points="361.64,-161.02 351.61,-164.42 361.58,-168.02 361.64,-161.02"/>
<text text-anchor="start" x="898" y="-180" font-family="Helvetica,sans-Serif" font-size="10.00"> &lt; itk::simple::ProcessObject</text>
<text text-anchor="middle" x="969" y="-169" font-family="Helvetica,sans-Serif" font-size="10.00">::EventCommand &gt;</text>
</g>
<!-- Node15 -->
<g id="node15" class="node">
<title>Node15</title>
<g id="a_node15"><a xlink:title=" ">
<polygon fill="white" stroke="#bfbfbf" points="2054,-60.5 2054,-101.5 2244,-101.5 2244,-60.5 2054,-60.5"/>
<text text-anchor="start" x="2062" y="-89.5" font-family="Helvetica,sans-Serif" font-size="10.00">std::unique_ptr&lt; itk</text>
<text text-anchor="start" x="2062" y="-78.5" font-family="Helvetica,sans-Serif" font-size="10.00">::simple::detail::MemberFunction</text>
<text text-anchor="middle" x="2149" y="-67.5" font-family="Helvetica,sans-Serif" font-size="10.00">Factory&lt; MemberFunctionType &gt; &gt;</text>
</a>
</g>
</g>
<!-- Node15&#45;&gt;Node1 -->
<g id="edge16" class="edge">
<title>Node15&#45;&gt;Node1</title>
<path fill="none" stroke="#9a32cd" stroke-dasharray="5,2" d="M2254.35,-99.41C2302.21,-107.84 2356.93,-117.5 2396.39,-124.46"/>
<polygon fill="#9a32cd" stroke="#9a32cd" points="2254.71,-95.91 2244.26,-97.62 2253.5,-102.81 2254.71,-95.91"/>
<text text-anchor="middle" x="2309" y="-120" font-family="Helvetica,sans-Serif" font-size="10.00"> m_MemberFactory</text>
</g>
<!-- Node16 -->
<g id="node16" class="node">
<title>Node16</title>
<g id="a_node16"><a xlink:href="classitk_1_1simple_1_1detail_1_1MemberFunctionFactory.html" target="_top" xlink:title=" ">
<polygon fill="white" stroke="black" points="1779,-60.5 1779,-101.5 1922,-101.5 1922,-60.5 1779,-60.5"/>
<text text-anchor="start" x="1787" y="-89.5" font-family="Helvetica,sans-Serif" font-size="10.00">itk::simple::detail</text>
<text text-anchor="start" x="1787" y="-78.5" font-family="Helvetica,sans-Serif" font-size="10.00">::MemberFunctionFactory</text>
<text text-anchor="middle" x="1850.5" y="-67.5" font-family="Helvetica,sans-Serif" font-size="10.00">&lt; MemberFunctionType &gt;</text>
</a>
</g>
</g>
<!-- Node16&#45;&gt;Node15 -->
<g id="edge17" class="edge">
<title>Node16&#45;&gt;Node15</title>
<path fill="none" stroke="#9a32cd" stroke-dasharray="5,2" d="M1932.51,-81C1970.01,-81 2014.78,-81 2053.78,-81"/>
<polygon fill="#9a32cd" stroke="#9a32cd" points="1932.14,-77.5 1922.14,-81 1932.14,-84.5 1932.14,-77.5"/>
<text text-anchor="middle" x="1999" y="-84" font-family="Helvetica,sans-Serif" font-size="10.00"> ptr</text>
</g>
<!-- Node17 -->
<g id="node17" class="node">
<title>Node17</title>
<g id="a_node17"><a xlink:href="classitk_1_1simple_1_1detail_1_1MemberFunctionFactoryBase.html" target="_top" xlink:title=" ">
<polygon fill="white" stroke="black" points="1248,-81 1248,-133 1412,-133 1412,-81 1248,-81"/>
<text text-anchor="start" x="1256" y="-121" font-family="Helvetica,sans-Serif" font-size="10.00">itk::simple::detail</text>
<text text-anchor="start" x="1256" y="-110" font-family="Helvetica,sans-Serif" font-size="10.00">::MemberFunctionFactoryBase</text>
<text text-anchor="start" x="1256" y="-99" font-family="Helvetica,sans-Serif" font-size="10.00">&lt; MemberFunctionType, std</text>
<text text-anchor="middle" x="1330" y="-88" font-family="Helvetica,sans-Serif" font-size="10.00">::pair&lt; unsigned int, int &gt; &gt;</text>
</a>
</g>
</g>
<!-- Node17&#45;&gt;Node16 -->
<g id="edge18" class="edge">
<title>Node17&#45;&gt;Node16</title>
<path fill="none" stroke="darkgreen" d="M1422.42,-103.18C1505.13,-99.62 1630.25,-93.98 1739,-88 1751.86,-87.29 1765.56,-86.48 1778.77,-85.66"/>
<polygon fill="darkgreen" stroke="darkgreen" points="1422.14,-99.69 1412.3,-103.61 1422.44,-106.68 1422.14,-99.69"/>
</g>
<!-- Node18 -->
<g id="node18" class="node">
<title>Node18</title>
<g id="a_node18"><a xlink:href="classitk_1_1simple_1_1detail_1_1MemberFunctionFactoryBase.html" target="_top" xlink:title="A base class for the MemberFunctionFactory.">
<polygon fill="white" stroke="black" points="716,-67 716,-97 880,-97 880,-67 716,-67"/>
<text text-anchor="start" x="724" y="-85" font-family="Helvetica,sans-Serif" font-size="10.00">itk::simple::detail</text>
<text text-anchor="middle" x="798" y="-74" font-family="Helvetica,sans-Serif" font-size="10.00">::MemberFunctionFactoryBase</text>
</a>
</g>
</g>
<!-- Node18&#45;&gt;Node17 -->
<g id="edge19" class="edge">
<title>Node18&#45;&gt;Node17</title>
<path fill="none" stroke="orange" stroke-dasharray="5,2" d="M890.23,-87.59C892.85,-87.73 895.44,-87.87 898,-88 1019.92,-94.38 1161.31,-100.34 1247.96,-103.83"/>
<polygon fill="orange" stroke="orange" points="890.21,-84.08 880.04,-87.02 889.83,-91.07 890.21,-84.08"/>
<text text-anchor="start" x="908" y="-120" font-family="Helvetica,sans-Serif" font-size="10.00"> &lt; MemberFunctionType,</text>
<text text-anchor="start" x="908" y="-109" font-family="Helvetica,sans-Serif" font-size="10.00"> std::pair&lt; unsigned</text>
<text text-anchor="middle" x="969" y="-98" font-family="Helvetica,sans-Serif" font-size="10.00"> int, int &gt; &gt;</text>
</g>
<!-- Node20 -->
<g id="node20" class="node">
<title>Node20</title>
<g id="a_node20"><a xlink:href="classitk_1_1simple_1_1detail_1_1MemberFunctionFactoryBase.html" target="_top" xlink:title=" ">
<polygon fill="white" stroke="black" points="1058,-29 1058,-81 1230,-81 1230,-29 1058,-29"/>
<text text-anchor="start" x="1066" y="-69" font-family="Helvetica,sans-Serif" font-size="10.00">itk::simple::detail</text>
<text text-anchor="start" x="1066" y="-58" font-family="Helvetica,sans-Serif" font-size="10.00">::MemberFunctionFactoryBase</text>
<text text-anchor="start" x="1066" y="-47" font-family="Helvetica,sans-Serif" font-size="10.00">&lt; TMemberFunctionPointer,</text>
<text text-anchor="middle" x="1144" y="-36" font-family="Helvetica,sans-Serif" font-size="10.00"> std::pair&lt; unsigned int, int &gt; &gt;</text>
</a>
</g>
</g>
<!-- Node18&#45;&gt;Node20 -->
<g id="edge22" class="edge">
<title>Node18&#45;&gt;Node20</title>
<path fill="none" stroke="orange" stroke-dasharray="5,2" d="M854.35,-64.12C868.43,-60.34 883.65,-56.92 898,-55 950.8,-47.93 1010.58,-47.78 1057.88,-49.47"/>
<polygon fill="orange" stroke="orange" points="853.01,-60.86 844.32,-66.92 854.89,-67.6 853.01,-60.86"/>
<text text-anchor="start" x="899" y="-80" font-family="Helvetica,sans-Serif" font-size="10.00"> &lt; TMemberFunctionPointer,</text>
<text text-anchor="start" x="899" y="-69" font-family="Helvetica,sans-Serif" font-size="10.00"> std::pair&lt; unsigned int,</text>
<text text-anchor="middle" x="969" y="-58" font-family="Helvetica,sans-Serif" font-size="10.00"> int &gt; &gt;</text>
</g>
<!-- Node19 -->
<g id="node19" class="node">
<title>Node19</title>
<g id="a_node19"><a xlink:href="classitk_1_1simple_1_1detail_1_1MemberFunctionFactory.html" target="_top" xlink:title="A class used to instantiate and generate function object to templated member functions.">
<polygon fill="white" stroke="black" points="1430,-35.5 1430,-76.5 1591,-76.5 1591,-35.5 1430,-35.5"/>
<text text-anchor="start" x="1438" y="-64.5" font-family="Helvetica,sans-Serif" font-size="10.00">itk::simple::detail</text>
<text text-anchor="start" x="1438" y="-53.5" font-family="Helvetica,sans-Serif" font-size="10.00">::MemberFunctionFactory</text>
<text text-anchor="middle" x="1510.5" y="-42.5" font-family="Helvetica,sans-Serif" font-size="10.00">&lt; TMemberFunctionPointer &gt;</text>
</a>
</g>
</g>
<!-- Node19&#45;&gt;Node16 -->
<g id="edge20" class="edge">
<title>Node19&#45;&gt;Node16</title>
<path fill="none" stroke="orange" stroke-dasharray="5,2" d="M1601.38,-62.65C1657,-66.76 1727.38,-71.97 1778.97,-75.78"/>
<polygon fill="orange" stroke="orange" points="1601.4,-59.14 1591.17,-61.89 1600.89,-66.12 1601.4,-59.14"/>
<text text-anchor="middle" x="1674" y="-76" font-family="Helvetica,sans-Serif" font-size="10.00"> &lt; MemberFunctionType &gt;</text>
</g>
<!-- Node20&#45;&gt;Node19 -->
<g id="edge21" class="edge">
<title>Node20&#45;&gt;Node19</title>
<path fill="none" stroke="darkgreen" d="M1240.52,-55.26C1299.45,-55.42 1374.16,-55.63 1429.88,-55.78"/>
<polygon fill="darkgreen" stroke="darkgreen" points="1240.47,-51.76 1230.46,-55.23 1240.45,-58.76 1240.47,-51.76"/>
</g>
<!-- Node21&#45;&gt;Node15 -->
<g id="edge23" class="edge">
<title>Node21&#45;&gt;Node15</title>
<path fill="none" stroke="orange" stroke-dasharray="5,2" d="M688.06,-22.02C758.08,-12.63 870.42,0 968,0 968,0 968,0 1851.5,0 1943.15,0 2045.28,-36.46 2102.58,-60.46"/>
<polygon fill="orange" stroke="orange" points="687.48,-18.57 678.04,-23.38 688.42,-25.51 687.48,-18.57"/>
<text text-anchor="start" x="1260.5" y="-25" font-family="Helvetica,sans-Serif" font-size="10.00"> &lt; itk::simple::detail</text>
<text text-anchor="start" x="1260.5" y="-14" font-family="Helvetica,sans-Serif" font-size="10.00">::MemberFunctionFactory</text>
<text text-anchor="middle" x="1330" y="-3" font-family="Helvetica,sans-Serif" font-size="10.00">&lt; MemberFunctionType &gt; &gt;</text>
</g>
</g>
</svg>
