<?xml version="1.0" encoding="UTF-8" standalone="no"?>
<!DOCTYPE svg PUBLIC "-//W3C//DTD SVG 1.1//EN"
 "http://www.w3.org/Graphics/SVG/1.1/DTD/svg11.dtd">
<!-- Generated by graphviz version 2.43.0 (0)
 -->
<!-- Title: itk::simple::ScaleSkewVersor3DTransform Pages: 1 -->
<svg width="233pt" height="308pt"
 viewBox="0.00 0.00 232.50 308.00" xmlns="http://www.w3.org/2000/svg" xmlns:xlink="http://www.w3.org/1999/xlink">
<g id="graph0" class="graph" transform="scale(1 1) rotate(0) translate(4 304)">
<title>itk::simple::ScaleSkewVersor3DTransform</title>
<polygon fill="white" stroke="transparent" points="-4,4 -4,-304 228.5,-304 228.5,4 -4,4"/>
<!-- Node1 -->
<g id="node1" class="node">
<title>Node1</title>
<g id="a_node1"><a xlink:title="A over parameterized 3D Affine transform composed of the addition of a versor rotation matrix,...">
<polygon fill="#bfbfbf" stroke="black" points="10,-0.5 10,-30.5 173,-30.5 173,-0.5 10,-0.5"/>
<text text-anchor="start" x="18" y="-18.5" font-family="Helvetica,sans-Serif" font-size="10.00">itk::simple::ScaleSkewVersor3</text>
<text text-anchor="middle" x="91.5" y="-7.5" font-family="Helvetica,sans-Serif" font-size="10.00">DTransform</text>
</a>
</g>
</g>
<!-- Node2 -->
<g id="node2" class="node">
<title>Node2</title>
<g id="a_node2"><a xlink:href="classitk_1_1simple_1_1Transform.html" target="_top" xlink:title="A simplified wrapper around a variety of ITK transforms.">
<polygon fill="white" stroke="black" points="30,-68.5 30,-87.5 153,-87.5 153,-68.5 30,-68.5"/>
<text text-anchor="middle" x="91.5" y="-75.5" font-family="Helvetica,sans-Serif" font-size="10.00">itk::simple::Transform</text>
</a>
</g>
</g>
<!-- Node2&#45;&gt;Node1 -->
<g id="edge1" class="edge">
<title>Node2&#45;&gt;Node1</title>
<path fill="none" stroke="midnightblue" d="M91.5,-58.22C91.5,-49.36 91.5,-38.96 91.5,-30.76"/>
<polygon fill="midnightblue" stroke="midnightblue" points="88,-58.33 91.5,-68.33 95,-58.33 88,-58.33"/>
</g>
<!-- Node3 -->
<g id="node3" class="node">
<title>Node3</title>
<g id="a_node3"><a xlink:title=" ">
<polygon fill="white" stroke="#bfbfbf" points="0,-135.5 0,-165.5 183,-165.5 183,-135.5 0,-135.5"/>
<text text-anchor="start" x="8" y="-153.5" font-family="Helvetica,sans-Serif" font-size="10.00">std::unique_ptr&lt; PimpleTransform</text>
<text text-anchor="middle" x="91.5" y="-142.5" font-family="Helvetica,sans-Serif" font-size="10.00">Base &gt;</text>
</a>
</g>
</g>
<!-- Node3&#45;&gt;Node2 -->
<g id="edge2" class="edge">
<title>Node3&#45;&gt;Node2</title>
<path fill="none" stroke="#9a32cd" stroke-dasharray="5,2" d="M91.5,-125.09C91.5,-112.21 91.5,-97.2 91.5,-87.89"/>
<polygon fill="#9a32cd" stroke="#9a32cd" points="88,-125.23 91.5,-135.23 95,-125.23 88,-125.23"/>
<text text-anchor="middle" x="142" y="-109" font-family="Helvetica,sans-Serif" font-size="10.00"> m_PimpleTransform</text>
</g>
<!-- Node4 -->
<g id="node4" class="node">
<title>Node4</title>
<g id="a_node4"><a xlink:title="STL class.">
<polygon fill="white" stroke="#bfbfbf" points="32.5,-213.5 32.5,-232.5 150.5,-232.5 150.5,-213.5 32.5,-213.5"/>
<text text-anchor="middle" x="91.5" y="-220.5" font-family="Helvetica,sans-Serif" font-size="10.00">std::unique_ptr&lt; T &gt;</text>
</a>
</g>
</g>
<!-- Node4&#45;&gt;Node3 -->
<g id="edge3" class="edge">
<title>Node4&#45;&gt;Node3</title>
<path fill="none" stroke="orange" stroke-dasharray="5,2" d="M91.5,-203.24C91.5,-191.41 91.5,-176.38 91.5,-165.58"/>
<polygon fill="orange" stroke="orange" points="88,-203.36 91.5,-213.36 95,-203.36 88,-203.36"/>
<text text-anchor="middle" x="158" y="-187" font-family="Helvetica,sans-Serif" font-size="10.00"> &lt; PimpleTransformBase &gt;</text>
</g>
<!-- Node5 -->
<g id="node5" class="node">
<title>Node5</title>
<g id="a_node5"><a xlink:title=" ">
<polygon fill="white" stroke="#bfbfbf" points="77,-280.5 77,-299.5 106,-299.5 106,-280.5 77,-280.5"/>
<text text-anchor="middle" x="91.5" y="-287.5" font-family="Helvetica,sans-Serif" font-size="10.00">T</text>
</a>
</g>
</g>
<!-- Node5&#45;&gt;Node4 -->
<g id="edge4" class="edge">
<title>Node5&#45;&gt;Node4</title>
<path fill="none" stroke="#9a32cd" stroke-dasharray="5,2" d="M91.5,-270.04C91.5,-257.67 91.5,-242.12 91.5,-232.63"/>
<polygon fill="#9a32cd" stroke="#9a32cd" points="88,-270.23 91.5,-280.23 95,-270.23 88,-270.23"/>
<text text-anchor="middle" x="100" y="-254" font-family="Helvetica,sans-Serif" font-size="10.00"> ptr</text>
</g>
</g>
</svg>
