<?xml version="1.0" encoding="UTF-8" standalone="no"?>
<!DOCTYPE svg PUBLIC "-//W3C//DTD SVG 1.1//EN"
 "http://www.w3.org/Graphics/SVG/1.1/DTD/svg11.dtd">
<!-- Generated by graphviz version 2.40.1 (20161225.0304)
 -->
<!-- Title: itk::simple::SITK_FINAL Pages: 1 -->
<!--zoomable 221 -->
<svg id="main" version="1.1" xmlns="http://www.w3.org/2000/svg" xmlns:xlink="http://www.w3.org/1999/xlink" xml:space="preserve" onload="init(evt)">
<style type="text/css"><![CDATA[
.edge:hover path { stroke: red; }
.edge:hover polygon { stroke: red; fill: red; }
]]></style>
<script type="text/javascript"><![CDATA[
var edges = document.getElementsByTagName('g');
if (edges && edges.length) {
  for (var i=0;i<edges.length;i++) {
    if (edges[i].id.substr(0,4)=='edge') {
      edges[i].setAttribute('class','edge');
    }
  }
}
]]></script>
        <defs>
                <circle id="rim" cx="0" cy="0" r="7"/>
                <circle id="rim2" cx="0" cy="0" r="3.5"/>
                <g id="zoomPlus">
                        <use xlink:href="#rim" fill="#404040">
                                <set attributeName="fill" to="#808080" begin="zoomplus.mouseover" end="zoomplus.mouseout"/>
                        </use>
                        <path d="M-4,0h8M0,-4v8" fill="none" stroke="white" stroke-width="1.5" pointer-events="none"/>
                </g>
                <g id="zoomMin">
                        <use xlink:href="#rim" fill="#404040">
                                <set attributeName="fill" to="#808080" begin="zoomminus.mouseover" end="zoomminus.mouseout"/>
                        </use>
                        <path d="M-4,0h8" fill="none" stroke="white" stroke-width="1.5" pointer-events="none"/>
                </g>
                <g id="dirArrow">
                        <path fill="none" stroke="white" stroke-width="1.5" d="M0,-3.0v7 M-2.5,-0.5L0,-3.0L2.5,-0.5"/>
                </g>
               <g id="resetDef">
                       <use xlink:href="#rim2" fill="#404040">
                               <set attributeName="fill" to="#808080" begin="reset.mouseover" end="reset.mouseout"/>
                       </use>
               </g>
        </defs>

<script type="text/javascript">
var viewWidth = 2087;
var viewHeight = 221;
var sectionId = 'dynsection-1';
</script>
<script xlink:href="svgpan.js"/>
<svg id="graph" class="graph">
<g id="viewport">
<title>itk::simple::SITK_FINAL</title>
<polygon fill="#ffffff" stroke="transparent" points="-4,4 -4,-217 2083,-217 2083,4 -4,4"/>
<!-- Node1 -->
<g id="node1" class="node">
<title>Node1</title>
<g id="a_node1"><a xlink:title=" ">
<polygon fill="#bfbfbf" stroke="#000000" points="1950,-81.5 1950,-100.5 2079,-100.5 2079,-81.5 1950,-81.5"/>
<text text-anchor="middle" x="2014.5" y="-88.5" font-family="Helvetica,sans-Serif" font-size="10.00" fill="#000000">itk::simple::SITK_FINAL</text>
</a>
</g>
</g>
<!-- Node2 -->
<g id="node2" class="node">
<title>Node2</title>
<g id="a_node2"><a xlink:href="classitk_1_1simple_1_1LoggerBase.html" target="_top" xlink:title="A base class to handle SimpleITK and ITK messages and logging.">
<polygon fill="#ffffff" stroke="#000000" points="1782,-107.5 1782,-126.5 1913,-126.5 1913,-107.5 1782,-107.5"/>
<text text-anchor="middle" x="1847.5" y="-114.5" font-family="Helvetica,sans-Serif" font-size="10.00" fill="#000000">itk::simple::LoggerBase</text>
</a>
</g>
</g>
<!-- Node2&#45;&gt;Node1 -->
<g id="edge1" class="edge">
<title>Node2&#45;&gt;Node1</title>
<path fill="none" stroke="#191970" d="M1918.7334,-105.9098C1930.2279,-104.1202 1942.0395,-102.2813 1953.271,-100.5327"/>
<polygon fill="#191970" stroke="#191970" points="1918.0789,-102.4694 1908.7364,-107.4662 1919.1558,-109.3861 1918.0789,-102.4694"/>
</g>
<!-- Node3 -->
<g id="node3" class="node">
<title>Node3</title>
<g id="a_node3"><a xlink:href="classitk_1_1simple_1_1ObjectOwnedBase.html" target="_top" xlink:title="An abstract base class to connect this object with the lifetime of another.">
<polygon fill="#ffffff" stroke="#000000" points="1491,-112.5 1491,-131.5 1655,-131.5 1655,-112.5 1491,-112.5"/>
<text text-anchor="middle" x="1573" y="-119.5" font-family="Helvetica,sans-Serif" font-size="10.00" fill="#000000">itk::simple::ObjectOwnedBase</text>
</a>
</g>
</g>
<!-- Node3&#45;&gt;Node2 -->
<g id="edge2" class="edge">
<title>Node3&#45;&gt;Node2</title>
<path fill="none" stroke="#191970" d="M1665.4519,-120.316C1703.5997,-119.6211 1746.9334,-118.8318 1781.7504,-118.1976"/>
<polygon fill="#191970" stroke="#191970" points="1665.2936,-116.8182 1655.3591,-120.4998 1665.4212,-123.817 1665.2936,-116.8182"/>
</g>
<!-- Node4 -->
<g id="node4" class="node">
<title>Node4</title>
<g id="a_node4"><a xlink:href="classitk_1_1simple_1_1NonCopyable.html" target="_top" xlink:title="An inheritable class to disable copying of a class.">
<polygon fill="#ffffff" stroke="#000000" points="1158,-177.5 1158,-196.5 1298,-196.5 1298,-177.5 1158,-177.5"/>
<text text-anchor="middle" x="1228" y="-184.5" font-family="Helvetica,sans-Serif" font-size="10.00" fill="#000000">itk::simple::NonCopyable</text>
</a>
</g>
</g>
<!-- Node4&#45;&gt;Node3 -->
<g id="edge3" class="edge">
<title>Node4&#45;&gt;Node3</title>
<path fill="none" stroke="#191970" d="M1308.1779,-185.0257C1356.5143,-182.3901 1418.9795,-176.413 1473,-163 1502.5013,-155.675 1534.7102,-141.2022 1554.386,-131.5613"/>
<polygon fill="#191970" stroke="#191970" points="1307.8953,-181.5355 1298.086,-185.5389 1308.2509,-188.5265 1307.8953,-181.5355"/>
</g>
<!-- Node5 -->
<g id="node5" class="node">
<title>Node5</title>
<g id="a_node5"><a xlink:title=" ">
<polygon fill="#ffffff" stroke="#bfbfbf" points="1163.5,-79.5 1163.5,-120.5 1292.5,-120.5 1292.5,-79.5 1163.5,-79.5"/>
<text text-anchor="start" x="1171.5" y="-108.5" font-family="Helvetica,sans-Serif" font-size="10.00" fill="#000000">std::multimap&lt; itk</text>
<text text-anchor="start" x="1171.5" y="-97.5" font-family="Helvetica,sans-Serif" font-size="10.00" fill="#000000">::Object *, std::function</text>
<text text-anchor="middle" x="1228" y="-86.5" font-family="Helvetica,sans-Serif" font-size="10.00" fill="#000000">&lt; void()&gt; &gt;</text>
</a>
</g>
</g>
<!-- Node5&#45;&gt;Node3 -->
<g id="edge4" class="edge">
<title>Node5&#45;&gt;Node3</title>
<path fill="none" stroke="#9a32cd" stroke-dasharray="5,2" d="M1302.9896,-104.7819C1358.3601,-108.3128 1433.691,-113.1165 1490.7167,-116.7529"/>
<polygon fill="#9a32cd" stroke="#9a32cd" points="1303.0944,-101.2816 1292.8919,-104.138 1302.6488,-108.2674 1303.0944,-101.2816"/>
<text text-anchor="middle" x="1394.5" y="-119" font-family="Helvetica,sans-Serif" font-size="10.00" fill="#000000"> m_ReferencedObjectsCallbacks</text>
</g>
<!-- Node6 -->
<g id="node6" class="node">
<title>Node6</title>
<g id="a_node6"><a xlink:href="https://www.itk.org/Doxygen/html/classitk_1_1Object.html" xlink:title=" ">
<polygon fill="#ffffff" stroke="#000000" points="1007,-62.5 1007,-81.5 1074,-81.5 1074,-62.5 1007,-62.5"/>
<text text-anchor="middle" x="1040.5" y="-69.5" font-family="Helvetica,sans-Serif" font-size="10.00" fill="#000000">itk::Object</text>
</a>
</g>
</g>
<!-- Node6&#45;&gt;Node5 -->
<g id="edge5" class="edge">
<title>Node6&#45;&gt;Node5</title>
<path fill="none" stroke="#9a32cd" stroke-dasharray="5,2" d="M1084.048,-78.5032C1107.5881,-82.0185 1137.1175,-86.4282 1163.2947,-90.3373"/>
<polygon fill="#9a32cd" stroke="#9a32cd" points="1084.4285,-75.0213 1074.0212,-77.0058 1083.3946,-81.9445 1084.4285,-75.0213"/>
<text text-anchor="middle" x="1116" y="-90" font-family="Helvetica,sans-Serif" font-size="10.00" fill="#000000"> keys</text>
</g>
<!-- Node20 -->
<g id="node20" class="node">
<title>Node20</title>
<g id="a_node20"><a xlink:href="https://www.itk.org/Doxygen/html/classitk_1_1OutputWindow.html" xlink:title=" ">
<polygon fill="#ffffff" stroke="#000000" points="1341,-59.5 1341,-78.5 1448,-78.5 1448,-59.5 1341,-59.5"/>
<text text-anchor="middle" x="1394.5" y="-66.5" font-family="Helvetica,sans-Serif" font-size="10.00" fill="#000000">itk::OutputWindow</text>
</a>
</g>
</g>
<!-- Node6&#45;&gt;Node20 -->
<g id="edge26" class="edge">
<title>Node6&#45;&gt;Node20</title>
<path fill="none" stroke="#191970" d="M1084.2642,-71.1221C1106.3692,-70.7125 1133.6075,-70.2592 1158,-70 1220.8173,-69.3326 1293.0245,-69.1058 1340.9597,-69.0313"/>
<polygon fill="#191970" stroke="#191970" points="1084.1118,-67.6243 1074.1797,-71.3125 1084.244,-74.623 1084.1118,-67.6243"/>
</g>
<!-- Node7 -->
<g id="node7" class="node">
<title>Node7</title>
<g id="a_node7"><a xlink:href="https://www.itk.org/Doxygen/html/classitk_1_1LightObject.html" xlink:title=" ">
<polygon fill="#ffffff" stroke="#000000" points="743,-.5 743,-19.5 834,-19.5 834,-.5 743,-.5"/>
<text text-anchor="middle" x="788.5" y="-7.5" font-family="Helvetica,sans-Serif" font-size="10.00" fill="#000000">itk::LightObject</text>
</a>
</g>
</g>
<!-- Node7&#45;&gt;Node6 -->
<g id="edge6" class="edge">
<title>Node7&#45;&gt;Node6</title>
<path fill="none" stroke="#191970" d="M844.3508,-13.377C885.3505,-17.1706 941.8694,-25.1759 989,-42 1002.838,-46.9397 1017.1699,-55.6298 1027.1901,-62.3898"/>
<polygon fill="#191970" stroke="#191970" points="844.5424,-9.8805 834.2767,-12.5004 843.9356,-16.8542 844.5424,-9.8805"/>
</g>
<!-- Node8 -->
<g id="node8" class="node">
<title>Node8</title>
<g id="a_node8"><a xlink:title=" ">
<polygon fill="#ffffff" stroke="#bfbfbf" points="462.5,-2.5 462.5,-21.5 569.5,-21.5 569.5,-2.5 462.5,-2.5"/>
<text text-anchor="middle" x="516" y="-9.5" font-family="Helvetica,sans-Serif" font-size="10.00" fill="#000000">std::atomic&lt; int &gt;</text>
</a>
</g>
</g>
<!-- Node8&#45;&gt;Node7 -->
<g id="edge7" class="edge">
<title>Node8&#45;&gt;Node7</title>
<path fill="none" stroke="#9a32cd" stroke-dasharray="5,2" d="M579.5731,-11.5334C629.592,-11.1663 698.0857,-10.6636 742.802,-10.3354"/>
<polygon fill="#9a32cd" stroke="#9a32cd" points="579.4861,-8.0339 569.5121,-11.6073 579.5375,-15.0337 579.4861,-8.0339"/>
<text text-anchor="middle" x="656" y="-15" font-family="Helvetica,sans-Serif" font-size="10.00" fill="#000000"> m_ReferenceCount</text>
</g>
<!-- Node9 -->
<g id="node9" class="node">
<title>Node9</title>
<g id="a_node9"><a xlink:title="STL class.">
<polygon fill="#ffffff" stroke="#bfbfbf" points="127,-37.5 127,-56.5 227,-56.5 227,-37.5 127,-37.5"/>
<text text-anchor="middle" x="177" y="-44.5" font-family="Helvetica,sans-Serif" font-size="10.00" fill="#000000">std::atomic&lt; T &gt;</text>
</a>
</g>
</g>
<!-- Node9&#45;&gt;Node8 -->
<g id="edge8" class="edge">
<title>Node9&#45;&gt;Node8</title>
<path fill="none" stroke="#ffa500" stroke-dasharray="5,2" d="M206.41,-33.392C221.4895,-27.1206 240.3532,-20.3397 258,-17 327.5496,-3.8375 409.5263,-5.0179 462.0977,-7.8505"/>
<polygon fill="#ffa500" stroke="#ffa500" points="204.9005,-30.2311 197.0978,-37.3983 207.667,-36.6613 204.9005,-30.2311"/>
<text text-anchor="middle" x="341" y="-20" font-family="Helvetica,sans-Serif" font-size="10.00" fill="#000000"> &lt; int &gt;</text>
</g>
<!-- Node18 -->
<g id="node18" class="node">
<title>Node18</title>
<g id="a_node18"><a xlink:href="https://www.itk.org/Doxygen/html/classitk_1_1TimeStamp.html" xlink:title=" ">
<polygon fill="#ffffff" stroke="#000000" points="610,-43.5 610,-62.5 702,-62.5 702,-43.5 610,-43.5"/>
<text text-anchor="middle" x="656" y="-50.5" font-family="Helvetica,sans-Serif" font-size="10.00" fill="#000000">itk::TimeStamp</text>
</a>
</g>
</g>
<!-- Node9&#45;&gt;Node18 -->
<g id="edge20" class="edge">
<title>Node9&#45;&gt;Node18</title>
<path fill="none" stroke="#9a32cd" stroke-dasharray="5,2" d="M237.5924,-47.759C334.6431,-48.9747 522.8516,-51.3322 609.849,-52.4219"/>
<polygon fill="#9a32cd" stroke="#9a32cd" points="237.3991,-44.2564 227.3561,-47.6308 237.3114,-51.2558 237.3991,-44.2564"/>
<text text-anchor="middle" x="341" y="-53" font-family="Helvetica,sans-Serif" font-size="10.00" fill="#000000"> m_GlobalTimeStamp</text>
</g>
<!-- Node10 -->
<g id="node10" class="node">
<title>Node10</title>
<g id="a_node10"><a xlink:title=" ">
<polygon fill="#ffffff" stroke="#bfbfbf" points="0,-91.5 0,-110.5 29,-110.5 29,-91.5 0,-91.5"/>
<text text-anchor="middle" x="14.5" y="-98.5" font-family="Helvetica,sans-Serif" font-size="10.00" fill="#000000">T</text>
</a>
</g>
</g>
<!-- Node10&#45;&gt;Node9 -->
<g id="edge9" class="edge">
<title>Node10&#45;&gt;Node9</title>
<path fill="none" stroke="#9a32cd" stroke-dasharray="5,2" d="M26.427,-83.1356C31.8869,-76.3649 38.9426,-69.2669 47,-65 71.3641,-52.0977 101.739,-47.3708 126.9996,-45.9734"/>
<polygon fill="#9a32cd" stroke="#9a32cd" points="23.5256,-81.1729 20.4093,-91.2991 29.1602,-85.3264 23.5256,-81.1729"/>
<text text-anchor="middle" x="71.5" y="-68" font-family="Helvetica,sans-Serif" font-size="10.00" fill="#000000"> ptr</text>
</g>
<!-- Node15 -->
<g id="node15" class="node">
<title>Node15</title>
<g id="a_node15"><a xlink:title="STL class.">
<polygon fill="#ffffff" stroke="#bfbfbf" points="126.5,-113.5 126.5,-132.5 227.5,-132.5 227.5,-113.5 126.5,-113.5"/>
<text text-anchor="middle" x="177" y="-120.5" font-family="Helvetica,sans-Serif" font-size="10.00" fill="#000000">std::map&lt; K, T &gt;</text>
</a>
</g>
</g>
<!-- Node10&#45;&gt;Node15 -->
<g id="edge16" class="edge">
<title>Node10&#45;&gt;Node15</title>
<path fill="none" stroke="#9a32cd" stroke-dasharray="5,2" d="M39.1646,-104.3392C62.1785,-107.4549 97.2232,-112.1994 126.2159,-116.1246"/>
<polygon fill="#9a32cd" stroke="#9a32cd" points="39.5866,-100.8645 29.2074,-102.9912 38.6474,-107.8012 39.5866,-100.8645"/>
<text text-anchor="middle" x="71.5" y="-115" font-family="Helvetica,sans-Serif" font-size="10.00" fill="#000000"> elements</text>
</g>
<!-- Node17 -->
<g id="node17" class="node">
<title>Node17</title>
<g id="a_node17"><a xlink:title="STL class.">
<polygon fill="#ffffff" stroke="#bfbfbf" points="118,-75.5 118,-94.5 236,-94.5 236,-75.5 118,-75.5"/>
<text text-anchor="middle" x="177" y="-82.5" font-family="Helvetica,sans-Serif" font-size="10.00" fill="#000000">std::shared_ptr&lt; T &gt;</text>
</a>
</g>
</g>
<!-- Node10&#45;&gt;Node17 -->
<g id="edge18" class="edge">
<title>Node10&#45;&gt;Node17</title>
<path fill="none" stroke="#9a32cd" stroke-dasharray="5,2" d="M38.3821,-87.7511C41.2194,-86.6286 44.1288,-85.6685 47,-85 69.7509,-79.7033 95.3549,-78.6895 117.7861,-79.3612"/>
<polygon fill="#9a32cd" stroke="#9a32cd" points="36.7835,-84.6341 29.1734,-92.0055 39.7193,-90.9887 36.7835,-84.6341"/>
<text text-anchor="middle" x="71.5" y="-88" font-family="Helvetica,sans-Serif" font-size="10.00" fill="#000000"> ptr</text>
</g>
<!-- Node19 -->
<g id="node19" class="node">
<title>Node19</title>
<g id="a_node19"><a xlink:title="STL class.">
<polygon fill="#ffffff" stroke="#bfbfbf" points="114,-177.5 114,-196.5 240,-196.5 240,-177.5 114,-177.5"/>
<text text-anchor="middle" x="177" y="-184.5" font-family="Helvetica,sans-Serif" font-size="10.00" fill="#000000">std::multimap&lt; K, T &gt;</text>
</a>
</g>
</g>
<!-- Node10&#45;&gt;Node19 -->
<g id="edge23" class="edge">
<title>Node10&#45;&gt;Node19</title>
<path fill="none" stroke="#9a32cd" stroke-dasharray="5,2" d="M33.044,-117.0979C37.4685,-120.5772 42.2806,-124.0832 47,-127 56.8588,-133.0931 121.3486,-162.1525 155.6379,-177.4817"/>
<polygon fill="#9a32cd" stroke="#9a32cd" points="35.0874,-114.2469 25.1394,-110.6017 30.643,-119.655 35.0874,-114.2469"/>
<text text-anchor="middle" x="71.5" y="-153" font-family="Helvetica,sans-Serif" font-size="10.00" fill="#000000"> elements</text>
</g>
<!-- Node11 -->
<g id="node11" class="node">
<title>Node11</title>
<g id="a_node11"><a xlink:title="STL class.">
<polygon fill="#ffffff" stroke="#bfbfbf" points="756,-131.5 756,-150.5 821,-150.5 821,-131.5 756,-131.5"/>
<text text-anchor="middle" x="788.5" y="-138.5" font-family="Helvetica,sans-Serif" font-size="10.00" fill="#000000">std::string</text>
</a>
</g>
</g>
<!-- Node11&#45;&gt;Node3 -->
<g id="edge24" class="edge">
<title>Node11&#45;&gt;Node3</title>
<path fill="none" stroke="#9a32cd" stroke-dasharray="5,2" d="M831.4657,-141.4922C939.4024,-142.4853 1230.6395,-143.6586 1473,-131 1478.8315,-130.6954 1484.8493,-130.3164 1490.9046,-129.8877"/>
<polygon fill="#9a32cd" stroke="#9a32cd" points="831.3346,-137.9909 821.3013,-141.3942 831.267,-144.9906 831.3346,-137.9909"/>
<text text-anchor="middle" x="1116" y="-145" font-family="Helvetica,sans-Serif" font-size="10.00" fill="#000000"> m_Name</text>
</g>
<!-- Node11&#45;&gt;Node6 -->
<g id="edge10" class="edge">
<title>Node11&#45;&gt;Node6</title>
<path fill="none" stroke="#9a32cd" stroke-dasharray="5,2" d="M831.2929,-132.3666C844.6496,-129.6784 859.4355,-126.7092 873,-124 924.5412,-113.7057 939.7052,-119.2343 989,-101 1002.2808,-96.0874 1016.2085,-88.0441 1026.2265,-81.673"/>
<polygon fill="#9a32cd" stroke="#9a32cd" points="830.5137,-128.9532 821.4015,-134.3586 831.8956,-135.8154 830.5137,-128.9532"/>
<text text-anchor="middle" x="931" y="-127" font-family="Helvetica,sans-Serif" font-size="10.00" fill="#000000"> m_ObjectName</text>
</g>
<!-- Node12 -->
<g id="node12" class="node">
<title>Node12</title>
<g id="a_node12"><a xlink:title="STL class.">
<polygon fill="#ffffff" stroke="#bfbfbf" points="464,-128 464,-158 568,-158 568,-128 464,-128"/>
<text text-anchor="start" x="472" y="-146" font-family="Helvetica,sans-Serif" font-size="10.00" fill="#000000">std::basic_string&lt;</text>
<text text-anchor="middle" x="516" y="-135" font-family="Helvetica,sans-Serif" font-size="10.00" fill="#000000"> char &gt;</text>
</a>
</g>
</g>
<!-- Node12&#45;&gt;Node11 -->
<g id="edge11" class="edge">
<title>Node12&#45;&gt;Node11</title>
<path fill="none" stroke="#191970" d="M578.2419,-142.5432C633.4471,-142.138 711.9232,-141.562 755.718,-141.2406"/>
<polygon fill="#191970" stroke="#191970" points="578.1923,-139.0433 568.2183,-142.6167 578.2438,-146.0432 578.1923,-139.0433"/>
</g>
<!-- Node13 -->
<g id="node13" class="node">
<title>Node13</title>
<g id="a_node13"><a xlink:href="https://www.itk.org/Doxygen/html/classitk_1_1MetaDataDictionary.html" xlink:title=" ">
<polygon fill="#ffffff" stroke="#000000" points="722,-85.5 722,-104.5 855,-104.5 855,-85.5 722,-85.5"/>
<text text-anchor="middle" x="788.5" y="-92.5" font-family="Helvetica,sans-Serif" font-size="10.00" fill="#000000">itk::MetaDataDictionary</text>
</a>
</g>
</g>
<!-- Node13&#45;&gt;Node6 -->
<g id="edge12" class="edge">
<title>Node13&#45;&gt;Node6</title>
<path fill="none" stroke="#9a32cd" stroke-dasharray="5,2" d="M865.2615,-87.994C912.5636,-83.6767 970.8522,-78.3567 1006.8455,-75.0716"/>
<polygon fill="#9a32cd" stroke="#9a32cd" points="864.6801,-84.5324 855.0397,-88.9269 865.3164,-91.5034 864.6801,-84.5324"/>
<text text-anchor="middle" x="931" y="-90" font-family="Helvetica,sans-Serif" font-size="10.00" fill="#000000"> m_MetaDataDictionary</text>
</g>
<!-- Node14 -->
<g id="node14" class="node">
<title>Node14</title>
<g id="a_node14"><a xlink:title=" ">
<polygon fill="#ffffff" stroke="#bfbfbf" points="442,-79 442,-109 590,-109 590,-79 442,-79"/>
<text text-anchor="start" x="450" y="-97" font-family="Helvetica,sans-Serif" font-size="10.00" fill="#000000">std::shared_ptr&lt; MetaData</text>
<text text-anchor="middle" x="516" y="-86" font-family="Helvetica,sans-Serif" font-size="10.00" fill="#000000">DictionaryMapType &gt;</text>
</a>
</g>
</g>
<!-- Node14&#45;&gt;Node13 -->
<g id="edge13" class="edge">
<title>Node14&#45;&gt;Node13</title>
<path fill="none" stroke="#9a32cd" stroke-dasharray="5,2" d="M600.4076,-94.3098C639.4896,-94.4532 685.2598,-94.6211 721.8642,-94.7555"/>
<polygon fill="#9a32cd" stroke="#9a32cd" points="600.1147,-90.8088 590.1019,-94.2719 600.0889,-97.8087 600.1147,-90.8088"/>
<text text-anchor="middle" x="656" y="-98" font-family="Helvetica,sans-Serif" font-size="10.00" fill="#000000"> m_Dictionary</text>
</g>
<!-- Node15&#45;&gt;Node14 -->
<g id="edge14" class="edge">
<title>Node15&#45;&gt;Node14</title>
<path fill="none" stroke="#9a32cd" stroke-dasharray="5,2" d="M237.7354,-117.8044C294.9439,-112.9104 380.7692,-105.5684 441.9626,-100.3336"/>
<polygon fill="#9a32cd" stroke="#9a32cd" points="237.417,-114.3187 227.7517,-118.6584 238.0137,-121.2932 237.417,-114.3187"/>
<text text-anchor="middle" x="341" y="-119" font-family="Helvetica,sans-Serif" font-size="10.00" fill="#000000"> ptr</text>
</g>
<!-- Node16 -->
<g id="node16" class="node">
<title>Node16</title>
<g id="a_node16"><a xlink:title=" ">
<polygon fill="#ffffff" stroke="#bfbfbf" points="0,-193.5 0,-212.5 29,-212.5 29,-193.5 0,-193.5"/>
<text text-anchor="middle" x="14.5" y="-200.5" font-family="Helvetica,sans-Serif" font-size="10.00" fill="#000000">K</text>
</a>
</g>
</g>
<!-- Node16&#45;&gt;Node15 -->
<g id="edge15" class="edge">
<title>Node16&#45;&gt;Node15</title>
<path fill="none" stroke="#9a32cd" stroke-dasharray="5,2" d="M38.244,-189.4906C41.1702,-187.9323 44.138,-186.4014 47,-185 68.2794,-174.5803 74.5304,-174.0219 96,-164 117.8514,-153.7999 142.5162,-141.1472 158.8263,-132.6169"/>
<polygon fill="#9a32cd" stroke="#9a32cd" points="36.3061,-186.5614 29.2185,-194.4365 39.6701,-192.7001 36.3061,-186.5614"/>
<text text-anchor="middle" x="71.5" y="-188" font-family="Helvetica,sans-Serif" font-size="10.00" fill="#000000"> keys</text>
</g>
<!-- Node16&#45;&gt;Node19 -->
<g id="edge22" class="edge">
<title>Node16&#45;&gt;Node19</title>
<path fill="none" stroke="#9a32cd" stroke-dasharray="5,2" d="M39.4841,-201.9447C55.6319,-201.1449 77.0868,-199.8618 96,-198 101.7906,-197.43 107.804,-196.7604 113.8204,-196.0377"/>
<polygon fill="#9a32cd" stroke="#9a32cd" points="39.0751,-198.4599 29.2492,-202.4224 39.4015,-205.4523 39.0751,-198.4599"/>
<text text-anchor="middle" x="71.5" y="-204" font-family="Helvetica,sans-Serif" font-size="10.00" fill="#000000"> keys</text>
</g>
<!-- Node17&#45;&gt;Node14 -->
<g id="edge17" class="edge">
<title>Node17&#45;&gt;Node14</title>
<path fill="none" stroke="#ffa500" stroke-dasharray="5,2" d="M246.4288,-85.4183C295.9388,-85.8891 364.078,-86.8873 424,-89 429.7549,-89.2029 435.7106,-89.4476 441.6968,-89.7184"/>
<polygon fill="#ffa500" stroke="#ffa500" points="246.1875,-81.9161 236.1563,-85.3257 246.1243,-88.9158 246.1875,-81.9161"/>
<text text-anchor="middle" x="341" y="-92" font-family="Helvetica,sans-Serif" font-size="10.00" fill="#000000"> &lt; MetaDataDictionaryMapType &gt;</text>
</g>
<!-- Node18&#45;&gt;Node6 -->
<g id="edge19" class="edge">
<title>Node18&#45;&gt;Node6</title>
<path fill="none" stroke="#9a32cd" stroke-dasharray="5,2" d="M712.4241,-55.7882C793.6233,-59.8006 940.9041,-67.0785 1006.9159,-70.3404"/>
<polygon fill="#9a32cd" stroke="#9a32cd" points="712.5403,-52.2897 702.3797,-55.2918 712.1947,-59.2812 712.5403,-52.2897"/>
<text text-anchor="middle" x="788.5" y="-66" font-family="Helvetica,sans-Serif" font-size="10.00" fill="#000000"> m_MTime</text>
</g>
<!-- Node19&#45;&gt;Node5 -->
<g id="edge21" class="edge">
<title>Node19&#45;&gt;Node5</title>
<path fill="none" stroke="#ffa500" stroke-dasharray="5,2" d="M250.3807,-187C319.0435,-187 424.472,-187 516,-187 516,-187 516,-187 1040.5,-187 1103.2997,-187 1167.8593,-146.3449 1202.4263,-120.6178"/>
<polygon fill="#ffa500" stroke="#ffa500" points="250.1039,-183.5001 240.1039,-187 250.1039,-190.5001 250.1039,-183.5001"/>
<text text-anchor="start" x="735.5" y="-201" font-family="Helvetica,sans-Serif" font-size="10.00" fill="#000000"> &lt; itk::Object *, std</text>
<text text-anchor="middle" x="788.5" y="-190" font-family="Helvetica,sans-Serif" font-size="10.00" fill="#000000">::function&lt; void()&gt; &gt;</text>
</g>
<!-- Node20&#45;&gt;Node1 -->
<g id="edge25" class="edge">
<title>Node20&#45;&gt;Node1</title>
<path fill="none" stroke="#9a32cd" stroke-dasharray="5,2" d="M1458.1833,-71.2597C1576.747,-75.4668 1830.1115,-84.4572 1949.5947,-88.6969"/>
<polygon fill="#9a32cd" stroke="#9a32cd" points="1458.2845,-67.7612 1448.1666,-70.9043 1458.0362,-74.7568 1458.2845,-67.7612"/>
<text text-anchor="middle" x="1718.5" y="-86" font-family="Helvetica,sans-Serif" font-size="10.00" fill="#000000"> m_OutputWindow</text>
</g>
</g>
</svg>
        <g id="navigator" transform="translate(0 0)" fill="#404254">
                <rect fill="#f2f5e9" fill-opacity="0.5" stroke="#606060" stroke-width=".5" x="0" y="0" width="60" height="60"/>
                <use id="zoomplus" xlink:href="#zoomPlus" x="17" y="9" onmousedown="handleZoom(evt,'in')"/>
                <use id="zoomminus" xlink:href="#zoomMin" x="42" y="9" onmousedown="handleZoom(evt,'out')"/>
                <use id="reset" xlink:href="#resetDef" x="30" y="36" onmousedown="handleReset()"/>
                <g id="arrowUp" xlink:href="#dirArrow" transform="translate(30 24)" onmousedown="handlePan(0,-1)">
                  <use xlink:href="#rim" fill="#404040">
                        <set attributeName="fill" to="#808080" begin="arrowUp.mouseover" end="arrowUp.mouseout"/>
                  </use>
                  <path fill="none" stroke="white" stroke-width="1.5" d="M0,-3.0v7 M-2.5,-0.5L0,-3.0L2.5,-0.5"/>
                </g>
                <g id="arrowRight" xlink:href="#dirArrow" transform="rotate(90) translate(36 -43)" onmousedown="handlePan(1,0)">
                  <use xlink:href="#rim" fill="#404040">
                        <set attributeName="fill" to="#808080" begin="arrowRight.mouseover" end="arrowRight.mouseout"/>
                  </use>
                  <path fill="none" stroke="white" stroke-width="1.5" d="M0,-3.0v7 M-2.5,-0.5L0,-3.0L2.5,-0.5"/>
                </g>
                <g id="arrowDown" xlink:href="#dirArrow" transform="rotate(180) translate(-30 -48)" onmousedown="handlePan(0,1)">
                  <use xlink:href="#rim" fill="#404040">
                        <set attributeName="fill" to="#808080" begin="arrowDown.mouseover" end="arrowDown.mouseout"/>
                  </use>
                  <path fill="none" stroke="white" stroke-width="1.5" d="M0,-3.0v7 M-2.5,-0.5L0,-3.0L2.5,-0.5"/>
                </g>
                <g id="arrowLeft" xlink:href="#dirArrow" transform="rotate(270) translate(-36 17)" onmousedown="handlePan(-1,0)">
                  <use xlink:href="#rim" fill="#404040">
                        <set attributeName="fill" to="#808080" begin="arrowLeft.mouseover" end="arrowLeft.mouseout"/>
                  </use>
                  <path fill="none" stroke="white" stroke-width="1.5" d="M0,-3.0v7 M-2.5,-0.5L0,-3.0L2.5,-0.5"/>
                </g>
        </g>
        <svg viewBox="0 0 15 15" width="100%" height="30px" preserveAspectRatio="xMaxYMin meet">
         <g id="arrow_out" transform="scale(0.3 0.3)">
          <a xlink:href="classitk_1_1simple_1_1SITK__FINAL__coll__graph_org.svg" target="_base">
           <rect id="button" ry="5" rx="5" y="6" x="6" height="38" width="38"
                fill="#f2f5e9" fill-opacity="0.5" stroke="#606060" stroke-width="1.0"/>
           <path id="arrow"
             d="M 11.500037,31.436501 C 11.940474,20.09759 22.043105,11.32322 32.158766,21.979434 L 37.068811,17.246167 C 37.068811,17.246167 37.088388,32 37.088388,32 L 22.160133,31.978069 C 22.160133,31.978069 26.997745,27.140456 26.997745,27.140456 C 18.528582,18.264221 13.291696,25.230495 11.500037,31.436501 z"
             style="fill:#404040;"/>
          </a>
         </g>
        </svg>
</svg>
