<?xml version="1.0" encoding="UTF-8" standalone="no"?>
<!DOCTYPE svg PUBLIC "-//W3C//DTD SVG 1.1//EN"
 "http://www.w3.org/Graphics/SVG/1.1/DTD/svg11.dtd">
<!-- Generated by graphviz version 2.43.0 (0)
 -->
<!-- Title: itk::simple::ProcessObject Pages: 1 -->
<svg width="3195pt" height="651pt"
 viewBox="0.00 0.00 3195.00 650.50" xmlns="http://www.w3.org/2000/svg" xmlns:xlink="http://www.w3.org/1999/xlink">
<g id="graph0" class="graph" transform="scale(1 1) rotate(0) translate(4 646.5)">
<title>itk::simple::ProcessObject</title>
<polygon fill="white" stroke="transparent" points="-4,4 -4,-646.5 3191,-646.5 3191,4 -4,4"/>
<!-- Node1 -->
<g id="node1" class="node">
<title>Node1</title>
<g id="a_node1"><a xlink:title="Base class for SimpleITK classes based on ProcessObject.">
<polygon fill="#bfbfbf" stroke="black" points="3044,-473 3044,-492 3187,-492 3187,-473 3044,-473"/>
<text text-anchor="middle" x="3115.5" y="-480" font-family="Helvetica,sans-Serif" font-size="10.00">itk::simple::ProcessObject</text>
</a>
</g>
</g>
<!-- Node2 -->
<g id="node2" class="node">
<title>Node2</title>
<g id="a_node2"><a xlink:href="classitk_1_1simple_1_1NonCopyable.html" target="_top" xlink:title="An inheritable class to disable copying of a class.">
<polygon fill="white" stroke="black" points="1736,-518 1736,-537 1876,-537 1876,-518 1736,-518"/>
<text text-anchor="middle" x="1806" y="-525" font-family="Helvetica,sans-Serif" font-size="10.00">itk::simple::NonCopyable</text>
</a>
</g>
</g>
<!-- Node2&#45;&gt;Node1 -->
<g id="edge1" class="edge">
<title>Node2&#45;&gt;Node1</title>
<path fill="none" stroke="darkgreen" d="M1886.21,-527.5C1955.94,-527.5 2060.21,-527.5 2151,-527.5 2151,-527.5 2151,-527.5 2841.5,-527.5 2927.96,-527.5 3027.8,-505.25 3079.47,-492.04"/>
<polygon fill="darkgreen" stroke="darkgreen" points="1886.18,-524 1876.18,-527.5 1886.18,-531 1886.18,-524"/>
</g>
<!-- Node6 -->
<g id="node6" class="node">
<title>Node6</title>
<g id="a_node6"><a xlink:href="classitk_1_1simple_1_1ObjectOwnedBase.html" target="_top" xlink:title="An abstract base class to connect this object with the lifetime of another.">
<polygon fill="white" stroke="black" points="2070,-467 2070,-486 2234,-486 2234,-467 2070,-467"/>
<text text-anchor="middle" x="2152" y="-474" font-family="Helvetica,sans-Serif" font-size="10.00">itk::simple::ObjectOwnedBase</text>
</a>
</g>
</g>
<!-- Node2&#45;&gt;Node6 -->
<g id="edge6" class="edge">
<title>Node2&#45;&gt;Node6</title>
<path fill="none" stroke="midnightblue" d="M1881.29,-516.49C1942.5,-507.41 2028.43,-494.67 2086.72,-486.03"/>
<polygon fill="midnightblue" stroke="midnightblue" points="1880.68,-513.04 1871.3,-517.97 1881.71,-519.96 1880.68,-513.04"/>
</g>
<!-- Node3 -->
<g id="node3" class="node">
<title>Node3</title>
<g id="a_node3"><a xlink:title=" ">
<polygon fill="white" stroke="#bfbfbf" points="2747,-467.5 2747,-497.5 2934,-497.5 2934,-467.5 2747,-467.5"/>
<text text-anchor="start" x="2755" y="-485.5" font-family="Helvetica,sans-Serif" font-size="10.00">std::list&lt; itk::simple</text>
<text text-anchor="middle" x="2840.5" y="-474.5" font-family="Helvetica,sans-Serif" font-size="10.00">::ProcessObject::EventCommand &gt;</text>
</a>
</g>
</g>
<!-- Node3&#45;&gt;Node1 -->
<g id="edge2" class="edge">
<title>Node3&#45;&gt;Node1</title>
<path fill="none" stroke="#9a32cd" stroke-dasharray="5,2" d="M2944.5,-482.5C2977.67,-482.5 3013.66,-482.5 3043.95,-482.5"/>
<polygon fill="#9a32cd" stroke="#9a32cd" points="2944.31,-479 2934.31,-482.5 2944.31,-486 2944.31,-479"/>
<text text-anchor="middle" x="2989" y="-485.5" font-family="Helvetica,sans-Serif" font-size="10.00"> m_Commands</text>
</g>
<!-- Node4 -->
<g id="node4" class="node">
<title>Node4</title>
<g id="a_node4"><a xlink:href="structitk_1_1simple_1_1ProcessObject_1_1EventCommand.html" target="_top" xlink:title=" ">
<polygon fill="white" stroke="black" points="2519,-464.5 2519,-494.5 2662,-494.5 2662,-464.5 2519,-464.5"/>
<text text-anchor="start" x="2527" y="-482.5" font-family="Helvetica,sans-Serif" font-size="10.00">itk::simple::ProcessObject</text>
<text text-anchor="middle" x="2590.5" y="-471.5" font-family="Helvetica,sans-Serif" font-size="10.00">::EventCommand</text>
</a>
</g>
</g>
<!-- Node4&#45;&gt;Node3 -->
<g id="edge3" class="edge">
<title>Node4&#45;&gt;Node3</title>
<path fill="none" stroke="#9a32cd" stroke-dasharray="5,2" d="M2672.29,-480.48C2696.12,-480.77 2722.38,-481.08 2746.89,-481.38"/>
<polygon fill="#9a32cd" stroke="#9a32cd" points="2672.28,-476.98 2662.23,-480.36 2672.19,-483.98 2672.28,-476.98"/>
<text text-anchor="middle" x="2704.5" y="-483.5" font-family="Helvetica,sans-Serif" font-size="10.00"> elements</text>
</g>
<!-- Node5 -->
<g id="node5" class="node">
<title>Node5</title>
<g id="a_node5"><a xlink:href="classitk_1_1simple_1_1Command.html" target="_top" xlink:title="An implementation of the Command design pattern for callback.">
<polygon fill="white" stroke="black" points="2271,-468 2271,-487 2396,-487 2396,-468 2271,-468"/>
<text text-anchor="middle" x="2333.5" y="-475" font-family="Helvetica,sans-Serif" font-size="10.00">itk::simple::Command</text>
</a>
</g>
</g>
<!-- Node5&#45;&gt;Node4 -->
<g id="edge4" class="edge">
<title>Node5&#45;&gt;Node4</title>
<path fill="none" stroke="#9a32cd" stroke-dasharray="5,2" d="M2406.43,-478.06C2441.63,-478.34 2483.85,-478.67 2518.88,-478.95"/>
<polygon fill="#9a32cd" stroke="#9a32cd" points="2406.26,-474.56 2396.23,-477.98 2406.2,-481.56 2406.26,-474.56"/>
<text text-anchor="middle" x="2457.5" y="-481.5" font-family="Helvetica,sans-Serif" font-size="10.00"> m_Command</text>
</g>
<!-- Node6&#45;&gt;Node5 -->
<g id="edge5" class="edge">
<title>Node6&#45;&gt;Node5</title>
<path fill="none" stroke="midnightblue" d="M2244.25,-477.01C2253.27,-477.06 2262.26,-477.11 2270.87,-477.16"/>
<polygon fill="midnightblue" stroke="midnightblue" points="2244.1,-473.51 2234.09,-476.95 2244.07,-480.51 2244.1,-473.51"/>
</g>
<!-- Node7 -->
<g id="node7" class="node">
<title>Node7</title>
<g id="a_node7"><a xlink:title=" ">
<polygon fill="white" stroke="#bfbfbf" points="1741.5,-457 1741.5,-498 1870.5,-498 1870.5,-457 1741.5,-457"/>
<text text-anchor="start" x="1749.5" y="-486" font-family="Helvetica,sans-Serif" font-size="10.00">std::multimap&lt; itk</text>
<text text-anchor="start" x="1749.5" y="-475" font-family="Helvetica,sans-Serif" font-size="10.00">::Object *, std::function</text>
<text text-anchor="middle" x="1806" y="-464" font-family="Helvetica,sans-Serif" font-size="10.00">&lt; void()&gt; &gt;</text>
</a>
</g>
</g>
<!-- Node7&#45;&gt;Node6 -->
<g id="edge7" class="edge">
<title>Node7&#45;&gt;Node6</title>
<path fill="none" stroke="#9a32cd" stroke-dasharray="5,2" d="M1881.03,-477.28C1936.59,-477.12 2012.62,-476.9 2069.84,-476.74"/>
<polygon fill="#9a32cd" stroke="#9a32cd" points="1880.89,-473.79 1870.9,-477.31 1880.91,-480.79 1880.89,-473.79"/>
<text text-anchor="middle" x="1973" y="-479.5" font-family="Helvetica,sans-Serif" font-size="10.00"> m_ReferencedObjectsCallbacks</text>
</g>
<!-- Node8 -->
<g id="node8" class="node">
<title>Node8</title>
<g id="a_node8"><a xlink:href="https://www.itk.org/Doxygen/html/classitk_1_1Object.html" xlink:title=" ">
<polygon fill="white" stroke="black" points="1440,-468 1440,-487 1507,-487 1507,-468 1440,-468"/>
<text text-anchor="middle" x="1473.5" y="-475" font-family="Helvetica,sans-Serif" font-size="10.00">itk::Object</text>
</a>
</g>
</g>
<!-- Node8&#45;&gt;Node7 -->
<g id="edge8" class="edge">
<title>Node8&#45;&gt;Node7</title>
<path fill="none" stroke="#9a32cd" stroke-dasharray="5,2" d="M1517.19,-477.5C1574.15,-477.5 1675.46,-477.5 1741.42,-477.5"/>
<polygon fill="#9a32cd" stroke="#9a32cd" points="1517.09,-474 1507.09,-477.5 1517.09,-481 1517.09,-474"/>
<text text-anchor="middle" x="1647" y="-480.5" font-family="Helvetica,sans-Serif" font-size="10.00"> keys</text>
</g>
<!-- Node26 -->
<g id="node26" class="node">
<title>Node26</title>
<g id="a_node26"><a xlink:href="https://www.itk.org/Doxygen/html/classitk_1_1ProcessObject.html" xlink:title=" ">
<polygon fill="white" stroke="black" points="1754,-258 1754,-277 1858,-277 1858,-258 1754,-258"/>
<text text-anchor="middle" x="1806" y="-265" font-family="Helvetica,sans-Serif" font-size="10.00">itk::ProcessObject</text>
</a>
</g>
</g>
<!-- Node8&#45;&gt;Node26 -->
<g id="edge36" class="edge">
<title>Node8&#45;&gt;Node26</title>
<path fill="none" stroke="midnightblue" d="M1496.77,-461.84C1514.29,-449 1538.87,-429.87 1558,-410.5 1567.12,-401.27 1564.94,-394.29 1576,-387.5 1630.82,-353.84 1661.67,-390.57 1718,-359.5 1755.54,-338.8 1786.37,-296.25 1798.93,-277.16"/>
<polygon fill="midnightblue" stroke="midnightblue" points="1494.37,-459.25 1488.31,-467.94 1498.47,-464.92 1494.37,-459.25"/>
</g>
<!-- Node9 -->
<g id="node9" class="node">
<title>Node9</title>
<g id="a_node9"><a xlink:href="https://www.itk.org/Doxygen/html/classitk_1_1LightObject.html" xlink:title=" ">
<polygon fill="white" stroke="black" points="1097,-436 1097,-455 1188,-455 1188,-436 1097,-436"/>
<text text-anchor="middle" x="1142.5" y="-443" font-family="Helvetica,sans-Serif" font-size="10.00">itk::LightObject</text>
</a>
</g>
</g>
<!-- Node9&#45;&gt;Node8 -->
<g id="edge9" class="edge">
<title>Node9&#45;&gt;Node8</title>
<path fill="none" stroke="midnightblue" d="M1189.69,-458.01C1196.89,-460.3 1204.2,-462.82 1211,-465.5 1219.32,-468.78 1220.31,-472.39 1229,-474.5 1302.54,-492.34 1392.29,-486.7 1439.62,-481.69"/>
<polygon fill="midnightblue" stroke="midnightblue" points="1190.57,-454.62 1179.98,-455.04 1188.52,-461.31 1190.57,-454.62"/>
</g>
<!-- Node10 -->
<g id="node10" class="node">
<title>Node10</title>
<g id="a_node10"><a xlink:title=" ">
<polygon fill="white" stroke="#bfbfbf" points="766,-431 766,-450 873,-450 873,-431 766,-431"/>
<text text-anchor="middle" x="819.5" y="-438" font-family="Helvetica,sans-Serif" font-size="10.00">std::atomic&lt; int &gt;</text>
</a>
</g>
</g>
<!-- Node10&#45;&gt;Node9 -->
<g id="edge10" class="edge">
<title>Node10&#45;&gt;Node9</title>
<path fill="none" stroke="#9a32cd" stroke-dasharray="5,2" d="M883.33,-441.48C946.2,-442.46 1041.33,-443.94 1096.85,-444.8"/>
<polygon fill="#9a32cd" stroke="#9a32cd" points="883.2,-437.98 873.15,-441.32 883.09,-444.98 883.2,-437.98"/>
<text text-anchor="middle" x="982.5" y="-446.5" font-family="Helvetica,sans-Serif" font-size="10.00"> m_ReferenceCount</text>
</g>
<!-- Node11 -->
<g id="node11" class="node">
<title>Node11</title>
<g id="a_node11"><a xlink:title="STL class.">
<polygon fill="white" stroke="#bfbfbf" points="495.5,-393 495.5,-412 595.5,-412 595.5,-393 495.5,-393"/>
<text text-anchor="middle" x="545.5" y="-400" font-family="Helvetica,sans-Serif" font-size="10.00">std::atomic&lt; T &gt;</text>
</a>
</g>
</g>
<!-- Node11&#45;&gt;Node10 -->
<g id="edge11" class="edge">
<title>Node11&#45;&gt;Node10</title>
<path fill="none" stroke="orange" stroke-dasharray="5,2" d="M605.95,-410.81C653.68,-417.47 720.08,-426.75 765.9,-433.15"/>
<polygon fill="orange" stroke="orange" points="606.15,-407.3 595.76,-409.38 605.18,-414.23 606.15,-407.3"/>
<text text-anchor="middle" x="689" y="-429.5" font-family="Helvetica,sans-Serif" font-size="10.00"> &lt; int &gt;</text>
</g>
<!-- Node23 -->
<g id="node23" class="node">
<title>Node23</title>
<g id="a_node23"><a xlink:href="https://www.itk.org/Doxygen/html/classitk_1_1TimeStamp.html" xlink:title=" ">
<polygon fill="white" stroke="black" points="1096.5,-398 1096.5,-417 1188.5,-417 1188.5,-398 1096.5,-398"/>
<text text-anchor="middle" x="1142.5" y="-405" font-family="Helvetica,sans-Serif" font-size="10.00">itk::TimeStamp</text>
</a>
</g>
</g>
<!-- Node11&#45;&gt;Node23 -->
<g id="edge28" class="edge">
<title>Node11&#45;&gt;Node23</title>
<path fill="none" stroke="#9a32cd" stroke-dasharray="5,2" d="M605.71,-403C724.63,-404 990.16,-406.23 1096.35,-407.12"/>
<polygon fill="#9a32cd" stroke="#9a32cd" points="605.73,-399.5 595.7,-402.91 605.67,-406.5 605.73,-399.5"/>
<text text-anchor="middle" x="819.5" y="-407.5" font-family="Helvetica,sans-Serif" font-size="10.00"> m_GlobalTimeStamp</text>
</g>
<!-- Node30 -->
<g id="node30" class="node">
<title>Node30</title>
<g id="a_node30"><a xlink:title=" ">
<polygon fill="white" stroke="#bfbfbf" points="915.5,-353 915.5,-372 1049.5,-372 1049.5,-353 915.5,-353"/>
<text text-anchor="middle" x="982.5" y="-360" font-family="Helvetica,sans-Serif" font-size="10.00">std::atomic&lt; uint32_t &gt;</text>
</a>
</g>
</g>
<!-- Node11&#45;&gt;Node30 -->
<g id="edge45" class="edge">
<title>Node11&#45;&gt;Node30</title>
<path fill="none" stroke="orange" stroke-dasharray="5,2" d="M586.65,-390.15C605.15,-385 627.5,-379.52 648,-376.5 740.02,-362.94 847.74,-360.88 915.31,-361.23"/>
<polygon fill="orange" stroke="orange" points="585.46,-386.85 576.81,-392.97 587.39,-393.58 585.46,-386.85"/>
<text text-anchor="middle" x="689" y="-379.5" font-family="Helvetica,sans-Serif" font-size="10.00"> &lt; uint32_t &gt;</text>
</g>
<!-- Node12 -->
<g id="node12" class="node">
<title>Node12</title>
<g id="a_node12"><a xlink:title=" ">
<polygon fill="white" stroke="#bfbfbf" points="0,-439 0,-458 29,-458 29,-439 0,-439"/>
<text text-anchor="middle" x="14.5" y="-446" font-family="Helvetica,sans-Serif" font-size="10.00">T</text>
</a>
</g>
</g>
<!-- Node12&#45;&gt;Node11 -->
<g id="edge12" class="edge">
<title>Node12&#45;&gt;Node11</title>
<path fill="none" stroke="#9a32cd" stroke-dasharray="5,2" d="M38.9,-439.5C58.6,-432.37 87.7,-422.92 114,-418.5 250.64,-395.55 414.95,-397.44 495.34,-400.23"/>
<polygon fill="#9a32cd" stroke="#9a32cd" points="37.42,-436.31 29.26,-443.07 39.85,-442.88 37.42,-436.31"/>
<text text-anchor="middle" x="185.5" y="-421.5" font-family="Helvetica,sans-Serif" font-size="10.00"> ptr</text>
</g>
<!-- Node16 -->
<g id="node16" class="node">
<title>Node16</title>
<g id="a_node16"><a xlink:title="STL class.">
<polygon fill="white" stroke="#bfbfbf" points="135,-248 135,-267 236,-267 236,-248 135,-248"/>
<text text-anchor="middle" x="185.5" y="-255" font-family="Helvetica,sans-Serif" font-size="10.00">std::map&lt; K, T &gt;</text>
</a>
</g>
</g>
<!-- Node12&#45;&gt;Node16 -->
<g id="edge18" class="edge">
<title>Node12&#45;&gt;Node16</title>
<path fill="none" stroke="#9a32cd" stroke-dasharray="5,2" d="M16.15,-428.76C17.93,-403.65 24.34,-360.1 47,-331.5 73.52,-298.03 119.45,-277.74 150.87,-267.07"/>
<polygon fill="#9a32cd" stroke="#9a32cd" points="12.64,-428.72 15.61,-438.89 19.63,-429.09 12.64,-428.72"/>
<text text-anchor="middle" x="71.5" y="-334.5" font-family="Helvetica,sans-Serif" font-size="10.00"> elements</text>
</g>
<!-- Node18 -->
<g id="node18" class="node">
<title>Node18</title>
<g id="a_node18"><a xlink:title="STL class.">
<polygon fill="white" stroke="#bfbfbf" points="126.5,-439 126.5,-458 244.5,-458 244.5,-439 126.5,-439"/>
<text text-anchor="middle" x="185.5" y="-446" font-family="Helvetica,sans-Serif" font-size="10.00">std::shared_ptr&lt; T &gt;</text>
</a>
</g>
</g>
<!-- Node12&#45;&gt;Node18 -->
<g id="edge20" class="edge">
<title>Node12&#45;&gt;Node18</title>
<path fill="none" stroke="#9a32cd" stroke-dasharray="5,2" d="M39.31,-448.5C61.78,-448.5 96.37,-448.5 126.14,-448.5"/>
<polygon fill="#9a32cd" stroke="#9a32cd" points="39.04,-445 29.04,-448.5 39.04,-452 39.04,-445"/>
<text text-anchor="middle" x="71.5" y="-451.5" font-family="Helvetica,sans-Serif" font-size="10.00"> ptr</text>
</g>
<!-- Node19 -->
<g id="node19" class="node">
<title>Node19</title>
<g id="a_node19"><a xlink:title="STL class.">
<polygon fill="white" stroke="#bfbfbf" points="760.5,-507 760.5,-526 878.5,-526 878.5,-507 760.5,-507"/>
<text text-anchor="middle" x="819.5" y="-514" font-family="Helvetica,sans-Serif" font-size="10.00">std::unique_ptr&lt; T &gt;</text>
</a>
</g>
</g>
<!-- Node12&#45;&gt;Node19 -->
<g id="edge22" class="edge">
<title>Node12&#45;&gt;Node19</title>
<path fill="none" stroke="#9a32cd" stroke-dasharray="5,2" d="M38.39,-460.6C41.23,-461.74 44.14,-462.75 47,-463.5 306.08,-531.45 629.89,-525.68 760.21,-519.82"/>
<polygon fill="#9a32cd" stroke="#9a32cd" points="39.73,-457.37 29.18,-456.39 36.82,-463.73 39.73,-457.37"/>
<text text-anchor="middle" x="359" y="-521.5" font-family="Helvetica,sans-Serif" font-size="10.00"> ptr</text>
</g>
<!-- Node24 -->
<g id="node24" class="node">
<title>Node24</title>
<g id="a_node24"><a xlink:title="STL class.">
<polygon fill="white" stroke="#bfbfbf" points="122.5,-523 122.5,-542 248.5,-542 248.5,-523 122.5,-523"/>
<text text-anchor="middle" x="185.5" y="-530" font-family="Helvetica,sans-Serif" font-size="10.00">std::multimap&lt; K, T &gt;</text>
</a>
</g>
</g>
<!-- Node12&#45;&gt;Node24 -->
<g id="edge31" class="edge">
<title>Node12&#45;&gt;Node24</title>
<path fill="none" stroke="#9a32cd" stroke-dasharray="5,2" d="M20.8,-468.19C25.47,-481.65 33.65,-498.76 47,-508.5 68.54,-524.21 96.95,-530.85 122.36,-533.31"/>
<polygon fill="#9a32cd" stroke="#9a32cd" points="24.07,-466.91 17.78,-458.38 17.38,-468.97 24.07,-466.91"/>
<text text-anchor="middle" x="71.5" y="-531.5" font-family="Helvetica,sans-Serif" font-size="10.00"> elements</text>
</g>
<!-- Node25 -->
<g id="node25" class="node">
<title>Node25</title>
<g id="a_node25"><a xlink:title="STL class.">
<polygon fill="white" stroke="#bfbfbf" points="318.5,-604 318.5,-623 399.5,-623 399.5,-604 318.5,-604"/>
<text text-anchor="middle" x="359" y="-611" font-family="Helvetica,sans-Serif" font-size="10.00">std::list&lt; T &gt;</text>
</a>
</g>
</g>
<!-- Node12&#45;&gt;Node25 -->
<g id="edge34" class="edge">
<title>Node12&#45;&gt;Node25</title>
<path fill="none" stroke="#9a32cd" stroke-dasharray="5,2" d="M16.54,-468.24C18.77,-489.86 25.68,-524.05 47,-543.5 123.15,-612.97 253.11,-618.41 318.28,-616.21"/>
<polygon fill="#9a32cd" stroke="#9a32cd" points="20.02,-467.92 15.75,-458.22 13.05,-468.47 20.02,-467.92"/>
<text text-anchor="middle" x="71.5" y="-577.5" font-family="Helvetica,sans-Serif" font-size="10.00"> elements</text>
</g>
<!-- Node33 -->
<g id="node33" class="node">
<title>Node33</title>
<g id="a_node33"><a xlink:title="STL class.">
<polygon fill="white" stroke="#bfbfbf" points="137,-100 137,-119 234,-119 234,-100 137,-100"/>
<text text-anchor="middle" x="185.5" y="-107" font-family="Helvetica,sans-Serif" font-size="10.00">std::vector&lt; T &gt;</text>
</a>
</g>
</g>
<!-- Node12&#45;&gt;Node33 -->
<g id="edge49" class="edge">
<title>Node12&#45;&gt;Node33</title>
<path fill="none" stroke="#9a32cd" stroke-dasharray="5,2" d="M15.94,-428.61C17.32,-391.09 23.07,-307.76 47,-242.5 66.58,-189.11 69.57,-168.99 114,-133.5 121.88,-127.21 131.5,-122.52 141.08,-119.05"/>
<polygon fill="#9a32cd" stroke="#9a32cd" points="12.43,-428.62 15.63,-438.72 19.43,-428.83 12.43,-428.62"/>
<text text-anchor="middle" x="71.5" y="-245.5" font-family="Helvetica,sans-Serif" font-size="10.00"> elements</text>
</g>
<!-- Node13 -->
<g id="node13" class="node">
<title>Node13</title>
<g id="a_node13"><a xlink:title=" ">
<polygon fill="white" stroke="#bfbfbf" points="1076.5,-474.5 1076.5,-504.5 1208.5,-504.5 1208.5,-474.5 1076.5,-474.5"/>
<text text-anchor="start" x="1084.5" y="-492.5" font-family="Helvetica,sans-Serif" font-size="10.00">std::unique_ptr&lt; itk</text>
<text text-anchor="middle" x="1142.5" y="-481.5" font-family="Helvetica,sans-Serif" font-size="10.00">::MetaDataDictionary &gt;</text>
</a>
</g>
</g>
<!-- Node13&#45;&gt;Node8 -->
<g id="edge13" class="edge">
<title>Node13&#45;&gt;Node8</title>
<path fill="none" stroke="#9a32cd" stroke-dasharray="5,2" d="M1218.99,-498.81C1222.37,-499.08 1225.72,-499.31 1229,-499.5 1292,-503.17 1308.25,-506.22 1371,-499.5 1394.31,-497 1420.12,-491.37 1439.88,-486.43"/>
<polygon fill="#9a32cd" stroke="#9a32cd" points="1219.05,-495.3 1208.79,-497.93 1218.45,-502.28 1219.05,-495.3"/>
<text text-anchor="middle" x="1300" y="-505.5" font-family="Helvetica,sans-Serif" font-size="10.00"> m_MetaDataDictionary</text>
</g>
<!-- Node14 -->
<g id="node14" class="node">
<title>Node14</title>
<g id="a_node14"><a xlink:href="https://www.itk.org/Doxygen/html/classitk_1_1MetaDataDictionary.html" xlink:title=" ">
<polygon fill="white" stroke="black" points="752.5,-469 752.5,-488 886.5,-488 886.5,-469 752.5,-469"/>
<text text-anchor="middle" x="819.5" y="-476" font-family="Helvetica,sans-Serif" font-size="10.00">itk::MetaDataDictionary</text>
</a>
</g>
</g>
<!-- Node14&#45;&gt;Node13 -->
<g id="edge14" class="edge">
<title>Node14&#45;&gt;Node13</title>
<path fill="none" stroke="#9a32cd" stroke-dasharray="5,2" d="M896.78,-476.03C942.91,-475.16 1002.89,-475.1 1056,-478.5 1062.57,-478.92 1069.41,-479.52 1076.23,-480.23"/>
<polygon fill="#9a32cd" stroke="#9a32cd" points="896.48,-472.54 886.55,-476.25 896.62,-479.54 896.48,-472.54"/>
<text text-anchor="middle" x="982.5" y="-481.5" font-family="Helvetica,sans-Serif" font-size="10.00"> ptr</text>
</g>
<!-- Node15 -->
<g id="node15" class="node">
<title>Node15</title>
<g id="a_node15"><a xlink:title=" ">
<polygon fill="white" stroke="#bfbfbf" points="471,-433.5 471,-463.5 620,-463.5 620,-433.5 471,-433.5"/>
<text text-anchor="start" x="479" y="-451.5" font-family="Helvetica,sans-Serif" font-size="10.00">std::shared_ptr&lt; MetaData</text>
<text text-anchor="middle" x="545.5" y="-440.5" font-family="Helvetica,sans-Serif" font-size="10.00">DictionaryMapType &gt;</text>
</a>
</g>
</g>
<!-- Node15&#45;&gt;Node14 -->
<g id="edge15" class="edge">
<title>Node15&#45;&gt;Node14</title>
<path fill="none" stroke="#9a32cd" stroke-dasharray="5,2" d="M630.19,-457.73C669.42,-462.06 715.51,-467.14 752.27,-471.2"/>
<polygon fill="#9a32cd" stroke="#9a32cd" points="630.43,-454.24 620.11,-456.62 629.66,-461.19 630.43,-454.24"/>
<text text-anchor="middle" x="689" y="-470.5" font-family="Helvetica,sans-Serif" font-size="10.00"> m_Dictionary</text>
</g>
<!-- Node16&#45;&gt;Node15 -->
<g id="edge16" class="edge">
<title>Node16&#45;&gt;Node15</title>
<path fill="none" stroke="#9a32cd" stroke-dasharray="5,2" d="M208.34,-272.9C253.64,-304.31 361.9,-376.57 461,-421.5 470.71,-425.9 481.36,-429.92 491.7,-433.43"/>
<polygon fill="#9a32cd" stroke="#9a32cd" points="210.1,-269.86 199.9,-267.01 206.1,-275.6 210.1,-269.86"/>
<text text-anchor="middle" x="359" y="-412.5" font-family="Helvetica,sans-Serif" font-size="10.00"> ptr</text>
</g>
<!-- Node29 -->
<g id="node29" class="node">
<title>Node29</title>
<g id="a_node29"><a xlink:title=" ">
<polygon fill="white" stroke="#bfbfbf" points="1389,-252.5 1389,-282.5 1558,-282.5 1558,-252.5 1389,-252.5"/>
<text text-anchor="start" x="1397" y="-270.5" font-family="Helvetica,sans-Serif" font-size="10.00">std::map&lt; DataObjectIdentifier</text>
<text text-anchor="middle" x="1473.5" y="-259.5" font-family="Helvetica,sans-Serif" font-size="10.00">Type, bool &gt;</text>
</a>
</g>
</g>
<!-- Node16&#45;&gt;Node29 -->
<g id="edge43" class="edge">
<title>Node16&#45;&gt;Node29</title>
<path fill="none" stroke="orange" stroke-dasharray="5,2" d="M246.42,-255.42C420.34,-249.85 940.26,-236.33 1371,-257.5 1376.84,-257.79 1382.85,-258.17 1388.91,-258.61"/>
<polygon fill="orange" stroke="orange" points="246.07,-251.93 236.19,-255.76 246.3,-258.93 246.07,-251.93"/>
<text text-anchor="start" x="750" y="-260.5" font-family="Helvetica,sans-Serif" font-size="10.00"> &lt; DataObjectIdentifierType,</text>
<text text-anchor="middle" x="819.5" y="-249.5" font-family="Helvetica,sans-Serif" font-size="10.00"> bool &gt;</text>
</g>
<!-- Node34 -->
<g id="node34" class="node">
<title>Node34</title>
<g id="a_node34"><a xlink:title=" ">
<polygon fill="white" stroke="#bfbfbf" points="1389,-145.5 1389,-175.5 1558,-175.5 1558,-145.5 1389,-145.5"/>
<text text-anchor="start" x="1397" y="-163.5" font-family="Helvetica,sans-Serif" font-size="10.00">std::map&lt; DataObjectIdentifier</text>
<text text-anchor="middle" x="1473.5" y="-152.5" font-family="Helvetica,sans-Serif" font-size="10.00">Type, DataObjectPointer &gt;</text>
</a>
</g>
</g>
<!-- Node16&#45;&gt;Node34 -->
<g id="edge54" class="edge">
<title>Node16&#45;&gt;Node34</title>
<path fill="none" stroke="orange" stroke-dasharray="5,2" d="M246.25,-247.76C369.65,-228.16 661.84,-184.38 909,-167.5 1079.09,-155.89 1278.7,-156.84 1388.84,-158.63"/>
<polygon fill="orange" stroke="orange" points="245.57,-244.33 236.24,-249.36 246.67,-251.24 245.57,-244.33"/>
<text text-anchor="start" x="750" y="-195.5" font-family="Helvetica,sans-Serif" font-size="10.00"> &lt; DataObjectIdentifierType,</text>
<text text-anchor="middle" x="819.5" y="-184.5" font-family="Helvetica,sans-Serif" font-size="10.00"> DataObjectPointer &gt;</text>
</g>
<!-- Node17 -->
<g id="node17" class="node">
<title>Node17</title>
<g id="a_node17"><a xlink:title=" ">
<polygon fill="white" stroke="#bfbfbf" points="0,-248 0,-267 29,-267 29,-248 0,-248"/>
<text text-anchor="middle" x="14.5" y="-255" font-family="Helvetica,sans-Serif" font-size="10.00">K</text>
</a>
</g>
</g>
<!-- Node17&#45;&gt;Node16 -->
<g id="edge17" class="edge">
<title>Node17&#45;&gt;Node16</title>
<path fill="none" stroke="#9a32cd" stroke-dasharray="5,2" d="M39.29,-257.5C64.02,-257.5 103.44,-257.5 134.98,-257.5"/>
<polygon fill="#9a32cd" stroke="#9a32cd" points="39.04,-254 29.04,-257.5 39.04,-261 39.04,-254"/>
<text text-anchor="middle" x="71.5" y="-260.5" font-family="Helvetica,sans-Serif" font-size="10.00"> keys</text>
</g>
<!-- Node17&#45;&gt;Node24 -->
<g id="edge30" class="edge">
<title>Node17&#45;&gt;Node24</title>
<path fill="none" stroke="#9a32cd" stroke-dasharray="5,2" d="M21.76,-276.7C27.64,-294.13 37.02,-320.41 47,-342.5 65.92,-384.36 74.36,-392.98 96,-433.5 104.05,-448.58 103.57,-453.96 114,-467.5 131.17,-489.79 156.39,-510.98 171.56,-522.8"/>
<polygon fill="#9a32cd" stroke="#9a32cd" points="25.05,-275.49 18.57,-267.11 18.4,-277.7 25.05,-275.49"/>
<text text-anchor="middle" x="71.5" y="-436.5" font-family="Helvetica,sans-Serif" font-size="10.00"> keys</text>
</g>
<!-- Node28 -->
<g id="node28" class="node">
<title>Node28</title>
<g id="a_node28"><a xlink:title="STL class.">
<polygon fill="white" stroke="#bfbfbf" points="648,-142 648,-161 730,-161 730,-142 648,-142"/>
<text text-anchor="middle" x="689" y="-149" font-family="Helvetica,sans-Serif" font-size="10.00">std::set&lt; K &gt;</text>
</a>
</g>
</g>
<!-- Node17&#45;&gt;Node28 -->
<g id="edge40" class="edge">
<title>Node17&#45;&gt;Node28</title>
<path fill="none" stroke="#9a32cd" stroke-dasharray="5,2" d="M38.96,-250.31C58.91,-244.21 88.32,-235.24 114,-227.5 185.49,-205.96 201.52,-192.77 275,-179.5 410.08,-155.1 573.49,-151.52 647.77,-151.28"/>
<polygon fill="#9a32cd" stroke="#9a32cd" points="37.73,-247.03 29.2,-253.3 39.78,-253.72 37.73,-247.03"/>
<text text-anchor="middle" x="185.5" y="-230.5" font-family="Helvetica,sans-Serif" font-size="10.00"> keys</text>
</g>
<!-- Node18&#45;&gt;Node15 -->
<g id="edge19" class="edge">
<title>Node18&#45;&gt;Node15</title>
<path fill="none" stroke="orange" stroke-dasharray="5,2" d="M254.85,-448.5C316.62,-448.5 407.3,-448.5 470.69,-448.5"/>
<polygon fill="orange" stroke="orange" points="254.82,-445 244.82,-448.5 254.82,-452 254.82,-445"/>
<text text-anchor="middle" x="359" y="-451.5" font-family="Helvetica,sans-Serif" font-size="10.00"> &lt; MetaDataDictionaryMapType &gt;</text>
</g>
<!-- Node19&#45;&gt;Node13 -->
<g id="edge21" class="edge">
<title>Node19&#45;&gt;Node13</title>
<path fill="none" stroke="orange" stroke-dasharray="5,2" d="M888.71,-510.76C944.12,-506.1 1021.77,-499.57 1076.35,-494.98"/>
<polygon fill="orange" stroke="orange" points="888.3,-507.28 878.63,-511.61 888.89,-514.26 888.3,-507.28"/>
<text text-anchor="middle" x="982.5" y="-511.5" font-family="Helvetica,sans-Serif" font-size="10.00"> &lt; itk::MetaDataDictionary &gt;</text>
</g>
<!-- Node22 -->
<g id="node22" class="node">
<title>Node22</title>
<g id="a_node22"><a xlink:title=" ">
<polygon fill="white" stroke="#bfbfbf" points="1074,-523.5 1074,-553.5 1211,-553.5 1211,-523.5 1074,-523.5"/>
<text text-anchor="start" x="1082" y="-541.5" font-family="Helvetica,sans-Serif" font-size="10.00">std::unique_ptr&lt; Subject</text>
<text text-anchor="middle" x="1142.5" y="-530.5" font-family="Helvetica,sans-Serif" font-size="10.00">Implementation &gt;</text>
</a>
</g>
</g>
<!-- Node19&#45;&gt;Node22 -->
<g id="edge26" class="edge">
<title>Node19&#45;&gt;Node22</title>
<path fill="none" stroke="orange" stroke-dasharray="5,2" d="M888.62,-521.99C895.5,-522.51 902.39,-523.03 909,-523.5 964.47,-527.48 1027.43,-531.51 1073.83,-534.39"/>
<polygon fill="orange" stroke="orange" points="888.81,-518.49 878.57,-521.21 888.27,-525.47 888.81,-518.49"/>
<text text-anchor="middle" x="982.5" y="-535.5" font-family="Helvetica,sans-Serif" font-size="10.00"> &lt; SubjectImplementation &gt;</text>
</g>
<!-- Node20 -->
<g id="node20" class="node">
<title>Node20</title>
<g id="a_node20"><a xlink:title="STL class.">
<polygon fill="white" stroke="#bfbfbf" points="1110,-301 1110,-320 1175,-320 1175,-301 1110,-301"/>
<text text-anchor="middle" x="1142.5" y="-308" font-family="Helvetica,sans-Serif" font-size="10.00">std::string</text>
</a>
</g>
</g>
<!-- Node20&#45;&gt;Node6 -->
<g id="edge32" class="edge">
<title>Node20&#45;&gt;Node6</title>
<path fill="none" stroke="#9a32cd" stroke-dasharray="5,2" d="M1185.01,-314.96C1259.79,-323.18 1422,-341.87 1558,-363.5 1763.71,-396.22 2007.44,-446.24 2106.16,-466.98"/>
<polygon fill="#9a32cd" stroke="#9a32cd" points="1185.37,-311.48 1175.05,-313.87 1184.61,-318.43 1185.37,-311.48"/>
<text text-anchor="middle" x="1647" y="-392.5" font-family="Helvetica,sans-Serif" font-size="10.00"> m_Name</text>
</g>
<!-- Node20&#45;&gt;Node8 -->
<g id="edge23" class="edge">
<title>Node20&#45;&gt;Node8</title>
<path fill="none" stroke="#9a32cd" stroke-dasharray="5,2" d="M1158.99,-327.57C1175.02,-344.27 1201.52,-369.35 1229,-384.5 1286.75,-416.33 1309.66,-403.29 1371,-427.5 1401.51,-439.54 1435.41,-457.15 1455.29,-467.94"/>
<polygon fill="#9a32cd" stroke="#9a32cd" points="1161.4,-325.02 1152.01,-320.12 1156.3,-329.81 1161.4,-325.02"/>
<text text-anchor="middle" x="1300" y="-430.5" font-family="Helvetica,sans-Serif" font-size="10.00"> m_ObjectName</text>
</g>
<!-- Node27 -->
<g id="node27" class="node">
<title>Node27</title>
<g id="a_node27"><a xlink:title=" ">
<polygon fill="white" stroke="#bfbfbf" points="1392.5,-203.5 1392.5,-233.5 1554.5,-233.5 1554.5,-203.5 1392.5,-203.5"/>
<text text-anchor="start" x="1400.5" y="-221.5" font-family="Helvetica,sans-Serif" font-size="10.00">std::set&lt; DataObjectIdentifier</text>
<text text-anchor="middle" x="1473.5" y="-210.5" font-family="Helvetica,sans-Serif" font-size="10.00">Type &gt;</text>
</a>
</g>
</g>
<!-- Node20&#45;&gt;Node27 -->
<g id="edge38" class="edge">
<title>Node20&#45;&gt;Node27</title>
<path fill="none" stroke="#9a32cd" stroke-dasharray="5,2" d="M1173.71,-296.76C1189.88,-289.76 1210.27,-281.48 1229,-275.5 1283.39,-258.12 1346.15,-243.56 1394.33,-233.5"/>
<polygon fill="#9a32cd" stroke="#9a32cd" points="1171.98,-293.7 1164.24,-300.93 1174.8,-300.11 1171.98,-293.7"/>
<text text-anchor="middle" x="1300" y="-278.5" font-family="Helvetica,sans-Serif" font-size="10.00"> keys</text>
</g>
<!-- Node20&#45;&gt;Node29 -->
<g id="edge42" class="edge">
<title>Node20&#45;&gt;Node29</title>
<path fill="none" stroke="#9a32cd" stroke-dasharray="5,2" d="M1185.42,-307.8C1231.2,-304.54 1306.57,-298.25 1371,-288.5 1382.03,-286.83 1393.67,-284.74 1404.98,-282.52"/>
<polygon fill="#9a32cd" stroke="#9a32cd" points="1185.02,-304.32 1175.28,-308.51 1185.5,-311.31 1185.02,-304.32"/>
<text text-anchor="middle" x="1300" y="-306.5" font-family="Helvetica,sans-Serif" font-size="10.00"> keys</text>
</g>
<!-- Node20&#45;&gt;Node34 -->
<g id="edge53" class="edge">
<title>Node20&#45;&gt;Node34</title>
<path fill="none" stroke="#9a32cd" stroke-dasharray="5,2" d="M1156.41,-292.73C1171.59,-273.11 1198.63,-242 1229,-224.5 1278.05,-196.24 1339.78,-180.2 1388.82,-171.24"/>
<polygon fill="#9a32cd" stroke="#9a32cd" points="1153.51,-290.75 1150.29,-300.85 1159.11,-294.97 1153.51,-290.75"/>
<text text-anchor="middle" x="1300" y="-227.5" font-family="Helvetica,sans-Serif" font-size="10.00"> keys</text>
</g>
<!-- Node21 -->
<g id="node21" class="node">
<title>Node21</title>
<g id="a_node21"><a xlink:title="STL class.">
<polygon fill="white" stroke="#bfbfbf" points="767.5,-295.5 767.5,-325.5 871.5,-325.5 871.5,-295.5 767.5,-295.5"/>
<text text-anchor="start" x="775.5" y="-313.5" font-family="Helvetica,sans-Serif" font-size="10.00">std::basic_string&lt;</text>
<text text-anchor="middle" x="819.5" y="-302.5" font-family="Helvetica,sans-Serif" font-size="10.00"> char &gt;</text>
</a>
</g>
</g>
<!-- Node21&#45;&gt;Node20 -->
<g id="edge24" class="edge">
<title>Node21&#45;&gt;Node20</title>
<path fill="none" stroke="midnightblue" d="M881.88,-310.5C949.95,-310.5 1057.11,-310.5 1109.92,-310.5"/>
<polygon fill="midnightblue" stroke="midnightblue" points="881.72,-307 871.72,-310.5 881.72,-314 881.72,-307"/>
</g>
<!-- Node22&#45;&gt;Node8 -->
<g id="edge25" class="edge">
<title>Node22&#45;&gt;Node8</title>
<path fill="none" stroke="#9a32cd" stroke-dasharray="5,2" d="M1221.15,-536.77C1265.53,-534.43 1321.96,-529.18 1371,-517.5 1400.67,-510.44 1433.16,-496.44 1453.2,-487.02"/>
<polygon fill="#9a32cd" stroke="#9a32cd" points="1220.82,-533.28 1211,-537.26 1221.16,-540.27 1220.82,-533.28"/>
<text text-anchor="middle" x="1300" y="-538.5" font-family="Helvetica,sans-Serif" font-size="10.00"> m_SubjectImplementation</text>
</g>
<!-- Node23&#45;&gt;Node8 -->
<g id="edge27" class="edge">
<title>Node23&#45;&gt;Node8</title>
<path fill="none" stroke="#9a32cd" stroke-dasharray="5,2" d="M1196.56,-420.29C1201.54,-422.13 1206.43,-424.19 1211,-426.5 1220.05,-431.07 1219.68,-436.52 1229,-440.5 1287.66,-465.57 1307.93,-451.87 1371,-461.5 1393.92,-465 1419.74,-469.07 1439.6,-472.23"/>
<polygon fill="#9a32cd" stroke="#9a32cd" points="1197.52,-416.93 1186.93,-417.04 1195.28,-423.56 1197.52,-416.93"/>
<text text-anchor="middle" x="1300" y="-464.5" font-family="Helvetica,sans-Serif" font-size="10.00"> m_MTime</text>
</g>
<!-- Node23&#45;&gt;Node26 -->
<g id="edge57" class="edge">
<title>Node23&#45;&gt;Node26</title>
<path fill="none" stroke="#9a32cd" stroke-dasharray="5,2" d="M1198.88,-402.87C1323.78,-391.9 1623.81,-362.47 1718,-325.5 1748.08,-313.69 1778.39,-290.27 1794.07,-277.08"/>
<polygon fill="#9a32cd" stroke="#9a32cd" points="1198.43,-399.4 1188.77,-403.75 1199.04,-406.37 1198.43,-399.4"/>
<text text-anchor="middle" x="1473.5" y="-385.5" font-family="Helvetica,sans-Serif" font-size="10.00"> m_OutputInformationMTime</text>
</g>
<!-- Node24&#45;&gt;Node7 -->
<g id="edge29" class="edge">
<title>Node24&#45;&gt;Node7</title>
<path fill="none" stroke="orange" stroke-dasharray="5,2" d="M237.77,-544.22C307,-559 434.37,-582.5 544.5,-582.5 544.5,-582.5 544.5,-582.5 1474.5,-582.5 1529.66,-582.5 1675.2,-528.7 1753.46,-498.12"/>
<polygon fill="orange" stroke="orange" points="238.1,-540.71 227.58,-542.02 236.62,-547.56 238.1,-540.71"/>
<text text-anchor="start" x="929.5" y="-596.5" font-family="Helvetica,sans-Serif" font-size="10.00"> &lt; itk::Object *, std</text>
<text text-anchor="middle" x="982.5" y="-585.5" font-family="Helvetica,sans-Serif" font-size="10.00">::function&lt; void()&gt; &gt;</text>
</g>
<!-- Node25&#45;&gt;Node3 -->
<g id="edge33" class="edge">
<title>Node25&#45;&gt;Node3</title>
<path fill="none" stroke="orange" stroke-dasharray="5,2" d="M409.88,-615.23C474.16,-617.3 589.4,-620.5 688,-620.5 688,-620.5 688,-620.5 2591.5,-620.5 2691.77,-620.5 2789.34,-533.3 2825.14,-497.53"/>
<polygon fill="orange" stroke="orange" points="409.74,-611.72 399.63,-614.89 409.51,-618.72 409.74,-611.72"/>
<text text-anchor="start" x="1576" y="-634.5" font-family="Helvetica,sans-Serif" font-size="10.00"> &lt; itk::simple::ProcessObject</text>
<text text-anchor="middle" x="1647" y="-623.5" font-family="Helvetica,sans-Serif" font-size="10.00">::EventCommand &gt;</text>
</g>
<!-- Node26&#45;&gt;Node1 -->
<g id="edge35" class="edge">
<title>Node26&#45;&gt;Node1</title>
<path fill="none" stroke="#9a32cd" stroke-dasharray="5,2" d="M1865.91,-278.83C1934.21,-290.97 2050.31,-308.5 2151,-308.5 2151,-308.5 2151,-308.5 2841.5,-308.5 2964.87,-308.5 3077.38,-436.42 3106.96,-472.9"/>
<polygon fill="#9a32cd" stroke="#9a32cd" points="1866.23,-275.34 1855.77,-277.01 1865,-282.22 1866.23,-275.34"/>
<text text-anchor="middle" x="2457.5" y="-311.5" font-family="Helvetica,sans-Serif" font-size="10.00"> m_ActiveProcess</text>
</g>
<!-- Node27&#45;&gt;Node26 -->
<g id="edge37" class="edge">
<title>Node27&#45;&gt;Node26</title>
<path fill="none" stroke="#9a32cd" stroke-dasharray="5,2" d="M1564.59,-230.38C1610.55,-236.62 1667.31,-244.59 1718,-252.5 1729.66,-254.32 1742.18,-256.4 1753.98,-258.42"/>
<polygon fill="#9a32cd" stroke="#9a32cd" points="1565.03,-226.91 1554.65,-229.04 1564.09,-233.84 1565.03,-226.91"/>
<text text-anchor="middle" x="1647" y="-255.5" font-family="Helvetica,sans-Serif" font-size="10.00"> m_RequiredInputNames</text>
</g>
<!-- Node28&#45;&gt;Node27 -->
<g id="edge39" class="edge">
<title>Node28&#45;&gt;Node27</title>
<path fill="none" stroke="orange" stroke-dasharray="5,2" d="M740.17,-152.81C853.22,-156.22 1136.31,-167.4 1371,-198.5 1381.15,-199.84 1391.81,-201.58 1402.25,-203.47"/>
<polygon fill="orange" stroke="orange" points="740.19,-149.31 730.09,-152.51 739.98,-156.3 740.19,-149.31"/>
<text text-anchor="middle" x="982.5" y="-171.5" font-family="Helvetica,sans-Serif" font-size="10.00"> &lt; DataObjectIdentifierType &gt;</text>
</g>
<!-- Node29&#45;&gt;Node26 -->
<g id="edge41" class="edge">
<title>Node29&#45;&gt;Node26</title>
<path fill="none" stroke="#9a32cd" stroke-dasharray="5,2" d="M1568.6,-267.5C1628.75,-267.5 1704.45,-267.5 1753.74,-267.5"/>
<polygon fill="#9a32cd" stroke="#9a32cd" points="1568.33,-264 1558.33,-267.5 1568.33,-271 1568.33,-264"/>
<text text-anchor="start" x="1576" y="-281.5" font-family="Helvetica,sans-Serif" font-size="10.00"> m_CachedInputReleaseData</text>
<text text-anchor="middle" x="1647" y="-270.5" font-family="Helvetica,sans-Serif" font-size="10.00">Flags</text>
</g>
<!-- Node30&#45;&gt;Node26 -->
<g id="edge44" class="edge">
<title>Node30&#45;&gt;Node26</title>
<path fill="none" stroke="#9a32cd" stroke-dasharray="5,2" d="M1059.89,-360.27C1194.16,-355.24 1480.75,-339.63 1718,-293.5 1738.43,-289.53 1760.92,-282.74 1777.92,-277.1"/>
<polygon fill="#9a32cd" stroke="#9a32cd" points="1059.58,-356.77 1049.71,-360.64 1059.83,-363.77 1059.58,-356.77"/>
<text text-anchor="middle" x="1300" y="-353.5" font-family="Helvetica,sans-Serif" font-size="10.00"> m_Progress</text>
</g>
<!-- Node31 -->
<g id="node31" class="node">
<title>Node31</title>
<g id="a_node31"><a xlink:title=" ">
<polygon fill="white" stroke="#bfbfbf" points="461,-81.5 461,-111.5 630,-111.5 630,-81.5 461,-81.5"/>
<text text-anchor="start" x="469" y="-99.5" font-family="Helvetica,sans-Serif" font-size="10.00">std::vector&lt; DataObjectPointer</text>
<text text-anchor="middle" x="545.5" y="-88.5" font-family="Helvetica,sans-Serif" font-size="10.00">Map::iterator &gt;</text>
</a>
</g>
</g>
<!-- Node31&#45;&gt;Node26 -->
<g id="edge46" class="edge">
<title>Node31&#45;&gt;Node26</title>
<path fill="none" stroke="#9a32cd" stroke-dasharray="5,2" d="M640.42,-96.5C692.82,-96.5 759.29,-96.5 818.5,-96.5 818.5,-96.5 818.5,-96.5 1474.5,-96.5 1587.11,-96.5 1623.19,-105.75 1718,-166.5 1756.39,-191.1 1787.21,-237.65 1799.38,-257.8"/>
<polygon fill="#9a32cd" stroke="#9a32cd" points="640.13,-93 630.13,-96.5 640.13,-100 640.13,-93"/>
<text text-anchor="middle" x="1142.5" y="-110.5" font-family="Helvetica,sans-Serif" font-size="10.00"> m_IndexedOutputs</text>
<text text-anchor="middle" x="1142.5" y="-99.5" font-family="Helvetica,sans-Serif" font-size="10.00">m_IndexedInputs</text>
</g>
<!-- Node32 -->
<g id="node32" class="node">
<title>Node32</title>
<g id="a_node32"><a xlink:title="STL iterator class.">
<polygon fill="white" stroke="#bfbfbf" points="114,-62 114,-81 257,-81 257,-62 114,-62"/>
<text text-anchor="middle" x="185.5" y="-69" font-family="Helvetica,sans-Serif" font-size="10.00">std::map&lt; K, T &gt;::iterator</text>
</a>
</g>
</g>
<!-- Node32&#45;&gt;Node31 -->
<g id="edge47" class="edge">
<title>Node32&#45;&gt;Node31</title>
<path fill="none" stroke="#9a32cd" stroke-dasharray="5,2" d="M267.27,-74.8C317.82,-77.14 384.26,-80.72 443,-85.5 448.83,-85.97 454.84,-86.51 460.9,-87.08"/>
<polygon fill="#9a32cd" stroke="#9a32cd" points="267.21,-71.3 257.06,-74.34 266.89,-78.29 267.21,-71.3"/>
<text text-anchor="middle" x="359" y="-88.5" font-family="Helvetica,sans-Serif" font-size="10.00"> elements</text>
</g>
<!-- Node33&#45;&gt;Node31 -->
<g id="edge48" class="edge">
<title>Node33&#45;&gt;Node31</title>
<path fill="none" stroke="orange" stroke-dasharray="5,2" d="M244.23,-107.4C302.82,-105.28 394.14,-101.96 460.7,-99.54"/>
<polygon fill="orange" stroke="orange" points="243.91,-103.91 234.04,-107.77 244.16,-110.91 243.91,-103.91"/>
<text text-anchor="start" x="296.5" y="-120.5" font-family="Helvetica,sans-Serif" font-size="10.00"> &lt; DataObjectPointerMap</text>
<text text-anchor="middle" x="359" y="-109.5" font-family="Helvetica,sans-Serif" font-size="10.00">::iterator &gt;</text>
</g>
<!-- Node34&#45;&gt;Node26 -->
<g id="edge50" class="edge">
<title>Node34&#45;&gt;Node26</title>
<path fill="none" stroke="#9a32cd" stroke-dasharray="5,2" d="M1568.25,-168.79C1614.66,-175.22 1670.73,-186.56 1718,-206.5 1748.59,-219.4 1779.18,-244.32 1794.64,-257.98"/>
<polygon fill="#9a32cd" stroke="#9a32cd" points="1568.57,-165.3 1558.19,-167.45 1567.65,-172.24 1568.57,-165.3"/>
<text text-anchor="middle" x="1647" y="-220.5" font-family="Helvetica,sans-Serif" font-size="10.00"> m_Outputs</text>
<text text-anchor="middle" x="1647" y="-209.5" font-family="Helvetica,sans-Serif" font-size="10.00">m_Inputs</text>
</g>
<!-- Node35 -->
<g id="node35" class="node">
<title>Node35</title>
<g id="a_node35"><a xlink:href="https://www.itk.org/Doxygen/html/classitk_1_1SmartPointer.html" xlink:title=" ">
<polygon fill="white" stroke="black" points="1089,-29.5 1089,-59.5 1196,-59.5 1196,-29.5 1089,-29.5"/>
<text text-anchor="start" x="1097" y="-47.5" font-family="Helvetica,sans-Serif" font-size="10.00">itk::SmartPointer&lt;</text>
<text text-anchor="middle" x="1142.5" y="-36.5" font-family="Helvetica,sans-Serif" font-size="10.00"> Self &gt;</text>
</a>
</g>
</g>
<!-- Node35&#45;&gt;Node34 -->
<g id="edge51" class="edge">
<title>Node35&#45;&gt;Node34</title>
<path fill="none" stroke="#9a32cd" stroke-dasharray="5,2" d="M1195.8,-62.94C1260.64,-85.8 1369.91,-124.33 1429.9,-145.48"/>
<polygon fill="#9a32cd" stroke="#9a32cd" points="1196.77,-59.57 1186.17,-59.55 1194.44,-66.17 1196.77,-59.57"/>
<text text-anchor="middle" x="1300" y="-126.5" font-family="Helvetica,sans-Serif" font-size="10.00"> elements</text>
</g>
<!-- Node36 -->
<g id="node36" class="node">
<title>Node36</title>
<g id="a_node36"><a xlink:href="https://www.itk.org/Doxygen/html/classitk_1_1SmartPointer.html" xlink:title=" ">
<polygon fill="white" stroke="black" points="748,-5.5 748,-35.5 891,-35.5 891,-5.5 748,-5.5"/>
<text text-anchor="start" x="756" y="-23.5" font-family="Helvetica,sans-Serif" font-size="10.00">itk::SmartPointer&lt;</text>
<text text-anchor="middle" x="819.5" y="-12.5" font-family="Helvetica,sans-Serif" font-size="10.00"> typename TObjectType &gt;</text>
</a>
</g>
</g>
<!-- Node36&#45;&gt;Node35 -->
<g id="edge52" class="edge">
<title>Node36&#45;&gt;Node35</title>
<path fill="none" stroke="orange" stroke-dasharray="5,2" d="M901.34,-26.54C960.07,-30.94 1037.87,-36.75 1088.78,-40.56"/>
<polygon fill="orange" stroke="orange" points="901.58,-23.05 891.34,-25.8 901.05,-30.03 901.58,-23.05"/>
<text text-anchor="middle" x="982.5" y="-41.5" font-family="Helvetica,sans-Serif" font-size="10.00"> &lt; Self &gt;</text>
</g>
<!-- Node37 -->
<g id="node37" class="node">
<title>Node37</title>
<g id="a_node37"><a xlink:href="https://www.itk.org/Doxygen/html/classitk_1_1SmartPointer.html" xlink:title=" ">
<polygon fill="white" stroke="black" points="1229,-0.5 1229,-30.5 1371,-30.5 1371,-0.5 1229,-0.5"/>
<text text-anchor="start" x="1237" y="-18.5" font-family="Helvetica,sans-Serif" font-size="10.00">itk::SmartPointer&lt;</text>
<text text-anchor="middle" x="1300" y="-7.5" font-family="Helvetica,sans-Serif" font-size="10.00"> itk::MultiThreaderBase &gt;</text>
</a>
</g>
</g>
<!-- Node36&#45;&gt;Node37 -->
<g id="edge56" class="edge">
<title>Node36&#45;&gt;Node37</title>
<path fill="none" stroke="orange" stroke-dasharray="5,2" d="M901.69,-13.83C904.16,-13.7 906.6,-13.59 909,-13.5 1020.8,-9.09 1150.77,-11.2 1228.87,-13.26"/>
<polygon fill="orange" stroke="orange" points="901.27,-10.34 891.48,-14.39 901.66,-17.33 901.27,-10.34"/>
<text text-anchor="middle" x="982.5" y="-16.5" font-family="Helvetica,sans-Serif" font-size="10.00"> &lt; itk::MultiThreaderBase &gt;</text>
</g>
<!-- Node37&#45;&gt;Node26 -->
<g id="edge55" class="edge">
<title>Node37&#45;&gt;Node26</title>
<path fill="none" stroke="#9a32cd" stroke-dasharray="5,2" d="M1381.58,-7.47C1472.41,-2.78 1620.13,-8.83 1718,-82.5 1778.68,-128.18 1798.71,-226.76 1803.64,-257.88"/>
<polygon fill="#9a32cd" stroke="#9a32cd" points="1381.13,-3.99 1371.34,-8.05 1381.53,-10.97 1381.13,-3.99"/>
<text text-anchor="middle" x="1473.5" y="-20.5" font-family="Helvetica,sans-Serif" font-size="10.00"> m_MultiThreader</text>
</g>
</g>
</svg>
