<?xml version="1.0" encoding="UTF-8" standalone="no"?>
<!DOCTYPE svg PUBLIC "-//W3C//DTD SVG 1.1//EN"
 "http://www.w3.org/Graphics/SVG/1.1/DTD/svg11.dtd">
<!-- Generated by graphviz version 2.43.0 (0)
 -->
<!-- Title: itk::simple::IsolatedConnectedImageFilter Pages: 1 -->
<svg width="2812pt" height="395pt"
 viewBox="0.00 0.00 2812.00 394.50" xmlns="http://www.w3.org/2000/svg" xmlns:xlink="http://www.w3.org/1999/xlink">
<g id="graph0" class="graph" transform="scale(1 1) rotate(0) translate(4 390.5)">
<title>itk::simple::IsolatedConnectedImageFilter</title>
<polygon fill="white" stroke="transparent" points="-4,4 -4,-390.5 2808,-390.5 2808,4 -4,4"/>
<!-- Node1 -->
<g id="node1" class="node">
<title>Node1</title>
<g id="a_node1"><a xlink:title="Label pixels that are connected to one set of seeds but not another.">
<polygon fill="#bfbfbf" stroke="black" points="2639,-187.5 2639,-217.5 2804,-217.5 2804,-187.5 2639,-187.5"/>
<text text-anchor="start" x="2647" y="-205.5" font-family="Helvetica,sans-Serif" font-size="10.00">itk::simple::IsolatedConnected</text>
<text text-anchor="middle" x="2721.5" y="-194.5" font-family="Helvetica,sans-Serif" font-size="10.00">ImageFilter</text>
</a>
</g>
</g>
<!-- Node2 -->
<g id="node2" class="node">
<title>Node2</title>
<g id="a_node2"><a xlink:href="classitk_1_1simple_1_1ImageFilter.html" target="_top" xlink:title="The base interface for SimpleITK filters that take one input image.">
<polygon fill="white" stroke="black" points="2349,-246 2349,-265 2479,-265 2479,-246 2349,-246"/>
<text text-anchor="middle" x="2414" y="-253" font-family="Helvetica,sans-Serif" font-size="10.00">itk::simple::ImageFilter</text>
</a>
</g>
</g>
<!-- Node2&#45;&gt;Node1 -->
<g id="edge1" class="edge">
<title>Node2&#45;&gt;Node1</title>
<path fill="none" stroke="midnightblue" d="M2479.91,-244.24C2526.33,-236.19 2589.13,-225.29 2638.94,-216.65"/>
<polygon fill="midnightblue" stroke="midnightblue" points="2479.22,-240.81 2469.97,-245.96 2480.42,-247.7 2479.22,-240.81"/>
</g>
<!-- Node3 -->
<g id="node3" class="node">
<title>Node3</title>
<g id="a_node3"><a xlink:href="classitk_1_1simple_1_1ProcessObject.html" target="_top" xlink:title="Base class for SimpleITK classes based on ProcessObject.">
<polygon fill="white" stroke="black" points="2123,-252 2123,-271 2266,-271 2266,-252 2123,-252"/>
<text text-anchor="middle" x="2194.5" y="-259" font-family="Helvetica,sans-Serif" font-size="10.00">itk::simple::ProcessObject</text>
</a>
</g>
</g>
<!-- Node3&#45;&gt;Node2 -->
<g id="edge2" class="edge">
<title>Node3&#45;&gt;Node2</title>
<path fill="none" stroke="midnightblue" d="M2276.27,-259.27C2300.26,-258.61 2326.21,-257.89 2348.99,-257.27"/>
<polygon fill="midnightblue" stroke="midnightblue" points="2276.02,-255.78 2266.12,-259.55 2276.21,-262.77 2276.02,-255.78"/>
</g>
<!-- Node4 -->
<g id="node4" class="node">
<title>Node4</title>
<g id="a_node4"><a xlink:href="classitk_1_1simple_1_1NonCopyable.html" target="_top" xlink:title="An inheritable class to disable copying of a class.">
<polygon fill="white" stroke="black" points="382,-367 382,-386 522,-386 522,-367 382,-367"/>
<text text-anchor="middle" x="452" y="-374" font-family="Helvetica,sans-Serif" font-size="10.00">itk::simple::NonCopyable</text>
</a>
</g>
</g>
<!-- Node4&#45;&gt;Node3 -->
<g id="edge3" class="edge">
<title>Node4&#45;&gt;Node3</title>
<path fill="none" stroke="darkgreen" d="M532.21,-376.14C601.94,-375.85 706.21,-375.5 797,-375.5 797,-375.5 797,-375.5 1864.5,-375.5 1991.75,-375.5 2132.18,-298.42 2178.07,-271.02"/>
<polygon fill="darkgreen" stroke="darkgreen" points="532.17,-372.64 522.18,-376.18 532.2,-379.64 532.17,-372.64"/>
</g>
<!-- Node8 -->
<g id="node8" class="node">
<title>Node8</title>
<g id="a_node8"><a xlink:href="classitk_1_1simple_1_1ObjectOwnedBase.html" target="_top" xlink:title="An abstract base class to connect this object with the lifetime of another.">
<polygon fill="white" stroke="black" points="716,-298 716,-317 880,-317 880,-298 716,-298"/>
<text text-anchor="middle" x="798" y="-305" font-family="Helvetica,sans-Serif" font-size="10.00">itk::simple::ObjectOwnedBase</text>
</a>
</g>
</g>
<!-- Node4&#45;&gt;Node8 -->
<g id="edge8" class="edge">
<title>Node4&#45;&gt;Node8</title>
<path fill="none" stroke="midnightblue" d="M527.09,-365.43C586.97,-356.29 666.32,-343.7 698,-336.5 721.75,-331.1 748.21,-323.26 767.79,-317.09"/>
<polygon fill="midnightblue" stroke="midnightblue" points="526.27,-362.02 516.91,-366.98 527.32,-368.94 526.27,-362.02"/>
</g>
<!-- Node5 -->
<g id="node5" class="node">
<title>Node5</title>
<g id="a_node5"><a xlink:title=" ">
<polygon fill="white" stroke="#bfbfbf" points="1770,-246.5 1770,-276.5 1957,-276.5 1957,-246.5 1770,-246.5"/>
<text text-anchor="start" x="1778" y="-264.5" font-family="Helvetica,sans-Serif" font-size="10.00">std::list&lt; itk::simple</text>
<text text-anchor="middle" x="1863.5" y="-253.5" font-family="Helvetica,sans-Serif" font-size="10.00">::ProcessObject::EventCommand &gt;</text>
</a>
</g>
</g>
<!-- Node5&#45;&gt;Node3 -->
<g id="edge4" class="edge">
<title>Node5&#45;&gt;Node3</title>
<path fill="none" stroke="#9a32cd" stroke-dasharray="5,2" d="M1967.33,-261.5C2017.85,-261.5 2077.45,-261.5 2122.79,-261.5"/>
<polygon fill="#9a32cd" stroke="#9a32cd" points="1967.02,-258 1957.02,-261.5 1967.02,-265 1967.02,-258"/>
<text text-anchor="middle" x="2040" y="-264.5" font-family="Helvetica,sans-Serif" font-size="10.00"> m_Commands</text>
</g>
<!-- Node6 -->
<g id="node6" class="node">
<title>Node6</title>
<g id="a_node6"><a xlink:href="structitk_1_1simple_1_1ProcessObject_1_1EventCommand.html" target="_top" xlink:title=" ">
<polygon fill="white" stroke="black" points="1412.5,-282.5 1412.5,-312.5 1555.5,-312.5 1555.5,-282.5 1412.5,-282.5"/>
<text text-anchor="start" x="1420.5" y="-300.5" font-family="Helvetica,sans-Serif" font-size="10.00">itk::simple::ProcessObject</text>
<text text-anchor="middle" x="1484" y="-289.5" font-family="Helvetica,sans-Serif" font-size="10.00">::EventCommand</text>
</a>
</g>
</g>
<!-- Node6&#45;&gt;Node5 -->
<g id="edge5" class="edge">
<title>Node6&#45;&gt;Node5</title>
<path fill="none" stroke="#9a32cd" stroke-dasharray="5,2" d="M1565.72,-289.8C1625.58,-284.09 1707.29,-276.3 1769.81,-270.34"/>
<polygon fill="#9a32cd" stroke="#9a32cd" points="1565.18,-286.34 1555.56,-290.77 1565.85,-293.31 1565.18,-286.34"/>
<text text-anchor="middle" x="1670" y="-290.5" font-family="Helvetica,sans-Serif" font-size="10.00"> elements</text>
</g>
<!-- Node7 -->
<g id="node7" class="node">
<title>Node7</title>
<g id="a_node7"><a xlink:href="classitk_1_1simple_1_1Command.html" target="_top" xlink:title="An implementation of the Command design pattern for callback.">
<polygon fill="white" stroke="black" points="1077.5,-290 1077.5,-309 1202.5,-309 1202.5,-290 1077.5,-290"/>
<text text-anchor="middle" x="1140" y="-297" font-family="Helvetica,sans-Serif" font-size="10.00">itk::simple::Command</text>
</a>
</g>
</g>
<!-- Node7&#45;&gt;Node6 -->
<g id="edge6" class="edge">
<title>Node7&#45;&gt;Node6</title>
<path fill="none" stroke="#9a32cd" stroke-dasharray="5,2" d="M1212.83,-299.08C1271.46,-298.74 1353.86,-298.26 1412.21,-297.91"/>
<polygon fill="#9a32cd" stroke="#9a32cd" points="1212.52,-295.58 1202.54,-299.14 1212.56,-302.58 1212.52,-295.58"/>
<text text-anchor="middle" x="1310" y="-302.5" font-family="Helvetica,sans-Serif" font-size="10.00"> m_Command</text>
</g>
<!-- Node8&#45;&gt;Node7 -->
<g id="edge7" class="edge">
<title>Node8&#45;&gt;Node7</title>
<path fill="none" stroke="midnightblue" d="M890.13,-305.36C949.45,-303.96 1025.23,-302.18 1077.5,-300.95"/>
<polygon fill="midnightblue" stroke="midnightblue" points="889.92,-301.86 880.01,-305.59 890.09,-308.86 889.92,-301.86"/>
</g>
<!-- Node9 -->
<g id="node9" class="node">
<title>Node9</title>
<g id="a_node9"><a xlink:title=" ">
<polygon fill="white" stroke="#bfbfbf" points="387.5,-269 387.5,-310 516.5,-310 516.5,-269 387.5,-269"/>
<text text-anchor="start" x="395.5" y="-298" font-family="Helvetica,sans-Serif" font-size="10.00">std::multimap&lt; itk</text>
<text text-anchor="start" x="395.5" y="-287" font-family="Helvetica,sans-Serif" font-size="10.00">::Object *, std::function</text>
<text text-anchor="middle" x="452" y="-276" font-family="Helvetica,sans-Serif" font-size="10.00">&lt; void()&gt; &gt;</text>
</a>
</g>
</g>
<!-- Node9&#45;&gt;Node8 -->
<g id="edge9" class="edge">
<title>Node9&#45;&gt;Node8</title>
<path fill="none" stroke="#9a32cd" stroke-dasharray="5,2" d="M526.71,-287.19C575.42,-286.38 640.62,-286.66 698,-291.5 714.22,-292.87 731.8,-295.37 747.58,-298"/>
<polygon fill="#9a32cd" stroke="#9a32cd" points="526.51,-283.69 516.58,-287.38 526.64,-290.69 526.51,-283.69"/>
<text text-anchor="middle" x="619" y="-294.5" font-family="Helvetica,sans-Serif" font-size="10.00"> m_ReferencedObjectsCallbacks</text>
</g>
<!-- Node10 -->
<g id="node10" class="node">
<title>Node10</title>
<g id="a_node10"><a xlink:title="STL class.">
<polygon fill="white" stroke="#bfbfbf" points="114,-280 114,-299 240,-299 240,-280 114,-280"/>
<text text-anchor="middle" x="177" y="-287" font-family="Helvetica,sans-Serif" font-size="10.00">std::multimap&lt; K, T &gt;</text>
</a>
</g>
</g>
<!-- Node10&#45;&gt;Node9 -->
<g id="edge10" class="edge">
<title>Node10&#45;&gt;Node9</title>
<path fill="none" stroke="orange" stroke-dasharray="5,2" d="M250.3,-289.5C292.82,-289.5 346.1,-289.5 387.08,-289.5"/>
<polygon fill="orange" stroke="orange" points="250.29,-286 240.29,-289.5 250.29,-293 250.29,-286"/>
<text text-anchor="start" x="258" y="-303.5" font-family="Helvetica,sans-Serif" font-size="10.00"> &lt; itk::Object *, std</text>
<text text-anchor="middle" x="311" y="-292.5" font-family="Helvetica,sans-Serif" font-size="10.00">::function&lt; void()&gt; &gt;</text>
</g>
<!-- Node11 -->
<g id="node11" class="node">
<title>Node11</title>
<g id="a_node11"><a xlink:title=" ">
<polygon fill="white" stroke="#bfbfbf" points="0,-298 0,-317 29,-317 29,-298 0,-298"/>
<text text-anchor="middle" x="14.5" y="-305" font-family="Helvetica,sans-Serif" font-size="10.00">K</text>
</a>
</g>
</g>
<!-- Node11&#45;&gt;Node10 -->
<g id="edge11" class="edge">
<title>Node11&#45;&gt;Node10</title>
<path fill="none" stroke="#9a32cd" stroke-dasharray="5,2" d="M39.34,-304.83C58.97,-302.63 87.71,-299.4 113.77,-296.48"/>
<polygon fill="#9a32cd" stroke="#9a32cd" points="38.73,-301.37 29.18,-305.97 39.51,-308.33 38.73,-301.37"/>
<text text-anchor="middle" x="71.5" y="-307.5" font-family="Helvetica,sans-Serif" font-size="10.00"> keys</text>
</g>
<!-- Node12 -->
<g id="node12" class="node">
<title>Node12</title>
<g id="a_node12"><a xlink:title=" ">
<polygon fill="white" stroke="#bfbfbf" points="0,-211 0,-230 29,-230 29,-211 0,-211"/>
<text text-anchor="middle" x="14.5" y="-218" font-family="Helvetica,sans-Serif" font-size="10.00">T</text>
</a>
</g>
</g>
<!-- Node12&#45;&gt;Node10 -->
<g id="edge12" class="edge">
<title>Node12&#45;&gt;Node10</title>
<path fill="none" stroke="#9a32cd" stroke-dasharray="5,2" d="M30.04,-237.77C34.99,-242.78 40.84,-247.87 47,-251.5 70.04,-265.06 98.27,-274.09 122.45,-279.93"/>
<polygon fill="#9a32cd" stroke="#9a32cd" points="32.43,-235.19 23.09,-230.18 27.26,-239.92 32.43,-235.19"/>
<text text-anchor="middle" x="71.5" y="-275.5" font-family="Helvetica,sans-Serif" font-size="10.00"> elements</text>
</g>
<!-- Node15 -->
<g id="node15" class="node">
<title>Node15</title>
<g id="a_node15"><a xlink:title="STL class.">
<polygon fill="white" stroke="#bfbfbf" points="270.5,-230 270.5,-249 351.5,-249 351.5,-230 270.5,-230"/>
<text text-anchor="middle" x="311" y="-237" font-family="Helvetica,sans-Serif" font-size="10.00">std::list&lt; T &gt;</text>
</a>
</g>
</g>
<!-- Node12&#45;&gt;Node15 -->
<g id="edge16" class="edge">
<title>Node12&#45;&gt;Node15</title>
<path fill="none" stroke="#9a32cd" stroke-dasharray="5,2" d="M39.6,-222.06C90.31,-225.33 208.44,-232.95 270.42,-236.95"/>
<polygon fill="#9a32cd" stroke="#9a32cd" points="39.51,-218.54 29.31,-221.39 39.06,-225.53 39.51,-218.54"/>
<text text-anchor="middle" x="71.5" y="-229.5" font-family="Helvetica,sans-Serif" font-size="10.00"> elements</text>
</g>
<!-- Node22 -->
<g id="node22" class="node">
<title>Node22</title>
<g id="a_node22"><a xlink:title="STL class.">
<polygon fill="white" stroke="#bfbfbf" points="560,-136 560,-155 678,-155 678,-136 560,-136"/>
<text text-anchor="middle" x="619" y="-143" font-family="Helvetica,sans-Serif" font-size="10.00">std::unique_ptr&lt; T &gt;</text>
</a>
</g>
</g>
<!-- Node12&#45;&gt;Node22 -->
<g id="edge25" class="edge">
<title>Node12&#45;&gt;Node22</title>
<path fill="none" stroke="#9a32cd" stroke-dasharray="5,2" d="M34.46,-204.65C38.46,-201.72 42.75,-198.84 47,-196.5 74.83,-181.15 82.88,-177.95 114,-171.5 272.72,-138.61 465.24,-139.68 559.83,-142.8"/>
<polygon fill="#9a32cd" stroke="#9a32cd" points="32.06,-202.08 26.32,-210.99 36.36,-207.6 32.06,-202.08"/>
<text text-anchor="middle" x="177" y="-174.5" font-family="Helvetica,sans-Serif" font-size="10.00"> ptr</text>
</g>
<!-- Node24 -->
<g id="node24" class="node">
<title>Node24</title>
<g id="a_node24"><a xlink:title="STL class.">
<polygon fill="white" stroke="#bfbfbf" points="128.5,-192 128.5,-211 225.5,-211 225.5,-192 128.5,-192"/>
<text text-anchor="middle" x="177" y="-199" font-family="Helvetica,sans-Serif" font-size="10.00">std::vector&lt; T &gt;</text>
</a>
</g>
</g>
<!-- Node12&#45;&gt;Node24 -->
<g id="edge28" class="edge">
<title>Node12&#45;&gt;Node24</title>
<path fill="none" stroke="#9a32cd" stroke-dasharray="5,2" d="M38.42,-209.13C41.26,-208.08 44.16,-207.16 47,-206.5 73.41,-200.36 103.68,-198.9 128.25,-199.08"/>
<polygon fill="#9a32cd" stroke="#9a32cd" points="37.05,-205.91 29.22,-213.05 39.79,-212.35 37.05,-205.91"/>
<text text-anchor="middle" x="71.5" y="-209.5" font-family="Helvetica,sans-Serif" font-size="10.00"> elements</text>
</g>
<!-- Node13 -->
<g id="node13" class="node">
<title>Node13</title>
<g id="a_node13"><a xlink:title="STL class.">
<polygon fill="white" stroke="#bfbfbf" points="419.5,-329 419.5,-348 484.5,-348 484.5,-329 419.5,-329"/>
<text text-anchor="middle" x="452" y="-336" font-family="Helvetica,sans-Serif" font-size="10.00">std::string</text>
</a>
</g>
</g>
<!-- Node13&#45;&gt;Node8 -->
<g id="edge13" class="edge">
<title>Node13&#45;&gt;Node8</title>
<path fill="none" stroke="#9a32cd" stroke-dasharray="5,2" d="M494.79,-331.58C509.1,-329.39 525.22,-327.12 540,-325.5 598.69,-319.07 665.18,-314.49 715.83,-311.55"/>
<polygon fill="#9a32cd" stroke="#9a32cd" points="494.08,-328.15 484.74,-333.15 495.16,-335.06 494.08,-328.15"/>
<text text-anchor="middle" x="619" y="-328.5" font-family="Helvetica,sans-Serif" font-size="10.00"> m_Name</text>
</g>
<!-- Node14 -->
<g id="node14" class="node">
<title>Node14</title>
<g id="a_node14"><a xlink:title="STL class.">
<polygon fill="white" stroke="#bfbfbf" points="125,-323.5 125,-353.5 229,-353.5 229,-323.5 125,-323.5"/>
<text text-anchor="start" x="133" y="-341.5" font-family="Helvetica,sans-Serif" font-size="10.00">std::basic_string&lt;</text>
<text text-anchor="middle" x="177" y="-330.5" font-family="Helvetica,sans-Serif" font-size="10.00"> char &gt;</text>
</a>
</g>
</g>
<!-- Node14&#45;&gt;Node13 -->
<g id="edge14" class="edge">
<title>Node14&#45;&gt;Node13</title>
<path fill="none" stroke="midnightblue" d="M239.16,-338.5C295.05,-338.5 375.46,-338.5 419.39,-338.5"/>
<polygon fill="midnightblue" stroke="midnightblue" points="239.03,-335 229.03,-338.5 239.03,-342 239.03,-335"/>
</g>
<!-- Node15&#45;&gt;Node5 -->
<g id="edge15" class="edge">
<title>Node15&#45;&gt;Node5</title>
<path fill="none" stroke="orange" stroke-dasharray="5,2" d="M361.65,-239.76C422.19,-240.06 527.6,-240.5 618,-240.5 618,-240.5 618,-240.5 1485,-240.5 1582.31,-240.5 1693.51,-247.54 1769.88,-253.47"/>
<polygon fill="orange" stroke="orange" points="361.63,-236.26 351.61,-239.71 361.59,-243.26 361.63,-236.26"/>
<text text-anchor="start" x="898" y="-254.5" font-family="Helvetica,sans-Serif" font-size="10.00"> &lt; itk::simple::ProcessObject</text>
<text text-anchor="middle" x="969" y="-243.5" font-family="Helvetica,sans-Serif" font-size="10.00">::EventCommand &gt;</text>
</g>
<!-- Node16 -->
<g id="node16" class="node">
<title>Node16</title>
<g id="a_node16"><a xlink:title=" ">
<polygon fill="white" stroke="#bfbfbf" points="2319,-121 2319,-162 2509,-162 2509,-121 2319,-121"/>
<text text-anchor="start" x="2327" y="-150" font-family="Helvetica,sans-Serif" font-size="10.00">std::unique_ptr&lt; itk</text>
<text text-anchor="start" x="2327" y="-139" font-family="Helvetica,sans-Serif" font-size="10.00">::simple::detail::MemberFunction</text>
<text text-anchor="middle" x="2414" y="-128" font-family="Helvetica,sans-Serif" font-size="10.00">Factory&lt; MemberFunctionType &gt; &gt;</text>
</a>
</g>
</g>
<!-- Node16&#45;&gt;Node1 -->
<g id="edge17" class="edge">
<title>Node16&#45;&gt;Node1</title>
<path fill="none" stroke="#9a32cd" stroke-dasharray="5,2" d="M2519.14,-158.17C2551.84,-163.82 2588.01,-170.48 2621,-177.5 2634.85,-180.45 2649.69,-183.97 2663.58,-187.44"/>
<polygon fill="#9a32cd" stroke="#9a32cd" points="2519.56,-154.7 2509.11,-156.46 2518.38,-161.6 2519.56,-154.7"/>
<text text-anchor="middle" x="2574" y="-180.5" font-family="Helvetica,sans-Serif" font-size="10.00"> m_MemberFactory</text>
</g>
<!-- Node17 -->
<g id="node17" class="node">
<title>Node17</title>
<g id="a_node17"><a xlink:href="classitk_1_1simple_1_1detail_1_1MemberFunctionFactory.html" target="_top" xlink:title=" ">
<polygon fill="white" stroke="black" points="2123,-58 2123,-99 2266,-99 2266,-58 2123,-58"/>
<text text-anchor="start" x="2131" y="-87" font-family="Helvetica,sans-Serif" font-size="10.00">itk::simple::detail</text>
<text text-anchor="start" x="2131" y="-76" font-family="Helvetica,sans-Serif" font-size="10.00">::MemberFunctionFactory</text>
<text text-anchor="middle" x="2194.5" y="-65" font-family="Helvetica,sans-Serif" font-size="10.00">&lt; MemberFunctionType &gt;</text>
</a>
</g>
</g>
<!-- Node17&#45;&gt;Node16 -->
<g id="edge18" class="edge">
<title>Node17&#45;&gt;Node16</title>
<path fill="none" stroke="#9a32cd" stroke-dasharray="5,2" d="M2275.94,-101.8C2297.61,-108.08 2320.88,-114.82 2341.99,-120.93"/>
<polygon fill="#9a32cd" stroke="#9a32cd" points="2276.69,-98.37 2266.12,-98.95 2274.75,-105.1 2276.69,-98.37"/>
<text text-anchor="middle" x="2292.5" y="-111.5" font-family="Helvetica,sans-Serif" font-size="10.00"> ptr</text>
</g>
<!-- Node18 -->
<g id="node18" class="node">
<title>Node18</title>
<g id="a_node18"><a xlink:href="classitk_1_1simple_1_1detail_1_1MemberFunctionFactoryBase.html" target="_top" xlink:title=" ">
<polygon fill="white" stroke="black" points="1588,-0.5 1588,-52.5 1752,-52.5 1752,-0.5 1588,-0.5"/>
<text text-anchor="start" x="1596" y="-40.5" font-family="Helvetica,sans-Serif" font-size="10.00">itk::simple::detail</text>
<text text-anchor="start" x="1596" y="-29.5" font-family="Helvetica,sans-Serif" font-size="10.00">::MemberFunctionFactoryBase</text>
<text text-anchor="start" x="1596" y="-18.5" font-family="Helvetica,sans-Serif" font-size="10.00">&lt; MemberFunctionType, std</text>
<text text-anchor="middle" x="1670" y="-7.5" font-family="Helvetica,sans-Serif" font-size="10.00">::pair&lt; unsigned int, int &gt; &gt;</text>
</a>
</g>
</g>
<!-- Node18&#45;&gt;Node17 -->
<g id="edge19" class="edge">
<title>Node18&#45;&gt;Node17</title>
<path fill="none" stroke="darkgreen" d="M1762.44,-32.38C1818.63,-36.28 1892.05,-41.89 1957,-48.5 2012.9,-54.19 2076.01,-62.28 2122.98,-68.63"/>
<polygon fill="darkgreen" stroke="darkgreen" points="1762.37,-28.87 1752.15,-31.67 1761.89,-35.85 1762.37,-28.87"/>
</g>
<!-- Node19 -->
<g id="node19" class="node">
<title>Node19</title>
<g id="a_node19"><a xlink:href="classitk_1_1simple_1_1detail_1_1MemberFunctionFactoryBase.html" target="_top" xlink:title="A base class for the MemberFunctionFactory.">
<polygon fill="white" stroke="black" points="1058,-36.5 1058,-66.5 1222,-66.5 1222,-36.5 1058,-36.5"/>
<text text-anchor="start" x="1066" y="-54.5" font-family="Helvetica,sans-Serif" font-size="10.00">itk::simple::detail</text>
<text text-anchor="middle" x="1140" y="-43.5" font-family="Helvetica,sans-Serif" font-size="10.00">::MemberFunctionFactoryBase</text>
</a>
</g>
</g>
<!-- Node19&#45;&gt;Node18 -->
<g id="edge20" class="edge">
<title>Node19&#45;&gt;Node18</title>
<path fill="none" stroke="orange" stroke-dasharray="5,2" d="M1192.49,-33.41C1207.6,-28.92 1224.29,-24.75 1240,-22.5 1360.18,-5.26 1501.24,-11.6 1587.87,-18.47"/>
<polygon fill="orange" stroke="orange" points="1191.34,-30.1 1182.81,-36.38 1193.4,-36.79 1191.34,-30.1"/>
<text text-anchor="start" x="1249" y="-47.5" font-family="Helvetica,sans-Serif" font-size="10.00"> &lt; MemberFunctionType,</text>
<text text-anchor="start" x="1249" y="-36.5" font-family="Helvetica,sans-Serif" font-size="10.00"> std::pair&lt; unsigned</text>
<text text-anchor="middle" x="1310" y="-25.5" font-family="Helvetica,sans-Serif" font-size="10.00"> int, int &gt; &gt;</text>
</g>
<!-- Node21 -->
<g id="node21" class="node">
<title>Node21</title>
<g id="a_node21"><a xlink:href="classitk_1_1simple_1_1detail_1_1MemberFunctionFactoryBase.html" target="_top" xlink:title=" ">
<polygon fill="white" stroke="black" points="1398,-52.5 1398,-104.5 1570,-104.5 1570,-52.5 1398,-52.5"/>
<text text-anchor="start" x="1406" y="-92.5" font-family="Helvetica,sans-Serif" font-size="10.00">itk::simple::detail</text>
<text text-anchor="start" x="1406" y="-81.5" font-family="Helvetica,sans-Serif" font-size="10.00">::MemberFunctionFactoryBase</text>
<text text-anchor="start" x="1406" y="-70.5" font-family="Helvetica,sans-Serif" font-size="10.00">&lt; TMemberFunctionPointer,</text>
<text text-anchor="middle" x="1484" y="-59.5" font-family="Helvetica,sans-Serif" font-size="10.00"> std::pair&lt; unsigned int, int &gt; &gt;</text>
</a>
</g>
</g>
<!-- Node19&#45;&gt;Node21 -->
<g id="edge23" class="edge">
<title>Node19&#45;&gt;Node21</title>
<path fill="none" stroke="orange" stroke-dasharray="5,2" d="M1232.16,-58.7C1283.55,-62.75 1347.36,-67.79 1397.76,-71.77"/>
<polygon fill="orange" stroke="orange" points="1232.29,-55.2 1222.05,-57.9 1231.74,-62.17 1232.29,-55.2"/>
<text text-anchor="start" x="1240" y="-95.5" font-family="Helvetica,sans-Serif" font-size="10.00"> &lt; TMemberFunctionPointer,</text>
<text text-anchor="start" x="1240" y="-84.5" font-family="Helvetica,sans-Serif" font-size="10.00"> std::pair&lt; unsigned int,</text>
<text text-anchor="middle" x="1310" y="-73.5" font-family="Helvetica,sans-Serif" font-size="10.00"> int &gt; &gt;</text>
</g>
<!-- Node20 -->
<g id="node20" class="node">
<title>Node20</title>
<g id="a_node20"><a xlink:href="classitk_1_1simple_1_1detail_1_1MemberFunctionFactory.html" target="_top" xlink:title="A class used to instantiate and generate function object to templated member functions.">
<polygon fill="white" stroke="black" points="1783,-58 1783,-99 1944,-99 1944,-58 1783,-58"/>
<text text-anchor="start" x="1791" y="-87" font-family="Helvetica,sans-Serif" font-size="10.00">itk::simple::detail</text>
<text text-anchor="start" x="1791" y="-76" font-family="Helvetica,sans-Serif" font-size="10.00">::MemberFunctionFactory</text>
<text text-anchor="middle" x="1863.5" y="-65" font-family="Helvetica,sans-Serif" font-size="10.00">&lt; TMemberFunctionPointer &gt;</text>
</a>
</g>
</g>
<!-- Node20&#45;&gt;Node17 -->
<g id="edge21" class="edge">
<title>Node20&#45;&gt;Node17</title>
<path fill="none" stroke="orange" stroke-dasharray="5,2" d="M1954.24,-78.5C2007.34,-78.5 2073.64,-78.5 2122.98,-78.5"/>
<polygon fill="orange" stroke="orange" points="1954.14,-75 1944.14,-78.5 1954.14,-82 1954.14,-75"/>
<text text-anchor="middle" x="2040" y="-81.5" font-family="Helvetica,sans-Serif" font-size="10.00"> &lt; MemberFunctionType &gt;</text>
</g>
<!-- Node21&#45;&gt;Node20 -->
<g id="edge22" class="edge">
<title>Node21&#45;&gt;Node20</title>
<path fill="none" stroke="darkgreen" d="M1580.45,-78.5C1642.96,-78.5 1723.71,-78.5 1782.78,-78.5"/>
<polygon fill="darkgreen" stroke="darkgreen" points="1580.19,-75 1570.19,-78.5 1580.19,-82 1580.19,-75"/>
</g>
<!-- Node22&#45;&gt;Node16 -->
<g id="edge24" class="edge">
<title>Node22&#45;&gt;Node16</title>
<path fill="none" stroke="orange" stroke-dasharray="5,2" d="M688.22,-144.25C758.38,-143.08 870.82,-141.5 968,-141.5 968,-141.5 968,-141.5 2195.5,-141.5 2235.9,-141.5 2280.53,-141.5 2318.79,-141.5"/>
<polygon fill="orange" stroke="orange" points="688.12,-140.75 678.18,-144.42 688.24,-147.75 688.12,-140.75"/>
<text text-anchor="start" x="1414.5" y="-166.5" font-family="Helvetica,sans-Serif" font-size="10.00"> &lt; itk::simple::detail</text>
<text text-anchor="start" x="1414.5" y="-155.5" font-family="Helvetica,sans-Serif" font-size="10.00">::MemberFunctionFactory</text>
<text text-anchor="middle" x="1484" y="-144.5" font-family="Helvetica,sans-Serif" font-size="10.00">&lt; MemberFunctionType &gt; &gt;</text>
</g>
<!-- Node23 -->
<g id="node23" class="node">
<title>Node23</title>
<g id="a_node23"><a xlink:title=" ">
<polygon fill="white" stroke="#bfbfbf" points="907,-186.5 907,-216.5 1031,-216.5 1031,-186.5 907,-186.5"/>
<text text-anchor="start" x="915" y="-204.5" font-family="Helvetica,sans-Serif" font-size="10.00">std::vector&lt; unsigned</text>
<text text-anchor="middle" x="969" y="-193.5" font-family="Helvetica,sans-Serif" font-size="10.00"> int &gt;</text>
</a>
</g>
</g>
<!-- Node23&#45;&gt;Node1 -->
<g id="edge26" class="edge">
<title>Node23&#45;&gt;Node1</title>
<path fill="none" stroke="#9a32cd" stroke-dasharray="5,2" d="M1041.5,-201.83C1110.11,-202.12 1216.63,-202.5 1309,-202.5 1309,-202.5 1309,-202.5 2415,-202.5 2490.84,-202.5 2577.28,-202.5 2638.81,-202.5"/>
<polygon fill="#9a32cd" stroke="#9a32cd" points="1041.26,-198.33 1031.24,-201.79 1041.23,-205.33 1041.26,-198.33"/>
<text text-anchor="middle" x="1863.5" y="-216.5" font-family="Helvetica,sans-Serif" font-size="10.00"> m_Seed1</text>
<text text-anchor="middle" x="1863.5" y="-205.5" font-family="Helvetica,sans-Serif" font-size="10.00">m_Seed2</text>
</g>
<!-- Node24&#45;&gt;Node23 -->
<g id="edge27" class="edge">
<title>Node24&#45;&gt;Node23</title>
<path fill="none" stroke="orange" stroke-dasharray="5,2" d="M235.65,-201.5C380.43,-201.5 758.3,-201.5 906.8,-201.5"/>
<polygon fill="orange" stroke="orange" points="235.64,-198 225.64,-201.5 235.64,-205 235.64,-198"/>
<text text-anchor="middle" x="452" y="-204.5" font-family="Helvetica,sans-Serif" font-size="10.00"> &lt; unsigned int &gt;</text>
</g>
</g>
</svg>
