<?xml version="1.0" encoding="UTF-8" standalone="no"?>
<!DOCTYPE svg PUBLIC "-//W3C//DTD SVG 1.1//EN"
 "http://www.w3.org/Graphics/SVG/1.1/DTD/svg11.dtd">
<!-- Generated by graphviz version 2.43.0 (0)
 -->
<!-- Title: itk::simple::LandmarkBasedTransformInitializerFilter Pages: 1 -->
<!--zoomable 400 -->
<svg id="main" version="1.1" xmlns="http://www.w3.org/2000/svg" xmlns:xlink="http://www.w3.org/1999/xlink" xml:space="preserve" onload="init(evt)">
<style type="text/css"><![CDATA[
.edge:hover path { stroke: red; }
.edge:hover polygon { stroke: red; fill: red; }
]]></style>
<script type="text/javascript"><![CDATA[
var edges = document.getElementsByTagName('g');
if (edges && edges.length) {
  for (var i=0;i<edges.length;i++) {
    if (edges[i].id.substr(0,4)=='edge') {
      edges[i].setAttribute('class','edge');
    }
  }
}
]]></script>
        <defs>
                <circle id="rim" cx="0" cy="0" r="7"/>
                <circle id="rim2" cx="0" cy="0" r="3.5"/>
                <g id="zoomPlus">
                        <use xlink:href="#rim" fill="#404040">
                                <set attributeName="fill" to="#808080" begin="zoomplus.mouseover" end="zoomplus.mouseout"/>
                        </use>
                        <path d="M-4,0h8M0,-4v8" fill="none" stroke="white" stroke-width="1.5" pointer-events="none"/>
                </g>
                <g id="zoomMin">
                        <use xlink:href="#rim" fill="#404040">
                                <set attributeName="fill" to="#808080" begin="zoomminus.mouseover" end="zoomminus.mouseout"/>
                        </use>
                        <path d="M-4,0h8" fill="none" stroke="white" stroke-width="1.5" pointer-events="none"/>
                </g>
                <g id="dirArrow">
                        <path fill="none" stroke="white" stroke-width="1.5" d="M0,-3.0v7 M-2.5,-0.5L0,-3.0L2.5,-0.5"/>
                </g>
               <g id="resetDef">
                       <use xlink:href="#rim2" fill="#404040">
                               <set attributeName="fill" to="#808080" begin="reset.mouseover" end="reset.mouseout"/>
                       </use>
               </g>
        </defs>

<script type="text/javascript">
var viewWidth = 2891;
var viewHeight = 400;
var sectionId = 'dynsection-1';
</script>
<script xlink:href="svgpan.js"/>
<svg id="graph" class="graph">
<g id="viewport">
<title>itk::simple::LandmarkBasedTransformInitializerFilter</title>
<polygon fill="white" stroke="transparent" points="-4,4 -4,-396 2887,-396 2887,4 -4,4"/>
<!-- Node1 -->
<g id="node1" class="node">
<title>Node1</title>
<g id="a_node1"><a xlink:title=" ">
<polygon fill="#bfbfbf" stroke="black" points="2730,-44 2730,-74 2883,-74 2883,-44 2730,-44"/>
<text text-anchor="start" x="2738" y="-62" font-family="Helvetica,sans-Serif" font-size="10.00">itk::simple::LandmarkBased</text>
<text text-anchor="middle" x="2806.5" y="-51" font-family="Helvetica,sans-Serif" font-size="10.00">TransformInitializerFilter</text>
</a>
</g>
</g>
<!-- Node2 -->
<g id="node2" class="node">
<title>Node2</title>
<g id="a_node2"><a xlink:href="classitk_1_1simple_1_1ImageFilter.html" target="_top" xlink:title="The base interface for SimpleITK filters that take one input image.">
<polygon fill="white" stroke="black" points="2435,-148.5 2435,-167.5 2565,-167.5 2565,-148.5 2435,-148.5"/>
<text text-anchor="middle" x="2500" y="-155.5" font-family="Helvetica,sans-Serif" font-size="10.00">itk::simple::ImageFilter</text>
</a>
</g>
</g>
<!-- Node2&#45;&gt;Node1 -->
<g id="edge1" class="edge">
<title>Node2&#45;&gt;Node1</title>
<path fill="none" stroke="midnightblue" d="M2541.53,-145.43C2584.07,-132.16 2652.87,-110.51 2712,-91 2728.46,-85.57 2746.48,-79.45 2762.28,-74.02"/>
<polygon fill="midnightblue" stroke="midnightblue" points="2540.33,-142.13 2531.82,-148.45 2542.41,-148.82 2540.33,-142.13"/>
</g>
<!-- Node3 -->
<g id="node3" class="node">
<title>Node3</title>
<g id="a_node3"><a xlink:href="classitk_1_1simple_1_1ProcessObject.html" target="_top" xlink:title="Base class for SimpleITK classes based on ProcessObject.">
<polygon fill="white" stroke="black" points="2133,-268.5 2133,-287.5 2276,-287.5 2276,-268.5 2133,-268.5"/>
<text text-anchor="middle" x="2204.5" y="-275.5" font-family="Helvetica,sans-Serif" font-size="10.00">itk::simple::ProcessObject</text>
</a>
</g>
</g>
<!-- Node3&#45;&gt;Node2 -->
<g id="edge2" class="edge">
<title>Node3&#45;&gt;Node2</title>
<path fill="none" stroke="midnightblue" d="M2238.37,-264.56C2298.13,-240.13 2423.2,-188.99 2475.37,-167.66"/>
<polygon fill="midnightblue" stroke="midnightblue" points="2236.95,-261.36 2229.02,-268.38 2239.6,-267.84 2236.95,-261.36"/>
</g>
<!-- Node4 -->
<g id="node4" class="node">
<title>Node4</title>
<g id="a_node4"><a xlink:href="classitk_1_1simple_1_1NonCopyable.html" target="_top" xlink:title="An inheritable class to disable copying of a class.">
<polygon fill="white" stroke="black" points="382,-372.5 382,-391.5 522,-391.5 522,-372.5 382,-372.5"/>
<text text-anchor="middle" x="452" y="-379.5" font-family="Helvetica,sans-Serif" font-size="10.00">itk::simple::NonCopyable</text>
</a>
</g>
</g>
<!-- Node4&#45;&gt;Node3 -->
<g id="edge3" class="edge">
<title>Node4&#45;&gt;Node3</title>
<path fill="none" stroke="darkgreen" d="M532.21,-382C601.94,-382 706.21,-382 797,-382 797,-382 797,-382 1864.5,-382 1992.55,-382 2136.31,-313.34 2185.72,-287.6"/>
<polygon fill="darkgreen" stroke="darkgreen" points="532.18,-378.5 522.18,-382 532.18,-385.5 532.18,-378.5"/>
</g>
<!-- Node8 -->
<g id="node8" class="node">
<title>Node8</title>
<g id="a_node8"><a xlink:href="classitk_1_1simple_1_1ObjectOwnedBase.html" target="_top" xlink:title="An abstract base class to connect this object with the lifetime of another.">
<polygon fill="white" stroke="black" points="716,-298.5 716,-317.5 880,-317.5 880,-298.5 716,-298.5"/>
<text text-anchor="middle" x="798" y="-305.5" font-family="Helvetica,sans-Serif" font-size="10.00">itk::simple::ObjectOwnedBase</text>
</a>
</g>
</g>
<!-- Node4&#45;&gt;Node8 -->
<g id="edge8" class="edge">
<title>Node4&#45;&gt;Node8</title>
<path fill="none" stroke="midnightblue" d="M526.87,-370.93C586.83,-361.71 666.4,-348.86 698,-341 723.67,-334.62 752.26,-324.78 772.09,-317.51"/>
<polygon fill="midnightblue" stroke="midnightblue" points="526.03,-367.52 516.68,-372.5 527.09,-374.44 526.03,-367.52"/>
</g>
<!-- Node5 -->
<g id="node5" class="node">
<title>Node5</title>
<g id="a_node5"><a xlink:title=" ">
<polygon fill="white" stroke="#bfbfbf" points="1770,-263 1770,-293 1957,-293 1957,-263 1770,-263"/>
<text text-anchor="start" x="1778" y="-281" font-family="Helvetica,sans-Serif" font-size="10.00">std::list&lt; itk::simple</text>
<text text-anchor="middle" x="1863.5" y="-270" font-family="Helvetica,sans-Serif" font-size="10.00">::ProcessObject::EventCommand &gt;</text>
</a>
</g>
</g>
<!-- Node5&#45;&gt;Node3 -->
<g id="edge4" class="edge">
<title>Node5&#45;&gt;Node3</title>
<path fill="none" stroke="#9a32cd" stroke-dasharray="5,2" d="M1967.34,-278C2020.84,-278 2084.87,-278 2132.76,-278"/>
<polygon fill="#9a32cd" stroke="#9a32cd" points="1967.13,-274.5 1957.13,-278 1967.13,-281.5 1967.13,-274.5"/>
<text text-anchor="middle" x="2040" y="-281" font-family="Helvetica,sans-Serif" font-size="10.00"> m_Commands</text>
</g>
<!-- Node6 -->
<g id="node6" class="node">
<title>Node6</title>
<g id="a_node6"><a xlink:href="structitk_1_1simple_1_1ProcessObject_1_1EventCommand.html" target="_top" xlink:title=" ">
<polygon fill="white" stroke="black" points="1412.5,-290 1412.5,-320 1555.5,-320 1555.5,-290 1412.5,-290"/>
<text text-anchor="start" x="1420.5" y="-308" font-family="Helvetica,sans-Serif" font-size="10.00">itk::simple::ProcessObject</text>
<text text-anchor="middle" x="1484" y="-297" font-family="Helvetica,sans-Serif" font-size="10.00">::EventCommand</text>
</a>
</g>
</g>
<!-- Node6&#45;&gt;Node5 -->
<g id="edge5" class="edge">
<title>Node6&#45;&gt;Node5</title>
<path fill="none" stroke="#9a32cd" stroke-dasharray="5,2" d="M1565.72,-299.23C1625.58,-294.95 1707.29,-289.1 1769.81,-284.63"/>
<polygon fill="#9a32cd" stroke="#9a32cd" points="1565.29,-295.75 1555.56,-299.95 1565.79,-302.73 1565.29,-295.75"/>
<text text-anchor="middle" x="1670" y="-300" font-family="Helvetica,sans-Serif" font-size="10.00"> elements</text>
</g>
<!-- Node7 -->
<g id="node7" class="node">
<title>Node7</title>
<g id="a_node7"><a xlink:href="classitk_1_1simple_1_1Command.html" target="_top" xlink:title="An implementation of the Command design pattern for callback.">
<polygon fill="white" stroke="black" points="1077.5,-296.5 1077.5,-315.5 1202.5,-315.5 1202.5,-296.5 1077.5,-296.5"/>
<text text-anchor="middle" x="1140" y="-303.5" font-family="Helvetica,sans-Serif" font-size="10.00">itk::simple::Command</text>
</a>
</g>
</g>
<!-- Node7&#45;&gt;Node6 -->
<g id="edge6" class="edge">
<title>Node7&#45;&gt;Node6</title>
<path fill="none" stroke="#9a32cd" stroke-dasharray="5,2" d="M1212.83,-305.79C1271.46,-305.62 1353.86,-305.38 1412.21,-305.21"/>
<polygon fill="#9a32cd" stroke="#9a32cd" points="1212.53,-302.29 1202.54,-305.82 1212.55,-309.29 1212.53,-302.29"/>
<text text-anchor="middle" x="1310" y="-308" font-family="Helvetica,sans-Serif" font-size="10.00"> m_Command</text>
</g>
<!-- Node8&#45;&gt;Node7 -->
<g id="edge7" class="edge">
<title>Node8&#45;&gt;Node7</title>
<path fill="none" stroke="midnightblue" d="M890.13,-307.46C949.45,-307.12 1025.23,-306.67 1077.5,-306.36"/>
<polygon fill="midnightblue" stroke="midnightblue" points="889.99,-303.96 880.01,-307.52 890.03,-310.96 889.99,-303.96"/>
</g>
<!-- Node9 -->
<g id="node9" class="node">
<title>Node9</title>
<g id="a_node9"><a xlink:title=" ">
<polygon fill="white" stroke="#bfbfbf" points="387.5,-312.5 387.5,-353.5 516.5,-353.5 516.5,-312.5 387.5,-312.5"/>
<text text-anchor="start" x="395.5" y="-341.5" font-family="Helvetica,sans-Serif" font-size="10.00">std::multimap&lt; itk</text>
<text text-anchor="start" x="395.5" y="-330.5" font-family="Helvetica,sans-Serif" font-size="10.00">::Object *, std::function</text>
<text text-anchor="middle" x="452" y="-319.5" font-family="Helvetica,sans-Serif" font-size="10.00">&lt; void()&gt; &gt;</text>
</a>
</g>
</g>
<!-- Node9&#45;&gt;Node8 -->
<g id="edge9" class="edge">
<title>Node9&#45;&gt;Node8</title>
<path fill="none" stroke="#9a32cd" stroke-dasharray="5,2" d="M527.03,-327.62C582.59,-323.58 658.62,-318.06 715.84,-313.9"/>
<polygon fill="#9a32cd" stroke="#9a32cd" points="526.62,-324.14 516.9,-328.36 527.12,-331.12 526.62,-324.14"/>
<text text-anchor="middle" x="619" y="-329" font-family="Helvetica,sans-Serif" font-size="10.00"> m_ReferencedObjectsCallbacks</text>
</g>
<!-- Node10 -->
<g id="node10" class="node">
<title>Node10</title>
<g id="a_node10"><a xlink:title="STL class.">
<polygon fill="white" stroke="#bfbfbf" points="114,-320.5 114,-339.5 240,-339.5 240,-320.5 114,-320.5"/>
<text text-anchor="middle" x="177" y="-327.5" font-family="Helvetica,sans-Serif" font-size="10.00">std::multimap&lt; K, T &gt;</text>
</a>
</g>
</g>
<!-- Node10&#45;&gt;Node9 -->
<g id="edge10" class="edge">
<title>Node10&#45;&gt;Node9</title>
<path fill="none" stroke="orange" stroke-dasharray="5,2" d="M250.3,-330.79C292.82,-331.26 346.1,-331.85 387.08,-332.3"/>
<polygon fill="orange" stroke="orange" points="250.33,-327.29 240.29,-330.68 250.25,-334.29 250.33,-327.29"/>
<text text-anchor="start" x="258" y="-346" font-family="Helvetica,sans-Serif" font-size="10.00"> &lt; itk::Object *, std</text>
<text text-anchor="middle" x="311" y="-335" font-family="Helvetica,sans-Serif" font-size="10.00">::function&lt; void()&gt; &gt;</text>
</g>
<!-- Node11 -->
<g id="node11" class="node">
<title>Node11</title>
<g id="a_node11"><a xlink:title=" ">
<polygon fill="white" stroke="#bfbfbf" points="0,-320.5 0,-339.5 29,-339.5 29,-320.5 0,-320.5"/>
<text text-anchor="middle" x="14.5" y="-327.5" font-family="Helvetica,sans-Serif" font-size="10.00">K</text>
</a>
</g>
</g>
<!-- Node11&#45;&gt;Node10 -->
<g id="edge11" class="edge">
<title>Node11&#45;&gt;Node10</title>
<path fill="none" stroke="#9a32cd" stroke-dasharray="5,2" d="M39.34,-330C58.97,-330 87.71,-330 113.77,-330"/>
<polygon fill="#9a32cd" stroke="#9a32cd" points="39.18,-326.5 29.18,-330 39.18,-333.5 39.18,-326.5"/>
<text text-anchor="middle" x="71.5" y="-333" font-family="Helvetica,sans-Serif" font-size="10.00"> keys</text>
</g>
<!-- Node12 -->
<g id="node12" class="node">
<title>Node12</title>
<g id="a_node12"><a xlink:title=" ">
<polygon fill="white" stroke="#bfbfbf" points="0,-198.5 0,-217.5 29,-217.5 29,-198.5 0,-198.5"/>
<text text-anchor="middle" x="14.5" y="-205.5" font-family="Helvetica,sans-Serif" font-size="10.00">T</text>
</a>
</g>
</g>
<!-- Node12&#45;&gt;Node10 -->
<g id="edge12" class="edge">
<title>Node12&#45;&gt;Node10</title>
<path fill="none" stroke="#9a32cd" stroke-dasharray="5,2" d="M28.46,-225.86C45.63,-248.31 77.98,-286.62 114,-309 121.53,-313.68 130.23,-317.46 138.68,-320.45"/>
<polygon fill="#9a32cd" stroke="#9a32cd" points="31.05,-223.48 22.25,-217.56 25.44,-227.67 31.05,-223.48"/>
<text text-anchor="middle" x="71.5" y="-298" font-family="Helvetica,sans-Serif" font-size="10.00"> elements</text>
</g>
<!-- Node15 -->
<g id="node15" class="node">
<title>Node15</title>
<g id="a_node15"><a xlink:title="STL class.">
<polygon fill="white" stroke="#bfbfbf" points="270.5,-226.5 270.5,-245.5 351.5,-245.5 351.5,-226.5 270.5,-226.5"/>
<text text-anchor="middle" x="311" y="-233.5" font-family="Helvetica,sans-Serif" font-size="10.00">std::list&lt; T &gt;</text>
</a>
</g>
</g>
<!-- Node12&#45;&gt;Node15 -->
<g id="edge16" class="edge">
<title>Node12&#45;&gt;Node15</title>
<path fill="none" stroke="#9a32cd" stroke-dasharray="5,2" d="M39.29,-210.26C89.82,-215.07 208.31,-226.33 270.42,-232.24"/>
<polygon fill="#9a32cd" stroke="#9a32cd" points="39.6,-206.78 29.31,-209.31 38.93,-213.74 39.6,-206.78"/>
<text text-anchor="middle" x="71.5" y="-218" font-family="Helvetica,sans-Serif" font-size="10.00"> elements</text>
</g>
<!-- Node22 -->
<g id="node22" class="node">
<title>Node22</title>
<g id="a_node22"><a xlink:title="STL class.">
<polygon fill="white" stroke="#bfbfbf" points="560,-109.5 560,-128.5 678,-128.5 678,-109.5 560,-109.5"/>
<text text-anchor="middle" x="619" y="-116.5" font-family="Helvetica,sans-Serif" font-size="10.00">std::unique_ptr&lt; T &gt;</text>
</a>
</g>
</g>
<!-- Node12&#45;&gt;Node22 -->
<g id="edge25" class="edge">
<title>Node12&#45;&gt;Node22</title>
<path fill="none" stroke="#9a32cd" stroke-dasharray="5,2" d="M39.18,-204.5C126.37,-191.62 431.16,-146.6 559.9,-127.58"/>
<polygon fill="#9a32cd" stroke="#9a32cd" points="38.6,-201.05 29.22,-205.97 39.62,-207.97 38.6,-201.05"/>
<text text-anchor="middle" x="177" y="-195" font-family="Helvetica,sans-Serif" font-size="10.00"> ptr</text>
</g>
<!-- Node26 -->
<g id="node26" class="node">
<title>Node26</title>
<g id="a_node26"><a xlink:title="STL class.">
<polygon fill="white" stroke="#bfbfbf" points="128.5,-53.5 128.5,-72.5 225.5,-72.5 225.5,-53.5 128.5,-53.5"/>
<text text-anchor="middle" x="177" y="-60.5" font-family="Helvetica,sans-Serif" font-size="10.00">std::vector&lt; T &gt;</text>
</a>
</g>
</g>
<!-- Node12&#45;&gt;Node26 -->
<g id="edge30" class="edge">
<title>Node12&#45;&gt;Node26</title>
<path fill="none" stroke="#9a32cd" stroke-dasharray="5,2" d="M20.6,-188.18C25.37,-172.79 33.77,-151.67 47,-137 75.44,-105.46 120.6,-83.9 149.24,-72.51"/>
<polygon fill="#9a32cd" stroke="#9a32cd" points="17.12,-187.63 17.75,-198.2 23.86,-189.54 17.12,-187.63"/>
<text text-anchor="middle" x="71.5" y="-140" font-family="Helvetica,sans-Serif" font-size="10.00"> elements</text>
</g>
<!-- Node13 -->
<g id="node13" class="node">
<title>Node13</title>
<g id="a_node13"><a xlink:title="STL class.">
<polygon fill="white" stroke="#bfbfbf" points="419.5,-274.5 419.5,-293.5 484.5,-293.5 484.5,-274.5 419.5,-274.5"/>
<text text-anchor="middle" x="452" y="-281.5" font-family="Helvetica,sans-Serif" font-size="10.00">std::string</text>
</a>
</g>
</g>
<!-- Node13&#45;&gt;Node8 -->
<g id="edge13" class="edge">
<title>Node13&#45;&gt;Node8</title>
<path fill="none" stroke="#9a32cd" stroke-dasharray="5,2" d="M494.98,-284.09C543.84,-284.54 626.94,-286.33 698,-293 712.19,-294.33 727.45,-296.35 741.63,-298.48"/>
<polygon fill="#9a32cd" stroke="#9a32cd" points="494.82,-280.59 484.79,-284.02 494.76,-287.59 494.82,-280.59"/>
<text text-anchor="middle" x="619" y="-296" font-family="Helvetica,sans-Serif" font-size="10.00"> m_Name</text>
</g>
<!-- Node14 -->
<g id="node14" class="node">
<title>Node14</title>
<g id="a_node14"><a xlink:title="STL class.">
<polygon fill="white" stroke="#bfbfbf" points="125,-269 125,-299 229,-299 229,-269 125,-269"/>
<text text-anchor="start" x="133" y="-287" font-family="Helvetica,sans-Serif" font-size="10.00">std::basic_string&lt;</text>
<text text-anchor="middle" x="177" y="-276" font-family="Helvetica,sans-Serif" font-size="10.00"> char &gt;</text>
</a>
</g>
</g>
<!-- Node14&#45;&gt;Node13 -->
<g id="edge14" class="edge">
<title>Node14&#45;&gt;Node13</title>
<path fill="none" stroke="midnightblue" d="M239.16,-284C295.05,-284 375.46,-284 419.39,-284"/>
<polygon fill="midnightblue" stroke="midnightblue" points="239.03,-280.5 229.03,-284 239.03,-287.5 239.03,-280.5"/>
</g>
<!-- Node15&#45;&gt;Node5 -->
<g id="edge15" class="edge">
<title>Node15&#45;&gt;Node5</title>
<path fill="none" stroke="orange" stroke-dasharray="5,2" d="M361.91,-237.35C583.26,-243.35 1478.15,-267.59 1769.98,-275.49"/>
<polygon fill="orange" stroke="orange" points="361.98,-233.85 351.89,-237.08 361.79,-240.85 361.98,-233.85"/>
<text text-anchor="start" x="898" y="-269" font-family="Helvetica,sans-Serif" font-size="10.00"> &lt; itk::simple::ProcessObject</text>
<text text-anchor="middle" x="969" y="-258" font-family="Helvetica,sans-Serif" font-size="10.00">::EventCommand &gt;</text>
</g>
<!-- Node16 -->
<g id="node16" class="node">
<title>Node16</title>
<g id="a_node16"><a xlink:title=" ">
<polygon fill="white" stroke="#bfbfbf" points="2405,-66.5 2405,-107.5 2595,-107.5 2595,-66.5 2405,-66.5"/>
<text text-anchor="start" x="2413" y="-95.5" font-family="Helvetica,sans-Serif" font-size="10.00">std::unique_ptr&lt; itk</text>
<text text-anchor="start" x="2413" y="-84.5" font-family="Helvetica,sans-Serif" font-size="10.00">::simple::detail::MemberFunction</text>
<text text-anchor="middle" x="2500" y="-73.5" font-family="Helvetica,sans-Serif" font-size="10.00">Factory&lt; MemberFunctionType &gt; &gt;</text>
</a>
</g>
</g>
<!-- Node16&#45;&gt;Node1 -->
<g id="edge17" class="edge">
<title>Node16&#45;&gt;Node1</title>
<path fill="none" stroke="#9a32cd" stroke-dasharray="5,2" d="M2605.24,-77.41C2646.03,-73.66 2691.95,-69.44 2729.51,-65.99"/>
<polygon fill="#9a32cd" stroke="#9a32cd" points="2604.9,-73.93 2595.26,-78.33 2605.54,-80.9 2604.9,-73.93"/>
<text text-anchor="middle" x="2662.5" y="-79" font-family="Helvetica,sans-Serif" font-size="10.00"> m_MemberFactory</text>
</g>
<!-- Node17 -->
<g id="node17" class="node">
<title>Node17</title>
<g id="a_node17"><a xlink:href="classitk_1_1simple_1_1detail_1_1MemberFunctionFactory.html" target="_top" xlink:title=" ">
<polygon fill="white" stroke="black" points="2133,-133.5 2133,-174.5 2276,-174.5 2276,-133.5 2133,-133.5"/>
<text text-anchor="start" x="2141" y="-162.5" font-family="Helvetica,sans-Serif" font-size="10.00">itk::simple::detail</text>
<text text-anchor="start" x="2141" y="-151.5" font-family="Helvetica,sans-Serif" font-size="10.00">::MemberFunctionFactory</text>
<text text-anchor="middle" x="2204.5" y="-140.5" font-family="Helvetica,sans-Serif" font-size="10.00">&lt; MemberFunctionType &gt;</text>
</a>
</g>
</g>
<!-- Node17&#45;&gt;Node16 -->
<g id="edge18" class="edge">
<title>Node17&#45;&gt;Node16</title>
<path fill="none" stroke="#9a32cd" stroke-dasharray="5,2" d="M2286.2,-135.58C2324.33,-126.87 2369.97,-116.46 2409.18,-107.5"/>
<polygon fill="#9a32cd" stroke="#9a32cd" points="2285.14,-132.23 2276.17,-137.87 2286.7,-139.05 2285.14,-132.23"/>
<text text-anchor="middle" x="2345.5" y="-133" font-family="Helvetica,sans-Serif" font-size="10.00"> ptr</text>
</g>
<!-- Node18 -->
<g id="node18" class="node">
<title>Node18</title>
<g id="a_node18"><a xlink:href="classitk_1_1simple_1_1detail_1_1MemberFunctionFactoryBase.html" target="_top" xlink:title=" ">
<polygon fill="white" stroke="black" points="1588,-180 1588,-232 1752,-232 1752,-180 1588,-180"/>
<text text-anchor="start" x="1596" y="-220" font-family="Helvetica,sans-Serif" font-size="10.00">itk::simple::detail</text>
<text text-anchor="start" x="1596" y="-209" font-family="Helvetica,sans-Serif" font-size="10.00">::MemberFunctionFactoryBase</text>
<text text-anchor="start" x="1596" y="-198" font-family="Helvetica,sans-Serif" font-size="10.00">&lt; MemberFunctionType, std</text>
<text text-anchor="middle" x="1670" y="-187" font-family="Helvetica,sans-Serif" font-size="10.00">::pair&lt; unsigned int, int &gt; &gt;</text>
</a>
</g>
</g>
<!-- Node18&#45;&gt;Node17 -->
<g id="edge19" class="edge">
<title>Node18&#45;&gt;Node17</title>
<path fill="none" stroke="darkgreen" d="M1762.62,-200.38C1850.61,-194.47 1987.19,-183.93 2105,-169 2114.01,-167.86 2123.47,-166.55 2132.81,-165.2"/>
<polygon fill="darkgreen" stroke="darkgreen" points="1762.14,-196.9 1752.4,-201.06 1762.61,-203.89 1762.14,-196.9"/>
</g>
<!-- Node19 -->
<g id="node19" class="node">
<title>Node19</title>
<g id="a_node19"><a xlink:href="classitk_1_1simple_1_1detail_1_1MemberFunctionFactoryBase.html" target="_top" xlink:title="A base class for the MemberFunctionFactory.">
<polygon fill="white" stroke="black" points="1058,-166 1058,-196 1222,-196 1222,-166 1058,-166"/>
<text text-anchor="start" x="1066" y="-184" font-family="Helvetica,sans-Serif" font-size="10.00">itk::simple::detail</text>
<text text-anchor="middle" x="1140" y="-173" font-family="Helvetica,sans-Serif" font-size="10.00">::MemberFunctionFactoryBase</text>
</a>
</g>
</g>
<!-- Node19&#45;&gt;Node18 -->
<g id="edge20" class="edge">
<title>Node19&#45;&gt;Node18</title>
<path fill="none" stroke="orange" stroke-dasharray="5,2" d="M1232.23,-186.58C1234.85,-186.73 1237.44,-186.87 1240,-187 1361.17,-193.35 1501.66,-199.31 1587.93,-202.8"/>
<polygon fill="orange" stroke="orange" points="1232.21,-183.08 1222.04,-186.02 1231.83,-190.07 1232.21,-183.08"/>
<text text-anchor="start" x="1249" y="-218" font-family="Helvetica,sans-Serif" font-size="10.00"> &lt; MemberFunctionType,</text>
<text text-anchor="start" x="1249" y="-207" font-family="Helvetica,sans-Serif" font-size="10.00"> std::pair&lt; unsigned</text>
<text text-anchor="middle" x="1310" y="-196" font-family="Helvetica,sans-Serif" font-size="10.00"> int, int &gt; &gt;</text>
</g>
<!-- Node21 -->
<g id="node21" class="node">
<title>Node21</title>
<g id="a_node21"><a xlink:href="classitk_1_1simple_1_1detail_1_1MemberFunctionFactoryBase.html" target="_top" xlink:title=" ">
<polygon fill="white" stroke="black" points="1398,-128 1398,-180 1570,-180 1570,-128 1398,-128"/>
<text text-anchor="start" x="1406" y="-168" font-family="Helvetica,sans-Serif" font-size="10.00">itk::simple::detail</text>
<text text-anchor="start" x="1406" y="-157" font-family="Helvetica,sans-Serif" font-size="10.00">::MemberFunctionFactoryBase</text>
<text text-anchor="start" x="1406" y="-146" font-family="Helvetica,sans-Serif" font-size="10.00">&lt; TMemberFunctionPointer,</text>
<text text-anchor="middle" x="1484" y="-135" font-family="Helvetica,sans-Serif" font-size="10.00"> std::pair&lt; unsigned int, int &gt; &gt;</text>
</a>
</g>
</g>
<!-- Node19&#45;&gt;Node21 -->
<g id="edge23" class="edge">
<title>Node19&#45;&gt;Node21</title>
<path fill="none" stroke="orange" stroke-dasharray="5,2" d="M1196.35,-163.12C1210.43,-159.34 1225.65,-155.92 1240,-154 1292.06,-147.03 1350.96,-146.84 1397.73,-148.48"/>
<polygon fill="orange" stroke="orange" points="1195.01,-159.86 1186.32,-165.92 1196.89,-166.6 1195.01,-159.86"/>
<text text-anchor="start" x="1240" y="-179" font-family="Helvetica,sans-Serif" font-size="10.00"> &lt; TMemberFunctionPointer,</text>
<text text-anchor="start" x="1240" y="-168" font-family="Helvetica,sans-Serif" font-size="10.00"> std::pair&lt; unsigned int,</text>
<text text-anchor="middle" x="1310" y="-157" font-family="Helvetica,sans-Serif" font-size="10.00"> int &gt; &gt;</text>
</g>
<!-- Node20 -->
<g id="node20" class="node">
<title>Node20</title>
<g id="a_node20"><a xlink:href="classitk_1_1simple_1_1detail_1_1MemberFunctionFactory.html" target="_top" xlink:title="A class used to instantiate and generate function object to templated member functions.">
<polygon fill="white" stroke="black" points="1783,-133.5 1783,-174.5 1944,-174.5 1944,-133.5 1783,-133.5"/>
<text text-anchor="start" x="1791" y="-162.5" font-family="Helvetica,sans-Serif" font-size="10.00">itk::simple::detail</text>
<text text-anchor="start" x="1791" y="-151.5" font-family="Helvetica,sans-Serif" font-size="10.00">::MemberFunctionFactory</text>
<text text-anchor="middle" x="1863.5" y="-140.5" font-family="Helvetica,sans-Serif" font-size="10.00">&lt; TMemberFunctionPointer &gt;</text>
</a>
</g>
</g>
<!-- Node20&#45;&gt;Node17 -->
<g id="edge21" class="edge">
<title>Node20&#45;&gt;Node17</title>
<path fill="none" stroke="orange" stroke-dasharray="5,2" d="M1954.64,-154C2010.43,-154 2081.02,-154 2132.76,-154"/>
<polygon fill="orange" stroke="orange" points="1954.41,-150.5 1944.41,-154 1954.41,-157.5 1954.41,-150.5"/>
<text text-anchor="middle" x="2040" y="-157" font-family="Helvetica,sans-Serif" font-size="10.00"> &lt; MemberFunctionType &gt;</text>
</g>
<!-- Node21&#45;&gt;Node20 -->
<g id="edge22" class="edge">
<title>Node21&#45;&gt;Node20</title>
<path fill="none" stroke="darkgreen" d="M1580.45,-154C1642.96,-154 1723.71,-154 1782.78,-154"/>
<polygon fill="darkgreen" stroke="darkgreen" points="1580.19,-150.5 1570.19,-154 1580.19,-157.5 1580.19,-150.5"/>
</g>
<!-- Node22&#45;&gt;Node16 -->
<g id="edge24" class="edge">
<title>Node22&#45;&gt;Node16</title>
<path fill="none" stroke="orange" stroke-dasharray="5,2" d="M677.23,-107.55C745.98,-94.81 864.93,-76 968,-76 968,-76 968,-76 2205.5,-76 2272.17,-76 2347.3,-78.87 2404.86,-81.68"/>
<polygon fill="orange" stroke="orange" points="676.24,-104.17 667.05,-109.46 677.53,-111.05 676.24,-104.17"/>
<text text-anchor="start" x="1414.5" y="-101" font-family="Helvetica,sans-Serif" font-size="10.00"> &lt; itk::simple::detail</text>
<text text-anchor="start" x="1414.5" y="-90" font-family="Helvetica,sans-Serif" font-size="10.00">::MemberFunctionFactory</text>
<text text-anchor="middle" x="1484" y="-79" font-family="Helvetica,sans-Serif" font-size="10.00">&lt; MemberFunctionType &gt; &gt;</text>
</g>
<!-- Node23 -->
<g id="node23" class="node">
<title>Node23</title>
<g id="a_node23"><a xlink:href="classitk_1_1simple_1_1Image.html" target="_top" xlink:title="The Image class for SimpleITK.">
<polygon fill="white" stroke="black" points="2447.5,-28.5 2447.5,-47.5 2552.5,-47.5 2552.5,-28.5 2447.5,-28.5"/>
<text text-anchor="middle" x="2500" y="-35.5" font-family="Helvetica,sans-Serif" font-size="10.00">itk::simple::Image</text>
</a>
</g>
</g>
<!-- Node23&#45;&gt;Node1 -->
<g id="edge26" class="edge">
<title>Node23&#45;&gt;Node1</title>
<path fill="none" stroke="#9a32cd" stroke-dasharray="5,2" d="M2562.73,-40.87C2604.82,-42.99 2661.81,-46.16 2712,-50 2717.85,-50.45 2723.91,-50.95 2730,-51.48"/>
<polygon fill="#9a32cd" stroke="#9a32cd" points="2562.79,-37.37 2552.63,-40.37 2562.45,-44.36 2562.79,-37.37"/>
<text text-anchor="middle" x="2662.5" y="-53" font-family="Helvetica,sans-Serif" font-size="10.00"> m_ReferenceImage</text>
</g>
<!-- Node24 -->
<g id="node24" class="node">
<title>Node24</title>
<g id="a_node24"><a xlink:href="classitk_1_1simple_1_1PimpleImageBase.html" target="_top" xlink:title="Private implementation idiom image base class.">
<polygon fill="white" stroke="black" points="2123,-28.5 2123,-47.5 2286,-47.5 2286,-28.5 2123,-28.5"/>
<text text-anchor="middle" x="2204.5" y="-35.5" font-family="Helvetica,sans-Serif" font-size="10.00">itk::simple::PimpleImageBase</text>
</a>
</g>
</g>
<!-- Node24&#45;&gt;Node23 -->
<g id="edge27" class="edge">
<title>Node24&#45;&gt;Node23</title>
<path fill="none" stroke="#9a32cd" stroke-dasharray="5,2" d="M2296.19,-38C2345.82,-38 2405.51,-38 2447.24,-38"/>
<polygon fill="#9a32cd" stroke="#9a32cd" points="2296.09,-34.5 2286.09,-38 2296.09,-41.5 2296.09,-34.5"/>
<text text-anchor="middle" x="2345.5" y="-41" font-family="Helvetica,sans-Serif" font-size="10.00"> m_PimpleImage</text>
</g>
<!-- Node25 -->
<g id="node25" class="node">
<title>Node25</title>
<g id="a_node25"><a xlink:title=" ">
<polygon fill="white" stroke="#bfbfbf" points="907,-0.5 907,-19.5 1031,-19.5 1031,-0.5 907,-0.5"/>
<text text-anchor="middle" x="969" y="-7.5" font-family="Helvetica,sans-Serif" font-size="10.00">std::vector&lt; double &gt;</text>
</a>
</g>
</g>
<!-- Node25&#45;&gt;Node1 -->
<g id="edge28" class="edge">
<title>Node25&#45;&gt;Node1</title>
<path fill="none" stroke="#9a32cd" stroke-dasharray="5,2" d="M1041.48,-6.67C1110.08,-3.76 1216.59,0 1309,0 1309,0 1309,0 2501,0 2593.35,0 2698.62,-26.48 2758.06,-43.96"/>
<polygon fill="#9a32cd" stroke="#9a32cd" points="1041.07,-3.18 1031.23,-7.11 1041.37,-10.18 1041.07,-3.18"/>
<text text-anchor="middle" x="1863.5" y="-25" font-family="Helvetica,sans-Serif" font-size="10.00"> m_LandmarkWeight</text>
<text text-anchor="middle" x="1863.5" y="-14" font-family="Helvetica,sans-Serif" font-size="10.00">m_MovingLandmarks</text>
<text text-anchor="middle" x="1863.5" y="-3" font-family="Helvetica,sans-Serif" font-size="10.00">m_FixedLandmarks</text>
</g>
<!-- Node26&#45;&gt;Node25 -->
<g id="edge29" class="edge">
<title>Node26&#45;&gt;Node25</title>
<path fill="none" stroke="orange" stroke-dasharray="5,2" d="M235.65,-59.13C380.43,-49.42 758.3,-24.07 906.8,-14.11"/>
<polygon fill="orange" stroke="orange" points="235.38,-55.64 225.64,-59.8 235.85,-62.63 235.38,-55.64"/>
<text text-anchor="middle" x="452" y="-52" font-family="Helvetica,sans-Serif" font-size="10.00"> &lt; double &gt;</text>
</g>
</g>
</svg>
        <g id="navigator" transform="translate(0 0)" fill="#404254">
                <rect fill="#f2f5e9" fill-opacity="0.5" stroke="#606060" stroke-width=".5" x="0" y="0" width="60" height="60"/>
                <use id="zoomplus" xlink:href="#zoomPlus" x="17" y="9" onmousedown="handleZoom(evt,'in')"/>
                <use id="zoomminus" xlink:href="#zoomMin" x="42" y="9" onmousedown="handleZoom(evt,'out')"/>
                <use id="reset" xlink:href="#resetDef" x="30" y="36" onmousedown="handleReset()"/>
                <g id="arrowUp" xlink:href="#dirArrow" transform="translate(30 24)" onmousedown="handlePan(0,-1)">
                  <use xlink:href="#rim" fill="#404040">
                        <set attributeName="fill" to="#808080" begin="arrowUp.mouseover" end="arrowUp.mouseout"/>
                  </use>
                  <path fill="none" stroke="white" stroke-width="1.5" d="M0,-3.0v7 M-2.5,-0.5L0,-3.0L2.5,-0.5"/>
                </g>
                <g id="arrowRight" xlink:href="#dirArrow" transform="rotate(90) translate(36 -43)" onmousedown="handlePan(1,0)">
                  <use xlink:href="#rim" fill="#404040">
                        <set attributeName="fill" to="#808080" begin="arrowRight.mouseover" end="arrowRight.mouseout"/>
                  </use>
                  <path fill="none" stroke="white" stroke-width="1.5" d="M0,-3.0v7 M-2.5,-0.5L0,-3.0L2.5,-0.5"/>
                </g>
                <g id="arrowDown" xlink:href="#dirArrow" transform="rotate(180) translate(-30 -48)" onmousedown="handlePan(0,1)">
                  <use xlink:href="#rim" fill="#404040">
                        <set attributeName="fill" to="#808080" begin="arrowDown.mouseover" end="arrowDown.mouseout"/>
                  </use>
                  <path fill="none" stroke="white" stroke-width="1.5" d="M0,-3.0v7 M-2.5,-0.5L0,-3.0L2.5,-0.5"/>
                </g>
                <g id="arrowLeft" xlink:href="#dirArrow" transform="rotate(270) translate(-36 17)" onmousedown="handlePan(-1,0)">
                  <use xlink:href="#rim" fill="#404040">
                        <set attributeName="fill" to="#808080" begin="arrowLeft.mouseover" end="arrowLeft.mouseout"/>
                  </use>
                  <path fill="none" stroke="white" stroke-width="1.5" d="M0,-3.0v7 M-2.5,-0.5L0,-3.0L2.5,-0.5"/>
                </g>
        </g>
        <svg viewBox="0 0 15 15" width="100%" height="30px" preserveAspectRatio="xMaxYMin meet">
         <g id="arrow_out" transform="scale(0.3 0.3)">
          <a xlink:href="classitk_1_1simple_1_1LandmarkBasedTransformInitializerFilter__coll__graph_org.svg" target="_base">
           <rect id="button" ry="5" rx="5" y="6" x="6" height="38" width="38"
                fill="#f2f5e9" fill-opacity="0.5" stroke="#606060" stroke-width="1.0"/>
           <path id="arrow"
             d="M 11.500037,31.436501 C 11.940474,20.09759 22.043105,11.32322 32.158766,21.979434 L 37.068811,17.246167 C 37.068811,17.246167 37.088388,32 37.088388,32 L 22.160133,31.978069 C 22.160133,31.978069 26.997745,27.140456 26.997745,27.140456 C 18.528582,18.264221 13.291696,25.230495 11.500037,31.436501 z"
             style="fill:#404040;"/>
          </a>
         </g>
        </svg>
</svg>
