<?xml version="1.0" encoding="UTF-8" standalone="no"?>
<!DOCTYPE svg PUBLIC "-//W3C//DTD SVG 1.1//EN"
 "http://www.w3.org/Graphics/SVG/1.1/DTD/svg11.dtd">
<!-- Generated by graphviz version 2.43.0 (0)
 -->
<!-- Title: itk::simple::detail::MemberFunctionFactory&lt; TMemberFunctionPointer &gt; Pages: 1 -->
<svg width="1079pt" height="226pt"
 viewBox="0.00 0.00 1079.00 226.00" xmlns="http://www.w3.org/2000/svg" xmlns:xlink="http://www.w3.org/1999/xlink">
<g id="graph0" class="graph" transform="scale(1 1) rotate(0) translate(4 222)">
<title>itk::simple::detail::MemberFunctionFactory&lt; TMemberFunctionPointer &gt;</title>
<!-- Node1 -->
<g id="Node000001" class="node">
<title>Node1</title>
<g id="a_Node000001"><a xlink:title="A class used to instantiate and generate function object to templated member functions.">
<polygon fill="#999999" stroke="#666666" points="710,-129 549,-129 549,-88 710,-88 710,-129"/>
<text text-anchor="start" x="557" y="-117" font-family="Helvetica,sans-Serif" font-size="10.00">itk::simple::detail</text>
<text text-anchor="start" x="557" y="-106" font-family="Helvetica,sans-Serif" font-size="10.00">::MemberFunctionFactory</text>
<text text-anchor="middle" x="629.5" y="-95" font-family="Helvetica,sans-Serif" font-size="10.00">&lt; TMemberFunctionPointer &gt;</text>
</a>
</g>
</g>
<!-- Node4 -->
<g id="Node000004" class="node">
<title>Node4</title>
<g id="a_Node000004"><a xlink:href="classitk_1_1simple_1_1detail_1_1MemberFunctionFactory.html" target="_top" xlink:title=" ">
<polygon fill="white" stroke="#666666" points="1049.5,-218 906.5,-218 906.5,-177 1049.5,-177 1049.5,-218"/>
<text text-anchor="start" x="914.5" y="-206" font-family="Helvetica,sans-Serif" font-size="10.00">itk::simple::detail</text>
<text text-anchor="start" x="914.5" y="-195" font-family="Helvetica,sans-Serif" font-size="10.00">::MemberFunctionFactory</text>
<text text-anchor="middle" x="978" y="-184" font-family="Helvetica,sans-Serif" font-size="10.00">&lt; MemberFunctionType &gt;</text>
</a>
</g>
</g>
<!-- Node1&#45;&gt;Node4 -->
<g id="edge3_Node000001_Node000004" class="edge">
<title>Node1&#45;&gt;Node4</title>
<g id="a_edge3_Node000001_Node000004"><a xlink:title=" ">
<path fill="none" stroke="orange" stroke-dasharray="5,2" d="M693.24,-132.38C704.72,-136.36 716.65,-140.25 728,-143.5 787.42,-160.53 856.17,-175.06 906.36,-184.74"/>
<polygon fill="orange" stroke="orange" points="694.32,-129.06 683.73,-129.03 692,-135.66 694.32,-129.06"/>
</a>
</g>
<text text-anchor="middle" x="797.5" y="-178.5" font-family="Helvetica,sans-Serif" font-size="10.00" fill="grey"> &lt; MemberFunctionType &gt;</text>
</g>
<!-- Node5 -->
<g id="Node000005" class="node">
<title>Node5</title>
<g id="a_Node000005"><a xlink:href="classitk_1_1simple_1_1detail_1_1MemberFunctionFactory.html" target="_top" xlink:title=" ">
<polygon fill="white" stroke="#666666" points="1052.5,-159 903.5,-159 903.5,-118 1052.5,-118 1052.5,-159"/>
<text text-anchor="start" x="911.5" y="-147" font-family="Helvetica,sans-Serif" font-size="10.00">itk::simple::detail</text>
<text text-anchor="start" x="911.5" y="-136" font-family="Helvetica,sans-Serif" font-size="10.00">::MemberFunctionFactory</text>
<text text-anchor="middle" x="978" y="-125" font-family="Helvetica,sans-Serif" font-size="10.00">&lt; MemberFunction1Type &gt;</text>
</a>
</g>
</g>
<!-- Node1&#45;&gt;Node5 -->
<g id="edge4_Node000001_Node000005" class="edge">
<title>Node1&#45;&gt;Node5</title>
<g id="a_edge4_Node000001_Node000005"><a xlink:title=" ">
<path fill="none" stroke="orange" stroke-dasharray="5,2" d="M720.5,-116.29C777.37,-121.22 849.96,-127.5 903.39,-132.13"/>
<polygon fill="orange" stroke="orange" points="720.69,-112.8 710.43,-115.42 720.09,-119.77 720.69,-112.8"/>
</a>
</g>
<text text-anchor="middle" x="797.5" y="-131.5" font-family="Helvetica,sans-Serif" font-size="10.00" fill="grey"> &lt; MemberFunction1Type &gt;</text>
</g>
<!-- Node6 -->
<g id="Node000006" class="node">
<title>Node6</title>
<g id="a_Node000006"><a xlink:href="classitk_1_1simple_1_1detail_1_1MemberFunctionFactory.html" target="_top" xlink:title=" ">
<polygon fill="white" stroke="#666666" points="1052.5,-100 903.5,-100 903.5,-59 1052.5,-59 1052.5,-100"/>
<text text-anchor="start" x="911.5" y="-88" font-family="Helvetica,sans-Serif" font-size="10.00">itk::simple::detail</text>
<text text-anchor="start" x="911.5" y="-77" font-family="Helvetica,sans-Serif" font-size="10.00">::MemberFunctionFactory</text>
<text text-anchor="middle" x="978" y="-66" font-family="Helvetica,sans-Serif" font-size="10.00">&lt; MemberFunction2Type &gt;</text>
</a>
</g>
</g>
<!-- Node1&#45;&gt;Node6 -->
<g id="edge5_Node000001_Node000006" class="edge">
<title>Node1&#45;&gt;Node6</title>
<g id="a_edge5_Node000001_Node000006"><a xlink:title=" ">
<path fill="none" stroke="orange" stroke-dasharray="5,2" d="M720.5,-100.97C777.37,-96.21 849.96,-90.13 903.39,-85.66"/>
<polygon fill="orange" stroke="orange" points="720.1,-97.49 710.43,-101.81 720.69,-104.46 720.1,-97.49"/>
</a>
</g>
<text text-anchor="middle" x="797.5" y="-103.5" font-family="Helvetica,sans-Serif" font-size="10.00" fill="grey"> &lt; MemberFunction2Type &gt;</text>
</g>
<!-- Node7 -->
<g id="Node000007" class="node">
<title>Node7</title>
<g id="a_Node000007"><a xlink:href="classitk_1_1simple_1_1detail_1_1MemberFunctionFactory.html" target="_top" xlink:title=" ">
<polygon fill="white" stroke="#666666" points="1071,-41 885,-41 885,0 1071,0 1071,-41"/>
<text text-anchor="start" x="893" y="-29" font-family="Helvetica,sans-Serif" font-size="10.00">itk::simple::detail</text>
<text text-anchor="start" x="893" y="-18" font-family="Helvetica,sans-Serif" font-size="10.00">::MemberFunctionFactory</text>
<text text-anchor="middle" x="978" y="-7" font-family="Helvetica,sans-Serif" font-size="10.00">&lt; EvaluateMemberFunctionType &gt;</text>
</a>
</g>
</g>
<!-- Node1&#45;&gt;Node7 -->
<g id="edge6_Node000001_Node000007" class="edge">
<title>Node1&#45;&gt;Node7</title>
<g id="a_edge6_Node000001_Node000007"><a xlink:title=" ">
<path fill="none" stroke="orange" stroke-dasharray="5,2" d="M678.32,-83.4C693.83,-76.09 711.34,-68.68 728,-63.5 778.79,-47.69 837.32,-37.21 884.88,-30.56"/>
<polygon fill="orange" stroke="orange" points="676.44,-80.43 668.95,-87.92 679.48,-86.73 676.44,-80.43"/>
</a>
</g>
<text text-anchor="start" x="728" y="-77.5" font-family="Helvetica,sans-Serif" font-size="10.00" fill="grey"> &lt; EvaluateMemberFunction</text>
<text text-anchor="middle" x="797.5" y="-66.5" font-family="Helvetica,sans-Serif" font-size="10.00" fill="grey">Type &gt;</text>
</g>
<!-- Node2 -->
<g id="Node000002" class="node">
<title>Node2</title>
<g id="a_Node000002"><a xlink:href="classitk_1_1simple_1_1detail_1_1MemberFunctionFactoryBase.html" target="_top" xlink:title=" ">
<polygon fill="white" stroke="#666666" points="512,-134.5 340,-134.5 340,-82.5 512,-82.5 512,-134.5"/>
<text text-anchor="start" x="348" y="-122.5" font-family="Helvetica,sans-Serif" font-size="10.00">itk::simple::detail</text>
<text text-anchor="start" x="348" y="-111.5" font-family="Helvetica,sans-Serif" font-size="10.00">::MemberFunctionFactoryBase</text>
<text text-anchor="start" x="348" y="-100.5" font-family="Helvetica,sans-Serif" font-size="10.00">&lt; TMemberFunctionPointer,</text>
<text text-anchor="middle" x="426" y="-89.5" font-family="Helvetica,sans-Serif" font-size="10.00"> std::pair&lt; unsigned int, int &gt; &gt;</text>
</a>
</g>
</g>
<!-- Node2&#45;&gt;Node1 -->
<g id="edge1_Node000001_Node000002" class="edge">
<title>Node2&#45;&gt;Node1</title>
<g id="a_edge1_Node000001_Node000002"><a xlink:title=" ">
<path fill="none" stroke="darkgreen" d="M522.17,-108.5C531.07,-108.5 540.04,-108.5 548.77,-108.5"/>
<polygon fill="darkgreen" stroke="darkgreen" points="522.16,-105 512.16,-108.5 522.16,-112 522.16,-105"/>
</a>
</g>
</g>
<!-- Node3 -->
<g id="Node000003" class="node">
<title>Node3</title>
<g id="a_Node000003"><a xlink:href="classitk_1_1simple_1_1detail_1_1MemberFunctionFactoryBase.html" target="_top" xlink:title=" ">
<polygon fill="white" stroke="#666666" points="164,-134.5 0,-134.5 0,-82.5 164,-82.5 164,-134.5"/>
<text text-anchor="start" x="8" y="-122.5" font-family="Helvetica,sans-Serif" font-size="10.00">itk::simple::detail</text>
<text text-anchor="start" x="8" y="-111.5" font-family="Helvetica,sans-Serif" font-size="10.00">::MemberFunctionFactoryBase</text>
<text text-anchor="start" x="8" y="-100.5" font-family="Helvetica,sans-Serif" font-size="10.00">&lt; TMemberFunctionPointer,</text>
<text text-anchor="middle" x="82" y="-89.5" font-family="Helvetica,sans-Serif" font-size="10.00"> TKey &gt;</text>
</a>
</g>
</g>
<!-- Node3&#45;&gt;Node2 -->
<g id="edge2_Node000002_Node000003" class="edge">
<title>Node3&#45;&gt;Node2</title>
<g id="a_edge2_Node000002_Node000003"><a xlink:title=" ">
<path fill="none" stroke="orange" stroke-dasharray="5,2" d="M174.16,-108.5C225.55,-108.5 289.36,-108.5 339.76,-108.5"/>
<polygon fill="orange" stroke="orange" points="174.05,-105 164.05,-108.5 174.05,-112 174.05,-105"/>
</a>
</g>
<text text-anchor="start" x="182" y="-133.5" font-family="Helvetica,sans-Serif" font-size="10.00" fill="grey"> &lt; TMemberFunctionPointer,</text>
<text text-anchor="start" x="182" y="-122.5" font-family="Helvetica,sans-Serif" font-size="10.00" fill="grey"> std::pair&lt; unsigned int,</text>
<text text-anchor="middle" x="252" y="-111.5" font-family="Helvetica,sans-Serif" font-size="10.00" fill="grey"> int &gt; &gt;</text>
</g>
</g>
</svg>
