<?xml version="1.0" encoding="UTF-8" standalone="no"?>
<!DOCTYPE svg PUBLIC "-//W3C//DTD SVG 1.1//EN"
 "http://www.w3.org/Graphics/SVG/1.1/DTD/svg11.dtd">
<!-- Generated by graphviz version 2.43.0 (0)
 -->
<!-- Title: itk::simple::DanielssonDistanceMapImageFilter Pages: 1 -->
<svg width="2923pt" height="383pt"
 viewBox="0.00 0.00 2923.00 383.00" xmlns="http://www.w3.org/2000/svg" xmlns:xlink="http://www.w3.org/1999/xlink">
<g id="graph0" class="graph" transform="scale(1 1) rotate(0) translate(4 379)">
<title>itk::simple::DanielssonDistanceMapImageFilter</title>
<polygon fill="white" stroke="transparent" points="-4,4 -4,-379 2919,-379 2919,4 -4,4"/>
<!-- Node1 -->
<g id="node1" class="node">
<title>Node1</title>
<g id="a_node1"><a xlink:title="This filter computes the distance map of the input image as an approximation with pixel accuracy to t...">
<polygon fill="#bfbfbf" stroke="black" points="2744,-77 2744,-107 2915,-107 2915,-77 2744,-77"/>
<text text-anchor="start" x="2752" y="-95" font-family="Helvetica,sans-Serif" font-size="10.00">itk::simple::DanielssonDistance</text>
<text text-anchor="middle" x="2829.5" y="-84" font-family="Helvetica,sans-Serif" font-size="10.00">MapImageFilter</text>
</a>
</g>
</g>
<!-- Node2 -->
<g id="node2" class="node">
<title>Node2</title>
<g id="a_node2"><a xlink:href="classitk_1_1simple_1_1ImageFilter.html" target="_top" xlink:title="The base interface for SimpleITK filters that take one input image.">
<polygon fill="white" stroke="black" points="2435,-136.5 2435,-155.5 2565,-155.5 2565,-136.5 2435,-136.5"/>
<text text-anchor="middle" x="2500" y="-143.5" font-family="Helvetica,sans-Serif" font-size="10.00">itk::simple::ImageFilter</text>
</a>
</g>
</g>
<!-- Node2&#45;&gt;Node1 -->
<g id="edge1" class="edge">
<title>Node2&#45;&gt;Node1</title>
<path fill="none" stroke="midnightblue" d="M2568.69,-134.84C2619.51,-126.46 2689.42,-114.93 2743.92,-105.95"/>
<polygon fill="midnightblue" stroke="midnightblue" points="2568.09,-131.39 2558.8,-136.47 2569.23,-138.3 2568.09,-131.39"/>
</g>
<!-- Node3 -->
<g id="node3" class="node">
<title>Node3</title>
<g id="a_node3"><a xlink:href="classitk_1_1simple_1_1ProcessObject.html" target="_top" xlink:title="Base class for SimpleITK classes based on ProcessObject.">
<polygon fill="white" stroke="black" points="2133,-249.5 2133,-268.5 2276,-268.5 2276,-249.5 2133,-249.5"/>
<text text-anchor="middle" x="2204.5" y="-256.5" font-family="Helvetica,sans-Serif" font-size="10.00">itk::simple::ProcessObject</text>
</a>
</g>
</g>
<!-- Node3&#45;&gt;Node2 -->
<g id="edge2" class="edge">
<title>Node3&#45;&gt;Node2</title>
<path fill="none" stroke="midnightblue" d="M2239.64,-245.86C2299.36,-222.86 2421.4,-175.88 2473.98,-155.63"/>
<polygon fill="midnightblue" stroke="midnightblue" points="2238.35,-242.6 2230.27,-249.46 2240.86,-249.14 2238.35,-242.6"/>
</g>
<!-- Node4 -->
<g id="node4" class="node">
<title>Node4</title>
<g id="a_node4"><a xlink:href="classitk_1_1simple_1_1NonCopyable.html" target="_top" xlink:title="An inheritable class to disable copying of a class.">
<polygon fill="white" stroke="black" points="382,-355.5 382,-374.5 522,-374.5 522,-355.5 382,-355.5"/>
<text text-anchor="middle" x="452" y="-362.5" font-family="Helvetica,sans-Serif" font-size="10.00">itk::simple::NonCopyable</text>
</a>
</g>
</g>
<!-- Node4&#45;&gt;Node3 -->
<g id="edge3" class="edge">
<title>Node4&#45;&gt;Node3</title>
<path fill="none" stroke="darkgreen" d="M532.21,-364.64C601.94,-364.35 706.21,-364 797,-364 797,-364 797,-364 1864.5,-364 1992.96,-364 2137.04,-294.35 2186.09,-268.5"/>
<polygon fill="darkgreen" stroke="darkgreen" points="532.17,-361.14 522.18,-364.68 532.2,-368.14 532.17,-361.14"/>
</g>
<!-- Node8 -->
<g id="node8" class="node">
<title>Node8</title>
<g id="a_node8"><a xlink:href="classitk_1_1simple_1_1ObjectOwnedBase.html" target="_top" xlink:title="An abstract base class to connect this object with the lifetime of another.">
<polygon fill="white" stroke="black" points="716,-281.5 716,-300.5 880,-300.5 880,-281.5 716,-281.5"/>
<text text-anchor="middle" x="798" y="-288.5" font-family="Helvetica,sans-Serif" font-size="10.00">itk::simple::ObjectOwnedBase</text>
</a>
</g>
</g>
<!-- Node4&#45;&gt;Node8 -->
<g id="edge8" class="edge">
<title>Node4&#45;&gt;Node8</title>
<path fill="none" stroke="midnightblue" d="M521.05,-353.85C587.5,-342.87 681.03,-327.17 698,-323 723.08,-316.83 751.03,-307.57 770.82,-300.59"/>
<polygon fill="midnightblue" stroke="midnightblue" points="520.34,-350.42 511.05,-355.5 521.48,-357.32 520.34,-350.42"/>
</g>
<!-- Node5 -->
<g id="node5" class="node">
<title>Node5</title>
<g id="a_node5"><a xlink:title=" ">
<polygon fill="white" stroke="#bfbfbf" points="1770,-244 1770,-274 1957,-274 1957,-244 1770,-244"/>
<text text-anchor="start" x="1778" y="-262" font-family="Helvetica,sans-Serif" font-size="10.00">std::list&lt; itk::simple</text>
<text text-anchor="middle" x="1863.5" y="-251" font-family="Helvetica,sans-Serif" font-size="10.00">::ProcessObject::EventCommand &gt;</text>
</a>
</g>
</g>
<!-- Node5&#45;&gt;Node3 -->
<g id="edge4" class="edge">
<title>Node5&#45;&gt;Node3</title>
<path fill="none" stroke="#9a32cd" stroke-dasharray="5,2" d="M1967.34,-259C2020.84,-259 2084.87,-259 2132.76,-259"/>
<polygon fill="#9a32cd" stroke="#9a32cd" points="1967.13,-255.5 1957.13,-259 1967.13,-262.5 1967.13,-255.5"/>
<text text-anchor="middle" x="2040" y="-262" font-family="Helvetica,sans-Serif" font-size="10.00"> m_Commands</text>
</g>
<!-- Node6 -->
<g id="node6" class="node">
<title>Node6</title>
<g id="a_node6"><a xlink:href="structitk_1_1simple_1_1ProcessObject_1_1EventCommand.html" target="_top" xlink:title=" ">
<polygon fill="white" stroke="black" points="1412.5,-263 1412.5,-293 1555.5,-293 1555.5,-263 1412.5,-263"/>
<text text-anchor="start" x="1420.5" y="-281" font-family="Helvetica,sans-Serif" font-size="10.00">itk::simple::ProcessObject</text>
<text text-anchor="middle" x="1484" y="-270" font-family="Helvetica,sans-Serif" font-size="10.00">::EventCommand</text>
</a>
</g>
</g>
<!-- Node6&#45;&gt;Node5 -->
<g id="edge5" class="edge">
<title>Node6&#45;&gt;Node5</title>
<path fill="none" stroke="#9a32cd" stroke-dasharray="5,2" d="M1565.72,-273.94C1625.58,-270.92 1707.29,-266.81 1769.81,-263.66"/>
<polygon fill="#9a32cd" stroke="#9a32cd" points="1565.37,-270.45 1555.56,-274.45 1565.73,-277.44 1565.37,-270.45"/>
<text text-anchor="middle" x="1670" y="-275" font-family="Helvetica,sans-Serif" font-size="10.00"> elements</text>
</g>
<!-- Node7 -->
<g id="node7" class="node">
<title>Node7</title>
<g id="a_node7"><a xlink:href="classitk_1_1simple_1_1Command.html" target="_top" xlink:title="An implementation of the Command design pattern for callback.">
<polygon fill="white" stroke="black" points="1077.5,-273.5 1077.5,-292.5 1202.5,-292.5 1202.5,-273.5 1077.5,-273.5"/>
<text text-anchor="middle" x="1140" y="-280.5" font-family="Helvetica,sans-Serif" font-size="10.00">itk::simple::Command</text>
</a>
</g>
</g>
<!-- Node7&#45;&gt;Node6 -->
<g id="edge6" class="edge">
<title>Node7&#45;&gt;Node6</title>
<path fill="none" stroke="#9a32cd" stroke-dasharray="5,2" d="M1212.83,-281.95C1271.46,-281.09 1353.86,-279.89 1412.21,-279.03"/>
<polygon fill="#9a32cd" stroke="#9a32cd" points="1212.49,-278.45 1202.54,-282.1 1212.59,-285.45 1212.49,-278.45"/>
<text text-anchor="middle" x="1310" y="-284" font-family="Helvetica,sans-Serif" font-size="10.00"> m_Command</text>
</g>
<!-- Node8&#45;&gt;Node7 -->
<g id="edge7" class="edge">
<title>Node8&#45;&gt;Node7</title>
<path fill="none" stroke="midnightblue" d="M890.13,-288.86C949.45,-287.46 1025.23,-285.68 1077.5,-284.45"/>
<polygon fill="midnightblue" stroke="midnightblue" points="889.92,-285.36 880.01,-289.09 890.09,-292.36 889.92,-285.36"/>
</g>
<!-- Node9 -->
<g id="node9" class="node">
<title>Node9</title>
<g id="a_node9"><a xlink:title=" ">
<polygon fill="white" stroke="#bfbfbf" points="387.5,-295.5 387.5,-336.5 516.5,-336.5 516.5,-295.5 387.5,-295.5"/>
<text text-anchor="start" x="395.5" y="-324.5" font-family="Helvetica,sans-Serif" font-size="10.00">std::multimap&lt; itk</text>
<text text-anchor="start" x="395.5" y="-313.5" font-family="Helvetica,sans-Serif" font-size="10.00">::Object *, std::function</text>
<text text-anchor="middle" x="452" y="-302.5" font-family="Helvetica,sans-Serif" font-size="10.00">&lt; void()&gt; &gt;</text>
</a>
</g>
</g>
<!-- Node9&#45;&gt;Node8 -->
<g id="edge9" class="edge">
<title>Node9&#45;&gt;Node8</title>
<path fill="none" stroke="#9a32cd" stroke-dasharray="5,2" d="M527.03,-310.62C582.59,-306.58 658.62,-301.06 715.84,-296.9"/>
<polygon fill="#9a32cd" stroke="#9a32cd" points="526.62,-307.14 516.9,-311.36 527.12,-314.12 526.62,-307.14"/>
<text text-anchor="middle" x="619" y="-312" font-family="Helvetica,sans-Serif" font-size="10.00"> m_ReferencedObjectsCallbacks</text>
</g>
<!-- Node10 -->
<g id="node10" class="node">
<title>Node10</title>
<g id="a_node10"><a xlink:title="STL class.">
<polygon fill="white" stroke="#bfbfbf" points="114,-304.5 114,-323.5 240,-323.5 240,-304.5 114,-304.5"/>
<text text-anchor="middle" x="177" y="-311.5" font-family="Helvetica,sans-Serif" font-size="10.00">std::multimap&lt; K, T &gt;</text>
</a>
</g>
</g>
<!-- Node10&#45;&gt;Node9 -->
<g id="edge10" class="edge">
<title>Node10&#45;&gt;Node9</title>
<path fill="none" stroke="orange" stroke-dasharray="5,2" d="M250.3,-314.53C292.82,-314.84 346.1,-315.23 387.08,-315.53"/>
<polygon fill="orange" stroke="orange" points="250.31,-311.03 240.29,-314.46 250.26,-318.03 250.31,-311.03"/>
<text text-anchor="start" x="258" y="-329" font-family="Helvetica,sans-Serif" font-size="10.00"> &lt; itk::Object *, std</text>
<text text-anchor="middle" x="311" y="-318" font-family="Helvetica,sans-Serif" font-size="10.00">::function&lt; void()&gt; &gt;</text>
</g>
<!-- Node11 -->
<g id="node11" class="node">
<title>Node11</title>
<g id="a_node11"><a xlink:title=" ">
<polygon fill="white" stroke="#bfbfbf" points="0,-304.5 0,-323.5 29,-323.5 29,-304.5 0,-304.5"/>
<text text-anchor="middle" x="14.5" y="-311.5" font-family="Helvetica,sans-Serif" font-size="10.00">K</text>
</a>
</g>
</g>
<!-- Node11&#45;&gt;Node10 -->
<g id="edge11" class="edge">
<title>Node11&#45;&gt;Node10</title>
<path fill="none" stroke="#9a32cd" stroke-dasharray="5,2" d="M39.34,-314C58.97,-314 87.71,-314 113.77,-314"/>
<polygon fill="#9a32cd" stroke="#9a32cd" points="39.18,-310.5 29.18,-314 39.18,-317.5 39.18,-310.5"/>
<text text-anchor="middle" x="71.5" y="-317" font-family="Helvetica,sans-Serif" font-size="10.00"> keys</text>
</g>
<!-- Node12 -->
<g id="node12" class="node">
<title>Node12</title>
<g id="a_node12"><a xlink:title=" ">
<polygon fill="white" stroke="#bfbfbf" points="0,-214.5 0,-233.5 29,-233.5 29,-214.5 0,-214.5"/>
<text text-anchor="middle" x="14.5" y="-221.5" font-family="Helvetica,sans-Serif" font-size="10.00">T</text>
</a>
</g>
</g>
<!-- Node12&#45;&gt;Node10 -->
<g id="edge12" class="edge">
<title>Node12&#45;&gt;Node10</title>
<path fill="none" stroke="#9a32cd" stroke-dasharray="5,2" d="M34.88,-240.09C54.01,-255.35 84.6,-278.11 114,-293 122.82,-297.47 132.81,-301.32 142.15,-304.47"/>
<polygon fill="#9a32cd" stroke="#9a32cd" points="36.91,-237.23 26.94,-233.66 32.5,-242.67 36.91,-237.23"/>
<text text-anchor="middle" x="71.5" y="-284" font-family="Helvetica,sans-Serif" font-size="10.00"> elements</text>
</g>
<!-- Node15 -->
<g id="node15" class="node">
<title>Node15</title>
<g id="a_node15"><a xlink:title="STL class.">
<polygon fill="white" stroke="#bfbfbf" points="270.5,-216.5 270.5,-235.5 351.5,-235.5 351.5,-216.5 270.5,-216.5"/>
<text text-anchor="middle" x="311" y="-223.5" font-family="Helvetica,sans-Serif" font-size="10.00">std::list&lt; T &gt;</text>
</a>
</g>
</g>
<!-- Node12&#45;&gt;Node15 -->
<g id="edge16" class="edge">
<title>Node12&#45;&gt;Node15</title>
<path fill="none" stroke="#9a32cd" stroke-dasharray="5,2" d="M39.6,-224.16C90.31,-224.51 208.44,-225.31 270.42,-225.73"/>
<polygon fill="#9a32cd" stroke="#9a32cd" points="39.33,-220.66 29.31,-224.09 39.29,-227.66 39.33,-220.66"/>
<text text-anchor="middle" x="71.5" y="-227" font-family="Helvetica,sans-Serif" font-size="10.00"> elements</text>
</g>
<!-- Node22 -->
<g id="node22" class="node">
<title>Node22</title>
<g id="a_node22"><a xlink:title="STL class.">
<polygon fill="white" stroke="#bfbfbf" points="560,-106.5 560,-125.5 678,-125.5 678,-106.5 560,-106.5"/>
<text text-anchor="middle" x="619" y="-113.5" font-family="Helvetica,sans-Serif" font-size="10.00">std::unique_ptr&lt; T &gt;</text>
</a>
</g>
</g>
<!-- Node12&#45;&gt;Node22 -->
<g id="edge25" class="edge">
<title>Node12&#45;&gt;Node22</title>
<path fill="none" stroke="#9a32cd" stroke-dasharray="5,2" d="M39.32,-219.73C127.83,-203.87 439.13,-148.06 564.8,-125.54"/>
<polygon fill="#9a32cd" stroke="#9a32cd" points="38.44,-216.33 29.22,-221.54 39.68,-223.22 38.44,-216.33"/>
<text text-anchor="middle" x="177" y="-208" font-family="Helvetica,sans-Serif" font-size="10.00"> ptr</text>
</g>
<!-- Node13 -->
<g id="node13" class="node">
<title>Node13</title>
<g id="a_node13"><a xlink:title="STL class.">
<polygon fill="white" stroke="#bfbfbf" points="419.5,-257.5 419.5,-276.5 484.5,-276.5 484.5,-257.5 419.5,-257.5"/>
<text text-anchor="middle" x="452" y="-264.5" font-family="Helvetica,sans-Serif" font-size="10.00">std::string</text>
</a>
</g>
</g>
<!-- Node13&#45;&gt;Node8 -->
<g id="edge13" class="edge">
<title>Node13&#45;&gt;Node8</title>
<path fill="none" stroke="#9a32cd" stroke-dasharray="5,2" d="M494.99,-266.75C543.86,-266.83 626.96,-268.13 698,-275 713.68,-276.52 730.65,-278.96 746.03,-281.49"/>
<polygon fill="#9a32cd" stroke="#9a32cd" points="494.8,-263.25 484.8,-266.75 494.8,-270.25 494.8,-263.25"/>
<text text-anchor="middle" x="619" y="-278" font-family="Helvetica,sans-Serif" font-size="10.00"> m_Name</text>
</g>
<!-- Node14 -->
<g id="node14" class="node">
<title>Node14</title>
<g id="a_node14"><a xlink:title="STL class.">
<polygon fill="white" stroke="#bfbfbf" points="125,-253 125,-283 229,-283 229,-253 125,-253"/>
<text text-anchor="start" x="133" y="-271" font-family="Helvetica,sans-Serif" font-size="10.00">std::basic_string&lt;</text>
<text text-anchor="middle" x="177" y="-260" font-family="Helvetica,sans-Serif" font-size="10.00"> char &gt;</text>
</a>
</g>
</g>
<!-- Node14&#45;&gt;Node13 -->
<g id="edge14" class="edge">
<title>Node14&#45;&gt;Node13</title>
<path fill="none" stroke="midnightblue" d="M239.16,-267.78C295.05,-267.57 375.46,-267.28 419.39,-267.12"/>
<polygon fill="midnightblue" stroke="midnightblue" points="239.02,-264.28 229.03,-267.81 239.04,-271.28 239.02,-264.28"/>
</g>
<!-- Node15&#45;&gt;Node5 -->
<g id="edge15" class="edge">
<title>Node15&#45;&gt;Node5</title>
<path fill="none" stroke="orange" stroke-dasharray="5,2" d="M361.65,-226.79C422.19,-227.67 527.6,-229 618,-229 618,-229 618,-229 1485,-229 1582.47,-229 1693.65,-239.06 1769.97,-247.53"/>
<polygon fill="orange" stroke="orange" points="361.66,-223.29 351.61,-226.64 361.56,-230.28 361.66,-223.29"/>
<text text-anchor="start" x="898" y="-243" font-family="Helvetica,sans-Serif" font-size="10.00"> &lt; itk::simple::ProcessObject</text>
<text text-anchor="middle" x="969" y="-232" font-family="Helvetica,sans-Serif" font-size="10.00">::EventCommand &gt;</text>
</g>
<!-- Node16 -->
<g id="node16" class="node">
<title>Node16</title>
<g id="a_node16"><a xlink:title=" ">
<polygon fill="white" stroke="#bfbfbf" points="2405,-71.5 2405,-112.5 2595,-112.5 2595,-71.5 2405,-71.5"/>
<text text-anchor="start" x="2413" y="-100.5" font-family="Helvetica,sans-Serif" font-size="10.00">std::unique_ptr&lt; itk</text>
<text text-anchor="start" x="2413" y="-89.5" font-family="Helvetica,sans-Serif" font-size="10.00">::simple::detail::MemberFunction</text>
<text text-anchor="middle" x="2500" y="-78.5" font-family="Helvetica,sans-Serif" font-size="10.00">Factory&lt; MemberFunctionType &gt; &gt;</text>
</a>
</g>
</g>
<!-- Node16&#45;&gt;Node1 -->
<g id="edge17" class="edge">
<title>Node16&#45;&gt;Node1</title>
<path fill="none" stroke="#9a32cd" stroke-dasharray="5,2" d="M2605.3,-92C2650,-92 2701.53,-92 2743.81,-92"/>
<polygon fill="#9a32cd" stroke="#9a32cd" points="2605.29,-88.5 2595.29,-92 2605.29,-95.5 2605.29,-88.5"/>
<text text-anchor="middle" x="2669.5" y="-95" font-family="Helvetica,sans-Serif" font-size="10.00"> m_MemberFactory</text>
</g>
<!-- Node17 -->
<g id="node17" class="node">
<title>Node17</title>
<g id="a_node17"><a xlink:href="classitk_1_1simple_1_1detail_1_1MemberFunctionFactory.html" target="_top" xlink:title=" ">
<polygon fill="white" stroke="black" points="2133,-105.5 2133,-146.5 2276,-146.5 2276,-105.5 2133,-105.5"/>
<text text-anchor="start" x="2141" y="-134.5" font-family="Helvetica,sans-Serif" font-size="10.00">itk::simple::detail</text>
<text text-anchor="start" x="2141" y="-123.5" font-family="Helvetica,sans-Serif" font-size="10.00">::MemberFunctionFactory</text>
<text text-anchor="middle" x="2204.5" y="-112.5" font-family="Helvetica,sans-Serif" font-size="10.00">&lt; MemberFunctionType &gt;</text>
</a>
</g>
</g>
<!-- Node17&#45;&gt;Node16 -->
<g id="edge18" class="edge">
<title>Node17&#45;&gt;Node16</title>
<path fill="none" stroke="#9a32cd" stroke-dasharray="5,2" d="M2286.33,-116.64C2323.01,-112.39 2366.64,-107.33 2404.8,-102.91"/>
<polygon fill="#9a32cd" stroke="#9a32cd" points="2285.7,-113.19 2276.17,-117.81 2286.51,-120.14 2285.7,-113.19"/>
<text text-anchor="middle" x="2345.5" y="-117" font-family="Helvetica,sans-Serif" font-size="10.00"> ptr</text>
</g>
<!-- Node18 -->
<g id="node18" class="node">
<title>Node18</title>
<g id="a_node18"><a xlink:href="classitk_1_1simple_1_1detail_1_1MemberFunctionFactoryBase.html" target="_top" xlink:title=" ">
<polygon fill="white" stroke="black" points="1588,-152 1588,-204 1752,-204 1752,-152 1588,-152"/>
<text text-anchor="start" x="1596" y="-192" font-family="Helvetica,sans-Serif" font-size="10.00">itk::simple::detail</text>
<text text-anchor="start" x="1596" y="-181" font-family="Helvetica,sans-Serif" font-size="10.00">::MemberFunctionFactoryBase</text>
<text text-anchor="start" x="1596" y="-170" font-family="Helvetica,sans-Serif" font-size="10.00">&lt; MemberFunctionType, std</text>
<text text-anchor="middle" x="1670" y="-159" font-family="Helvetica,sans-Serif" font-size="10.00">::pair&lt; unsigned int, int &gt; &gt;</text>
</a>
</g>
</g>
<!-- Node18&#45;&gt;Node17 -->
<g id="edge19" class="edge">
<title>Node18&#45;&gt;Node17</title>
<path fill="none" stroke="darkgreen" d="M1762.62,-172.38C1850.61,-166.47 1987.19,-155.93 2105,-141 2114.01,-139.86 2123.47,-138.55 2132.81,-137.2"/>
<polygon fill="darkgreen" stroke="darkgreen" points="1762.14,-168.9 1752.4,-173.06 1762.61,-175.89 1762.14,-168.9"/>
</g>
<!-- Node19 -->
<g id="node19" class="node">
<title>Node19</title>
<g id="a_node19"><a xlink:href="classitk_1_1simple_1_1detail_1_1MemberFunctionFactoryBase.html" target="_top" xlink:title="A base class for the MemberFunctionFactory.">
<polygon fill="white" stroke="black" points="1058,-138 1058,-168 1222,-168 1222,-138 1058,-138"/>
<text text-anchor="start" x="1066" y="-156" font-family="Helvetica,sans-Serif" font-size="10.00">itk::simple::detail</text>
<text text-anchor="middle" x="1140" y="-145" font-family="Helvetica,sans-Serif" font-size="10.00">::MemberFunctionFactoryBase</text>
</a>
</g>
</g>
<!-- Node19&#45;&gt;Node18 -->
<g id="edge20" class="edge">
<title>Node19&#45;&gt;Node18</title>
<path fill="none" stroke="orange" stroke-dasharray="5,2" d="M1232.23,-158.58C1234.85,-158.73 1237.44,-158.87 1240,-159 1361.17,-165.35 1501.66,-171.31 1587.93,-174.8"/>
<polygon fill="orange" stroke="orange" points="1232.21,-155.08 1222.04,-158.02 1231.83,-162.07 1232.21,-155.08"/>
<text text-anchor="start" x="1249" y="-190" font-family="Helvetica,sans-Serif" font-size="10.00"> &lt; MemberFunctionType,</text>
<text text-anchor="start" x="1249" y="-179" font-family="Helvetica,sans-Serif" font-size="10.00"> std::pair&lt; unsigned</text>
<text text-anchor="middle" x="1310" y="-168" font-family="Helvetica,sans-Serif" font-size="10.00"> int, int &gt; &gt;</text>
</g>
<!-- Node21 -->
<g id="node21" class="node">
<title>Node21</title>
<g id="a_node21"><a xlink:href="classitk_1_1simple_1_1detail_1_1MemberFunctionFactoryBase.html" target="_top" xlink:title=" ">
<polygon fill="white" stroke="black" points="1398,-100 1398,-152 1570,-152 1570,-100 1398,-100"/>
<text text-anchor="start" x="1406" y="-140" font-family="Helvetica,sans-Serif" font-size="10.00">itk::simple::detail</text>
<text text-anchor="start" x="1406" y="-129" font-family="Helvetica,sans-Serif" font-size="10.00">::MemberFunctionFactoryBase</text>
<text text-anchor="start" x="1406" y="-118" font-family="Helvetica,sans-Serif" font-size="10.00">&lt; TMemberFunctionPointer,</text>
<text text-anchor="middle" x="1484" y="-107" font-family="Helvetica,sans-Serif" font-size="10.00"> std::pair&lt; unsigned int, int &gt; &gt;</text>
</a>
</g>
</g>
<!-- Node19&#45;&gt;Node21 -->
<g id="edge23" class="edge">
<title>Node19&#45;&gt;Node21</title>
<path fill="none" stroke="orange" stroke-dasharray="5,2" d="M1196.35,-135.12C1210.43,-131.34 1225.65,-127.92 1240,-126 1292.06,-119.03 1350.96,-118.84 1397.73,-120.48"/>
<polygon fill="orange" stroke="orange" points="1195.01,-131.86 1186.32,-137.92 1196.89,-138.6 1195.01,-131.86"/>
<text text-anchor="start" x="1240" y="-151" font-family="Helvetica,sans-Serif" font-size="10.00"> &lt; TMemberFunctionPointer,</text>
<text text-anchor="start" x="1240" y="-140" font-family="Helvetica,sans-Serif" font-size="10.00"> std::pair&lt; unsigned int,</text>
<text text-anchor="middle" x="1310" y="-129" font-family="Helvetica,sans-Serif" font-size="10.00"> int &gt; &gt;</text>
</g>
<!-- Node20 -->
<g id="node20" class="node">
<title>Node20</title>
<g id="a_node20"><a xlink:href="classitk_1_1simple_1_1detail_1_1MemberFunctionFactory.html" target="_top" xlink:title="A class used to instantiate and generate function object to templated member functions.">
<polygon fill="white" stroke="black" points="1783,-105.5 1783,-146.5 1944,-146.5 1944,-105.5 1783,-105.5"/>
<text text-anchor="start" x="1791" y="-134.5" font-family="Helvetica,sans-Serif" font-size="10.00">itk::simple::detail</text>
<text text-anchor="start" x="1791" y="-123.5" font-family="Helvetica,sans-Serif" font-size="10.00">::MemberFunctionFactory</text>
<text text-anchor="middle" x="1863.5" y="-112.5" font-family="Helvetica,sans-Serif" font-size="10.00">&lt; TMemberFunctionPointer &gt;</text>
</a>
</g>
</g>
<!-- Node20&#45;&gt;Node17 -->
<g id="edge21" class="edge">
<title>Node20&#45;&gt;Node17</title>
<path fill="none" stroke="orange" stroke-dasharray="5,2" d="M1954.64,-126C2010.43,-126 2081.02,-126 2132.76,-126"/>
<polygon fill="orange" stroke="orange" points="1954.41,-122.5 1944.41,-126 1954.41,-129.5 1954.41,-122.5"/>
<text text-anchor="middle" x="2040" y="-129" font-family="Helvetica,sans-Serif" font-size="10.00"> &lt; MemberFunctionType &gt;</text>
</g>
<!-- Node21&#45;&gt;Node20 -->
<g id="edge22" class="edge">
<title>Node21&#45;&gt;Node20</title>
<path fill="none" stroke="darkgreen" d="M1580.45,-126C1642.96,-126 1723.71,-126 1782.78,-126"/>
<polygon fill="darkgreen" stroke="darkgreen" points="1580.19,-122.5 1570.19,-126 1580.19,-129.5 1580.19,-122.5"/>
</g>
<!-- Node22&#45;&gt;Node16 -->
<g id="edge24" class="edge">
<title>Node22&#45;&gt;Node16</title>
<path fill="none" stroke="orange" stroke-dasharray="5,2" d="M658.59,-103.39C722.28,-83.73 853.76,-48 968,-48 968,-48 968,-48 2205.5,-48 2274.41,-48 2351.43,-60.01 2409.28,-71.48"/>
<polygon fill="orange" stroke="orange" points="657.46,-100.08 648.96,-106.4 659.55,-106.76 657.46,-100.08"/>
<text text-anchor="start" x="1414.5" y="-73" font-family="Helvetica,sans-Serif" font-size="10.00"> &lt; itk::simple::detail</text>
<text text-anchor="start" x="1414.5" y="-62" font-family="Helvetica,sans-Serif" font-size="10.00">::MemberFunctionFactory</text>
<text text-anchor="middle" x="1484" y="-51" font-family="Helvetica,sans-Serif" font-size="10.00">&lt; MemberFunctionType &gt; &gt;</text>
</g>
<!-- Node23 -->
<g id="node23" class="node">
<title>Node23</title>
<g id="a_node23"><a xlink:href="classitk_1_1simple_1_1Image.html" target="_top" xlink:title="The Image class for SimpleITK.">
<polygon fill="white" stroke="black" points="2447.5,-22.5 2447.5,-41.5 2552.5,-41.5 2552.5,-22.5 2447.5,-22.5"/>
<text text-anchor="middle" x="2500" y="-29.5" font-family="Helvetica,sans-Serif" font-size="10.00">itk::simple::Image</text>
</a>
</g>
</g>
<!-- Node23&#45;&gt;Node1 -->
<g id="edge26" class="edge">
<title>Node23&#45;&gt;Node1</title>
<path fill="none" stroke="#9a32cd" stroke-dasharray="5,2" d="M2562.62,-39.65C2608,-45.68 2671.1,-54.92 2726,-66 2741.48,-69.12 2758.12,-73.08 2773.4,-76.96"/>
<polygon fill="#9a32cd" stroke="#9a32cd" points="2563.01,-36.17 2552.64,-38.33 2562.09,-43.11 2563.01,-36.17"/>
<text text-anchor="middle" x="2669.5" y="-80" font-family="Helvetica,sans-Serif" font-size="10.00"> m_VectorDistanceMap</text>
<text text-anchor="middle" x="2669.5" y="-69" font-family="Helvetica,sans-Serif" font-size="10.00">m_VoronoiMap</text>
</g>
<!-- Node24 -->
<g id="node24" class="node">
<title>Node24</title>
<g id="a_node24"><a xlink:href="classitk_1_1simple_1_1PimpleImageBase.html" target="_top" xlink:title="Private implementation idiom image base class.">
<polygon fill="white" stroke="black" points="2123,-0.5 2123,-19.5 2286,-19.5 2286,-0.5 2123,-0.5"/>
<text text-anchor="middle" x="2204.5" y="-7.5" font-family="Helvetica,sans-Serif" font-size="10.00">itk::simple::PimpleImageBase</text>
</a>
</g>
</g>
<!-- Node24&#45;&gt;Node23 -->
<g id="edge27" class="edge">
<title>Node24&#45;&gt;Node23</title>
<path fill="none" stroke="#9a32cd" stroke-dasharray="5,2" d="M2296.47,-16.36C2325.41,-18.43 2357.55,-20.76 2387,-23 2406.74,-24.5 2428.44,-26.23 2447.43,-27.76"/>
<polygon fill="#9a32cd" stroke="#9a32cd" points="2296.6,-12.86 2286.38,-15.64 2296.1,-19.84 2296.6,-12.86"/>
<text text-anchor="middle" x="2345.5" y="-26" font-family="Helvetica,sans-Serif" font-size="10.00"> m_PimpleImage</text>
</g>
</g>
</svg>
