<?xml version="1.0" encoding="UTF-8" standalone="no"?>
<!DOCTYPE svg PUBLIC "-//W3C//DTD SVG 1.1//EN"
 "http://www.w3.org/Graphics/SVG/1.1/DTD/svg11.dtd">
<!-- Generated by graphviz version 2.43.0 (0)
 -->
<!-- Title: itk::simple::detail::MemberFunctionFactoryBase&lt; TMemberFunctionPointer, TKey &gt; Pages: 1 -->
<svg width="233pt" height="306pt"
 viewBox="0.00 0.00 233.00 306.00" xmlns="http://www.w3.org/2000/svg" xmlns:xlink="http://www.w3.org/1999/xlink">
<g id="graph0" class="graph" transform="scale(1 1) rotate(0) translate(4 302)">
<title>itk::simple::detail::MemberFunctionFactoryBase&lt; TMemberFunctionPointer, TKey &gt;</title>
<polygon fill="white" stroke="transparent" points="-4,4 -4,-302 229,-302 229,4 -4,4"/>
<!-- Node1 -->
<g id="node1" class="node">
<title>Node1</title>
<g id="a_node1"><a xlink:title=" ">
<polygon fill="#bfbfbf" stroke="black" points="0,-0.5 0,-52.5 164,-52.5 164,-0.5 0,-0.5"/>
<text text-anchor="start" x="8" y="-40.5" font-family="Helvetica,sans-Serif" font-size="10.00">itk::simple::detail</text>
<text text-anchor="start" x="8" y="-29.5" font-family="Helvetica,sans-Serif" font-size="10.00">::MemberFunctionFactoryBase</text>
<text text-anchor="start" x="8" y="-18.5" font-family="Helvetica,sans-Serif" font-size="10.00">&lt; TMemberFunctionPointer,</text>
<text text-anchor="middle" x="82" y="-7.5" font-family="Helvetica,sans-Serif" font-size="10.00"> TKey &gt;</text>
</a>
</g>
</g>
<!-- Node2 -->
<g id="node2" class="node">
<title>Node2</title>
<g id="a_node2"><a xlink:title=" ">
<polygon fill="white" stroke="#bfbfbf" points="4,-100.5 4,-141.5 160,-141.5 160,-100.5 4,-100.5"/>
<text text-anchor="start" x="12" y="-129.5" font-family="Helvetica,sans-Serif" font-size="10.00">std::unordered_map</text>
<text text-anchor="start" x="12" y="-118.5" font-family="Helvetica,sans-Serif" font-size="10.00">&lt; TKey, FunctionObjectType,</text>
<text text-anchor="middle" x="82" y="-107.5" font-family="Helvetica,sans-Serif" font-size="10.00"> hash&lt; TKey &gt; &gt;</text>
</a>
</g>
</g>
<!-- Node2&#45;&gt;Node1 -->
<g id="edge1" class="edge">
<title>Node2&#45;&gt;Node1</title>
<path fill="none" stroke="#9a32cd" stroke-dasharray="5,2" d="M82,-90.29C82,-78.18 82,-64.33 82,-52.72"/>
<polygon fill="#9a32cd" stroke="#9a32cd" points="78.5,-90.38 82,-100.38 85.5,-90.38 78.5,-90.38"/>
<text text-anchor="middle" x="115" y="-74" font-family="Helvetica,sans-Serif" font-size="10.00"> m_PFunction</text>
</g>
<!-- Node3 -->
<g id="node3" class="node">
<title>Node3</title>
<g id="a_node3"><a xlink:title="STL class.">
<polygon fill="white" stroke="#bfbfbf" points="25,-200.5 25,-230.5 139,-230.5 139,-200.5 25,-200.5"/>
<text text-anchor="start" x="33" y="-218.5" font-family="Helvetica,sans-Serif" font-size="10.00">std::unordered_map</text>
<text text-anchor="middle" x="82" y="-207.5" font-family="Helvetica,sans-Serif" font-size="10.00">&lt; K, T &gt;</text>
</a>
</g>
</g>
<!-- Node3&#45;&gt;Node2 -->
<g id="edge2" class="edge">
<title>Node3&#45;&gt;Node2</title>
<path fill="none" stroke="orange" stroke-dasharray="5,2" d="M82,-190.28C82,-175.14 82,-155.88 82,-141.68"/>
<polygon fill="orange" stroke="orange" points="78.5,-190.45 82,-200.45 85.5,-190.45 78.5,-190.45"/>
<text text-anchor="start" x="82" y="-174" font-family="Helvetica,sans-Serif" font-size="10.00"> &lt; TKey, FunctionObjectType,</text>
<text text-anchor="middle" x="153.5" y="-163" font-family="Helvetica,sans-Serif" font-size="10.00"> hash&lt; TKey &gt; &gt;</text>
</g>
<!-- Node4 -->
<g id="node4" class="node">
<title>Node4</title>
<g id="a_node4"><a xlink:title=" ">
<polygon fill="white" stroke="#bfbfbf" points="43.5,-278.5 43.5,-297.5 72.5,-297.5 72.5,-278.5 43.5,-278.5"/>
<text text-anchor="middle" x="58" y="-285.5" font-family="Helvetica,sans-Serif" font-size="10.00">K</text>
</a>
</g>
</g>
<!-- Node4&#45;&gt;Node3 -->
<g id="edge3" class="edge">
<title>Node4&#45;&gt;Node3</title>
<path fill="none" stroke="#9a32cd" stroke-dasharray="5,2" d="M56.34,-268.12C56.36,-261.89 57,-255.03 59,-249 61.18,-242.44 65.17,-236.05 69.22,-230.69"/>
<polygon fill="#9a32cd" stroke="#9a32cd" points="52.85,-268.48 56.82,-278.3 59.85,-268.15 52.85,-268.48"/>
<text text-anchor="middle" x="72" y="-252" font-family="Helvetica,sans-Serif" font-size="10.00"> keys</text>
</g>
<!-- Node5 -->
<g id="node5" class="node">
<title>Node5</title>
<g id="a_node5"><a xlink:title=" ">
<polygon fill="white" stroke="#bfbfbf" points="92.5,-278.5 92.5,-297.5 121.5,-297.5 121.5,-278.5 92.5,-278.5"/>
<text text-anchor="middle" x="107" y="-285.5" font-family="Helvetica,sans-Serif" font-size="10.00">T</text>
</a>
</g>
</g>
<!-- Node5&#45;&gt;Node3 -->
<g id="edge4" class="edge">
<title>Node5&#45;&gt;Node3</title>
<path fill="none" stroke="#9a32cd" stroke-dasharray="5,2" d="M100.48,-268.6C96.26,-256.72 90.86,-241.49 86.99,-230.58"/>
<polygon fill="#9a32cd" stroke="#9a32cd" points="97.29,-270.1 103.93,-278.36 103.89,-267.76 97.29,-270.1"/>
<text text-anchor="middle" x="120.5" y="-252" font-family="Helvetica,sans-Serif" font-size="10.00"> elements</text>
</g>
</g>
</svg>
