<?xml version="1.0" encoding="UTF-8" standalone="no"?>
<!DOCTYPE svg PUBLIC "-//W3C//DTD SVG 1.1//EN"
 "http://www.w3.org/Graphics/SVG/1.1/DTD/svg11.dtd">
<!-- Generated by graphviz version 2.43.0 (0)
 -->
<!-- Title: Code Pages: 1 -->
<svg width="500pt" height="255pt"
 viewBox="0.00 0.00 500.00 255.00" xmlns="http://www.w3.org/2000/svg" xmlns:xlink="http://www.w3.org/1999/xlink">
<g id="graph0" class="graph" transform="scale(1 1) rotate(0) translate(4 251)">
<title>Code</title>
<polygon fill="white" stroke="transparent" points="-4,4 -4,-251 496,-251 496,4 -4,4"/>
<g id="clust1" class="cluster">
<title>clusterdir_0195af5fa7804b5c802a7ca910fa092c</title>
<g id="a_clust1"><a xlink:href="dir_0195af5fa7804b5c802a7ca910fa092c.html" target="_top" xlink:title="SimpleITK">
<polygon fill="#ddddee" stroke="black" points="8,-8 8,-239 430,-239 430,-8 8,-8"/>
<text text-anchor="middle" x="219" y="-227" font-family="Helvetica,sans-Serif" font-size="10.00">SimpleITK</text>
</a>
</g>
</g>
<g id="clust2" class="cluster">
<title>clusterdir_b9cb50edb61d9a37345e1397b3ccbbdc</title>
<g id="a_clust2"><a xlink:href="dir_b9cb50edb61d9a37345e1397b3ccbbdc.html" target="_top">
<polygon fill="#eeeeff" stroke="black" points="16,-16 16,-212 422,-212 422,-16 16,-16"/>
</a>
</g>
</g>
<!-- dir_b9cb50edb61d9a37345e1397b3ccbbdc -->
<g id="node1" class="node">
<title>dir_b9cb50edb61d9a37345e1397b3ccbbdc</title>
<text text-anchor="middle" x="387" y="-183.5" font-family="Helvetica,sans-Serif" font-size="10.00">Code</text>
</g>
<!-- dir_dbb0507b3639155bebaec74fe5b3f957 -->
<g id="node2" class="node">
<title>dir_dbb0507b3639155bebaec74fe5b3f957</title>
<g id="a_node2"><a xlink:href="dir_dbb0507b3639155bebaec74fe5b3f957.html" target="_top" xlink:title="BasicFilters">
<polygon fill="white" stroke="red" points="341.5,-204 268.5,-204 268.5,-168 341.5,-168 341.5,-204"/>
<text text-anchor="middle" x="305" y="-183.5" font-family="Helvetica,sans-Serif" font-size="10.00">BasicFilters</text>
</a>
</g>
</g>
<!-- dir_1ba33b307118a85c0794d13b60d0caea -->
<g id="node3" class="node">
<title>dir_1ba33b307118a85c0794d13b60d0caea</title>
<g id="a_node3"><a xlink:href="dir_1ba33b307118a85c0794d13b60d0caea.html" target="_top" xlink:title="Common">
<polygon fill="white" stroke="red" points="335.5,-132 274.5,-132 274.5,-96 335.5,-96 335.5,-132"/>
<text text-anchor="middle" x="305" y="-111.5" font-family="Helvetica,sans-Serif" font-size="10.00">Common</text>
</a>
</g>
</g>
<!-- dir_dbb0507b3639155bebaec74fe5b3f957&#45;&gt;dir_1ba33b307118a85c0794d13b60d0caea -->
<g id="edge8" class="edge">
<title>dir_dbb0507b3639155bebaec74fe5b3f957&#45;&gt;dir_1ba33b307118a85c0794d13b60d0caea</title>
<path fill="none" stroke="black" d="M299.08,-167.7C298.29,-159.98 298.06,-150.71 298.4,-142.11"/>
<polygon fill="black" stroke="black" points="301.9,-142.32 299.1,-132.1 294.92,-141.84 301.9,-142.32"/>
<g id="a_edge8&#45;headlabel"><a xlink:href="dir_000008_000010.html" target="_top" xlink:title="23">
<text text-anchor="middle" x="304.48" y="-143.61" font-family="Helvetica,sans-Serif" font-size="10.00">23</text>
</a>
</g>
</g>
<!-- dir_f39368514e927ff3df32776217a2e927 -->
<g id="node8" class="node">
<title>dir_f39368514e927ff3df32776217a2e927</title>
<g id="a_node8"><a xlink:href="dir_f39368514e927ff3df32776217a2e927.html" target="_top" xlink:title="Code">
<polygon fill="white" stroke="red" points="492,-132 438,-132 438,-96 492,-96 492,-132"/>
<text text-anchor="middle" x="465" y="-111.5" font-family="Helvetica,sans-Serif" font-size="10.00">Code</text>
</a>
</g>
</g>
<!-- dir_dbb0507b3639155bebaec74fe5b3f957&#45;&gt;dir_f39368514e927ff3df32776217a2e927 -->
<g id="edge9" class="edge">
<title>dir_dbb0507b3639155bebaec74fe5b3f957&#45;&gt;dir_f39368514e927ff3df32776217a2e927</title>
<path fill="none" stroke="black" d="M338.24,-167.88C364.5,-155.84 400.98,-139.94 428.13,-128.73"/>
<polygon fill="black" stroke="black" points="429.74,-131.85 437.68,-124.83 427.09,-125.37 429.74,-131.85"/>
<g id="a_edge9&#45;headlabel"><a xlink:href="dir_000008_000002.html" target="_top" xlink:title="11">
<text text-anchor="middle" x="427.49" y="-133.34" font-family="Helvetica,sans-Serif" font-size="10.00">11</text>
</a>
</g>
</g>
<!-- dir_1ba33b307118a85c0794d13b60d0caea&#45;&gt;dir_dbb0507b3639155bebaec74fe5b3f957 -->
<g id="edge4" class="edge">
<title>dir_1ba33b307118a85c0794d13b60d0caea&#45;&gt;dir_dbb0507b3639155bebaec74fe5b3f957</title>
<path fill="none" stroke="black" d="M310.9,-132.1C311.7,-139.79 311.94,-149.05 311.6,-157.67"/>
<polygon fill="black" stroke="black" points="308.11,-157.48 310.92,-167.7 315.09,-157.96 308.11,-157.48"/>
<g id="a_edge4&#45;headlabel"><a xlink:href="dir_000010_000008.html" target="_top" xlink:title="10">
<text text-anchor="middle" x="305.52" y="-151.2" font-family="Helvetica,sans-Serif" font-size="10.00">10</text>
</a>
</g>
</g>
<!-- dir_2a34bf78513aea0df2e2c3d4af0cd38f -->
<g id="node6" class="node">
<title>dir_2a34bf78513aea0df2e2c3d4af0cd38f</title>
<g id="a_node6"><a xlink:href="dir_2a34bf78513aea0df2e2c3d4af0cd38f.html" target="_top" xlink:title="IO">
<polygon fill="white" stroke="red" points="284,-60 230,-60 230,-24 284,-24 284,-60"/>
<text text-anchor="middle" x="257" y="-39.5" font-family="Helvetica,sans-Serif" font-size="10.00">IO</text>
</a>
</g>
</g>
<!-- dir_1ba33b307118a85c0794d13b60d0caea&#45;&gt;dir_2a34bf78513aea0df2e2c3d4af0cd38f -->
<g id="edge5" class="edge">
<title>dir_1ba33b307118a85c0794d13b60d0caea&#45;&gt;dir_2a34bf78513aea0df2e2c3d4af0cd38f</title>
<path fill="none" stroke="black" d="M287.22,-95.7C280.8,-87.56 273.83,-77.69 268.09,-68.7"/>
<polygon fill="black" stroke="black" points="271.04,-66.81 262.83,-60.1 265.06,-70.46 271.04,-66.81"/>
<g id="a_edge5&#45;headlabel"><a xlink:href="dir_000010_000027.html" target="_top" xlink:title="7">
<text text-anchor="middle" x="275.33" y="-65.9" font-family="Helvetica,sans-Serif" font-size="10.00">7</text>
</a>
</g>
</g>
<!-- dir_38d004fcec24276f2c541b703d786171 -->
<g id="node7" class="node">
<title>dir_38d004fcec24276f2c541b703d786171</title>
<g id="a_node7"><a xlink:href="dir_38d004fcec24276f2c541b703d786171.html" target="_top" xlink:title="Registration">
<polygon fill="white" stroke="red" points="378,-60 302,-60 302,-24 378,-24 378,-60"/>
<text text-anchor="middle" x="340" y="-39.5" font-family="Helvetica,sans-Serif" font-size="10.00">Registration</text>
</a>
</g>
</g>
<!-- dir_1ba33b307118a85c0794d13b60d0caea&#45;&gt;dir_38d004fcec24276f2c541b703d786171 -->
<g id="edge3" class="edge">
<title>dir_1ba33b307118a85c0794d13b60d0caea&#45;&gt;dir_38d004fcec24276f2c541b703d786171</title>
<path fill="none" stroke="black" d="M307.74,-95.7C310.93,-87.64 315.6,-77.89 320.46,-68.98"/>
<polygon fill="black" stroke="black" points="323.61,-70.52 325.55,-60.1 317.54,-67.04 323.61,-70.52"/>
<g id="a_edge3&#45;headlabel"><a xlink:href="dir_000010_000030.html" target="_top" xlink:title="1">
<text text-anchor="middle" x="324.29" y="-72.55" font-family="Helvetica,sans-Serif" font-size="10.00">1</text>
</a>
</g>
</g>
<!-- dir_1ba33b307118a85c0794d13b60d0caea&#45;&gt;dir_f39368514e927ff3df32776217a2e927 -->
<g id="edge6" class="edge">
<title>dir_1ba33b307118a85c0794d13b60d0caea&#45;&gt;dir_f39368514e927ff3df32776217a2e927</title>
<path fill="none" stroke="black" d="M335.62,-114C366.27,-114 396.92,-114 427.57,-114"/>
<polygon fill="black" stroke="black" points="427.96,-117.5 437.96,-114 427.96,-110.5 427.96,-117.5"/>
<g id="a_edge6&#45;headlabel"><a xlink:href="dir_000010_000002.html" target="_top" xlink:title="6">
<text text-anchor="middle" x="424.37" y="-117.84" font-family="Helvetica,sans-Serif" font-size="10.00">6</text>
</a>
</g>
</g>
<!-- dir_ebe6e05764b9d1a0d98fb8b64a37b2d5 -->
<g id="node4" class="node">
<title>dir_ebe6e05764b9d1a0d98fb8b64a37b2d5</title>
<g id="a_node4"><a xlink:href="dir_ebe6e05764b9d1a0d98fb8b64a37b2d5.html" target="_top" xlink:title="ElastixTransformixWrappers">
<polygon fill="white" stroke="red" points="250,-204 96,-204 96,-168 250,-168 250,-204"/>
<text text-anchor="middle" x="173" y="-183.5" font-family="Helvetica,sans-Serif" font-size="10.00">ElastixTransformixWrappers</text>
</a>
</g>
</g>
<!-- dir_ebe6e05764b9d1a0d98fb8b64a37b2d5&#45;&gt;dir_1ba33b307118a85c0794d13b60d0caea -->
<g id="edge1" class="edge">
<title>dir_ebe6e05764b9d1a0d98fb8b64a37b2d5&#45;&gt;dir_1ba33b307118a85c0794d13b60d0caea</title>
<path fill="none" stroke="black" d="M205.29,-167.88C223.48,-158.23 246.33,-146.11 265.57,-135.91"/>
<polygon fill="black" stroke="black" points="267.21,-139 274.4,-131.23 263.93,-132.82 267.21,-139"/>
<g id="a_edge1&#45;headlabel"><a xlink:href="dir_000022_000010.html" target="_top" xlink:title="8">
<text text-anchor="middle" x="265.36" y="-140.7" font-family="Helvetica,sans-Serif" font-size="10.00">8</text>
</a>
</g>
</g>
<!-- dir_2c0aae0932349bdc522a08f3cf356d36 -->
<g id="node5" class="node">
<title>dir_2c0aae0932349bdc522a08f3cf356d36</title>
<g id="a_node5"><a xlink:href="dir_2c0aae0932349bdc522a08f3cf356d36.html" target="_top" xlink:title="Explicit">
<polygon fill="white" stroke="red" points="78,-204 24,-204 24,-168 78,-168 78,-204"/>
<text text-anchor="middle" x="51" y="-183.5" font-family="Helvetica,sans-Serif" font-size="10.00">Explicit</text>
</a>
</g>
</g>
<!-- dir_2c0aae0932349bdc522a08f3cf356d36&#45;&gt;dir_1ba33b307118a85c0794d13b60d0caea -->
<g id="edge2" class="edge">
<title>dir_2c0aae0932349bdc522a08f3cf356d36&#45;&gt;dir_1ba33b307118a85c0794d13b60d0caea</title>
<path fill="none" stroke="black" d="M78.28,-171.42C81.19,-170.18 84.13,-169.01 87,-168 147.34,-146.67 220.04,-130.88 264.37,-122.31"/>
<polygon fill="black" stroke="black" points="265.29,-125.7 274.46,-120.39 263.99,-118.82 265.29,-125.7"/>
<g id="a_edge2&#45;headlabel"><a xlink:href="dir_000025_000010.html" target="_top" xlink:title="1">
<text text-anchor="middle" x="262.29" y="-126.66" font-family="Helvetica,sans-Serif" font-size="10.00">1</text>
</a>
</g>
</g>
<!-- dir_2a34bf78513aea0df2e2c3d4af0cd38f&#45;&gt;dir_1ba33b307118a85c0794d13b60d0caea -->
<g id="edge10" class="edge">
<title>dir_2a34bf78513aea0df2e2c3d4af0cd38f&#45;&gt;dir_1ba33b307118a85c0794d13b60d0caea</title>
<path fill="none" stroke="black" d="M274.62,-60.1C281.03,-68.21 288.01,-78.08 293.77,-87.08"/>
<polygon fill="black" stroke="black" points="290.84,-89 299.05,-95.7 296.81,-85.34 290.84,-89"/>
<g id="a_edge10&#45;headlabel"><a xlink:href="dir_000027_000010.html" target="_top" xlink:title="24">
<text text-anchor="middle" x="286.54" y="-84.92" font-family="Helvetica,sans-Serif" font-size="10.00">24</text>
</a>
</g>
</g>
<!-- dir_38d004fcec24276f2c541b703d786171&#45;&gt;dir_1ba33b307118a85c0794d13b60d0caea -->
<g id="edge7" class="edge">
<title>dir_38d004fcec24276f2c541b703d786171&#45;&gt;dir_1ba33b307118a85c0794d13b60d0caea</title>
<path fill="none" stroke="black" d="M337.34,-60.1C334.17,-68.13 329.52,-77.87 324.66,-86.8"/>
<polygon fill="black" stroke="black" points="321.49,-85.28 319.57,-95.7 327.57,-88.75 321.49,-85.28"/>
<g id="a_edge7&#45;headlabel"><a xlink:href="dir_000030_000010.html" target="_top" xlink:title="9">
<text text-anchor="middle" x="320.82" y="-78.25" font-family="Helvetica,sans-Serif" font-size="10.00">9</text>
</a>
</g>
</g>
<!-- dir_f39368514e927ff3df32776217a2e927&#45;&gt;dir_dbb0507b3639155bebaec74fe5b3f957 -->
<g id="edge12" class="edge">
<title>dir_f39368514e927ff3df32776217a2e927&#45;&gt;dir_dbb0507b3639155bebaec74fe5b3f957</title>
<path fill="none" stroke="black" d="M437.77,-129.35C413.95,-140.4 379.05,-155.72 350.95,-167.49"/>
<polygon fill="black" stroke="black" points="349.6,-164.27 341.71,-171.34 352.29,-170.73 349.6,-164.27"/>
<g id="a_edge12&#45;headlabel"><a xlink:href="dir_000002_000008.html" target="_top" xlink:title="582">
<text text-anchor="middle" x="351.83" y="-157.76" font-family="Helvetica,sans-Serif" font-size="10.00">582</text>
</a>
</g>
</g>
<!-- dir_f39368514e927ff3df32776217a2e927&#45;&gt;dir_1ba33b307118a85c0794d13b60d0caea -->
<g id="edge11" class="edge">
<title>dir_f39368514e927ff3df32776217a2e927&#45;&gt;dir_1ba33b307118a85c0794d13b60d0caea</title>
<path fill="none" stroke="black" d="M437.96,-114C407.31,-114 376.67,-114 346.02,-114"/>
<polygon fill="black" stroke="black" points="345.63,-110.5 335.62,-114 345.62,-117.5 345.63,-110.5"/>
<g id="a_edge11&#45;headlabel"><a xlink:href="dir_000002_000010.html" target="_top" xlink:title="15">
<text text-anchor="middle" x="349.22" y="-105.16" font-family="Helvetica,sans-Serif" font-size="10.00">15</text>
</a>
</g>
</g>
</g>
</svg>
