<?xml version="1.0" encoding="UTF-8" standalone="no"?>
<!DOCTYPE svg PUBLIC "-//W3C//DTD SVG 1.1//EN"
 "http://www.w3.org/Graphics/SVG/1.1/DTD/svg11.dtd">
<!-- Generated by graphviz version 2.43.0 (0)
 -->
<!-- Title: itkHolderCommand.h Pages: 1 -->
<svg width="508pt" height="644pt"
 viewBox="0.00 0.00 508.00 644.00" xmlns="http://www.w3.org/2000/svg" xmlns:xlink="http://www.w3.org/1999/xlink">
<g id="graph0" class="graph" transform="scale(1 1) rotate(0) translate(4 640)">
<title>itkHolderCommand.h</title>
<polygon fill="white" stroke="transparent" points="-4,4 -4,-640 504,-640 504,4 -4,4"/>
<!-- Node1 -->
<g id="node1" class="node">
<title>Node1</title>
<g id="a_node1"><a xlink:title=" ">
<polygon fill="#bfbfbf" stroke="black" points="241.5,-616.5 241.5,-635.5 362.5,-635.5 362.5,-616.5 241.5,-616.5"/>
<text text-anchor="middle" x="302" y="-623.5" font-family="Helvetica,sans-Serif" font-size="10.00">itkHolderCommand.h</text>
</a>
</g>
</g>
<!-- Node2 -->
<g id="node2" class="node">
<title>Node2</title>
<g id="a_node2"><a xlink:href="https://www.itk.org/Doxygen/html/itkCommand_8h.html" xlink:title=" ">
<polygon fill="white" stroke="black" points="257.5,-560.5 257.5,-579.5 346.5,-579.5 346.5,-560.5 257.5,-560.5"/>
<text text-anchor="middle" x="302" y="-567.5" font-family="Helvetica,sans-Serif" font-size="10.00">itkCommand.h</text>
</a>
</g>
</g>
<!-- Node1&#45;&gt;Node2 -->
<g id="edge1" class="edge">
<title>Node1&#45;&gt;Node2</title>
<path fill="none" stroke="midnightblue" d="M302,-616.08C302,-609.01 302,-598.86 302,-589.99"/>
<polygon fill="midnightblue" stroke="midnightblue" points="305.5,-589.75 302,-579.75 298.5,-589.75 305.5,-589.75"/>
</g>
<!-- Node3 -->
<g id="node3" class="node">
<title>Node3</title>
<g id="a_node3"><a xlink:href="https://www.itk.org/Doxygen/html/itkObject_8h.html" xlink:title=" ">
<polygon fill="white" stroke="black" points="279,-336.5 279,-355.5 349,-355.5 349,-336.5 279,-336.5"/>
<text text-anchor="middle" x="314" y="-343.5" font-family="Helvetica,sans-Serif" font-size="10.00">itkObject.h</text>
</a>
</g>
</g>
<!-- Node2&#45;&gt;Node3 -->
<g id="edge2" class="edge">
<title>Node2&#45;&gt;Node3</title>
<path fill="none" stroke="midnightblue" d="M306.38,-560.45C317.93,-537.32 348.96,-471.22 358,-412 359.34,-403.21 361.36,-400.23 358,-392 353.2,-380.23 343.67,-369.86 334.71,-362.05"/>
<polygon fill="midnightblue" stroke="midnightblue" points="336.75,-359.2 326.78,-355.63 332.35,-364.64 336.75,-359.2"/>
</g>
<!-- Node14 -->
<g id="node14" class="node">
<title>Node14</title>
<g id="a_node14"><a xlink:href="https://www.itk.org/Doxygen/html/itkObjectFactory_8h.html" xlink:title=" ">
<polygon fill="white" stroke="black" points="210,-504.5 210,-523.5 314,-523.5 314,-504.5 210,-504.5"/>
<text text-anchor="middle" x="262" y="-511.5" font-family="Helvetica,sans-Serif" font-size="10.00">itkObjectFactory.h</text>
</a>
</g>
</g>
<!-- Node2&#45;&gt;Node14 -->
<g id="edge20" class="edge">
<title>Node2&#45;&gt;Node14</title>
<path fill="none" stroke="midnightblue" d="M295.39,-560.08C289.74,-552.46 281.46,-541.26 274.55,-531.94"/>
<polygon fill="midnightblue" stroke="midnightblue" points="277.25,-529.7 268.48,-523.75 271.62,-533.87 277.25,-529.7"/>
</g>
<!-- Node4 -->
<g id="node4" class="node">
<title>Node4</title>
<g id="a_node4"><a xlink:href="https://www.itk.org/Doxygen/html/itkLightObject_8h.html" xlink:title=" ">
<polygon fill="white" stroke="black" points="268,-168.5 268,-187.5 362,-187.5 362,-168.5 268,-168.5"/>
<text text-anchor="middle" x="315" y="-175.5" font-family="Helvetica,sans-Serif" font-size="10.00">itkLightObject.h</text>
</a>
</g>
</g>
<!-- Node3&#45;&gt;Node4 -->
<g id="edge3" class="edge">
<title>Node3&#45;&gt;Node4</title>
<path fill="none" stroke="midnightblue" d="M302.86,-336.38C293.25,-328.19 279.99,-314.94 274,-300 261.43,-268.64 259.42,-255.36 272,-224 276.68,-212.33 285.99,-201.97 294.76,-194.14"/>
<polygon fill="midnightblue" stroke="midnightblue" points="297.05,-196.78 302.5,-187.7 292.58,-191.4 297.05,-196.78"/>
</g>
<!-- Node9 -->
<g id="node9" class="node">
<title>Node9</title>
<g id="a_node9"><a xlink:href="https://www.itk.org/Doxygen/html/itkSingletonMacro_8h.html" xlink:title=" ">
<polygon fill="white" stroke="black" points="144,-56.5 144,-75.5 258,-75.5 258,-56.5 144,-56.5"/>
<text text-anchor="middle" x="201" y="-63.5" font-family="Helvetica,sans-Serif" font-size="10.00">itkSingletonMacro.h</text>
</a>
</g>
</g>
<!-- Node3&#45;&gt;Node9 -->
<g id="edge19" class="edge">
<title>Node3&#45;&gt;Node9</title>
<path fill="none" stroke="midnightblue" d="M297.21,-336.32C268.96,-320.37 215,-283.56 215,-235 215,-235 215,-235 215,-177 215,-144.54 208.93,-107.12 204.78,-85.36"/>
<polygon fill="midnightblue" stroke="midnightblue" points="208.21,-84.64 202.83,-75.51 201.34,-86 208.21,-84.64"/>
</g>
<!-- Node11 -->
<g id="node11" class="node">
<title>Node11</title>
<g id="a_node11"><a xlink:href="https://www.itk.org/Doxygen/html/itkEventObject_8h.html" xlink:title=" ">
<polygon fill="white" stroke="black" points="402,-168.5 402,-187.5 500,-187.5 500,-168.5 402,-168.5"/>
<text text-anchor="middle" x="451" y="-175.5" font-family="Helvetica,sans-Serif" font-size="10.00">itkEventObject.h</text>
</a>
</g>
</g>
<!-- Node3&#45;&gt;Node11 -->
<g id="edge13" class="edge">
<title>Node3&#45;&gt;Node11</title>
<path fill="none" stroke="midnightblue" d="M349.15,-340.25C374.84,-334.89 408.46,-323.6 428,-300 452.23,-270.73 453.9,-223.79 452.66,-197.82"/>
<polygon fill="midnightblue" stroke="midnightblue" points="456.15,-197.53 451.98,-187.79 449.16,-198 456.15,-197.53"/>
</g>
<!-- Node12 -->
<g id="node12" class="node">
<title>Node12</title>
<g id="a_node12"><a xlink:href="https://www.itk.org/Doxygen/html/itkMetaDataDictionary_8h.html" xlink:title=" ">
<polygon fill="white" stroke="black" points="283.5,-280.5 283.5,-299.5 418.5,-299.5 418.5,-280.5 283.5,-280.5"/>
<text text-anchor="middle" x="351" y="-287.5" font-family="Helvetica,sans-Serif" font-size="10.00">itkMetaDataDictionary.h</text>
</a>
</g>
</g>
<!-- Node3&#45;&gt;Node12 -->
<g id="edge16" class="edge">
<title>Node3&#45;&gt;Node12</title>
<path fill="none" stroke="midnightblue" d="M320.11,-336.08C325.28,-328.53 332.85,-317.49 339.19,-308.23"/>
<polygon fill="midnightblue" stroke="midnightblue" points="342.24,-309.98 345,-299.75 336.46,-306.02 342.24,-309.98"/>
</g>
<!-- Node5 -->
<g id="node5" class="node">
<title>Node5</title>
<g id="a_node5"><a xlink:href="https://www.itk.org/Doxygen/html/itkMacro_8h.html" xlink:title=" ">
<polygon fill="white" stroke="black" points="339,-0.5 339,-19.5 407,-19.5 407,-0.5 339,-0.5"/>
<text text-anchor="middle" x="373" y="-7.5" font-family="Helvetica,sans-Serif" font-size="10.00">itkMacro.h</text>
</a>
</g>
</g>
<!-- Node4&#45;&gt;Node5 -->
<g id="edge4" class="edge">
<title>Node4&#45;&gt;Node5</title>
<path fill="none" stroke="midnightblue" d="M325.09,-168.46C334.21,-160.14 347.2,-146.63 354,-132 369.62,-98.37 372.78,-54.41 373.2,-29.8"/>
<polygon fill="midnightblue" stroke="midnightblue" points="376.7,-29.69 373.24,-19.68 369.7,-29.67 376.7,-29.69"/>
</g>
<!-- Node6 -->
<g id="node6" class="node">
<title>Node6</title>
<g id="a_node6"><a xlink:href="https://www.itk.org/Doxygen/html/itkSmartPointer_8h.html" xlink:title=" ">
<polygon fill="white" stroke="black" points="243.5,-112.5 243.5,-131.5 344.5,-131.5 344.5,-112.5 243.5,-112.5"/>
<text text-anchor="middle" x="294" y="-119.5" font-family="Helvetica,sans-Serif" font-size="10.00">itkSmartPointer.h</text>
</a>
</g>
</g>
<!-- Node4&#45;&gt;Node6 -->
<g id="edge5" class="edge">
<title>Node4&#45;&gt;Node6</title>
<path fill="none" stroke="midnightblue" d="M311.53,-168.08C308.69,-160.77 304.57,-150.18 301.04,-141.1"/>
<polygon fill="midnightblue" stroke="midnightblue" points="304.29,-139.8 297.4,-131.75 297.77,-142.34 304.29,-139.8"/>
</g>
<!-- Node7 -->
<g id="node7" class="node">
<title>Node7</title>
<g id="a_node7"><a xlink:href="https://www.itk.org/Doxygen/html/itkTimeStamp_8h.html" xlink:title=" ">
<polygon fill="white" stroke="black" points="53.5,-112.5 53.5,-131.5 148.5,-131.5 148.5,-112.5 53.5,-112.5"/>
<text text-anchor="middle" x="101" y="-119.5" font-family="Helvetica,sans-Serif" font-size="10.00">itkTimeStamp.h</text>
</a>
</g>
</g>
<!-- Node4&#45;&gt;Node7 -->
<g id="edge6" class="edge">
<title>Node4&#45;&gt;Node7</title>
<path fill="none" stroke="midnightblue" d="M281.09,-168.44C244.15,-159.12 184.95,-144.18 144.58,-134"/>
<polygon fill="midnightblue" stroke="midnightblue" points="145.3,-130.57 134.75,-131.52 143.59,-137.36 145.3,-130.57"/>
</g>
<!-- Node10 -->
<g id="node10" class="node">
<title>Node10</title>
<g id="a_node10"><a xlink:href="https://www.itk.org/Doxygen/html/itkIndent_8h.html" xlink:title=" ">
<polygon fill="white" stroke="black" points="401.5,-112.5 401.5,-131.5 470.5,-131.5 470.5,-112.5 401.5,-112.5"/>
<text text-anchor="middle" x="436" y="-119.5" font-family="Helvetica,sans-Serif" font-size="10.00">itkIndent.h</text>
</a>
</g>
</g>
<!-- Node4&#45;&gt;Node10 -->
<g id="edge11" class="edge">
<title>Node4&#45;&gt;Node10</title>
<path fill="none" stroke="midnightblue" d="M334.17,-168.44C353.91,-159.64 384.89,-145.81 407.49,-135.72"/>
<polygon fill="midnightblue" stroke="midnightblue" points="409.21,-138.79 416.92,-131.52 406.36,-132.4 409.21,-138.79"/>
</g>
<!-- Node7&#45;&gt;Node5 -->
<g id="edge7" class="edge">
<title>Node7&#45;&gt;Node5</title>
<path fill="none" stroke="midnightblue" d="M102.97,-112.24C106.64,-98.03 115.97,-70.11 135,-56 165.1,-33.69 268.61,-20.64 328.75,-14.76"/>
<polygon fill="midnightblue" stroke="midnightblue" points="329.1,-18.24 338.73,-13.81 328.44,-11.27 329.1,-18.24"/>
</g>
<!-- Node8 -->
<g id="node8" class="node">
<title>Node8</title>
<g id="a_node8"><a xlink:href="https://www.itk.org/Doxygen/html/itkIntTypes_8h.html" xlink:title=" ">
<polygon fill="white" stroke="black" points="8.5,-56.5 8.5,-75.5 87.5,-75.5 87.5,-56.5 8.5,-56.5"/>
<text text-anchor="middle" x="48" y="-63.5" font-family="Helvetica,sans-Serif" font-size="10.00">itkIntTypes.h</text>
</a>
</g>
</g>
<!-- Node7&#45;&gt;Node8 -->
<g id="edge8" class="edge">
<title>Node7&#45;&gt;Node8</title>
<path fill="none" stroke="midnightblue" d="M92.25,-112.08C84.53,-104.22 73.1,-92.57 63.78,-83.08"/>
<polygon fill="midnightblue" stroke="midnightblue" points="66.09,-80.44 56.59,-75.75 61.1,-85.34 66.09,-80.44"/>
</g>
<!-- Node7&#45;&gt;Node9 -->
<g id="edge10" class="edge">
<title>Node7&#45;&gt;Node9</title>
<path fill="none" stroke="midnightblue" d="M117.07,-112.32C132.96,-103.74 157.51,-90.49 175.96,-80.52"/>
<polygon fill="midnightblue" stroke="midnightblue" points="177.84,-83.49 184.97,-75.65 174.51,-77.33 177.84,-83.49"/>
</g>
<!-- Node8&#45;&gt;Node5 -->
<g id="edge9" class="edge">
<title>Node8&#45;&gt;Node5</title>
<path fill="none" stroke="midnightblue" d="M87.52,-58.41C92.4,-57.6 97.31,-56.78 102,-56 181.83,-42.72 274.9,-27.27 328.58,-18.37"/>
<polygon fill="midnightblue" stroke="midnightblue" points="329.48,-21.77 338.78,-16.68 328.34,-14.86 329.48,-21.77"/>
</g>
<!-- Node10&#45;&gt;Node5 -->
<g id="edge12" class="edge">
<title>Node10&#45;&gt;Node5</title>
<path fill="none" stroke="midnightblue" d="M431.06,-112.37C420.71,-94.3 396.58,-52.18 382.91,-28.31"/>
<polygon fill="midnightblue" stroke="midnightblue" points="385.93,-26.53 377.92,-19.59 379.85,-30.01 385.93,-26.53"/>
</g>
<!-- Node11&#45;&gt;Node5 -->
<g id="edge14" class="edge">
<title>Node11&#45;&gt;Node5</title>
<path fill="none" stroke="midnightblue" d="M459.86,-168.2C471.29,-155.73 488.71,-132.2 480,-112 463.17,-72.97 423.02,-42.01 396.97,-25.12"/>
<polygon fill="midnightblue" stroke="midnightblue" points="398.74,-22.09 388.41,-19.74 395.01,-28.02 398.74,-22.09"/>
</g>
<!-- Node11&#45;&gt;Node10 -->
<g id="edge15" class="edge">
<title>Node11&#45;&gt;Node10</title>
<path fill="none" stroke="midnightblue" d="M448.52,-168.08C446.51,-160.85 443.61,-150.41 441.11,-141.4"/>
<polygon fill="midnightblue" stroke="midnightblue" points="444.48,-140.45 438.43,-131.75 437.74,-142.32 444.48,-140.45"/>
</g>
<!-- Node13 -->
<g id="node13" class="node">
<title>Node13</title>
<g id="a_node13"><a xlink:href="https://www.itk.org/Doxygen/html/itkMetaDataObjectBase_8h.html" xlink:title=" ">
<polygon fill="white" stroke="black" points="281,-224.5 281,-243.5 423,-243.5 423,-224.5 281,-224.5"/>
<text text-anchor="middle" x="352" y="-231.5" font-family="Helvetica,sans-Serif" font-size="10.00">itkMetaDataObjectBase.h</text>
</a>
</g>
</g>
<!-- Node12&#45;&gt;Node13 -->
<g id="edge17" class="edge">
<title>Node12&#45;&gt;Node13</title>
<path fill="none" stroke="midnightblue" d="M351.17,-280.08C351.3,-273.01 351.48,-262.86 351.65,-253.99"/>
<polygon fill="midnightblue" stroke="midnightblue" points="355.15,-253.81 351.84,-243.75 348.15,-253.68 355.15,-253.81"/>
</g>
<!-- Node13&#45;&gt;Node4 -->
<g id="edge18" class="edge">
<title>Node13&#45;&gt;Node4</title>
<path fill="none" stroke="midnightblue" d="M345.89,-224.08C340.72,-216.53 333.15,-205.49 326.81,-196.23"/>
<polygon fill="midnightblue" stroke="midnightblue" points="329.54,-194.02 321,-187.75 323.76,-197.98 329.54,-194.02"/>
</g>
<!-- Node15 -->
<g id="node15" class="node">
<title>Node15</title>
<g id="a_node15"><a xlink:href="https://www.itk.org/Doxygen/html/itkObjectFactoryBase_8h.html" xlink:title=" ">
<polygon fill="white" stroke="black" points="162.5,-448.5 162.5,-467.5 291.5,-467.5 291.5,-448.5 162.5,-448.5"/>
<text text-anchor="middle" x="227" y="-455.5" font-family="Helvetica,sans-Serif" font-size="10.00">itkObjectFactoryBase.h</text>
</a>
</g>
</g>
<!-- Node14&#45;&gt;Node15 -->
<g id="edge21" class="edge">
<title>Node14&#45;&gt;Node15</title>
<path fill="none" stroke="midnightblue" d="M256.22,-504.08C251.33,-496.53 244.17,-485.49 238.17,-476.23"/>
<polygon fill="midnightblue" stroke="midnightblue" points="241.05,-474.24 232.67,-467.75 235.17,-478.05 241.05,-474.24"/>
</g>
<!-- Node15&#45;&gt;Node9 -->
<g id="edge24" class="edge">
<title>Node15&#45;&gt;Node9</title>
<path fill="none" stroke="midnightblue" d="M219.68,-448.22C212.74,-439.51 202.44,-425.54 196,-412 183.08,-384.82 177,-377.1 177,-347 177,-347 177,-347 177,-177 177,-144.06 187.4,-106.82 194.51,-85.21"/>
<polygon fill="midnightblue" stroke="midnightblue" points="197.84,-86.29 197.76,-75.7 191.22,-84.03 197.84,-86.29"/>
</g>
<!-- Node16 -->
<g id="node16" class="node">
<title>Node16</title>
<g id="a_node16"><a xlink:href="https://www.itk.org/Doxygen/html/itkCreateObjectFunction_8h.html" xlink:title=" ">
<polygon fill="white" stroke="black" points="205.5,-392.5 205.5,-411.5 348.5,-411.5 348.5,-392.5 205.5,-392.5"/>
<text text-anchor="middle" x="277" y="-399.5" font-family="Helvetica,sans-Serif" font-size="10.00">itkCreateObjectFunction.h</text>
</a>
</g>
</g>
<!-- Node15&#45;&gt;Node16 -->
<g id="edge22" class="edge">
<title>Node15&#45;&gt;Node16</title>
<path fill="none" stroke="midnightblue" d="M235.26,-448.08C242.46,-440.3 253.11,-428.8 261.85,-419.37"/>
<polygon fill="midnightblue" stroke="midnightblue" points="264.67,-421.47 268.9,-411.75 259.53,-416.71 264.67,-421.47"/>
</g>
<!-- Node17 -->
<g id="node17" class="node">
<title>Node17</title>
<g id="a_node17"><a xlink:href="https://www.itk.org/Doxygen/html/itkCommonEnums_8h.html" xlink:title=" ">
<polygon fill="white" stroke="black" points="0,-336.5 0,-355.5 116,-355.5 116,-336.5 0,-336.5"/>
<text text-anchor="middle" x="58" y="-343.5" font-family="Helvetica,sans-Serif" font-size="10.00">itkCommonEnums.h</text>
</a>
</g>
</g>
<!-- Node15&#45;&gt;Node17 -->
<g id="edge25" class="edge">
<title>Node15&#45;&gt;Node17</title>
<path fill="none" stroke="midnightblue" d="M213.74,-448.37C184.74,-429.49 115.44,-384.38 79.87,-361.24"/>
<polygon fill="midnightblue" stroke="midnightblue" points="81.49,-358.11 71.2,-355.59 77.67,-363.98 81.49,-358.11"/>
</g>
<!-- Node16&#45;&gt;Node3 -->
<g id="edge23" class="edge">
<title>Node16&#45;&gt;Node3</title>
<path fill="none" stroke="midnightblue" d="M283.11,-392.08C288.28,-384.53 295.85,-373.49 302.19,-364.23"/>
<polygon fill="midnightblue" stroke="midnightblue" points="305.24,-365.98 308,-355.75 299.46,-362.02 305.24,-365.98"/>
</g>
<!-- Node17&#45;&gt;Node8 -->
<g id="edge26" class="edge">
<title>Node17&#45;&gt;Node8</title>
<path fill="none" stroke="midnightblue" d="M53.55,-336.42C44.54,-318.24 25,-274.28 25,-235 25,-235 25,-235 25,-177 25,-144.12 34.97,-106.86 41.78,-85.24"/>
<polygon fill="midnightblue" stroke="midnightblue" points="45.11,-86.3 44.9,-75.71 38.46,-84.12 45.11,-86.3"/>
</g>
</g>
</svg>
