<?xml version="1.0" encoding="UTF-8" standalone="no"?>
<!DOCTYPE svg PUBLIC "-//W3C//DTD SVG 1.1//EN"
 "http://www.w3.org/Graphics/SVG/1.1/DTD/svg11.dtd">
<!-- Generated by graphviz version 2.43.0 (0)
 -->
<!-- Title: itkHashImageFilter.h Pages: 1 -->
<svg width="756pt" height="93pt"
 viewBox="0.00 0.00 756.00 93.00" xmlns="http://www.w3.org/2000/svg" xmlns:xlink="http://www.w3.org/1999/xlink">
<g id="graph0" class="graph" transform="scale(1 1) rotate(0) translate(4 89)">
<title>itkHashImageFilter.h</title>
<!-- Node1 -->
<g id="Node000001" class="node">
<title>Node1</title>
<g id="a_Node000001"><a xlink:title=" ">
<polygon fill="#999999" stroke="#666666" points="481,-85 363,-85 363,-66 481,-66 481,-85"/>
<text text-anchor="middle" x="422" y="-73" font-family="Helvetica,sans-Serif" font-size="10.00">itkHashImageFilter.h</text>
</a>
</g>
</g>
<!-- Node2 -->
<g id="Node000002" class="node">
<title>Node2</title>
<g id="a_Node000002"><a target="_parent" xlink:href="https://www.itk.org/Doxygen/html/itkSimpleDataObjectDecorator_8h.html" xlink:title=" ">
<polygon fill="white" stroke="#666666" points="174,-24.5 0,-24.5 0,-5.5 174,-5.5 174,-24.5"/>
<text text-anchor="middle" x="87" y="-12.5" font-family="Helvetica,sans-Serif" font-size="10.00">itkSimpleDataObjectDecorator.h</text>
</a>
</g>
</g>
<!-- Node1&#45;&gt;Node2 -->
<g id="edge1_Node000001_Node000002" class="edge">
<title>Node1&#45;&gt;Node2</title>
<g id="a_edge1_Node000001_Node000002"><a xlink:title=" ">
<path fill="none" stroke="#63b8ff" d="M373.29,-65.99C313,-55.47 210.41,-37.55 145.8,-26.27"/>
<polygon fill="#63b8ff" stroke="#63b8ff" points="146.22,-22.79 135.77,-24.52 145.02,-29.68 146.22,-22.79"/>
</a>
</g>
</g>
<!-- Node3 -->
<g id="Node000003" class="node">
<title>Node3</title>
<g id="a_Node000003"><a target="_parent" xlink:href="https://www.itk.org/Doxygen/html/itkImageLinearConstIteratorWithIndex_8h.html" xlink:title=" ">
<polygon fill="white" stroke="#666666" points="346,-30 192,-30 192,0 346,0 346,-30"/>
<text text-anchor="start" x="200" y="-18" font-family="Helvetica,sans-Serif" font-size="10.00">itkImageLinearConstIterator</text>
<text text-anchor="middle" x="269" y="-7" font-family="Helvetica,sans-Serif" font-size="10.00">WithIndex.h</text>
</a>
</g>
</g>
<!-- Node1&#45;&gt;Node3 -->
<g id="edge2_Node000001_Node000003" class="edge">
<title>Node1&#45;&gt;Node3</title>
<g id="a_edge2_Node000001_Node000003"><a xlink:title=" ">
<path fill="none" stroke="#63b8ff" d="M399.75,-65.99C377.73,-57.57 343.36,-44.43 315.38,-33.73"/>
<polygon fill="#63b8ff" stroke="#63b8ff" points="316.37,-30.37 305.78,-30.06 313.87,-36.9 316.37,-30.37"/>
</a>
</g>
</g>
<!-- Node4 -->
<g id="Node000004" class="node">
<title>Node4</title>
<g id="a_Node000004"><a target="_parent" xlink:href="https://www.itk.org/Doxygen/html/itkCastImageFilter_8h.html" xlink:title=" ">
<polygon fill="white" stroke="#666666" points="479.5,-24.5 364.5,-24.5 364.5,-5.5 479.5,-5.5 479.5,-24.5"/>
<text text-anchor="middle" x="422" y="-12.5" font-family="Helvetica,sans-Serif" font-size="10.00">itkCastImageFilter.h</text>
</a>
</g>
</g>
<!-- Node1&#45;&gt;Node4 -->
<g id="edge3_Node000001_Node000004" class="edge">
<title>Node1&#45;&gt;Node4</title>
<g id="a_edge3_Node000001_Node000004"><a xlink:title=" ">
<path fill="none" stroke="#63b8ff" d="M422,-65.87C422,-57.75 422,-45.31 422,-34.89"/>
<polygon fill="#63b8ff" stroke="#63b8ff" points="425.5,-34.67 422,-24.67 418.5,-34.67 425.5,-34.67"/>
</a>
</g>
</g>
<!-- Node5 -->
<g id="Node000005" class="node">
<title>Node5</title>
<g id="a_Node000005"><a target="_parent" xlink:href="https://www.itk.org/Doxygen/html/itkByteSwapper_8h.html" xlink:title=" ">
<polygon fill="white" stroke="#666666" points="600,-24.5 498,-24.5 498,-5.5 600,-5.5 600,-24.5"/>
<text text-anchor="middle" x="549" y="-12.5" font-family="Helvetica,sans-Serif" font-size="10.00">itkByteSwapper.h</text>
</a>
</g>
</g>
<!-- Node1&#45;&gt;Node5 -->
<g id="edge4_Node000001_Node000005" class="edge">
<title>Node1&#45;&gt;Node5</title>
<g id="a_edge4_Node000001_Node000005"><a xlink:title=" ">
<path fill="none" stroke="#63b8ff" d="M440.47,-65.99C461.72,-56.2 496.85,-40.02 521.37,-28.73"/>
<polygon fill="#63b8ff" stroke="#63b8ff" points="522.89,-31.88 530.51,-24.52 519.96,-25.52 522.89,-31.88"/>
</a>
</g>
</g>
<!-- Node6 -->
<g id="Node000006" class="node">
<title>Node6</title>
<g id="a_Node000006"><a xlink:title=" ">
<polygon fill="#e0e0e0" stroke="#999999" points="748,-24.5 618,-24.5 618,-5.5 748,-5.5 748,-24.5"/>
<text text-anchor="middle" x="683" y="-12.5" font-family="Helvetica,sans-Serif" font-size="10.00">itkHashImageFilter.hxx</text>
</a>
</g>
</g>
<!-- Node1&#45;&gt;Node6 -->
<g id="edge5_Node000001_Node000006" class="edge">
<title>Node1&#45;&gt;Node6</title>
<g id="a_edge5_Node000001_Node000006"><a xlink:title=" ">
<path fill="none" stroke="#63b8ff" d="M459.95,-65.99C506.25,-55.62 584.55,-38.07 634.99,-26.76"/>
<polygon fill="#63b8ff" stroke="#63b8ff" points="636.01,-30.12 645,-24.52 634.48,-23.29 636.01,-30.12"/>
</a>
</g>
</g>
</g>
</svg>
