<?xml version="1.0" encoding="UTF-8" standalone="no"?>
<!DOCTYPE svg PUBLIC "-//W3C//DTD SVG 1.1//EN"
 "http://www.w3.org/Graphics/SVG/1.1/DTD/svg11.dtd">
<!-- Generated by graphviz version 2.43.0 (0)
 -->
<!-- Title: sitkPimpleImageBase.h Pages: 1 -->
<svg width="934pt" height="308pt"
 viewBox="0.00 0.00 934.24 308.00" xmlns="http://www.w3.org/2000/svg" xmlns:xlink="http://www.w3.org/1999/xlink">
<g id="graph0" class="graph" transform="scale(1 1) rotate(0) translate(4 304)">
<title>sitkPimpleImageBase.h</title>
<polygon fill="white" stroke="transparent" points="-4,4 -4,-304 930.24,-304 930.24,4 -4,4"/>
<!-- Node1 -->
<g id="node1" class="node">
<title>Node1</title>
<g id="a_node1"><a xlink:title=" ">
<polygon fill="#bfbfbf" stroke="black" points="523.5,-280.5 523.5,-299.5 655.5,-299.5 655.5,-280.5 523.5,-280.5"/>
<text text-anchor="middle" x="589.5" y="-287.5" font-family="Helvetica,sans-Serif" font-size="10.00">sitkPimpleImageBase.h</text>
</a>
</g>
</g>
<!-- Node2 -->
<g id="node2" class="node">
<title>Node2</title>
<g id="a_node2"><a xlink:title=" ">
<polygon fill="white" stroke="#bfbfbf" points="569,-168.5 569,-187.5 616,-187.5 616,-168.5 569,-168.5"/>
<text text-anchor="middle" x="592.5" y="-175.5" font-family="Helvetica,sans-Serif" font-size="10.00">vector</text>
</a>
</g>
</g>
<!-- Node1&#45;&gt;Node2 -->
<g id="edge1" class="edge">
<title>Node1&#45;&gt;Node2</title>
<path fill="none" stroke="midnightblue" d="M589.74,-280.37C590.22,-262.62 591.34,-221.67 591.99,-197.6"/>
<polygon fill="midnightblue" stroke="midnightblue" points="595.49,-197.68 592.27,-187.59 588.49,-197.49 595.49,-197.68"/>
</g>
<!-- Node3 -->
<g id="node3" class="node">
<title>Node3</title>
<g id="a_node3"><a xlink:href="sitkPixelIDTokens_8h.html" target="_top" xlink:title=" ">
<polygon fill="white" stroke="black" points="386.5,-224.5 386.5,-243.5 496.5,-243.5 496.5,-224.5 386.5,-224.5"/>
<text text-anchor="middle" x="441.5" y="-231.5" font-family="Helvetica,sans-Serif" font-size="10.00">sitkPixelIDTokens.h</text>
</a>
</g>
</g>
<!-- Node1&#45;&gt;Node3 -->
<g id="edge2" class="edge">
<title>Node1&#45;&gt;Node3</title>
<path fill="none" stroke="midnightblue" d="M566.05,-280.44C541.37,-271.44 502.31,-257.19 474.52,-247.05"/>
<polygon fill="midnightblue" stroke="midnightblue" points="475.44,-243.66 464.84,-243.52 473.04,-250.23 475.44,-243.66"/>
</g>
<!-- Node20 -->
<g id="node20" class="node">
<title>Node20</title>
<g id="a_node20"><a xlink:href="sitkTemplateFunctions_8h.html" target="_top" xlink:title=" ">
<polygon fill="white" stroke="black" points="618,-224.5 618,-243.5 753,-243.5 753,-224.5 618,-224.5"/>
<text text-anchor="middle" x="685.5" y="-231.5" font-family="Helvetica,sans-Serif" font-size="10.00">sitkTemplateFunctions.h</text>
</a>
</g>
</g>
<!-- Node1&#45;&gt;Node20 -->
<g id="edge22" class="edge">
<title>Node1&#45;&gt;Node20</title>
<path fill="none" stroke="midnightblue" d="M604.92,-280.32C620.04,-271.82 643.32,-258.73 660.97,-248.8"/>
<polygon fill="midnightblue" stroke="midnightblue" points="663.11,-251.61 670.11,-243.65 659.68,-245.51 663.11,-251.61"/>
</g>
<!-- Node4 -->
<g id="node4" class="node">
<title>Node4</title>
<g id="a_node4"><a xlink:href="sitkConfigure_8h.html" target="_top" xlink:title=" ">
<polygon fill="white" stroke="black" points="337.5,-0.5 337.5,-19.5 427.5,-19.5 427.5,-0.5 337.5,-0.5"/>
<text text-anchor="middle" x="382.5" y="-7.5" font-family="Helvetica,sans-Serif" font-size="10.00">sitkConfigure.h</text>
</a>
</g>
</g>
<!-- Node3&#45;&gt;Node4 -->
<g id="edge3" class="edge">
<title>Node3&#45;&gt;Node4</title>
<path fill="none" stroke="midnightblue" d="M398.43,-224.49C378.1,-218.07 355.68,-206.99 343.5,-188 310.57,-136.65 349.88,-61.57 370.9,-28.15"/>
<polygon fill="midnightblue" stroke="midnightblue" points="373.99,-29.82 376.51,-19.53 368.12,-26 373.99,-29.82"/>
</g>
<!-- Node5 -->
<g id="node5" class="node">
<title>Node5</title>
<g id="a_node5"><a xlink:href="sitkPixelIDValues_8h.html" target="_top" xlink:title=" ">
<polygon fill="white" stroke="black" points="440.5,-168.5 440.5,-187.5 550.5,-187.5 550.5,-168.5 440.5,-168.5"/>
<text text-anchor="middle" x="495.5" y="-175.5" font-family="Helvetica,sans-Serif" font-size="10.00">sitkPixelIDValues.h</text>
</a>
</g>
</g>
<!-- Node3&#45;&gt;Node5 -->
<g id="edge4" class="edge">
<title>Node3&#45;&gt;Node5</title>
<path fill="none" stroke="midnightblue" d="M450.42,-224.08C458.28,-216.22 469.93,-204.57 479.42,-195.08"/>
<polygon fill="midnightblue" stroke="midnightblue" points="482.15,-197.3 486.75,-187.75 477.2,-192.35 482.15,-197.3"/>
</g>
<!-- Node19 -->
<g id="node19" class="node">
<title>Node19</title>
<g id="a_node19"><a xlink:title=" ">
<polygon fill="white" stroke="#bfbfbf" points="353,-168.5 353,-187.5 422,-187.5 422,-168.5 353,-168.5"/>
<text text-anchor="middle" x="387.5" y="-175.5" font-family="Helvetica,sans-Serif" font-size="10.00">type_traits</text>
</a>
</g>
</g>
<!-- Node3&#45;&gt;Node19 -->
<g id="edge21" class="edge">
<title>Node3&#45;&gt;Node19</title>
<path fill="none" stroke="midnightblue" d="M432.58,-224.08C424.72,-216.22 413.07,-204.57 403.58,-195.08"/>
<polygon fill="midnightblue" stroke="midnightblue" points="405.8,-192.35 396.25,-187.75 400.85,-197.3 405.8,-192.35"/>
</g>
<!-- Node6 -->
<g id="node6" class="node">
<title>Node6</title>
<g id="a_node6"><a xlink:href="sitkCommon_8h.html" target="_top" xlink:title=" ">
<polygon fill="white" stroke="black" points="638.5,-112.5 638.5,-131.5 726.5,-131.5 726.5,-112.5 638.5,-112.5"/>
<text text-anchor="middle" x="682.5" y="-119.5" font-family="Helvetica,sans-Serif" font-size="10.00">sitkCommon.h</text>
</a>
</g>
</g>
<!-- Node5&#45;&gt;Node6 -->
<g id="edge5" class="edge">
<title>Node5&#45;&gt;Node6</title>
<path fill="none" stroke="midnightblue" d="M525.13,-168.44C557,-159.24 607.83,-144.56 643.06,-134.39"/>
<polygon fill="midnightblue" stroke="midnightblue" points="644.37,-137.65 653.01,-131.52 642.43,-130.93 644.37,-137.65"/>
</g>
<!-- Node13 -->
<g id="node13" class="node">
<title>Node13</title>
<g id="a_node13"><a xlink:href="sitkPixelIDTypeLists_8h.html" target="_top" xlink:title=" ">
<polygon fill="white" stroke="black" points="174.5,-56.5 174.5,-75.5 296.5,-75.5 296.5,-56.5 174.5,-56.5"/>
<text text-anchor="middle" x="235.5" y="-63.5" font-family="Helvetica,sans-Serif" font-size="10.00">sitkPixelIDTypeLists.h</text>
</a>
</g>
</g>
<!-- Node5&#45;&gt;Node13 -->
<g id="edge13" class="edge">
<title>Node5&#45;&gt;Node13</title>
<path fill="none" stroke="midnightblue" d="M475.1,-168.37C429.34,-149.01 318.38,-102.06 265.06,-79.51"/>
<polygon fill="midnightblue" stroke="midnightblue" points="266.38,-76.26 255.81,-75.59 263.65,-82.71 266.38,-76.26"/>
</g>
<!-- Node17 -->
<g id="node17" class="node">
<title>Node17</title>
<g id="a_node17"><a xlink:title=" ">
<polygon fill="white" stroke="#bfbfbf" points="473.5,-112.5 473.5,-131.5 517.5,-131.5 517.5,-112.5 473.5,-112.5"/>
<text text-anchor="middle" x="495.5" y="-119.5" font-family="Helvetica,sans-Serif" font-size="10.00">string</text>
</a>
</g>
</g>
<!-- Node5&#45;&gt;Node17 -->
<g id="edge19" class="edge">
<title>Node5&#45;&gt;Node17</title>
<path fill="none" stroke="midnightblue" d="M495.5,-168.08C495.5,-161.01 495.5,-150.86 495.5,-141.99"/>
<polygon fill="midnightblue" stroke="midnightblue" points="499,-141.75 495.5,-131.75 492,-141.75 499,-141.75"/>
</g>
<!-- Node18 -->
<g id="node18" class="node">
<title>Node18</title>
<g id="a_node18"><a xlink:title=" ">
<polygon fill="white" stroke="#bfbfbf" points="550,-112.5 550,-131.5 607,-131.5 607,-112.5 550,-112.5"/>
<text text-anchor="middle" x="578.5" y="-119.5" font-family="Helvetica,sans-Serif" font-size="10.00">ostream</text>
</a>
</g>
</g>
<!-- Node5&#45;&gt;Node18 -->
<g id="edge20" class="edge">
<title>Node5&#45;&gt;Node18</title>
<path fill="none" stroke="midnightblue" d="M508.84,-168.32C521.66,-159.98 541.28,-147.21 556.44,-137.35"/>
<polygon fill="midnightblue" stroke="midnightblue" points="558.72,-140.04 565.2,-131.65 554.91,-134.17 558.72,-140.04"/>
</g>
<!-- Node7 -->
<g id="node7" class="node">
<title>Node7</title>
<g id="a_node7"><a xlink:href="sitkMacro_8h.html" target="_top" xlink:title=" ">
<polygon fill="white" stroke="black" points="645.5,-56.5 645.5,-75.5 719.5,-75.5 719.5,-56.5 645.5,-56.5"/>
<text text-anchor="middle" x="682.5" y="-63.5" font-family="Helvetica,sans-Serif" font-size="10.00">sitkMacro.h</text>
</a>
</g>
</g>
<!-- Node6&#45;&gt;Node7 -->
<g id="edge6" class="edge">
<title>Node6&#45;&gt;Node7</title>
<path fill="none" stroke="midnightblue" d="M682.5,-112.08C682.5,-105.01 682.5,-94.86 682.5,-85.99"/>
<polygon fill="midnightblue" stroke="midnightblue" points="686,-85.75 682.5,-75.75 679,-85.75 686,-85.75"/>
</g>
<!-- Node7&#45;&gt;Node4 -->
<g id="edge12" class="edge">
<title>Node7&#45;&gt;Node4</title>
<path fill="none" stroke="midnightblue" d="M645.41,-58.32C593.32,-48.95 498.11,-31.81 437.69,-20.93"/>
<polygon fill="midnightblue" stroke="midnightblue" points="438.03,-17.44 427.56,-19.11 436.79,-24.33 438.03,-17.44"/>
</g>
<!-- Node8 -->
<g id="node8" class="node">
<title>Node8</title>
<g id="a_node8"><a xlink:title=" ">
<polygon fill="white" stroke="#bfbfbf" points="478,-0.5 478,-19.5 531,-19.5 531,-0.5 478,-0.5"/>
<text text-anchor="middle" x="504.5" y="-7.5" font-family="Helvetica,sans-Serif" font-size="10.00">stdint.h</text>
</a>
</g>
</g>
<!-- Node7&#45;&gt;Node8 -->
<g id="edge7" class="edge">
<title>Node7&#45;&gt;Node8</title>
<path fill="none" stroke="midnightblue" d="M654.3,-56.44C623.65,-47.15 574.57,-32.26 541,-22.07"/>
<polygon fill="midnightblue" stroke="midnightblue" points="541.7,-18.63 531.12,-19.08 539.67,-25.33 541.7,-18.63"/>
</g>
<!-- Node9 -->
<g id="node9" class="node">
<title>Node9</title>
<g id="a_node9"><a xlink:title=" ">
<polygon fill="white" stroke="#bfbfbf" points="622.5,-0.5 622.5,-19.5 678.5,-19.5 678.5,-0.5 622.5,-0.5"/>
<text text-anchor="middle" x="650.5" y="-7.5" font-family="Helvetica,sans-Serif" font-size="10.00">stddef.h</text>
</a>
</g>
</g>
<!-- Node7&#45;&gt;Node9 -->
<g id="edge8" class="edge">
<title>Node7&#45;&gt;Node9</title>
<path fill="none" stroke="midnightblue" d="M677.22,-56.08C672.79,-48.61 666.34,-37.72 660.88,-28.52"/>
<polygon fill="midnightblue" stroke="midnightblue" points="663.79,-26.57 655.69,-19.75 657.77,-30.14 663.79,-26.57"/>
</g>
<!-- Node10 -->
<g id="node10" class="node">
<title>Node10</title>
<g id="a_node10"><a xlink:title=" ">
<polygon fill="white" stroke="#bfbfbf" points="696.5,-0.5 696.5,-19.5 748.5,-19.5 748.5,-0.5 696.5,-0.5"/>
<text text-anchor="middle" x="722.5" y="-7.5" font-family="Helvetica,sans-Serif" font-size="10.00">cassert</text>
</a>
</g>
</g>
<!-- Node7&#45;&gt;Node10 -->
<g id="edge9" class="edge">
<title>Node7&#45;&gt;Node10</title>
<path fill="none" stroke="midnightblue" d="M689.11,-56.08C694.76,-48.46 703.04,-37.26 709.95,-27.94"/>
<polygon fill="midnightblue" stroke="midnightblue" points="712.88,-29.87 716.02,-19.75 707.25,-25.7 712.88,-29.87"/>
</g>
<!-- Node11 -->
<g id="node11" class="node">
<title>Node11</title>
<g id="a_node11"><a xlink:title=" ">
<polygon fill="white" stroke="#bfbfbf" points="766.5,-0.5 766.5,-19.5 822.5,-19.5 822.5,-0.5 766.5,-0.5"/>
<text text-anchor="middle" x="794.5" y="-7.5" font-family="Helvetica,sans-Serif" font-size="10.00">sstream</text>
</a>
</g>
</g>
<!-- Node7&#45;&gt;Node11 -->
<g id="edge10" class="edge">
<title>Node7&#45;&gt;Node11</title>
<path fill="none" stroke="midnightblue" d="M700.49,-56.32C718.54,-47.62 746.55,-34.12 767.3,-24.11"/>
<polygon fill="midnightblue" stroke="midnightblue" points="769.06,-27.15 776.55,-19.65 766.02,-20.84 769.06,-27.15"/>
</g>
<!-- Node12 -->
<g id="node12" class="node">
<title>Node12</title>
<g id="a_node12"><a xlink:title=" ">
<polygon fill="white" stroke="#bfbfbf" points="560.5,-0.5 560.5,-19.5 604.5,-19.5 604.5,-0.5 560.5,-0.5"/>
<text text-anchor="middle" x="582.5" y="-7.5" font-family="Helvetica,sans-Serif" font-size="10.00">limits</text>
</a>
</g>
</g>
<!-- Node7&#45;&gt;Node12 -->
<g id="edge11" class="edge">
<title>Node7&#45;&gt;Node12</title>
<path fill="none" stroke="midnightblue" d="M666.43,-56.32C650.54,-47.74 625.99,-34.49 607.54,-24.52"/>
<polygon fill="midnightblue" stroke="midnightblue" points="608.99,-21.33 598.53,-19.65 605.66,-27.49 608.99,-21.33"/>
</g>
<!-- Node13&#45;&gt;Node4 -->
<g id="edge15" class="edge">
<title>Node13&#45;&gt;Node4</title>
<path fill="none" stroke="midnightblue" d="M258.79,-56.44C283.31,-47.44 322.1,-33.19 349.7,-23.05"/>
<polygon fill="midnightblue" stroke="midnightblue" points="351.14,-26.25 359.32,-19.52 348.72,-19.68 351.14,-26.25"/>
</g>
<!-- Node13&#45;&gt;Node8 -->
<g id="edge14" class="edge">
<title>Node13&#45;&gt;Node8</title>
<path fill="none" stroke="midnightblue" d="M278.12,-56.44C330.54,-45.92 418.63,-28.24 468.04,-18.32"/>
<polygon fill="midnightblue" stroke="midnightblue" points="468.86,-21.72 477.98,-16.32 467.48,-14.86 468.86,-21.72"/>
</g>
<!-- Node14 -->
<g id="node14" class="node">
<title>Node14</title>
<g id="a_node14"><a xlink:href="sitkPixelIDTypes_8h.html" target="_top" xlink:title=" ">
<polygon fill="white" stroke="black" points="0,-0.5 0,-19.5 105,-19.5 105,-0.5 0,-0.5"/>
<text text-anchor="middle" x="52.5" y="-7.5" font-family="Helvetica,sans-Serif" font-size="10.00">sitkPixelIDTypes.h</text>
</a>
</g>
</g>
<!-- Node13&#45;&gt;Node14 -->
<g id="edge16" class="edge">
<title>Node13&#45;&gt;Node14</title>
<path fill="none" stroke="midnightblue" d="M206.5,-56.44C175.32,-47.24 125.57,-32.56 91.09,-22.39"/>
<polygon fill="midnightblue" stroke="midnightblue" points="91.94,-18.99 81.36,-19.52 89.96,-25.7 91.94,-18.99"/>
</g>
<!-- Node15 -->
<g id="node15" class="node">
<title>Node15</title>
<g id="a_node15"><a xlink:title=" ">
<polygon fill="white" stroke="#bfbfbf" points="123,-0.5 123,-19.5 242,-19.5 242,-0.5 123,-0.5"/>
<text text-anchor="middle" x="182.5" y="-7.5" font-family="Helvetica,sans-Serif" font-size="10.00">Ancillary/type_list2.h</text>
</a>
</g>
</g>
<!-- Node13&#45;&gt;Node15 -->
<g id="edge17" class="edge">
<title>Node13&#45;&gt;Node15</title>
<path fill="none" stroke="midnightblue" d="M226.75,-56.08C219.03,-48.22 207.6,-36.57 198.28,-27.08"/>
<polygon fill="midnightblue" stroke="midnightblue" points="200.59,-24.44 191.09,-19.75 195.6,-29.34 200.59,-24.44"/>
</g>
<!-- Node16 -->
<g id="node16" class="node">
<title>Node16</title>
<g id="a_node16"><a xlink:title=" ">
<polygon fill="white" stroke="#bfbfbf" points="260,-0.5 260,-19.5 319,-19.5 319,-0.5 260,-0.5"/>
<text text-anchor="middle" x="289.5" y="-7.5" font-family="Helvetica,sans-Serif" font-size="10.00">complex</text>
</a>
</g>
</g>
<!-- Node13&#45;&gt;Node16 -->
<g id="edge18" class="edge">
<title>Node13&#45;&gt;Node16</title>
<path fill="none" stroke="midnightblue" d="M244.42,-56.08C252.28,-48.22 263.93,-36.57 273.42,-27.08"/>
<polygon fill="midnightblue" stroke="midnightblue" points="276.15,-29.3 280.75,-19.75 271.2,-24.35 276.15,-29.3"/>
</g>
<!-- Node20&#45;&gt;Node2 -->
<g id="edge28" class="edge">
<title>Node20&#45;&gt;Node2</title>
<path fill="none" stroke="midnightblue" d="M670.56,-224.32C655.91,-215.82 633.37,-202.73 616.26,-192.8"/>
<polygon fill="midnightblue" stroke="midnightblue" points="617.81,-189.65 607.4,-187.65 614.3,-195.7 617.81,-189.65"/>
</g>
<!-- Node20&#45;&gt;Node6 -->
<g id="edge24" class="edge">
<title>Node20&#45;&gt;Node6</title>
<path fill="none" stroke="midnightblue" d="M685.26,-224.37C684.78,-206.62 683.66,-165.67 683.01,-141.6"/>
<polygon fill="midnightblue" stroke="midnightblue" points="686.51,-141.49 682.73,-131.59 679.51,-141.68 686.51,-141.49"/>
</g>
<!-- Node20&#45;&gt;Node7 -->
<g id="edge23" class="edge">
<title>Node20&#45;&gt;Node7</title>
<path fill="none" stroke="midnightblue" d="M753.26,-228.99C813.26,-223.85 894.36,-212.48 914.5,-188 969.84,-120.73 812.11,-86.35 729.46,-73.33"/>
<polygon fill="midnightblue" stroke="midnightblue" points="729.94,-69.86 719.53,-71.81 728.89,-76.78 729.94,-69.86"/>
</g>
<!-- Node20&#45;&gt;Node18 -->
<g id="edge29" class="edge">
<title>Node20&#45;&gt;Node18</title>
<path fill="none" stroke="midnightblue" d="M677.72,-224.48C666.23,-211.95 643.99,-187.9 624.5,-168 614.8,-158.1 603.71,-147.23 594.84,-138.65"/>
<polygon fill="midnightblue" stroke="midnightblue" points="597.06,-135.93 587.43,-131.52 592.2,-140.97 597.06,-135.93"/>
</g>
<!-- Node21 -->
<g id="node21" class="node">
<title>Node21</title>
<g id="a_node21"><a xlink:href="sitkExceptionObject_8h.html" target="_top" xlink:title=" ">
<polygon fill="white" stroke="black" points="782,-168.5 782,-187.5 905,-187.5 905,-168.5 782,-168.5"/>
<text text-anchor="middle" x="843.5" y="-175.5" font-family="Helvetica,sans-Serif" font-size="10.00">sitkExceptionObject.h</text>
</a>
</g>
</g>
<!-- Node20&#45;&gt;Node21 -->
<g id="edge25" class="edge">
<title>Node20&#45;&gt;Node21</title>
<path fill="none" stroke="midnightblue" d="M710.54,-224.44C737.12,-215.36 779.31,-200.94 809.02,-190.78"/>
<polygon fill="midnightblue" stroke="midnightblue" points="810.25,-194.06 818.58,-187.52 807.99,-187.44 810.25,-194.06"/>
</g>
<!-- Node22 -->
<g id="node22" class="node">
<title>Node22</title>
<g id="a_node22"><a xlink:title=" ">
<polygon fill="white" stroke="#bfbfbf" points="711,-168.5 711,-187.5 764,-187.5 764,-168.5 711,-168.5"/>
<text text-anchor="middle" x="737.5" y="-175.5" font-family="Helvetica,sans-Serif" font-size="10.00">iterator</text>
</a>
</g>
</g>
<!-- Node20&#45;&gt;Node22 -->
<g id="edge30" class="edge">
<title>Node20&#45;&gt;Node22</title>
<path fill="none" stroke="midnightblue" d="M694.09,-224.08C701.66,-216.22 712.88,-204.57 722.01,-195.08"/>
<polygon fill="midnightblue" stroke="midnightblue" points="724.66,-197.38 729.07,-187.75 719.62,-192.53 724.66,-197.38"/>
</g>
<!-- Node21&#45;&gt;Node6 -->
<g id="edge27" class="edge">
<title>Node21&#45;&gt;Node6</title>
<path fill="none" stroke="midnightblue" d="M817.99,-168.44C790.9,-159.36 747.91,-144.94 717.63,-134.78"/>
<polygon fill="midnightblue" stroke="midnightblue" points="718.49,-131.38 707.89,-131.52 716.26,-138.01 718.49,-131.38"/>
</g>
<!-- Node21&#45;&gt;Node7 -->
<g id="edge26" class="edge">
<title>Node21&#45;&gt;Node7</title>
<path fill="none" stroke="midnightblue" d="M830.87,-168.37C803.24,-149.49 737.22,-104.38 703.34,-81.24"/>
<polygon fill="midnightblue" stroke="midnightblue" points="705.31,-78.34 695.07,-75.59 701.36,-84.12 705.31,-78.34"/>
</g>
</g>
</svg>
