<?xml version="1.0" encoding="UTF-8" standalone="no"?>
<!DOCTYPE svg PUBLIC "-//W3C//DTD SVG 1.1//EN"
 "http://www.w3.org/Graphics/SVG/1.1/DTD/svg11.dtd">
<!-- Generated by graphviz version 2.43.0 (0)
 -->
<!-- Title: sitkKernel.h Pages: 1 -->
<svg width="8004pt" height="148pt"
 viewBox="0.00 0.00 8004.00 148.00" xmlns="http://www.w3.org/2000/svg" xmlns:xlink="http://www.w3.org/1999/xlink">
<g id="graph0" class="graph" transform="scale(1 1) rotate(0) translate(4 144)">
<title>sitkKernel.h</title>
<!-- Node1 -->
<g id="Node000001" class="node">
<title>Node1</title>
<g id="a_Node000001"><a xlink:title=" ">
<polygon fill="#999999" stroke="#666666" points="3980,-140 3906,-140 3906,-121 3980,-121 3980,-140"/>
<text text-anchor="middle" x="3943" y="-128" font-family="Helvetica,sans-Serif" font-size="10.00">sitkKernel.h</text>
</a>
</g>
</g>
<!-- Node2 -->
<g id="Node000002" class="node">
<title>Node2</title>
<g id="a_Node000002"><a xlink:href="sitkBasicFilters_8h.html" target="_top" xlink:title=" ">
<polygon fill="#fff0f0" stroke="red" points="3932,-85 3832,-85 3832,-66 3932,-66 3932,-85"/>
<text text-anchor="middle" x="3882" y="-73" font-family="Helvetica,sans-Serif" font-size="10.00">sitkBasicFilters.h</text>
</a>
</g>
</g>
<!-- Node1&#45;&gt;Node2 -->
<g id="edge1_Node000001_Node000002" class="edge">
<title>Node1&#45;&gt;Node2</title>
<g id="a_edge1_Node000001_Node000002"><a xlink:title=" ">
<path fill="none" stroke="#63b8ff" d="M3925.53,-114.32C3914.66,-104.87 3901.06,-93.06 3891.98,-85.17"/>
<polygon fill="#63b8ff" stroke="#63b8ff" points="3923.35,-117.07 3933.2,-120.98 3927.95,-111.78 3923.35,-117.07"/>
</a>
</g>
</g>
<!-- Node313 -->
<g id="Node000313" class="node">
<title>Node313</title>
<g id="a_Node000313"><a xlink:href="sitkCreateKernel_8h.html" target="_top" xlink:title=" ">
<polygon fill="white" stroke="#666666" points="4057.5,-85 3950.5,-85 3950.5,-66 4057.5,-66 4057.5,-85"/>
<text text-anchor="middle" x="4004" y="-73" font-family="Helvetica,sans-Serif" font-size="10.00">sitkCreateKernel.h</text>
</a>
</g>
</g>
<!-- Node1&#45;&gt;Node313 -->
<g id="edge49_Node000001_Node000313" class="edge">
<title>Node1&#45;&gt;Node313</title>
<g id="a_edge49_Node000001_Node000313"><a xlink:title=" ">
<path fill="none" stroke="#63b8ff" d="M3960.47,-114.32C3971.34,-104.87 3984.94,-93.06 3994.02,-85.17"/>
<polygon fill="#63b8ff" stroke="#63b8ff" points="3958.05,-111.78 3952.8,-120.98 3962.65,-117.07 3958.05,-111.78"/>
</a>
</g>
</g>
<!-- Node3 -->
<g id="Node000003" class="node">
<title>Node3</title>
<g id="a_Node000003"><a xlink:href="sitkAbsImageFilter_8h.html" target="_top" xlink:title=" ">
<polygon fill="#fff0f0" stroke="red" points="116,-24.5 0,-24.5 0,-5.5 116,-5.5 116,-24.5"/>
<text text-anchor="middle" x="58" y="-12.5" font-family="Helvetica,sans-Serif" font-size="10.00">sitkAbsImageFilter.h</text>
</a>
</g>
</g>
<!-- Node2&#45;&gt;Node3 -->
<g id="edge2_Node000002_Node000003" class="edge">
<title>Node2&#45;&gt;Node3</title>
<g id="a_edge2_Node000002_Node000003"><a xlink:title=" ">
<path fill="none" stroke="#63b8ff" d="M3821.41,-74.49C3367.53,-74.35 506.9,-71.76 125,-30 114.37,-28.84 102.93,-26.76 92.57,-24.56"/>
<polygon fill="#63b8ff" stroke="#63b8ff" points="3821.68,-77.99 3831.68,-74.5 3821.68,-70.99 3821.68,-77.99"/>
</a>
</g>
</g>
<!-- Node6 -->
<g id="Node000006" class="node">
<title>Node6</title>
<g id="a_Node000006"><a xlink:href="sitkAbsoluteValueDifferenceImageFilter_8h.html" target="_top" xlink:title=" ">
<polygon fill="#fff0f0" stroke="red" points="289.5,-30 134.5,-30 134.5,0 289.5,0 289.5,-30"/>
<text text-anchor="start" x="142.5" y="-18" font-family="Helvetica,sans-Serif" font-size="10.00">sitkAbsoluteValueDifference</text>
<text text-anchor="middle" x="212" y="-7" font-family="Helvetica,sans-Serif" font-size="10.00">ImageFilter.h</text>
</a>
</g>
</g>
<!-- Node2&#45;&gt;Node6 -->
<g id="edge3_Node000002_Node000006" class="edge">
<title>Node2&#45;&gt;Node6</title>
<g id="a_edge3_Node000002_Node000006"><a xlink:title=" ">
<path fill="none" stroke="#63b8ff" d="M3821.49,-74.29C3380.11,-72.66 663.27,-61.4 299,-30 295.95,-29.74 292.85,-29.43 289.72,-29.09"/>
<polygon fill="#63b8ff" stroke="#63b8ff" points="3821.78,-77.79 3831.79,-74.32 3821.8,-70.79 3821.78,-77.79"/>
</a>
</g>
</g>
<!-- Node7 -->
<g id="Node000007" class="node">
<title>Node7</title>
<g id="a_Node000007"><a xlink:href="sitkAcosImageFilter_8h.html" target="_top" xlink:title=" ">
<polygon fill="#fff0f0" stroke="red" points="430,-24.5 308,-24.5 308,-5.5 430,-5.5 430,-24.5"/>
<text text-anchor="middle" x="369" y="-12.5" font-family="Helvetica,sans-Serif" font-size="10.00">sitkAcosImageFilter.h</text>
</a>
</g>
</g>
<!-- Node2&#45;&gt;Node7 -->
<g id="edge4_Node000002_Node000007" class="edge">
<title>Node2&#45;&gt;Node7</title>
<g id="a_edge4_Node000002_Node000007"><a xlink:title=" ">
<path fill="none" stroke="#63b8ff" d="M3821.81,-74.39C3391.36,-73.53 787.85,-66.82 439,-30 427.91,-28.83 415.96,-26.75 405.14,-24.55"/>
<polygon fill="#63b8ff" stroke="#63b8ff" points="3821.86,-77.89 3831.86,-74.41 3821.87,-70.89 3821.86,-77.89"/>
</a>
</g>
</g>
<!-- Node8 -->
<g id="Node000008" class="node">
<title>Node8</title>
<g id="a_Node000008"><a xlink:href="sitkAdaptiveHistogramEqualizationImageFilter_8h.html" target="_top" xlink:title=" ">
<polygon fill="#fff0f0" stroke="red" points="637.5,-30 448.5,-30 448.5,0 637.5,0 637.5,-30"/>
<text text-anchor="start" x="456.5" y="-18" font-family="Helvetica,sans-Serif" font-size="10.00">sitkAdaptiveHistogramEqualization</text>
<text text-anchor="middle" x="543" y="-7" font-family="Helvetica,sans-Serif" font-size="10.00">ImageFilter.h</text>
</a>
</g>
</g>
<!-- Node2&#45;&gt;Node8 -->
<g id="edge5_Node000002_Node000008" class="edge">
<title>Node2&#45;&gt;Node8</title>
<g id="a_edge5_Node000002_Node000008"><a xlink:title=" ">
<path fill="none" stroke="#63b8ff" d="M3821.69,-74.67C3434.85,-75.62 1297.37,-78.57 646,-30 643.21,-29.79 640.38,-29.56 637.53,-29.3"/>
<polygon fill="#63b8ff" stroke="#63b8ff" points="3821.84,-78.17 3831.83,-74.65 3821.83,-71.17 3821.84,-78.17"/>
</a>
</g>
</g>
<!-- Node9 -->
<g id="Node000009" class="node">
<title>Node9</title>
<g id="a_Node000009"><a xlink:href="sitkAddImageFilter_8h.html" target="_top" xlink:title=" ">
<polygon fill="#fff0f0" stroke="red" points="772.5,-24.5 655.5,-24.5 655.5,-5.5 772.5,-5.5 772.5,-24.5"/>
<text text-anchor="middle" x="714" y="-12.5" font-family="Helvetica,sans-Serif" font-size="10.00">sitkAddImageFilter.h</text>
</a>
</g>
</g>
<!-- Node2&#45;&gt;Node9 -->
<g id="edge6_Node000002_Node000009" class="edge">
<title>Node2&#45;&gt;Node9</title>
<g id="a_edge6_Node000002_Node000009"><a xlink:title=" ">
<path fill="none" stroke="#63b8ff" d="M3821.85,-74.33C3416.76,-73.1 1093.47,-64.56 781,-30 770.37,-28.82 758.93,-26.74 748.57,-24.54"/>
<polygon fill="#63b8ff" stroke="#63b8ff" points="3821.88,-77.83 3831.89,-74.36 3821.9,-70.83 3821.88,-77.83"/>
</a>
</g>
</g>
<!-- Node11 -->
<g id="Node000011" class="node">
<title>Node11</title>
<g id="a_Node000011"><a xlink:href="sitkAdditionalProcedures_8h.html" target="_top" xlink:title=" ">
<polygon fill="#fff0f0" stroke="red" points="937.5,-24.5 790.5,-24.5 790.5,-5.5 937.5,-5.5 937.5,-24.5"/>
<text text-anchor="middle" x="864" y="-12.5" font-family="Helvetica,sans-Serif" font-size="10.00">sitkAdditionalProcedures.h</text>
</a>
</g>
</g>
<!-- Node2&#45;&gt;Node11 -->
<g id="edge7_Node000002_Node000011" class="edge">
<title>Node2&#45;&gt;Node11</title>
<g id="a_edge7_Node000002_Node000011"><a xlink:title=" ">
<path fill="none" stroke="#63b8ff" d="M3821.7,-74.14C3429.03,-71.7 1242.45,-57 947,-30 933.9,-28.8 919.76,-26.72 906.92,-24.52"/>
<polygon fill="#63b8ff" stroke="#63b8ff" points="3821.7,-77.64 3831.72,-74.2 3821.74,-70.64 3821.7,-77.64"/>
</a>
</g>
</g>
<!-- Node13 -->
<g id="Node000013" class="node">
<title>Node13</title>
<g id="a_Node000013"><a xlink:href="sitkAdditiveGaussianNoiseImageFilter_8h.html" target="_top" xlink:title=" ">
<polygon fill="#fff0f0" stroke="red" points="1104,-30 956,-30 956,0 1104,0 1104,-30"/>
<text text-anchor="start" x="964" y="-18" font-family="Helvetica,sans-Serif" font-size="10.00">sitkAdditiveGaussianNoise</text>
<text text-anchor="middle" x="1030" y="-7" font-family="Helvetica,sans-Serif" font-size="10.00">ImageFilter.h</text>
</a>
</g>
</g>
<!-- Node2&#45;&gt;Node13 -->
<g id="edge8_Node000002_Node000013" class="edge">
<title>Node2&#45;&gt;Node13</title>
<g id="a_edge8_Node000002_Node000013"><a xlink:title=" ">
<path fill="none" stroke="#63b8ff" d="M3821.56,-74.08C3441.67,-71.35 1390.86,-55.52 1113,-30 1110.09,-29.73 1107.13,-29.42 1104.14,-29.08"/>
<polygon fill="#63b8ff" stroke="#63b8ff" points="3821.76,-77.58 3831.79,-74.15 3821.81,-70.58 3821.76,-77.58"/>
</a>
</g>
</g>
<!-- Node14 -->
<g id="Node000014" class="node">
<title>Node14</title>
<g id="a_Node000014"><a xlink:href="sitkAggregateLabelMapFilter_8h.html" target="_top" xlink:title=" ">
<polygon fill="#fff0f0" stroke="red" points="1287.5,-24.5 1122.5,-24.5 1122.5,-5.5 1287.5,-5.5 1287.5,-24.5"/>
<text text-anchor="middle" x="1205" y="-12.5" font-family="Helvetica,sans-Serif" font-size="10.00">sitkAggregateLabelMapFilter.h</text>
</a>
</g>
</g>
<!-- Node2&#45;&gt;Node14 -->
<g id="edge9_Node000002_Node000014" class="edge">
<title>Node2&#45;&gt;Node14</title>
<g id="a_edge9_Node000002_Node000014"><a xlink:title=" ">
<path fill="none" stroke="#63b8ff" d="M3821.65,-74.57C3482.38,-74.81 1809.67,-73.73 1296,-30 1281.83,-28.79 1266.51,-26.73 1252.55,-24.56"/>
<polygon fill="#63b8ff" stroke="#63b8ff" points="3821.76,-78.07 3831.76,-74.56 3821.76,-71.07 3821.76,-78.07"/>
</a>
</g>
</g>
<!-- Node15 -->
<g id="Node000015" class="node">
<title>Node15</title>
<g id="a_Node000015"><a xlink:href="sitkAndImageFilter_8h.html" target="_top" xlink:title=" ">
<polygon fill="#fff0f0" stroke="red" points="1422.5,-24.5 1305.5,-24.5 1305.5,-5.5 1422.5,-5.5 1422.5,-24.5"/>
<text text-anchor="middle" x="1364" y="-12.5" font-family="Helvetica,sans-Serif" font-size="10.00">sitkAndImageFilter.h</text>
</a>
</g>
</g>
<!-- Node2&#45;&gt;Node15 -->
<g id="edge10_Node000002_Node000015" class="edge">
<title>Node2&#45;&gt;Node15</title>
<g id="a_edge10_Node000002_Node000015"><a xlink:title=" ">
<path fill="none" stroke="#63b8ff" d="M3821.92,-74.07C3469.29,-71.49 1675.82,-57.08 1432,-30 1421.22,-28.8 1409.61,-26.72 1399.1,-24.52"/>
<polygon fill="#63b8ff" stroke="#63b8ff" points="3821.9,-77.57 3831.93,-74.15 3821.95,-70.57 3821.9,-77.57"/>
</a>
</g>
</g>
<!-- Node16 -->
<g id="Node000016" class="node">
<title>Node16</title>
<g id="a_Node000016"><a xlink:href="sitkAntiAliasBinaryImageFilter_8h.html" target="_top" xlink:title=" ">
<polygon fill="#fff0f0" stroke="red" points="1581,-30 1441,-30 1441,0 1581,0 1581,-30"/>
<text text-anchor="start" x="1449" y="-18" font-family="Helvetica,sans-Serif" font-size="10.00">sitkAntiAliasBinaryImage</text>
<text text-anchor="middle" x="1511" y="-7" font-family="Helvetica,sans-Serif" font-size="10.00">Filter.h</text>
</a>
</g>
</g>
<!-- Node2&#45;&gt;Node16 -->
<g id="edge11_Node000002_Node000016" class="edge">
<title>Node2&#45;&gt;Node16</title>
<g id="a_edge11_Node000002_Node000016"><a xlink:title=" ">
<path fill="none" stroke="#63b8ff" d="M3821.58,-74.6C3505.68,-74.95 2041.38,-74.11 1590,-30 1587.09,-29.72 1584.12,-29.38 1581.13,-29.01"/>
<polygon fill="#63b8ff" stroke="#63b8ff" points="3821.9,-78.1 3831.9,-74.59 3821.89,-71.1 3821.9,-78.1"/>
</a>
</g>
</g>
<!-- Node17 -->
<g id="Node000017" class="node">
<title>Node17</title>
<g id="a_Node000017"><a xlink:href="sitkApproximateSignedDistanceMapImageFilter_8h.html" target="_top" xlink:title=" ">
<polygon fill="#fff0f0" stroke="red" points="1772.5,-30 1599.5,-30 1599.5,0 1772.5,0 1772.5,-30"/>
<text text-anchor="start" x="1607.5" y="-18" font-family="Helvetica,sans-Serif" font-size="10.00">sitkApproximateSignedDistance</text>
<text text-anchor="middle" x="1686" y="-7" font-family="Helvetica,sans-Serif" font-size="10.00">MapImageFilter.h</text>
</a>
</g>
</g>
<!-- Node2&#45;&gt;Node17 -->
<g id="edge12_Node000002_Node000017" class="edge">
<title>Node2&#45;&gt;Node17</title>
<g id="a_edge12_Node000002_Node000017"><a xlink:title=" ">
<path fill="none" stroke="#63b8ff" d="M3821.39,-74.24C3521.32,-72.81 2192.85,-64.57 1781,-30 1778.26,-29.77 1775.48,-29.51 1772.67,-29.23"/>
<polygon fill="#63b8ff" stroke="#63b8ff" points="3821.61,-77.74 3831.62,-74.29 3821.64,-70.74 3821.61,-77.74"/>
</a>
</g>
</g>
<!-- Node18 -->
<g id="Node000018" class="node">
<title>Node18</title>
<g id="a_Node000018"><a xlink:href="sitkAreaClosingImageFilter_8h.html" target="_top" xlink:title=" ">
<polygon fill="#fff0f0" stroke="red" points="1947.5,-24.5 1790.5,-24.5 1790.5,-5.5 1947.5,-5.5 1947.5,-24.5"/>
<text text-anchor="middle" x="1869" y="-12.5" font-family="Helvetica,sans-Serif" font-size="10.00">sitkAreaClosingImageFilter.h</text>
</a>
</g>
</g>
<!-- Node2&#45;&gt;Node18 -->
<g id="edge13_Node000002_Node000018" class="edge">
<title>Node2&#45;&gt;Node18</title>
<g id="a_edge13_Node000002_Node000018"><a xlink:title=" ">
<path fill="none" stroke="#63b8ff" d="M3821.89,-74.22C3538.18,-72.71 2331.27,-64.37 1956,-30 1942.44,-28.76 1927.79,-26.69 1914.46,-24.51"/>
<polygon fill="#63b8ff" stroke="#63b8ff" points="3821.96,-77.72 3831.98,-74.27 3822,-70.72 3821.96,-77.72"/>
</a>
</g>
</g>
<!-- Node19 -->
<g id="Node000019" class="node">
<title>Node19</title>
<g id="a_Node000019"><a xlink:href="sitkAreaOpeningImageFilter_8h.html" target="_top" xlink:title=" ">
<polygon fill="#fff0f0" stroke="red" points="2126.5,-24.5 1965.5,-24.5 1965.5,-5.5 2126.5,-5.5 2126.5,-24.5"/>
<text text-anchor="middle" x="2046" y="-12.5" font-family="Helvetica,sans-Serif" font-size="10.00">sitkAreaOpeningImageFilter.h</text>
</a>
</g>
</g>
<!-- Node2&#45;&gt;Node19 -->
<g id="edge14_Node000002_Node000019" class="edge">
<title>Node2&#45;&gt;Node19</title>
<g id="a_edge14_Node000002_Node000019"><a xlink:title=" ">
<path fill="none" stroke="#63b8ff" d="M3821.5,-74.02C3553.64,-71.73 2472.86,-60.74 2135,-30 2121.29,-28.75 2106.49,-26.71 2092.97,-24.56"/>
<polygon fill="#63b8ff" stroke="#63b8ff" points="3821.77,-77.52 3831.8,-74.11 3821.83,-70.52 3821.77,-77.52"/>
</a>
</g>
</g>
<!-- Node20 -->
<g id="Node000020" class="node">
<title>Node20</title>
<g id="a_Node000020"><a xlink:href="sitkAsinImageFilter_8h.html" target="_top" xlink:title=" ">
<polygon fill="#fff0f0" stroke="red" points="2263.5,-24.5 2144.5,-24.5 2144.5,-5.5 2263.5,-5.5 2263.5,-24.5"/>
<text text-anchor="middle" x="2204" y="-12.5" font-family="Helvetica,sans-Serif" font-size="10.00">sitkAsinImageFilter.h</text>
</a>
</g>
</g>
<!-- Node2&#45;&gt;Node20 -->
<g id="edge15_Node000002_Node000020" class="edge">
<title>Node2&#45;&gt;Node20</title>
<g id="a_edge15_Node000002_Node000020"><a xlink:title=" ">
<path fill="none" stroke="#63b8ff" d="M3821.67,-74.25C3567.25,-72.97 2580.72,-65.77 2272,-30 2261.34,-28.77 2249.88,-26.7 2239.45,-24.52"/>
<polygon fill="#63b8ff" stroke="#63b8ff" points="3821.81,-77.75 3831.83,-74.3 3821.85,-70.75 3821.81,-77.75"/>
</a>
</g>
</g>
<!-- Node21 -->
<g id="Node000021" class="node">
<title>Node21</title>
<g id="a_Node000021"><a xlink:href="sitkAtan2ImageFilter_8h.html" target="_top" xlink:title=" ">
<polygon fill="#fff0f0" stroke="red" points="2408.5,-24.5 2281.5,-24.5 2281.5,-5.5 2408.5,-5.5 2408.5,-24.5"/>
<text text-anchor="middle" x="2345" y="-12.5" font-family="Helvetica,sans-Serif" font-size="10.00">sitkAtan2ImageFilter.h</text>
</a>
</g>
</g>
<!-- Node2&#45;&gt;Node21 -->
<g id="edge16_Node000002_Node000021" class="edge">
<title>Node2&#45;&gt;Node21</title>
<g id="a_edge16_Node000002_Node000021"><a xlink:title=" ">
<path fill="none" stroke="#63b8ff" d="M3821.69,-73.97C3581.96,-71.66 2695.93,-61.15 2417,-30 2405.86,-28.76 2393.88,-26.71 2382.94,-24.57"/>
<polygon fill="#63b8ff" stroke="#63b8ff" points="3821.92,-77.47 3831.95,-74.07 3821.99,-70.47 3821.92,-77.47"/>
</a>
</g>
</g>
<!-- Node22 -->
<g id="Node000022" class="node">
<title>Node22</title>
<g id="a_Node000022"><a xlink:href="sitkAtanImageFilter_8h.html" target="_top" xlink:title=" ">
<polygon fill="#fff0f0" stroke="red" points="2547.5,-24.5 2426.5,-24.5 2426.5,-5.5 2547.5,-5.5 2547.5,-24.5"/>
<text text-anchor="middle" x="2487" y="-12.5" font-family="Helvetica,sans-Serif" font-size="10.00">sitkAtanImageFilter.h</text>
</a>
</g>
</g>
<!-- Node2&#45;&gt;Node22 -->
<g id="edge17_Node000002_Node000022" class="edge">
<title>Node2&#45;&gt;Node22</title>
<g id="a_edge17_Node000002_Node000022"><a xlink:title=" ">
<path fill="none" stroke="#63b8ff" d="M3821.54,-73.81C3596.31,-71.03 2806.1,-59.36 2556,-30 2545.32,-28.75 2533.83,-26.7 2523.34,-24.55"/>
<polygon fill="#63b8ff" stroke="#63b8ff" points="3821.8,-77.31 3831.84,-73.94 3821.88,-70.31 3821.8,-77.31"/>
</a>
</g>
</g>
<!-- Node23 -->
<g id="Node000023" class="node">
<title>Node23</title>
<g id="a_Node000023"><a xlink:href="sitkBSplineDecompositionImageFilter_8h.html" target="_top" xlink:title=" ">
<polygon fill="#fff0f0" stroke="red" points="2710.5,-30 2565.5,-30 2565.5,0 2710.5,0 2710.5,-30"/>
<text text-anchor="start" x="2573.5" y="-18" font-family="Helvetica,sans-Serif" font-size="10.00">sitkBSplineDecomposition</text>
<text text-anchor="middle" x="2638" y="-7" font-family="Helvetica,sans-Serif" font-size="10.00">ImageFilter.h</text>
</a>
</g>
</g>
<!-- Node2&#45;&gt;Node23 -->
<g id="edge18_Node000002_Node000023" class="edge">
<title>Node2&#45;&gt;Node23</title>
<g id="a_edge18_Node000002_Node000023"><a xlink:title=" ">
<path fill="none" stroke="#63b8ff" d="M3821.57,-74.97C3649.1,-75.7 3139.88,-73.69 2720,-30 2716.98,-29.69 2713.91,-29.33 2710.81,-28.94"/>
<polygon fill="#63b8ff" stroke="#63b8ff" points="3821.74,-78.47 3831.72,-74.92 3821.7,-71.47 3821.74,-78.47"/>
</a>
</g>
</g>
<!-- Node24 -->
<g id="Node000024" class="node">
<title>Node24</title>
<g id="a_Node000024"><a xlink:href="sitkBSplineTransformInitializerFilter_8h.html" target="_top" xlink:title=" ">
<polygon fill="#fff0f0" stroke="red" points="2895,-30 2729,-30 2729,0 2895,0 2895,-30"/>
<text text-anchor="start" x="2737" y="-18" font-family="Helvetica,sans-Serif" font-size="10.00">sitkBSplineTransformInitializer</text>
<text text-anchor="middle" x="2812" y="-7" font-family="Helvetica,sans-Serif" font-size="10.00">Filter.h</text>
</a>
</g>
</g>
<!-- Node2&#45;&gt;Node24 -->
<g id="edge19_Node000002_Node000024" class="edge">
<title>Node2&#45;&gt;Node24</title>
<g id="a_edge19_Node000002_Node000024"><a xlink:title=" ">
<path fill="none" stroke="#63b8ff" d="M3821.85,-73.97C3668.46,-72.14 3250.41,-64.14 2904,-30 2901.11,-29.71 2898.16,-29.4 2895.2,-29.06"/>
<polygon fill="#63b8ff" stroke="#63b8ff" points="3821.96,-77.47 3831.99,-74.09 3822.04,-70.47 3821.96,-77.47"/>
</a>
</g>
</g>
<!-- Node25 -->
<g id="Node000025" class="node">
<title>Node25</title>
<g id="a_Node000025"><a xlink:href="sitkBilateralImageFilter_8h.html" target="_top" xlink:title=" ">
<polygon fill="#fff0f0" stroke="red" points="3053,-24.5 2913,-24.5 2913,-5.5 3053,-5.5 3053,-24.5"/>
<text text-anchor="middle" x="2983" y="-12.5" font-family="Helvetica,sans-Serif" font-size="10.00">sitkBilateralImageFilter.h</text>
</a>
</g>
</g>
<!-- Node2&#45;&gt;Node25 -->
<g id="edge20_Node000002_Node000025" class="edge">
<title>Node2&#45;&gt;Node25</title>
<g id="a_edge20_Node000002_Node000025"><a xlink:title=" ">
<path fill="none" stroke="#63b8ff" d="M3821.7,-73.73C3685.72,-71.43 3344.97,-62.63 3062,-30 3050.1,-28.63 3037.28,-26.6 3025.5,-24.51"/>
<polygon fill="#63b8ff" stroke="#63b8ff" points="3821.85,-77.23 3831.9,-73.89 3821.96,-70.23 3821.85,-77.23"/>
</a>
</g>
</g>
<!-- Node26 -->
<g id="Node000026" class="node">
<title>Node26</title>
<g id="a_Node000026"><a xlink:href="sitkBinShrinkImageFilter_8h.html" target="_top" xlink:title=" ">
<polygon fill="#fff0f0" stroke="red" points="3216.5,-24.5 3071.5,-24.5 3071.5,-5.5 3216.5,-5.5 3216.5,-24.5"/>
<text text-anchor="middle" x="3144" y="-12.5" font-family="Helvetica,sans-Serif" font-size="10.00">sitkBinShrinkImageFilter.h</text>
</a>
</g>
</g>
<!-- Node2&#45;&gt;Node26 -->
<g id="edge21_Node000002_Node000026" class="edge">
<title>Node2&#45;&gt;Node26</title>
<g id="a_edge21_Node000002_Node000026"><a xlink:title=" ">
<path fill="none" stroke="#63b8ff" d="M3821.55,-72.45C3705.67,-68.06 3444.41,-55.98 3226,-30 3213.95,-28.57 3200.98,-26.57 3188.99,-24.53"/>
<polygon fill="#63b8ff" stroke="#63b8ff" points="3821.51,-75.95 3831.64,-72.82 3821.77,-68.95 3821.51,-75.95"/>
</a>
</g>
</g>
<!-- Node27 -->
<g id="Node000027" class="node">
<title>Node27</title>
<g id="a_Node000027"><a xlink:href="sitkBinaryClosingByReconstructionImageFilter_8h.html" target="_top" xlink:title=" ">
<polygon fill="#fff0f0" stroke="red" points="3423,-30 3235,-30 3235,0 3423,0 3423,-30"/>
<text text-anchor="start" x="3243" y="-18" font-family="Helvetica,sans-Serif" font-size="10.00">sitkBinaryClosingByReconstruction</text>
<text text-anchor="middle" x="3329" y="-7" font-family="Helvetica,sans-Serif" font-size="10.00">ImageFilter.h</text>
</a>
</g>
</g>
<!-- Node2&#45;&gt;Node27 -->
<g id="edge22_Node000002_Node000027" class="edge">
<title>Node2&#45;&gt;Node27</title>
<g id="a_edge22_Node000002_Node000027"><a xlink:title=" ">
<path fill="none" stroke="#63b8ff" d="M3821.85,-69.26C3735.48,-61.57 3571.36,-46.36 3432,-30 3429.04,-29.65 3426.04,-29.29 3423.01,-28.92"/>
<polygon fill="#63b8ff" stroke="#63b8ff" points="3821.72,-72.76 3831.99,-70.16 3822.34,-65.79 3821.72,-72.76"/>
</a>
</g>
</g>
<!-- Node28 -->
<g id="Node000028" class="node">
<title>Node28</title>
<g id="a_Node000028"><a xlink:href="sitkBinaryContourImageFilter_8h.html" target="_top" xlink:title=" ">
<polygon fill="#fff0f0" stroke="red" points="3609,-24.5 3441,-24.5 3441,-5.5 3609,-5.5 3609,-24.5"/>
<text text-anchor="middle" x="3525" y="-12.5" font-family="Helvetica,sans-Serif" font-size="10.00">sitkBinaryContourImageFilter.h</text>
</a>
</g>
</g>
<!-- Node2&#45;&gt;Node28 -->
<g id="edge23_Node000002_Node000028" class="edge">
<title>Node2&#45;&gt;Node28</title>
<g id="a_edge23_Node000002_Node000028"><a xlink:title=" ">
<path fill="none" stroke="#63b8ff" d="M3821.76,-64.63C3753.1,-53.38 3642.01,-35.17 3576.99,-24.52"/>
<polygon fill="#63b8ff" stroke="#63b8ff" points="3821.55,-68.14 3831.98,-66.3 3822.68,-61.23 3821.55,-68.14"/>
</a>
</g>
</g>
<!-- Node29 -->
<g id="Node000029" class="node">
<title>Node29</title>
<g id="a_Node000029"><a xlink:href="sitkBinaryDilateImageFilter_8h.html" target="_top" xlink:title=" ">
<polygon fill="#fff0f0" stroke="red" points="3785.5,-24.5 3626.5,-24.5 3626.5,-5.5 3785.5,-5.5 3785.5,-24.5"/>
<text text-anchor="middle" x="3706" y="-12.5" font-family="Helvetica,sans-Serif" font-size="10.00">sitkBinaryDilateImageFilter.h</text>
</a>
</g>
</g>
<!-- Node2&#45;&gt;Node29 -->
<g id="edge24_Node000002_Node000029" class="edge">
<title>Node2&#45;&gt;Node29</title>
<g id="a_edge24_Node000002_Node000029"><a xlink:title=" ">
<path fill="none" stroke="#63b8ff" d="M3846.85,-62.82C3812.81,-51.5 3762.01,-34.62 3731.62,-24.52"/>
<polygon fill="#63b8ff" stroke="#63b8ff" points="3845.81,-66.16 3856.41,-65.99 3848.02,-59.52 3845.81,-66.16"/>
</a>
</g>
</g>
<!-- Node30 -->
<g id="Node000030" class="node">
<title>Node30</title>
<g id="a_Node000030"><a xlink:href="sitkBinaryErodeImageFilter_8h.html" target="_top" xlink:title=" ">
<polygon fill="#fff0f0" stroke="red" points="3961,-24.5 3803,-24.5 3803,-5.5 3961,-5.5 3961,-24.5"/>
<text text-anchor="middle" x="3882" y="-12.5" font-family="Helvetica,sans-Serif" font-size="10.00">sitkBinaryErodeImageFilter.h</text>
</a>
</g>
</g>
<!-- Node2&#45;&gt;Node30 -->
<g id="edge25_Node000002_Node000030" class="edge">
<title>Node2&#45;&gt;Node30</title>
<g id="a_edge25_Node000002_Node000030"><a xlink:title=" ">
<path fill="none" stroke="#63b8ff" d="M3882,-55.66C3882,-45.24 3882,-32.8 3882,-24.67"/>
<polygon fill="#63b8ff" stroke="#63b8ff" points="3878.5,-55.87 3882,-65.87 3885.5,-55.87 3878.5,-55.87"/>
</a>
</g>
</g>
<!-- Node31 -->
<g id="Node000031" class="node">
<title>Node31</title>
<g id="a_Node000031"><a xlink:href="sitkBinaryFillholeImageFilter_8h.html" target="_top" xlink:title=" ">
<polygon fill="#fff0f0" stroke="red" points="4144.5,-24.5 3979.5,-24.5 3979.5,-5.5 4144.5,-5.5 4144.5,-24.5"/>
<text text-anchor="middle" x="4062" y="-12.5" font-family="Helvetica,sans-Serif" font-size="10.00">sitkBinaryFillholeImageFilter.h</text>
</a>
</g>
</g>
<!-- Node2&#45;&gt;Node31 -->
<g id="edge26_Node000002_Node000031" class="edge">
<title>Node2&#45;&gt;Node31</title>
<g id="a_edge26_Node000002_Node000031"><a xlink:title=" ">
<path fill="none" stroke="#63b8ff" d="M3917.95,-62.82C3952.76,-51.5 4004.72,-34.62 4035.79,-24.52"/>
<polygon fill="#63b8ff" stroke="#63b8ff" points="3916.6,-59.57 3908.17,-65.99 3918.77,-66.23 3916.6,-59.57"/>
</a>
</g>
</g>
<!-- Node32 -->
<g id="Node000032" class="node">
<title>Node32</title>
<g id="a_Node000032"><a xlink:href="sitkBinaryGrindPeakImageFilter_8h.html" target="_top" xlink:title=" ">
<polygon fill="#fff0f0" stroke="red" points="4309.5,-30 4162.5,-30 4162.5,0 4309.5,0 4309.5,-30"/>
<text text-anchor="start" x="4170.5" y="-18" font-family="Helvetica,sans-Serif" font-size="10.00">sitkBinaryGrindPeakImage</text>
<text text-anchor="middle" x="4236" y="-7" font-family="Helvetica,sans-Serif" font-size="10.00">Filter.h</text>
</a>
</g>
</g>
<!-- Node2&#45;&gt;Node32 -->
<g id="edge27_Node000002_Node000032" class="edge">
<title>Node2&#45;&gt;Node32</title>
<g id="a_edge27_Node000002_Node000032"><a xlink:title=" ">
<path fill="none" stroke="#63b8ff" d="M3942.1,-64.79C3997.23,-55.85 4081.14,-42.18 4154,-30 4156.71,-29.55 4159.46,-29.09 4162.25,-28.62"/>
<polygon fill="#63b8ff" stroke="#63b8ff" points="3941.46,-61.35 3932.15,-66.4 3942.58,-68.26 3941.46,-61.35"/>
</a>
</g>
</g>
<!-- Node33 -->
<g id="Node000033" class="node">
<title>Node33</title>
<g id="a_Node000033"><a xlink:href="sitkBinaryImageToLabelMapFilter_8h.html" target="_top" xlink:title=" ">
<polygon fill="#fff0f0" stroke="red" points="4482.5,-30 4327.5,-30 4327.5,0 4482.5,0 4482.5,-30"/>
<text text-anchor="start" x="4335.5" y="-18" font-family="Helvetica,sans-Serif" font-size="10.00">sitkBinaryImageToLabelMap</text>
<text text-anchor="middle" x="4405" y="-7" font-family="Helvetica,sans-Serif" font-size="10.00">Filter.h</text>
</a>
</g>
</g>
<!-- Node2&#45;&gt;Node33 -->
<g id="edge28_Node000002_Node000033" class="edge">
<title>Node2&#45;&gt;Node33</title>
<g id="a_edge28_Node000002_Node000033"><a xlink:title=" ">
<path fill="none" stroke="#63b8ff" d="M3941.7,-66.04C3941.8,-66.02 3941.9,-66.01 3942,-66 4109.15,-46.19 4152.07,-51.53 4319,-30 4321.7,-29.65 4324.45,-29.28 4327.22,-28.9"/>
<polygon fill="#63b8ff" stroke="#63b8ff" points="3941.56,-62.53 3932.07,-67.23 3942.42,-69.47 3941.56,-62.53"/>
</a>
</g>
</g>
<!-- Node34 -->
<g id="Node000034" class="node">
<title>Node34</title>
<g id="a_Node000034"><a xlink:href="sitkBinaryMagnitudeImageFilter_8h.html" target="_top" xlink:title=" ">
<polygon fill="#fff0f0" stroke="red" points="4649.5,-30 4500.5,-30 4500.5,0 4649.5,0 4649.5,-30"/>
<text text-anchor="start" x="4508.5" y="-18" font-family="Helvetica,sans-Serif" font-size="10.00">sitkBinaryMagnitudeImage</text>
<text text-anchor="middle" x="4575" y="-7" font-family="Helvetica,sans-Serif" font-size="10.00">Filter.h</text>
</a>
</g>
</g>
<!-- Node2&#45;&gt;Node34 -->
<g id="edge29_Node000002_Node000034" class="edge">
<title>Node2&#45;&gt;Node34</title>
<g id="a_edge29_Node000002_Node000034"><a xlink:title=" ">
<path fill="none" stroke="#63b8ff" d="M3941.7,-66.03C3941.8,-66.02 3941.9,-66.01 3942,-66 4185.67,-40.8 4248.69,-58.41 4492,-30 4494.76,-29.68 4497.56,-29.33 4500.39,-28.95"/>
<polygon fill="#63b8ff" stroke="#63b8ff" points="3941.6,-62.52 3932.06,-67.12 3942.39,-69.48 3941.6,-62.52"/>
</a>
</g>
</g>
<!-- Node35 -->
<g id="Node000035" class="node">
<title>Node35</title>
<g id="a_Node000035"><a xlink:href="sitkBinaryMedianImageFilter_8h.html" target="_top" xlink:title=" ">
<polygon fill="#fff0f0" stroke="red" points="4834,-24.5 4668,-24.5 4668,-5.5 4834,-5.5 4834,-24.5"/>
<text text-anchor="middle" x="4751" y="-12.5" font-family="Helvetica,sans-Serif" font-size="10.00">sitkBinaryMedianImageFilter.h</text>
</a>
</g>
</g>
<!-- Node2&#45;&gt;Node35 -->
<g id="edge30_Node000002_Node000035" class="edge">
<title>Node2&#45;&gt;Node35</title>
<g id="a_edge30_Node000002_Node000035"><a xlink:title=" ">
<path fill="none" stroke="#63b8ff" d="M3941.7,-66.03C3941.8,-66.02 3941.9,-66.01 3942,-66 4259.62,-35.59 4341.54,-62.04 4659,-30 4672.66,-28.62 4687.4,-26.61 4700.98,-24.55"/>
<polygon fill="#63b8ff" stroke="#63b8ff" points="3941.62,-62.52 3932.05,-67.06 3942.37,-69.48 3941.62,-62.52"/>
</a>
</g>
</g>
<!-- Node36 -->
<g id="Node000036" class="node">
<title>Node36</title>
<g id="a_Node000036"><a xlink:href="sitkBinaryMinMaxCurvatureFlowImageFilter_8h.html" target="_top" xlink:title=" ">
<polygon fill="#fff0f0" stroke="red" points="5005.5,-30 4852.5,-30 4852.5,0 5005.5,0 5005.5,-30"/>
<text text-anchor="start" x="4860.5" y="-18" font-family="Helvetica,sans-Serif" font-size="10.00">sitkBinaryMinMaxCurvature</text>
<text text-anchor="middle" x="4929" y="-7" font-family="Helvetica,sans-Serif" font-size="10.00">FlowImageFilter.h</text>
</a>
</g>
</g>
<!-- Node2&#45;&gt;Node36 -->
<g id="edge31_Node000002_Node000036" class="edge">
<title>Node2&#45;&gt;Node36</title>
<g id="a_edge31_Node000002_Node000036"><a xlink:title=" ">
<path fill="none" stroke="#63b8ff" d="M3941.7,-66.03C3941.8,-66.02 3941.9,-66.01 3942,-66 4341.13,-29.85 4444.26,-70.27 4843,-30 4846.01,-29.7 4849.07,-29.35 4852.17,-28.98"/>
<polygon fill="#63b8ff" stroke="#63b8ff" points="3941.63,-62.52 3932.05,-67.03 3942.35,-69.48 3941.63,-62.52"/>
</a>
</g>
</g>
<!-- Node37 -->
<g id="Node000037" class="node">
<title>Node37</title>
<g id="a_Node000037"><a xlink:href="sitkBinaryMorphologicalClosingImageFilter_8h.html" target="_top" xlink:title=" ">
<polygon fill="#fff0f0" stroke="red" points="5194.5,-30 5023.5,-30 5023.5,0 5194.5,0 5194.5,-30"/>
<text text-anchor="start" x="5031.5" y="-18" font-family="Helvetica,sans-Serif" font-size="10.00">sitkBinaryMorphologicalClosing</text>
<text text-anchor="middle" x="5109" y="-7" font-family="Helvetica,sans-Serif" font-size="10.00">ImageFilter.h</text>
</a>
</g>
</g>
<!-- Node2&#45;&gt;Node37 -->
<g id="edge32_Node000002_Node000037" class="edge">
<title>Node2&#45;&gt;Node37</title>
<g id="a_edge32_Node000002_Node000037"><a xlink:title=" ">
<path fill="none" stroke="#63b8ff" d="M3941.7,-66.03C3941.8,-66.02 3941.9,-66.01 3942,-66 4417.35,-24.48 4539.8,-73.22 5015,-30 5017.79,-29.75 5020.63,-29.46 5023.49,-29.16"/>
<polygon fill="#63b8ff" stroke="#63b8ff" points="3941.64,-62.51 3932.04,-67 3942.35,-69.48 3941.64,-62.51"/>
</a>
</g>
</g>
<!-- Node38 -->
<g id="Node000038" class="node">
<title>Node38</title>
<g id="a_Node000038"><a xlink:href="sitkBinaryMorphologicalOpeningImageFilter_8h.html" target="_top" xlink:title=" ">
<polygon fill="#fff0f0" stroke="red" points="5389,-30 5213,-30 5213,0 5389,0 5389,-30"/>
<text text-anchor="start" x="5221" y="-18" font-family="Helvetica,sans-Serif" font-size="10.00">sitkBinaryMorphologicalOpening</text>
<text text-anchor="middle" x="5301" y="-7" font-family="Helvetica,sans-Serif" font-size="10.00">ImageFilter.h</text>
</a>
</g>
</g>
<!-- Node2&#45;&gt;Node38 -->
<g id="edge33_Node000002_Node000038" class="edge">
<title>Node2&#45;&gt;Node38</title>
<g id="a_edge33_Node000002_Node000038"><a xlink:title=" ">
<path fill="none" stroke="#63b8ff" d="M3941.7,-66.03C3941.8,-66.02 3941.9,-66.01 3942,-66 4501.11,-18.57 4644.95,-78.16 5204,-30 5206.88,-29.75 5209.81,-29.47 5212.76,-29.17"/>
<polygon fill="#63b8ff" stroke="#63b8ff" points="3941.65,-62.51 3932.04,-66.98 3942.34,-69.48 3941.65,-62.51"/>
</a>
</g>
</g>
<!-- Node39 -->
<g id="Node000039" class="node">
<title>Node39</title>
<g id="a_Node000039"><a xlink:href="sitkBinaryNotImageFilter_8h.html" target="_top" xlink:title=" ">
<polygon fill="#fff0f0" stroke="red" points="5554.5,-24.5 5407.5,-24.5 5407.5,-5.5 5554.5,-5.5 5554.5,-24.5"/>
<text text-anchor="middle" x="5481" y="-12.5" font-family="Helvetica,sans-Serif" font-size="10.00">sitkBinaryNotImageFilter.h</text>
</a>
</g>
</g>
<!-- Node2&#45;&gt;Node39 -->
<g id="edge34_Node000002_Node000039" class="edge">
<title>Node2&#45;&gt;Node39</title>
<g id="a_edge34_Node000002_Node000039"><a xlink:title=" ">
<path fill="none" stroke="#63b8ff" d="M3941.7,-66.03C3941.8,-66.02 3941.9,-66.01 3942,-66 4587.1,-12.51 4753.67,-91.99 5398,-30 5410.95,-28.75 5424.92,-26.68 5437.65,-24.51"/>
<polygon fill="#63b8ff" stroke="#63b8ff" points="3941.65,-62.51 3932.04,-66.97 3942.33,-69.48 3941.65,-62.51"/>
</a>
</g>
</g>
<!-- Node40 -->
<g id="Node000040" class="node">
<title>Node40</title>
<g id="a_Node000040"><a xlink:href="sitkBinaryOpeningByReconstructionImageFilter_8h.html" target="_top" xlink:title=" ">
<polygon fill="#fff0f0" stroke="red" points="5765,-30 5573,-30 5573,0 5765,0 5765,-30"/>
<text text-anchor="start" x="5581" y="-18" font-family="Helvetica,sans-Serif" font-size="10.00">sitkBinaryOpeningByReconstruction</text>
<text text-anchor="middle" x="5669" y="-7" font-family="Helvetica,sans-Serif" font-size="10.00">ImageFilter.h</text>
</a>
</g>
</g>
<!-- Node2&#45;&gt;Node40 -->
<g id="edge35_Node000002_Node000040" class="edge">
<title>Node2&#45;&gt;Node40</title>
<g id="a_edge35_Node000002_Node000040"><a xlink:title=" ">
<path fill="none" stroke="#63b8ff" d="M3941.69,-66.03C3941.8,-66.02 3941.9,-66.01 3942,-66 4660.68,-7.33 4845.09,-85.73 5564,-30 5566.93,-29.77 5569.91,-29.52 5572.91,-29.24"/>
<polygon fill="#63b8ff" stroke="#63b8ff" points="3941.66,-62.51 3932.04,-66.96 3942.33,-69.48 3941.66,-62.51"/>
</a>
</g>
</g>
<!-- Node41 -->
<g id="Node000041" class="node">
<title>Node41</title>
<g id="a_Node000041"><a xlink:href="sitkBinaryProjectionImageFilter_8h.html" target="_top" xlink:title=" ">
<polygon fill="#fff0f0" stroke="red" points="5929,-30 5783,-30 5783,0 5929,0 5929,-30"/>
<text text-anchor="start" x="5791" y="-18" font-family="Helvetica,sans-Serif" font-size="10.00">sitkBinaryProjectionImage</text>
<text text-anchor="middle" x="5856" y="-7" font-family="Helvetica,sans-Serif" font-size="10.00">Filter.h</text>
</a>
</g>
</g>
<!-- Node2&#45;&gt;Node41 -->
<g id="edge36_Node000002_Node000041" class="edge">
<title>Node2&#45;&gt;Node41</title>
<g id="a_edge36_Node000002_Node000041"><a xlink:title=" ">
<path fill="none" stroke="#63b8ff" d="M3941.69,-66.02C3941.8,-66.02 3941.9,-66.01 3942,-66 4753.76,-0.77 4963.24,-106.74 5774,-30 5776.88,-29.73 5779.8,-29.41 5782.75,-29.06"/>
<polygon fill="#63b8ff" stroke="#63b8ff" points="3941.66,-62.51 3932.04,-66.95 3942.33,-69.48 3941.66,-62.51"/>
</a>
</g>
</g>
<!-- Node42 -->
<g id="Node000042" class="node">
<title>Node42</title>
<g id="a_Node000042"><a xlink:href="sitkBinaryPruningImageFilter_8h.html" target="_top" xlink:title=" ">
<polygon fill="#fff0f0" stroke="red" points="6114.5,-24.5 5947.5,-24.5 5947.5,-5.5 6114.5,-5.5 6114.5,-24.5"/>
<text text-anchor="middle" x="6031" y="-12.5" font-family="Helvetica,sans-Serif" font-size="10.00">sitkBinaryPruningImageFilter.h</text>
</a>
</g>
</g>
<!-- Node2&#45;&gt;Node42 -->
<g id="edge37_Node000002_Node000042" class="edge">
<title>Node2&#45;&gt;Node42</title>
<g id="a_edge37_Node000002_Node000042"><a xlink:title=" ">
<path fill="none" stroke="#63b8ff" d="M3941.69,-66.02C3941.8,-66.02 3941.9,-66.01 3942,-66 4826.46,4.36 5053.85,-104.2 5938,-30 5952.48,-28.78 5968.13,-26.72 5982.39,-24.55"/>
<polygon fill="#63b8ff" stroke="#63b8ff" points="3941.66,-62.51 3932.04,-66.94 3942.33,-69.48 3941.66,-62.51"/>
</a>
</g>
</g>
<!-- Node43 -->
<g id="Node000043" class="node">
<title>Node43</title>
<g id="a_Node000043"><a xlink:href="sitkBinaryReconstructionByDilationImageFilter_8h.html" target="_top" xlink:title=" ">
<polygon fill="#fff0f0" stroke="red" points="6271.5,-30 6132.5,-30 6132.5,0 6271.5,0 6271.5,-30"/>
<text text-anchor="start" x="6140.5" y="-18" font-family="Helvetica,sans-Serif" font-size="10.00">sitkBinaryReconstruction</text>
<text text-anchor="middle" x="6202" y="-7" font-family="Helvetica,sans-Serif" font-size="10.00">ByDilationImageFilter.h</text>
</a>
</g>
</g>
<!-- Node2&#45;&gt;Node43 -->
<g id="edge38_Node000002_Node000043" class="edge">
<title>Node2&#45;&gt;Node43</title>
<g id="a_edge38_Node000002_Node000043"><a xlink:title=" ">
<path fill="none" stroke="#63b8ff" d="M3941.69,-66.02C3941.8,-66.02 3941.9,-66.01 3942,-66 4908.91,10.17 5158.65,-123.98 6124,-30 6126.74,-29.73 6129.53,-29.42 6132.34,-29.08"/>
<polygon fill="#63b8ff" stroke="#63b8ff" points="3941.66,-62.51 3932.04,-66.94 3942.32,-69.48 3941.66,-62.51"/>
</a>
</g>
</g>
<!-- Node44 -->
<g id="Node000044" class="node">
<title>Node44</title>
<g id="a_Node000044"><a xlink:href="sitkBinaryReconstructionByErosionImageFilter_8h.html" target="_top" xlink:title=" ">
<polygon fill="#fff0f0" stroke="red" points="6428.5,-30 6289.5,-30 6289.5,0 6428.5,0 6428.5,-30"/>
<text text-anchor="start" x="6297.5" y="-18" font-family="Helvetica,sans-Serif" font-size="10.00">sitkBinaryReconstruction</text>
<text text-anchor="middle" x="6359" y="-7" font-family="Helvetica,sans-Serif" font-size="10.00">ByErosionImageFilter.h</text>
</a>
</g>
</g>
<!-- Node2&#45;&gt;Node44 -->
<g id="edge39_Node000002_Node000044" class="edge">
<title>Node2&#45;&gt;Node44</title>
<g id="a_edge39_Node000002_Node000044"><a xlink:title=" ">
<path fill="none" stroke="#63b8ff" d="M3941.69,-66.02C3941.8,-66.02 3941.9,-66.01 3942,-66 4460.26,-25.46 5763.58,-80.08 6281,-30 6283.74,-29.73 6286.53,-29.43 6289.34,-29.08"/>
<polygon fill="#63b8ff" stroke="#63b8ff" points="3941.67,-62.51 3932.04,-66.93 3942.32,-69.48 3941.67,-62.51"/>
</a>
</g>
</g>
<!-- Node45 -->
<g id="Node000045" class="node">
<title>Node45</title>
<g id="a_Node000045"><a xlink:href="sitkBinaryThinningImageFilter_8h.html" target="_top" xlink:title=" ">
<polygon fill="#fff0f0" stroke="red" points="6619,-24.5 6447,-24.5 6447,-5.5 6619,-5.5 6619,-24.5"/>
<text text-anchor="middle" x="6533" y="-12.5" font-family="Helvetica,sans-Serif" font-size="10.00">sitkBinaryThinningImageFilter.h</text>
</a>
</g>
</g>
<!-- Node2&#45;&gt;Node45 -->
<g id="edge40_Node000002_Node000045" class="edge">
<title>Node2&#45;&gt;Node45</title>
<g id="a_edge40_Node000002_Node000045"><a xlink:title=" ">
<path fill="none" stroke="#63b8ff" d="M3941.69,-66.02C3941.8,-66.02 3941.9,-66.01 3942,-66 5048.11,19.98 5332.13,-119.07 6438,-30 6452.96,-28.8 6469.14,-26.71 6483.83,-24.51"/>
<polygon fill="#63b8ff" stroke="#63b8ff" points="3941.67,-62.51 3932.04,-66.93 3942.32,-69.48 3941.67,-62.51"/>
</a>
</g>
</g>
<!-- Node46 -->
<g id="Node000046" class="node">
<title>Node46</title>
<g id="a_Node000046"><a xlink:href="sitkBinaryThresholdImageFilter_8h.html" target="_top" xlink:title=" ">
<polygon fill="#fff0f0" stroke="red" points="6782.5,-30 6637.5,-30 6637.5,0 6782.5,0 6782.5,-30"/>
<text text-anchor="start" x="6645.5" y="-18" font-family="Helvetica,sans-Serif" font-size="10.00">sitkBinaryThresholdImage</text>
<text text-anchor="middle" x="6710" y="-7" font-family="Helvetica,sans-Serif" font-size="10.00">Filter.h</text>
</a>
</g>
</g>
<!-- Node2&#45;&gt;Node46 -->
<g id="edge41_Node000002_Node000046" class="edge">
<title>Node2&#45;&gt;Node46</title>
<g id="a_edge41_Node000002_Node000046"><a xlink:title=" ">
<path fill="none" stroke="#63b8ff" d="M3941.69,-66.02C3941.8,-66.02 3941.9,-66.01 3942,-66 4537.17,-20.04 6033.54,-84.4 6628,-30 6631.02,-29.72 6634.1,-29.4 6637.2,-29.03"/>
<polygon fill="#63b8ff" stroke="#63b8ff" points="3941.67,-62.51 3932.04,-66.93 3942.32,-69.48 3941.67,-62.51"/>
</a>
</g>
</g>
<!-- Node47 -->
<g id="Node000047" class="node">
<title>Node47</title>
<g id="a_Node000047"><a xlink:href="sitkBinaryThresholdProjectionImageFilter_8h.html" target="_top" xlink:title=" ">
<polygon fill="#fff0f0" stroke="red" points="6963.5,-30 6800.5,-30 6800.5,0 6963.5,0 6963.5,-30"/>
<text text-anchor="start" x="6808.5" y="-18" font-family="Helvetica,sans-Serif" font-size="10.00">sitkBinaryThresholdProjection</text>
<text text-anchor="middle" x="6882" y="-7" font-family="Helvetica,sans-Serif" font-size="10.00">ImageFilter.h</text>
</a>
</g>
</g>
<!-- Node2&#45;&gt;Node47 -->
<g id="edge42_Node000002_Node000047" class="edge">
<title>Node2&#45;&gt;Node47</title>
<g id="a_edge42_Node000002_Node000047"><a xlink:title=" ">
<path fill="none" stroke="#63b8ff" d="M3941.69,-66.02C3941.8,-66.02 3941.9,-66.01 3942,-66 4573.52,-17.48 6160.82,-82.81 6792,-30 6794.68,-29.78 6797.4,-29.52 6800.14,-29.24"/>
<polygon fill="#63b8ff" stroke="#63b8ff" points="3941.67,-62.51 3932.04,-66.92 3942.32,-69.48 3941.67,-62.51"/>
</a>
</g>
</g>
<!-- Node48 -->
<g id="Node000048" class="node">
<title>Node48</title>
<g id="a_Node000048"><a xlink:href="sitkBinomialBlurImageFilter_8h.html" target="_top" xlink:title=" ">
<polygon fill="#fff0f0" stroke="red" points="7142.5,-24.5 6981.5,-24.5 6981.5,-5.5 7142.5,-5.5 7142.5,-24.5"/>
<text text-anchor="middle" x="7062" y="-12.5" font-family="Helvetica,sans-Serif" font-size="10.00">sitkBinomialBlurImageFilter.h</text>
</a>
</g>
</g>
<!-- Node2&#45;&gt;Node48 -->
<g id="edge43_Node000002_Node000048" class="edge">
<title>Node2&#45;&gt;Node48</title>
<g id="a_edge43_Node000002_Node000048"><a xlink:title=" ">
<path fill="none" stroke="#63b8ff" d="M3941.69,-66.02C3941.8,-66.02 3941.9,-66.01 3942,-66 4613.64,-14.65 6301.77,-86.48 6973,-30 6987.03,-28.82 7002.19,-26.74 7015.96,-24.54"/>
<polygon fill="#63b8ff" stroke="#63b8ff" points="3941.67,-62.51 3932.04,-66.92 3942.32,-69.48 3941.67,-62.51"/>
</a>
</g>
</g>
<!-- Node49 -->
<g id="Node000049" class="node">
<title>Node49</title>
<g id="a_Node000049"><a xlink:href="sitkBitwiseNotImageFilter_8h.html" target="_top" xlink:title=" ">
<polygon fill="#fff0f0" stroke="red" points="7313,-24.5 7161,-24.5 7161,-5.5 7313,-5.5 7313,-24.5"/>
<text text-anchor="middle" x="7237" y="-12.5" font-family="Helvetica,sans-Serif" font-size="10.00">sitkBitwiseNotImageFilter.h</text>
</a>
</g>
</g>
<!-- Node2&#45;&gt;Node49 -->
<g id="edge44_Node000002_Node000049" class="edge">
<title>Node2&#45;&gt;Node49</title>
<g id="a_edge44_Node000002_Node000049"><a xlink:title=" ">
<path fill="none" stroke="#63b8ff" d="M3941.69,-66.02C3941.8,-66.02 3941.9,-66.01 3942,-66 4653.32,-11.86 6441.33,-92.15 7152,-30 7165.41,-28.83 7179.9,-26.75 7193.04,-24.55"/>
<polygon fill="#63b8ff" stroke="#63b8ff" points="3941.67,-62.51 3932.04,-66.92 3942.32,-69.48 3941.67,-62.51"/>
</a>
</g>
</g>
<!-- Node50 -->
<g id="Node000050" class="node">
<title>Node50</title>
<g id="a_Node000050"><a xlink:href="sitkBlackTopHatImageFilter_8h.html" target="_top" xlink:title=" ">
<polygon fill="#fff0f0" stroke="red" points="7490.5,-24.5 7331.5,-24.5 7331.5,-5.5 7490.5,-5.5 7490.5,-24.5"/>
<text text-anchor="middle" x="7411" y="-12.5" font-family="Helvetica,sans-Serif" font-size="10.00">sitkBlackTopHatImageFilter.h</text>
</a>
</g>
</g>
<!-- Node2&#45;&gt;Node50 -->
<g id="edge45_Node000002_Node000050" class="edge">
<title>Node2&#45;&gt;Node50</title>
<g id="a_edge45_Node000002_Node000050"><a xlink:title=" ">
<path fill="none" stroke="#63b8ff" d="M3941.69,-66.02C3941.8,-66.02 3941.9,-66.01 3942,-66 4691,-9.2 6573.45,-92.53 7322,-30 7336.03,-28.83 7351.19,-26.75 7364.96,-24.55"/>
<polygon fill="#63b8ff" stroke="#63b8ff" points="3941.67,-62.51 3932.04,-66.92 3942.32,-69.48 3941.67,-62.51"/>
</a>
</g>
</g>
<!-- Node51 -->
<g id="Node000051" class="node">
<title>Node51</title>
<g id="a_Node000051"><a xlink:href="sitkBoundedReciprocalImageFilter_8h.html" target="_top" xlink:title=" ">
<polygon fill="#fff0f0" stroke="red" points="7667.5,-30 7508.5,-30 7508.5,0 7667.5,0 7667.5,-30"/>
<text text-anchor="start" x="7516.5" y="-18" font-family="Helvetica,sans-Serif" font-size="10.00">sitkBoundedReciprocalImage</text>
<text text-anchor="middle" x="7588" y="-7" font-family="Helvetica,sans-Serif" font-size="10.00">Filter.h</text>
</a>
</g>
</g>
<!-- Node2&#45;&gt;Node51 -->
<g id="edge46_Node000002_Node000051" class="edge">
<title>Node2&#45;&gt;Node51</title>
<g id="a_edge46_Node000002_Node000051"><a xlink:title=" ">
<path fill="none" stroke="#63b8ff" d="M3941.69,-66.02C3941.8,-66.02 3941.9,-66.01 3942,-66 4730.46,-6.42 6712.08,-96.3 7500,-30 7502.77,-29.77 7505.59,-29.5 7508.44,-29.2"/>
<polygon fill="#63b8ff" stroke="#63b8ff" points="3941.67,-62.51 3932.04,-66.91 3942.32,-69.48 3941.67,-62.51"/>
</a>
</g>
</g>
<!-- Node52 -->
<g id="Node000052" class="node">
<title>Node52</title>
<g id="a_Node000052"><a xlink:href="sitkBoxMeanImageFilter_8h.html" target="_top" xlink:title=" ">
<polygon fill="#fff0f0" stroke="red" points="7830,-24.5 7686,-24.5 7686,-5.5 7830,-5.5 7830,-24.5"/>
<text text-anchor="middle" x="7758" y="-12.5" font-family="Helvetica,sans-Serif" font-size="10.00">sitkBoxMeanImageFilter.h</text>
</a>
</g>
</g>
<!-- Node2&#45;&gt;Node52 -->
<g id="edge47_Node000002_Node000052" class="edge">
<title>Node2&#45;&gt;Node52</title>
<g id="a_edge47_Node000002_Node000052"><a xlink:title=" ">
<path fill="none" stroke="#63b8ff" d="M3941.69,-66.02C3941.8,-66.02 3941.9,-66.01 3942,-66 4769.69,-3.65 6850.35,-104.93 7677,-30 7689.79,-28.84 7703.6,-26.77 7716.13,-24.56"/>
<polygon fill="#63b8ff" stroke="#63b8ff" points="3941.67,-62.51 3932.04,-66.91 3942.32,-69.48 3941.67,-62.51"/>
</a>
</g>
</g>
<!-- Node53 -->
<g id="Node000053" class="node">
<title>Node53</title>
<g id="a_Node000053"><a xlink:href="sitkBoxSigmaImageFilter_8h.html" target="_top" xlink:title=" ">
<polygon fill="#fff0f0" stroke="red" points="7996,-24.5 7848,-24.5 7848,-5.5 7996,-5.5 7996,-24.5"/>
<text text-anchor="middle" x="7922" y="-12.5" font-family="Helvetica,sans-Serif" font-size="10.00">sitkBoxSigmaImageFilter.h</text>
</a>
</g>
</g>
<!-- Node2&#45;&gt;Node53 -->
<g id="edge48_Node000002_Node000053" class="edge">
<title>Node2&#45;&gt;Node53</title>
<g id="a_edge48_Node000002_Node000053"><a xlink:title=" ">
<path fill="none" stroke="#63b8ff" d="M3941.69,-66.02C3941.8,-66.02 3941.9,-66.01 3942,-66 4805.6,-1.12 6976.33,-106.26 7839,-30 7852.1,-28.84 7866.25,-26.77 7879.09,-24.56"/>
<polygon fill="#63b8ff" stroke="#63b8ff" points="3941.67,-62.51 3932.04,-66.91 3942.31,-69.48 3941.67,-62.51"/>
</a>
</g>
</g>
</g>
</svg>
