<?xml version="1.0" encoding="UTF-8" standalone="no"?>
<!DOCTYPE svg PUBLIC "-//W3C//DTD SVG 1.1//EN"
 "http://www.w3.org/Graphics/SVG/1.1/DTD/svg11.dtd">
<!-- Generated by graphviz version 2.43.0 (0)
 -->
<!-- Title: sitkImageViewer.h Pages: 1 -->
<svg width="1484pt" height="543pt"
 viewBox="0.00 0.00 1484.06 543.00" xmlns="http://www.w3.org/2000/svg" xmlns:xlink="http://www.w3.org/1999/xlink">
<g id="graph0" class="graph" transform="scale(1 1) rotate(0) translate(4 539)">
<title>sitkImageViewer.h</title>
<polygon fill="white" stroke="transparent" points="-4,4 -4,-539 1480.06,-539 1480.06,4 -4,4"/>
<!-- Node1 -->
<g id="node1" class="node">
<title>Node1</title>
<g id="a_node1"><a xlink:title=" ">
<polygon fill="#bfbfbf" stroke="black" points="236.5,-515.5 236.5,-534.5 343.5,-534.5 343.5,-515.5 236.5,-515.5"/>
<text text-anchor="middle" x="290" y="-522.5" font-family="Helvetica,sans-Serif" font-size="10.00">sitkImageViewer.h</text>
</a>
</g>
</g>
<!-- Node2 -->
<g id="node2" class="node">
<title>Node2</title>
<g id="a_node2"><a xlink:href="sitkImage_8h.html" target="_top" xlink:title=" ">
<polygon fill="white" stroke="black" points="340,-347.5 340,-366.5 414,-366.5 414,-347.5 340,-347.5"/>
<text text-anchor="middle" x="377" y="-354.5" font-family="Helvetica,sans-Serif" font-size="10.00">sitkImage.h</text>
</a>
</g>
</g>
<!-- Node1&#45;&gt;Node2 -->
<g id="edge1" class="edge">
<title>Node1&#45;&gt;Node2</title>
<path fill="none" stroke="midnightblue" d="M289.11,-515.26C287.39,-494.12 285.67,-439.32 309,-403 317.89,-389.16 332.72,-378.61 346.26,-371.22"/>
<polygon fill="midnightblue" stroke="midnightblue" points="348.01,-374.26 355.34,-366.61 344.84,-368.02 348.01,-374.26"/>
</g>
<!-- Node32 -->
<g id="node32" class="node">
<title>Node32</title>
<g id="a_node32"><a xlink:href="sitkIO_8h.html" target="_top" xlink:title=" ">
<polygon fill="white" stroke="black" points="44,-347.5 44,-366.5 98,-366.5 98,-347.5 44,-347.5"/>
<text text-anchor="middle" x="71" y="-354.5" font-family="Helvetica,sans-Serif" font-size="10.00">sitkIO.h</text>
</a>
</g>
</g>
<!-- Node1&#45;&gt;Node32 -->
<g id="edge49" class="edge">
<title>Node1&#45;&gt;Node32</title>
<path fill="none" stroke="midnightblue" d="M278.53,-515.31C243.06,-488.42 134.79,-406.35 90.35,-372.67"/>
<polygon fill="midnightblue" stroke="midnightblue" points="92.44,-369.86 82.35,-366.61 88.21,-375.44 92.44,-369.86"/>
</g>
<!-- Node33 -->
<g id="node33" class="node">
<title>Node33</title>
<g id="a_node33"><a xlink:href="sitkProcessObject_8h.html" target="_top" xlink:title=" ">
<polygon fill="white" stroke="black" points="461.5,-459.5 461.5,-478.5 574.5,-478.5 574.5,-459.5 461.5,-459.5"/>
<text text-anchor="middle" x="518" y="-466.5" font-family="Helvetica,sans-Serif" font-size="10.00">sitkProcessObject.h</text>
</a>
</g>
</g>
<!-- Node1&#45;&gt;Node33 -->
<g id="edge51" class="edge">
<title>Node1&#45;&gt;Node33</title>
<path fill="none" stroke="midnightblue" d="M326.13,-515.44C365.65,-506.08 429.1,-491.06 472.11,-480.87"/>
<polygon fill="midnightblue" stroke="midnightblue" points="473.12,-484.23 482.04,-478.52 471.5,-477.42 473.12,-484.23"/>
</g>
<!-- Node3 -->
<g id="node3" class="node">
<title>Node3</title>
<g id="a_node3"><a xlink:href="sitkCommon_8h.html" target="_top" xlink:title=" ">
<polygon fill="white" stroke="black" points="463,-112.5 463,-131.5 551,-131.5 551,-112.5 463,-112.5"/>
<text text-anchor="middle" x="507" y="-119.5" font-family="Helvetica,sans-Serif" font-size="10.00">sitkCommon.h</text>
</a>
</g>
</g>
<!-- Node2&#45;&gt;Node3 -->
<g id="edge2" class="edge">
<title>Node2&#45;&gt;Node3</title>
<path fill="none" stroke="midnightblue" d="M372.91,-347.3C363.34,-325.63 341.55,-267.84 359,-224 377.59,-177.31 431.66,-149.32 469.03,-135.03"/>
<polygon fill="midnightblue" stroke="midnightblue" points="470.42,-138.25 478.61,-131.52 468.01,-131.67 470.42,-138.25"/>
</g>
<!-- Node11 -->
<g id="node11" class="node">
<title>Node11</title>
<g id="a_node11"><a xlink:href="sitkTemplateFunctions_8h.html" target="_top" xlink:title=" ">
<polygon fill="white" stroke="black" points="138.5,-230 138.5,-249 273.5,-249 273.5,-230 138.5,-230"/>
<text text-anchor="middle" x="206" y="-237" font-family="Helvetica,sans-Serif" font-size="10.00">sitkTemplateFunctions.h</text>
</a>
</g>
</g>
<!-- Node2&#45;&gt;Node11 -->
<g id="edge10" class="edge">
<title>Node2&#45;&gt;Node11</title>
<path fill="none" stroke="midnightblue" d="M356.79,-347.48C338.23,-339.26 310.31,-325.91 288,-311 263.28,-294.48 237.76,-271.41 221.89,-256.23"/>
<polygon fill="midnightblue" stroke="midnightblue" points="224.14,-253.53 214.53,-249.08 219.26,-258.56 224.14,-253.53"/>
</g>
<!-- Node13 -->
<g id="node13" class="node">
<title>Node13</title>
<g id="a_node13"><a xlink:title=" ">
<polygon fill="white" stroke="#bfbfbf" points="317.5,-168.5 317.5,-187.5 364.5,-187.5 364.5,-168.5 317.5,-168.5"/>
<text text-anchor="middle" x="341" y="-175.5" font-family="Helvetica,sans-Serif" font-size="10.00">vector</text>
</a>
</g>
</g>
<!-- Node2&#45;&gt;Node13 -->
<g id="edge46" class="edge">
<title>Node2&#45;&gt;Node13</title>
<path fill="none" stroke="midnightblue" d="M361.27,-347.24C349.11,-339.48 333.19,-326.93 326,-311 308.99,-273.31 323.17,-223.66 333.19,-197.3"/>
<polygon fill="midnightblue" stroke="midnightblue" points="336.51,-198.4 337,-187.82 330.02,-195.79 336.51,-198.4"/>
</g>
<!-- Node16 -->
<g id="node16" class="node">
<title>Node16</title>
<g id="a_node16"><a xlink:href="sitkDetail_8h.html" target="_top" xlink:title=" ">
<polygon fill="white" stroke="black" points="871.5,-291.5 871.5,-310.5 944.5,-310.5 944.5,-291.5 871.5,-291.5"/>
<text text-anchor="middle" x="908" y="-298.5" font-family="Helvetica,sans-Serif" font-size="10.00">sitkDetail.h</text>
</a>
</g>
</g>
<!-- Node2&#45;&gt;Node16 -->
<g id="edge19" class="edge">
<title>Node2&#45;&gt;Node16</title>
<path fill="none" stroke="midnightblue" d="M414.34,-352.2C508.83,-342.59 757.27,-317.33 861.22,-306.76"/>
<polygon fill="midnightblue" stroke="midnightblue" points="861.81,-310.22 871.41,-305.72 861.1,-303.25 861.81,-310.22"/>
</g>
<!-- Node27 -->
<g id="node27" class="node">
<title>Node27</title>
<g id="a_node27"><a xlink:href="sitkPixelIDTokens_8h.html" target="_top" xlink:title=" ">
<polygon fill="white" stroke="black" points="486,-291.5 486,-310.5 596,-310.5 596,-291.5 486,-291.5"/>
<text text-anchor="middle" x="541" y="-298.5" font-family="Helvetica,sans-Serif" font-size="10.00">sitkPixelIDTokens.h</text>
</a>
</g>
</g>
<!-- Node2&#45;&gt;Node27 -->
<g id="edge38" class="edge">
<title>Node2&#45;&gt;Node27</title>
<path fill="none" stroke="midnightblue" d="M402.99,-347.44C430.7,-338.32 474.75,-323.81 505.62,-313.65"/>
<polygon fill="midnightblue" stroke="midnightblue" points="506.73,-316.97 515.14,-310.52 504.54,-310.32 506.73,-316.97"/>
</g>
<!-- Node30 -->
<g id="node30" class="node">
<title>Node30</title>
<g id="a_node30"><a xlink:title=" ">
<polygon fill="white" stroke="#bfbfbf" points="368.5,-230 368.5,-249 437.5,-249 437.5,-230 368.5,-230"/>
<text text-anchor="middle" x="403" y="-237" font-family="Helvetica,sans-Serif" font-size="10.00">type_traits</text>
</a>
</g>
</g>
<!-- Node2&#45;&gt;Node30 -->
<g id="edge48" class="edge">
<title>Node2&#45;&gt;Node30</title>
<path fill="none" stroke="midnightblue" d="M378.95,-347.32C383.15,-328.67 393.11,-284.44 398.81,-259.13"/>
<polygon fill="midnightblue" stroke="midnightblue" points="402.24,-259.81 401.02,-249.28 395.41,-258.27 402.24,-259.81"/>
</g>
<!-- Node31 -->
<g id="node31" class="node">
<title>Node31</title>
<g id="a_node31"><a xlink:title=" ">
<polygon fill="white" stroke="#bfbfbf" points="406,-291.5 406,-310.5 464,-310.5 464,-291.5 406,-291.5"/>
<text text-anchor="middle" x="435" y="-298.5" font-family="Helvetica,sans-Serif" font-size="10.00">memory</text>
</a>
</g>
</g>
<!-- Node2&#45;&gt;Node31 -->
<g id="edge47" class="edge">
<title>Node2&#45;&gt;Node31</title>
<path fill="none" stroke="midnightblue" d="M386.32,-347.32C394.89,-339.34 407.81,-327.31 418.19,-317.65"/>
<polygon fill="midnightblue" stroke="midnightblue" points="420.58,-320.21 425.51,-310.83 415.81,-315.09 420.58,-320.21"/>
</g>
<!-- Node4 -->
<g id="node4" class="node">
<title>Node4</title>
<g id="a_node4"><a xlink:href="sitkMacro_8h.html" target="_top" xlink:title=" ">
<polygon fill="white" stroke="black" points="470,-56.5 470,-75.5 544,-75.5 544,-56.5 470,-56.5"/>
<text text-anchor="middle" x="507" y="-63.5" font-family="Helvetica,sans-Serif" font-size="10.00">sitkMacro.h</text>
</a>
</g>
</g>
<!-- Node3&#45;&gt;Node4 -->
<g id="edge3" class="edge">
<title>Node3&#45;&gt;Node4</title>
<path fill="none" stroke="midnightblue" d="M507,-112.08C507,-105.01 507,-94.86 507,-85.99"/>
<polygon fill="midnightblue" stroke="midnightblue" points="510.5,-85.75 507,-75.75 503.5,-85.75 510.5,-85.75"/>
</g>
<!-- Node5 -->
<g id="node5" class="node">
<title>Node5</title>
<g id="a_node5"><a xlink:title=" ">
<polygon fill="white" stroke="#bfbfbf" points="776.5,-0.5 776.5,-19.5 829.5,-19.5 829.5,-0.5 776.5,-0.5"/>
<text text-anchor="middle" x="803" y="-7.5" font-family="Helvetica,sans-Serif" font-size="10.00">stdint.h</text>
</a>
</g>
</g>
<!-- Node4&#45;&gt;Node5 -->
<g id="edge4" class="edge">
<title>Node4&#45;&gt;Node5</title>
<path fill="none" stroke="midnightblue" d="M544.19,-58.22C601.2,-47.82 709.53,-28.05 766.26,-17.7"/>
<polygon fill="midnightblue" stroke="midnightblue" points="767.02,-21.12 776.23,-15.88 765.77,-14.23 767.02,-21.12"/>
</g>
<!-- Node6 -->
<g id="node6" class="node">
<title>Node6</title>
<g id="a_node6"><a xlink:title=" ">
<polygon fill="white" stroke="#bfbfbf" points="513,-0.5 513,-19.5 569,-19.5 569,-0.5 513,-0.5"/>
<text text-anchor="middle" x="541" y="-7.5" font-family="Helvetica,sans-Serif" font-size="10.00">stddef.h</text>
</a>
</g>
</g>
<!-- Node4&#45;&gt;Node6 -->
<g id="edge5" class="edge">
<title>Node4&#45;&gt;Node6</title>
<path fill="none" stroke="midnightblue" d="M512.61,-56.08C517.37,-48.53 524.32,-37.49 530.15,-28.23"/>
<polygon fill="midnightblue" stroke="midnightblue" points="533.12,-30.08 535.49,-19.75 527.2,-26.35 533.12,-30.08"/>
</g>
<!-- Node7 -->
<g id="node7" class="node">
<title>Node7</title>
<g id="a_node7"><a xlink:title=" ">
<polygon fill="white" stroke="#bfbfbf" points="587,-0.5 587,-19.5 639,-19.5 639,-0.5 587,-0.5"/>
<text text-anchor="middle" x="613" y="-7.5" font-family="Helvetica,sans-Serif" font-size="10.00">cassert</text>
</a>
</g>
</g>
<!-- Node4&#45;&gt;Node7 -->
<g id="edge6" class="edge">
<title>Node4&#45;&gt;Node7</title>
<path fill="none" stroke="midnightblue" d="M524.03,-56.32C541.03,-47.66 567.38,-34.24 586.99,-24.25"/>
<polygon fill="midnightblue" stroke="midnightblue" points="588.69,-27.31 596.01,-19.65 585.51,-21.08 588.69,-27.31"/>
</g>
<!-- Node8 -->
<g id="node8" class="node">
<title>Node8</title>
<g id="a_node8"><a xlink:title=" ">
<polygon fill="white" stroke="#bfbfbf" points="377,-0.5 377,-19.5 433,-19.5 433,-0.5 377,-0.5"/>
<text text-anchor="middle" x="405" y="-7.5" font-family="Helvetica,sans-Serif" font-size="10.00">sstream</text>
</a>
</g>
</g>
<!-- Node4&#45;&gt;Node8 -->
<g id="edge7" class="edge">
<title>Node4&#45;&gt;Node8</title>
<path fill="none" stroke="midnightblue" d="M490.61,-56.32C474.33,-47.7 449.13,-34.36 430.28,-24.39"/>
<polygon fill="midnightblue" stroke="midnightblue" points="431.82,-21.24 421.35,-19.65 428.55,-27.43 431.82,-21.24"/>
</g>
<!-- Node9 -->
<g id="node9" class="node">
<title>Node9</title>
<g id="a_node9"><a xlink:title=" ">
<polygon fill="white" stroke="#bfbfbf" points="451,-0.5 451,-19.5 495,-19.5 495,-0.5 451,-0.5"/>
<text text-anchor="middle" x="473" y="-7.5" font-family="Helvetica,sans-Serif" font-size="10.00">limits</text>
</a>
</g>
</g>
<!-- Node4&#45;&gt;Node9 -->
<g id="edge8" class="edge">
<title>Node4&#45;&gt;Node9</title>
<path fill="none" stroke="midnightblue" d="M501.39,-56.08C496.63,-48.53 489.68,-37.49 483.85,-28.23"/>
<polygon fill="midnightblue" stroke="midnightblue" points="486.8,-26.35 478.51,-19.75 480.88,-30.08 486.8,-26.35"/>
</g>
<!-- Node10 -->
<g id="node10" class="node">
<title>Node10</title>
<g id="a_node10"><a xlink:href="sitkConfigure_8h.html" target="_top" xlink:title=" ">
<polygon fill="white" stroke="black" points="924,-0.5 924,-19.5 1014,-19.5 1014,-0.5 924,-0.5"/>
<text text-anchor="middle" x="969" y="-7.5" font-family="Helvetica,sans-Serif" font-size="10.00">sitkConfigure.h</text>
</a>
</g>
</g>
<!-- Node4&#45;&gt;Node10 -->
<g id="edge9" class="edge">
<title>Node4&#45;&gt;Node10</title>
<path fill="none" stroke="midnightblue" d="M544.03,-60.67C625.01,-51.21 818.25,-28.62 913.71,-17.46"/>
<polygon fill="midnightblue" stroke="midnightblue" points="914.22,-20.93 923.74,-16.29 913.4,-13.97 914.22,-20.93"/>
</g>
<!-- Node11&#45;&gt;Node3 -->
<g id="edge12" class="edge">
<title>Node11&#45;&gt;Node3</title>
<path fill="none" stroke="midnightblue" d="M215.65,-229.9C232.9,-214.99 270.75,-184.35 308,-168 354.64,-147.53 411.68,-135.86 452.72,-129.56"/>
<polygon fill="midnightblue" stroke="midnightblue" points="453.41,-132.99 462.79,-128.07 452.39,-126.07 453.41,-132.99"/>
</g>
<!-- Node11&#45;&gt;Node4 -->
<g id="edge11" class="edge">
<title>Node11&#45;&gt;Node4</title>
<path fill="none" stroke="midnightblue" d="M139.26,-229.95C87.82,-220.57 29.73,-202.07 57,-168 107.18,-105.31 354.96,-78.86 459.9,-70.34"/>
<polygon fill="midnightblue" stroke="midnightblue" points="460.21,-73.82 469.9,-69.55 459.65,-66.85 460.21,-73.82"/>
</g>
<!-- Node12 -->
<g id="node12" class="node">
<title>Node12</title>
<g id="a_node12"><a xlink:href="sitkExceptionObject_8h.html" target="_top" xlink:title=" ">
<polygon fill="white" stroke="black" points="137.5,-168.5 137.5,-187.5 260.5,-187.5 260.5,-168.5 137.5,-168.5"/>
<text text-anchor="middle" x="199" y="-175.5" font-family="Helvetica,sans-Serif" font-size="10.00">sitkExceptionObject.h</text>
</a>
</g>
</g>
<!-- Node11&#45;&gt;Node12 -->
<g id="edge13" class="edge">
<title>Node11&#45;&gt;Node12</title>
<path fill="none" stroke="midnightblue" d="M205,-229.98C204.01,-221.58 202.47,-208.48 201.2,-197.66"/>
<polygon fill="midnightblue" stroke="midnightblue" points="204.65,-197.03 200,-187.51 197.69,-197.85 204.65,-197.03"/>
</g>
<!-- Node11&#45;&gt;Node13 -->
<g id="edge16" class="edge">
<title>Node11&#45;&gt;Node13</title>
<path fill="none" stroke="midnightblue" d="M225.34,-229.98C248.1,-219.95 286.09,-203.2 312.29,-191.65"/>
<polygon fill="midnightblue" stroke="midnightblue" points="313.95,-194.74 321.69,-187.51 311.13,-188.34 313.95,-194.74"/>
</g>
<!-- Node14 -->
<g id="node14" class="node">
<title>Node14</title>
<g id="a_node14"><a xlink:title=" ">
<polygon fill="white" stroke="#bfbfbf" points="421.5,-168.5 421.5,-187.5 478.5,-187.5 478.5,-168.5 421.5,-168.5"/>
<text text-anchor="middle" x="450" y="-175.5" font-family="Helvetica,sans-Serif" font-size="10.00">ostream</text>
</a>
</g>
</g>
<!-- Node11&#45;&gt;Node14 -->
<g id="edge17" class="edge">
<title>Node11&#45;&gt;Node14</title>
<path fill="none" stroke="midnightblue" d="M240.96,-229.98C286.14,-218.96 364.54,-199.84 411.42,-188.41"/>
<polygon fill="midnightblue" stroke="midnightblue" points="412.32,-191.79 421.2,-186.02 410.66,-184.99 412.32,-191.79"/>
</g>
<!-- Node15 -->
<g id="node15" class="node">
<title>Node15</title>
<g id="a_node15"><a xlink:title=" ">
<polygon fill="white" stroke="#bfbfbf" points="66.5,-168.5 66.5,-187.5 119.5,-187.5 119.5,-168.5 66.5,-168.5"/>
<text text-anchor="middle" x="93" y="-175.5" font-family="Helvetica,sans-Serif" font-size="10.00">iterator</text>
</a>
</g>
</g>
<!-- Node11&#45;&gt;Node15 -->
<g id="edge18" class="edge">
<title>Node11&#45;&gt;Node15</title>
<path fill="none" stroke="midnightblue" d="M189.81,-229.98C171.1,-220.12 140.08,-203.79 118.2,-192.27"/>
<polygon fill="midnightblue" stroke="midnightblue" points="119.64,-189.07 109.16,-187.51 116.38,-195.27 119.64,-189.07"/>
</g>
<!-- Node12&#45;&gt;Node3 -->
<g id="edge15" class="edge">
<title>Node12&#45;&gt;Node3</title>
<path fill="none" stroke="midnightblue" d="M247.8,-168.44C303.65,-158.65 394.85,-142.66 452.84,-132.49"/>
<polygon fill="midnightblue" stroke="midnightblue" points="453.67,-135.9 462.92,-130.73 452.46,-129.01 453.67,-135.9"/>
</g>
<!-- Node12&#45;&gt;Node4 -->
<g id="edge14" class="edge">
<title>Node12&#45;&gt;Node4</title>
<path fill="none" stroke="midnightblue" d="M222.91,-168.46C277.38,-149.01 410.81,-101.36 473.46,-78.98"/>
<polygon fill="midnightblue" stroke="midnightblue" points="474.65,-82.27 482.89,-75.61 472.3,-75.68 474.65,-82.27"/>
</g>
<!-- Node17 -->
<g id="node17" class="node">
<title>Node17</title>
<g id="a_node17"><a xlink:href="sitkMemberFunctionFactoryBase_8h.html" target="_top" xlink:title=" ">
<polygon fill="white" stroke="black" points="1145,-224.5 1145,-254.5 1297,-254.5 1297,-224.5 1145,-224.5"/>
<text text-anchor="start" x="1153" y="-242.5" font-family="Helvetica,sans-Serif" font-size="10.00">sitkMemberFunctionFactory</text>
<text text-anchor="middle" x="1221" y="-231.5" font-family="Helvetica,sans-Serif" font-size="10.00">Base.h</text>
</a>
</g>
</g>
<!-- Node16&#45;&gt;Node17 -->
<g id="edge20" class="edge">
<title>Node16&#45;&gt;Node17</title>
<path fill="none" stroke="midnightblue" d="M944.52,-293.06C991.51,-284.12 1074.58,-268.33 1137.43,-256.39"/>
<polygon fill="midnightblue" stroke="midnightblue" points="1138.16,-259.81 1147.33,-254.5 1136.85,-252.93 1138.16,-259.81"/>
</g>
<!-- Node23 -->
<g id="node23" class="node">
<title>Node23</title>
<g id="a_node23"><a xlink:title=" ">
<polygon fill="white" stroke="#bfbfbf" points="838.5,-168.5 838.5,-187.5 977.5,-187.5 977.5,-168.5 838.5,-168.5"/>
<text text-anchor="middle" x="908" y="-175.5" font-family="Helvetica,sans-Serif" font-size="10.00">Ancillary/FunctionTraits.h</text>
</a>
</g>
</g>
<!-- Node16&#45;&gt;Node23 -->
<g id="edge37" class="edge">
<title>Node16&#45;&gt;Node23</title>
<path fill="none" stroke="midnightblue" d="M908,-291.3C908,-271.85 908,-224.49 908,-197.9"/>
<polygon fill="midnightblue" stroke="midnightblue" points="911.5,-197.62 908,-187.62 904.5,-197.62 911.5,-197.62"/>
</g>
<!-- Node17&#45;&gt;Node4 -->
<g id="edge29" class="edge">
<title>Node17&#45;&gt;Node4</title>
<path fill="none" stroke="midnightblue" d="M1150.37,-224.48C1112.52,-215.93 1065.49,-203.63 1025,-188 1007.19,-181.13 1004.95,-174.47 987,-168 833.8,-112.78 641.65,-83.7 554.21,-72.52"/>
<polygon fill="midnightblue" stroke="midnightblue" points="554.44,-69.02 544.08,-71.25 553.57,-75.97 554.44,-69.02"/>
</g>
<!-- Node17&#45;&gt;Node10 -->
<g id="edge21" class="edge">
<title>Node17&#45;&gt;Node10</title>
<path fill="none" stroke="midnightblue" d="M1297.25,-231.04C1356.35,-223.64 1431.66,-210.16 1453,-188 1476.63,-163.46 1484.54,-138.39 1463,-112 1408.06,-44.69 1141.29,-21.04 1024.24,-13.81"/>
<polygon fill="midnightblue" stroke="midnightblue" points="1024.25,-10.3 1014.06,-13.2 1023.83,-17.29 1024.25,-10.3"/>
</g>
<!-- Node18 -->
<g id="node18" class="node">
<title>Node18</title>
<g id="a_node18"><a xlink:href="sitkPixelIDTypes_8h.html" target="_top" xlink:title=" ">
<polygon fill="white" stroke="black" points="1155.5,-112.5 1155.5,-131.5 1260.5,-131.5 1260.5,-112.5 1155.5,-112.5"/>
<text text-anchor="middle" x="1208" y="-119.5" font-family="Helvetica,sans-Serif" font-size="10.00">sitkPixelIDTypes.h</text>
</a>
</g>
</g>
<!-- Node17&#45;&gt;Node18 -->
<g id="edge22" class="edge">
<title>Node17&#45;&gt;Node18</title>
<path fill="none" stroke="midnightblue" d="M1297.18,-235.5C1367.57,-229.88 1456.07,-213.81 1419,-168 1400.59,-145.25 1326.03,-133.51 1270.73,-127.81"/>
<polygon fill="midnightblue" stroke="midnightblue" points="1270.94,-124.31 1260.65,-126.81 1270.26,-131.28 1270.94,-124.31"/>
</g>
<!-- Node19 -->
<g id="node19" class="node">
<title>Node19</title>
<g id="a_node19"><a xlink:href="sitkPixelIDTypeLists_8h.html" target="_top" xlink:title=" ">
<polygon fill="white" stroke="black" points="1034,-168.5 1034,-187.5 1156,-187.5 1156,-168.5 1034,-168.5"/>
<text text-anchor="middle" x="1095" y="-175.5" font-family="Helvetica,sans-Serif" font-size="10.00">sitkPixelIDTypeLists.h</text>
</a>
</g>
</g>
<!-- Node17&#45;&gt;Node19 -->
<g id="edge23" class="edge">
<title>Node17&#45;&gt;Node19</title>
<path fill="none" stroke="midnightblue" d="M1191.14,-224.4C1170.38,-214.59 1142.9,-201.62 1122.64,-192.05"/>
<polygon fill="midnightblue" stroke="midnightblue" points="1123.87,-188.76 1113.33,-187.66 1120.88,-195.09 1123.87,-188.76"/>
</g>
<!-- Node20 -->
<g id="node20" class="node">
<title>Node20</title>
<g id="a_node20"><a xlink:title=" ">
<polygon fill="white" stroke="#bfbfbf" points="1342.5,-112.5 1342.5,-131.5 1453.5,-131.5 1453.5,-112.5 1342.5,-112.5"/>
<text text-anchor="middle" x="1398" y="-119.5" font-family="Helvetica,sans-Serif" font-size="10.00">Ancillary/TypeList.h</text>
</a>
</g>
</g>
<!-- Node17&#45;&gt;Node20 -->
<g id="edge32" class="edge">
<title>Node17&#45;&gt;Node20</title>
<path fill="none" stroke="midnightblue" d="M1297.26,-230.66C1352.19,-223.26 1419.59,-209.95 1437,-188 1449.61,-172.11 1432.89,-151.79 1417.6,-138.14"/>
<polygon fill="midnightblue" stroke="midnightblue" points="1419.8,-135.41 1409.89,-131.66 1415.3,-140.77 1419.8,-135.41"/>
</g>
<!-- Node22 -->
<g id="node22" class="node">
<title>Node22</title>
<g id="a_node22"><a xlink:href="sitkNonCopyable_8h.html" target="_top" xlink:title=" ">
<polygon fill="white" stroke="black" points="711.5,-168.5 711.5,-187.5 820.5,-187.5 820.5,-168.5 711.5,-168.5"/>
<text text-anchor="middle" x="766" y="-175.5" font-family="Helvetica,sans-Serif" font-size="10.00">sitkNonCopyable.h</text>
</a>
</g>
</g>
<!-- Node17&#45;&gt;Node22 -->
<g id="edge30" class="edge">
<title>Node17&#45;&gt;Node22</title>
<path fill="none" stroke="midnightblue" d="M1144.91,-228.93C1068.33,-219.24 946.52,-203.67 830.9,-188.11"/>
<polygon fill="midnightblue" stroke="midnightblue" points="831.19,-184.62 820.81,-186.75 830.25,-191.55 831.19,-184.62"/>
</g>
<!-- Node17&#45;&gt;Node23 -->
<g id="edge33" class="edge">
<title>Node17&#45;&gt;Node23</title>
<path fill="none" stroke="midnightblue" d="M1147.22,-224.47C1090.63,-213.72 1013.78,-199.11 962.62,-189.38"/>
<polygon fill="midnightblue" stroke="midnightblue" points="963.23,-185.94 952.75,-187.51 961.92,-192.81 963.23,-185.94"/>
</g>
<!-- Node24 -->
<g id="node24" class="node">
<title>Node24</title>
<g id="a_node24"><a xlink:title=" ">
<polygon fill="white" stroke="#bfbfbf" points="1174.5,-168.5 1174.5,-187.5 1267.5,-187.5 1267.5,-168.5 1174.5,-168.5"/>
<text text-anchor="middle" x="1221" y="-175.5" font-family="Helvetica,sans-Serif" font-size="10.00">unordered_map</text>
</a>
</g>
</g>
<!-- Node17&#45;&gt;Node24 -->
<g id="edge34" class="edge">
<title>Node17&#45;&gt;Node24</title>
<path fill="none" stroke="midnightblue" d="M1221,-224.4C1221,-216.47 1221,-206.46 1221,-197.86"/>
<polygon fill="midnightblue" stroke="midnightblue" points="1224.5,-197.66 1221,-187.66 1217.5,-197.66 1224.5,-197.66"/>
</g>
<!-- Node25 -->
<g id="node25" class="node">
<title>Node25</title>
<g id="a_node25"><a xlink:title=" ">
<polygon fill="white" stroke="#bfbfbf" points="1285.5,-168.5 1285.5,-187.5 1350.5,-187.5 1350.5,-168.5 1285.5,-168.5"/>
<text text-anchor="middle" x="1318" y="-175.5" font-family="Helvetica,sans-Serif" font-size="10.00">functional</text>
</a>
</g>
</g>
<!-- Node17&#45;&gt;Node25 -->
<g id="edge35" class="edge">
<title>Node17&#45;&gt;Node25</title>
<path fill="none" stroke="midnightblue" d="M1243.99,-224.4C1259.39,-214.95 1279.59,-202.56 1295,-193.11"/>
<polygon fill="midnightblue" stroke="midnightblue" points="1297.19,-195.87 1303.89,-187.66 1293.53,-189.9 1297.19,-195.87"/>
</g>
<!-- Node26 -->
<g id="node26" class="node">
<title>Node26</title>
<g id="a_node26"><a xlink:title=" ">
<polygon fill="white" stroke="#bfbfbf" points="1368.5,-168.5 1368.5,-187.5 1409.5,-187.5 1409.5,-168.5 1368.5,-168.5"/>
<text text-anchor="middle" x="1389" y="-175.5" font-family="Helvetica,sans-Serif" font-size="10.00">tuple</text>
</a>
</g>
</g>
<!-- Node17&#45;&gt;Node26 -->
<g id="edge36" class="edge">
<title>Node17&#45;&gt;Node26</title>
<path fill="none" stroke="midnightblue" d="M1260.81,-224.4C1290.89,-213.75 1331.52,-199.36 1358.92,-189.66"/>
<polygon fill="midnightblue" stroke="midnightblue" points="1360.11,-192.95 1368.36,-186.31 1357.77,-186.35 1360.11,-192.95"/>
</g>
<!-- Node19&#45;&gt;Node5 -->
<g id="edge24" class="edge">
<title>Node19&#45;&gt;Node5</title>
<path fill="none" stroke="midnightblue" d="M1074.81,-168.35C1055.15,-159.73 1024.58,-145.83 999,-132 933.77,-96.73 860.2,-49.07 824.6,-25.47"/>
<polygon fill="midnightblue" stroke="midnightblue" points="826.26,-22.38 816,-19.75 822.39,-28.2 826.26,-22.38"/>
</g>
<!-- Node19&#45;&gt;Node10 -->
<g id="edge25" class="edge">
<title>Node19&#45;&gt;Node10</title>
<path fill="none" stroke="midnightblue" d="M1093.96,-168.42C1092.06,-155.4 1087.17,-130.25 1076,-112 1053.55,-75.33 1014.36,-43.21 990.15,-25.52"/>
<polygon fill="midnightblue" stroke="midnightblue" points="992.14,-22.64 981.97,-19.67 988.07,-28.33 992.14,-22.64"/>
</g>
<!-- Node19&#45;&gt;Node18 -->
<g id="edge26" class="edge">
<title>Node19&#45;&gt;Node18</title>
<path fill="none" stroke="midnightblue" d="M1112.91,-168.44C1131.25,-159.68 1160.01,-145.94 1181.09,-135.86"/>
<polygon fill="midnightblue" stroke="midnightblue" points="1182.67,-138.99 1190.18,-131.52 1179.65,-132.67 1182.67,-138.99"/>
</g>
<!-- Node19&#45;&gt;Node20 -->
<g id="edge27" class="edge">
<title>Node19&#45;&gt;Node20</title>
<path fill="none" stroke="midnightblue" d="M1143.01,-168.44C1196.53,-158.9 1283.07,-143.48 1340.24,-133.29"/>
<polygon fill="midnightblue" stroke="midnightblue" points="1340.98,-136.72 1350.21,-131.52 1339.75,-129.83 1340.98,-136.72"/>
</g>
<!-- Node21 -->
<g id="node21" class="node">
<title>Node21</title>
<g id="a_node21"><a xlink:title=" ">
<polygon fill="white" stroke="#bfbfbf" points="1007.5,-112.5 1007.5,-131.5 1066.5,-131.5 1066.5,-112.5 1007.5,-112.5"/>
<text text-anchor="middle" x="1037" y="-119.5" font-family="Helvetica,sans-Serif" font-size="10.00">complex</text>
</a>
</g>
</g>
<!-- Node19&#45;&gt;Node21 -->
<g id="edge28" class="edge">
<title>Node19&#45;&gt;Node21</title>
<path fill="none" stroke="midnightblue" d="M1085.68,-168.32C1077.11,-160.34 1064.19,-148.31 1053.81,-138.65"/>
<polygon fill="midnightblue" stroke="midnightblue" points="1056.19,-136.09 1046.49,-131.83 1051.42,-141.21 1056.19,-136.09"/>
</g>
<!-- Node22&#45;&gt;Node3 -->
<g id="edge31" class="edge">
<title>Node22&#45;&gt;Node3</title>
<path fill="none" stroke="midnightblue" d="M724.96,-168.44C679.68,-159 606.77,-143.8 557.89,-133.61"/>
<polygon fill="midnightblue" stroke="midnightblue" points="558.35,-130.13 547.85,-131.52 556.92,-136.98 558.35,-130.13"/>
</g>
<!-- Node27&#45;&gt;Node10 -->
<g id="edge39" class="edge">
<title>Node27&#45;&gt;Node10</title>
<path fill="none" stroke="midnightblue" d="M590.14,-291.46C614.82,-285.02 643.7,-273.91 664,-255 695,-226.11 674.76,-199.59 703,-168 769.42,-93.71 879.59,-44.54 934.98,-23.17"/>
<polygon fill="midnightblue" stroke="midnightblue" points="936.23,-26.44 944.35,-19.62 933.75,-19.89 936.23,-26.44"/>
</g>
<!-- Node28 -->
<g id="node28" class="node">
<title>Node28</title>
<g id="a_node28"><a xlink:href="sitkPixelIDValues_8h.html" target="_top" xlink:title=" ">
<polygon fill="white" stroke="black" points="545,-230 545,-249 655,-249 655,-230 545,-230"/>
<text text-anchor="middle" x="600" y="-237" font-family="Helvetica,sans-Serif" font-size="10.00">sitkPixelIDValues.h</text>
</a>
</g>
</g>
<!-- Node27&#45;&gt;Node28 -->
<g id="edge40" class="edge">
<title>Node27&#45;&gt;Node28</title>
<path fill="none" stroke="midnightblue" d="M549.45,-291.48C558.57,-282.28 573.27,-267.46 584.48,-256.16"/>
<polygon fill="midnightblue" stroke="midnightblue" points="587.01,-258.57 591.56,-249.01 582.04,-253.65 587.01,-258.57"/>
</g>
<!-- Node27&#45;&gt;Node30 -->
<g id="edge45" class="edge">
<title>Node27&#45;&gt;Node30</title>
<path fill="none" stroke="midnightblue" d="M521.23,-291.48C497.86,-281.4 458.79,-264.55 432,-253"/>
<polygon fill="midnightblue" stroke="midnightblue" points="433.3,-249.75 422.74,-249.01 430.53,-256.18 433.3,-249.75"/>
</g>
<!-- Node28&#45;&gt;Node3 -->
<g id="edge41" class="edge">
<title>Node28&#45;&gt;Node3</title>
<path fill="none" stroke="midnightblue" d="M593.01,-229.82C577.59,-210.67 540.45,-164.54 520.39,-139.63"/>
<polygon fill="midnightblue" stroke="midnightblue" points="523.07,-137.38 514.07,-131.78 517.62,-141.77 523.07,-137.38"/>
</g>
<!-- Node28&#45;&gt;Node14 -->
<g id="edge44" class="edge">
<title>Node28&#45;&gt;Node14</title>
<path fill="none" stroke="midnightblue" d="M578.51,-229.98C552.89,-219.81 509.89,-202.76 480.76,-191.2"/>
<polygon fill="midnightblue" stroke="midnightblue" points="482.04,-187.94 471.45,-187.51 479.46,-194.45 482.04,-187.94"/>
</g>
<!-- Node28&#45;&gt;Node19 -->
<g id="edge42" class="edge">
<title>Node28&#45;&gt;Node19</title>
<path fill="none" stroke="midnightblue" d="M655.34,-231.85C745.59,-221 924.34,-199.51 1023.88,-187.55"/>
<polygon fill="midnightblue" stroke="midnightblue" points="1024.33,-191.02 1033.84,-186.35 1023.5,-184.07 1024.33,-191.02"/>
</g>
<!-- Node29 -->
<g id="node29" class="node">
<title>Node29</title>
<g id="a_node29"><a xlink:title=" ">
<polygon fill="white" stroke="#bfbfbf" points="573,-168.5 573,-187.5 617,-187.5 617,-168.5 573,-168.5"/>
<text text-anchor="middle" x="595" y="-175.5" font-family="Helvetica,sans-Serif" font-size="10.00">string</text>
</a>
</g>
</g>
<!-- Node28&#45;&gt;Node29 -->
<g id="edge43" class="edge">
<title>Node28&#45;&gt;Node29</title>
<path fill="none" stroke="midnightblue" d="M599.28,-229.98C598.58,-221.58 597.48,-208.48 596.57,-197.66"/>
<polygon fill="midnightblue" stroke="midnightblue" points="600.04,-197.18 595.72,-187.51 593.06,-197.77 600.04,-197.18"/>
</g>
<!-- Node32&#45;&gt;Node4 -->
<g id="edge50" class="edge">
<title>Node32&#45;&gt;Node4</title>
<path fill="none" stroke="midnightblue" d="M60.83,-347.27C41.2,-329.39 0,-286.4 0,-240.5 0,-240.5 0,-240.5 0,-177 0,-83.48 333.61,-69.3 459.6,-67.28"/>
<polygon fill="midnightblue" stroke="midnightblue" points="459.77,-70.78 469.72,-67.14 459.67,-63.78 459.77,-70.78"/>
</g>
<!-- Node33&#45;&gt;Node2 -->
<g id="edge58" class="edge">
<title>Node33&#45;&gt;Node2</title>
<path fill="none" stroke="midnightblue" d="M508.1,-459.34C493.47,-446.65 465.11,-422.39 440,-403 426.3,-392.42 410.45,-381.1 398.07,-372.46"/>
<polygon fill="midnightblue" stroke="midnightblue" points="399.96,-369.52 389.75,-366.69 395.97,-375.27 399.96,-369.52"/>
</g>
<!-- Node33&#45;&gt;Node3 -->
<g id="edge52" class="edge">
<title>Node33&#45;&gt;Node3</title>
<path fill="none" stroke="midnightblue" d="M574.55,-461.63C634.61,-451.36 721,-424.94 721,-358 721,-358 721,-358 721,-300 721,-227.72 683.35,-211.99 626,-168 605.47,-152.25 578.8,-141.49 555.92,-134.45"/>
<polygon fill="midnightblue" stroke="midnightblue" points="556.62,-131.01 546.04,-131.57 554.66,-137.73 556.62,-131.01"/>
</g>
<!-- Node33&#45;&gt;Node11 -->
<g id="edge54" class="edge">
<title>Node33&#45;&gt;Node11</title>
<path fill="none" stroke="midnightblue" d="M461.41,-468.12C416.18,-465.52 353.24,-455.56 309,-423 251.64,-380.78 221.78,-296.42 210.9,-259.05"/>
<polygon fill="midnightblue" stroke="midnightblue" points="214.17,-257.76 208.12,-249.06 207.43,-259.63 214.17,-257.76"/>
</g>
<!-- Node33&#45;&gt;Node22 -->
<g id="edge53" class="edge">
<title>Node33&#45;&gt;Node22</title>
<path fill="none" stroke="midnightblue" d="M574.52,-462.22C630.37,-455.49 710.85,-442.7 735,-423 759.37,-403.12 763,-389.46 763,-358 763,-358 763,-358 763,-300 763,-263.7 764.37,-221.3 765.25,-197.56"/>
<polygon fill="midnightblue" stroke="midnightblue" points="768.75,-197.63 765.64,-187.51 761.76,-197.36 768.75,-197.63"/>
</g>
<!-- Node34 -->
<g id="node34" class="node">
<title>Node34</title>
<g id="a_node34"><a xlink:href="sitkEvent_8h.html" target="_top" xlink:title=" ">
<polygon fill="white" stroke="black" points="455.5,-230 455.5,-249 526.5,-249 526.5,-230 455.5,-230"/>
<text text-anchor="middle" x="491" y="-237" font-family="Helvetica,sans-Serif" font-size="10.00">sitkEvent.h</text>
</a>
</g>
</g>
<!-- Node33&#45;&gt;Node34 -->
<g id="edge55" class="edge">
<title>Node33&#45;&gt;Node34</title>
<path fill="none" stroke="midnightblue" d="M554.7,-459.35C573.83,-452.77 595.57,-441.58 607,-423 622.63,-397.59 689.7,-418.65 605,-291 600.12,-283.64 555.17,-265.16 523.2,-252.71"/>
<polygon fill="midnightblue" stroke="midnightblue" points="524.34,-249.4 513.75,-249.06 521.82,-255.93 524.34,-249.4"/>
</g>
<!-- Node35 -->
<g id="node35" class="node">
<title>Node35</title>
<g id="a_node35"><a xlink:href="sitkImageConvert_8h.html" target="_top" xlink:title=" ">
<polygon fill="white" stroke="black" points="318.5,-403.5 318.5,-422.5 431.5,-422.5 431.5,-403.5 318.5,-403.5"/>
<text text-anchor="middle" x="375" y="-410.5" font-family="Helvetica,sans-Serif" font-size="10.00">sitkImageConvert.h</text>
</a>
</g>
</g>
<!-- Node33&#45;&gt;Node35 -->
<g id="edge59" class="edge">
<title>Node33&#45;&gt;Node35</title>
<path fill="none" stroke="midnightblue" d="M495.34,-459.44C471.6,-450.48 434.09,-436.31 407.26,-426.18"/>
<polygon fill="midnightblue" stroke="midnightblue" points="408.14,-422.77 397.55,-422.52 405.67,-429.32 408.14,-422.77"/>
</g>
<!-- Node36 -->
<g id="node36" class="node">
<title>Node36</title>
<g id="a_node36"><a xlink:title=" ">
<polygon fill="white" stroke="#bfbfbf" points="488,-403.5 488,-422.5 548,-422.5 548,-403.5 488,-403.5"/>
<text text-anchor="middle" x="518" y="-410.5" font-family="Helvetica,sans-Serif" font-size="10.00">iostream</text>
</a>
</g>
</g>
<!-- Node33&#45;&gt;Node36 -->
<g id="edge61" class="edge">
<title>Node33&#45;&gt;Node36</title>
<path fill="none" stroke="midnightblue" d="M518,-459.08C518,-452.01 518,-441.86 518,-432.99"/>
<polygon fill="midnightblue" stroke="midnightblue" points="521.5,-432.75 518,-422.75 514.5,-432.75 521.5,-432.75"/>
</g>
<!-- Node37 -->
<g id="node37" class="node">
<title>Node37</title>
<g id="a_node37"><a xlink:title=" ">
<polygon fill="white" stroke="#bfbfbf" points="566,-403.5 566,-422.5 598,-422.5 598,-403.5 566,-403.5"/>
<text text-anchor="middle" x="582" y="-410.5" font-family="Helvetica,sans-Serif" font-size="10.00">list</text>
</a>
</g>
</g>
<!-- Node33&#45;&gt;Node37 -->
<g id="edge62" class="edge">
<title>Node33&#45;&gt;Node37</title>
<path fill="none" stroke="midnightblue" d="M528.28,-459.32C537.84,-451.26 552.28,-439.08 563.78,-429.37"/>
<polygon fill="midnightblue" stroke="midnightblue" points="566.14,-431.96 571.53,-422.83 561.63,-426.61 566.14,-431.96"/>
</g>
<!-- Node34&#45;&gt;Node3 -->
<g id="edge56" class="edge">
<title>Node34&#45;&gt;Node3</title>
<path fill="none" stroke="midnightblue" d="M492.2,-229.82C494.77,-211.26 500.86,-167.34 504.37,-141.97"/>
<polygon fill="midnightblue" stroke="midnightblue" points="507.88,-142.17 505.78,-131.78 500.94,-141.21 507.88,-142.17"/>
</g>
<!-- Node34&#45;&gt;Node14 -->
<g id="edge57" class="edge">
<title>Node34&#45;&gt;Node14</title>
<path fill="none" stroke="midnightblue" d="M485.13,-229.98C479.04,-221.14 469.36,-207.09 461.7,-195.98"/>
<polygon fill="midnightblue" stroke="midnightblue" points="464.42,-193.76 455.86,-187.51 458.66,-197.73 464.42,-193.76"/>
</g>
<!-- Node35&#45;&gt;Node2 -->
<g id="edge60" class="edge">
<title>Node35&#45;&gt;Node2</title>
<path fill="none" stroke="midnightblue" d="M375.33,-403.08C375.59,-396.01 375.97,-385.86 376.3,-376.99"/>
<polygon fill="midnightblue" stroke="midnightblue" points="379.8,-376.87 376.68,-366.75 372.81,-376.61 379.8,-376.87"/>
</g>
</g>
</svg>
