<?xml version="1.0" encoding="UTF-8" standalone="no"?>
<!DOCTYPE svg PUBLIC "-//W3C//DTD SVG 1.1//EN"
 "http://www.w3.org/Graphics/SVG/1.1/DTD/svg11.dtd">
<!-- Generated by graphviz version 2.43.0 (0)
 -->
<!-- Title: sitkImageReaderBase.h Pages: 1 -->
<svg width="1594pt" height="543pt"
 viewBox="0.00 0.00 1594.10 543.00" xmlns="http://www.w3.org/2000/svg" xmlns:xlink="http://www.w3.org/1999/xlink">
<g id="graph0" class="graph" transform="scale(1 1) rotate(0) translate(4 539)">
<title>sitkImageReaderBase.h</title>
<polygon fill="white" stroke="transparent" points="-4,4 -4,-539 1590.1,-539 1590.1,4 -4,4"/>
<!-- Node1 -->
<g id="node1" class="node">
<title>Node1</title>
<g id="a_node1"><a xlink:title=" ">
<polygon fill="#bfbfbf" stroke="black" points="1139.6,-515.5 1139.6,-534.5 1272.6,-534.5 1272.6,-515.5 1139.6,-515.5"/>
<text text-anchor="middle" x="1206.1" y="-522.5" font-family="Helvetica,sans-Serif" font-size="10.00">sitkImageReaderBase.h</text>
</a>
</g>
</g>
<!-- Node2 -->
<g id="node2" class="node">
<title>Node2</title>
<g id="a_node2"><a xlink:href="sitkProcessObject_8h.html" target="_top" xlink:title=" ">
<polygon fill="white" stroke="black" points="1149.6,-459.5 1149.6,-478.5 1262.6,-478.5 1262.6,-459.5 1149.6,-459.5"/>
<text text-anchor="middle" x="1206.1" y="-466.5" font-family="Helvetica,sans-Serif" font-size="10.00">sitkProcessObject.h</text>
</a>
</g>
</g>
<!-- Node1&#45;&gt;Node2 -->
<g id="edge1" class="edge">
<title>Node1&#45;&gt;Node2</title>
<path fill="none" stroke="midnightblue" d="M1206.1,-515.08C1206.1,-508.01 1206.1,-497.86 1206.1,-488.99"/>
<polygon fill="midnightblue" stroke="midnightblue" points="1209.61,-488.75 1206.1,-478.75 1202.61,-488.75 1209.61,-488.75"/>
</g>
<!-- Node31 -->
<g id="node31" class="node">
<title>Node31</title>
<g id="a_node31"><a xlink:href="sitkPixelIDValues_8h.html" target="_top" xlink:title=" ">
<polygon fill="white" stroke="black" points="734.1,-230 734.1,-249 844.1,-249 844.1,-230 734.1,-230"/>
<text text-anchor="middle" x="789.1" y="-237" font-family="Helvetica,sans-Serif" font-size="10.00">sitkPixelIDValues.h</text>
</a>
</g>
</g>
<!-- Node1&#45;&gt;Node31 -->
<g id="edge64" class="edge">
<title>Node1&#45;&gt;Node31</title>
<path fill="none" stroke="midnightblue" d="M1139.32,-519.87C1023.14,-510.83 796.1,-484.2 796.1,-414 796.1,-414 796.1,-414 796.1,-356 796.1,-321.8 793.01,-282.01 790.94,-259.19"/>
<polygon fill="midnightblue" stroke="midnightblue" points="794.42,-258.81 789.99,-249.18 787.45,-259.47 794.42,-258.81"/>
</g>
<!-- Node38 -->
<g id="node38" class="node">
<title>Node38</title>
<g id="a_node38"><a xlink:href="sitkIO_8h.html" target="_top" xlink:title=" ">
<polygon fill="white" stroke="black" points="1492.1,-347.5 1492.1,-366.5 1546.1,-366.5 1546.1,-347.5 1492.1,-347.5"/>
<text text-anchor="middle" x="1519.1" y="-354.5" font-family="Helvetica,sans-Serif" font-size="10.00">sitkIO.h</text>
</a>
</g>
</g>
<!-- Node1&#45;&gt;Node38 -->
<g id="edge65" class="edge">
<title>Node1&#45;&gt;Node38</title>
<path fill="none" stroke="midnightblue" d="M1224.86,-515.5C1261.4,-498.77 1344.5,-460.01 1412.1,-423 1442.17,-406.54 1475.79,-385.7 1497.18,-372.12"/>
<polygon fill="midnightblue" stroke="midnightblue" points="1499.27,-374.93 1505.82,-366.6 1495.51,-369.03 1499.27,-374.93"/>
</g>
<!-- Node3 -->
<g id="node3" class="node">
<title>Node3</title>
<g id="a_node3"><a xlink:href="sitkCommon_8h.html" target="_top" xlink:title=" ">
<polygon fill="white" stroke="black" points="1053.1,-112.5 1053.1,-131.5 1141.1,-131.5 1141.1,-112.5 1053.1,-112.5"/>
<text text-anchor="middle" x="1097.1" y="-119.5" font-family="Helvetica,sans-Serif" font-size="10.00">sitkCommon.h</text>
</a>
</g>
</g>
<!-- Node2&#45;&gt;Node3 -->
<g id="edge2" class="edge">
<title>Node2&#45;&gt;Node3</title>
<path fill="none" stroke="midnightblue" d="M1262.67,-460C1319.31,-448.43 1398.1,-421 1398.1,-358 1398.1,-358 1398.1,-358 1398.1,-300 1398.1,-229.49 1373.64,-198.58 1310.1,-168 1259.55,-143.67 1196.01,-132.43 1151.54,-127.27"/>
<polygon fill="midnightblue" stroke="midnightblue" points="1151.83,-123.78 1141.51,-126.17 1151.07,-130.74 1151.83,-123.78"/>
</g>
<!-- Node11 -->
<g id="node11" class="node">
<title>Node11</title>
<g id="a_node11"><a xlink:href="sitkNonCopyable_8h.html" target="_top" xlink:title=" ">
<polygon fill="white" stroke="black" points="632.6,-168.5 632.6,-187.5 741.6,-187.5 741.6,-168.5 632.6,-168.5"/>
<text text-anchor="middle" x="687.1" y="-175.5" font-family="Helvetica,sans-Serif" font-size="10.00">sitkNonCopyable.h</text>
</a>
</g>
</g>
<!-- Node2&#45;&gt;Node11 -->
<g id="edge10" class="edge">
<title>Node2&#45;&gt;Node11</title>
<path fill="none" stroke="midnightblue" d="M1149.55,-468.27C1011.42,-467.41 668.1,-455.48 668.1,-358 668.1,-358 668.1,-358 668.1,-300 668.1,-263.29 676.75,-221.06 682.37,-197.45"/>
<polygon fill="midnightblue" stroke="midnightblue" points="685.77,-198.28 684.78,-187.73 678.98,-196.6 685.77,-198.28"/>
</g>
<!-- Node12 -->
<g id="node12" class="node">
<title>Node12</title>
<g id="a_node12"><a xlink:href="sitkTemplateFunctions_8h.html" target="_top" xlink:title=" ">
<polygon fill="white" stroke="black" points="1234.6,-230 1234.6,-249 1369.6,-249 1369.6,-230 1234.6,-230"/>
<text text-anchor="middle" x="1302.1" y="-237" font-family="Helvetica,sans-Serif" font-size="10.00">sitkTemplateFunctions.h</text>
</a>
</g>
</g>
<!-- Node2&#45;&gt;Node12 -->
<g id="edge12" class="edge">
<title>Node2&#45;&gt;Node12</title>
<path fill="none" stroke="midnightblue" d="M1230.54,-459.45C1247.05,-452.34 1267.82,-440.53 1279.1,-423 1312.18,-371.61 1308.66,-295.07 1304.77,-259.7"/>
<polygon fill="midnightblue" stroke="midnightblue" points="1308.2,-258.87 1303.49,-249.38 1301.25,-259.73 1308.2,-258.87"/>
</g>
<!-- Node18 -->
<g id="node18" class="node">
<title>Node18</title>
<g id="a_node18"><a xlink:href="sitkEvent_8h.html" target="_top" xlink:title=" ">
<polygon fill="white" stroke="black" points="1106.6,-230 1106.6,-249 1177.6,-249 1177.6,-230 1106.6,-230"/>
<text text-anchor="middle" x="1142.1" y="-237" font-family="Helvetica,sans-Serif" font-size="10.00">sitkEvent.h</text>
</a>
</g>
</g>
<!-- Node2&#45;&gt;Node18 -->
<g id="edge22" class="edge">
<title>Node2&#45;&gt;Node18</title>
<path fill="none" stroke="midnightblue" d="M1224.19,-459.39C1237.67,-451.87 1255.08,-439.57 1263.1,-423 1266.98,-415 1265.9,-411.44 1263.1,-403 1242.46,-340.7 1187.63,-282.89 1159.42,-256.12"/>
<polygon fill="midnightblue" stroke="midnightblue" points="1161.6,-253.38 1151.9,-249.13 1156.84,-258.5 1161.6,-253.38"/>
</g>
<!-- Node19 -->
<g id="node19" class="node">
<title>Node19</title>
<g id="a_node19"><a xlink:href="sitkImage_8h.html" target="_top" xlink:title=" ">
<polygon fill="white" stroke="black" points="1015.1,-347.5 1015.1,-366.5 1089.1,-366.5 1089.1,-347.5 1015.1,-347.5"/>
<text text-anchor="middle" x="1052.1" y="-354.5" font-family="Helvetica,sans-Serif" font-size="10.00">sitkImage.h</text>
</a>
</g>
</g>
<!-- Node2&#45;&gt;Node19 -->
<g id="edge25" class="edge">
<title>Node2&#45;&gt;Node19</title>
<path fill="none" stroke="midnightblue" d="M1149.5,-463.26C1095.96,-457.47 1021.18,-445.52 1003.1,-423 989.36,-405.87 1010.35,-385.59 1028.98,-372.29"/>
<polygon fill="midnightblue" stroke="midnightblue" points="1031.17,-375.03 1037.5,-366.54 1027.26,-369.23 1031.17,-375.03"/>
</g>
<!-- Node35 -->
<g id="node35" class="node">
<title>Node35</title>
<g id="a_node35"><a xlink:href="sitkImageConvert_8h.html" target="_top" xlink:title=" ">
<polygon fill="white" stroke="black" points="1012.6,-403.5 1012.6,-422.5 1125.6,-422.5 1125.6,-403.5 1012.6,-403.5"/>
<text text-anchor="middle" x="1069.1" y="-410.5" font-family="Helvetica,sans-Serif" font-size="10.00">sitkImageConvert.h</text>
</a>
</g>
</g>
<!-- Node2&#45;&gt;Node35 -->
<g id="edge60" class="edge">
<title>Node2&#45;&gt;Node35</title>
<path fill="none" stroke="midnightblue" d="M1184.4,-459.44C1161.75,-450.52 1126.03,-436.44 1100.35,-426.32"/>
<polygon fill="midnightblue" stroke="midnightblue" points="1101.3,-422.93 1090.71,-422.52 1098.73,-429.44 1101.3,-422.93"/>
</g>
<!-- Node36 -->
<g id="node36" class="node">
<title>Node36</title>
<g id="a_node36"><a xlink:title=" ">
<polygon fill="white" stroke="#bfbfbf" points="1144.1,-403.5 1144.1,-422.5 1204.1,-422.5 1204.1,-403.5 1144.1,-403.5"/>
<text text-anchor="middle" x="1174.1" y="-410.5" font-family="Helvetica,sans-Serif" font-size="10.00">iostream</text>
</a>
</g>
</g>
<!-- Node2&#45;&gt;Node36 -->
<g id="edge62" class="edge">
<title>Node2&#45;&gt;Node36</title>
<path fill="none" stroke="midnightblue" d="M1200.82,-459.08C1196.39,-451.61 1189.94,-440.72 1184.49,-431.52"/>
<polygon fill="midnightblue" stroke="midnightblue" points="1187.4,-429.57 1179.29,-422.75 1181.38,-433.14 1187.4,-429.57"/>
</g>
<!-- Node37 -->
<g id="node37" class="node">
<title>Node37</title>
<g id="a_node37"><a xlink:title=" ">
<polygon fill="white" stroke="#bfbfbf" points="1222.1,-403.5 1222.1,-422.5 1254.1,-422.5 1254.1,-403.5 1222.1,-403.5"/>
<text text-anchor="middle" x="1238.1" y="-410.5" font-family="Helvetica,sans-Serif" font-size="10.00">list</text>
</a>
</g>
</g>
<!-- Node2&#45;&gt;Node37 -->
<g id="edge63" class="edge">
<title>Node2&#45;&gt;Node37</title>
<path fill="none" stroke="midnightblue" d="M1211.39,-459.08C1215.82,-451.61 1222.27,-440.72 1227.72,-431.52"/>
<polygon fill="midnightblue" stroke="midnightblue" points="1230.83,-433.14 1232.92,-422.75 1224.81,-429.57 1230.83,-433.14"/>
</g>
<!-- Node4 -->
<g id="node4" class="node">
<title>Node4</title>
<g id="a_node4"><a xlink:href="sitkMacro_8h.html" target="_top" xlink:title=" ">
<polygon fill="white" stroke="black" points="1060.1,-56.5 1060.1,-75.5 1134.1,-75.5 1134.1,-56.5 1060.1,-56.5"/>
<text text-anchor="middle" x="1097.1" y="-63.5" font-family="Helvetica,sans-Serif" font-size="10.00">sitkMacro.h</text>
</a>
</g>
</g>
<!-- Node3&#45;&gt;Node4 -->
<g id="edge3" class="edge">
<title>Node3&#45;&gt;Node4</title>
<path fill="none" stroke="midnightblue" d="M1097.1,-112.08C1097.1,-105.01 1097.1,-94.86 1097.1,-85.99"/>
<polygon fill="midnightblue" stroke="midnightblue" points="1100.61,-85.75 1097.1,-75.75 1093.61,-85.75 1100.61,-85.75"/>
</g>
<!-- Node5 -->
<g id="node5" class="node">
<title>Node5</title>
<g id="a_node5"><a xlink:title=" ">
<polygon fill="white" stroke="#bfbfbf" points="777.6,-0.5 777.6,-19.5 830.6,-19.5 830.6,-0.5 777.6,-0.5"/>
<text text-anchor="middle" x="804.1" y="-7.5" font-family="Helvetica,sans-Serif" font-size="10.00">stdint.h</text>
</a>
</g>
</g>
<!-- Node4&#45;&gt;Node5 -->
<g id="edge4" class="edge">
<title>Node4&#45;&gt;Node5</title>
<path fill="none" stroke="midnightblue" d="M1060,-58.16C1003.6,-47.77 896.97,-28.12 840.82,-17.77"/>
<polygon fill="midnightblue" stroke="midnightblue" points="841.41,-14.32 830.94,-15.95 840.14,-21.2 841.41,-14.32"/>
</g>
<!-- Node6 -->
<g id="node6" class="node">
<title>Node6</title>
<g id="a_node6"><a xlink:title=" ">
<polygon fill="white" stroke="#bfbfbf" points="1103.1,-0.5 1103.1,-19.5 1159.1,-19.5 1159.1,-0.5 1103.1,-0.5"/>
<text text-anchor="middle" x="1131.1" y="-7.5" font-family="Helvetica,sans-Serif" font-size="10.00">stddef.h</text>
</a>
</g>
</g>
<!-- Node4&#45;&gt;Node6 -->
<g id="edge5" class="edge">
<title>Node4&#45;&gt;Node6</title>
<path fill="none" stroke="midnightblue" d="M1102.72,-56.08C1107.47,-48.53 1114.42,-37.49 1120.26,-28.23"/>
<polygon fill="midnightblue" stroke="midnightblue" points="1123.23,-30.08 1125.6,-19.75 1117.31,-26.35 1123.23,-30.08"/>
</g>
<!-- Node7 -->
<g id="node7" class="node">
<title>Node7</title>
<g id="a_node7"><a xlink:title=" ">
<polygon fill="white" stroke="#bfbfbf" points="1177.1,-0.5 1177.1,-19.5 1229.1,-19.5 1229.1,-0.5 1177.1,-0.5"/>
<text text-anchor="middle" x="1203.1" y="-7.5" font-family="Helvetica,sans-Serif" font-size="10.00">cassert</text>
</a>
</g>
</g>
<!-- Node4&#45;&gt;Node7 -->
<g id="edge6" class="edge">
<title>Node4&#45;&gt;Node7</title>
<path fill="none" stroke="midnightblue" d="M1114.14,-56.32C1131.13,-47.66 1157.48,-34.24 1177.1,-24.25"/>
<polygon fill="midnightblue" stroke="midnightblue" points="1178.79,-27.31 1186.12,-19.65 1175.62,-21.08 1178.79,-27.31"/>
</g>
<!-- Node8 -->
<g id="node8" class="node">
<title>Node8</title>
<g id="a_node8"><a xlink:title=" ">
<polygon fill="white" stroke="#bfbfbf" points="967.1,-0.5 967.1,-19.5 1023.1,-19.5 1023.1,-0.5 967.1,-0.5"/>
<text text-anchor="middle" x="995.1" y="-7.5" font-family="Helvetica,sans-Serif" font-size="10.00">sstream</text>
</a>
</g>
</g>
<!-- Node4&#45;&gt;Node8 -->
<g id="edge7" class="edge">
<title>Node4&#45;&gt;Node8</title>
<path fill="none" stroke="midnightblue" d="M1080.72,-56.32C1064.43,-47.7 1039.24,-34.36 1020.39,-24.39"/>
<polygon fill="midnightblue" stroke="midnightblue" points="1021.93,-21.24 1011.45,-19.65 1018.65,-27.43 1021.93,-21.24"/>
</g>
<!-- Node9 -->
<g id="node9" class="node">
<title>Node9</title>
<g id="a_node9"><a xlink:title=" ">
<polygon fill="white" stroke="#bfbfbf" points="1041.1,-0.5 1041.1,-19.5 1085.1,-19.5 1085.1,-0.5 1041.1,-0.5"/>
<text text-anchor="middle" x="1063.1" y="-7.5" font-family="Helvetica,sans-Serif" font-size="10.00">limits</text>
</a>
</g>
</g>
<!-- Node4&#45;&gt;Node9 -->
<g id="edge8" class="edge">
<title>Node4&#45;&gt;Node9</title>
<path fill="none" stroke="midnightblue" d="M1091.49,-56.08C1086.74,-48.53 1079.79,-37.49 1073.95,-28.23"/>
<polygon fill="midnightblue" stroke="midnightblue" points="1076.9,-26.35 1068.61,-19.75 1070.98,-30.08 1076.9,-26.35"/>
</g>
<!-- Node10 -->
<g id="node10" class="node">
<title>Node10</title>
<g id="a_node10"><a xlink:href="sitkConfigure_8h.html" target="_top" xlink:title=" ">
<polygon fill="white" stroke="black" points="568.1,-0.5 568.1,-19.5 658.1,-19.5 658.1,-0.5 568.1,-0.5"/>
<text text-anchor="middle" x="613.1" y="-7.5" font-family="Helvetica,sans-Serif" font-size="10.00">sitkConfigure.h</text>
</a>
</g>
</g>
<!-- Node4&#45;&gt;Node10 -->
<g id="edge9" class="edge">
<title>Node4&#45;&gt;Node10</title>
<path fill="none" stroke="midnightblue" d="M1059.93,-60.85C975.38,-51.42 768.28,-28.31 668.56,-17.19"/>
<polygon fill="midnightblue" stroke="midnightblue" points="668.71,-13.68 658.38,-16.05 667.93,-20.64 668.71,-13.68"/>
</g>
<!-- Node11&#45;&gt;Node3 -->
<g id="edge11" class="edge">
<title>Node11&#45;&gt;Node3</title>
<path fill="none" stroke="midnightblue" d="M741.97,-169.77C820.6,-159.42 964.44,-140.47 1042.77,-130.16"/>
<polygon fill="midnightblue" stroke="midnightblue" points="1043.46,-133.6 1052.91,-128.82 1042.54,-126.66 1043.46,-133.6"/>
</g>
<!-- Node12&#45;&gt;Node3 -->
<g id="edge14" class="edge">
<title>Node12&#45;&gt;Node3</title>
<path fill="none" stroke="midnightblue" d="M1291.24,-229.94C1273.08,-215.87 1235.08,-187.49 1200.1,-168 1177.4,-155.35 1150.44,-143.68 1129.79,-135.4"/>
<polygon fill="midnightblue" stroke="midnightblue" points="1130.8,-132.03 1120.21,-131.61 1128.23,-138.54 1130.8,-132.03"/>
</g>
<!-- Node12&#45;&gt;Node4 -->
<g id="edge13" class="edge">
<title>Node12&#45;&gt;Node4</title>
<path fill="none" stroke="midnightblue" d="M1362.93,-229.99C1411.52,-221.83 1474.04,-207.83 1490.1,-188 1511.39,-161.74 1515.62,-137.22 1493.1,-112 1470.21,-86.36 1244.25,-73.41 1144.27,-68.9"/>
<polygon fill="midnightblue" stroke="midnightblue" points="1144.29,-65.4 1134.15,-68.45 1143.98,-72.39 1144.29,-65.4"/>
</g>
<!-- Node13 -->
<g id="node13" class="node">
<title>Node13</title>
<g id="a_node13"><a xlink:href="sitkExceptionObject_8h.html" target="_top" xlink:title=" ">
<polygon fill="white" stroke="black" points="1358.6,-168.5 1358.6,-187.5 1481.6,-187.5 1481.6,-168.5 1358.6,-168.5"/>
<text text-anchor="middle" x="1420.1" y="-175.5" font-family="Helvetica,sans-Serif" font-size="10.00">sitkExceptionObject.h</text>
</a>
</g>
</g>
<!-- Node12&#45;&gt;Node13 -->
<g id="edge15" class="edge">
<title>Node12&#45;&gt;Node13</title>
<path fill="none" stroke="midnightblue" d="M1319.01,-229.98C1338.64,-220.08 1371.24,-203.64 1394.1,-192.12"/>
<polygon fill="midnightblue" stroke="midnightblue" points="1395.88,-195.14 1403.23,-187.51 1392.72,-188.89 1395.88,-195.14"/>
</g>
<!-- Node15 -->
<g id="node15" class="node">
<title>Node15</title>
<g id="a_node15"><a xlink:title=" ">
<polygon fill="white" stroke="#bfbfbf" points="1144.6,-168.5 1144.6,-187.5 1191.6,-187.5 1191.6,-168.5 1144.6,-168.5"/>
<text text-anchor="middle" x="1168.1" y="-175.5" font-family="Helvetica,sans-Serif" font-size="10.00">vector</text>
</a>
</g>
</g>
<!-- Node12&#45;&gt;Node15 -->
<g id="edge19" class="edge">
<title>Node12&#45;&gt;Node15</title>
<path fill="none" stroke="midnightblue" d="M1282.91,-229.98C1260.32,-219.95 1222.61,-203.2 1196.6,-191.65"/>
<polygon fill="midnightblue" stroke="midnightblue" points="1197.83,-188.37 1187.27,-187.51 1194.99,-194.77 1197.83,-188.37"/>
</g>
<!-- Node16 -->
<g id="node16" class="node">
<title>Node16</title>
<g id="a_node16"><a xlink:title=" ">
<polygon fill="white" stroke="#bfbfbf" points="992.6,-168.5 992.6,-187.5 1049.6,-187.5 1049.6,-168.5 992.6,-168.5"/>
<text text-anchor="middle" x="1021.1" y="-175.5" font-family="Helvetica,sans-Serif" font-size="10.00">ostream</text>
</a>
</g>
</g>
<!-- Node12&#45;&gt;Node16 -->
<g id="edge20" class="edge">
<title>Node12&#45;&gt;Node16</title>
<path fill="none" stroke="midnightblue" d="M1261.84,-229.98C1207.92,-218.56 1112.9,-198.44 1059.79,-187.19"/>
<polygon fill="midnightblue" stroke="midnightblue" points="1060.26,-183.71 1049.76,-185.07 1058.81,-190.56 1060.26,-183.71"/>
</g>
<!-- Node17 -->
<g id="node17" class="node">
<title>Node17</title>
<g id="a_node17"><a xlink:title=" ">
<polygon fill="white" stroke="#bfbfbf" points="1248.6,-168.5 1248.6,-187.5 1301.6,-187.5 1301.6,-168.5 1248.6,-168.5"/>
<text text-anchor="middle" x="1275.1" y="-175.5" font-family="Helvetica,sans-Serif" font-size="10.00">iterator</text>
</a>
</g>
</g>
<!-- Node12&#45;&gt;Node17 -->
<g id="edge21" class="edge">
<title>Node12&#45;&gt;Node17</title>
<path fill="none" stroke="midnightblue" d="M1298.24,-229.98C1294.31,-221.32 1288.11,-207.65 1283.11,-196.65"/>
<polygon fill="midnightblue" stroke="midnightblue" points="1286.29,-195.17 1278.97,-187.51 1279.91,-198.06 1286.29,-195.17"/>
</g>
<!-- Node13&#45;&gt;Node3 -->
<g id="edge17" class="edge">
<title>Node13&#45;&gt;Node3</title>
<path fill="none" stroke="midnightblue" d="M1368.92,-168.44C1309.57,-158.52 1212.12,-142.23 1151.44,-132.08"/>
<polygon fill="midnightblue" stroke="midnightblue" points="1151.74,-128.59 1141.3,-130.39 1150.58,-135.49 1151.74,-128.59"/>
</g>
<!-- Node13&#45;&gt;Node4 -->
<g id="edge16" class="edge">
<title>Node13&#45;&gt;Node4</title>
<path fill="none" stroke="midnightblue" d="M1395.03,-168.46C1337.79,-148.97 1197.41,-101.16 1131.87,-78.84"/>
<polygon fill="midnightblue" stroke="midnightblue" points="1132.98,-75.52 1122.39,-75.61 1130.73,-82.15 1132.98,-75.52"/>
</g>
<!-- Node14 -->
<g id="node14" class="node">
<title>Node14</title>
<g id="a_node14"><a xlink:title=" ">
<polygon fill="white" stroke="#bfbfbf" points="1426.1,-112.5 1426.1,-131.5 1484.1,-131.5 1484.1,-112.5 1426.1,-112.5"/>
<text text-anchor="middle" x="1455.1" y="-119.5" font-family="Helvetica,sans-Serif" font-size="10.00">memory</text>
</a>
</g>
</g>
<!-- Node13&#45;&gt;Node14 -->
<g id="edge18" class="edge">
<title>Node13&#45;&gt;Node14</title>
<path fill="none" stroke="midnightblue" d="M1425.88,-168.08C1430.78,-160.53 1437.93,-149.49 1443.94,-140.23"/>
<polygon fill="midnightblue" stroke="midnightblue" points="1446.93,-142.05 1449.43,-131.75 1441.06,-138.24 1446.93,-142.05"/>
</g>
<!-- Node18&#45;&gt;Node3 -->
<g id="edge23" class="edge">
<title>Node18&#45;&gt;Node3</title>
<path fill="none" stroke="midnightblue" d="M1138.72,-229.82C1131.43,-211.09 1114.07,-166.55 1104.23,-141.29"/>
<polygon fill="midnightblue" stroke="midnightblue" points="1107.42,-139.83 1100.53,-131.78 1100.9,-142.37 1107.42,-139.83"/>
</g>
<!-- Node18&#45;&gt;Node16 -->
<g id="edge24" class="edge">
<title>Node18&#45;&gt;Node16</title>
<path fill="none" stroke="midnightblue" d="M1124.77,-229.98C1104.55,-220.03 1070.92,-203.49 1047.46,-191.96"/>
<polygon fill="midnightblue" stroke="midnightblue" points="1048.93,-188.78 1038.41,-187.51 1045.84,-195.06 1048.93,-188.78"/>
</g>
<!-- Node19&#45;&gt;Node3 -->
<g id="edge26" class="edge">
<title>Node19&#45;&gt;Node3</title>
<path fill="none" stroke="midnightblue" d="M1053.76,-347.43C1060.28,-313.68 1084.27,-189.47 1093.47,-141.8"/>
<polygon fill="midnightblue" stroke="midnightblue" points="1096.93,-142.38 1095.39,-131.9 1090.05,-141.05 1096.93,-142.38"/>
</g>
<!-- Node19&#45;&gt;Node12 -->
<g id="edge27" class="edge">
<title>Node19&#45;&gt;Node12</title>
<path fill="none" stroke="midnightblue" d="M1089.24,-350.95C1124.5,-345.05 1178.19,-333.14 1220.1,-311 1246.68,-296.96 1272.09,-272.91 1287.39,-256.86"/>
<polygon fill="midnightblue" stroke="midnightblue" points="1290.18,-259 1294.43,-249.29 1285.06,-254.23 1290.18,-259"/>
</g>
<!-- Node19&#45;&gt;Node14 -->
<g id="edge58" class="edge">
<title>Node19&#45;&gt;Node14</title>
<path fill="none" stroke="midnightblue" d="M1089.33,-349.62C1129.36,-342.28 1194.6,-328.88 1249.1,-311 1363.37,-273.51 1430.79,-292.61 1490.1,-188 1499.51,-171.41 1486.16,-152.15 1473.33,-138.92"/>
<polygon fill="midnightblue" stroke="midnightblue" points="1475.65,-136.3 1466.01,-131.9 1470.8,-141.35 1475.65,-136.3"/>
</g>
<!-- Node19&#45;&gt;Node15 -->
<g id="edge57" class="edge">
<title>Node19&#45;&gt;Node15</title>
<path fill="none" stroke="midnightblue" d="M1073.29,-347.46C1104.7,-333.48 1162.45,-302.45 1186.1,-255 1195.42,-236.31 1187.01,-212.6 1178.83,-196.67"/>
<polygon fill="midnightblue" stroke="midnightblue" points="1181.86,-194.91 1173.93,-187.88 1175.74,-198.32 1181.86,-194.91"/>
</g>
<!-- Node20 -->
<g id="node20" class="node">
<title>Node20</title>
<g id="a_node20"><a xlink:href="sitkDetail_8h.html" target="_top" xlink:title=" ">
<polygon fill="white" stroke="black" points="329.6,-291.5 329.6,-310.5 402.6,-310.5 402.6,-291.5 329.6,-291.5"/>
<text text-anchor="middle" x="366.1" y="-298.5" font-family="Helvetica,sans-Serif" font-size="10.00">sitkDetail.h</text>
</a>
</g>
</g>
<!-- Node19&#45;&gt;Node20 -->
<g id="edge28" class="edge">
<title>Node19&#45;&gt;Node20</title>
<path fill="none" stroke="midnightblue" d="M1014.74,-353.06C898.2,-343.89 541.58,-315.81 412.97,-305.69"/>
<polygon fill="midnightblue" stroke="midnightblue" points="412.92,-302.17 402.67,-304.88 412.37,-309.15 412.92,-302.17"/>
</g>
<!-- Node30 -->
<g id="node30" class="node">
<title>Node30</title>
<g id="a_node30"><a xlink:href="sitkPixelIDTokens_8h.html" target="_top" xlink:title=" ">
<polygon fill="white" stroke="black" points="836.1,-291.5 836.1,-310.5 946.1,-310.5 946.1,-291.5 836.1,-291.5"/>
<text text-anchor="middle" x="891.1" y="-298.5" font-family="Helvetica,sans-Serif" font-size="10.00">sitkPixelIDTokens.h</text>
</a>
</g>
</g>
<!-- Node19&#45;&gt;Node30 -->
<g id="edge46" class="edge">
<title>Node19&#45;&gt;Node30</title>
<path fill="none" stroke="midnightblue" d="M1026.59,-347.44C999.51,-338.36 956.51,-323.94 926.24,-313.78"/>
<polygon fill="midnightblue" stroke="midnightblue" points="927.09,-310.38 916.5,-310.52 924.86,-317.01 927.09,-310.38"/>
</g>
<!-- Node33 -->
<g id="node33" class="node">
<title>Node33</title>
<g id="a_node33"><a xlink:title=" ">
<polygon fill="white" stroke="#bfbfbf" points="862.6,-230 862.6,-249 931.6,-249 931.6,-230 862.6,-230"/>
<text text-anchor="middle" x="897.1" y="-237" font-family="Helvetica,sans-Serif" font-size="10.00">type_traits</text>
</a>
</g>
</g>
<!-- Node19&#45;&gt;Node33 -->
<g id="edge59" class="edge">
<title>Node19&#45;&gt;Node33</title>
<path fill="none" stroke="midnightblue" d="M1040.45,-347.32C1014.2,-327.75 950.14,-280.02 917.27,-255.53"/>
<polygon fill="midnightblue" stroke="midnightblue" points="919,-252.45 908.89,-249.28 914.82,-258.06 919,-252.45"/>
</g>
<!-- Node34 -->
<g id="node34" class="node">
<title>Node34</title>
<g id="a_node34"><a xlink:href="sitkInterpolator_8h.html" target="_top" xlink:title=" ">
<polygon fill="white" stroke="black" points="950.1,-230 950.1,-249 1050.1,-249 1050.1,-230 950.1,-230"/>
<text text-anchor="middle" x="1000.1" y="-237" font-family="Helvetica,sans-Serif" font-size="10.00">sitkInterpolator.h</text>
</a>
</g>
</g>
<!-- Node19&#45;&gt;Node34 -->
<g id="edge54" class="edge">
<title>Node19&#45;&gt;Node34</title>
<path fill="none" stroke="midnightblue" d="M1048.2,-347.32C1039.73,-328.51 1019.53,-283.65 1008.19,-258.46"/>
<polygon fill="midnightblue" stroke="midnightblue" points="1011.36,-256.96 1004.06,-249.28 1004.97,-259.84 1011.36,-256.96"/>
</g>
<!-- Node21 -->
<g id="node21" class="node">
<title>Node21</title>
<g id="a_node21"><a xlink:href="sitkMemberFunctionFactoryBase_8h.html" target="_top" xlink:title=" ">
<polygon fill="white" stroke="black" points="182.1,-224.5 182.1,-254.5 334.1,-254.5 334.1,-224.5 182.1,-224.5"/>
<text text-anchor="start" x="190.1" y="-242.5" font-family="Helvetica,sans-Serif" font-size="10.00">sitkMemberFunctionFactory</text>
<text text-anchor="middle" x="258.1" y="-231.5" font-family="Helvetica,sans-Serif" font-size="10.00">Base.h</text>
</a>
</g>
</g>
<!-- Node20&#45;&gt;Node21 -->
<g id="edge29" class="edge">
<title>Node20&#45;&gt;Node21</title>
<path fill="none" stroke="midnightblue" d="M350.63,-291.48C335.53,-283.15 312.03,-270.21 292.49,-259.45"/>
<polygon fill="midnightblue" stroke="midnightblue" points="294.01,-256.28 283.56,-254.52 290.63,-262.41 294.01,-256.28"/>
</g>
<!-- Node26 -->
<g id="node26" class="node">
<title>Node26</title>
<g id="a_node26"><a xlink:title=" ">
<polygon fill="white" stroke="#bfbfbf" points="296.6,-168.5 296.6,-187.5 435.6,-187.5 435.6,-168.5 296.6,-168.5"/>
<text text-anchor="middle" x="366.1" y="-175.5" font-family="Helvetica,sans-Serif" font-size="10.00">Ancillary/FunctionTraits.h</text>
</a>
</g>
</g>
<!-- Node20&#45;&gt;Node26 -->
<g id="edge45" class="edge">
<title>Node20&#45;&gt;Node26</title>
<path fill="none" stroke="midnightblue" d="M366.1,-291.3C366.1,-271.85 366.1,-224.49 366.1,-197.9"/>
<polygon fill="midnightblue" stroke="midnightblue" points="369.61,-197.62 366.1,-187.62 362.61,-197.62 369.61,-197.62"/>
</g>
<!-- Node21&#45;&gt;Node4 -->
<g id="edge38" class="edge">
<title>Node21&#45;&gt;Node4</title>
<path fill="none" stroke="midnightblue" d="M334.11,-233.91C401.47,-228.17 501.78,-215.51 585.1,-188 603.23,-182.02 605.16,-174.49 623.1,-168 774.02,-113.39 963.19,-84.09 1049.83,-72.7"/>
<polygon fill="midnightblue" stroke="midnightblue" points="1050.41,-76.15 1059.88,-71.4 1049.51,-69.21 1050.41,-76.15"/>
</g>
<!-- Node21&#45;&gt;Node10 -->
<g id="edge30" class="edge">
<title>Node21&#45;&gt;Node10</title>
<path fill="none" stroke="midnightblue" d="M181.85,-233.12C118.05,-226.85 34.16,-213.84 13.1,-188 3.75,-176.52 -10.6,-140.69 14.1,-112 84.27,-30.5 422.78,-14.76 557.56,-11.72"/>
<polygon fill="midnightblue" stroke="midnightblue" points="557.75,-15.22 567.68,-11.51 557.6,-8.22 557.75,-15.22"/>
</g>
<!-- Node21&#45;&gt;Node11 -->
<g id="edge39" class="edge">
<title>Node21&#45;&gt;Node11</title>
<path fill="none" stroke="midnightblue" d="M334.31,-227.93C416.23,-216.57 545.06,-198.7 622.28,-187.99"/>
<polygon fill="midnightblue" stroke="midnightblue" points="622.94,-191.43 632.36,-186.59 621.98,-184.5 622.94,-191.43"/>
</g>
<!-- Node22 -->
<g id="node22" class="node">
<title>Node22</title>
<g id="a_node22"><a xlink:href="sitkPixelIDTypes_8h.html" target="_top" xlink:title=" ">
<polygon fill="white" stroke="black" points="23.6,-112.5 23.6,-131.5 128.6,-131.5 128.6,-112.5 23.6,-112.5"/>
<text text-anchor="middle" x="76.1" y="-119.5" font-family="Helvetica,sans-Serif" font-size="10.00">sitkPixelIDTypes.h</text>
</a>
</g>
</g>
<!-- Node21&#45;&gt;Node22 -->
<g id="edge31" class="edge">
<title>Node21&#45;&gt;Node22</title>
<path fill="none" stroke="midnightblue" d="M181.89,-232.51C120.48,-225.91 41.15,-212.77 21.1,-188 6.6,-170.08 30.17,-149.88 50.81,-136.82"/>
<polygon fill="midnightblue" stroke="midnightblue" points="52.87,-139.66 59.65,-131.52 49.28,-133.66 52.87,-139.66"/>
</g>
<!-- Node23 -->
<g id="node23" class="node">
<title>Node23</title>
<g id="a_node23"><a xlink:href="sitkPixelIDTypeLists_8h.html" target="_top" xlink:title=" ">
<polygon fill="white" stroke="black" points="454.1,-168.5 454.1,-187.5 576.1,-187.5 576.1,-168.5 454.1,-168.5"/>
<text text-anchor="middle" x="515.1" y="-175.5" font-family="Helvetica,sans-Serif" font-size="10.00">sitkPixelIDTypeLists.h</text>
</a>
</g>
</g>
<!-- Node21&#45;&gt;Node23 -->
<g id="edge32" class="edge">
<title>Node21&#45;&gt;Node23</title>
<path fill="none" stroke="midnightblue" d="M318.68,-224.47C364.47,-213.87 426.41,-199.53 468.4,-189.81"/>
<polygon fill="midnightblue" stroke="midnightblue" points="469.41,-193.17 478.36,-187.51 467.83,-186.35 469.41,-193.17"/>
</g>
<!-- Node24 -->
<g id="node24" class="node">
<title>Node24</title>
<g id="a_node24"><a xlink:title=" ">
<polygon fill="white" stroke="#bfbfbf" points="252.6,-112.5 252.6,-131.5 371.6,-131.5 371.6,-112.5 252.6,-112.5"/>
<text text-anchor="middle" x="312.1" y="-119.5" font-family="Helvetica,sans-Serif" font-size="10.00">Ancillary/type_list2.h</text>
</a>
</g>
</g>
<!-- Node21&#45;&gt;Node24 -->
<g id="edge40" class="edge">
<title>Node21&#45;&gt;Node24</title>
<path fill="none" stroke="midnightblue" d="M181.88,-237.76C100.71,-234.3 -10.42,-220.31 34.1,-168 60.32,-137.2 168.79,-127.41 242.23,-124.35"/>
<polygon fill="midnightblue" stroke="midnightblue" points="242.49,-127.84 252.35,-123.96 242.22,-120.84 242.49,-127.84"/>
</g>
<!-- Node21&#45;&gt;Node26 -->
<g id="edge41" class="edge">
<title>Node21&#45;&gt;Node26</title>
<path fill="none" stroke="midnightblue" d="M283.7,-224.4C301.17,-214.77 324.19,-202.09 341.46,-192.58"/>
<polygon fill="midnightblue" stroke="midnightblue" points="343.32,-195.55 350.39,-187.66 339.94,-189.42 343.32,-195.55"/>
</g>
<!-- Node27 -->
<g id="node27" class="node">
<title>Node27</title>
<g id="a_node27"><a xlink:title=" ">
<polygon fill="white" stroke="#bfbfbf" points="43.6,-168.5 43.6,-187.5 136.6,-187.5 136.6,-168.5 43.6,-168.5"/>
<text text-anchor="middle" x="90.1" y="-175.5" font-family="Helvetica,sans-Serif" font-size="10.00">unordered_map</text>
</a>
</g>
</g>
<!-- Node21&#45;&gt;Node27 -->
<g id="edge42" class="edge">
<title>Node21&#45;&gt;Node27</title>
<path fill="none" stroke="midnightblue" d="M218.29,-224.4C189.6,-214.24 151.3,-200.67 124.05,-191.02"/>
<polygon fill="midnightblue" stroke="midnightblue" points="125.15,-187.7 114.55,-187.66 122.81,-194.3 125.15,-187.7"/>
</g>
<!-- Node28 -->
<g id="node28" class="node">
<title>Node28</title>
<g id="a_node28"><a xlink:title=" ">
<polygon fill="white" stroke="#bfbfbf" points="154.6,-168.5 154.6,-187.5 219.6,-187.5 219.6,-168.5 154.6,-168.5"/>
<text text-anchor="middle" x="187.1" y="-175.5" font-family="Helvetica,sans-Serif" font-size="10.00">functional</text>
</a>
</g>
</g>
<!-- Node21&#45;&gt;Node28 -->
<g id="edge43" class="edge">
<title>Node21&#45;&gt;Node28</title>
<path fill="none" stroke="midnightblue" d="M241.28,-224.4C230.43,-215.31 216.33,-203.49 205.23,-194.19"/>
<polygon fill="midnightblue" stroke="midnightblue" points="207.35,-191.4 197.44,-187.66 202.85,-196.76 207.35,-191.4"/>
</g>
<!-- Node29 -->
<g id="node29" class="node">
<title>Node29</title>
<g id="a_node29"><a xlink:title=" ">
<polygon fill="white" stroke="#bfbfbf" points="237.6,-168.5 237.6,-187.5 278.6,-187.5 278.6,-168.5 237.6,-168.5"/>
<text text-anchor="middle" x="258.1" y="-175.5" font-family="Helvetica,sans-Serif" font-size="10.00">tuple</text>
</a>
</g>
</g>
<!-- Node21&#45;&gt;Node29 -->
<g id="edge44" class="edge">
<title>Node21&#45;&gt;Node29</title>
<path fill="none" stroke="midnightblue" d="M258.1,-224.4C258.1,-216.47 258.1,-206.46 258.1,-197.86"/>
<polygon fill="midnightblue" stroke="midnightblue" points="261.61,-197.66 258.1,-187.66 254.61,-197.66 261.61,-197.66"/>
</g>
<!-- Node23&#45;&gt;Node5 -->
<g id="edge33" class="edge">
<title>Node23&#45;&gt;Node5</title>
<path fill="none" stroke="midnightblue" d="M524.12,-168.19C538.07,-154.87 566.11,-129.33 593.1,-112 652.91,-73.62 729.53,-40.52 772.05,-23.41"/>
<polygon fill="midnightblue" stroke="midnightblue" points="773.59,-26.57 781.59,-19.61 771,-20.06 773.59,-26.57"/>
</g>
<!-- Node23&#45;&gt;Node10 -->
<g id="edge34" class="edge">
<title>Node23&#45;&gt;Node10</title>
<path fill="none" stroke="midnightblue" d="M502.22,-168.34C485.91,-156.22 461.16,-133.3 472.1,-112 494.71,-68 546.37,-38.88 580.48,-23.66"/>
<polygon fill="midnightblue" stroke="midnightblue" points="582.22,-26.72 590.03,-19.56 579.46,-20.29 582.22,-26.72"/>
</g>
<!-- Node23&#45;&gt;Node22 -->
<g id="edge35" class="edge">
<title>Node23&#45;&gt;Node22</title>
<path fill="none" stroke="midnightblue" d="M453.92,-169.23C450.6,-168.81 447.31,-168.4 444.1,-168 336.89,-154.65 212.06,-139.46 138.81,-130.58"/>
<polygon fill="midnightblue" stroke="midnightblue" points="139.18,-127.1 128.83,-129.37 138.33,-134.05 139.18,-127.1"/>
</g>
<!-- Node23&#45;&gt;Node24 -->
<g id="edge36" class="edge">
<title>Node23&#45;&gt;Node24</title>
<path fill="none" stroke="midnightblue" d="M482.94,-168.44C448.05,-159.16 392.21,-144.31 353.93,-134.13"/>
<polygon fill="midnightblue" stroke="midnightblue" points="354.68,-130.7 344.12,-131.52 352.88,-137.47 354.68,-130.7"/>
</g>
<!-- Node25 -->
<g id="node25" class="node">
<title>Node25</title>
<g id="a_node25"><a xlink:title=" ">
<polygon fill="white" stroke="#bfbfbf" points="481.6,-112.5 481.6,-131.5 540.6,-131.5 540.6,-112.5 481.6,-112.5"/>
<text text-anchor="middle" x="511.1" y="-119.5" font-family="Helvetica,sans-Serif" font-size="10.00">complex</text>
</a>
</g>
</g>
<!-- Node23&#45;&gt;Node25 -->
<g id="edge37" class="edge">
<title>Node23&#45;&gt;Node25</title>
<path fill="none" stroke="midnightblue" d="M514.44,-168.08C513.92,-161.01 513.17,-150.86 512.51,-141.99"/>
<polygon fill="midnightblue" stroke="midnightblue" points="515.98,-141.47 511.75,-131.75 509,-141.98 515.98,-141.47"/>
</g>
<!-- Node30&#45;&gt;Node10 -->
<g id="edge47" class="edge">
<title>Node30&#45;&gt;Node10</title>
<path fill="none" stroke="midnightblue" d="M835.86,-292.32C793,-285.1 738.67,-272.73 725.1,-255 716.73,-244.06 720.99,-237.15 725.1,-224 730.93,-205.41 744.28,-206.59 750.1,-188 752.76,-179.52 753.23,-176.32 750.1,-168 726.54,-105.15 665.16,-50.93 633.16,-25.84"/>
<polygon fill="midnightblue" stroke="midnightblue" points="635.04,-22.87 624.97,-19.56 630.78,-28.42 635.04,-22.87"/>
</g>
<!-- Node30&#45;&gt;Node31 -->
<g id="edge48" class="edge">
<title>Node30&#45;&gt;Node31</title>
<path fill="none" stroke="midnightblue" d="M876.49,-291.48C859.75,-281.71 832.1,-265.58 812.39,-254.08"/>
<polygon fill="midnightblue" stroke="midnightblue" points="814.09,-251.02 803.69,-249.01 810.57,-257.07 814.09,-251.02"/>
</g>
<!-- Node30&#45;&gt;Node33 -->
<g id="edge53" class="edge">
<title>Node30&#45;&gt;Node33</title>
<path fill="none" stroke="midnightblue" d="M891.96,-291.48C892.81,-283.08 894.13,-269.98 895.22,-259.16"/>
<polygon fill="midnightblue" stroke="midnightblue" points="898.73,-259.31 896.25,-249.01 891.76,-258.61 898.73,-259.31"/>
</g>
<!-- Node31&#45;&gt;Node3 -->
<g id="edge49" class="edge">
<title>Node31&#45;&gt;Node3</title>
<path fill="none" stroke="midnightblue" d="M811.28,-229.94C845.96,-216.58 915.18,-190.01 974.1,-168 1004.43,-156.67 1039.08,-144.03 1063.85,-135.03"/>
<polygon fill="midnightblue" stroke="midnightblue" points="1065.28,-138.23 1073.49,-131.53 1062.9,-131.65 1065.28,-138.23"/>
</g>
<!-- Node31&#45;&gt;Node16 -->
<g id="edge52" class="edge">
<title>Node31&#45;&gt;Node16</title>
<path fill="none" stroke="midnightblue" d="M822.34,-229.98C864.66,-219.12 937.62,-200.41 982.39,-188.93"/>
<polygon fill="midnightblue" stroke="midnightblue" points="983.5,-192.26 992.32,-186.38 981.76,-185.48 983.5,-192.26"/>
</g>
<!-- Node31&#45;&gt;Node23 -->
<g id="edge50" class="edge">
<title>Node31&#45;&gt;Node23</title>
<path fill="none" stroke="midnightblue" d="M749.85,-229.98C700.91,-219.35 617.27,-201.18 564.16,-189.65"/>
<polygon fill="midnightblue" stroke="midnightblue" points="564.8,-186.21 554.29,-187.51 563.32,-193.05 564.8,-186.21"/>
</g>
<!-- Node32 -->
<g id="node32" class="node">
<title>Node32</title>
<g id="a_node32"><a xlink:title=" ">
<polygon fill="white" stroke="#bfbfbf" points="798.1,-168.5 798.1,-187.5 842.1,-187.5 842.1,-168.5 798.1,-168.5"/>
<text text-anchor="middle" x="820.1" y="-175.5" font-family="Helvetica,sans-Serif" font-size="10.00">string</text>
</a>
</g>
</g>
<!-- Node31&#45;&gt;Node32 -->
<g id="edge51" class="edge">
<title>Node31&#45;&gt;Node32</title>
<path fill="none" stroke="midnightblue" d="M793.55,-229.98C798.06,-221.32 805.18,-207.65 810.91,-196.65"/>
<polygon fill="midnightblue" stroke="midnightblue" points="814.16,-197.99 815.67,-187.51 807.95,-194.76 814.16,-197.99"/>
</g>
<!-- Node34&#45;&gt;Node3 -->
<g id="edge55" class="edge">
<title>Node34&#45;&gt;Node3</title>
<path fill="none" stroke="midnightblue" d="M994.03,-229.91C984.88,-215.81 969.93,-187.36 983.1,-168 996.71,-148 1020.71,-136.89 1043.19,-130.72"/>
<polygon fill="midnightblue" stroke="midnightblue" points="1044.17,-134.08 1053.04,-128.29 1042.49,-127.29 1044.17,-134.08"/>
</g>
<!-- Node34&#45;&gt;Node16 -->
<g id="edge56" class="edge">
<title>Node34&#45;&gt;Node16</title>
<path fill="none" stroke="midnightblue" d="M1003.11,-229.98C1006.14,-221.4 1010.9,-207.93 1014.76,-196.98"/>
<polygon fill="midnightblue" stroke="midnightblue" points="1018.07,-198.1 1018.1,-187.51 1011.47,-195.77 1018.07,-198.1"/>
</g>
<!-- Node35&#45;&gt;Node19 -->
<g id="edge61" class="edge">
<title>Node35&#45;&gt;Node19</title>
<path fill="none" stroke="midnightblue" d="M1066.3,-403.08C1064.02,-395.85 1060.73,-385.41 1057.9,-376.4"/>
<polygon fill="midnightblue" stroke="midnightblue" points="1061.2,-375.24 1054.86,-366.75 1054.52,-377.34 1061.2,-375.24"/>
</g>
<!-- Node38&#45;&gt;Node4 -->
<g id="edge66" class="edge">
<title>Node38&#45;&gt;Node4</title>
<path fill="none" stroke="midnightblue" d="M1528.42,-347.43C1546.83,-329.5 1586.1,-285.94 1586.1,-240.5 1586.1,-240.5 1586.1,-240.5 1586.1,-177 1586.1,-133.89 1553.45,-129.62 1514.1,-112 1449.01,-82.86 1239.34,-71.96 1144.49,-68.46"/>
<polygon fill="midnightblue" stroke="midnightblue" points="1144.44,-64.95 1134.32,-68.09 1144.19,-71.95 1144.44,-64.95"/>
</g>
</g>
</svg>
