<?xml version="1.0" encoding="UTF-8" standalone="no"?>
<!DOCTYPE svg PUBLIC "-//W3C//DTD SVG 1.1//EN"
 "http://www.w3.org/Graphics/SVG/1.1/DTD/svg11.dtd">
<!-- Generated by graphviz version 2.43.0 (0)
 -->
<!-- Title: sitkBasicFilters.h Pages: 1 -->
<svg width="1732pt" height="487pt"
 viewBox="0.00 0.00 1732.00 487.00" xmlns="http://www.w3.org/2000/svg" xmlns:xlink="http://www.w3.org/1999/xlink">
<g id="graph0" class="graph" transform="scale(1 1) rotate(0) translate(4 483)">
<title>sitkBasicFilters.h</title>
<polygon fill="white" stroke="transparent" points="-4,4 -4,-483 1728,-483 1728,4 -4,4"/>
<!-- Node1 -->
<g id="node1" class="node">
<title>Node1</title>
<g id="a_node1"><a xlink:title=" ">
<polygon fill="#bfbfbf" stroke="black" points="268,-459.5 268,-478.5 368,-478.5 368,-459.5 268,-459.5"/>
<text text-anchor="middle" x="318" y="-466.5" font-family="Helvetica,sans-Serif" font-size="10.00">sitkBasicFilters.h</text>
</a>
</g>
</g>
<!-- Node2 -->
<g id="node2" class="node">
<title>Node2</title>
<g id="a_node2"><a xlink:href="sitkMacro_8h.html" target="_top" xlink:title=" ">
<polygon fill="white" stroke="black" points="811,-56.5 811,-75.5 885,-75.5 885,-56.5 811,-56.5"/>
<text text-anchor="middle" x="848" y="-63.5" font-family="Helvetica,sans-Serif" font-size="10.00">sitkMacro.h</text>
</a>
</g>
</g>
<!-- Node1&#45;&gt;Node2 -->
<g id="edge1" class="edge">
<title>Node1&#45;&gt;Node2</title>
<path fill="none" stroke="midnightblue" d="M368.05,-465.33C527,-456.18 1010,-423.04 1010,-358 1010,-358 1010,-358 1010,-300 1010,-262.43 1001.14,-248.88 973,-224 936.04,-191.32 899.86,-225.66 868,-188 843.44,-158.97 843.41,-111.56 845.64,-85.54"/>
<polygon fill="midnightblue" stroke="midnightblue" points="849.13,-85.84 846.71,-75.53 842.17,-85.1 849.13,-85.84"/>
</g>
<!-- Node9 -->
<g id="node9" class="node">
<title>Node9</title>
<g id="a_node9"><a xlink:href="sitkInterpolator_8h.html" target="_top" xlink:title=" ">
<polygon fill="white" stroke="black" points="186,-291.5 186,-310.5 286,-310.5 286,-291.5 186,-291.5"/>
<text text-anchor="middle" x="236" y="-298.5" font-family="Helvetica,sans-Serif" font-size="10.00">sitkInterpolator.h</text>
</a>
</g>
</g>
<!-- Node1&#45;&gt;Node9 -->
<g id="edge8" class="edge">
<title>Node1&#45;&gt;Node9</title>
<path fill="none" stroke="midnightblue" d="M313.59,-459.08C300.57,-432.72 262.12,-354.88 244.72,-319.66"/>
<polygon fill="midnightblue" stroke="midnightblue" points="247.8,-317.98 240.23,-310.57 241.52,-321.08 247.8,-317.98"/>
</g>
<!-- Node12 -->
<g id="node12" class="node">
<title>Node12</title>
<g id="a_node12"><a xlink:href="sitkRandomSeed_8h.html" target="_top" xlink:title=" ">
<polygon fill="white" stroke="black" points="0,-347.5 0,-366.5 108,-366.5 108,-347.5 0,-347.5"/>
<text text-anchor="middle" x="54" y="-354.5" font-family="Helvetica,sans-Serif" font-size="10.00">sitkRandomSeed.h</text>
</a>
</g>
</g>
<!-- Node1&#45;&gt;Node12 -->
<g id="edge12" class="edge">
<title>Node1&#45;&gt;Node12</title>
<path fill="none" stroke="midnightblue" d="M267.69,-462.17C228.99,-456.21 175.04,-444.65 132,-423 107.29,-410.57 83.56,-388.95 68.9,-374.08"/>
<polygon fill="midnightblue" stroke="midnightblue" points="71.19,-371.41 61.74,-366.62 66.13,-376.26 71.19,-371.41"/>
</g>
<!-- Node13 -->
<g id="node13" class="node">
<title>Node13</title>
<g id="a_node13"><a xlink:href="sitkKernel_8h.html" target="_top" xlink:title=" ">
<polygon fill="white" stroke="black" points="109,-230 109,-249 183,-249 183,-230 109,-230"/>
<text text-anchor="middle" x="146" y="-237" font-family="Helvetica,sans-Serif" font-size="10.00">sitkKernel.h</text>
</a>
</g>
</g>
<!-- Node1&#45;&gt;Node13 -->
<g id="edge14" class="edge">
<title>Node1&#45;&gt;Node13</title>
<path fill="none" stroke="midnightblue" d="M308.29,-459.3C283.64,-436.82 217.72,-374.11 177,-311 166.27,-294.37 157.58,-273.39 152.16,-258.66"/>
<polygon fill="midnightblue" stroke="midnightblue" points="155.45,-257.45 148.81,-249.19 148.85,-259.78 155.45,-257.45"/>
</g>
<!-- Node14 -->
<g id="node14" class="node">
<title>Node14</title>
<g id="a_node14"><a xlink:href="sitkTransform_8h.html" target="_top" xlink:title=" ">
<polygon fill="white" stroke="black" points="457,-403.5 457,-422.5 549,-422.5 549,-403.5 457,-403.5"/>
<text text-anchor="middle" x="503" y="-410.5" font-family="Helvetica,sans-Serif" font-size="10.00">sitkTransform.h</text>
</a>
</g>
</g>
<!-- Node1&#45;&gt;Node14 -->
<g id="edge17" class="edge">
<title>Node1&#45;&gt;Node14</title>
<path fill="none" stroke="midnightblue" d="M347.31,-459.44C378.84,-450.24 429.13,-435.56 463.99,-425.39"/>
<polygon fill="midnightblue" stroke="midnightblue" points="465.2,-428.68 473.82,-422.52 463.24,-421.96 465.2,-428.68"/>
</g>
<!-- Node37 -->
<g id="node37" class="node">
<title>Node37</title>
<g id="a_node37"><a xlink:title=" ">
<polygon fill="white" stroke="#bfbfbf" points="1038,-403.5 1038,-422.5 1076,-422.5 1076,-403.5 1038,-403.5"/>
<text text-anchor="middle" x="1057" y="-410.5" font-family="Helvetica,sans-Serif" font-size="10.00">map</text>
</a>
</g>
</g>
<!-- Node1&#45;&gt;Node37 -->
<g id="edge66" class="edge">
<title>Node1&#45;&gt;Node37</title>
<path fill="none" stroke="midnightblue" d="M368.04,-468.27C484.14,-468.16 780.49,-463.54 1024,-423 1025.29,-422.79 1026.59,-422.54 1027.91,-422.28"/>
<polygon fill="midnightblue" stroke="midnightblue" points="1029.03,-425.61 1037.95,-419.9 1027.41,-418.8 1029.03,-425.61"/>
</g>
<!-- Node3 -->
<g id="node3" class="node">
<title>Node3</title>
<g id="a_node3"><a xlink:title=" ">
<polygon fill="white" stroke="#bfbfbf" points="1252.5,-0.5 1252.5,-19.5 1305.5,-19.5 1305.5,-0.5 1252.5,-0.5"/>
<text text-anchor="middle" x="1279" y="-7.5" font-family="Helvetica,sans-Serif" font-size="10.00">stdint.h</text>
</a>
</g>
</g>
<!-- Node2&#45;&gt;Node3 -->
<g id="edge2" class="edge">
<title>Node2&#45;&gt;Node3</title>
<path fill="none" stroke="midnightblue" d="M885.12,-60.35C966.71,-50.13 1160.83,-25.81 1242.16,-15.62"/>
<polygon fill="midnightblue" stroke="midnightblue" points="1242.92,-19.05 1252.41,-14.33 1242.05,-12.1 1242.92,-19.05"/>
</g>
<!-- Node4 -->
<g id="node4" class="node">
<title>Node4</title>
<g id="a_node4"><a xlink:title=" ">
<polygon fill="white" stroke="#bfbfbf" points="854,-0.5 854,-19.5 910,-19.5 910,-0.5 854,-0.5"/>
<text text-anchor="middle" x="882" y="-7.5" font-family="Helvetica,sans-Serif" font-size="10.00">stddef.h</text>
</a>
</g>
</g>
<!-- Node2&#45;&gt;Node4 -->
<g id="edge3" class="edge">
<title>Node2&#45;&gt;Node4</title>
<path fill="none" stroke="midnightblue" d="M853.61,-56.08C858.37,-48.53 865.32,-37.49 871.15,-28.23"/>
<polygon fill="midnightblue" stroke="midnightblue" points="874.12,-30.08 876.49,-19.75 868.2,-26.35 874.12,-30.08"/>
</g>
<!-- Node5 -->
<g id="node5" class="node">
<title>Node5</title>
<g id="a_node5"><a xlink:title=" ">
<polygon fill="white" stroke="#bfbfbf" points="928,-0.5 928,-19.5 980,-19.5 980,-0.5 928,-0.5"/>
<text text-anchor="middle" x="954" y="-7.5" font-family="Helvetica,sans-Serif" font-size="10.00">cassert</text>
</a>
</g>
</g>
<!-- Node2&#45;&gt;Node5 -->
<g id="edge4" class="edge">
<title>Node2&#45;&gt;Node5</title>
<path fill="none" stroke="midnightblue" d="M865.03,-56.32C882.03,-47.66 908.38,-34.24 927.99,-24.25"/>
<polygon fill="midnightblue" stroke="midnightblue" points="929.69,-27.31 937.01,-19.65 926.51,-21.08 929.69,-27.31"/>
</g>
<!-- Node6 -->
<g id="node6" class="node">
<title>Node6</title>
<g id="a_node6"><a xlink:title=" ">
<polygon fill="white" stroke="#bfbfbf" points="718,-0.5 718,-19.5 774,-19.5 774,-0.5 718,-0.5"/>
<text text-anchor="middle" x="746" y="-7.5" font-family="Helvetica,sans-Serif" font-size="10.00">sstream</text>
</a>
</g>
</g>
<!-- Node2&#45;&gt;Node6 -->
<g id="edge5" class="edge">
<title>Node2&#45;&gt;Node6</title>
<path fill="none" stroke="midnightblue" d="M831.61,-56.32C815.33,-47.7 790.13,-34.36 771.28,-24.39"/>
<polygon fill="midnightblue" stroke="midnightblue" points="772.82,-21.24 762.35,-19.65 769.55,-27.43 772.82,-21.24"/>
</g>
<!-- Node7 -->
<g id="node7" class="node">
<title>Node7</title>
<g id="a_node7"><a xlink:title=" ">
<polygon fill="white" stroke="#bfbfbf" points="792,-0.5 792,-19.5 836,-19.5 836,-0.5 792,-0.5"/>
<text text-anchor="middle" x="814" y="-7.5" font-family="Helvetica,sans-Serif" font-size="10.00">limits</text>
</a>
</g>
</g>
<!-- Node2&#45;&gt;Node7 -->
<g id="edge6" class="edge">
<title>Node2&#45;&gt;Node7</title>
<path fill="none" stroke="midnightblue" d="M842.39,-56.08C837.63,-48.53 830.68,-37.49 824.85,-28.23"/>
<polygon fill="midnightblue" stroke="midnightblue" points="827.8,-26.35 819.51,-19.75 821.88,-30.08 827.8,-26.35"/>
</g>
<!-- Node8 -->
<g id="node8" class="node">
<title>Node8</title>
<g id="a_node8"><a xlink:href="sitkConfigure_8h.html" target="_top" xlink:title=" ">
<polygon fill="white" stroke="black" points="1622,-0.5 1622,-19.5 1712,-19.5 1712,-0.5 1622,-0.5"/>
<text text-anchor="middle" x="1667" y="-7.5" font-family="Helvetica,sans-Serif" font-size="10.00">sitkConfigure.h</text>
</a>
</g>
</g>
<!-- Node2&#45;&gt;Node8 -->
<g id="edge7" class="edge">
<title>Node2&#45;&gt;Node8</title>
<path fill="none" stroke="midnightblue" d="M885.05,-62.56C1015.7,-53.94 1455.46,-24.95 1611.51,-14.66"/>
<polygon fill="midnightblue" stroke="midnightblue" points="1612.06,-18.13 1621.81,-13.98 1611.6,-11.15 1612.06,-18.13"/>
</g>
<!-- Node10 -->
<g id="node10" class="node">
<title>Node10</title>
<g id="a_node10"><a xlink:href="sitkCommon_8h.html" target="_top" xlink:title=" ">
<polygon fill="white" stroke="black" points="342,-112.5 342,-131.5 430,-131.5 430,-112.5 342,-112.5"/>
<text text-anchor="middle" x="386" y="-119.5" font-family="Helvetica,sans-Serif" font-size="10.00">sitkCommon.h</text>
</a>
</g>
</g>
<!-- Node9&#45;&gt;Node10 -->
<g id="edge9" class="edge">
<title>Node9&#45;&gt;Node10</title>
<path fill="none" stroke="midnightblue" d="M232.26,-291.18C223.16,-268.23 202.63,-205.78 231,-168 243.33,-151.58 292.36,-139.21 332.01,-131.64"/>
<polygon fill="midnightblue" stroke="midnightblue" points="332.67,-135.07 341.87,-129.81 331.4,-128.19 332.67,-135.07"/>
</g>
<!-- Node11 -->
<g id="node11" class="node">
<title>Node11</title>
<g id="a_node11"><a xlink:title=" ">
<polygon fill="white" stroke="#bfbfbf" points="239.5,-168.5 239.5,-187.5 296.5,-187.5 296.5,-168.5 239.5,-168.5"/>
<text text-anchor="middle" x="268" y="-175.5" font-family="Helvetica,sans-Serif" font-size="10.00">ostream</text>
</a>
</g>
</g>
<!-- Node9&#45;&gt;Node11 -->
<g id="edge11" class="edge">
<title>Node9&#45;&gt;Node11</title>
<path fill="none" stroke="midnightblue" d="M238.3,-291.3C243.47,-271.76 256.08,-224.06 263.09,-197.55"/>
<polygon fill="midnightblue" stroke="midnightblue" points="266.55,-198.19 265.72,-187.62 259.78,-196.4 266.55,-198.19"/>
</g>
<!-- Node10&#45;&gt;Node2 -->
<g id="edge10" class="edge">
<title>Node10&#45;&gt;Node2</title>
<path fill="none" stroke="midnightblue" d="M430.3,-115.82C517.52,-105.63 710.83,-83.03 800.54,-72.55"/>
<polygon fill="midnightblue" stroke="midnightblue" points="801.18,-76 810.7,-71.36 800.36,-69.04 801.18,-76"/>
</g>
<!-- Node12&#45;&gt;Node10 -->
<g id="edge13" class="edge">
<title>Node12&#45;&gt;Node10</title>
<path fill="none" stroke="midnightblue" d="M51.33,-347.45C42.69,-318 18.84,-219.71 67,-168 101.91,-130.52 250.17,-123.63 331.71,-122.75"/>
<polygon fill="midnightblue" stroke="midnightblue" points="331.82,-126.25 341.79,-122.67 331.76,-119.25 331.82,-126.25"/>
</g>
<!-- Node13&#45;&gt;Node10 -->
<g id="edge15" class="edge">
<title>Node13&#45;&gt;Node10</title>
<path fill="none" stroke="midnightblue" d="M149.89,-229.56C156.95,-214.4 173.39,-183.78 197,-168 237.12,-141.19 291.41,-130.29 331.52,-125.89"/>
<polygon fill="midnightblue" stroke="midnightblue" points="332.04,-129.36 341.65,-124.89 331.35,-122.39 332.04,-129.36"/>
</g>
<!-- Node13&#45;&gt;Node11 -->
<g id="edge16" class="edge">
<title>Node13&#45;&gt;Node11</title>
<path fill="none" stroke="midnightblue" d="M163.48,-229.98C183.86,-220.03 217.78,-203.49 241.42,-191.96"/>
<polygon fill="midnightblue" stroke="midnightblue" points="243.1,-195.04 250.55,-187.51 240.03,-188.75 243.1,-195.04"/>
</g>
<!-- Node14&#45;&gt;Node10 -->
<g id="edge18" class="edge">
<title>Node14&#45;&gt;Node10</title>
<path fill="none" stroke="midnightblue" d="M456.93,-411.74C366,-408.33 166.53,-385.64 100,-255 52.47,-161.67 236.13,-134.1 331.66,-126.14"/>
<polygon fill="midnightblue" stroke="midnightblue" points="332.05,-129.62 341.74,-125.35 331.5,-122.64 332.05,-129.62"/>
</g>
<!-- Node15 -->
<g id="node15" class="node">
<title>Node15</title>
<g id="a_node15"><a xlink:href="sitkExceptionObject_8h.html" target="_top" xlink:title=" ">
<polygon fill="white" stroke="black" points="391.5,-230 391.5,-249 514.5,-249 514.5,-230 391.5,-230"/>
<text text-anchor="middle" x="453" y="-237" font-family="Helvetica,sans-Serif" font-size="10.00">sitkExceptionObject.h</text>
</a>
</g>
</g>
<!-- Node14&#45;&gt;Node15 -->
<g id="edge19" class="edge">
<title>Node14&#45;&gt;Node15</title>
<path fill="none" stroke="midnightblue" d="M500.45,-403.26C492.66,-376.54 469.04,-295.52 458.35,-258.86"/>
<polygon fill="midnightblue" stroke="midnightblue" points="461.64,-257.64 455.48,-249.02 454.92,-259.6 461.64,-257.64"/>
</g>
<!-- Node17 -->
<g id="node17" class="node">
<title>Node17</title>
<g id="a_node17"><a xlink:href="sitkImage_8h.html" target="_top" xlink:title=" ">
<polygon fill="white" stroke="black" points="515,-347.5 515,-366.5 589,-366.5 589,-347.5 515,-347.5"/>
<text text-anchor="middle" x="552" y="-354.5" font-family="Helvetica,sans-Serif" font-size="10.00">sitkImage.h</text>
</a>
</g>
</g>
<!-- Node14&#45;&gt;Node17 -->
<g id="edge23" class="edge">
<title>Node14&#45;&gt;Node17</title>
<path fill="none" stroke="midnightblue" d="M511.09,-403.08C518.16,-395.3 528.59,-383.8 537.15,-374.37"/>
<polygon fill="midnightblue" stroke="midnightblue" points="539.93,-376.51 544.06,-366.75 534.75,-371.8 539.93,-376.51"/>
</g>
<!-- Node19 -->
<g id="node19" class="node">
<title>Node19</title>
<g id="a_node19"><a xlink:title=" ">
<polygon fill="white" stroke="#bfbfbf" points="681.5,-230 681.5,-249 728.5,-249 728.5,-230 681.5,-230"/>
<text text-anchor="middle" x="705" y="-237" font-family="Helvetica,sans-Serif" font-size="10.00">vector</text>
</a>
</g>
</g>
<!-- Node14&#45;&gt;Node19 -->
<g id="edge65" class="edge">
<title>Node14&#45;&gt;Node19</title>
<path fill="none" stroke="midnightblue" d="M526.43,-403.46C546.41,-395.6 575.4,-382.77 598,-367 641.27,-336.79 677.48,-284.91 694.52,-257.93"/>
<polygon fill="midnightblue" stroke="midnightblue" points="697.63,-259.56 699.91,-249.21 691.68,-255.88 697.63,-259.56"/>
</g>
<!-- Node36 -->
<g id="node36" class="node">
<title>Node36</title>
<g id="a_node36"><a xlink:href="sitkPathType_8h.html" target="_top" xlink:title=" ">
<polygon fill="white" stroke="black" points="808.5,-347.5 808.5,-366.5 895.5,-366.5 895.5,-347.5 808.5,-347.5"/>
<text text-anchor="middle" x="852" y="-354.5" font-family="Helvetica,sans-Serif" font-size="10.00">sitkPathType.h</text>
</a>
</g>
</g>
<!-- Node14&#45;&gt;Node36 -->
<g id="edge63" class="edge">
<title>Node14&#45;&gt;Node36</title>
<path fill="none" stroke="midnightblue" d="M549.34,-404.83C613.81,-394.86 730.27,-376.84 798.39,-366.29"/>
<polygon fill="midnightblue" stroke="midnightblue" points="799.14,-369.72 808.49,-364.73 798.07,-362.8 799.14,-369.72"/>
</g>
<!-- Node15&#45;&gt;Node2 -->
<g id="edge20" class="edge">
<title>Node15&#45;&gt;Node2</title>
<path fill="none" stroke="midnightblue" d="M462.79,-229.88C489.41,-206.94 566.1,-143.95 641,-112 693.19,-89.74 757.66,-77.97 800.65,-72.12"/>
<polygon fill="midnightblue" stroke="midnightblue" points="801.36,-75.56 810.82,-70.8 800.45,-68.62 801.36,-75.56"/>
</g>
<!-- Node15&#45;&gt;Node10 -->
<g id="edge21" class="edge">
<title>Node15&#45;&gt;Node10</title>
<path fill="none" stroke="midnightblue" d="M450.41,-229.85C446.09,-216.13 436.64,-188.81 424,-168 417.71,-157.64 409.1,-147.23 401.67,-139.04"/>
<polygon fill="midnightblue" stroke="midnightblue" points="404.15,-136.57 394.76,-131.66 399.04,-141.35 404.15,-136.57"/>
</g>
<!-- Node16 -->
<g id="node16" class="node">
<title>Node16</title>
<g id="a_node16"><a xlink:title=" ">
<polygon fill="white" stroke="#bfbfbf" points="357,-168.5 357,-187.5 415,-187.5 415,-168.5 357,-168.5"/>
<text text-anchor="middle" x="386" y="-175.5" font-family="Helvetica,sans-Serif" font-size="10.00">memory</text>
</a>
</g>
</g>
<!-- Node15&#45;&gt;Node16 -->
<g id="edge22" class="edge">
<title>Node15&#45;&gt;Node16</title>
<path fill="none" stroke="midnightblue" d="M443.4,-229.98C432.95,-220.7 416.03,-205.67 403.26,-194.33"/>
<polygon fill="midnightblue" stroke="midnightblue" points="405.38,-191.53 395.58,-187.51 400.73,-196.77 405.38,-191.53"/>
</g>
<!-- Node17&#45;&gt;Node9 -->
<g id="edge59" class="edge">
<title>Node17&#45;&gt;Node9</title>
<path fill="none" stroke="midnightblue" d="M514.82,-349.65C460.85,-340.42 360.23,-323.23 295.77,-312.21"/>
<polygon fill="midnightblue" stroke="midnightblue" points="296.19,-308.74 285.75,-310.5 295.01,-315.64 296.19,-308.74"/>
</g>
<!-- Node17&#45;&gt;Node10 -->
<g id="edge24" class="edge">
<title>Node17&#45;&gt;Node10</title>
<path fill="none" stroke="midnightblue" d="M514.81,-351.12C484.22,-345.58 440.99,-334.11 410,-311 360.92,-274.4 358.48,-248.32 348,-188 346.48,-179.24 344.95,-176.35 348,-168 352.06,-156.91 360.19,-146.67 367.89,-138.76"/>
<polygon fill="midnightblue" stroke="midnightblue" points="370.47,-141.14 375.29,-131.7 365.64,-136.07 370.47,-141.14"/>
</g>
<!-- Node17&#45;&gt;Node16 -->
<g id="edge61" class="edge">
<title>Node17&#45;&gt;Node16</title>
<path fill="none" stroke="midnightblue" d="M520.1,-347.49C479.82,-334.83 412.26,-306.78 383,-255 373.08,-237.44 376.06,-213.78 380.09,-197.55"/>
<polygon fill="midnightblue" stroke="midnightblue" points="383.53,-198.24 382.89,-187.66 376.79,-196.33 383.53,-198.24"/>
</g>
<!-- Node18 -->
<g id="node18" class="node">
<title>Node18</title>
<g id="a_node18"><a xlink:href="sitkTemplateFunctions_8h.html" target="_top" xlink:title=" ">
<polygon fill="white" stroke="black" points="484.5,-291.5 484.5,-310.5 619.5,-310.5 619.5,-291.5 484.5,-291.5"/>
<text text-anchor="middle" x="552" y="-298.5" font-family="Helvetica,sans-Serif" font-size="10.00">sitkTemplateFunctions.h</text>
</a>
</g>
</g>
<!-- Node17&#45;&gt;Node18 -->
<g id="edge25" class="edge">
<title>Node17&#45;&gt;Node18</title>
<path fill="none" stroke="midnightblue" d="M552,-347.08C552,-340.01 552,-329.86 552,-320.99"/>
<polygon fill="midnightblue" stroke="midnightblue" points="555.5,-320.75 552,-310.75 548.5,-320.75 555.5,-320.75"/>
</g>
<!-- Node17&#45;&gt;Node19 -->
<g id="edge60" class="edge">
<title>Node17&#45;&gt;Node19</title>
<path fill="none" stroke="midnightblue" d="M569.19,-347.35C585.25,-338.96 609.6,-325.39 629,-311 651.44,-294.35 674.61,-271.97 689.38,-256.93"/>
<polygon fill="midnightblue" stroke="midnightblue" points="692.21,-259.03 696.66,-249.41 687.19,-254.16 692.21,-259.03"/>
</g>
<!-- Node21 -->
<g id="node21" class="node">
<title>Node21</title>
<g id="a_node21"><a xlink:href="sitkDetail_8h.html" target="_top" xlink:title=" ">
<polygon fill="white" stroke="black" points="1038.5,-291.5 1038.5,-310.5 1111.5,-310.5 1111.5,-291.5 1038.5,-291.5"/>
<text text-anchor="middle" x="1075" y="-298.5" font-family="Helvetica,sans-Serif" font-size="10.00">sitkDetail.h</text>
</a>
</g>
</g>
<!-- Node17&#45;&gt;Node21 -->
<g id="edge32" class="edge">
<title>Node17&#45;&gt;Node21</title>
<path fill="none" stroke="midnightblue" d="M589.19,-352.16C682.37,-342.54 925.68,-317.42 1028.28,-306.82"/>
<polygon fill="midnightblue" stroke="midnightblue" points="1028.76,-310.29 1038.34,-305.78 1028.04,-303.33 1028.76,-310.29"/>
</g>
<!-- Node32 -->
<g id="node32" class="node">
<title>Node32</title>
<g id="a_node32"><a xlink:href="sitkPixelIDTokens_8h.html" target="_top" xlink:title=" ">
<polygon fill="white" stroke="black" points="822,-291.5 822,-310.5 932,-310.5 932,-291.5 822,-291.5"/>
<text text-anchor="middle" x="877" y="-298.5" font-family="Helvetica,sans-Serif" font-size="10.00">sitkPixelIDTokens.h</text>
</a>
</g>
</g>
<!-- Node17&#45;&gt;Node32 -->
<g id="edge51" class="edge">
<title>Node17&#45;&gt;Node32</title>
<path fill="none" stroke="midnightblue" d="M589.28,-349.81C644.63,-340.61 749.15,-323.24 815.82,-312.17"/>
<polygon fill="midnightblue" stroke="midnightblue" points="816.49,-315.6 825.78,-310.51 815.34,-308.7 816.49,-315.6"/>
</g>
<!-- Node35 -->
<g id="node35" class="node">
<title>Node35</title>
<g id="a_node35"><a xlink:title=" ">
<polygon fill="white" stroke="#bfbfbf" points="746.5,-230 746.5,-249 815.5,-249 815.5,-230 746.5,-230"/>
<text text-anchor="middle" x="781" y="-237" font-family="Helvetica,sans-Serif" font-size="10.00">type_traits</text>
</a>
</g>
</g>
<!-- Node17&#45;&gt;Node35 -->
<g id="edge62" class="edge">
<title>Node17&#45;&gt;Node35</title>
<path fill="none" stroke="midnightblue" d="M573.19,-347.46C594.21,-338.82 627.21,-324.8 655,-311 691.83,-292.71 733.19,-268.91 758.16,-254.17"/>
<polygon fill="midnightblue" stroke="midnightblue" points="760.07,-257.11 766.88,-249 756.5,-251.09 760.07,-257.11"/>
</g>
<!-- Node18&#45;&gt;Node2 -->
<g id="edge26" class="edge">
<title>Node18&#45;&gt;Node2</title>
<path fill="none" stroke="midnightblue" d="M570.27,-291.42C587.34,-283.07 613.26,-269.54 634,-255 655.11,-240.21 783.76,-124.82 830.8,-82.5"/>
<polygon fill="midnightblue" stroke="midnightblue" points="833.26,-84.99 838.35,-75.7 828.57,-79.79 833.26,-84.99"/>
</g>
<!-- Node18&#45;&gt;Node10 -->
<g id="edge27" class="edge">
<title>Node18&#45;&gt;Node10</title>
<path fill="none" stroke="midnightblue" d="M550.49,-291.23C547.55,-276.2 539.91,-245.11 524,-224 493.87,-184.04 443.59,-152.91 412.76,-136.31"/>
<polygon fill="midnightblue" stroke="midnightblue" points="414.33,-133.19 403.85,-131.63 411.08,-139.39 414.33,-133.19"/>
</g>
<!-- Node18&#45;&gt;Node11 -->
<g id="edge30" class="edge">
<title>Node18&#45;&gt;Node11</title>
<path fill="none" stroke="midnightblue" d="M503.6,-291.46C469.02,-284.32 421.92,-272.48 383,-255 346.35,-238.54 308.32,-210.99 286.47,-193.97"/>
<polygon fill="midnightblue" stroke="midnightblue" points="288.43,-191.05 278.41,-187.59 284.08,-196.54 288.43,-191.05"/>
</g>
<!-- Node18&#45;&gt;Node15 -->
<g id="edge28" class="edge">
<title>Node18&#45;&gt;Node15</title>
<path fill="none" stroke="midnightblue" d="M537.82,-291.48C521.64,-281.75 494.97,-265.73 475.86,-254.24"/>
<polygon fill="midnightblue" stroke="midnightblue" points="477.53,-251.16 467.16,-249.01 473.93,-257.16 477.53,-251.16"/>
</g>
<!-- Node18&#45;&gt;Node19 -->
<g id="edge29" class="edge">
<title>Node18&#45;&gt;Node19</title>
<path fill="none" stroke="midnightblue" d="M573.92,-291.48C600.05,-281.31 643.91,-264.26 673.63,-252.7"/>
<polygon fill="midnightblue" stroke="midnightblue" points="675.07,-255.9 683.12,-249.01 672.53,-249.37 675.07,-255.9"/>
</g>
<!-- Node20 -->
<g id="node20" class="node">
<title>Node20</title>
<g id="a_node20"><a xlink:title=" ">
<polygon fill="white" stroke="#bfbfbf" points="571.5,-230 571.5,-249 624.5,-249 624.5,-230 571.5,-230"/>
<text text-anchor="middle" x="598" y="-237" font-family="Helvetica,sans-Serif" font-size="10.00">iterator</text>
</a>
</g>
</g>
<!-- Node18&#45;&gt;Node20 -->
<g id="edge31" class="edge">
<title>Node18&#45;&gt;Node20</title>
<path fill="none" stroke="midnightblue" d="M558.59,-291.48C565.49,-282.55 576.5,-268.31 585.13,-257.14"/>
<polygon fill="midnightblue" stroke="midnightblue" points="588.07,-259.06 591.42,-249.01 582.54,-254.78 588.07,-259.06"/>
</g>
<!-- Node22 -->
<g id="node22" class="node">
<title>Node22</title>
<g id="a_node22"><a xlink:href="sitkMemberFunctionFactoryBase_8h.html" target="_top" xlink:title=" ">
<polygon fill="white" stroke="black" points="1229,-224.5 1229,-254.5 1381,-254.5 1381,-224.5 1229,-224.5"/>
<text text-anchor="start" x="1237" y="-242.5" font-family="Helvetica,sans-Serif" font-size="10.00">sitkMemberFunctionFactory</text>
<text text-anchor="middle" x="1305" y="-231.5" font-family="Helvetica,sans-Serif" font-size="10.00">Base.h</text>
</a>
</g>
</g>
<!-- Node21&#45;&gt;Node22 -->
<g id="edge33" class="edge">
<title>Node21&#45;&gt;Node22</title>
<path fill="none" stroke="midnightblue" d="M1107.95,-291.48C1142.52,-282.53 1197.74,-268.25 1240.93,-257.07"/>
<polygon fill="midnightblue" stroke="midnightblue" points="1241.99,-260.42 1250.79,-254.52 1240.24,-253.64 1241.99,-260.42"/>
</g>
<!-- Node28 -->
<g id="node28" class="node">
<title>Node28</title>
<g id="a_node28"><a xlink:title=" ">
<polygon fill="white" stroke="#bfbfbf" points="876.5,-168.5 876.5,-187.5 1015.5,-187.5 1015.5,-168.5 876.5,-168.5"/>
<text text-anchor="middle" x="946" y="-175.5" font-family="Helvetica,sans-Serif" font-size="10.00">Ancillary/FunctionTraits.h</text>
</a>
</g>
</g>
<!-- Node21&#45;&gt;Node28 -->
<g id="edge50" class="edge">
<title>Node21&#45;&gt;Node28</title>
<path fill="none" stroke="midnightblue" d="M1070.74,-291.08C1063.1,-275.82 1045.83,-244.4 1024,-224 1009.81,-210.74 991.03,-199.75 975.45,-191.96"/>
<polygon fill="midnightblue" stroke="midnightblue" points="976.76,-188.7 966.23,-187.52 973.72,-195.01 976.76,-188.7"/>
</g>
<!-- Node22&#45;&gt;Node2 -->
<g id="edge42" class="edge">
<title>Node22&#45;&gt;Node2</title>
<path fill="none" stroke="midnightblue" d="M1289.9,-224.32C1272.25,-208.46 1241.56,-183.05 1211,-168 1104.44,-115.54 966.43,-86.69 895.19,-74.35"/>
<polygon fill="midnightblue" stroke="midnightblue" points="895.62,-70.87 885.17,-72.64 894.44,-77.77 895.62,-70.87"/>
</g>
<!-- Node22&#45;&gt;Node8 -->
<g id="edge34" class="edge">
<title>Node22&#45;&gt;Node8</title>
<path fill="none" stroke="midnightblue" d="M1381.17,-238.44C1474.07,-236.6 1623.28,-227.39 1660,-188 1700.67,-144.38 1683.74,-65.27 1673.14,-29.47"/>
<polygon fill="midnightblue" stroke="midnightblue" points="1676.45,-28.34 1670.12,-19.84 1669.77,-30.43 1676.45,-28.34"/>
</g>
<!-- Node23 -->
<g id="node23" class="node">
<title>Node23</title>
<g id="a_node23"><a xlink:href="sitkPixelIDTypes_8h.html" target="_top" xlink:title=" ">
<polygon fill="white" stroke="black" points="1261.5,-112.5 1261.5,-131.5 1366.5,-131.5 1366.5,-112.5 1261.5,-112.5"/>
<text text-anchor="middle" x="1314" y="-119.5" font-family="Helvetica,sans-Serif" font-size="10.00">sitkPixelIDTypes.h</text>
</a>
</g>
</g>
<!-- Node22&#45;&gt;Node23 -->
<g id="edge35" class="edge">
<title>Node22&#45;&gt;Node23</title>
<path fill="none" stroke="midnightblue" d="M1381.26,-228.3C1405.32,-221.09 1429.41,-208.82 1444,-188 1449.1,-180.72 1449.16,-175.24 1444,-168 1434.3,-154.38 1396.32,-142.2 1363.9,-133.95"/>
<polygon fill="midnightblue" stroke="midnightblue" points="1364.6,-130.52 1354.06,-131.52 1362.93,-137.32 1364.6,-130.52"/>
</g>
<!-- Node24 -->
<g id="node24" class="node">
<title>Node24</title>
<g id="a_node24"><a xlink:href="sitkPixelIDTypeLists_8h.html" target="_top" xlink:title=" ">
<polygon fill="white" stroke="black" points="1529,-168.5 1529,-187.5 1651,-187.5 1651,-168.5 1529,-168.5"/>
<text text-anchor="middle" x="1590" y="-175.5" font-family="Helvetica,sans-Serif" font-size="10.00">sitkPixelIDTypeLists.h</text>
</a>
</g>
</g>
<!-- Node22&#45;&gt;Node24 -->
<g id="edge36" class="edge">
<title>Node22&#45;&gt;Node24</title>
<path fill="none" stroke="midnightblue" d="M1372.18,-224.47C1423.39,-213.78 1492.81,-199.29 1539.39,-189.57"/>
<polygon fill="midnightblue" stroke="midnightblue" points="1540.18,-192.98 1549.26,-187.51 1538.75,-186.12 1540.18,-192.98"/>
</g>
<!-- Node25 -->
<g id="node25" class="node">
<title>Node25</title>
<g id="a_node25"><a xlink:title=" ">
<polygon fill="white" stroke="#bfbfbf" points="1384.5,-112.5 1384.5,-131.5 1503.5,-131.5 1503.5,-112.5 1384.5,-112.5"/>
<text text-anchor="middle" x="1444" y="-119.5" font-family="Helvetica,sans-Serif" font-size="10.00">Ancillary/type_list2.h</text>
</a>
</g>
</g>
<!-- Node22&#45;&gt;Node25 -->
<g id="edge45" class="edge">
<title>Node22&#45;&gt;Node25</title>
<path fill="none" stroke="midnightblue" d="M1381.22,-232.24C1410.42,-225.68 1441.01,-212.84 1459,-188 1469.05,-174.13 1462.48,-154.6 1455.14,-140.57"/>
<polygon fill="midnightblue" stroke="midnightblue" points="1458.16,-138.79 1450.14,-131.87 1452.09,-142.29 1458.16,-138.79"/>
</g>
<!-- Node27 -->
<g id="node27" class="node">
<title>Node27</title>
<g id="a_node27"><a xlink:href="sitkNonCopyable_8h.html" target="_top" xlink:title=" ">
<polygon fill="white" stroke="black" points="1033.5,-168.5 1033.5,-187.5 1142.5,-187.5 1142.5,-168.5 1033.5,-168.5"/>
<text text-anchor="middle" x="1088" y="-175.5" font-family="Helvetica,sans-Serif" font-size="10.00">sitkNonCopyable.h</text>
</a>
</g>
</g>
<!-- Node22&#45;&gt;Node27 -->
<g id="edge43" class="edge">
<title>Node22&#45;&gt;Node27</title>
<path fill="none" stroke="midnightblue" d="M1253.85,-224.47C1215.76,-214.03 1164.43,-199.96 1129.02,-190.25"/>
<polygon fill="midnightblue" stroke="midnightblue" points="1129.59,-186.78 1119.02,-187.51 1127.74,-193.53 1129.59,-186.78"/>
</g>
<!-- Node22&#45;&gt;Node28 -->
<g id="edge46" class="edge">
<title>Node22&#45;&gt;Node28</title>
<path fill="none" stroke="midnightblue" d="M1228.87,-225.88C1162.87,-214.94 1068.59,-199.32 1007.34,-189.17"/>
<polygon fill="midnightblue" stroke="midnightblue" points="1007.87,-185.71 997.43,-187.52 1006.72,-192.61 1007.87,-185.71"/>
</g>
<!-- Node29 -->
<g id="node29" class="node">
<title>Node29</title>
<g id="a_node29"><a xlink:title=" ">
<polygon fill="white" stroke="#bfbfbf" points="1258.5,-168.5 1258.5,-187.5 1351.5,-187.5 1351.5,-168.5 1258.5,-168.5"/>
<text text-anchor="middle" x="1305" y="-175.5" font-family="Helvetica,sans-Serif" font-size="10.00">unordered_map</text>
</a>
</g>
</g>
<!-- Node22&#45;&gt;Node29 -->
<g id="edge47" class="edge">
<title>Node22&#45;&gt;Node29</title>
<path fill="none" stroke="midnightblue" d="M1305,-224.4C1305,-216.47 1305,-206.46 1305,-197.86"/>
<polygon fill="midnightblue" stroke="midnightblue" points="1308.5,-197.66 1305,-187.66 1301.5,-197.66 1308.5,-197.66"/>
</g>
<!-- Node30 -->
<g id="node30" class="node">
<title>Node30</title>
<g id="a_node30"><a xlink:title=" ">
<polygon fill="white" stroke="#bfbfbf" points="1369.5,-168.5 1369.5,-187.5 1434.5,-187.5 1434.5,-168.5 1369.5,-168.5"/>
<text text-anchor="middle" x="1402" y="-175.5" font-family="Helvetica,sans-Serif" font-size="10.00">functional</text>
</a>
</g>
</g>
<!-- Node22&#45;&gt;Node30 -->
<g id="edge48" class="edge">
<title>Node22&#45;&gt;Node30</title>
<path fill="none" stroke="midnightblue" d="M1327.99,-224.4C1343.39,-214.95 1363.59,-202.56 1379,-193.11"/>
<polygon fill="midnightblue" stroke="midnightblue" points="1381.19,-195.87 1387.89,-187.66 1377.53,-189.9 1381.19,-195.87"/>
</g>
<!-- Node31 -->
<g id="node31" class="node">
<title>Node31</title>
<g id="a_node31"><a xlink:title=" ">
<polygon fill="white" stroke="#bfbfbf" points="1160.5,-168.5 1160.5,-187.5 1201.5,-187.5 1201.5,-168.5 1160.5,-168.5"/>
<text text-anchor="middle" x="1181" y="-175.5" font-family="Helvetica,sans-Serif" font-size="10.00">tuple</text>
</a>
</g>
</g>
<!-- Node22&#45;&gt;Node31 -->
<g id="edge49" class="edge">
<title>Node22&#45;&gt;Node31</title>
<path fill="none" stroke="midnightblue" d="M1275.61,-224.4C1255.18,-214.59 1228.14,-201.62 1208.2,-192.05"/>
<polygon fill="midnightblue" stroke="midnightblue" points="1209.57,-188.83 1199.04,-187.66 1206.54,-195.14 1209.57,-188.83"/>
</g>
<!-- Node24&#45;&gt;Node3 -->
<g id="edge37" class="edge">
<title>Node24&#45;&gt;Node3</title>
<path fill="none" stroke="midnightblue" d="M1581.65,-168.49C1568.17,-155.11 1540.37,-128.94 1513,-112 1447.32,-71.34 1362.39,-39.17 1315.02,-22.81"/>
<polygon fill="midnightblue" stroke="midnightblue" points="1316.1,-19.48 1305.5,-19.57 1313.84,-26.11 1316.1,-19.48"/>
</g>
<!-- Node24&#45;&gt;Node8 -->
<g id="edge38" class="edge">
<title>Node24&#45;&gt;Node8</title>
<path fill="none" stroke="midnightblue" d="M1599.6,-168.21C1608.38,-159.71 1621.14,-146.08 1629,-132 1647.72,-98.47 1658.57,-54.48 1663.58,-29.83"/>
<polygon fill="midnightblue" stroke="midnightblue" points="1667.08,-30.18 1665.54,-19.7 1660.21,-28.85 1667.08,-30.18"/>
</g>
<!-- Node24&#45;&gt;Node23 -->
<g id="edge39" class="edge">
<title>Node24&#45;&gt;Node23</title>
<path fill="none" stroke="midnightblue" d="M1546.27,-168.44C1497.82,-158.96 1419.67,-143.67 1367.58,-133.48"/>
<polygon fill="midnightblue" stroke="midnightblue" points="1368.01,-130 1357.53,-131.52 1366.67,-136.87 1368.01,-130"/>
</g>
<!-- Node24&#45;&gt;Node25 -->
<g id="edge40" class="edge">
<title>Node24&#45;&gt;Node25</title>
<path fill="none" stroke="midnightblue" d="M1566.87,-168.44C1542.52,-159.44 1503.99,-145.19 1476.58,-135.05"/>
<polygon fill="midnightblue" stroke="midnightblue" points="1477.62,-131.7 1467.03,-131.52 1475.19,-138.27 1477.62,-131.7"/>
</g>
<!-- Node26 -->
<g id="node26" class="node">
<title>Node26</title>
<g id="a_node26"><a xlink:title=" ">
<polygon fill="white" stroke="#bfbfbf" points="1560.5,-112.5 1560.5,-131.5 1619.5,-131.5 1619.5,-112.5 1560.5,-112.5"/>
<text text-anchor="middle" x="1590" y="-119.5" font-family="Helvetica,sans-Serif" font-size="10.00">complex</text>
</a>
</g>
</g>
<!-- Node24&#45;&gt;Node26 -->
<g id="edge41" class="edge">
<title>Node24&#45;&gt;Node26</title>
<path fill="none" stroke="midnightblue" d="M1590,-168.08C1590,-161.01 1590,-150.86 1590,-141.99"/>
<polygon fill="midnightblue" stroke="midnightblue" points="1593.5,-141.75 1590,-131.75 1586.5,-141.75 1593.5,-141.75"/>
</g>
<!-- Node27&#45;&gt;Node10 -->
<g id="edge44" class="edge">
<title>Node27&#45;&gt;Node10</title>
<path fill="none" stroke="midnightblue" d="M1033.39,-168.96C1030.56,-168.61 1027.75,-168.29 1025,-168 809.13,-145.01 550.94,-130.92 440.48,-125.52"/>
<polygon fill="midnightblue" stroke="midnightblue" points="440.41,-122.01 430.25,-125.02 440.07,-129 440.41,-122.01"/>
</g>
<!-- Node32&#45;&gt;Node8 -->
<g id="edge52" class="edge">
<title>Node32&#45;&gt;Node8</title>
<path fill="none" stroke="midnightblue" d="M932.32,-296.11C1046.11,-287.94 1303,-268.65 1390,-255 1540.4,-231.4 1724,-331.24 1724,-179 1724,-179 1724,-179 1724,-121 1724,-84.3 1698.68,-47.66 1681.79,-27.3"/>
<polygon fill="midnightblue" stroke="midnightblue" points="1684.35,-24.9 1675.17,-19.62 1679.05,-29.48 1684.35,-24.9"/>
</g>
<!-- Node33 -->
<g id="node33" class="node">
<title>Node33</title>
<g id="a_node33"><a xlink:href="sitkPixelIDValues_8h.html" target="_top" xlink:title=" ">
<polygon fill="white" stroke="black" points="834,-230 834,-249 944,-249 944,-230 834,-230"/>
<text text-anchor="middle" x="889" y="-237" font-family="Helvetica,sans-Serif" font-size="10.00">sitkPixelIDValues.h</text>
</a>
</g>
</g>
<!-- Node32&#45;&gt;Node33 -->
<g id="edge53" class="edge">
<title>Node32&#45;&gt;Node33</title>
<path fill="none" stroke="midnightblue" d="M878.72,-291.48C880.43,-282.99 883.11,-269.7 885.3,-258.82"/>
<polygon fill="midnightblue" stroke="midnightblue" points="888.74,-259.5 887.28,-249.01 881.88,-258.12 888.74,-259.5"/>
</g>
<!-- Node32&#45;&gt;Node35 -->
<g id="edge58" class="edge">
<title>Node32&#45;&gt;Node35</title>
<path fill="none" stroke="midnightblue" d="M863.25,-291.48C847.63,-281.8 821.94,-265.87 803.42,-254.39"/>
<polygon fill="midnightblue" stroke="midnightblue" points="805.07,-251.3 794.73,-249.01 801.38,-257.25 805.07,-251.3"/>
</g>
<!-- Node33&#45;&gt;Node10 -->
<g id="edge54" class="edge">
<title>Node33&#45;&gt;Node10</title>
<path fill="none" stroke="midnightblue" d="M851.6,-229.91C761.47,-209.22 532.33,-156.6 433.06,-133.81"/>
<polygon fill="midnightblue" stroke="midnightblue" points="433.83,-130.39 423.3,-131.56 432.26,-137.21 433.83,-130.39"/>
</g>
<!-- Node33&#45;&gt;Node11 -->
<g id="edge57" class="edge">
<title>Node33&#45;&gt;Node11</title>
<path fill="none" stroke="midnightblue" d="M855.63,-229.96C845.82,-227.72 835.03,-225.51 825,-224 614.75,-192.43 559.67,-207.89 348,-188 334.6,-186.74 319.97,-185.16 306.92,-183.67"/>
<polygon fill="midnightblue" stroke="midnightblue" points="307.19,-180.18 296.86,-182.51 306.39,-187.13 307.19,-180.18"/>
</g>
<!-- Node33&#45;&gt;Node24 -->
<g id="edge55" class="edge">
<title>Node33&#45;&gt;Node24</title>
<path fill="none" stroke="midnightblue" d="M944.01,-233.83C1069.8,-223.15 1378.41,-196.96 1518.61,-185.06"/>
<polygon fill="midnightblue" stroke="midnightblue" points="1519.15,-188.53 1528.82,-184.19 1518.56,-181.55 1519.15,-188.53"/>
</g>
<!-- Node34 -->
<g id="node34" class="node">
<title>Node34</title>
<g id="a_node34"><a xlink:title=" ">
<polygon fill="white" stroke="#bfbfbf" points="776,-168.5 776,-187.5 820,-187.5 820,-168.5 776,-168.5"/>
<text text-anchor="middle" x="798" y="-175.5" font-family="Helvetica,sans-Serif" font-size="10.00">string</text>
</a>
</g>
</g>
<!-- Node33&#45;&gt;Node34 -->
<g id="edge56" class="edge">
<title>Node33&#45;&gt;Node34</title>
<path fill="none" stroke="midnightblue" d="M875.96,-229.98C861.23,-220.34 837.03,-204.52 819.49,-193.05"/>
<polygon fill="midnightblue" stroke="midnightblue" points="821.3,-190.05 811.01,-187.51 817.47,-195.91 821.3,-190.05"/>
</g>
<!-- Node36&#45;&gt;Node34 -->
<g id="edge64" class="edge">
<title>Node36&#45;&gt;Node34</title>
<path fill="none" stroke="midnightblue" d="M884.16,-347.45C903.47,-340.67 926.94,-329.24 941,-311 964.84,-280.09 976.44,-255.21 953,-224 949.21,-218.96 874.14,-198.76 829.88,-187.21"/>
<polygon fill="midnightblue" stroke="midnightblue" points="830.71,-183.81 820.15,-184.68 828.95,-190.59 830.71,-183.81"/>
</g>
</g>
</svg>
