<?xml version="1.0" encoding="UTF-8" standalone="no"?>
<!DOCTYPE svg PUBLIC "-//W3C//DTD SVG 1.1//EN"
 "http://www.w3.org/Graphics/SVG/1.1/DTD/svg11.dtd">
<!-- Generated by graphviz version 2.43.0 (0)
 -->
<!-- Title: sitkLogger.h Pages: 1 -->
<svg width="599pt" height="302pt"
 viewBox="0.00 0.00 598.50 302.00" xmlns="http://www.w3.org/2000/svg" xmlns:xlink="http://www.w3.org/1999/xlink">
<g id="graph0" class="graph" transform="scale(1 1) rotate(0) translate(4 298)">
<title>sitkLogger.h</title>
<!-- Node1 -->
<g id="Node000001" class="node">
<title>Node1</title>
<g id="a_Node000001"><a xlink:title=" ">
<polygon fill="#999999" stroke="#666666" points="398.5,-294 322.5,-294 322.5,-275 398.5,-275 398.5,-294"/>
<text text-anchor="middle" x="360.5" y="-282" font-family="Helvetica,sans-Serif" font-size="10.00">sitkLogger.h</text>
</a>
</g>
</g>
<!-- Node2 -->
<g id="Node000002" class="node">
<title>Node2</title>
<g id="a_Node000002"><a xlink:href="sitkCommon_8h.html" target="_top" xlink:title=" ">
<polygon fill="white" stroke="#666666" points="251.5,-129 163.5,-129 163.5,-110 251.5,-110 251.5,-129"/>
<text text-anchor="middle" x="207.5" y="-117" font-family="Helvetica,sans-Serif" font-size="10.00">sitkCommon.h</text>
</a>
</g>
</g>
<!-- Node1&#45;&gt;Node2 -->
<g id="edge1_Node000001_Node000002" class="edge">
<title>Node1&#45;&gt;Node2</title>
<g id="a_edge1_Node000001_Node000002"><a xlink:title=" ">
<path fill="none" stroke="#63b8ff" d="M322.28,-281.05C288.4,-277.05 239.34,-266.54 206.5,-239 179.68,-216.5 169.8,-198.64 179.5,-165 182.37,-155.06 188.18,-145.2 193.78,-137.29"/>
<polygon fill="#63b8ff" stroke="#63b8ff" points="196.58,-139.39 199.83,-129.3 191,-135.16 196.58,-139.39"/>
</a>
</g>
</g>
<!-- Node10 -->
<g id="Node000010" class="node">
<title>Node10</title>
<g id="a_Node000010"><a xlink:href="sitkObjectOwnedBase_8h.html" target="_top" xlink:title=" ">
<polygon fill="white" stroke="#666666" points="348,-239 215,-239 215,-220 348,-220 348,-239"/>
<text text-anchor="middle" x="281.5" y="-227" font-family="Helvetica,sans-Serif" font-size="10.00">sitkObjectOwnedBase.h</text>
</a>
</g>
</g>
<!-- Node1&#45;&gt;Node10 -->
<g id="edge9_Node000001_Node000010" class="edge">
<title>Node1&#45;&gt;Node10</title>
<g id="a_edge9_Node000001_Node000010"><a xlink:title=" ">
<path fill="none" stroke="#63b8ff" d="M347.81,-274.98C335.67,-266.84 317.14,-254.41 302.75,-244.76"/>
<polygon fill="#63b8ff" stroke="#63b8ff" points="304.68,-241.84 294.42,-239.17 300.78,-247.65 304.68,-241.84"/>
</a>
</g>
</g>
<!-- Node14 -->
<g id="Node000014" class="node">
<title>Node14</title>
<g id="a_Node000014"><a xlink:href="sitkProcessObjectDeleter_8h.html" target="_top" xlink:title=" ">
<polygon fill="white" stroke="#666666" points="514.5,-239 366.5,-239 366.5,-220 514.5,-220 514.5,-239"/>
<text text-anchor="middle" x="440.5" y="-227" font-family="Helvetica,sans-Serif" font-size="10.00">sitkProcessObjectDeleter.h</text>
</a>
</g>
</g>
<!-- Node1&#45;&gt;Node14 -->
<g id="edge15_Node000001_Node000014" class="edge">
<title>Node1&#45;&gt;Node14</title>
<g id="a_edge15_Node000001_Node000014"><a xlink:title=" ">
<path fill="none" stroke="#63b8ff" d="M373.35,-274.98C385.64,-266.84 404.41,-254.41 418.98,-244.76"/>
<polygon fill="#63b8ff" stroke="#63b8ff" points="421.01,-247.61 427.41,-239.17 417.14,-241.78 421.01,-247.61"/>
</a>
</g>
</g>
<!-- Node15 -->
<g id="Node000015" class="node">
<title>Node15</title>
<g id="a_Node000015"><a xlink:title=" ">
<polygon fill="#e0e0e0" stroke="#999999" points="590.5,-239 532.5,-239 532.5,-220 590.5,-220 590.5,-239"/>
<text text-anchor="middle" x="561.5" y="-227" font-family="Helvetica,sans-Serif" font-size="10.00">memory</text>
</a>
</g>
</g>
<!-- Node1&#45;&gt;Node15 -->
<g id="edge17_Node000001_Node000015" class="edge">
<title>Node1&#45;&gt;Node15</title>
<g id="a_edge17_Node000001_Node000015"><a xlink:title=" ">
<path fill="none" stroke="#63b8ff" d="M392.79,-274.98C427.99,-265.7 484.32,-250.85 522.1,-240.89"/>
<polygon fill="#63b8ff" stroke="#63b8ff" points="523.45,-244.15 532.23,-238.22 521.67,-237.38 523.45,-244.15"/>
</a>
</g>
</g>
<!-- Node3 -->
<g id="Node000003" class="node">
<title>Node3</title>
<g id="a_Node000003"><a xlink:href="sitkMacro_8h.html" target="_top" xlink:title=" ">
<polygon fill="white" stroke="#666666" points="244.5,-74 170.5,-74 170.5,-55 244.5,-55 244.5,-74"/>
<text text-anchor="middle" x="207.5" y="-62" font-family="Helvetica,sans-Serif" font-size="10.00">sitkMacro.h</text>
</a>
</g>
</g>
<!-- Node2&#45;&gt;Node3 -->
<g id="edge2_Node000002_Node000003" class="edge">
<title>Node2&#45;&gt;Node3</title>
<g id="a_edge2_Node000002_Node000003"><a xlink:title=" ">
<path fill="none" stroke="#63b8ff" d="M207.5,-109.75C207.5,-102.8 207.5,-92.85 207.5,-84.13"/>
<polygon fill="#63b8ff" stroke="#63b8ff" points="211,-84.09 207.5,-74.09 204,-84.09 211,-84.09"/>
</a>
</g>
</g>
<!-- Node4 -->
<g id="Node000004" class="node">
<title>Node4</title>
<g id="a_Node000004"><a xlink:title=" ">
<polygon fill="#e0e0e0" stroke="#999999" points="53,-19 0,-19 0,0 53,0 53,-19"/>
<text text-anchor="middle" x="26.5" y="-7" font-family="Helvetica,sans-Serif" font-size="10.00">stdint.h</text>
</a>
</g>
</g>
<!-- Node3&#45;&gt;Node4 -->
<g id="edge3_Node000003_Node000004" class="edge">
<title>Node3&#45;&gt;Node4</title>
<g id="a_edge3_Node000003_Node000004"><a xlink:title=" ">
<path fill="none" stroke="#63b8ff" d="M178.42,-54.98C147.08,-45.81 97.15,-31.19 63.15,-21.23"/>
<polygon fill="#63b8ff" stroke="#63b8ff" points="63.73,-17.75 53.15,-18.3 61.76,-24.47 63.73,-17.75"/>
</a>
</g>
</g>
<!-- Node5 -->
<g id="Node000005" class="node">
<title>Node5</title>
<g id="a_Node000005"><a xlink:title=" ">
<polygon fill="#e0e0e0" stroke="#999999" points="127.5,-19 71.5,-19 71.5,0 127.5,0 127.5,-19"/>
<text text-anchor="middle" x="99.5" y="-7" font-family="Helvetica,sans-Serif" font-size="10.00">stddef.h</text>
</a>
</g>
</g>
<!-- Node3&#45;&gt;Node5 -->
<g id="edge4_Node000003_Node000005" class="edge">
<title>Node3&#45;&gt;Node5</title>
<g id="a_edge4_Node000003_Node000005"><a xlink:title=" ">
<path fill="none" stroke="#63b8ff" d="M190.15,-54.98C172.93,-46.54 146.3,-33.47 126.35,-23.68"/>
<polygon fill="#63b8ff" stroke="#63b8ff" points="127.69,-20.43 117.17,-19.17 124.6,-26.72 127.69,-20.43"/>
</a>
</g>
</g>
<!-- Node6 -->
<g id="Node000006" class="node">
<title>Node6</title>
<g id="a_Node000006"><a xlink:title=" ">
<polygon fill="#e0e0e0" stroke="#999999" points="197.5,-19 145.5,-19 145.5,0 197.5,0 197.5,-19"/>
<text text-anchor="middle" x="171.5" y="-7" font-family="Helvetica,sans-Serif" font-size="10.00">cassert</text>
</a>
</g>
</g>
<!-- Node3&#45;&gt;Node6 -->
<g id="edge5_Node000003_Node000006" class="edge">
<title>Node3&#45;&gt;Node6</title>
<g id="a_edge5_Node000003_Node000006"><a xlink:title=" ">
<path fill="none" stroke="#63b8ff" d="M201.56,-54.75C196.52,-47.34 189.16,-36.5 182.99,-27.41"/>
<polygon fill="#63b8ff" stroke="#63b8ff" points="185.85,-25.39 177.33,-19.09 180.06,-29.33 185.85,-25.39"/>
</a>
</g>
</g>
<!-- Node7 -->
<g id="Node000007" class="node">
<title>Node7</title>
<g id="a_Node000007"><a xlink:title=" ">
<polygon fill="#e0e0e0" stroke="#999999" points="271.5,-19 215.5,-19 215.5,0 271.5,0 271.5,-19"/>
<text text-anchor="middle" x="243.5" y="-7" font-family="Helvetica,sans-Serif" font-size="10.00">sstream</text>
</a>
</g>
</g>
<!-- Node3&#45;&gt;Node7 -->
<g id="edge6_Node000003_Node000007" class="edge">
<title>Node3&#45;&gt;Node7</title>
<g id="a_edge6_Node000003_Node000007"><a xlink:title=" ">
<path fill="none" stroke="#63b8ff" d="M213.44,-54.75C218.48,-47.34 225.84,-36.5 232.01,-27.41"/>
<polygon fill="#63b8ff" stroke="#63b8ff" points="234.94,-29.33 237.67,-19.09 229.15,-25.39 234.94,-29.33"/>
</a>
</g>
</g>
<!-- Node8 -->
<g id="Node000008" class="node">
<title>Node8</title>
<g id="a_Node000008"><a xlink:title=" ">
<polygon fill="#e0e0e0" stroke="#999999" points="333.5,-19 289.5,-19 289.5,0 333.5,0 333.5,-19"/>
<text text-anchor="middle" x="311.5" y="-7" font-family="Helvetica,sans-Serif" font-size="10.00">limits</text>
</a>
</g>
</g>
<!-- Node3&#45;&gt;Node8 -->
<g id="edge7_Node000003_Node000008" class="edge">
<title>Node3&#45;&gt;Node8</title>
<g id="a_edge7_Node000003_Node000008"><a xlink:title=" ">
<path fill="none" stroke="#63b8ff" d="M224.21,-54.98C240.71,-46.57 266.2,-33.59 285.38,-23.81"/>
<polygon fill="#63b8ff" stroke="#63b8ff" points="287.17,-26.83 294.49,-19.17 283.99,-20.59 287.17,-26.83"/>
</a>
</g>
</g>
<!-- Node9 -->
<g id="Node000009" class="node">
<title>Node9</title>
<g id="a_Node000009"><a xlink:href="sitkConfigure_8h.html" target="_top" xlink:title=" ">
<polygon fill="white" stroke="#666666" points="441.5,-19 351.5,-19 351.5,0 441.5,0 441.5,-19"/>
<text text-anchor="middle" x="396.5" y="-7" font-family="Helvetica,sans-Serif" font-size="10.00">sitkConfigure.h</text>
</a>
</g>
</g>
<!-- Node3&#45;&gt;Node9 -->
<g id="edge8_Node000003_Node000009" class="edge">
<title>Node3&#45;&gt;Node9</title>
<g id="a_edge8_Node000003_Node000009"><a xlink:title=" ">
<path fill="none" stroke="#63b8ff" d="M237.87,-54.98C269.87,-46.01 320.46,-31.82 355.88,-21.89"/>
<polygon fill="#63b8ff" stroke="#63b8ff" points="357.21,-25.15 365.9,-19.08 355.32,-18.41 357.21,-25.15"/>
</a>
</g>
</g>
<!-- Node10&#45;&gt;Node2 -->
<g id="edge10_Node000010_Node000002" class="edge">
<title>Node10&#45;&gt;Node2</title>
<g id="a_edge10_Node000010_Node000002"><a xlink:title=" ">
<path fill="none" stroke="#63b8ff" d="M239.97,-219.94C220.19,-213.55 198.32,-202.6 186.5,-184 177.39,-169.67 185.54,-150.99 194.21,-137.6"/>
<polygon fill="#63b8ff" stroke="#63b8ff" points="197.16,-139.49 200.08,-129.3 191.45,-135.44 197.16,-139.49"/>
</a>
</g>
</g>
<!-- Node11 -->
<g id="Node000011" class="node">
<title>Node11</title>
<g id="a_Node000011"><a xlink:href="sitkNonCopyable_8h.html" target="_top" xlink:title=" ">
<polygon fill="white" stroke="#666666" points="304,-184 195,-184 195,-165 304,-165 304,-184"/>
<text text-anchor="middle" x="249.5" y="-172" font-family="Helvetica,sans-Serif" font-size="10.00">sitkNonCopyable.h</text>
</a>
</g>
</g>
<!-- Node10&#45;&gt;Node11 -->
<g id="edge11_Node000010_Node000011" class="edge">
<title>Node10&#45;&gt;Node11</title>
<g id="a_edge11_Node000010_Node000011"><a xlink:title=" ">
<path fill="none" stroke="#63b8ff" d="M276.22,-219.75C271.79,-212.42 265.34,-201.73 259.88,-192.7"/>
<polygon fill="#63b8ff" stroke="#63b8ff" points="262.85,-190.84 254.69,-184.09 256.86,-194.46 262.85,-190.84"/>
</a>
</g>
</g>
<!-- Node12 -->
<g id="Node000012" class="node">
<title>Node12</title>
<g id="a_Node000012"><a xlink:title=" ">
<polygon fill="#e0e0e0" stroke="#999999" points="360.5,-184 322.5,-184 322.5,-165 360.5,-165 360.5,-184"/>
<text text-anchor="middle" x="341.5" y="-172" font-family="Helvetica,sans-Serif" font-size="10.00">map</text>
</a>
</g>
</g>
<!-- Node10&#45;&gt;Node12 -->
<g id="edge13_Node000010_Node000012" class="edge">
<title>Node10&#45;&gt;Node12</title>
<g id="a_edge13_Node000010_Node000012"><a xlink:title=" ">
<path fill="none" stroke="#63b8ff" d="M291.14,-219.98C300.01,-212.15 313.37,-200.34 324.11,-190.86"/>
<polygon fill="#63b8ff" stroke="#63b8ff" points="326.51,-193.41 331.68,-184.17 321.87,-188.17 326.51,-193.41"/>
</a>
</g>
</g>
<!-- Node13 -->
<g id="Node000013" class="node">
<title>Node13</title>
<g id="a_Node000013"><a xlink:title=" ">
<polygon fill="#e0e0e0" stroke="#999999" points="444,-184 379,-184 379,-165 444,-165 444,-184"/>
<text text-anchor="middle" x="411.5" y="-172" font-family="Helvetica,sans-Serif" font-size="10.00">functional</text>
</a>
</g>
</g>
<!-- Node10&#45;&gt;Node13 -->
<g id="edge14_Node000010_Node000013" class="edge">
<title>Node10&#45;&gt;Node13</title>
<g id="a_edge14_Node000010_Node000013"><a xlink:title=" ">
<path fill="none" stroke="#63b8ff" d="M302.39,-219.98C323.58,-211.34 356.63,-197.87 380.8,-188.02"/>
<polygon fill="#63b8ff" stroke="#63b8ff" points="382.29,-191.19 390.23,-184.17 379.65,-184.7 382.29,-191.19"/>
</a>
</g>
</g>
<!-- Node11&#45;&gt;Node2 -->
<g id="edge12_Node000011_Node000002" class="edge">
<title>Node11&#45;&gt;Node2</title>
<g id="a_edge12_Node000011_Node000002"><a xlink:title=" ">
<path fill="none" stroke="#63b8ff" d="M242.56,-164.75C236.63,-157.26 227.93,-146.28 220.68,-137.13"/>
<polygon fill="#63b8ff" stroke="#63b8ff" points="223.26,-134.75 214.31,-129.09 217.77,-139.1 223.26,-134.75"/>
</a>
</g>
</g>
<!-- Node14&#45;&gt;Node2 -->
<g id="edge16_Node000014_Node000002" class="edge">
<title>Node14&#45;&gt;Node2</title>
<g id="a_edge16_Node000014_Node000002"><a xlink:title=" ">
<path fill="none" stroke="#63b8ff" d="M446.42,-219.59C454.52,-206.18 466.63,-180.72 453.5,-165 429.56,-136.35 326.69,-126.11 261.8,-122.47"/>
<polygon fill="#63b8ff" stroke="#63b8ff" points="261.89,-118.97 251.72,-121.95 261.53,-125.96 261.89,-118.97"/>
</a>
</g>
</g>
</g>
</svg>
