<?xml version="1.0" encoding="UTF-8" standalone="no"?>
<!DOCTYPE svg PUBLIC "-//W3C//DTD SVG 1.1//EN"
 "http://www.w3.org/Graphics/SVG/1.1/DTD/svg11.dtd">
<!-- Generated by graphviz version 2.43.0 (0)
 -->
<!-- Title: sitkTransformixImageFilterImpl.h Pages: 1 -->
<svg width="1879pt" height="489pt"
 viewBox="0.00 0.00 1878.50 489.00" xmlns="http://www.w3.org/2000/svg" xmlns:xlink="http://www.w3.org/1999/xlink">
<g id="graph0" class="graph" transform="scale(1 1) rotate(0) translate(4 485)">
<title>sitkTransformixImageFilterImpl.h</title>
<!-- Node1 -->
<g id="Node000001" class="node">
<title>Node1</title>
<g id="a_Node000001"><a xlink:title=" ">
<polygon fill="#999999" stroke="#666666" points="1139,-481 991,-481 991,-451 1139,-451 1139,-481"/>
<text text-anchor="start" x="999" y="-469" font-family="Helvetica,sans-Serif" font-size="10.00">sitkTransformixImageFilter</text>
<text text-anchor="middle" x="1065" y="-458" font-family="Helvetica,sans-Serif" font-size="10.00">Impl.h</text>
</a>
</g>
</g>
<!-- Node2 -->
<g id="Node000002" class="node">
<title>Node2</title>
<g id="a_Node000002"><a xlink:href="sitkTransformixImageFilter_8h.html" target="_top" xlink:title=" ">
<polygon fill="white" stroke="#666666" points="835,-415 679,-415 679,-396 835,-396 835,-415"/>
<text text-anchor="middle" x="757" y="-403" font-family="Helvetica,sans-Serif" font-size="10.00">sitkTransformixImageFilter.h</text>
</a>
</g>
</g>
<!-- Node1&#45;&gt;Node2 -->
<g id="edge1_Node000001_Node000002" class="edge">
<title>Node1&#45;&gt;Node2</title>
<g id="a_edge1_Node000001_Node000002"><a xlink:title=" ">
<path fill="none" stroke="#63b8ff" d="M991.23,-450.99C936.12,-440.52 861.99,-426.44 812.01,-416.95"/>
<polygon fill="#63b8ff" stroke="#63b8ff" points="812.51,-413.48 802.03,-415.05 811.21,-420.36 812.51,-413.48"/>
</a>
</g>
</g>
<!-- Node37 -->
<g id="Node000037" class="node">
<title>Node37</title>
<g id="a_Node000037"><a xlink:href="sitkMemberFunctionFactory_8h.html" target="_top" xlink:title=" ">
<polygon fill="white" stroke="#666666" points="1258.5,-360 1099.5,-360 1099.5,-341 1258.5,-341 1258.5,-360"/>
<text text-anchor="middle" x="1179" y="-348" font-family="Helvetica,sans-Serif" font-size="10.00">sitkMemberFunctionFactory.h</text>
</a>
</g>
</g>
<!-- Node1&#45;&gt;Node37 -->
<g id="edge62_Node000001_Node000037" class="edge">
<title>Node1&#45;&gt;Node37</title>
<g id="a_edge62_Node000001_Node000037"><a xlink:title=" ">
<path fill="none" stroke="#63b8ff" d="M1052.65,-450.94C1041.24,-436.16 1027.76,-412.78 1040,-396 1052.07,-379.47 1070.36,-368.94 1089.75,-362.27"/>
<polygon fill="#63b8ff" stroke="#63b8ff" points="1090.82,-365.6 1099.33,-359.29 1088.74,-358.91 1090.82,-365.6"/>
</a>
</g>
</g>
<!-- Node39 -->
<g id="Node000039" class="node">
<title>Node39</title>
<g id="a_Node000039"><a xlink:title=" ">
<polygon fill="#e0e0e0" stroke="#999999" points="1169,-415 1049,-415 1049,-396 1169,-396 1169,-415"/>
<text text-anchor="middle" x="1109" y="-403" font-family="Helvetica,sans-Serif" font-size="10.00">itkTransformixFilter.h</text>
</a>
</g>
</g>
<!-- Node1&#45;&gt;Node39 -->
<g id="edge67_Node000001_Node000039" class="edge">
<title>Node1&#45;&gt;Node39</title>
<g id="a_edge67_Node000001_Node000039"><a xlink:title=" ">
<path fill="none" stroke="#63b8ff" d="M1075.65,-450.84C1081.84,-442.61 1089.69,-432.18 1096.21,-423.51"/>
<polygon fill="#63b8ff" stroke="#63b8ff" points="1099.19,-425.36 1102.41,-415.27 1093.6,-421.15 1099.19,-425.36"/>
</a>
</g>
</g>
<!-- Node40 -->
<g id="Node000040" class="node">
<title>Node40</title>
<g id="a_Node000040"><a xlink:title=" ">
<polygon fill="#e0e0e0" stroke="#999999" points="1309,-415 1187,-415 1187,-396 1309,-396 1309,-415"/>
<text text-anchor="middle" x="1248" y="-403" font-family="Helvetica,sans-Serif" font-size="10.00">elxParameterObject.h</text>
</a>
</g>
</g>
<!-- Node1&#45;&gt;Node40 -->
<g id="edge68_Node000001_Node000040" class="edge">
<title>Node1&#45;&gt;Node40</title>
<g id="a_edge68_Node000001_Node000040"><a xlink:title=" ">
<path fill="none" stroke="#63b8ff" d="M1108.83,-450.99C1140.14,-440.98 1181.78,-427.67 1211.33,-418.22"/>
<polygon fill="#63b8ff" stroke="#63b8ff" points="1212.78,-421.43 1221.24,-415.05 1210.65,-414.76 1212.78,-421.43"/>
</a>
</g>
</g>
<!-- Node3 -->
<g id="Node000003" class="node">
<title>Node3</title>
<g id="a_Node000003"><a xlink:href="sitkElastixTransformixWrappers_8h.html" target="_top" xlink:title=" ">
<polygon fill="white" stroke="#666666" points="1081.5,-360 900.5,-360 900.5,-341 1081.5,-341 1081.5,-360"/>
<text text-anchor="middle" x="991" y="-348" font-family="Helvetica,sans-Serif" font-size="10.00">sitkElastixTransformixWrappers.h</text>
</a>
</g>
</g>
<!-- Node2&#45;&gt;Node3 -->
<g id="edge2_Node000002_Node000003" class="edge">
<title>Node2&#45;&gt;Node3</title>
<g id="a_edge2_Node000002_Node000003"><a xlink:title=" ">
<path fill="none" stroke="#63b8ff" d="M794.6,-395.98C834.99,-386.84 899.28,-372.27 943.23,-362.32"/>
<polygon fill="#63b8ff" stroke="#63b8ff" points="944.13,-365.7 953.11,-360.08 942.58,-358.88 944.13,-365.7"/>
</a>
</g>
</g>
<!-- Node11 -->
<g id="Node000011" class="node">
<title>Node11</title>
<g id="a_Node000011"><a xlink:href="sitkCommon_8h.html" target="_top" xlink:title=" ">
<polygon fill="white" stroke="#666666" points="686,-129 598,-129 598,-110 686,-110 686,-129"/>
<text text-anchor="middle" x="642" y="-117" font-family="Helvetica,sans-Serif" font-size="10.00">sitkCommon.h</text>
</a>
</g>
</g>
<!-- Node2&#45;&gt;Node11 -->
<g id="edge10_Node000002_Node000011" class="edge">
<title>Node2&#45;&gt;Node11</title>
<g id="a_edge10_Node000002_Node000011"><a xlink:title=" ">
<path fill="none" stroke="#63b8ff" d="M748.44,-395.83C732.31,-378.52 699,-337.79 699,-296.5 699,-296.5 699,-296.5 699,-234 699,-202.19 694.91,-193.1 680,-165 674.43,-154.5 666.01,-144.3 658.52,-136.32"/>
<polygon fill="#63b8ff" stroke="#63b8ff" points="660.97,-133.83 651.47,-129.16 655.98,-138.74 660.97,-133.83"/>
</a>
</g>
</g>
<!-- Node12 -->
<g id="Node000012" class="node">
<title>Node12</title>
<g id="a_Node000012"><a xlink:href="sitkImage_8h.html" target="_top" xlink:title=" ">
<polygon fill="white" stroke="#666666" points="658,-360 584,-360 584,-341 658,-341 658,-360"/>
<text text-anchor="middle" x="621" y="-348" font-family="Helvetica,sans-Serif" font-size="10.00">sitkImage.h</text>
</a>
</g>
</g>
<!-- Node2&#45;&gt;Node12 -->
<g id="edge12_Node000002_Node000012" class="edge">
<title>Node2&#45;&gt;Node12</title>
<g id="a_edge12_Node000002_Node000012"><a xlink:title=" ">
<path fill="none" stroke="#63b8ff" d="M735.15,-395.98C712.88,-387.3 678.1,-373.75 652.78,-363.88"/>
<polygon fill="#63b8ff" stroke="#63b8ff" points="653.84,-360.54 643.25,-360.17 651.29,-367.06 653.84,-360.54"/>
</a>
</g>
</g>
<!-- Node15 -->
<g id="Node000015" class="node">
<title>Node15</title>
<g id="a_Node000015"><a xlink:title=" ">
<polygon fill="#e0e0e0" stroke="#999999" points="58,-184 0,-184 0,-165 58,-165 58,-184"/>
<text text-anchor="middle" x="29" y="-172" font-family="Helvetica,sans-Serif" font-size="10.00">memory</text>
</a>
</g>
</g>
<!-- Node2&#45;&gt;Node15 -->
<g id="edge59_Node000002_Node000015" class="edge">
<title>Node2&#45;&gt;Node15</title>
<g id="a_edge59_Node000002_Node000015"><a xlink:title=" ">
<path fill="none" stroke="#63b8ff" d="M678.61,-399.1C561.85,-389.38 336.43,-364.16 154,-305 102.01,-288.14 77.21,-293.42 44,-250 31.87,-234.15 28.84,-211.01 28.39,-194.74"/>
<polygon fill="#63b8ff" stroke="#63b8ff" points="31.89,-194.32 28.42,-184.31 24.89,-194.3 31.89,-194.32"/>
</a>
</g>
</g>
<!-- Node16 -->
<g id="Node000016" class="node">
<title>Node16</title>
<g id="a_Node000016"><a xlink:title=" ">
<polygon fill="#e0e0e0" stroke="#999999" points="552.5,-244.5 505.5,-244.5 505.5,-225.5 552.5,-225.5 552.5,-244.5"/>
<text text-anchor="middle" x="529" y="-232.5" font-family="Helvetica,sans-Serif" font-size="10.00">vector</text>
</a>
</g>
</g>
<!-- Node2&#45;&gt;Node16 -->
<g id="edge61_Node000002_Node000016" class="edge">
<title>Node2&#45;&gt;Node16</title>
<g id="a_edge61_Node000002_Node000016"><a xlink:title=" ">
<path fill="none" stroke="#63b8ff" d="M678.98,-401.71C643.53,-396.69 603.3,-385.21 575,-360 544.09,-332.47 533.91,-282.23 530.58,-254.91"/>
<polygon fill="#63b8ff" stroke="#63b8ff" points="534.04,-254.33 529.54,-244.74 527.08,-255.05 534.04,-254.33"/>
</a>
</g>
</g>
<!-- Node33 -->
<g id="Node000033" class="node">
<title>Node33</title>
<g id="a_Node000033"><a xlink:title=" ">
<polygon fill="#e0e0e0" stroke="#999999" points="927,-184 883,-184 883,-165 927,-165 927,-184"/>
<text text-anchor="middle" x="905" y="-172" font-family="Helvetica,sans-Serif" font-size="10.00">string</text>
</a>
</g>
</g>
<!-- Node2&#45;&gt;Node33 -->
<g id="edge60_Node000002_Node000033" class="edge">
<title>Node2&#45;&gt;Node33</title>
<g id="a_edge60_Node000002_Node000033"><a xlink:title=" ">
<path fill="none" stroke="#63b8ff" d="M765.94,-395.73C779.8,-382.51 807.71,-357.28 835,-341 870.94,-319.56 895.15,-337.1 922,-305 946.48,-275.74 944.87,-256.57 934,-220 931.02,-209.98 925,-200.11 919.21,-192.22"/>
<polygon fill="#63b8ff" stroke="#63b8ff" points="921.87,-189.95 912.94,-184.25 916.37,-194.28 921.87,-189.95"/>
</a>
</g>
</g>
<!-- Node36 -->
<g id="Node000036" class="node">
<title>Node36</title>
<g id="a_Node000036"><a xlink:title=" ">
<polygon fill="#e0e0e0" stroke="#999999" points="882,-360 844,-360 844,-341 882,-341 882,-360"/>
<text text-anchor="middle" x="863" y="-348" font-family="Helvetica,sans-Serif" font-size="10.00">map</text>
</a>
</g>
</g>
<!-- Node2&#45;&gt;Node36 -->
<g id="edge58_Node000002_Node000036" class="edge">
<title>Node2&#45;&gt;Node36</title>
<g id="a_edge58_Node000002_Node000036"><a xlink:title=" ">
<path fill="none" stroke="#63b8ff" d="M774.03,-395.98C790.93,-387.54 817.06,-374.47 836.64,-364.68"/>
<polygon fill="#63b8ff" stroke="#63b8ff" points="838.28,-367.77 845.66,-360.17 835.15,-361.51 838.28,-367.77"/>
</a>
</g>
</g>
<!-- Node4 -->
<g id="Node000004" class="node">
<title>Node4</title>
<g id="a_Node000004"><a xlink:href="sitkMacro_8h.html" target="_top" xlink:title=" ">
<polygon fill="white" stroke="#666666" points="1028,-74 954,-74 954,-55 1028,-55 1028,-74"/>
<text text-anchor="middle" x="991" y="-62" font-family="Helvetica,sans-Serif" font-size="10.00">sitkMacro.h</text>
</a>
</g>
</g>
<!-- Node3&#45;&gt;Node4 -->
<g id="edge3_Node000003_Node000004" class="edge">
<title>Node3&#45;&gt;Node4</title>
<g id="a_edge3_Node000003_Node000004"><a xlink:title=" ">
<path fill="none" stroke="#63b8ff" d="M991,-340.96C991,-322.05 991,-275.21 991,-236 991,-236 991,-236 991,-173.5 991,-142.19 991,-105.77 991,-84.23"/>
<polygon fill="#63b8ff" stroke="#63b8ff" points="994.5,-84.18 991,-74.18 987.5,-84.18 994.5,-84.18"/>
</a>
</g>
</g>
<!-- Node5 -->
<g id="Node000005" class="node">
<title>Node5</title>
<g id="a_Node000005"><a xlink:title=" ">
<polygon fill="#e0e0e0" stroke="#999999" points="1230.5,-19 1177.5,-19 1177.5,0 1230.5,0 1230.5,-19"/>
<text text-anchor="middle" x="1204" y="-7" font-family="Helvetica,sans-Serif" font-size="10.00">stdint.h</text>
</a>
</g>
</g>
<!-- Node4&#45;&gt;Node5 -->
<g id="edge4_Node000004_Node000005" class="edge">
<title>Node4&#45;&gt;Node5</title>
<g id="a_edge4_Node000004_Node000005"><a xlink:title=" ">
<path fill="none" stroke="#63b8ff" d="M1025.22,-54.98C1064.17,-45.29 1127.53,-29.53 1167.43,-19.6"/>
<polygon fill="#63b8ff" stroke="#63b8ff" points="1168.42,-22.96 1177.28,-17.15 1166.73,-16.17 1168.42,-22.96"/>
</a>
</g>
</g>
<!-- Node6 -->
<g id="Node000006" class="node">
<title>Node6</title>
<g id="a_Node000006"><a xlink:title=" ">
<polygon fill="#e0e0e0" stroke="#999999" points="1053,-19 997,-19 997,0 1053,0 1053,-19"/>
<text text-anchor="middle" x="1025" y="-7" font-family="Helvetica,sans-Serif" font-size="10.00">stddef.h</text>
</a>
</g>
</g>
<!-- Node4&#45;&gt;Node6 -->
<g id="edge5_Node000004_Node000006" class="edge">
<title>Node4&#45;&gt;Node6</title>
<g id="a_edge5_Node000004_Node000006"><a xlink:title=" ">
<path fill="none" stroke="#63b8ff" d="M996.61,-54.75C1001.32,-47.42 1008.17,-36.73 1013.97,-27.7"/>
<polygon fill="#63b8ff" stroke="#63b8ff" points="1017.04,-29.4 1019.49,-19.09 1011.14,-25.62 1017.04,-29.4"/>
</a>
</g>
</g>
<!-- Node7 -->
<g id="Node000007" class="node">
<title>Node7</title>
<g id="a_Node000007"><a xlink:title=" ">
<polygon fill="#e0e0e0" stroke="#999999" points="1123,-19 1071,-19 1071,0 1123,0 1123,-19"/>
<text text-anchor="middle" x="1097" y="-7" font-family="Helvetica,sans-Serif" font-size="10.00">cassert</text>
</a>
</g>
</g>
<!-- Node4&#45;&gt;Node7 -->
<g id="edge6_Node000004_Node000007" class="edge">
<title>Node4&#45;&gt;Node7</title>
<g id="a_edge6_Node000004_Node000007"><a xlink:title=" ">
<path fill="none" stroke="#63b8ff" d="M1008.03,-54.98C1024.93,-46.54 1051.06,-33.47 1070.64,-23.68"/>
<polygon fill="#63b8ff" stroke="#63b8ff" points="1072.28,-26.77 1079.66,-19.17 1069.15,-20.51 1072.28,-26.77"/>
</a>
</g>
</g>
<!-- Node8 -->
<g id="Node000008" class="node">
<title>Node8</title>
<g id="a_Node000008"><a xlink:title=" ">
<polygon fill="#e0e0e0" stroke="#999999" points="917,-19 861,-19 861,0 917,0 917,-19"/>
<text text-anchor="middle" x="889" y="-7" font-family="Helvetica,sans-Serif" font-size="10.00">sstream</text>
</a>
</g>
</g>
<!-- Node4&#45;&gt;Node8 -->
<g id="edge7_Node000004_Node000008" class="edge">
<title>Node4&#45;&gt;Node8</title>
<g id="a_edge7_Node000004_Node000008"><a xlink:title=" ">
<path fill="none" stroke="#63b8ff" d="M974.61,-54.98C958.43,-46.57 933.43,-33.59 914.62,-23.81"/>
<polygon fill="#63b8ff" stroke="#63b8ff" points="916.17,-20.68 905.69,-19.17 912.95,-26.89 916.17,-20.68"/>
</a>
</g>
</g>
<!-- Node9 -->
<g id="Node000009" class="node">
<title>Node9</title>
<g id="a_Node000009"><a xlink:title=" ">
<polygon fill="#e0e0e0" stroke="#999999" points="979,-19 935,-19 935,0 979,0 979,-19"/>
<text text-anchor="middle" x="957" y="-7" font-family="Helvetica,sans-Serif" font-size="10.00">limits</text>
</a>
</g>
</g>
<!-- Node4&#45;&gt;Node9 -->
<g id="edge8_Node000004_Node000009" class="edge">
<title>Node4&#45;&gt;Node9</title>
<g id="a_edge8_Node000004_Node000009"><a xlink:title=" ">
<path fill="none" stroke="#63b8ff" d="M985.39,-54.75C980.68,-47.42 973.83,-36.73 968.03,-27.7"/>
<polygon fill="#63b8ff" stroke="#63b8ff" points="970.86,-25.62 962.51,-19.09 964.96,-29.4 970.86,-25.62"/>
</a>
</g>
</g>
<!-- Node10 -->
<g id="Node000010" class="node">
<title>Node10</title>
<g id="a_Node000010"><a xlink:href="sitkConfigure_8h.html" target="_top" xlink:title=" ">
<polygon fill="white" stroke="#666666" points="1376,-19 1286,-19 1286,0 1376,0 1376,-19"/>
<text text-anchor="middle" x="1331" y="-7" font-family="Helvetica,sans-Serif" font-size="10.00">sitkConfigure.h</text>
</a>
</g>
</g>
<!-- Node4&#45;&gt;Node10 -->
<g id="edge9_Node000004_Node000010" class="edge">
<title>Node4&#45;&gt;Node10</title>
<g id="a_edge9_Node000004_Node000010"><a xlink:title=" ">
<path fill="none" stroke="#63b8ff" d="M1028.03,-57.73C1087.91,-48.39 1206.29,-29.94 1276.03,-19.07"/>
<polygon fill="#63b8ff" stroke="#63b8ff" points="1276.61,-22.52 1285.95,-17.52 1275.53,-15.6 1276.61,-22.52"/>
</a>
</g>
</g>
<!-- Node11&#45;&gt;Node4 -->
<g id="edge11_Node000011_Node000004" class="edge">
<title>Node11&#45;&gt;Node4</title>
<g id="a_edge11_Node000011_Node000004"><a xlink:title=" ">
<path fill="none" stroke="#63b8ff" d="M686.2,-111.79C752.24,-101.76 876.11,-82.95 943.83,-72.66"/>
<polygon fill="#63b8ff" stroke="#63b8ff" points="944.44,-76.11 953.8,-71.15 943.39,-69.19 944.44,-76.11"/>
</a>
</g>
</g>
<!-- Node12&#45;&gt;Node11 -->
<g id="edge13_Node000012_Node000011" class="edge">
<title>Node12&#45;&gt;Node11</title>
<g id="a_edge13_Node000012_Node000011"><a xlink:title=" ">
<path fill="none" stroke="#63b8ff" d="M583.93,-348.56C481.25,-344.62 205.79,-324.3 285,-220 321.63,-171.77 497.42,-140.67 587.91,-127.58"/>
<polygon fill="#63b8ff" stroke="#63b8ff" points="588.57,-131.03 597.98,-126.15 587.59,-124.1 588.57,-131.03"/>
</a>
</g>
</g>
<!-- Node13 -->
<g id="Node000013" class="node">
<title>Node13</title>
<g id="a_Node000013"><a xlink:href="sitkTemplateFunctions_8h.html" target="_top" xlink:title=" ">
<polygon fill="white" stroke="#666666" points="477.5,-305 342.5,-305 342.5,-286 477.5,-286 477.5,-305"/>
<text text-anchor="middle" x="410" y="-293" font-family="Helvetica,sans-Serif" font-size="10.00">sitkTemplateFunctions.h</text>
</a>
</g>
</g>
<!-- Node12&#45;&gt;Node13 -->
<g id="edge14_Node000012_Node000013" class="edge">
<title>Node12&#45;&gt;Node13</title>
<g id="a_edge14_Node000012_Node000013"><a xlink:title=" ">
<path fill="none" stroke="#63b8ff" d="M587.1,-340.98C550.98,-331.91 493.68,-317.52 454.08,-307.57"/>
<polygon fill="#63b8ff" stroke="#63b8ff" points="454.72,-304.12 444.17,-305.08 453.01,-310.91 454.72,-304.12"/>
</a>
</g>
</g>
<!-- Node12&#45;&gt;Node15 -->
<g id="edge56_Node000012_Node000015" class="edge">
<title>Node12&#45;&gt;Node15</title>
<g id="a_edge56_Node000012_Node000015"><a xlink:title=" ">
<path fill="none" stroke="#63b8ff" d="M583.88,-347.28C473.83,-340.02 152.07,-313.69 72,-250 53.78,-235.51 41.81,-211.05 35.23,-194.13"/>
<polygon fill="#63b8ff" stroke="#63b8ff" points="38.36,-192.5 31.67,-184.28 31.78,-194.87 38.36,-192.5"/>
</a>
</g>
</g>
<!-- Node12&#45;&gt;Node16 -->
<g id="edge55_Node000012_Node000016" class="edge">
<title>Node12&#45;&gt;Node16</title>
<g id="a_edge55_Node000012_Node000016"><a xlink:title=" ">
<path fill="none" stroke="#63b8ff" d="M614.09,-340.97C598.9,-322.24 562.41,-277.22 542.51,-252.66"/>
<polygon fill="#63b8ff" stroke="#63b8ff" points="545.01,-250.19 536,-244.63 539.57,-254.6 545.01,-250.19"/>
</a>
</g>
</g>
<!-- Node20 -->
<g id="Node000020" class="node">
<title>Node20</title>
<g id="a_Node000020"><a xlink:href="sitkDetail_8h.html" target="_top" xlink:title=" ">
<polygon fill="white" stroke="#666666" points="1163.5,-305 1090.5,-305 1090.5,-286 1163.5,-286 1163.5,-305"/>
<text text-anchor="middle" x="1127" y="-293" font-family="Helvetica,sans-Serif" font-size="10.00">sitkDetail.h</text>
</a>
</g>
</g>
<!-- Node12&#45;&gt;Node20 -->
<g id="edge25_Node000012_Node000020" class="edge">
<title>Node12&#45;&gt;Node20</title>
<g id="a_edge25_Node000012_Node000020"><a xlink:title=" ">
<path fill="none" stroke="#63b8ff" d="M658.21,-345.6C748.8,-336.11 980.71,-311.82 1080.35,-301.39"/>
<polygon fill="#63b8ff" stroke="#63b8ff" points="1080.84,-304.85 1090.42,-300.33 1080.11,-297.89 1080.84,-304.85"/>
</a>
</g>
</g>
<!-- Node31 -->
<g id="Node000031" class="node">
<title>Node31</title>
<g id="a_Node000031"><a xlink:href="sitkPixelIDTokens_8h.html" target="_top" xlink:title=" ">
<polygon fill="white" stroke="#666666" points="913,-305 803,-305 803,-286 913,-286 913,-305"/>
<text text-anchor="middle" x="858" y="-293" font-family="Helvetica,sans-Serif" font-size="10.00">sitkPixelIDTokens.h</text>
</a>
</g>
</g>
<!-- Node12&#45;&gt;Node31 -->
<g id="edge44_Node000012_Node000031" class="edge">
<title>Node12&#45;&gt;Node31</title>
<g id="a_edge44_Node000012_Node000031"><a xlink:title=" ">
<path fill="none" stroke="#63b8ff" d="M658.03,-341.22C698.94,-332.07 764.96,-317.31 809.85,-307.27"/>
<polygon fill="#63b8ff" stroke="#63b8ff" points="810.66,-310.67 819.66,-305.07 809.14,-303.84 810.66,-310.67"/>
</a>
</g>
</g>
<!-- Node34 -->
<g id="Node000034" class="node">
<title>Node34</title>
<g id="a_Node000034"><a xlink:title=" ">
<polygon fill="#e0e0e0" stroke="#999999" points="796.5,-244.5 727.5,-244.5 727.5,-225.5 796.5,-225.5 796.5,-244.5"/>
<text text-anchor="middle" x="762" y="-232.5" font-family="Helvetica,sans-Serif" font-size="10.00">type_traits</text>
</a>
</g>
</g>
<!-- Node12&#45;&gt;Node34 -->
<g id="edge57_Node000012_Node000034" class="edge">
<title>Node12&#45;&gt;Node34</title>
<g id="a_edge57_Node000012_Node000034"><a xlink:title=" ">
<path fill="none" stroke="#63b8ff" d="M631.6,-340.97C655.38,-321.82 713.26,-275.23 743.27,-251.08"/>
<polygon fill="#63b8ff" stroke="#63b8ff" points="745.68,-253.63 751.28,-244.63 741.29,-248.17 745.68,-253.63"/>
</a>
</g>
</g>
<!-- Node35 -->
<g id="Node000035" class="node">
<title>Node35</title>
<g id="a_Node000035"><a xlink:href="sitkInterpolator_8h.html" target="_top" xlink:title=" ">
<polygon fill="white" stroke="#666666" points="671,-244.5 571,-244.5 571,-225.5 671,-225.5 671,-244.5"/>
<text text-anchor="middle" x="621" y="-232.5" font-family="Helvetica,sans-Serif" font-size="10.00">sitkInterpolator.h</text>
</a>
</g>
</g>
<!-- Node12&#45;&gt;Node35 -->
<g id="edge52_Node000012_Node000035" class="edge">
<title>Node12&#45;&gt;Node35</title>
<g id="a_edge52_Node000012_Node000035"><a xlink:title=" ">
<path fill="none" stroke="#63b8ff" d="M621,-340.97C621,-322.73 621,-279.57 621,-254.64"/>
<polygon fill="#63b8ff" stroke="#63b8ff" points="624.5,-254.63 621,-244.63 617.5,-254.63 624.5,-254.63"/>
</a>
</g>
</g>
<!-- Node13&#45;&gt;Node4 -->
<g id="edge15_Node000013_Node000004" class="edge">
<title>Node13&#45;&gt;Node4</title>
<g id="a_edge15_Node000013_Node000004"><a xlink:title=" ">
<path fill="none" stroke="#63b8ff" d="M342.41,-294.51C262.07,-292.91 135.06,-284.76 105,-250 96.28,-239.91 98.42,-231.6 105,-220 157.18,-128.01 213.52,-136.1 316,-110 434.98,-79.7 809.88,-69.21 943.29,-66.38"/>
<polygon fill="#63b8ff" stroke="#63b8ff" points="943.66,-69.88 953.59,-66.17 943.52,-62.88 943.66,-69.88"/>
</a>
</g>
</g>
<!-- Node13&#45;&gt;Node11 -->
<g id="edge16_Node000013_Node000011" class="edge">
<title>Node13&#45;&gt;Node11</title>
<g id="a_edge16_Node000013_Node000011"><a xlink:title=" ">
<path fill="none" stroke="#63b8ff" d="M413.21,-285.64C419.06,-270.52 432.77,-239.46 453,-220 497.81,-176.9 565,-147.57 606.03,-132.47"/>
<polygon fill="#63b8ff" stroke="#63b8ff" points="607.39,-135.7 615.62,-129.02 605.03,-129.11 607.39,-135.7"/>
</a>
</g>
</g>
<!-- Node14 -->
<g id="Node000014" class="node">
<title>Node14</title>
<g id="a_Node000014"><a xlink:href="sitkExceptionObject_8h.html" target="_top" xlink:title=" ">
<polygon fill="white" stroke="#666666" points="237.5,-244.5 114.5,-244.5 114.5,-225.5 237.5,-225.5 237.5,-244.5"/>
<text text-anchor="middle" x="176" y="-232.5" font-family="Helvetica,sans-Serif" font-size="10.00">sitkExceptionObject.h</text>
</a>
</g>
</g>
<!-- Node13&#45;&gt;Node14 -->
<g id="edge17_Node000013_Node000014" class="edge">
<title>Node13&#45;&gt;Node14</title>
<g id="a_edge17_Node000013_Node000014"><a xlink:title=" ">
<path fill="none" stroke="#63b8ff" d="M375.97,-285.99C334.73,-275.68 265.14,-258.28 219.89,-246.97"/>
<polygon fill="#63b8ff" stroke="#63b8ff" points="220.62,-243.55 210.07,-244.52 218.92,-250.34 220.62,-243.55"/>
</a>
</g>
</g>
<!-- Node13&#45;&gt;Node16 -->
<g id="edge21_Node000013_Node000016" class="edge">
<title>Node13&#45;&gt;Node16</title>
<g id="a_edge21_Node000013_Node000016"><a xlink:title=" ">
<path fill="none" stroke="#63b8ff" d="M427.3,-285.99C447.05,-276.29 479.55,-260.31 502.49,-249.03"/>
<polygon fill="#63b8ff" stroke="#63b8ff" points="504.25,-252.07 511.68,-244.52 501.16,-245.79 504.25,-252.07"/>
</a>
</g>
</g>
<!-- Node17 -->
<g id="Node000017" class="node">
<title>Node17</title>
<g id="a_Node000017"><a xlink:title=" ">
<polygon fill="#e0e0e0" stroke="#999999" points="670.5,-184 613.5,-184 613.5,-165 670.5,-165 670.5,-184"/>
<text text-anchor="middle" x="642" y="-172" font-family="Helvetica,sans-Serif" font-size="10.00">ostream</text>
</a>
</g>
</g>
<!-- Node13&#45;&gt;Node17 -->
<g id="edge22_Node000013_Node000017" class="edge">
<title>Node13&#45;&gt;Node17</title>
<g id="a_edge22_Node000013_Node000017"><a xlink:title=" ">
<path fill="none" stroke="#63b8ff" d="M417.77,-285.83C432.01,-270.43 463.9,-238.21 497,-220 530.64,-201.49 573,-189.63 603.23,-182.85"/>
<polygon fill="#63b8ff" stroke="#63b8ff" points="604.35,-186.19 613.38,-180.66 602.87,-179.35 604.35,-186.19"/>
</a>
</g>
</g>
<!-- Node18 -->
<g id="Node000018" class="node">
<title>Node18</title>
<g id="a_Node000018"><a xlink:title=" ">
<polygon fill="#e0e0e0" stroke="#999999" points="410.5,-244.5 357.5,-244.5 357.5,-225.5 410.5,-225.5 410.5,-244.5"/>
<text text-anchor="middle" x="384" y="-232.5" font-family="Helvetica,sans-Serif" font-size="10.00">iterator</text>
</a>
</g>
</g>
<!-- Node13&#45;&gt;Node18 -->
<g id="edge23_Node000013_Node000018" class="edge">
<title>Node13&#45;&gt;Node18</title>
<g id="a_edge23_Node000013_Node000018"><a xlink:title=" ">
<path fill="none" stroke="#63b8ff" d="M406.16,-285.87C402.44,-277.49 396.67,-264.51 391.95,-253.89"/>
<polygon fill="#63b8ff" stroke="#63b8ff" points="395.11,-252.38 387.85,-244.67 388.72,-255.23 395.11,-252.38"/>
</a>
</g>
</g>
<!-- Node19 -->
<g id="Node000019" class="node">
<title>Node19</title>
<g id="a_Node000019"><a xlink:title=" ">
<polygon fill="#e0e0e0" stroke="#999999" points="339.5,-244.5 294.5,-244.5 294.5,-225.5 339.5,-225.5 339.5,-244.5"/>
<text text-anchor="middle" x="317" y="-232.5" font-family="Helvetica,sans-Serif" font-size="10.00">utility</text>
</a>
</g>
</g>
<!-- Node13&#45;&gt;Node19 -->
<g id="edge24_Node000013_Node000019" class="edge">
<title>Node13&#45;&gt;Node19</title>
<g id="a_edge24_Node000013_Node000019"><a xlink:title=" ">
<path fill="none" stroke="#63b8ff" d="M396.28,-285.87C381.3,-276.45 357.11,-261.23 339.38,-250.08"/>
<polygon fill="#63b8ff" stroke="#63b8ff" points="341.11,-247.03 330.78,-244.67 337.38,-252.95 341.11,-247.03"/>
</a>
</g>
</g>
<!-- Node14&#45;&gt;Node4 -->
<g id="edge18_Node000014_Node000004" class="edge">
<title>Node14&#45;&gt;Node4</title>
<g id="a_edge18_Node000014_Node000004"><a xlink:title=" ">
<path fill="none" stroke="#63b8ff" d="M178.92,-225.06C184.37,-209.94 197.59,-179.54 220,-165 340.66,-86.72 794.83,-69.82 943.54,-66.35"/>
<polygon fill="#63b8ff" stroke="#63b8ff" points="943.79,-69.85 953.71,-66.12 943.63,-62.85 943.79,-69.85"/>
</a>
</g>
</g>
<!-- Node14&#45;&gt;Node11 -->
<g id="edge19_Node000014_Node000011" class="edge">
<title>Node14&#45;&gt;Node11</title>
<g id="a_edge19_Node000014_Node000011"><a xlink:title=" ">
<path fill="none" stroke="#63b8ff" d="M182.4,-225.39C194.23,-210.21 221.16,-178.97 252,-165 310.63,-138.44 495.12,-126.84 587.78,-122.59"/>
<polygon fill="#63b8ff" stroke="#63b8ff" points="587.96,-126.09 597.8,-122.15 587.65,-119.1 587.96,-126.09"/>
</a>
</g>
</g>
<!-- Node14&#45;&gt;Node15 -->
<g id="edge20_Node000014_Node000015" class="edge">
<title>Node14&#45;&gt;Node15</title>
<g id="a_edge20_Node000014_Node000015"><a xlink:title=" ">
<path fill="none" stroke="#63b8ff" d="M154.62,-225.49C129.69,-215.57 88.28,-199.09 59.86,-187.78"/>
<polygon fill="#63b8ff" stroke="#63b8ff" points="60.99,-184.46 50.4,-184.02 58.4,-190.97 60.99,-184.46"/>
</a>
</g>
</g>
<!-- Node21 -->
<g id="Node000021" class="node">
<title>Node21</title>
<g id="a_Node000021"><a xlink:href="sitkMemberFunctionFactoryBase_8h.html" target="_top" xlink:title=" ">
<polygon fill="white" stroke="#666666" points="1577,-250 1425,-250 1425,-220 1577,-220 1577,-250"/>
<text text-anchor="start" x="1433" y="-238" font-family="Helvetica,sans-Serif" font-size="10.00">sitkMemberFunctionFactory</text>
<text text-anchor="middle" x="1501" y="-227" font-family="Helvetica,sans-Serif" font-size="10.00">Base.h</text>
</a>
</g>
</g>
<!-- Node20&#45;&gt;Node21 -->
<g id="edge26_Node000020_Node000021" class="edge">
<title>Node20&#45;&gt;Node21</title>
<g id="a_edge26_Node000020_Node000021"><a xlink:title=" ">
<path fill="none" stroke="#63b8ff" d="M1163.64,-287.62C1166.8,-287.06 1169.96,-286.51 1173,-286 1254.85,-272.2 1348.48,-258.1 1414.7,-248.4"/>
<polygon fill="#63b8ff" stroke="#63b8ff" points="1415.29,-251.85 1424.67,-246.94 1414.27,-244.92 1415.29,-251.85"/>
</a>
</g>
</g>
<!-- Node27 -->
<g id="Node000027" class="node">
<title>Node27</title>
<g id="a_Node000027"><a xlink:title=" ">
<polygon fill="#e0e0e0" stroke="#999999" points="1196.5,-184 1057.5,-184 1057.5,-165 1196.5,-165 1196.5,-184"/>
<text text-anchor="middle" x="1127" y="-172" font-family="Helvetica,sans-Serif" font-size="10.00">Ancillary/FunctionTraits.h</text>
</a>
</g>
</g>
<!-- Node20&#45;&gt;Node27 -->
<g id="edge43_Node000020_Node000027" class="edge">
<title>Node20&#45;&gt;Node27</title>
<g id="a_edge43_Node000020_Node000027"><a xlink:title=" ">
<path fill="none" stroke="#63b8ff" d="M1127,-285.94C1127,-266.91 1127,-220.69 1127,-194.47"/>
<polygon fill="#63b8ff" stroke="#63b8ff" points="1130.5,-194.3 1127,-184.3 1123.5,-194.3 1130.5,-194.3"/>
</a>
</g>
</g>
<!-- Node21&#45;&gt;Node4 -->
<g id="edge35_Node000021_Node000004" class="edge">
<title>Node21&#45;&gt;Node4</title>
<g id="a_edge35_Node000021_Node000004"><a xlink:title=" ">
<path fill="none" stroke="#63b8ff" d="M1461.63,-219.98C1435.64,-210.46 1400.98,-197.22 1371,-184 1353.72,-176.38 1350.58,-171.89 1333,-165 1230.32,-124.77 1104.72,-92.3 1037.97,-76.31"/>
<polygon fill="#63b8ff" stroke="#63b8ff" points="1038.71,-72.88 1028.17,-73.98 1037.09,-79.69 1038.71,-72.88"/>
</a>
</g>
</g>
<!-- Node21&#45;&gt;Node10 -->
<g id="edge27_Node000021_Node000010" class="edge">
<title>Node21&#45;&gt;Node10</title>
<g id="a_edge27_Node000021_Node000010"><a xlink:title=" ">
<path fill="none" stroke="#63b8ff" d="M1542.69,-219.95C1597.28,-199.27 1682.11,-157.86 1647,-110 1615.89,-67.59 1467.98,-35 1386.01,-19.84"/>
<polygon fill="#63b8ff" stroke="#63b8ff" points="1386.58,-16.38 1376.11,-18.03 1385.32,-23.27 1386.58,-16.38"/>
</a>
</g>
</g>
<!-- Node22 -->
<g id="Node000022" class="node">
<title>Node22</title>
<g id="a_Node000022"><a xlink:href="sitkPixelIDTypes_8h.html" target="_top" xlink:title=" ">
<polygon fill="white" stroke="#666666" points="1500.5,-129 1395.5,-129 1395.5,-110 1500.5,-110 1500.5,-129"/>
<text text-anchor="middle" x="1448" y="-117" font-family="Helvetica,sans-Serif" font-size="10.00">sitkPixelIDTypes.h</text>
</a>
</g>
</g>
<!-- Node21&#45;&gt;Node22 -->
<g id="edge28_Node000021_Node000022" class="edge">
<title>Node21&#45;&gt;Node22</title>
<g id="a_edge28_Node000021_Node000022"><a xlink:title=" ">
<path fill="none" stroke="#63b8ff" d="M1533.16,-219.86C1558.06,-206.84 1586,-186.37 1571,-165 1561.85,-151.96 1525.78,-139.84 1495.05,-131.56"/>
<polygon fill="#63b8ff" stroke="#63b8ff" points="1495.86,-128.15 1485.3,-129.01 1494.08,-134.93 1495.86,-128.15"/>
</a>
</g>
</g>
<!-- Node23 -->
<g id="Node000023" class="node">
<title>Node23</title>
<g id="a_Node000023"><a xlink:href="sitkPixelIDTypeLists_8h.html" target="_top" xlink:title=" ">
<polygon fill="white" stroke="#666666" points="1502,-184 1380,-184 1380,-165 1502,-165 1502,-184"/>
<text text-anchor="middle" x="1441" y="-172" font-family="Helvetica,sans-Serif" font-size="10.00">sitkPixelIDTypeLists.h</text>
</a>
</g>
</g>
<!-- Node21&#45;&gt;Node23 -->
<g id="edge29_Node000021_Node000023" class="edge">
<title>Node21&#45;&gt;Node23</title>
<g id="a_edge29_Node000021_Node000023"><a xlink:title=" ">
<path fill="none" stroke="#63b8ff" d="M1486.48,-219.84C1477.68,-211.26 1466.43,-200.3 1457.33,-191.42"/>
<polygon fill="#63b8ff" stroke="#63b8ff" points="1459.59,-188.74 1449.99,-184.27 1454.71,-193.75 1459.59,-188.74"/>
</a>
</g>
</g>
<!-- Node24 -->
<g id="Node000024" class="node">
<title>Node24</title>
<g id="a_Node000024"><a xlink:title=" ">
<polygon fill="#e0e0e0" stroke="#999999" points="1637.5,-129 1518.5,-129 1518.5,-110 1637.5,-110 1637.5,-129"/>
<text text-anchor="middle" x="1578" y="-117" font-family="Helvetica,sans-Serif" font-size="10.00">Ancillary/type_list2.h</text>
</a>
</g>
</g>
<!-- Node21&#45;&gt;Node24 -->
<g id="edge38_Node000021_Node000024" class="edge">
<title>Node21&#45;&gt;Node24</title>
<g id="a_edge38_Node000021_Node000024"><a xlink:title=" ">
<path fill="none" stroke="#63b8ff" d="M1543.77,-219.83C1560.32,-212.01 1577.53,-200.47 1587,-184 1594.89,-170.29 1591.25,-152.25 1586.45,-138.9"/>
<polygon fill="#63b8ff" stroke="#63b8ff" points="1589.58,-137.3 1582.55,-129.37 1583.1,-139.95 1589.58,-137.3"/>
</a>
</g>
</g>
<!-- Node26 -->
<g id="Node000026" class="node">
<title>Node26</title>
<g id="a_Node000026"><a xlink:href="sitkNonCopyable_8h.html" target="_top" xlink:title=" ">
<polygon fill="white" stroke="#666666" points="1323.5,-184 1214.5,-184 1214.5,-165 1323.5,-165 1323.5,-184"/>
<text text-anchor="middle" x="1269" y="-172" font-family="Helvetica,sans-Serif" font-size="10.00">sitkNonCopyable.h</text>
</a>
</g>
</g>
<!-- Node21&#45;&gt;Node26 -->
<g id="edge36_Node000021_Node000026" class="edge">
<title>Node21&#45;&gt;Node26</title>
<g id="a_edge36_Node000021_Node000026"><a xlink:title=" ">
<path fill="none" stroke="#63b8ff" d="M1445.43,-219.99C1404.87,-209.76 1350.64,-196.09 1313.06,-186.61"/>
<polygon fill="#63b8ff" stroke="#63b8ff" points="1313.47,-183.1 1302.92,-184.05 1311.76,-189.89 1313.47,-183.1"/>
</a>
</g>
</g>
<!-- Node21&#45;&gt;Node27 -->
<g id="edge39_Node000021_Node000027" class="edge">
<title>Node21&#45;&gt;Node27</title>
<g id="a_edge39_Node000021_Node000027"><a xlink:title=" ">
<path fill="none" stroke="#63b8ff" d="M1424.86,-222.09C1356.24,-211.36 1256.44,-195.75 1191.62,-185.61"/>
<polygon fill="#63b8ff" stroke="#63b8ff" points="1191.95,-182.12 1181.53,-184.03 1190.86,-189.03 1191.95,-182.12"/>
</a>
</g>
</g>
<!-- Node28 -->
<g id="Node000028" class="node">
<title>Node28</title>
<g id="a_Node000028"><a xlink:title=" ">
<polygon fill="#e0e0e0" stroke="#999999" points="1787.5,-184 1694.5,-184 1694.5,-165 1787.5,-165 1787.5,-184"/>
<text text-anchor="middle" x="1741" y="-172" font-family="Helvetica,sans-Serif" font-size="10.00">unordered_map</text>
</a>
</g>
</g>
<!-- Node21&#45;&gt;Node28 -->
<g id="edge40_Node000021_Node000028" class="edge">
<title>Node21&#45;&gt;Node28</title>
<g id="a_edge40_Node000021_Node000028"><a xlink:title=" ">
<path fill="none" stroke="#63b8ff" d="M1558.49,-219.99C1600.62,-209.72 1657.03,-195.97 1695.92,-186.49"/>
<polygon fill="#63b8ff" stroke="#63b8ff" points="1697.02,-189.82 1705.91,-184.05 1695.36,-183.02 1697.02,-189.82"/>
</a>
</g>
</g>
<!-- Node29 -->
<g id="Node000029" class="node">
<title>Node29</title>
<g id="a_Node000029"><a xlink:title=" ">
<polygon fill="#e0e0e0" stroke="#999999" points="1870.5,-184 1805.5,-184 1805.5,-165 1870.5,-165 1870.5,-184"/>
<text text-anchor="middle" x="1838" y="-172" font-family="Helvetica,sans-Serif" font-size="10.00">functional</text>
</a>
</g>
</g>
<!-- Node21&#45;&gt;Node29 -->
<g id="edge41_Node000021_Node000029" class="edge">
<title>Node21&#45;&gt;Node29</title>
<g id="a_edge41_Node000021_Node000029"><a xlink:title=" ">
<path fill="none" stroke="#63b8ff" d="M1577.18,-221.93C1634.59,-212.65 1715.51,-199.17 1795.14,-184.3"/>
<polygon fill="#63b8ff" stroke="#63b8ff" points="1796.17,-187.67 1805.35,-182.38 1794.87,-180.79 1796.17,-187.67"/>
</a>
</g>
</g>
<!-- Node30 -->
<g id="Node000030" class="node">
<title>Node30</title>
<g id="a_Node000030"><a xlink:title=" ">
<polygon fill="#e0e0e0" stroke="#999999" points="1561.5,-184 1520.5,-184 1520.5,-165 1561.5,-165 1561.5,-184"/>
<text text-anchor="middle" x="1541" y="-172" font-family="Helvetica,sans-Serif" font-size="10.00">tuple</text>
</a>
</g>
</g>
<!-- Node21&#45;&gt;Node30 -->
<g id="edge42_Node000021_Node000030" class="edge">
<title>Node21&#45;&gt;Node30</title>
<g id="a_edge42_Node000021_Node000030"><a xlink:title=" ">
<path fill="none" stroke="#63b8ff" d="M1510.68,-219.84C1516.25,-211.69 1523.29,-201.4 1529.18,-192.78"/>
<polygon fill="#63b8ff" stroke="#63b8ff" points="1532.25,-194.5 1535.01,-184.27 1526.47,-190.55 1532.25,-194.5"/>
</a>
</g>
</g>
<!-- Node23&#45;&gt;Node5 -->
<g id="edge30_Node000023_Node000005" class="edge">
<title>Node23&#45;&gt;Node5</title>
<g id="a_edge30_Node000023_Node000005"><a xlink:title=" ">
<path fill="none" stroke="#63b8ff" d="M1426.47,-164.92C1411.8,-156.17 1388.56,-142.05 1369,-129 1315.32,-93.2 1254.1,-48.05 1223.53,-25.2"/>
<polygon fill="#63b8ff" stroke="#63b8ff" points="1225.51,-22.31 1215.41,-19.11 1221.31,-27.91 1225.51,-22.31"/>
</a>
</g>
</g>
<!-- Node23&#45;&gt;Node10 -->
<g id="edge31_Node000023_Node000010" class="edge">
<title>Node23&#45;&gt;Node10</title>
<g id="a_edge31_Node000023_Node000010"><a xlink:title=" ">
<path fill="none" stroke="#63b8ff" d="M1427.59,-164.97C1415.7,-156.87 1398.49,-143.76 1387,-129 1362.51,-97.55 1345.32,-53.66 1336.9,-29.07"/>
<polygon fill="#63b8ff" stroke="#63b8ff" points="1340.12,-27.65 1333.65,-19.25 1333.47,-29.85 1340.12,-27.65"/>
</a>
</g>
</g>
<!-- Node23&#45;&gt;Node22 -->
<g id="edge32_Node000023_Node000022" class="edge">
<title>Node23&#45;&gt;Node22</title>
<g id="a_edge32_Node000023_Node000022"><a xlink:title=" ">
<path fill="none" stroke="#63b8ff" d="M1442.16,-164.75C1443.07,-157.8 1444.39,-147.85 1445.54,-139.13"/>
<polygon fill="#63b8ff" stroke="#63b8ff" points="1449.03,-139.46 1446.87,-129.09 1442.09,-138.54 1449.03,-139.46"/>
</a>
</g>
</g>
<!-- Node23&#45;&gt;Node24 -->
<g id="edge33_Node000023_Node000024" class="edge">
<title>Node23&#45;&gt;Node24</title>
<g id="a_edge33_Node000023_Node000024"><a xlink:title=" ">
<path fill="none" stroke="#63b8ff" d="M1463.01,-164.98C1485.45,-156.3 1520.48,-142.75 1545.99,-132.88"/>
<polygon fill="#63b8ff" stroke="#63b8ff" points="1547.52,-136.04 1555.59,-129.17 1545,-129.51 1547.52,-136.04"/>
</a>
</g>
</g>
<!-- Node25 -->
<g id="Node000025" class="node">
<title>Node25</title>
<g id="a_Node000025"><a xlink:title=" ">
<polygon fill="#e0e0e0" stroke="#999999" points="1300.5,-129 1241.5,-129 1241.5,-110 1300.5,-110 1300.5,-129"/>
<text text-anchor="middle" x="1271" y="-117" font-family="Helvetica,sans-Serif" font-size="10.00">complex</text>
</a>
</g>
</g>
<!-- Node23&#45;&gt;Node25 -->
<g id="edge34_Node000023_Node000025" class="edge">
<title>Node23&#45;&gt;Node25</title>
<g id="a_edge34_Node000023_Node000025"><a xlink:title=" ">
<path fill="none" stroke="#63b8ff" d="M1413.69,-164.98C1385.15,-156.09 1340.17,-142.07 1308.36,-132.15"/>
<polygon fill="#63b8ff" stroke="#63b8ff" points="1309.12,-128.72 1298.53,-129.08 1307.03,-135.4 1309.12,-128.72"/>
</a>
</g>
</g>
<!-- Node26&#45;&gt;Node11 -->
<g id="edge37_Node000026_Node000011" class="edge">
<title>Node26&#45;&gt;Node11</title>
<g id="a_edge37_Node000026_Node000011"><a xlink:title=" ">
<path fill="none" stroke="#63b8ff" d="M1214.39,-165.94C1211.55,-165.61 1208.74,-165.29 1206,-165 1019.47,-145.07 797.34,-130.11 696.55,-123.8"/>
<polygon fill="#63b8ff" stroke="#63b8ff" points="696.51,-120.29 686.32,-123.16 696.08,-127.27 696.51,-120.29"/>
</a>
</g>
</g>
<!-- Node31&#45;&gt;Node10 -->
<g id="edge45_Node000031_Node000010" class="edge">
<title>Node31&#45;&gt;Node10</title>
<g id="a_edge45_Node000031_Node000010"><a xlink:title=" ">
<path fill="none" stroke="#63b8ff" d="M873.72,-285.94C889.3,-277.31 913.71,-263.39 934,-250 987.05,-215 995.45,-199.24 1049,-165 1139.58,-107.09 1253.47,-48.87 1304.34,-23.58"/>
<polygon fill="#63b8ff" stroke="#63b8ff" points="1305.96,-26.69 1313.36,-19.11 1302.85,-20.41 1305.96,-26.69"/>
</a>
</g>
</g>
<!-- Node32 -->
<g id="Node000032" class="node">
<title>Node32</title>
<g id="a_Node000032"><a xlink:href="sitkPixelIDValues_8h.html" target="_top" xlink:title=" ">
<polygon fill="white" stroke="#666666" points="925,-244.5 815,-244.5 815,-225.5 925,-225.5 925,-244.5"/>
<text text-anchor="middle" x="870" y="-232.5" font-family="Helvetica,sans-Serif" font-size="10.00">sitkPixelIDValues.h</text>
</a>
</g>
</g>
<!-- Node31&#45;&gt;Node32 -->
<g id="edge46_Node000031_Node000032" class="edge">
<title>Node31&#45;&gt;Node32</title>
<g id="a_edge46_Node000031_Node000032"><a xlink:title=" ">
<path fill="none" stroke="#63b8ff" d="M859.77,-285.87C861.45,-277.66 864.04,-265.04 866.19,-254.55"/>
<polygon fill="#63b8ff" stroke="#63b8ff" points="869.64,-255.17 868.22,-244.67 862.78,-253.76 869.64,-255.17"/>
</a>
</g>
</g>
<!-- Node31&#45;&gt;Node34 -->
<g id="edge51_Node000031_Node000034" class="edge">
<title>Node31&#45;&gt;Node34</title>
<g id="a_edge51_Node000031_Node000034"><a xlink:title=" ">
<path fill="none" stroke="#63b8ff" d="M843.83,-285.87C828.31,-276.41 803.17,-261.09 784.85,-249.92"/>
<polygon fill="#63b8ff" stroke="#63b8ff" points="786.58,-246.88 776.22,-244.67 782.94,-252.86 786.58,-246.88"/>
</a>
</g>
</g>
<!-- Node32&#45;&gt;Node11 -->
<g id="edge47_Node000032_Node000011" class="edge">
<title>Node32&#45;&gt;Node11</title>
<g id="a_edge47_Node000032_Node000011"><a xlink:title=" ">
<path fill="none" stroke="#63b8ff" d="M852.86,-225.47C813.33,-205.79 715.55,-157.11 668.34,-133.61"/>
<polygon fill="#63b8ff" stroke="#63b8ff" points="669.85,-130.45 659.34,-129.13 666.73,-136.72 669.85,-130.45"/>
</a>
</g>
</g>
<!-- Node32&#45;&gt;Node17 -->
<g id="edge50_Node000032_Node000017" class="edge">
<title>Node32&#45;&gt;Node17</title>
<g id="a_edge50_Node000032_Node000017"><a xlink:title=" ">
<path fill="none" stroke="#63b8ff" d="M836.85,-225.49C795.25,-214.82 724.08,-196.56 680.23,-185.31"/>
<polygon fill="#63b8ff" stroke="#63b8ff" points="681.07,-181.91 670.51,-182.81 679.33,-188.69 681.07,-181.91"/>
</a>
</g>
</g>
<!-- Node32&#45;&gt;Node23 -->
<g id="edge48_Node000032_Node000023" class="edge">
<title>Node32&#45;&gt;Node23</title>
<g id="a_edge48_Node000032_Node000023"><a xlink:title=" ">
<path fill="none" stroke="#63b8ff" d="M925.01,-228.36C1028.92,-217.72 1253.99,-194.66 1369.48,-182.83"/>
<polygon fill="#63b8ff" stroke="#63b8ff" points="1370.04,-186.29 1379.63,-181.79 1369.32,-179.33 1370.04,-186.29"/>
</a>
</g>
</g>
<!-- Node32&#45;&gt;Node33 -->
<g id="edge49_Node000032_Node000033" class="edge">
<title>Node32&#45;&gt;Node33</title>
<g id="a_edge49_Node000032_Node000033"><a xlink:title=" ">
<path fill="none" stroke="#63b8ff" d="M875.16,-225.37C880.23,-216.9 888.1,-203.74 894.49,-193.07"/>
<polygon fill="#63b8ff" stroke="#63b8ff" points="897.68,-194.55 899.81,-184.17 891.68,-190.95 897.68,-194.55"/>
</a>
</g>
</g>
<!-- Node35&#45;&gt;Node11 -->
<g id="edge53_Node000035_Node000011" class="edge">
<title>Node35&#45;&gt;Node11</title>
<g id="a_edge53_Node000035_Node000011"><a xlink:title=" ">
<path fill="none" stroke="#63b8ff" d="M615.86,-225.31C608.69,-212.04 597.39,-186.05 605,-165 608.94,-154.09 616.86,-143.96 624.36,-136.14"/>
<polygon fill="#63b8ff" stroke="#63b8ff" points="626.84,-138.61 631.56,-129.13 621.95,-133.6 626.84,-138.61"/>
</a>
</g>
</g>
<!-- Node35&#45;&gt;Node17 -->
<g id="edge54_Node000035_Node000017" class="edge">
<title>Node35&#45;&gt;Node17</title>
<g id="a_edge54_Node000035_Node000017"><a xlink:title=" ">
<path fill="none" stroke="#63b8ff" d="M624.1,-225.37C627.08,-217.07 631.67,-204.28 635.46,-193.72"/>
<polygon fill="#63b8ff" stroke="#63b8ff" points="638.8,-194.76 638.89,-184.17 632.22,-192.4 638.8,-194.76"/>
</a>
</g>
</g>
<!-- Node37&#45;&gt;Node20 -->
<g id="edge63_Node000037_Node000020" class="edge">
<title>Node37&#45;&gt;Node20</title>
<g id="a_edge63_Node000037_Node000020"><a xlink:title=" ">
<path fill="none" stroke="#63b8ff" d="M1170.41,-340.75C1162.84,-333.03 1151.62,-321.6 1142.49,-312.28"/>
<polygon fill="#63b8ff" stroke="#63b8ff" points="1144.93,-309.78 1135.43,-305.09 1139.93,-314.68 1144.93,-309.78"/>
</a>
</g>
</g>
<!-- Node37&#45;&gt;Node21 -->
<g id="edge64_Node000037_Node000021" class="edge">
<title>Node37&#45;&gt;Node21</title>
<g id="a_edge64_Node000037_Node000021"><a xlink:title=" ">
<path fill="none" stroke="#63b8ff" d="M1226.49,-340.97C1263.94,-333.53 1317.15,-321.35 1362,-305 1399.52,-291.32 1440.2,-270.34 1467.79,-255.11"/>
<polygon fill="#63b8ff" stroke="#63b8ff" points="1469.6,-258.11 1476.63,-250.18 1466.19,-252 1469.6,-258.11"/>
</a>
</g>
</g>
<!-- Node37&#45;&gt;Node32 -->
<g id="edge65_Node000037_Node000032" class="edge">
<title>Node37&#45;&gt;Node32</title>
<g id="a_edge65_Node000037_Node000032"><a xlink:title=" ">
<path fill="none" stroke="#63b8ff" d="M1155.77,-340.97C1101.42,-321 965.79,-271.18 902.93,-248.1"/>
<polygon fill="#63b8ff" stroke="#63b8ff" points="904.09,-244.79 893.49,-244.63 901.67,-251.36 904.09,-244.79"/>
</a>
</g>
</g>
<!-- Node38 -->
<g id="Node000038" class="node">
<title>Node38</title>
<g id="a_Node000038"><a xlink:title=" ">
<polygon fill="#e0e0e0" stroke="#999999" points="1352.5,-305 1181.5,-305 1181.5,-286 1352.5,-286 1352.5,-305"/>
<text text-anchor="middle" x="1267" y="-293" font-family="Helvetica,sans-Serif" font-size="10.00">sitkMemberFunctionFactory.hxx</text>
</a>
</g>
</g>
<!-- Node37&#45;&gt;Node38 -->
<g id="edge66_Node000037_Node000038" class="edge">
<title>Node37&#45;&gt;Node38</title>
<g id="a_edge66_Node000037_Node000038"><a xlink:title=" ">
<path fill="none" stroke="#63b8ff" d="M1193.14,-340.98C1206.79,-332.77 1227.69,-320.18 1243.78,-310.49"/>
<polygon fill="#63b8ff" stroke="#63b8ff" points="1245.84,-313.33 1252.6,-305.17 1242.23,-307.33 1245.84,-313.33"/>
</a>
</g>
</g>
</g>
</svg>
