<?xml version="1.0" encoding="UTF-8" standalone="no"?>
<!DOCTYPE svg PUBLIC "-//W3C//DTD SVG 1.1//EN"
 "http://www.w3.org/Graphics/SVG/1.1/DTD/svg11.dtd">
<!-- Generated by graphviz version 2.40.1 (20161225.0304)
 -->
<!-- Title: sitkExplicitITKDefaultVectorPixelAccessor.h Pages: 1 -->
<!--zoomable 397 -->
<svg id="main" version="1.1" xmlns="http://www.w3.org/2000/svg" xmlns:xlink="http://www.w3.org/1999/xlink" xml:space="preserve" onload="init(evt)">
<style type="text/css"><![CDATA[
.edge:hover path { stroke: red; }
.edge:hover polygon { stroke: red; fill: red; }
]]></style>
<script type="text/javascript"><![CDATA[
var edges = document.getElementsByTagName('g');
if (edges && edges.length) {
  for (var i=0;i<edges.length;i++) {
    if (edges[i].id.substr(0,4)=='edge') {
      edges[i].setAttribute('class','edge');
    }
  }
}
]]></script>
        <defs>
                <circle id="rim" cx="0" cy="0" r="7"/>
                <circle id="rim2" cx="0" cy="0" r="3.5"/>
                <g id="zoomPlus">
                        <use xlink:href="#rim" fill="#404040">
                                <set attributeName="fill" to="#808080" begin="zoomplus.mouseover" end="zoomplus.mouseout"/>
                        </use>
                        <path d="M-4,0h8M0,-4v8" fill="none" stroke="white" stroke-width="1.5" pointer-events="none"/>
                </g>
                <g id="zoomMin">
                        <use xlink:href="#rim" fill="#404040">
                                <set attributeName="fill" to="#808080" begin="zoomminus.mouseover" end="zoomminus.mouseout"/>
                        </use>
                        <path d="M-4,0h8" fill="none" stroke="white" stroke-width="1.5" pointer-events="none"/>
                </g>
                <g id="dirArrow">
                        <path fill="none" stroke="white" stroke-width="1.5" d="M0,-3.0v7 M-2.5,-0.5L0,-3.0L2.5,-0.5"/>
                </g>
               <g id="resetDef">
                       <use xlink:href="#rim2" fill="#404040">
                               <set attributeName="fill" to="#808080" begin="reset.mouseover" end="reset.mouseout"/>
                       </use>
               </g>
        </defs>

<script type="text/javascript">
var viewWidth = 1303;
var viewHeight = 397;
var sectionId = 'dynsection-0';
</script>
<script xlink:href="svgpan.js"/>
<svg id="graph" class="graph">
<g id="viewport">
<title>sitkExplicitITKDefaultVectorPixelAccessor.h</title>
<polygon fill="#ffffff" stroke="transparent" points="-4,4 -4,-393 1298.5,-393 1298.5,4 -4,4"/>
<!-- Node1 -->
<g id="node1" class="node">
<title>Node1</title>
<g id="a_node1"><a xlink:title=" ">
<polygon fill="#bfbfbf" stroke="#000000" points="446.5,-358.5 446.5,-388.5 599.5,-388.5 599.5,-358.5 446.5,-358.5"/>
<text text-anchor="start" x="454.5" y="-376.5" font-family="Helvetica,sans-Serif" font-size="10.00" fill="#000000">sitkExplicitITKDefaultVector</text>
<text text-anchor="middle" x="523" y="-365.5" font-family="Helvetica,sans-Serif" font-size="10.00" fill="#000000">PixelAccessor.h</text>
</a>
</g>
</g>
<!-- Node2 -->
<g id="node2" class="node">
<title>Node2</title>
<g id="a_node2"><a xlink:href="sitkExplicit_8h.html" target="_top" xlink:title=" ">
<polygon fill="#ffffff" stroke="#000000" points="411,-302.5 411,-321.5 491,-321.5 491,-302.5 411,-302.5"/>
<text text-anchor="middle" x="451" y="-309.5" font-family="Helvetica,sans-Serif" font-size="10.00" fill="#000000">sitkExplicit.h</text>
</a>
</g>
</g>
<!-- Node1&#45;&gt;Node2 -->
<g id="edge1" class="edge">
<title>Node1&#45;&gt;Node2</title>
<path fill="none" stroke="#191970" d="M505.2022,-358.2977C494.5833,-349.2274 481.0969,-337.7077 470.2333,-328.4285"/>
<polygon fill="#191970" stroke="#191970" points="472.4051,-325.6805 462.5281,-321.8469 467.8587,-331.0031 472.4051,-325.6805"/>
</g>
<!-- Node10 -->
<g id="node10" class="node">
<title>Node10</title>
<g id="a_node10"><a xlink:href="https://www.itk.org/Doxygen/html/itkDefaultVectorPixelAccessor_8h.html" xlink:title=" ">
<polygon fill="#ffffff" stroke="#000000" points="537,-302.5 537,-321.5 709,-321.5 709,-302.5 537,-302.5"/>
<text text-anchor="middle" x="623" y="-309.5" font-family="Helvetica,sans-Serif" font-size="10.00" fill="#000000">itkDefaultVectorPixelAccessor.h</text>
</a>
</g>
</g>
<!-- Node1&#45;&gt;Node10 -->
<g id="edge9" class="edge">
<title>Node1&#45;&gt;Node10</title>
<path fill="none" stroke="#191970" d="M547.4628,-358.4554C563.1235,-348.8241 583.3532,-336.3828 598.9356,-326.7996"/>
<polygon fill="#191970" stroke="#191970" points="600.819,-329.7503 607.5035,-321.5303 597.152,-323.7876 600.819,-329.7503"/>
</g>
<!-- Node3 -->
<g id="node3" class="node">
<title>Node3</title>
<g id="a_node3"><a xlink:href="sitkMacro_8h.html" target="_top" xlink:title=" ">
<polygon fill="#ffffff" stroke="#000000" points="233.5,-246.5 233.5,-265.5 306.5,-265.5 306.5,-246.5 233.5,-246.5"/>
<text text-anchor="middle" x="270" y="-253.5" font-family="Helvetica,sans-Serif" font-size="10.00" fill="#000000">sitkMacro.h</text>
</a>
</g>
</g>
<!-- Node2&#45;&gt;Node3 -->
<g id="edge2" class="edge">
<title>Node2&#45;&gt;Node3</title>
<path fill="none" stroke="#191970" d="M419.885,-302.3733C389.6571,-293.021 343.604,-278.7725 310.5261,-268.5385"/>
<polygon fill="#191970" stroke="#191970" points="311.2967,-265.1133 300.709,-265.5011 309.2277,-271.8005 311.2967,-265.1133"/>
</g>
<!-- Node4 -->
<g id="node4" class="node">
<title>Node4</title>
<g id="a_node4"><a xlink:title=" ">
<polygon fill="#ffffff" stroke="#bfbfbf" points="170.5,-185 170.5,-204 223.5,-204 223.5,-185 170.5,-185"/>
<text text-anchor="middle" x="197" y="-192" font-family="Helvetica,sans-Serif" font-size="10.00" fill="#000000">stdint.h</text>
</a>
</g>
</g>
<!-- Node3&#45;&gt;Node4 -->
<g id="edge3" class="edge">
<title>Node3&#45;&gt;Node4</title>
<path fill="none" stroke="#191970" d="M258.5938,-246.3906C247.3031,-236.8786 229.8033,-222.1357 216.3381,-210.7917"/>
<polygon fill="#191970" stroke="#191970" points="218.4699,-208.0111 208.5671,-204.2449 213.9598,-213.3646 218.4699,-208.0111"/>
</g>
<!-- Node5 -->
<g id="node5" class="node">
<title>Node5</title>
<g id="a_node5"><a xlink:title=" ">
<polygon fill="#ffffff" stroke="#bfbfbf" points="242,-185 242,-204 298,-204 298,-185 242,-185"/>
<text text-anchor="middle" x="270" y="-192" font-family="Helvetica,sans-Serif" font-size="10.00" fill="#000000">stddef.h</text>
</a>
</g>
</g>
<!-- Node3&#45;&gt;Node5 -->
<g id="edge4" class="edge">
<title>Node3&#45;&gt;Node5</title>
<path fill="none" stroke="#191970" d="M270,-246.3906C270,-237.8657 270,-225.1392 270,-214.4235"/>
<polygon fill="#191970" stroke="#191970" points="273.5001,-214.2448 270,-204.2449 266.5001,-214.2449 273.5001,-214.2448"/>
</g>
<!-- Node6 -->
<g id="node6" class="node">
<title>Node6</title>
<g id="a_node6"><a xlink:title=" ">
<polygon fill="#ffffff" stroke="#bfbfbf" points="316,-185 316,-204 368,-204 368,-185 316,-185"/>
<text text-anchor="middle" x="342" y="-192" font-family="Helvetica,sans-Serif" font-size="10.00" fill="#000000">cassert</text>
</a>
</g>
</g>
<!-- Node3&#45;&gt;Node6 -->
<g id="edge5" class="edge">
<title>Node3&#45;&gt;Node6</title>
<path fill="none" stroke="#191970" d="M281.25,-246.3906C292.386,-236.8786 309.646,-222.1357 322.9268,-210.7917"/>
<polygon fill="#191970" stroke="#191970" points="325.2608,-213.4011 330.5914,-204.2449 320.7144,-208.0784 325.2608,-213.4011"/>
</g>
<!-- Node7 -->
<g id="node7" class="node">
<title>Node7</title>
<g id="a_node7"><a xlink:title=" ">
<polygon fill="#ffffff" stroke="#bfbfbf" points="386,-185 386,-204 442,-204 442,-185 386,-185"/>
<text text-anchor="middle" x="414" y="-192" font-family="Helvetica,sans-Serif" font-size="10.00" fill="#000000">sstream</text>
</a>
</g>
</g>
<!-- Node3&#45;&gt;Node7 -->
<g id="edge6" class="edge">
<title>Node3&#45;&gt;Node7</title>
<path fill="none" stroke="#191970" d="M292.5,-246.3906C316.5938,-236.1005 355.0213,-219.6888 382.2008,-208.0809"/>
<polygon fill="#191970" stroke="#191970" points="383.8363,-211.1883 391.658,-204.0419 381.0869,-204.7508 383.8363,-211.1883"/>
</g>
<!-- Node8 -->
<g id="node8" class="node">
<title>Node8</title>
<g id="a_node8"><a xlink:title=" ">
<polygon fill="#ffffff" stroke="#bfbfbf" points="0,-185 0,-204 44,-204 44,-185 0,-185"/>
<text text-anchor="middle" x="22" y="-192" font-family="Helvetica,sans-Serif" font-size="10.00" fill="#000000">limits</text>
</a>
</g>
</g>
<!-- Node3&#45;&gt;Node8 -->
<g id="edge7" class="edge">
<title>Node3&#45;&gt;Node8</title>
<path fill="none" stroke="#191970" d="M233.1351,-251.1136C189.3286,-244.6436 114.438,-231.4753 53,-210 51.58,-209.5036 50.1416,-208.9564 48.7021,-208.3729"/>
<polygon fill="#191970" stroke="#191970" points="49.9205,-205.0828 39.3666,-204.1528 47.037,-211.4613 49.9205,-205.0828"/>
</g>
<!-- Node9 -->
<g id="node9" class="node">
<title>Node9</title>
<g id="a_node9"><a xlink:href="sitkConfigure_8h.html" target="_top" xlink:title=" ">
<polygon fill="#ffffff" stroke="#000000" points="62,-185 62,-204 152,-204 152,-185 62,-185"/>
<text text-anchor="middle" x="107" y="-192" font-family="Helvetica,sans-Serif" font-size="10.00" fill="#000000">sitkConfigure.h</text>
</a>
</g>
</g>
<!-- Node3&#45;&gt;Node9 -->
<g id="edge8" class="edge">
<title>Node3&#45;&gt;Node9</title>
<path fill="none" stroke="#191970" d="M244.5313,-246.3906C216.8995,-235.9652 172.6131,-219.2559 141.7872,-207.6252"/>
<polygon fill="#191970" stroke="#191970" points="142.8817,-204.2974 132.2899,-204.0419 140.4106,-210.8467 142.8817,-204.2974"/>
</g>
<!-- Node11 -->
<g id="node11" class="node">
<title>Node11</title>
<g id="a_node11"><a xlink:href="https://www.itk.org/Doxygen/html/itkMacro_8h.html" xlink:title=" ">
<polygon fill="#ffffff" stroke="#000000" points="513,-6 513,-25 581,-25 581,-6 513,-6"/>
<text text-anchor="middle" x="547" y="-13" font-family="Helvetica,sans-Serif" font-size="10.00" fill="#000000">itkMacro.h</text>
</a>
</g>
</g>
<!-- Node10&#45;&gt;Node11 -->
<g id="edge10" class="edge">
<title>Node10&#45;&gt;Node11</title>
<path fill="none" stroke="#191970" d="M588.6638,-302.4001C543.5543,-287.4461 470,-253.9479 470,-194.5 470,-194.5 470,-194.5 470,-133 470,-102.3494 473.5856,-92.8848 490,-67 498.9083,-52.952 512.6666,-40.3678 524.4343,-31.1558"/>
<polygon fill="#191970" stroke="#191970" points="526.6501,-33.8691 532.5534,-25.0712 522.4521,-28.2675 526.6501,-33.8691"/>
</g>
<!-- Node12 -->
<g id="node12" class="node">
<title>Node12</title>
<g id="a_node12"><a xlink:href="https://www.itk.org/Doxygen/html/itkVariableLengthVector_8h.html" xlink:title=" ">
<polygon fill="#ffffff" stroke="#000000" points="705.5,-246.5 705.5,-265.5 846.5,-265.5 846.5,-246.5 705.5,-246.5"/>
<text text-anchor="middle" x="776" y="-253.5" font-family="Helvetica,sans-Serif" font-size="10.00" fill="#000000">itkVariableLengthVector.h</text>
</a>
</g>
</g>
<!-- Node10&#45;&gt;Node12 -->
<g id="edge11" class="edge">
<title>Node10&#45;&gt;Node12</title>
<path fill="none" stroke="#191970" d="M649.3016,-302.3733C674.4128,-293.1822 712.4438,-279.2624 740.2872,-269.0713"/>
<polygon fill="#191970" stroke="#191970" points="741.8538,-272.2251 750.0416,-265.5011 739.4478,-265.6516 741.8538,-272.2251"/>
</g>
<!-- Node24 -->
<g id="node24" class="node">
<title>Node24</title>
<g id="a_node24"><a xlink:href="https://www.itk.org/Doxygen/html/itkIntTypes_8h.html" xlink:title=" ">
<polygon fill="#ffffff" stroke="#000000" points="1215.5,-123.5 1215.5,-142.5 1294.5,-142.5 1294.5,-123.5 1215.5,-123.5"/>
<text text-anchor="middle" x="1255" y="-130.5" font-family="Helvetica,sans-Serif" font-size="10.00" fill="#000000">itkIntTypes.h</text>
</a>
</g>
</g>
<!-- Node10&#45;&gt;Node24 -->
<g id="edge40" class="edge">
<title>Node10&#45;&gt;Node24</title>
<path fill="none" stroke="#191970" d="M709.1839,-304.6426C877.3015,-289.4161 1235.8175,-252.3133 1272,-210 1285.908,-193.7354 1276.4921,-168.6234 1267.0509,-151.5335"/>
<polygon fill="#191970" stroke="#191970" points="1269.801,-149.3125 1261.6653,-142.5256 1263.7929,-152.9047 1269.801,-149.3125"/>
</g>
<!-- Node13 -->
<g id="node13" class="node">
<title>Node13</title>
<g id="a_node13"><a xlink:href="https://www.itk.org/Doxygen/html/itkNumericTraits_8h.html" xlink:title=" ">
<polygon fill="#ffffff" stroke="#000000" points="321,-123.5 321,-142.5 427,-142.5 427,-123.5 321,-123.5"/>
<text text-anchor="middle" x="374" y="-130.5" font-family="Helvetica,sans-Serif" font-size="10.00" fill="#000000">itkNumericTraits.h</text>
</a>
</g>
</g>
<!-- Node12&#45;&gt;Node13 -->
<g id="edge12" class="edge">
<title>Node12&#45;&gt;Node13</title>
<path fill="none" stroke="#191970" d="M705.3302,-247.7652C655.926,-240.7853 588.8792,-228.8431 532,-210 482.8611,-193.7211 429.4664,-165.205 399.0339,-147.8181"/>
<polygon fill="#191970" stroke="#191970" points="400.404,-144.5675 389.9946,-142.5937 396.9012,-150.628 400.404,-144.5675"/>
</g>
<!-- Node16 -->
<g id="node16" class="node">
<title>Node16</title>
<g id="a_node16"><a xlink:href="https://www.itk.org/Doxygen/html/itkStaticAssert_8h.html" xlink:title=" ">
<polygon fill="#ffffff" stroke="#000000" points="498.5,-67.5 498.5,-86.5 595.5,-86.5 595.5,-67.5 498.5,-67.5"/>
<text text-anchor="middle" x="547" y="-74.5" font-family="Helvetica,sans-Serif" font-size="10.00" fill="#000000">itkStaticAssert.h</text>
</a>
</g>
</g>
<!-- Node12&#45;&gt;Node16 -->
<g id="edge19" class="edge">
<title>Node12&#45;&gt;Node16</title>
<path fill="none" stroke="#191970" d="M713.7135,-246.4598C668.0991,-238.3672 611.1262,-225.5991 593,-210 559.4851,-181.1577 550.3671,-126.6264 547.9013,-97.1415"/>
<polygon fill="#191970" stroke="#191970" points="551.373,-96.5934 547.2294,-86.8425 544.3879,-97.0491 551.373,-96.5934"/>
</g>
<!-- Node17 -->
<g id="node17" class="node">
<title>Node17</title>
<g id="a_node17"><a xlink:href="https://www.itk.org/Doxygen/html/itkMetaProgrammingLibrary_8h.html" xlink:title=" ">
<polygon fill="#ffffff" stroke="#000000" points="1003.5,-67.5 1003.5,-86.5 1164.5,-86.5 1164.5,-67.5 1003.5,-67.5"/>
<text text-anchor="middle" x="1084" y="-74.5" font-family="Helvetica,sans-Serif" font-size="10.00" fill="#000000">itkMetaProgrammingLibrary.h</text>
</a>
</g>
</g>
<!-- Node12&#45;&gt;Node17 -->
<g id="edge21" class="edge">
<title>Node12&#45;&gt;Node17</title>
<path fill="none" stroke="#191970" d="M846.6158,-251.7569C944.5243,-245.1427 1111.6196,-230.9233 1130,-210 1155.5191,-180.9503 1144.7971,-158.7233 1130,-123 1125.1688,-111.3363 1115.7863,-101.0881 1106.7482,-93.243"/>
<polygon fill="#191970" stroke="#191970" points="1108.667,-90.2942 1098.6852,-86.7423 1104.2734,-95.7436 1108.667,-90.2942"/>
</g>
<!-- Node19 -->
<g id="node19" class="node">
<title>Node19</title>
<g id="a_node19"><a xlink:href="https://www.itk.org/Doxygen/html/itkEnableIf_8h.html" xlink:title=" ">
<polygon fill="#ffffff" stroke="#000000" points="612.5,-185 612.5,-204 689.5,-204 689.5,-185 612.5,-185"/>
<text text-anchor="middle" x="651" y="-192" font-family="Helvetica,sans-Serif" font-size="10.00" fill="#000000">itkEnableIf.h</text>
</a>
</g>
</g>
<!-- Node12&#45;&gt;Node19 -->
<g id="edge24" class="edge">
<title>Node12&#45;&gt;Node19</title>
<path fill="none" stroke="#191970" d="M756.4688,-246.3906C735.8292,-236.2359 703.0724,-220.1196 679.5398,-208.5416"/>
<polygon fill="#191970" stroke="#191970" points="680.912,-205.3161 670.3941,-204.0419 677.8218,-211.5971 680.912,-205.3161"/>
</g>
<!-- Node20 -->
<g id="node20" class="node">
<title>Node20</title>
<g id="a_node20"><a xlink:href="https://www.itk.org/Doxygen/html/itkIsBaseOf_8h.html" xlink:title=" ">
<polygon fill="#ffffff" stroke="#000000" points="1039.5,-185 1039.5,-204 1120.5,-204 1120.5,-185 1039.5,-185"/>
<text text-anchor="middle" x="1080" y="-192" font-family="Helvetica,sans-Serif" font-size="10.00" fill="#000000">itkIsBaseOf.h</text>
</a>
</g>
</g>
<!-- Node12&#45;&gt;Node20 -->
<g id="edge25" class="edge">
<title>Node12&#45;&gt;Node20</title>
<path fill="none" stroke="#191970" d="M840.9196,-246.4716C892.5143,-238.3648 966.3355,-225.5719 1030,-210 1033.8139,-209.0671 1037.7646,-208.0077 1041.6972,-206.891"/>
<polygon fill="#191970" stroke="#191970" points="1042.7509,-210.2293 1051.3474,-204.0365 1040.7653,-203.5168 1042.7509,-210.2293"/>
</g>
<!-- Node23 -->
<g id="node23" class="node">
<title>Node23</title>
<g id="a_node23"><a xlink:href="https://www.itk.org/Doxygen/html/itkIsNumber_8h.html" xlink:title=" ">
<polygon fill="#ffffff" stroke="#000000" points="1177.5,-185 1177.5,-204 1262.5,-204 1262.5,-185 1177.5,-185"/>
<text text-anchor="middle" x="1220" y="-192" font-family="Helvetica,sans-Serif" font-size="10.00" fill="#000000">itkIsNumber.h</text>
</a>
</g>
</g>
<!-- Node12&#45;&gt;Node23 -->
<g id="edge30" class="edge">
<title>Node12&#45;&gt;Node23</title>
<path fill="none" stroke="#191970" d="M846.7482,-250.737C924.7116,-244.2083 1053.5758,-231.2611 1163,-210 1168.0303,-209.0226 1173.2686,-207.8362 1178.4419,-206.5597"/>
<polygon fill="#191970" stroke="#191970" points="1179.4342,-209.9183 1188.2388,-204.025 1177.6808,-203.1414 1179.4342,-209.9183"/>
</g>
<!-- Node25 -->
<g id="node25" class="node">
<title>Node25</title>
<g id="a_node25"><a xlink:href="https://www.itk.org/Doxygen/html/itkPromoteType_8h.html" xlink:title=" ">
<polygon fill="#ffffff" stroke="#000000" points="574,-123.5 574,-142.5 676,-142.5 676,-123.5 574,-123.5"/>
<text text-anchor="middle" x="625" y="-130.5" font-family="Helvetica,sans-Serif" font-size="10.00" fill="#000000">itkPromoteType.h</text>
</a>
</g>
</g>
<!-- Node12&#45;&gt;Node25 -->
<g id="edge34" class="edge">
<title>Node12&#45;&gt;Node25</title>
<path fill="none" stroke="#191970" d="M708.3359,-246.4731C665.9544,-238.9632 616.9879,-226.9178 604,-210 590.758,-192.7511 601.6437,-167.7129 612.0514,-150.9181"/>
<polygon fill="#191970" stroke="#191970" points="615.002,-152.8018 617.628,-142.5375 609.1743,-148.9239 615.002,-152.8018"/>
</g>
<!-- Node26 -->
<g id="node26" class="node">
<title>Node26</title>
<g id="a_node26"><a xlink:href="https://www.itk.org/Doxygen/html/itkBinaryOperationConcept_8h.html" xlink:title=" ">
<polygon fill="#ffffff" stroke="#000000" points="863,-185 863,-204 1021,-204 1021,-185 863,-185"/>
<text text-anchor="middle" x="942" y="-192" font-family="Helvetica,sans-Serif" font-size="10.00" fill="#000000">itkBinaryOperationConcept.h</text>
</a>
</g>
</g>
<!-- Node12&#45;&gt;Node26 -->
<g id="edge36" class="edge">
<title>Node12&#45;&gt;Node26</title>
<path fill="none" stroke="#191970" d="M801.9375,-246.3906C830.0778,-235.9652 875.1793,-219.2559 906.5726,-207.6252"/>
<polygon fill="#191970" stroke="#191970" points="908.0834,-210.798 916.2446,-204.0419 905.6515,-204.234 908.0834,-210.798"/>
</g>
<!-- Node27 -->
<g id="node27" class="node">
<title>Node27</title>
<g id="a_node27"><a xlink:href="https://www.itk.org/Doxygen/html/itkNumericTraitsVariableLengthVectorPixel_8h.html" xlink:title=" ">
<polygon fill="#ffffff" stroke="#000000" points="707.5,-179.5 707.5,-209.5 844.5,-209.5 844.5,-179.5 707.5,-179.5"/>
<text text-anchor="start" x="715.5" y="-197.5" font-family="Helvetica,sans-Serif" font-size="10.00" fill="#000000">itkNumericTraitsVariable</text>
<text text-anchor="middle" x="776" y="-186.5" font-family="Helvetica,sans-Serif" font-size="10.00" fill="#000000">LengthVectorPixel.h</text>
</a>
</g>
</g>
<!-- Node12&#45;&gt;Node27 -->
<g id="edge38" class="edge">
<title>Node12&#45;&gt;Node27</title>
<path fill="none" stroke="#191970" d="M770.9375,-246.3906C769.539,-239.2234 769.0098,-229.0862 769.3497,-219.671"/>
<polygon fill="#191970" stroke="#191970" points="772.8515,-219.7767 770.1029,-209.5446 765.8707,-219.2574 772.8515,-219.7767"/>
</g>
<!-- Node13&#45;&gt;Node11 -->
<g id="edge13" class="edge">
<title>Node13&#45;&gt;Node11</title>
<path fill="none" stroke="#191970" d="M384.7028,-123.4404C399.9556,-110.041 429.086,-85.269 456,-67 476.3365,-53.1957 500.617,-39.5872 518.9806,-29.829"/>
<polygon fill="#191970" stroke="#191970" points="520.7661,-32.8447 527.9921,-25.0964 517.5114,-26.6473 520.7661,-32.8447"/>
</g>
<!-- Node14 -->
<g id="node14" class="node">
<title>Node14</title>
<g id="a_node14"><a xlink:href="https://www.itk.org/Doxygen/html/itkFixedArray_8h.html" xlink:title=" ">
<polygon fill="#ffffff" stroke="#000000" points="314.5,-67.5 314.5,-86.5 403.5,-86.5 403.5,-67.5 314.5,-67.5"/>
<text text-anchor="middle" x="359" y="-74.5" font-family="Helvetica,sans-Serif" font-size="10.00" fill="#000000">itkFixedArray.h</text>
</a>
</g>
</g>
<!-- Node13&#45;&gt;Node14 -->
<g id="edge14" class="edge">
<title>Node13&#45;&gt;Node14</title>
<path fill="none" stroke="#191970" d="M371.3872,-123.2455C369.4084,-115.8579 366.6256,-105.4689 364.1988,-96.4087"/>
<polygon fill="#191970" stroke="#191970" points="367.5511,-95.3966 361.5829,-86.6427 360.7895,-97.2078 367.5511,-95.3966"/>
</g>
<!-- Node14&#45;&gt;Node11 -->
<g id="edge15" class="edge">
<title>Node14&#45;&gt;Node11</title>
<path fill="none" stroke="#191970" d="M388.375,-67.3906C420.6586,-56.8298 472.6535,-39.8208 508.2547,-28.1747"/>
<polygon fill="#191970" stroke="#191970" points="509.4151,-31.4776 517.8313,-25.0419 507.2387,-24.8246 509.4151,-31.4776"/>
</g>
<!-- Node15 -->
<g id="node15" class="node">
<title>Node15</title>
<g id="a_node15"><a xlink:href="https://www.itk.org/Doxygen/html/itkNumericTraitsFixedArrayPixel_8h.html" xlink:title=" ">
<polygon fill="#ffffff" stroke="#000000" points="284.5,-.5 284.5,-30.5 433.5,-30.5 433.5,-.5 284.5,-.5"/>
<text text-anchor="start" x="292.5" y="-18.5" font-family="Helvetica,sans-Serif" font-size="10.00" fill="#000000">itkNumericTraitsFixedArray</text>
<text text-anchor="middle" x="359" y="-7.5" font-family="Helvetica,sans-Serif" font-size="10.00" fill="#000000">Pixel.h</text>
</a>
</g>
</g>
<!-- Node14&#45;&gt;Node15 -->
<g id="edge16" class="edge">
<title>Node14&#45;&gt;Node15</title>
<path fill="none" stroke="#191970" d="M353.9375,-67.3906C352.539,-60.2234 352.0098,-50.0862 352.3497,-40.671"/>
<polygon fill="#191970" stroke="#191970" points="355.8515,-40.7767 353.1029,-30.5446 348.8707,-40.2574 355.8515,-40.7767"/>
</g>
<!-- Node15&#45;&gt;Node13 -->
<g id="edge17" class="edge">
<title>Node15&#45;&gt;Node13</title>
<path fill="none" stroke="#191970" d="M334.3557,-30.7189C315.2516,-44.5752 293.7697,-66.016 305,-87 312.4515,-100.9233 326.1849,-111.3601 339.449,-118.742"/>
<polygon fill="#191970" stroke="#191970" points="337.9785,-121.9213 348.4738,-123.3698 341.1726,-115.6925 337.9785,-121.9213"/>
</g>
<!-- Node15&#45;&gt;Node14 -->
<g id="edge18" class="edge">
<title>Node15&#45;&gt;Node14</title>
<path fill="none" stroke="#191970" d="M364.8971,-30.5446C365.8593,-38.6241 366.0074,-48.681 365.3414,-57.3693"/>
<polygon fill="#191970" stroke="#191970" points="361.8567,-57.028 364.0625,-67.3906 368.8003,-57.9142 361.8567,-57.028"/>
</g>
<!-- Node16&#45;&gt;Node11 -->
<g id="edge20" class="edge">
<title>Node16&#45;&gt;Node11</title>
<path fill="none" stroke="#191970" d="M547,-67.3906C547,-58.8657 547,-46.1392 547,-35.4235"/>
<polygon fill="#191970" stroke="#191970" points="550.5001,-35.2448 547,-25.2449 543.5001,-35.2449 550.5001,-35.2448"/>
</g>
<!-- Node17&#45;&gt;Node11 -->
<g id="edge22" class="edge">
<title>Node17&#45;&gt;Node11</title>
<path fill="none" stroke="#191970" d="M1003.3152,-67.7596C888.4048,-54.5994 681.5448,-30.9088 591.2155,-20.5638"/>
<polygon fill="#191970" stroke="#191970" points="591.3803,-17.0599 581.047,-19.3992 590.5838,-24.0144 591.3803,-17.0599"/>
</g>
<!-- Node18 -->
<g id="node18" class="node">
<title>Node18</title>
<g id="a_node18"><a xlink:href="https://www.itk.org/Doxygen/html/itkSmartPointer_8h.html" xlink:title=" ">
<polygon fill="#ffffff" stroke="#000000" points="1033.5,-6 1033.5,-25 1134.5,-25 1134.5,-6 1033.5,-6"/>
<text text-anchor="middle" x="1084" y="-13" font-family="Helvetica,sans-Serif" font-size="10.00" fill="#000000">itkSmartPointer.h</text>
</a>
</g>
</g>
<!-- Node17&#45;&gt;Node18 -->
<g id="edge23" class="edge">
<title>Node17&#45;&gt;Node18</title>
<path fill="none" stroke="#191970" d="M1084,-67.3906C1084,-58.8657 1084,-46.1392 1084,-35.4235"/>
<polygon fill="#191970" stroke="#191970" points="1087.5001,-35.2448 1084,-25.2449 1080.5001,-35.2449 1087.5001,-35.2448"/>
</g>
<!-- Node21 -->
<g id="node21" class="node">
<title>Node21</title>
<g id="a_node21"><a xlink:href="https://www.itk.org/Doxygen/html/itkIsConvertible_8h.html" xlink:title=" ">
<polygon fill="#ffffff" stroke="#000000" points="925.5,-123.5 925.5,-142.5 1028.5,-142.5 1028.5,-123.5 925.5,-123.5"/>
<text text-anchor="middle" x="977" y="-130.5" font-family="Helvetica,sans-Serif" font-size="10.00" fill="#000000">itkIsConvertible.h</text>
</a>
</g>
</g>
<!-- Node20&#45;&gt;Node21 -->
<g id="edge26" class="edge">
<title>Node20&#45;&gt;Node21</title>
<path fill="none" stroke="#191970" d="M1063.9063,-184.8906C1047.2772,-174.9616 1021.1024,-159.333 1001.8206,-147.8201"/>
<polygon fill="#191970" stroke="#191970" points="1003.361,-144.6634 992.9807,-142.5419 999.7724,-150.6736 1003.361,-144.6634"/>
</g>
<!-- Node22 -->
<g id="node22" class="node">
<title>Node22</title>
<g id="a_node22"><a xlink:href="https://www.itk.org/Doxygen/html/itkIsSame_8h.html" xlink:title=" ">
<polygon fill="#ffffff" stroke="#000000" points="1047,-123.5 1047,-142.5 1121,-142.5 1121,-123.5 1047,-123.5"/>
<text text-anchor="middle" x="1084" y="-130.5" font-family="Helvetica,sans-Serif" font-size="10.00" fill="#000000">itkIsSame.h</text>
</a>
</g>
</g>
<!-- Node20&#45;&gt;Node22 -->
<g id="edge28" class="edge">
<title>Node20&#45;&gt;Node22</title>
<path fill="none" stroke="#191970" d="M1080.625,-184.8906C1081.1795,-176.3657 1082.0072,-163.6392 1082.7042,-152.9235"/>
<polygon fill="#191970" stroke="#191970" points="1086.2097,-152.951 1083.3662,-142.7449 1079.2244,-152.4966 1086.2097,-152.951"/>
</g>
<!-- Node21&#45;&gt;Node17 -->
<g id="edge27" class="edge">
<title>Node21&#45;&gt;Node17</title>
<path fill="none" stroke="#191970" d="M995.638,-123.2455C1012.4386,-114.4527 1037.3634,-101.4079 1056.4618,-91.4125"/>
<polygon fill="#191970" stroke="#191970" points="1058.3386,-94.3807 1065.5756,-86.6427 1055.0927,-88.1787 1058.3386,-94.3807"/>
</g>
<!-- Node22&#45;&gt;Node17 -->
<g id="edge29" class="edge">
<title>Node22&#45;&gt;Node17</title>
<path fill="none" stroke="#191970" d="M1084,-123.2455C1084,-115.9382 1084,-105.6944 1084,-96.7046"/>
<polygon fill="#191970" stroke="#191970" points="1087.5001,-96.6426 1084,-86.6427 1080.5001,-96.6427 1087.5001,-96.6426"/>
</g>
<!-- Node23&#45;&gt;Node17 -->
<g id="edge31" class="edge">
<title>Node23&#45;&gt;Node17</title>
<path fill="none" stroke="#191970" d="M1213.9457,-184.7657C1204.4494,-170.0582 1184.8633,-141.8883 1163,-123 1148.38,-110.3694 1129.8006,-99.3494 1114.3332,-91.2643"/>
<polygon fill="#191970" stroke="#191970" points="1115.6704,-88.0183 1105.168,-86.6214 1112.507,-94.2627 1115.6704,-88.0183"/>
</g>
<!-- Node23&#45;&gt;Node24 -->
<g id="edge32" class="edge">
<title>Node23&#45;&gt;Node24</title>
<path fill="none" stroke="#191970" d="M1225.4688,-184.8906C1230.5246,-176.0068 1238.1772,-162.5601 1244.4254,-151.5811"/>
<polygon fill="#191970" stroke="#191970" points="1247.5498,-153.1672 1249.4541,-142.7449 1241.466,-149.7048 1247.5498,-153.1672"/>
</g>
<!-- Node24&#45;&gt;Node11 -->
<g id="edge33" class="edge">
<title>Node24&#45;&gt;Node11</title>
<path fill="none" stroke="#191970" d="M1246.7295,-123.2332C1233.2602,-108.1089 1204.9608,-79.4679 1174,-67 1120.3012,-45.3755 725.519,-24.247 591.4247,-17.624"/>
<polygon fill="#191970" stroke="#191970" points="591.2754,-14.1125 581.1159,-17.1181 590.9323,-21.1041 591.2754,-14.1125"/>
</g>
<!-- Node25&#45;&gt;Node11 -->
<g id="edge35" class="edge">
<title>Node25&#45;&gt;Node11</title>
<path fill="none" stroke="#191970" d="M623.5664,-123.3644C621.2134,-109.8745 615.5869,-84.9958 604,-67 595.0529,-53.1041 581.4114,-40.5937 569.7169,-31.3836"/>
<polygon fill="#191970" stroke="#191970" points="571.7307,-28.5186 561.6405,-25.2879 567.5137,-34.1058 571.7307,-28.5186"/>
</g>
<!-- Node26&#45;&gt;Node25 -->
<g id="edge37" class="edge">
<title>Node26&#45;&gt;Node25</title>
<path fill="none" stroke="#191970" d="M892.8166,-184.9581C836.5114,-174.0345 744.3217,-156.1492 684.147,-144.4749"/>
<polygon fill="#191970" stroke="#191970" points="684.5216,-140.9824 674.038,-142.5137 683.1883,-147.8542 684.5216,-140.9824"/>
</g>
<!-- Node27&#45;&gt;Node12 -->
<g id="edge39" class="edge">
<title>Node27&#45;&gt;Node12</title>
<path fill="none" stroke="#191970" d="M781.8971,-209.5446C782.8593,-217.6241 783.0074,-227.681 782.3414,-236.3693"/>
<polygon fill="#191970" stroke="#191970" points="778.8567,-236.028 781.0625,-246.3906 785.8003,-236.9142 778.8567,-236.028"/>
</g>
</g>
</svg>
        <g id="navigator" transform="translate(0 0)" fill="#404254">
                <rect fill="#f2f5e9" fill-opacity="0.5" stroke="#606060" stroke-width=".5" x="0" y="0" width="60" height="60"/>
                <use id="zoomplus" xlink:href="#zoomPlus" x="17" y="9" onmousedown="handleZoom(evt,'in')"/>
                <use id="zoomminus" xlink:href="#zoomMin" x="42" y="9" onmousedown="handleZoom(evt,'out')"/>
                <use id="reset" xlink:href="#resetDef" x="30" y="36" onmousedown="handleReset()"/>
                <g id="arrowUp" xlink:href="#dirArrow" transform="translate(30 24)" onmousedown="handlePan(0,-1)">
                  <use xlink:href="#rim" fill="#404040">
                        <set attributeName="fill" to="#808080" begin="arrowUp.mouseover" end="arrowUp.mouseout"/>
                  </use>
                  <path fill="none" stroke="white" stroke-width="1.5" d="M0,-3.0v7 M-2.5,-0.5L0,-3.0L2.5,-0.5"/>
                </g>
                <g id="arrowRight" xlink:href="#dirArrow" transform="rotate(90) translate(36 -43)" onmousedown="handlePan(1,0)">
                  <use xlink:href="#rim" fill="#404040">
                        <set attributeName="fill" to="#808080" begin="arrowRight.mouseover" end="arrowRight.mouseout"/>
                  </use>
                  <path fill="none" stroke="white" stroke-width="1.5" d="M0,-3.0v7 M-2.5,-0.5L0,-3.0L2.5,-0.5"/>
                </g>
                <g id="arrowDown" xlink:href="#dirArrow" transform="rotate(180) translate(-30 -48)" onmousedown="handlePan(0,1)">
                  <use xlink:href="#rim" fill="#404040">
                        <set attributeName="fill" to="#808080" begin="arrowDown.mouseover" end="arrowDown.mouseout"/>
                  </use>
                  <path fill="none" stroke="white" stroke-width="1.5" d="M0,-3.0v7 M-2.5,-0.5L0,-3.0L2.5,-0.5"/>
                </g>
                <g id="arrowLeft" xlink:href="#dirArrow" transform="rotate(270) translate(-36 17)" onmousedown="handlePan(-1,0)">
                  <use xlink:href="#rim" fill="#404040">
                        <set attributeName="fill" to="#808080" begin="arrowLeft.mouseover" end="arrowLeft.mouseout"/>
                  </use>
                  <path fill="none" stroke="white" stroke-width="1.5" d="M0,-3.0v7 M-2.5,-0.5L0,-3.0L2.5,-0.5"/>
                </g>
        </g>
        <svg viewBox="0 0 15 15" width="100%" height="30px" preserveAspectRatio="xMaxYMin meet">
         <g id="arrow_out" transform="scale(0.3 0.3)">
          <a xlink:href="sitkExplicitITKDefaultVectorPixelAccessor_8h__incl_org.svg" target="_base">
           <rect id="button" ry="5" rx="5" y="6" x="6" height="38" width="38"
                fill="#f2f5e9" fill-opacity="0.5" stroke="#606060" stroke-width="1.0"/>
           <path id="arrow"
             d="M 11.500037,31.436501 C 11.940474,20.09759 22.043105,11.32322 32.158766,21.979434 L 37.068811,17.246167 C 37.068811,17.246167 37.088388,32 37.088388,32 L 22.160133,31.978069 C 22.160133,31.978069 26.997745,27.140456 26.997745,27.140456 C 18.528582,18.264221 13.291696,25.230495 11.500037,31.436501 z"
             style="fill:#404040;"/>
          </a>
         </g>
        </svg>
</svg>
