<?xml version="1.0" encoding="UTF-8" standalone="no"?>
<!DOCTYPE svg PUBLIC "-//W3C//DTD SVG 1.1//EN"
 "http://www.w3.org/Graphics/SVG/1.1/DTD/svg11.dtd">
<!-- Generated by graphviz version 2.43.0 (0)
 -->
<!-- Title: sitkExplicitITK.h Pages: 1 -->
<svg width="3292pt" height="269pt"
 viewBox="0.00 0.00 3291.50 269.00" xmlns="http://www.w3.org/2000/svg" xmlns:xlink="http://www.w3.org/1999/xlink">
<g id="graph0" class="graph" transform="scale(1 1) rotate(0) translate(4 265)">
<title>sitkExplicitITK.h</title>
<!-- Node1 -->
<g id="Node000001" class="node">
<title>Node1</title>
<g id="a_Node000001"><a xlink:title=" ">
<polygon fill="#999999" stroke="#666666" points="1551,-261 1456,-261 1456,-242 1551,-242 1551,-261"/>
<text text-anchor="middle" x="1503.5" y="-249" font-family="Helvetica,sans-Serif" font-size="10.00">sitkExplicitITK.h</text>
</a>
</g>
</g>
<!-- Node2 -->
<g id="Node000002" class="node">
<title>Node2</title>
<g id="a_Node000002"><a xlink:title=" ">
<polygon fill="#e0e0e0" stroke="#999999" points="59,-200.5 0,-200.5 0,-181.5 59,-181.5 59,-200.5"/>
<text text-anchor="middle" x="29.5" y="-188.5" font-family="Helvetica,sans-Serif" font-size="10.00">complex</text>
</a>
</g>
</g>
<!-- Node1&#45;&gt;Node2 -->
<g id="edge1_Node000001_Node000002" class="edge">
<title>Node1&#45;&gt;Node2</title>
<g id="a_edge1_Node000001_Node000002"><a xlink:title=" ">
<path fill="none" stroke="#63b8ff" d="M1455.83,-249.93C1222.45,-247.03 206.07,-232.93 67.5,-206 64.49,-205.42 61.41,-204.62 58.36,-203.71"/>
<polygon fill="#63b8ff" stroke="#63b8ff" points="59.47,-200.4 48.88,-200.5 57.23,-207.03 59.47,-200.4"/>
</a>
</g>
</g>
<!-- Node3 -->
<g id="Node000003" class="node">
<title>Node3</title>
<g id="a_Node000003"><a target="_parent" xlink:href="https://www.itk.org/Doxygen/html/itkAttributeLabelObject_8h.html" xlink:title=" ">
<polygon fill="white" stroke="#666666" points="216,-200.5 77,-200.5 77,-181.5 216,-181.5 216,-200.5"/>
<text text-anchor="middle" x="146.5" y="-188.5" font-family="Helvetica,sans-Serif" font-size="10.00">itkAttributeLabelObject.h</text>
</a>
</g>
</g>
<!-- Node1&#45;&gt;Node3 -->
<g id="edge2_Node000001_Node000003" class="edge">
<title>Node1&#45;&gt;Node3</title>
<g id="a_edge2_Node000001_Node000003"><a xlink:title=" ">
<path fill="none" stroke="#63b8ff" d="M1455.85,-249.74C1254.31,-246.38 470.98,-231.9 225.5,-206 216.64,-205.07 207.28,-203.72 198.22,-202.24"/>
<polygon fill="#63b8ff" stroke="#63b8ff" points="198.61,-198.75 188.16,-200.51 197.43,-205.65 198.61,-198.75"/>
</a>
</g>
</g>
<!-- Node4 -->
<g id="Node000004" class="node">
<title>Node4</title>
<g id="a_Node000004"><a target="_parent" xlink:href="https://www.itk.org/Doxygen/html/itkShapeLabelObject_8h.html" xlink:title=" ">
<polygon fill="white" stroke="#666666" points="360.5,-200.5 234.5,-200.5 234.5,-181.5 360.5,-181.5 360.5,-200.5"/>
<text text-anchor="middle" x="297.5" y="-188.5" font-family="Helvetica,sans-Serif" font-size="10.00">itkShapeLabelObject.h</text>
</a>
</g>
</g>
<!-- Node1&#45;&gt;Node4 -->
<g id="edge3_Node000001_Node000004" class="edge">
<title>Node1&#45;&gt;Node4</title>
<g id="a_edge3_Node000001_Node000004"><a xlink:title=" ">
<path fill="none" stroke="#63b8ff" d="M1456,-251.01C1300.35,-252.17 791.76,-251.93 374.5,-206 366.05,-205.07 357.14,-203.76 348.49,-202.31"/>
<polygon fill="#63b8ff" stroke="#63b8ff" points="348.96,-198.84 338.5,-200.56 347.75,-205.73 348.96,-198.84"/>
</a>
</g>
</g>
<!-- Node5 -->
<g id="Node000005" class="node">
<title>Node5</title>
<g id="a_Node000005"><a target="_parent" xlink:href="https://www.itk.org/Doxygen/html/itkVectorImage_8h.html" xlink:title=" ">
<polygon fill="white" stroke="#666666" points="492.5,-134.5 392.5,-134.5 392.5,-115.5 492.5,-115.5 492.5,-134.5"/>
<text text-anchor="middle" x="442.5" y="-122.5" font-family="Helvetica,sans-Serif" font-size="10.00">itkVectorImage.h</text>
</a>
</g>
</g>
<!-- Node1&#45;&gt;Node5 -->
<g id="edge4_Node000001_Node000005" class="edge">
<title>Node1&#45;&gt;Node5</title>
<g id="a_edge4_Node000001_Node000005"><a xlink:title=" ">
<path fill="none" stroke="#63b8ff" d="M1455.74,-250.38C1249.53,-249.64 444.29,-244.31 407.5,-206 390.02,-187.79 410.08,-159.43 426.25,-141.82"/>
<polygon fill="#63b8ff" stroke="#63b8ff" points="428.83,-144.19 433.25,-134.56 423.79,-139.33 428.83,-144.19"/>
</a>
</g>
</g>
<!-- Node6 -->
<g id="Node000006" class="node">
<title>Node6</title>
<g id="a_Node000006"><a xlink:href="sitkExplicitITKImageRegion_8h.html" target="_top" xlink:title=" ">
<polygon fill="white" stroke="#666666" points="752.5,-200.5 592.5,-200.5 592.5,-181.5 752.5,-181.5 752.5,-200.5"/>
<text text-anchor="middle" x="672.5" y="-188.5" font-family="Helvetica,sans-Serif" font-size="10.00">sitkExplicitITKImageRegion.h</text>
</a>
</g>
</g>
<!-- Node1&#45;&gt;Node6 -->
<g id="edge5_Node000001_Node000006" class="edge">
<title>Node1&#45;&gt;Node6</title>
<g id="a_edge5_Node000001_Node000006"><a xlink:title=" ">
<path fill="none" stroke="#63b8ff" d="M1455.62,-249.22C1337.46,-245.73 1022.59,-234.3 761.5,-206 751.7,-204.94 741.34,-203.55 731.28,-202.06"/>
<polygon fill="#63b8ff" stroke="#63b8ff" points="731.77,-198.6 721.35,-200.55 730.71,-205.52 731.77,-198.6"/>
</a>
</g>
</g>
<!-- Node16 -->
<g id="Node000016" class="node">
<title>Node16</title>
<g id="a_Node000016"><a xlink:href="sitkExplicitITKDefaultPixelAccessor_8h.html" target="_top" xlink:title=" ">
<polygon fill="white" stroke="#666666" points="916.5,-206 770.5,-206 770.5,-176 916.5,-176 916.5,-206"/>
<text text-anchor="start" x="778.5" y="-194" font-family="Helvetica,sans-Serif" font-size="10.00">sitkExplicitITKDefaultPixel</text>
<text text-anchor="middle" x="843.5" y="-183" font-family="Helvetica,sans-Serif" font-size="10.00">Accessor.h</text>
</a>
</g>
</g>
<!-- Node1&#45;&gt;Node16 -->
<g id="edge15_Node000001_Node000016" class="edge">
<title>Node1&#45;&gt;Node16</title>
<g id="a_edge15_Node000001_Node000016"><a xlink:title=" ">
<path fill="none" stroke="#63b8ff" d="M1455.77,-248.32C1358.33,-243.54 1129.29,-230.66 926.99,-206.11"/>
<polygon fill="#63b8ff" stroke="#63b8ff" points="927.12,-202.6 916.77,-204.85 926.27,-209.55 927.12,-202.6"/>
</a>
</g>
</g>
<!-- Node18 -->
<g id="Node000018" class="node">
<title>Node18</title>
<g id="a_Node000018"><a xlink:href="sitkExplicitITKDefaultVectorPixelAccessor_8h.html" target="_top" xlink:title=" ">
<polygon fill="white" stroke="#666666" points="1088,-206 935,-206 935,-176 1088,-176 1088,-206"/>
<text text-anchor="start" x="943" y="-194" font-family="Helvetica,sans-Serif" font-size="10.00">sitkExplicitITKDefaultVector</text>
<text text-anchor="middle" x="1011.5" y="-183" font-family="Helvetica,sans-Serif" font-size="10.00">PixelAccessor.h</text>
</a>
</g>
</g>
<!-- Node1&#45;&gt;Node18 -->
<g id="edge18_Node000001_Node000018" class="edge">
<title>Node1&#45;&gt;Node18</title>
<g id="a_edge18_Node000001_Node000018"><a xlink:title=" ">
<path fill="none" stroke="#63b8ff" d="M1455.78,-246.13C1381.5,-239.14 1233.53,-224.48 1098.49,-206.23"/>
<polygon fill="#63b8ff" stroke="#63b8ff" points="1098.76,-202.74 1088.38,-204.86 1097.82,-209.67 1098.76,-202.74"/>
</a>
</g>
</g>
<!-- Node20 -->
<g id="Node000020" class="node">
<title>Node20</title>
<g id="a_Node000020"><a xlink:href="sitkExplicitITKImportImageContainer_8h.html" target="_top" xlink:title=" ">
<polygon fill="white" stroke="#666666" points="1255,-206 1106,-206 1106,-176 1255,-176 1255,-206"/>
<text text-anchor="start" x="1114" y="-194" font-family="Helvetica,sans-Serif" font-size="10.00">sitkExplicitITKImportImage</text>
<text text-anchor="middle" x="1180.5" y="-183" font-family="Helvetica,sans-Serif" font-size="10.00">Container.h</text>
</a>
</g>
</g>
<!-- Node1&#45;&gt;Node20 -->
<g id="edge21_Node000001_Node000020" class="edge">
<title>Node1&#45;&gt;Node20</title>
<g id="a_edge21_Node000001_Node000020"><a xlink:title=" ">
<path fill="none" stroke="#63b8ff" d="M1456.53,-241.99C1406.48,-232.93 1326.19,-218.39 1265.07,-207.32"/>
<polygon fill="#63b8ff" stroke="#63b8ff" points="1265.51,-203.84 1255.05,-205.5 1264.27,-210.73 1265.51,-203.84"/>
</a>
</g>
</g>
<!-- Node22 -->
<g id="Node000022" class="node">
<title>Node22</title>
<g id="a_Node000022"><a xlink:href="sitkExplicitITKImageBase_8h.html" target="_top" xlink:title=" ">
<polygon fill="white" stroke="#666666" points="1422.5,-200.5 1272.5,-200.5 1272.5,-181.5 1422.5,-181.5 1422.5,-200.5"/>
<text text-anchor="middle" x="1347.5" y="-188.5" font-family="Helvetica,sans-Serif" font-size="10.00">sitkExplicitITKImageBase.h</text>
</a>
</g>
</g>
<!-- Node1&#45;&gt;Node22 -->
<g id="edge24_Node000001_Node000022" class="edge">
<title>Node1&#45;&gt;Node22</title>
<g id="a_edge24_Node000001_Node000022"><a xlink:title=" ">
<path fill="none" stroke="#63b8ff" d="M1480.82,-241.99C1454.24,-232.03 1410.02,-215.45 1379.86,-204.13"/>
<polygon fill="#63b8ff" stroke="#63b8ff" points="1380.8,-200.75 1370.21,-200.52 1378.35,-207.31 1380.8,-200.75"/>
</a>
</g>
</g>
<!-- Node24 -->
<g id="Node000024" class="node">
<title>Node24</title>
<g id="a_Node000024"><a xlink:href="sitkExplicitITKImage_8h.html" target="_top" xlink:title=" ">
<polygon fill="white" stroke="#666666" points="1566.5,-200.5 1440.5,-200.5 1440.5,-181.5 1566.5,-181.5 1566.5,-200.5"/>
<text text-anchor="middle" x="1503.5" y="-188.5" font-family="Helvetica,sans-Serif" font-size="10.00">sitkExplicitITKImage.h</text>
</a>
</g>
</g>
<!-- Node1&#45;&gt;Node24 -->
<g id="edge27_Node000001_Node000024" class="edge">
<title>Node1&#45;&gt;Node24</title>
<g id="a_edge27_Node000001_Node000024"><a xlink:title=" ">
<path fill="none" stroke="#63b8ff" d="M1503.5,-241.87C1503.5,-233.75 1503.5,-221.31 1503.5,-210.89"/>
<polygon fill="#63b8ff" stroke="#63b8ff" points="1507,-210.67 1503.5,-200.67 1500,-210.67 1507,-210.67"/>
</a>
</g>
</g>
<!-- Node26 -->
<g id="Node000026" class="node">
<title>Node26</title>
<g id="a_Node000026"><a xlink:href="sitkExplicitITKLabelMap_8h.html" target="_top" xlink:title=" ">
<polygon fill="white" stroke="#666666" points="1728,-200.5 1585,-200.5 1585,-181.5 1728,-181.5 1728,-200.5"/>
<text text-anchor="middle" x="1656.5" y="-188.5" font-family="Helvetica,sans-Serif" font-size="10.00">sitkExplicitITKLabelMap.h</text>
</a>
</g>
</g>
<!-- Node1&#45;&gt;Node26 -->
<g id="edge30_Node000001_Node000026" class="edge">
<title>Node1&#45;&gt;Node26</title>
<g id="a_edge30_Node000001_Node000026"><a xlink:title=" ">
<path fill="none" stroke="#63b8ff" d="M1525.75,-241.99C1551.81,-232.03 1595.18,-215.45 1624.77,-204.13"/>
<polygon fill="#63b8ff" stroke="#63b8ff" points="1626.14,-207.36 1634.23,-200.52 1623.64,-200.82 1626.14,-207.36"/>
</a>
</g>
</g>
<!-- Node28 -->
<g id="Node000028" class="node">
<title>Node28</title>
<g id="a_Node000028"><a xlink:href="sitkExplicitITKVectorImage_8h.html" target="_top" xlink:title=" ">
<polygon fill="white" stroke="#666666" points="574,-200.5 417,-200.5 417,-181.5 574,-181.5 574,-200.5"/>
<text text-anchor="middle" x="495.5" y="-188.5" font-family="Helvetica,sans-Serif" font-size="10.00">sitkExplicitITKVectorImage.h</text>
</a>
</g>
</g>
<!-- Node1&#45;&gt;Node28 -->
<g id="edge33_Node000001_Node000028" class="edge">
<title>Node1&#45;&gt;Node28</title>
<g id="a_edge33_Node000001_Node000028"><a xlink:title=" ">
<path fill="none" stroke="#63b8ff" d="M1455.96,-250.03C1319.73,-248.3 916.33,-240.42 583.5,-206 573.57,-204.97 563.06,-203.58 552.89,-202.06"/>
<polygon fill="#63b8ff" stroke="#63b8ff" points="553.29,-198.58 542.87,-200.51 552.22,-205.5 553.29,-198.58"/>
</a>
</g>
</g>
<!-- Node29 -->
<g id="Node000029" class="node">
<title>Node29</title>
<g id="a_Node000029"><a xlink:href="sitkExplicitITKImageConstIterator_8h.html" target="_top" xlink:title=" ">
<polygon fill="white" stroke="#666666" points="1891,-206 1746,-206 1746,-176 1891,-176 1891,-206"/>
<text text-anchor="start" x="1754" y="-194" font-family="Helvetica,sans-Serif" font-size="10.00">sitkExplicitITKImageConst</text>
<text text-anchor="middle" x="1818.5" y="-183" font-family="Helvetica,sans-Serif" font-size="10.00">Iterator.h</text>
</a>
</g>
</g>
<!-- Node1&#45;&gt;Node29 -->
<g id="edge36_Node000001_Node000029" class="edge">
<title>Node1&#45;&gt;Node29</title>
<g id="a_edge36_Node000001_Node000029"><a xlink:title=" ">
<path fill="none" stroke="#63b8ff" d="M1549.3,-241.99C1598.02,-232.95 1676.1,-218.45 1735.66,-207.39"/>
<polygon fill="#63b8ff" stroke="#63b8ff" points="1736.6,-210.77 1745.8,-205.5 1735.33,-203.89 1736.6,-210.77"/>
</a>
</g>
</g>
<!-- Node31 -->
<g id="Node000031" class="node">
<title>Node31</title>
<g id="a_Node000031"><a xlink:href="sitkExplicitITKImageRegionConstIterator_8h.html" target="_top" xlink:title=" ">
<polygon fill="white" stroke="#666666" points="2060,-206 1909,-206 1909,-176 2060,-176 2060,-206"/>
<text text-anchor="start" x="1917" y="-194" font-family="Helvetica,sans-Serif" font-size="10.00">sitkExplicitITKImageRegion</text>
<text text-anchor="middle" x="1984.5" y="-183" font-family="Helvetica,sans-Serif" font-size="10.00">ConstIterator.h</text>
</a>
</g>
</g>
<!-- Node1&#45;&gt;Node31 -->
<g id="edge39_Node000001_Node000031" class="edge">
<title>Node1&#45;&gt;Node31</title>
<g id="a_edge39_Node000001_Node000031"><a xlink:title=" ">
<path fill="none" stroke="#63b8ff" d="M1551.27,-245.98C1624.04,-238.91 1767.28,-224.28 1898.73,-206.2"/>
<polygon fill="#63b8ff" stroke="#63b8ff" points="1899.55,-209.62 1908.97,-204.78 1898.59,-202.69 1899.55,-209.62"/>
</a>
</g>
</g>
<!-- Node33 -->
<g id="Node000033" class="node">
<title>Node33</title>
<g id="a_Node000033"><a xlink:href="sitkExplicitITKImageScanlineConstIterator_8h.html" target="_top" xlink:title=" ">
<polygon fill="white" stroke="#666666" points="2236.5,-206 2078.5,-206 2078.5,-176 2236.5,-176 2236.5,-206"/>
<text text-anchor="start" x="2086.5" y="-194" font-family="Helvetica,sans-Serif" font-size="10.00">sitkExplicitITKImageScanline</text>
<text text-anchor="middle" x="2157.5" y="-183" font-family="Helvetica,sans-Serif" font-size="10.00">ConstIterator.h</text>
</a>
</g>
</g>
<!-- Node1&#45;&gt;Node33 -->
<g id="edge42_Node000001_Node000033" class="edge">
<title>Node1&#45;&gt;Node33</title>
<g id="a_edge42_Node000001_Node000033"><a xlink:title=" ">
<path fill="none" stroke="#63b8ff" d="M1551.33,-248.02C1647.35,-242.77 1870.57,-229.17 2068.39,-206.07"/>
<polygon fill="#63b8ff" stroke="#63b8ff" points="2068.87,-209.54 2078.39,-204.89 2068.05,-202.58 2068.87,-209.54"/>
</a>
</g>
</g>
<!-- Node35 -->
<g id="Node000035" class="node">
<title>Node35</title>
<g id="a_Node000035"><a xlink:href="sitkExplicitITKImageScanlineIterator_8h.html" target="_top" xlink:title=" ">
<polygon fill="white" stroke="#666666" points="2412.5,-206 2254.5,-206 2254.5,-176 2412.5,-176 2412.5,-206"/>
<text text-anchor="start" x="2262.5" y="-194" font-family="Helvetica,sans-Serif" font-size="10.00">sitkExplicitITKImageScanline</text>
<text text-anchor="middle" x="2333.5" y="-183" font-family="Helvetica,sans-Serif" font-size="10.00">Iterator.h</text>
</a>
</g>
</g>
<!-- Node1&#45;&gt;Node35 -->
<g id="edge45_Node000001_Node000035" class="edge">
<title>Node1&#45;&gt;Node35</title>
<g id="a_edge45_Node000001_Node000035"><a xlink:title=" ">
<path fill="none" stroke="#63b8ff" d="M1551.38,-249.25C1668.05,-245.86 1976.47,-234.81 2244.09,-206.08"/>
<polygon fill="#63b8ff" stroke="#63b8ff" points="2244.83,-209.52 2254.4,-204.96 2244.08,-202.56 2244.83,-209.52"/>
</a>
</g>
</g>
<!-- Node37 -->
<g id="Node000037" class="node">
<title>Node37</title>
<g id="a_Node000037"><a xlink:href="sitkExplicitITKImageSource_8h.html" target="_top" xlink:title=" ">
<polygon fill="white" stroke="#666666" points="2589,-200.5 2430,-200.5 2430,-181.5 2589,-181.5 2589,-200.5"/>
<text text-anchor="middle" x="2509.5" y="-188.5" font-family="Helvetica,sans-Serif" font-size="10.00">sitkExplicitITKImageSource.h</text>
</a>
</g>
</g>
<!-- Node1&#45;&gt;Node37 -->
<g id="edge48_Node000001_Node000037" class="edge">
<title>Node1&#45;&gt;Node37</title>
<g id="a_edge48_Node000001_Node000037"><a xlink:title=" ">
<path fill="none" stroke="#63b8ff" d="M1551.42,-250.02C1687.83,-248.26 2089.79,-240.32 2421.5,-206 2431.43,-204.97 2441.94,-203.57 2452.11,-202.06"/>
<polygon fill="#63b8ff" stroke="#63b8ff" points="2452.78,-205.5 2462.13,-200.51 2451.71,-198.58 2452.78,-205.5"/>
</a>
</g>
</g>
<!-- Node39 -->
<g id="Node000039" class="node">
<title>Node39</title>
<g id="a_Node000039"><a xlink:href="sitkExplicitITKImageToImageFilter_8h.html" target="_top" xlink:title=" ">
<polygon fill="white" stroke="#666666" points="2764.5,-206 2606.5,-206 2606.5,-176 2764.5,-176 2764.5,-206"/>
<text text-anchor="start" x="2614.5" y="-194" font-family="Helvetica,sans-Serif" font-size="10.00">sitkExplicitITKImageToImage</text>
<text text-anchor="middle" x="2685.5" y="-183" font-family="Helvetica,sans-Serif" font-size="10.00">Filter.h</text>
</a>
</g>
</g>
<!-- Node1&#45;&gt;Node39 -->
<g id="edge51_Node000001_Node000039" class="edge">
<title>Node1&#45;&gt;Node39</title>
<g id="a_edge51_Node000001_Node000039"><a xlink:title=" ">
<path fill="none" stroke="#63b8ff" d="M1551.14,-250.58C1702.62,-250.42 2186.91,-246.6 2596.4,-206.14"/>
<polygon fill="#63b8ff" stroke="#63b8ff" points="2596.76,-209.62 2606.37,-205.14 2596.07,-202.65 2596.76,-209.62"/>
</a>
</g>
</g>
<!-- Node41 -->
<g id="Node000041" class="node">
<title>Node41</title>
<g id="a_Node000041"><a xlink:href="sitkExplicitITKInPlaceImageFilter_8h.html" target="_top" xlink:title=" ">
<polygon fill="white" stroke="#666666" points="2934.5,-206 2782.5,-206 2782.5,-176 2934.5,-176 2934.5,-206"/>
<text text-anchor="start" x="2790.5" y="-194" font-family="Helvetica,sans-Serif" font-size="10.00">sitkExplicitITKInPlaceImage</text>
<text text-anchor="middle" x="2858.5" y="-183" font-family="Helvetica,sans-Serif" font-size="10.00">Filter.h</text>
</a>
</g>
</g>
<!-- Node1&#45;&gt;Node41 -->
<g id="edge54_Node000001_Node000041" class="edge">
<title>Node1&#45;&gt;Node41</title>
<g id="a_edge54_Node000001_Node000041"><a xlink:title=" ">
<path fill="none" stroke="#63b8ff" d="M1551.22,-251.03C1717.98,-252.41 2290.29,-253.23 2771.82,-206.07"/>
<polygon fill="#63b8ff" stroke="#63b8ff" points="2772.5,-209.52 2782.11,-205.06 2771.81,-202.56 2772.5,-209.52"/>
</a>
</g>
</g>
<!-- Node43 -->
<g id="Node000043" class="node">
<title>Node43</title>
<g id="a_Node000043"><a xlink:href="sitkExplicitITKComposeImageFilter_8h.html" target="_top" xlink:title=" ">
<polygon fill="white" stroke="#666666" points="3114.5,-206 2952.5,-206 2952.5,-176 3114.5,-176 3114.5,-206"/>
<text text-anchor="start" x="2960.5" y="-194" font-family="Helvetica,sans-Serif" font-size="10.00">sitkExplicitITKComposeImage</text>
<text text-anchor="middle" x="3033.5" y="-183" font-family="Helvetica,sans-Serif" font-size="10.00">Filter.h</text>
</a>
</g>
</g>
<!-- Node1&#45;&gt;Node43 -->
<g id="edge57_Node000001_Node000043" class="edge">
<title>Node1&#45;&gt;Node43</title>
<g id="a_edge57_Node000001_Node000043"><a xlink:title=" ">
<path fill="none" stroke="#63b8ff" d="M1551.21,-249.82C1765.73,-246.63 2643.2,-232.29 2941.75,-206.06"/>
<polygon fill="#63b8ff" stroke="#63b8ff" points="2942.48,-209.51 2952.12,-205.12 2941.85,-202.53 2942.48,-209.51"/>
</a>
</g>
</g>
<!-- Node45 -->
<g id="Node000045" class="node">
<title>Node45</title>
<g id="a_Node000045"><a xlink:href="sitkExplicitITKVectorIndexSelectionCastImageFilter_8h.html" target="_top" xlink:title=" ">
<polygon fill="white" stroke="#666666" points="3280,-206 3133,-206 3133,-176 3280,-176 3280,-206"/>
<text text-anchor="start" x="3141" y="-194" font-family="Helvetica,sans-Serif" font-size="10.00">sitkExplicitITKVectorIndex</text>
<text text-anchor="middle" x="3206.5" y="-183" font-family="Helvetica,sans-Serif" font-size="10.00">SelectionCastImageFilter.h</text>
</a>
</g>
</g>
<!-- Node1&#45;&gt;Node45 -->
<g id="edge60_Node000001_Node000045" class="edge">
<title>Node1&#45;&gt;Node45</title>
<g id="a_edge60_Node000001_Node000045"><a xlink:title=" ">
<path fill="none" stroke="#63b8ff" d="M1551.21,-250.09C1782.13,-247.97 2785.84,-237.14 3122.56,-205.96"/>
<polygon fill="#63b8ff" stroke="#63b8ff" points="3123.18,-209.41 3132.81,-204.98 3122.52,-202.44 3123.18,-209.41"/>
</a>
</g>
</g>
<!-- Node7 -->
<g id="Node000007" class="node">
<title>Node7</title>
<g id="a_Node000007"><a xlink:href="sitkExplicit_8h.html" target="_top" xlink:title=" ">
<polygon fill="white" stroke="#666666" points="1734.5,-134.5 1654.5,-134.5 1654.5,-115.5 1734.5,-115.5 1734.5,-134.5"/>
<text text-anchor="middle" x="1694.5" y="-122.5" font-family="Helvetica,sans-Serif" font-size="10.00">sitkExplicit.h</text>
</a>
</g>
</g>
<!-- Node6&#45;&gt;Node7 -->
<g id="edge6_Node000006_Node000007" class="edge">
<title>Node6&#45;&gt;Node7</title>
<g id="a_edge6_Node000006_Node000007"><a xlink:title=" ">
<path fill="none" stroke="#63b8ff" d="M719.94,-181.5C733.34,-179.38 747.96,-177.34 761.5,-176 1152.81,-137.38 1257.28,-202.45 1645.5,-140 1649.99,-139.28 1654.66,-138.28 1659.25,-137.15"/>
<polygon fill="#63b8ff" stroke="#63b8ff" points="1660.33,-140.48 1669.07,-134.5 1658.51,-133.72 1660.33,-140.48"/>
</a>
</g>
</g>
<!-- Node15 -->
<g id="Node000015" class="node">
<title>Node15</title>
<g id="a_Node000015"><a target="_parent" xlink:href="https://www.itk.org/Doxygen/html/itkImageRegion_8h.html" xlink:title=" ">
<polygon fill="white" stroke="#666666" points="724,-134.5 621,-134.5 621,-115.5 724,-115.5 724,-134.5"/>
<text text-anchor="middle" x="672.5" y="-122.5" font-family="Helvetica,sans-Serif" font-size="10.00">itkImageRegion.h</text>
</a>
</g>
</g>
<!-- Node6&#45;&gt;Node15 -->
<g id="edge14_Node000006_Node000015" class="edge">
<title>Node6&#45;&gt;Node15</title>
<g id="a_edge14_Node000006_Node000015"><a xlink:title=" ">
<path fill="none" stroke="#63b8ff" d="M672.5,-181.37C672.5,-172.16 672.5,-157.29 672.5,-145.27"/>
<polygon fill="#63b8ff" stroke="#63b8ff" points="676,-144.91 672.5,-134.91 669,-144.91 676,-144.91"/>
</a>
</g>
</g>
<!-- Node8 -->
<g id="Node000008" class="node">
<title>Node8</title>
<g id="a_Node000008"><a xlink:href="sitkMacro_8h.html" target="_top" xlink:title=" ">
<polygon fill="white" stroke="#666666" points="1731.5,-74 1657.5,-74 1657.5,-55 1731.5,-55 1731.5,-74"/>
<text text-anchor="middle" x="1694.5" y="-62" font-family="Helvetica,sans-Serif" font-size="10.00">sitkMacro.h</text>
</a>
</g>
</g>
<!-- Node7&#45;&gt;Node8 -->
<g id="edge7_Node000007_Node000008" class="edge">
<title>Node7&#45;&gt;Node8</title>
<g id="a_edge7_Node000007_Node000008"><a xlink:title=" ">
<path fill="none" stroke="#63b8ff" d="M1694.5,-115.37C1694.5,-107.25 1694.5,-94.81 1694.5,-84.39"/>
<polygon fill="#63b8ff" stroke="#63b8ff" points="1698,-84.17 1694.5,-74.17 1691,-84.17 1698,-84.17"/>
</a>
</g>
</g>
<!-- Node9 -->
<g id="Node000009" class="node">
<title>Node9</title>
<g id="a_Node000009"><a xlink:title=" ">
<polygon fill="#e0e0e0" stroke="#999999" points="1540,-19 1487,-19 1487,0 1540,0 1540,-19"/>
<text text-anchor="middle" x="1513.5" y="-7" font-family="Helvetica,sans-Serif" font-size="10.00">stdint.h</text>
</a>
</g>
</g>
<!-- Node8&#45;&gt;Node9 -->
<g id="edge8_Node000008_Node000009" class="edge">
<title>Node8&#45;&gt;Node9</title>
<g id="a_edge8_Node000008_Node000009"><a xlink:title=" ">
<path fill="none" stroke="#63b8ff" d="M1665.42,-54.98C1634.08,-45.81 1584.15,-31.19 1550.15,-21.23"/>
<polygon fill="#63b8ff" stroke="#63b8ff" points="1550.73,-17.75 1540.15,-18.3 1548.76,-24.47 1550.73,-17.75"/>
</a>
</g>
</g>
<!-- Node10 -->
<g id="Node000010" class="node">
<title>Node10</title>
<g id="a_Node000010"><a xlink:title=" ">
<polygon fill="#e0e0e0" stroke="#999999" points="1614.5,-19 1558.5,-19 1558.5,0 1614.5,0 1614.5,-19"/>
<text text-anchor="middle" x="1586.5" y="-7" font-family="Helvetica,sans-Serif" font-size="10.00">stddef.h</text>
</a>
</g>
</g>
<!-- Node8&#45;&gt;Node10 -->
<g id="edge9_Node000008_Node000010" class="edge">
<title>Node8&#45;&gt;Node10</title>
<g id="a_edge9_Node000008_Node000010"><a xlink:title=" ">
<path fill="none" stroke="#63b8ff" d="M1677.15,-54.98C1659.93,-46.54 1633.3,-33.47 1613.35,-23.68"/>
<polygon fill="#63b8ff" stroke="#63b8ff" points="1614.69,-20.43 1604.17,-19.17 1611.6,-26.72 1614.69,-20.43"/>
</a>
</g>
</g>
<!-- Node11 -->
<g id="Node000011" class="node">
<title>Node11</title>
<g id="a_Node000011"><a xlink:title=" ">
<polygon fill="#e0e0e0" stroke="#999999" points="1684.5,-19 1632.5,-19 1632.5,0 1684.5,0 1684.5,-19"/>
<text text-anchor="middle" x="1658.5" y="-7" font-family="Helvetica,sans-Serif" font-size="10.00">cassert</text>
</a>
</g>
</g>
<!-- Node8&#45;&gt;Node11 -->
<g id="edge10_Node000008_Node000011" class="edge">
<title>Node8&#45;&gt;Node11</title>
<g id="a_edge10_Node000008_Node000011"><a xlink:title=" ">
<path fill="none" stroke="#63b8ff" d="M1688.56,-54.75C1683.52,-47.34 1676.16,-36.5 1669.99,-27.41"/>
<polygon fill="#63b8ff" stroke="#63b8ff" points="1672.85,-25.39 1664.33,-19.09 1667.06,-29.33 1672.85,-25.39"/>
</a>
</g>
</g>
<!-- Node12 -->
<g id="Node000012" class="node">
<title>Node12</title>
<g id="a_Node000012"><a xlink:title=" ">
<polygon fill="#e0e0e0" stroke="#999999" points="1758.5,-19 1702.5,-19 1702.5,0 1758.5,0 1758.5,-19"/>
<text text-anchor="middle" x="1730.5" y="-7" font-family="Helvetica,sans-Serif" font-size="10.00">sstream</text>
</a>
</g>
</g>
<!-- Node8&#45;&gt;Node12 -->
<g id="edge11_Node000008_Node000012" class="edge">
<title>Node8&#45;&gt;Node12</title>
<g id="a_edge11_Node000008_Node000012"><a xlink:title=" ">
<path fill="none" stroke="#63b8ff" d="M1700.44,-54.75C1705.48,-47.34 1712.84,-36.5 1719.01,-27.41"/>
<polygon fill="#63b8ff" stroke="#63b8ff" points="1721.94,-29.33 1724.67,-19.09 1716.15,-25.39 1721.94,-29.33"/>
</a>
</g>
</g>
<!-- Node13 -->
<g id="Node000013" class="node">
<title>Node13</title>
<g id="a_Node000013"><a xlink:title=" ">
<polygon fill="#e0e0e0" stroke="#999999" points="1820.5,-19 1776.5,-19 1776.5,0 1820.5,0 1820.5,-19"/>
<text text-anchor="middle" x="1798.5" y="-7" font-family="Helvetica,sans-Serif" font-size="10.00">limits</text>
</a>
</g>
</g>
<!-- Node8&#45;&gt;Node13 -->
<g id="edge12_Node000008_Node000013" class="edge">
<title>Node8&#45;&gt;Node13</title>
<g id="a_edge12_Node000008_Node000013"><a xlink:title=" ">
<path fill="none" stroke="#63b8ff" d="M1711.21,-54.98C1727.71,-46.57 1753.2,-33.59 1772.38,-23.81"/>
<polygon fill="#63b8ff" stroke="#63b8ff" points="1774.17,-26.83 1781.49,-19.17 1770.99,-20.59 1774.17,-26.83"/>
</a>
</g>
</g>
<!-- Node14 -->
<g id="Node000014" class="node">
<title>Node14</title>
<g id="a_Node000014"><a xlink:href="sitkConfigure_8h.html" target="_top" xlink:title=" ">
<polygon fill="white" stroke="#666666" points="1928.5,-19 1838.5,-19 1838.5,0 1928.5,0 1928.5,-19"/>
<text text-anchor="middle" x="1883.5" y="-7" font-family="Helvetica,sans-Serif" font-size="10.00">sitkConfigure.h</text>
</a>
</g>
</g>
<!-- Node8&#45;&gt;Node14 -->
<g id="edge13_Node000008_Node000014" class="edge">
<title>Node8&#45;&gt;Node14</title>
<g id="a_edge13_Node000008_Node000014"><a xlink:title=" ">
<path fill="none" stroke="#63b8ff" d="M1724.87,-54.98C1756.87,-46.01 1807.46,-31.82 1842.88,-21.89"/>
<polygon fill="#63b8ff" stroke="#63b8ff" points="1844.21,-25.15 1852.9,-19.08 1842.32,-18.41 1844.21,-25.15"/>
</a>
</g>
</g>
<!-- Node16&#45;&gt;Node7 -->
<g id="edge16_Node000016_Node000007" class="edge">
<title>Node16&#45;&gt;Node7</title>
<g id="a_edge16_Node000016_Node000007"><a xlink:title=" ">
<path fill="none" stroke="#63b8ff" d="M916.76,-177.05C919.71,-176.67 922.63,-176.32 925.5,-176 1243.98,-140.98 1329.41,-192.35 1645.5,-140 1649.94,-139.26 1654.55,-138.27 1659.09,-137.14"/>
<polygon fill="#63b8ff" stroke="#63b8ff" points="1660.06,-140.51 1668.81,-134.53 1658.25,-133.75 1660.06,-140.51"/>
</a>
</g>
</g>
<!-- Node17 -->
<g id="Node000017" class="node">
<title>Node17</title>
<g id="a_Node000017"><a target="_parent" xlink:href="https://www.itk.org/Doxygen/html/itkDefaultPixelAccessor_8h.html" xlink:title=" ">
<polygon fill="white" stroke="#666666" points="907.5,-134.5 767.5,-134.5 767.5,-115.5 907.5,-115.5 907.5,-134.5"/>
<text text-anchor="middle" x="837.5" y="-122.5" font-family="Helvetica,sans-Serif" font-size="10.00">itkDefaultPixelAccessor.h</text>
</a>
</g>
</g>
<!-- Node16&#45;&gt;Node17 -->
<g id="edge17_Node000016_Node000017" class="edge">
<title>Node16&#45;&gt;Node17</title>
<g id="a_edge17_Node000016_Node000017"><a xlink:title=" ">
<path fill="none" stroke="#63b8ff" d="M842.17,-175.8C841.32,-166.7 840.2,-154.79 839.27,-144.9"/>
<polygon fill="#63b8ff" stroke="#63b8ff" points="842.75,-144.47 838.33,-134.84 835.78,-145.13 842.75,-144.47"/>
</a>
</g>
</g>
<!-- Node18&#45;&gt;Node7 -->
<g id="edge19_Node000018_Node000007" class="edge">
<title>Node18&#45;&gt;Node7</title>
<g id="a_edge19_Node000018_Node000007"><a xlink:title=" ">
<path fill="none" stroke="#63b8ff" d="M1088.36,-176.99C1091.11,-176.64 1093.83,-176.31 1096.5,-176 1339.43,-148.1 1404.58,-181.82 1645.5,-140 1649.77,-139.26 1654.19,-138.29 1658.56,-137.21"/>
<polygon fill="#63b8ff" stroke="#63b8ff" points="1659.8,-140.5 1668.55,-134.53 1657.98,-133.74 1659.8,-140.5"/>
</a>
</g>
</g>
<!-- Node19 -->
<g id="Node000019" class="node">
<title>Node19</title>
<g id="a_Node000019"><a target="_parent" xlink:href="https://www.itk.org/Doxygen/html/itkDefaultVectorPixelAccessor_8h.html" xlink:title=" ">
<polygon fill="white" stroke="#666666" points="1097,-134.5 926,-134.5 926,-115.5 1097,-115.5 1097,-134.5"/>
<text text-anchor="middle" x="1011.5" y="-122.5" font-family="Helvetica,sans-Serif" font-size="10.00">itkDefaultVectorPixelAccessor.h</text>
</a>
</g>
</g>
<!-- Node18&#45;&gt;Node19 -->
<g id="edge20_Node000018_Node000019" class="edge">
<title>Node18&#45;&gt;Node19</title>
<g id="a_edge20_Node000018_Node000019"><a xlink:title=" ">
<path fill="none" stroke="#63b8ff" d="M1011.5,-175.8C1011.5,-166.7 1011.5,-154.79 1011.5,-144.9"/>
<polygon fill="#63b8ff" stroke="#63b8ff" points="1015,-144.84 1011.5,-134.84 1008,-144.84 1015,-144.84"/>
</a>
</g>
</g>
<!-- Node20&#45;&gt;Node7 -->
<g id="edge22_Node000020_Node000007" class="edge">
<title>Node20&#45;&gt;Node7</title>
<g id="a_edge22_Node000020_Node000007"><a xlink:title=" ">
<path fill="none" stroke="#63b8ff" d="M1255.12,-177.15C1257.95,-176.75 1260.75,-176.36 1263.5,-176 1432.58,-153.8 1477.92,-171.56 1645.5,-140 1649.66,-139.22 1653.97,-138.24 1658.24,-137.16"/>
<polygon fill="#63b8ff" stroke="#63b8ff" points="1659.27,-140.51 1668.01,-134.53 1657.44,-133.75 1659.27,-140.51"/>
</a>
</g>
</g>
<!-- Node21 -->
<g id="Node000021" class="node">
<title>Node21</title>
<g id="a_Node000021"><a target="_parent" xlink:href="https://www.itk.org/Doxygen/html/itkImportImageContainer_8h.html" xlink:title=" ">
<polygon fill="white" stroke="#666666" points="1263.5,-134.5 1115.5,-134.5 1115.5,-115.5 1263.5,-115.5 1263.5,-134.5"/>
<text text-anchor="middle" x="1189.5" y="-122.5" font-family="Helvetica,sans-Serif" font-size="10.00">itkImportImageContainer.h</text>
</a>
</g>
</g>
<!-- Node20&#45;&gt;Node21 -->
<g id="edge23_Node000020_Node000021" class="edge">
<title>Node20&#45;&gt;Node21</title>
<g id="a_edge23_Node000020_Node000021"><a xlink:title=" ">
<path fill="none" stroke="#63b8ff" d="M1182.5,-175.8C1183.78,-166.7 1185.45,-154.79 1186.84,-144.9"/>
<polygon fill="#63b8ff" stroke="#63b8ff" points="1190.33,-145.23 1188.26,-134.84 1183.4,-144.26 1190.33,-145.23"/>
</a>
</g>
</g>
<!-- Node22&#45;&gt;Node7 -->
<g id="edge25_Node000022_Node000007" class="edge">
<title>Node22&#45;&gt;Node7</title>
<g id="a_edge25_Node000022_Node000007"><a xlink:title=" ">
<path fill="none" stroke="#63b8ff" d="M1398.43,-181.49C1482.77,-167.4 1642.49,-140.68 1645.5,-140 1649.17,-139.17 1652.97,-138.23 1656.76,-137.24"/>
<polygon fill="#63b8ff" stroke="#63b8ff" points="1657.93,-140.55 1666.65,-134.54 1656.09,-133.8 1657.93,-140.55"/>
</a>
</g>
</g>
<!-- Node23 -->
<g id="Node000023" class="node">
<title>Node23</title>
<g id="a_Node000023"><a target="_parent" xlink:href="https://www.itk.org/Doxygen/html/itkImageBase_8h.html" xlink:title=" ">
<polygon fill="white" stroke="#666666" points="1394,-134.5 1301,-134.5 1301,-115.5 1394,-115.5 1394,-134.5"/>
<text text-anchor="middle" x="1347.5" y="-122.5" font-family="Helvetica,sans-Serif" font-size="10.00">itkImageBase.h</text>
</a>
</g>
</g>
<!-- Node22&#45;&gt;Node23 -->
<g id="edge26_Node000022_Node000023" class="edge">
<title>Node22&#45;&gt;Node23</title>
<g id="a_edge26_Node000022_Node000023"><a xlink:title=" ">
<path fill="none" stroke="#63b8ff" d="M1347.5,-181.37C1347.5,-172.16 1347.5,-157.29 1347.5,-145.27"/>
<polygon fill="#63b8ff" stroke="#63b8ff" points="1351,-144.91 1347.5,-134.91 1344,-144.91 1351,-144.91"/>
</a>
</g>
</g>
<!-- Node24&#45;&gt;Node7 -->
<g id="edge28_Node000024_Node000007" class="edge">
<title>Node24&#45;&gt;Node7</title>
<g id="a_edge28_Node000024_Node000007"><a xlink:title=" ">
<path fill="none" stroke="#63b8ff" d="M1529.26,-181.37C1562.82,-170.12 1621.63,-150.42 1659.29,-137.8"/>
<polygon fill="#63b8ff" stroke="#63b8ff" points="1660.47,-141.09 1668.84,-134.6 1658.25,-134.46 1660.47,-141.09"/>
</a>
</g>
</g>
<!-- Node25 -->
<g id="Node000025" class="node">
<title>Node25</title>
<g id="a_Node000025"><a target="_parent" xlink:href="https://www.itk.org/Doxygen/html/itkImage_8h.html" xlink:title=" ">
<polygon fill="white" stroke="#666666" points="1532,-134.5 1463,-134.5 1463,-115.5 1532,-115.5 1532,-134.5"/>
<text text-anchor="middle" x="1497.5" y="-122.5" font-family="Helvetica,sans-Serif" font-size="10.00">itkImage.h</text>
</a>
</g>
</g>
<!-- Node24&#45;&gt;Node25 -->
<g id="edge29_Node000024_Node000025" class="edge">
<title>Node24&#45;&gt;Node25</title>
<g id="a_edge29_Node000024_Node000025"><a xlink:title=" ">
<path fill="none" stroke="#63b8ff" d="M1502.69,-181.37C1501.82,-172.07 1500.4,-156.98 1499.27,-144.9"/>
<polygon fill="#63b8ff" stroke="#63b8ff" points="1502.75,-144.53 1498.33,-134.91 1495.78,-145.19 1502.75,-144.53"/>
</a>
</g>
</g>
<!-- Node26&#45;&gt;Node7 -->
<g id="edge31_Node000026_Node000007" class="edge">
<title>Node26&#45;&gt;Node7</title>
<g id="a_edge31_Node000026_Node000007"><a xlink:title=" ">
<path fill="none" stroke="#63b8ff" d="M1661.62,-181.37C1667.32,-171.78 1676.66,-156.05 1683.93,-143.8"/>
<polygon fill="#63b8ff" stroke="#63b8ff" points="1687.12,-145.29 1689.21,-134.91 1681.1,-141.72 1687.12,-145.29"/>
</a>
</g>
</g>
<!-- Node27 -->
<g id="Node000027" class="node">
<title>Node27</title>
<g id="a_Node000027"><a target="_parent" xlink:href="https://www.itk.org/Doxygen/html/itkLabelMap_8h.html" xlink:title=" ">
<polygon fill="white" stroke="#666666" points="1636.5,-134.5 1550.5,-134.5 1550.5,-115.5 1636.5,-115.5 1636.5,-134.5"/>
<text text-anchor="middle" x="1593.5" y="-122.5" font-family="Helvetica,sans-Serif" font-size="10.00">itkLabelMap.h</text>
</a>
</g>
</g>
<!-- Node26&#45;&gt;Node27 -->
<g id="edge32_Node000026_Node000027" class="edge">
<title>Node26&#45;&gt;Node27</title>
<g id="a_edge32_Node000026_Node000027"><a xlink:title=" ">
<path fill="none" stroke="#63b8ff" d="M1648,-181.37C1638.2,-171.4 1621.84,-154.79 1609.61,-142.36"/>
<polygon fill="#63b8ff" stroke="#63b8ff" points="1611.78,-139.58 1602.27,-134.91 1606.79,-144.49 1611.78,-139.58"/>
</a>
</g>
</g>
<!-- Node28&#45;&gt;Node5 -->
<g id="edge35_Node000028_Node000005" class="edge">
<title>Node28&#45;&gt;Node5</title>
<g id="a_edge35_Node000028_Node000005"><a xlink:title=" ">
<path fill="none" stroke="#63b8ff" d="M488.35,-181.37C480.18,-171.5 466.61,-155.11 456.34,-142.72"/>
<polygon fill="#63b8ff" stroke="#63b8ff" points="458.95,-140.37 449.87,-134.91 453.56,-144.84 458.95,-140.37"/>
</a>
</g>
</g>
<!-- Node28&#45;&gt;Node7 -->
<g id="edge34_Node000028_Node000007" class="edge">
<title>Node28&#45;&gt;Node7</title>
<g id="a_edge34_Node000028_Node000007"><a xlink:title=" ">
<path fill="none" stroke="#63b8ff" d="M542.4,-181.44C555.65,-179.32 570.1,-177.29 583.5,-176 1053.6,-130.81 1178.97,-213.42 1645.5,-140 1650,-139.29 1654.67,-138.3 1659.26,-137.18"/>
<polygon fill="#63b8ff" stroke="#63b8ff" points="1660.33,-140.51 1669.08,-134.54 1658.51,-133.75 1660.33,-140.51"/>
</a>
</g>
</g>
<!-- Node29&#45;&gt;Node7 -->
<g id="edge37_Node000029_Node000007" class="edge">
<title>Node29&#45;&gt;Node7</title>
<g id="a_edge37_Node000029_Node000007"><a xlink:title=" ">
<path fill="none" stroke="#63b8ff" d="M1791.29,-175.95C1770.02,-164.98 1740.68,-149.83 1719.89,-139.11"/>
<polygon fill="#63b8ff" stroke="#63b8ff" points="1721.49,-135.99 1711,-134.52 1718.28,-142.21 1721.49,-135.99"/>
</a>
</g>
</g>
<!-- Node30 -->
<g id="Node000030" class="node">
<title>Node30</title>
<g id="a_Node000030"><a target="_parent" xlink:href="https://www.itk.org/Doxygen/html/itkImageConstIterator_8h.html" xlink:title=" ">
<polygon fill="white" stroke="#666666" points="1884.5,-134.5 1752.5,-134.5 1752.5,-115.5 1884.5,-115.5 1884.5,-134.5"/>
<text text-anchor="middle" x="1818.5" y="-122.5" font-family="Helvetica,sans-Serif" font-size="10.00">itkImageConstIterator.h</text>
</a>
</g>
</g>
<!-- Node29&#45;&gt;Node30 -->
<g id="edge38_Node000029_Node000030" class="edge">
<title>Node29&#45;&gt;Node30</title>
<g id="a_edge38_Node000029_Node000030"><a xlink:title=" ">
<path fill="none" stroke="#63b8ff" d="M1818.5,-175.8C1818.5,-166.7 1818.5,-154.79 1818.5,-144.9"/>
<polygon fill="#63b8ff" stroke="#63b8ff" points="1822,-144.84 1818.5,-134.84 1815,-144.84 1822,-144.84"/>
</a>
</g>
</g>
<!-- Node31&#45;&gt;Node7 -->
<g id="edge40_Node000031_Node000007" class="edge">
<title>Node31&#45;&gt;Node7</title>
<g id="a_edge40_Node000031_Node000007"><a xlink:title=" ">
<path fill="none" stroke="#63b8ff" d="M1909.81,-175.98C1862.05,-166.65 1798.89,-153.64 1743.5,-140 1740.09,-139.16 1736.56,-138.24 1733.03,-137.3"/>
<polygon fill="#63b8ff" stroke="#63b8ff" points="1733.74,-133.86 1723.17,-134.57 1731.87,-140.61 1733.74,-133.86"/>
</a>
</g>
</g>
<!-- Node32 -->
<g id="Node000032" class="node">
<title>Node32</title>
<g id="a_Node000032"><a target="_parent" xlink:href="https://www.itk.org/Doxygen/html/itkImageRegionConstIterator_8h.html" xlink:title=" ">
<polygon fill="white" stroke="#666666" points="2068.5,-134.5 1902.5,-134.5 1902.5,-115.5 2068.5,-115.5 2068.5,-134.5"/>
<text text-anchor="middle" x="1985.5" y="-122.5" font-family="Helvetica,sans-Serif" font-size="10.00">itkImageRegionConstIterator.h</text>
</a>
</g>
</g>
<!-- Node31&#45;&gt;Node32 -->
<g id="edge41_Node000031_Node000032" class="edge">
<title>Node31&#45;&gt;Node32</title>
<g id="a_edge41_Node000031_Node000032"><a xlink:title=" ">
<path fill="none" stroke="#63b8ff" d="M1984.72,-175.8C1984.86,-166.7 1985.05,-154.79 1985.2,-144.9"/>
<polygon fill="#63b8ff" stroke="#63b8ff" points="1988.71,-144.9 1985.36,-134.84 1981.71,-144.79 1988.71,-144.9"/>
</a>
</g>
</g>
<!-- Node33&#45;&gt;Node7 -->
<g id="edge43_Node000033_Node000007" class="edge">
<title>Node33&#45;&gt;Node7</title>
<g id="a_edge43_Node000033_Node000007"><a xlink:title=" ">
<path fill="none" stroke="#63b8ff" d="M2078.37,-177.23C2075.38,-176.8 2072.41,-176.39 2069.5,-176 1925.03,-156.54 1886.53,-168.12 1743.5,-140 1739.4,-139.19 1735.14,-138.21 1730.93,-137.14"/>
<polygon fill="#63b8ff" stroke="#63b8ff" points="1731.83,-133.75 1721.26,-134.53 1730,-140.51 1731.83,-133.75"/>
</a>
</g>
</g>
<!-- Node34 -->
<g id="Node000034" class="node">
<title>Node34</title>
<g id="a_Node000034"><a target="_parent" xlink:href="https://www.itk.org/Doxygen/html/itkImageScanlineConstIterator_8h.html" xlink:title=" ">
<polygon fill="white" stroke="#666666" points="2260,-134.5 2087,-134.5 2087,-115.5 2260,-115.5 2260,-134.5"/>
<text text-anchor="middle" x="2173.5" y="-122.5" font-family="Helvetica,sans-Serif" font-size="10.00">itkImageScanlineConstIterator.h</text>
</a>
</g>
</g>
<!-- Node33&#45;&gt;Node34 -->
<g id="edge44_Node000033_Node000034" class="edge">
<title>Node33&#45;&gt;Node34</title>
<g id="a_edge44_Node000033_Node000034"><a xlink:title=" ">
<path fill="none" stroke="#63b8ff" d="M2161.05,-175.8C2163.35,-166.6 2166.37,-154.53 2168.86,-144.58"/>
<polygon fill="#63b8ff" stroke="#63b8ff" points="2172.26,-145.39 2171.29,-134.84 2165.47,-143.7 2172.26,-145.39"/>
</a>
</g>
</g>
<!-- Node35&#45;&gt;Node7 -->
<g id="edge46_Node000035_Node000007" class="edge">
<title>Node35&#45;&gt;Node7</title>
<g id="a_edge46_Node000035_Node000007"><a xlink:title=" ">
<path fill="none" stroke="#63b8ff" d="M2254.39,-177.08C2251.39,-176.7 2248.42,-176.34 2245.5,-176 2023.29,-150.4 1963.77,-178.93 1743.5,-140 1739.29,-139.26 1734.91,-138.29 1730.6,-137.22"/>
<polygon fill="#63b8ff" stroke="#63b8ff" points="1731.28,-133.78 1720.71,-134.57 1729.47,-140.54 1731.28,-133.78"/>
</a>
</g>
</g>
<!-- Node36 -->
<g id="Node000036" class="node">
<title>Node36</title>
<g id="a_Node000036"><a target="_parent" xlink:href="https://www.itk.org/Doxygen/html/itkImageScanlineIterator_8h.html" xlink:title=" ">
<polygon fill="white" stroke="#666666" points="2424.5,-134.5 2278.5,-134.5 2278.5,-115.5 2424.5,-115.5 2424.5,-134.5"/>
<text text-anchor="middle" x="2351.5" y="-122.5" font-family="Helvetica,sans-Serif" font-size="10.00">itkImageScanlineIterator.h</text>
</a>
</g>
</g>
<!-- Node35&#45;&gt;Node36 -->
<g id="edge47_Node000035_Node000036" class="edge">
<title>Node35&#45;&gt;Node36</title>
<g id="a_edge47_Node000035_Node000036"><a xlink:title=" ">
<path fill="none" stroke="#63b8ff" d="M2337.49,-175.8C2340.08,-166.6 2343.48,-154.53 2346.27,-144.58"/>
<polygon fill="#63b8ff" stroke="#63b8ff" points="2349.67,-145.42 2349.01,-134.84 2342.94,-143.52 2349.67,-145.42"/>
</a>
</g>
</g>
<!-- Node37&#45;&gt;Node7 -->
<g id="edge49_Node000037_Node000007" class="edge">
<title>Node37&#45;&gt;Node7</title>
<g id="a_edge49_Node000037_Node000007"><a xlink:title=" ">
<path fill="none" stroke="#63b8ff" d="M2461.67,-181.46C2448.67,-179.39 2434.58,-177.38 2421.5,-176 2121.42,-144.25 2041.13,-189.76 1743.5,-140 1739.06,-139.26 1734.45,-138.26 1729.91,-137.13"/>
<polygon fill="#63b8ff" stroke="#63b8ff" points="1730.76,-133.73 1720.19,-134.52 1728.94,-140.49 1730.76,-133.73"/>
</a>
</g>
</g>
<!-- Node38 -->
<g id="Node000038" class="node">
<title>Node38</title>
<g id="a_Node000038"><a target="_parent" xlink:href="https://www.itk.org/Doxygen/html/itkImageSource_8h.html" xlink:title=" ">
<polygon fill="white" stroke="#666666" points="2560.5,-134.5 2458.5,-134.5 2458.5,-115.5 2560.5,-115.5 2560.5,-134.5"/>
<text text-anchor="middle" x="2509.5" y="-122.5" font-family="Helvetica,sans-Serif" font-size="10.00">itkImageSource.h</text>
</a>
</g>
</g>
<!-- Node37&#45;&gt;Node38 -->
<g id="edge50_Node000037_Node000038" class="edge">
<title>Node37&#45;&gt;Node38</title>
<g id="a_edge50_Node000037_Node000038"><a xlink:title=" ">
<path fill="none" stroke="#63b8ff" d="M2509.5,-181.37C2509.5,-172.16 2509.5,-157.29 2509.5,-145.27"/>
<polygon fill="#63b8ff" stroke="#63b8ff" points="2513,-144.91 2509.5,-134.91 2506,-144.91 2513,-144.91"/>
</a>
</g>
</g>
<!-- Node39&#45;&gt;Node7 -->
<g id="edge52_Node000039_Node000007" class="edge">
<title>Node39&#45;&gt;Node7</title>
<g id="a_edge52_Node000039_Node000007"><a xlink:title=" ">
<path fill="none" stroke="#63b8ff" d="M2606.37,-176.86C2603.72,-176.55 2601.09,-176.26 2598.5,-176 2220.09,-137.72 2118.97,-200.67 1743.5,-140 1739.06,-139.28 1734.44,-138.3 1729.91,-137.18"/>
<polygon fill="#63b8ff" stroke="#63b8ff" points="1730.75,-133.78 1720.18,-134.57 1728.93,-140.54 1730.75,-133.78"/>
</a>
</g>
</g>
<!-- Node40 -->
<g id="Node000040" class="node">
<title>Node40</title>
<g id="a_Node000040"><a target="_parent" xlink:href="https://www.itk.org/Doxygen/html/itkImageToImageFilter_8h.html" xlink:title=" ">
<polygon fill="white" stroke="#666666" points="2752.5,-134.5 2618.5,-134.5 2618.5,-115.5 2752.5,-115.5 2752.5,-134.5"/>
<text text-anchor="middle" x="2685.5" y="-122.5" font-family="Helvetica,sans-Serif" font-size="10.00">itkImageToImageFilter.h</text>
</a>
</g>
</g>
<!-- Node39&#45;&gt;Node40 -->
<g id="edge53_Node000039_Node000040" class="edge">
<title>Node39&#45;&gt;Node40</title>
<g id="a_edge53_Node000039_Node000040"><a xlink:title=" ">
<path fill="none" stroke="#63b8ff" d="M2685.5,-175.8C2685.5,-166.7 2685.5,-154.79 2685.5,-144.9"/>
<polygon fill="#63b8ff" stroke="#63b8ff" points="2689,-144.84 2685.5,-134.84 2682,-144.84 2689,-144.84"/>
</a>
</g>
</g>
<!-- Node41&#45;&gt;Node7 -->
<g id="edge55_Node000041_Node000007" class="edge">
<title>Node41&#45;&gt;Node7</title>
<g id="a_edge55_Node000041_Node000007"><a xlink:title=" ">
<path fill="none" stroke="#63b8ff" d="M2782.11,-176.94C2779.2,-176.6 2776.33,-176.28 2773.5,-176 2317.69,-130.69 2195.95,-211.45 1743.5,-140 1739,-139.29 1734.34,-138.3 1729.75,-137.17"/>
<polygon fill="#63b8ff" stroke="#63b8ff" points="1730.49,-133.75 1719.92,-134.53 1728.67,-140.51 1730.49,-133.75"/>
</a>
</g>
</g>
<!-- Node42 -->
<g id="Node000042" class="node">
<title>Node42</title>
<g id="a_Node000042"><a target="_parent" xlink:href="https://www.itk.org/Doxygen/html/itkInPlaceImageFilter_8h.html" xlink:title=" ">
<polygon fill="white" stroke="#666666" points="2922.5,-134.5 2794.5,-134.5 2794.5,-115.5 2922.5,-115.5 2922.5,-134.5"/>
<text text-anchor="middle" x="2858.5" y="-122.5" font-family="Helvetica,sans-Serif" font-size="10.00">itkInPlaceImageFilter.h</text>
</a>
</g>
</g>
<!-- Node41&#45;&gt;Node42 -->
<g id="edge56_Node000041_Node000042" class="edge">
<title>Node41&#45;&gt;Node42</title>
<g id="a_edge56_Node000041_Node000042"><a xlink:title=" ">
<path fill="none" stroke="#63b8ff" d="M2858.5,-175.8C2858.5,-166.7 2858.5,-154.79 2858.5,-144.9"/>
<polygon fill="#63b8ff" stroke="#63b8ff" points="2862,-144.84 2858.5,-134.84 2855,-144.84 2862,-144.84"/>
</a>
</g>
</g>
<!-- Node43&#45;&gt;Node7 -->
<g id="edge58_Node000043_Node000007" class="edge">
<title>Node43&#45;&gt;Node7</title>
<g id="a_edge58_Node000043_Node000007"><a xlink:title=" ">
<path fill="none" stroke="#63b8ff" d="M2952.12,-176.88C2949.21,-176.56 2946.33,-176.26 2943.5,-176 2412.19,-126.9 2270.75,-221.92 1743.5,-140 1739,-139.3 1734.33,-138.32 1729.74,-137.19"/>
<polygon fill="#63b8ff" stroke="#63b8ff" points="1730.48,-133.77 1719.92,-134.56 1728.67,-140.53 1730.48,-133.77"/>
</a>
</g>
</g>
<!-- Node44 -->
<g id="Node000044" class="node">
<title>Node44</title>
<g id="a_Node000044"><a target="_parent" xlink:href="https://www.itk.org/Doxygen/html/itkComposeImageFilter_8h.html" xlink:title=" ">
<polygon fill="white" stroke="#666666" points="3103,-134.5 2964,-134.5 2964,-115.5 3103,-115.5 3103,-134.5"/>
<text text-anchor="middle" x="3033.5" y="-122.5" font-family="Helvetica,sans-Serif" font-size="10.00">itkComposeImageFilter.h</text>
</a>
</g>
</g>
<!-- Node43&#45;&gt;Node44 -->
<g id="edge59_Node000043_Node000044" class="edge">
<title>Node43&#45;&gt;Node44</title>
<g id="a_edge59_Node000043_Node000044"><a xlink:title=" ">
<path fill="none" stroke="#63b8ff" d="M3033.5,-175.8C3033.5,-166.7 3033.5,-154.79 3033.5,-144.9"/>
<polygon fill="#63b8ff" stroke="#63b8ff" points="3037,-144.84 3033.5,-134.84 3030,-144.84 3037,-144.84"/>
</a>
</g>
</g>
<!-- Node45&#45;&gt;Node7 -->
<g id="edge61_Node000045_Node000007" class="edge">
<title>Node45&#45;&gt;Node7</title>
<g id="a_edge61_Node000045_Node000007"><a xlink:title=" ">
<path fill="none" stroke="#63b8ff" d="M3132.81,-177.02C3129.67,-176.64 3126.55,-176.3 3123.5,-176 2818.16,-146.41 2046.73,-186.51 1743.5,-140 1738.95,-139.3 1734.23,-138.31 1729.58,-137.17"/>
<polygon fill="#63b8ff" stroke="#63b8ff" points="1730.23,-133.72 1719.66,-134.5 1728.41,-140.48 1730.23,-133.72"/>
</a>
</g>
</g>
<!-- Node46 -->
<g id="Node000046" class="node">
<title>Node46</title>
<g id="a_Node000046"><a target="_parent" xlink:href="https://www.itk.org/Doxygen/html/itkVectorIndexSelectionCastImageFilter_8h.html" xlink:title=" ">
<polygon fill="white" stroke="#666666" points="3283.5,-140 3129.5,-140 3129.5,-110 3283.5,-110 3283.5,-140"/>
<text text-anchor="start" x="3137.5" y="-128" font-family="Helvetica,sans-Serif" font-size="10.00">itkVectorIndexSelectionCast</text>
<text text-anchor="middle" x="3206.5" y="-117" font-family="Helvetica,sans-Serif" font-size="10.00">ImageFilter.h</text>
</a>
</g>
</g>
<!-- Node45&#45;&gt;Node46 -->
<g id="edge62_Node000045_Node000046" class="edge">
<title>Node45&#45;&gt;Node46</title>
<g id="a_edge62_Node000045_Node000046"><a xlink:title=" ">
<path fill="none" stroke="#63b8ff" d="M3206.5,-175.8C3206.5,-168.34 3206.5,-158.99 3206.5,-150.41"/>
<polygon fill="#63b8ff" stroke="#63b8ff" points="3210,-150.16 3206.5,-140.16 3203,-150.16 3210,-150.16"/>
</a>
</g>
</g>
</g>
</svg>
