<?xml version="1.0" encoding="UTF-8" standalone="no"?>
<!DOCTYPE svg PUBLIC "-//W3C//DTD SVG 1.1//EN"
 "http://www.w3.org/Graphics/SVG/1.1/DTD/svg11.dtd">
<!-- Generated by graphviz version 2.43.0 (0)
 -->
<!-- Title: sitkMemberFunctionFactory.h Pages: 1 -->
<svg width="6922pt" height="218pt"
 viewBox="0.00 0.00 6921.50 218.00" xmlns="http://www.w3.org/2000/svg" xmlns:xlink="http://www.w3.org/1999/xlink">
<g id="graph0" class="graph" transform="scale(1 1) rotate(0) translate(4 214)">
<title>sitkMemberFunctionFactory.h</title>
<polygon fill="white" stroke="transparent" points="-4,4 -4,-214 6917.5,-214 6917.5,4 -4,4"/>
<!-- Node1 -->
<g id="node1" class="node">
<title>Node1</title>
<g id="a_node1"><a xlink:title=" ">
<polygon fill="#bfbfbf" stroke="black" points="5908,-190.5 5908,-209.5 6067,-209.5 6067,-190.5 5908,-190.5"/>
<text text-anchor="middle" x="5987.5" y="-197.5" font-family="Helvetica,sans-Serif" font-size="10.00">sitkMemberFunctionFactory.h</text>
</a>
</g>
</g>
<!-- Node2 -->
<g id="node2" class="node">
<title>Node2</title>
<g id="a_node2"><a xlink:href="sitkImageFilter_8h.html" target="_top" xlink:title=" ">
<polygon fill="white" stroke="red" points="2896.5,-129 2896.5,-148 2994.5,-148 2994.5,-129 2896.5,-129"/>
<text text-anchor="middle" x="2945.5" y="-136" font-family="Helvetica,sans-Serif" font-size="10.00">sitkImageFilter.h</text>
</a>
</g>
</g>
<!-- Node1&#45;&gt;Node2 -->
<g id="edge1" class="edge">
<title>Node1&#45;&gt;Node2</title>
<path fill="none" stroke="midnightblue" d="M5897.42,-197.24C5435.66,-188.21 3342.27,-147.26 2994.52,-140.46"/>
<polygon fill="midnightblue" stroke="midnightblue" points="5897.63,-200.74 5907.7,-197.44 5897.77,-193.74 5897.63,-200.74"/>
</g>
<!-- Node7 -->
<g id="node7" class="node">
<title>Node7</title>
<g id="a_node7"><a xlink:href="sitkHashImageFilter_8h.html" target="_top" xlink:title=" ">
<polygon fill="white" stroke="black" points="0,-62 0,-81 123,-81 123,-62 0,-62"/>
<text text-anchor="middle" x="61.5" y="-69" font-family="Helvetica,sans-Serif" font-size="10.00">sitkHashImageFilter.h</text>
</a>
</g>
</g>
<!-- Node1&#45;&gt;Node7 -->
<g id="edge50" class="edge">
<title>Node1&#45;&gt;Node7</title>
<path fill="none" stroke="midnightblue" d="M5897.73,-198.02C5526.95,-193.9 4078.44,-177.12 2887.5,-154 1662.92,-130.22 1349.51,-224.97 132.5,-87 120.87,-85.68 108.33,-83.41 97.06,-81.05"/>
<polygon fill="midnightblue" stroke="midnightblue" points="5897.82,-201.52 5907.86,-198.13 5897.9,-194.52 5897.82,-201.52"/>
</g>
<!-- Node305 -->
<g id="node41" class="node">
<title>Node305</title>
<g id="a_node41"><a xlink:href="sitkCenteredTransformInitializerFilter_8h.html" target="_top" xlink:title=" ">
<polygon fill="white" stroke="black" points="5297,-123.5 5297,-153.5 5470,-153.5 5470,-123.5 5297,-123.5"/>
<text text-anchor="start" x="5305" y="-141.5" font-family="Helvetica,sans-Serif" font-size="10.00">sitkCenteredTransformInitializer</text>
<text text-anchor="middle" x="5383.5" y="-130.5" font-family="Helvetica,sans-Serif" font-size="10.00">Filter.h</text>
</a>
</g>
</g>
<!-- Node1&#45;&gt;Node305 -->
<g id="edge46" class="edge">
<title>Node1&#45;&gt;Node305</title>
<path fill="none" stroke="midnightblue" d="M5897.48,-192.71C5795.81,-185.21 5625.48,-171.47 5479.5,-154 5476.4,-153.63 5473.25,-153.24 5470.07,-152.83"/>
<polygon fill="midnightblue" stroke="midnightblue" points="5897.48,-196.22 5907.71,-193.46 5898,-189.24 5897.48,-196.22"/>
</g>
<!-- Node306 -->
<g id="node42" class="node">
<title>Node306</title>
<g id="a_node42"><a xlink:href="sitkCenteredVersorTransformInitializerFilter_8h.html" target="_top" xlink:title=" ">
<polygon fill="white" stroke="black" points="5488.5,-123.5 5488.5,-153.5 5646.5,-153.5 5646.5,-123.5 5488.5,-123.5"/>
<text text-anchor="start" x="5496.5" y="-141.5" font-family="Helvetica,sans-Serif" font-size="10.00">sitkCenteredVersorTransform</text>
<text text-anchor="middle" x="5567.5" y="-130.5" font-family="Helvetica,sans-Serif" font-size="10.00">InitializerFilter.h</text>
</a>
</g>
</g>
<!-- Node1&#45;&gt;Node306 -->
<g id="edge48" class="edge">
<title>Node1&#45;&gt;Node306</title>
<path fill="none" stroke="midnightblue" d="M5910.23,-189.16C5842.89,-180.44 5742.63,-167.08 5655.5,-154 5652.59,-153.56 5649.63,-153.11 5646.64,-152.65"/>
<polygon fill="midnightblue" stroke="midnightblue" points="5909.97,-192.66 5920.33,-190.47 5910.87,-185.72 5909.97,-192.66"/>
</g>
<!-- Node307 -->
<g id="node43" class="node">
<title>Node307</title>
<g id="a_node43"><a xlink:href="sitkElastixImageFilterImpl_8h.html" target="_top" xlink:title=" ">
<polygon fill="white" stroke="black" points="5664.5,-129 5664.5,-148 5818.5,-148 5818.5,-129 5664.5,-129"/>
<text text-anchor="middle" x="5741.5" y="-136" font-family="Helvetica,sans-Serif" font-size="10.00">sitkElastixImageFilterImpl.h</text>
</a>
</g>
</g>
<!-- Node1&#45;&gt;Node307 -->
<g id="edge51" class="edge">
<title>Node1&#45;&gt;Node307</title>
<path fill="none" stroke="midnightblue" d="M5942.49,-188.11C5894.74,-176.57 5820.31,-158.56 5776.68,-148.01"/>
<polygon fill="midnightblue" stroke="midnightblue" points="5941.71,-191.53 5952.25,-190.48 5943.36,-184.72 5941.71,-191.53"/>
</g>
<!-- Node308 -->
<g id="node44" class="node">
<title>Node308</title>
<g id="a_node44"><a xlink:href="sitkTransformixImageFilterImpl_8h.html" target="_top" xlink:title=" ">
<polygon fill="white" stroke="black" points="5836.5,-123.5 5836.5,-153.5 5984.5,-153.5 5984.5,-123.5 5836.5,-123.5"/>
<text text-anchor="start" x="5844.5" y="-141.5" font-family="Helvetica,sans-Serif" font-size="10.00">sitkTransformixImageFilter</text>
<text text-anchor="middle" x="5910.5" y="-130.5" font-family="Helvetica,sans-Serif" font-size="10.00">Impl.h</text>
</a>
</g>
</g>
<!-- Node1&#45;&gt;Node308 -->
<g id="edge52" class="edge">
<title>Node1&#45;&gt;Node308</title>
<path fill="none" stroke="midnightblue" d="M5968.34,-184.2C5956.2,-174.81 5940.59,-162.75 5928.65,-153.52"/>
<polygon fill="midnightblue" stroke="midnightblue" points="5966.41,-187.13 5976.47,-190.48 5970.69,-181.59 5966.41,-187.13"/>
</g>
<!-- Node309 -->
<g id="node45" class="node">
<title>Node309</title>
<g id="a_node45"><a xlink:href="sitkImageFileReader_8h.html" target="_top" xlink:title=" ">
<polygon fill="white" stroke="black" points="6003,-129 6003,-148 6128,-148 6128,-129 6003,-129"/>
<text text-anchor="middle" x="6065.5" y="-136" font-family="Helvetica,sans-Serif" font-size="10.00">sitkImageFileReader.h</text>
</a>
</g>
</g>
<!-- Node1&#45;&gt;Node309 -->
<g id="edge53" class="edge">
<title>Node1&#45;&gt;Node309</title>
<path fill="none" stroke="midnightblue" d="M6006.78,-184.29C6021.74,-172.88 6041.96,-157.46 6054.35,-148.01"/>
<polygon fill="midnightblue" stroke="midnightblue" points="6004.5,-181.63 5998.68,-190.48 6008.75,-187.19 6004.5,-181.63"/>
</g>
<!-- Node310 -->
<g id="node46" class="node">
<title>Node310</title>
<g id="a_node46"><a xlink:href="sitkImageFileWriter_8h.html" target="_top" xlink:title=" ">
<polygon fill="white" stroke="black" points="6146,-129 6146,-148 6267,-148 6267,-129 6146,-129"/>
<text text-anchor="middle" x="6206.5" y="-136" font-family="Helvetica,sans-Serif" font-size="10.00">sitkImageFileWriter.h</text>
</a>
</g>
</g>
<!-- Node1&#45;&gt;Node310 -->
<g id="edge55" class="edge">
<title>Node1&#45;&gt;Node310</title>
<path fill="none" stroke="midnightblue" d="M6028.64,-187.82C6071.18,-176.26 6136.67,-158.47 6175.18,-148.01"/>
<polygon fill="midnightblue" stroke="midnightblue" points="6027.61,-184.48 6018.88,-190.48 6029.45,-191.23 6027.61,-184.48"/>
</g>
<!-- Node311 -->
<g id="node47" class="node">
<title>Node311</title>
<g id="a_node47"><a xlink:href="sitkImageSeriesReader_8h.html" target="_top" xlink:title=" ">
<polygon fill="white" stroke="black" points="6285.5,-129 6285.5,-148 6423.5,-148 6423.5,-129 6285.5,-129"/>
<text text-anchor="middle" x="6354.5" y="-136" font-family="Helvetica,sans-Serif" font-size="10.00">sitkImageSeriesReader.h</text>
</a>
</g>
</g>
<!-- Node1&#45;&gt;Node311 -->
<g id="edge57" class="edge">
<title>Node1&#45;&gt;Node311</title>
<path fill="none" stroke="midnightblue" d="M6055.68,-188.96C6114.3,-180.19 6201.07,-166.88 6276.5,-154 6287.36,-152.15 6299.05,-150.03 6309.99,-148.01"/>
<polygon fill="midnightblue" stroke="midnightblue" points="6054.8,-185.55 6045.43,-190.49 6055.84,-192.48 6054.8,-185.55"/>
</g>
<!-- Node312 -->
<g id="node48" class="node">
<title>Node312</title>
<g id="a_node48"><a xlink:href="sitkImageSeriesWriter_8h.html" target="_top" xlink:title=" ">
<polygon fill="white" stroke="black" points="6441.5,-129 6441.5,-148 6575.5,-148 6575.5,-129 6441.5,-129"/>
<text text-anchor="middle" x="6508.5" y="-136" font-family="Helvetica,sans-Serif" font-size="10.00">sitkImageSeriesWriter.h</text>
</a>
</g>
</g>
<!-- Node1&#45;&gt;Node312 -->
<g id="edge59" class="edge">
<title>Node1&#45;&gt;Node312</title>
<path fill="none" stroke="midnightblue" d="M6077.52,-192.23C6167.61,-184.9 6310.05,-171.84 6432.5,-154 6443.8,-152.35 6455.97,-150.2 6467.2,-148.06"/>
<polygon fill="midnightblue" stroke="midnightblue" points="6077.03,-188.76 6067.34,-193.05 6077.59,-195.73 6077.03,-188.76"/>
</g>
<!-- Node313 -->
<g id="node49" class="node">
<title>Node313</title>
<g id="a_node49"><a xlink:href="sitkImportImageFilter_8h.html" target="_top" xlink:title=" ">
<polygon fill="white" stroke="black" points="6594,-129 6594,-148 6725,-148 6725,-129 6594,-129"/>
<text text-anchor="middle" x="6659.5" y="-136" font-family="Helvetica,sans-Serif" font-size="10.00">sitkImportImageFilter.h</text>
</a>
</g>
</g>
<!-- Node1&#45;&gt;Node313 -->
<g id="edge61" class="edge">
<title>Node1&#45;&gt;Node313</title>
<path fill="none" stroke="midnightblue" d="M6077.47,-195.47C6194.62,-190.12 6405.57,-177.96 6584.5,-154 6596.07,-152.45 6608.54,-150.25 6619.94,-148.04"/>
<polygon fill="midnightblue" stroke="midnightblue" points="6077.3,-191.97 6067.47,-195.92 6077.62,-198.96 6077.3,-191.97"/>
</g>
<!-- Node314 -->
<g id="node50" class="node">
<title>Node314</title>
<g id="a_node50"><a xlink:href="sitkImageRegistrationMethod_8h.html" target="_top" xlink:title=" ">
<polygon fill="white" stroke="black" points="6743.5,-129 6743.5,-148 6913.5,-148 6913.5,-129 6743.5,-129"/>
<text text-anchor="middle" x="6828.5" y="-136" font-family="Helvetica,sans-Serif" font-size="10.00">sitkImageRegistrationMethod.h</text>
</a>
</g>
</g>
<!-- Node1&#45;&gt;Node314 -->
<g id="edge63" class="edge">
<title>Node1&#45;&gt;Node314</title>
<path fill="none" stroke="midnightblue" d="M6077.31,-196.28C6217.82,-191.43 6498.03,-179.31 6734.5,-154 6748.95,-152.45 6764.57,-150.26 6778.85,-148.04"/>
<polygon fill="midnightblue" stroke="midnightblue" points="6076.9,-192.8 6067.03,-196.64 6077.14,-199.79 6076.9,-192.8"/>
</g>
<!-- Node3 -->
<g id="node3" class="node">
<title>Node3</title>
<g id="a_node3"><a xlink:href="sitkBSplineTransformInitializerFilter_8h.html" target="_top" xlink:title=" ">
<polygon fill="white" stroke="black" points="141.5,-56.5 141.5,-86.5 307.5,-86.5 307.5,-56.5 141.5,-56.5"/>
<text text-anchor="start" x="149.5" y="-74.5" font-family="Helvetica,sans-Serif" font-size="10.00">sitkBSplineTransformInitializer</text>
<text text-anchor="middle" x="224.5" y="-63.5" font-family="Helvetica,sans-Serif" font-size="10.00">Filter.h</text>
</a>
</g>
</g>
<!-- Node2&#45;&gt;Node3 -->
<g id="edge2" class="edge">
<title>Node2&#45;&gt;Node3</title>
<path fill="none" stroke="midnightblue" d="M2886.22,-136.82C2521.09,-132.56 584.51,-109.1 321.5,-87 317,-86.62 312.4,-86.17 307.76,-85.66"/>
<polygon fill="midnightblue" stroke="midnightblue" points="2886.27,-140.32 2896.31,-136.94 2886.35,-133.32 2886.27,-140.32"/>
</g>
<!-- Node4 -->
<g id="node4" class="node">
<title>Node4</title>
<g id="a_node4"><a xlink:href="SimpleITK_8h.html" target="_top" xlink:title=" ">
<polygon fill="white" stroke="black" points="6194,-0.5 6194,-19.5 6269,-19.5 6269,-0.5 6194,-0.5"/>
<text text-anchor="middle" x="6231.5" y="-7.5" font-family="Helvetica,sans-Serif" font-size="10.00">SimpleITK.h</text>
</a>
</g>
</g>
<!-- Node2&#45;&gt;Node4 -->
<g id="edge14" class="edge">
<title>Node2&#45;&gt;Node4</title>
<path fill="none" stroke="midnightblue" d="M2886.16,-136.91C2501.59,-133 377.42,-110.37 354.5,-87 344.85,-77.16 344.8,-65.78 354.5,-56 381.89,-28.4 5693.29,-12.54 6193.77,-11.11"/>
<polygon fill="midnightblue" stroke="midnightblue" points="2886.2,-140.41 2896.24,-137.01 2886.27,-133.41 2886.2,-140.41"/>
</g>
<!-- Node5 -->
<g id="node5" class="node">
<title>Node5</title>
<g id="a_node5"><a xlink:href="sitkCastImageFilter_8h.html" target="_top" xlink:title=" ">
<polygon fill="white" stroke="black" points="363.5,-62 363.5,-81 483.5,-81 483.5,-62 363.5,-62"/>
<text text-anchor="middle" x="423.5" y="-69" font-family="Helvetica,sans-Serif" font-size="10.00">sitkCastImageFilter.h</text>
</a>
</g>
</g>
<!-- Node2&#45;&gt;Node5 -->
<g id="edge4" class="edge">
<title>Node2&#45;&gt;Node5</title>
<path fill="none" stroke="midnightblue" d="M2886.21,-136.94C2535.24,-133.55 736.74,-114.93 492.5,-87 481.07,-85.69 468.73,-83.39 457.69,-81"/>
<polygon fill="midnightblue" stroke="midnightblue" points="2886.38,-140.44 2896.41,-137.04 2886.45,-133.44 2886.38,-140.44"/>
</g>
<!-- Node6 -->
<g id="node6" class="node">
<title>Node6</title>
<g id="a_node6"><a xlink:href="sitkExtractImageFilter_8h.html" target="_top" xlink:title=" ">
<polygon fill="white" stroke="black" points="502,-62 502,-81 635,-81 635,-62 502,-62"/>
<text text-anchor="middle" x="568.5" y="-69" font-family="Helvetica,sans-Serif" font-size="10.00">sitkExtractImageFilter.h</text>
</a>
</g>
</g>
<!-- Node2&#45;&gt;Node6 -->
<g id="edge6" class="edge">
<title>Node2&#45;&gt;Node6</title>
<path fill="none" stroke="midnightblue" d="M2886.43,-136.79C2549.04,-132.68 873.04,-111.14 644.5,-87 632.08,-85.69 618.65,-83.42 606.59,-81.05"/>
<polygon fill="midnightblue" stroke="midnightblue" points="2886.44,-140.29 2896.48,-136.92 2886.52,-133.29 2886.44,-140.29"/>
</g>
<!-- Node2&#45;&gt;Node7 -->
<g id="edge8" class="edge">
<title>Node2&#45;&gt;Node7</title>
<path fill="none" stroke="midnightblue" d="M2886.23,-137.09C2505.86,-134.37 414.79,-118.09 132.5,-87 120.75,-85.71 108.05,-83.41 96.69,-81.02"/>
<polygon fill="midnightblue" stroke="midnightblue" points="2886.44,-140.59 2896.46,-137.16 2886.49,-133.59 2886.44,-140.59"/>
</g>
<!-- Node8 -->
<g id="node8" class="node">
<title>Node8</title>
<g id="a_node8"><a xlink:href="sitkLandmarkBasedTransformInitializerFilter_8h.html" target="_top" xlink:title=" ">
<polygon fill="white" stroke="black" points="653.5,-56.5 653.5,-86.5 815.5,-86.5 815.5,-56.5 653.5,-56.5"/>
<text text-anchor="start" x="661.5" y="-74.5" font-family="Helvetica,sans-Serif" font-size="10.00">sitkLandmarkBasedTransform</text>
<text text-anchor="middle" x="734.5" y="-63.5" font-family="Helvetica,sans-Serif" font-size="10.00">InitializerFilter.h</text>
</a>
</g>
</g>
<!-- Node2&#45;&gt;Node8 -->
<g id="edge10" class="edge">
<title>Node2&#45;&gt;Node8</title>
<path fill="none" stroke="midnightblue" d="M2886.27,-137.18C2587.18,-135.39 1240.9,-125.32 824.5,-87 821.66,-86.74 818.78,-86.44 815.87,-86.12"/>
<polygon fill="midnightblue" stroke="midnightblue" points="2886.44,-140.68 2896.46,-137.24 2886.48,-133.68 2886.44,-140.68"/>
</g>
<!-- Node9 -->
<g id="node9" class="node">
<title>Node9</title>
<g id="a_node9"><a xlink:href="sitkPasteImageFilter_8h.html" target="_top" xlink:title=" ">
<polygon fill="white" stroke="black" points="834,-62 834,-81 959,-81 959,-62 834,-62"/>
<text text-anchor="middle" x="896.5" y="-69" font-family="Helvetica,sans-Serif" font-size="10.00">sitkPasteImageFilter.h</text>
</a>
</g>
</g>
<!-- Node2&#45;&gt;Node9 -->
<g id="edge12" class="edge">
<title>Node2&#45;&gt;Node9</title>
<path fill="none" stroke="midnightblue" d="M2886.14,-137.37C2599.18,-136.53 1353.97,-130.41 968.5,-87 956.72,-85.67 943.99,-83.4 932.57,-81.04"/>
<polygon fill="midnightblue" stroke="midnightblue" points="2886.32,-140.87 2896.33,-137.4 2886.34,-133.87 2886.32,-140.87"/>
</g>
<!-- Node10 -->
<g id="node10" class="node">
<title>Node10</title>
<g id="a_node10"><a xlink:href="sitkAbsImageFilter_8h.html" target="_top" xlink:title=" ">
<polygon fill="white" stroke="red" points="977.5,-62 977.5,-81 1093.5,-81 1093.5,-62 977.5,-62"/>
<text text-anchor="middle" x="1035.5" y="-69" font-family="Helvetica,sans-Serif" font-size="10.00">sitkAbsImageFilter.h</text>
</a>
</g>
</g>
<!-- Node2&#45;&gt;Node10 -->
<g id="edge15" class="edge">
<title>Node2&#45;&gt;Node10</title>
<path fill="none" stroke="midnightblue" d="M2886.18,-137.36C2611.31,-136.47 1459.77,-130.17 1102.5,-87 1091.51,-85.67 1079.67,-83.4 1069.03,-81.03"/>
<polygon fill="midnightblue" stroke="midnightblue" points="2886.33,-140.86 2896.34,-137.39 2886.35,-133.86 2886.33,-140.86"/>
</g>
<!-- Node13 -->
<g id="node11" class="node">
<title>Node13</title>
<g id="a_node11"><a xlink:href="sitkAbsoluteValueDifferenceImageFilter_8h.html" target="_top" xlink:title=" ">
<polygon fill="white" stroke="red" points="1112,-56.5 1112,-86.5 1267,-86.5 1267,-56.5 1112,-56.5"/>
<text text-anchor="start" x="1120" y="-74.5" font-family="Helvetica,sans-Serif" font-size="10.00">sitkAbsoluteValueDifference</text>
<text text-anchor="middle" x="1189.5" y="-63.5" font-family="Helvetica,sans-Serif" font-size="10.00">ImageFilter.h</text>
</a>
</g>
</g>
<!-- Node2&#45;&gt;Node13 -->
<g id="edge16" class="edge">
<title>Node2&#45;&gt;Node13</title>
<path fill="none" stroke="midnightblue" d="M2886.03,-136.78C2627.32,-133.47 1598.41,-118.55 1276.5,-87 1273.45,-86.7 1270.35,-86.36 1267.22,-85.99"/>
<polygon fill="midnightblue" stroke="midnightblue" points="2886.3,-140.28 2896.34,-136.91 2886.39,-133.28 2886.3,-140.28"/>
</g>
<!-- Node14 -->
<g id="node12" class="node">
<title>Node14</title>
<g id="a_node12"><a xlink:href="sitkAcosImageFilter_8h.html" target="_top" xlink:title=" ">
<polygon fill="white" stroke="red" points="1285.5,-62 1285.5,-81 1407.5,-81 1407.5,-62 1285.5,-62"/>
<text text-anchor="middle" x="1346.5" y="-69" font-family="Helvetica,sans-Serif" font-size="10.00">sitkAcosImageFilter.h</text>
</a>
</g>
</g>
<!-- Node2&#45;&gt;Node14 -->
<g id="edge17" class="edge">
<title>Node2&#45;&gt;Node14</title>
<path fill="none" stroke="midnightblue" d="M2886.22,-136.9C2641.49,-134.21 1708.83,-121.84 1416.5,-87 1405.16,-85.65 1392.93,-83.4 1381.92,-81.06"/>
<polygon fill="midnightblue" stroke="midnightblue" points="2886.3,-140.4 2896.34,-137.01 2886.38,-133.4 2886.3,-140.4"/>
</g>
<!-- Node15 -->
<g id="node13" class="node">
<title>Node15</title>
<g id="a_node13"><a xlink:href="sitkAdaptiveHistogramEqualizationImageFilter_8h.html" target="_top" xlink:title=" ">
<polygon fill="white" stroke="red" points="1426,-56.5 1426,-86.5 1615,-86.5 1615,-56.5 1426,-56.5"/>
<text text-anchor="start" x="1434" y="-74.5" font-family="Helvetica,sans-Serif" font-size="10.00">sitkAdaptiveHistogramEqualization</text>
<text text-anchor="middle" x="1520.5" y="-63.5" font-family="Helvetica,sans-Serif" font-size="10.00">ImageFilter.h</text>
</a>
</g>
</g>
<!-- Node2&#45;&gt;Node15 -->
<g id="edge18" class="edge">
<title>Node2&#45;&gt;Node15</title>
<path fill="none" stroke="midnightblue" d="M2886.35,-137.38C2700.2,-136.55 2109.88,-130.41 1623.5,-87 1620.71,-86.75 1617.88,-86.48 1615.03,-86.19"/>
<polygon fill="midnightblue" stroke="midnightblue" points="2886.45,-140.88 2896.47,-137.42 2886.48,-133.88 2886.45,-140.88"/>
</g>
<!-- Node16 -->
<g id="node14" class="node">
<title>Node16</title>
<g id="a_node14"><a xlink:href="sitkAddImageFilter_8h.html" target="_top" xlink:title=" ">
<polygon fill="white" stroke="red" points="1633,-62 1633,-81 1750,-81 1750,-62 1633,-62"/>
<text text-anchor="middle" x="1691.5" y="-69" font-family="Helvetica,sans-Serif" font-size="10.00">sitkAddImageFilter.h</text>
</a>
</g>
</g>
<!-- Node2&#45;&gt;Node16 -->
<g id="edge19" class="edge">
<title>Node2&#45;&gt;Node16</title>
<path fill="none" stroke="midnightblue" d="M2886.29,-136.29C2678.22,-131.84 1981.16,-115.15 1759.5,-87 1748.48,-85.6 1736.6,-83.33 1725.9,-81.01"/>
<polygon fill="midnightblue" stroke="midnightblue" points="2886.34,-139.79 2896.41,-136.51 2886.49,-132.8 2886.34,-139.79"/>
</g>
<!-- Node18 -->
<g id="node15" class="node">
<title>Node18</title>
<g id="a_node15"><a xlink:href="sitkAdditiveGaussianNoiseImageFilter_8h.html" target="_top" xlink:title=" ">
<polygon fill="white" stroke="red" points="1768.5,-56.5 1768.5,-86.5 1916.5,-86.5 1916.5,-56.5 1768.5,-56.5"/>
<text text-anchor="start" x="1776.5" y="-74.5" font-family="Helvetica,sans-Serif" font-size="10.00">sitkAdditiveGaussianNoise</text>
<text text-anchor="middle" x="1842.5" y="-63.5" font-family="Helvetica,sans-Serif" font-size="10.00">ImageFilter.h</text>
</a>
</g>
</g>
<!-- Node2&#45;&gt;Node18 -->
<g id="edge20" class="edge">
<title>Node2&#45;&gt;Node18</title>
<path fill="none" stroke="midnightblue" d="M2886.11,-137.12C2728.87,-135.55 2288.94,-127.59 1925.5,-87 1922.59,-86.68 1919.63,-86.31 1916.65,-85.92"/>
<polygon fill="midnightblue" stroke="midnightblue" points="2886.46,-140.62 2896.49,-137.22 2886.53,-133.62 2886.46,-140.62"/>
</g>
<!-- Node19 -->
<g id="node16" class="node">
<title>Node19</title>
<g id="a_node16"><a xlink:href="sitkAggregateLabelMapFilter_8h.html" target="_top" xlink:title=" ">
<polygon fill="white" stroke="red" points="1935,-62 1935,-81 2100,-81 2100,-62 1935,-62"/>
<text text-anchor="middle" x="2017.5" y="-69" font-family="Helvetica,sans-Serif" font-size="10.00">sitkAggregateLabelMapFilter.h</text>
</a>
</g>
</g>
<!-- Node2&#45;&gt;Node19 -->
<g id="edge21" class="edge">
<title>Node2&#45;&gt;Node19</title>
<path fill="none" stroke="midnightblue" d="M2886,-135.91C2748.67,-131.8 2399.03,-118.83 2108.5,-87 2094.51,-85.47 2079.38,-83.27 2065.55,-81.06"/>
<polygon fill="midnightblue" stroke="midnightblue" points="2886.2,-139.42 2896.3,-136.21 2886.41,-132.42 2886.2,-139.42"/>
</g>
<!-- Node20 -->
<g id="node17" class="node">
<title>Node20</title>
<g id="a_node17"><a xlink:href="sitkAndImageFilter_8h.html" target="_top" xlink:title=" ">
<polygon fill="white" stroke="red" points="2118,-62 2118,-81 2235,-81 2235,-62 2118,-62"/>
<text text-anchor="middle" x="2176.5" y="-69" font-family="Helvetica,sans-Serif" font-size="10.00">sitkAndImageFilter.h</text>
</a>
</g>
</g>
<!-- Node2&#45;&gt;Node20 -->
<g id="edge22" class="edge">
<title>Node2&#45;&gt;Node20</title>
<path fill="none" stroke="midnightblue" d="M2886.22,-135.99C2765.1,-132.3 2480.74,-120.53 2244.5,-87 2233.86,-85.49 2222.4,-83.28 2211.98,-81.03"/>
<polygon fill="midnightblue" stroke="midnightblue" points="2886.29,-139.5 2896.39,-136.29 2886.49,-132.5 2886.29,-139.5"/>
</g>
<!-- Node21 -->
<g id="node18" class="node">
<title>Node21</title>
<g id="a_node18"><a xlink:href="sitkAntiAliasBinaryImageFilter_8h.html" target="_top" xlink:title=" ">
<polygon fill="white" stroke="red" points="2253.5,-56.5 2253.5,-86.5 2393.5,-86.5 2393.5,-56.5 2253.5,-56.5"/>
<text text-anchor="start" x="2261.5" y="-74.5" font-family="Helvetica,sans-Serif" font-size="10.00">sitkAntiAliasBinaryImage</text>
<text text-anchor="middle" x="2323.5" y="-63.5" font-family="Helvetica,sans-Serif" font-size="10.00">Filter.h</text>
</a>
</g>
</g>
<!-- Node2&#45;&gt;Node21 -->
<g id="edge23" class="edge">
<title>Node2&#45;&gt;Node21</title>
<path fill="none" stroke="midnightblue" d="M2886.08,-133.71C2785.99,-126.93 2577.55,-111.16 2402.5,-87 2399.6,-86.6 2396.64,-86.17 2393.66,-85.71"/>
<polygon fill="midnightblue" stroke="midnightblue" points="2886.08,-137.22 2896.29,-134.39 2886.55,-130.23 2886.08,-137.22"/>
</g>
<!-- Node22 -->
<g id="node19" class="node">
<title>Node22</title>
<g id="a_node19"><a xlink:href="sitkApproximateSignedDistanceMapImageFilter_8h.html" target="_top" xlink:title=" ">
<polygon fill="white" stroke="red" points="2412,-56.5 2412,-86.5 2585,-86.5 2585,-56.5 2412,-56.5"/>
<text text-anchor="start" x="2420" y="-74.5" font-family="Helvetica,sans-Serif" font-size="10.00">sitkApproximateSignedDistance</text>
<text text-anchor="middle" x="2498.5" y="-63.5" font-family="Helvetica,sans-Serif" font-size="10.00">MapImageFilter.h</text>
</a>
</g>
</g>
<!-- Node2&#45;&gt;Node22 -->
<g id="edge24" class="edge">
<title>Node2&#45;&gt;Node22</title>
<path fill="none" stroke="midnightblue" d="M2886.27,-129.17C2816.29,-119.29 2696.38,-102.23 2593.5,-87 2590.78,-86.6 2588.01,-86.19 2585.22,-85.77"/>
<polygon fill="midnightblue" stroke="midnightblue" points="2885.83,-132.64 2896.22,-130.57 2886.81,-125.71 2885.83,-132.64"/>
</g>
<!-- Node23 -->
<g id="node20" class="node">
<title>Node23</title>
<g id="a_node20"><a xlink:href="sitkAsinImageFilter_8h.html" target="_top" xlink:title=" ">
<polygon fill="white" stroke="red" points="2603,-62 2603,-81 2722,-81 2722,-62 2603,-62"/>
<text text-anchor="middle" x="2662.5" y="-69" font-family="Helvetica,sans-Serif" font-size="10.00">sitkAsinImageFilter.h</text>
</a>
</g>
</g>
<!-- Node2&#45;&gt;Node23 -->
<g id="edge25" class="edge">
<title>Node2&#45;&gt;Node23</title>
<path fill="none" stroke="midnightblue" d="M2898.23,-126.64C2842.48,-113.84 2750.92,-92.81 2699.87,-81.08"/>
<polygon fill="midnightblue" stroke="midnightblue" points="2897.68,-130.11 2908.21,-128.94 2899.25,-123.29 2897.68,-130.11"/>
</g>
<!-- Node24 -->
<g id="node21" class="node">
<title>Node24</title>
<g id="a_node21"><a xlink:href="sitkAtan2ImageFilter_8h.html" target="_top" xlink:title=" ">
<polygon fill="white" stroke="red" points="2740,-62 2740,-81 2867,-81 2867,-62 2740,-62"/>
<text text-anchor="middle" x="2803.5" y="-69" font-family="Helvetica,sans-Serif" font-size="10.00">sitkAtan2ImageFilter.h</text>
</a>
</g>
</g>
<!-- Node2&#45;&gt;Node24 -->
<g id="edge26" class="edge">
<title>Node2&#45;&gt;Node24</title>
<path fill="none" stroke="midnightblue" d="M2917.35,-124.61C2889.22,-111.74 2846.77,-92.31 2822.43,-81.17"/>
<polygon fill="midnightblue" stroke="midnightblue" points="2916.09,-127.89 2926.64,-128.87 2919.01,-121.52 2916.09,-127.89"/>
</g>
<!-- Node25 -->
<g id="node22" class="node">
<title>Node25</title>
<g id="a_node22"><a xlink:href="sitkAtanImageFilter_8h.html" target="_top" xlink:title=" ">
<polygon fill="white" stroke="red" points="2885,-62 2885,-81 3006,-81 3006,-62 2885,-62"/>
<text text-anchor="middle" x="2945.5" y="-69" font-family="Helvetica,sans-Serif" font-size="10.00">sitkAtanImageFilter.h</text>
</a>
</g>
</g>
<!-- Node2&#45;&gt;Node25 -->
<g id="edge27" class="edge">
<title>Node2&#45;&gt;Node25</title>
<path fill="none" stroke="midnightblue" d="M2945.5,-118.54C2945.5,-106.17 2945.5,-90.62 2945.5,-81.13"/>
<polygon fill="midnightblue" stroke="midnightblue" points="2942,-118.73 2945.5,-128.73 2949,-118.73 2942,-118.73"/>
</g>
<!-- Node26 -->
<g id="node23" class="node">
<title>Node26</title>
<g id="a_node23"><a xlink:href="sitkBSplineDecompositionImageFilter_8h.html" target="_top" xlink:title=" ">
<polygon fill="white" stroke="red" points="3024,-56.5 3024,-86.5 3169,-86.5 3169,-56.5 3024,-56.5"/>
<text text-anchor="start" x="3032" y="-74.5" font-family="Helvetica,sans-Serif" font-size="10.00">sitkBSplineDecomposition</text>
<text text-anchor="middle" x="3096.5" y="-63.5" font-family="Helvetica,sans-Serif" font-size="10.00">ImageFilter.h</text>
</a>
</g>
</g>
<!-- Node2&#45;&gt;Node26 -->
<g id="edge28" class="edge">
<title>Node2&#45;&gt;Node26</title>
<path fill="none" stroke="midnightblue" d="M2974.74,-124.91C3000.31,-113.91 3037.4,-97.94 3063.91,-86.53"/>
<polygon fill="midnightblue" stroke="midnightblue" points="2973.35,-121.7 2965.55,-128.87 2976.12,-128.13 2973.35,-121.7"/>
</g>
<!-- Node27 -->
<g id="node24" class="node">
<title>Node27</title>
<g id="a_node24"><a xlink:href="sitkBilateralImageFilter_8h.html" target="_top" xlink:title=" ">
<polygon fill="white" stroke="red" points="3187.5,-62 3187.5,-81 3327.5,-81 3327.5,-62 3187.5,-62"/>
<text text-anchor="middle" x="3257.5" y="-69" font-family="Helvetica,sans-Serif" font-size="10.00">sitkBilateralImageFilter.h</text>
</a>
</g>
</g>
<!-- Node2&#45;&gt;Node27 -->
<g id="edge29" class="edge">
<title>Node2&#45;&gt;Node27</title>
<path fill="none" stroke="midnightblue" d="M2996.47,-126.88C3057.82,-114.1 3159.67,-92.88 3216.3,-81.08"/>
<polygon fill="midnightblue" stroke="midnightblue" points="2995.69,-123.47 2986.61,-128.94 2997.11,-130.32 2995.69,-123.47"/>
</g>
<!-- Node28 -->
<g id="node25" class="node">
<title>Node28</title>
<g id="a_node25"><a xlink:href="sitkBinShrinkImageFilter_8h.html" target="_top" xlink:title=" ">
<polygon fill="white" stroke="red" points="3346,-62 3346,-81 3491,-81 3491,-62 3346,-62"/>
<text text-anchor="middle" x="3418.5" y="-69" font-family="Helvetica,sans-Serif" font-size="10.00">sitkBinShrinkImageFilter.h</text>
</a>
</g>
</g>
<!-- Node2&#45;&gt;Node28 -->
<g id="edge30" class="edge">
<title>Node2&#45;&gt;Node28</title>
<path fill="none" stroke="midnightblue" d="M3004.63,-130.73C3081.3,-121.76 3219.14,-104.95 3336.5,-87 3348.22,-85.21 3360.84,-83.08 3372.59,-81.01"/>
<polygon fill="midnightblue" stroke="midnightblue" points="3004.2,-127.26 2994.67,-131.89 3005.01,-134.21 3004.2,-127.26"/>
</g>
<!-- Node29 -->
<g id="node26" class="node">
<title>Node29</title>
<g id="a_node26"><a xlink:href="sitkBinaryClosingByReconstructionImageFilter_8h.html" target="_top" xlink:title=" ">
<polygon fill="white" stroke="red" points="3509.5,-56.5 3509.5,-86.5 3697.5,-86.5 3697.5,-56.5 3509.5,-56.5"/>
<text text-anchor="start" x="3517.5" y="-74.5" font-family="Helvetica,sans-Serif" font-size="10.00">sitkBinaryClosingByReconstruction</text>
<text text-anchor="middle" x="3603.5" y="-63.5" font-family="Helvetica,sans-Serif" font-size="10.00">ImageFilter.h</text>
</a>
</g>
</g>
<!-- Node2&#45;&gt;Node29 -->
<g id="edge31" class="edge">
<title>Node2&#45;&gt;Node29</title>
<path fill="none" stroke="midnightblue" d="M3004.93,-133.02C3106.46,-125.15 3319.78,-107.71 3499.5,-87 3502.76,-86.62 3506.08,-86.23 3509.42,-85.82"/>
<polygon fill="midnightblue" stroke="midnightblue" points="3004.57,-129.53 2994.87,-133.79 3005.11,-136.51 3004.57,-129.53"/>
</g>
<!-- Node30 -->
<g id="node27" class="node">
<title>Node30</title>
<g id="a_node27"><a xlink:href="sitkBinaryContourImageFilter_8h.html" target="_top" xlink:title=" ">
<polygon fill="white" stroke="red" points="3715.5,-62 3715.5,-81 3883.5,-81 3883.5,-62 3715.5,-62"/>
<text text-anchor="middle" x="3799.5" y="-69" font-family="Helvetica,sans-Serif" font-size="10.00">sitkBinaryContourImageFilter.h</text>
</a>
</g>
</g>
<!-- Node2&#45;&gt;Node30 -->
<g id="edge32" class="edge">
<title>Node2&#45;&gt;Node30</title>
<path fill="none" stroke="midnightblue" d="M3004.6,-135.36C3132.77,-130.33 3445.75,-115.92 3706.5,-87 3720.63,-85.43 3735.9,-83.26 3749.9,-81.07"/>
<polygon fill="midnightblue" stroke="midnightblue" points="3004.46,-131.86 2994.6,-135.75 3004.73,-138.86 3004.46,-131.86"/>
</g>
<!-- Node31 -->
<g id="node28" class="node">
<title>Node31</title>
<g id="a_node28"><a xlink:href="sitkBinaryDilateImageFilter_8h.html" target="_top" xlink:title=" ">
<polygon fill="white" stroke="red" points="3901,-62 3901,-81 4060,-81 4060,-62 3901,-62"/>
<text text-anchor="middle" x="3980.5" y="-69" font-family="Helvetica,sans-Serif" font-size="10.00">sitkBinaryDilateImageFilter.h</text>
</a>
</g>
</g>
<!-- Node2&#45;&gt;Node31 -->
<g id="edge33" class="edge">
<title>Node2&#45;&gt;Node31</title>
<path fill="none" stroke="midnightblue" d="M3005.02,-136.6C3154.61,-133.84 3558.23,-123.34 3892.5,-87 3906.2,-85.51 3921.01,-83.3 3934.5,-81.06"/>
<polygon fill="midnightblue" stroke="midnightblue" points="3004.63,-133.1 2994.7,-136.78 3004.76,-140.1 3004.63,-133.1"/>
</g>
<!-- Node32 -->
<g id="node29" class="node">
<title>Node32</title>
<g id="a_node29"><a xlink:href="sitkBinaryErodeImageFilter_8h.html" target="_top" xlink:title=" ">
<polygon fill="white" stroke="red" points="4077.5,-62 4077.5,-81 4235.5,-81 4235.5,-62 4077.5,-62"/>
<text text-anchor="middle" x="4156.5" y="-69" font-family="Helvetica,sans-Serif" font-size="10.00">sitkBinaryErodeImageFilter.h</text>
</a>
</g>
</g>
<!-- Node2&#45;&gt;Node32 -->
<g id="edge34" class="edge">
<title>Node2&#45;&gt;Node32</title>
<path fill="none" stroke="midnightblue" d="M3004.73,-137.3C3172.19,-136.21 3663.3,-129.34 4068.5,-87 4082.36,-85.55 4097.35,-83.33 4110.96,-81.06"/>
<polygon fill="midnightblue" stroke="midnightblue" points="3004.62,-133.8 2994.64,-137.36 3004.66,-140.8 3004.62,-133.8"/>
</g>
<!-- Node33 -->
<g id="node30" class="node">
<title>Node33</title>
<g id="a_node30"><a xlink:href="sitkBinaryFillholeImageFilter_8h.html" target="_top" xlink:title=" ">
<polygon fill="white" stroke="red" points="4254,-62 4254,-81 4419,-81 4419,-62 4254,-62"/>
<text text-anchor="middle" x="4336.5" y="-69" font-family="Helvetica,sans-Serif" font-size="10.00">sitkBinaryFillholeImageFilter.h</text>
</a>
</g>
</g>
<!-- Node2&#45;&gt;Node33 -->
<g id="edge35" class="edge">
<title>Node2&#45;&gt;Node33</title>
<path fill="none" stroke="midnightblue" d="M3004.61,-137.67C3188.67,-137.67 3767.78,-133.67 4244.5,-87 4259.14,-85.57 4275,-83.32 4289.36,-81.02"/>
<polygon fill="midnightblue" stroke="midnightblue" points="3004.6,-134.17 2994.6,-137.67 3004.6,-141.17 3004.6,-134.17"/>
</g>
<!-- Node34 -->
<g id="node31" class="node">
<title>Node34</title>
<g id="a_node31"><a xlink:href="sitkBinaryGrindPeakImageFilter_8h.html" target="_top" xlink:title=" ">
<polygon fill="white" stroke="red" points="4437,-56.5 4437,-86.5 4584,-86.5 4584,-56.5 4437,-56.5"/>
<text text-anchor="start" x="4445" y="-74.5" font-family="Helvetica,sans-Serif" font-size="10.00">sitkBinaryGrindPeakImage</text>
<text text-anchor="middle" x="4510.5" y="-63.5" font-family="Helvetica,sans-Serif" font-size="10.00">Filter.h</text>
</a>
</g>
</g>
<!-- Node2&#45;&gt;Node34 -->
<g id="edge36" class="edge">
<title>Node2&#45;&gt;Node34</title>
<path fill="none" stroke="midnightblue" d="M3004.88,-136.58C3244.95,-132.69 4144.44,-116.4 4427.5,-87 4430.56,-86.68 4433.67,-86.32 4436.81,-85.92"/>
<polygon fill="midnightblue" stroke="midnightblue" points="3004.55,-133.08 2994.61,-136.74 3004.67,-140.08 3004.55,-133.08"/>
</g>
<!-- Node35 -->
<g id="node32" class="node">
<title>Node35</title>
<g id="a_node32"><a xlink:href="sitkBinaryImageToLabelMapFilter_8h.html" target="_top" xlink:title=" ">
<polygon fill="white" stroke="red" points="4602,-56.5 4602,-86.5 4757,-86.5 4757,-56.5 4602,-56.5"/>
<text text-anchor="start" x="4610" y="-74.5" font-family="Helvetica,sans-Serif" font-size="10.00">sitkBinaryImageToLabelMap</text>
<text text-anchor="middle" x="4679.5" y="-63.5" font-family="Helvetica,sans-Serif" font-size="10.00">Filter.h</text>
</a>
</g>
</g>
<!-- Node2&#45;&gt;Node35 -->
<g id="edge37" class="edge">
<title>Node2&#45;&gt;Node35</title>
<path fill="none" stroke="midnightblue" d="M3005.03,-136.75C3261.73,-133.35 4275.19,-118.16 4592.5,-87 4595.55,-86.7 4598.65,-86.36 4601.78,-85.99"/>
<polygon fill="midnightblue" stroke="midnightblue" points="3004.75,-133.25 2994.8,-136.88 3004.84,-140.25 3004.75,-133.25"/>
</g>
<!-- Node36 -->
<g id="node33" class="node">
<title>Node36</title>
<g id="a_node33"><a xlink:href="sitkBinaryMagnitudeImageFilter_8h.html" target="_top" xlink:title=" ">
<polygon fill="white" stroke="red" points="4775,-56.5 4775,-86.5 4924,-86.5 4924,-56.5 4775,-56.5"/>
<text text-anchor="start" x="4783" y="-74.5" font-family="Helvetica,sans-Serif" font-size="10.00">sitkBinaryMagnitudeImage</text>
<text text-anchor="middle" x="4849.5" y="-63.5" font-family="Helvetica,sans-Serif" font-size="10.00">Filter.h</text>
</a>
</g>
</g>
<!-- Node2&#45;&gt;Node36 -->
<g id="edge38" class="edge">
<title>Node2&#45;&gt;Node36</title>
<path fill="none" stroke="midnightblue" d="M3004.94,-137C3277.82,-134.51 4412.26,-122.21 4765.5,-87 4768.59,-86.69 4771.74,-86.34 4774.92,-85.94"/>
<polygon fill="midnightblue" stroke="midnightblue" points="3004.81,-133.5 2994.85,-137.09 3004.88,-140.5 3004.81,-133.5"/>
</g>
<!-- Node37 -->
<g id="node34" class="node">
<title>Node37</title>
<g id="a_node34"><a xlink:href="sitkBinaryMedianImageFilter_8h.html" target="_top" xlink:title=" ">
<polygon fill="white" stroke="red" points="4942.5,-62 4942.5,-81 5108.5,-81 5108.5,-62 4942.5,-62"/>
<text text-anchor="middle" x="5025.5" y="-69" font-family="Helvetica,sans-Serif" font-size="10.00">sitkBinaryMedianImageFilter.h</text>
</a>
</g>
</g>
<!-- Node2&#45;&gt;Node37 -->
<g id="edge39" class="edge">
<title>Node2&#45;&gt;Node37</title>
<path fill="none" stroke="midnightblue" d="M3005.13,-137.03C3293.36,-134.57 4544.22,-122.06 4932.5,-87 4947.47,-85.65 4963.69,-83.4 4978.33,-81.06"/>
<polygon fill="midnightblue" stroke="midnightblue" points="3004.86,-133.53 2994.89,-137.11 3004.92,-140.53 3004.86,-133.53"/>
</g>
<!-- Node38 -->
<g id="node35" class="node">
<title>Node38</title>
<g id="a_node35"><a xlink:href="sitkBinaryMinMaxCurvatureFlowImageFilter_8h.html" target="_top" xlink:title=" ">
<polygon fill="white" stroke="red" points="5127,-56.5 5127,-86.5 5280,-86.5 5280,-56.5 5127,-56.5"/>
<text text-anchor="start" x="5135" y="-74.5" font-family="Helvetica,sans-Serif" font-size="10.00">sitkBinaryMinMaxCurvature</text>
<text text-anchor="middle" x="5203.5" y="-63.5" font-family="Helvetica,sans-Serif" font-size="10.00">FlowImageFilter.h</text>
</a>
</g>
</g>
<!-- Node2&#45;&gt;Node38 -->
<g id="edge40" class="edge">
<title>Node2&#45;&gt;Node38</title>
<path fill="none" stroke="midnightblue" d="M3005.17,-137.27C3309.47,-135.94 4690.76,-127.72 5117.5,-87 5120.51,-86.71 5123.58,-86.38 5126.68,-86.01"/>
<polygon fill="midnightblue" stroke="midnightblue" points="3004.78,-133.78 2994.8,-137.32 3004.81,-140.78 3004.78,-133.78"/>
</g>
<!-- Node39 -->
<g id="node36" class="node">
<title>Node39</title>
<g id="a_node36"><a xlink:href="sitkBinaryMorphologicalClosingImageFilter_8h.html" target="_top" xlink:title=" ">
<polygon fill="white" stroke="red" points="5298,-56.5 5298,-86.5 5469,-86.5 5469,-56.5 5298,-56.5"/>
<text text-anchor="start" x="5306" y="-74.5" font-family="Helvetica,sans-Serif" font-size="10.00">sitkBinaryMorphologicalClosing</text>
<text text-anchor="middle" x="5383.5" y="-63.5" font-family="Helvetica,sans-Serif" font-size="10.00">ImageFilter.h</text>
</a>
</g>
</g>
<!-- Node2&#45;&gt;Node39 -->
<g id="edge41" class="edge">
<title>Node2&#45;&gt;Node39</title>
<path fill="none" stroke="midnightblue" d="M3005.19,-137.28C3323.75,-135.94 4826.42,-127.53 5289.5,-87 5292.21,-86.76 5294.97,-86.5 5297.75,-86.2"/>
<polygon fill="midnightblue" stroke="midnightblue" points="3004.78,-133.78 2994.8,-137.32 3004.81,-140.78 3004.78,-133.78"/>
</g>
<!-- Node40 -->
<g id="node37" class="node">
<title>Node40</title>
<g id="a_node37"><a xlink:href="sitkBinaryMorphologicalOpeningImageFilter_8h.html" target="_top" xlink:title=" ">
<polygon fill="white" stroke="red" points="5487.5,-56.5 5487.5,-86.5 5663.5,-86.5 5663.5,-56.5 5487.5,-56.5"/>
<text text-anchor="start" x="5495.5" y="-74.5" font-family="Helvetica,sans-Serif" font-size="10.00">sitkBinaryMorphologicalOpening</text>
<text text-anchor="middle" x="5575.5" y="-63.5" font-family="Helvetica,sans-Serif" font-size="10.00">ImageFilter.h</text>
</a>
</g>
</g>
<!-- Node2&#45;&gt;Node40 -->
<g id="edge42" class="edge">
<title>Node2&#45;&gt;Node40</title>
<path fill="none" stroke="midnightblue" d="M3005.11,-137.35C3338.53,-136.37 4975.55,-129.43 5478.5,-87 5481.38,-86.76 5484.31,-86.48 5487.27,-86.18"/>
<polygon fill="midnightblue" stroke="midnightblue" points="3004.7,-133.85 2994.71,-137.38 3004.72,-140.85 3004.7,-133.85"/>
</g>
<!-- Node41 -->
<g id="node38" class="node">
<title>Node41</title>
<g id="a_node38"><a xlink:href="sitkBinaryNotImageFilter_8h.html" target="_top" xlink:title=" ">
<polygon fill="white" stroke="red" points="5682,-62 5682,-81 5829,-81 5829,-62 5682,-62"/>
<text text-anchor="middle" x="5755.5" y="-69" font-family="Helvetica,sans-Serif" font-size="10.00">sitkBinaryNotImageFilter.h</text>
</a>
</g>
</g>
<!-- Node2&#45;&gt;Node41 -->
<g id="edge43" class="edge">
<title>Node2&#45;&gt;Node41</title>
<path fill="none" stroke="midnightblue" d="M3004.63,-137.65C3351.86,-138.33 5129.02,-139.19 5672.5,-87 5686.04,-85.7 5700.7,-83.43 5713.87,-81.07"/>
<polygon fill="midnightblue" stroke="midnightblue" points="3004.55,-134.15 2994.54,-137.63 3004.53,-141.15 3004.55,-134.15"/>
</g>
<!-- Node42 -->
<g id="node39" class="node">
<title>Node42</title>
<g id="a_node39"><a xlink:href="sitkBinaryOpeningByReconstructionImageFilter_8h.html" target="_top" xlink:title=" ">
<polygon fill="white" stroke="red" points="5847.5,-56.5 5847.5,-86.5 6039.5,-86.5 6039.5,-56.5 5847.5,-56.5"/>
<text text-anchor="start" x="5855.5" y="-74.5" font-family="Helvetica,sans-Serif" font-size="10.00">sitkBinaryOpeningByReconstruction</text>
<text text-anchor="middle" x="5943.5" y="-63.5" font-family="Helvetica,sans-Serif" font-size="10.00">ImageFilter.h</text>
</a>
</g>
</g>
<!-- Node2&#45;&gt;Node42 -->
<g id="edge44" class="edge">
<title>Node2&#45;&gt;Node42</title>
<path fill="none" stroke="midnightblue" d="M3004.72,-137.43C3364.34,-136.89 5259.18,-131.89 5838.5,-87 5841.44,-86.77 5844.41,-86.52 5847.42,-86.24"/>
<polygon fill="midnightblue" stroke="midnightblue" points="3004.52,-133.93 2994.53,-137.45 3004.53,-140.93 3004.52,-133.93"/>
</g>
<!-- Node43 -->
<g id="node40" class="node">
<title>Node43</title>
<g id="a_node40"><a xlink:href="sitkBinaryProjectionImageFilter_8h.html" target="_top" xlink:title=" ">
<polygon fill="white" stroke="red" points="6057.5,-56.5 6057.5,-86.5 6203.5,-86.5 6203.5,-56.5 6057.5,-56.5"/>
<text text-anchor="start" x="6065.5" y="-74.5" font-family="Helvetica,sans-Serif" font-size="10.00">sitkBinaryProjectionImage</text>
<text text-anchor="middle" x="6130.5" y="-63.5" font-family="Helvetica,sans-Serif" font-size="10.00">Filter.h</text>
</a>
</g>
</g>
<!-- Node2&#45;&gt;Node43 -->
<g id="edge45" class="edge">
<title>Node2&#45;&gt;Node43</title>
<path fill="none" stroke="midnightblue" d="M3005.02,-137.1C3408.4,-134.32 5735.18,-117.06 6048.5,-87 6051.38,-86.72 6054.31,-86.4 6057.26,-86.04"/>
<polygon fill="midnightblue" stroke="midnightblue" points="3004.72,-133.6 2994.74,-137.17 3004.77,-140.6 3004.72,-133.6"/>
</g>
<!-- Node3&#45;&gt;Node4 -->
<g id="edge3" class="edge">
<title>Node3&#45;&gt;Node4</title>
<path fill="none" stroke="midnightblue" d="M318.11,-56.28C319.24,-56.18 320.38,-56.09 321.5,-56 943.74,-7.37 5721.89,-10.53 6193.97,-10.96"/>
<polygon fill="midnightblue" stroke="midnightblue" points="317.37,-52.83 307.75,-57.28 318.04,-59.8 317.37,-52.83"/>
</g>
<!-- Node5&#45;&gt;Node4 -->
<g id="edge5" class="edge">
<title>Node5&#45;&gt;Node4</title>
<path fill="none" stroke="midnightblue" d="M467.26,-59.94C475.6,-58.32 484.28,-56.89 492.5,-56 794.02,-23.46 5714.18,-12.11 6193.94,-11.08"/>
<polygon fill="midnightblue" stroke="midnightblue" points="466.41,-56.54 457.33,-61.99 467.83,-63.39 466.41,-56.54"/>
</g>
<!-- Node6&#45;&gt;Node4 -->
<g id="edge7" class="edge">
<title>Node6&#45;&gt;Node4</title>
<path fill="none" stroke="midnightblue" d="M615.84,-60.1C625.29,-58.41 635.17,-56.92 644.5,-56 938.09,-27.05 5720.53,-12.48 6193.85,-11.11"/>
<polygon fill="midnightblue" stroke="midnightblue" points="614.98,-56.7 605.8,-61.99 616.28,-63.58 614.98,-56.7"/>
</g>
<!-- Node7&#45;&gt;Node4 -->
<g id="edge9" class="edge">
<title>Node7&#45;&gt;Node4</title>
<path fill="none" stroke="midnightblue" d="M106.26,-59.99C114.92,-58.34 123.96,-56.9 132.5,-56 453.54,-22.36 5697.86,-11.97 6193.91,-11.07"/>
<polygon fill="midnightblue" stroke="midnightblue" points="105.43,-56.58 96.32,-61.99 106.81,-63.45 105.43,-56.58"/>
</g>
<!-- Node8&#45;&gt;Node4 -->
<g id="edge11" class="edge">
<title>Node8&#45;&gt;Node4</title>
<path fill="none" stroke="midnightblue" d="M825.93,-56.01C1440.78,-8.22 5745.33,-10.59 6193.76,-10.96"/>
<polygon fill="midnightblue" stroke="midnightblue" points="825.55,-52.53 815.87,-56.82 826.12,-59.51 825.55,-52.53"/>
</g>
<!-- Node9&#45;&gt;Node4 -->
<g id="edge13" class="edge">
<title>Node9&#45;&gt;Node4</title>
<path fill="none" stroke="midnightblue" d="M941.9,-60C950.68,-58.35 959.84,-56.9 968.5,-56 1244.49,-27.29 5736.27,-12.55 6193.95,-11.12"/>
<polygon fill="midnightblue" stroke="midnightblue" points="940.95,-56.62 931.82,-62 942.31,-63.48 940.95,-56.62"/>
</g>
<!-- Node305&#45;&gt;Node4 -->
<g id="edge47" class="edge">
<title>Node305&#45;&gt;Node4</title>
<path fill="none" stroke="midnightblue" d="M5480.33,-123.23C5598.05,-116.36 6151.51,-137.08 6212.5,-87 6232.68,-70.43 6233.28,-35.96 6232.32,-19.77"/>
<polygon fill="midnightblue" stroke="midnightblue" points="5479.76,-119.77 5470.06,-124.02 5480.29,-126.75 5479.76,-119.77"/>
</g>
<!-- Node306&#45;&gt;Node4 -->
<g id="edge49" class="edge">
<title>Node306&#45;&gt;Node4</title>
<path fill="none" stroke="midnightblue" d="M5656.79,-123.23C5756.68,-117.02 6202.21,-133.01 6245.5,-87 6263.06,-68.34 6246.62,-35.22 6237.15,-19.6"/>
<polygon fill="midnightblue" stroke="midnightblue" points="5656.28,-119.76 5646.6,-124.07 5656.86,-126.73 5656.28,-119.76"/>
</g>
<!-- Node309&#45;&gt;Node4 -->
<g id="edge54" class="edge">
<title>Node309&#45;&gt;Node4</title>
<path fill="none" stroke="midnightblue" d="M6114.94,-126.84C6178.43,-113.04 6280.84,-90.35 6283.5,-87 6292.07,-76.21 6289.23,-68.53 6283.5,-56 6276.11,-39.82 6259.7,-27.23 6247.28,-19.53"/>
<polygon fill="midnightblue" stroke="midnightblue" points="6114.13,-123.44 6105.1,-128.98 6115.62,-130.28 6114.13,-123.44"/>
</g>
<!-- Node310&#45;&gt;Node4 -->
<g id="edge56" class="edge">
<title>Node310&#45;&gt;Node4</title>
<path fill="none" stroke="midnightblue" d="M6265.26,-125.88C6286.7,-118.49 6308.78,-106.47 6321.5,-87 6329.03,-75.46 6328.74,-67.72 6321.5,-56 6309.93,-37.28 6287.94,-26.08 6268.6,-19.54"/>
<polygon fill="midnightblue" stroke="midnightblue" points="6263.98,-122.61 6255.49,-128.96 6266.08,-129.29 6263.98,-122.61"/>
</g>
<!-- Node311&#45;&gt;Node4 -->
<g id="edge58" class="edge">
<title>Node311&#45;&gt;Node4</title>
<path fill="none" stroke="midnightblue" d="M6355.31,-118.66C6355.08,-100.64 6352.02,-73.68 6337.5,-56 6320.5,-35.3 6292.25,-23.94 6269.19,-17.81"/>
<polygon fill="midnightblue" stroke="midnightblue" points="6351.8,-118.73 6355.15,-128.79 6358.8,-118.84 6351.8,-118.73"/>
</g>
<!-- Node312&#45;&gt;Node4 -->
<g id="edge60" class="edge">
<title>Node312&#45;&gt;Node4</title>
<path fill="none" stroke="midnightblue" d="M6485.49,-123.51C6456.53,-106.27 6404.96,-76.7 6358.5,-56 6325.27,-41.2 6285.55,-27.77 6259.49,-19.52"/>
<polygon fill="midnightblue" stroke="midnightblue" points="6484.02,-126.72 6494.4,-128.86 6487.63,-120.72 6484.02,-126.72"/>
</g>
<!-- Node313&#45;&gt;Node4 -->
<g id="edge62" class="edge">
<title>Node313&#45;&gt;Node4</title>
<path fill="none" stroke="midnightblue" d="M6624.01,-125.7C6574.42,-109.36 6481.48,-79.2 6401.5,-56 6354.73,-42.43 6300.25,-28.3 6265.82,-19.58"/>
<polygon fill="midnightblue" stroke="midnightblue" points="6623.03,-129.07 6633.62,-128.88 6625.22,-122.42 6623.03,-129.07"/>
</g>
<!-- Node314&#45;&gt;Node4 -->
<g id="edge64" class="edge">
<title>Node314&#45;&gt;Node4</title>
<path fill="none" stroke="midnightblue" d="M6782.04,-126.64C6712.93,-110.58 6578.92,-79.85 6464.5,-56 6395.73,-41.66 6315.21,-26.46 6269.1,-17.91"/>
<polygon fill="midnightblue" stroke="midnightblue" points="6781.62,-130.13 6792.15,-128.99 6783.21,-123.31 6781.62,-130.13"/>
</g>
</g>
</svg>
