<?xml version="1.0" encoding="UTF-8" standalone="no"?>
<!DOCTYPE svg PUBLIC "-//W3C//DTD SVG 1.1//EN"
 "http://www.w3.org/Graphics/SVG/1.1/DTD/svg11.dtd">
<!-- Generated by graphviz version 2.43.0 (0)
 -->
<!-- Title: sitkMemberFunctionFactory.h Pages: 1 -->
<svg width="938pt" height="258pt"
 viewBox="0.00 0.00 937.50 258.00" xmlns="http://www.w3.org/2000/svg" xmlns:xlink="http://www.w3.org/1999/xlink">
<g id="graph0" class="graph" transform="scale(1 1) rotate(0) translate(4 254)">
<title>sitkMemberFunctionFactory.h</title>
<!-- Node1 -->
<g id="Node000001" class="node">
<title>Node1</title>
<g id="a_Node000001"><a xlink:title=" ">
<polygon fill="#999999" stroke="#666666" points="538,-250 379,-250 379,-231 538,-231 538,-250"/>
<text text-anchor="middle" x="458.5" y="-238" font-family="Helvetica,sans-Serif" font-size="10.00">sitkMemberFunctionFactory.h</text>
</a>
</g>
</g>
<!-- Node2 -->
<g id="Node000002" class="node">
<title>Node2</title>
<g id="a_Node000002"><a xlink:href="sitkDetail_8h.html" target="_top" xlink:title=" ">
<polygon fill="white" stroke="#666666" points="440,-195 367,-195 367,-176 440,-176 440,-195"/>
<text text-anchor="middle" x="403.5" y="-183" font-family="Helvetica,sans-Serif" font-size="10.00">sitkDetail.h</text>
</a>
</g>
</g>
<!-- Node1&#45;&gt;Node2 -->
<g id="edge1_Node000001_Node000002" class="edge">
<title>Node1&#45;&gt;Node2</title>
<g id="a_edge1_Node000001_Node000002"><a xlink:title=" ">
<path fill="none" stroke="#63b8ff" d="M449.42,-230.75C441.41,-223.03 429.54,-211.6 419.88,-202.28"/>
<polygon fill="#63b8ff" stroke="#63b8ff" points="422.04,-199.51 412.41,-195.09 417.19,-204.55 422.04,-199.51"/>
</a>
</g>
</g>
<!-- Node3 -->
<g id="Node000003" class="node">
<title>Node3</title>
<g id="a_Node000003"><a xlink:href="sitkMemberFunctionFactoryBase_8h.html" target="_top" xlink:title=" ">
<polygon fill="white" stroke="#666666" points="375.5,-140 223.5,-140 223.5,-110 375.5,-110 375.5,-140"/>
<text text-anchor="start" x="231.5" y="-128" font-family="Helvetica,sans-Serif" font-size="10.00">sitkMemberFunctionFactory</text>
<text text-anchor="middle" x="299.5" y="-117" font-family="Helvetica,sans-Serif" font-size="10.00">Base.h</text>
</a>
</g>
</g>
<!-- Node1&#45;&gt;Node3 -->
<g id="edge16_Node000001_Node000003" class="edge">
<title>Node1&#45;&gt;Node3</title>
<g id="a_edge16_Node000001_Node000003"><a xlink:title=" ">
<path fill="none" stroke="#63b8ff" d="M430.1,-230.91C408.77,-223.56 379.58,-211.55 357.5,-195 340.39,-182.17 325.02,-163.38 314.41,-148.65"/>
<polygon fill="#63b8ff" stroke="#63b8ff" points="317.03,-146.29 308.44,-140.09 311.29,-150.29 317.03,-146.29"/>
</a>
</g>
</g>
<!-- Node14 -->
<g id="Node000014" class="node">
<title>Node14</title>
<g id="a_Node000014"><a xlink:href="sitkPixelIDValues_8h.html" target="_top" xlink:title=" ">
<polygon fill="white" stroke="#666666" points="591.5,-195 481.5,-195 481.5,-176 591.5,-176 591.5,-195"/>
<text text-anchor="middle" x="536.5" y="-183" font-family="Helvetica,sans-Serif" font-size="10.00">sitkPixelIDValues.h</text>
</a>
</g>
</g>
<!-- Node1&#45;&gt;Node14 -->
<g id="edge17_Node000001_Node000014" class="edge">
<title>Node1&#45;&gt;Node14</title>
<g id="a_edge17_Node000001_Node000014"><a xlink:title=" ">
<path fill="none" stroke="#63b8ff" d="M471.03,-230.98C482.9,-222.92 500.96,-210.65 515.11,-201.03"/>
<polygon fill="#63b8ff" stroke="#63b8ff" points="517.44,-203.69 523.74,-195.17 513.5,-197.9 517.44,-203.69"/>
</a>
</g>
</g>
<!-- Node23 -->
<g id="Node000023" class="node">
<title>Node23</title>
<g id="a_Node000023"><a xlink:title=" ">
<polygon fill="#e0e0e0" stroke="#999999" points="781,-195 610,-195 610,-176 781,-176 781,-195"/>
<text text-anchor="middle" x="695.5" y="-183" font-family="Helvetica,sans-Serif" font-size="10.00">sitkMemberFunctionFactory.hxx</text>
</a>
</g>
</g>
<!-- Node1&#45;&gt;Node23 -->
<g id="edge29_Node000001_Node000023" class="edge">
<title>Node1&#45;&gt;Node23</title>
<g id="a_edge29_Node000001_Node000023"><a xlink:title=" ">
<path fill="none" stroke="#63b8ff" d="M496.58,-230.98C537.49,-221.84 602.61,-207.27 647.12,-197.32"/>
<polygon fill="#63b8ff" stroke="#63b8ff" points="648.13,-200.68 657.12,-195.08 646.6,-193.85 648.13,-200.68"/>
</a>
</g>
</g>
<!-- Node2&#45;&gt;Node3 -->
<g id="edge2_Node000002_Node000003" class="edge">
<title>Node2&#45;&gt;Node3</title>
<g id="a_edge2_Node000002_Node000003"><a xlink:title=" ">
<path fill="none" stroke="#63b8ff" d="M388.15,-175.87C373.78,-167.78 351.81,-155.42 333.33,-145.03"/>
<polygon fill="#63b8ff" stroke="#63b8ff" points="335.02,-141.97 324.59,-140.11 331.59,-148.07 335.02,-141.97"/>
</a>
</g>
</g>
<!-- Node10 -->
<g id="Node000010" class="node">
<title>Node10</title>
<g id="a_Node000010"><a xlink:title=" ">
<polygon fill="#e0e0e0" stroke="#999999" points="470,-74 331,-74 331,-55 470,-55 470,-74"/>
<text text-anchor="middle" x="400.5" y="-62" font-family="Helvetica,sans-Serif" font-size="10.00">Ancillary/FunctionTraits.h</text>
</a>
</g>
</g>
<!-- Node2&#45;&gt;Node10 -->
<g id="edge15_Node000002_Node000010" class="edge">
<title>Node2&#45;&gt;Node10</title>
<g id="a_edge15_Node000002_Node000010"><a xlink:title=" ">
<path fill="none" stroke="#63b8ff" d="M403.28,-175.94C402.8,-156.91 401.64,-110.69 400.98,-84.47"/>
<polygon fill="#63b8ff" stroke="#63b8ff" points="404.47,-84.21 400.72,-74.3 397.48,-84.39 404.47,-84.21"/>
</a>
</g>
</g>
<!-- Node4 -->
<g id="Node000004" class="node">
<title>Node4</title>
<g id="a_Node000004"><a xlink:href="sitkConfigure_8h.html" target="_top" xlink:title=" ">
<polygon fill="white" stroke="#666666" points="377.5,-19 287.5,-19 287.5,0 377.5,0 377.5,-19"/>
<text text-anchor="middle" x="332.5" y="-7" font-family="Helvetica,sans-Serif" font-size="10.00">sitkConfigure.h</text>
</a>
</g>
</g>
<!-- Node3&#45;&gt;Node4 -->
<g id="edge3_Node000003_Node000004" class="edge">
<title>Node3&#45;&gt;Node4</title>
<g id="a_edge3_Node000003_Node000004"><a xlink:title=" ">
<path fill="none" stroke="#63b8ff" d="M303.68,-109.63C309.64,-89.12 320.59,-51.47 327.14,-28.93"/>
<polygon fill="#63b8ff" stroke="#63b8ff" points="330.53,-29.81 329.96,-19.23 323.81,-27.85 330.53,-29.81"/>
</a>
</g>
</g>
<!-- Node5 -->
<g id="Node000005" class="node">
<title>Node5</title>
<g id="a_Node000005"><a xlink:href="sitkPixelIDTypeLists_8h.html" target="_top" xlink:title=" ">
<polygon fill="white" stroke="#666666" points="610.5,-74 488.5,-74 488.5,-55 610.5,-55 610.5,-74"/>
<text text-anchor="middle" x="549.5" y="-62" font-family="Helvetica,sans-Serif" font-size="10.00">sitkPixelIDTypeLists.h</text>
</a>
</g>
</g>
<!-- Node3&#45;&gt;Node5 -->
<g id="edge4_Node000003_Node000005" class="edge">
<title>Node3&#45;&gt;Node5</title>
<g id="a_edge4_Node000003_Node000005"><a xlink:title=" ">
<path fill="none" stroke="#63b8ff" d="M359.38,-109.99C403.46,-99.67 462.53,-85.85 503.06,-76.37"/>
<polygon fill="#63b8ff" stroke="#63b8ff" points="504.01,-79.74 512.95,-74.05 502.41,-72.92 504.01,-79.74"/>
</a>
</g>
</g>
<!-- Node8 -->
<g id="Node000008" class="node">
<title>Node8</title>
<g id="a_Node000008"><a xlink:title=" ">
<polygon fill="#e0e0e0" stroke="#999999" points="255,-19 136,-19 136,0 255,0 255,-19"/>
<text text-anchor="middle" x="195.5" y="-7" font-family="Helvetica,sans-Serif" font-size="10.00">Ancillary/type_list2.h</text>
</a>
</g>
</g>
<!-- Node3&#45;&gt;Node8 -->
<g id="edge10_Node000003_Node000008" class="edge">
<title>Node3&#45;&gt;Node8</title>
<g id="a_edge10_Node000003_Node000008"><a xlink:title=" ">
<path fill="none" stroke="#63b8ff" d="M247.65,-109.96C229.42,-102.35 210.7,-90.91 199.5,-74 190.83,-60.91 190.55,-42.77 192.03,-29.23"/>
<polygon fill="#63b8ff" stroke="#63b8ff" points="195.52,-29.56 193.53,-19.15 188.59,-28.52 195.52,-29.56"/>
</a>
</g>
</g>
<!-- Node3&#45;&gt;Node10 -->
<g id="edge11_Node000003_Node000010" class="edge">
<title>Node3&#45;&gt;Node10</title>
<g id="a_edge11_Node000003_Node000010"><a xlink:title=" ">
<path fill="none" stroke="#63b8ff" d="M323.69,-109.99C339.79,-100.66 360.84,-88.47 376.83,-79.21"/>
<polygon fill="#63b8ff" stroke="#63b8ff" points="378.69,-82.18 385.58,-74.14 375.18,-76.12 378.69,-82.18"/>
</a>
</g>
</g>
<!-- Node11 -->
<g id="Node000011" class="node">
<title>Node11</title>
<g id="a_Node000011"><a xlink:title=" ">
<polygon fill="#e0e0e0" stroke="#999999" points="152,-74 59,-74 59,-55 152,-55 152,-74"/>
<text text-anchor="middle" x="105.5" y="-62" font-family="Helvetica,sans-Serif" font-size="10.00">unordered_map</text>
</a>
</g>
</g>
<!-- Node3&#45;&gt;Node11 -->
<g id="edge12_Node000003_Node000011" class="edge">
<title>Node3&#45;&gt;Node11</title>
<g id="a_edge12_Node000003_Node000011"><a xlink:title=" ">
<path fill="none" stroke="#63b8ff" d="M253.03,-109.99C219.55,-99.89 174.93,-86.44 143.56,-76.98"/>
<polygon fill="#63b8ff" stroke="#63b8ff" points="144.45,-73.59 133.87,-74.05 142.43,-80.29 144.45,-73.59"/>
</a>
</g>
</g>
<!-- Node12 -->
<g id="Node000012" class="node">
<title>Node12</title>
<g id="a_Node000012"><a xlink:title=" ">
<polygon fill="#e0e0e0" stroke="#999999" points="274,-74 209,-74 209,-55 274,-55 274,-74"/>
<text text-anchor="middle" x="241.5" y="-62" font-family="Helvetica,sans-Serif" font-size="10.00">functional</text>
</a>
</g>
</g>
<!-- Node3&#45;&gt;Node12 -->
<g id="edge13_Node000003_Node000012" class="edge">
<title>Node3&#45;&gt;Node12</title>
<g id="a_edge13_Node000003_Node000012"><a xlink:title=" ">
<path fill="none" stroke="#63b8ff" d="M285.46,-109.84C276.95,-101.26 266.09,-90.3 257.28,-81.42"/>
<polygon fill="#63b8ff" stroke="#63b8ff" points="259.72,-78.9 250.19,-74.27 254.75,-83.83 259.72,-78.9"/>
</a>
</g>
</g>
<!-- Node13 -->
<g id="Node000013" class="node">
<title>Node13</title>
<g id="a_Node000013"><a xlink:title=" ">
<polygon fill="#e0e0e0" stroke="#999999" points="41,-74 0,-74 0,-55 41,-55 41,-74"/>
<text text-anchor="middle" x="20.5" y="-62" font-family="Helvetica,sans-Serif" font-size="10.00">tuple</text>
</a>
</g>
</g>
<!-- Node3&#45;&gt;Node13 -->
<g id="edge14_Node000003_Node000013" class="edge">
<title>Node3&#45;&gt;Node13</title>
<g id="a_edge14_Node000003_Node000013"><a xlink:title=" ">
<path fill="none" stroke="#63b8ff" d="M223.36,-110.57C176.06,-101.8 113.84,-89.52 50.76,-74.15"/>
<polygon fill="#63b8ff" stroke="#63b8ff" points="51.58,-70.75 41.03,-71.76 49.91,-77.55 51.58,-70.75"/>
</a>
</g>
</g>
<!-- Node5&#45;&gt;Node4 -->
<g id="edge6_Node000005_Node000004" class="edge">
<title>Node5&#45;&gt;Node4</title>
<g id="a_edge6_Node000005_Node000004"><a xlink:title=" ">
<path fill="none" stroke="#63b8ff" d="M514.64,-54.98C477.41,-45.89 418.3,-31.46 377.57,-21.51"/>
<polygon fill="#63b8ff" stroke="#63b8ff" points="378.18,-18.05 367.64,-19.08 376.52,-24.85 378.18,-18.05"/>
</a>
</g>
</g>
<!-- Node6 -->
<g id="Node000006" class="node">
<title>Node6</title>
<g id="a_Node000006"><a xlink:title=" ">
<polygon fill="#e0e0e0" stroke="#999999" points="649,-19 596,-19 596,0 649,0 649,-19"/>
<text text-anchor="middle" x="622.5" y="-7" font-family="Helvetica,sans-Serif" font-size="10.00">stdint.h</text>
</a>
</g>
</g>
<!-- Node5&#45;&gt;Node6 -->
<g id="edge5_Node000005_Node000006" class="edge">
<title>Node5&#45;&gt;Node6</title>
<g id="a_edge5_Node000005_Node000006"><a xlink:title=" ">
<path fill="none" stroke="#63b8ff" d="M561.23,-54.98C572.23,-47 588.92,-34.88 602.1,-25.31"/>
<polygon fill="#63b8ff" stroke="#63b8ff" points="604.52,-27.88 610.56,-19.17 600.41,-22.21 604.52,-27.88"/>
</a>
</g>
</g>
<!-- Node7 -->
<g id="Node000007" class="node">
<title>Node7</title>
<g id="a_Node000007"><a xlink:href="sitkPixelIDTypes_8h.html" target="_top" xlink:title=" ">
<polygon fill="white" stroke="#666666" points="578,-19 473,-19 473,0 578,0 578,-19"/>
<text text-anchor="middle" x="525.5" y="-7" font-family="Helvetica,sans-Serif" font-size="10.00">sitkPixelIDTypes.h</text>
</a>
</g>
</g>
<!-- Node5&#45;&gt;Node7 -->
<g id="edge7_Node000005_Node000007" class="edge">
<title>Node5&#45;&gt;Node7</title>
<g id="a_edge7_Node000005_Node000007"><a xlink:title=" ">
<path fill="none" stroke="#63b8ff" d="M545.54,-54.75C542.29,-47.57 537.58,-37.18 533.55,-28.27"/>
<polygon fill="#63b8ff" stroke="#63b8ff" points="536.7,-26.75 529.39,-19.09 530.33,-29.64 536.7,-26.75"/>
</a>
</g>
</g>
<!-- Node5&#45;&gt;Node8 -->
<g id="edge8_Node000005_Node000008" class="edge">
<title>Node5&#45;&gt;Node8</title>
<g id="a_edge8_Node000005_Node000008"><a xlink:title=" ">
<path fill="none" stroke="#63b8ff" d="M492.62,-54.98C429.88,-45.59 329.01,-30.49 262.49,-20.53"/>
<polygon fill="#63b8ff" stroke="#63b8ff" points="262.94,-17.06 252.53,-19.04 261.9,-23.98 262.94,-17.06"/>
</a>
</g>
</g>
<!-- Node9 -->
<g id="Node000009" class="node">
<title>Node9</title>
<g id="a_Node000009"><a xlink:title=" ">
<polygon fill="#e0e0e0" stroke="#999999" points="455,-19 396,-19 396,0 455,0 455,-19"/>
<text text-anchor="middle" x="425.5" y="-7" font-family="Helvetica,sans-Serif" font-size="10.00">complex</text>
</a>
</g>
</g>
<!-- Node5&#45;&gt;Node9 -->
<g id="edge9_Node000005_Node000009" class="edge">
<title>Node5&#45;&gt;Node9</title>
<g id="a_edge9_Node000005_Node000009"><a xlink:title=" ">
<path fill="none" stroke="#63b8ff" d="M529.58,-54.98C509.45,-46.38 478.12,-32.99 455.09,-23.15"/>
<polygon fill="#63b8ff" stroke="#63b8ff" points="456.36,-19.88 445.79,-19.17 453.6,-26.32 456.36,-19.88"/>
</a>
</g>
</g>
<!-- Node14&#45;&gt;Node5 -->
<g id="edge26_Node000014_Node000005" class="edge">
<title>Node14&#45;&gt;Node5</title>
<g id="a_edge26_Node000014_Node000005"><a xlink:title=" ">
<path fill="none" stroke="#63b8ff" d="M534.21,-175.69C530.91,-161.64 525.72,-133.39 530.5,-110 532.39,-100.74 536.29,-91.03 540.07,-83.04"/>
<polygon fill="#63b8ff" stroke="#63b8ff" points="543.24,-84.53 544.62,-74.02 536.99,-81.37 543.24,-84.53"/>
</a>
</g>
</g>
<!-- Node15 -->
<g id="Node000015" class="node">
<title>Node15</title>
<g id="a_Node000015"><a xlink:href="sitkCommon_8h.html" target="_top" xlink:title=" ">
<polygon fill="white" stroke="#666666" points="689.5,-134.5 601.5,-134.5 601.5,-115.5 689.5,-115.5 689.5,-134.5"/>
<text text-anchor="middle" x="645.5" y="-122.5" font-family="Helvetica,sans-Serif" font-size="10.00">sitkCommon.h</text>
</a>
</g>
</g>
<!-- Node14&#45;&gt;Node15 -->
<g id="edge18_Node000014_Node000015" class="edge">
<title>Node14&#45;&gt;Node15</title>
<g id="a_edge18_Node000014_Node000015"><a xlink:title=" ">
<path fill="none" stroke="#63b8ff" d="M552.58,-175.87C570.45,-166.28 599.54,-150.67 620.41,-139.47"/>
<polygon fill="#63b8ff" stroke="#63b8ff" points="622.19,-142.48 629.35,-134.67 618.88,-136.31 622.19,-142.48"/>
</a>
</g>
</g>
<!-- Node21 -->
<g id="Node000021" class="node">
<title>Node21</title>
<g id="a_Node000021"><a xlink:title=" ">
<polygon fill="#e0e0e0" stroke="#999999" points="583.5,-134.5 539.5,-134.5 539.5,-115.5 583.5,-115.5 583.5,-134.5"/>
<text text-anchor="middle" x="561.5" y="-122.5" font-family="Helvetica,sans-Serif" font-size="10.00">string</text>
</a>
</g>
</g>
<!-- Node14&#45;&gt;Node21 -->
<g id="edge27_Node000014_Node000021" class="edge">
<title>Node14&#45;&gt;Node21</title>
<g id="a_edge27_Node000014_Node000021"><a xlink:title=" ">
<path fill="none" stroke="#63b8ff" d="M540.19,-175.87C543.77,-167.49 549.32,-154.51 553.85,-143.89"/>
<polygon fill="#63b8ff" stroke="#63b8ff" points="557.08,-145.24 557.8,-134.67 550.65,-142.49 557.08,-145.24"/>
</a>
</g>
</g>
<!-- Node22 -->
<g id="Node000022" class="node">
<title>Node22</title>
<g id="a_Node000022"><a xlink:title=" ">
<polygon fill="#e0e0e0" stroke="#999999" points="765,-134.5 708,-134.5 708,-115.5 765,-115.5 765,-134.5"/>
<text text-anchor="middle" x="736.5" y="-122.5" font-family="Helvetica,sans-Serif" font-size="10.00">ostream</text>
</a>
</g>
</g>
<!-- Node14&#45;&gt;Node22 -->
<g id="edge28_Node000014_Node000022" class="edge">
<title>Node14&#45;&gt;Node22</title>
<g id="a_edge28_Node000014_Node000022"><a xlink:title=" ">
<path fill="none" stroke="#63b8ff" d="M570.88,-175.96C603.85,-167.56 654.9,-153.99 698.5,-140 700.41,-139.39 702.36,-138.74 704.33,-138.07"/>
<polygon fill="#63b8ff" stroke="#63b8ff" points="705.84,-141.24 714.1,-134.61 703.51,-134.64 705.84,-141.24"/>
</a>
</g>
</g>
<!-- Node16 -->
<g id="Node000016" class="node">
<title>Node16</title>
<g id="a_Node000016"><a xlink:href="sitkMacro_8h.html" target="_top" xlink:title=" ">
<polygon fill="white" stroke="#666666" points="726.5,-74 652.5,-74 652.5,-55 726.5,-55 726.5,-74"/>
<text text-anchor="middle" x="689.5" y="-62" font-family="Helvetica,sans-Serif" font-size="10.00">sitkMacro.h</text>
</a>
</g>
</g>
<!-- Node15&#45;&gt;Node16 -->
<g id="edge19_Node000015_Node000016" class="edge">
<title>Node15&#45;&gt;Node16</title>
<g id="a_edge19_Node000015_Node000016"><a xlink:title=" ">
<path fill="none" stroke="#63b8ff" d="M651.99,-115.37C658.49,-106.73 668.66,-93.2 676.78,-82.42"/>
<polygon fill="#63b8ff" stroke="#63b8ff" points="679.77,-84.26 682.98,-74.17 674.17,-80.06 679.77,-84.26"/>
</a>
</g>
</g>
<!-- Node16&#45;&gt;Node4 -->
<g id="edge25_Node000016_Node000004" class="edge">
<title>Node16&#45;&gt;Node4</title>
<g id="a_edge25_Node000016_Node000004"><a xlink:title=" ">
<path fill="none" stroke="#63b8ff" d="M652.16,-58.14C596.8,-50.17 489.38,-34.6 387.71,-19.17"/>
<polygon fill="#63b8ff" stroke="#63b8ff" points="387.99,-15.67 377.58,-17.63 386.94,-22.59 387.99,-15.67"/>
</a>
</g>
</g>
<!-- Node16&#45;&gt;Node6 -->
<g id="edge20_Node000016_Node000006" class="edge">
<title>Node16&#45;&gt;Node6</title>
<g id="a_edge20_Node000016_Node000006"><a xlink:title=" ">
<path fill="none" stroke="#63b8ff" d="M678.74,-54.98C668.73,-47.07 653.61,-35.11 641.57,-25.58"/>
<polygon fill="#63b8ff" stroke="#63b8ff" points="643.47,-22.63 633.46,-19.17 639.13,-28.12 643.47,-22.63"/>
</a>
</g>
</g>
<!-- Node17 -->
<g id="Node000017" class="node">
<title>Node17</title>
<g id="a_Node000017"><a xlink:title=" ">
<polygon fill="#e0e0e0" stroke="#999999" points="785.5,-19 729.5,-19 729.5,0 785.5,0 785.5,-19"/>
<text text-anchor="middle" x="757.5" y="-7" font-family="Helvetica,sans-Serif" font-size="10.00">stddef.h</text>
</a>
</g>
</g>
<!-- Node16&#45;&gt;Node17 -->
<g id="edge21_Node000016_Node000017" class="edge">
<title>Node16&#45;&gt;Node17</title>
<g id="a_edge21_Node000016_Node000017"><a xlink:title=" ">
<path fill="none" stroke="#63b8ff" d="M700.43,-54.98C710.58,-47.07 725.92,-35.11 738.15,-25.58"/>
<polygon fill="#63b8ff" stroke="#63b8ff" points="740.64,-28.08 746.38,-19.17 736.34,-22.56 740.64,-28.08"/>
</a>
</g>
</g>
<!-- Node18 -->
<g id="Node000018" class="node">
<title>Node18</title>
<g id="a_Node000018"><a xlink:title=" ">
<polygon fill="#e0e0e0" stroke="#999999" points="855.5,-19 803.5,-19 803.5,0 855.5,0 855.5,-19"/>
<text text-anchor="middle" x="829.5" y="-7" font-family="Helvetica,sans-Serif" font-size="10.00">cassert</text>
</a>
</g>
</g>
<!-- Node16&#45;&gt;Node18 -->
<g id="edge22_Node000016_Node000018" class="edge">
<title>Node16&#45;&gt;Node18</title>
<g id="a_edge22_Node000016_Node000018"><a xlink:title=" ">
<path fill="none" stroke="#63b8ff" d="M711.99,-54.98C735.02,-46.27 771.04,-32.63 797.13,-22.75"/>
<polygon fill="#63b8ff" stroke="#63b8ff" points="798.48,-25.98 806.6,-19.17 796.01,-19.44 798.48,-25.98"/>
</a>
</g>
</g>
<!-- Node19 -->
<g id="Node000019" class="node">
<title>Node19</title>
<g id="a_Node000019"><a xlink:title=" ">
<polygon fill="#e0e0e0" stroke="#999999" points="929.5,-19 873.5,-19 873.5,0 929.5,0 929.5,-19"/>
<text text-anchor="middle" x="901.5" y="-7" font-family="Helvetica,sans-Serif" font-size="10.00">sstream</text>
</a>
</g>
</g>
<!-- Node16&#45;&gt;Node19 -->
<g id="edge23_Node000016_Node000019" class="edge">
<title>Node16&#45;&gt;Node19</title>
<g id="a_edge23_Node000016_Node000019"><a xlink:title=" ">
<path fill="none" stroke="#63b8ff" d="M723.56,-54.98C761.79,-45.43 823.64,-29.97 863.43,-20.02"/>
<polygon fill="#63b8ff" stroke="#63b8ff" points="864.44,-23.37 873.29,-17.55 862.74,-16.58 864.44,-23.37"/>
</a>
</g>
</g>
<!-- Node20 -->
<g id="Node000020" class="node">
<title>Node20</title>
<g id="a_Node000020"><a xlink:title=" ">
<polygon fill="#e0e0e0" stroke="#999999" points="711.5,-19 667.5,-19 667.5,0 711.5,0 711.5,-19"/>
<text text-anchor="middle" x="689.5" y="-7" font-family="Helvetica,sans-Serif" font-size="10.00">limits</text>
</a>
</g>
</g>
<!-- Node16&#45;&gt;Node20 -->
<g id="edge24_Node000016_Node000020" class="edge">
<title>Node16&#45;&gt;Node20</title>
<g id="a_edge24_Node000016_Node000020"><a xlink:title=" ">
<path fill="none" stroke="#63b8ff" d="M689.5,-54.75C689.5,-47.8 689.5,-37.85 689.5,-29.13"/>
<polygon fill="#63b8ff" stroke="#63b8ff" points="693,-29.09 689.5,-19.09 686,-29.09 693,-29.09"/>
</a>
</g>
</g>
</g>
</svg>
