<?xml version="1.0" encoding="UTF-8" standalone="no"?>
<!DOCTYPE svg PUBLIC "-//W3C//DTD SVG 1.1//EN"
 "http://www.w3.org/Graphics/SVG/1.1/DTD/svg11.dtd">
<!-- Generated by graphviz version 2.40.1 (20161225.0304)
 -->
<!-- Title: sitkExplicitITKDefaultVectorPixelAccessor.h Pages: 1 -->
<!--zoomable 397 -->
<svg id="main" version="1.1" xmlns="http://www.w3.org/2000/svg" xmlns:xlink="http://www.w3.org/1999/xlink" xml:space="preserve" onload="init(evt)">
<style type="text/css"><![CDATA[
.edge:hover path { stroke: red; }
.edge:hover polygon { stroke: red; fill: red; }
]]></style>
<script type="text/javascript"><![CDATA[
var edges = document.getElementsByTagName('g');
if (edges && edges.length) {
  for (var i=0;i<edges.length;i++) {
    if (edges[i].id.substr(0,4)=='edge') {
      edges[i].setAttribute('class','edge');
    }
  }
}
]]></script>
        <defs>
                <circle id="rim" cx="0" cy="0" r="7"/>
                <circle id="rim2" cx="0" cy="0" r="3.5"/>
                <g id="zoomPlus">
                        <use xlink:href="#rim" fill="#404040">
                                <set attributeName="fill" to="#808080" begin="zoomplus.mouseover" end="zoomplus.mouseout"/>
                        </use>
                        <path d="M-4,0h8M0,-4v8" fill="none" stroke="white" stroke-width="1.5" pointer-events="none"/>
                </g>
                <g id="zoomMin">
                        <use xlink:href="#rim" fill="#404040">
                                <set attributeName="fill" to="#808080" begin="zoomminus.mouseover" end="zoomminus.mouseout"/>
                        </use>
                        <path d="M-4,0h8" fill="none" stroke="white" stroke-width="1.5" pointer-events="none"/>
                </g>
                <g id="dirArrow">
                        <path fill="none" stroke="white" stroke-width="1.5" d="M0,-3.0v7 M-2.5,-0.5L0,-3.0L2.5,-0.5"/>
                </g>
               <g id="resetDef">
                       <use xlink:href="#rim2" fill="#404040">
                               <set attributeName="fill" to="#808080" begin="reset.mouseover" end="reset.mouseout"/>
                       </use>
               </g>
        </defs>

<script type="text/javascript">
var viewWidth = 1261;
var viewHeight = 397;
var sectionId = 'dynsection-0';
</script>
<script xlink:href="svgpan.js"/>
<svg id="graph" class="graph">
<g id="viewport">
<title>sitkExplicitITKDefaultVectorPixelAccessor.h</title>
<polygon fill="#ffffff" stroke="transparent" points="-4,4 -4,-393 1257,-393 1257,4 -4,4"/>
<!-- Node1 -->
<g id="node1" class="node">
<title>Node1</title>
<g id="a_node1"><a xlink:title=" ">
<polygon fill="#bfbfbf" stroke="#000000" points="714.5,-358.5 714.5,-388.5 867.5,-388.5 867.5,-358.5 714.5,-358.5"/>
<text text-anchor="start" x="722.5" y="-376.5" font-family="Helvetica,sans-Serif" font-size="10.00" fill="#000000">sitkExplicitITKDefaultVector</text>
<text text-anchor="middle" x="791" y="-365.5" font-family="Helvetica,sans-Serif" font-size="10.00" fill="#000000">PixelAccessor.h</text>
</a>
</g>
</g>
<!-- Node2 -->
<g id="node2" class="node">
<title>Node2</title>
<g id="a_node2"><a xlink:href="sitkExplicit_8h.html" target="_top" xlink:title=" ">
<polygon fill="#ffffff" stroke="#000000" points="679,-302.5 679,-321.5 759,-321.5 759,-302.5 679,-302.5"/>
<text text-anchor="middle" x="719" y="-309.5" font-family="Helvetica,sans-Serif" font-size="10.00" fill="#000000">sitkExplicit.h</text>
</a>
</g>
</g>
<!-- Node1&#45;&gt;Node2 -->
<g id="edge1" class="edge">
<title>Node1&#45;&gt;Node2</title>
<path fill="none" stroke="#191970" d="M773.2022,-358.2977C762.5833,-349.2274 749.0969,-337.7077 738.2333,-328.4285"/>
<polygon fill="#191970" stroke="#191970" points="740.4051,-325.6805 730.5281,-321.8469 735.8587,-331.0031 740.4051,-325.6805"/>
</g>
<!-- Node10 -->
<g id="node10" class="node">
<title>Node10</title>
<g id="a_node10"><a xlink:href="https://www.itk.org/Doxygen/html/itkDefaultVectorPixelAccessor_8h.html" xlink:title=" ">
<polygon fill="#ffffff" stroke="#000000" points="935,-302.5 935,-321.5 1107,-321.5 1107,-302.5 935,-302.5"/>
<text text-anchor="middle" x="1021" y="-309.5" font-family="Helvetica,sans-Serif" font-size="10.00" fill="#000000">itkDefaultVectorPixelAccessor.h</text>
</a>
</g>
</g>
<!-- Node1&#45;&gt;Node10 -->
<g id="edge9" class="edge">
<title>Node1&#45;&gt;Node10</title>
<path fill="none" stroke="#191970" d="M847.2643,-358.4554C886.6503,-347.9239 938.601,-334.0328 975.4029,-324.1923"/>
<polygon fill="#191970" stroke="#191970" points="976.6017,-327.4948 985.3582,-321.5303 974.7934,-320.7323 976.6017,-327.4948"/>
</g>
<!-- Node3 -->
<g id="node3" class="node">
<title>Node3</title>
<g id="a_node3"><a xlink:href="sitkMacro_8h.html" target="_top" xlink:title=" ">
<polygon fill="#ffffff" stroke="#000000" points="233.5,-246.5 233.5,-265.5 306.5,-265.5 306.5,-246.5 233.5,-246.5"/>
<text text-anchor="middle" x="270" y="-253.5" font-family="Helvetica,sans-Serif" font-size="10.00" fill="#000000">sitkMacro.h</text>
</a>
</g>
</g>
<!-- Node2&#45;&gt;Node3 -->
<g id="edge2" class="edge">
<title>Node2&#45;&gt;Node3</title>
<path fill="none" stroke="#191970" d="M678.7591,-306.9811C595.5246,-296.5999 404.8573,-272.8196 316.5126,-261.8011"/>
<polygon fill="#191970" stroke="#191970" points="316.8694,-258.3186 306.5131,-260.554 316.003,-265.2648 316.8694,-258.3186"/>
</g>
<!-- Node4 -->
<g id="node4" class="node">
<title>Node4</title>
<g id="a_node4"><a xlink:title=" ">
<polygon fill="#ffffff" stroke="#bfbfbf" points="170.5,-185 170.5,-204 223.5,-204 223.5,-185 170.5,-185"/>
<text text-anchor="middle" x="197" y="-192" font-family="Helvetica,sans-Serif" font-size="10.00" fill="#000000">stdint.h</text>
</a>
</g>
</g>
<!-- Node3&#45;&gt;Node4 -->
<g id="edge3" class="edge">
<title>Node3&#45;&gt;Node4</title>
<path fill="none" stroke="#191970" d="M258.5938,-246.3906C247.3031,-236.8786 229.8033,-222.1357 216.3381,-210.7917"/>
<polygon fill="#191970" stroke="#191970" points="218.4699,-208.0111 208.5671,-204.2449 213.9598,-213.3646 218.4699,-208.0111"/>
</g>
<!-- Node5 -->
<g id="node5" class="node">
<title>Node5</title>
<g id="a_node5"><a xlink:title=" ">
<polygon fill="#ffffff" stroke="#bfbfbf" points="242,-185 242,-204 298,-204 298,-185 242,-185"/>
<text text-anchor="middle" x="270" y="-192" font-family="Helvetica,sans-Serif" font-size="10.00" fill="#000000">stddef.h</text>
</a>
</g>
</g>
<!-- Node3&#45;&gt;Node5 -->
<g id="edge4" class="edge">
<title>Node3&#45;&gt;Node5</title>
<path fill="none" stroke="#191970" d="M270,-246.3906C270,-237.8657 270,-225.1392 270,-214.4235"/>
<polygon fill="#191970" stroke="#191970" points="273.5001,-214.2448 270,-204.2449 266.5001,-214.2449 273.5001,-214.2448"/>
</g>
<!-- Node6 -->
<g id="node6" class="node">
<title>Node6</title>
<g id="a_node6"><a xlink:title=" ">
<polygon fill="#ffffff" stroke="#bfbfbf" points="316,-185 316,-204 368,-204 368,-185 316,-185"/>
<text text-anchor="middle" x="342" y="-192" font-family="Helvetica,sans-Serif" font-size="10.00" fill="#000000">cassert</text>
</a>
</g>
</g>
<!-- Node3&#45;&gt;Node6 -->
<g id="edge5" class="edge">
<title>Node3&#45;&gt;Node6</title>
<path fill="none" stroke="#191970" d="M281.25,-246.3906C292.386,-236.8786 309.646,-222.1357 322.9268,-210.7917"/>
<polygon fill="#191970" stroke="#191970" points="325.2608,-213.4011 330.5914,-204.2449 320.7144,-208.0784 325.2608,-213.4011"/>
</g>
<!-- Node7 -->
<g id="node7" class="node">
<title>Node7</title>
<g id="a_node7"><a xlink:title=" ">
<polygon fill="#ffffff" stroke="#bfbfbf" points="386,-185 386,-204 442,-204 442,-185 386,-185"/>
<text text-anchor="middle" x="414" y="-192" font-family="Helvetica,sans-Serif" font-size="10.00" fill="#000000">sstream</text>
</a>
</g>
</g>
<!-- Node3&#45;&gt;Node7 -->
<g id="edge6" class="edge">
<title>Node3&#45;&gt;Node7</title>
<path fill="none" stroke="#191970" d="M292.5,-246.3906C316.5938,-236.1005 355.0213,-219.6888 382.2008,-208.0809"/>
<polygon fill="#191970" stroke="#191970" points="383.8363,-211.1883 391.658,-204.0419 381.0869,-204.7508 383.8363,-211.1883"/>
</g>
<!-- Node8 -->
<g id="node8" class="node">
<title>Node8</title>
<g id="a_node8"><a xlink:title=" ">
<polygon fill="#ffffff" stroke="#bfbfbf" points="0,-185 0,-204 44,-204 44,-185 0,-185"/>
<text text-anchor="middle" x="22" y="-192" font-family="Helvetica,sans-Serif" font-size="10.00" fill="#000000">limits</text>
</a>
</g>
</g>
<!-- Node3&#45;&gt;Node8 -->
<g id="edge7" class="edge">
<title>Node3&#45;&gt;Node8</title>
<path fill="none" stroke="#191970" d="M233.1351,-251.1136C189.3286,-244.6436 114.438,-231.4753 53,-210 51.58,-209.5036 50.1416,-208.9564 48.7021,-208.3729"/>
<polygon fill="#191970" stroke="#191970" points="49.9205,-205.0828 39.3666,-204.1528 47.037,-211.4613 49.9205,-205.0828"/>
</g>
<!-- Node9 -->
<g id="node9" class="node">
<title>Node9</title>
<g id="a_node9"><a xlink:href="sitkConfigure_8h.html" target="_top" xlink:title=" ">
<polygon fill="#ffffff" stroke="#000000" points="62,-185 62,-204 152,-204 152,-185 62,-185"/>
<text text-anchor="middle" x="107" y="-192" font-family="Helvetica,sans-Serif" font-size="10.00" fill="#000000">sitkConfigure.h</text>
</a>
</g>
</g>
<!-- Node3&#45;&gt;Node9 -->
<g id="edge8" class="edge">
<title>Node3&#45;&gt;Node9</title>
<path fill="none" stroke="#191970" d="M244.5313,-246.3906C216.8995,-235.9652 172.6131,-219.2559 141.7872,-207.6252"/>
<polygon fill="#191970" stroke="#191970" points="142.8817,-204.2974 132.2899,-204.0419 140.4106,-210.8467 142.8817,-204.2974"/>
</g>
<!-- Node11 -->
<g id="node11" class="node">
<title>Node11</title>
<g id="a_node11"><a xlink:href="https://www.itk.org/Doxygen/html/itkMacro_8h.html" xlink:title=" ">
<polygon fill="#ffffff" stroke="#000000" points="941,-6 941,-25 1009,-25 1009,-6 941,-6"/>
<text text-anchor="middle" x="975" y="-13" font-family="Helvetica,sans-Serif" font-size="10.00" fill="#000000">itkMacro.h</text>
</a>
</g>
</g>
<!-- Node10&#45;&gt;Node11 -->
<g id="edge10" class="edge">
<title>Node10&#45;&gt;Node11</title>
<path fill="none" stroke="#191970" d="M1107.0585,-303.1411C1173.0834,-291.0195 1253,-262.3364 1253,-194.5 1253,-194.5 1253,-194.5 1253,-133 1253,-82.8536 1097.5907,-42.0086 1019.1651,-24.5892"/>
<polygon fill="#191970" stroke="#191970" points="1019.6051,-21.1028 1009.0883,-22.3858 1018.1098,-27.9412 1019.6051,-21.1028"/>
</g>
<!-- Node12 -->
<g id="node12" class="node">
<title>Node12</title>
<g id="a_node12"><a xlink:href="https://www.itk.org/Doxygen/html/itkVariableLengthVector_8h.html" xlink:title=" ">
<polygon fill="#ffffff" stroke="#000000" points="708.5,-246.5 708.5,-265.5 849.5,-265.5 849.5,-246.5 708.5,-246.5"/>
<text text-anchor="middle" x="779" y="-253.5" font-family="Helvetica,sans-Serif" font-size="10.00" fill="#000000">itkVariableLengthVector.h</text>
</a>
</g>
</g>
<!-- Node10&#45;&gt;Node12 -->
<g id="edge11" class="edge">
<title>Node10&#45;&gt;Node12</title>
<path fill="none" stroke="#191970" d="M979.6737,-302.4369C938.2573,-292.8529 874.4223,-278.0812 829.9065,-267.78"/>
<polygon fill="#191970" stroke="#191970" points="830.6875,-264.3683 820.1559,-265.5237 829.1093,-271.1881 830.6875,-264.3683"/>
</g>
<!-- Node23 -->
<g id="node23" class="node">
<title>Node23</title>
<g id="a_node23"><a xlink:href="https://www.itk.org/Doxygen/html/itkIntTypes_8h.html" xlink:title=" ">
<polygon fill="#ffffff" stroke="#000000" points="1104.5,-123.5 1104.5,-142.5 1183.5,-142.5 1183.5,-123.5 1104.5,-123.5"/>
<text text-anchor="middle" x="1144" y="-130.5" font-family="Helvetica,sans-Serif" font-size="10.00" fill="#000000">itkIntTypes.h</text>
</a>
</g>
</g>
<!-- Node10&#45;&gt;Node23 -->
<g id="edge38" class="edge">
<title>Node10&#45;&gt;Node23</title>
<path fill="none" stroke="#191970" d="M1058.0109,-302.4037C1100.0037,-289.3106 1166.4784,-261.377 1196,-210 1202.8643,-198.0539 1201.6592,-191.5619 1196,-179 1190.4303,-166.6369 1179.7137,-156.2563 1169.4494,-148.5033"/>
<polygon fill="#191970" stroke="#191970" points="1171.2549,-145.4948 1161.0567,-142.623 1167.2382,-151.2277 1171.2549,-145.4948"/>
</g>
<!-- Node13 -->
<g id="node13" class="node">
<title>Node13</title>
<g id="a_node13"><a xlink:href="https://www.itk.org/Doxygen/html/itkNumericTraits_8h.html" xlink:title=" ">
<polygon fill="#ffffff" stroke="#000000" points="533,-123.5 533,-142.5 639,-142.5 639,-123.5 533,-123.5"/>
<text text-anchor="middle" x="586" y="-130.5" font-family="Helvetica,sans-Serif" font-size="10.00" fill="#000000">itkNumericTraits.h</text>
</a>
</g>
</g>
<!-- Node12&#45;&gt;Node13 -->
<g id="edge12" class="edge">
<title>Node12&#45;&gt;Node13</title>
<path fill="none" stroke="#191970" d="M734.7271,-246.4886C708.4594,-239.3804 675.4341,-227.7739 650,-210 627.5187,-194.2895 608.4379,-168.6951 597.1058,-151.3682"/>
<polygon fill="#191970" stroke="#191970" points="599.9348,-149.2931 591.635,-142.708 594.0167,-153.0317 599.9348,-149.2931"/>
</g>
<!-- Node16 -->
<g id="node16" class="node">
<title>Node16</title>
<g id="a_node16"><a xlink:href="https://www.itk.org/Doxygen/html/itkMetaProgrammingLibrary_8h.html" xlink:title=" ">
<polygon fill="#ffffff" stroke="#000000" points="788.5,-67.5 788.5,-86.5 949.5,-86.5 949.5,-67.5 788.5,-67.5"/>
<text text-anchor="middle" x="869" y="-74.5" font-family="Helvetica,sans-Serif" font-size="10.00" fill="#000000">itkMetaProgrammingLibrary.h</text>
</a>
</g>
</g>
<!-- Node12&#45;&gt;Node16 -->
<g id="edge19" class="edge">
<title>Node12&#45;&gt;Node16</title>
<path fill="none" stroke="#191970" d="M735.5168,-246.3976C715.9249,-239.6689 694.6205,-228.4539 683,-210 675.6584,-198.3412 679.3748,-192.2923 683,-179 690.6012,-151.129 693.27,-140.8301 716,-123 737.0966,-106.4512 764.0767,-95.8413 789.4889,-89.0448"/>
<polygon fill="#191970" stroke="#191970" points="790.6587,-92.3599 799.5085,-86.5348 788.9577,-85.5698 790.6587,-92.3599"/>
</g>
<!-- Node18 -->
<g id="node18" class="node">
<title>Node18</title>
<g id="a_node18"><a xlink:href="https://www.itk.org/Doxygen/html/itkEnableIf_8h.html" xlink:title=" ">
<polygon fill="#ffffff" stroke="#000000" points="692.5,-185 692.5,-204 769.5,-204 769.5,-185 692.5,-185"/>
<text text-anchor="middle" x="731" y="-192" font-family="Helvetica,sans-Serif" font-size="10.00" fill="#000000">itkEnableIf.h</text>
</a>
</g>
</g>
<!-- Node12&#45;&gt;Node18 -->
<g id="edge22" class="edge">
<title>Node12&#45;&gt;Node18</title>
<path fill="none" stroke="#191970" d="M771.5,-246.3906C764.4262,-237.3273 753.6458,-223.5149 744.9854,-212.4188"/>
<polygon fill="#191970" stroke="#191970" points="747.5176,-209.9746 738.6057,-204.2449 741.9994,-214.2815 747.5176,-209.9746"/>
</g>
<!-- Node19 -->
<g id="node19" class="node">
<title>Node19</title>
<g id="a_node19"><a xlink:href="https://www.itk.org/Doxygen/html/itkIsBaseOf_8h.html" xlink:title=" ">
<polygon fill="#ffffff" stroke="#000000" points="787.5,-185 787.5,-204 868.5,-204 868.5,-185 787.5,-185"/>
<text text-anchor="middle" x="828" y="-192" font-family="Helvetica,sans-Serif" font-size="10.00" fill="#000000">itkIsBaseOf.h</text>
</a>
</g>
</g>
<!-- Node12&#45;&gt;Node19 -->
<g id="edge23" class="edge">
<title>Node12&#45;&gt;Node19</title>
<path fill="none" stroke="#191970" d="M786.6563,-246.3906C793.9489,-237.2376 805.1007,-223.2409 813.9852,-212.09"/>
<polygon fill="#191970" stroke="#191970" points="816.7417,-214.247 820.2358,-204.2449 811.267,-209.8849 816.7417,-214.247"/>
</g>
<!-- Node22 -->
<g id="node22" class="node">
<title>Node22</title>
<g id="a_node22"><a xlink:href="https://www.itk.org/Doxygen/html/itkIsNumber_8h.html" xlink:title=" ">
<polygon fill="#ffffff" stroke="#000000" points="1101.5,-185 1101.5,-204 1186.5,-204 1186.5,-185 1101.5,-185"/>
<text text-anchor="middle" x="1144" y="-192" font-family="Helvetica,sans-Serif" font-size="10.00" fill="#000000">itkIsNumber.h</text>
</a>
</g>
</g>
<!-- Node12&#45;&gt;Node22 -->
<g id="edge28" class="edge">
<title>Node12&#45;&gt;Node22</title>
<path fill="none" stroke="#191970" d="M849.763,-248.5439C913.5492,-241.1271 1009.6836,-228.218 1092,-210 1096.1907,-209.0725 1100.5369,-207.9842 1104.8504,-206.8217"/>
<polygon fill="#191970" stroke="#191970" points="1106.0986,-210.106 1114.7677,-204.0152 1104.1925,-203.3705 1106.0986,-210.106"/>
</g>
<!-- Node24 -->
<g id="node24" class="node">
<title>Node24</title>
<g id="a_node24"><a xlink:href="https://www.itk.org/Doxygen/html/itkPromoteType_8h.html" xlink:title=" ">
<polygon fill="#ffffff" stroke="#000000" points="939,-123.5 939,-142.5 1041,-142.5 1041,-123.5 939,-123.5"/>
<text text-anchor="middle" x="990" y="-130.5" font-family="Helvetica,sans-Serif" font-size="10.00" fill="#000000">itkPromoteType.h</text>
</a>
</g>
</g>
<!-- Node12&#45;&gt;Node24 -->
<g id="edge32" class="edge">
<title>Node12&#45;&gt;Node24</title>
<path fill="none" stroke="#191970" d="M803.8855,-246.4662C824.4579,-238.1147 854.0689,-224.9913 878,-210 896.471,-198.4291 898.2637,-191.6683 916,-179 931.5505,-167.893 949.7735,-156.5463 964.2446,-147.9013"/>
<polygon fill="#191970" stroke="#191970" points="966.3186,-150.7412 973.1467,-142.64 962.757,-144.7149 966.3186,-150.7412"/>
</g>
<!-- Node25 -->
<g id="node25" class="node">
<title>Node25</title>
<g id="a_node25"><a xlink:href="https://www.itk.org/Doxygen/html/itkBinaryOperationConcept_8h.html" xlink:title=" ">
<polygon fill="#ffffff" stroke="#000000" points="925,-185 925,-204 1083,-204 1083,-185 925,-185"/>
<text text-anchor="middle" x="1004" y="-192" font-family="Helvetica,sans-Serif" font-size="10.00" fill="#000000">itkBinaryOperationConcept.h</text>
</a>
</g>
</g>
<!-- Node12&#45;&gt;Node25 -->
<g id="edge34" class="edge">
<title>Node12&#45;&gt;Node25</title>
<path fill="none" stroke="#191970" d="M814.1563,-246.3906C853.2889,-235.6944 916.621,-218.3836 959.2582,-206.7294"/>
<polygon fill="#191970" stroke="#191970" points="960.3673,-210.0547 969.0906,-204.0419 958.5216,-203.3024 960.3673,-210.0547"/>
</g>
<!-- Node26 -->
<g id="node26" class="node">
<title>Node26</title>
<g id="a_node26"><a xlink:href="https://www.itk.org/Doxygen/html/itkNumericTraitsVariableLengthVectorPixel_8h.html" xlink:title=" ">
<polygon fill="#ffffff" stroke="#000000" points="460.5,-179.5 460.5,-209.5 597.5,-209.5 597.5,-179.5 460.5,-179.5"/>
<text text-anchor="start" x="468.5" y="-197.5" font-family="Helvetica,sans-Serif" font-size="10.00" fill="#000000">itkNumericTraitsVariable</text>
<text text-anchor="middle" x="529" y="-186.5" font-family="Helvetica,sans-Serif" font-size="10.00" fill="#000000">LengthVectorPixel.h</text>
</a>
</g>
</g>
<!-- Node12&#45;&gt;Node26 -->
<g id="edge36" class="edge">
<title>Node12&#45;&gt;Node26</title>
<path fill="none" stroke="#191970" d="M735.1625,-246.4581C696.132,-237.2991 638.6329,-223.2458 594.2296,-212.0631"/>
<polygon fill="#191970" stroke="#191970" points="594.946,-208.6341 584.3933,-209.5784 593.2316,-215.421 594.946,-208.6341"/>
</g>
<!-- Node13&#45;&gt;Node11 -->
<g id="edge13" class="edge">
<title>Node13&#45;&gt;Node11</title>
<path fill="none" stroke="#191970" d="M611.3563,-123.4751C648.0212,-109.8982 718.1255,-84.6712 779,-67 844.8417,-47.8869 863.1155,-49.9651 929,-31 931.9812,-30.1418 935.0563,-29.21 938.1365,-28.2433"/>
<polygon fill="#191970" stroke="#191970" points="939.4496,-31.4971 947.884,-25.0852 937.292,-24.8379 939.4496,-31.4971"/>
</g>
<!-- Node14 -->
<g id="node14" class="node">
<title>Node14</title>
<g id="a_node14"><a xlink:href="https://www.itk.org/Doxygen/html/itkFixedArray_8h.html" xlink:title=" ">
<polygon fill="#ffffff" stroke="#000000" points="614.5,-67.5 614.5,-86.5 703.5,-86.5 703.5,-67.5 614.5,-67.5"/>
<text text-anchor="middle" x="659" y="-74.5" font-family="Helvetica,sans-Serif" font-size="10.00" fill="#000000">itkFixedArray.h</text>
</a>
</g>
</g>
<!-- Node13&#45;&gt;Node14 -->
<g id="edge14" class="edge">
<title>Node13&#45;&gt;Node14</title>
<path fill="none" stroke="#191970" d="M598.7156,-123.2455C609.602,-114.8943 625.4883,-102.7076 638.22,-92.9408"/>
<polygon fill="#191970" stroke="#191970" points="640.6261,-95.5063 646.4301,-86.6427 636.3654,-89.9523 640.6261,-95.5063"/>
</g>
<!-- Node14&#45;&gt;Node11 -->
<g id="edge15" class="edge">
<title>Node14&#45;&gt;Node11</title>
<path fill="none" stroke="#191970" d="M703.6588,-70.2595C768.9278,-60.2601 887.1564,-41.5454 929,-31 932.3709,-30.1505 935.8497,-29.1723 939.3143,-28.129"/>
<polygon fill="#191970" stroke="#191970" points="940.4694,-31.4344 948.9388,-25.0688 938.3484,-24.7635 940.4694,-31.4344"/>
</g>
<!-- Node15 -->
<g id="node15" class="node">
<title>Node15</title>
<g id="a_node15"><a xlink:href="https://www.itk.org/Doxygen/html/itkNumericTraitsFixedArrayPixel_8h.html" xlink:title=" ">
<polygon fill="#ffffff" stroke="#000000" points="584.5,-.5 584.5,-30.5 733.5,-30.5 733.5,-.5 584.5,-.5"/>
<text text-anchor="start" x="592.5" y="-18.5" font-family="Helvetica,sans-Serif" font-size="10.00" fill="#000000">itkNumericTraitsFixedArray</text>
<text text-anchor="middle" x="659" y="-7.5" font-family="Helvetica,sans-Serif" font-size="10.00" fill="#000000">Pixel.h</text>
</a>
</g>
</g>
<!-- Node14&#45;&gt;Node15 -->
<g id="edge16" class="edge">
<title>Node14&#45;&gt;Node15</title>
<path fill="none" stroke="#191970" d="M653.9375,-67.3906C652.539,-60.2234 652.0098,-50.0862 652.3497,-40.671"/>
<polygon fill="#191970" stroke="#191970" points="655.8515,-40.7767 653.1029,-30.5446 648.8707,-40.2574 655.8515,-40.7767"/>
</g>
<!-- Node15&#45;&gt;Node13 -->
<g id="edge17" class="edge">
<title>Node15&#45;&gt;Node13</title>
<path fill="none" stroke="#191970" d="M638.4442,-30.613C627.0923,-39.9423 613.5923,-52.8173 605,-67 596.4082,-81.1818 591.5443,-99.4314 588.8934,-113.1447"/>
<polygon fill="#191970" stroke="#191970" points="585.3742,-112.9638 587.1539,-123.4081 592.2758,-114.1335 585.3742,-112.9638"/>
</g>
<!-- Node15&#45;&gt;Node14 -->
<g id="edge18" class="edge">
<title>Node15&#45;&gt;Node14</title>
<path fill="none" stroke="#191970" d="M664.8971,-30.5446C665.8593,-38.6241 666.0074,-48.681 665.3414,-57.3693"/>
<polygon fill="#191970" stroke="#191970" points="661.8567,-57.028 664.0625,-67.3906 668.8003,-57.9142 661.8567,-57.028"/>
</g>
<!-- Node16&#45;&gt;Node11 -->
<g id="edge20" class="edge">
<title>Node16&#45;&gt;Node11</title>
<path fill="none" stroke="#191970" d="M885.5625,-67.3906C902.7537,-57.4165 929.8582,-41.6908 949.7266,-30.1633"/>
<polygon fill="#191970" stroke="#191970" points="951.6606,-33.0877 958.5538,-25.0419 948.1477,-27.033 951.6606,-33.0877"/>
</g>
<!-- Node17 -->
<g id="node17" class="node">
<title>Node17</title>
<g id="a_node17"><a xlink:href="https://www.itk.org/Doxygen/html/itkSmartPointer_8h.html" xlink:title=" ">
<polygon fill="#ffffff" stroke="#000000" points="818.5,-6 818.5,-25 919.5,-25 919.5,-6 818.5,-6"/>
<text text-anchor="middle" x="869" y="-13" font-family="Helvetica,sans-Serif" font-size="10.00" fill="#000000">itkSmartPointer.h</text>
</a>
</g>
</g>
<!-- Node16&#45;&gt;Node17 -->
<g id="edge21" class="edge">
<title>Node16&#45;&gt;Node17</title>
<path fill="none" stroke="#191970" d="M869,-67.3906C869,-58.8657 869,-46.1392 869,-35.4235"/>
<polygon fill="#191970" stroke="#191970" points="872.5001,-35.2448 869,-25.2449 865.5001,-35.2449 872.5001,-35.2448"/>
</g>
<!-- Node20 -->
<g id="node20" class="node">
<title>Node20</title>
<g id="a_node20"><a xlink:href="https://www.itk.org/Doxygen/html/itkIsConvertible_8h.html" xlink:title=" ">
<polygon fill="#ffffff" stroke="#000000" points="817.5,-123.5 817.5,-142.5 920.5,-142.5 920.5,-123.5 817.5,-123.5"/>
<text text-anchor="middle" x="869" y="-130.5" font-family="Helvetica,sans-Serif" font-size="10.00" fill="#000000">itkIsConvertible.h</text>
</a>
</g>
</g>
<!-- Node19&#45;&gt;Node20 -->
<g id="edge24" class="edge">
<title>Node19&#45;&gt;Node20</title>
<path fill="none" stroke="#191970" d="M834.4063,-184.8906C840.3886,-175.917 849.4747,-162.2879 856.8339,-151.2491"/>
<polygon fill="#191970" stroke="#191970" points="859.8686,-153.0068 862.5034,-142.7449 854.0442,-149.1239 859.8686,-153.0068"/>
</g>
<!-- Node21 -->
<g id="node21" class="node">
<title>Node21</title>
<g id="a_node21"><a xlink:href="https://www.itk.org/Doxygen/html/itkIsSame_8h.html" xlink:title=" ">
<polygon fill="#ffffff" stroke="#000000" points="725,-123.5 725,-142.5 799,-142.5 799,-123.5 725,-123.5"/>
<text text-anchor="middle" x="762" y="-130.5" font-family="Helvetica,sans-Serif" font-size="10.00" fill="#000000">itkIsSame.h</text>
</a>
</g>
</g>
<!-- Node19&#45;&gt;Node21 -->
<g id="edge26" class="edge">
<title>Node19&#45;&gt;Node21</title>
<path fill="none" stroke="#191970" d="M817.6875,-184.8906C807.5758,-175.4683 791.9558,-160.9134 779.8293,-149.6137"/>
<polygon fill="#191970" stroke="#191970" points="782.1601,-147.0015 772.4579,-142.7449 777.388,-152.1228 782.1601,-147.0015"/>
</g>
<!-- Node20&#45;&gt;Node16 -->
<g id="edge25" class="edge">
<title>Node20&#45;&gt;Node16</title>
<path fill="none" stroke="#191970" d="M869,-123.2455C869,-115.9382 869,-105.6944 869,-96.7046"/>
<polygon fill="#191970" stroke="#191970" points="872.5001,-96.6426 869,-86.6427 865.5001,-96.6427 872.5001,-96.6426"/>
</g>
<!-- Node21&#45;&gt;Node16 -->
<g id="edge27" class="edge">
<title>Node21&#45;&gt;Node16</title>
<path fill="none" stroke="#191970" d="M780.638,-123.2455C797.4386,-114.4527 822.3634,-101.4079 841.4618,-91.4125"/>
<polygon fill="#191970" stroke="#191970" points="843.3386,-94.3807 850.5756,-86.6427 840.0927,-88.1787 843.3386,-94.3807"/>
</g>
<!-- Node22&#45;&gt;Node16 -->
<g id="edge29" class="edge">
<title>Node22&#45;&gt;Node16</title>
<path fill="none" stroke="#191970" d="M1134.2027,-184.8554C1118.0396,-169.4835 1084.163,-139.4847 1050,-123 1016.114,-106.649 975.7569,-95.6696 941.7585,-88.5519"/>
<polygon fill="#191970" stroke="#191970" points="942.3839,-85.1076 931.8885,-86.5555 940.996,-91.9686 942.3839,-85.1076"/>
</g>
<!-- Node22&#45;&gt;Node23 -->
<g id="edge30" class="edge">
<title>Node22&#45;&gt;Node23</title>
<path fill="none" stroke="#191970" d="M1144,-184.8906C1144,-176.3657 1144,-163.6392 1144,-152.9235"/>
<polygon fill="#191970" stroke="#191970" points="1147.5001,-152.7448 1144,-142.7449 1140.5001,-152.7449 1147.5001,-152.7448"/>
</g>
<!-- Node23&#45;&gt;Node11 -->
<g id="edge31" class="edge">
<title>Node23&#45;&gt;Node11</title>
<path fill="none" stroke="#191970" d="M1130.17,-123.3845C1100.9553,-103.0724 1032.7377,-55.6431 997.2849,-30.9939"/>
<polygon fill="#191970" stroke="#191970" points="999.2296,-28.0832 989.0211,-25.2484 995.2336,-33.8306 999.2296,-28.0832"/>
</g>
<!-- Node24&#45;&gt;Node11 -->
<g id="edge33" class="edge">
<title>Node24&#45;&gt;Node11</title>
<path fill="none" stroke="#191970" d="M988.7725,-123.3845C986.3223,-104.1913 980.7812,-60.786 977.5234,-35.2663"/>
<polygon fill="#191970" stroke="#191970" points="980.9827,-34.7246 976.2445,-25.2484 974.0391,-35.6111 980.9827,-34.7246"/>
</g>
<!-- Node25&#45;&gt;Node24 -->
<g id="edge35" class="edge">
<title>Node25&#45;&gt;Node24</title>
<path fill="none" stroke="#191970" d="M1001.8125,-184.8906C999.8514,-176.276 996.9137,-163.3708 994.4585,-152.5858"/>
<polygon fill="#191970" stroke="#191970" points="997.8507,-151.7185 992.2183,-142.7449 991.0254,-153.2723 997.8507,-151.7185"/>
</g>
<!-- Node26&#45;&gt;Node12 -->
<g id="edge37" class="edge">
<title>Node26&#45;&gt;Node12</title>
<path fill="none" stroke="#191970" d="M596.1955,-209.5784C640.4145,-220.1476 696.9465,-234.088 735.4055,-243.9247"/>
<polygon fill="#191970" stroke="#191970" points="734.7046,-247.3582 745.2611,-246.4581 736.4473,-240.5786 734.7046,-247.3582"/>
</g>
</g>
</svg>
        <g id="navigator" transform="translate(0 0)" fill="#404254">
                <rect fill="#f2f5e9" fill-opacity="0.5" stroke="#606060" stroke-width=".5" x="0" y="0" width="60" height="60"/>
                <use id="zoomplus" xlink:href="#zoomPlus" x="17" y="9" onmousedown="handleZoom(evt,'in')"/>
                <use id="zoomminus" xlink:href="#zoomMin" x="42" y="9" onmousedown="handleZoom(evt,'out')"/>
                <use id="reset" xlink:href="#resetDef" x="30" y="36" onmousedown="handleReset()"/>
                <g id="arrowUp" xlink:href="#dirArrow" transform="translate(30 24)" onmousedown="handlePan(0,-1)">
                  <use xlink:href="#rim" fill="#404040">
                        <set attributeName="fill" to="#808080" begin="arrowUp.mouseover" end="arrowUp.mouseout"/>
                  </use>
                  <path fill="none" stroke="white" stroke-width="1.5" d="M0,-3.0v7 M-2.5,-0.5L0,-3.0L2.5,-0.5"/>
                </g>
                <g id="arrowRight" xlink:href="#dirArrow" transform="rotate(90) translate(36 -43)" onmousedown="handlePan(1,0)">
                  <use xlink:href="#rim" fill="#404040">
                        <set attributeName="fill" to="#808080" begin="arrowRight.mouseover" end="arrowRight.mouseout"/>
                  </use>
                  <path fill="none" stroke="white" stroke-width="1.5" d="M0,-3.0v7 M-2.5,-0.5L0,-3.0L2.5,-0.5"/>
                </g>
                <g id="arrowDown" xlink:href="#dirArrow" transform="rotate(180) translate(-30 -48)" onmousedown="handlePan(0,1)">
                  <use xlink:href="#rim" fill="#404040">
                        <set attributeName="fill" to="#808080" begin="arrowDown.mouseover" end="arrowDown.mouseout"/>
                  </use>
                  <path fill="none" stroke="white" stroke-width="1.5" d="M0,-3.0v7 M-2.5,-0.5L0,-3.0L2.5,-0.5"/>
                </g>
                <g id="arrowLeft" xlink:href="#dirArrow" transform="rotate(270) translate(-36 17)" onmousedown="handlePan(-1,0)">
                  <use xlink:href="#rim" fill="#404040">
                        <set attributeName="fill" to="#808080" begin="arrowLeft.mouseover" end="arrowLeft.mouseout"/>
                  </use>
                  <path fill="none" stroke="white" stroke-width="1.5" d="M0,-3.0v7 M-2.5,-0.5L0,-3.0L2.5,-0.5"/>
                </g>
        </g>
        <svg viewBox="0 0 15 15" width="100%" height="30px" preserveAspectRatio="xMaxYMin meet">
         <g id="arrow_out" transform="scale(0.3 0.3)">
          <a xlink:href="sitkExplicitITKDefaultVectorPixelAccessor_8h__incl_org.svg" target="_base">
           <rect id="button" ry="5" rx="5" y="6" x="6" height="38" width="38"
                fill="#f2f5e9" fill-opacity="0.5" stroke="#606060" stroke-width="1.0"/>
           <path id="arrow"
             d="M 11.500037,31.436501 C 11.940474,20.09759 22.043105,11.32322 32.158766,21.979434 L 37.068811,17.246167 C 37.068811,17.246167 37.088388,32 37.088388,32 L 22.160133,31.978069 C 22.160133,31.978069 26.997745,27.140456 26.997745,27.140456 C 18.528582,18.264221 13.291696,25.230495 11.500037,31.436501 z"
             style="fill:#404040;"/>
          </a>
         </g>
        </svg>
</svg>
