<?xml version="1.0" encoding="UTF-8" standalone="no"?>
<!DOCTYPE svg PUBLIC "-//W3C//DTD SVG 1.1//EN"
 "http://www.w3.org/Graphics/SVG/1.1/DTD/svg11.dtd">
<!-- Generated by graphviz version 2.43.0 (0)
 -->
<!-- Title: sitkImageConvert.h Pages: 1 -->
<svg width="1496pt" height="431pt"
 viewBox="0.00 0.00 1496.29 431.00" xmlns="http://www.w3.org/2000/svg" xmlns:xlink="http://www.w3.org/1999/xlink">
<g id="graph0" class="graph" transform="scale(1 1) rotate(0) translate(4 427)">
<title>sitkImageConvert.h</title>
<polygon fill="white" stroke="transparent" points="-4,4 -4,-427 1492.29,-427 1492.29,4 -4,4"/>
<!-- Node1 -->
<g id="node1" class="node">
<title>Node1</title>
<g id="a_node1"><a xlink:title=" ">
<polygon fill="#bfbfbf" stroke="black" points="891.29,-403.5 891.29,-422.5 1004.29,-422.5 1004.29,-403.5 891.29,-403.5"/>
<text text-anchor="middle" x="947.79" y="-410.5" font-family="Helvetica,sans-Serif" font-size="10.00">sitkImageConvert.h</text>
</a>
</g>
</g>
<!-- Node2 -->
<g id="node2" class="node">
<title>Node2</title>
<g id="a_node2"><a xlink:href="sitkImage_8h.html" target="_top" xlink:title=" ">
<polygon fill="white" stroke="black" points="910.79,-347.5 910.79,-366.5 984.79,-366.5 984.79,-347.5 910.79,-347.5"/>
<text text-anchor="middle" x="947.79" y="-354.5" font-family="Helvetica,sans-Serif" font-size="10.00">sitkImage.h</text>
</a>
</g>
</g>
<!-- Node1&#45;&gt;Node2 -->
<g id="edge1" class="edge">
<title>Node1&#45;&gt;Node2</title>
<path fill="none" stroke="midnightblue" d="M947.79,-403.08C947.79,-396.01 947.79,-385.86 947.79,-376.99"/>
<polygon fill="midnightblue" stroke="midnightblue" points="951.29,-376.75 947.79,-366.75 944.29,-376.75 951.29,-376.75"/>
</g>
<!-- Node3 -->
<g id="node3" class="node">
<title>Node3</title>
<g id="a_node3"><a xlink:href="sitkCommon_8h.html" target="_top" xlink:title=" ">
<polygon fill="white" stroke="black" points="417.79,-112.5 417.79,-131.5 505.79,-131.5 505.79,-112.5 417.79,-112.5"/>
<text text-anchor="middle" x="461.79" y="-119.5" font-family="Helvetica,sans-Serif" font-size="10.00">sitkCommon.h</text>
</a>
</g>
</g>
<!-- Node2&#45;&gt;Node3 -->
<g id="edge2" class="edge">
<title>Node2&#45;&gt;Node3</title>
<path fill="none" stroke="midnightblue" d="M910.77,-349.48C803.61,-329.76 497.05,-267.25 439.79,-188 429.37,-173.58 438.58,-153.87 448.08,-139.95"/>
<polygon fill="midnightblue" stroke="midnightblue" points="451.01,-141.87 454.15,-131.75 445.39,-137.7 451.01,-141.87"/>
</g>
<!-- Node11 -->
<g id="node11" class="node">
<title>Node11</title>
<g id="a_node11"><a xlink:href="sitkTemplateFunctions_8h.html" target="_top" xlink:title=" ">
<polygon fill="white" stroke="black" points="158.29,-230 158.29,-249 293.29,-249 293.29,-230 158.29,-230"/>
<text text-anchor="middle" x="225.79" y="-237" font-family="Helvetica,sans-Serif" font-size="10.00">sitkTemplateFunctions.h</text>
</a>
</g>
</g>
<!-- Node2&#45;&gt;Node11 -->
<g id="edge10" class="edge">
<title>Node2&#45;&gt;Node11</title>
<path fill="none" stroke="midnightblue" d="M910.69,-355.58C795.61,-353.91 445.99,-346.02 338.79,-311 301.89,-298.95 264.79,-272.38 243.62,-255.53"/>
<polygon fill="midnightblue" stroke="midnightblue" points="245.79,-252.77 235.82,-249.17 241.37,-258.2 245.79,-252.77"/>
</g>
<!-- Node13 -->
<g id="node13" class="node">
<title>Node13</title>
<g id="a_node13"><a xlink:title=" ">
<polygon fill="white" stroke="#bfbfbf" points="270.29,-168.5 270.29,-187.5 317.29,-187.5 317.29,-168.5 270.29,-168.5"/>
<text text-anchor="middle" x="293.79" y="-175.5" font-family="Helvetica,sans-Serif" font-size="10.00">vector</text>
</a>
</g>
</g>
<!-- Node2&#45;&gt;Node13 -->
<g id="edge46" class="edge">
<title>Node2&#45;&gt;Node13</title>
<path fill="none" stroke="midnightblue" d="M910.58,-356.53C803.23,-357.48 494.99,-356.13 406.79,-311 356.58,-285.31 319.44,-226.74 303.05,-197.02"/>
<polygon fill="midnightblue" stroke="midnightblue" points="305.93,-194.98 298.14,-187.81 299.76,-198.28 305.93,-194.98"/>
</g>
<!-- Node16 -->
<g id="node16" class="node">
<title>Node16</title>
<g id="a_node16"><a xlink:href="sitkDetail_8h.html" target="_top" xlink:title=" ">
<polygon fill="white" stroke="black" points="911.29,-291.5 911.29,-310.5 984.29,-310.5 984.29,-291.5 911.29,-291.5"/>
<text text-anchor="middle" x="947.79" y="-298.5" font-family="Helvetica,sans-Serif" font-size="10.00">sitkDetail.h</text>
</a>
</g>
</g>
<!-- Node2&#45;&gt;Node16 -->
<g id="edge19" class="edge">
<title>Node2&#45;&gt;Node16</title>
<path fill="none" stroke="midnightblue" d="M947.79,-347.08C947.79,-340.01 947.79,-329.86 947.79,-320.99"/>
<polygon fill="midnightblue" stroke="midnightblue" points="951.29,-320.75 947.79,-310.75 944.29,-320.75 951.29,-320.75"/>
</g>
<!-- Node27 -->
<g id="node27" class="node">
<title>Node27</title>
<g id="a_node27"><a xlink:href="sitkPixelIDTokens_8h.html" target="_top" xlink:title=" ">
<polygon fill="white" stroke="black" points="1139.79,-291.5 1139.79,-310.5 1249.79,-310.5 1249.79,-291.5 1139.79,-291.5"/>
<text text-anchor="middle" x="1194.79" y="-298.5" font-family="Helvetica,sans-Serif" font-size="10.00">sitkPixelIDTokens.h</text>
</a>
</g>
</g>
<!-- Node2&#45;&gt;Node27 -->
<g id="edge38" class="edge">
<title>Node2&#45;&gt;Node27</title>
<path fill="none" stroke="midnightblue" d="M985.03,-347.86C1027.85,-338.5 1098.29,-323.1 1145.58,-312.76"/>
<polygon fill="midnightblue" stroke="midnightblue" points="1146.58,-316.12 1155.6,-310.57 1145.08,-309.28 1146.58,-316.12"/>
</g>
<!-- Node30 -->
<g id="node30" class="node">
<title>Node30</title>
<g id="a_node30"><a xlink:title=" ">
<polygon fill="white" stroke="#bfbfbf" points="1419.29,-230 1419.29,-249 1488.29,-249 1488.29,-230 1419.29,-230"/>
<text text-anchor="middle" x="1453.79" y="-237" font-family="Helvetica,sans-Serif" font-size="10.00">type_traits</text>
</a>
</g>
</g>
<!-- Node2&#45;&gt;Node30 -->
<g id="edge48" class="edge">
<title>Node2&#45;&gt;Node30</title>
<path fill="none" stroke="midnightblue" d="M985.09,-354.68C1044.42,-351.69 1163.31,-342.01 1258.79,-311 1276.94,-305.1 1279.19,-298.39 1296.79,-291 1318.34,-281.94 1376.27,-263.89 1415.4,-252.01"/>
<polygon fill="midnightblue" stroke="midnightblue" points="1416.6,-255.3 1425.16,-249.06 1414.57,-248.6 1416.6,-255.3"/>
</g>
<!-- Node31 -->
<g id="node31" class="node">
<title>Node31</title>
<g id="a_node31"><a xlink:title=" ">
<polygon fill="white" stroke="#bfbfbf" points="1305.79,-291.5 1305.79,-310.5 1363.79,-310.5 1363.79,-291.5 1305.79,-291.5"/>
<text text-anchor="middle" x="1334.79" y="-298.5" font-family="Helvetica,sans-Serif" font-size="10.00">memory</text>
</a>
</g>
</g>
<!-- Node2&#45;&gt;Node31 -->
<g id="edge47" class="edge">
<title>Node2&#45;&gt;Node31</title>
<path fill="none" stroke="midnightblue" d="M984.83,-352.09C1048.02,-345.22 1180.59,-329.88 1291.79,-311 1293.05,-310.78 1294.34,-310.56 1295.64,-310.32"/>
<polygon fill="midnightblue" stroke="midnightblue" points="1296.53,-313.72 1305.7,-308.4 1295.22,-306.84 1296.53,-313.72"/>
</g>
<!-- Node4 -->
<g id="node4" class="node">
<title>Node4</title>
<g id="a_node4"><a xlink:href="sitkMacro_8h.html" target="_top" xlink:title=" ">
<polygon fill="white" stroke="black" points="466.79,-56.5 466.79,-75.5 540.79,-75.5 540.79,-56.5 466.79,-56.5"/>
<text text-anchor="middle" x="503.79" y="-63.5" font-family="Helvetica,sans-Serif" font-size="10.00">sitkMacro.h</text>
</a>
</g>
</g>
<!-- Node3&#45;&gt;Node4 -->
<g id="edge3" class="edge">
<title>Node3&#45;&gt;Node4</title>
<path fill="none" stroke="midnightblue" d="M468.72,-112.08C474.71,-104.38 483.54,-93.03 490.83,-83.65"/>
<polygon fill="midnightblue" stroke="midnightblue" points="493.6,-85.79 496.98,-75.75 488.08,-81.5 493.6,-85.79"/>
</g>
<!-- Node5 -->
<g id="node5" class="node">
<title>Node5</title>
<g id="a_node5"><a xlink:title=" ">
<polygon fill="white" stroke="#bfbfbf" points="898.29,-0.5 898.29,-19.5 951.29,-19.5 951.29,-0.5 898.29,-0.5"/>
<text text-anchor="middle" x="924.79" y="-7.5" font-family="Helvetica,sans-Serif" font-size="10.00">stdint.h</text>
</a>
</g>
</g>
<!-- Node4&#45;&gt;Node5 -->
<g id="edge4" class="edge">
<title>Node4&#45;&gt;Node5</title>
<path fill="none" stroke="midnightblue" d="M541.15,-60.21C621.26,-49.93 808.75,-25.88 888.18,-15.69"/>
<polygon fill="midnightblue" stroke="midnightblue" points="888.74,-19.15 898.21,-14.41 887.85,-12.21 888.74,-19.15"/>
</g>
<!-- Node6 -->
<g id="node6" class="node">
<title>Node6</title>
<g id="a_node6"><a xlink:title=" ">
<polygon fill="white" stroke="#bfbfbf" points="577.79,-0.5 577.79,-19.5 633.79,-19.5 633.79,-0.5 577.79,-0.5"/>
<text text-anchor="middle" x="605.79" y="-7.5" font-family="Helvetica,sans-Serif" font-size="10.00">stddef.h</text>
</a>
</g>
</g>
<!-- Node4&#45;&gt;Node6 -->
<g id="edge5" class="edge">
<title>Node4&#45;&gt;Node6</title>
<path fill="none" stroke="midnightblue" d="M520.17,-56.32C536.46,-47.7 561.65,-34.36 580.5,-24.39"/>
<polygon fill="midnightblue" stroke="midnightblue" points="582.24,-27.43 589.44,-19.65 578.96,-21.24 582.24,-27.43"/>
</g>
<!-- Node7 -->
<g id="node7" class="node">
<title>Node7</title>
<g id="a_node7"><a xlink:title=" ">
<polygon fill="white" stroke="#bfbfbf" points="371.79,-0.5 371.79,-19.5 423.79,-19.5 423.79,-0.5 371.79,-0.5"/>
<text text-anchor="middle" x="397.79" y="-7.5" font-family="Helvetica,sans-Serif" font-size="10.00">cassert</text>
</a>
</g>
</g>
<!-- Node4&#45;&gt;Node7 -->
<g id="edge6" class="edge">
<title>Node4&#45;&gt;Node7</title>
<path fill="none" stroke="midnightblue" d="M486.75,-56.32C469.76,-47.66 443.41,-34.24 423.79,-24.25"/>
<polygon fill="midnightblue" stroke="midnightblue" points="425.27,-21.08 414.77,-19.65 422.1,-27.31 425.27,-21.08"/>
</g>
<!-- Node8 -->
<g id="node8" class="node">
<title>Node8</title>
<g id="a_node8"><a xlink:title=" ">
<polygon fill="white" stroke="#bfbfbf" points="441.79,-0.5 441.79,-19.5 497.79,-19.5 497.79,-0.5 441.79,-0.5"/>
<text text-anchor="middle" x="469.79" y="-7.5" font-family="Helvetica,sans-Serif" font-size="10.00">sstream</text>
</a>
</g>
</g>
<!-- Node4&#45;&gt;Node8 -->
<g id="edge7" class="edge">
<title>Node4&#45;&gt;Node8</title>
<path fill="none" stroke="midnightblue" d="M498.17,-56.08C493.42,-48.53 486.47,-37.49 480.63,-28.23"/>
<polygon fill="midnightblue" stroke="midnightblue" points="483.59,-26.35 475.3,-19.75 477.66,-30.08 483.59,-26.35"/>
</g>
<!-- Node9 -->
<g id="node9" class="node">
<title>Node9</title>
<g id="a_node9"><a xlink:title=" ">
<polygon fill="white" stroke="#bfbfbf" points="515.79,-0.5 515.79,-19.5 559.79,-19.5 559.79,-0.5 515.79,-0.5"/>
<text text-anchor="middle" x="537.79" y="-7.5" font-family="Helvetica,sans-Serif" font-size="10.00">limits</text>
</a>
</g>
</g>
<!-- Node4&#45;&gt;Node9 -->
<g id="edge8" class="edge">
<title>Node4&#45;&gt;Node9</title>
<path fill="none" stroke="midnightblue" d="M509.4,-56.08C514.15,-48.53 521.1,-37.49 526.94,-28.23"/>
<polygon fill="midnightblue" stroke="midnightblue" points="529.91,-30.08 532.28,-19.75 523.99,-26.35 529.91,-30.08"/>
</g>
<!-- Node10 -->
<g id="node10" class="node">
<title>Node10</title>
<g id="a_node10"><a xlink:href="sitkConfigure_8h.html" target="_top" xlink:title=" ">
<polygon fill="white" stroke="black" points="1105.79,-0.5 1105.79,-19.5 1195.79,-19.5 1195.79,-0.5 1105.79,-0.5"/>
<text text-anchor="middle" x="1150.79" y="-7.5" font-family="Helvetica,sans-Serif" font-size="10.00">sitkConfigure.h</text>
</a>
</g>
</g>
<!-- Node4&#45;&gt;Node10 -->
<g id="edge9" class="edge">
<title>Node4&#45;&gt;Node10</title>
<path fill="none" stroke="midnightblue" d="M540.9,-61.9C649.39,-52.85 966.48,-26.38 1095.36,-15.63"/>
<polygon fill="midnightblue" stroke="midnightblue" points="1095.73,-19.11 1105.41,-14.79 1095.15,-12.13 1095.73,-19.11"/>
</g>
<!-- Node11&#45;&gt;Node3 -->
<g id="edge12" class="edge">
<title>Node11&#45;&gt;Node3</title>
<path fill="none" stroke="midnightblue" d="M215.47,-229.94C199.75,-215.88 173.25,-187.49 189.79,-168 217.12,-135.77 336.14,-126.59 407.37,-124"/>
<polygon fill="midnightblue" stroke="midnightblue" points="407.64,-127.49 417.51,-123.66 407.4,-120.5 407.64,-127.49"/>
</g>
<!-- Node11&#45;&gt;Node4 -->
<g id="edge11" class="edge">
<title>Node11&#45;&gt;Node4</title>
<path fill="none" stroke="midnightblue" d="M157.99,-237.88C79.92,-234.73 -32.47,-221.21 9.79,-168 65.09,-98.37 343.73,-75.65 456.4,-69.23"/>
<polygon fill="midnightblue" stroke="midnightblue" points="456.66,-72.72 466.46,-68.68 456.28,-65.73 456.66,-72.72"/>
</g>
<!-- Node12 -->
<g id="node12" class="node">
<title>Node12</title>
<g id="a_node12"><a xlink:href="sitkExceptionObject_8h.html" target="_top" xlink:title=" ">
<polygon fill="white" stroke="black" points="19.29,-168.5 19.29,-187.5 142.29,-187.5 142.29,-168.5 19.29,-168.5"/>
<text text-anchor="middle" x="80.79" y="-175.5" font-family="Helvetica,sans-Serif" font-size="10.00">sitkExceptionObject.h</text>
</a>
</g>
</g>
<!-- Node11&#45;&gt;Node12 -->
<g id="edge13" class="edge">
<title>Node11&#45;&gt;Node12</title>
<path fill="none" stroke="midnightblue" d="M205.01,-229.98C180.35,-219.86 139.04,-202.9 110.88,-191.35"/>
<polygon fill="midnightblue" stroke="midnightblue" points="112.1,-188.07 101.52,-187.51 109.44,-194.54 112.1,-188.07"/>
</g>
<!-- Node11&#45;&gt;Node13 -->
<g id="edge16" class="edge">
<title>Node11&#45;&gt;Node13</title>
<path fill="none" stroke="midnightblue" d="M235.53,-229.98C246.13,-220.7 263.3,-205.67 276.26,-194.33"/>
<polygon fill="midnightblue" stroke="midnightblue" points="278.84,-196.73 284.06,-187.51 274.23,-191.46 278.84,-196.73"/>
</g>
<!-- Node14 -->
<g id="node14" class="node">
<title>Node14</title>
<g id="a_node14"><a xlink:title=" ">
<polygon fill="white" stroke="#bfbfbf" points="335.29,-168.5 335.29,-187.5 392.29,-187.5 392.29,-168.5 335.29,-168.5"/>
<text text-anchor="middle" x="363.79" y="-175.5" font-family="Helvetica,sans-Serif" font-size="10.00">ostream</text>
</a>
</g>
</g>
<!-- Node11&#45;&gt;Node14 -->
<g id="edge17" class="edge">
<title>Node11&#45;&gt;Node14</title>
<path fill="none" stroke="midnightblue" d="M245.56,-229.98C268.92,-219.9 308,-203.05 334.79,-191.5"/>
<polygon fill="midnightblue" stroke="midnightblue" points="336.25,-194.68 344.05,-187.51 333.48,-188.25 336.25,-194.68"/>
</g>
<!-- Node15 -->
<g id="node15" class="node">
<title>Node15</title>
<g id="a_node15"><a xlink:title=" ">
<polygon fill="white" stroke="#bfbfbf" points="199.29,-168.5 199.29,-187.5 252.29,-187.5 252.29,-168.5 199.29,-168.5"/>
<text text-anchor="middle" x="225.79" y="-175.5" font-family="Helvetica,sans-Serif" font-size="10.00">iterator</text>
</a>
</g>
</g>
<!-- Node11&#45;&gt;Node15 -->
<g id="edge18" class="edge">
<title>Node11&#45;&gt;Node15</title>
<path fill="none" stroke="midnightblue" d="M225.79,-229.98C225.79,-221.58 225.79,-208.48 225.79,-197.66"/>
<polygon fill="midnightblue" stroke="midnightblue" points="229.29,-197.51 225.79,-187.51 222.29,-197.51 229.29,-197.51"/>
</g>
<!-- Node12&#45;&gt;Node3 -->
<g id="edge15" class="edge">
<title>Node12&#45;&gt;Node3</title>
<path fill="none" stroke="midnightblue" d="M141.16,-168.44C214.55,-158.04 337.32,-140.64 407.74,-130.66"/>
<polygon fill="midnightblue" stroke="midnightblue" points="408.32,-134.11 417.73,-129.24 407.34,-127.18 408.32,-134.11"/>
</g>
<!-- Node12&#45;&gt;Node4 -->
<g id="edge14" class="edge">
<title>Node12&#45;&gt;Node4</title>
<path fill="none" stroke="midnightblue" d="M113.63,-168.46C189.45,-148.74 376.68,-100.05 461.18,-78.08"/>
<polygon fill="midnightblue" stroke="midnightblue" points="462.17,-81.44 470.97,-75.53 460.41,-74.66 462.17,-81.44"/>
</g>
<!-- Node17 -->
<g id="node17" class="node">
<title>Node17</title>
<g id="a_node17"><a xlink:href="sitkMemberFunctionFactoryBase_8h.html" target="_top" xlink:title=" ">
<polygon fill="white" stroke="black" points="802.79,-224.5 802.79,-254.5 954.79,-254.5 954.79,-224.5 802.79,-224.5"/>
<text text-anchor="start" x="810.79" y="-242.5" font-family="Helvetica,sans-Serif" font-size="10.00">sitkMemberFunctionFactory</text>
<text text-anchor="middle" x="878.79" y="-231.5" font-family="Helvetica,sans-Serif" font-size="10.00">Base.h</text>
</a>
</g>
</g>
<!-- Node16&#45;&gt;Node17 -->
<g id="edge20" class="edge">
<title>Node16&#45;&gt;Node17</title>
<path fill="none" stroke="midnightblue" d="M937.9,-291.48C928.73,-283.57 914.72,-271.48 902.64,-261.07"/>
<polygon fill="midnightblue" stroke="midnightblue" points="904.91,-258.4 895.05,-254.52 900.34,-263.7 904.91,-258.4"/>
</g>
<!-- Node23 -->
<g id="node23" class="node">
<title>Node23</title>
<g id="a_node23"><a xlink:title=" ">
<polygon fill="white" stroke="#bfbfbf" points="983.29,-168.5 983.29,-187.5 1122.29,-187.5 1122.29,-168.5 983.29,-168.5"/>
<text text-anchor="middle" x="1052.79" y="-175.5" font-family="Helvetica,sans-Serif" font-size="10.00">Ancillary/FunctionTraits.h</text>
</a>
</g>
</g>
<!-- Node16&#45;&gt;Node23 -->
<g id="edge37" class="edge">
<title>Node16&#45;&gt;Node23</title>
<path fill="none" stroke="midnightblue" d="M955.34,-291.3C972.74,-271.24 1015.91,-221.49 1038.5,-195.46"/>
<polygon fill="midnightblue" stroke="midnightblue" points="1041.39,-197.47 1045.3,-187.62 1036.11,-192.88 1041.39,-197.47"/>
</g>
<!-- Node17&#45;&gt;Node4 -->
<g id="edge29" class="edge">
<title>Node17&#45;&gt;Node4</title>
<path fill="none" stroke="midnightblue" d="M802.5,-238.01C744.94,-234.55 665.89,-222.95 605.79,-188 562.21,-162.66 528.7,-111.49 513.22,-84.53"/>
<polygon fill="midnightblue" stroke="midnightblue" points="516.27,-82.82 508.34,-75.79 510.15,-86.23 516.27,-82.82"/>
</g>
<!-- Node17&#45;&gt;Node10 -->
<g id="edge21" class="edge">
<title>Node17&#45;&gt;Node10</title>
<path fill="none" stroke="midnightblue" d="M876.7,-224.21C873.81,-198.73 871.58,-145.07 897.79,-112 946.13,-50.98 1036.92,-26.67 1095.57,-17.09"/>
<polygon fill="midnightblue" stroke="midnightblue" points="1096.42,-20.5 1105.77,-15.52 1095.35,-13.59 1096.42,-20.5"/>
</g>
<!-- Node18 -->
<g id="node18" class="node">
<title>Node18</title>
<g id="a_node18"><a xlink:href="sitkPixelIDTypes_8h.html" target="_top" xlink:title=" ">
<polygon fill="white" stroke="black" points="907.29,-112.5 907.29,-131.5 1012.29,-131.5 1012.29,-112.5 907.29,-112.5"/>
<text text-anchor="middle" x="959.79" y="-119.5" font-family="Helvetica,sans-Serif" font-size="10.00">sitkPixelIDTypes.h</text>
</a>
</g>
</g>
<!-- Node17&#45;&gt;Node18 -->
<g id="edge22" class="edge">
<title>Node17&#45;&gt;Node18</title>
<path fill="none" stroke="midnightblue" d="M888.72,-224.34C903.64,-203.05 931.81,-162.89 947.84,-140.03"/>
<polygon fill="midnightblue" stroke="midnightblue" points="950.83,-141.87 953.71,-131.67 945.1,-137.85 950.83,-141.87"/>
</g>
<!-- Node19 -->
<g id="node19" class="node">
<title>Node19</title>
<g id="a_node19"><a xlink:href="sitkPixelIDTypeLists_8h.html" target="_top" xlink:title=" ">
<polygon fill="white" stroke="black" points="1178.79,-168.5 1178.79,-187.5 1300.79,-187.5 1300.79,-168.5 1178.79,-168.5"/>
<text text-anchor="middle" x="1239.79" y="-175.5" font-family="Helvetica,sans-Serif" font-size="10.00">sitkPixelIDTypeLists.h</text>
</a>
</g>
</g>
<!-- Node17&#45;&gt;Node19 -->
<g id="edge23" class="edge">
<title>Node17&#45;&gt;Node19</title>
<path fill="none" stroke="midnightblue" d="M954.9,-225.95C1021.33,-215.01 1116.5,-199.32 1178.22,-189.15"/>
<polygon fill="midnightblue" stroke="midnightblue" points="1178.91,-192.58 1188.21,-187.5 1177.77,-185.67 1178.91,-192.58"/>
</g>
<!-- Node20 -->
<g id="node20" class="node">
<title>Node20</title>
<g id="a_node20"><a xlink:title=" ">
<polygon fill="white" stroke="#bfbfbf" points="1030.29,-112.5 1030.29,-131.5 1141.29,-131.5 1141.29,-112.5 1030.29,-112.5"/>
<text text-anchor="middle" x="1085.79" y="-119.5" font-family="Helvetica,sans-Serif" font-size="10.00">Ancillary/TypeList.h</text>
</a>
</g>
</g>
<!-- Node17&#45;&gt;Node20 -->
<g id="edge32" class="edge">
<title>Node17&#45;&gt;Node20</title>
<path fill="none" stroke="midnightblue" d="M895.26,-224.41C913.73,-209.11 945,-184.63 974.79,-168 998.72,-154.64 1027.43,-143.1 1049.66,-135.06"/>
<polygon fill="midnightblue" stroke="midnightblue" points="1051.12,-138.26 1059.38,-131.62 1048.78,-131.66 1051.12,-138.26"/>
</g>
<!-- Node22 -->
<g id="node22" class="node">
<title>Node22</title>
<g id="a_node22"><a xlink:href="sitkNonCopyable_8h.html" target="_top" xlink:title=" ">
<polygon fill="white" stroke="black" points="449.29,-168.5 449.29,-187.5 558.29,-187.5 558.29,-168.5 449.29,-168.5"/>
<text text-anchor="middle" x="503.79" y="-175.5" font-family="Helvetica,sans-Serif" font-size="10.00">sitkNonCopyable.h</text>
</a>
</g>
</g>
<!-- Node17&#45;&gt;Node22 -->
<g id="edge30" class="edge">
<title>Node17&#45;&gt;Node22</title>
<path fill="none" stroke="midnightblue" d="M802.45,-226.39C733.33,-215.42 632.68,-199.45 567.71,-189.14"/>
<polygon fill="midnightblue" stroke="midnightblue" points="568.03,-185.65 557.6,-187.54 566.93,-192.56 568.03,-185.65"/>
</g>
<!-- Node17&#45;&gt;Node23 -->
<g id="edge33" class="edge">
<title>Node17&#45;&gt;Node23</title>
<path fill="none" stroke="midnightblue" d="M920.02,-224.4C949.96,-214.16 990,-200.47 1018.25,-190.81"/>
<polygon fill="midnightblue" stroke="midnightblue" points="1019.39,-194.12 1027.72,-187.57 1017.13,-187.49 1019.39,-194.12"/>
</g>
<!-- Node24 -->
<g id="node24" class="node">
<title>Node24</title>
<g id="a_node24"><a xlink:title=" ">
<polygon fill="white" stroke="#bfbfbf" points="615.29,-168.5 615.29,-187.5 708.29,-187.5 708.29,-168.5 615.29,-168.5"/>
<text text-anchor="middle" x="661.79" y="-175.5" font-family="Helvetica,sans-Serif" font-size="10.00">unordered_map</text>
</a>
</g>
</g>
<!-- Node17&#45;&gt;Node24 -->
<g id="edge34" class="edge">
<title>Node17&#45;&gt;Node24</title>
<path fill="none" stroke="midnightblue" d="M827.63,-224.47C789.54,-214.03 738.22,-199.96 702.8,-190.25"/>
<polygon fill="midnightblue" stroke="midnightblue" points="703.38,-186.78 692.81,-187.51 701.53,-193.53 703.38,-186.78"/>
</g>
<!-- Node25 -->
<g id="node25" class="node">
<title>Node25</title>
<g id="a_node25"><a xlink:title=" ">
<polygon fill="white" stroke="#bfbfbf" points="726.29,-168.5 726.29,-187.5 791.29,-187.5 791.29,-168.5 726.29,-168.5"/>
<text text-anchor="middle" x="758.79" y="-175.5" font-family="Helvetica,sans-Serif" font-size="10.00">functional</text>
</a>
</g>
</g>
<!-- Node17&#45;&gt;Node25 -->
<g id="edge35" class="edge">
<title>Node17&#45;&gt;Node25</title>
<path fill="none" stroke="midnightblue" d="M850.35,-224.4C830.66,-214.64 804.64,-201.74 785.37,-192.18"/>
<polygon fill="midnightblue" stroke="midnightblue" points="786.76,-188.96 776.25,-187.66 783.65,-195.24 786.76,-188.96"/>
</g>
<!-- Node26 -->
<g id="node26" class="node">
<title>Node26</title>
<g id="a_node26"><a xlink:title=" ">
<polygon fill="white" stroke="#bfbfbf" points="809.29,-168.5 809.29,-187.5 850.29,-187.5 850.29,-168.5 809.29,-168.5"/>
<text text-anchor="middle" x="829.79" y="-175.5" font-family="Helvetica,sans-Serif" font-size="10.00">tuple</text>
</a>
</g>
</g>
<!-- Node17&#45;&gt;Node26 -->
<g id="edge36" class="edge">
<title>Node17&#45;&gt;Node26</title>
<path fill="none" stroke="midnightblue" d="M867.17,-224.4C860.05,-215.75 850.9,-204.64 843.44,-195.58"/>
<polygon fill="midnightblue" stroke="midnightblue" points="845.97,-193.15 836.92,-187.66 840.57,-197.6 845.97,-193.15"/>
</g>
<!-- Node19&#45;&gt;Node5 -->
<g id="edge24" class="edge">
<title>Node19&#45;&gt;Node5</title>
<path fill="none" stroke="midnightblue" d="M1229.59,-168.44C1213.54,-155.23 1181.07,-129.57 1150.79,-112 1085.12,-73.92 1002.47,-40.3 957.54,-23.12"/>
<polygon fill="midnightblue" stroke="midnightblue" points="958.61,-19.78 948.02,-19.51 956.13,-26.33 958.61,-19.78"/>
</g>
<!-- Node19&#45;&gt;Node10 -->
<g id="edge25" class="edge">
<title>Node19&#45;&gt;Node10</title>
<path fill="none" stroke="midnightblue" d="M1248.29,-168.09C1259.22,-155.49 1275.8,-131.8 1266.79,-112 1248.4,-71.61 1204.99,-41.09 1176.8,-24.65"/>
<polygon fill="midnightblue" stroke="midnightblue" points="1178.31,-21.49 1167.88,-19.62 1174.87,-27.58 1178.31,-21.49"/>
</g>
<!-- Node19&#45;&gt;Node18 -->
<g id="edge26" class="edge">
<title>Node19&#45;&gt;Node18</title>
<path fill="none" stroke="midnightblue" d="M1195.42,-168.44C1146.16,-158.94 1066.66,-143.61 1013.81,-133.42"/>
<polygon fill="midnightblue" stroke="midnightblue" points="1014.43,-129.97 1003.94,-131.52 1013.1,-136.85 1014.43,-129.97"/>
</g>
<!-- Node19&#45;&gt;Node20 -->
<g id="edge27" class="edge">
<title>Node19&#45;&gt;Node20</title>
<path fill="none" stroke="midnightblue" d="M1215.38,-168.44C1189.59,-159.4 1148.71,-145.06 1119.77,-134.92"/>
<polygon fill="midnightblue" stroke="midnightblue" points="1120.67,-131.52 1110.07,-131.52 1118.35,-138.13 1120.67,-131.52"/>
</g>
<!-- Node21 -->
<g id="node21" class="node">
<title>Node21</title>
<g id="a_node21"><a xlink:title=" ">
<polygon fill="white" stroke="#bfbfbf" points="1198.29,-112.5 1198.29,-131.5 1257.29,-131.5 1257.29,-112.5 1198.29,-112.5"/>
<text text-anchor="middle" x="1227.79" y="-119.5" font-family="Helvetica,sans-Serif" font-size="10.00">complex</text>
</a>
</g>
</g>
<!-- Node19&#45;&gt;Node21 -->
<g id="edge28" class="edge">
<title>Node19&#45;&gt;Node21</title>
<path fill="none" stroke="midnightblue" d="M1237.8,-168.08C1236.21,-160.93 1233.93,-150.64 1231.94,-141.69"/>
<polygon fill="midnightblue" stroke="midnightblue" points="1235.32,-140.75 1229.73,-131.75 1228.48,-142.27 1235.32,-140.75"/>
</g>
<!-- Node22&#45;&gt;Node3 -->
<g id="edge31" class="edge">
<title>Node22&#45;&gt;Node3</title>
<path fill="none" stroke="midnightblue" d="M496.85,-168.08C490.86,-160.38 482.03,-149.03 474.74,-139.65"/>
<polygon fill="midnightblue" stroke="midnightblue" points="477.49,-137.5 468.59,-131.75 471.97,-141.79 477.49,-137.5"/>
</g>
<!-- Node27&#45;&gt;Node10 -->
<g id="edge39" class="edge">
<title>Node27&#45;&gt;Node10</title>
<path fill="none" stroke="midnightblue" d="M1245.26,-291.46C1303.33,-278.4 1390.79,-247.38 1390.79,-179 1390.79,-179 1390.79,-179 1390.79,-121 1390.79,-40.18 1276.92,-18.51 1206.05,-12.85"/>
<polygon fill="midnightblue" stroke="midnightblue" points="1206.15,-9.35 1195.93,-12.12 1205.65,-16.33 1206.15,-9.35"/>
</g>
<!-- Node28 -->
<g id="node28" class="node">
<title>Node28</title>
<g id="a_node28"><a xlink:href="sitkPixelIDValues_8h.html" target="_top" xlink:title=" ">
<polygon fill="white" stroke="black" points="1139.79,-230 1139.79,-249 1249.79,-249 1249.79,-230 1139.79,-230"/>
<text text-anchor="middle" x="1194.79" y="-237" font-family="Helvetica,sans-Serif" font-size="10.00">sitkPixelIDValues.h</text>
</a>
</g>
</g>
<!-- Node27&#45;&gt;Node28 -->
<g id="edge40" class="edge">
<title>Node27&#45;&gt;Node28</title>
<path fill="none" stroke="midnightblue" d="M1194.79,-291.48C1194.79,-283.08 1194.79,-269.98 1194.79,-259.16"/>
<polygon fill="midnightblue" stroke="midnightblue" points="1198.29,-259.01 1194.79,-249.01 1191.29,-259.01 1198.29,-259.01"/>
</g>
<!-- Node27&#45;&gt;Node30 -->
<g id="edge45" class="edge">
<title>Node27&#45;&gt;Node30</title>
<path fill="none" stroke="midnightblue" d="M1239.26,-291.5C1281.93,-283.1 1348.06,-269.45 1404.79,-255 1408.64,-254.02 1412.65,-252.94 1416.64,-251.82"/>
<polygon fill="midnightblue" stroke="midnightblue" points="1417.78,-255.13 1426.42,-249 1415.84,-248.4 1417.78,-255.13"/>
</g>
<!-- Node28&#45;&gt;Node3 -->
<g id="edge41" class="edge">
<title>Node28&#45;&gt;Node3</title>
<path fill="none" stroke="midnightblue" d="M1190.11,-229.83C1181.16,-214.23 1159.96,-181.76 1131.79,-168 1077.12,-141.3 666.14,-128.22 516.27,-124.31"/>
<polygon fill="midnightblue" stroke="midnightblue" points="516.02,-120.8 505.94,-124.04 515.84,-127.8 516.02,-120.8"/>
</g>
<!-- Node28&#45;&gt;Node14 -->
<g id="edge44" class="edge">
<title>Node28&#45;&gt;Node14</title>
<path fill="none" stroke="midnightblue" d="M1139.69,-234.98C977.5,-224.59 508.83,-194.39 439.79,-188 427.71,-186.88 414.59,-185.42 402.7,-184"/>
<polygon fill="midnightblue" stroke="midnightblue" points="402.97,-180.5 392.62,-182.77 402.12,-187.45 402.97,-180.5"/>
</g>
<!-- Node28&#45;&gt;Node19 -->
<g id="edge42" class="edge">
<title>Node28&#45;&gt;Node19</title>
<path fill="none" stroke="midnightblue" d="M1201.23,-229.98C1207.98,-221.05 1218.76,-206.81 1227.2,-195.64"/>
<polygon fill="midnightblue" stroke="midnightblue" points="1230.11,-197.6 1233.35,-187.51 1224.53,-193.37 1230.11,-197.6"/>
</g>
<!-- Node29 -->
<g id="node29" class="node">
<title>Node29</title>
<g id="a_node29"><a xlink:title=" ">
<polygon fill="white" stroke="#bfbfbf" points="1318.79,-168.5 1318.79,-187.5 1362.79,-187.5 1362.79,-168.5 1318.79,-168.5"/>
<text text-anchor="middle" x="1340.79" y="-175.5" font-family="Helvetica,sans-Serif" font-size="10.00">string</text>
</a>
</g>
</g>
<!-- Node28&#45;&gt;Node29 -->
<g id="edge43" class="edge">
<title>Node28&#45;&gt;Node29</title>
<path fill="none" stroke="midnightblue" d="M1215.7,-229.98C1240.53,-219.86 1282.13,-202.9 1310.48,-191.35"/>
<polygon fill="midnightblue" stroke="midnightblue" points="1311.97,-194.52 1319.91,-187.51 1309.32,-188.04 1311.97,-194.52"/>
</g>
</g>
</svg>
