<?xml version="1.0" encoding="UTF-8" standalone="no"?>
<!DOCTYPE svg PUBLIC "-//W3C//DTD SVG 1.1//EN"
 "http://www.w3.org/Graphics/SVG/1.1/DTD/svg11.dtd">
<!-- Generated by graphviz version 2.43.0 (0)
 -->
<!-- Title: sitkExplicitITKImportImageContainer.h Pages: 1 -->
<svg width="806pt" height="655pt"
 viewBox="0.00 0.00 805.50 655.00" xmlns="http://www.w3.org/2000/svg" xmlns:xlink="http://www.w3.org/1999/xlink">
<g id="graph0" class="graph" transform="scale(1 1) rotate(0) translate(4 651)">
<title>sitkExplicitITKImportImageContainer.h</title>
<polygon fill="white" stroke="transparent" points="-4,4 -4,-651 801.5,-651 801.5,4 -4,4"/>
<!-- Node1 -->
<g id="node1" class="node">
<title>Node1</title>
<g id="a_node1"><a xlink:title=" ">
<polygon fill="#bfbfbf" stroke="black" points="310,-616.5 310,-646.5 459,-646.5 459,-616.5 310,-616.5"/>
<text text-anchor="start" x="318" y="-634.5" font-family="Helvetica,sans-Serif" font-size="10.00">sitkExplicitITKImportImage</text>
<text text-anchor="middle" x="384.5" y="-623.5" font-family="Helvetica,sans-Serif" font-size="10.00">Container.h</text>
</a>
</g>
</g>
<!-- Node2 -->
<g id="node2" class="node">
<title>Node2</title>
<g id="a_node2"><a xlink:href="sitkExplicit_8h.html" target="_top" xlink:title=" ">
<polygon fill="white" stroke="black" points="278.5,-560.5 278.5,-579.5 358.5,-579.5 358.5,-560.5 278.5,-560.5"/>
<text text-anchor="middle" x="318.5" y="-567.5" font-family="Helvetica,sans-Serif" font-size="10.00">sitkExplicit.h</text>
</a>
</g>
</g>
<!-- Node1&#45;&gt;Node2 -->
<g id="edge1" class="edge">
<title>Node1&#45;&gt;Node2</title>
<path fill="none" stroke="midnightblue" d="M368.86,-616.4C358.87,-607.4 345.92,-595.72 335.65,-586.47"/>
<polygon fill="midnightblue" stroke="midnightblue" points="337.87,-583.75 328.1,-579.66 333.19,-588.95 337.87,-583.75"/>
</g>
<!-- Node10 -->
<g id="node10" class="node">
<title>Node10</title>
<g id="a_node10"><a xlink:href="https://www.itk.org/Doxygen/html/itkImportImageContainer_8h.html" xlink:title=" ">
<polygon fill="white" stroke="black" points="450.5,-560.5 450.5,-579.5 598.5,-579.5 598.5,-560.5 450.5,-560.5"/>
<text text-anchor="middle" x="524.5" y="-567.5" font-family="Helvetica,sans-Serif" font-size="10.00">itkImportImageContainer.h</text>
</a>
</g>
</g>
<!-- Node1&#45;&gt;Node10 -->
<g id="edge9" class="edge">
<title>Node1&#45;&gt;Node10</title>
<path fill="none" stroke="midnightblue" d="M417.68,-616.4C441.06,-606.46 472.11,-593.26 494.71,-583.66"/>
<polygon fill="midnightblue" stroke="midnightblue" points="496.29,-586.79 504.13,-579.66 493.56,-580.35 496.29,-586.79"/>
</g>
<!-- Node3 -->
<g id="node3" class="node">
<title>Node3</title>
<g id="a_node3"><a xlink:href="sitkMacro_8h.html" target="_top" xlink:title=" ">
<polygon fill="white" stroke="black" points="206.5,-504.5 206.5,-523.5 280.5,-523.5 280.5,-504.5 206.5,-504.5"/>
<text text-anchor="middle" x="243.5" y="-511.5" font-family="Helvetica,sans-Serif" font-size="10.00">sitkMacro.h</text>
</a>
</g>
</g>
<!-- Node2&#45;&gt;Node3 -->
<g id="edge2" class="edge">
<title>Node2&#45;&gt;Node3</title>
<path fill="none" stroke="midnightblue" d="M306.45,-560.32C295.04,-552.11 277.67,-539.6 264.07,-529.81"/>
<polygon fill="midnightblue" stroke="midnightblue" points="265.93,-526.84 255.77,-523.83 261.84,-532.52 265.93,-526.84"/>
</g>
<!-- Node4 -->
<g id="node4" class="node">
<title>Node4</title>
<g id="a_node4"><a xlink:title=" ">
<polygon fill="white" stroke="#bfbfbf" points="0,-448.5 0,-467.5 53,-467.5 53,-448.5 0,-448.5"/>
<text text-anchor="middle" x="26.5" y="-455.5" font-family="Helvetica,sans-Serif" font-size="10.00">stdint.h</text>
</a>
</g>
</g>
<!-- Node3&#45;&gt;Node4 -->
<g id="edge3" class="edge">
<title>Node3&#45;&gt;Node4</title>
<path fill="none" stroke="midnightblue" d="M209.13,-504.47C174.72,-495.92 119.96,-482.32 63.12,-468.15"/>
<polygon fill="midnightblue" stroke="midnightblue" points="63.79,-464.71 53.24,-465.69 62.09,-471.5 63.79,-464.71"/>
</g>
<!-- Node5 -->
<g id="node5" class="node">
<title>Node5</title>
<g id="a_node5"><a xlink:title=" ">
<polygon fill="white" stroke="#bfbfbf" points="71.5,-448.5 71.5,-467.5 127.5,-467.5 127.5,-448.5 71.5,-448.5"/>
<text text-anchor="middle" x="99.5" y="-455.5" font-family="Helvetica,sans-Serif" font-size="10.00">stddef.h</text>
</a>
</g>
</g>
<!-- Node3&#45;&gt;Node5 -->
<g id="edge4" class="edge">
<title>Node3&#45;&gt;Node5</title>
<path fill="none" stroke="midnightblue" d="M220.68,-504.44C196.67,-495.44 158.67,-481.19 131.63,-471.05"/>
<polygon fill="midnightblue" stroke="midnightblue" points="132.8,-467.75 122.21,-467.52 130.34,-474.3 132.8,-467.75"/>
</g>
<!-- Node6 -->
<g id="node6" class="node">
<title>Node6</title>
<g id="a_node6"><a xlink:title=" ">
<polygon fill="white" stroke="#bfbfbf" points="145.5,-448.5 145.5,-467.5 197.5,-467.5 197.5,-448.5 145.5,-448.5"/>
<text text-anchor="middle" x="171.5" y="-455.5" font-family="Helvetica,sans-Serif" font-size="10.00">cassert</text>
</a>
</g>
</g>
<!-- Node3&#45;&gt;Node6 -->
<g id="edge5" class="edge">
<title>Node3&#45;&gt;Node6</title>
<path fill="none" stroke="midnightblue" d="M231.93,-504.32C221.08,-496.18 204.62,-483.84 191.62,-474.09"/>
<polygon fill="midnightblue" stroke="midnightblue" points="193.38,-471.03 183.28,-467.83 189.18,-476.63 193.38,-471.03"/>
</g>
<!-- Node7 -->
<g id="node7" class="node">
<title>Node7</title>
<g id="a_node7"><a xlink:title=" ">
<polygon fill="white" stroke="#bfbfbf" points="215.5,-448.5 215.5,-467.5 271.5,-467.5 271.5,-448.5 215.5,-448.5"/>
<text text-anchor="middle" x="243.5" y="-455.5" font-family="Helvetica,sans-Serif" font-size="10.00">sstream</text>
</a>
</g>
</g>
<!-- Node3&#45;&gt;Node7 -->
<g id="edge6" class="edge">
<title>Node3&#45;&gt;Node7</title>
<path fill="none" stroke="midnightblue" d="M243.5,-504.08C243.5,-497.01 243.5,-486.86 243.5,-477.99"/>
<polygon fill="midnightblue" stroke="midnightblue" points="247,-477.75 243.5,-467.75 240,-477.75 247,-477.75"/>
</g>
<!-- Node8 -->
<g id="node8" class="node">
<title>Node8</title>
<g id="a_node8"><a xlink:title=" ">
<polygon fill="white" stroke="#bfbfbf" points="289.5,-448.5 289.5,-467.5 333.5,-467.5 333.5,-448.5 289.5,-448.5"/>
<text text-anchor="middle" x="311.5" y="-455.5" font-family="Helvetica,sans-Serif" font-size="10.00">limits</text>
</a>
</g>
</g>
<!-- Node3&#45;&gt;Node8 -->
<g id="edge7" class="edge">
<title>Node3&#45;&gt;Node8</title>
<path fill="none" stroke="midnightblue" d="M254.43,-504.32C264.67,-496.18 280.22,-483.84 292.5,-474.09"/>
<polygon fill="midnightblue" stroke="midnightblue" points="294.72,-476.79 300.38,-467.83 290.37,-471.31 294.72,-476.79"/>
</g>
<!-- Node9 -->
<g id="node9" class="node">
<title>Node9</title>
<g id="a_node9"><a xlink:href="sitkConfigure_8h.html" target="_top" xlink:title=" ">
<polygon fill="white" stroke="black" points="351.5,-448.5 351.5,-467.5 441.5,-467.5 441.5,-448.5 351.5,-448.5"/>
<text text-anchor="middle" x="396.5" y="-455.5" font-family="Helvetica,sans-Serif" font-size="10.00">sitkConfigure.h</text>
</a>
</g>
</g>
<!-- Node3&#45;&gt;Node9 -->
<g id="edge8" class="edge">
<title>Node3&#45;&gt;Node9</title>
<path fill="none" stroke="midnightblue" d="M267.74,-504.44C293.37,-495.4 333.99,-481.06 362.74,-470.92"/>
<polygon fill="midnightblue" stroke="midnightblue" points="364.11,-474.15 372.37,-467.52 361.78,-467.54 364.11,-474.15"/>
</g>
<!-- Node11 -->
<g id="node11" class="node">
<title>Node11</title>
<g id="a_node11"><a xlink:href="https://www.itk.org/Doxygen/html/itkObject_8h.html" xlink:title=" ">
<polygon fill="white" stroke="black" points="576.5,-336.5 576.5,-355.5 646.5,-355.5 646.5,-336.5 576.5,-336.5"/>
<text text-anchor="middle" x="611.5" y="-343.5" font-family="Helvetica,sans-Serif" font-size="10.00">itkObject.h</text>
</a>
</g>
</g>
<!-- Node10&#45;&gt;Node11 -->
<g id="edge10" class="edge">
<title>Node10&#45;&gt;Node11</title>
<path fill="none" stroke="midnightblue" d="M539.28,-560.34C552.45,-552.14 571.73,-538.87 585.5,-524 625.38,-480.93 639.32,-468.43 655.5,-412 657.95,-403.46 658.86,-400.23 655.5,-392 650.7,-380.23 641.17,-369.86 632.21,-362.05"/>
<polygon fill="midnightblue" stroke="midnightblue" points="634.25,-359.2 624.28,-355.63 629.85,-364.64 634.25,-359.2"/>
</g>
<!-- Node22 -->
<g id="node22" class="node">
<title>Node22</title>
<g id="a_node22"><a xlink:href="https://www.itk.org/Doxygen/html/itkObjectFactory_8h.html" xlink:title=" ">
<polygon fill="white" stroke="black" points="472.5,-504.5 472.5,-523.5 576.5,-523.5 576.5,-504.5 472.5,-504.5"/>
<text text-anchor="middle" x="524.5" y="-511.5" font-family="Helvetica,sans-Serif" font-size="10.00">itkObjectFactory.h</text>
</a>
</g>
</g>
<!-- Node10&#45;&gt;Node22 -->
<g id="edge28" class="edge">
<title>Node10&#45;&gt;Node22</title>
<path fill="none" stroke="midnightblue" d="M524.5,-560.08C524.5,-553.01 524.5,-542.86 524.5,-533.99"/>
<polygon fill="midnightblue" stroke="midnightblue" points="528,-533.75 524.5,-523.75 521,-533.75 528,-533.75"/>
</g>
<!-- Node12 -->
<g id="node12" class="node">
<title>Node12</title>
<g id="a_node12"><a xlink:href="https://www.itk.org/Doxygen/html/itkLightObject_8h.html" xlink:title=" ">
<polygon fill="white" stroke="black" points="565.5,-168.5 565.5,-187.5 659.5,-187.5 659.5,-168.5 565.5,-168.5"/>
<text text-anchor="middle" x="612.5" y="-175.5" font-family="Helvetica,sans-Serif" font-size="10.00">itkLightObject.h</text>
</a>
</g>
</g>
<!-- Node11&#45;&gt;Node12 -->
<g id="edge11" class="edge">
<title>Node11&#45;&gt;Node12</title>
<path fill="none" stroke="midnightblue" d="M600.36,-336.38C590.75,-328.19 577.49,-314.94 571.5,-300 558.93,-268.64 556.92,-255.36 569.5,-224 574.18,-212.33 583.49,-201.97 592.26,-194.14"/>
<polygon fill="midnightblue" stroke="midnightblue" points="594.55,-196.78 600,-187.7 590.08,-191.4 594.55,-196.78"/>
</g>
<!-- Node17 -->
<g id="node17" class="node">
<title>Node17</title>
<g id="a_node17"><a xlink:href="https://www.itk.org/Doxygen/html/itkSingletonMacro_8h.html" xlink:title=" ">
<polygon fill="white" stroke="black" points="441.5,-56.5 441.5,-75.5 555.5,-75.5 555.5,-56.5 441.5,-56.5"/>
<text text-anchor="middle" x="498.5" y="-63.5" font-family="Helvetica,sans-Serif" font-size="10.00">itkSingletonMacro.h</text>
</a>
</g>
</g>
<!-- Node11&#45;&gt;Node17 -->
<g id="edge27" class="edge">
<title>Node11&#45;&gt;Node17</title>
<path fill="none" stroke="midnightblue" d="M594.71,-336.32C566.46,-320.37 512.5,-283.56 512.5,-235 512.5,-235 512.5,-235 512.5,-177 512.5,-144.54 506.43,-107.12 502.28,-85.36"/>
<polygon fill="midnightblue" stroke="midnightblue" points="505.71,-84.64 500.33,-75.51 498.84,-86 505.71,-84.64"/>
</g>
<!-- Node19 -->
<g id="node19" class="node">
<title>Node19</title>
<g id="a_node19"><a xlink:href="https://www.itk.org/Doxygen/html/itkEventObject_8h.html" xlink:title=" ">
<polygon fill="white" stroke="black" points="699.5,-168.5 699.5,-187.5 797.5,-187.5 797.5,-168.5 699.5,-168.5"/>
<text text-anchor="middle" x="748.5" y="-175.5" font-family="Helvetica,sans-Serif" font-size="10.00">itkEventObject.h</text>
</a>
</g>
</g>
<!-- Node11&#45;&gt;Node19 -->
<g id="edge21" class="edge">
<title>Node11&#45;&gt;Node19</title>
<path fill="none" stroke="midnightblue" d="M646.65,-340.25C672.34,-334.89 705.96,-323.6 725.5,-300 749.73,-270.73 751.4,-223.79 750.16,-197.82"/>
<polygon fill="midnightblue" stroke="midnightblue" points="753.65,-197.53 749.48,-187.79 746.66,-198 753.65,-197.53"/>
</g>
<!-- Node20 -->
<g id="node20" class="node">
<title>Node20</title>
<g id="a_node20"><a xlink:href="https://www.itk.org/Doxygen/html/itkMetaDataDictionary_8h.html" xlink:title=" ">
<polygon fill="white" stroke="black" points="581,-280.5 581,-299.5 716,-299.5 716,-280.5 581,-280.5"/>
<text text-anchor="middle" x="648.5" y="-287.5" font-family="Helvetica,sans-Serif" font-size="10.00">itkMetaDataDictionary.h</text>
</a>
</g>
</g>
<!-- Node11&#45;&gt;Node20 -->
<g id="edge24" class="edge">
<title>Node11&#45;&gt;Node20</title>
<path fill="none" stroke="midnightblue" d="M617.61,-336.08C622.78,-328.53 630.35,-317.49 636.69,-308.23"/>
<polygon fill="midnightblue" stroke="midnightblue" points="639.74,-309.98 642.5,-299.75 633.96,-306.02 639.74,-309.98"/>
</g>
<!-- Node13 -->
<g id="node13" class="node">
<title>Node13</title>
<g id="a_node13"><a xlink:href="https://www.itk.org/Doxygen/html/itkMacro_8h.html" xlink:title=" ">
<polygon fill="white" stroke="black" points="636.5,-0.5 636.5,-19.5 704.5,-19.5 704.5,-0.5 636.5,-0.5"/>
<text text-anchor="middle" x="670.5" y="-7.5" font-family="Helvetica,sans-Serif" font-size="10.00">itkMacro.h</text>
</a>
</g>
</g>
<!-- Node12&#45;&gt;Node13 -->
<g id="edge12" class="edge">
<title>Node12&#45;&gt;Node13</title>
<path fill="none" stroke="midnightblue" d="M622.59,-168.46C631.71,-160.14 644.7,-146.63 651.5,-132 667.12,-98.37 670.28,-54.41 670.7,-29.8"/>
<polygon fill="midnightblue" stroke="midnightblue" points="674.2,-29.69 670.74,-19.68 667.2,-29.67 674.2,-29.69"/>
</g>
<!-- Node14 -->
<g id="node14" class="node">
<title>Node14</title>
<g id="a_node14"><a xlink:href="https://www.itk.org/Doxygen/html/itkSmartPointer_8h.html" xlink:title=" ">
<polygon fill="white" stroke="black" points="541,-112.5 541,-131.5 642,-131.5 642,-112.5 541,-112.5"/>
<text text-anchor="middle" x="591.5" y="-119.5" font-family="Helvetica,sans-Serif" font-size="10.00">itkSmartPointer.h</text>
</a>
</g>
</g>
<!-- Node12&#45;&gt;Node14 -->
<g id="edge13" class="edge">
<title>Node12&#45;&gt;Node14</title>
<path fill="none" stroke="midnightblue" d="M609.03,-168.08C606.19,-160.77 602.07,-150.18 598.54,-141.1"/>
<polygon fill="midnightblue" stroke="midnightblue" points="601.79,-139.8 594.9,-131.75 595.27,-142.34 601.79,-139.8"/>
</g>
<!-- Node15 -->
<g id="node15" class="node">
<title>Node15</title>
<g id="a_node15"><a xlink:href="https://www.itk.org/Doxygen/html/itkTimeStamp_8h.html" xlink:title=" ">
<polygon fill="white" stroke="black" points="351,-112.5 351,-131.5 446,-131.5 446,-112.5 351,-112.5"/>
<text text-anchor="middle" x="398.5" y="-119.5" font-family="Helvetica,sans-Serif" font-size="10.00">itkTimeStamp.h</text>
</a>
</g>
</g>
<!-- Node12&#45;&gt;Node15 -->
<g id="edge14" class="edge">
<title>Node12&#45;&gt;Node15</title>
<path fill="none" stroke="midnightblue" d="M578.59,-168.44C541.65,-159.12 482.45,-144.18 442.08,-134"/>
<polygon fill="midnightblue" stroke="midnightblue" points="442.8,-130.57 432.25,-131.52 441.09,-137.36 442.8,-130.57"/>
</g>
<!-- Node18 -->
<g id="node18" class="node">
<title>Node18</title>
<g id="a_node18"><a xlink:href="https://www.itk.org/Doxygen/html/itkIndent_8h.html" xlink:title=" ">
<polygon fill="white" stroke="black" points="699,-112.5 699,-131.5 768,-131.5 768,-112.5 699,-112.5"/>
<text text-anchor="middle" x="733.5" y="-119.5" font-family="Helvetica,sans-Serif" font-size="10.00">itkIndent.h</text>
</a>
</g>
</g>
<!-- Node12&#45;&gt;Node18 -->
<g id="edge19" class="edge">
<title>Node12&#45;&gt;Node18</title>
<path fill="none" stroke="midnightblue" d="M631.67,-168.44C651.41,-159.64 682.39,-145.81 704.99,-135.72"/>
<polygon fill="midnightblue" stroke="midnightblue" points="706.71,-138.79 714.42,-131.52 703.86,-132.4 706.71,-138.79"/>
</g>
<!-- Node15&#45;&gt;Node13 -->
<g id="edge15" class="edge">
<title>Node15&#45;&gt;Node13</title>
<path fill="none" stroke="midnightblue" d="M400.47,-112.24C404.14,-98.03 413.47,-70.11 432.5,-56 462.6,-33.69 566.11,-20.64 626.25,-14.76"/>
<polygon fill="midnightblue" stroke="midnightblue" points="626.6,-18.24 636.23,-13.81 625.94,-11.27 626.6,-18.24"/>
</g>
<!-- Node16 -->
<g id="node16" class="node">
<title>Node16</title>
<g id="a_node16"><a xlink:href="https://www.itk.org/Doxygen/html/itkIntTypes_8h.html" xlink:title=" ">
<polygon fill="white" stroke="black" points="306,-56.5 306,-75.5 385,-75.5 385,-56.5 306,-56.5"/>
<text text-anchor="middle" x="345.5" y="-63.5" font-family="Helvetica,sans-Serif" font-size="10.00">itkIntTypes.h</text>
</a>
</g>
</g>
<!-- Node15&#45;&gt;Node16 -->
<g id="edge16" class="edge">
<title>Node15&#45;&gt;Node16</title>
<path fill="none" stroke="midnightblue" d="M389.75,-112.08C382.03,-104.22 370.6,-92.57 361.28,-83.08"/>
<polygon fill="midnightblue" stroke="midnightblue" points="363.59,-80.44 354.09,-75.75 358.6,-85.34 363.59,-80.44"/>
</g>
<!-- Node15&#45;&gt;Node17 -->
<g id="edge18" class="edge">
<title>Node15&#45;&gt;Node17</title>
<path fill="none" stroke="midnightblue" d="M414.57,-112.32C430.46,-103.74 455.01,-90.49 473.46,-80.52"/>
<polygon fill="midnightblue" stroke="midnightblue" points="475.34,-83.49 482.47,-75.65 472.01,-77.33 475.34,-83.49"/>
</g>
<!-- Node16&#45;&gt;Node13 -->
<g id="edge17" class="edge">
<title>Node16&#45;&gt;Node13</title>
<path fill="none" stroke="midnightblue" d="M385.02,-58.41C389.9,-57.6 394.81,-56.78 399.5,-56 479.33,-42.72 572.4,-27.27 626.08,-18.37"/>
<polygon fill="midnightblue" stroke="midnightblue" points="626.98,-21.77 636.28,-16.68 625.84,-14.86 626.98,-21.77"/>
</g>
<!-- Node18&#45;&gt;Node13 -->
<g id="edge20" class="edge">
<title>Node18&#45;&gt;Node13</title>
<path fill="none" stroke="midnightblue" d="M728.56,-112.37C718.21,-94.3 694.08,-52.18 680.41,-28.31"/>
<polygon fill="midnightblue" stroke="midnightblue" points="683.43,-26.53 675.42,-19.59 677.35,-30.01 683.43,-26.53"/>
</g>
<!-- Node19&#45;&gt;Node13 -->
<g id="edge22" class="edge">
<title>Node19&#45;&gt;Node13</title>
<path fill="none" stroke="midnightblue" d="M757.36,-168.2C768.79,-155.73 786.21,-132.2 777.5,-112 760.67,-72.97 720.52,-42.01 694.47,-25.12"/>
<polygon fill="midnightblue" stroke="midnightblue" points="696.24,-22.09 685.91,-19.74 692.51,-28.02 696.24,-22.09"/>
</g>
<!-- Node19&#45;&gt;Node18 -->
<g id="edge23" class="edge">
<title>Node19&#45;&gt;Node18</title>
<path fill="none" stroke="midnightblue" d="M746.02,-168.08C744.01,-160.85 741.11,-150.41 738.61,-141.4"/>
<polygon fill="midnightblue" stroke="midnightblue" points="741.98,-140.45 735.93,-131.75 735.24,-142.32 741.98,-140.45"/>
</g>
<!-- Node21 -->
<g id="node21" class="node">
<title>Node21</title>
<g id="a_node21"><a xlink:href="https://www.itk.org/Doxygen/html/itkMetaDataObjectBase_8h.html" xlink:title=" ">
<polygon fill="white" stroke="black" points="578.5,-224.5 578.5,-243.5 720.5,-243.5 720.5,-224.5 578.5,-224.5"/>
<text text-anchor="middle" x="649.5" y="-231.5" font-family="Helvetica,sans-Serif" font-size="10.00">itkMetaDataObjectBase.h</text>
</a>
</g>
</g>
<!-- Node20&#45;&gt;Node21 -->
<g id="edge25" class="edge">
<title>Node20&#45;&gt;Node21</title>
<path fill="none" stroke="midnightblue" d="M648.67,-280.08C648.8,-273.01 648.98,-262.86 649.15,-253.99"/>
<polygon fill="midnightblue" stroke="midnightblue" points="652.65,-253.81 649.34,-243.75 645.65,-253.68 652.65,-253.81"/>
</g>
<!-- Node21&#45;&gt;Node12 -->
<g id="edge26" class="edge">
<title>Node21&#45;&gt;Node12</title>
<path fill="none" stroke="midnightblue" d="M643.39,-224.08C638.22,-216.53 630.65,-205.49 624.31,-196.23"/>
<polygon fill="midnightblue" stroke="midnightblue" points="627.04,-194.02 618.5,-187.75 621.26,-197.98 627.04,-194.02"/>
</g>
<!-- Node23 -->
<g id="node23" class="node">
<title>Node23</title>
<g id="a_node23"><a xlink:href="https://www.itk.org/Doxygen/html/itkObjectFactoryBase_8h.html" xlink:title=" ">
<polygon fill="white" stroke="black" points="460,-448.5 460,-467.5 589,-467.5 589,-448.5 460,-448.5"/>
<text text-anchor="middle" x="524.5" y="-455.5" font-family="Helvetica,sans-Serif" font-size="10.00">itkObjectFactoryBase.h</text>
</a>
</g>
</g>
<!-- Node22&#45;&gt;Node23 -->
<g id="edge29" class="edge">
<title>Node22&#45;&gt;Node23</title>
<path fill="none" stroke="midnightblue" d="M524.5,-504.08C524.5,-497.01 524.5,-486.86 524.5,-477.99"/>
<polygon fill="midnightblue" stroke="midnightblue" points="528,-477.75 524.5,-467.75 521,-477.75 528,-477.75"/>
</g>
<!-- Node23&#45;&gt;Node17 -->
<g id="edge32" class="edge">
<title>Node23&#45;&gt;Node17</title>
<path fill="none" stroke="midnightblue" d="M517.18,-448.22C510.24,-439.51 499.94,-425.54 493.5,-412 480.58,-384.82 474.5,-377.1 474.5,-347 474.5,-347 474.5,-347 474.5,-177 474.5,-144.06 484.9,-106.82 492.01,-85.21"/>
<polygon fill="midnightblue" stroke="midnightblue" points="495.34,-86.29 495.26,-75.7 488.72,-84.03 495.34,-86.29"/>
</g>
<!-- Node24 -->
<g id="node24" class="node">
<title>Node24</title>
<g id="a_node24"><a xlink:href="https://www.itk.org/Doxygen/html/itkCreateObjectFunction_8h.html" xlink:title=" ">
<polygon fill="white" stroke="black" points="503,-392.5 503,-411.5 646,-411.5 646,-392.5 503,-392.5"/>
<text text-anchor="middle" x="574.5" y="-399.5" font-family="Helvetica,sans-Serif" font-size="10.00">itkCreateObjectFunction.h</text>
</a>
</g>
</g>
<!-- Node23&#45;&gt;Node24 -->
<g id="edge30" class="edge">
<title>Node23&#45;&gt;Node24</title>
<path fill="none" stroke="midnightblue" d="M532.76,-448.08C539.96,-440.3 550.61,-428.8 559.35,-419.37"/>
<polygon fill="midnightblue" stroke="midnightblue" points="562.17,-421.47 566.4,-411.75 557.03,-416.71 562.17,-421.47"/>
</g>
<!-- Node25 -->
<g id="node25" class="node">
<title>Node25</title>
<g id="a_node25"><a xlink:href="https://www.itk.org/Doxygen/html/itkCommonEnums_8h.html" xlink:title=" ">
<polygon fill="white" stroke="black" points="297.5,-336.5 297.5,-355.5 413.5,-355.5 413.5,-336.5 297.5,-336.5"/>
<text text-anchor="middle" x="355.5" y="-343.5" font-family="Helvetica,sans-Serif" font-size="10.00">itkCommonEnums.h</text>
</a>
</g>
</g>
<!-- Node23&#45;&gt;Node25 -->
<g id="edge33" class="edge">
<title>Node23&#45;&gt;Node25</title>
<path fill="none" stroke="midnightblue" d="M511.24,-448.37C482.24,-429.49 412.94,-384.38 377.37,-361.24"/>
<polygon fill="midnightblue" stroke="midnightblue" points="378.99,-358.11 368.7,-355.59 375.17,-363.98 378.99,-358.11"/>
</g>
<!-- Node24&#45;&gt;Node11 -->
<g id="edge31" class="edge">
<title>Node24&#45;&gt;Node11</title>
<path fill="none" stroke="midnightblue" d="M580.61,-392.08C585.78,-384.53 593.35,-373.49 599.69,-364.23"/>
<polygon fill="midnightblue" stroke="midnightblue" points="602.74,-365.98 605.5,-355.75 596.96,-362.02 602.74,-365.98"/>
</g>
<!-- Node25&#45;&gt;Node16 -->
<g id="edge34" class="edge">
<title>Node25&#45;&gt;Node16</title>
<path fill="none" stroke="midnightblue" d="M351.05,-336.42C342.04,-318.24 322.5,-274.28 322.5,-235 322.5,-235 322.5,-235 322.5,-177 322.5,-144.12 332.47,-106.86 339.28,-85.24"/>
<polygon fill="midnightblue" stroke="midnightblue" points="342.61,-86.3 342.4,-75.71 335.96,-84.12 342.61,-86.3"/>
</g>
</g>
</svg>
