<?xml version="1.0" encoding="UTF-8" standalone="no"?>
<!DOCTYPE svg PUBLIC "-//W3C//DTD SVG 1.1//EN"
 "http://www.w3.org/Graphics/SVG/1.1/DTD/svg11.dtd">
<!-- Generated by graphviz version 2.43.0 (0)
 -->
<!-- Title: sitkShow.h Pages: 1 -->
<!--zoomable 533 -->

<svg id="main" version="1.1" xmlns="http://www.w3.org/2000/svg" xmlns:xlink="http://www.w3.org/1999/xlink" xml:space="preserve" onload="init(evt)">

<style type="text/css"><![CDATA[
.node, .edge {opacity: 0.7;}
.node.selected, .edge.selected {opacity: 1;}
.edge:hover path { stroke: red; }
.edge:hover polygon { stroke: red; fill: red; }
]]></style>

<defs>
  <circle id="rim" cx="0" cy="0" r="7"/>
  <circle id="rim2" cx="0" cy="0" r="3.5"/>
  <g id="zoomPlus">
    <use xlink:href="#rim" fill="#404040"><set attributeName="fill" to="#808080" begin="zoomplus.mouseover" end="zoomplus.mouseout"/></use>
    <path d="M-4,0h8M0,-4v8" fill="none" stroke="white" stroke-width="1.5" pointer-events="none"/>
  </g>
  <g id="zoomMin">
    <use xlink:href="#rim" fill="#404040"><set attributeName="fill" to="#808080" begin="zoomminus.mouseover" end="zoomminus.mouseout"/></use>
    <path d="M-4,0h8" fill="none" stroke="white" stroke-width="1.5" pointer-events="none"/>
  </g>
  <g id="arrowUp" transform="translate(30 24)">
    <use xlink:href="#rim"/>
    <path pointer-events="none" fill="none" stroke="white" stroke-width="1.5" d="M0,-3.0v7 M-2.5,-0.5L0,-3.0L2.5,-0.5"/>
  </g>
  <g id="arrowRight" transform="rotate(90) translate(36 -43)">
    <use xlink:href="#rim"/>
    <path pointer-events="none" fill="none" stroke="white" stroke-width="1.5" d="M0,-3.0v7 M-2.5,-0.5L0,-3.0L2.5,-0.5"/>
  </g>
  <g id="arrowDown" transform="rotate(180) translate(-30 -48)">
    <use xlink:href="#rim"/>
    <path pointer-events="none" fill="none" stroke="white" stroke-width="1.5" d="M0,-3.0v7 M-2.5,-0.5L0,-3.0L2.5,-0.5"/>
  </g>
  <g id="arrowLeft" transform="rotate(270) translate(-36 17)">
    <use xlink:href="#rim"/>
    <path pointer-events="none" fill="none" stroke="white" stroke-width="1.5" d="M0,-3.0v7 M-2.5,-0.5L0,-3.0L2.5,-0.5"/>
  </g>
  <g id="resetDef">
    <use xlink:href="#rim2" fill="#404040"><set attributeName="fill" to="#808080" begin="reset.mouseover" end="reset.mouseout"/></use>
  </g>
</defs>
<script type="application/ecmascript">
var viewWidth = 1710;
var viewHeight = 533;
var sectionId = 'dynsection-0';
</script>
<script type="application/ecmascript" xlink:href="svg.min.js"/>
<svg id="graph" class="graph">
<g id="viewport">
<title>sitkShow.h</title>
<!-- Node1 -->
<g id="Node000001" class="node">
<title>Node1</title>
<g id="a_Node000001"><a xlink:title=" ">
<polygon fill="#999999" stroke="#666666" points="582.58,-525 513.58,-525 513.58,-506 582.58,-506 582.58,-525"/>
<text text-anchor="middle" x="548.08" y="-513" font-family="Helvetica,sans-Serif" font-size="10.00">sitkShow.h</text>
</a>
</g>
</g>
<!-- Node2 -->
<g id="Node000002" class="node">
<title>Node2</title>
<g id="a_Node000002"><a xlink:href="sitkImage_8h.html" target="_top" xlink:title=" ">
<polygon fill="white" stroke="#666666" points="798.08,-360 724.08,-360 724.08,-341 798.08,-341 798.08,-360"/>
<text text-anchor="middle" x="761.08" y="-348" font-family="Helvetica,sans-Serif" font-size="10.00">sitkImage.h</text>
</a>
</g>
</g>
<!-- Node1&#45;&gt;Node2 -->
<g id="edge1_Node000001_Node000002" class="edge">
<title>Node1&#45;&gt;Node2</title>
<g id="a_edge1_Node000001_Node000002"><a xlink:title=" ">
<path fill="none" stroke="#63b8ff" d="M582.82,-509.79C632.35,-500.99 721.62,-476.97 761.08,-415 769.49,-401.78 768.56,-383.65 766.07,-370.15"/>
<polygon fill="#63b8ff" stroke="#63b8ff" points="769.41,-369.08 763.78,-360.11 762.59,-370.64 769.41,-369.08"/>
</a>
</g>
</g>
<!-- Node34 -->
<g id="Node000034" class="node">
<title>Node34</title>
<g id="a_Node000034"><a xlink:href="sitkIO_8h.html" target="_top" xlink:title=" ">
<polygon fill="white" stroke="#666666" points="163.08,-360 109.08,-360 109.08,-341 163.08,-341 163.08,-360"/>
<text text-anchor="middle" x="136.08" y="-348" font-family="Helvetica,sans-Serif" font-size="10.00">sitkIO.h</text>
</a>
</g>
</g>
<!-- Node1&#45;&gt;Node34 -->
<g id="edge54_Node000001_Node000034" class="edge">
<title>Node1&#45;&gt;Node34</title>
<g id="a_edge54_Node000001_Node000034"><a xlink:title=" ">
<path fill="none" stroke="#63b8ff" d="M526.51,-505.97C458.39,-479.02 247.66,-395.65 167.48,-363.92"/>
<polygon fill="#63b8ff" stroke="#63b8ff" points="168.52,-360.57 157.93,-360.15 165.94,-367.08 168.52,-360.57"/>
</a>
</g>
</g>
<!-- Node35 -->
<g id="Node000035" class="node">
<title>Node35</title>
<g id="a_Node000035"><a xlink:href="sitkProcessObject_8h.html" target="_top" xlink:title=" ">
<polygon fill="white" stroke="#666666" points="604.58,-470 491.58,-470 491.58,-451 604.58,-451 604.58,-470"/>
<text text-anchor="middle" x="548.08" y="-458" font-family="Helvetica,sans-Serif" font-size="10.00">sitkProcessObject.h</text>
</a>
</g>
</g>
<!-- Node1&#45;&gt;Node35 -->
<g id="edge56_Node000001_Node000035" class="edge">
<title>Node1&#45;&gt;Node35</title>
<g id="a_edge56_Node000001_Node000035"><a xlink:title=" ">
<path fill="none" stroke="#63b8ff" d="M548.08,-505.75C548.08,-498.8 548.08,-488.85 548.08,-480.13"/>
<polygon fill="#63b8ff" stroke="#63b8ff" points="551.58,-480.09 548.08,-470.09 544.58,-480.09 551.58,-480.09"/>
</a>
</g>
</g>
<!-- Node3 -->
<g id="Node000003" class="node">
<title>Node3</title>
<g id="a_Node000003"><a xlink:href="sitkCommon_8h.html" target="_top" xlink:title=" ">
<polygon fill="white" stroke="#666666" points="689.08,-129 601.08,-129 601.08,-110 689.08,-110 689.08,-129"/>
<text text-anchor="middle" x="645.08" y="-117" font-family="Helvetica,sans-Serif" font-size="10.00">sitkCommon.h</text>
</a>
</g>
</g>
<!-- Node2&#45;&gt;Node3 -->
<g id="edge2_Node000002_Node000003" class="edge">
<title>Node2&#45;&gt;Node3</title>
<g id="a_edge2_Node000002_Node000003"><a xlink:title=" ">
<path fill="none" stroke="#63b8ff" d="M798.16,-341.64C869.01,-325 1012.21,-282.52 961.08,-220 909.97,-157.53 859.39,-210.28 783.08,-184 765.22,-177.85 762.15,-173.06 745.08,-165 721.45,-153.84 694.35,-141.83 674.33,-133.11"/>
<polygon fill="#63b8ff" stroke="#63b8ff" points="675.68,-129.88 665.12,-129.1 672.9,-136.3 675.68,-129.88"/>
</a>
</g>
</g>
<!-- Node11 -->
<g id="Node000011" class="node">
<title>Node11</title>
<g id="a_Node000011"><a xlink:href="sitkTemplateFunctions_8h.html" target="_top" xlink:title=" ">
<polygon fill="white" stroke="#666666" points="375.58,-244.5 240.58,-244.5 240.58,-225.5 375.58,-225.5 375.58,-244.5"/>
<text text-anchor="middle" x="308.08" y="-232.5" font-family="Helvetica,sans-Serif" font-size="10.00">sitkTemplateFunctions.h</text>
</a>
</g>
</g>
<!-- Node2&#45;&gt;Node11 -->
<g id="edge10_Node000002_Node000011" class="edge">
<title>Node2&#45;&gt;Node11</title>
<g id="a_edge10_Node000002_Node000011"><a xlink:title=" ">
<path fill="none" stroke="#63b8ff" d="M723.82,-347.73C642.07,-343.43 449.51,-330.79 390.08,-305 362.46,-293.02 337,-268.62 322,-252.29"/>
<polygon fill="#63b8ff" stroke="#63b8ff" points="324.41,-249.73 315.15,-244.59 319.18,-254.39 324.41,-249.73"/>
</a>
</g>
</g>
<!-- Node13 -->
<g id="Node000013" class="node">
<title>Node13</title>
<g id="a_Node000013"><a xlink:title=" ">
<polygon fill="#e0e0e0" stroke="#999999" points="469.08,-129 411.08,-129 411.08,-110 469.08,-110 469.08,-129"/>
<text text-anchor="middle" x="440.08" y="-117" font-family="Helvetica,sans-Serif" font-size="10.00">memory</text>
</a>
</g>
</g>
<!-- Node2&#45;&gt;Node13 -->
<g id="edge52_Node000002_Node000013" class="edge">
<title>Node2&#45;&gt;Node13</title>
<g id="a_edge52_Node000002_Node000013"><a xlink:title=" ">
<path fill="none" stroke="#63b8ff" d="M724.01,-342.46C651.3,-327.87 494.19,-292.11 461.08,-250 437.65,-220.2 461.36,-202.2 454.08,-165 452.36,-156.26 449.54,-146.81 446.87,-138.88"/>
<polygon fill="#63b8ff" stroke="#63b8ff" points="450.09,-137.48 443.45,-129.22 443.49,-139.81 450.09,-137.48"/>
</a>
</g>
</g>
<!-- Node14 -->
<g id="Node000014" class="node">
<title>Node14</title>
<g id="a_Node000014"><a xlink:title=" ">
<polygon fill="#e0e0e0" stroke="#999999" points="445.58,-184 398.58,-184 398.58,-165 445.58,-165 445.58,-184"/>
<text text-anchor="middle" x="422.08" y="-172" font-family="Helvetica,sans-Serif" font-size="10.00">vector</text>
</a>
</g>
</g>
<!-- Node2&#45;&gt;Node14 -->
<g id="edge51_Node000002_Node000014" class="edge">
<title>Node2&#45;&gt;Node14</title>
<g id="a_edge51_Node000002_Node000014"><a xlink:title=" ">
<path fill="none" stroke="#63b8ff" d="M723.75,-345.84C677.3,-340.5 596.05,-328.52 530.08,-305 481.56,-287.71 456.23,-293.13 428.08,-250 417.35,-233.56 417.2,-210.54 418.88,-194.45"/>
<polygon fill="#63b8ff" stroke="#63b8ff" points="422.4,-194.54 420.3,-184.15 415.47,-193.58 422.4,-194.54"/>
</a>
</g>
</g>
<!-- Node18 -->
<g id="Node000018" class="node">
<title>Node18</title>
<g id="a_Node000018"><a xlink:href="sitkDetail_8h.html" target="_top" xlink:title=" ">
<polygon fill="white" stroke="#666666" points="1119.58,-305 1046.58,-305 1046.58,-286 1119.58,-286 1119.58,-305"/>
<text text-anchor="middle" x="1083.08" y="-293" font-family="Helvetica,sans-Serif" font-size="10.00">sitkDetail.h</text>
</a>
</g>
</g>
<!-- Node2&#45;&gt;Node18 -->
<g id="edge21_Node000002_Node000018" class="edge">
<title>Node2&#45;&gt;Node18</title>
<g id="a_edge21_Node000002_Node000018"><a xlink:title=" ">
<path fill="none" stroke="#63b8ff" d="M798.33,-343.37C857.26,-333.67 971.88,-314.8 1036.27,-304.2"/>
<polygon fill="#63b8ff" stroke="#63b8ff" points="1036.86,-307.65 1046.16,-302.58 1035.72,-300.75 1036.86,-307.65"/>
</a>
</g>
</g>
<!-- Node29 -->
<g id="Node000029" class="node">
<title>Node29</title>
<g id="a_Node000029"><a xlink:href="sitkPixelIDTokens_8h.html" target="_top" xlink:title=" ">
<polygon fill="white" stroke="#666666" points="857.08,-305 747.08,-305 747.08,-286 857.08,-286 857.08,-305"/>
<text text-anchor="middle" x="802.08" y="-293" font-family="Helvetica,sans-Serif" font-size="10.00">sitkPixelIDTokens.h</text>
</a>
</g>
</g>
<!-- Node2&#45;&gt;Node29 -->
<g id="edge40_Node000002_Node000029" class="edge">
<title>Node2&#45;&gt;Node29</title>
<g id="a_edge40_Node000002_Node000029"><a xlink:title=" ">
<path fill="none" stroke="#63b8ff" d="M767.85,-340.75C773.64,-333.26 782.13,-322.28 789.21,-313.13"/>
<polygon fill="#63b8ff" stroke="#63b8ff" points="792.08,-315.14 795.43,-305.09 786.54,-310.86 792.08,-315.14"/>
</a>
</g>
</g>
<!-- Node32 -->
<g id="Node000032" class="node">
<title>Node32</title>
<g id="a_Node000032"><a xlink:title=" ">
<polygon fill="#e0e0e0" stroke="#999999" points="951.58,-244.5 882.58,-244.5 882.58,-225.5 951.58,-225.5 951.58,-244.5"/>
<text text-anchor="middle" x="917.08" y="-232.5" font-family="Helvetica,sans-Serif" font-size="10.00">type_traits</text>
</a>
</g>
</g>
<!-- Node2&#45;&gt;Node32 -->
<g id="edge53_Node000002_Node000032" class="edge">
<title>Node2&#45;&gt;Node32</title>
<g id="a_edge53_Node000002_Node000032"><a xlink:title=" ">
<path fill="none" stroke="#63b8ff" d="M792.81,-340.94C814.95,-333.86 844.31,-322.16 866.08,-305 883.93,-290.93 898.61,-269.12 907.57,-253.8"/>
<polygon fill="#63b8ff" stroke="#63b8ff" points="910.77,-255.24 912.6,-244.81 904.66,-251.82 910.77,-255.24"/>
</a>
</g>
</g>
<!-- Node33 -->
<g id="Node000033" class="node">
<title>Node33</title>
<g id="a_Node000033"><a xlink:href="sitkInterpolator_8h.html" target="_top" xlink:title=" ">
<polygon fill="white" stroke="#666666" points="660.08,-244.5 560.08,-244.5 560.08,-225.5 660.08,-225.5 660.08,-244.5"/>
<text text-anchor="middle" x="610.08" y="-232.5" font-family="Helvetica,sans-Serif" font-size="10.00">sitkInterpolator.h</text>
</a>
</g>
</g>
<!-- Node2&#45;&gt;Node33 -->
<g id="edge48_Node000002_Node000033" class="edge">
<title>Node2&#45;&gt;Node33</title>
<g id="a_edge48_Node000002_Node000033"><a xlink:title=" ">
<path fill="none" stroke="#63b8ff" d="M749.73,-340.97C724.15,-321.74 661.74,-274.83 629.73,-250.77"/>
<polygon fill="#63b8ff" stroke="#63b8ff" points="631.65,-247.84 621.56,-244.63 627.45,-253.44 631.65,-247.84"/>
</a>
</g>
</g>
<!-- Node4 -->
<g id="Node000004" class="node">
<title>Node4</title>
<g id="a_Node000004"><a xlink:href="sitkMacro_8h.html" target="_top" xlink:title=" ">
<polygon fill="white" stroke="#666666" points="682.08,-74 608.08,-74 608.08,-55 682.08,-55 682.08,-74"/>
<text text-anchor="middle" x="645.08" y="-62" font-family="Helvetica,sans-Serif" font-size="10.00">sitkMacro.h</text>
</a>
</g>
</g>
<!-- Node3&#45;&gt;Node4 -->
<g id="edge3_Node000003_Node000004" class="edge">
<title>Node3&#45;&gt;Node4</title>
<g id="a_edge3_Node000003_Node000004"><a xlink:title=" ">
<path fill="none" stroke="#63b8ff" d="M645.08,-109.75C645.08,-102.8 645.08,-92.85 645.08,-84.13"/>
<polygon fill="#63b8ff" stroke="#63b8ff" points="648.58,-84.09 645.08,-74.09 641.58,-84.09 648.58,-84.09"/>
</a>
</g>
</g>
<!-- Node5 -->
<g id="Node000005" class="node">
<title>Node5</title>
<g id="a_Node000005"><a xlink:title=" ">
<polygon fill="#e0e0e0" stroke="#999999" points="982.58,-19 929.58,-19 929.58,0 982.58,0 982.58,-19"/>
<text text-anchor="middle" x="956.08" y="-7" font-family="Helvetica,sans-Serif" font-size="10.00">stdint.h</text>
</a>
</g>
</g>
<!-- Node4&#45;&gt;Node5 -->
<g id="edge4_Node000004_Node000005" class="edge">
<title>Node4&#45;&gt;Node5</title>
<g id="a_edge4_Node000004_Node000005"><a xlink:title=" ">
<path fill="none" stroke="#63b8ff" d="M682.28,-57.16C742.21,-46.95 859.42,-26.97 919.16,-16.79"/>
<polygon fill="#63b8ff" stroke="#63b8ff" points="920,-20.2 929.27,-15.07 918.83,-13.3 920,-20.2"/>
</a>
</g>
</g>
<!-- Node6 -->
<g id="Node000006" class="node">
<title>Node6</title>
<g id="a_Node000006"><a xlink:title=" ">
<polygon fill="#e0e0e0" stroke="#999999" points="565.08,-19 509.08,-19 509.08,0 565.08,0 565.08,-19"/>
<text text-anchor="middle" x="537.08" y="-7" font-family="Helvetica,sans-Serif" font-size="10.00">stddef.h</text>
</a>
</g>
</g>
<!-- Node4&#45;&gt;Node6 -->
<g id="edge5_Node000004_Node000006" class="edge">
<title>Node4&#45;&gt;Node6</title>
<g id="a_edge5_Node000004_Node000006"><a xlink:title=" ">
<path fill="none" stroke="#63b8ff" d="M627.72,-54.98C610.51,-46.54 583.88,-33.47 563.93,-23.68"/>
<polygon fill="#63b8ff" stroke="#63b8ff" points="565.26,-20.43 554.74,-19.17 562.18,-26.72 565.26,-20.43"/>
</a>
</g>
</g>
<!-- Node7 -->
<g id="Node000007" class="node">
<title>Node7</title>
<g id="a_Node000007"><a xlink:title=" ">
<polygon fill="#e0e0e0" stroke="#999999" points="635.08,-19 583.08,-19 583.08,0 635.08,0 635.08,-19"/>
<text text-anchor="middle" x="609.08" y="-7" font-family="Helvetica,sans-Serif" font-size="10.00">cassert</text>
</a>
</g>
</g>
<!-- Node4&#45;&gt;Node7 -->
<g id="edge6_Node000004_Node000007" class="edge">
<title>Node4&#45;&gt;Node7</title>
<g id="a_edge6_Node000004_Node000007"><a xlink:title=" ">
<path fill="none" stroke="#63b8ff" d="M639.13,-54.75C634.1,-47.34 626.74,-36.5 620.56,-27.41"/>
<polygon fill="#63b8ff" stroke="#63b8ff" points="623.42,-25.39 614.91,-19.09 617.63,-29.33 623.42,-25.39"/>
</a>
</g>
</g>
<!-- Node8 -->
<g id="Node000008" class="node">
<title>Node8</title>
<g id="a_Node000008"><a xlink:title=" ">
<polygon fill="#e0e0e0" stroke="#999999" points="709.08,-19 653.08,-19 653.08,0 709.08,0 709.08,-19"/>
<text text-anchor="middle" x="681.08" y="-7" font-family="Helvetica,sans-Serif" font-size="10.00">sstream</text>
</a>
</g>
</g>
<!-- Node4&#45;&gt;Node8 -->
<g id="edge7_Node000004_Node000008" class="edge">
<title>Node4&#45;&gt;Node8</title>
<g id="a_edge7_Node000004_Node000008"><a xlink:title=" ">
<path fill="none" stroke="#63b8ff" d="M651.02,-54.75C656.05,-47.34 663.41,-36.5 669.59,-27.41"/>
<polygon fill="#63b8ff" stroke="#63b8ff" points="672.52,-29.33 675.24,-19.09 666.73,-25.39 672.52,-29.33"/>
</a>
</g>
</g>
<!-- Node9 -->
<g id="Node000009" class="node">
<title>Node9</title>
<g id="a_Node000009"><a xlink:title=" ">
<polygon fill="#e0e0e0" stroke="#999999" points="771.08,-19 727.08,-19 727.08,0 771.08,0 771.08,-19"/>
<text text-anchor="middle" x="749.08" y="-7" font-family="Helvetica,sans-Serif" font-size="10.00">limits</text>
</a>
</g>
</g>
<!-- Node4&#45;&gt;Node9 -->
<g id="edge8_Node000004_Node000009" class="edge">
<title>Node4&#45;&gt;Node9</title>
<g id="a_edge8_Node000004_Node000009"><a xlink:title=" ">
<path fill="none" stroke="#63b8ff" d="M661.79,-54.98C678.29,-46.57 703.77,-33.59 722.95,-23.81"/>
<polygon fill="#63b8ff" stroke="#63b8ff" points="724.74,-26.83 732.06,-19.17 721.56,-20.59 724.74,-26.83"/>
</a>
</g>
</g>
<!-- Node10 -->
<g id="Node000010" class="node">
<title>Node10</title>
<g id="a_Node000010"><a xlink:href="sitkConfigure_8h.html" target="_top" xlink:title=" ">
<polygon fill="white" stroke="#666666" points="1207.08,-19 1117.08,-19 1117.08,0 1207.08,0 1207.08,-19"/>
<text text-anchor="middle" x="1162.08" y="-7" font-family="Helvetica,sans-Serif" font-size="10.00">sitkConfigure.h</text>
</a>
</g>
</g>
<!-- Node4&#45;&gt;Node10 -->
<g id="edge9_Node000004_Node000010" class="edge">
<title>Node4&#45;&gt;Node10</title>
<g id="a_edge9_Node000004_Node000010"><a xlink:title=" ">
<path fill="none" stroke="#63b8ff" d="M682.26,-59.69C772,-50.49 1000.84,-27.03 1106.75,-16.17"/>
<polygon fill="#63b8ff" stroke="#63b8ff" points="1107.32,-19.63 1116.91,-15.13 1106.61,-12.67 1107.32,-19.63"/>
</a>
</g>
</g>
<!-- Node11&#45;&gt;Node3 -->
<g id="edge12_Node000011_Node000003" class="edge">
<title>Node11&#45;&gt;Node3</title>
<g id="a_edge12_Node000011_Node000003"><a xlink:title=" ">
<path fill="none" stroke="#63b8ff" d="M315.53,-225.1C328.69,-210.05 357.64,-179.76 389.08,-165 453.97,-134.54 536.94,-124.75 590.54,-121.7"/>
<polygon fill="#63b8ff" stroke="#63b8ff" points="591.04,-125.18 600.85,-121.18 590.69,-118.19 591.04,-125.18"/>
</a>
</g>
</g>
<!-- Node11&#45;&gt;Node4 -->
<g id="edge11_Node000011_Node000004" class="edge">
<title>Node11&#45;&gt;Node4</title>
<g id="a_edge11_Node000011_Node000004"><a xlink:title=" ">
<path fill="none" stroke="#63b8ff" d="M240.42,-227.99C183.88,-220.21 116.82,-202.86 146.08,-165 201.07,-93.83 484.33,-72.93 597.9,-67.35"/>
<polygon fill="#63b8ff" stroke="#63b8ff" points="598.2,-70.84 608.03,-66.87 597.87,-63.85 598.2,-70.84"/>
</a>
</g>
</g>
<!-- Node12 -->
<g id="Node000012" class="node">
<title>Node12</title>
<g id="a_Node000012"><a xlink:href="sitkExceptionObject_8h.html" target="_top" xlink:title=" ">
<polygon fill="white" stroke="#666666" points="341.58,-184 218.58,-184 218.58,-165 341.58,-165 341.58,-184"/>
<text text-anchor="middle" x="280.08" y="-172" font-family="Helvetica,sans-Serif" font-size="10.00">sitkExceptionObject.h</text>
</a>
</g>
</g>
<!-- Node11&#45;&gt;Node12 -->
<g id="edge13_Node000011_Node000012" class="edge">
<title>Node11&#45;&gt;Node12</title>
<g id="a_edge13_Node000011_Node000012"><a xlink:title=" ">
<path fill="none" stroke="#63b8ff" d="M303.94,-225.37C299.93,-216.99 293.72,-204.01 288.64,-193.39"/>
<polygon fill="#63b8ff" stroke="#63b8ff" points="291.7,-191.68 284.22,-184.17 285.39,-194.7 291.7,-191.68"/>
</a>
</g>
</g>
<!-- Node11&#45;&gt;Node14 -->
<g id="edge17_Node000011_Node000014" class="edge">
<title>Node11&#45;&gt;Node14</title>
<g id="a_edge17_Node000011_Node000014"><a xlink:title=" ">
<path fill="none" stroke="#63b8ff" d="M324.9,-225.37C343.67,-215.73 374.28,-200.03 396.13,-188.81"/>
<polygon fill="#63b8ff" stroke="#63b8ff" points="397.89,-191.85 405.19,-184.17 394.69,-185.62 397.89,-191.85"/>
</a>
</g>
</g>
<!-- Node15 -->
<g id="Node000015" class="node">
<title>Node15</title>
<g id="a_Node000015"><a xlink:title=" ">
<polygon fill="#e0e0e0" stroke="#999999" points="597.58,-184 540.58,-184 540.58,-165 597.58,-165 597.58,-184"/>
<text text-anchor="middle" x="569.08" y="-172" font-family="Helvetica,sans-Serif" font-size="10.00">ostream</text>
</a>
</g>
</g>
<!-- Node11&#45;&gt;Node15 -->
<g id="edge18_Node000011_Node000015" class="edge">
<title>Node11&#45;&gt;Node15</title>
<g id="a_edge18_Node000011_Node000015"><a xlink:title=" ">
<path fill="none" stroke="#63b8ff" d="M346.03,-225.49C395.26,-214.46 480.7,-195.31 530.33,-184.19"/>
<polygon fill="#63b8ff" stroke="#63b8ff" points="531.35,-187.54 540.34,-181.94 529.82,-180.71 531.35,-187.54"/>
</a>
</g>
</g>
<!-- Node16 -->
<g id="Node000016" class="node">
<title>Node16</title>
<g id="a_Node000016"><a xlink:title=" ">
<polygon fill="#e0e0e0" stroke="#999999" points="98.58,-184 45.58,-184 45.58,-165 98.58,-165 98.58,-184"/>
<text text-anchor="middle" x="72.08" y="-172" font-family="Helvetica,sans-Serif" font-size="10.00">iterator</text>
</a>
</g>
</g>
<!-- Node11&#45;&gt;Node16 -->
<g id="edge19_Node000011_Node000016" class="edge">
<title>Node11&#45;&gt;Node16</title>
<g id="a_edge19_Node000011_Node000016"><a xlink:title=" ">
<path fill="none" stroke="#63b8ff" d="M273.76,-225.49C229.76,-214.59 153.77,-195.75 108.69,-184.58"/>
<polygon fill="#63b8ff" stroke="#63b8ff" points="109.3,-181.12 98.75,-182.11 107.61,-187.91 109.3,-181.12"/>
</a>
</g>
</g>
<!-- Node17 -->
<g id="Node000017" class="node">
<title>Node17</title>
<g id="a_Node000017"><a xlink:title=" ">
<polygon fill="#e0e0e0" stroke="#999999" points="200.58,-184 155.58,-184 155.58,-165 200.58,-165 200.58,-184"/>
<text text-anchor="middle" x="178.08" y="-172" font-family="Helvetica,sans-Serif" font-size="10.00">utility</text>
</a>
</g>
</g>
<!-- Node11&#45;&gt;Node17 -->
<g id="edge20_Node000011_Node000017" class="edge">
<title>Node11&#45;&gt;Node17</title>
<g id="a_edge20_Node000011_Node000017"><a xlink:title=" ">
<path fill="none" stroke="#63b8ff" d="M289.17,-225.49C267.41,-215.7 231.46,-199.52 206.36,-188.23"/>
<polygon fill="#63b8ff" stroke="#63b8ff" points="207.56,-184.93 197,-184.02 204.69,-191.31 207.56,-184.93"/>
</a>
</g>
</g>
<!-- Node12&#45;&gt;Node3 -->
<g id="edge15_Node000012_Node000003" class="edge">
<title>Node12&#45;&gt;Node3</title>
<g id="a_edge15_Node000012_Node000003"><a xlink:title=" ">
<path fill="none" stroke="#63b8ff" d="M338.72,-164.98C408.3,-154.88 523.36,-138.17 590.91,-128.37"/>
<polygon fill="#63b8ff" stroke="#63b8ff" points="591.53,-131.81 600.93,-126.91 590.53,-124.88 591.53,-131.81"/>
</a>
</g>
</g>
<!-- Node12&#45;&gt;Node4 -->
<g id="edge14_Node000012_Node000004" class="edge">
<title>Node12&#45;&gt;Node4</title>
<g id="a_edge14_Node000012_Node000004"><a xlink:title=" ">
<path fill="none" stroke="#63b8ff" d="M293.38,-164.86C315.19,-151.11 360.29,-124.34 402.08,-110 467.98,-87.39 548.09,-75.56 597.84,-69.93"/>
<polygon fill="#63b8ff" stroke="#63b8ff" points="598.42,-73.38 607.98,-68.82 597.66,-66.43 598.42,-73.38"/>
</a>
</g>
</g>
<!-- Node12&#45;&gt;Node13 -->
<g id="edge16_Node000012_Node000013" class="edge">
<title>Node12&#45;&gt;Node13</title>
<g id="a_edge16_Node000012_Node000013"><a xlink:title=" ">
<path fill="none" stroke="#63b8ff" d="M305.78,-164.98C332.53,-156.13 374.6,-142.19 404.53,-132.28"/>
<polygon fill="#63b8ff" stroke="#63b8ff" points="405.78,-135.55 414.17,-129.08 403.57,-128.9 405.78,-135.55"/>
</a>
</g>
</g>
<!-- Node19 -->
<g id="Node000019" class="node">
<title>Node19</title>
<g id="a_Node000019"><a xlink:href="sitkMemberFunctionFactoryBase_8h.html" target="_top" xlink:title=" ">
<polygon fill="white" stroke="#666666" points="1441.08,-250 1289.08,-250 1289.08,-220 1441.08,-220 1441.08,-250"/>
<text text-anchor="start" x="1297.08" y="-238" font-family="Helvetica,sans-Serif" font-size="10.00">sitkMemberFunctionFactory</text>
<text text-anchor="middle" x="1365.08" y="-227" font-family="Helvetica,sans-Serif" font-size="10.00">Base.h</text>
</a>
</g>
</g>
<!-- Node18&#45;&gt;Node19 -->
<g id="edge22_Node000018_Node000019" class="edge">
<title>Node18&#45;&gt;Node19</title>
<g id="a_edge22_Node000018_Node000019"><a xlink:title=" ">
<path fill="none" stroke="#63b8ff" d="M1119.65,-286.91C1161.95,-278.14 1232.78,-263.45 1287.5,-252.09"/>
<polygon fill="#63b8ff" stroke="#63b8ff" points="1288.44,-255.47 1297.52,-250.01 1287.02,-248.62 1288.44,-255.47"/>
</a>
</g>
</g>
<!-- Node25 -->
<g id="Node000025" class="node">
<title>Node25</title>
<g id="a_Node000025"><a xlink:title=" ">
<polygon fill="#e0e0e0" stroke="#999999" points="1135.58,-184 996.58,-184 996.58,-165 1135.58,-165 1135.58,-184"/>
<text text-anchor="middle" x="1066.08" y="-172" font-family="Helvetica,sans-Serif" font-size="10.00">Ancillary/FunctionTraits.h</text>
</a>
</g>
</g>
<!-- Node18&#45;&gt;Node25 -->
<g id="edge39_Node000018_Node000025" class="edge">
<title>Node18&#45;&gt;Node25</title>
<g id="a_edge39_Node000018_Node000025"><a xlink:title=" ">
<path fill="none" stroke="#63b8ff" d="M1081.85,-285.94C1079.13,-266.91 1072.53,-220.69 1068.79,-194.47"/>
<polygon fill="#63b8ff" stroke="#63b8ff" points="1072.21,-193.71 1067.33,-184.3 1065.28,-194.7 1072.21,-193.71"/>
</a>
</g>
</g>
<!-- Node19&#45;&gt;Node4 -->
<g id="edge31_Node000019_Node000004" class="edge">
<title>Node19&#45;&gt;Node4</title>
<g id="a_edge31_Node000019_Node000004"><a xlink:title=" ">
<path fill="none" stroke="#63b8ff" d="M1302.19,-219.95C1266.68,-211.21 1221.78,-198.83 1183.08,-184 1165.44,-177.24 1162.94,-171.12 1145.08,-165 983.99,-109.82 782.64,-81.38 692.52,-70.66"/>
<polygon fill="#63b8ff" stroke="#63b8ff" points="692.69,-67.15 682.35,-69.47 691.87,-74.1 692.69,-67.15"/>
</a>
</g>
</g>
<!-- Node19&#45;&gt;Node10 -->
<g id="edge23_Node000019_Node000010" class="edge">
<title>Node19&#45;&gt;Node10</title>
<g id="a_edge23_Node000019_Node000010"><a xlink:title=" ">
<path fill="none" stroke="#63b8ff" d="M1432.03,-219.96C1451.1,-212.54 1469.75,-201.22 1481.08,-184 1498.29,-157.83 1461.8,-119.78 1450.08,-110 1382.06,-53.27 1279.82,-28.19 1217.22,-17.62"/>
<polygon fill="#63b8ff" stroke="#63b8ff" points="1217.57,-14.13 1207.14,-15.99 1216.45,-21.04 1217.57,-14.13"/>
</a>
</g>
</g>
<!-- Node20 -->
<g id="Node000020" class="node">
<title>Node20</title>
<g id="a_Node000020"><a xlink:href="sitkPixelIDTypes_8h.html" target="_top" xlink:title=" ">
<polygon fill="white" stroke="#666666" points="1440.58,-129 1335.58,-129 1335.58,-110 1440.58,-110 1440.58,-129"/>
<text text-anchor="middle" x="1388.08" y="-117" font-family="Helvetica,sans-Serif" font-size="10.00">sitkPixelIDTypes.h</text>
</a>
</g>
</g>
<!-- Node19&#45;&gt;Node20 -->
<g id="edge24_Node000019_Node000020" class="edge">
<title>Node19&#45;&gt;Node20</title>
<g id="a_edge24_Node000019_Node000020"><a xlink:title=" ">
<path fill="none" stroke="#63b8ff" d="M1419.32,-219.9C1437.38,-212.34 1455.55,-200.96 1466.08,-184 1479.86,-161.8 1450.88,-143.86 1424.42,-132.78"/>
<polygon fill="#63b8ff" stroke="#63b8ff" points="1425.46,-129.43 1414.87,-129.02 1422.89,-135.94 1425.46,-129.43"/>
</a>
</g>
</g>
<!-- Node21 -->
<g id="Node000021" class="node">
<title>Node21</title>
<g id="a_Node000021"><a xlink:href="sitkPixelIDTypeLists_8h.html" target="_top" xlink:title=" ">
<polygon fill="white" stroke="#666666" points="1314.08,-184 1192.08,-184 1192.08,-165 1314.08,-165 1314.08,-184"/>
<text text-anchor="middle" x="1253.08" y="-172" font-family="Helvetica,sans-Serif" font-size="10.00">sitkPixelIDTypeLists.h</text>
</a>
</g>
</g>
<!-- Node19&#45;&gt;Node21 -->
<g id="edge25_Node000019_Node000021" class="edge">
<title>Node19&#45;&gt;Node21</title>
<g id="a_edge25_Node000019_Node000021"><a xlink:title=" ">
<path fill="none" stroke="#63b8ff" d="M1338.25,-219.99C1320.23,-210.58 1296.62,-198.24 1278.83,-188.95"/>
<polygon fill="#63b8ff" stroke="#63b8ff" points="1280.1,-185.67 1269.62,-184.14 1276.86,-191.87 1280.1,-185.67"/>
</a>
</g>
</g>
<!-- Node22 -->
<g id="Node000022" class="node">
<title>Node22</title>
<g id="a_Node000022"><a xlink:title=" ">
<polygon fill="#e0e0e0" stroke="#999999" points="1701.58,-129 1582.58,-129 1582.58,-110 1701.58,-110 1701.58,-129"/>
<text text-anchor="middle" x="1642.08" y="-117" font-family="Helvetica,sans-Serif" font-size="10.00">Ancillary/type_list2.h</text>
</a>
</g>
</g>
<!-- Node19&#45;&gt;Node22 -->
<g id="edge34_Node000019_Node000022" class="edge">
<title>Node19&#45;&gt;Node22</title>
<g id="a_edge34_Node000019_Node000022"><a xlink:title=" ">
<path fill="none" stroke="#63b8ff" d="M1441.2,-231.57C1517.49,-227.34 1627.35,-215.75 1654.08,-184 1664.66,-171.43 1659.21,-152.46 1652.6,-138.53"/>
<polygon fill="#63b8ff" stroke="#63b8ff" points="1655.56,-136.64 1647.8,-129.43 1649.37,-139.91 1655.56,-136.64"/>
</a>
</g>
</g>
<!-- Node24 -->
<g id="Node000024" class="node">
<title>Node24</title>
<g id="a_Node000024"><a xlink:href="sitkNonCopyable_8h.html" target="_top" xlink:title=" ">
<polygon fill="white" stroke="#666666" points="901.58,-184 792.58,-184 792.58,-165 901.58,-165 901.58,-184"/>
<text text-anchor="middle" x="847.08" y="-172" font-family="Helvetica,sans-Serif" font-size="10.00">sitkNonCopyable.h</text>
</a>
</g>
</g>
<!-- Node19&#45;&gt;Node24 -->
<g id="edge32_Node000019_Node000024" class="edge">
<title>Node19&#45;&gt;Node24</title>
<g id="a_edge32_Node000019_Node000024"><a xlink:title=" ">
<path fill="none" stroke="#63b8ff" d="M1288.92,-225.4C1186.9,-213.88 1007.62,-193.63 911.79,-182.81"/>
<polygon fill="#63b8ff" stroke="#63b8ff" points="911.99,-179.31 901.66,-181.66 911.2,-186.26 911.99,-179.31"/>
</a>
</g>
</g>
<!-- Node19&#45;&gt;Node25 -->
<g id="edge35_Node000019_Node000025" class="edge">
<title>Node19&#45;&gt;Node25</title>
<g id="a_edge35_Node000019_Node000025"><a xlink:title=" ">
<path fill="none" stroke="#63b8ff" d="M1293.46,-219.99C1240.07,-209.54 1168.3,-195.5 1119.78,-186.01"/>
<polygon fill="#63b8ff" stroke="#63b8ff" points="1120.28,-182.54 1109.79,-184.05 1118.94,-189.41 1120.28,-182.54"/>
</a>
</g>
</g>
<!-- Node26 -->
<g id="Node000026" class="node">
<title>Node26</title>
<g id="a_Node000026"><a xlink:title=" ">
<polygon fill="#e0e0e0" stroke="#999999" points="1644.58,-184 1551.58,-184 1551.58,-165 1644.58,-165 1644.58,-184"/>
<text text-anchor="middle" x="1598.08" y="-172" font-family="Helvetica,sans-Serif" font-size="10.00">unordered_map</text>
</a>
</g>
</g>
<!-- Node19&#45;&gt;Node26 -->
<g id="edge36_Node000019_Node000026" class="edge">
<title>Node19&#45;&gt;Node26</title>
<g id="a_edge36_Node000019_Node000026"><a xlink:title=" ">
<path fill="none" stroke="#63b8ff" d="M1420.89,-219.99C1461.62,-209.76 1516.09,-196.09 1553.83,-186.61"/>
<polygon fill="#63b8ff" stroke="#63b8ff" points="1555.16,-189.88 1564.01,-184.05 1553.46,-183.09 1555.16,-189.88"/>
</a>
</g>
</g>
<!-- Node27 -->
<g id="Node000027" class="node">
<title>Node27</title>
<g id="a_Node000027"><a xlink:title=" ">
<polygon fill="#e0e0e0" stroke="#999999" points="1397.58,-184 1332.58,-184 1332.58,-165 1397.58,-165 1397.58,-184"/>
<text text-anchor="middle" x="1365.08" y="-172" font-family="Helvetica,sans-Serif" font-size="10.00">functional</text>
</a>
</g>
</g>
<!-- Node19&#45;&gt;Node27 -->
<g id="edge37_Node000019_Node000027" class="edge">
<title>Node19&#45;&gt;Node27</title>
<g id="a_edge37_Node000019_Node000027"><a xlink:title=" ">
<path fill="none" stroke="#63b8ff" d="M1365.08,-219.84C1365.08,-212.21 1365.08,-202.7 1365.08,-194.45"/>
<polygon fill="#63b8ff" stroke="#63b8ff" points="1368.58,-194.27 1365.08,-184.27 1361.58,-194.27 1368.58,-194.27"/>
</a>
</g>
</g>
<!-- Node28 -->
<g id="Node000028" class="node">
<title>Node28</title>
<g id="a_Node000028"><a xlink:title=" ">
<polygon fill="#e0e0e0" stroke="#999999" points="1456.58,-184 1415.58,-184 1415.58,-165 1456.58,-165 1456.58,-184"/>
<text text-anchor="middle" x="1436.08" y="-172" font-family="Helvetica,sans-Serif" font-size="10.00">tuple</text>
</a>
</g>
</g>
<!-- Node19&#45;&gt;Node28 -->
<g id="edge38_Node000019_Node000028" class="edge">
<title>Node19&#45;&gt;Node28</title>
<g id="a_edge38_Node000019_Node000028"><a xlink:title=" ">
<path fill="none" stroke="#63b8ff" d="M1382.26,-219.84C1392.89,-211.09 1406.52,-199.85 1417.41,-190.88"/>
<polygon fill="#63b8ff" stroke="#63b8ff" points="1419.95,-193.33 1425.44,-184.27 1415.49,-187.92 1419.95,-193.33"/>
</a>
</g>
</g>
<!-- Node21&#45;&gt;Node5 -->
<g id="edge26_Node000021_Node000005" class="edge">
<title>Node21&#45;&gt;Node5</title>
<g id="a_edge26_Node000021_Node000005"><a xlink:title=" ">
<path fill="none" stroke="#63b8ff" d="M1232.94,-164.86C1213.32,-156.28 1182.78,-142.49 1157.08,-129 1090.57,-94.09 1014.95,-47.58 978.32,-24.59"/>
<polygon fill="#63b8ff" stroke="#63b8ff" points="979.79,-21.38 969.46,-19.02 976.06,-27.31 979.79,-21.38"/>
</a>
</g>
</g>
<!-- Node21&#45;&gt;Node10 -->
<g id="edge27_Node000021_Node000010" class="edge">
<title>Node21&#45;&gt;Node10</title>
<g id="a_edge27_Node000021_Node000010"><a xlink:title=" ">
<path fill="none" stroke="#63b8ff" d="M1251.47,-164.94C1248.91,-152.42 1243.25,-128.57 1234.08,-110 1218.36,-78.17 1192.63,-45.65 1176.56,-26.81"/>
<polygon fill="#63b8ff" stroke="#63b8ff" points="1179.13,-24.42 1169.93,-19.16 1173.84,-29.01 1179.13,-24.42"/>
</a>
</g>
</g>
<!-- Node21&#45;&gt;Node20 -->
<g id="edge28_Node000021_Node000020" class="edge">
<title>Node21&#45;&gt;Node20</title>
<g id="a_edge28_Node000021_Node000020"><a xlink:title=" ">
<path fill="none" stroke="#63b8ff" d="M1274.77,-164.98C1296.88,-156.3 1331.4,-142.75 1356.53,-132.88"/>
<polygon fill="#63b8ff" stroke="#63b8ff" points="1357.96,-136.08 1365.99,-129.17 1355.4,-129.57 1357.96,-136.08"/>
</a>
</g>
</g>
<!-- Node21&#45;&gt;Node22 -->
<g id="edge29_Node000021_Node000022" class="edge">
<title>Node21&#45;&gt;Node22</title>
<g id="a_edge29_Node000021_Node000022"><a xlink:title=" ">
<path fill="none" stroke="#63b8ff" d="M1314.29,-165.16C1384.38,-155.61 1498.97,-140 1572.42,-129.99"/>
<polygon fill="#63b8ff" stroke="#63b8ff" points="1573.06,-133.44 1582.5,-128.62 1572.12,-126.5 1573.06,-133.44"/>
</a>
</g>
</g>
<!-- Node23 -->
<g id="Node000023" class="node">
<title>Node23</title>
<g id="a_Node000023"><a xlink:title=" ">
<polygon fill="#e0e0e0" stroke="#999999" points="1224.58,-129 1165.58,-129 1165.58,-110 1224.58,-110 1224.58,-129"/>
<text text-anchor="middle" x="1195.08" y="-117" font-family="Helvetica,sans-Serif" font-size="10.00">complex</text>
</a>
</g>
</g>
<!-- Node21&#45;&gt;Node23 -->
<g id="edge30_Node000021_Node000023" class="edge">
<title>Node21&#45;&gt;Node23</title>
<g id="a_edge30_Node000021_Node000023"><a xlink:title=" ">
<path fill="none" stroke="#63b8ff" d="M1243.76,-164.98C1235.27,-157.23 1222.52,-145.58 1212.19,-136.14"/>
<polygon fill="#63b8ff" stroke="#63b8ff" points="1214.31,-133.33 1204.56,-129.17 1209.59,-138.5 1214.31,-133.33"/>
</a>
</g>
</g>
<!-- Node24&#45;&gt;Node3 -->
<g id="edge33_Node000024_Node000003" class="edge">
<title>Node24&#45;&gt;Node3</title>
<g id="a_edge33_Node000024_Node000003"><a xlink:title=" ">
<path fill="none" stroke="#63b8ff" d="M814.62,-164.98C780.12,-155.93 725.42,-141.58 687.52,-131.64"/>
<polygon fill="#63b8ff" stroke="#63b8ff" points="688.35,-128.23 677.79,-129.08 686.57,-135.01 688.35,-128.23"/>
</a>
</g>
</g>
<!-- Node29&#45;&gt;Node10 -->
<g id="edge41_Node000029_Node000010" class="edge">
<title>Node29&#45;&gt;Node10</title>
<g id="a_edge41_Node000029_Node000010"><a xlink:title=" ">
<path fill="none" stroke="#63b8ff" d="M809.62,-285.76C822.26,-271.33 848.83,-241.95 874.08,-220 967.22,-139.01 1090.23,-56.94 1139.89,-24.72"/>
<polygon fill="#63b8ff" stroke="#63b8ff" points="1142.04,-27.49 1148.54,-19.12 1138.25,-21.61 1142.04,-27.49"/>
</a>
</g>
</g>
<!-- Node30 -->
<g id="Node000030" class="node">
<title>Node30</title>
<g id="a_Node000030"><a xlink:href="sitkPixelIDValues_8h.html" target="_top" xlink:title=" ">
<polygon fill="white" stroke="#666666" points="788.08,-244.5 678.08,-244.5 678.08,-225.5 788.08,-225.5 788.08,-244.5"/>
<text text-anchor="middle" x="733.08" y="-232.5" font-family="Helvetica,sans-Serif" font-size="10.00">sitkPixelIDValues.h</text>
</a>
</g>
</g>
<!-- Node29&#45;&gt;Node30 -->
<g id="edge42_Node000029_Node000030" class="edge">
<title>Node29&#45;&gt;Node30</title>
<g id="a_edge42_Node000029_Node000030"><a xlink:title=" ">
<path fill="none" stroke="#63b8ff" d="M791.9,-285.87C781.19,-276.8 764.14,-262.34 751.15,-251.32"/>
<polygon fill="#63b8ff" stroke="#63b8ff" points="753.19,-248.46 743.3,-244.67 748.66,-253.8 753.19,-248.46"/>
</a>
</g>
</g>
<!-- Node29&#45;&gt;Node32 -->
<g id="edge47_Node000029_Node000032" class="edge">
<title>Node29&#45;&gt;Node32</title>
<g id="a_edge47_Node000029_Node000032"><a xlink:title=" ">
<path fill="none" stroke="#63b8ff" d="M819.04,-285.87C837.98,-276.23 868.86,-260.53 890.9,-249.31"/>
<polygon fill="#63b8ff" stroke="#63b8ff" points="892.71,-252.32 900.04,-244.67 889.54,-246.08 892.71,-252.32"/>
</a>
</g>
</g>
<!-- Node30&#45;&gt;Node3 -->
<g id="edge43_Node000030_Node000003" class="edge">
<title>Node30&#45;&gt;Node3</title>
<g id="a_edge43_Node000030_Node000003"><a xlink:title=" ">
<path fill="none" stroke="#63b8ff" d="M723.14,-225.42C712.5,-215.93 695.46,-199.88 683.08,-184 671.74,-169.47 661.18,-151.29 654.08,-138.11"/>
<polygon fill="#63b8ff" stroke="#63b8ff" points="657.12,-136.37 649.38,-129.15 650.93,-139.63 657.12,-136.37"/>
</a>
</g>
</g>
<!-- Node30&#45;&gt;Node15 -->
<g id="edge46_Node000030_Node000015" class="edge">
<title>Node30&#45;&gt;Node15</title>
<g id="a_edge46_Node000030_Node000015"><a xlink:title=" ">
<path fill="none" stroke="#63b8ff" d="M709.23,-225.49C681.17,-215.49 634.4,-198.8 602.68,-187.49"/>
<polygon fill="#63b8ff" stroke="#63b8ff" points="603.55,-184.08 592.95,-184.02 601.19,-190.67 603.55,-184.08"/>
</a>
</g>
</g>
<!-- Node30&#45;&gt;Node21 -->
<g id="edge44_Node000030_Node000021" class="edge">
<title>Node30&#45;&gt;Node21</title>
<g id="a_edge44_Node000030_Node000021"><a xlink:title=" ">
<path fill="none" stroke="#63b8ff" d="M788.23,-227.79C882.97,-217.14 1076.51,-195.36 1181.5,-183.55"/>
<polygon fill="#63b8ff" stroke="#63b8ff" points="1182.14,-187 1191.69,-182.41 1181.36,-180.05 1182.14,-187"/>
</a>
</g>
</g>
<!-- Node31 -->
<g id="Node000031" class="node">
<title>Node31</title>
<g id="a_Node000031"><a xlink:title=" ">
<polygon fill="#e0e0e0" stroke="#999999" points="736.08,-184 692.08,-184 692.08,-165 736.08,-165 736.08,-184"/>
<text text-anchor="middle" x="714.08" y="-172" font-family="Helvetica,sans-Serif" font-size="10.00">string</text>
</a>
</g>
</g>
<!-- Node30&#45;&gt;Node31 -->
<g id="edge45_Node000030_Node000031" class="edge">
<title>Node30&#45;&gt;Node31</title>
<g id="a_edge45_Node000030_Node000031"><a xlink:title=" ">
<path fill="none" stroke="#63b8ff" d="M730.27,-225.37C727.58,-217.07 723.42,-204.28 719.99,-193.72"/>
<polygon fill="#63b8ff" stroke="#63b8ff" points="723.31,-192.6 716.89,-184.17 716.65,-194.76 723.31,-192.6"/>
</a>
</g>
</g>
<!-- Node33&#45;&gt;Node3 -->
<g id="edge49_Node000033_Node000003" class="edge">
<title>Node33&#45;&gt;Node3</title>
<g id="a_edge49_Node000033_Node000003"><a xlink:title=" ">
<path fill="none" stroke="#63b8ff" d="M612.71,-225.47C618.36,-207.15 631.76,-163.68 639.43,-138.81"/>
<polygon fill="#63b8ff" stroke="#63b8ff" points="642.81,-139.72 642.42,-129.13 636.12,-137.65 642.81,-139.72"/>
</a>
</g>
</g>
<!-- Node33&#45;&gt;Node15 -->
<g id="edge50_Node000033_Node000015" class="edge">
<title>Node33&#45;&gt;Node15</title>
<g id="a_edge50_Node000033_Node000015"><a xlink:title=" ">
<path fill="none" stroke="#63b8ff" d="M604.03,-225.37C597.97,-216.73 588.49,-203.2 580.93,-192.42"/>
<polygon fill="#63b8ff" stroke="#63b8ff" points="583.76,-190.35 575.15,-184.17 578.02,-194.37 583.76,-190.35"/>
</a>
</g>
</g>
<!-- Node34&#45;&gt;Node4 -->
<g id="edge55_Node000034_Node000004" class="edge">
<title>Node34&#45;&gt;Node4</title>
<g id="a_edge55_Node000034_Node000004"><a xlink:title=" ">
<path fill="none" stroke="#63b8ff" d="M115.08,-340.97C80.91,-325.53 17.08,-289.53 17.08,-236 17.08,-236 17.08,-236 17.08,-173.5 17.08,-164.15 -80.97,-170.4 199.08,-110 342.23,-79.12 515.95,-69.59 597.92,-66.71"/>
<polygon fill="#63b8ff" stroke="#63b8ff" points="598.05,-70.21 607.93,-66.38 597.81,-63.21 598.05,-70.21"/>
</a>
</g>
</g>
<!-- Node35&#45;&gt;Node2 -->
<g id="edge63_Node000035_Node000002" class="edge">
<title>Node35&#45;&gt;Node2</title>
<g id="a_edge63_Node000035_Node000002"><a xlink:title=" ">
<path fill="none" stroke="#63b8ff" d="M604.88,-452.7C654.45,-445.67 721.44,-433.15 741.08,-415 753.4,-403.61 758.18,-384.71 760,-370.49"/>
<polygon fill="#63b8ff" stroke="#63b8ff" points="763.51,-370.59 760.93,-360.32 756.54,-369.96 763.51,-370.59"/>
</a>
</g>
</g>
<!-- Node35&#45;&gt;Node3 -->
<g id="edge57_Node000035_Node000003" class="edge">
<title>Node35&#45;&gt;Node3</title>
<g id="a_edge57_Node000035_Node000003"><a xlink:title=" ">
<path fill="none" stroke="#63b8ff" d="M604.77,-458.31C729.77,-454.14 1018.08,-435.43 1018.08,-351.5 1018.08,-351.5 1018.08,-351.5 1018.08,-294.5 1018.08,-155.64 803.15,-127.33 699.59,-121.75"/>
<polygon fill="#63b8ff" stroke="#63b8ff" points="699.49,-118.24 689.33,-121.25 699.15,-125.24 699.49,-118.24"/>
</a>
</g>
</g>
<!-- Node35&#45;&gt;Node11 -->
<g id="edge59_Node000035_Node000011" class="edge">
<title>Node35&#45;&gt;Node11</title>
<g id="a_edge59_Node000035_Node000011"><a xlink:title=" ">
<path fill="none" stroke="#63b8ff" d="M491.39,-452.54C442.85,-445.47 377.91,-432.98 359.08,-415 313.73,-371.71 307.83,-291.23 307.62,-254.79"/>
<polygon fill="#63b8ff" stroke="#63b8ff" points="311.12,-254.64 307.72,-244.61 304.12,-254.58 311.12,-254.64"/>
</a>
</g>
</g>
<!-- Node35&#45;&gt;Node24 -->
<g id="edge58_Node000035_Node000024" class="edge">
<title>Node35&#45;&gt;Node24</title>
<g id="a_edge58_Node000035_Node000024"><a xlink:title=" ">
<path fill="none" stroke="#63b8ff" d="M556.27,-450.63C567.91,-438.14 590.08,-414.77 610.08,-396 664.77,-344.67 677.42,-330.12 738.08,-286 762.92,-267.93 774.89,-271.25 797.08,-250 814.59,-233.23 829.3,-209.3 838.13,-193.13"/>
<polygon fill="#63b8ff" stroke="#63b8ff" points="841.27,-194.67 842.84,-184.19 835.08,-191.4 841.27,-194.67"/>
</a>
</g>
</g>
<!-- Node36 -->
<g id="Node000036" class="node">
<title>Node36</title>
<g id="a_Node000036"><a xlink:href="sitkEvent_8h.html" target="_top" xlink:title=" ">
<polygon fill="white" stroke="#666666" points="541.58,-244.5 470.58,-244.5 470.58,-225.5 541.58,-225.5 541.58,-244.5"/>
<text text-anchor="middle" x="506.08" y="-232.5" font-family="Helvetica,sans-Serif" font-size="10.00">sitkEvent.h</text>
</a>
</g>
</g>
<!-- Node35&#45;&gt;Node36 -->
<g id="edge60_Node000035_Node000036" class="edge">
<title>Node35&#45;&gt;Node36</title>
<g id="a_edge60_Node000035_Node000036"><a xlink:title=" ">
<path fill="none" stroke="#63b8ff" d="M546.43,-450.74C540.24,-417.78 518.26,-300.81 509.61,-254.79"/>
<polygon fill="#63b8ff" stroke="#63b8ff" points="513.04,-254.13 507.76,-244.94 506.16,-255.42 513.04,-254.13"/>
</a>
</g>
</g>
<!-- Node37 -->
<g id="Node000037" class="node">
<title>Node37</title>
<g id="a_Node000037"><a xlink:href="sitkImageConvert_8h.html" target="_top" xlink:title=" ">
<polygon fill="white" stroke="#666666" points="732.58,-415 619.58,-415 619.58,-396 732.58,-396 732.58,-415"/>
<text text-anchor="middle" x="676.08" y="-403" font-family="Helvetica,sans-Serif" font-size="10.00">sitkImageConvert.h</text>
</a>
</g>
</g>
<!-- Node35&#45;&gt;Node37 -->
<g id="edge64_Node000035_Node000037" class="edge">
<title>Node35&#45;&gt;Node37</title>
<g id="a_edge64_Node000035_Node000037"><a xlink:title=" ">
<path fill="none" stroke="#63b8ff" d="M568.64,-450.98C589.51,-442.34 622.05,-428.87 645.85,-419.02"/>
<polygon fill="#63b8ff" stroke="#63b8ff" points="647.24,-422.23 655.14,-415.17 644.56,-415.76 647.24,-422.23"/>
</a>
</g>
</g>
<!-- Node38 -->
<g id="Node000038" class="node">
<title>Node38</title>
<g id="a_Node000038"><a xlink:title=" ">
<polygon fill="#e0e0e0" stroke="#999999" points="428.08,-415 368.08,-415 368.08,-396 428.08,-396 428.08,-415"/>
<text text-anchor="middle" x="398.08" y="-403" font-family="Helvetica,sans-Serif" font-size="10.00">iostream</text>
</a>
</g>
</g>
<!-- Node35&#45;&gt;Node38 -->
<g id="edge66_Node000035_Node000038" class="edge">
<title>Node35&#45;&gt;Node38</title>
<g id="a_edge66_Node000035_Node000038"><a xlink:title=" ">
<path fill="none" stroke="#63b8ff" d="M523.98,-450.98C499.19,-442.23 460.37,-428.51 432.39,-418.62"/>
<polygon fill="#63b8ff" stroke="#63b8ff" points="433.21,-415.2 422.61,-415.17 430.88,-421.8 433.21,-415.2"/>
</a>
</g>
</g>
<!-- Node39 -->
<g id="Node000039" class="node">
<title>Node39</title>
<g id="a_Node000039"><a xlink:title=" ">
<polygon fill="#e0e0e0" stroke="#999999" points="478.08,-415 446.08,-415 446.08,-396 478.08,-396 478.08,-415"/>
<text text-anchor="middle" x="462.08" y="-403" font-family="Helvetica,sans-Serif" font-size="10.00">list</text>
</a>
</g>
</g>
<!-- Node35&#45;&gt;Node39 -->
<g id="edge67_Node000035_Node000039" class="edge">
<title>Node35&#45;&gt;Node39</title>
<g id="a_edge67_Node000035_Node000039"><a xlink:title=" ">
<path fill="none" stroke="#63b8ff" d="M534.26,-450.98C520.92,-442.77 500.5,-430.18 484.77,-420.49"/>
<polygon fill="#63b8ff" stroke="#63b8ff" points="486.49,-417.44 476.15,-415.17 482.82,-423.4 486.49,-417.44"/>
</a>
</g>
</g>
<!-- Node36&#45;&gt;Node3 -->
<g id="edge61_Node000036_Node000003" class="edge">
<title>Node36&#45;&gt;Node3</title>
<g id="a_edge61_Node000036_Node000003"><a xlink:title=" ">
<path fill="none" stroke="#63b8ff" d="M506.95,-225.15C508.83,-210.7 514.53,-181.96 531.08,-165 547.15,-148.52 570.04,-138.02 591.09,-131.39"/>
<polygon fill="#63b8ff" stroke="#63b8ff" points="592.3,-134.68 600.92,-128.52 590.34,-127.97 592.3,-134.68"/>
</a>
</g>
</g>
<!-- Node36&#45;&gt;Node15 -->
<g id="edge62_Node000036_Node000015" class="edge">
<title>Node36&#45;&gt;Node15</title>
<g id="a_edge62_Node000036_Node000015"><a xlink:title=" ">
<path fill="none" stroke="#63b8ff" d="M515.37,-225.37C525.05,-216.38 540.42,-202.11 552.24,-191.14"/>
<polygon fill="#63b8ff" stroke="#63b8ff" points="554.8,-193.54 559.74,-184.17 550.03,-188.41 554.8,-193.54"/>
</a>
</g>
</g>
<!-- Node37&#45;&gt;Node2 -->
<g id="edge65_Node000037_Node000002" class="edge">
<title>Node37&#45;&gt;Node2</title>
<g id="a_edge65_Node000037_Node000002"><a xlink:title=" ">
<path fill="none" stroke="#63b8ff" d="M689.73,-395.98C702.91,-387.77 723.1,-375.18 738.65,-365.49"/>
<polygon fill="#63b8ff" stroke="#63b8ff" points="740.54,-368.43 747.17,-360.17 736.83,-362.49 740.54,-368.43"/>
</a>
</g>
</g>
</g>
</svg>

<g id="navigator" transform="translate(0 0)" fill="#404254">
  <rect fill="#f2f5e9" fill-opacity="0.5" stroke="#606060" stroke-width=".5" x="0" y="0" width="60" height="60"/>
  <use id="zoomplus" xlink:href="#zoomPlus" x="17" y="9" onmousedown="handleZoom(evt,'in')"/>
  <use id="zoomminus" xlink:href="#zoomMin" x="42" y="9" onmousedown="handleZoom(evt,'out')"/>
  <use id="reset" xlink:href="#resetDef" x="30" y="36" onmousedown="handleReset()"/>
   <use id="arrowup" xlink:href="#arrowUp" x="0" y="0" onmousedown="handlePan(0,-1)"/>
  <use id="arrowright" xlink:href="#arrowRight" x="0" y="0" onmousedown="handlePan(1,0)"/>
  <use id="arrowdown" xlink:href="#arrowDown" x="0" y="0" onmousedown="handlePan(0,1)"/>
  <use id="arrowleft" xlink:href="#arrowLeft" x="0" y="0" onmousedown="handlePan(-1,0)"/>
</g>
<svg viewBox="0 0 15 15" width="100%" height="30px" preserveAspectRatio="xMaxYMin meet">
 <g id="arrow_out" transform="scale(0.3 0.3)">
  <a xlink:href="sitkShow_8h__incl_org.svg" target="_base">
   <rect id="button" ry="5" rx="5" y="6" x="6" height="38" width="38"
        fill="#f2f5e9" fill-opacity="0.5" stroke="#606060" stroke-width="1.0"/>
   <path id="arrow"
     d="M 11.500037,31.436501 C 11.940474,20.09759 22.043105,11.32322 32.158766,21.979434 L 37.068811,17.246167 C 37.068811,17.246167 37.088388,32 37.088388,32 L 22.160133,31.978069 C 22.160133,31.978069 26.997745,27.140456 26.997745,27.140456 C 18.528582,18.264221 13.291696,25.230495 11.500037,31.436501 z"
     style="fill:#404040;"/>
  </a>
 </g>
</svg>

<style type='text/css'>
<![CDATA[
[data-mouse-over-selected='false'] { opacity: 0.7; }
[data-mouse-over-selected='true']  { opacity: 1.0; }
]]>
</style>
<script type="application/ecmascript"><![CDATA[
document.addEventListener('DOMContentLoaded', (event) => {
  highlightEdges();
  highlightAdjacentNodes();
});
]]></script>
</svg>
