<?xml version="1.0" encoding="UTF-8" standalone="no"?>
<!DOCTYPE svg PUBLIC "-//W3C//DTD SVG 1.1//EN"
 "http://www.w3.org/Graphics/SVG/1.1/DTD/svg11.dtd">
<!-- Generated by graphviz version 2.43.0 (0)
 -->
<!-- Title: sitkElastixImageFilterImpl.h Pages: 1 -->
<svg width="1914pt" height="487pt"
 viewBox="0.00 0.00 1913.50 487.00" xmlns="http://www.w3.org/2000/svg" xmlns:xlink="http://www.w3.org/1999/xlink">
<g id="graph0" class="graph" transform="scale(1 1) rotate(0) translate(4 483)">
<title>sitkElastixImageFilterImpl.h</title>
<polygon fill="white" stroke="transparent" points="-4,4 -4,-483 1909.5,-483 1909.5,4 -4,4"/>
<!-- Node1 -->
<g id="node1" class="node">
<title>Node1</title>
<g id="a_node1"><a xlink:title=" ">
<polygon fill="#bfbfbf" stroke="black" points="889.5,-459.5 889.5,-478.5 1043.5,-478.5 1043.5,-459.5 889.5,-459.5"/>
<text text-anchor="middle" x="966.5" y="-466.5" font-family="Helvetica,sans-Serif" font-size="10.00">sitkElastixImageFilterImpl.h</text>
</a>
</g>
</g>
<!-- Node2 -->
<g id="node2" class="node">
<title>Node2</title>
<g id="a_node2"><a xlink:href="sitkElastixImageFilter_8h.html" target="_top" xlink:title=" ">
<polygon fill="white" stroke="black" points="260,-403.5 260,-422.5 391,-422.5 391,-403.5 260,-403.5"/>
<text text-anchor="middle" x="325.5" y="-410.5" font-family="Helvetica,sans-Serif" font-size="10.00">sitkElastixImageFilter.h</text>
</a>
</g>
</g>
<!-- Node1&#45;&gt;Node2 -->
<g id="edge1" class="edge">
<title>Node1&#45;&gt;Node2</title>
<path fill="none" stroke="midnightblue" d="M889.5,-461.51C765.74,-451.09 524.04,-430.73 401.15,-420.37"/>
<polygon fill="midnightblue" stroke="midnightblue" points="401.33,-416.88 391.07,-419.52 400.74,-423.85 401.33,-416.88"/>
</g>
<!-- Node36 -->
<g id="node36" class="node">
<title>Node36</title>
<g id="a_node36"><a xlink:href="sitkMemberFunctionFactory_8h.html" target="_top" xlink:title=" ">
<polygon fill="white" stroke="black" points="849,-347.5 849,-366.5 1008,-366.5 1008,-347.5 849,-347.5"/>
<text text-anchor="middle" x="928.5" y="-354.5" font-family="Helvetica,sans-Serif" font-size="10.00">sitkMemberFunctionFactory.h</text>
</a>
</g>
</g>
<!-- Node1&#45;&gt;Node36 -->
<g id="edge60" class="edge">
<title>Node1&#45;&gt;Node36</title>
<path fill="none" stroke="midnightblue" d="M963.52,-459.37C957.36,-441.54 943.11,-400.3 934.81,-376.27"/>
<polygon fill="midnightblue" stroke="midnightblue" points="938.04,-374.9 931.47,-366.59 931.43,-377.19 938.04,-374.9"/>
</g>
<!-- Node38 -->
<g id="node38" class="node">
<title>Node38</title>
<g id="a_node38"><a xlink:href="sitkDualMemberFunctionFactory_8h.html" target="_top" xlink:title=" ">
<polygon fill="white" stroke="black" points="1044.5,-347.5 1044.5,-366.5 1226.5,-366.5 1226.5,-347.5 1044.5,-347.5"/>
<text text-anchor="middle" x="1135.5" y="-354.5" font-family="Helvetica,sans-Serif" font-size="10.00">sitkDualMemberFunctionFactory.h</text>
</a>
</g>
</g>
<!-- Node1&#45;&gt;Node38 -->
<g id="edge69" class="edge">
<title>Node1&#45;&gt;Node38</title>
<path fill="none" stroke="midnightblue" d="M966.55,-459.11C967.11,-445.21 970.26,-418.35 985.5,-403 1001.94,-386.45 1024.21,-375.93 1046.55,-369.27"/>
<polygon fill="midnightblue" stroke="midnightblue" points="1047.74,-372.58 1056.46,-366.56 1045.89,-365.83 1047.74,-372.58"/>
</g>
<!-- Node40 -->
<g id="node40" class="node">
<title>Node40</title>
<g id="a_node40"><a xlink:title=" ">
<polygon fill="white" stroke="#bfbfbf" points="994,-403.5 994,-422.5 1161,-422.5 1161,-403.5 994,-403.5"/>
<text text-anchor="middle" x="1077.5" y="-410.5" font-family="Helvetica,sans-Serif" font-size="10.00">itkElastixRegistrationMethod.h</text>
</a>
</g>
</g>
<!-- Node1&#45;&gt;Node40 -->
<g id="edge76" class="edge">
<title>Node1&#45;&gt;Node40</title>
<path fill="none" stroke="midnightblue" d="M984.33,-459.32C1002.22,-450.62 1029.98,-437.12 1050.55,-427.11"/>
<polygon fill="midnightblue" stroke="midnightblue" points="1052.25,-430.18 1059.71,-422.65 1049.19,-423.88 1052.25,-430.18"/>
</g>
<!-- Node41 -->
<g id="node41" class="node">
<title>Node41</title>
<g id="a_node41"><a xlink:title=" ">
<polygon fill="white" stroke="#bfbfbf" points="1179.5,-403.5 1179.5,-422.5 1301.5,-422.5 1301.5,-403.5 1179.5,-403.5"/>
<text text-anchor="middle" x="1240.5" y="-410.5" font-family="Helvetica,sans-Serif" font-size="10.00">elxParameterObject.h</text>
</a>
</g>
</g>
<!-- Node1&#45;&gt;Node41 -->
<g id="edge77" class="edge">
<title>Node1&#45;&gt;Node41</title>
<path fill="none" stroke="midnightblue" d="M1009.92,-459.44C1058.02,-449.96 1135.59,-434.67 1187.31,-424.48"/>
<polygon fill="midnightblue" stroke="midnightblue" points="1188.15,-427.88 1197.29,-422.52 1186.8,-421.02 1188.15,-427.88"/>
</g>
<!-- Node3 -->
<g id="node3" class="node">
<title>Node3</title>
<g id="a_node3"><a xlink:href="sitkElastixTransformixWrappers_8h.html" target="_top" xlink:title=" ">
<polygon fill="white" stroke="black" points="0,-112.5 0,-131.5 181,-131.5 181,-112.5 0,-112.5"/>
<text text-anchor="middle" x="90.5" y="-119.5" font-family="Helvetica,sans-Serif" font-size="10.00">sitkElastixTransformixWrappers.h</text>
</a>
</g>
</g>
<!-- Node2&#45;&gt;Node3 -->
<g id="edge2" class="edge">
<title>Node2&#45;&gt;Node3</title>
<path fill="none" stroke="midnightblue" d="M259.89,-405.84C202.84,-399.25 125.79,-386.94 102.5,-367 79.11,-346.97 78.5,-332.8 78.5,-302 78.5,-302 78.5,-302 78.5,-238.5 78.5,-204.18 83.81,-164.43 87.36,-141.65"/>
<polygon fill="midnightblue" stroke="midnightblue" points="90.84,-142.09 88.98,-131.66 83.93,-140.97 90.84,-142.09"/>
</g>
<!-- Node11 -->
<g id="node11" class="node">
<title>Node11</title>
<g id="a_node11"><a xlink:href="sitkCommon_8h.html" target="_top" xlink:title=" ">
<polygon fill="white" stroke="black" points="520.5,-112.5 520.5,-131.5 608.5,-131.5 608.5,-112.5 520.5,-112.5"/>
<text text-anchor="middle" x="564.5" y="-119.5" font-family="Helvetica,sans-Serif" font-size="10.00">sitkCommon.h</text>
</a>
</g>
</g>
<!-- Node2&#45;&gt;Node11 -->
<g id="edge10" class="edge">
<title>Node2&#45;&gt;Node11</title>
<path fill="none" stroke="midnightblue" d="M303.46,-403.38C241.68,-378.01 75.18,-300.54 135.5,-224 181.57,-165.55 405.32,-137.61 510.13,-127.56"/>
<polygon fill="midnightblue" stroke="midnightblue" points="510.57,-131.04 520.19,-126.62 509.91,-124.07 510.57,-131.04"/>
</g>
<!-- Node12 -->
<g id="node12" class="node">
<title>Node12</title>
<g id="a_node12"><a xlink:href="sitkImage_8h.html" target="_top" xlink:title=" ">
<polygon fill="white" stroke="black" points="487.5,-347.5 487.5,-366.5 561.5,-366.5 561.5,-347.5 487.5,-347.5"/>
<text text-anchor="middle" x="524.5" y="-354.5" font-family="Helvetica,sans-Serif" font-size="10.00">sitkImage.h</text>
</a>
</g>
</g>
<!-- Node2&#45;&gt;Node12 -->
<g id="edge12" class="edge">
<title>Node2&#45;&gt;Node12</title>
<path fill="none" stroke="midnightblue" d="M357.03,-403.44C391.09,-394.2 445.51,-379.44 483.02,-369.26"/>
<polygon fill="midnightblue" stroke="midnightblue" points="484.38,-372.51 493.12,-366.52 482.55,-365.76 484.38,-372.51"/>
</g>
<!-- Node16 -->
<g id="node16" class="node">
<title>Node16</title>
<g id="a_node16"><a xlink:title=" ">
<polygon fill="white" stroke="#bfbfbf" points="145,-230 145,-249 192,-249 192,-230 145,-230"/>
<text text-anchor="middle" x="168.5" y="-237" font-family="Helvetica,sans-Serif" font-size="10.00">vector</text>
</a>
</g>
</g>
<!-- Node2&#45;&gt;Node16 -->
<g id="edge59" class="edge">
<title>Node2&#45;&gt;Node16</title>
<path fill="none" stroke="midnightblue" d="M315.13,-403.42C295.24,-386.72 250.84,-348.21 218.5,-311 203.64,-293.91 188.92,-272.46 179.34,-257.74"/>
<polygon fill="midnightblue" stroke="midnightblue" points="182.18,-255.68 173.84,-249.15 176.29,-259.46 182.18,-255.68"/>
</g>
<!-- Node32 -->
<g id="node32" class="node">
<title>Node32</title>
<g id="a_node32"><a xlink:title=" ">
<polygon fill="white" stroke="#bfbfbf" points="704.5,-168.5 704.5,-187.5 748.5,-187.5 748.5,-168.5 704.5,-168.5"/>
<text text-anchor="middle" x="726.5" y="-175.5" font-family="Helvetica,sans-Serif" font-size="10.00">string</text>
</a>
</g>
</g>
<!-- Node2&#45;&gt;Node32 -->
<g id="edge58" class="edge">
<title>Node2&#45;&gt;Node32</title>
<path fill="none" stroke="midnightblue" d="M391.26,-407.95C441.96,-402.95 512.91,-391.81 570.5,-367 609.2,-350.33 703.7,-292.19 723.5,-255 732.89,-237.37 732.23,-214.03 730.12,-197.9"/>
<polygon fill="midnightblue" stroke="midnightblue" points="733.5,-196.91 728.45,-187.6 726.59,-198.03 733.5,-196.91"/>
</g>
<!-- Node35 -->
<g id="node35" class="node">
<title>Node35</title>
<g id="a_node35"><a xlink:title=" ">
<polygon fill="white" stroke="#bfbfbf" points="306.5,-347.5 306.5,-366.5 344.5,-366.5 344.5,-347.5 306.5,-347.5"/>
<text text-anchor="middle" x="325.5" y="-354.5" font-family="Helvetica,sans-Serif" font-size="10.00">map</text>
</a>
</g>
</g>
<!-- Node2&#45;&gt;Node35 -->
<g id="edge57" class="edge">
<title>Node2&#45;&gt;Node35</title>
<path fill="none" stroke="midnightblue" d="M325.5,-403.08C325.5,-396.01 325.5,-385.86 325.5,-376.99"/>
<polygon fill="midnightblue" stroke="midnightblue" points="329,-376.75 325.5,-366.75 322,-376.75 329,-376.75"/>
</g>
<!-- Node4 -->
<g id="node4" class="node">
<title>Node4</title>
<g id="a_node4"><a xlink:href="sitkMacro_8h.html" target="_top" xlink:title=" ">
<polygon fill="white" stroke="black" points="721.5,-56.5 721.5,-75.5 795.5,-75.5 795.5,-56.5 721.5,-56.5"/>
<text text-anchor="middle" x="758.5" y="-63.5" font-family="Helvetica,sans-Serif" font-size="10.00">sitkMacro.h</text>
</a>
</g>
</g>
<!-- Node3&#45;&gt;Node4 -->
<g id="edge3" class="edge">
<title>Node3&#45;&gt;Node4</title>
<path fill="none" stroke="midnightblue" d="M181.28,-113.66C325.22,-102.03 600.77,-79.75 711.1,-70.83"/>
<polygon fill="midnightblue" stroke="midnightblue" points="711.57,-74.31 721.25,-70.01 711,-67.33 711.57,-74.31"/>
</g>
<!-- Node5 -->
<g id="node5" class="node">
<title>Node5</title>
<g id="a_node5"><a xlink:title=" ">
<polygon fill="white" stroke="#bfbfbf" points="883,-0.5 883,-19.5 936,-19.5 936,-0.5 883,-0.5"/>
<text text-anchor="middle" x="909.5" y="-7.5" font-family="Helvetica,sans-Serif" font-size="10.00">stdint.h</text>
</a>
</g>
</g>
<!-- Node4&#45;&gt;Node5 -->
<g id="edge4" class="edge">
<title>Node4&#45;&gt;Node5</title>
<path fill="none" stroke="midnightblue" d="M782.43,-56.44C807.72,-47.4 847.8,-33.06 876.18,-22.92"/>
<polygon fill="midnightblue" stroke="midnightblue" points="877.45,-26.18 885.69,-19.52 875.09,-19.59 877.45,-26.18"/>
</g>
<!-- Node6 -->
<g id="node6" class="node">
<title>Node6</title>
<g id="a_node6"><a xlink:title=" ">
<polygon fill="white" stroke="#bfbfbf" points="656.5,-0.5 656.5,-19.5 712.5,-19.5 712.5,-0.5 656.5,-0.5"/>
<text text-anchor="middle" x="684.5" y="-7.5" font-family="Helvetica,sans-Serif" font-size="10.00">stddef.h</text>
</a>
</g>
</g>
<!-- Node4&#45;&gt;Node6 -->
<g id="edge5" class="edge">
<title>Node4&#45;&gt;Node6</title>
<path fill="none" stroke="midnightblue" d="M746.61,-56.32C735.35,-48.11 718.21,-35.6 704.79,-25.81"/>
<polygon fill="midnightblue" stroke="midnightblue" points="706.75,-22.9 696.61,-19.83 702.62,-28.56 706.75,-22.9"/>
</g>
<!-- Node7 -->
<g id="node7" class="node">
<title>Node7</title>
<g id="a_node7"><a xlink:title=" ">
<polygon fill="white" stroke="#bfbfbf" points="1383.5,-0.5 1383.5,-19.5 1435.5,-19.5 1435.5,-0.5 1383.5,-0.5"/>
<text text-anchor="middle" x="1409.5" y="-7.5" font-family="Helvetica,sans-Serif" font-size="10.00">cassert</text>
</a>
</g>
</g>
<!-- Node4&#45;&gt;Node7 -->
<g id="edge6" class="edge">
<title>Node4&#45;&gt;Node7</title>
<path fill="none" stroke="midnightblue" d="M795.84,-61.9C910.87,-52.36 1258.94,-23.49 1372.93,-14.03"/>
<polygon fill="midnightblue" stroke="midnightblue" points="1373.54,-17.5 1383.21,-13.18 1372.96,-10.52 1373.54,-17.5"/>
</g>
<!-- Node8 -->
<g id="node8" class="node">
<title>Node8</title>
<g id="a_node8"><a xlink:title=" ">
<polygon fill="white" stroke="#bfbfbf" points="730.5,-0.5 730.5,-19.5 786.5,-19.5 786.5,-0.5 730.5,-0.5"/>
<text text-anchor="middle" x="758.5" y="-7.5" font-family="Helvetica,sans-Serif" font-size="10.00">sstream</text>
</a>
</g>
</g>
<!-- Node4&#45;&gt;Node8 -->
<g id="edge7" class="edge">
<title>Node4&#45;&gt;Node8</title>
<path fill="none" stroke="midnightblue" d="M758.5,-56.08C758.5,-49.01 758.5,-38.86 758.5,-29.99"/>
<polygon fill="midnightblue" stroke="midnightblue" points="762,-29.75 758.5,-19.75 755,-29.75 762,-29.75"/>
</g>
<!-- Node9 -->
<g id="node9" class="node">
<title>Node9</title>
<g id="a_node9"><a xlink:title=" ">
<polygon fill="white" stroke="#bfbfbf" points="804.5,-0.5 804.5,-19.5 848.5,-19.5 848.5,-0.5 804.5,-0.5"/>
<text text-anchor="middle" x="826.5" y="-7.5" font-family="Helvetica,sans-Serif" font-size="10.00">limits</text>
</a>
</g>
</g>
<!-- Node4&#45;&gt;Node9 -->
<g id="edge8" class="edge">
<title>Node4&#45;&gt;Node9</title>
<path fill="none" stroke="midnightblue" d="M769.43,-56.32C779.67,-48.18 795.22,-35.84 807.5,-26.09"/>
<polygon fill="midnightblue" stroke="midnightblue" points="809.72,-28.79 815.38,-19.83 805.37,-23.31 809.72,-28.79"/>
</g>
<!-- Node10 -->
<g id="node10" class="node">
<title>Node10</title>
<g id="a_node10"><a xlink:href="sitkConfigure_8h.html" target="_top" xlink:title=" ">
<polygon fill="white" stroke="black" points="1001.5,-0.5 1001.5,-19.5 1091.5,-19.5 1091.5,-0.5 1001.5,-0.5"/>
<text text-anchor="middle" x="1046.5" y="-7.5" font-family="Helvetica,sans-Serif" font-size="10.00">sitkConfigure.h</text>
</a>
</g>
</g>
<!-- Node4&#45;&gt;Node10 -->
<g id="edge9" class="edge">
<title>Node4&#45;&gt;Node10</title>
<path fill="none" stroke="midnightblue" d="M795.56,-58.05C845.15,-48.75 933.5,-32.19 991.03,-21.4"/>
<polygon fill="midnightblue" stroke="midnightblue" points="991.86,-24.81 1001.05,-19.52 990.57,-17.93 991.86,-24.81"/>
</g>
<!-- Node11&#45;&gt;Node4 -->
<g id="edge11" class="edge">
<title>Node11&#45;&gt;Node4</title>
<path fill="none" stroke="midnightblue" d="M595.24,-112.44C628.44,-103.2 681.49,-88.44 718.06,-78.26"/>
<polygon fill="midnightblue" stroke="midnightblue" points="719.21,-81.57 727.9,-75.52 717.33,-74.83 719.21,-81.57"/>
</g>
<!-- Node12&#45;&gt;Node11 -->
<g id="edge13" class="edge">
<title>Node12&#45;&gt;Node11</title>
<path fill="none" stroke="midnightblue" d="M524.35,-347.19C524.12,-319.98 525.04,-235.05 543.5,-168 546.1,-158.55 550.54,-148.61 554.67,-140.48"/>
<polygon fill="midnightblue" stroke="midnightblue" points="557.77,-142.1 559.4,-131.63 551.6,-138.8 557.77,-142.1"/>
</g>
<!-- Node13 -->
<g id="node13" class="node">
<title>Node13</title>
<g id="a_node13"><a xlink:href="sitkTemplateFunctions_8h.html" target="_top" xlink:title=" ">
<polygon fill="white" stroke="black" points="263,-291.5 263,-310.5 398,-310.5 398,-291.5 263,-291.5"/>
<text text-anchor="middle" x="330.5" y="-298.5" font-family="Helvetica,sans-Serif" font-size="10.00">sitkTemplateFunctions.h</text>
</a>
</g>
</g>
<!-- Node12&#45;&gt;Node13 -->
<g id="edge14" class="edge">
<title>Node12&#45;&gt;Node13</title>
<path fill="none" stroke="midnightblue" d="M493.76,-347.44C460.56,-338.2 407.51,-323.44 370.94,-313.26"/>
<polygon fill="midnightblue" stroke="midnightblue" points="371.67,-309.83 361.1,-310.52 369.79,-316.57 371.67,-309.83"/>
</g>
<!-- Node15 -->
<g id="node15" class="node">
<title>Node15</title>
<g id="a_node15"><a xlink:title=" ">
<polygon fill="white" stroke="#bfbfbf" points="552.5,-168.5 552.5,-187.5 610.5,-187.5 610.5,-168.5 552.5,-168.5"/>
<text text-anchor="middle" x="581.5" y="-175.5" font-family="Helvetica,sans-Serif" font-size="10.00">memory</text>
</a>
</g>
</g>
<!-- Node12&#45;&gt;Node15 -->
<g id="edge55" class="edge">
<title>Node12&#45;&gt;Node15</title>
<path fill="none" stroke="midnightblue" d="M527.25,-347.46C535.99,-320.31 563.3,-235.51 575.5,-197.62"/>
<polygon fill="midnightblue" stroke="midnightblue" points="578.91,-198.46 578.64,-187.87 572.25,-196.31 578.91,-198.46"/>
</g>
<!-- Node12&#45;&gt;Node16 -->
<g id="edge54" class="edge">
<title>Node12&#45;&gt;Node16</title>
<path fill="none" stroke="midnightblue" d="M487.39,-355.79C433.67,-354.19 332.18,-346.24 254.5,-311 226.05,-298.09 199.21,-273.34 183.31,-256.87"/>
<polygon fill="midnightblue" stroke="midnightblue" points="185.43,-254.02 176.04,-249.12 180.33,-258.81 185.43,-254.02"/>
</g>
<!-- Node19 -->
<g id="node19" class="node">
<title>Node19</title>
<g id="a_node19"><a xlink:href="sitkDetail_8h.html" target="_top" xlink:title=" ">
<polygon fill="white" stroke="black" points="1099,-291.5 1099,-310.5 1172,-310.5 1172,-291.5 1099,-291.5"/>
<text text-anchor="middle" x="1135.5" y="-298.5" font-family="Helvetica,sans-Serif" font-size="10.00">sitkDetail.h</text>
</a>
</g>
</g>
<!-- Node12&#45;&gt;Node19 -->
<g id="edge24" class="edge">
<title>Node12&#45;&gt;Node19</title>
<path fill="none" stroke="midnightblue" d="M561.68,-354.5C650.83,-350.6 883.93,-338.55 1088.86,-310.92"/>
<polygon fill="midnightblue" stroke="midnightblue" points="1089.47,-314.37 1098.9,-309.55 1088.52,-307.43 1089.47,-314.37"/>
</g>
<!-- Node30 -->
<g id="node30" class="node">
<title>Node30</title>
<g id="a_node30"><a xlink:href="sitkPixelIDTokens_8h.html" target="_top" xlink:title=" ">
<polygon fill="white" stroke="black" points="970.5,-291.5 970.5,-310.5 1080.5,-310.5 1080.5,-291.5 970.5,-291.5"/>
<text text-anchor="middle" x="1025.5" y="-298.5" font-family="Helvetica,sans-Serif" font-size="10.00">sitkPixelIDTokens.h</text>
</a>
</g>
</g>
<!-- Node12&#45;&gt;Node30 -->
<g id="edge43" class="edge">
<title>Node12&#45;&gt;Node30</title>
<path fill="none" stroke="midnightblue" d="M561.75,-351.99C646.33,-342.87 853.77,-320.51 960.19,-309.04"/>
<polygon fill="midnightblue" stroke="midnightblue" points="960.6,-312.52 970.17,-307.96 959.85,-305.56 960.6,-312.52"/>
</g>
<!-- Node33 -->
<g id="node33" class="node">
<title>Node33</title>
<g id="a_node33"><a xlink:title=" ">
<polygon fill="white" stroke="#bfbfbf" points="771,-230 771,-249 840,-249 840,-230 771,-230"/>
<text text-anchor="middle" x="805.5" y="-237" font-family="Helvetica,sans-Serif" font-size="10.00">type_traits</text>
</a>
</g>
</g>
<!-- Node12&#45;&gt;Node33 -->
<g id="edge56" class="edge">
<title>Node12&#45;&gt;Node33</title>
<path fill="none" stroke="midnightblue" d="M545.62,-347.32C594.97,-327.03 717.98,-276.47 775.26,-252.93"/>
<polygon fill="midnightblue" stroke="midnightblue" points="776.6,-256.16 784.52,-249.12 773.94,-249.69 776.6,-256.16"/>
</g>
<!-- Node34 -->
<g id="node34" class="node">
<title>Node34</title>
<g id="a_node34"><a xlink:href="sitkInterpolator_8h.html" target="_top" xlink:title=" ">
<polygon fill="white" stroke="black" points="396.5,-230 396.5,-249 496.5,-249 496.5,-230 396.5,-230"/>
<text text-anchor="middle" x="446.5" y="-237" font-family="Helvetica,sans-Serif" font-size="10.00">sitkInterpolator.h</text>
</a>
</g>
</g>
<!-- Node12&#45;&gt;Node34 -->
<g id="edge51" class="edge">
<title>Node12&#45;&gt;Node34</title>
<path fill="none" stroke="midnightblue" d="M518.64,-347.32C505.82,-328.34 475.1,-282.85 458.18,-257.79"/>
<polygon fill="midnightblue" stroke="midnightblue" points="460.93,-255.61 452.43,-249.28 455.13,-259.53 460.93,-255.61"/>
</g>
<!-- Node13&#45;&gt;Node4 -->
<g id="edge15" class="edge">
<title>Node13&#45;&gt;Node4</title>
<path fill="none" stroke="midnightblue" d="M293.4,-291.46C274.06,-284.92 252.07,-273.72 240.5,-255 233.26,-243.28 232.96,-235.53 240.5,-224 293.17,-143.46 593.14,-91.3 710.98,-73.66"/>
<polygon fill="midnightblue" stroke="midnightblue" points="711.76,-77.08 721.14,-72.16 710.74,-70.16 711.76,-77.08"/>
</g>
<!-- Node13&#45;&gt;Node11 -->
<g id="edge16" class="edge">
<title>Node13&#45;&gt;Node11</title>
<path fill="none" stroke="midnightblue" d="M331.71,-291.48C335.6,-267.59 350.07,-199.62 392.5,-168 426.66,-142.54 473.98,-131.45 510.34,-126.64"/>
<polygon fill="midnightblue" stroke="midnightblue" points="510.78,-130.11 520.29,-125.44 509.94,-123.16 510.78,-130.11"/>
</g>
<!-- Node14 -->
<g id="node14" class="node">
<title>Node14</title>
<g id="a_node14"><a xlink:href="sitkExceptionObject_8h.html" target="_top" xlink:title=" ">
<polygon fill="white" stroke="black" points="591,-230 591,-249 714,-249 714,-230 591,-230"/>
<text text-anchor="middle" x="652.5" y="-237" font-family="Helvetica,sans-Serif" font-size="10.00">sitkExceptionObject.h</text>
</a>
</g>
</g>
<!-- Node13&#45;&gt;Node14 -->
<g id="edge17" class="edge">
<title>Node13&#45;&gt;Node14</title>
<path fill="none" stroke="midnightblue" d="M376.63,-291.48C434.62,-280.76 534.08,-262.38 596.4,-250.87"/>
<polygon fill="midnightblue" stroke="midnightblue" points="597.25,-254.27 606.45,-249.01 595.98,-247.38 597.25,-254.27"/>
</g>
<!-- Node13&#45;&gt;Node16 -->
<g id="edge21" class="edge">
<title>Node13&#45;&gt;Node16</title>
<path fill="none" stroke="midnightblue" d="M306.69,-291.49C281.69,-282.52 241.27,-267.94 206.5,-255 204.61,-254.3 202.68,-253.57 200.72,-252.84"/>
<polygon fill="midnightblue" stroke="midnightblue" points="201.57,-249.42 190.98,-249.15 199.09,-255.96 201.57,-249.42"/>
</g>
<!-- Node17 -->
<g id="node17" class="node">
<title>Node17</title>
<g id="a_node17"><a xlink:title=" ">
<polygon fill="white" stroke="#bfbfbf" points="401,-168.5 401,-187.5 458,-187.5 458,-168.5 401,-168.5"/>
<text text-anchor="middle" x="429.5" y="-175.5" font-family="Helvetica,sans-Serif" font-size="10.00">ostream</text>
</a>
</g>
</g>
<!-- Node13&#45;&gt;Node17 -->
<g id="edge22" class="edge">
<title>Node13&#45;&gt;Node17</title>
<path fill="none" stroke="midnightblue" d="M336.54,-291.34C346.64,-276.98 367.8,-247.52 387.5,-224 395.82,-214.07 405.68,-203.45 413.76,-195.02"/>
<polygon fill="midnightblue" stroke="midnightblue" points="416.4,-197.33 420.84,-187.71 411.37,-192.45 416.4,-197.33"/>
</g>
<!-- Node18 -->
<g id="node18" class="node">
<title>Node18</title>
<g id="a_node18"><a xlink:title=" ">
<polygon fill="white" stroke="#bfbfbf" points="249,-230 249,-249 302,-249 302,-230 249,-230"/>
<text text-anchor="middle" x="275.5" y="-237" font-family="Helvetica,sans-Serif" font-size="10.00">iterator</text>
</a>
</g>
</g>
<!-- Node13&#45;&gt;Node18 -->
<g id="edge23" class="edge">
<title>Node13&#45;&gt;Node18</title>
<path fill="none" stroke="midnightblue" d="M322.62,-291.48C314.21,-282.37 300.68,-267.74 290.27,-256.48"/>
<polygon fill="midnightblue" stroke="midnightblue" points="292.72,-253.98 283.37,-249.01 287.58,-258.73 292.72,-253.98"/>
</g>
<!-- Node14&#45;&gt;Node4 -->
<g id="edge18" class="edge">
<title>Node14&#45;&gt;Node4</title>
<path fill="none" stroke="midnightblue" d="M657.77,-229.8C665.85,-216.47 681.8,-190.21 695.5,-168 713.68,-138.52 735.06,-104.36 747.65,-84.27"/>
<polygon fill="midnightblue" stroke="midnightblue" points="750.73,-85.96 753.08,-75.63 744.8,-82.24 750.73,-85.96"/>
</g>
<!-- Node14&#45;&gt;Node11 -->
<g id="edge19" class="edge">
<title>Node14&#45;&gt;Node11</title>
<path fill="none" stroke="midnightblue" d="M649.76,-229.56C645.14,-215.46 634.77,-187.62 619.5,-168 610.29,-156.17 597.43,-145.43 586.46,-137.41"/>
<polygon fill="midnightblue" stroke="midnightblue" points="588.37,-134.48 578.18,-131.6 584.35,-140.21 588.37,-134.48"/>
</g>
<!-- Node14&#45;&gt;Node15 -->
<g id="edge20" class="edge">
<title>Node14&#45;&gt;Node15</title>
<path fill="none" stroke="midnightblue" d="M642.33,-229.98C631.15,-220.61 612.98,-205.38 599.41,-194.01"/>
<polygon fill="midnightblue" stroke="midnightblue" points="601.57,-191.25 591.65,-187.51 597.07,-196.61 601.57,-191.25"/>
</g>
<!-- Node20 -->
<g id="node20" class="node">
<title>Node20</title>
<g id="a_node20"><a xlink:href="sitkMemberFunctionFactoryBase_8h.html" target="_top" xlink:title=" ">
<polygon fill="white" stroke="black" points="1162.5,-224.5 1162.5,-254.5 1314.5,-254.5 1314.5,-224.5 1162.5,-224.5"/>
<text text-anchor="start" x="1170.5" y="-242.5" font-family="Helvetica,sans-Serif" font-size="10.00">sitkMemberFunctionFactory</text>
<text text-anchor="middle" x="1238.5" y="-231.5" font-family="Helvetica,sans-Serif" font-size="10.00">Base.h</text>
</a>
</g>
</g>
<!-- Node19&#45;&gt;Node20 -->
<g id="edge25" class="edge">
<title>Node19&#45;&gt;Node20</title>
<path fill="none" stroke="midnightblue" d="M1150.26,-291.48C1164.6,-283.19 1186.87,-270.32 1205.45,-259.59"/>
<polygon fill="midnightblue" stroke="midnightblue" points="1207.32,-262.56 1214.22,-254.52 1203.82,-256.49 1207.32,-262.56"/>
</g>
<!-- Node26 -->
<g id="node26" class="node">
<title>Node26</title>
<g id="a_node26"><a xlink:title=" ">
<polygon fill="white" stroke="#bfbfbf" points="843,-168.5 843,-187.5 982,-187.5 982,-168.5 843,-168.5"/>
<text text-anchor="middle" x="912.5" y="-175.5" font-family="Helvetica,sans-Serif" font-size="10.00">Ancillary/FunctionTraits.h</text>
</a>
</g>
</g>
<!-- Node19&#45;&gt;Node26 -->
<g id="edge42" class="edge">
<title>Node19&#45;&gt;Node26</title>
<path fill="none" stroke="midnightblue" d="M1122.29,-291.27C1099.81,-276.56 1052.44,-246.28 1010.5,-224 988.15,-212.13 962.08,-200.25 942.45,-191.68"/>
<polygon fill="midnightblue" stroke="midnightblue" points="943.67,-188.39 933.1,-187.63 940.89,-194.82 943.67,-188.39"/>
</g>
<!-- Node20&#45;&gt;Node4 -->
<g id="edge34" class="edge">
<title>Node20&#45;&gt;Node4</title>
<path fill="none" stroke="midnightblue" d="M1216.44,-224.48C1187.54,-206.3 1138.21,-175.97 1118.5,-168 1055.34,-142.47 1035.2,-150.04 969.5,-132 907.35,-114.94 835.82,-92.25 794.04,-78.68"/>
<polygon fill="midnightblue" stroke="midnightblue" points="794.93,-75.29 784.34,-75.52 792.76,-81.95 794.93,-75.29"/>
</g>
<!-- Node20&#45;&gt;Node10 -->
<g id="edge26" class="edge">
<title>Node20&#45;&gt;Node10</title>
<path fill="none" stroke="midnightblue" d="M1274.69,-224.47C1325.2,-202.79 1406.95,-158.74 1372.5,-112 1340.15,-68.12 1185.86,-35.13 1101.65,-20.06"/>
<polygon fill="midnightblue" stroke="midnightblue" points="1102.2,-16.6 1091.75,-18.31 1100.98,-23.49 1102.2,-16.6"/>
</g>
<!-- Node21 -->
<g id="node21" class="node">
<title>Node21</title>
<g id="a_node21"><a xlink:href="sitkPixelIDTypes_8h.html" target="_top" xlink:title=" ">
<polygon fill="white" stroke="black" points="1121,-112.5 1121,-131.5 1226,-131.5 1226,-112.5 1121,-112.5"/>
<text text-anchor="middle" x="1173.5" y="-119.5" font-family="Helvetica,sans-Serif" font-size="10.00">sitkPixelIDTypes.h</text>
</a>
</g>
</g>
<!-- Node20&#45;&gt;Node21 -->
<g id="edge27" class="edge">
<title>Node20&#45;&gt;Node21</title>
<path fill="none" stroke="midnightblue" d="M1263.8,-224.44C1285.39,-210.57 1310.85,-188.53 1296.5,-168 1287.3,-154.84 1250.82,-142.51 1219.96,-134.09"/>
<polygon fill="midnightblue" stroke="midnightblue" points="1220.74,-130.68 1210.18,-131.5 1218.95,-137.44 1220.74,-130.68"/>
</g>
<!-- Node22 -->
<g id="node22" class="node">
<title>Node22</title>
<g id="a_node22"><a xlink:href="sitkPixelIDTypeLists_8h.html" target="_top" xlink:title=" ">
<polygon fill="white" stroke="black" points="1165.5,-168.5 1165.5,-187.5 1287.5,-187.5 1287.5,-168.5 1165.5,-168.5"/>
<text text-anchor="middle" x="1226.5" y="-175.5" font-family="Helvetica,sans-Serif" font-size="10.00">sitkPixelIDTypeLists.h</text>
</a>
</g>
</g>
<!-- Node20&#45;&gt;Node22 -->
<g id="edge28" class="edge">
<title>Node20&#45;&gt;Node22</title>
<path fill="none" stroke="midnightblue" d="M1235.66,-224.4C1234.04,-216.38 1231.99,-206.23 1230.25,-197.57"/>
<polygon fill="midnightblue" stroke="midnightblue" points="1233.65,-196.77 1228.25,-187.66 1226.79,-198.15 1233.65,-196.77"/>
</g>
<!-- Node23 -->
<g id="node23" class="node">
<title>Node23</title>
<g id="a_node23"><a xlink:title=" ">
<polygon fill="white" stroke="#bfbfbf" points="1244,-112.5 1244,-131.5 1363,-131.5 1363,-112.5 1244,-112.5"/>
<text text-anchor="middle" x="1303.5" y="-119.5" font-family="Helvetica,sans-Serif" font-size="10.00">Ancillary/type_list2.h</text>
</a>
</g>
</g>
<!-- Node20&#45;&gt;Node23 -->
<g id="edge37" class="edge">
<title>Node20&#45;&gt;Node23</title>
<path fill="none" stroke="midnightblue" d="M1272.35,-224.44C1287.54,-216.23 1303.93,-204.23 1312.5,-188 1320.14,-173.53 1316.38,-154.84 1311.6,-141.22"/>
<polygon fill="midnightblue" stroke="midnightblue" points="1314.7,-139.55 1307.75,-131.56 1308.2,-142.14 1314.7,-139.55"/>
</g>
<!-- Node25 -->
<g id="node25" class="node">
<title>Node25</title>
<g id="a_node25"><a xlink:href="sitkNonCopyable_8h.html" target="_top" xlink:title=" ">
<polygon fill="white" stroke="black" points="1000,-168.5 1000,-187.5 1109,-187.5 1109,-168.5 1000,-168.5"/>
<text text-anchor="middle" x="1054.5" y="-175.5" font-family="Helvetica,sans-Serif" font-size="10.00">sitkNonCopyable.h</text>
</a>
</g>
</g>
<!-- Node20&#45;&gt;Node25 -->
<g id="edge35" class="edge">
<title>Node20&#45;&gt;Node25</title>
<path fill="none" stroke="midnightblue" d="M1194.89,-224.4C1163.1,-214.12 1120.53,-200.35 1090.63,-190.68"/>
<polygon fill="midnightblue" stroke="midnightblue" points="1091.6,-187.32 1081.01,-187.57 1089.44,-193.98 1091.6,-187.32"/>
</g>
<!-- Node20&#45;&gt;Node26 -->
<g id="edge38" class="edge">
<title>Node20&#45;&gt;Node26</title>
<path fill="none" stroke="midnightblue" d="M1162.48,-224.62C1103.44,-213.85 1022.88,-199.15 969.35,-189.38"/>
<polygon fill="midnightblue" stroke="midnightblue" points="969.81,-185.9 959.35,-187.55 968.56,-192.79 969.81,-185.9"/>
</g>
<!-- Node27 -->
<g id="node27" class="node">
<title>Node27</title>
<g id="a_node27"><a xlink:title=" ">
<polygon fill="white" stroke="#bfbfbf" points="1420,-168.5 1420,-187.5 1513,-187.5 1513,-168.5 1420,-168.5"/>
<text text-anchor="middle" x="1466.5" y="-175.5" font-family="Helvetica,sans-Serif" font-size="10.00">unordered_map</text>
</a>
</g>
</g>
<!-- Node20&#45;&gt;Node27 -->
<g id="edge39" class="edge">
<title>Node20&#45;&gt;Node27</title>
<path fill="none" stroke="midnightblue" d="M1292.24,-224.47C1332.44,-213.99 1386.65,-199.84 1423.88,-190.12"/>
<polygon fill="midnightblue" stroke="midnightblue" points="1425.11,-193.42 1433.9,-187.51 1423.34,-186.64 1425.11,-193.42"/>
</g>
<!-- Node28 -->
<g id="node28" class="node">
<title>Node28</title>
<g id="a_node28"><a xlink:title=" ">
<polygon fill="white" stroke="#bfbfbf" points="1531,-168.5 1531,-187.5 1596,-187.5 1596,-168.5 1531,-168.5"/>
<text text-anchor="middle" x="1563.5" y="-175.5" font-family="Helvetica,sans-Serif" font-size="10.00">functional</text>
</a>
</g>
</g>
<!-- Node20&#45;&gt;Node28 -->
<g id="edge40" class="edge">
<title>Node20&#45;&gt;Node28</title>
<path fill="none" stroke="midnightblue" d="M1314.6,-225.82C1369.41,-216.49 1445.39,-203.15 1520.71,-188.3"/>
<polygon fill="midnightblue" stroke="midnightblue" points="1521.72,-191.67 1530.85,-186.29 1520.36,-184.8 1521.72,-191.67"/>
</g>
<!-- Node29 -->
<g id="node29" class="node">
<title>Node29</title>
<g id="a_node29"><a xlink:title=" ">
<polygon fill="white" stroke="#bfbfbf" points="1614,-168.5 1614,-187.5 1655,-187.5 1655,-168.5 1614,-168.5"/>
<text text-anchor="middle" x="1634.5" y="-175.5" font-family="Helvetica,sans-Serif" font-size="10.00">tuple</text>
</a>
</g>
</g>
<!-- Node20&#45;&gt;Node29 -->
<g id="edge41" class="edge">
<title>Node20&#45;&gt;Node29</title>
<path fill="none" stroke="midnightblue" d="M1314.71,-231.7C1387.13,-224.4 1499.12,-210.94 1603.91,-188.07"/>
<polygon fill="midnightblue" stroke="midnightblue" points="1604.69,-191.48 1613.7,-185.9 1603.18,-184.65 1604.69,-191.48"/>
</g>
<!-- Node22&#45;&gt;Node5 -->
<g id="edge29" class="edge">
<title>Node22&#45;&gt;Node5</title>
<path fill="none" stroke="midnightblue" d="M1171.83,-168.47C1108.56,-158.26 1011.12,-141.38 996.5,-132 956.89,-106.6 929.65,-56.22 917.2,-29.18"/>
<polygon fill="midnightblue" stroke="midnightblue" points="920.27,-27.48 913.03,-19.75 913.87,-30.31 920.27,-27.48"/>
</g>
<!-- Node22&#45;&gt;Node10 -->
<g id="edge30" class="edge">
<title>Node22&#45;&gt;Node10</title>
<path fill="none" stroke="midnightblue" d="M1186.44,-168.49C1162.75,-161.81 1133.39,-150.46 1112.5,-132 1080.34,-103.58 1060.84,-55.58 1052.05,-29.39"/>
<polygon fill="midnightblue" stroke="midnightblue" points="1055.31,-28.09 1048.94,-19.63 1048.64,-30.22 1055.31,-28.09"/>
</g>
<!-- Node22&#45;&gt;Node21 -->
<g id="edge31" class="edge">
<title>Node22&#45;&gt;Node21</title>
<path fill="none" stroke="midnightblue" d="M1217.75,-168.08C1210.03,-160.22 1198.6,-148.57 1189.28,-139.08"/>
<polygon fill="midnightblue" stroke="midnightblue" points="1191.59,-136.44 1182.09,-131.75 1186.6,-141.34 1191.59,-136.44"/>
</g>
<!-- Node22&#45;&gt;Node23 -->
<g id="edge32" class="edge">
<title>Node22&#45;&gt;Node23</title>
<path fill="none" stroke="midnightblue" d="M1238.87,-168.32C1250.66,-160.06 1268.63,-147.45 1282.64,-137.63"/>
<polygon fill="midnightblue" stroke="midnightblue" points="1284.98,-140.26 1291.16,-131.65 1280.96,-134.53 1284.98,-140.26"/>
</g>
<!-- Node24 -->
<g id="node24" class="node">
<title>Node24</title>
<g id="a_node24"><a xlink:title=" ">
<polygon fill="white" stroke="#bfbfbf" points="1005,-112.5 1005,-131.5 1064,-131.5 1064,-112.5 1005,-112.5"/>
<text text-anchor="middle" x="1034.5" y="-119.5" font-family="Helvetica,sans-Serif" font-size="10.00">complex</text>
</a>
</g>
</g>
<!-- Node22&#45;&gt;Node24 -->
<g id="edge33" class="edge">
<title>Node22&#45;&gt;Node24</title>
<path fill="none" stroke="midnightblue" d="M1196.08,-168.44C1163.02,-159.15 1110.1,-144.26 1073.89,-134.08"/>
<polygon fill="midnightblue" stroke="midnightblue" points="1074.72,-130.68 1064.15,-131.34 1072.83,-137.42 1074.72,-130.68"/>
</g>
<!-- Node25&#45;&gt;Node11 -->
<g id="edge36" class="edge">
<title>Node25&#45;&gt;Node11</title>
<path fill="none" stroke="midnightblue" d="M999.88,-169.07C997.05,-168.7 994.24,-168.34 991.5,-168 857.6,-151.39 699.58,-135.77 618.49,-128.05"/>
<polygon fill="midnightblue" stroke="midnightblue" points="618.8,-124.56 608.51,-127.1 618.14,-131.53 618.8,-124.56"/>
</g>
<!-- Node30&#45;&gt;Node10 -->
<g id="edge44" class="edge">
<title>Node30&#45;&gt;Node10</title>
<path fill="none" stroke="midnightblue" d="M1022.55,-291.42C1016.63,-275.54 1001.76,-241.58 977.5,-224 922.23,-183.95 803.79,-228.96 834.5,-168 872.36,-92.84 965.09,-44.69 1014.42,-23.5"/>
<polygon fill="midnightblue" stroke="midnightblue" points="1015.81,-26.71 1023.68,-19.62 1013.1,-20.26 1015.81,-26.71"/>
</g>
<!-- Node31 -->
<g id="node31" class="node">
<title>Node31</title>
<g id="a_node31"><a xlink:href="sitkPixelIDValues_8h.html" target="_top" xlink:title=" ">
<polygon fill="white" stroke="black" points="858.5,-230 858.5,-249 968.5,-249 968.5,-230 858.5,-230"/>
<text text-anchor="middle" x="913.5" y="-237" font-family="Helvetica,sans-Serif" font-size="10.00">sitkPixelIDValues.h</text>
</a>
</g>
</g>
<!-- Node30&#45;&gt;Node31 -->
<g id="edge45" class="edge">
<title>Node30&#45;&gt;Node31</title>
<path fill="none" stroke="midnightblue" d="M1009.45,-291.48C990.91,-281.62 960.16,-265.29 938.48,-253.77"/>
<polygon fill="midnightblue" stroke="midnightblue" points="939.99,-250.61 929.52,-249.01 936.71,-256.79 939.99,-250.61"/>
</g>
<!-- Node30&#45;&gt;Node33 -->
<g id="edge50" class="edge">
<title>Node30&#45;&gt;Node33</title>
<path fill="none" stroke="midnightblue" d="M989.24,-291.49C953.52,-282.93 897.48,-269.02 849.5,-255 846.51,-254.13 843.41,-253.18 840.32,-252.22"/>
<polygon fill="midnightblue" stroke="midnightblue" points="841.13,-248.8 830.54,-249.08 838.99,-255.47 841.13,-248.8"/>
</g>
<!-- Node31&#45;&gt;Node11 -->
<g id="edge46" class="edge">
<title>Node31&#45;&gt;Node11</title>
<path fill="none" stroke="midnightblue" d="M893.86,-229.83C871.29,-219.84 833.15,-202.89 800.5,-188 781.32,-179.26 777.42,-174.87 757.5,-168 711.57,-152.16 657.59,-140.1 618.41,-132.47"/>
<polygon fill="midnightblue" stroke="midnightblue" points="619.01,-129.02 608.53,-130.58 617.7,-135.9 619.01,-129.02"/>
</g>
<!-- Node31&#45;&gt;Node17 -->
<g id="edge49" class="edge">
<title>Node31&#45;&gt;Node17</title>
<path fill="none" stroke="midnightblue" d="M879.1,-229.94C869.56,-227.77 859.17,-225.61 849.5,-224 776.52,-211.87 557.69,-190.91 468.24,-182.57"/>
<polygon fill="midnightblue" stroke="midnightblue" points="468.52,-179.08 458.24,-181.64 467.88,-186.05 468.52,-179.08"/>
</g>
<!-- Node31&#45;&gt;Node22 -->
<g id="edge47" class="edge">
<title>Node31&#45;&gt;Node22</title>
<path fill="none" stroke="midnightblue" d="M958.35,-229.98C1014.59,-219.28 1110.99,-200.96 1171.59,-189.44"/>
<polygon fill="midnightblue" stroke="midnightblue" points="1172.57,-192.82 1181.74,-187.51 1171.26,-185.94 1172.57,-192.82"/>
</g>
<!-- Node31&#45;&gt;Node32 -->
<g id="edge48" class="edge">
<title>Node31&#45;&gt;Node32</title>
<path fill="none" stroke="midnightblue" d="M886.71,-229.98C852.74,-219.17 794.25,-200.56 758.13,-189.06"/>
<polygon fill="midnightblue" stroke="midnightblue" points="759.16,-185.72 748.57,-186.02 757.04,-192.39 759.16,-185.72"/>
</g>
<!-- Node34&#45;&gt;Node11 -->
<g id="edge52" class="edge">
<title>Node34&#45;&gt;Node11</title>
<path fill="none" stroke="midnightblue" d="M453.63,-229.9C465.09,-216.26 488.54,-189.05 510.5,-168 521.62,-157.34 534.91,-146.25 545.52,-137.75"/>
<polygon fill="midnightblue" stroke="midnightblue" points="547.69,-140.49 553.36,-131.54 543.35,-135 547.69,-140.49"/>
</g>
<!-- Node34&#45;&gt;Node17 -->
<g id="edge53" class="edge">
<title>Node34&#45;&gt;Node17</title>
<path fill="none" stroke="midnightblue" d="M444.06,-229.98C441.64,-221.49 437.84,-208.2 434.73,-197.32"/>
<polygon fill="midnightblue" stroke="midnightblue" points="438.04,-196.16 431.93,-187.51 431.31,-198.09 438.04,-196.16"/>
</g>
<!-- Node36&#45;&gt;Node7 -->
<g id="edge65" class="edge">
<title>Node36&#45;&gt;Node7</title>
<path fill="none" stroke="midnightblue" d="M1008.23,-347.94C1202.3,-327.78 1683.5,-274.38 1683.5,-240.5 1683.5,-240.5 1683.5,-240.5 1683.5,-121 1683.5,-70.33 1520.09,-32.32 1445.66,-17.63"/>
<polygon fill="midnightblue" stroke="midnightblue" points="1446.26,-14.18 1435.77,-15.72 1444.92,-21.06 1446.26,-14.18"/>
</g>
<!-- Node36&#45;&gt;Node14 -->
<g id="edge68" class="edge">
<title>Node36&#45;&gt;Node14</title>
<path fill="none" stroke="midnightblue" d="M849.59,-347.5C792.43,-340.09 721.06,-327.88 696.5,-311 677.97,-298.26 665.69,-274.9 658.92,-258.58"/>
<polygon fill="midnightblue" stroke="midnightblue" points="662.12,-257.12 655.26,-249.05 655.58,-259.64 662.12,-257.12"/>
</g>
<!-- Node36&#45;&gt;Node19 -->
<g id="edge61" class="edge">
<title>Node36&#45;&gt;Node19</title>
<path fill="none" stroke="midnightblue" d="M961.3,-347.44C996.88,-338.16 1053.81,-323.31 1092.85,-313.13"/>
<polygon fill="midnightblue" stroke="midnightblue" points="1094.06,-316.43 1102.85,-310.52 1092.29,-309.65 1094.06,-316.43"/>
</g>
<!-- Node36&#45;&gt;Node20 -->
<g id="edge62" class="edge">
<title>Node36&#45;&gt;Node20</title>
<path fill="none" stroke="midnightblue" d="M1008.2,-347.96C1071.05,-340.5 1152.74,-327.99 1181.5,-311 1200.65,-299.69 1216.02,-279.4 1225.95,-263.47"/>
<polygon fill="midnightblue" stroke="midnightblue" points="1229.06,-265.09 1231.16,-254.71 1223.04,-261.52 1229.06,-265.09"/>
</g>
<!-- Node36&#45;&gt;Node30 -->
<g id="edge67" class="edge">
<title>Node36&#45;&gt;Node30</title>
<path fill="none" stroke="midnightblue" d="M944.08,-347.32C959.5,-338.74 983.31,-325.49 1001.21,-315.52"/>
<polygon fill="midnightblue" stroke="midnightblue" points="1002.92,-318.58 1009.95,-310.65 999.51,-312.46 1002.92,-318.58"/>
</g>
<!-- Node36&#45;&gt;Node31 -->
<g id="edge63" class="edge">
<title>Node36&#45;&gt;Node31</title>
<path fill="none" stroke="midnightblue" d="M927.37,-347.32C924.96,-328.76 919.26,-284.84 915.96,-259.47"/>
<polygon fill="midnightblue" stroke="midnightblue" points="919.4,-258.75 914.64,-249.28 912.46,-259.65 919.4,-258.75"/>
</g>
<!-- Node36&#45;&gt;Node36 -->
<g id="edge66" class="edge">
<title>Node36&#45;&gt;Node36</title>
<path fill="none" stroke="midnightblue" d="M969.83,-366.5C998.17,-369.33 1026,-366.16 1026,-357 1026,-348.95 1004.5,-345.53 980.06,-346.74"/>
<polygon fill="midnightblue" stroke="midnightblue" points="979.54,-343.27 969.83,-347.5 980.06,-350.25 979.54,-343.27"/>
</g>
<!-- Node37 -->
<g id="node37" class="node">
<title>Node37</title>
<g id="a_node37"><a xlink:title=" ">
<polygon fill="white" stroke="#bfbfbf" points="705,-291.5 705,-310.5 876,-310.5 876,-291.5 705,-291.5"/>
<text text-anchor="middle" x="790.5" y="-298.5" font-family="Helvetica,sans-Serif" font-size="10.00">sitkMemberFunctionFactory.hxx</text>
</a>
</g>
</g>
<!-- Node36&#45;&gt;Node37 -->
<g id="edge64" class="edge">
<title>Node36&#45;&gt;Node37</title>
<path fill="none" stroke="midnightblue" d="M906.63,-347.44C883.72,-338.48 847.52,-324.31 821.63,-314.18"/>
<polygon fill="midnightblue" stroke="midnightblue" points="822.85,-310.9 812.26,-310.52 820.3,-317.42 822.85,-310.9"/>
</g>
<!-- Node38&#45;&gt;Node14 -->
<g id="edge75" class="edge">
<title>Node38&#45;&gt;Node14</title>
<path fill="none" stroke="midnightblue" d="M1102.46,-347.5C1067.45,-338.48 1010.56,-323.8 961.5,-311 927.7,-302.18 919.46,-299.15 885.5,-291 823.63,-276.16 752.05,-260.93 704.73,-251.14"/>
<polygon fill="midnightblue" stroke="midnightblue" points="705.22,-247.66 694.72,-249.07 703.8,-254.52 705.22,-247.66"/>
</g>
<!-- Node38&#45;&gt;Node19 -->
<g id="edge70" class="edge">
<title>Node38&#45;&gt;Node19</title>
<path fill="none" stroke="midnightblue" d="M1135.5,-347.08C1135.5,-340.01 1135.5,-329.86 1135.5,-320.99"/>
<polygon fill="midnightblue" stroke="midnightblue" points="1139,-320.75 1135.5,-310.75 1132,-320.75 1139,-320.75"/>
</g>
<!-- Node38&#45;&gt;Node20 -->
<g id="edge71" class="edge">
<title>Node38&#45;&gt;Node20</title>
<path fill="none" stroke="midnightblue" d="M1160.05,-347.46C1177.48,-340.23 1200.22,-328.28 1214.5,-311 1225.43,-297.77 1231.48,-279.3 1234.77,-264.58"/>
<polygon fill="midnightblue" stroke="midnightblue" points="1238.23,-265.14 1236.71,-254.66 1231.36,-263.8 1238.23,-265.14"/>
</g>
<!-- Node38&#45;&gt;Node30 -->
<g id="edge74" class="edge">
<title>Node38&#45;&gt;Node30</title>
<path fill="none" stroke="midnightblue" d="M1117.83,-347.32C1100.11,-338.62 1072.6,-325.12 1052.21,-315.11"/>
<polygon fill="midnightblue" stroke="midnightblue" points="1053.65,-311.92 1043.13,-310.65 1050.56,-318.2 1053.65,-311.92"/>
</g>
<!-- Node38&#45;&gt;Node38 -->
<g id="edge73" class="edge">
<title>Node38&#45;&gt;Node38</title>
<path fill="none" stroke="midnightblue" d="M1181.7,-366.5C1213.39,-369.33 1244.5,-366.16 1244.5,-357 1244.5,-348.84 1219.82,-345.44 1192.04,-346.79"/>
<polygon fill="midnightblue" stroke="midnightblue" points="1191.44,-343.32 1181.7,-347.5 1191.92,-350.3 1191.44,-343.32"/>
</g>
<!-- Node39 -->
<g id="node39" class="node">
<title>Node39</title>
<g id="a_node39"><a xlink:title=" ">
<polygon fill="white" stroke="#bfbfbf" points="1711.5,-291.5 1711.5,-310.5 1905.5,-310.5 1905.5,-291.5 1711.5,-291.5"/>
<text text-anchor="middle" x="1808.5" y="-298.5" font-family="Helvetica,sans-Serif" font-size="10.00">sitkDualMemberFunctionFactory.hxx</text>
</a>
</g>
</g>
<!-- Node38&#45;&gt;Node39 -->
<g id="edge72" class="edge">
<title>Node38&#45;&gt;Node39</title>
<path fill="none" stroke="midnightblue" d="M1226.51,-348.74C1337.66,-339.87 1531.39,-324.38 1697.5,-311 1698.77,-310.9 1700.06,-310.79 1701.34,-310.69"/>
<polygon fill="midnightblue" stroke="midnightblue" points="1701.65,-314.18 1711.34,-309.88 1701.09,-307.2 1701.65,-314.18"/>
</g>
</g>
</svg>
