<?xml version="1.0" encoding="UTF-8" standalone="no"?>
<!DOCTYPE svg PUBLIC "-//W3C//DTD SVG 1.1//EN"
 "http://www.w3.org/Graphics/SVG/1.1/DTD/svg11.dtd">
<!-- Generated by graphviz version 2.43.0 (0)
 -->
<!-- Title: sitkDualMemberFunctionFactory.h Pages: 1 -->
<!--zoomable 218 -->
<svg id="main" version="1.1" xmlns="http://www.w3.org/2000/svg" xmlns:xlink="http://www.w3.org/1999/xlink" xml:space="preserve" onload="init(evt)">
<style type="text/css"><![CDATA[
.edge:hover path { stroke: red; }
.edge:hover polygon { stroke: red; fill: red; }
]]></style>
<script type="text/javascript"><![CDATA[
var edges = document.getElementsByTagName('g');
if (edges && edges.length) {
  for (var i=0;i<edges.length;i++) {
    if (edges[i].id.substr(0,4)=='edge') {
      edges[i].setAttribute('class','edge');
    }
  }
}
]]></script>
        <defs>
                <circle id="rim" cx="0" cy="0" r="7"/>
                <circle id="rim2" cx="0" cy="0" r="3.5"/>
                <g id="zoomPlus">
                        <use xlink:href="#rim" fill="#404040">
                                <set attributeName="fill" to="#808080" begin="zoomplus.mouseover" end="zoomplus.mouseout"/>
                        </use>
                        <path d="M-4,0h8M0,-4v8" fill="none" stroke="white" stroke-width="1.5" pointer-events="none"/>
                </g>
                <g id="zoomMin">
                        <use xlink:href="#rim" fill="#404040">
                                <set attributeName="fill" to="#808080" begin="zoomminus.mouseover" end="zoomminus.mouseout"/>
                        </use>
                        <path d="M-4,0h8" fill="none" stroke="white" stroke-width="1.5" pointer-events="none"/>
                </g>
                <g id="dirArrow">
                        <path fill="none" stroke="white" stroke-width="1.5" d="M0,-3.0v7 M-2.5,-0.5L0,-3.0L2.5,-0.5"/>
                </g>
               <g id="resetDef">
                       <use xlink:href="#rim2" fill="#404040">
                               <set attributeName="fill" to="#808080" begin="reset.mouseover" end="reset.mouseout"/>
                       </use>
               </g>
        </defs>

<script type="text/javascript">
var viewWidth = 2678;
var viewHeight = 218;
var sectionId = 'dynsection-1';
</script>
<script xlink:href="svgpan.js"/>
<svg id="graph" class="graph">
<g id="viewport">
<title>sitkDualMemberFunctionFactory.h</title>
<polygon fill="white" stroke="transparent" points="-4,4 -4,-214 2674.04,-214 2674.04,4 -4,4"/>
<!-- Node1 -->
<g id="node1" class="node">
<title>Node1</title>
<g id="a_node1"><a xlink:title=" ">
<polygon fill="#bfbfbf" stroke="black" points="1119.04,-190.5 1119.04,-209.5 1301.04,-209.5 1301.04,-190.5 1119.04,-190.5"/>
<text text-anchor="middle" x="1210.04" y="-197.5" font-family="Helvetica,sans-Serif" font-size="10.00">sitkDualMemberFunctionFactory.h</text>
</a>
</g>
</g>
<!-- Node2 -->
<g id="node2" class="node">
<title>Node2</title>
<g id="a_node2"><a xlink:href="sitkCastImageFilter_8h.html" target="_top" xlink:title=" ">
<polygon fill="white" stroke="black" points="371.04,-62 371.04,-81 491.04,-81 491.04,-62 371.04,-62"/>
<text text-anchor="middle" x="431.04" y="-69" font-family="Helvetica,sans-Serif" font-size="10.00">sitkCastImageFilter.h</text>
</a>
</g>
</g>
<!-- Node1&#45;&gt;Node2 -->
<g id="edge1" class="edge">
<title>Node1&#45;&gt;Node2</title>
<path fill="none" stroke="midnightblue" d="M1108.29,-198.99C824.92,-198.45 44.97,-193.38 7.04,-154 -2.52,-144.08 -2.11,-133.3 7.04,-123 30.79,-96.25 259.72,-81.13 370.96,-75.31"/>
<polygon fill="midnightblue" stroke="midnightblue" points="1108.56,-202.49 1118.56,-199 1108.57,-195.49 1108.56,-202.49"/>
</g>
<!-- Node4 -->
<g id="node4" class="node">
<title>Node4</title>
<g id="a_node4"><a xlink:href="sitkElastixImageFilterImpl_8h.html" target="_top" xlink:title=" ">
<polygon fill="white" stroke="black" points="2516.04,-129 2516.04,-148 2670.04,-148 2670.04,-129 2516.04,-129"/>
<text text-anchor="middle" x="2593.04" y="-136" font-family="Helvetica,sans-Serif" font-size="10.00">sitkElastixImageFilterImpl.h</text>
</a>
</g>
</g>
<!-- Node1&#45;&gt;Node4 -->
<g id="edge3" class="edge">
<title>Node1&#45;&gt;Node4</title>
<path fill="none" stroke="midnightblue" d="M1311.78,-197.21C1575.35,-192.3 2275.88,-177.39 2507.04,-154 2520.9,-152.6 2535.9,-150.33 2549.44,-148"/>
<polygon fill="midnightblue" stroke="midnightblue" points="1311.39,-193.72 1301.45,-197.4 1311.52,-200.72 1311.39,-193.72"/>
</g>
<!-- Node5 -->
<g id="node5" class="node">
<title>Node5</title>
<g id="a_node5"><a xlink:href="sitkClampImageFilter_8h.html" target="_top" xlink:title=" ">
<polygon fill="white" stroke="black" points="816.04,-129 816.04,-148 946.04,-148 946.04,-129 816.04,-129"/>
<text text-anchor="middle" x="881.04" y="-136" font-family="Helvetica,sans-Serif" font-size="10.00">sitkClampImageFilter.h</text>
</a>
</g>
</g>
<!-- Node1&#45;&gt;Node5 -->
<g id="edge4" class="edge">
<title>Node1&#45;&gt;Node5</title>
<path fill="none" stroke="midnightblue" d="M1150.4,-188.7C1098.89,-179.75 1022.51,-166.31 956.04,-154 945.87,-152.12 934.93,-150.03 924.64,-148.05"/>
<polygon fill="midnightblue" stroke="midnightblue" points="1149.9,-192.17 1160.36,-190.43 1151.1,-185.27 1149.9,-192.17"/>
</g>
<!-- Node8 -->
<g id="node8" class="node">
<title>Node8</title>
<g id="a_node8"><a xlink:href="sitkLabelIntensityStatisticsImageFilter_8h.html" target="_top" xlink:title=" ">
<polygon fill="white" stroke="black" points="964.54,-123.5 964.54,-153.5 1113.54,-153.5 1113.54,-123.5 964.54,-123.5"/>
<text text-anchor="start" x="972.54" y="-141.5" font-family="Helvetica,sans-Serif" font-size="10.00">sitkLabelIntensityStatistics</text>
<text text-anchor="middle" x="1039.04" y="-130.5" font-family="Helvetica,sans-Serif" font-size="10.00">ImageFilter.h</text>
</a>
</g>
</g>
<!-- Node1&#45;&gt;Node8 -->
<g id="edge8" class="edge">
<title>Node1&#45;&gt;Node8</title>
<path fill="none" stroke="midnightblue" d="M1175.85,-187.1C1148.03,-177.42 1108.7,-163.74 1079.34,-153.52"/>
<polygon fill="midnightblue" stroke="midnightblue" points="1174.95,-190.49 1185.54,-190.48 1177.25,-183.88 1174.95,-190.49"/>
</g>
<!-- Node9 -->
<g id="node9" class="node">
<title>Node9</title>
<g id="a_node9"><a xlink:href="sitkLabelMapContourOverlayImageFilter_8h.html" target="_top" xlink:title=" ">
<polygon fill="white" stroke="black" points="1131.04,-123.5 1131.04,-153.5 1289.04,-153.5 1289.04,-123.5 1131.04,-123.5"/>
<text text-anchor="start" x="1139.04" y="-141.5" font-family="Helvetica,sans-Serif" font-size="10.00">sitkLabelMapContourOverlay</text>
<text text-anchor="middle" x="1210.04" y="-130.5" font-family="Helvetica,sans-Serif" font-size="10.00">ImageFilter.h</text>
</a>
</g>
</g>
<!-- Node1&#45;&gt;Node9 -->
<g id="edge11" class="edge">
<title>Node1&#45;&gt;Node9</title>
<path fill="none" stroke="midnightblue" d="M1210.04,-180.23C1210.04,-171.59 1210.04,-161.5 1210.04,-153.52"/>
<polygon fill="midnightblue" stroke="midnightblue" points="1206.54,-180.48 1210.04,-190.48 1213.54,-180.48 1206.54,-180.48"/>
</g>
<!-- Node10 -->
<g id="node10" class="node">
<title>Node10</title>
<g id="a_node10"><a xlink:href="sitkLabelMapMaskImageFilter_8h.html" target="_top" xlink:title=" ">
<polygon fill="white" stroke="black" points="1307.04,-129 1307.04,-148 1479.04,-148 1479.04,-129 1307.04,-129"/>
<text text-anchor="middle" x="1393.04" y="-136" font-family="Helvetica,sans-Serif" font-size="10.00">sitkLabelMapMaskImageFilter.h</text>
</a>
</g>
</g>
<!-- Node1&#45;&gt;Node10 -->
<g id="edge14" class="edge">
<title>Node1&#45;&gt;Node10</title>
<path fill="none" stroke="midnightblue" d="M1245.78,-187.38C1281.35,-175.82 1335.09,-158.34 1366.87,-148.01"/>
<polygon fill="midnightblue" stroke="midnightblue" points="1244.69,-184.05 1236.26,-190.48 1246.85,-190.71 1244.69,-184.05"/>
</g>
<!-- Node11 -->
<g id="node11" class="node">
<title>Node11</title>
<g id="a_node11"><a xlink:href="sitkLabelMapOverlayImageFilter_8h.html" target="_top" xlink:title=" ">
<polygon fill="white" stroke="black" points="1497.54,-123.5 1497.54,-153.5 1648.54,-153.5 1648.54,-123.5 1497.54,-123.5"/>
<text text-anchor="start" x="1505.54" y="-141.5" font-family="Helvetica,sans-Serif" font-size="10.00">sitkLabelMapOverlayImage</text>
<text text-anchor="middle" x="1573.04" y="-130.5" font-family="Helvetica,sans-Serif" font-size="10.00">Filter.h</text>
</a>
</g>
</g>
<!-- Node1&#45;&gt;Node11 -->
<g id="edge17" class="edge">
<title>Node1&#45;&gt;Node11</title>
<path fill="none" stroke="midnightblue" d="M1273.81,-188.84C1330.17,-179.81 1414.6,-166.21 1488.04,-154 1491.14,-153.48 1494.31,-152.96 1497.5,-152.42"/>
<polygon fill="midnightblue" stroke="midnightblue" points="1272.94,-185.43 1263.62,-190.47 1274.04,-192.34 1272.94,-185.43"/>
</g>
<!-- Node12 -->
<g id="node12" class="node">
<title>Node12</title>
<g id="a_node12"><a xlink:href="sitkLabelOverlayImageFilter_8h.html" target="_top" xlink:title=" ">
<polygon fill="white" stroke="black" points="1666.54,-129 1666.54,-148 1829.54,-148 1829.54,-129 1666.54,-129"/>
<text text-anchor="middle" x="1748.04" y="-136" font-family="Helvetica,sans-Serif" font-size="10.00">sitkLabelOverlayImageFilter.h</text>
</a>
</g>
</g>
<!-- Node1&#45;&gt;Node12 -->
<g id="edge20" class="edge">
<title>Node1&#45;&gt;Node12</title>
<path fill="none" stroke="midnightblue" d="M1311.2,-190.57C1402.13,-182.59 1539.25,-169.52 1658.04,-154 1671.22,-152.28 1685.44,-150.12 1698.6,-148.01"/>
<polygon fill="midnightblue" stroke="midnightblue" points="1310.83,-187.09 1301.18,-191.45 1311.44,-194.07 1310.83,-187.09"/>
</g>
<!-- Node13 -->
<g id="node13" class="node">
<title>Node13</title>
<g id="a_node13"><a xlink:href="sitkLabelStatisticsImageFilter_8h.html" target="_top" xlink:title=" ">
<polygon fill="white" stroke="black" points="1847.54,-123.5 1847.54,-153.5 1984.54,-153.5 1984.54,-123.5 1847.54,-123.5"/>
<text text-anchor="start" x="1855.54" y="-141.5" font-family="Helvetica,sans-Serif" font-size="10.00">sitkLabelStatisticsImage</text>
<text text-anchor="middle" x="1916.04" y="-130.5" font-family="Helvetica,sans-Serif" font-size="10.00">Filter.h</text>
</a>
</g>
</g>
<!-- Node1&#45;&gt;Node13 -->
<g id="edge23" class="edge">
<title>Node1&#45;&gt;Node13</title>
<path fill="none" stroke="midnightblue" d="M1311.54,-195.32C1436.17,-189.98 1653.84,-177.98 1839.04,-154 1841.74,-153.65 1844.49,-153.27 1847.26,-152.86"/>
<polygon fill="midnightblue" stroke="midnightblue" points="1311.09,-191.84 1301.25,-195.76 1311.39,-198.83 1311.09,-191.84"/>
</g>
<!-- Node14 -->
<g id="node14" class="node">
<title>Node14</title>
<g id="a_node14"><a xlink:href="sitkMaskImageFilter_8h.html" target="_top" xlink:title=" ">
<polygon fill="white" stroke="black" points="2002.54,-129 2002.54,-148 2127.54,-148 2127.54,-129 2002.54,-129"/>
<text text-anchor="middle" x="2065.04" y="-136" font-family="Helvetica,sans-Serif" font-size="10.00">sitkMaskImageFilter.h</text>
</a>
</g>
</g>
<!-- Node1&#45;&gt;Node14 -->
<g id="edge26" class="edge">
<title>Node1&#45;&gt;Node14</title>
<path fill="none" stroke="midnightblue" d="M1311.38,-197.84C1461.2,-195.07 1750.37,-185.71 1994.04,-154 2005.27,-152.54 2017.38,-150.31 2028.36,-148.04"/>
<polygon fill="midnightblue" stroke="midnightblue" points="1311.21,-194.34 1301.28,-198.02 1311.34,-201.34 1311.21,-194.34"/>
</g>
<!-- Node15 -->
<g id="node15" class="node">
<title>Node15</title>
<g id="a_node15"><a xlink:href="sitkMaskNegatedImageFilter_8h.html" target="_top" xlink:title=" ">
<polygon fill="white" stroke="black" points="2146.04,-129 2146.04,-148 2312.04,-148 2312.04,-129 2146.04,-129"/>
<text text-anchor="middle" x="2229.04" y="-136" font-family="Helvetica,sans-Serif" font-size="10.00">sitkMaskNegatedImageFilter.h</text>
</a>
</g>
</g>
<!-- Node1&#45;&gt;Node15 -->
<g id="edge29" class="edge">
<title>Node1&#45;&gt;Node15</title>
<path fill="none" stroke="midnightblue" d="M1311.31,-197.65C1482.03,-194.58 1837.81,-184.75 2137.04,-154 2151.52,-152.51 2167.19,-150.28 2181.42,-148.01"/>
<polygon fill="midnightblue" stroke="midnightblue" points="1311.01,-194.16 1301.08,-197.83 1311.14,-201.16 1311.01,-194.16"/>
</g>
<!-- Node16 -->
<g id="node16" class="node">
<title>Node16</title>
<g id="a_node16"><a xlink:href="sitkMaskedAssignImageFilter_8h.html" target="_top" xlink:title=" ">
<polygon fill="white" stroke="black" points="2330.04,-129 2330.04,-148 2498.04,-148 2498.04,-129 2330.04,-129"/>
<text text-anchor="middle" x="2414.04" y="-136" font-family="Helvetica,sans-Serif" font-size="10.00">sitkMaskedAssignImageFilter.h</text>
</a>
</g>
</g>
<!-- Node1&#45;&gt;Node16 -->
<g id="edge32" class="edge">
<title>Node1&#45;&gt;Node16</title>
<path fill="none" stroke="midnightblue" d="M1311.64,-198.76C1507.43,-197.44 1950.39,-190.28 2321.04,-154 2335.84,-152.55 2351.87,-150.3 2366.38,-148"/>
<polygon fill="midnightblue" stroke="midnightblue" points="1311.35,-195.26 1301.37,-198.82 1311.4,-202.26 1311.35,-195.26"/>
</g>
<!-- Node17 -->
<g id="node17" class="node">
<title>Node17</title>
<g id="a_node17"><a xlink:href="sitkMorphologicalWatershedFromMarkersImageFilter_8h.html" target="_top" xlink:title=" ">
<polygon fill="white" stroke="black" points="16.54,-123.5 16.54,-153.5 171.54,-153.5 171.54,-123.5 16.54,-123.5"/>
<text text-anchor="start" x="24.54" y="-141.5" font-family="Helvetica,sans-Serif" font-size="10.00">sitkMorphologicalWatershed</text>
<text text-anchor="middle" x="94.04" y="-130.5" font-family="Helvetica,sans-Serif" font-size="10.00">FromMarkersImageFilter.h</text>
</a>
</g>
</g>
<!-- Node1&#45;&gt;Node17 -->
<g id="edge35" class="edge">
<title>Node1&#45;&gt;Node17</title>
<path fill="none" stroke="midnightblue" d="M1108.56,-198.71C923.49,-197.26 518.95,-189.84 180.04,-154 177.33,-153.71 174.58,-153.4 171.8,-153.05"/>
<polygon fill="midnightblue" stroke="midnightblue" points="1108.8,-202.21 1118.82,-198.79 1108.85,-195.21 1108.8,-202.21"/>
</g>
<!-- Node18 -->
<g id="node18" class="node">
<title>Node18</title>
<g id="a_node18"><a xlink:href="sitkResampleImageFilter_8h.html" target="_top" xlink:title=" ">
<polygon fill="white" stroke="black" points="189.54,-129 189.54,-148 336.54,-148 336.54,-129 189.54,-129"/>
<text text-anchor="middle" x="263.04" y="-136" font-family="Helvetica,sans-Serif" font-size="10.00">sitkResampleImageFilter.h</text>
</a>
</g>
</g>
<!-- Node1&#45;&gt;Node18 -->
<g id="edge38" class="edge">
<title>Node1&#45;&gt;Node18</title>
<path fill="none" stroke="midnightblue" d="M1108.52,-197.68C946.72,-194.69 620.61,-185.02 346.04,-154 332.96,-152.52 318.82,-150.29 305.98,-148.02"/>
<polygon fill="midnightblue" stroke="midnightblue" points="1108.88,-201.19 1118.94,-197.87 1109,-194.19 1108.88,-201.19"/>
</g>
<!-- Node19 -->
<g id="node19" class="node">
<title>Node19</title>
<g id="a_node19"><a xlink:href="sitkShiftScaleImageFilter_8h.html" target="_top" xlink:title=" ">
<polygon fill="white" stroke="black" points="355.04,-129 355.04,-148 501.04,-148 501.04,-129 355.04,-129"/>
<text text-anchor="middle" x="428.04" y="-136" font-family="Helvetica,sans-Serif" font-size="10.00">sitkShiftScaleImageFilter.h</text>
</a>
</g>
</g>
<!-- Node1&#45;&gt;Node19 -->
<g id="edge41" class="edge">
<title>Node1&#45;&gt;Node19</title>
<path fill="none" stroke="midnightblue" d="M1108.83,-196.01C972.43,-191.19 722.22,-179.5 510.04,-154 497.27,-152.46 483.46,-150.24 470.89,-148"/>
<polygon fill="midnightblue" stroke="midnightblue" points="1108.74,-199.51 1118.85,-196.36 1108.98,-192.52 1108.74,-199.51"/>
</g>
<!-- Node20 -->
<g id="node20" class="node">
<title>Node20</title>
<g id="a_node20"><a xlink:href="sitkVectorIndexSelectionCastImageFilter_8h.html" target="_top" xlink:title=" ">
<polygon fill="white" stroke="black" points="519.54,-123.5 519.54,-153.5 656.54,-153.5 656.54,-123.5 519.54,-123.5"/>
<text text-anchor="start" x="527.54" y="-141.5" font-family="Helvetica,sans-Serif" font-size="10.00">sitkVectorIndexSelection</text>
<text text-anchor="middle" x="588.04" y="-130.5" font-family="Helvetica,sans-Serif" font-size="10.00">CastImageFilter.h</text>
</a>
</g>
</g>
<!-- Node1&#45;&gt;Node20 -->
<g id="edge44" class="edge">
<title>Node1&#45;&gt;Node20</title>
<path fill="none" stroke="midnightblue" d="M1108.73,-193.69C999.23,-187.24 819.75,-174.59 666.04,-154 663.04,-153.6 659.97,-153.16 656.88,-152.69"/>
<polygon fill="midnightblue" stroke="midnightblue" points="1108.59,-197.19 1118.78,-194.28 1109,-190.2 1108.59,-197.19"/>
</g>
<!-- Node21 -->
<g id="node21" class="node">
<title>Node21</title>
<g id="a_node21"><a xlink:href="sitkWarpImageFilter_8h.html" target="_top" xlink:title=" ">
<polygon fill="white" stroke="black" points="674.54,-129 674.54,-148 797.54,-148 797.54,-129 674.54,-129"/>
<text text-anchor="middle" x="736.04" y="-136" font-family="Helvetica,sans-Serif" font-size="10.00">sitkWarpImageFilter.h</text>
</a>
</g>
</g>
<!-- Node1&#45;&gt;Node21 -->
<g id="edge47" class="edge">
<title>Node1&#45;&gt;Node21</title>
<path fill="none" stroke="midnightblue" d="M1108.61,-190.23C1026.92,-182.55 909.24,-170.11 807.04,-154 796.48,-152.34 785.1,-150.18 774.62,-148.04"/>
<polygon fill="midnightblue" stroke="midnightblue" points="1108.61,-193.75 1118.9,-191.19 1109.26,-186.78 1108.61,-193.75"/>
</g>
<!-- Node3 -->
<g id="node3" class="node">
<title>Node3</title>
<g id="a_node3"><a xlink:href="SimpleITK_8h.html" target="_top" xlink:title=" ">
<polygon fill="white" stroke="black" points="571.54,-0.5 571.54,-19.5 646.54,-19.5 646.54,-0.5 571.54,-0.5"/>
<text text-anchor="middle" x="609.04" y="-7.5" font-family="Helvetica,sans-Serif" font-size="10.00">SimpleITK.h</text>
</a>
</g>
</g>
<!-- Node2&#45;&gt;Node3 -->
<g id="edge2" class="edge">
<title>Node2&#45;&gt;Node3</title>
<path fill="none" stroke="midnightblue" d="M466.25,-58.73C500.85,-47.17 552.81,-29.8 583.58,-19.51"/>
<polygon fill="midnightblue" stroke="midnightblue" points="464.92,-55.49 456.54,-61.98 467.14,-62.12 464.92,-55.49"/>
</g>
<!-- Node6 -->
<g id="node6" class="node">
<title>Node6</title>
<g id="a_node6"><a xlink:href="CMakeTmp_2SimpleITKBasicFiltersGeneratedHeaders_8h.html" target="_top" xlink:title=" ">
<polygon fill="white" stroke="black" points="952.54,-56.5 952.54,-86.5 1125.54,-86.5 1125.54,-56.5 952.54,-56.5"/>
<text text-anchor="start" x="960.54" y="-74.5" font-family="Helvetica,sans-Serif" font-size="10.00">SimpleITKBasicFiltersGenerated</text>
<text text-anchor="middle" x="1039.04" y="-63.5" font-family="Helvetica,sans-Serif" font-size="10.00">Headers.h</text>
</a>
</g>
</g>
<!-- Node5&#45;&gt;Node6 -->
<g id="edge5" class="edge">
<title>Node5&#45;&gt;Node6</title>
<path fill="none" stroke="midnightblue" d="M911.28,-125.06C938.05,-114.05 977.08,-97.99 1004.94,-86.53"/>
<polygon fill="midnightblue" stroke="midnightblue" points="909.94,-121.83 902.02,-128.87 912.6,-128.3 909.94,-121.83"/>
</g>
<!-- Node7 -->
<g id="node7" class="node">
<title>Node7</title>
<g id="a_node7"><a xlink:href="include_2SimpleITKBasicFiltersGeneratedHeaders_8h.html" target="_top" xlink:title=" ">
<polygon fill="white" stroke="black" points="1143.54,-56.5 1143.54,-86.5 1316.54,-86.5 1316.54,-56.5 1143.54,-56.5"/>
<text text-anchor="start" x="1151.54" y="-74.5" font-family="Helvetica,sans-Serif" font-size="10.00">SimpleITKBasicFiltersGenerated</text>
<text text-anchor="middle" x="1230.04" y="-63.5" font-family="Helvetica,sans-Serif" font-size="10.00">Headers.h</text>
</a>
</g>
</g>
<!-- Node5&#45;&gt;Node7 -->
<g id="edge6" class="edge">
<title>Node5&#45;&gt;Node7</title>
<path fill="none" stroke="midnightblue" d="M935.21,-126.97C942.22,-125.62 949.3,-124.27 956.04,-123 1022.46,-110.46 1098.02,-96.56 1152.94,-86.52"/>
<polygon fill="midnightblue" stroke="midnightblue" points="934.21,-123.6 925.05,-128.93 935.53,-130.47 934.21,-123.6"/>
</g>
<!-- Node7&#45;&gt;Node3 -->
<g id="edge7" class="edge">
<title>Node7&#45;&gt;Node3</title>
<path fill="none" stroke="midnightblue" d="M1133.26,-55.83C944.89,-33.76 731.75,-18.89 646.76,-13.37"/>
<polygon fill="midnightblue" stroke="midnightblue" points="1133.01,-59.33 1143.35,-57.03 1133.83,-52.38 1133.01,-59.33"/>
</g>
<!-- Node8&#45;&gt;Node6 -->
<g id="edge9" class="edge">
<title>Node8&#45;&gt;Node6</title>
<path fill="none" stroke="midnightblue" d="M1039.04,-113.11C1039.04,-104.15 1039.04,-94.32 1039.04,-86.58"/>
<polygon fill="midnightblue" stroke="midnightblue" points="1035.54,-113.4 1039.04,-123.4 1042.54,-113.4 1035.54,-113.4"/>
</g>
<!-- Node8&#45;&gt;Node7 -->
<g id="edge10" class="edge">
<title>Node8&#45;&gt;Node7</title>
<path fill="none" stroke="midnightblue" d="M1090.19,-120.09C1121.03,-109.6 1159.79,-96.41 1188.68,-86.58"/>
<polygon fill="midnightblue" stroke="midnightblue" points="1088.82,-116.86 1080.48,-123.4 1091.08,-123.49 1088.82,-116.86"/>
</g>
<!-- Node9&#45;&gt;Node6 -->
<g id="edge12" class="edge">
<title>Node9&#45;&gt;Node6</title>
<path fill="none" stroke="midnightblue" d="M1163.52,-119.82C1136.04,-109.37 1101.71,-96.32 1076.07,-86.58"/>
<polygon fill="midnightblue" stroke="midnightblue" points="1162.35,-123.11 1172.94,-123.4 1164.83,-116.57 1162.35,-123.11"/>
</g>
<!-- Node9&#45;&gt;Node7 -->
<g id="edge13" class="edge">
<title>Node9&#45;&gt;Node7</title>
<path fill="none" stroke="midnightblue" d="M1217.36,-113.7C1220.17,-104.59 1223.27,-94.49 1225.71,-86.58"/>
<polygon fill="midnightblue" stroke="midnightblue" points="1213.98,-112.81 1214.38,-123.4 1220.67,-114.87 1213.98,-112.81"/>
</g>
<!-- Node10&#45;&gt;Node6 -->
<g id="edge15" class="edge">
<title>Node10&#45;&gt;Node6</title>
<path fill="none" stroke="midnightblue" d="M1336.38,-127.1C1276.59,-116.12 1182.01,-98.75 1115.61,-86.56"/>
<polygon fill="midnightblue" stroke="midnightblue" points="1335.93,-130.57 1346.4,-128.94 1337.19,-123.69 1335.93,-130.57"/>
</g>
<!-- Node10&#45;&gt;Node7 -->
<g id="edge16" class="edge">
<title>Node10&#45;&gt;Node7</title>
<path fill="none" stroke="midnightblue" d="M1361.84,-125.06C1334.23,-114.05 1293.97,-97.99 1265.22,-86.53"/>
<polygon fill="midnightblue" stroke="midnightblue" points="1360.81,-128.42 1371.4,-128.87 1363.4,-121.91 1360.81,-128.42"/>
</g>
<!-- Node11&#45;&gt;Node6 -->
<g id="edge18" class="edge">
<title>Node11&#45;&gt;Node6</title>
<path fill="none" stroke="midnightblue" d="M1487.5,-122.99C1330.08,-101.93 1288.29,-106.38 1135.04,-87 1131.95,-86.61 1128.8,-86.2 1125.62,-85.77"/>
<polygon fill="midnightblue" stroke="midnightblue" points="1487.16,-126.48 1497.54,-124.35 1488.1,-119.54 1487.16,-126.48"/>
</g>
<!-- Node11&#45;&gt;Node7 -->
<g id="edge19" class="edge">
<title>Node11&#45;&gt;Node7</title>
<path fill="none" stroke="midnightblue" d="M1489.05,-121.58C1432.49,-110.86 1358.59,-96.86 1304.21,-86.55"/>
<polygon fill="midnightblue" stroke="midnightblue" points="1488.56,-125.05 1499.04,-123.48 1489.86,-118.18 1488.56,-125.05"/>
</g>
<!-- Node12&#45;&gt;Node6 -->
<g id="edge21" class="edge">
<title>Node12&#45;&gt;Node6</title>
<path fill="none" stroke="midnightblue" d="M1690.02,-127.36C1679.4,-125.73 1668.41,-124.19 1658.04,-123 1426.56,-96.44 1366.64,-112.42 1135.04,-87 1131.94,-86.66 1128.79,-86.29 1125.61,-85.91"/>
<polygon fill="midnightblue" stroke="midnightblue" points="1689.62,-130.84 1700.04,-128.94 1690.71,-123.92 1689.62,-130.84"/>
</g>
<!-- Node12&#45;&gt;Node7 -->
<g id="edge22" class="edge">
<title>Node12&#45;&gt;Node7</title>
<path fill="none" stroke="midnightblue" d="M1687.51,-127.39C1677.67,-125.85 1667.58,-124.33 1658.04,-123 1540.03,-106.54 1403.22,-91.02 1316.66,-81.63"/>
<polygon fill="midnightblue" stroke="midnightblue" points="1687.22,-130.89 1697.64,-128.99 1688.31,-123.97 1687.22,-130.89"/>
</g>
<!-- Node13&#45;&gt;Node6 -->
<g id="edge24" class="edge">
<title>Node13&#45;&gt;Node6</title>
<path fill="none" stroke="midnightblue" d="M1837.06,-122.87C1526.17,-86.62 1443.41,-118.1 1135.04,-87 1131.94,-86.69 1128.78,-86.34 1125.6,-85.98"/>
<polygon fill="midnightblue" stroke="midnightblue" points="1836.92,-126.38 1847.26,-124.07 1837.74,-119.42 1836.92,-126.38"/>
</g>
<!-- Node13&#45;&gt;Node7 -->
<g id="edge25" class="edge">
<title>Node13&#45;&gt;Node7</title>
<path fill="none" stroke="midnightblue" d="M1837.31,-122.85C1646.29,-97.45 1432.9,-83.34 1316.57,-76.85"/>
<polygon fill="midnightblue" stroke="midnightblue" points="1836.87,-126.32 1847.25,-124.18 1837.81,-119.38 1836.87,-126.32"/>
</g>
<!-- Node14&#45;&gt;Node6 -->
<g id="edge27" class="edge">
<title>Node14&#45;&gt;Node6</title>
<path fill="none" stroke="midnightblue" d="M2018.89,-126.97C2010.65,-125.4 2002.12,-123.99 1994.04,-123 1614.75,-76.62 1515.4,-123.59 1135.04,-87 1131.94,-86.7 1128.78,-86.37 1125.59,-86.01"/>
<polygon fill="midnightblue" stroke="midnightblue" points="2018.25,-130.41 2028.74,-128.93 2019.61,-123.54 2018.25,-130.41"/>
</g>
<!-- Node14&#45;&gt;Node7 -->
<g id="edge28" class="edge">
<title>Node14&#45;&gt;Node7</title>
<path fill="none" stroke="midnightblue" d="M2018.06,-126.97C2010.07,-125.45 2001.84,-124.05 1994.04,-123 1749.82,-90.15 1458.69,-78.39 1316.64,-74.41"/>
<polygon fill="midnightblue" stroke="midnightblue" points="2017.49,-130.43 2027.99,-128.94 2018.86,-123.56 2017.49,-130.43"/>
</g>
<!-- Node15&#45;&gt;Node6 -->
<g id="edge30" class="edge">
<title>Node15&#45;&gt;Node6</title>
<path fill="none" stroke="midnightblue" d="M2171.95,-127.41C2160.42,-125.68 2148.37,-124.09 2137.04,-123 1693.48,-80.23 1578.74,-128.34 1135.04,-87 1131.94,-86.71 1128.78,-86.39 1125.59,-86.04"/>
<polygon fill="midnightblue" stroke="midnightblue" points="2171.49,-130.88 2181.9,-128.95 2172.56,-123.96 2171.49,-130.88"/>
</g>
<!-- Node15&#45;&gt;Node7 -->
<g id="edge31" class="edge">
<title>Node15&#45;&gt;Node7</title>
<path fill="none" stroke="midnightblue" d="M2170.82,-127.42C2159.64,-125.74 2148,-124.17 2137.04,-123 1836.72,-91.06 1478.17,-78.64 1316.56,-74.42"/>
<polygon fill="midnightblue" stroke="midnightblue" points="2170.52,-130.91 2180.94,-128.98 2171.59,-123.99 2170.52,-130.91"/>
</g>
<!-- Node16&#45;&gt;Node6 -->
<g id="edge33" class="edge">
<title>Node16&#45;&gt;Node6</title>
<path fill="none" stroke="midnightblue" d="M2356.71,-127.42C2344.95,-125.67 2332.62,-124.07 2321.04,-123 1795.94,-74.29 1660.25,-134.46 1135.04,-87 1131.94,-86.72 1128.78,-86.4 1125.59,-86.06"/>
<polygon fill="midnightblue" stroke="midnightblue" points="2356.45,-130.92 2366.87,-128.98 2357.52,-124 2356.45,-130.92"/>
</g>
<!-- Node16&#45;&gt;Node7 -->
<g id="edge34" class="edge">
<title>Node16&#45;&gt;Node7</title>
<path fill="none" stroke="midnightblue" d="M2355.93,-127.45C2344.4,-125.73 2332.36,-124.14 2321.04,-123 1948.44,-85.44 1501.4,-75.78 1316.55,-73.32"/>
<polygon fill="midnightblue" stroke="midnightblue" points="2355.48,-130.92 2365.9,-128.98 2356.55,-124 2355.48,-130.92"/>
</g>
<!-- Node17&#45;&gt;Node6 -->
<g id="edge36" class="edge">
<title>Node17&#45;&gt;Node6</title>
<path fill="none" stroke="midnightblue" d="M182.01,-122.85C469.36,-90.8 799.13,-78.7 952.51,-74.49"/>
<polygon fill="midnightblue" stroke="midnightblue" points="181.35,-119.4 171.8,-124 182.13,-126.36 181.35,-119.4"/>
</g>
<!-- Node17&#45;&gt;Node7 -->
<g id="edge37" class="edge">
<title>Node17&#45;&gt;Node7</title>
<path fill="none" stroke="midnightblue" d="M181.83,-122.9C604.3,-80.34 715.5,-126.8 1135.04,-87 1137.78,-86.74 1140.56,-86.45 1143.37,-86.14"/>
<polygon fill="midnightblue" stroke="midnightblue" points="181.39,-119.43 171.79,-123.93 182.1,-126.4 181.39,-119.43"/>
</g>
<!-- Node18&#45;&gt;Node6 -->
<g id="edge39" class="edge">
<title>Node18&#45;&gt;Node6</title>
<path fill="none" stroke="midnightblue" d="M317.44,-127.19C326.95,-125.62 336.77,-124.15 346.04,-123 563.34,-96.17 820.86,-82 952.34,-76.02"/>
<polygon fill="midnightblue" stroke="midnightblue" points="316.55,-123.79 307.28,-128.92 317.73,-130.69 316.55,-123.79"/>
</g>
<!-- Node18&#45;&gt;Node7 -->
<g id="edge40" class="edge">
<title>Node18&#45;&gt;Node7</title>
<path fill="none" stroke="midnightblue" d="M316.12,-127.19C326.03,-125.56 336.33,-124.07 346.04,-123 694.98,-84.72 785.71,-121.53 1135.04,-87 1137.78,-86.73 1140.56,-86.43 1143.37,-86.12"/>
<polygon fill="midnightblue" stroke="midnightblue" points="315.24,-123.79 305.97,-128.93 316.42,-130.69 315.24,-123.79"/>
</g>
<!-- Node19&#45;&gt;Node6 -->
<g id="edge42" class="edge">
<title>Node19&#45;&gt;Node6</title>
<path fill="none" stroke="midnightblue" d="M482.75,-127.2C491.84,-125.67 501.19,-124.2 510.04,-123 665.22,-101.91 847.2,-86.58 952.2,-78.65"/>
<polygon fill="midnightblue" stroke="midnightblue" points="481.88,-123.8 472.62,-128.95 483.07,-130.7 481.88,-123.8"/>
</g>
<!-- Node19&#45;&gt;Node7 -->
<g id="edge43" class="edge">
<title>Node19&#45;&gt;Node7</title>
<path fill="none" stroke="midnightblue" d="M480.81,-127.23C490.51,-125.61 500.56,-124.11 510.04,-123 786.4,-90.72 858.32,-116.02 1135.04,-87 1137.78,-86.71 1140.56,-86.4 1143.36,-86.07"/>
<polygon fill="midnightblue" stroke="midnightblue" points="480.14,-123.79 470.88,-128.94 481.33,-130.69 480.14,-123.79"/>
</g>
<!-- Node20&#45;&gt;Node6 -->
<g id="edge45" class="edge">
<title>Node20&#45;&gt;Node6</title>
<path fill="none" stroke="midnightblue" d="M666.95,-122.9C770.8,-106.39 878.84,-92.21 952.19,-83.03"/>
<polygon fill="midnightblue" stroke="midnightblue" points="666.23,-119.47 656.91,-124.51 667.34,-126.38 666.23,-119.47"/>
</g>
<!-- Node20&#45;&gt;Node7 -->
<g id="edge46" class="edge">
<title>Node20&#45;&gt;Node7</title>
<path fill="none" stroke="midnightblue" d="M666.91,-122.99C875.05,-96.31 930.59,-110.42 1135.04,-87 1137.78,-86.69 1140.55,-86.35 1143.36,-86"/>
<polygon fill="midnightblue" stroke="midnightblue" points="666.35,-119.53 656.88,-124.29 667.25,-126.47 666.35,-119.53"/>
</g>
<!-- Node21&#45;&gt;Node6 -->
<g id="edge48" class="edge">
<title>Node21&#45;&gt;Node6</title>
<path fill="none" stroke="midnightblue" d="M785.81,-126.82C837.05,-115.83 917.14,-98.65 973.5,-86.56"/>
<polygon fill="midnightblue" stroke="midnightblue" points="785.01,-123.42 775.96,-128.94 786.48,-130.26 785.01,-123.42"/>
</g>
<!-- Node21&#45;&gt;Node7 -->
<g id="edge49" class="edge">
<title>Node21&#45;&gt;Node7</title>
<path fill="none" stroke="midnightblue" d="M784.65,-126.95C792.13,-125.51 799.78,-124.14 807.04,-123 951.93,-100.3 989.63,-106.07 1135.04,-87 1137.77,-86.64 1140.54,-86.27 1143.34,-85.89"/>
<polygon fill="midnightblue" stroke="midnightblue" points="783.74,-123.57 774.61,-128.95 785.11,-130.43 783.74,-123.57"/>
</g>
</g>
</svg>
        <g id="navigator" transform="translate(0 0)" fill="#404254">
                <rect fill="#f2f5e9" fill-opacity="0.5" stroke="#606060" stroke-width=".5" x="0" y="0" width="60" height="60"/>
                <use id="zoomplus" xlink:href="#zoomPlus" x="17" y="9" onmousedown="handleZoom(evt,'in')"/>
                <use id="zoomminus" xlink:href="#zoomMin" x="42" y="9" onmousedown="handleZoom(evt,'out')"/>
                <use id="reset" xlink:href="#resetDef" x="30" y="36" onmousedown="handleReset()"/>
                <g id="arrowUp" xlink:href="#dirArrow" transform="translate(30 24)" onmousedown="handlePan(0,-1)">
                  <use xlink:href="#rim" fill="#404040">
                        <set attributeName="fill" to="#808080" begin="arrowUp.mouseover" end="arrowUp.mouseout"/>
                  </use>
                  <path fill="none" stroke="white" stroke-width="1.5" d="M0,-3.0v7 M-2.5,-0.5L0,-3.0L2.5,-0.5"/>
                </g>
                <g id="arrowRight" xlink:href="#dirArrow" transform="rotate(90) translate(36 -43)" onmousedown="handlePan(1,0)">
                  <use xlink:href="#rim" fill="#404040">
                        <set attributeName="fill" to="#808080" begin="arrowRight.mouseover" end="arrowRight.mouseout"/>
                  </use>
                  <path fill="none" stroke="white" stroke-width="1.5" d="M0,-3.0v7 M-2.5,-0.5L0,-3.0L2.5,-0.5"/>
                </g>
                <g id="arrowDown" xlink:href="#dirArrow" transform="rotate(180) translate(-30 -48)" onmousedown="handlePan(0,1)">
                  <use xlink:href="#rim" fill="#404040">
                        <set attributeName="fill" to="#808080" begin="arrowDown.mouseover" end="arrowDown.mouseout"/>
                  </use>
                  <path fill="none" stroke="white" stroke-width="1.5" d="M0,-3.0v7 M-2.5,-0.5L0,-3.0L2.5,-0.5"/>
                </g>
                <g id="arrowLeft" xlink:href="#dirArrow" transform="rotate(270) translate(-36 17)" onmousedown="handlePan(-1,0)">
                  <use xlink:href="#rim" fill="#404040">
                        <set attributeName="fill" to="#808080" begin="arrowLeft.mouseover" end="arrowLeft.mouseout"/>
                  </use>
                  <path fill="none" stroke="white" stroke-width="1.5" d="M0,-3.0v7 M-2.5,-0.5L0,-3.0L2.5,-0.5"/>
                </g>
        </g>
        <svg viewBox="0 0 15 15" width="100%" height="30px" preserveAspectRatio="xMaxYMin meet">
         <g id="arrow_out" transform="scale(0.3 0.3)">
          <a xlink:href="sitkDualMemberFunctionFactory_8h__dep__incl_org.svg" target="_base">
           <rect id="button" ry="5" rx="5" y="6" x="6" height="38" width="38"
                fill="#f2f5e9" fill-opacity="0.5" stroke="#606060" stroke-width="1.0"/>
           <path id="arrow"
             d="M 11.500037,31.436501 C 11.940474,20.09759 22.043105,11.32322 32.158766,21.979434 L 37.068811,17.246167 C 37.068811,17.246167 37.088388,32 37.088388,32 L 22.160133,31.978069 C 22.160133,31.978069 26.997745,27.140456 26.997745,27.140456 C 18.528582,18.264221 13.291696,25.230495 11.500037,31.436501 z"
             style="fill:#404040;"/>
          </a>
         </g>
        </svg>
</svg>
