<?xml version="1.0" encoding="UTF-8" standalone="no"?>
<!DOCTYPE svg PUBLIC "-//W3C//DTD SVG 1.1//EN"
 "http://www.w3.org/Graphics/SVG/1.1/DTD/svg11.dtd">
<!-- Generated by graphviz version 2.40.1 (20161225.0304)
 -->
<!-- Title: sitkExceptionObject.h Pages: 1 -->
<svg width="3921pt" height="453pt"
 viewBox="0.00 0.00 3921.00 453.00" xmlns="http://www.w3.org/2000/svg" xmlns:xlink="http://www.w3.org/1999/xlink">
<g id="graph0" class="graph" transform="scale(1 1) rotate(0) translate(4 449)">
<title>sitkExceptionObject.h</title>
<polygon fill="#ffffff" stroke="transparent" points="-4,4 -4,-449 3917,-449 3917,4 -4,4"/>
<!-- Node1 -->
<g id="node1" class="node">
<title>Node1</title>
<g id="a_node1"><a xlink:title=" ">
<polygon fill="#bfbfbf" stroke="#000000" points="2774,-425.5 2774,-444.5 2897,-444.5 2897,-425.5 2774,-425.5"/>
<text text-anchor="middle" x="2835.5" y="-432.5" font-family="Helvetica,sans-Serif" font-size="10.00" fill="#000000">sitkExceptionObject.h</text>
</a>
</g>
</g>
<!-- Node2 -->
<g id="node2" class="node">
<title>Node2</title>
<g id="a_node2"><a xlink:href="sitkTemplateFunctions_8h.html" target="_top" xlink:title=" ">
<polygon fill="#ffffff" stroke="#000000" points="2862.5,-369.5 2862.5,-388.5 2996.5,-388.5 2996.5,-369.5 2862.5,-369.5"/>
<text text-anchor="middle" x="2929.5" y="-376.5" font-family="Helvetica,sans-Serif" font-size="10.00" fill="#000000">sitkTemplateFunctions.h</text>
</a>
</g>
</g>
<!-- Node1&#45;&gt;Node2 -->
<g id="edge1" class="edge">
<title>Node1&#45;&gt;Node2</title>
<path fill="none" stroke="#191970" d="M2860.6005,-420.0465C2877.326,-410.0824 2898.8168,-397.2794 2913.3141,-388.6427"/>
<polygon fill="#191970" stroke="#191970" points="2858.6732,-417.1206 2851.8736,-425.2455 2862.2559,-423.1343 2858.6732,-417.1206"/>
</g>
<!-- Node7 -->
<g id="node7" class="node">
<title>Node7</title>
<g id="a_node7"><a xlink:href="sitkTransform_8h.html" target="_top" xlink:title=" ">
<polygon fill="#ffffff" stroke="#000000" points="1029.5,-257.5 1029.5,-276.5 1121.5,-276.5 1121.5,-257.5 1029.5,-257.5"/>
<text text-anchor="middle" x="1075.5" y="-264.5" font-family="Helvetica,sans-Serif" font-size="10.00" fill="#000000">sitkTransform.h</text>
</a>
</g>
</g>
<!-- Node1&#45;&gt;Node7 -->
<g id="edge115" class="edge">
<title>Node1&#45;&gt;Node7</title>
<path fill="none" stroke="#191970" d="M2763.7847,-428.1544C2469.9061,-400.1024 1361.9276,-294.3408 1121.6513,-271.4053"/>
<polygon fill="#191970" stroke="#191970" points="2763.6053,-431.6531 2773.8926,-429.1193 2764.2705,-424.6848 2763.6053,-431.6531"/>
</g>
<!-- Node3 -->
<g id="node3" class="node">
<title>Node3</title>
<g id="a_node3"><a xlink:href="sitkImage_8h.html" target="_top" xlink:title=" ">
<polygon fill="#ffffff" stroke="#000000" points="3076.5,-313.5 3076.5,-332.5 3150.5,-332.5 3150.5,-313.5 3076.5,-313.5"/>
<text text-anchor="middle" x="3113.5" y="-320.5" font-family="Helvetica,sans-Serif" font-size="10.00" fill="#000000">sitkImage.h</text>
</a>
</g>
</g>
<!-- Node2&#45;&gt;Node3 -->
<g id="edge2" class="edge">
<title>Node2&#45;&gt;Node3</title>
<path fill="none" stroke="#191970" d="M2970.7157,-366.4561C3004.4916,-356.1765 3051.5663,-341.8494 3082.282,-332.5011"/>
<polygon fill="#191970" stroke="#191970" points="2969.6784,-363.1132 2961.1307,-369.3733 2971.7166,-369.8099 2969.6784,-363.1132"/>
</g>
<!-- Node325 -->
<g id="node40" class="node">
<title>Node325</title>
<g id="a_node40"><a xlink:href="sitkProcessObject_8h.html" target="_top" xlink:title=" ">
<polygon fill="#ffffff" stroke="#000000" points="3104,-196 3104,-215 3217,-215 3217,-196 3104,-196"/>
<text text-anchor="middle" x="3160.5" y="-203" font-family="Helvetica,sans-Serif" font-size="10.00" fill="#000000">sitkProcessObject.h</text>
</a>
</g>
</g>
<!-- Node2&#45;&gt;Node325 -->
<g id="edge113" class="edge">
<title>Node2&#45;&gt;Node325</title>
<path fill="none" stroke="#191970" d="M2950.4756,-363.2456C2997.4412,-327.9706 3109.9007,-243.5042 3147.7908,-215.0457"/>
<polygon fill="#191970" stroke="#191970" points="2948.1425,-360.6206 2942.2486,-369.4248 2952.3464,-366.2177 2948.1425,-360.6206"/>
</g>
<!-- Node335 -->
<g id="node50" class="node">
<title>Node335</title>
<g id="a_node50"><a xlink:href="sitkPimpleImageBase_8h.html" target="_top" xlink:title=" ">
<polygon fill="#ffffff" stroke="#000000" points="2839.5,-313.5 2839.5,-332.5 2971.5,-332.5 2971.5,-313.5 2839.5,-313.5"/>
<text text-anchor="middle" x="2905.5" y="-320.5" font-family="Helvetica,sans-Serif" font-size="10.00" fill="#000000">sitkPimpleImageBase.h</text>
</a>
</g>
</g>
<!-- Node2&#45;&gt;Node335 -->
<g id="edge114" class="edge">
<title>Node2&#45;&gt;Node335</title>
<path fill="none" stroke="#191970" d="M2921.3759,-360.0437C2917.4285,-350.8331 2912.8542,-340.1598 2909.6326,-332.6427"/>
<polygon fill="#191970" stroke="#191970" points="2918.1633,-361.4328 2925.3195,-369.2455 2924.5973,-358.6753 2918.1633,-361.4328"/>
</g>
<!-- Node4 -->
<g id="node4" class="node">
<title>Node4</title>
<g id="a_node4"><a xlink:href="sitkAdditionalProcedures_8h.html" target="_top" xlink:title=" ">
<polygon fill="#ffffff" stroke="#000000" points="1271,-129 1271,-148 1418,-148 1418,-129 1271,-129"/>
<text text-anchor="middle" x="1344.5" y="-136" font-family="Helvetica,sans-Serif" font-size="10.00" fill="#000000">sitkAdditionalProcedures.h</text>
</a>
</g>
</g>
<!-- Node3&#45;&gt;Node4 -->
<g id="edge3" class="edge">
<title>Node3&#45;&gt;Node4</title>
<path fill="none" stroke="#191970" d="M3066.1446,-319.2612C3040.754,-317.3016 3008.9275,-314.9172 2980.5,-313 2447.6981,-277.0675 2311.3673,-294.9485 1782.5,-221 1636.8967,-200.6411 1466.1544,-165.058 1387.7932,-148.0636"/>
<polygon fill="#191970" stroke="#191970" points="3066.0064,-322.7609 3076.2471,-320.0447 3066.5477,-315.7819 3066.0064,-322.7609"/>
</g>
<!-- Node5 -->
<g id="node5" class="node">
<title>Node5</title>
<g id="a_node5"><a xlink:href="SimpleITK_8h.html" target="_top" xlink:title=" ">
<polygon fill="#ffffff" stroke="#000000" points="1539,-.5 1539,-19.5 1614,-19.5 1614,-.5 1539,-.5"/>
<text text-anchor="middle" x="1576.5" y="-7.5" font-family="Helvetica,sans-Serif" font-size="10.00" fill="#000000">SimpleITK.h</text>
</a>
</g>
</g>
<!-- Node3&#45;&gt;Node5 -->
<g id="edge7" class="edge">
<title>Node3&#45;&gt;Node5</title>
<path fill="none" stroke="#191970" d="M3093.9281,-306.4807C3071.4099,-285.514 3037.5,-247.0437 3037.5,-205.5 3037.5,-205.5 3037.5,-205.5 3037.5,-138.5 3037.5,-97.1517 3029.5023,-78.0118 2994.5,-56 2934.4239,-18.22 1832.9545,-11.1812 1614.1172,-10.1538"/>
<polygon fill="#191970" stroke="#191970" points="3091.8444,-309.3135 3101.625,-313.3867 3096.5192,-304.1032 3091.8444,-309.3135"/>
</g>
<!-- Node6 -->
<g id="node6" class="node">
<title>Node6</title>
<g id="a_node6"><a xlink:href="sitkHashImageFilter_8h.html" target="_top" xlink:title=" ">
<polygon fill="#ffffff" stroke="#000000" points="2659.5,-62 2659.5,-81 2781.5,-81 2781.5,-62 2659.5,-62"/>
<text text-anchor="middle" x="2720.5" y="-69" font-family="Helvetica,sans-Serif" font-size="10.00" fill="#000000">sitkHashImageFilter.h</text>
</a>
</g>
</g>
<!-- Node3&#45;&gt;Node6 -->
<g id="edge5" class="edge">
<title>Node3&#45;&gt;Node6</title>
<path fill="none" stroke="#191970" d="M3066.4098,-319.077C2926.3883,-306.2633 2518.2044,-260.2015 2451.5,-154 2377.8464,-36.7346 2448.9083,-127.5375 2650.5,-87 2659.6522,-85.1596 2669.4499,-83.0672 2678.7293,-81.0284"/>
<polygon fill="#191970" stroke="#191970" points="3066.135,-322.5664 3076.4085,-319.977 3066.7626,-315.5945 3066.135,-322.5664"/>
</g>
<!-- Node3&#45;&gt;Node7 -->
<g id="edge8" class="edge">
<title>Node3&#45;&gt;Node7</title>
<path fill="none" stroke="#191970" d="M3066.1685,-318.8528C3040.7847,-316.7774 3008.957,-314.4125 2980.5,-313 2601.964,-294.2113 1375.003,-272.2063 1121.5609,-267.7932"/>
<polygon fill="#191970" stroke="#191970" points="3066.0126,-322.3519 3076.2678,-319.691 3066.5916,-315.3758 3066.0126,-322.3519"/>
</g>
<!-- Node324 -->
<g id="node39" class="node">
<title>Node324</title>
<g id="a_node39"><a xlink:href="sitkImageRegistrationMethod_8h.html" target="_top" xlink:title=" ">
<polygon fill="#ffffff" stroke="#000000" points="3191,-129 3191,-148 3360,-148 3360,-129 3191,-129"/>
<text text-anchor="middle" x="3275.5" y="-136" font-family="Helvetica,sans-Serif" font-size="10.00" fill="#000000">sitkImageRegistrationMethod.h</text>
</a>
</g>
</g>
<!-- Node3&#45;&gt;Node324 -->
<g id="edge112" class="edge">
<title>Node3&#45;&gt;Node324</title>
<path fill="none" stroke="#191970" d="M3160.6542,-314.6136C3199.8811,-306.6073 3251.3494,-293.3565 3264.5,-277 3295.4836,-238.4631 3283.8988,-172.8322 3278.0533,-148.2119"/>
<polygon fill="#191970" stroke="#191970" points="3159.8498,-311.2048 3150.7219,-316.5837 3161.2118,-318.0711 3159.8498,-311.2048"/>
</g>
<!-- Node3&#45;&gt;Node325 -->
<g id="edge81" class="edge">
<title>Node3&#45;&gt;Node325</title>
<path fill="none" stroke="#191970" d="M3118.3796,-303.4605C3121.9562,-290.1449 3127.2631,-272.2355 3133.5,-257 3139.6958,-241.8648 3148.8623,-225.2618 3154.7585,-215.1097"/>
<polygon fill="#191970" stroke="#191970" points="3114.923,-302.8472 3115.7998,-313.4057 3121.6987,-304.6049 3114.923,-302.8472"/>
</g>
<!-- Node327 -->
<g id="node42" class="node">
<title>Node327</title>
<g id="a_node42"><a xlink:href="sitkImageFileReader_8h.html" target="_top" xlink:title=" ">
<polygon fill="#ffffff" stroke="#000000" points="3388.5,-62 3388.5,-81 3512.5,-81 3512.5,-62 3388.5,-62"/>
<text text-anchor="middle" x="3450.5" y="-69" font-family="Helvetica,sans-Serif" font-size="10.00" fill="#000000">sitkImageFileReader.h</text>
</a>
</g>
</g>
<!-- Node3&#45;&gt;Node327 -->
<g id="edge105" class="edge">
<title>Node3&#45;&gt;Node327</title>
<path fill="none" stroke="#191970" d="M3160.8245,-320.1341C3249.3932,-311.8267 3437.4666,-279.5078 3506.5,-154 3513.1401,-141.9279 3512.0376,-135.6159 3506.5,-123 3498.4837,-104.7372 3480.4409,-90.1011 3466.9887,-81.1673"/>
<polygon fill="#191970" stroke="#191970" points="3160.4426,-316.6541 3150.7857,-321.0123 3161.0527,-323.6275 3160.4426,-316.6541"/>
</g>
<!-- Node328 -->
<g id="node43" class="node">
<title>Node328</title>
<g id="a_node43"><a xlink:href="sitkImageSeriesReader_8h.html" target="_top" xlink:title=" ">
<polygon fill="#ffffff" stroke="#000000" points="3531,-62 3531,-81 3668,-81 3668,-62 3531,-62"/>
<text text-anchor="middle" x="3599.5" y="-69" font-family="Helvetica,sans-Serif" font-size="10.00" fill="#000000">sitkImageSeriesReader.h</text>
</a>
</g>
</g>
<!-- Node3&#45;&gt;Node328 -->
<g id="edge107" class="edge">
<title>Node3&#45;&gt;Node328</title>
<path fill="none" stroke="#191970" d="M3160.8239,-316.9159C3288.2668,-299.4221 3633.2032,-244.3743 3694.5,-154 3702.2338,-142.5975 3701.5484,-134.8384 3694.5,-123 3681.8313,-101.7218 3656.9696,-88.6945 3635.8572,-81.0665"/>
<polygon fill="#191970" stroke="#191970" points="3160.0413,-313.4899 3150.6025,-318.3022 3160.9822,-320.4264 3160.0413,-313.4899"/>
</g>
<!-- Node329 -->
<g id="node44" class="node">
<title>Node329</title>
<g id="a_node44"><a xlink:href="sitkImportImageFilter_8h.html" target="_top" xlink:title=" ">
<polygon fill="#ffffff" stroke="#000000" points="3686.5,-62 3686.5,-81 3816.5,-81 3816.5,-62 3686.5,-62"/>
<text text-anchor="middle" x="3751.5" y="-69" font-family="Helvetica,sans-Serif" font-size="10.00" fill="#000000">sitkImportImageFilter.h</text>
</a>
</g>
</g>
<!-- Node3&#45;&gt;Node329 -->
<g id="edge110" class="edge">
<title>Node3&#45;&gt;Node329</title>
<path fill="none" stroke="#191970" d="M3161.1932,-318.5923C3225.7059,-312.122 3344.1427,-298.4435 3443.5,-277 3529.5546,-258.4276 3556.298,-263.3104 3633.5,-221 3673.2813,-199.198 3682.7593,-189.8933 3710.5,-154 3728.7899,-130.335 3742.2364,-97.2224 3748.1561,-81.0918"/>
<polygon fill="#191970" stroke="#191970" points="3160.5402,-315.1397 3150.9328,-319.606 3161.2285,-322.1058 3160.5402,-315.1397"/>
</g>
<!-- Node330 -->
<g id="node45" class="node">
<title>Node330</title>
<g id="a_node45"><a xlink:href="sitkImageFileWriter_8h.html" target="_top" xlink:title=" ">
<polygon fill="#ffffff" stroke="#000000" points="3378,-129 3378,-148 3497,-148 3497,-129 3378,-129"/>
<text text-anchor="middle" x="3437.5" y="-136" font-family="Helvetica,sans-Serif" font-size="10.00" fill="#000000">sitkImageFileWriter.h</text>
</a>
</g>
</g>
<!-- Node3&#45;&gt;Node330 -->
<g id="edge106" class="edge">
<title>Node3&#45;&gt;Node330</title>
<path fill="none" stroke="#191970" d="M3160.5829,-316.3483C3196.0047,-309.9366 3244.8793,-298.0163 3283.5,-277 3348.5641,-241.5939 3408.634,-173.4877 3429.6169,-148.2344"/>
<polygon fill="#191970" stroke="#191970" points="3159.767,-312.9373 3150.5093,-318.0895 3160.9593,-319.8351 3159.767,-312.9373"/>
</g>
<!-- Node331 -->
<g id="node46" class="node">
<title>Node331</title>
<g id="a_node46"><a xlink:href="sitkImageSeriesWriter_8h.html" target="_top" xlink:title=" ">
<polygon fill="#ffffff" stroke="#000000" points="3780,-129 3780,-148 3913,-148 3913,-129 3780,-129"/>
<text text-anchor="middle" x="3846.5" y="-136" font-family="Helvetica,sans-Serif" font-size="10.00" fill="#000000">sitkImageSeriesWriter.h</text>
</a>
</g>
</g>
<!-- Node3&#45;&gt;Node331 -->
<g id="edge108" class="edge">
<title>Node3&#45;&gt;Node331</title>
<path fill="none" stroke="#191970" d="M3160.7288,-322.192C3301.9661,-319.4281 3714.4892,-308.6989 3765.5,-277 3814.7115,-246.4192 3837.427,-174.1006 3844.2152,-148.0562"/>
<polygon fill="#191970" stroke="#191970" points="3160.5762,-318.6942 3150.645,-322.3848 3160.7101,-325.6929 3160.5762,-318.6942"/>
</g>
<!-- Node332 -->
<g id="node47" class="node">
<title>Node332</title>
<g id="a_node47"><a xlink:href="sitkImageViewer_8h.html" target="_top" xlink:title=" ">
<polygon fill="#ffffff" stroke="#000000" points="2902,-129 2902,-148 3009,-148 3009,-129 2902,-129"/>
<text text-anchor="middle" x="2955.5" y="-136" font-family="Helvetica,sans-Serif" font-size="10.00" fill="#000000">sitkImageViewer.h</text>
</a>
</g>
</g>
<!-- Node3&#45;&gt;Node332 -->
<g id="edge109" class="edge">
<title>Node3&#45;&gt;Node332</title>
<path fill="none" stroke="#191970" d="M3074.4365,-309.5496C3057.168,-302.0804 3037.6232,-291.3523 3023.5,-277 2984.9842,-237.8593 2964.5488,-172.5917 2957.9352,-148.14"/>
<polygon fill="#191970" stroke="#191970" points="3073.1667,-312.8117 3083.747,-313.3662 3075.8218,-306.3347 3073.1667,-312.8117"/>
</g>
<!-- Node333 -->
<g id="node48" class="node">
<title>Node333</title>
<g id="a_node48"><a xlink:href="sitkShow_8h.html" target="_top" xlink:title=" ">
<polygon fill="#ffffff" stroke="#000000" points="3066,-129 3066,-148 3135,-148 3135,-129 3066,-129"/>
<text text-anchor="middle" x="3100.5" y="-136" font-family="Helvetica,sans-Serif" font-size="10.00" fill="#000000">sitkShow.h</text>
</a>
</g>
</g>
<!-- Node3&#45;&gt;Node333 -->
<g id="edge111" class="edge">
<title>Node3&#45;&gt;Node333</title>
<path fill="none" stroke="#191970" d="M3108.9596,-303.2602C3104.5062,-282.8124 3098.0277,-249.8686 3095.5,-221 3094.2982,-207.2747 3094.8335,-203.7616 3095.5,-190 3096.2039,-175.4646 3098.0192,-158.7023 3099.2574,-148.3522"/>
<polygon fill="#191970" stroke="#191970" points="3105.5906,-304.2333 3111.1874,-313.2292 3112.4221,-302.7066 3105.5906,-304.2333"/>
</g>
<!-- Node334 -->
<g id="node49" class="node">
<title>Node334</title>
<g id="a_node49"><a xlink:href="sitkImageConvert_8h.html" target="_top" xlink:title=" ">
<polygon fill="#ffffff" stroke="#000000" points="3142,-257.5 3142,-276.5 3255,-276.5 3255,-257.5 3142,-257.5"/>
<text text-anchor="middle" x="3198.5" y="-264.5" font-family="Helvetica,sans-Serif" font-size="10.00" fill="#000000">sitkImageConvert.h</text>
</a>
</g>
</g>
<!-- Node3&#45;&gt;Node334 -->
<g id="edge103" class="edge">
<title>Node3&#45;&gt;Node334</title>
<path fill="none" stroke="#191970" d="M3137.0419,-307.49C3152.039,-297.6096 3170.9973,-285.1194 3183.8638,-276.6427"/>
<polygon fill="#191970" stroke="#191970" points="3134.7309,-304.8212 3128.3059,-313.2455 3138.5821,-310.6666 3134.7309,-304.8212"/>
</g>
<!-- Node4&#45;&gt;Node5 -->
<g id="edge4" class="edge">
<title>Node4&#45;&gt;Node5</title>
<path fill="none" stroke="#191970" d="M1260.9018,-132.3204C1084.2528,-119.2148 688.9162,-89.6127 686.5,-87 677.1455,-76.8847 677.0124,-65.9906 686.5,-56 716.282,-24.6389 1373.1594,-12.9669 1538.8269,-10.5163"/>
<polygon fill="#191970" stroke="#191970" points="1260.7062,-135.8154 1270.9377,-133.0647 1261.224,-128.8346 1260.7062,-135.8154"/>
</g>
<!-- Node6&#45;&gt;Node5 -->
<g id="edge6" class="edge">
<title>Node6&#45;&gt;Node5</title>
<path fill="none" stroke="#191970" d="M2673.4414,-59.8999C2665.8116,-58.3604 2657.9657,-56.9788 2650.5,-56 2443.7113,-28.8896 1779.3806,-14.0548 1614.0357,-10.7251"/>
<polygon fill="#191970" stroke="#191970" points="2672.7875,-63.3391 2683.2966,-61.9941 2674.2425,-56.492 2672.7875,-63.3391"/>
</g>
<!-- Node7&#45;&gt;Node4 -->
<g id="edge47" class="edge">
<title>Node7&#45;&gt;Node4</title>
<path fill="none" stroke="#191970" d="M1100.9203,-252.1911C1115.4187,-243.5008 1133.7779,-232.0796 1149.5,-221 1167.5993,-208.2451 1169.0181,-200.5228 1188.5,-190 1224.8869,-170.3463 1270.1016,-156.4345 1302.4703,-148.0654"/>
<polygon fill="#191970" stroke="#191970" points="1098.8292,-249.3622 1092.0168,-257.4765 1102.4024,-255.3815 1098.8292,-249.3622"/>
</g>
<!-- Node7&#45;&gt;Node5 -->
<g id="edge48" class="edge">
<title>Node7&#45;&gt;Node5</title>
<path fill="none" stroke="#191970" d="M1018.9476,-259.3491C960.4698,-250.8106 873.5842,-236.1875 843.5,-221 825.245,-211.7843 828.207,-198.2595 809.5,-190 730.0826,-154.9356 478.9899,-218.1528 420.5,-154 411.2174,-143.8186 414.3164,-135.3122 420.5,-123 442.8807,-78.4374 463.5132,-72.7019 510.5,-56 608.8984,-21.0233 1361.07,-11.9737 1538.9017,-10.3138"/>
<polygon fill="#191970" stroke="#191970" points="1018.7582,-262.8579 1029.1552,-260.8201 1019.7567,-255.9294 1018.7582,-262.8579"/>
</g>
<!-- Node8 -->
<g id="node8" class="node">
<title>Node8</title>
<g id="a_node8"><a xlink:href="sitkBasicFilters_8h.html" target="_top" xlink:title=" ">
<polygon fill="#ffffff" stroke="#ff0000" points="1792,-196 1792,-215 1891,-215 1891,-196 1792,-196"/>
<text text-anchor="middle" x="1841.5" y="-203" font-family="Helvetica,sans-Serif" font-size="10.00" fill="#000000">sitkBasicFilters.h</text>
</a>
</g>
</g>
<!-- Node7&#45;&gt;Node8 -->
<g id="edge9" class="edge">
<title>Node7&#45;&gt;Node8</title>
<path fill="none" stroke="#191970" d="M1132.063,-262.4587C1276.1929,-250.8869 1655.4586,-220.4367 1791.7957,-209.4906"/>
<polygon fill="#191970" stroke="#191970" points="1131.3795,-259.0022 1121.6917,-263.2914 1131.9398,-265.9798 1131.3795,-259.0022"/>
</g>
<!-- Node309 -->
<g id="node24" class="node">
<title>Node309</title>
<g id="a_node24"><a xlink:href="sitkBSplineTransform_8h.html" target="_top" xlink:title=" ">
<polygon fill="#ffffff" stroke="#000000" points="769,-129 769,-148 898,-148 898,-129 769,-129"/>
<text text-anchor="middle" x="833.5" y="-136" font-family="Helvetica,sans-Serif" font-size="10.00" fill="#000000">sitkBSplineTransform.h</text>
</a>
</g>
</g>
<!-- Node7&#45;&gt;Node309 -->
<g id="edge49" class="edge">
<title>Node7&#45;&gt;Node309</title>
<path fill="none" stroke="#191970" d="M1046.192,-252.7107C1028.0451,-243.773 1004.3134,-231.9217 983.5,-221 934.8129,-195.4518 878.1591,-163.7446 850.4789,-148.1221"/>
<polygon fill="#191970" stroke="#191970" points="1045.126,-256.0864 1055.645,-257.3519 1048.2111,-249.8028 1045.126,-256.0864"/>
</g>
<!-- Node310 -->
<g id="node25" class="node">
<title>Node310</title>
<g id="a_node25"><a xlink:href="sitkDisplacementFieldTransform_8h.html" target="_top" xlink:title=" ">
<polygon fill="#ffffff" stroke="#000000" points="429.5,-129 429.5,-148 611.5,-148 611.5,-129 429.5,-129"/>
<text text-anchor="middle" x="520.5" y="-136" font-family="Helvetica,sans-Serif" font-size="10.00" fill="#000000">sitkDisplacementFieldTransform.h</text>
</a>
</g>
</g>
<!-- Node7&#45;&gt;Node310 -->
<g id="edge52" class="edge">
<title>Node7&#45;&gt;Node310</title>
<path fill="none" stroke="#191970" d="M1019.1134,-260.4765C979.1222,-254.2456 925.0433,-242.4951 881.5,-221 861.9558,-211.352 863.3909,-198.9115 843.5,-190 840.5162,-188.6632 674.5114,-162.5733 581.6923,-148.0538"/>
<polygon fill="#191970" stroke="#191970" points="1018.8141,-263.9704 1029.2205,-261.9809 1019.8448,-257.0467 1018.8141,-263.9704"/>
</g>
<!-- Node311 -->
<g id="node26" class="node">
<title>Node311</title>
<g id="a_node26"><a xlink:href="sitkAffineTransform_8h.html" target="_top" xlink:title=" ">
<polygon fill="#ffffff" stroke="#000000" points="630,-129 630,-148 751,-148 751,-129 630,-129"/>
<text text-anchor="middle" x="690.5" y="-136" font-family="Helvetica,sans-Serif" font-size="10.00" fill="#000000">sitkAffineTransform.h</text>
</a>
</g>
</g>
<!-- Node7&#45;&gt;Node311 -->
<g id="edge54" class="edge">
<title>Node7&#45;&gt;Node311</title>
<path fill="none" stroke="#191970" d="M1022.7793,-254.9127C993.5858,-247.1968 957.1184,-235.8408 926.5,-221 904.6456,-210.4071 903.5419,-200.1971 881.5,-190 855.1613,-177.8152 780.3589,-159.2741 732.5586,-148.0792"/>
<polygon fill="#191970" stroke="#191970" points="1022.2235,-258.3837 1032.7806,-257.4898 1023.9703,-251.6051 1022.2235,-258.3837"/>
</g>
<!-- Node312 -->
<g id="node27" class="node">
<title>Node312</title>
<g id="a_node27"><a xlink:href="sitkEuler2DTransform_8h.html" target="_top" xlink:title=" ">
<polygon fill="#ffffff" stroke="#000000" points="916,-129 916,-148 1047,-148 1047,-129 916,-129"/>
<text text-anchor="middle" x="981.5" y="-136" font-family="Helvetica,sans-Serif" font-size="10.00" fill="#000000">sitkEuler2DTransform.h</text>
</a>
</g>
</g>
<!-- Node7&#45;&gt;Node312 -->
<g id="edge56" class="edge">
<title>Node7&#45;&gt;Node312</title>
<path fill="none" stroke="#191970" d="M1040.6345,-252.97C1026.1996,-245.5017 1010.523,-234.9363 1000.5,-221 984.3664,-198.5672 981.6822,-164.5898 981.3945,-148.122"/>
<polygon fill="#191970" stroke="#191970" points="1039.3426,-256.2329 1049.869,-257.4347 1042.3896,-249.9308 1039.3426,-256.2329"/>
</g>
<!-- Node313 -->
<g id="node28" class="node">
<title>Node313</title>
<g id="a_node28"><a xlink:href="sitkEuler3DTransform_8h.html" target="_top" xlink:title=" ">
<polygon fill="#ffffff" stroke="#000000" points="1010,-196 1010,-215 1141,-215 1141,-196 1010,-196"/>
<text text-anchor="middle" x="1075.5" y="-203" font-family="Helvetica,sans-Serif" font-size="10.00" fill="#000000">sitkEuler3DTransform.h</text>
</a>
</g>
</g>
<!-- Node7&#45;&gt;Node313 -->
<g id="edge58" class="edge">
<title>Node7&#45;&gt;Node313</title>
<path fill="none" stroke="#191970" d="M1075.5,-247.2462C1075.5,-236.5519 1075.5,-223.814 1075.5,-215.2449"/>
<polygon fill="#191970" stroke="#191970" points="1072.0001,-247.3906 1075.5,-257.3906 1079.0001,-247.3907 1072.0001,-247.3906"/>
</g>
<!-- Node314 -->
<g id="node29" class="node">
<title>Node314</title>
<g id="a_node29"><a xlink:href="sitkScaleTransform_8h.html" target="_top" xlink:title=" ">
<polygon fill="#ffffff" stroke="#000000" points="1386,-196 1386,-215 1505,-215 1505,-196 1386,-196"/>
<text text-anchor="middle" x="1445.5" y="-203" font-family="Helvetica,sans-Serif" font-size="10.00" fill="#000000">sitkScaleTransform.h</text>
</a>
</g>
</g>
<!-- Node7&#45;&gt;Node314 -->
<g id="edge60" class="edge">
<title>Node7&#45;&gt;Node314</title>
<path fill="none" stroke="#191970" d="M1131.6842,-259.5997C1192.2944,-251.3402 1291.5434,-237.014 1376.5,-221 1385.7902,-219.2488 1395.7342,-217.1488 1405.0981,-215.0683"/>
<polygon fill="#191970" stroke="#191970" points="1131.0025,-256.16 1121.5632,-260.9714 1131.9427,-263.0966 1131.0025,-256.16"/>
</g>
<!-- Node315 -->
<g id="node30" class="node">
<title>Node315</title>
<g id="a_node30"><a xlink:href="sitkScaleSkewVersor3DTransform_8h.html" target="_top" xlink:title=" ">
<polygon fill="#ffffff" stroke="#000000" points="1960,-196 1960,-215 2149,-215 2149,-196 1960,-196"/>
<text text-anchor="middle" x="2054.5" y="-203" font-family="Helvetica,sans-Serif" font-size="10.00" fill="#000000">sitkScaleSkewVersor3DTransform.h</text>
</a>
</g>
</g>
<!-- Node7&#45;&gt;Node315 -->
<g id="edge62" class="edge">
<title>Node7&#45;&gt;Node315</title>
<path fill="none" stroke="#191970" d="M1131.932,-264.7048C1265.4656,-259.0871 1611.258,-243.4468 1899.5,-221 1921.0698,-219.3203 1944.2953,-217.1767 1966.0351,-215.0232"/>
<polygon fill="#191970" stroke="#191970" points="1131.4005,-261.2239 1121.5556,-265.1391 1131.6933,-268.2178 1131.4005,-261.2239"/>
</g>
<!-- Node316 -->
<g id="node31" class="node">
<title>Node316</title>
<g id="a_node31"><a xlink:href="sitkScaleVersor3DTransform_8h.html" target="_top" xlink:title=" ">
<polygon fill="#ffffff" stroke="#000000" points="2189,-196 2189,-215 2352,-215 2352,-196 2189,-196"/>
<text text-anchor="middle" x="2270.5" y="-203" font-family="Helvetica,sans-Serif" font-size="10.00" fill="#000000">sitkScaleVersor3DTransform.h</text>
</a>
</g>
</g>
<!-- Node7&#45;&gt;Node316 -->
<g id="edge64" class="edge">
<title>Node7&#45;&gt;Node316</title>
<path fill="none" stroke="#191970" d="M1131.8617,-266.4665C1292.4538,-264.5454 1766.0477,-256.0905 2157.5,-221 2174.1657,-219.5061 2192.1409,-217.3096 2208.7455,-215.0372"/>
<polygon fill="#191970" stroke="#191970" points="1131.6994,-262.9681 1121.7406,-266.5838 1131.7806,-269.9676 1131.6994,-262.9681"/>
</g>
<!-- Node317 -->
<g id="node32" class="node">
<title>Node317</title>
<g id="a_node32"><a xlink:href="sitkSimilarity2DTransform_8h.html" target="_top" xlink:title=" ">
<polygon fill="#ffffff" stroke="#000000" points="2600,-196 2600,-215 2753,-215 2753,-196 2600,-196"/>
<text text-anchor="middle" x="2676.5" y="-203" font-family="Helvetica,sans-Serif" font-size="10.00" fill="#000000">sitkSimilarity2DTransform.h</text>
</a>
</g>
</g>
<!-- Node7&#45;&gt;Node317 -->
<g id="edge66" class="edge">
<title>Node7&#45;&gt;Node317</title>
<path fill="none" stroke="#191970" d="M1131.8573,-265.2488C1311.2982,-259.6161 1885.4254,-241.1538 2360.5,-221 2442.2678,-217.5312 2535.901,-212.8495 2599.8879,-209.5419"/>
<polygon fill="#191970" stroke="#191970" points="1131.4929,-261.7584 1121.6075,-265.5701 1131.7123,-268.755 1131.4929,-261.7584"/>
</g>
<!-- Node318 -->
<g id="node33" class="node">
<title>Node318</title>
<g id="a_node33"><a xlink:href="sitkSimilarity3DTransform_8h.html" target="_top" xlink:title=" ">
<polygon fill="#ffffff" stroke="#000000" points="0,-196 0,-215 153,-215 153,-196 0,-196"/>
<text text-anchor="middle" x="76.5" y="-203" font-family="Helvetica,sans-Serif" font-size="10.00" fill="#000000">sitkSimilarity3DTransform.h</text>
</a>
</g>
</g>
<!-- Node7&#45;&gt;Node318 -->
<g id="edge68" class="edge">
<title>Node7&#45;&gt;Node318</title>
<path fill="none" stroke="#191970" d="M1019.3723,-265.1155C847.484,-259.1951 329.8594,-240.2179 162.5,-221 149.6887,-219.5289 135.9039,-217.3259 123.2044,-215.0392"/>
<polygon fill="#191970" stroke="#191970" points="1019.3536,-268.6168 1029.4678,-265.4619 1019.5937,-261.6209 1019.3536,-268.6168"/>
</g>
<!-- Node319 -->
<g id="node34" class="node">
<title>Node319</title>
<g id="a_node34"><a xlink:href="sitkTranslationTransform_8h.html" target="_top" xlink:title=" ">
<polygon fill="#ffffff" stroke="#000000" points="171.5,-196 171.5,-215 317.5,-215 317.5,-196 171.5,-196"/>
<text text-anchor="middle" x="244.5" y="-203" font-family="Helvetica,sans-Serif" font-size="10.00" fill="#000000">sitkTranslationTransform.h</text>
</a>
</g>
</g>
<!-- Node7&#45;&gt;Node319 -->
<g id="edge70" class="edge">
<title>Node7&#45;&gt;Node319</title>
<path fill="none" stroke="#191970" d="M1019.1862,-265.9526C894.1273,-263.0995 583.9592,-253.1103 326.5,-221 314.4235,-219.4938 301.4435,-217.3072 289.4533,-215.0489"/>
<polygon fill="#191970" stroke="#191970" points="1019.214,-269.454 1029.2892,-266.1767 1019.3693,-262.4557 1019.214,-269.454"/>
</g>
<!-- Node320 -->
<g id="node35" class="node">
<title>Node320</title>
<g id="a_node35"><a xlink:href="sitkVersorTransform_8h.html" target="_top" xlink:title=" ">
<polygon fill="#ffffff" stroke="#000000" points="336,-196 336,-215 459,-215 459,-196 336,-196"/>
<text text-anchor="middle" x="397.5" y="-203" font-family="Helvetica,sans-Serif" font-size="10.00" fill="#000000">sitkVersorTransform.h</text>
</a>
</g>
</g>
<!-- Node7&#45;&gt;Node320 -->
<g id="edge72" class="edge">
<title>Node7&#45;&gt;Node320</title>
<path fill="none" stroke="#191970" d="M1019.1874,-265.4168C911.5078,-261.7982 669.177,-250.8028 467.5,-221 457.1567,-219.4715 446.0646,-217.2773 435.8287,-215.0188"/>
<polygon fill="#191970" stroke="#191970" points="1019.3809,-268.9249 1029.4901,-265.7542 1019.61,-261.9287 1019.3809,-268.9249"/>
</g>
<!-- Node321 -->
<g id="node36" class="node">
<title>Node321</title>
<g id="a_node36"><a xlink:href="sitkVersorRigid3DTransform_8h.html" target="_top" xlink:title=" ">
<polygon fill="#ffffff" stroke="#000000" points="477,-196 477,-215 638,-215 638,-196 477,-196"/>
<text text-anchor="middle" x="557.5" y="-203" font-family="Helvetica,sans-Serif" font-size="10.00" fill="#000000">sitkVersorRigid3DTransform.h</text>
</a>
</g>
</g>
<!-- Node7&#45;&gt;Node321 -->
<g id="edge74" class="edge">
<title>Node7&#45;&gt;Node321</title>
<path fill="none" stroke="#191970" d="M1019.2342,-262.1533C937.1136,-254.8108 779.6998,-239.7195 646.5,-221 634.2302,-219.2756 621.0577,-217.1395 608.7081,-215.0099"/>
<polygon fill="#191970" stroke="#191970" points="1019.0794,-265.6533 1029.3501,-263.0526 1019.6993,-258.6808 1019.0794,-265.6533"/>
</g>
<!-- Node322 -->
<g id="node37" class="node">
<title>Node322</title>
<g id="a_node37"><a xlink:href="sitkCompositeTransform_8h.html" target="_top" xlink:title=" ">
<polygon fill="#ffffff" stroke="#000000" points="656,-196 656,-215 801,-215 801,-196 656,-196"/>
<text text-anchor="middle" x="728.5" y="-203" font-family="Helvetica,sans-Serif" font-size="10.00" fill="#000000">sitkCompositeTransform.h</text>
</a>
</g>
</g>
<!-- Node7&#45;&gt;Node322 -->
<g id="edge76" class="edge">
<title>Node7&#45;&gt;Node322</title>
<path fill="none" stroke="#191970" d="M1019.3264,-257.0816C966.665,-247.7787 885.7399,-233.4705 815.5,-221 804.6238,-219.069 792.9837,-216.9981 781.8696,-215.0188"/>
<polygon fill="#191970" stroke="#191970" points="1019.0139,-260.5806 1029.4703,-258.8735 1020.2316,-253.6873 1019.0139,-260.5806"/>
</g>
<!-- Node323 -->
<g id="node38" class="node">
<title>Node323</title>
<g id="a_node38"><a xlink:href="sitkComposeScaleSkewVersor3DTransform_8h.html" target="_top" xlink:title=" ">
<polygon fill="#ffffff" stroke="#000000" points="1197.5,-190.5 1197.5,-220.5 1367.5,-220.5 1367.5,-190.5 1197.5,-190.5"/>
<text text-anchor="start" x="1205.5" y="-208.5" font-family="Helvetica,sans-Serif" font-size="10.00" fill="#000000">sitkComposeScaleSkewVersor3</text>
<text text-anchor="middle" x="1282.5" y="-197.5" font-family="Helvetica,sans-Serif" font-size="10.00" fill="#000000">DTransform.h</text>
</a>
</g>
</g>
<!-- Node7&#45;&gt;Node323 -->
<g id="edge78" class="edge">
<title>Node7&#45;&gt;Node323</title>
<path fill="none" stroke="#191970" d="M1117.6547,-254.4758C1150.7044,-244.6567 1196.8115,-230.9582 1231.8621,-220.5446"/>
<polygon fill="#191970" stroke="#191970" points="1116.4328,-251.1875 1107.8438,-257.3906 1118.4264,-257.8976 1116.4328,-251.1875"/>
</g>
<!-- Node7&#45;&gt;Node324 -->
<g id="edge79" class="edge">
<title>Node7&#45;&gt;Node324</title>
<path fill="none" stroke="#191970" d="M1132.2756,-266.5423C1467.9635,-263.744 3179.9464,-248.1587 3226.5,-221 3254.2711,-204.7988 3268.0189,-166.135 3273.1036,-148.0864"/>
<polygon fill="#191970" stroke="#191970" points="1131.8014,-263.046 1121.8309,-266.6289 1131.8596,-270.0458 1131.8014,-263.046"/>
</g>
<!-- Node8&#45;&gt;Node4 -->
<g id="edge10" class="edge">
<title>Node8&#45;&gt;Node4</title>
<path fill="none" stroke="#191970" d="M1781.4519,-198.8124C1701.78,-189.7353 1556.8164,-172.5107 1433.5,-154 1421.5571,-152.2073 1408.7469,-150.0907 1396.6715,-148.0073"/>
<polygon fill="#191970" stroke="#191970" points="1781.4494,-202.3345 1791.7805,-199.9851 1782.2392,-195.3792 1781.4494,-202.3345"/>
</g>
<!-- Node8&#45;&gt;Node6 -->
<g id="edge36" class="edge">
<title>Node8&#45;&gt;Node6</title>
<path fill="none" stroke="#191970" d="M1901.3924,-196.77C1917.3423,-194.5035 1934.5674,-192.1081 1950.5,-190 2081.0052,-172.7325 2115.9911,-182.5525 2244.5,-154 2287.8561,-144.367 2296.1124,-132.4899 2339.5,-123 2475.4317,-93.2686 2513.2809,-110.0714 2650.5,-87 2660.3199,-85.3489 2670.8383,-83.2161 2680.6596,-81.0639"/>
<polygon fill="#191970" stroke="#191970" points="1900.5264,-193.3581 1891.1216,-198.2365 1901.516,-200.2878 1900.5264,-193.3581"/>
</g>
<!-- Node9 -->
<g id="node9" class="node">
<title>Node9</title>
<g id="a_node9"><a xlink:href="sitkBSplineTransformInitializerFilter_8h.html" target="_top" xlink:title=" ">
<polygon fill="#ffffff" stroke="#000000" points="695.5,-56.5 695.5,-86.5 861.5,-86.5 861.5,-56.5 695.5,-56.5"/>
<text text-anchor="start" x="703.5" y="-74.5" font-family="Helvetica,sans-Serif" font-size="10.00" fill="#000000">sitkBSplineTransformInitializer</text>
<text text-anchor="middle" x="778.5" y="-63.5" font-family="Helvetica,sans-Serif" font-size="10.00" fill="#000000">Filter.h</text>
</a>
</g>
</g>
<!-- Node8&#45;&gt;Node9 -->
<g id="edge11" class="edge">
<title>Node8&#45;&gt;Node9</title>
<path fill="none" stroke="#191970" d="M1781.4788,-199.3049C1681.7384,-188.7223 1489.9588,-167.0445 1461.5,-154 1442.61,-145.3415 1445.6816,-130.9917 1426.5,-123 1312.2085,-75.3824 993.4853,-101.3037 870.5,-87 867.604,-86.6632 864.6604,-86.2971 861.6903,-85.9075"/>
<polygon fill="#191970" stroke="#191970" points="1781.3984,-202.8158 1791.7108,-200.3859 1782.1339,-195.8546 1781.3984,-202.8158"/>
</g>
<!-- Node10 -->
<g id="node10" class="node">
<title>Node10</title>
<g id="a_node10"><a xlink:href="sitkImageFilter_8h.html" target="_top" xlink:title=" ">
<polygon fill="#ffffff" stroke="#ff0000" points="1831.5,-129 1831.5,-148 1929.5,-148 1929.5,-129 1831.5,-129"/>
<text text-anchor="middle" x="1880.5" y="-136" font-family="Helvetica,sans-Serif" font-size="10.00" fill="#000000">sitkImageFilter.h</text>
</a>
</g>
</g>
<!-- Node8&#45;&gt;Node10 -->
<g id="edge13" class="edge">
<title>Node8&#45;&gt;Node10</title>
<path fill="none" stroke="#191970" d="M1852.2047,-187.1099C1859.5567,-174.4795 1869.0188,-158.2241 1874.9226,-148.0817"/>
<polygon fill="#191970" stroke="#191970" points="1849.0936,-185.4973 1847.0877,-195.9005 1855.1434,-189.0188 1849.0936,-185.4973"/>
</g>
<!-- Node12 -->
<g id="node11" class="node">
<title>Node12</title>
<g id="a_node11"><a xlink:href="sitkExtractImageFilter_8h.html" target="_top" xlink:title=" ">
<polygon fill="#ffffff" stroke="#000000" points="879.5,-62 879.5,-81 1011.5,-81 1011.5,-62 879.5,-62"/>
<text text-anchor="middle" x="945.5" y="-69" font-family="Helvetica,sans-Serif" font-size="10.00" fill="#000000">sitkExtractImageFilter.h</text>
</a>
</g>
</g>
<!-- Node8&#45;&gt;Node12 -->
<g id="edge35" class="edge">
<title>Node8&#45;&gt;Node12</title>
<path fill="none" stroke="#191970" d="M1781.7067,-196.3091C1725.3357,-187.1909 1638.672,-172.0006 1564.5,-154 1518.0423,-142.7253 1508.4737,-131.883 1461.5,-123 1268.2727,-86.4594 1215.1552,-114.9525 1020.5,-87 1009.5764,-85.4314 997.8522,-83.2506 986.9949,-81.0195"/>
<polygon fill="#191970" stroke="#191970" points="1781.4417,-199.8113 1791.87,-197.9404 1782.5511,-192.8998 1781.4417,-199.8113"/>
</g>
<!-- Node13 -->
<g id="node12" class="node">
<title>Node13</title>
<g id="a_node12"><a xlink:href="sitkLandmarkBasedTransformInitializerFilter_8h.html" target="_top" xlink:title=" ">
<polygon fill="#ffffff" stroke="#000000" points="1029.5,-56.5 1029.5,-86.5 1191.5,-86.5 1191.5,-56.5 1029.5,-56.5"/>
<text text-anchor="start" x="1037.5" y="-74.5" font-family="Helvetica,sans-Serif" font-size="10.00" fill="#000000">sitkLandmarkBasedTransform</text>
<text text-anchor="middle" x="1110.5" y="-63.5" font-family="Helvetica,sans-Serif" font-size="10.00" fill="#000000">InitializerFilter.h</text>
</a>
</g>
</g>
<!-- Node8&#45;&gt;Node13 -->
<g id="edge37" class="edge">
<title>Node8&#45;&gt;Node13</title>
<path fill="none" stroke="#191970" d="M1783.0987,-193.8021C1741.1982,-184.7273 1683.6903,-170.8692 1634.5,-154 1602.3146,-142.9624 1597.4015,-131.6729 1564.5,-123 1407.3027,-81.5624 1361.5974,-108.8099 1200.5,-87 1197.6719,-86.6171 1194.7965,-86.2115 1191.8946,-85.7881"/>
<polygon fill="#191970" stroke="#191970" points="1782.6204,-197.2789 1793.1313,-195.9482 1784.0847,-190.4337 1782.6204,-197.2789"/>
</g>
<!-- Node14 -->
<g id="node13" class="node">
<title>Node14</title>
<g id="a_node13"><a xlink:href="sitkPasteImageFilter_8h.html" target="_top" xlink:title=" ">
<polygon fill="#ffffff" stroke="#000000" points="1209.5,-62 1209.5,-81 1333.5,-81 1333.5,-62 1209.5,-62"/>
<text text-anchor="middle" x="1271.5" y="-69" font-family="Helvetica,sans-Serif" font-size="10.00" fill="#000000">sitkPasteImageFilter.h</text>
</a>
</g>
</g>
<!-- Node8&#45;&gt;Node14 -->
<g id="edge38" class="edge">
<title>Node8&#45;&gt;Node14</title>
<path fill="none" stroke="#191970" d="M1797.0721,-193.0725C1766.0553,-183.79 1724.0152,-169.9844 1688.5,-154 1663.2645,-142.6422 1660.7521,-131.7552 1634.5,-123 1510.4562,-81.631 1471.4018,-108.9681 1342.5,-87 1332.5501,-85.3043 1321.8853,-83.1547 1311.9241,-81.0006"/>
<polygon fill="#191970" stroke="#191970" points="1796.1511,-196.4499 1806.7329,-195.9244 1798.133,-189.7363 1796.1511,-196.4499"/>
</g>
<!-- Node15 -->
<g id="node14" class="node">
<title>Node15</title>
<g id="a_node14"><a xlink:href="sitkAbsImageFilter_8h.html" target="_top" xlink:title=" ">
<polygon fill="#ffffff" stroke="#ff0000" points="2525.5,-62 2525.5,-81 2641.5,-81 2641.5,-62 2525.5,-62"/>
<text text-anchor="middle" x="2583.5" y="-69" font-family="Helvetica,sans-Serif" font-size="10.00" fill="#000000">sitkAbsImageFilter.h</text>
</a>
</g>
</g>
<!-- Node8&#45;&gt;Node15 -->
<g id="edge39" class="edge">
<title>Node8&#45;&gt;Node15</title>
<path fill="none" stroke="#191970" d="M1901.4706,-196.5296C1980.7555,-184.5728 2116.177,-163.7859 2165.5,-154 2223.7621,-142.4405 2237.2602,-134.6715 2295.5,-123 2393.0767,-103.4453 2418.8579,-106.2255 2516.5,-87 2525.52,-85.224 2535.1753,-83.1141 2544.2678,-81.0318"/>
<polygon fill="#191970" stroke="#191970" points="1900.5109,-193.1346 1891.1437,-198.0849 1901.5535,-200.0565 1900.5109,-193.1346"/>
</g>
<!-- Node18 -->
<g id="node15" class="node">
<title>Node18</title>
<g id="a_node15"><a xlink:href="sitkAbsoluteValueDifferenceImageFilter_8h.html" target="_top" xlink:title=" ">
<polygon fill="#ffffff" stroke="#ff0000" points="1352,-56.5 1352,-86.5 1507,-86.5 1507,-56.5 1352,-56.5"/>
<text text-anchor="start" x="1360" y="-74.5" font-family="Helvetica,sans-Serif" font-size="10.00" fill="#000000">sitkAbsoluteValueDifference</text>
<text text-anchor="middle" x="1429.5" y="-63.5" font-family="Helvetica,sans-Serif" font-size="10.00" fill="#000000">ImageFilter.h</text>
</a>
</g>
</g>
<!-- Node8&#45;&gt;Node18 -->
<g id="edge40" class="edge">
<title>Node8&#45;&gt;Node18</title>
<path fill="none" stroke="#191970" d="M1809.9314,-191.7594C1788.2938,-181.9917 1759.1575,-168.1439 1734.5,-154 1713.1148,-141.7331 1711.2586,-132.4788 1688.5,-123 1680.0092,-119.4637 1580.3599,-100.1184 1507.1938,-86.1772"/>
<polygon fill="#191970" stroke="#191970" points="1808.7444,-195.0625 1819.3023,-195.9465 1811.6001,-188.6714 1808.7444,-195.0625"/>
</g>
<!-- Node19 -->
<g id="node16" class="node">
<title>Node19</title>
<g id="a_node16"><a xlink:href="sitkAcosImageFilter_8h.html" target="_top" xlink:title=" ">
<polygon fill="#ffffff" stroke="#ff0000" points="1525,-62 1525,-81 1646,-81 1646,-62 1525,-62"/>
<text text-anchor="middle" x="1585.5" y="-69" font-family="Helvetica,sans-Serif" font-size="10.00" fill="#000000">sitkAcosImageFilter.h</text>
</a>
</g>
</g>
<!-- Node8&#45;&gt;Node19 -->
<g id="edge41" class="edge">
<title>Node8&#45;&gt;Node19</title>
<path fill="none" stroke="#191970" d="M1823.872,-188.9728C1803.6328,-170.7297 1768.7917,-141.5029 1734.5,-123 1698.9717,-103.8298 1654.9201,-89.6536 1623.9614,-81.0806"/>
<polygon fill="#191970" stroke="#191970" points="1821.6262,-191.662 1831.3664,-195.831 1826.352,-186.4979 1821.6262,-191.662"/>
</g>
<!-- Node20 -->
<g id="node17" class="node">
<title>Node20</title>
<g id="a_node17"><a xlink:href="sitkAdaptiveHistogramEqualizationImageFilter_8h.html" target="_top" xlink:title=" ">
<polygon fill="#ffffff" stroke="#ff0000" points="1664,-56.5 1664,-86.5 1853,-86.5 1853,-56.5 1664,-56.5"/>
<text text-anchor="start" x="1672" y="-74.5" font-family="Helvetica,sans-Serif" font-size="10.00" fill="#000000">sitkAdaptiveHistogramEqualization</text>
<text text-anchor="middle" x="1758.5" y="-63.5" font-family="Helvetica,sans-Serif" font-size="10.00" fill="#000000">ImageFilter.h</text>
</a>
</g>
</g>
<!-- Node8&#45;&gt;Node20 -->
<g id="edge42" class="edge">
<title>Node8&#45;&gt;Node20</title>
<path fill="none" stroke="#191970" d="M1830.1143,-187.1182C1813.5674,-160.404 1783.1826,-111.349 1767.8598,-86.611"/>
<polygon fill="#191970" stroke="#191970" points="1827.2896,-189.2048 1835.5308,-195.8631 1833.2405,-185.5187 1827.2896,-189.2048"/>
</g>
<!-- Node21 -->
<g id="node18" class="node">
<title>Node21</title>
<g id="a_node18"><a xlink:href="sitkAddImageFilter_8h.html" target="_top" xlink:title=" ">
<polygon fill="#ffffff" stroke="#ff0000" points="1909.5,-62 1909.5,-81 2025.5,-81 2025.5,-62 1909.5,-62"/>
<text text-anchor="middle" x="1967.5" y="-69" font-family="Helvetica,sans-Serif" font-size="10.00" fill="#000000">sitkAddImageFilter.h</text>
</a>
</g>
</g>
<!-- Node8&#45;&gt;Node21 -->
<g id="edge43" class="edge">
<title>Node8&#45;&gt;Node21</title>
<path fill="none" stroke="#191970" d="M1881.3399,-192.2668C1900.8985,-183.9875 1923.434,-171.5152 1938.5,-154 1957.2118,-132.2464 1964.1012,-97.646 1966.4256,-81.0249"/>
<polygon fill="#191970" stroke="#191970" points="1880.0053,-189.031 1872.0234,-195.998 1882.6078,-195.5292 1880.0053,-189.031"/>
</g>
<!-- Node23 -->
<g id="node19" class="node">
<title>Node23</title>
<g id="a_node19"><a xlink:href="sitkAdditiveGaussianNoiseImageFilter_8h.html" target="_top" xlink:title=" ">
<polygon fill="#ffffff" stroke="#ff0000" points="2043.5,-56.5 2043.5,-86.5 2191.5,-86.5 2191.5,-56.5 2043.5,-56.5"/>
<text text-anchor="start" x="2051.5" y="-74.5" font-family="Helvetica,sans-Serif" font-size="10.00" fill="#000000">sitkAdditiveGaussianNoise</text>
<text text-anchor="middle" x="2117.5" y="-63.5" font-family="Helvetica,sans-Serif" font-size="10.00" fill="#000000">ImageFilter.h</text>
</a>
</g>
</g>
<!-- Node8&#45;&gt;Node23 -->
<g id="edge44" class="edge">
<title>Node8&#45;&gt;Node23</title>
<path fill="none" stroke="#191970" d="M1874.6716,-192.1127C1898.9465,-182.1112 1932.5569,-167.836 1961.5,-154 2007.523,-131.9991 2059.6694,-103.7184 2090.5059,-86.6331"/>
<polygon fill="#191970" stroke="#191970" points="1873.1326,-188.9608 1865.2062,-195.991 1875.7866,-195.4382 1873.1326,-188.9608"/>
</g>
<!-- Node24 -->
<g id="node20" class="node">
<title>Node24</title>
<g id="a_node20"><a xlink:href="sitkAggregateLabelMapFilter_8h.html" target="_top" xlink:title=" ">
<polygon fill="#ffffff" stroke="#ff0000" points="2209.5,-62 2209.5,-81 2373.5,-81 2373.5,-62 2209.5,-62"/>
<text text-anchor="middle" x="2291.5" y="-69" font-family="Helvetica,sans-Serif" font-size="10.00" fill="#000000">sitkAggregateLabelMapFilter.h</text>
</a>
</g>
</g>
<!-- Node8&#45;&gt;Node24 -->
<g id="edge45" class="edge">
<title>Node8&#45;&gt;Node24</title>
<path fill="none" stroke="#191970" d="M1883.2661,-193.063C1972.3869,-166.5248 2179.5558,-104.8345 2259.36,-81.0706"/>
<polygon fill="#191970" stroke="#191970" points="1882.0873,-189.762 1873.5021,-195.9705 1884.0852,-196.4709 1882.0873,-189.762"/>
</g>
<!-- Node25 -->
<g id="node21" class="node">
<title>Node25</title>
<g id="a_node21"><a xlink:href="sitkAndImageFilter_8h.html" target="_top" xlink:title=" ">
<polygon fill="#ffffff" stroke="#ff0000" points="2391.5,-62 2391.5,-81 2507.5,-81 2507.5,-62 2391.5,-62"/>
<text text-anchor="middle" x="2449.5" y="-69" font-family="Helvetica,sans-Serif" font-size="10.00" fill="#000000">sitkAndImageFilter.h</text>
</a>
</g>
</g>
<!-- Node8&#45;&gt;Node25 -->
<g id="edge46" class="edge">
<title>Node8&#45;&gt;Node25</title>
<path fill="none" stroke="#191970" d="M1895.9651,-193.8624C1944.4204,-183.4853 2017.2057,-167.8403 2080.5,-154 2214.8122,-124.6305 2248.4135,-117.3832 2382.5,-87 2390.8837,-85.1003 2399.8513,-83.0431 2408.4113,-81.0673"/>
<polygon fill="#191970" stroke="#191970" points="1895.0525,-190.4783 1886.0067,-195.9942 1896.5178,-197.3233 1895.0525,-190.4783"/>
</g>
<!-- Node307 -->
<g id="node22" class="node">
<title>Node307</title>
<g id="a_node22"><a xlink:href="sitkCenteredTransformInitializerFilter_8h.html" target="_top" xlink:title=" ">
<polygon fill="#ffffff" stroke="#000000" points="2496,-123.5 2496,-153.5 2669,-153.5 2669,-123.5 2496,-123.5"/>
<text text-anchor="start" x="2504" y="-141.5" font-family="Helvetica,sans-Serif" font-size="10.00" fill="#000000">sitkCenteredTransformInitializer</text>
<text text-anchor="middle" x="2582.5" y="-130.5" font-family="Helvetica,sans-Serif" font-size="10.00" fill="#000000">Filter.h</text>
</a>
</g>
</g>
<!-- Node8&#45;&gt;Node307 -->
<g id="edge31" class="edge">
<title>Node8&#45;&gt;Node307</title>
<path fill="none" stroke="#191970" d="M1901.339,-196.3326C1917.2893,-194.0692 1934.528,-191.7848 1950.5,-190 2144.9674,-168.2697 2374.0721,-151.8874 2495.9611,-143.9027"/>
<polygon fill="#191970" stroke="#191970" points="1900.4687,-192.9217 1891.0697,-197.8114 1901.4665,-199.8502 1900.4687,-192.9217"/>
</g>
<!-- Node308 -->
<g id="node23" class="node">
<title>Node308</title>
<g id="a_node23"><a xlink:href="sitkCenteredVersorTransformInitializerFilter_8h.html" target="_top" xlink:title=" ">
<polygon fill="#ffffff" stroke="#000000" points="2687.5,-123.5 2687.5,-153.5 2845.5,-153.5 2845.5,-123.5 2687.5,-123.5"/>
<text text-anchor="start" x="2695.5" y="-141.5" font-family="Helvetica,sans-Serif" font-size="10.00" fill="#000000">sitkCenteredVersorTransform</text>
<text text-anchor="middle" x="2766.5" y="-130.5" font-family="Helvetica,sans-Serif" font-size="10.00" fill="#000000">InitializerFilter.h</text>
</a>
</g>
</g>
<!-- Node8&#45;&gt;Node308 -->
<g id="edge33" class="edge">
<title>Node8&#45;&gt;Node308</title>
<path fill="none" stroke="#191970" d="M1901.3033,-195.9884C1917.2539,-193.7275 1934.5016,-191.5304 1950.5,-190 2272.537,-159.195 2355.9822,-189.8205 2677.5,-154 2680.7734,-153.6353 2684.1086,-153.2262 2687.4735,-152.7823"/>
<polygon fill="#191970" stroke="#191970" points="1900.4295,-192.5784 1891.0351,-197.4769 1901.4338,-199.506 1900.4295,-192.5784"/>
</g>
<!-- Node9&#45;&gt;Node5 -->
<g id="edge12" class="edge">
<title>Node9&#45;&gt;Node5</title>
<path fill="none" stroke="#191970" d="M871.7355,-55.9326C1132.6746,-26.0622 1434.5534,-14.4453 1538.875,-11.1023"/>
<polygon fill="#191970" stroke="#191970" points="871.2223,-52.4686 861.6904,-57.094 872.0263,-59.4223 871.2223,-52.4686"/>
</g>
<!-- Node10&#45;&gt;Node5 -->
<g id="edge22" class="edge">
<title>Node10&#45;&gt;Node5</title>
<path fill="none" stroke="#191970" d="M1881.7332,-118.7906C1881.7571,-99.8967 1878.5549,-71.9595 1861.5,-56 1826.3225,-23.0818 1683.2497,-13.6628 1614.1742,-11.013"/>
<polygon fill="#191970" stroke="#191970" points="1878.2297,-118.849 1881.4117,-128.9547 1885.2262,-119.0704 1878.2297,-118.849"/>
</g>
<!-- Node10&#45;&gt;Node6 -->
<g id="edge17" class="edge">
<title>Node10&#45;&gt;Node6</title>
<path fill="none" stroke="#191970" d="M1939.9837,-137.5781C2069.6834,-134.8997 2387.4034,-124.7063 2650.5,-87 2660.8498,-85.5167 2671.9442,-83.338 2682.1802,-81.0799"/>
<polygon fill="#191970" stroke="#191970" points="1939.7932,-134.0811 1929.8649,-137.7795 1939.9326,-141.0797 1939.7932,-134.0811"/>
</g>
<!-- Node10&#45;&gt;Node9 -->
<g id="edge14" class="edge">
<title>Node10&#45;&gt;Node9</title>
<path fill="none" stroke="#191970" d="M1821.2213,-136.3826C1633.9907,-129.5522 1056.6773,-107.3606 870.5,-87 867.6018,-86.683 864.6563,-86.334 861.6845,-85.959"/>
<polygon fill="#191970" stroke="#191970" points="1821.2962,-139.8876 1831.4168,-136.7534 1821.5507,-132.8922 1821.2962,-139.8876"/>
</g>
<!-- Node10&#45;&gt;Node12 -->
<g id="edge15" class="edge">
<title>Node10&#45;&gt;Node12</title>
<path fill="none" stroke="#191970" d="M1821.268,-135.4489C1639.8346,-126.034 1099.2714,-97.443 1020.5,-87 1009.2964,-85.5147 997.2644,-83.3069 986.1891,-81.0202"/>
<polygon fill="#191970" stroke="#191970" points="1821.2544,-138.9529 1831.4223,-135.9753 1821.6169,-131.9622 1821.2544,-138.9529"/>
</g>
<!-- Node10&#45;&gt;Node13 -->
<g id="edge18" class="edge">
<title>Node10&#45;&gt;Node13</title>
<path fill="none" stroke="#191970" d="M1820.8151,-134.7112C1678.0493,-125.5302 1319.858,-101.764 1200.5,-87 1197.6677,-86.6497 1194.7887,-86.2719 1191.8837,-85.8725"/>
<polygon fill="#191970" stroke="#191970" points="1820.9177,-138.2249 1831.1214,-135.3727 1821.3661,-131.2393 1820.9177,-138.2249"/>
</g>
<!-- Node10&#45;&gt;Node14 -->
<g id="edge20" class="edge">
<title>Node10&#45;&gt;Node14</title>
<path fill="none" stroke="#191970" d="M1821.1777,-133.7233C1701.2124,-123.9151 1433.4776,-101.2329 1342.5,-87 1332.2786,-85.4009 1321.3207,-83.236 1311.1468,-81.0317"/>
<polygon fill="#191970" stroke="#191970" points="1821.0311,-137.2228 1831.2825,-134.5475 1821.6002,-130.246 1821.0311,-137.2228"/>
</g>
<!-- Node10&#45;&gt;Node15 -->
<g id="edge23" class="edge">
<title>Node10&#45;&gt;Node15</title>
<path fill="none" stroke="#191970" d="M1940.0288,-136.5898C2053.0092,-132.3217 2306.0538,-119.6827 2516.5,-87 2526.4101,-85.4609 2537.0303,-83.2631 2546.8277,-81.0044"/>
<polygon fill="#191970" stroke="#191970" points="1939.7266,-133.0985 1929.8627,-136.9654 1939.9851,-140.0937 1939.7266,-133.0985"/>
</g>
<!-- Node10&#45;&gt;Node18 -->
<g id="edge24" class="edge">
<title>Node10&#45;&gt;Node18</title>
<path fill="none" stroke="#191970" d="M1821.137,-130.832C1748.824,-121.3279 1623.0001,-104.265 1515.5,-87 1512.8038,-86.567 1510.0615,-86.1182 1507.293,-85.6581"/>
<polygon fill="#191970" stroke="#191970" points="1821.0392,-134.349 1831.4093,-132.1785 1821.9491,-127.4084 1821.0392,-134.349"/>
</g>
<!-- Node10&#45;&gt;Node19 -->
<g id="edge25" class="edge">
<title>Node10&#45;&gt;Node19</title>
<path fill="none" stroke="#191970" d="M1828.6379,-126.7211C1771.5199,-113.7486 1680.7662,-93.1367 1627.7859,-81.1039"/>
<polygon fill="#191970" stroke="#191970" points="1828.0201,-130.1699 1838.547,-128.9717 1829.5705,-123.3437 1828.0201,-130.1699"/>
</g>
<!-- Node10&#45;&gt;Node20 -->
<g id="edge26" class="edge">
<title>Node10&#45;&gt;Node20</title>
<path fill="none" stroke="#191970" d="M1854.0677,-123.9839C1833.9101,-112.9138 1806.2349,-97.7151 1785.8531,-86.5218"/>
<polygon fill="#191970" stroke="#191970" points="1852.5704,-127.1546 1863.0204,-128.9005 1855.94,-121.019 1852.5704,-127.1546"/>
</g>
<!-- Node10&#45;&gt;Node21 -->
<g id="edge27" class="edge">
<title>Node10&#45;&gt;Node21</title>
<path fill="none" stroke="#191970" d="M1901.0737,-122.6559C1917.8458,-109.7395 1940.9843,-91.9201 1955.0581,-81.0817"/>
<polygon fill="#191970" stroke="#191970" points="1898.7523,-120.026 1892.965,-128.9005 1903.0234,-125.572 1898.7523,-120.026"/>
</g>
<!-- Node10&#45;&gt;Node23 -->
<g id="edge28" class="edge">
<title>Node10&#45;&gt;Node23</title>
<path fill="none" stroke="#191970" d="M1924.0738,-126.1817C1963.5948,-115.0091 2021.9682,-98.5069 2064.2445,-86.5553"/>
<polygon fill="#191970" stroke="#191970" points="1922.8753,-122.8832 1914.2046,-128.9717 1924.7797,-129.6192 1922.8753,-122.8832"/>
</g>
<!-- Node10&#45;&gt;Node24 -->
<g id="edge29" class="edge">
<title>Node10&#45;&gt;Node24</title>
<path fill="none" stroke="#191970" d="M1939.5314,-129.1652C2003.7636,-118.9694 2109.4693,-102.0774 2200.5,-87 2212.0418,-85.0883 2224.4008,-83.0065 2236.1724,-81.0071"/>
<polygon fill="#191970" stroke="#191970" points="1938.9153,-125.7191 1929.5872,-130.7428 1940.0121,-132.6326 1938.9153,-125.7191"/>
</g>
<!-- Node10&#45;&gt;Node25 -->
<g id="edge30" class="edge">
<title>Node10&#45;&gt;Node25</title>
<path fill="none" stroke="#191970" d="M1939.7734,-134.8308C2034.0114,-128.4566 2223.604,-113.4237 2382.5,-87 2392.1575,-85.394 2402.5023,-83.2265 2412.1034,-81.0221"/>
<polygon fill="#191970" stroke="#191970" points="1939.3284,-131.3527 1929.5838,-135.5113 1939.7949,-138.3371 1939.3284,-131.3527"/>
</g>
<!-- Node12&#45;&gt;Node5 -->
<g id="edge16" class="edge">
<title>Node12&#45;&gt;Node5</title>
<path fill="none" stroke="#191970" d="M996.8513,-60.029C1004.7438,-58.515 1012.8199,-57.1071 1020.5,-56 1214.3901,-28.0492 1448.9526,-15.5514 1538.9032,-11.5355"/>
<polygon fill="#191970" stroke="#191970" points="996.1214,-56.6055 986.996,-61.9887 997.4867,-63.4711 996.1214,-56.6055"/>
</g>
<!-- Node13&#45;&gt;Node5 -->
<g id="edge19" class="edge">
<title>Node13&#45;&gt;Node5</title>
<path fill="none" stroke="#191970" d="M1201.9926,-55.8196C1331.3723,-36.9958 1472.6932,-21.1365 1538.7938,-13.9966"/>
<polygon fill="#191970" stroke="#191970" points="1201.2938,-52.3845 1191.9066,-57.2967 1202.3082,-59.3106 1201.2938,-52.3845"/>
</g>
<!-- Node14&#45;&gt;Node5 -->
<g id="edge21" class="edge">
<title>Node14&#45;&gt;Node5</title>
<path fill="none" stroke="#191970" d="M1324.6796,-59.7643C1330.6868,-58.4761 1336.7227,-57.1983 1342.5,-56 1411.62,-41.663 1492.467,-26.0188 1538.7602,-17.1682"/>
<polygon fill="#191970" stroke="#191970" points="1323.684,-56.3985 1314.6477,-61.9299 1325.1611,-63.2409 1323.684,-56.3985"/>
</g>
<!-- Node307&#45;&gt;Node5 -->
<g id="edge32" class="edge">
<title>Node307&#45;&gt;Node5</title>
<path fill="none" stroke="#191970" d="M2679.1363,-122.1371C2758.5396,-108.4655 2858.4735,-90.6362 2861.5,-87 2870.3139,-76.4103 2871.0665,-65.9151 2861.5,-56 2839.2671,-32.957 1824.1629,-14.2599 1614.2428,-10.6359"/>
<polygon fill="#191970" stroke="#191970" points="2678.3326,-118.7239 2669.0699,-123.8671 2679.5183,-125.6227 2678.3326,-118.7239"/>
</g>
<!-- Node308&#45;&gt;Node5 -->
<g id="edge34" class="edge">
<title>Node308&#45;&gt;Node5</title>
<path fill="none" stroke="#191970" d="M2825.4499,-119.7734C2864.354,-104.5044 2903.9945,-81.3745 2879.5,-56 2856.9258,-32.6147 1825.3872,-14.1541 1614.0786,-10.6141"/>
<polygon fill="#191970" stroke="#191970" points="2823.7361,-116.679 2815.6144,-123.4825 2826.2062,-123.2287 2823.7361,-116.679"/>
</g>
<!-- Node309&#45;&gt;Node5 -->
<g id="edge51" class="edge">
<title>Node309&#45;&gt;Node5</title>
<path fill="none" stroke="#191970" d="M778.808,-126.8349C772.307,-125.5103 765.7594,-124.2048 759.5,-123 665.374,-104.8825 488.2625,-125.2859 554.5,-56 589.153,-19.7522 1358.2786,-11.6582 1538.8136,-10.2552"/>
<polygon fill="#191970" stroke="#191970" points="778.4373,-130.3319 788.9377,-128.9205 779.849,-123.4757 778.4373,-130.3319"/>
</g>
<!-- Node309&#45;&gt;Node9 -->
<g id="edge50" class="edge">
<title>Node309&#45;&gt;Node9</title>
<path fill="none" stroke="#191970" d="M819.1691,-121.0423C810.3754,-110.33 799.2299,-96.7528 790.8313,-86.5218"/>
<polygon fill="#191970" stroke="#191970" points="816.5696,-123.392 825.6198,-128.9005 821.9801,-118.9505 816.5696,-123.392"/>
</g>
<!-- Node310&#45;&gt;Node5 -->
<g id="edge53" class="edge">
<title>Node310&#45;&gt;Node5</title>
<path fill="none" stroke="#191970" d="M515.4231,-119.0321C511.7891,-100.1168 510.0549,-71.9779 526.5,-56 563.5114,-20.0401 1355.2395,-11.7123 1538.7546,-10.2624"/>
<polygon fill="#191970" stroke="#191970" points="512.0438,-119.9574 517.6592,-128.9417 518.8721,-118.4165 512.0438,-119.9574"/>
</g>
<!-- Node311&#45;&gt;Node5 -->
<g id="edge55" class="edge">
<title>Node311&#45;&gt;Node5</title>
<path fill="none" stroke="#191970" d="M645.3262,-126.2831C602.3035,-114.1953 543.1287,-96.2063 536.5,-87 528.4494,-75.819 526.9753,-65.9553 536.5,-56 571.8155,-19.088 1356.1717,-11.4947 1538.7582,-10.2251"/>
<polygon fill="#191970" stroke="#191970" points="644.481,-129.6809 655.0535,-128.9935 646.3599,-122.9377 644.481,-129.6809"/>
</g>
<!-- Node312&#45;&gt;Node5 -->
<g id="edge57" class="edge">
<title>Node312&#45;&gt;Node5</title>
<path fill="none" stroke="#191970" d="M928.7573,-126.9454C921.3051,-125.5041 913.7235,-124.139 906.5,-123 759.0977,-99.7575 474.4384,-163.9164 577.5,-56 611.3002,-20.6076 1360.6913,-11.8747 1538.7773,-10.2961"/>
<polygon fill="#191970" stroke="#191970" points="928.3025,-130.4235 938.7936,-128.9442 929.6698,-123.5583 928.3025,-130.4235"/>
</g>
<!-- Node313&#45;&gt;Node5 -->
<g id="edge59" class="edge">
<title>Node313&#45;&gt;Node5</title>
<path fill="none" stroke="#191970" d="M1076.7005,-185.7784C1076.6827,-166.6674 1073.3083,-138.3808 1055.5,-123 989.464,-65.9656 723.3032,-151.466 664.5,-87 655.215,-76.8208 655.0062,-65.9847 664.5,-56 695.0875,-23.8309 1370.3969,-12.739 1538.7463,-10.4686"/>
<polygon fill="#191970" stroke="#191970" points="1073.2012,-185.7053 1076.4068,-195.8035 1080.1982,-185.9103 1073.2012,-185.7053"/>
</g>
<!-- Node314&#45;&gt;Node5 -->
<g id="edge61" class="edge">
<title>Node314&#45;&gt;Node5</title>
<path fill="none" stroke="#191970" d="M1401.6862,-193.2391C1334.8924,-175.0287 1203.3384,-141.0478 1089.5,-123 1043.896,-115.77 706.7034,-121.0345 675.5,-87 666.1892,-76.8444 666.0093,-65.9876 675.5,-56 705.6928,-24.2264 1372.1361,-12.8461 1538.9223,-10.4903"/>
<polygon fill="#191970" stroke="#191970" points="1400.8801,-196.6472 1411.4496,-195.9147 1402.7302,-189.8961 1400.8801,-196.6472"/>
</g>
<!-- Node315&#45;&gt;Node5 -->
<g id="edge63" class="edge">
<title>Node315&#45;&gt;Node5</title>
<path fill="none" stroke="#191970" d="M2111.7566,-193.9048C2162.8468,-183.5331 2239.6876,-167.8718 2306.5,-154 2371.8761,-140.4265 2387.5523,-133.4485 2453.5,-123 2527.8871,-111.2144 2740.1521,-143.0128 2790.5,-87 2799.7104,-76.7533 2800.0561,-65.9251 2790.5,-56 2769.5853,-34.2778 1816.7413,-14.6473 1614.1267,-10.7143"/>
<polygon fill="#191970" stroke="#191970" points="2110.9966,-190.4876 2101.8924,-195.9066 2112.3888,-197.3478 2110.9966,-190.4876"/>
</g>
<!-- Node316&#45;&gt;Node5 -->
<g id="edge65" class="edge">
<title>Node316&#45;&gt;Node5</title>
<path fill="none" stroke="#191970" d="M2303.0595,-191.8963C2354.0091,-170.8095 2450.4769,-131.7426 2486.5,-123 2628.5526,-88.5245 2909.9156,-161.2729 2808.5,-56 2787.2463,-33.9379 1818.1875,-14.5377 1614.013,-10.6909"/>
<polygon fill="#191970" stroke="#191970" points="2301.4029,-188.7943 2293.5079,-195.8597 2304.0857,-195.2598 2301.4029,-188.7943"/>
</g>
<!-- Node317&#45;&gt;Node5 -->
<g id="edge67" class="edge">
<title>Node317&#45;&gt;Node5</title>
<path fill="none" stroke="#191970" d="M2762.0843,-193.7006C2793.43,-186.2013 2827.7422,-173.9609 2854.5,-154 2892.6245,-125.5598 2930.5423,-90.213 2897.5,-56 2874.5961,-32.2847 1827.6861,-14.0693 1614.2486,-10.5985"/>
<polygon fill="#191970" stroke="#191970" points="2761.008,-190.3555 2752.0247,-195.9726 2762.5502,-197.1835 2761.008,-190.3555"/>
</g>
<!-- Node318&#45;&gt;Node5 -->
<g id="edge69" class="edge">
<title>Node318&#45;&gt;Node5</title>
<path fill="none" stroke="#191970" d="M92.808,-188.5609C125.7438,-155.6743 204.108,-83.9599 286.5,-56 347.2795,-35.3744 1332.6287,-14.8207 1538.8437,-10.7325"/>
<polygon fill="#191970" stroke="#191970" points="90.3165,-186.1027 85.784,-195.6791 95.2991,-191.0194 90.3165,-186.1027"/>
</g>
<!-- Node319&#45;&gt;Node5 -->
<g id="edge71" class="edge">
<title>Node319&#45;&gt;Node5</title>
<path fill="none" stroke="#191970" d="M248.157,-186.0369C255.5684,-152.7171 275.7995,-85.4932 322.5,-56 375.1689,-22.7376 1334.9564,-12.1905 1538.6894,-10.322"/>
<polygon fill="#191970" stroke="#191970" points="244.7081,-185.4325 246.1153,-195.9334 251.5637,-186.8469 244.7081,-185.4325"/>
</g>
<!-- Node320&#45;&gt;Node5 -->
<g id="edge73" class="edge">
<title>Node320&#45;&gt;Node5</title>
<path fill="none" stroke="#191970" d="M374.0822,-189.5208C362.964,-180.5154 350.7628,-168.2224 344.5,-154 326.9433,-114.1297 312.2744,-87.3734 342.5,-56 363.7888,-33.9028 1334.4203,-14.5303 1538.9261,-10.6897"/>
<polygon fill="#191970" stroke="#191970" points="372.1802,-192.4716 382.257,-195.744 376.4203,-186.9019 372.1802,-192.4716"/>
</g>
<!-- Node321&#45;&gt;Node5 -->
<g id="edge75" class="edge">
<title>Node321&#45;&gt;Node5</title>
<path fill="none" stroke="#191970" d="M500.5062,-193.8375C447.024,-182.3232 373.9932,-164.9021 365.5,-154 338.731,-119.6386 334.2897,-87.3787 364.5,-56 385.3796,-34.3129 1336.6543,-14.6548 1538.9352,-10.7155"/>
<polygon fill="#191970" stroke="#191970" points="500.0706,-197.3232 510.5808,-195.9868 501.5312,-190.4773 500.0706,-197.3232"/>
</g>
<!-- Node322&#45;&gt;Node5 -->
<g id="edge77" class="edge">
<title>Node322&#45;&gt;Node5</title>
<path fill="none" stroke="#191970" d="M670.0776,-194.0963C662.1637,-192.6572 654.1402,-191.2523 646.5,-190 589.1563,-180.6008 425.6561,-197.8264 387.5,-154 358.9001,-121.1499 357.3028,-87.3881 387.5,-56 407.9538,-34.7396 1339.1656,-14.7843 1538.9946,-10.7424"/>
<polygon fill="#191970" stroke="#191970" points="669.5369,-197.5556 680.0061,-195.9287 670.8074,-190.6718 669.5369,-197.5556"/>
</g>
<!-- Node324&#45;&gt;Node5 -->
<g id="edge80" class="edge">
<title>Node324&#45;&gt;Node5</title>
<path fill="none" stroke="#191970" d="M3261.3677,-120.9863C3244.0331,-101.0076 3212.594,-69.3792 3177.5,-56 3102.1509,-27.2739 1848.4883,-12.8346 1614.0888,-10.3797"/>
<polygon fill="#191970" stroke="#191970" points="3258.7848,-123.3527 3267.9029,-128.7481 3264.1395,-118.8442 3258.7848,-123.3527"/>
</g>
<!-- Node325&#45;&gt;Node5 -->
<g id="edge86" class="edge">
<title>Node325&#45;&gt;Node5</title>
<path fill="none" stroke="#191970" d="M3159.7803,-185.6677C3158.442,-168.2846 3154.7209,-142.7757 3144.5,-123 3125.5924,-86.4171 3118.1106,-72.7704 3080.5,-56 3011.5328,-25.2478 1839.9192,-12.5184 1614.0214,-10.3444"/>
<polygon fill="#191970" stroke="#191970" points="3156.2931,-185.9925 3160.3601,-195.7756 3163.2816,-185.5916 3156.2931,-185.9925"/>
</g>
<!-- Node325&#45;&gt;Node6 -->
<g id="edge85" class="edge">
<title>Node325&#45;&gt;Node6</title>
<path fill="none" stroke="#191970" d="M3093.8376,-202.8299C2927.6808,-195.853 2506.9585,-176.0813 2486.5,-154 2397.2561,-57.6769 2399.254,-142.3922 2650.5,-87 2659.2518,-85.0705 2668.6178,-83.0003 2677.5602,-81.0211"/>
<polygon fill="#191970" stroke="#191970" points="3093.7961,-206.3311 3103.9334,-203.2512 3094.088,-199.3372 3093.7961,-206.3311"/>
</g>
<!-- Node325&#45;&gt;Node10 -->
<g id="edge82" class="edge">
<title>Node325&#45;&gt;Node10</title>
<path fill="none" stroke="#191970" d="M3093.7506,-202.0061C2866.799,-190.1266 2128.0528,-151.4578 1929.8284,-141.082"/>
<polygon fill="#191970" stroke="#191970" points="3093.6791,-205.507 3103.8484,-202.5346 3094.0451,-198.5166 3093.6791,-205.507"/>
</g>
<!-- Node325&#45;&gt;Node307 -->
<g id="edge83" class="edge">
<title>Node325&#45;&gt;Node307</title>
<path fill="none" stroke="#191970" d="M3093.86,-199.5194C3000.7271,-190.9019 2826.4302,-173.8307 2678.5,-154 2675.4044,-153.585 2672.2549,-153.1491 2669.0754,-152.6974"/>
<polygon fill="#191970" stroke="#191970" points="3093.707,-203.02 3103.9861,-200.4526 3094.3495,-196.0496 3093.707,-203.02"/>
</g>
<!-- Node325&#45;&gt;Node308 -->
<g id="edge84" class="edge">
<title>Node325&#45;&gt;Node308</title>
<path fill="none" stroke="#191970" d="M3094.2322,-194.2311C3025.7322,-182.5826 2918.7923,-164.3974 2845.8351,-151.991"/>
<polygon fill="#191970" stroke="#191970" points="3094.0226,-197.7456 3104.4678,-195.9717 3095.1961,-190.8447 3094.0226,-197.7456"/>
</g>
<!-- Node325&#45;&gt;Node324 -->
<g id="edge102" class="edge">
<title>Node325&#45;&gt;Node324</title>
<path fill="none" stroke="#191970" d="M3185.8841,-190.711C3208.1724,-177.7256 3239.9385,-159.2184 3259.0539,-148.0817"/>
<polygon fill="#191970" stroke="#191970" points="3183.8553,-187.8423 3176.9767,-195.9005 3187.3792,-193.8906 3183.8553,-187.8423"/>
</g>
<!-- Node326 -->
<g id="node41" class="node">
<title>Node326</title>
<g id="a_node41"><a xlink:href="sitkImageReaderBase_8h.html" target="_top" xlink:title=" ">
<polygon fill="#ffffff" stroke="#000000" points="3553.5,-129 3553.5,-148 3685.5,-148 3685.5,-129 3553.5,-129"/>
<text text-anchor="middle" x="3619.5" y="-136" font-family="Helvetica,sans-Serif" font-size="10.00" fill="#000000">sitkImageReaderBase.h</text>
</a>
</g>
</g>
<!-- Node325&#45;&gt;Node326 -->
<g id="edge87" class="edge">
<title>Node325&#45;&gt;Node326</title>
<path fill="none" stroke="#191970" d="M3227.3351,-195.7441C3314.9459,-182.9556 3467.6388,-160.6671 3554.3869,-148.0045"/>
<polygon fill="#191970" stroke="#191970" points="3226.6323,-192.3095 3217.2428,-197.2173 3227.6435,-199.2361 3226.6323,-192.3095"/>
</g>
<!-- Node325&#45;&gt;Node330 -->
<g id="edge94" class="edge">
<title>Node325&#45;&gt;Node330</title>
<path fill="none" stroke="#191970" d="M3209.8655,-193.5596C3263.5356,-180.578 3348.2527,-160.0869 3397.7942,-148.1039"/>
<polygon fill="#191970" stroke="#191970" points="3208.79,-190.2187 3199.8932,-195.9717 3210.4358,-197.0225 3208.79,-190.2187"/>
</g>
<!-- Node325&#45;&gt;Node331 -->
<g id="edge96" class="edge">
<title>Node325&#45;&gt;Node331</title>
<path fill="none" stroke="#191970" d="M3227.0847,-199.1966C3328.1354,-189.6036 3526.2645,-170.6901 3694.5,-154 3722.4799,-151.2242 3753.349,-148.0897 3779.9176,-145.3694"/>
<polygon fill="#191970" stroke="#191970" points="3226.6466,-195.7223 3217.0221,-200.1515 3227.308,-202.691 3226.6466,-195.7223"/>
</g>
<!-- Node325&#45;&gt;Node332 -->
<g id="edge98" class="edge">
<title>Node325&#45;&gt;Node332</title>
<path fill="none" stroke="#191970" d="M3121.484,-192.7484C3081.6506,-179.7297 3020.7176,-159.815 2984.817,-148.0817"/>
<polygon fill="#191970" stroke="#191970" points="3120.5359,-196.1207 3131.1285,-195.9005 3122.7106,-189.4671 3120.5359,-196.1207"/>
</g>
<!-- Node325&#45;&gt;Node333 -->
<g id="edge100" class="edge">
<title>Node325&#45;&gt;Node333</title>
<path fill="none" stroke="#191970" d="M3145.0206,-188.2147C3133.5815,-175.441 3118.4305,-158.5224 3109.0806,-148.0817"/>
<polygon fill="#191970" stroke="#191970" points="3142.6249,-190.7859 3151.9035,-195.9005 3147.8396,-186.1161 3142.6249,-190.7859"/>
</g>
<!-- Node326&#45;&gt;Node327 -->
<g id="edge88" class="edge">
<title>Node326&#45;&gt;Node327</title>
<path fill="none" stroke="#191970" d="M3585.6511,-125.0806C3552.8005,-112.057 3503.7631,-92.6162 3474.6687,-81.0817"/>
<polygon fill="#191970" stroke="#191970" points="3584.7004,-128.4687 3595.2864,-128.9005 3587.2802,-121.9614 3584.7004,-128.4687"/>
</g>
<!-- Node326&#45;&gt;Node328 -->
<g id="edge90" class="edge">
<title>Node326&#45;&gt;Node328</title>
<path fill="none" stroke="#191970" d="M3613.675,-118.9863C3609.9563,-106.5286 3605.2987,-90.9258 3602.3602,-81.0817"/>
<polygon fill="#191970" stroke="#191970" points="3610.4203,-120.3195 3616.6345,-128.9005 3617.1278,-118.3172 3610.4203,-120.3195"/>
</g>
<!-- Node326&#45;&gt;Node329 -->
<g id="edge92" class="edge">
<title>Node326&#45;&gt;Node329</title>
<path fill="none" stroke="#191970" d="M3647.6145,-124.2298C3673.2404,-111.2227 3710.3878,-92.3676 3732.6227,-81.0817"/>
<polygon fill="#191970" stroke="#191970" points="3645.7453,-121.2534 3638.4124,-128.9005 3648.9136,-127.4954 3645.7453,-121.2534"/>
</g>
<!-- Node327&#45;&gt;Node5 -->
<g id="edge89" class="edge">
<title>Node327&#45;&gt;Node5</title>
<path fill="none" stroke="#191970" d="M3387.9963,-60.4597C3375.9212,-58.6827 3363.3436,-57.0761 3351.5,-56 2997.1084,-23.8014 1838.2525,-12.266 1614.1954,-10.3118"/>
<polygon fill="#191970" stroke="#191970" points="3387.5805,-63.9367 3397.994,-61.9847 3388.6361,-57.0168 3387.5805,-63.9367"/>
</g>
<!-- Node328&#45;&gt;Node5 -->
<g id="edge91" class="edge">
<title>Node328&#45;&gt;Node5</title>
<path fill="none" stroke="#191970" d="M3548.4823,-60.0526C3539.5311,-58.4197 3530.2742,-56.9682 3521.5,-56 3325.5175,-34.3735 1868.9198,-13.9291 1614.3912,-10.5024"/>
<polygon fill="#191970" stroke="#191970" points="3547.9362,-63.5116 3558.4164,-61.9572 3549.2543,-56.6368 3547.9362,-63.5116"/>
</g>
<!-- Node329&#45;&gt;Node5 -->
<g id="edge93" class="edge">
<title>Node329&#45;&gt;Node5</title>
<path fill="none" stroke="#191970" d="M3702.5729,-59.9273C3694.2489,-58.3397 3685.6585,-56.9356 3677.5,-56 3465.1161,-31.6435 1880.5809,-13.3283 1614.3966,-10.4079"/>
<polygon fill="#191970" stroke="#191970" points="3702.0532,-63.3928 3712.5473,-61.9358 3703.435,-56.5306 3702.0532,-63.3928"/>
</g>
<!-- Node330&#45;&gt;Node5 -->
<g id="edge95" class="edge">
<title>Node330&#45;&gt;Node5</title>
<path fill="none" stroke="#191970" d="M3408.8981,-124.4556C3367.2902,-104.8361 3287.1003,-70.0535 3214.5,-56 3052.8537,-24.7097 1844.0807,-12.3942 1614.1946,-10.3235"/>
<polygon fill="#191970" stroke="#191970" points="3407.6048,-127.7164 3418.1373,-128.8633 3410.6188,-121.3986 3407.6048,-127.7164"/>
</g>
<!-- Node331&#45;&gt;Node5 -->
<g id="edge97" class="edge">
<title>Node331&#45;&gt;Node5</title>
<path fill="none" stroke="#191970" d="M3847.6695,-118.7805C3847.6158,-99.4325 3844.0786,-70.7492 3825.5,-56 3780.3608,-20.165 1905.1453,-11.3011 1614.2462,-10.1408"/>
<polygon fill="#191970" stroke="#191970" points="3844.167,-118.8236 3847.3859,-128.9176 3851.1643,-119.0194 3844.167,-118.8236"/>
</g>
<!-- Node332&#45;&gt;Node5 -->
<g id="edge99" class="edge">
<title>Node332&#45;&gt;Node5</title>
<path fill="none" stroke="#191970" d="M2968.2114,-120.4242C2979.6005,-101.8269 2992.1579,-73.2146 2975.5,-56 2951.1418,-30.8277 1835.2668,-13.677 1614.2927,-10.5243"/>
<polygon fill="#191970" stroke="#191970" points="2965.221,-118.6024 2962.6854,-128.8894 2971.0826,-122.4289 2965.221,-118.6024"/>
</g>
<!-- Node333&#45;&gt;Node5 -->
<g id="edge101" class="edge">
<title>Node333&#45;&gt;Node5</title>
<path fill="none" stroke="#191970" d="M3095.0385,-119.1532C3088.3314,-99.4143 3074.8646,-69.7844 3051.5,-56 2987.7841,-18.4097 1838.0747,-11.2038 1614.1298,-10.1549"/>
<polygon fill="#191970" stroke="#191970" points="3091.7713,-120.4332 3098.0891,-128.9382 3098.4541,-118.3497 3091.7713,-120.4332"/>
</g>
<!-- Node334&#45;&gt;Node325 -->
<g id="edge104" class="edge">
<title>Node334&#45;&gt;Node325</title>
<path fill="none" stroke="#191970" d="M3187.1221,-248.5857C3180.3539,-237.632 3172.0389,-224.1748 3166.5212,-215.2449"/>
<polygon fill="#191970" stroke="#191970" points="3184.3286,-250.7233 3192.5625,-257.3906 3190.2835,-247.0438 3184.3286,-250.7233"/>
</g>
</g>
</svg>
