<?xml version="1.0" encoding="UTF-8" standalone="no"?>
<!DOCTYPE svg PUBLIC "-//W3C//DTD SVG 1.1//EN"
 "http://www.w3.org/Graphics/SVG/1.1/DTD/svg11.dtd">
<!-- Generated by graphviz version 2.40.1 (20161225.0304)
 -->
<!-- Title: sitkObjectOwnedBase.h Pages: 1 -->
<svg width="268pt" height="196pt"
 viewBox="0.00 0.00 267.50 196.00" xmlns="http://www.w3.org/2000/svg" xmlns:xlink="http://www.w3.org/1999/xlink">
<g id="graph0" class="graph" transform="scale(1 1) rotate(0) translate(4 192)">
<title>sitkObjectOwnedBase.h</title>
<polygon fill="#ffffff" stroke="transparent" points="-4,4 -4,-192 263.5,-192 263.5,4 -4,4"/>
<!-- Node1 -->
<g id="node1" class="node">
<title>Node1</title>
<g id="a_node1"><a xlink:title=" ">
<polygon fill="#bfbfbf" stroke="#000000" points="0,-168.5 0,-187.5 133,-187.5 133,-168.5 0,-168.5"/>
<text text-anchor="middle" x="66.5" y="-175.5" font-family="Helvetica,sans-Serif" font-size="10.00" fill="#000000">sitkObjectOwnedBase.h</text>
</a>
</g>
</g>
<!-- Node2 -->
<g id="node2" class="node">
<title>Node2</title>
<g id="a_node2"><a xlink:href="SimpleITK_8h.html" target="_top" xlink:title=" ">
<polygon fill="#ffffff" stroke="#000000" points="13,-.5 13,-19.5 88,-19.5 88,-.5 13,-.5"/>
<text text-anchor="middle" x="50.5" y="-7.5" font-family="Helvetica,sans-Serif" font-size="10.00" fill="#000000">SimpleITK.h</text>
</a>
</g>
</g>
<!-- Node1&#45;&gt;Node2 -->
<g id="edge1" class="edge">
<title>Node1&#45;&gt;Node2</title>
<path fill="none" stroke="#191970" d="M39.0074,-162.8126C28.0032,-155.1458 16.5246,-144.7453 10.5,-132 4.0497,-118.354 7.2827,-79.6505 16.5,-56 21.9813,-41.9356 32.9399,-28.3558 40.9391,-19.6435"/>
<polygon fill="#191970" stroke="#191970" points="37.3172,-165.8873 47.6176,-168.3676 41.1121,-160.0052 37.3172,-165.8873"/>
</g>
<!-- Node3 -->
<g id="node3" class="node">
<title>Node3</title>
<g id="a_node3"><a xlink:href="sitkCommand_8h.html" target="_top" xlink:title=" ">
<polygon fill="#ffffff" stroke="#000000" points="19.5,-112.5 19.5,-131.5 113.5,-131.5 113.5,-112.5 19.5,-112.5"/>
<text text-anchor="middle" x="66.5" y="-119.5" font-family="Helvetica,sans-Serif" font-size="10.00" fill="#000000">sitkCommand.h</text>
</a>
</g>
</g>
<!-- Node1&#45;&gt;Node3 -->
<g id="edge2" class="edge">
<title>Node1&#45;&gt;Node3</title>
<path fill="none" stroke="#191970" d="M66.5,-158.1575C66.5,-149.155 66.5,-138.9199 66.5,-131.6427"/>
<polygon fill="#191970" stroke="#191970" points="63.0001,-158.2455 66.5,-168.2455 70.0001,-158.2456 63.0001,-158.2455"/>
</g>
<!-- Node5 -->
<g id="node5" class="node">
<title>Node5</title>
<g id="a_node5"><a xlink:href="sitkLogger_8h.html" target="_top" xlink:title=" ">
<polygon fill="#ffffff" stroke="#000000" points="183.5,-56.5 183.5,-75.5 259.5,-75.5 259.5,-56.5 183.5,-56.5"/>
<text text-anchor="middle" x="221.5" y="-63.5" font-family="Helvetica,sans-Serif" font-size="10.00" fill="#000000">sitkLogger.h</text>
</a>
</g>
</g>
<!-- Node1&#45;&gt;Node5 -->
<g id="edge6" class="edge">
<title>Node1&#45;&gt;Node5</title>
<path fill="none" stroke="#191970" d="M88.1167,-162.3802C120.7403,-138.807 181.5794,-94.8459 208.3182,-75.5249"/>
<polygon fill="#191970" stroke="#191970" points="85.7707,-159.7572 79.7152,-168.4509 89.8705,-165.431 85.7707,-159.7572"/>
</g>
<!-- Node3&#45;&gt;Node2 -->
<g id="edge3" class="edge">
<title>Node3&#45;&gt;Node2</title>
<path fill="none" stroke="#191970" d="M45.0762,-105.8901C36.3188,-97.9676 27.1633,-87.6218 22.5,-76 14.4348,-55.9002 30.2686,-32.6332 41.2395,-19.79"/>
<polygon fill="#191970" stroke="#191970" points="42.9632,-108.6864 52.8664,-112.4516 47.4727,-103.3325 42.9632,-108.6864"/>
</g>
<!-- Node4 -->
<g id="node4" class="node">
<title>Node4</title>
<g id="a_node4"><a xlink:href="sitkFunctionCommand_8h.html" target="_top" xlink:title=" ">
<polygon fill="#ffffff" stroke="#000000" points="31.5,-56.5 31.5,-75.5 165.5,-75.5 165.5,-56.5 31.5,-56.5"/>
<text text-anchor="middle" x="98.5" y="-63.5" font-family="Helvetica,sans-Serif" font-size="10.00" fill="#000000">sitkFunctionCommand.h</text>
</a>
</g>
</g>
<!-- Node3&#45;&gt;Node4 -->
<g id="edge4" class="edge">
<title>Node3&#45;&gt;Node4</title>
<path fill="none" stroke="#191970" d="M77.1645,-103.3372C82.4654,-94.0605 88.6487,-83.2398 92.9899,-75.6427"/>
<polygon fill="#191970" stroke="#191970" points="73.9966,-101.8266 72.074,-112.2455 80.0743,-105.2996 73.9966,-101.8266"/>
</g>
<!-- Node4&#45;&gt;Node2 -->
<g id="edge5" class="edge">
<title>Node4&#45;&gt;Node2</title>
<path fill="none" stroke="#191970" d="M83.5003,-48.5004C75.3378,-38.9775 65.5511,-27.5596 58.7651,-19.6427"/>
<polygon fill="#191970" stroke="#191970" points="80.9737,-50.9307 90.139,-56.2455 86.2885,-46.3752 80.9737,-50.9307"/>
</g>
<!-- Node5&#45;&gt;Node2 -->
<g id="edge7" class="edge">
<title>Node5&#45;&gt;Node2</title>
<path fill="none" stroke="#191970" d="M182.3852,-53.1905C151.0568,-42.9309 107.8129,-28.7691 79.5124,-19.5011"/>
<polygon fill="#191970" stroke="#191970" points="181.5114,-56.5872 192.1041,-56.3733 183.69,-49.9348 181.5114,-56.5872"/>
</g>
</g>
</svg>
