<?xml version="1.0" encoding="UTF-8" standalone="no"?>
<!DOCTYPE svg PUBLIC "-//W3C//DTD SVG 1.1//EN"
 "http://www.w3.org/Graphics/SVG/1.1/DTD/svg11.dtd">
<!-- Generated by graphviz version 2.43.0 (0)
 -->
<!-- Title: sitkTransformixImageFilter.h Pages: 1 -->
<svg width="1599pt" height="423pt"
 viewBox="0.00 0.00 1599.16 423.00" xmlns="http://www.w3.org/2000/svg" xmlns:xlink="http://www.w3.org/1999/xlink">
<g id="graph0" class="graph" transform="scale(1 1) rotate(0) translate(4 419)">
<title>sitkTransformixImageFilter.h</title>
<!-- Node1 -->
<g id="Node000001" class="node">
<title>Node1</title>
<g id="a_Node000001"><a xlink:title=" ">
<polygon fill="#999999" stroke="#666666" points="705.5,-415 549.5,-415 549.5,-396 705.5,-396 705.5,-415"/>
<text text-anchor="middle" x="627.5" y="-403" font-family="Helvetica,sans-Serif" font-size="10.00">sitkTransformixImageFilter.h</text>
</a>
</g>
</g>
<!-- Node2 -->
<g id="Node000002" class="node">
<title>Node2</title>
<g id="a_Node000002"><a xlink:href="sitkElastixTransformixWrappers_8h.html" target="_top" xlink:title=" ">
<polygon fill="white" stroke="#666666" points="181,-360 0,-360 0,-341 181,-341 181,-360"/>
<text text-anchor="middle" x="90.5" y="-348" font-family="Helvetica,sans-Serif" font-size="10.00">sitkElastixTransformixWrappers.h</text>
</a>
</g>
</g>
<!-- Node1&#45;&gt;Node2 -->
<g id="edge1_Node000001_Node000002" class="edge">
<title>Node1&#45;&gt;Node2</title>
<g id="a_edge1_Node000001_Node000002"><a xlink:title=" ">
<path fill="none" stroke="#63b8ff" d="M549.42,-396.79C453.42,-387.32 290.52,-371.24 186.84,-361.01"/>
<polygon fill="#63b8ff" stroke="#63b8ff" points="186.98,-357.51 176.68,-360.01 186.29,-364.47 186.98,-357.51"/>
</a>
</g>
</g>
<!-- Node10 -->
<g id="Node000010" class="node">
<title>Node10</title>
<g id="a_Node000010"><a xlink:href="sitkCommon_8h.html" target="_top" xlink:title=" ">
<polygon fill="white" stroke="#666666" points="547.5,-129 459.5,-129 459.5,-110 547.5,-110 547.5,-129"/>
<text text-anchor="middle" x="503.5" y="-117" font-family="Helvetica,sans-Serif" font-size="10.00">sitkCommon.h</text>
</a>
</g>
</g>
<!-- Node1&#45;&gt;Node10 -->
<g id="edge9_Node000001_Node000010" class="edge">
<title>Node1&#45;&gt;Node10</title>
<g id="a_edge9_Node000001_Node000010"><a xlink:title=" ">
<path fill="none" stroke="#63b8ff" d="M549.17,-396.03C437.77,-378.96 241.41,-328.69 190.5,-184 187.7,-176.03 184.97,-171.38 190.5,-165 223.29,-127.21 368.13,-120.68 448.78,-120.05"/>
<polygon fill="#63b8ff" stroke="#63b8ff" points="449.26,-123.54 459.24,-119.99 449.23,-116.54 449.26,-123.54"/>
</a>
</g>
</g>
<!-- Node11 -->
<g id="Node000011" class="node">
<title>Node11</title>
<g id="a_Node000011"><a xlink:href="sitkImage_8h.html" target="_top" xlink:title=" ">
<polygon fill="white" stroke="#666666" points="756.5,-360 682.5,-360 682.5,-341 756.5,-341 756.5,-360"/>
<text text-anchor="middle" x="719.5" y="-348" font-family="Helvetica,sans-Serif" font-size="10.00">sitkImage.h</text>
</a>
</g>
</g>
<!-- Node1&#45;&gt;Node11 -->
<g id="edge11_Node000001_Node000011" class="edge">
<title>Node1&#45;&gt;Node11</title>
<g id="a_edge11_Node000001_Node000011"><a xlink:title=" ">
<path fill="none" stroke="#63b8ff" d="M642.28,-395.98C656.68,-387.69 678.81,-374.94 695.69,-365.22"/>
<polygon fill="#63b8ff" stroke="#63b8ff" points="697.53,-368.19 704.45,-360.17 694.04,-362.13 697.53,-368.19"/>
</a>
</g>
</g>
<!-- Node14 -->
<g id="Node000014" class="node">
<title>Node14</title>
<g id="a_Node000014"><a xlink:title=" ">
<polygon fill="#e0e0e0" stroke="#999999" points="257.5,-184 199.5,-184 199.5,-165 257.5,-165 257.5,-184"/>
<text text-anchor="middle" x="228.5" y="-172" font-family="Helvetica,sans-Serif" font-size="10.00">memory</text>
</a>
</g>
</g>
<!-- Node1&#45;&gt;Node14 -->
<g id="edge57_Node000001_Node000014" class="edge">
<title>Node1&#45;&gt;Node14</title>
<g id="a_edge57_Node000001_Node000014"><a xlink:title=" ">
<path fill="none" stroke="#63b8ff" d="M549.3,-396.45C460.03,-382.77 316.88,-346.31 243.5,-250 231.4,-234.12 228.37,-211 227.9,-194.73"/>
<polygon fill="#63b8ff" stroke="#63b8ff" points="231.41,-194.31 227.93,-184.3 224.41,-194.29 231.41,-194.31"/>
</a>
</g>
</g>
<!-- Node15 -->
<g id="Node000015" class="node">
<title>Node15</title>
<g id="a_Node000015"><a xlink:title=" ">
<polygon fill="#e0e0e0" stroke="#999999" points="651,-244.5 604,-244.5 604,-225.5 651,-225.5 651,-244.5"/>
<text text-anchor="middle" x="627.5" y="-232.5" font-family="Helvetica,sans-Serif" font-size="10.00">vector</text>
</a>
</g>
</g>
<!-- Node1&#45;&gt;Node15 -->
<g id="edge59_Node000001_Node000015" class="edge">
<title>Node1&#45;&gt;Node15</title>
<g id="a_edge59_Node000001_Node000015"><a xlink:title=" ">
<path fill="none" stroke="#63b8ff" d="M627.5,-395.91C627.5,-369.89 627.5,-291.47 627.5,-255.01"/>
<polygon fill="#63b8ff" stroke="#63b8ff" points="631,-254.77 627.5,-244.77 624,-254.77 631,-254.77"/>
</a>
</g>
</g>
<!-- Node31 -->
<g id="Node000031" class="node">
<title>Node31</title>
<g id="a_Node000031"><a xlink:title=" ">
<polygon fill="#e0e0e0" stroke="#999999" points="1290.5,-184 1246.5,-184 1246.5,-165 1290.5,-165 1290.5,-184"/>
<text text-anchor="middle" x="1268.5" y="-172" font-family="Helvetica,sans-Serif" font-size="10.00">string</text>
</a>
</g>
</g>
<!-- Node1&#45;&gt;Node31 -->
<g id="edge58_Node000001_Node000031" class="edge">
<title>Node1&#45;&gt;Node31</title>
<g id="a_edge58_Node000001_Node000031"><a xlink:title=" ">
<path fill="none" stroke="#63b8ff" d="M705.59,-397.2C836.57,-383.8 1093.74,-352.28 1170.5,-305 1214.97,-277.61 1246.4,-222.05 1260.37,-193.43"/>
<polygon fill="#63b8ff" stroke="#63b8ff" points="1263.62,-194.74 1264.72,-184.21 1257.29,-191.76 1263.62,-194.74"/>
</a>
</g>
</g>
<!-- Node34 -->
<g id="Node000034" class="node">
<title>Node34</title>
<g id="a_Node000034"><a xlink:title=" ">
<polygon fill="#e0e0e0" stroke="#999999" points="1481.5,-360 1443.5,-360 1443.5,-341 1481.5,-341 1481.5,-360"/>
<text text-anchor="middle" x="1462.5" y="-348" font-family="Helvetica,sans-Serif" font-size="10.00">map</text>
</a>
</g>
</g>
<!-- Node1&#45;&gt;Node34 -->
<g id="edge56_Node000001_Node000034" class="edge">
<title>Node1&#45;&gt;Node34</title>
<g id="a_edge56_Node000001_Node000034"><a xlink:title=" ">
<path fill="none" stroke="#63b8ff" d="M705.73,-405.24C849.82,-405.48 1166.46,-400.77 1429.5,-360 1430.78,-359.8 1432.09,-359.57 1433.4,-359.32"/>
<polygon fill="#63b8ff" stroke="#63b8ff" points="1434.44,-362.68 1443.44,-357.09 1432.92,-355.85 1434.44,-362.68"/>
</a>
</g>
</g>
<!-- Node3 -->
<g id="Node000003" class="node">
<title>Node3</title>
<g id="a_Node000003"><a xlink:href="sitkMacro_8h.html" target="_top" xlink:title=" ">
<polygon fill="white" stroke="#666666" points="540.5,-74 466.5,-74 466.5,-55 540.5,-55 540.5,-74"/>
<text text-anchor="middle" x="503.5" y="-62" font-family="Helvetica,sans-Serif" font-size="10.00">sitkMacro.h</text>
</a>
</g>
</g>
<!-- Node2&#45;&gt;Node3 -->
<g id="edge2_Node000002_Node000003" class="edge">
<title>Node2&#45;&gt;Node3</title>
<g id="a_edge2_Node000002_Node000003"><a xlink:title=" ">
<path fill="none" stroke="#63b8ff" d="M93.38,-340.78C99.34,-321.9 112.5,-275.74 112.5,-236 112.5,-236 112.5,-236 112.5,-173.5 112.5,-102.95 352.03,-76.67 456.13,-68.59"/>
<polygon fill="#63b8ff" stroke="#63b8ff" points="456.65,-72.06 466.36,-67.82 456.13,-65.08 456.65,-72.06"/>
</a>
</g>
</g>
<!-- Node4 -->
<g id="Node000004" class="node">
<title>Node4</title>
<g id="a_Node000004"><a xlink:title=" ">
<polygon fill="#e0e0e0" stroke="#999999" points="769,-19 716,-19 716,0 769,0 769,-19"/>
<text text-anchor="middle" x="742.5" y="-7" font-family="Helvetica,sans-Serif" font-size="10.00">stdint.h</text>
</a>
</g>
</g>
<!-- Node3&#45;&gt;Node4 -->
<g id="edge3_Node000003_Node000004" class="edge">
<title>Node3&#45;&gt;Node4</title>
<g id="a_edge3_Node000003_Node000004"><a xlink:title=" ">
<path fill="none" stroke="#63b8ff" d="M540.58,-55.28C585.59,-45.3 661.01,-28.57 705.83,-18.63"/>
<polygon fill="#63b8ff" stroke="#63b8ff" points="706.71,-22.02 715.72,-16.44 705.19,-15.19 706.71,-22.02"/>
</a>
</g>
</g>
<!-- Node5 -->
<g id="Node000005" class="node">
<title>Node5</title>
<g id="a_Node000005"><a xlink:title=" ">
<polygon fill="#e0e0e0" stroke="#999999" points="565.5,-19 509.5,-19 509.5,0 565.5,0 565.5,-19"/>
<text text-anchor="middle" x="537.5" y="-7" font-family="Helvetica,sans-Serif" font-size="10.00">stddef.h</text>
</a>
</g>
</g>
<!-- Node3&#45;&gt;Node5 -->
<g id="edge4_Node000003_Node000005" class="edge">
<title>Node3&#45;&gt;Node5</title>
<g id="a_edge4_Node000003_Node000005"><a xlink:title=" ">
<path fill="none" stroke="#63b8ff" d="M509.11,-54.75C513.82,-47.42 520.67,-36.73 526.47,-27.7"/>
<polygon fill="#63b8ff" stroke="#63b8ff" points="529.54,-29.4 531.99,-19.09 523.64,-25.62 529.54,-29.4"/>
</a>
</g>
</g>
<!-- Node6 -->
<g id="Node000006" class="node">
<title>Node6</title>
<g id="a_Node000006"><a xlink:title=" ">
<polygon fill="#e0e0e0" stroke="#999999" points="635.5,-19 583.5,-19 583.5,0 635.5,0 635.5,-19"/>
<text text-anchor="middle" x="609.5" y="-7" font-family="Helvetica,sans-Serif" font-size="10.00">cassert</text>
</a>
</g>
</g>
<!-- Node3&#45;&gt;Node6 -->
<g id="edge5_Node000003_Node000006" class="edge">
<title>Node3&#45;&gt;Node6</title>
<g id="a_edge5_Node000003_Node000006"><a xlink:title=" ">
<path fill="none" stroke="#63b8ff" d="M520.53,-54.98C537.43,-46.54 563.56,-33.47 583.14,-23.68"/>
<polygon fill="#63b8ff" stroke="#63b8ff" points="584.78,-26.77 592.16,-19.17 581.65,-20.51 584.78,-26.77"/>
</a>
</g>
</g>
<!-- Node7 -->
<g id="Node000007" class="node">
<title>Node7</title>
<g id="a_Node000007"><a xlink:title=" ">
<polygon fill="#e0e0e0" stroke="#999999" points="429.5,-19 373.5,-19 373.5,0 429.5,0 429.5,-19"/>
<text text-anchor="middle" x="401.5" y="-7" font-family="Helvetica,sans-Serif" font-size="10.00">sstream</text>
</a>
</g>
</g>
<!-- Node3&#45;&gt;Node7 -->
<g id="edge6_Node000003_Node000007" class="edge">
<title>Node3&#45;&gt;Node7</title>
<g id="a_edge6_Node000003_Node000007"><a xlink:title=" ">
<path fill="none" stroke="#63b8ff" d="M487.11,-54.98C470.93,-46.57 445.93,-33.59 427.12,-23.81"/>
<polygon fill="#63b8ff" stroke="#63b8ff" points="428.67,-20.68 418.19,-19.17 425.45,-26.89 428.67,-20.68"/>
</a>
</g>
</g>
<!-- Node8 -->
<g id="Node000008" class="node">
<title>Node8</title>
<g id="a_Node000008"><a xlink:title=" ">
<polygon fill="#e0e0e0" stroke="#999999" points="491.5,-19 447.5,-19 447.5,0 491.5,0 491.5,-19"/>
<text text-anchor="middle" x="469.5" y="-7" font-family="Helvetica,sans-Serif" font-size="10.00">limits</text>
</a>
</g>
</g>
<!-- Node3&#45;&gt;Node8 -->
<g id="edge7_Node000003_Node000008" class="edge">
<title>Node3&#45;&gt;Node8</title>
<g id="a_edge7_Node000003_Node000008"><a xlink:title=" ">
<path fill="none" stroke="#63b8ff" d="M497.89,-54.75C493.18,-47.42 486.33,-36.73 480.53,-27.7"/>
<polygon fill="#63b8ff" stroke="#63b8ff" points="483.36,-25.62 475.01,-19.09 477.46,-29.4 483.36,-25.62"/>
</a>
</g>
</g>
<!-- Node9 -->
<g id="Node000009" class="node">
<title>Node9</title>
<g id="a_Node000009"><a xlink:href="sitkConfigure_8h.html" target="_top" xlink:title=" ">
<polygon fill="white" stroke="#666666" points="1114.5,-19 1024.5,-19 1024.5,0 1114.5,0 1114.5,-19"/>
<text text-anchor="middle" x="1069.5" y="-7" font-family="Helvetica,sans-Serif" font-size="10.00">sitkConfigure.h</text>
</a>
</g>
</g>
<!-- Node3&#45;&gt;Node9 -->
<g id="edge8_Node000003_Node000009" class="edge">
<title>Node3&#45;&gt;Node9</title>
<g id="a_edge8_Node000003_Node000009"><a xlink:title=" ">
<path fill="none" stroke="#63b8ff" d="M540.64,-60.02C637.68,-50.94 899.27,-26.44 1014.13,-15.68"/>
<polygon fill="#63b8ff" stroke="#63b8ff" points="1014.49,-19.17 1024.12,-14.75 1013.84,-12.2 1014.49,-19.17"/>
</a>
</g>
</g>
<!-- Node10&#45;&gt;Node3 -->
<g id="edge10_Node000010_Node000003" class="edge">
<title>Node10&#45;&gt;Node3</title>
<g id="a_edge10_Node000010_Node000003"><a xlink:title=" ">
<path fill="none" stroke="#63b8ff" d="M503.5,-109.75C503.5,-102.8 503.5,-92.85 503.5,-84.13"/>
<polygon fill="#63b8ff" stroke="#63b8ff" points="507,-84.09 503.5,-74.09 500,-84.09 507,-84.09"/>
</a>
</g>
</g>
<!-- Node11&#45;&gt;Node10 -->
<g id="edge12_Node000011_Node000010" class="edge">
<title>Node11&#45;&gt;Node10</title>
<g id="a_edge12_Node000011_Node000010"><a xlink:title=" ">
<path fill="none" stroke="#63b8ff" d="M729.31,-340.87C753.12,-318.92 809.76,-259.85 778.5,-220 736.98,-167.08 694.09,-208.63 631.5,-184 615.39,-177.66 612.89,-172.93 597.5,-165 575.77,-153.8 550.73,-142 531.96,-133.37"/>
<polygon fill="#63b8ff" stroke="#63b8ff" points="533.32,-130.14 522.77,-129.16 530.41,-136.5 533.32,-130.14"/>
</a>
</g>
</g>
<!-- Node12 -->
<g id="Node000012" class="node">
<title>Node12</title>
<g id="a_Node000012"><a xlink:href="sitkTemplateFunctions_8h.html" target="_top" xlink:title=" ">
<polygon fill="white" stroke="#666666" points="588,-305 453,-305 453,-286 588,-286 588,-305"/>
<text text-anchor="middle" x="520.5" y="-293" font-family="Helvetica,sans-Serif" font-size="10.00">sitkTemplateFunctions.h</text>
</a>
</g>
</g>
<!-- Node11&#45;&gt;Node12 -->
<g id="edge13_Node000011_Node000012" class="edge">
<title>Node11&#45;&gt;Node12</title>
<g id="a_edge13_Node000011_Node000012"><a xlink:title=" ">
<path fill="none" stroke="#63b8ff" d="M687.53,-340.98C653.68,-331.97 600.1,-317.7 562.79,-307.76"/>
<polygon fill="#63b8ff" stroke="#63b8ff" points="563.29,-304.27 552.72,-305.08 561.49,-311.04 563.29,-304.27"/>
</a>
</g>
</g>
<!-- Node11&#45;&gt;Node14 -->
<g id="edge54_Node000011_Node000014" class="edge">
<title>Node11&#45;&gt;Node14</title>
<g id="a_edge54_Node000011_Node000014"><a xlink:title=" ">
<path fill="none" stroke="#63b8ff" d="M682.22,-345.49C586.55,-334.55 335.39,-301.5 271.5,-250 253.38,-235.39 241.38,-210.96 234.77,-194.08"/>
<polygon fill="#63b8ff" stroke="#63b8ff" points="237.91,-192.45 231.2,-184.25 231.33,-194.85 237.91,-192.45"/>
</a>
</g>
</g>
<!-- Node11&#45;&gt;Node15 -->
<g id="edge53_Node000011_Node000015" class="edge">
<title>Node11&#45;&gt;Node15</title>
<g id="a_edge53_Node000011_Node000015"><a xlink:title=" ">
<path fill="none" stroke="#63b8ff" d="M712.59,-340.97C697.4,-322.24 660.91,-277.22 641.01,-252.66"/>
<polygon fill="#63b8ff" stroke="#63b8ff" points="643.51,-250.19 634.5,-244.63 638.07,-254.6 643.51,-250.19"/>
</a>
</g>
</g>
<!-- Node18 -->
<g id="Node000018" class="node">
<title>Node18</title>
<g id="a_Node000018"><a xlink:href="sitkDetail_8h.html" target="_top" xlink:title=" ">
<polygon fill="white" stroke="#666666" points="1161,-305 1088,-305 1088,-286 1161,-286 1161,-305"/>
<text text-anchor="middle" x="1124.5" y="-293" font-family="Helvetica,sans-Serif" font-size="10.00">sitkDetail.h</text>
</a>
</g>
</g>
<!-- Node11&#45;&gt;Node18 -->
<g id="edge23_Node000011_Node000018" class="edge">
<title>Node11&#45;&gt;Node18</title>
<g id="a_edge23_Node000011_Node000018"><a xlink:title=" ">
<path fill="none" stroke="#63b8ff" d="M756.51,-344.66C830.48,-334.98 996.42,-313.26 1077.76,-302.62"/>
<polygon fill="#63b8ff" stroke="#63b8ff" points="1078.26,-306.08 1087.72,-301.31 1077.35,-299.14 1078.26,-306.08"/>
</a>
</g>
</g>
<!-- Node29 -->
<g id="Node000029" class="node">
<title>Node29</title>
<g id="a_Node000029"><a xlink:href="sitkPixelIDTokens_8h.html" target="_top" xlink:title=" ">
<polygon fill="white" stroke="#666666" points="1005.5,-305 895.5,-305 895.5,-286 1005.5,-286 1005.5,-305"/>
<text text-anchor="middle" x="950.5" y="-293" font-family="Helvetica,sans-Serif" font-size="10.00">sitkPixelIDTokens.h</text>
</a>
</g>
</g>
<!-- Node11&#45;&gt;Node29 -->
<g id="edge42_Node000011_Node000029" class="edge">
<title>Node11&#45;&gt;Node29</title>
<g id="a_edge42_Node000011_Node000029"><a xlink:title=" ">
<path fill="none" stroke="#63b8ff" d="M756.61,-340.98C796.49,-331.84 859.96,-317.27 903.34,-307.32"/>
<polygon fill="#63b8ff" stroke="#63b8ff" points="904.13,-310.73 913.09,-305.08 902.57,-303.91 904.13,-310.73"/>
</a>
</g>
</g>
<!-- Node32 -->
<g id="Node000032" class="node">
<title>Node32</title>
<g id="a_Node000032"><a xlink:title=" ">
<polygon fill="#e0e0e0" stroke="#999999" points="895,-244.5 826,-244.5 826,-225.5 895,-225.5 895,-244.5"/>
<text text-anchor="middle" x="860.5" y="-232.5" font-family="Helvetica,sans-Serif" font-size="10.00">type_traits</text>
</a>
</g>
</g>
<!-- Node11&#45;&gt;Node32 -->
<g id="edge55_Node000011_Node000032" class="edge">
<title>Node11&#45;&gt;Node32</title>
<g id="a_edge55_Node000011_Node000032"><a xlink:title=" ">
<path fill="none" stroke="#63b8ff" d="M745.72,-340.87C765.32,-333.51 791.99,-321.5 811.5,-305 828.62,-290.53 842.74,-268.79 851.35,-253.6"/>
<polygon fill="#63b8ff" stroke="#63b8ff" points="854.49,-255.15 856.19,-244.7 848.34,-251.81 854.49,-255.15"/>
</a>
</g>
</g>
<!-- Node33 -->
<g id="Node000033" class="node">
<title>Node33</title>
<g id="a_Node000033"><a xlink:href="sitkInterpolator_8h.html" target="_top" xlink:title=" ">
<polygon fill="white" stroke="#666666" points="769.5,-244.5 669.5,-244.5 669.5,-225.5 769.5,-225.5 769.5,-244.5"/>
<text text-anchor="middle" x="719.5" y="-232.5" font-family="Helvetica,sans-Serif" font-size="10.00">sitkInterpolator.h</text>
</a>
</g>
</g>
<!-- Node11&#45;&gt;Node33 -->
<g id="edge50_Node000011_Node000033" class="edge">
<title>Node11&#45;&gt;Node33</title>
<g id="a_edge50_Node000011_Node000033"><a xlink:title=" ">
<path fill="none" stroke="#63b8ff" d="M719.5,-340.97C719.5,-322.73 719.5,-279.57 719.5,-254.64"/>
<polygon fill="#63b8ff" stroke="#63b8ff" points="723,-254.63 719.5,-244.63 716,-254.63 723,-254.63"/>
</a>
</g>
</g>
<!-- Node12&#45;&gt;Node3 -->
<g id="edge14_Node000012_Node000003" class="edge">
<title>Node12&#45;&gt;Node3</title>
<g id="a_edge14_Node000012_Node000003"><a xlink:title=" ">
<path fill="none" stroke="#63b8ff" d="M453,-289.74C396.78,-284.2 323.03,-272.74 304.5,-250 245.09,-177.1 399.32,-105.71 470.14,-77.8"/>
<polygon fill="#63b8ff" stroke="#63b8ff" points="471.49,-81.03 479.55,-74.15 468.96,-74.5 471.49,-81.03"/>
</a>
</g>
</g>
<!-- Node12&#45;&gt;Node10 -->
<g id="edge15_Node000012_Node000010" class="edge">
<title>Node12&#45;&gt;Node10</title>
<g id="a_edge15_Node000012_Node000010"><a xlink:title=" ">
<path fill="none" stroke="#63b8ff" d="M510.34,-285.81C501.6,-277.6 489.6,-264.43 484.5,-250 471.04,-211.95 485.4,-164.36 495.46,-138.78"/>
<polygon fill="#63b8ff" stroke="#63b8ff" points="498.81,-139.84 499.42,-129.26 492.35,-137.15 498.81,-139.84"/>
</a>
</g>
</g>
<!-- Node13 -->
<g id="Node000013" class="node">
<title>Node13</title>
<g id="a_Node000013"><a xlink:href="sitkExceptionObject_8h.html" target="_top" xlink:title=" ">
<polygon fill="white" stroke="#666666" points="437,-244.5 314,-244.5 314,-225.5 437,-225.5 437,-244.5"/>
<text text-anchor="middle" x="375.5" y="-232.5" font-family="Helvetica,sans-Serif" font-size="10.00">sitkExceptionObject.h</text>
</a>
</g>
</g>
<!-- Node12&#45;&gt;Node13 -->
<g id="edge16_Node000012_Node000013" class="edge">
<title>Node12&#45;&gt;Node13</title>
<g id="a_edge16_Node000012_Node000013"><a xlink:title=" ">
<path fill="none" stroke="#63b8ff" d="M499.42,-285.99C474.82,-276.07 433.97,-259.59 405.94,-248.28"/>
<polygon fill="#63b8ff" stroke="#63b8ff" points="407.19,-245.01 396.61,-244.52 404.57,-251.5 407.19,-245.01"/>
</a>
</g>
</g>
<!-- Node12&#45;&gt;Node15 -->
<g id="edge20_Node000012_Node000015" class="edge">
<title>Node12&#45;&gt;Node15</title>
<g id="a_edge20_Node000012_Node000015"><a xlink:title=" ">
<path fill="none" stroke="#63b8ff" d="M536.29,-285.87C553.83,-276.28 582.38,-260.67 602.87,-249.47"/>
<polygon fill="#63b8ff" stroke="#63b8ff" points="604.55,-252.54 611.65,-244.67 601.19,-246.39 604.55,-252.54"/>
</a>
</g>
</g>
<!-- Node16 -->
<g id="Node000016" class="node">
<title>Node16</title>
<g id="a_Node000016"><a xlink:title=" ">
<polygon fill="#e0e0e0" stroke="#999999" points="589,-184 532,-184 532,-165 589,-165 589,-184"/>
<text text-anchor="middle" x="560.5" y="-172" font-family="Helvetica,sans-Serif" font-size="10.00">ostream</text>
</a>
</g>
</g>
<!-- Node12&#45;&gt;Node16 -->
<g id="edge21_Node000012_Node000016" class="edge">
<title>Node12&#45;&gt;Node16</title>
<g id="a_edge21_Node000012_Node000016"><a xlink:title=" ">
<path fill="none" stroke="#63b8ff" d="M529.83,-285.99C538.21,-277.71 550,-264.31 555.5,-250 562.39,-232.06 562.98,-209.92 562.25,-194.46"/>
<polygon fill="#63b8ff" stroke="#63b8ff" points="565.72,-193.84 561.52,-184.12 558.73,-194.34 565.72,-193.84"/>
</a>
</g>
</g>
<!-- Node17 -->
<g id="Node000017" class="node">
<title>Node17</title>
<g id="a_Node000017"><a xlink:title=" ">
<polygon fill="#e0e0e0" stroke="#999999" points="547,-244.5 494,-244.5 494,-225.5 547,-225.5 547,-244.5"/>
<text text-anchor="middle" x="520.5" y="-232.5" font-family="Helvetica,sans-Serif" font-size="10.00">iterator</text>
</a>
</g>
</g>
<!-- Node12&#45;&gt;Node17 -->
<g id="edge22_Node000012_Node000017" class="edge">
<title>Node12&#45;&gt;Node17</title>
<g id="a_edge22_Node000012_Node000017"><a xlink:title=" ">
<path fill="none" stroke="#63b8ff" d="M520.5,-285.87C520.5,-277.75 520.5,-265.31 520.5,-254.89"/>
<polygon fill="#63b8ff" stroke="#63b8ff" points="524,-254.67 520.5,-244.67 517,-254.67 524,-254.67"/>
</a>
</g>
</g>
<!-- Node13&#45;&gt;Node3 -->
<g id="edge17_Node000013_Node000003" class="edge">
<title>Node13&#45;&gt;Node3</title>
<g id="a_edge17_Node000013_Node000003"><a xlink:title=" ">
<path fill="none" stroke="#63b8ff" d="M379.54,-225.24C389.58,-204.03 417.28,-148.79 450.5,-110 460.02,-98.88 472.49,-88.26 482.94,-80.19"/>
<polygon fill="#63b8ff" stroke="#63b8ff" points="485.23,-82.85 491.14,-74.05 481.04,-77.24 485.23,-82.85"/>
</a>
</g>
</g>
<!-- Node13&#45;&gt;Node10 -->
<g id="edge18_Node000013_Node000010" class="edge">
<title>Node13&#45;&gt;Node10</title>
<g id="a_edge18_Node000013_Node000010"><a xlink:title=" ">
<path fill="none" stroke="#63b8ff" d="M384.78,-225.41C399.02,-212.27 427.17,-186.45 451.5,-165 462.64,-155.18 475.3,-144.34 485.34,-135.82"/>
<polygon fill="#63b8ff" stroke="#63b8ff" points="487.69,-138.41 493.06,-129.28 483.17,-133.07 487.69,-138.41"/>
</a>
</g>
</g>
<!-- Node13&#45;&gt;Node14 -->
<g id="edge19_Node000013_Node000014" class="edge">
<title>Node13&#45;&gt;Node14</title>
<g id="a_edge19_Node000013_Node000014"><a xlink:title=" ">
<path fill="none" stroke="#63b8ff" d="M354.12,-225.49C329.19,-215.57 287.78,-199.09 259.36,-187.78"/>
<polygon fill="#63b8ff" stroke="#63b8ff" points="260.49,-184.46 249.9,-184.02 257.9,-190.97 260.49,-184.46"/>
</a>
</g>
</g>
<!-- Node19 -->
<g id="Node000019" class="node">
<title>Node19</title>
<g id="a_Node000019"><a xlink:href="sitkMemberFunctionFactoryBase_8h.html" target="_top" xlink:title=" ">
<polygon fill="white" stroke="#666666" points="1200.5,-250 1048.5,-250 1048.5,-220 1200.5,-220 1200.5,-250"/>
<text text-anchor="start" x="1056.5" y="-238" font-family="Helvetica,sans-Serif" font-size="10.00">sitkMemberFunctionFactory</text>
<text text-anchor="middle" x="1124.5" y="-227" font-family="Helvetica,sans-Serif" font-size="10.00">Base.h</text>
</a>
</g>
</g>
<!-- Node18&#45;&gt;Node19 -->
<g id="edge24_Node000018_Node000019" class="edge">
<title>Node18&#45;&gt;Node19</title>
<g id="a_edge24_Node000018_Node000019"><a xlink:title=" ">
<path fill="none" stroke="#63b8ff" d="M1124.5,-285.87C1124.5,-279.11 1124.5,-269.35 1124.5,-260.26"/>
<polygon fill="#63b8ff" stroke="#63b8ff" points="1128,-260.11 1124.5,-250.11 1121,-260.11 1128,-260.11"/>
</a>
</g>
</g>
<!-- Node25 -->
<g id="Node000025" class="node">
<title>Node25</title>
<g id="a_Node000025"><a xlink:title=" ">
<polygon fill="#e0e0e0" stroke="#999999" points="1559,-184 1420,-184 1420,-165 1559,-165 1559,-184"/>
<text text-anchor="middle" x="1489.5" y="-172" font-family="Helvetica,sans-Serif" font-size="10.00">Ancillary/FunctionTraits.h</text>
</a>
</g>
</g>
<!-- Node18&#45;&gt;Node25 -->
<g id="edge41_Node000018_Node000025" class="edge">
<title>Node18&#45;&gt;Node25</title>
<g id="a_edge41_Node000018_Node000025"><a xlink:title=" ">
<path fill="none" stroke="#63b8ff" d="M1150.75,-285.94C1214.91,-265.02 1379.81,-211.26 1453.26,-187.32"/>
<polygon fill="#63b8ff" stroke="#63b8ff" points="1454.57,-190.57 1463,-184.14 1452.41,-183.91 1454.57,-190.57"/>
</a>
</g>
</g>
<!-- Node19&#45;&gt;Node3 -->
<g id="edge33_Node000019_Node000003" class="edge">
<title>Node19&#45;&gt;Node3</title>
<g id="a_edge33_Node000019_Node000003"><a xlink:title=" ">
<path fill="none" stroke="#63b8ff" d="M1048.39,-221.72C971.09,-209.07 860.02,-190.34 840.5,-184 822.16,-178.05 819.35,-172.29 801.5,-165 711,-128.03 601.14,-94.05 543.4,-77"/>
<polygon fill="#63b8ff" stroke="#63b8ff" points="544.16,-73.58 533.58,-74.12 542.19,-80.29 544.16,-73.58"/>
</a>
</g>
</g>
<!-- Node19&#45;&gt;Node9 -->
<g id="edge25_Node000019_Node000009" class="edge">
<title>Node19&#45;&gt;Node9</title>
<g id="a_edge25_Node000019_Node000009"><a xlink:title=" ">
<path fill="none" stroke="#63b8ff" d="M1143.83,-219.94C1172.29,-197.41 1220,-151.51 1199.5,-110 1178.74,-67.97 1130.77,-38.8 1099.26,-23.36"/>
<polygon fill="#63b8ff" stroke="#63b8ff" points="1100.6,-20.12 1090.07,-19.01 1097.61,-26.45 1100.6,-20.12"/>
</a>
</g>
</g>
<!-- Node20 -->
<g id="Node000020" class="node">
<title>Node20</title>
<g id="a_Node000020"><a xlink:href="sitkPixelIDTypes_8h.html" target="_top" xlink:title=" ">
<polygon fill="white" stroke="#666666" points="1053,-129 948,-129 948,-110 1053,-110 1053,-129"/>
<text text-anchor="middle" x="1000.5" y="-117" font-family="Helvetica,sans-Serif" font-size="10.00">sitkPixelIDTypes.h</text>
</a>
</g>
</g>
<!-- Node19&#45;&gt;Node20 -->
<g id="edge26_Node000019_Node000020" class="edge">
<title>Node19&#45;&gt;Node20</title>
<g id="a_edge26_Node000019_Node000020"><a xlink:title=" ">
<path fill="none" stroke="#63b8ff" d="M1074.29,-219.9C1054.79,-212.15 1033.76,-200.63 1019.5,-184 1008.85,-171.58 1004.17,-153.36 1002.11,-139.63"/>
<polygon fill="#63b8ff" stroke="#63b8ff" points="1005.55,-138.9 1000.93,-129.36 998.6,-139.7 1005.55,-138.9"/>
</a>
</g>
</g>
<!-- Node21 -->
<g id="Node000021" class="node">
<title>Node21</title>
<g id="a_Node000021"><a xlink:href="sitkPixelIDTypeLists_8h.html" target="_top" xlink:title=" ">
<polygon fill="white" stroke="#666666" points="971.5,-184 849.5,-184 849.5,-165 971.5,-165 971.5,-184"/>
<text text-anchor="middle" x="910.5" y="-172" font-family="Helvetica,sans-Serif" font-size="10.00">sitkPixelIDTypeLists.h</text>
</a>
</g>
</g>
<!-- Node19&#45;&gt;Node21 -->
<g id="edge27_Node000019_Node000021" class="edge">
<title>Node19&#45;&gt;Node21</title>
<g id="a_edge27_Node000019_Node000021"><a xlink:title=" ">
<path fill="none" stroke="#63b8ff" d="M1073.24,-219.99C1035.99,-209.8 986.23,-196.2 951.58,-186.73"/>
<polygon fill="#63b8ff" stroke="#63b8ff" points="952.36,-183.31 941.79,-184.05 950.51,-190.07 952.36,-183.31"/>
</a>
</g>
</g>
<!-- Node22 -->
<g id="Node000022" class="node">
<title>Node22</title>
<g id="a_Node000022"><a xlink:title=" ">
<polygon fill="#e0e0e0" stroke="#999999" points="1190,-129 1071,-129 1071,-110 1190,-110 1190,-129"/>
<text text-anchor="middle" x="1130.5" y="-117" font-family="Helvetica,sans-Serif" font-size="10.00">Ancillary/type_list2.h</text>
</a>
</g>
</g>
<!-- Node19&#45;&gt;Node22 -->
<g id="edge36_Node000019_Node000022" class="edge">
<title>Node19&#45;&gt;Node22</title>
<g id="a_edge36_Node000019_Node000022"><a xlink:title=" ">
<path fill="none" stroke="#63b8ff" d="M1138.99,-219.7C1147.34,-210.41 1157.04,-197.54 1161.5,-184 1166.99,-167.34 1156.68,-149.48 1146.5,-136.96"/>
<polygon fill="#63b8ff" stroke="#63b8ff" points="1148.91,-134.4 1139.67,-129.22 1143.66,-139.03 1148.91,-134.4"/>
</a>
</g>
</g>
<!-- Node24 -->
<g id="Node000024" class="node">
<title>Node24</title>
<g id="a_Node000024"><a xlink:href="sitkNonCopyable_8h.html" target="_top" xlink:title=" ">
<polygon fill="white" stroke="#666666" points="793,-184 684,-184 684,-165 793,-165 793,-184"/>
<text text-anchor="middle" x="738.5" y="-172" font-family="Helvetica,sans-Serif" font-size="10.00">sitkNonCopyable.h</text>
</a>
</g>
</g>
<!-- Node19&#45;&gt;Node24 -->
<g id="edge34_Node000019_Node000024" class="edge">
<title>Node19&#45;&gt;Node24</title>
<g id="a_edge34_Node000019_Node000024"><a xlink:title=" ">
<path fill="none" stroke="#63b8ff" d="M1048.19,-222.38C1042.88,-221.58 1037.61,-220.78 1032.5,-220 953.62,-208.03 862.82,-194.29 803.25,-185.28"/>
<polygon fill="#63b8ff" stroke="#63b8ff" points="803.64,-181.8 793.23,-183.77 802.59,-188.73 803.64,-181.8"/>
</a>
</g>
</g>
<!-- Node19&#45;&gt;Node25 -->
<g id="edge37_Node000019_Node000025" class="edge">
<title>Node19&#45;&gt;Node25</title>
<g id="a_edge37_Node000019_Node000025"><a xlink:title=" ">
<path fill="none" stroke="#63b8ff" d="M1200.57,-221.81C1267.37,-211.1 1363.4,-195.71 1426.11,-185.66"/>
<polygon fill="#63b8ff" stroke="#63b8ff" points="1426.94,-189.07 1436.26,-184.03 1425.84,-182.16 1426.94,-189.07"/>
</a>
</g>
</g>
<!-- Node26 -->
<g id="Node000026" class="node">
<title>Node26</title>
<g id="a_Node000026"><a xlink:title=" ">
<polygon fill="#e0e0e0" stroke="#999999" points="1402,-184 1309,-184 1309,-165 1402,-165 1402,-184"/>
<text text-anchor="middle" x="1355.5" y="-172" font-family="Helvetica,sans-Serif" font-size="10.00">unordered_map</text>
</a>
</g>
</g>
<!-- Node19&#45;&gt;Node26 -->
<g id="edge38_Node000019_Node000026" class="edge">
<title>Node19&#45;&gt;Node26</title>
<g id="a_edge38_Node000019_Node000026"><a xlink:title=" ">
<path fill="none" stroke="#63b8ff" d="M1179.83,-219.99C1220.21,-209.76 1274.21,-196.09 1311.63,-186.61"/>
<polygon fill="#63b8ff" stroke="#63b8ff" points="1312.89,-189.9 1321.72,-184.05 1311.17,-183.12 1312.89,-189.9"/>
</a>
</g>
</g>
<!-- Node27 -->
<g id="Node000027" class="node">
<title>Node27</title>
<g id="a_Node000027"><a xlink:title=" ">
<polygon fill="#e0e0e0" stroke="#999999" points="1093,-184 1028,-184 1028,-165 1093,-165 1093,-184"/>
<text text-anchor="middle" x="1060.5" y="-172" font-family="Helvetica,sans-Serif" font-size="10.00">functional</text>
</a>
</g>
</g>
<!-- Node19&#45;&gt;Node27 -->
<g id="edge39_Node000019_Node000027" class="edge">
<title>Node19&#45;&gt;Node27</title>
<g id="a_edge39_Node000019_Node000027"><a xlink:title=" ">
<path fill="none" stroke="#63b8ff" d="M1109.01,-219.84C1099.53,-211.17 1087.39,-200.08 1077.62,-191.15"/>
<polygon fill="#63b8ff" stroke="#63b8ff" points="1079.83,-188.43 1070.09,-184.27 1075.11,-193.6 1079.83,-188.43"/>
</a>
</g>
</g>
<!-- Node28 -->
<g id="Node000028" class="node">
<title>Node28</title>
<g id="a_Node000028"><a xlink:title=" ">
<polygon fill="#e0e0e0" stroke="#999999" points="1152,-184 1111,-184 1111,-165 1152,-165 1152,-184"/>
<text text-anchor="middle" x="1131.5" y="-172" font-family="Helvetica,sans-Serif" font-size="10.00">tuple</text>
</a>
</g>
</g>
<!-- Node19&#45;&gt;Node28 -->
<g id="edge40_Node000019_Node000028" class="edge">
<title>Node19&#45;&gt;Node28</title>
<g id="a_edge40_Node000019_Node000028"><a xlink:title=" ">
<path fill="none" stroke="#63b8ff" d="M1126.19,-219.84C1127.11,-212.21 1128.24,-202.7 1129.23,-194.45"/>
<polygon fill="#63b8ff" stroke="#63b8ff" points="1132.74,-194.61 1130.45,-184.27 1125.79,-193.78 1132.74,-194.61"/>
</a>
</g>
</g>
<!-- Node21&#45;&gt;Node4 -->
<g id="edge28_Node000021_Node000004" class="edge">
<title>Node21&#45;&gt;Node4</title>
<g id="a_edge28_Node000021_Node000004"><a xlink:title=" ">
<path fill="none" stroke="#63b8ff" d="M885.72,-164.92C866.88,-157.51 841.12,-145.42 822.5,-129 789.12,-99.57 763.25,-53.23 750.75,-28.11"/>
<polygon fill="#63b8ff" stroke="#63b8ff" points="753.87,-26.51 746.36,-19.04 747.56,-29.56 753.87,-26.51"/>
</a>
</g>
</g>
<!-- Node21&#45;&gt;Node9 -->
<g id="edge29_Node000021_Node000009" class="edge">
<title>Node21&#45;&gt;Node9</title>
<g id="a_edge29_Node000021_Node000009"><a xlink:title=" ">
<path fill="none" stroke="#63b8ff" d="M912.92,-164.97C916.89,-152.07 925.75,-127.25 939.5,-110 969.26,-72.66 1015.95,-41.48 1044.53,-24.45"/>
<polygon fill="#63b8ff" stroke="#63b8ff" points="1046.6,-27.29 1053.48,-19.23 1043.08,-21.25 1046.6,-27.29"/>
</a>
</g>
</g>
<!-- Node21&#45;&gt;Node20 -->
<g id="edge30_Node000021_Node000020" class="edge">
<title>Node21&#45;&gt;Node20</title>
<g id="a_edge30_Node000021_Node000020"><a xlink:title=" ">
<path fill="none" stroke="#63b8ff" d="M924.96,-164.98C938.92,-156.77 960.29,-144.18 976.75,-134.49"/>
<polygon fill="#63b8ff" stroke="#63b8ff" points="978.94,-137.26 985.78,-129.17 975.38,-131.23 978.94,-137.26"/>
</a>
</g>
</g>
<!-- Node21&#45;&gt;Node22 -->
<g id="edge31_Node000021_Node000022" class="edge">
<title>Node21&#45;&gt;Node22</title>
<g id="a_edge31_Node000021_Node000022"><a xlink:title=" ">
<path fill="none" stroke="#63b8ff" d="M945.85,-164.98C983.66,-155.87 1043.76,-141.4 1085.07,-131.45"/>
<polygon fill="#63b8ff" stroke="#63b8ff" points="1085.97,-134.83 1094.88,-129.08 1084.33,-128.02 1085.97,-134.83"/>
</a>
</g>
</g>
<!-- Node23 -->
<g id="Node000023" class="node">
<title>Node23</title>
<g id="a_Node000023"><a xlink:title=" ">
<polygon fill="#e0e0e0" stroke="#999999" points="891,-129 832,-129 832,-110 891,-110 891,-129"/>
<text text-anchor="middle" x="861.5" y="-117" font-family="Helvetica,sans-Serif" font-size="10.00">complex</text>
</a>
</g>
</g>
<!-- Node21&#45;&gt;Node23 -->
<g id="edge32_Node000021_Node000023" class="edge">
<title>Node21&#45;&gt;Node23</title>
<g id="a_edge32_Node000021_Node000023"><a xlink:title=" ">
<path fill="none" stroke="#63b8ff" d="M902.41,-164.75C895.34,-157.11 884.91,-145.82 876.35,-136.56"/>
<polygon fill="#63b8ff" stroke="#63b8ff" points="878.8,-134.06 869.44,-129.09 873.66,-138.81 878.8,-134.06"/>
</a>
</g>
</g>
<!-- Node24&#45;&gt;Node10 -->
<g id="edge35_Node000024_Node000010" class="edge">
<title>Node24&#45;&gt;Node10</title>
<g id="a_edge35_Node000024_Node000010"><a xlink:title=" ">
<path fill="none" stroke="#63b8ff" d="M700.74,-164.98C660.18,-155.84 595.61,-141.27 551.47,-131.32"/>
<polygon fill="#63b8ff" stroke="#63b8ff" points="552.08,-127.87 541.55,-129.08 550.54,-134.7 552.08,-127.87"/>
</a>
</g>
</g>
<!-- Node29&#45;&gt;Node9 -->
<g id="edge43_Node000029_Node000009" class="edge">
<title>Node29&#45;&gt;Node9</title>
<g id="a_edge43_Node000029_Node000009"><a xlink:title=" ">
<path fill="none" stroke="#63b8ff" d="M1005.53,-288.7C1150.16,-272.89 1532.38,-227.37 1568.5,-184 1691.58,-36.23 1278.27,-14.13 1124.68,-10.97"/>
<polygon fill="#63b8ff" stroke="#63b8ff" points="1124.58,-7.47 1114.52,-10.78 1124.45,-14.47 1124.58,-7.47"/>
</a>
</g>
</g>
<!-- Node30 -->
<g id="Node000030" class="node">
<title>Node30</title>
<g id="a_Node000030"><a xlink:href="sitkPixelIDValues_8h.html" target="_top" xlink:title=" ">
<polygon fill="white" stroke="#666666" points="1023.5,-244.5 913.5,-244.5 913.5,-225.5 1023.5,-225.5 1023.5,-244.5"/>
<text text-anchor="middle" x="968.5" y="-232.5" font-family="Helvetica,sans-Serif" font-size="10.00">sitkPixelIDValues.h</text>
</a>
</g>
</g>
<!-- Node29&#45;&gt;Node30 -->
<g id="edge44_Node000029_Node000030" class="edge">
<title>Node29&#45;&gt;Node30</title>
<g id="a_edge44_Node000029_Node000030"><a xlink:title=" ">
<path fill="none" stroke="#63b8ff" d="M953.16,-285.87C955.68,-277.66 959.56,-265.04 962.79,-254.55"/>
<polygon fill="#63b8ff" stroke="#63b8ff" points="966.24,-255.25 965.83,-244.67 959.55,-253.2 966.24,-255.25"/>
</a>
</g>
</g>
<!-- Node29&#45;&gt;Node32 -->
<g id="edge49_Node000029_Node000032" class="edge">
<title>Node29&#45;&gt;Node32</title>
<g id="a_edge49_Node000029_Node000032"><a xlink:title=" ">
<path fill="none" stroke="#63b8ff" d="M937.22,-285.87C922.86,-276.54 899.74,-261.51 882.63,-250.38"/>
<polygon fill="#63b8ff" stroke="#63b8ff" points="884.13,-247.18 873.83,-244.67 880.31,-253.05 884.13,-247.18"/>
</a>
</g>
</g>
<!-- Node30&#45;&gt;Node10 -->
<g id="edge45_Node000030_Node000010" class="edge">
<title>Node30&#45;&gt;Node10</title>
<g id="a_edge45_Node000030_Node000010"><a xlink:title=" ">
<path fill="none" stroke="#63b8ff" d="M931.35,-225.48C922.57,-223.57 913.22,-221.63 904.5,-220 802.8,-200.94 773.77,-213.16 674.5,-184 654.45,-178.11 650.94,-172.66 631.5,-165 600.97,-152.97 565.71,-140.84 539.94,-132.29"/>
<polygon fill="#63b8ff" stroke="#63b8ff" points="540.8,-128.89 530.21,-129.08 538.61,-135.54 540.8,-128.89"/>
</a>
</g>
</g>
<!-- Node30&#45;&gt;Node16 -->
<g id="edge48_Node000030_Node000016" class="edge">
<title>Node30&#45;&gt;Node16</title>
<g id="a_edge48_Node000030_Node000016"><a xlink:title=" ">
<path fill="none" stroke="#63b8ff" d="M932.06,-225.46C923.08,-223.51 913.46,-221.56 904.5,-220 846.49,-209.92 676.38,-189.27 599.28,-180.09"/>
<polygon fill="#63b8ff" stroke="#63b8ff" points="599.38,-176.57 589.04,-178.87 598.55,-183.52 599.38,-176.57"/>
</a>
</g>
</g>
<!-- Node30&#45;&gt;Node21 -->
<g id="edge46_Node000030_Node000021" class="edge">
<title>Node30&#45;&gt;Node21</title>
<g id="a_edge46_Node000030_Node000021"><a xlink:title=" ">
<path fill="none" stroke="#63b8ff" d="M959.94,-225.37C951.12,-216.47 937.16,-202.39 926.32,-191.45"/>
<polygon fill="#63b8ff" stroke="#63b8ff" points="928.62,-188.8 919.09,-184.17 923.65,-193.73 928.62,-188.8"/>
</a>
</g>
</g>
<!-- Node30&#45;&gt;Node31 -->
<g id="edge47_Node000030_Node000031" class="edge">
<title>Node30&#45;&gt;Node31</title>
<g id="a_edge47_Node000030_Node000031"><a xlink:title=" ">
<path fill="none" stroke="#63b8ff" d="M1011.67,-225.47C1020.86,-223.66 1030.5,-221.76 1039.5,-220 1109.78,-206.24 1192.23,-190.26 1236.5,-181.69"/>
<polygon fill="#63b8ff" stroke="#63b8ff" points="1237.24,-185.11 1246.39,-179.78 1235.91,-178.24 1237.24,-185.11"/>
</a>
</g>
</g>
<!-- Node33&#45;&gt;Node10 -->
<g id="edge51_Node000033_Node000010" class="edge">
<title>Node33&#45;&gt;Node10</title>
<g id="a_edge51_Node000033_Node000010"><a xlink:title=" ">
<path fill="none" stroke="#63b8ff" d="M684.03,-225.47C628.11,-211.95 525.46,-186.84 522.5,-184 510.44,-172.44 505.95,-153.57 504.32,-139.39"/>
<polygon fill="#63b8ff" stroke="#63b8ff" points="507.8,-138.97 503.54,-129.27 500.82,-139.51 507.8,-138.97"/>
</a>
</g>
</g>
<!-- Node33&#45;&gt;Node16 -->
<g id="edge52_Node000033_Node000016" class="edge">
<title>Node33&#45;&gt;Node16</title>
<g id="a_edge52_Node000033_Node000016"><a xlink:title=" ">
<path fill="none" stroke="#63b8ff" d="M696.38,-225.49C669.18,-215.49 623.83,-198.8 593.08,-187.49"/>
<polygon fill="#63b8ff" stroke="#63b8ff" points="594.24,-184.18 583.65,-184.02 591.82,-190.75 594.24,-184.18"/>
</a>
</g>
</g>
</g>
</svg>
