<?xml version="1.0" encoding="UTF-8" standalone="no"?>
<!DOCTYPE svg PUBLIC "-//W3C//DTD SVG 1.1//EN"
 "http://www.w3.org/Graphics/SVG/1.1/DTD/svg11.dtd">
<!-- Generated by graphviz version 2.43.0 (0)
 -->
<!-- Title: sitkImageFileWriter.h Pages: 1 -->
<svg width="1658pt" height="478pt"
 viewBox="0.00 0.00 1658.49 478.00" xmlns="http://www.w3.org/2000/svg" xmlns:xlink="http://www.w3.org/1999/xlink">
<g id="graph0" class="graph" transform="scale(1 1) rotate(0) translate(4 474)">
<title>sitkImageFileWriter.h</title>
<!-- Node1 -->
<g id="Node000001" class="node">
<title>Node1</title>
<g id="a_Node000001"><a xlink:title=" ">
<polygon fill="#999999" stroke="#666666" points="667.49,-470 546.49,-470 546.49,-451 667.49,-451 667.49,-470"/>
<text text-anchor="middle" x="606.99" y="-458" font-family="Helvetica,sans-Serif" font-size="10.00">sitkImageFileWriter.h</text>
</a>
</g>
</g>
<!-- Node2 -->
<g id="Node000002" class="node">
<title>Node2</title>
<g id="a_Node000002"><a xlink:href="sitkMacro_8h.html" target="_top" xlink:title=" ">
<polygon fill="white" stroke="#666666" points="430.99,-74 356.99,-74 356.99,-55 430.99,-55 430.99,-74"/>
<text text-anchor="middle" x="393.99" y="-62" font-family="Helvetica,sans-Serif" font-size="10.00">sitkMacro.h</text>
</a>
</g>
</g>
<!-- Node1&#45;&gt;Node2 -->
<g id="edge1_Node000001_Node000002" class="edge">
<title>Node1&#45;&gt;Node2</title>
<g id="a_edge1_Node000001_Node000002"><a xlink:title=" ">
<path fill="none" stroke="#63b8ff" d="M546.33,-458.74C404.54,-456.42 60.31,-447.47 19.99,-415 -2.96,-396.53 0.99,-380.96 0.99,-351.5 0.99,-351.5 0.99,-351.5 0.99,-184.5 0.99,-144.37 17.78,-130.97 51.99,-110 100.39,-80.33 264.75,-70.2 346.72,-66.94"/>
<polygon fill="#63b8ff" stroke="#63b8ff" points="346.9,-70.43 356.76,-66.56 346.64,-63.44 346.9,-70.43"/>
</a>
</g>
</g>
<!-- Node9 -->
<g id="Node000009" class="node">
<title>Node9</title>
<g id="a_Node000009"><a xlink:href="sitkPathType_8h.html" target="_top" xlink:title=" ">
<polygon fill="white" stroke="#666666" points="1411.49,-305 1324.49,-305 1324.49,-286 1411.49,-286 1411.49,-305"/>
<text text-anchor="middle" x="1367.99" y="-293" font-family="Helvetica,sans-Serif" font-size="10.00">sitkPathType.h</text>
</a>
</g>
</g>
<!-- Node1&#45;&gt;Node9 -->
<g id="edge8_Node000001_Node000009" class="edge">
<title>Node1&#45;&gt;Node9</title>
<g id="a_edge8_Node000001_Node000009"><a xlink:title=" ">
<path fill="none" stroke="#63b8ff" d="M667.95,-457.9C791.79,-454.12 1068.69,-442.75 1158.99,-415 1234.75,-391.72 1313.19,-337.71 1348.59,-311.42"/>
<polygon fill="#63b8ff" stroke="#63b8ff" points="1351.13,-313.89 1357.02,-305.07 1346.92,-308.29 1351.13,-313.89"/>
</a>
</g>
</g>
<!-- Node11 -->
<g id="Node000011" class="node">
<title>Node11</title>
<g id="a_Node000011"><a xlink:href="sitkImage_8h.html" target="_top" xlink:title=" ">
<polygon fill="white" stroke="#666666" points="740.99,-305 666.99,-305 666.99,-286 740.99,-286 740.99,-305"/>
<text text-anchor="middle" x="703.99" y="-293" font-family="Helvetica,sans-Serif" font-size="10.00">sitkImage.h</text>
</a>
</g>
</g>
<!-- Node1&#45;&gt;Node11 -->
<g id="edge10_Node000001_Node000011" class="edge">
<title>Node1&#45;&gt;Node11</title>
<g id="a_edge10_Node000001_Node000011"><a xlink:title=" ">
<path fill="none" stroke="#63b8ff" d="M640.08,-450.98C680.66,-438.56 747.64,-411.17 776.99,-360 789.43,-338.29 762.68,-320.35 738.12,-309.13"/>
<polygon fill="#63b8ff" stroke="#63b8ff" points="739.48,-305.91 728.91,-305.17 736.71,-312.34 739.48,-305.91"/>
</a>
</g>
</g>
<!-- Node15 -->
<g id="Node000015" class="node">
<title>Node15</title>
<g id="a_Node000015"><a xlink:title=" ">
<polygon fill="#e0e0e0" stroke="#999999" points="141.99,-134.5 83.99,-134.5 83.99,-115.5 141.99,-115.5 141.99,-134.5"/>
<text text-anchor="middle" x="112.99" y="-122.5" font-family="Helvetica,sans-Serif" font-size="10.00">memory</text>
</a>
</g>
</g>
<!-- Node1&#45;&gt;Node15 -->
<g id="edge73_Node000001_Node000015" class="edge">
<title>Node1&#45;&gt;Node15</title>
<g id="a_edge73_Node000001_Node000015"><a xlink:title=" ">
<path fill="none" stroke="#63b8ff" d="M581.05,-450.96C504.87,-424.67 279,-338.02 148.99,-195 135.53,-180.2 125.6,-159.44 119.61,-144.56"/>
<polygon fill="#63b8ff" stroke="#63b8ff" points="122.78,-143.04 115.96,-134.94 116.24,-145.53 122.78,-143.04"/>
</a>
</g>
</g>
<!-- Node34 -->
<g id="Node000034" class="node">
<title>Node34</title>
<g id="a_Node000034"><a xlink:href="sitkMemberFunctionFactory_8h.html" target="_top" xlink:title=" ">
<polygon fill="white" stroke="#666666" points="1307.49,-250 1148.49,-250 1148.49,-231 1307.49,-231 1307.49,-250"/>
<text text-anchor="middle" x="1227.99" y="-238" font-family="Helvetica,sans-Serif" font-size="10.00">sitkMemberFunctionFactory.h</text>
</a>
</g>
</g>
<!-- Node1&#45;&gt;Node34 -->
<g id="edge53_Node000001_Node000034" class="edge">
<title>Node1&#45;&gt;Node34</title>
<g id="a_edge53_Node000001_Node000034"><a xlink:title=" ">
<path fill="none" stroke="#63b8ff" d="M634.98,-450.95C663.32,-442.21 708.34,-428.11 746.99,-415 916.75,-357.43 1117.98,-282.73 1195.4,-253.74"/>
<polygon fill="#63b8ff" stroke="#63b8ff" points="1196.93,-256.91 1205.07,-250.12 1194.48,-250.35 1196.93,-256.91"/>
</a>
</g>
</g>
<!-- Node36 -->
<g id="Node000036" class="node">
<title>Node36</title>
<g id="a_Node000036"><a xlink:href="sitkIO_8h.html" target="_top" xlink:title=" ">
<polygon fill="white" stroke="#666666" points="82.99,-415 28.99,-415 28.99,-396 82.99,-396 82.99,-415"/>
<text text-anchor="middle" x="55.99" y="-403" font-family="Helvetica,sans-Serif" font-size="10.00">sitkIO.h</text>
</a>
</g>
</g>
<!-- Node1&#45;&gt;Node36 -->
<g id="edge58_Node000001_Node000036" class="edge">
<title>Node1&#45;&gt;Node36</title>
<g id="a_edge58_Node000001_Node000036"><a xlink:title=" ">
<path fill="none" stroke="#63b8ff" d="M546.27,-456.51C450.42,-451.28 258.35,-438.68 96.99,-415 95.73,-414.82 94.46,-414.62 93.17,-414.41"/>
<polygon fill="#63b8ff" stroke="#63b8ff" points="93.72,-410.95 83.25,-412.62 92.47,-417.84 93.72,-410.95"/>
</a>
</g>
</g>
<!-- Node37 -->
<g id="Node000037" class="node">
<title>Node37</title>
<g id="a_Node000037"><a xlink:href="sitkProcessObject_8h.html" target="_top" xlink:title=" ">
<polygon fill="white" stroke="#666666" points="663.49,-415 550.49,-415 550.49,-396 663.49,-396 663.49,-415"/>
<text text-anchor="middle" x="606.99" y="-403" font-family="Helvetica,sans-Serif" font-size="10.00">sitkProcessObject.h</text>
</a>
</g>
</g>
<!-- Node1&#45;&gt;Node37 -->
<g id="edge60_Node000001_Node000037" class="edge">
<title>Node1&#45;&gt;Node37</title>
<g id="a_edge60_Node000001_Node000037"><a xlink:title=" ">
<path fill="none" stroke="#63b8ff" d="M606.99,-450.75C606.99,-443.8 606.99,-433.85 606.99,-425.13"/>
<polygon fill="#63b8ff" stroke="#63b8ff" points="610.49,-425.09 606.99,-415.09 603.49,-425.09 610.49,-425.09"/>
</a>
</g>
</g>
<!-- Node3 -->
<g id="Node000003" class="node">
<title>Node3</title>
<g id="a_Node000003"><a xlink:title=" ">
<polygon fill="#e0e0e0" stroke="#999999" points="1227.49,-19 1174.49,-19 1174.49,0 1227.49,0 1227.49,-19"/>
<text text-anchor="middle" x="1200.99" y="-7" font-family="Helvetica,sans-Serif" font-size="10.00">stdint.h</text>
</a>
</g>
</g>
<!-- Node2&#45;&gt;Node3 -->
<g id="edge2_Node000002_Node000003" class="edge">
<title>Node2&#45;&gt;Node3</title>
<g id="a_edge2_Node000002_Node000003"><a xlink:title=" ">
<path fill="none" stroke="#63b8ff" d="M431.02,-61.52C536.45,-55.81 847.23,-38.47 1104.99,-19 1124.51,-17.52 1146.25,-15.62 1164.09,-13.99"/>
<polygon fill="#63b8ff" stroke="#63b8ff" points="1164.47,-17.47 1174.1,-13.07 1163.83,-10.5 1164.47,-17.47"/>
</a>
</g>
</g>
<!-- Node4 -->
<g id="Node000004" class="node">
<title>Node4</title>
<g id="a_Node000004"><a xlink:title=" ">
<polygon fill="#e0e0e0" stroke="#999999" points="313.99,-19 257.99,-19 257.99,0 313.99,0 313.99,-19"/>
<text text-anchor="middle" x="285.99" y="-7" font-family="Helvetica,sans-Serif" font-size="10.00">stddef.h</text>
</a>
</g>
</g>
<!-- Node2&#45;&gt;Node4 -->
<g id="edge3_Node000002_Node000004" class="edge">
<title>Node2&#45;&gt;Node4</title>
<g id="a_edge3_Node000002_Node000004"><a xlink:title=" ">
<path fill="none" stroke="#63b8ff" d="M376.63,-54.98C359.42,-46.54 332.79,-33.47 312.84,-23.68"/>
<polygon fill="#63b8ff" stroke="#63b8ff" points="314.17,-20.43 303.65,-19.17 311.09,-26.72 314.17,-20.43"/>
</a>
</g>
</g>
<!-- Node5 -->
<g id="Node000005" class="node">
<title>Node5</title>
<g id="a_Node000005"><a xlink:title=" ">
<polygon fill="#e0e0e0" stroke="#999999" points="383.99,-19 331.99,-19 331.99,0 383.99,0 383.99,-19"/>
<text text-anchor="middle" x="357.99" y="-7" font-family="Helvetica,sans-Serif" font-size="10.00">cassert</text>
</a>
</g>
</g>
<!-- Node2&#45;&gt;Node5 -->
<g id="edge4_Node000002_Node000005" class="edge">
<title>Node2&#45;&gt;Node5</title>
<g id="a_edge4_Node000002_Node000005"><a xlink:title=" ">
<path fill="none" stroke="#63b8ff" d="M388.04,-54.75C383.01,-47.34 375.65,-36.5 369.47,-27.41"/>
<polygon fill="#63b8ff" stroke="#63b8ff" points="372.33,-25.39 363.82,-19.09 366.54,-29.33 372.33,-25.39"/>
</a>
</g>
</g>
<!-- Node6 -->
<g id="Node000006" class="node">
<title>Node6</title>
<g id="a_Node000006"><a xlink:title=" ">
<polygon fill="#e0e0e0" stroke="#999999" points="457.99,-19 401.99,-19 401.99,0 457.99,0 457.99,-19"/>
<text text-anchor="middle" x="429.99" y="-7" font-family="Helvetica,sans-Serif" font-size="10.00">sstream</text>
</a>
</g>
</g>
<!-- Node2&#45;&gt;Node6 -->
<g id="edge5_Node000002_Node000006" class="edge">
<title>Node2&#45;&gt;Node6</title>
<g id="a_edge5_Node000002_Node000006"><a xlink:title=" ">
<path fill="none" stroke="#63b8ff" d="M399.93,-54.75C404.96,-47.34 412.32,-36.5 418.5,-27.41"/>
<polygon fill="#63b8ff" stroke="#63b8ff" points="421.43,-29.33 424.15,-19.09 415.64,-25.39 421.43,-29.33"/>
</a>
</g>
</g>
<!-- Node7 -->
<g id="Node000007" class="node">
<title>Node7</title>
<g id="a_Node000007"><a xlink:title=" ">
<polygon fill="#e0e0e0" stroke="#999999" points="519.99,-19 475.99,-19 475.99,0 519.99,0 519.99,-19"/>
<text text-anchor="middle" x="497.99" y="-7" font-family="Helvetica,sans-Serif" font-size="10.00">limits</text>
</a>
</g>
</g>
<!-- Node2&#45;&gt;Node7 -->
<g id="edge6_Node000002_Node000007" class="edge">
<title>Node2&#45;&gt;Node7</title>
<g id="a_edge6_Node000002_Node000007"><a xlink:title=" ">
<path fill="none" stroke="#63b8ff" d="M410.7,-54.98C427.2,-46.57 452.68,-33.59 471.87,-23.81"/>
<polygon fill="#63b8ff" stroke="#63b8ff" points="473.65,-26.83 480.97,-19.17 470.47,-20.59 473.65,-26.83"/>
</a>
</g>
</g>
<!-- Node8 -->
<g id="Node000008" class="node">
<title>Node8</title>
<g id="a_Node000008"><a xlink:href="sitkConfigure_8h.html" target="_top" xlink:title=" ">
<polygon fill="white" stroke="#666666" points="1095.99,-19 1005.99,-19 1005.99,0 1095.99,0 1095.99,-19"/>
<text text-anchor="middle" x="1050.99" y="-7" font-family="Helvetica,sans-Serif" font-size="10.00">sitkConfigure.h</text>
</a>
</g>
</g>
<!-- Node2&#45;&gt;Node8 -->
<g id="edge7_Node000002_Node000008" class="edge">
<title>Node2&#45;&gt;Node8</title>
<g id="a_edge7_Node000002_Node000008"><a xlink:title=" ">
<path fill="none" stroke="#63b8ff" d="M431.19,-60.5C541.14,-51.63 865,-25.5 995.53,-14.97"/>
<polygon fill="#63b8ff" stroke="#63b8ff" points="996.01,-18.45 1005.7,-14.15 995.45,-11.47 996.01,-18.45"/>
</a>
</g>
</g>
<!-- Node10 -->
<g id="Node000010" class="node">
<title>Node10</title>
<g id="a_Node000010"><a xlink:title=" ">
<polygon fill="#e0e0e0" stroke="#999999" points="1541.99,-134.5 1497.99,-134.5 1497.99,-115.5 1541.99,-115.5 1541.99,-134.5"/>
<text text-anchor="middle" x="1519.99" y="-122.5" font-family="Helvetica,sans-Serif" font-size="10.00">string</text>
</a>
</g>
</g>
<!-- Node9&#45;&gt;Node10 -->
<g id="edge9_Node000009_Node000010" class="edge">
<title>Node9&#45;&gt;Node10</title>
<g id="a_edge9_Node000009_Node000010"><a xlink:title=" ">
<path fill="none" stroke="#63b8ff" d="M1379.75,-285.9C1401.26,-269.78 1447.6,-233.18 1478.99,-195 1492.09,-179.06 1503.75,-158.48 1511.25,-143.96"/>
<polygon fill="#63b8ff" stroke="#63b8ff" points="1514.59,-145.11 1515.94,-134.6 1508.33,-141.97 1514.59,-145.11"/>
</a>
</g>
</g>
<!-- Node12 -->
<g id="Node000012" class="node">
<title>Node12</title>
<g id="a_Node000012"><a xlink:href="sitkCommon_8h.html" target="_top" xlink:title=" ">
<polygon fill="white" stroke="#666666" points="669.99,-134.5 581.99,-134.5 581.99,-115.5 669.99,-115.5 669.99,-134.5"/>
<text text-anchor="middle" x="625.99" y="-122.5" font-family="Helvetica,sans-Serif" font-size="10.00">sitkCommon.h</text>
</a>
</g>
</g>
<!-- Node11&#45;&gt;Node12 -->
<g id="edge11_Node000011_Node000012" class="edge">
<title>Node11&#45;&gt;Node12</title>
<g id="a_edge11_Node000011_Node000012"><a xlink:title=" ">
<path fill="none" stroke="#63b8ff" d="M697.78,-285.87C685.98,-269.11 660.15,-230.67 644.99,-195 638.01,-178.58 632.88,-158.87 629.72,-144.73"/>
<polygon fill="#63b8ff" stroke="#63b8ff" points="633.1,-143.81 627.61,-134.75 626.26,-145.25 633.1,-143.81"/>
</a>
</g>
</g>
<!-- Node13 -->
<g id="Node000013" class="node">
<title>Node13</title>
<g id="a_Node000013"><a xlink:href="sitkTemplateFunctions_8h.html" target="_top" xlink:title=" ">
<polygon fill="white" stroke="#666666" points="521.49,-250 386.49,-250 386.49,-231 521.49,-231 521.49,-250"/>
<text text-anchor="middle" x="453.99" y="-238" font-family="Helvetica,sans-Serif" font-size="10.00">sitkTemplateFunctions.h</text>
</a>
</g>
</g>
<!-- Node11&#45;&gt;Node13 -->
<g id="edge13_Node000011_Node000013" class="edge">
<title>Node11&#45;&gt;Node13</title>
<g id="a_edge13_Node000011_Node000013"><a xlink:title=" ">
<path fill="none" stroke="#63b8ff" d="M666.83,-286.62C623.65,-277.47 552.2,-262.32 504.14,-252.13"/>
<polygon fill="#63b8ff" stroke="#63b8ff" points="504.76,-248.69 494.25,-250.04 503.31,-255.53 504.76,-248.69"/>
</a>
</g>
</g>
<!-- Node11&#45;&gt;Node15 -->
<g id="edge51_Node000011_Node000015" class="edge">
<title>Node11&#45;&gt;Node15</title>
<g id="a_edge51_Node000011_Node000015"><a xlink:title=" ">
<path fill="none" stroke="#63b8ff" d="M666.69,-290.92C560.6,-280.22 259.47,-245.99 175.99,-195 154.23,-181.71 135.44,-158.73 124.18,-142.97"/>
<polygon fill="#63b8ff" stroke="#63b8ff" points="127.01,-140.91 118.45,-134.65 121.24,-144.88 127.01,-140.91"/>
</a>
</g>
</g>
<!-- Node16 -->
<g id="Node000016" class="node">
<title>Node16</title>
<g id="a_Node000016"><a xlink:title=" ">
<polygon fill="#e0e0e0" stroke="#999999" points="559.49,-195 512.49,-195 512.49,-176 559.49,-176 559.49,-195"/>
<text text-anchor="middle" x="535.99" y="-183" font-family="Helvetica,sans-Serif" font-size="10.00">vector</text>
</a>
</g>
</g>
<!-- Node11&#45;&gt;Node16 -->
<g id="edge50_Node000011_Node000016" class="edge">
<title>Node11&#45;&gt;Node16</title>
<g id="a_edge50_Node000011_Node000016"><a xlink:title=" ">
<path fill="none" stroke="#63b8ff" d="M682.74,-285.99C663.57,-277.91 634.94,-264.82 611.99,-250 589.8,-235.68 566.89,-215.69 552.1,-201.99"/>
<polygon fill="#63b8ff" stroke="#63b8ff" points="554.46,-199.4 544.78,-195.1 549.66,-204.5 554.46,-199.4"/>
</a>
</g>
</g>
<!-- Node20 -->
<g id="Node000020" class="node">
<title>Node20</title>
<g id="a_Node000020"><a xlink:href="sitkDetail_8h.html" target="_top" xlink:title=" ">
<polygon fill="white" stroke="#666666" points="1264.49,-195 1191.49,-195 1191.49,-176 1264.49,-176 1264.49,-195"/>
<text text-anchor="middle" x="1227.99" y="-183" font-family="Helvetica,sans-Serif" font-size="10.00">sitkDetail.h</text>
</a>
</g>
</g>
<!-- Node11&#45;&gt;Node20 -->
<g id="edge24_Node000011_Node000020" class="edge">
<title>Node11&#45;&gt;Node20</title>
<g id="a_edge24_Node000011_Node000020"><a xlink:title=" ">
<path fill="none" stroke="#63b8ff" d="M741.07,-289.15C818.7,-277.93 992.19,-252.76 1004.99,-250 1072.16,-235.53 1148.9,-212.13 1192.59,-198.13"/>
<polygon fill="#63b8ff" stroke="#63b8ff" points="1193.73,-201.44 1202.17,-195.04 1191.58,-194.78 1193.73,-201.44"/>
</a>
</g>
</g>
<!-- Node30 -->
<g id="Node000030" class="node">
<title>Node30</title>
<g id="a_Node000030"><a xlink:href="sitkPixelIDTokens_8h.html" target="_top" xlink:title=" ">
<polygon fill="white" stroke="#666666" points="995.99,-250 885.99,-250 885.99,-231 995.99,-231 995.99,-250"/>
<text text-anchor="middle" x="940.99" y="-238" font-family="Helvetica,sans-Serif" font-size="10.00">sitkPixelIDTokens.h</text>
</a>
</g>
</g>
<!-- Node11&#45;&gt;Node30 -->
<g id="edge39_Node000011_Node000030" class="edge">
<title>Node11&#45;&gt;Node30</title>
<g id="a_edge39_Node000011_Node000030"><a xlink:title=" ">
<path fill="none" stroke="#63b8ff" d="M741.02,-286.22C781.93,-277.07 847.94,-262.31 892.84,-252.27"/>
<polygon fill="#63b8ff" stroke="#63b8ff" points="893.65,-255.67 902.64,-250.07 892.12,-248.84 893.65,-255.67"/>
</a>
</g>
</g>
<!-- Node32 -->
<g id="Node000032" class="node">
<title>Node32</title>
<g id="a_Node000032"><a xlink:title=" ">
<polygon fill="#e0e0e0" stroke="#999999" points="917.49,-195 848.49,-195 848.49,-176 917.49,-176 917.49,-195"/>
<text text-anchor="middle" x="882.99" y="-183" font-family="Helvetica,sans-Serif" font-size="10.00">type_traits</text>
</a>
</g>
</g>
<!-- Node11&#45;&gt;Node32 -->
<g id="edge52_Node000011_Node000032" class="edge">
<title>Node11&#45;&gt;Node32</title>
<g id="a_edge52_Node000011_Node000032"><a xlink:title=" ">
<path fill="none" stroke="#63b8ff" d="M718.33,-285.84C749.23,-267.2 822.3,-223.11 859.84,-200.46"/>
<polygon fill="#63b8ff" stroke="#63b8ff" points="861.82,-203.36 868.57,-195.2 858.2,-197.37 861.82,-203.36"/>
</a>
</g>
</g>
<!-- Node33 -->
<g id="Node000033" class="node">
<title>Node33</title>
<g id="a_Node000033"><a xlink:href="sitkInterpolator_8h.html" target="_top" xlink:title=" ">
<polygon fill="white" stroke="#666666" points="753.99,-195 653.99,-195 653.99,-176 753.99,-176 753.99,-195"/>
<text text-anchor="middle" x="703.99" y="-183" font-family="Helvetica,sans-Serif" font-size="10.00">sitkInterpolator.h</text>
</a>
</g>
</g>
<!-- Node11&#45;&gt;Node33 -->
<g id="edge47_Node000011_Node000033" class="edge">
<title>Node11&#45;&gt;Node33</title>
<g id="a_edge47_Node000011_Node000033"><a xlink:title=" ">
<path fill="none" stroke="#63b8ff" d="M703.99,-285.66C703.99,-268.17 703.99,-228.8 703.99,-205.27"/>
<polygon fill="#63b8ff" stroke="#63b8ff" points="707.49,-205.16 703.99,-195.16 700.49,-205.16 707.49,-205.16"/>
</a>
</g>
</g>
<!-- Node12&#45;&gt;Node2 -->
<g id="edge12_Node000012_Node000002" class="edge">
<title>Node12&#45;&gt;Node2</title>
<g id="a_edge12_Node000012_Node000002"><a xlink:title=" ">
<path fill="none" stroke="#63b8ff" d="M592.25,-115.49C551.36,-105.18 482.36,-87.78 437.5,-76.47"/>
<polygon fill="#63b8ff" stroke="#63b8ff" points="438.31,-73.07 427.76,-74.02 436.6,-79.86 438.31,-73.07"/>
</a>
</g>
</g>
<!-- Node13&#45;&gt;Node2 -->
<g id="edge14_Node000013_Node000002" class="edge">
<title>Node13&#45;&gt;Node2</title>
<g id="a_edge14_Node000013_Node000002"><a xlink:title=" ">
<path fill="none" stroke="#63b8ff" d="M386.38,-237.7C316.64,-234.24 214.67,-224.19 189.99,-195 139.28,-135.03 271.81,-93.52 346.71,-75.54"/>
<polygon fill="#63b8ff" stroke="#63b8ff" points="347.93,-78.85 356.87,-73.16 346.34,-72.03 347.93,-78.85"/>
</a>
</g>
</g>
<!-- Node13&#45;&gt;Node12 -->
<g id="edge15_Node000013_Node000012" class="edge">
<title>Node13&#45;&gt;Node12</title>
<g id="a_edge15_Node000013_Node000012"><a xlink:title=" ">
<path fill="none" stroke="#63b8ff" d="M458.74,-230.95C466.56,-217.55 483.38,-191.55 503.99,-176 527.51,-158.25 558.24,-145.7 582.97,-137.62"/>
<polygon fill="#63b8ff" stroke="#63b8ff" points="584.32,-140.87 592.81,-134.53 582.22,-134.19 584.32,-140.87"/>
</a>
</g>
</g>
<!-- Node14 -->
<g id="Node000014" class="node">
<title>Node14</title>
<g id="a_Node000014"><a xlink:href="sitkExceptionObject_8h.html" target="_top" xlink:title=" ">
<polygon fill="white" stroke="#666666" points="455.49,-195 332.49,-195 332.49,-176 455.49,-176 455.49,-195"/>
<text text-anchor="middle" x="393.99" y="-183" font-family="Helvetica,sans-Serif" font-size="10.00">sitkExceptionObject.h</text>
</a>
</g>
</g>
<!-- Node13&#45;&gt;Node14 -->
<g id="edge16_Node000013_Node000014" class="edge">
<title>Node13&#45;&gt;Node14</title>
<g id="a_edge16_Node000013_Node000014"><a xlink:title=" ">
<path fill="none" stroke="#63b8ff" d="M444.35,-230.98C435.48,-223.15 422.11,-211.34 411.38,-201.86"/>
<polygon fill="#63b8ff" stroke="#63b8ff" points="413.61,-199.17 403.8,-195.17 408.98,-204.41 413.61,-199.17"/>
</a>
</g>
</g>
<!-- Node13&#45;&gt;Node16 -->
<g id="edge20_Node000013_Node000016" class="edge">
<title>Node13&#45;&gt;Node16</title>
<g id="a_edge20_Node000013_Node000016"><a xlink:title=" ">
<path fill="none" stroke="#63b8ff" d="M467.16,-230.98C479.76,-222.84 498.99,-210.41 513.93,-200.76"/>
<polygon fill="#63b8ff" stroke="#63b8ff" points="516.07,-203.54 522.57,-195.17 512.27,-197.66 516.07,-203.54"/>
</a>
</g>
</g>
<!-- Node17 -->
<g id="Node000017" class="node">
<title>Node17</title>
<g id="a_Node000017"><a xlink:title=" ">
<polygon fill="#e0e0e0" stroke="#999999" points="904.49,-134.5 847.49,-134.5 847.49,-115.5 904.49,-115.5 904.49,-134.5"/>
<text text-anchor="middle" x="875.99" y="-122.5" font-family="Helvetica,sans-Serif" font-size="10.00">ostream</text>
</a>
</g>
</g>
<!-- Node13&#45;&gt;Node17 -->
<g id="edge21_Node000013_Node000017" class="edge">
<title>Node13&#45;&gt;Node17</title>
<g id="a_edge21_Node000013_Node000017"><a xlink:title=" ">
<path fill="none" stroke="#63b8ff" d="M521.57,-237.58C585.47,-233.97 683.18,-223.74 762.99,-195 798.91,-182.06 835.79,-156.86 857.26,-140.76"/>
<polygon fill="#63b8ff" stroke="#63b8ff" points="859.4,-143.53 865.22,-134.68 855.15,-137.97 859.4,-143.53"/>
</a>
</g>
</g>
<!-- Node18 -->
<g id="Node000018" class="node">
<title>Node18</title>
<g id="a_Node000018"><a xlink:title=" ">
<polygon fill="#e0e0e0" stroke="#999999" points="251.49,-195 198.49,-195 198.49,-176 251.49,-176 251.49,-195"/>
<text text-anchor="middle" x="224.99" y="-183" font-family="Helvetica,sans-Serif" font-size="10.00">iterator</text>
</a>
</g>
</g>
<!-- Node13&#45;&gt;Node18 -->
<g id="edge22_Node000013_Node000018" class="edge">
<title>Node13&#45;&gt;Node18</title>
<g id="a_edge22_Node000013_Node000018"><a xlink:title=" ">
<path fill="none" stroke="#63b8ff" d="M416.61,-230.94C379.77,-222.5 321.61,-209.12 261.73,-195.16"/>
<polygon fill="#63b8ff" stroke="#63b8ff" points="262.25,-191.69 251.72,-192.83 260.66,-198.51 262.25,-191.69"/>
</a>
</g>
</g>
<!-- Node19 -->
<g id="Node000019" class="node">
<title>Node19</title>
<g id="a_Node000019"><a xlink:title=" ">
<polygon fill="#e0e0e0" stroke="#999999" points="314.49,-195 269.49,-195 269.49,-176 314.49,-176 314.49,-195"/>
<text text-anchor="middle" x="291.99" y="-183" font-family="Helvetica,sans-Serif" font-size="10.00">utility</text>
</a>
</g>
</g>
<!-- Node13&#45;&gt;Node19 -->
<g id="edge23_Node000013_Node000019" class="edge">
<title>Node13&#45;&gt;Node19</title>
<g id="a_edge23_Node000013_Node000019"><a xlink:title=" ">
<path fill="none" stroke="#63b8ff" d="M427.96,-230.98C399.75,-221.76 354.71,-207.02 324.27,-197.06"/>
<polygon fill="#63b8ff" stroke="#63b8ff" points="325.15,-193.67 314.55,-193.88 322.97,-200.32 325.15,-193.67"/>
</a>
</g>
</g>
<!-- Node14&#45;&gt;Node2 -->
<g id="edge17_Node000014_Node000002" class="edge">
<title>Node14&#45;&gt;Node2</title>
<g id="a_edge17_Node000014_Node000002"><a xlink:title=" ">
<path fill="none" stroke="#63b8ff" d="M393.99,-175.94C393.99,-156.91 393.99,-110.69 393.99,-84.47"/>
<polygon fill="#63b8ff" stroke="#63b8ff" points="397.49,-84.3 393.99,-74.3 390.49,-84.3 397.49,-84.3"/>
</a>
</g>
</g>
<!-- Node14&#45;&gt;Node12 -->
<g id="edge18_Node000014_Node000012" class="edge">
<title>Node14&#45;&gt;Node12</title>
<g id="a_edge18_Node000014_Node000012"><a xlink:title=" ">
<path fill="none" stroke="#63b8ff" d="M427.72,-175.99C468.61,-165.68 537.61,-148.28 582.47,-136.97"/>
<polygon fill="#63b8ff" stroke="#63b8ff" points="583.37,-140.36 592.21,-134.52 581.66,-133.57 583.37,-140.36"/>
</a>
</g>
</g>
<!-- Node14&#45;&gt;Node15 -->
<g id="edge19_Node000014_Node000015" class="edge">
<title>Node14&#45;&gt;Node15</title>
<g id="a_edge19_Node000014_Node000015"><a xlink:title=" ">
<path fill="none" stroke="#63b8ff" d="M353.13,-175.99C299.33,-164.79 205.37,-145.23 152.34,-134.19"/>
<polygon fill="#63b8ff" stroke="#63b8ff" points="152.8,-130.71 142.3,-132.1 151.38,-137.57 152.8,-130.71"/>
</a>
</g>
</g>
<!-- Node21 -->
<g id="Node000021" class="node">
<title>Node21</title>
<g id="a_Node000021"><a xlink:href="sitkMemberFunctionFactoryBase_8h.html" target="_top" xlink:title=" ">
<polygon fill="white" stroke="#666666" points="1479.99,-140 1327.99,-140 1327.99,-110 1479.99,-110 1479.99,-140"/>
<text text-anchor="start" x="1335.99" y="-128" font-family="Helvetica,sans-Serif" font-size="10.00">sitkMemberFunctionFactory</text>
<text text-anchor="middle" x="1403.99" y="-117" font-family="Helvetica,sans-Serif" font-size="10.00">Base.h</text>
</a>
</g>
</g>
<!-- Node20&#45;&gt;Node21 -->
<g id="edge25_Node000020_Node000021" class="edge">
<title>Node20&#45;&gt;Node21</title>
<g id="a_edge25_Node000020_Node000021"><a xlink:title=" ">
<path fill="none" stroke="#63b8ff" d="M1253.58,-175.99C1279.24,-167.46 1319.49,-154.09 1351.89,-143.32"/>
<polygon fill="#63b8ff" stroke="#63b8ff" points="1353.29,-146.54 1361.67,-140.06 1351.08,-139.9 1353.29,-146.54"/>
</a>
</g>
</g>
<!-- Node26 -->
<g id="Node000026" class="node">
<title>Node26</title>
<g id="a_Node000026"><a xlink:title=" ">
<polygon fill="#e0e0e0" stroke="#999999" points="1202.49,-74 1063.49,-74 1063.49,-55 1202.49,-55 1202.49,-74"/>
<text text-anchor="middle" x="1132.99" y="-62" font-family="Helvetica,sans-Serif" font-size="10.00">Ancillary/FunctionTraits.h</text>
</a>
</g>
</g>
<!-- Node20&#45;&gt;Node26 -->
<g id="edge38_Node000020_Node000026" class="edge">
<title>Node20&#45;&gt;Node26</title>
<g id="a_edge38_Node000020_Node000026"><a xlink:title=" ">
<path fill="none" stroke="#63b8ff" d="M1221.15,-175.94C1205.55,-156.4 1167.06,-108.18 1146.48,-82.4"/>
<polygon fill="#63b8ff" stroke="#63b8ff" points="1148.99,-79.93 1140.01,-74.3 1143.52,-84.3 1148.99,-79.93"/>
</a>
</g>
</g>
<!-- Node21&#45;&gt;Node8 -->
<g id="edge26_Node000021_Node000008" class="edge">
<title>Node21&#45;&gt;Node8</title>
<g id="a_edge26_Node000021_Node000008"><a xlink:title=" ">
<path fill="none" stroke="#63b8ff" d="M1354.41,-109.97C1323.89,-100.82 1284.19,-88.01 1249.99,-74 1232.51,-66.84 1229.61,-61.77 1211.99,-55 1175.34,-40.93 1132.44,-29.3 1100.14,-21.46"/>
<polygon fill="#63b8ff" stroke="#63b8ff" points="1100.59,-17.97 1090.05,-19.05 1098.96,-24.78 1100.59,-17.97"/>
</a>
</g>
</g>
<!-- Node22 -->
<g id="Node000022" class="node">
<title>Node22</title>
<g id="a_Node000022"><a xlink:href="sitkPixelIDTypeLists_8h.html" target="_top" xlink:title=" ">
<polygon fill="white" stroke="#666666" points="1380.99,-74 1258.99,-74 1258.99,-55 1380.99,-55 1380.99,-74"/>
<text text-anchor="middle" x="1319.99" y="-62" font-family="Helvetica,sans-Serif" font-size="10.00">sitkPixelIDTypeLists.h</text>
</a>
</g>
</g>
<!-- Node21&#45;&gt;Node22 -->
<g id="edge27_Node000021_Node000022" class="edge">
<title>Node21&#45;&gt;Node22</title>
<g id="a_edge27_Node000021_Node000022"><a xlink:title=" ">
<path fill="none" stroke="#63b8ff" d="M1383.65,-109.84C1370.71,-100.83 1353.99,-89.18 1340.94,-80.09"/>
<polygon fill="#63b8ff" stroke="#63b8ff" points="1342.78,-77.11 1332.57,-74.27 1338.78,-82.85 1342.78,-77.11"/>
</a>
</g>
</g>
<!-- Node24 -->
<g id="Node000024" class="node">
<title>Node24</title>
<g id="a_Node000024"><a xlink:title=" ">
<polygon fill="#e0e0e0" stroke="#999999" points="1650.49,-19 1531.49,-19 1531.49,0 1650.49,0 1650.49,-19"/>
<text text-anchor="middle" x="1590.99" y="-7" font-family="Helvetica,sans-Serif" font-size="10.00">Ancillary/type_list2.h</text>
</a>
</g>
</g>
<!-- Node21&#45;&gt;Node24 -->
<g id="edge33_Node000021_Node000024" class="edge">
<title>Node21&#45;&gt;Node24</title>
<g id="a_edge33_Node000021_Node000024"><a xlink:title=" ">
<path fill="none" stroke="#63b8ff" d="M1480.24,-110.5C1548.51,-98.04 1638.68,-80.52 1643.99,-74 1657.97,-56.8 1635.82,-37.26 1616.03,-24.45"/>
<polygon fill="#63b8ff" stroke="#63b8ff" points="1617.6,-21.3 1607.24,-19.07 1613.94,-27.27 1617.6,-21.3"/>
</a>
</g>
</g>
<!-- Node21&#45;&gt;Node26 -->
<g id="edge34_Node000021_Node000026" class="edge">
<title>Node21&#45;&gt;Node26</title>
<g id="a_edge34_Node000021_Node000026"><a xlink:title=" ">
<path fill="none" stroke="#63b8ff" d="M1339.08,-109.99C1290.99,-99.61 1226.45,-85.68 1182.49,-76.19"/>
<polygon fill="#63b8ff" stroke="#63b8ff" points="1183.12,-72.74 1172.61,-74.05 1181.65,-79.58 1183.12,-72.74"/>
</a>
</g>
</g>
<!-- Node27 -->
<g id="Node000027" class="node">
<title>Node27</title>
<g id="a_Node000027"><a xlink:title=" ">
<polygon fill="#e0e0e0" stroke="#999999" points="1492.49,-74 1399.49,-74 1399.49,-55 1492.49,-55 1492.49,-74"/>
<text text-anchor="middle" x="1445.99" y="-62" font-family="Helvetica,sans-Serif" font-size="10.00">unordered_map</text>
</a>
</g>
</g>
<!-- Node21&#45;&gt;Node27 -->
<g id="edge35_Node000021_Node000027" class="edge">
<title>Node21&#45;&gt;Node27</title>
<g id="a_edge35_Node000021_Node000027"><a xlink:title=" ">
<path fill="none" stroke="#63b8ff" d="M1414.15,-109.84C1420.06,-101.61 1427.55,-91.18 1433.78,-82.51"/>
<polygon fill="#63b8ff" stroke="#63b8ff" points="1436.7,-84.43 1439.69,-74.27 1431.02,-80.35 1436.7,-84.43"/>
</a>
</g>
</g>
<!-- Node28 -->
<g id="Node000028" class="node">
<title>Node28</title>
<g id="a_Node000028"><a xlink:title=" ">
<polygon fill="#e0e0e0" stroke="#999999" points="1575.49,-74 1510.49,-74 1510.49,-55 1575.49,-55 1575.49,-74"/>
<text text-anchor="middle" x="1542.99" y="-62" font-family="Helvetica,sans-Serif" font-size="10.00">functional</text>
</a>
</g>
</g>
<!-- Node21&#45;&gt;Node28 -->
<g id="edge36_Node000021_Node000028" class="edge">
<title>Node21&#45;&gt;Node28</title>
<g id="a_edge36_Node000021_Node000028"><a xlink:title=" ">
<path fill="none" stroke="#63b8ff" d="M1437.28,-109.99C1460.37,-100.27 1490.85,-87.44 1513.15,-78.06"/>
<polygon fill="#63b8ff" stroke="#63b8ff" points="1514.6,-81.24 1522.46,-74.14 1511.88,-74.79 1514.6,-81.24"/>
</a>
</g>
</g>
<!-- Node29 -->
<g id="Node000029" class="node">
<title>Node29</title>
<g id="a_Node000029"><a xlink:title=" ">
<polygon fill="#e0e0e0" stroke="#999999" points="1634.49,-74 1593.49,-74 1593.49,-55 1634.49,-55 1634.49,-74"/>
<text text-anchor="middle" x="1613.99" y="-62" font-family="Helvetica,sans-Serif" font-size="10.00">tuple</text>
</a>
</g>
</g>
<!-- Node21&#45;&gt;Node29 -->
<g id="edge37_Node000021_Node000029" class="edge">
<title>Node21&#45;&gt;Node29</title>
<g id="a_edge37_Node000021_Node000029"><a xlink:title=" ">
<path fill="none" stroke="#63b8ff" d="M1455.54,-109.99C1489.52,-100.7 1535.25,-88.1 1583.68,-74.34"/>
<polygon fill="#63b8ff" stroke="#63b8ff" points="1584.74,-77.68 1593.4,-71.58 1582.83,-70.95 1584.74,-77.68"/>
</a>
</g>
</g>
<!-- Node22&#45;&gt;Node3 -->
<g id="edge28_Node000022_Node000003" class="edge">
<title>Node22&#45;&gt;Node3</title>
<g id="a_edge28_Node000022_Node000003"><a xlink:title=" ">
<path fill="none" stroke="#63b8ff" d="M1300.87,-54.98C1281.64,-46.42 1251.75,-33.11 1229.68,-23.28"/>
<polygon fill="#63b8ff" stroke="#63b8ff" points="1231.01,-20.04 1220.45,-19.17 1228.16,-26.44 1231.01,-20.04"/>
</a>
</g>
</g>
<!-- Node22&#45;&gt;Node8 -->
<g id="edge29_Node000022_Node000008" class="edge">
<title>Node22&#45;&gt;Node8</title>
<g id="a_edge29_Node000022_Node000008"><a xlink:title=" ">
<path fill="none" stroke="#63b8ff" d="M1276.77,-54.98C1229.94,-45.76 1155.17,-31.03 1104.63,-21.07"/>
<polygon fill="#63b8ff" stroke="#63b8ff" points="1105.03,-17.58 1094.54,-19.08 1103.68,-24.45 1105.03,-17.58"/>
</a>
</g>
</g>
<!-- Node23 -->
<g id="Node000023" class="node">
<title>Node23</title>
<g id="a_Node000023"><a xlink:href="sitkPixelIDTypes_8h.html" target="_top" xlink:title=" ">
<polygon fill="white" stroke="#666666" points="1457.49,-19 1352.49,-19 1352.49,0 1457.49,0 1457.49,-19"/>
<text text-anchor="middle" x="1404.99" y="-7" font-family="Helvetica,sans-Serif" font-size="10.00">sitkPixelIDTypes.h</text>
</a>
</g>
</g>
<!-- Node22&#45;&gt;Node23 -->
<g id="edge30_Node000022_Node000023" class="edge">
<title>Node22&#45;&gt;Node23</title>
<g id="a_edge30_Node000022_Node000023"><a xlink:title=" ">
<path fill="none" stroke="#63b8ff" d="M1333.64,-54.98C1346.82,-46.77 1367.01,-34.18 1382.56,-24.49"/>
<polygon fill="#63b8ff" stroke="#63b8ff" points="1384.45,-27.43 1391.08,-19.17 1380.74,-21.49 1384.45,-27.43"/>
</a>
</g>
</g>
<!-- Node22&#45;&gt;Node24 -->
<g id="edge31_Node000022_Node000024" class="edge">
<title>Node22&#45;&gt;Node24</title>
<g id="a_edge31_Node000022_Node000024"><a xlink:title=" ">
<path fill="none" stroke="#63b8ff" d="M1363.53,-54.98C1410.8,-45.74 1486.34,-30.97 1537.26,-21.01"/>
<polygon fill="#63b8ff" stroke="#63b8ff" points="1537.96,-24.44 1547.1,-19.08 1536.62,-17.57 1537.96,-24.44"/>
</a>
</g>
</g>
<!-- Node25 -->
<g id="Node000025" class="node">
<title>Node25</title>
<g id="a_Node000025"><a xlink:title=" ">
<polygon fill="#e0e0e0" stroke="#999999" points="1334.49,-19 1275.49,-19 1275.49,0 1334.49,0 1334.49,-19"/>
<text text-anchor="middle" x="1304.99" y="-7" font-family="Helvetica,sans-Serif" font-size="10.00">complex</text>
</a>
</g>
</g>
<!-- Node22&#45;&gt;Node25 -->
<g id="edge32_Node000022_Node000025" class="edge">
<title>Node22&#45;&gt;Node25</title>
<g id="a_edge32_Node000022_Node000025"><a xlink:title=" ">
<path fill="none" stroke="#63b8ff" d="M1317.51,-54.75C1315.52,-47.72 1312.66,-37.62 1310.18,-28.84"/>
<polygon fill="#63b8ff" stroke="#63b8ff" points="1313.51,-27.76 1307.42,-19.09 1306.77,-29.66 1313.51,-27.76"/>
</a>
</g>
</g>
<!-- Node30&#45;&gt;Node8 -->
<g id="edge40_Node000030_Node000008" class="edge">
<title>Node30&#45;&gt;Node8</title>
<g id="a_edge40_Node000030_Node000008"><a xlink:title=" ">
<path fill="none" stroke="#63b8ff" d="M966.09,-230.91C982.83,-223.87 1003.91,-212.23 1015.99,-195 1051.97,-143.67 1053.64,-65.37 1052.25,-29.57"/>
<polygon fill="#63b8ff" stroke="#63b8ff" points="1055.72,-28.96 1051.7,-19.16 1048.73,-29.32 1055.72,-28.96"/>
</a>
</g>
</g>
<!-- Node31 -->
<g id="Node000031" class="node">
<title>Node31</title>
<g id="a_Node000031"><a xlink:href="sitkPixelIDValues_8h.html" target="_top" xlink:title=" ">
<polygon fill="white" stroke="#666666" points="1172.99,-195 1062.99,-195 1062.99,-176 1172.99,-176 1172.99,-195"/>
<text text-anchor="middle" x="1117.99" y="-183" font-family="Helvetica,sans-Serif" font-size="10.00">sitkPixelIDValues.h</text>
</a>
</g>
</g>
<!-- Node30&#45;&gt;Node31 -->
<g id="edge41_Node000030_Node000031" class="edge">
<title>Node30&#45;&gt;Node31</title>
<g id="a_edge41_Node000030_Node000031"><a xlink:title=" ">
<path fill="none" stroke="#63b8ff" d="M969.42,-230.98C999.27,-222.05 1046.37,-207.94 1079.52,-198.02"/>
<polygon fill="#63b8ff" stroke="#63b8ff" points="1080.75,-201.3 1089.33,-195.08 1078.74,-194.6 1080.75,-201.3"/>
</a>
</g>
</g>
<!-- Node30&#45;&gt;Node32 -->
<g id="edge46_Node000030_Node000032" class="edge">
<title>Node30&#45;&gt;Node32</title>
<g id="a_edge46_Node000030_Node000032"><a xlink:title=" ">
<path fill="none" stroke="#63b8ff" d="M931.67,-230.98C923.18,-223.23 910.43,-211.58 900.1,-202.14"/>
<polygon fill="#63b8ff" stroke="#63b8ff" points="902.22,-199.33 892.47,-195.17 897.5,-204.5 902.22,-199.33"/>
</a>
</g>
</g>
<!-- Node31&#45;&gt;Node10 -->
<g id="edge44_Node000031_Node000010" class="edge">
<title>Node31&#45;&gt;Node10</title>
<g id="a_edge44_Node000031_Node000010"><a xlink:title=" ">
<path fill="none" stroke="#63b8ff" d="M1173.3,-177.22C1176.58,-176.8 1179.82,-176.39 1182.99,-176 1318.88,-159.12 1357.03,-176.61 1488.99,-140 1490.67,-139.53 1492.38,-138.99 1494.08,-138.39"/>
<polygon fill="#63b8ff" stroke="#63b8ff" points="1495.65,-141.53 1503.61,-134.53 1493.02,-135.04 1495.65,-141.53"/>
</a>
</g>
</g>
<!-- Node31&#45;&gt;Node12 -->
<g id="edge42_Node000031_Node000012" class="edge">
<title>Node31&#45;&gt;Node12</title>
<g id="a_edge42_Node000031_Node000012"><a xlink:title=" ">
<path fill="none" stroke="#63b8ff" d="M1062.98,-177.96C968.12,-166.68 774.85,-143.7 680.4,-132.47"/>
<polygon fill="#63b8ff" stroke="#63b8ff" points="680.55,-128.96 670.21,-131.26 679.72,-135.91 680.55,-128.96"/>
</a>
</g>
</g>
<!-- Node31&#45;&gt;Node17 -->
<g id="edge45_Node000031_Node000017" class="edge">
<title>Node31&#45;&gt;Node17</title>
<g id="a_edge45_Node000031_Node000017"><a xlink:title=" ">
<path fill="none" stroke="#63b8ff" d="M1082.8,-175.99C1038.07,-165.18 961.11,-146.58 914.75,-135.37"/>
<polygon fill="#63b8ff" stroke="#63b8ff" points="915.32,-131.91 904.78,-132.96 913.67,-138.71 915.32,-131.91"/>
</a>
</g>
</g>
<!-- Node31&#45;&gt;Node22 -->
<g id="edge43_Node000031_Node000022" class="edge">
<title>Node31&#45;&gt;Node22</title>
<g id="a_edge43_Node000031_Node000022"><a xlink:title=" ">
<path fill="none" stroke="#63b8ff" d="M1132.51,-175.94C1167.08,-155.58 1254.47,-104.1 1296.58,-79.29"/>
<polygon fill="#63b8ff" stroke="#63b8ff" points="1298.48,-82.23 1305.32,-74.14 1294.93,-76.2 1298.48,-82.23"/>
</a>
</g>
</g>
<!-- Node33&#45;&gt;Node12 -->
<g id="edge48_Node000033_Node000012" class="edge">
<title>Node33&#45;&gt;Node12</title>
<g id="a_edge48_Node000033_Node000012"><a xlink:title=" ">
<path fill="none" stroke="#63b8ff" d="M692.48,-175.87C680.15,-166.62 660.37,-151.78 645.58,-140.69"/>
<polygon fill="#63b8ff" stroke="#63b8ff" points="647.64,-137.87 637.54,-134.67 643.44,-143.47 647.64,-137.87"/>
</a>
</g>
</g>
<!-- Node33&#45;&gt;Node17 -->
<g id="edge49_Node000033_Node000017" class="edge">
<title>Node33&#45;&gt;Node17</title>
<g id="a_edge49_Node000033_Node000017"><a xlink:title=" ">
<path fill="none" stroke="#63b8ff" d="M729,-175.99C758.55,-165.94 807.9,-149.16 841.17,-137.84"/>
<polygon fill="#63b8ff" stroke="#63b8ff" points="842.61,-141.05 850.95,-134.52 840.35,-134.42 842.61,-141.05"/>
</a>
</g>
</g>
<!-- Node34&#45;&gt;Node20 -->
<g id="edge54_Node000034_Node000020" class="edge">
<title>Node34&#45;&gt;Node20</title>
<g id="a_edge54_Node000034_Node000020"><a xlink:title=" ">
<path fill="none" stroke="#63b8ff" d="M1227.99,-230.75C1227.99,-223.8 1227.99,-213.85 1227.99,-205.13"/>
<polygon fill="#63b8ff" stroke="#63b8ff" points="1231.49,-205.09 1227.99,-195.09 1224.49,-205.09 1231.49,-205.09"/>
</a>
</g>
</g>
<!-- Node34&#45;&gt;Node21 -->
<g id="edge55_Node000034_Node000021" class="edge">
<title>Node34&#45;&gt;Node21</title>
<g id="a_edge55_Node000034_Node000021"><a xlink:title=" ">
<path fill="none" stroke="#63b8ff" d="M1307.71,-235.06C1367.9,-229.84 1443.38,-218.66 1462.99,-195 1476.89,-178.22 1458.57,-159.44 1438.77,-145.71"/>
<polygon fill="#63b8ff" stroke="#63b8ff" points="1440.57,-142.71 1430.29,-140.16 1436.74,-148.57 1440.57,-142.71"/>
</a>
</g>
</g>
<!-- Node34&#45;&gt;Node31 -->
<g id="edge56_Node000034_Node000031" class="edge">
<title>Node34&#45;&gt;Node31</title>
<g id="a_edge56_Node000034_Node000031"><a xlink:title=" ">
<path fill="none" stroke="#63b8ff" d="M1210.31,-230.98C1192.7,-222.5 1165.41,-209.35 1145.06,-199.54"/>
<polygon fill="#63b8ff" stroke="#63b8ff" points="1146.51,-196.36 1135.98,-195.17 1143.47,-202.66 1146.51,-196.36"/>
</a>
</g>
</g>
<!-- Node35 -->
<g id="Node000035" class="node">
<title>Node35</title>
<g id="a_Node000035"><a xlink:title=" ">
<polygon fill="#e0e0e0" stroke="#999999" points="1453.49,-195 1282.49,-195 1282.49,-176 1453.49,-176 1453.49,-195"/>
<text text-anchor="middle" x="1367.99" y="-183" font-family="Helvetica,sans-Serif" font-size="10.00">sitkMemberFunctionFactory.hxx</text>
</a>
</g>
</g>
<!-- Node34&#45;&gt;Node35 -->
<g id="edge57_Node000034_Node000035" class="edge">
<title>Node34&#45;&gt;Node35</title>
<g id="a_edge57_Node000034_Node000035"><a xlink:title=" ">
<path fill="none" stroke="#63b8ff" d="M1250.48,-230.98C1273.51,-222.27 1309.53,-208.63 1335.62,-198.75"/>
<polygon fill="#63b8ff" stroke="#63b8ff" points="1336.97,-201.98 1345.08,-195.17 1334.49,-195.44 1336.97,-201.98"/>
</a>
</g>
</g>
<!-- Node36&#45;&gt;Node2 -->
<g id="edge59_Node000036_Node000002" class="edge">
<title>Node36&#45;&gt;Node2</title>
<g id="a_edge59_Node000036_Node000002"><a xlink:title=" ">
<path fill="none" stroke="#63b8ff" d="M55.99,-395.82C55.99,-377.48 55.99,-333.44 55.99,-296.5 55.99,-296.5 55.99,-296.5 55.99,-184.5 55.99,-150.33 49.52,-132.78 74.99,-110 114.17,-74.94 267.93,-67.38 346.78,-65.83"/>
<polygon fill="#63b8ff" stroke="#63b8ff" points="347,-69.33 356.94,-65.66 346.88,-62.33 347,-69.33"/>
</a>
</g>
</g>
<!-- Node37&#45;&gt;Node11 -->
<g id="edge68_Node000037_Node000011" class="edge">
<title>Node37&#45;&gt;Node11</title>
<g id="a_edge68_Node000037_Node000011"><a xlink:title=" ">
<path fill="none" stroke="#63b8ff" d="M611.13,-395.61C617.45,-382.66 630.39,-358.3 645.99,-341 656.31,-329.54 669.9,-318.94 681.33,-310.95"/>
<polygon fill="#63b8ff" stroke="#63b8ff" points="683.6,-313.65 689.93,-305.15 679.69,-307.84 683.6,-313.65"/>
</a>
</g>
</g>
<!-- Node37&#45;&gt;Node12 -->
<g id="edge61_Node000037_Node000012" class="edge">
<title>Node37&#45;&gt;Node12</title>
<g id="a_edge61_Node000037_Node000012"><a xlink:title=" ">
<path fill="none" stroke="#63b8ff" d="M604.42,-395.91C599.24,-377.74 587.99,-334 587.99,-296.5 587.99,-296.5 587.99,-296.5 587.99,-239.5 587.99,-203.98 604.93,-165.29 616.19,-143.5"/>
<polygon fill="#63b8ff" stroke="#63b8ff" points="619.37,-144.97 621.02,-134.5 613.21,-141.66 619.37,-144.97"/>
</a>
</g>
</g>
<!-- Node37&#45;&gt;Node13 -->
<g id="edge64_Node000037_Node000013" class="edge">
<title>Node37&#45;&gt;Node13</title>
<g id="a_edge64_Node000037_Node000013"><a xlink:title=" ">
<path fill="none" stroke="#63b8ff" d="M598.76,-395.74C574.27,-369.65 501.55,-292.17 469.48,-258"/>
<polygon fill="#63b8ff" stroke="#63b8ff" points="471.65,-255.2 462.25,-250.31 466.55,-259.99 471.65,-255.2"/>
</a>
</g>
</g>
<!-- Node38 -->
<g id="Node000038" class="node">
<title>Node38</title>
<g id="a_Node000038"><a xlink:href="sitkNonCopyable_8h.html" target="_top" xlink:title=" ">
<polygon fill="white" stroke="#666666" points="881.49,-305 772.49,-305 772.49,-286 881.49,-286 881.49,-305"/>
<text text-anchor="middle" x="826.99" y="-293" font-family="Helvetica,sans-Serif" font-size="10.00">sitkNonCopyable.h</text>
</a>
</g>
</g>
<!-- Node37&#45;&gt;Node38 -->
<g id="edge62_Node000037_Node000038" class="edge">
<title>Node37&#45;&gt;Node38</title>
<g id="a_edge62_Node000037_Node000038"><a xlink:title=" ">
<path fill="none" stroke="#63b8ff" d="M663.5,-398.95C698.48,-393.38 743.04,-382.23 776.99,-360 794.53,-348.51 808.64,-328.78 817.34,-314.36"/>
<polygon fill="#63b8ff" stroke="#63b8ff" points="820.54,-315.8 822.47,-305.39 814.47,-312.33 820.54,-315.8"/>
</a>
</g>
</g>
<!-- Node39 -->
<g id="Node000039" class="node">
<title>Node39</title>
<g id="a_Node000039"><a xlink:href="sitkEvent_8h.html" target="_top" xlink:title=" ">
<polygon fill="white" stroke="#666666" points="1006.49,-195 935.49,-195 935.49,-176 1006.49,-176 1006.49,-195"/>
<text text-anchor="middle" x="970.99" y="-183" font-family="Helvetica,sans-Serif" font-size="10.00">sitkEvent.h</text>
</a>
</g>
</g>
<!-- Node37&#45;&gt;Node39 -->
<g id="edge65_Node000037_Node000039" class="edge">
<title>Node37&#45;&gt;Node39</title>
<g id="a_edge65_Node000037_Node000039"><a xlink:title=" ">
<path fill="none" stroke="#63b8ff" d="M661.36,-395.96C700.66,-388.83 754.6,-377.06 799.99,-360 896.77,-323.62 951.9,-338.73 1004.99,-250 1014.45,-234.18 1001.74,-215.53 989.26,-202.55"/>
<polygon fill="#63b8ff" stroke="#63b8ff" points="991.34,-199.69 981.71,-195.27 986.48,-204.73 991.34,-199.69"/>
</a>
</g>
</g>
<!-- Node40 -->
<g id="Node000040" class="node">
<title>Node40</title>
<g id="a_Node000040"><a xlink:href="sitkImageConvert_8h.html" target="_top" xlink:title=" ">
<polygon fill="white" stroke="#666666" points="767.49,-360 654.49,-360 654.49,-341 767.49,-341 767.49,-360"/>
<text text-anchor="middle" x="710.99" y="-348" font-family="Helvetica,sans-Serif" font-size="10.00">sitkImageConvert.h</text>
</a>
</g>
</g>
<!-- Node37&#45;&gt;Node40 -->
<g id="edge69_Node000037_Node000040" class="edge">
<title>Node37&#45;&gt;Node40</title>
<g id="a_edge69_Node000037_Node000040"><a xlink:title=" ">
<path fill="none" stroke="#63b8ff" d="M623.7,-395.98C640.2,-387.57 665.68,-374.59 684.87,-364.81"/>
<polygon fill="#63b8ff" stroke="#63b8ff" points="686.65,-367.83 693.97,-360.17 683.47,-361.59 686.65,-367.83"/>
</a>
</g>
</g>
<!-- Node41 -->
<g id="Node000041" class="node">
<title>Node41</title>
<g id="a_Node000041"><a xlink:title=" ">
<polygon fill="#e0e0e0" stroke="#999999" points="471.99,-360 411.99,-360 411.99,-341 471.99,-341 471.99,-360"/>
<text text-anchor="middle" x="441.99" y="-348" font-family="Helvetica,sans-Serif" font-size="10.00">iostream</text>
</a>
</g>
</g>
<!-- Node37&#45;&gt;Node41 -->
<g id="edge71_Node000037_Node000041" class="edge">
<title>Node37&#45;&gt;Node41</title>
<g id="a_edge71_Node000037_Node000041"><a xlink:title=" ">
<path fill="none" stroke="#63b8ff" d="M580.48,-395.98C552.77,-387.09 509.13,-373.07 478.25,-363.15"/>
<polygon fill="#63b8ff" stroke="#63b8ff" points="479.3,-359.81 468.7,-360.08 477.15,-366.47 479.3,-359.81"/>
</a>
</g>
</g>
<!-- Node42 -->
<g id="Node000042" class="node">
<title>Node42</title>
<g id="a_Node000042"><a xlink:title=" ">
<polygon fill="#e0e0e0" stroke="#999999" points="521.99,-360 489.99,-360 489.99,-341 521.99,-341 521.99,-360"/>
<text text-anchor="middle" x="505.99" y="-348" font-family="Helvetica,sans-Serif" font-size="10.00">list</text>
</a>
</g>
</g>
<!-- Node37&#45;&gt;Node42 -->
<g id="edge72_Node000037_Node000042" class="edge">
<title>Node37&#45;&gt;Node42</title>
<g id="a_edge72_Node000037_Node000042"><a xlink:title=" ">
<path fill="none" stroke="#63b8ff" d="M590.76,-395.98C574.71,-387.56 549.91,-374.55 531.28,-364.77"/>
<polygon fill="#63b8ff" stroke="#63b8ff" points="532.65,-361.54 522.17,-359.99 529.4,-367.74 532.65,-361.54"/>
</a>
</g>
</g>
<!-- Node38&#45;&gt;Node12 -->
<g id="edge63_Node000038_Node000012" class="edge">
<title>Node38&#45;&gt;Node12</title>
<g id="a_edge63_Node000038_Node000012"><a xlink:title=" ">
<path fill="none" stroke="#63b8ff" d="M824.7,-286C818.48,-264.48 799.25,-207.34 762.99,-176 739.61,-155.8 707.4,-143.49 680.08,-136.15"/>
<polygon fill="#63b8ff" stroke="#63b8ff" points="680.82,-132.73 670.26,-133.66 679.1,-139.51 680.82,-132.73"/>
</a>
</g>
</g>
<!-- Node39&#45;&gt;Node12 -->
<g id="edge66_Node000039_Node000012" class="edge">
<title>Node39&#45;&gt;Node12</title>
<g id="a_edge66_Node000039_Node000012"><a xlink:title=" ">
<path fill="none" stroke="#63b8ff" d="M935.46,-177.55C932.59,-177.02 929.74,-176.5 926.99,-176 840.86,-160.53 740.55,-144.21 680.22,-134.57"/>
<polygon fill="#63b8ff" stroke="#63b8ff" points="680.59,-131.09 670.17,-132.97 679.49,-138 680.59,-131.09"/>
</a>
</g>
</g>
<!-- Node39&#45;&gt;Node17 -->
<g id="edge67_Node000039_Node000017" class="edge">
<title>Node39&#45;&gt;Node17</title>
<g id="a_edge67_Node000039_Node000017"><a xlink:title=" ">
<path fill="none" stroke="#63b8ff" d="M956.97,-175.87C941.67,-166.45 916.95,-151.23 898.84,-140.08"/>
<polygon fill="#63b8ff" stroke="#63b8ff" points="900.41,-136.93 890.06,-134.67 896.74,-142.89 900.41,-136.93"/>
</a>
</g>
</g>
<!-- Node40&#45;&gt;Node11 -->
<g id="edge70_Node000040_Node000011" class="edge">
<title>Node40&#45;&gt;Node11</title>
<g id="a_edge70_Node000040_Node000011"><a xlink:title=" ">
<path fill="none" stroke="#63b8ff" d="M709.83,-340.75C708.91,-333.8 707.6,-323.85 706.45,-315.13"/>
<polygon fill="#63b8ff" stroke="#63b8ff" points="709.9,-314.54 705.12,-305.09 702.96,-315.46 709.9,-314.54"/>
</a>
</g>
</g>
</g>
</svg>
