<?xml version="1.0" encoding="UTF-8" standalone="no"?>
<!DOCTYPE svg PUBLIC "-//W3C//DTD SVG 1.1//EN"
 "http://www.w3.org/Graphics/SVG/1.1/DTD/svg11.dtd">
<!-- Generated by graphviz version 2.43.0 (0)
 -->
<!-- Title: sitkTransformixImageFilter.h Pages: 1 -->
<!--zoomable 423 -->

<svg id="main" version="1.1" xmlns="http://www.w3.org/2000/svg" xmlns:xlink="http://www.w3.org/1999/xlink" xml:space="preserve" onload="init(evt)">

<style type="text/css"><![CDATA[
.node, .edge {opacity: 0.7;}
.node.selected, .edge.selected {opacity: 1;}
.edge:hover path { stroke: red; }
.edge:hover polygon { stroke: red; fill: red; }
]]></style>

<defs>
  <circle id="rim" cx="0" cy="0" r="7"/>
  <circle id="rim2" cx="0" cy="0" r="3.5"/>
  <g id="zoomPlus">
    <use xlink:href="#rim" fill="#404040"><set attributeName="fill" to="#808080" begin="zoomplus.mouseover" end="zoomplus.mouseout"/></use>
    <path d="M-4,0h8M0,-4v8" fill="none" stroke="white" stroke-width="1.5" pointer-events="none"/>
  </g>
  <g id="zoomMin">
    <use xlink:href="#rim" fill="#404040"><set attributeName="fill" to="#808080" begin="zoomminus.mouseover" end="zoomminus.mouseout"/></use>
    <path d="M-4,0h8" fill="none" stroke="white" stroke-width="1.5" pointer-events="none"/>
  </g>
  <g id="arrowUp" transform="translate(30 24)">
    <use xlink:href="#rim"/>
    <path pointer-events="none" fill="none" stroke="white" stroke-width="1.5" d="M0,-3.0v7 M-2.5,-0.5L0,-3.0L2.5,-0.5"/>
  </g>
  <g id="arrowRight" transform="rotate(90) translate(36 -43)">
    <use xlink:href="#rim"/>
    <path pointer-events="none" fill="none" stroke="white" stroke-width="1.5" d="M0,-3.0v7 M-2.5,-0.5L0,-3.0L2.5,-0.5"/>
  </g>
  <g id="arrowDown" transform="rotate(180) translate(-30 -48)">
    <use xlink:href="#rim"/>
    <path pointer-events="none" fill="none" stroke="white" stroke-width="1.5" d="M0,-3.0v7 M-2.5,-0.5L0,-3.0L2.5,-0.5"/>
  </g>
  <g id="arrowLeft" transform="rotate(270) translate(-36 17)">
    <use xlink:href="#rim"/>
    <path pointer-events="none" fill="none" stroke="white" stroke-width="1.5" d="M0,-3.0v7 M-2.5,-0.5L0,-3.0L2.5,-0.5"/>
  </g>
  <g id="resetDef">
    <use xlink:href="#rim2" fill="#404040"><set attributeName="fill" to="#808080" begin="reset.mouseover" end="reset.mouseout"/></use>
  </g>
</defs>
<script type="application/ecmascript">
var viewWidth = 1912;
var viewHeight = 423;
var sectionId = 'dynsection-0';
</script>
<script type="application/ecmascript" xlink:href="svg.min.js"/>
<svg id="graph" class="graph">
<g id="viewport">
<title>sitkTransformixImageFilter.h</title>
<!-- Node1 -->
<g id="Node000001" class="node">
<title>Node1</title>
<g id="a_Node000001"><a xlink:title=" ">
<polygon fill="#999999" stroke="#666666" points="374.5,-415 218.5,-415 218.5,-396 374.5,-396 374.5,-415"/>
<text text-anchor="middle" x="296.5" y="-403" font-family="Helvetica,sans-Serif" font-size="10.00">sitkTransformixImageFilter.h</text>
</a>
</g>
</g>
<!-- Node2 -->
<g id="Node000002" class="node">
<title>Node2</title>
<g id="a_Node000002"><a xlink:href="sitkElastixTransformixWrappers_8h.html" target="_top" xlink:title=" ">
<polygon fill="white" stroke="#666666" points="181,-360 0,-360 0,-341 181,-341 181,-360"/>
<text text-anchor="middle" x="90.5" y="-348" font-family="Helvetica,sans-Serif" font-size="10.00">sitkElastixTransformixWrappers.h</text>
</a>
</g>
</g>
<!-- Node1&#45;&gt;Node2 -->
<g id="edge1_Node000001_Node000002" class="edge">
<title>Node1&#45;&gt;Node2</title>
<g id="a_edge1_Node000001_Node000002"><a xlink:title=" ">
<path fill="none" stroke="#63b8ff" d="M263.4,-395.98C228.22,-386.93 172.43,-372.58 133.78,-362.64"/>
<polygon fill="#63b8ff" stroke="#63b8ff" points="134.41,-359.18 123.86,-360.08 132.67,-365.96 134.41,-359.18"/>
</a>
</g>
</g>
<!-- Node10 -->
<g id="Node000010" class="node">
<title>Node10</title>
<g id="a_Node000010"><a xlink:href="sitkCommon_8h.html" target="_top" xlink:title=" ">
<polygon fill="white" stroke="#666666" points="772.5,-129 684.5,-129 684.5,-110 772.5,-110 772.5,-129"/>
<text text-anchor="middle" x="728.5" y="-117" font-family="Helvetica,sans-Serif" font-size="10.00">sitkCommon.h</text>
</a>
</g>
</g>
<!-- Node1&#45;&gt;Node10 -->
<g id="edge9_Node000001_Node000010" class="edge">
<title>Node1&#45;&gt;Node10</title>
<g id="a_edge9_Node000001_Node000010"><a xlink:title=" ">
<path fill="none" stroke="#63b8ff" d="M287.23,-395.83C278.8,-387.43 266.62,-373.96 259.5,-360 231.15,-304.39 208.55,-267.95 248.5,-220 302.44,-155.24 560.25,-131.13 674.17,-123.53"/>
<polygon fill="#63b8ff" stroke="#63b8ff" points="674.65,-127.01 684.41,-122.87 674.2,-120.02 674.65,-127.01"/>
</a>
</g>
</g>
<!-- Node11 -->
<g id="Node000011" class="node">
<title>Node11</title>
<g id="a_Node000011"><a xlink:href="sitkImage_8h.html" target="_top" xlink:title=" ">
<polygon fill="white" stroke="#666666" points="817.5,-360 743.5,-360 743.5,-341 817.5,-341 817.5,-360"/>
<text text-anchor="middle" x="780.5" y="-348" font-family="Helvetica,sans-Serif" font-size="10.00">sitkImage.h</text>
</a>
</g>
</g>
<!-- Node1&#45;&gt;Node11 -->
<g id="edge11_Node000001_Node000011" class="edge">
<title>Node1&#45;&gt;Node11</title>
<g id="a_edge11_Node000001_Node000011"><a xlink:title=" ">
<path fill="none" stroke="#63b8ff" d="M374.26,-395.98C475.72,-384.88 650.09,-365.78 733.45,-356.65"/>
<polygon fill="#63b8ff" stroke="#63b8ff" points="733.83,-360.13 743.39,-355.56 733.07,-353.17 733.83,-360.13"/>
</a>
</g>
</g>
<!-- Node14 -->
<g id="Node000014" class="node">
<title>Node14</title>
<g id="a_Node000014"><a xlink:title=" ">
<polygon fill="#e0e0e0" stroke="#999999" points="553.5,-184 495.5,-184 495.5,-165 553.5,-165 553.5,-184"/>
<text text-anchor="middle" x="524.5" y="-172" font-family="Helvetica,sans-Serif" font-size="10.00">memory</text>
</a>
</g>
</g>
<!-- Node1&#45;&gt;Node14 -->
<g id="edge58_Node000001_Node000014" class="edge">
<title>Node1&#45;&gt;Node14</title>
<g id="a_edge58_Node000001_Node000014"><a xlink:title=" ">
<path fill="none" stroke="#63b8ff" d="M290.98,-395.92C273.26,-367.23 221.55,-273.36 266.5,-220 280.46,-203.43 416.8,-186.85 485.44,-179.47"/>
<polygon fill="#63b8ff" stroke="#63b8ff" points="485.87,-182.95 495.45,-178.41 485.14,-175.99 485.87,-182.95"/>
</a>
</g>
</g>
<!-- Node15 -->
<g id="Node000015" class="node">
<title>Node15</title>
<g id="a_Node000015"><a xlink:title=" ">
<polygon fill="#e0e0e0" stroke="#999999" points="323,-244.5 276,-244.5 276,-225.5 323,-225.5 323,-244.5"/>
<text text-anchor="middle" x="299.5" y="-232.5" font-family="Helvetica,sans-Serif" font-size="10.00">vector</text>
</a>
</g>
</g>
<!-- Node1&#45;&gt;Node15 -->
<g id="edge60_Node000001_Node000015" class="edge">
<title>Node1&#45;&gt;Node15</title>
<g id="a_edge60_Node000001_Node000015"><a xlink:title=" ">
<path fill="none" stroke="#63b8ff" d="M296.65,-395.91C297.12,-369.89 298.51,-291.47 299.16,-255.01"/>
<polygon fill="#63b8ff" stroke="#63b8ff" points="302.67,-254.83 299.34,-244.77 295.67,-254.71 302.67,-254.83"/>
</a>
</g>
</g>
<!-- Node32 -->
<g id="Node000032" class="node">
<title>Node32</title>
<g id="a_Node000032"><a xlink:title=" ">
<polygon fill="#e0e0e0" stroke="#999999" points="1782.5,-184 1738.5,-184 1738.5,-165 1782.5,-165 1782.5,-184"/>
<text text-anchor="middle" x="1760.5" y="-172" font-family="Helvetica,sans-Serif" font-size="10.00">string</text>
</a>
</g>
</g>
<!-- Node1&#45;&gt;Node32 -->
<g id="edge59_Node000001_Node000032" class="edge">
<title>Node1&#45;&gt;Node32</title>
<g id="a_edge59_Node000001_Node000032"><a xlink:title=" ">
<path fill="none" stroke="#63b8ff" d="M374.57,-404.15C618.49,-402.19 1363.42,-389.28 1587.5,-305 1654.3,-279.88 1717.35,-220.59 1745.34,-191.78"/>
<polygon fill="#63b8ff" stroke="#63b8ff" points="1748.2,-193.85 1752.57,-184.2 1743.13,-189.02 1748.2,-193.85"/>
</a>
</g>
</g>
<!-- Node35 -->
<g id="Node000035" class="node">
<title>Node35</title>
<g id="a_Node000035"><a xlink:title=" ">
<polygon fill="#e0e0e0" stroke="#999999" points="1684.5,-360 1646.5,-360 1646.5,-341 1684.5,-341 1684.5,-360"/>
<text text-anchor="middle" x="1665.5" y="-348" font-family="Helvetica,sans-Serif" font-size="10.00">map</text>
</a>
</g>
</g>
<!-- Node1&#45;&gt;Node35 -->
<g id="edge57_Node000001_Node000035" class="edge">
<title>Node1&#45;&gt;Node35</title>
<g id="a_edge57_Node000001_Node000035"><a xlink:title=" ">
<path fill="none" stroke="#63b8ff" d="M374.9,-404.14C622.75,-402.64 1387.42,-395.21 1632.5,-360 1633.78,-359.82 1635.09,-359.6 1636.41,-359.36"/>
<polygon fill="#63b8ff" stroke="#63b8ff" points="1637.43,-362.72 1646.45,-357.16 1635.93,-355.88 1637.43,-362.72"/>
</a>
</g>
</g>
<!-- Node3 -->
<g id="Node000003" class="node">
<title>Node3</title>
<g id="a_Node000003"><a xlink:href="sitkMacro_8h.html" target="_top" xlink:title=" ">
<polygon fill="white" stroke="#666666" points="765.5,-74 691.5,-74 691.5,-55 765.5,-55 765.5,-74"/>
<text text-anchor="middle" x="728.5" y="-62" font-family="Helvetica,sans-Serif" font-size="10.00">sitkMacro.h</text>
</a>
</g>
</g>
<!-- Node2&#45;&gt;Node3 -->
<g id="edge2_Node000002_Node000003" class="edge">
<title>Node2&#45;&gt;Node3</title>
<g id="a_edge2_Node000002_Node000003"><a xlink:title=" ">
<path fill="none" stroke="#63b8ff" d="M96.03,-340.77C107.22,-322.24 131.5,-277.27 131.5,-236 131.5,-236 131.5,-236 131.5,-173.5 131.5,-117.75 539.77,-80.35 681.06,-69.07"/>
<polygon fill="#63b8ff" stroke="#63b8ff" points="681.46,-72.55 691.15,-68.28 680.91,-65.58 681.46,-72.55"/>
</a>
</g>
</g>
<!-- Node4 -->
<g id="Node000004" class="node">
<title>Node4</title>
<g id="a_Node000004"><a xlink:title=" ">
<polygon fill="#e0e0e0" stroke="#999999" points="1175,-19 1122,-19 1122,0 1175,0 1175,-19"/>
<text text-anchor="middle" x="1148.5" y="-7" font-family="Helvetica,sans-Serif" font-size="10.00">stdint.h</text>
</a>
</g>
</g>
<!-- Node3&#45;&gt;Node4 -->
<g id="edge3_Node000003_Node000004" class="edge">
<title>Node3&#45;&gt;Node4</title>
<g id="a_edge3_Node000003_Node000004"><a xlink:title=" ">
<path fill="none" stroke="#63b8ff" d="M765.77,-58.8C845.7,-48.71 1032.74,-25.11 1111.99,-15.11"/>
<polygon fill="#63b8ff" stroke="#63b8ff" points="1112.51,-18.57 1121.99,-13.85 1111.63,-11.63 1112.51,-18.57"/>
</a>
</g>
</g>
<!-- Node5 -->
<g id="Node000005" class="node">
<title>Node5</title>
<g id="a_Node000005"><a xlink:title=" ">
<polygon fill="#e0e0e0" stroke="#999999" points="648.5,-19 592.5,-19 592.5,0 648.5,0 648.5,-19"/>
<text text-anchor="middle" x="620.5" y="-7" font-family="Helvetica,sans-Serif" font-size="10.00">stddef.h</text>
</a>
</g>
</g>
<!-- Node3&#45;&gt;Node5 -->
<g id="edge4_Node000003_Node000005" class="edge">
<title>Node3&#45;&gt;Node5</title>
<g id="a_edge4_Node000003_Node000005"><a xlink:title=" ">
<path fill="none" stroke="#63b8ff" d="M711.15,-54.98C693.93,-46.54 667.3,-33.47 647.35,-23.68"/>
<polygon fill="#63b8ff" stroke="#63b8ff" points="648.69,-20.43 638.17,-19.17 645.6,-26.72 648.69,-20.43"/>
</a>
</g>
</g>
<!-- Node6 -->
<g id="Node000006" class="node">
<title>Node6</title>
<g id="a_Node000006"><a xlink:title=" ">
<polygon fill="#e0e0e0" stroke="#999999" points="718.5,-19 666.5,-19 666.5,0 718.5,0 718.5,-19"/>
<text text-anchor="middle" x="692.5" y="-7" font-family="Helvetica,sans-Serif" font-size="10.00">cassert</text>
</a>
</g>
</g>
<!-- Node3&#45;&gt;Node6 -->
<g id="edge5_Node000003_Node000006" class="edge">
<title>Node3&#45;&gt;Node6</title>
<g id="a_edge5_Node000003_Node000006"><a xlink:title=" ">
<path fill="none" stroke="#63b8ff" d="M722.56,-54.75C717.52,-47.34 710.16,-36.5 703.99,-27.41"/>
<polygon fill="#63b8ff" stroke="#63b8ff" points="706.85,-25.39 698.33,-19.09 701.06,-29.33 706.85,-25.39"/>
</a>
</g>
</g>
<!-- Node7 -->
<g id="Node000007" class="node">
<title>Node7</title>
<g id="a_Node000007"><a xlink:title=" ">
<polygon fill="#e0e0e0" stroke="#999999" points="792.5,-19 736.5,-19 736.5,0 792.5,0 792.5,-19"/>
<text text-anchor="middle" x="764.5" y="-7" font-family="Helvetica,sans-Serif" font-size="10.00">sstream</text>
</a>
</g>
</g>
<!-- Node3&#45;&gt;Node7 -->
<g id="edge6_Node000003_Node000007" class="edge">
<title>Node3&#45;&gt;Node7</title>
<g id="a_edge6_Node000003_Node000007"><a xlink:title=" ">
<path fill="none" stroke="#63b8ff" d="M734.44,-54.75C739.48,-47.34 746.84,-36.5 753.01,-27.41"/>
<polygon fill="#63b8ff" stroke="#63b8ff" points="755.94,-29.33 758.67,-19.09 750.15,-25.39 755.94,-29.33"/>
</a>
</g>
</g>
<!-- Node8 -->
<g id="Node000008" class="node">
<title>Node8</title>
<g id="a_Node000008"><a xlink:title=" ">
<polygon fill="#e0e0e0" stroke="#999999" points="854.5,-19 810.5,-19 810.5,0 854.5,0 854.5,-19"/>
<text text-anchor="middle" x="832.5" y="-7" font-family="Helvetica,sans-Serif" font-size="10.00">limits</text>
</a>
</g>
</g>
<!-- Node3&#45;&gt;Node8 -->
<g id="edge7_Node000003_Node000008" class="edge">
<title>Node3&#45;&gt;Node8</title>
<g id="a_edge7_Node000003_Node000008"><a xlink:title=" ">
<path fill="none" stroke="#63b8ff" d="M745.21,-54.98C761.71,-46.57 787.2,-33.59 806.38,-23.81"/>
<polygon fill="#63b8ff" stroke="#63b8ff" points="808.17,-26.83 815.49,-19.17 804.99,-20.59 808.17,-26.83"/>
</a>
</g>
</g>
<!-- Node9 -->
<g id="Node000009" class="node">
<title>Node9</title>
<g id="a_Node000009"><a xlink:href="sitkConfigure_8h.html" target="_top" xlink:title=" ">
<polygon fill="white" stroke="#666666" points="1703.5,-19 1613.5,-19 1613.5,0 1703.5,0 1703.5,-19"/>
<text text-anchor="middle" x="1658.5" y="-7" font-family="Helvetica,sans-Serif" font-size="10.00">sitkConfigure.h</text>
</a>
</g>
</g>
<!-- Node3&#45;&gt;Node9 -->
<g id="edge8_Node000003_Node000009" class="edge">
<title>Node3&#45;&gt;Node9</title>
<g id="a_edge8_Node000003_Node000009"><a xlink:title=" ">
<path fill="none" stroke="#63b8ff" d="M765.53,-61.39C909.38,-53.19 1431.57,-23.43 1603.32,-13.64"/>
<polygon fill="#63b8ff" stroke="#63b8ff" points="1603.62,-17.13 1613.4,-13.07 1603.22,-10.14 1603.62,-17.13"/>
</a>
</g>
</g>
<!-- Node10&#45;&gt;Node3 -->
<g id="edge10_Node000010_Node000003" class="edge">
<title>Node10&#45;&gt;Node3</title>
<g id="a_edge10_Node000010_Node000003"><a xlink:title=" ">
<path fill="none" stroke="#63b8ff" d="M728.5,-109.75C728.5,-102.8 728.5,-92.85 728.5,-84.13"/>
<polygon fill="#63b8ff" stroke="#63b8ff" points="732,-84.09 728.5,-74.09 725,-84.09 732,-84.09"/>
</a>
</g>
</g>
<!-- Node11&#45;&gt;Node10 -->
<g id="edge12_Node000011_Node000010" class="edge">
<title>Node11&#45;&gt;Node10</title>
<g id="a_edge12_Node000011_Node000010"><a xlink:title=" ">
<path fill="none" stroke="#63b8ff" d="M778.53,-340.8C770.92,-307.29 743.39,-186.08 732.75,-139.2"/>
<polygon fill="#63b8ff" stroke="#63b8ff" points="736.1,-138.18 730.48,-129.21 729.28,-139.73 736.1,-138.18"/>
</a>
</g>
</g>
<!-- Node12 -->
<g id="Node000012" class="node">
<title>Node12</title>
<g id="a_Node000012"><a xlink:href="sitkTemplateFunctions_8h.html" target="_top" xlink:title=" ">
<polygon fill="white" stroke="#666666" points="498,-305 363,-305 363,-286 498,-286 498,-305"/>
<text text-anchor="middle" x="430.5" y="-293" font-family="Helvetica,sans-Serif" font-size="10.00">sitkTemplateFunctions.h</text>
</a>
</g>
</g>
<!-- Node11&#45;&gt;Node12 -->
<g id="edge13_Node000011_Node000012" class="edge">
<title>Node11&#45;&gt;Node12</title>
<g id="a_edge13_Node000011_Node000012"><a xlink:title=" ">
<path fill="none" stroke="#63b8ff" d="M743.38,-343.88C684.73,-335 569.84,-317.6 496.79,-306.54"/>
<polygon fill="#63b8ff" stroke="#63b8ff" points="497.18,-303.06 486.77,-305.02 496.14,-309.98 497.18,-303.06"/>
</a>
</g>
</g>
<!-- Node11&#45;&gt;Node14 -->
<g id="edge55_Node000011_Node000014" class="edge">
<title>Node11&#45;&gt;Node14</title>
<g id="a_edge55_Node000011_Node000014"><a xlink:title=" ">
<path fill="none" stroke="#63b8ff" d="M743.23,-344.33C690.75,-335.04 595.66,-310.5 543.5,-250 530.19,-234.56 526,-211.02 524.78,-194.54"/>
<polygon fill="#63b8ff" stroke="#63b8ff" points="528.27,-194.29 524.34,-184.45 521.28,-194.6 528.27,-194.29"/>
</a>
</g>
</g>
<!-- Node11&#45;&gt;Node15 -->
<g id="edge54_Node000011_Node000015" class="edge">
<title>Node11&#45;&gt;Node15</title>
<g id="a_edge54_Node000011_Node000015"><a xlink:title=" ">
<path fill="none" stroke="#63b8ff" d="M743.37,-349.3C652.24,-348.22 420.11,-341.85 353.5,-305 332.56,-293.41 316.96,-270 308.05,-253.68"/>
<polygon fill="#63b8ff" stroke="#63b8ff" points="311.06,-251.89 303.37,-244.6 304.84,-255.1 311.06,-251.89"/>
</a>
</g>
</g>
<!-- Node19 -->
<g id="Node000019" class="node">
<title>Node19</title>
<g id="a_Node000019"><a xlink:href="sitkDetail_8h.html" target="_top" xlink:title=" ">
<polygon fill="white" stroke="#666666" points="977,-305 904,-305 904,-286 977,-286 977,-305"/>
<text text-anchor="middle" x="940.5" y="-293" font-family="Helvetica,sans-Serif" font-size="10.00">sitkDetail.h</text>
</a>
</g>
</g>
<!-- Node11&#45;&gt;Node19 -->
<g id="edge24_Node000011_Node000019" class="edge">
<title>Node11&#45;&gt;Node19</title>
<g id="a_edge24_Node000011_Node000019"><a xlink:title=" ">
<path fill="none" stroke="#63b8ff" d="M806.21,-340.98C832.95,-332.13 875.03,-318.19 904.95,-308.28"/>
<polygon fill="#63b8ff" stroke="#63b8ff" points="906.2,-311.55 914.59,-305.08 904,-304.9 906.2,-311.55"/>
</a>
</g>
</g>
<!-- Node30 -->
<g id="Node000030" class="node">
<title>Node30</title>
<g id="a_Node000030"><a xlink:href="sitkPixelIDTokens_8h.html" target="_top" xlink:title=" ">
<polygon fill="white" stroke="#666666" points="1578.5,-305 1468.5,-305 1468.5,-286 1578.5,-286 1578.5,-305"/>
<text text-anchor="middle" x="1523.5" y="-293" font-family="Helvetica,sans-Serif" font-size="10.00">sitkPixelIDTokens.h</text>
</a>
</g>
</g>
<!-- Node11&#45;&gt;Node30 -->
<g id="edge43_Node000011_Node000030" class="edge">
<title>Node11&#45;&gt;Node30</title>
<g id="a_edge43_Node000011_Node000030"><a xlink:title=" ">
<path fill="none" stroke="#63b8ff" d="M817.6,-346.85C936.18,-338.39 1307.08,-311.94 1458.32,-301.15"/>
<polygon fill="#63b8ff" stroke="#63b8ff" points="1458.66,-304.63 1468.39,-300.43 1458.17,-297.65 1458.66,-304.63"/>
</a>
</g>
</g>
<!-- Node33 -->
<g id="Node000033" class="node">
<title>Node33</title>
<g id="a_Node000033"><a xlink:title=" ">
<polygon fill="#e0e0e0" stroke="#999999" points="1462,-244.5 1393,-244.5 1393,-225.5 1462,-225.5 1462,-244.5"/>
<text text-anchor="middle" x="1427.5" y="-232.5" font-family="Helvetica,sans-Serif" font-size="10.00">type_traits</text>
</a>
</g>
</g>
<!-- Node11&#45;&gt;Node33 -->
<g id="edge56_Node000011_Node000033" class="edge">
<title>Node11&#45;&gt;Node33</title>
<g id="a_edge56_Node000011_Node000033"><a xlink:title=" ">
<path fill="none" stroke="#63b8ff" d="M817.58,-345.28C912.56,-334.05 1172.01,-300.81 1383.5,-250 1386.52,-249.27 1389.63,-248.45 1392.74,-247.57"/>
<polygon fill="#63b8ff" stroke="#63b8ff" points="1393.97,-250.85 1402.55,-244.63 1391.96,-244.15 1393.97,-250.85"/>
</a>
</g>
</g>
<!-- Node34 -->
<g id="Node000034" class="node">
<title>Node34</title>
<g id="a_Node000034"><a xlink:href="sitkInterpolator_8h.html" target="_top" xlink:title=" ">
<polygon fill="white" stroke="#666666" points="908.5,-244.5 808.5,-244.5 808.5,-225.5 908.5,-225.5 908.5,-244.5"/>
<text text-anchor="middle" x="858.5" y="-232.5" font-family="Helvetica,sans-Serif" font-size="10.00">sitkInterpolator.h</text>
</a>
</g>
</g>
<!-- Node11&#45;&gt;Node34 -->
<g id="edge51_Node000011_Node000034" class="edge">
<title>Node11&#45;&gt;Node34</title>
<g id="a_edge51_Node000011_Node000034"><a xlink:title=" ">
<path fill="none" stroke="#63b8ff" d="M786.36,-340.97C799.18,-322.32 829.9,-277.61 846.82,-252.99"/>
<polygon fill="#63b8ff" stroke="#63b8ff" points="849.79,-254.85 852.57,-244.63 844.02,-250.89 849.79,-254.85"/>
</a>
</g>
</g>
<!-- Node12&#45;&gt;Node3 -->
<g id="edge14_Node000012_Node000003" class="edge">
<title>Node12&#45;&gt;Node3</title>
<g id="a_edge14_Node000012_Node000003"><a xlink:title=" ">
<path fill="none" stroke="#63b8ff" d="M410.92,-285.98C396.83,-278.68 378.9,-266.68 370.5,-250 364.51,-238.09 363.37,-231.27 370.5,-220 438.64,-112.28 600.22,-79.44 680.92,-69.6"/>
<polygon fill="#63b8ff" stroke="#63b8ff" points="681.75,-73.03 691.29,-68.41 680.95,-66.07 681.75,-73.03"/>
</a>
</g>
</g>
<!-- Node12&#45;&gt;Node10 -->
<g id="edge15_Node000012_Node000010" class="edge">
<title>Node12&#45;&gt;Node10</title>
<g id="a_edge15_Node000012_Node000010"><a xlink:title=" ">
<path fill="none" stroke="#63b8ff" d="M498.17,-290.35C563.72,-285 657.13,-273.45 684.5,-250 686.7,-248.12 711.04,-174.08 722.54,-138.82"/>
<polygon fill="#63b8ff" stroke="#63b8ff" points="725.89,-139.83 725.66,-129.24 719.24,-137.67 725.89,-139.83"/>
</a>
</g>
</g>
<!-- Node13 -->
<g id="Node000013" class="node">
<title>Node13</title>
<g id="a_Node000013"><a xlink:href="sitkExceptionObject_8h.html" target="_top" xlink:title=" ">
<polygon fill="white" stroke="#666666" points="676,-244.5 553,-244.5 553,-225.5 676,-225.5 676,-244.5"/>
<text text-anchor="middle" x="614.5" y="-232.5" font-family="Helvetica,sans-Serif" font-size="10.00">sitkExceptionObject.h</text>
</a>
</g>
</g>
<!-- Node12&#45;&gt;Node13 -->
<g id="edge16_Node000012_Node000013" class="edge">
<title>Node12&#45;&gt;Node13</title>
<g id="a_edge16_Node000012_Node000013"><a xlink:title=" ">
<path fill="none" stroke="#63b8ff" d="M457.26,-285.99C489.14,-275.86 542.57,-258.87 578.18,-247.55"/>
<polygon fill="#63b8ff" stroke="#63b8ff" points="579.24,-250.88 587.71,-244.52 577.12,-244.21 579.24,-250.88"/>
</a>
</g>
</g>
<!-- Node12&#45;&gt;Node15 -->
<g id="edge20_Node000012_Node000015" class="edge">
<title>Node12&#45;&gt;Node15</title>
<g id="a_edge20_Node000012_Node000015"><a xlink:title=" ">
<path fill="none" stroke="#63b8ff" d="M411.45,-285.99C389.53,-276.2 353.29,-260.02 328,-248.73"/>
<polygon fill="#63b8ff" stroke="#63b8ff" points="329.13,-245.4 318.57,-244.52 326.28,-251.79 329.13,-245.4"/>
</a>
</g>
</g>
<!-- Node16 -->
<g id="Node000016" class="node">
<title>Node16</title>
<g id="a_Node000016"><a xlink:title=" ">
<polygon fill="#e0e0e0" stroke="#999999" points="814,-184 757,-184 757,-165 814,-165 814,-184"/>
<text text-anchor="middle" x="785.5" y="-172" font-family="Helvetica,sans-Serif" font-size="10.00">ostream</text>
</a>
</g>
</g>
<!-- Node12&#45;&gt;Node16 -->
<g id="edge21_Node000012_Node000016" class="edge">
<title>Node12&#45;&gt;Node16</title>
<g id="a_edge21_Node000012_Node000016"><a xlink:title=" ">
<path fill="none" stroke="#63b8ff" d="M498.23,-289.3C571.1,-282.8 681.51,-270.01 718.5,-250 743.29,-236.59 763.53,-210.32 775.06,-192.83"/>
<polygon fill="#63b8ff" stroke="#63b8ff" points="778.16,-194.48 780.54,-184.16 772.24,-190.75 778.16,-194.48"/>
</a>
</g>
</g>
<!-- Node17 -->
<g id="Node000017" class="node">
<title>Node17</title>
<g id="a_Node000017"><a xlink:title=" ">
<polygon fill="#e0e0e0" stroke="#999999" points="496,-244.5 443,-244.5 443,-225.5 496,-225.5 496,-244.5"/>
<text text-anchor="middle" x="469.5" y="-232.5" font-family="Helvetica,sans-Serif" font-size="10.00">iterator</text>
</a>
</g>
</g>
<!-- Node12&#45;&gt;Node17 -->
<g id="edge22_Node000012_Node000017" class="edge">
<title>Node12&#45;&gt;Node17</title>
<g id="a_edge22_Node000012_Node000017"><a xlink:title=" ">
<path fill="none" stroke="#63b8ff" d="M436.25,-285.87C441.96,-277.31 450.85,-263.97 458.01,-253.24"/>
<polygon fill="#63b8ff" stroke="#63b8ff" points="461.09,-254.93 463.72,-244.67 455.26,-251.05 461.09,-254.93"/>
</a>
</g>
</g>
<!-- Node18 -->
<g id="Node000018" class="node">
<title>Node18</title>
<g id="a_Node000018"><a xlink:title=" ">
<polygon fill="#e0e0e0" stroke="#999999" points="425,-244.5 380,-244.5 380,-225.5 425,-225.5 425,-244.5"/>
<text text-anchor="middle" x="402.5" y="-232.5" font-family="Helvetica,sans-Serif" font-size="10.00">utility</text>
</a>
</g>
</g>
<!-- Node12&#45;&gt;Node18 -->
<g id="edge23_Node000012_Node000018" class="edge">
<title>Node12&#45;&gt;Node18</title>
<g id="a_edge23_Node000012_Node000018"><a xlink:title=" ">
<path fill="none" stroke="#63b8ff" d="M426.37,-285.87C422.36,-277.49 416.15,-264.51 411.06,-253.89"/>
<polygon fill="#63b8ff" stroke="#63b8ff" points="414.12,-252.18 406.65,-244.67 407.81,-255.2 414.12,-252.18"/>
</a>
</g>
</g>
<!-- Node13&#45;&gt;Node3 -->
<g id="edge17_Node000013_Node000003" class="edge">
<title>Node13&#45;&gt;Node3</title>
<g id="a_edge17_Node000013_Node000003"><a xlink:title=" ">
<path fill="none" stroke="#63b8ff" d="M617.29,-225.5C624.5,-204.39 645.31,-148.52 675.5,-110 684.42,-98.62 696.66,-88.11 707.13,-80.16"/>
<polygon fill="#63b8ff" stroke="#63b8ff" points="709.39,-82.85 715.4,-74.13 705.26,-77.2 709.39,-82.85"/>
</a>
</g>
</g>
<!-- Node13&#45;&gt;Node10 -->
<g id="edge18_Node000013_Node000010" class="edge">
<title>Node13&#45;&gt;Node10</title>
<g id="a_edge18_Node000013_Node000010"><a xlink:title=" ">
<path fill="none" stroke="#63b8ff" d="M621.79,-225.17C633.04,-211.71 655.53,-185.47 676.5,-165 687,-154.75 699.46,-144.04 709.55,-135.7"/>
<polygon fill="#63b8ff" stroke="#63b8ff" points="711.85,-138.34 717.38,-129.31 707.42,-132.92 711.85,-138.34"/>
</a>
</g>
</g>
<!-- Node13&#45;&gt;Node14 -->
<g id="edge19_Node000013_Node000014" class="edge">
<title>Node13&#45;&gt;Node14</title>
<g id="a_edge19_Node000013_Node000014"><a xlink:title=" ">
<path fill="none" stroke="#63b8ff" d="M601.22,-225.37C586.86,-216.04 563.74,-201.01 546.63,-189.88"/>
<polygon fill="#63b8ff" stroke="#63b8ff" points="548.13,-186.68 537.83,-184.17 544.31,-192.55 548.13,-186.68"/>
</a>
</g>
</g>
<!-- Node20 -->
<g id="Node000020" class="node">
<title>Node20</title>
<g id="a_Node000020"><a xlink:href="sitkMemberFunctionFactoryBase_8h.html" target="_top" xlink:title=" ">
<polygon fill="white" stroke="#666666" points="1374.5,-250 1222.5,-250 1222.5,-220 1374.5,-220 1374.5,-250"/>
<text text-anchor="start" x="1230.5" y="-238" font-family="Helvetica,sans-Serif" font-size="10.00">sitkMemberFunctionFactory</text>
<text text-anchor="middle" x="1298.5" y="-227" font-family="Helvetica,sans-Serif" font-size="10.00">Base.h</text>
</a>
</g>
</g>
<!-- Node19&#45;&gt;Node20 -->
<g id="edge25_Node000019_Node000020" class="edge">
<title>Node19&#45;&gt;Node20</title>
<g id="a_edge25_Node000019_Node000020"><a xlink:title=" ">
<path fill="none" stroke="#63b8ff" d="M977.13,-288.51C1032.05,-279.54 1137.28,-262.35 1212.36,-250.08"/>
<polygon fill="#63b8ff" stroke="#63b8ff" points="1212.98,-253.52 1222.28,-248.45 1211.85,-246.61 1212.98,-253.52"/>
</a>
</g>
</g>
<!-- Node26 -->
<g id="Node000026" class="node">
<title>Node26</title>
<g id="a_Node000026"><a xlink:title=" ">
<polygon fill="#e0e0e0" stroke="#999999" points="1010,-184 871,-184 871,-165 1010,-165 1010,-184"/>
<text text-anchor="middle" x="940.5" y="-172" font-family="Helvetica,sans-Serif" font-size="10.00">Ancillary/FunctionTraits.h</text>
</a>
</g>
</g>
<!-- Node19&#45;&gt;Node26 -->
<g id="edge42_Node000019_Node000026" class="edge">
<title>Node19&#45;&gt;Node26</title>
<g id="a_edge42_Node000019_Node000026"><a xlink:title=" ">
<path fill="none" stroke="#63b8ff" d="M940.5,-285.94C940.5,-266.91 940.5,-220.69 940.5,-194.47"/>
<polygon fill="#63b8ff" stroke="#63b8ff" points="944,-194.3 940.5,-184.3 937,-194.3 944,-194.3"/>
</a>
</g>
</g>
<!-- Node20&#45;&gt;Node3 -->
<g id="edge34_Node000020_Node000003" class="edge">
<title>Node20&#45;&gt;Node3</title>
<g id="a_edge34_Node000020_Node000003"><a xlink:title=" ">
<path fill="none" stroke="#63b8ff" d="M1348.93,-219.98C1383.56,-207.88 1419.89,-188.64 1399.5,-165 1318.34,-70.92 915.12,-64.33 775.88,-64.92"/>
<polygon fill="#63b8ff" stroke="#63b8ff" points="775.53,-61.42 765.55,-64.98 775.57,-68.42 775.53,-61.42"/>
</a>
</g>
</g>
<!-- Node20&#45;&gt;Node9 -->
<g id="edge26_Node000020_Node000009" class="edge">
<title>Node20&#45;&gt;Node9</title>
<g id="a_edge26_Node000020_Node000009"><a xlink:title=" ">
<path fill="none" stroke="#63b8ff" d="M1346.23,-219.97C1368.72,-211.83 1395.05,-199.98 1415.5,-184 1448,-158.6 1440.11,-136.76 1471.5,-110 1519.23,-69.31 1586.36,-38.67 1625.86,-22.76"/>
<polygon fill="#63b8ff" stroke="#63b8ff" points="1627.26,-25.96 1635.27,-19.03 1624.69,-19.46 1627.26,-25.96"/>
</a>
</g>
</g>
<!-- Node21 -->
<g id="Node000021" class="node">
<title>Node21</title>
<g id="a_Node000021"><a xlink:href="sitkPixelIDTypes_8h.html" target="_top" xlink:title=" ">
<polygon fill="white" stroke="#666666" points="1585,-129 1480,-129 1480,-110 1585,-110 1585,-129"/>
<text text-anchor="middle" x="1532.5" y="-117" font-family="Helvetica,sans-Serif" font-size="10.00">sitkPixelIDTypes.h</text>
</a>
</g>
</g>
<!-- Node20&#45;&gt;Node21 -->
<g id="edge27_Node000020_Node000021" class="edge">
<title>Node20&#45;&gt;Node21</title>
<g id="a_edge27_Node000020_Node000021"><a xlink:title=" ">
<path fill="none" stroke="#63b8ff" d="M1372.12,-219.99C1428.37,-208.7 1498,-193.24 1508.5,-184 1521.35,-172.7 1527.34,-153.79 1530.12,-139.54"/>
<polygon fill="#63b8ff" stroke="#63b8ff" points="1533.63,-139.77 1531.74,-129.34 1526.72,-138.67 1533.63,-139.77"/>
</a>
</g>
</g>
<!-- Node22 -->
<g id="Node000022" class="node">
<title>Node22</title>
<g id="a_Node000022"><a xlink:href="sitkPixelIDTypeLists_8h.html" target="_top" xlink:title=" ">
<polygon fill="white" stroke="#666666" points="1720.5,-184 1598.5,-184 1598.5,-165 1720.5,-165 1720.5,-184"/>
<text text-anchor="middle" x="1659.5" y="-172" font-family="Helvetica,sans-Serif" font-size="10.00">sitkPixelIDTypeLists.h</text>
</a>
</g>
</g>
<!-- Node20&#45;&gt;Node22 -->
<g id="edge28_Node000020_Node000022" class="edge">
<title>Node20&#45;&gt;Node22</title>
<g id="a_edge28_Node000020_Node000022"><a xlink:title=" ">
<path fill="none" stroke="#63b8ff" d="M1374.93,-221.55C1378.16,-221.03 1381.36,-220.51 1384.5,-220 1457.31,-208.18 1540.96,-194.65 1596.7,-185.64"/>
<polygon fill="#63b8ff" stroke="#63b8ff" points="1597.46,-189.07 1606.78,-184.02 1596.35,-182.16 1597.46,-189.07"/>
</a>
</g>
</g>
<!-- Node23 -->
<g id="Node000023" class="node">
<title>Node23</title>
<g id="a_Node000023"><a xlink:title=" ">
<polygon fill="#e0e0e0" stroke="#999999" points="1722,-129 1603,-129 1603,-110 1722,-110 1722,-129"/>
<text text-anchor="middle" x="1662.5" y="-117" font-family="Helvetica,sans-Serif" font-size="10.00">Ancillary/type_list2.h</text>
</a>
</g>
</g>
<!-- Node20&#45;&gt;Node23 -->
<g id="edge37_Node000020_Node000023" class="edge">
<title>Node20&#45;&gt;Node23</title>
<g id="a_edge37_Node000020_Node000023"><a xlink:title=" ">
<path fill="none" stroke="#63b8ff" d="M1371.77,-219.96C1427.72,-208.89 1499.92,-193.73 1528.5,-184 1568.43,-170.4 1612.15,-148.19 1638.44,-133.97"/>
<polygon fill="#63b8ff" stroke="#63b8ff" points="1640.21,-136.99 1647.3,-129.12 1636.85,-130.85 1640.21,-136.99"/>
</a>
</g>
</g>
<!-- Node25 -->
<g id="Node000025" class="node">
<title>Node25</title>
<g id="a_Node000025"><a xlink:href="sitkNonCopyable_8h.html" target="_top" xlink:title=" ">
<polygon fill="white" stroke="#666666" points="1137,-184 1028,-184 1028,-165 1137,-165 1137,-184"/>
<text text-anchor="middle" x="1082.5" y="-172" font-family="Helvetica,sans-Serif" font-size="10.00">sitkNonCopyable.h</text>
</a>
</g>
</g>
<!-- Node20&#45;&gt;Node25 -->
<g id="edge35_Node000020_Node000025" class="edge">
<title>Node20&#45;&gt;Node25</title>
<g id="a_edge35_Node000020_Node000025"><a xlink:title=" ">
<path fill="none" stroke="#63b8ff" d="M1246.76,-219.99C1209.16,-209.8 1158.94,-196.2 1123.97,-186.73"/>
<polygon fill="#63b8ff" stroke="#63b8ff" points="1124.65,-183.29 1114.08,-184.05 1122.82,-190.05 1124.65,-183.29"/>
</a>
</g>
</g>
<!-- Node20&#45;&gt;Node26 -->
<g id="edge38_Node000020_Node000026" class="edge">
<title>Node20&#45;&gt;Node26</title>
<g id="a_edge38_Node000020_Node000026"><a xlink:title=" ">
<path fill="none" stroke="#63b8ff" d="M1222.14,-221.52C1156.68,-210.83 1063.57,-195.61 1002.6,-185.65"/>
<polygon fill="#63b8ff" stroke="#63b8ff" points="1003.16,-182.19 992.73,-184.03 1002.03,-189.1 1003.16,-182.19"/>
</a>
</g>
</g>
<!-- Node27 -->
<g id="Node000027" class="node">
<title>Node27</title>
<g id="a_Node000027"><a xlink:title=" ">
<polygon fill="#e0e0e0" stroke="#999999" points="1248,-184 1155,-184 1155,-165 1248,-165 1248,-184"/>
<text text-anchor="middle" x="1201.5" y="-172" font-family="Helvetica,sans-Serif" font-size="10.00">unordered_map</text>
</a>
</g>
</g>
<!-- Node20&#45;&gt;Node27 -->
<g id="edge39_Node000020_Node000027" class="edge">
<title>Node20&#45;&gt;Node27</title>
<g id="a_edge39_Node000020_Node000027"><a xlink:title=" ">
<path fill="none" stroke="#63b8ff" d="M1275.02,-219.84C1259.7,-210.6 1239.79,-198.59 1224.55,-189.4"/>
<polygon fill="#63b8ff" stroke="#63b8ff" points="1226.12,-186.26 1215.75,-184.09 1222.51,-192.26 1226.12,-186.26"/>
</a>
</g>
</g>
<!-- Node28 -->
<g id="Node000028" class="node">
<title>Node28</title>
<g id="a_Node000028"><a xlink:title=" ">
<polygon fill="#e0e0e0" stroke="#999999" points="1331,-184 1266,-184 1266,-165 1331,-165 1331,-184"/>
<text text-anchor="middle" x="1298.5" y="-172" font-family="Helvetica,sans-Serif" font-size="10.00">functional</text>
</a>
</g>
</g>
<!-- Node20&#45;&gt;Node28 -->
<g id="edge40_Node000020_Node000028" class="edge">
<title>Node20&#45;&gt;Node28</title>
<g id="a_edge40_Node000020_Node000028"><a xlink:title=" ">
<path fill="none" stroke="#63b8ff" d="M1298.5,-219.84C1298.5,-212.21 1298.5,-202.7 1298.5,-194.45"/>
<polygon fill="#63b8ff" stroke="#63b8ff" points="1302,-194.27 1298.5,-184.27 1295,-194.27 1302,-194.27"/>
</a>
</g>
</g>
<!-- Node29 -->
<g id="Node000029" class="node">
<title>Node29</title>
<g id="a_Node000029"><a xlink:title=" ">
<polygon fill="#e0e0e0" stroke="#999999" points="1390,-184 1349,-184 1349,-165 1390,-165 1390,-184"/>
<text text-anchor="middle" x="1369.5" y="-172" font-family="Helvetica,sans-Serif" font-size="10.00">tuple</text>
</a>
</g>
</g>
<!-- Node20&#45;&gt;Node29 -->
<g id="edge41_Node000020_Node000029" class="edge">
<title>Node20&#45;&gt;Node29</title>
<g id="a_edge41_Node000020_Node000029"><a xlink:title=" ">
<path fill="none" stroke="#63b8ff" d="M1315.69,-219.84C1326.31,-211.09 1339.94,-199.85 1350.83,-190.88"/>
<polygon fill="#63b8ff" stroke="#63b8ff" points="1353.37,-193.33 1358.86,-184.27 1348.92,-187.92 1353.37,-193.33"/>
</a>
</g>
</g>
<!-- Node22&#45;&gt;Node4 -->
<g id="edge29_Node000022_Node000004" class="edge">
<title>Node22&#45;&gt;Node4</title>
<g id="a_edge29_Node000022_Node000004"><a xlink:title=" ">
<path fill="none" stroke="#63b8ff" d="M1710.31,-164.98C1748.63,-157.39 1796.56,-145.02 1808.5,-129 1813.54,-122.23 1814.01,-116.4 1808.5,-110 1726.79,-15.05 1312.37,-9.51 1185.47,-10.08"/>
<polygon fill="#63b8ff" stroke="#63b8ff" points="1185.11,-6.58 1175.13,-10.15 1185.15,-13.58 1185.11,-6.58"/>
</a>
</g>
</g>
<!-- Node22&#45;&gt;Node9 -->
<g id="edge30_Node000022_Node000009" class="edge">
<title>Node22&#45;&gt;Node9</title>
<g id="a_edge30_Node000022_Node000009"><a xlink:title=" ">
<path fill="none" stroke="#63b8ff" d="M1707.16,-164.98C1758.22,-155.36 1833.11,-139.68 1841.5,-129 1861.81,-103.13 1861.82,-80.86 1841.5,-55 1825.8,-35.02 1761.69,-22.9 1713.76,-16.46"/>
<polygon fill="#63b8ff" stroke="#63b8ff" points="1714.16,-12.98 1703.79,-15.17 1713.26,-19.92 1714.16,-12.98"/>
</a>
</g>
</g>
<!-- Node22&#45;&gt;Node21 -->
<g id="edge31_Node000022_Node000021" class="edge">
<title>Node22&#45;&gt;Node21</title>
<g id="a_edge31_Node000022_Node000021"><a xlink:title=" ">
<path fill="none" stroke="#63b8ff" d="M1639.1,-164.98C1618.48,-156.38 1586.39,-142.99 1562.81,-133.15"/>
<polygon fill="#63b8ff" stroke="#63b8ff" points="1563.85,-129.79 1553.28,-129.17 1561.16,-136.25 1563.85,-129.79"/>
</a>
</g>
</g>
<!-- Node22&#45;&gt;Node23 -->
<g id="edge32_Node000022_Node000023" class="edge">
<title>Node22&#45;&gt;Node23</title>
<g id="a_edge32_Node000022_Node000023"><a xlink:title=" ">
<path fill="none" stroke="#63b8ff" d="M1660,-164.75C1660.39,-157.8 1660.95,-147.85 1661.45,-139.13"/>
<polygon fill="#63b8ff" stroke="#63b8ff" points="1664.94,-139.27 1662.01,-129.09 1657.95,-138.88 1664.94,-139.27"/>
</a>
</g>
</g>
<!-- Node24 -->
<g id="Node000024" class="node">
<title>Node24</title>
<g id="a_Node000024"><a xlink:title=" ">
<polygon fill="#e0e0e0" stroke="#999999" points="1799,-129 1740,-129 1740,-110 1799,-110 1799,-129"/>
<text text-anchor="middle" x="1769.5" y="-117" font-family="Helvetica,sans-Serif" font-size="10.00">complex</text>
</a>
</g>
</g>
<!-- Node22&#45;&gt;Node24 -->
<g id="edge33_Node000022_Node000024" class="edge">
<title>Node22&#45;&gt;Node24</title>
<g id="a_edge33_Node000022_Node000024"><a xlink:title=" ">
<path fill="none" stroke="#63b8ff" d="M1677.17,-164.98C1694.79,-156.5 1722.08,-143.35 1742.43,-133.54"/>
<polygon fill="#63b8ff" stroke="#63b8ff" points="1744.02,-136.66 1751.51,-129.17 1740.98,-130.36 1744.02,-136.66"/>
</a>
</g>
</g>
<!-- Node25&#45;&gt;Node10 -->
<g id="edge36_Node000025_Node000010" class="edge">
<title>Node25&#45;&gt;Node10</title>
<g id="a_edge36_Node000025_Node000010"><a xlink:title=" ">
<path fill="none" stroke="#63b8ff" d="M1027.96,-165.33C961.41,-155.37 849.56,-138.62 783.02,-128.66"/>
<polygon fill="#63b8ff" stroke="#63b8ff" points="783.15,-125.14 772.74,-127.12 782.11,-132.07 783.15,-125.14"/>
</a>
</g>
</g>
<!-- Node30&#45;&gt;Node9 -->
<g id="edge44_Node000030_Node000009" class="edge">
<title>Node30&#45;&gt;Node9</title>
<g id="a_edge44_Node000030_Node000009"><a xlink:title=" ">
<path fill="none" stroke="#63b8ff" d="M1578.76,-288.84C1684.15,-276.49 1903.5,-242.73 1903.5,-175.5 1903.5,-175.5 1903.5,-175.5 1903.5,-118.5 1903.5,-36.2 1786.32,-16.08 1714.04,-11.5"/>
<polygon fill="#63b8ff" stroke="#63b8ff" points="1713.9,-7.98 1703.72,-10.93 1713.51,-14.97 1713.9,-7.98"/>
</a>
</g>
</g>
<!-- Node31 -->
<g id="Node000031" class="node">
<title>Node31</title>
<g id="a_Node000031"><a xlink:href="sitkPixelIDValues_8h.html" target="_top" xlink:title=" ">
<polygon fill="white" stroke="#666666" points="1590.5,-244.5 1480.5,-244.5 1480.5,-225.5 1590.5,-225.5 1590.5,-244.5"/>
<text text-anchor="middle" x="1535.5" y="-232.5" font-family="Helvetica,sans-Serif" font-size="10.00">sitkPixelIDValues.h</text>
</a>
</g>
</g>
<!-- Node30&#45;&gt;Node31 -->
<g id="edge45_Node000030_Node000031" class="edge">
<title>Node30&#45;&gt;Node31</title>
<g id="a_edge45_Node000030_Node000031"><a xlink:title=" ">
<path fill="none" stroke="#63b8ff" d="M1525.27,-285.87C1526.95,-277.66 1529.54,-265.04 1531.69,-254.55"/>
<polygon fill="#63b8ff" stroke="#63b8ff" points="1535.14,-255.17 1533.72,-244.67 1528.28,-253.76 1535.14,-255.17"/>
</a>
</g>
</g>
<!-- Node30&#45;&gt;Node33 -->
<g id="edge50_Node000030_Node000033" class="edge">
<title>Node30&#45;&gt;Node33</title>
<g id="a_edge50_Node000030_Node000033"><a xlink:title=" ">
<path fill="none" stroke="#63b8ff" d="M1509.33,-285.87C1493.81,-276.41 1468.67,-261.09 1450.35,-249.92"/>
<polygon fill="#63b8ff" stroke="#63b8ff" points="1452.08,-246.88 1441.72,-244.67 1448.44,-252.86 1452.08,-246.88"/>
</a>
</g>
</g>
<!-- Node31&#45;&gt;Node10 -->
<g id="edge46_Node000031_Node000010" class="edge">
<title>Node31&#45;&gt;Node10</title>
<g id="a_edge46_Node000031_Node000010"><a xlink:title=" ">
<path fill="none" stroke="#63b8ff" d="M1522.72,-225.26C1499.43,-209.87 1448.01,-178.31 1399.5,-165 1283.88,-133.27 921.84,-123.81 783.23,-121.31"/>
<polygon fill="#63b8ff" stroke="#63b8ff" points="782.92,-117.8 772.86,-121.13 782.8,-124.8 782.92,-117.8"/>
</a>
</g>
</g>
<!-- Node31&#45;&gt;Node16 -->
<g id="edge49_Node000031_Node000016" class="edge">
<title>Node31&#45;&gt;Node16</title>
<g id="a_edge49_Node000031_Node000016"><a xlink:title=" ">
<path fill="none" stroke="#63b8ff" d="M1501.13,-225.45C1491.59,-223.36 1481.19,-221.34 1471.5,-220 1202.47,-182.87 1132.1,-207.1 861.5,-184 849.43,-182.97 836.3,-181.59 824.41,-180.25"/>
<polygon fill="#63b8ff" stroke="#63b8ff" points="824.67,-176.76 814.34,-179.09 823.87,-183.71 824.67,-176.76"/>
</a>
</g>
</g>
<!-- Node31&#45;&gt;Node22 -->
<g id="edge47_Node000031_Node000022" class="edge">
<title>Node31&#45;&gt;Node22</title>
<g id="a_edge47_Node000031_Node000022"><a xlink:title=" ">
<path fill="none" stroke="#63b8ff" d="M1553.53,-225.49C1574.19,-215.75 1608.28,-199.66 1632.2,-188.38"/>
<polygon fill="#63b8ff" stroke="#63b8ff" points="1633.9,-191.45 1641.45,-184.02 1630.91,-185.12 1633.9,-191.45"/>
</a>
</g>
</g>
<!-- Node31&#45;&gt;Node32 -->
<g id="edge48_Node000031_Node000032" class="edge">
<title>Node31&#45;&gt;Node32</title>
<g id="a_edge48_Node000031_Node000032"><a xlink:title=" ">
<path fill="none" stroke="#63b8ff" d="M1569.19,-225.49C1605.95,-216.16 1666.79,-200.61 1728.57,-184.22"/>
<polygon fill="#63b8ff" stroke="#63b8ff" points="1729.73,-187.53 1738.5,-181.58 1727.93,-180.77 1729.73,-187.53"/>
</a>
</g>
</g>
<!-- Node34&#45;&gt;Node10 -->
<g id="edge52_Node000034_Node000010" class="edge">
<title>Node34&#45;&gt;Node10</title>
<g id="a_edge52_Node000034_Node000010"><a xlink:title=" ">
<path fill="none" stroke="#63b8ff" d="M855.96,-225.25C851.41,-210.95 840.61,-182.42 822.5,-165 807.28,-150.36 786.34,-139.8 768.09,-132.66"/>
<polygon fill="#63b8ff" stroke="#63b8ff" points="769.15,-129.32 758.56,-129.14 766.72,-135.89 769.15,-129.32"/>
</a>
</g>
</g>
<!-- Node34&#45;&gt;Node16 -->
<g id="edge53_Node000034_Node000016" class="edge">
<title>Node34&#45;&gt;Node16</title>
<g id="a_edge53_Node000034_Node000016"><a xlink:title=" ">
<path fill="none" stroke="#63b8ff" d="M847.73,-225.37C836.3,-216.21 818.02,-201.56 804.22,-190.51"/>
<polygon fill="#63b8ff" stroke="#63b8ff" points="806.31,-187.69 796.32,-184.17 801.93,-193.15 806.31,-187.69"/>
</a>
</g>
</g>
</g>
</svg>

<g id="navigator" transform="translate(0 0)" fill="#404254">
  <rect fill="#f2f5e9" fill-opacity="0.5" stroke="#606060" stroke-width=".5" x="0" y="0" width="60" height="60"/>
  <use id="zoomplus" xlink:href="#zoomPlus" x="17" y="9" onmousedown="handleZoom(evt,'in')"/>
  <use id="zoomminus" xlink:href="#zoomMin" x="42" y="9" onmousedown="handleZoom(evt,'out')"/>
  <use id="reset" xlink:href="#resetDef" x="30" y="36" onmousedown="handleReset()"/>
   <use id="arrowup" xlink:href="#arrowUp" x="0" y="0" onmousedown="handlePan(0,-1)"/>
  <use id="arrowright" xlink:href="#arrowRight" x="0" y="0" onmousedown="handlePan(1,0)"/>
  <use id="arrowdown" xlink:href="#arrowDown" x="0" y="0" onmousedown="handlePan(0,1)"/>
  <use id="arrowleft" xlink:href="#arrowLeft" x="0" y="0" onmousedown="handlePan(-1,0)"/>
</g>
<svg viewBox="0 0 15 15" width="100%" height="30px" preserveAspectRatio="xMaxYMin meet">
 <g id="arrow_out" transform="scale(0.3 0.3)">
  <a xlink:href="sitkTransformixImageFilter_8h__incl_org.svg" target="_base">
   <rect id="button" ry="5" rx="5" y="6" x="6" height="38" width="38"
        fill="#f2f5e9" fill-opacity="0.5" stroke="#606060" stroke-width="1.0"/>
   <path id="arrow"
     d="M 11.500037,31.436501 C 11.940474,20.09759 22.043105,11.32322 32.158766,21.979434 L 37.068811,17.246167 C 37.068811,17.246167 37.088388,32 37.088388,32 L 22.160133,31.978069 C 22.160133,31.978069 26.997745,27.140456 26.997745,27.140456 C 18.528582,18.264221 13.291696,25.230495 11.500037,31.436501 z"
     style="fill:#404040;"/>
  </a>
 </g>
</svg>

<style type='text/css'>
<![CDATA[
[data-mouse-over-selected='false'] { opacity: 0.7; }
[data-mouse-over-selected='true']  { opacity: 1.0; }
]]>
</style>
<script type="application/ecmascript"><![CDATA[
document.addEventListener('DOMContentLoaded', (event) => {
  highlightEdges();
  highlightAdjacentNodes();
});
]]></script>
</svg>
