<?xml version="1.0" encoding="UTF-8" standalone="no"?>
<!DOCTYPE svg PUBLIC "-//W3C//DTD SVG 1.1//EN"
 "http://www.w3.org/Graphics/SVG/1.1/DTD/svg11.dtd">
<!-- Generated by graphviz version 2.43.0 (0)
 -->
<!-- Title: sitkTransform.h Pages: 1 -->
<!--zoomable 431 -->
<svg id="main" version="1.1" xmlns="http://www.w3.org/2000/svg" xmlns:xlink="http://www.w3.org/1999/xlink" xml:space="preserve" onload="init(evt)">
<style type="text/css"><![CDATA[
.edge:hover path { stroke: red; }
.edge:hover polygon { stroke: red; fill: red; }
]]></style>
<script type="text/javascript"><![CDATA[
var edges = document.getElementsByTagName('g');
if (edges && edges.length) {
  for (var i=0;i<edges.length;i++) {
    if (edges[i].id.substr(0,4)=='edge') {
      edges[i].setAttribute('class','edge');
    }
  }
}
]]></script>
        <defs>
                <circle id="rim" cx="0" cy="0" r="7"/>
                <circle id="rim2" cx="0" cy="0" r="3.5"/>
                <g id="zoomPlus">
                        <use xlink:href="#rim" fill="#404040">
                                <set attributeName="fill" to="#808080" begin="zoomplus.mouseover" end="zoomplus.mouseout"/>
                        </use>
                        <path d="M-4,0h8M0,-4v8" fill="none" stroke="white" stroke-width="1.5" pointer-events="none"/>
                </g>
                <g id="zoomMin">
                        <use xlink:href="#rim" fill="#404040">
                                <set attributeName="fill" to="#808080" begin="zoomminus.mouseover" end="zoomminus.mouseout"/>
                        </use>
                        <path d="M-4,0h8" fill="none" stroke="white" stroke-width="1.5" pointer-events="none"/>
                </g>
                <g id="dirArrow">
                        <path fill="none" stroke="white" stroke-width="1.5" d="M0,-3.0v7 M-2.5,-0.5L0,-3.0L2.5,-0.5"/>
                </g>
               <g id="resetDef">
                       <use xlink:href="#rim2" fill="#404040">
                               <set attributeName="fill" to="#808080" begin="reset.mouseover" end="reset.mouseout"/>
                       </use>
               </g>
        </defs>

<script type="text/javascript">
var viewWidth = 1434;
var viewHeight = 431;
var sectionId = 'dynsection-0';
</script>
<script xlink:href="svgpan.js"/>
<svg id="graph" class="graph">
<g id="viewport">
<title>sitkTransform.h</title>
<polygon fill="white" stroke="transparent" points="-4,4 -4,-427 1430.28,-427 1430.28,4 -4,4"/>
<!-- Node1 -->
<g id="node1" class="node">
<title>Node1</title>
<g id="a_node1"><a xlink:title=" ">
<polygon fill="#bfbfbf" stroke="black" points="1061.78,-403.5 1061.78,-422.5 1153.78,-422.5 1153.78,-403.5 1061.78,-403.5"/>
<text text-anchor="middle" x="1107.78" y="-410.5" font-family="Helvetica,sans-Serif" font-size="10.00">sitkTransform.h</text>
</a>
</g>
</g>
<!-- Node2 -->
<g id="node2" class="node">
<title>Node2</title>
<g id="a_node2"><a xlink:href="sitkCommon_8h.html" target="_top" xlink:title=" ">
<polygon fill="white" stroke="black" points="841.78,-112.5 841.78,-131.5 929.78,-131.5 929.78,-112.5 841.78,-112.5"/>
<text text-anchor="middle" x="885.78" y="-119.5" font-family="Helvetica,sans-Serif" font-size="10.00">sitkCommon.h</text>
</a>
</g>
</g>
<!-- Node1&#45;&gt;Node2 -->
<g id="edge1" class="edge">
<title>Node1&#45;&gt;Node2</title>
<path fill="none" stroke="midnightblue" d="M1061.59,-412.32C986.88,-410.15 847.78,-393.78 847.78,-302 847.78,-302 847.78,-302 847.78,-238.5 847.78,-202.25 864.87,-162.67 876.13,-140.53"/>
<polygon fill="midnightblue" stroke="midnightblue" points="879.24,-142.14 880.81,-131.66 873.05,-138.87 879.24,-142.14"/>
</g>
<!-- Node10 -->
<g id="node10" class="node">
<title>Node10</title>
<g id="a_node10"><a xlink:href="sitkExceptionObject_8h.html" target="_top" xlink:title=" ">
<polygon fill="white" stroke="black" points="1128.28,-168.5 1128.28,-187.5 1251.28,-187.5 1251.28,-168.5 1128.28,-168.5"/>
<text text-anchor="middle" x="1189.78" y="-175.5" font-family="Helvetica,sans-Serif" font-size="10.00">sitkExceptionObject.h</text>
</a>
</g>
</g>
<!-- Node1&#45;&gt;Node10 -->
<g id="edge9" class="edge">
<title>Node1&#45;&gt;Node10</title>
<path fill="none" stroke="midnightblue" d="M1110.55,-403.4C1113.44,-394.36 1118.06,-379.72 1121.78,-367 1140.23,-303.76 1133.95,-284.17 1160.78,-224 1165.18,-214.13 1171.56,-203.95 1177.22,-195.77"/>
<polygon fill="midnightblue" stroke="midnightblue" points="1180.16,-197.67 1183.16,-187.51 1174.48,-193.59 1180.16,-197.67"/>
</g>
<!-- Node11 -->
<g id="node11" class="node">
<title>Node11</title>
<g id="a_node11"><a xlink:href="sitkImage_8h.html" target="_top" xlink:title=" ">
<polygon fill="white" stroke="black" points="1038.78,-347.5 1038.78,-366.5 1112.78,-366.5 1112.78,-347.5 1038.78,-347.5"/>
<text text-anchor="middle" x="1075.78" y="-354.5" font-family="Helvetica,sans-Serif" font-size="10.00">sitkImage.h</text>
</a>
</g>
</g>
<!-- Node1&#45;&gt;Node11 -->
<g id="edge12" class="edge">
<title>Node1&#45;&gt;Node11</title>
<path fill="none" stroke="midnightblue" d="M1102.49,-403.08C1098.07,-395.61 1091.61,-384.72 1086.16,-375.52"/>
<polygon fill="midnightblue" stroke="midnightblue" points="1089.07,-373.57 1080.96,-366.75 1083.05,-377.14 1089.07,-373.57"/>
</g>
<!-- Node13 -->
<g id="node13" class="node">
<title>Node13</title>
<g id="a_node13"><a xlink:title=" ">
<polygon fill="white" stroke="#bfbfbf" points="1379.28,-168.5 1379.28,-187.5 1426.28,-187.5 1426.28,-168.5 1379.28,-168.5"/>
<text text-anchor="middle" x="1402.78" y="-175.5" font-family="Helvetica,sans-Serif" font-size="10.00">vector</text>
</a>
</g>
</g>
<!-- Node1&#45;&gt;Node13 -->
<g id="edge51" class="edge">
<title>Node1&#45;&gt;Node13</title>
<path fill="none" stroke="midnightblue" d="M1135.13,-403.43C1188.72,-385.2 1307.71,-337.37 1369.78,-255 1383,-237.45 1392.19,-213.79 1397.46,-197.55"/>
<polygon fill="midnightblue" stroke="midnightblue" points="1400.9,-198.25 1400.47,-187.67 1394.21,-196.21 1400.9,-198.25"/>
</g>
<!-- Node3 -->
<g id="node3" class="node">
<title>Node3</title>
<g id="a_node3"><a xlink:href="sitkMacro_8h.html" target="_top" xlink:title=" ">
<polygon fill="white" stroke="black" points="842.78,-56.5 842.78,-75.5 916.78,-75.5 916.78,-56.5 842.78,-56.5"/>
<text text-anchor="middle" x="879.78" y="-63.5" font-family="Helvetica,sans-Serif" font-size="10.00">sitkMacro.h</text>
</a>
</g>
</g>
<!-- Node2&#45;&gt;Node3 -->
<g id="edge2" class="edge">
<title>Node2&#45;&gt;Node3</title>
<path fill="none" stroke="midnightblue" d="M884.79,-112.08C883.99,-104.93 882.85,-94.64 881.85,-85.69"/>
<polygon fill="midnightblue" stroke="midnightblue" points="885.33,-85.3 880.75,-75.75 878.38,-86.08 885.33,-85.3"/>
</g>
<!-- Node4 -->
<g id="node4" class="node">
<title>Node4</title>
<g id="a_node4"><a xlink:title=" ">
<polygon fill="white" stroke="#bfbfbf" points="614.28,-0.5 614.28,-19.5 667.28,-19.5 667.28,-0.5 614.28,-0.5"/>
<text text-anchor="middle" x="640.78" y="-7.5" font-family="Helvetica,sans-Serif" font-size="10.00">stdint.h</text>
</a>
</g>
</g>
<!-- Node3&#45;&gt;Node4 -->
<g id="edge3" class="edge">
<title>Node3&#45;&gt;Node4</title>
<path fill="none" stroke="midnightblue" d="M842.7,-56.62C797.69,-46.45 722.27,-29.41 677.45,-19.29"/>
<polygon fill="midnightblue" stroke="midnightblue" points="678.09,-15.84 667.56,-17.05 676.54,-22.67 678.09,-15.84"/>
</g>
<!-- Node5 -->
<g id="node5" class="node">
<title>Node5</title>
<g id="a_node5"><a xlink:title=" ">
<polygon fill="white" stroke="#bfbfbf" points="743.78,-0.5 743.78,-19.5 799.78,-19.5 799.78,-0.5 743.78,-0.5"/>
<text text-anchor="middle" x="771.78" y="-7.5" font-family="Helvetica,sans-Serif" font-size="10.00">stddef.h</text>
</a>
</g>
</g>
<!-- Node3&#45;&gt;Node5 -->
<g id="edge4" class="edge">
<title>Node3&#45;&gt;Node5</title>
<path fill="none" stroke="midnightblue" d="M862.42,-56.32C845.11,-47.66 818.26,-34.24 798.28,-24.25"/>
<polygon fill="midnightblue" stroke="midnightblue" points="799.6,-21 789.09,-19.65 796.47,-27.26 799.6,-21"/>
</g>
<!-- Node6 -->
<g id="node6" class="node">
<title>Node6</title>
<g id="a_node6"><a xlink:title=" ">
<polygon fill="white" stroke="#bfbfbf" points="817.78,-0.5 817.78,-19.5 869.78,-19.5 869.78,-0.5 817.78,-0.5"/>
<text text-anchor="middle" x="843.78" y="-7.5" font-family="Helvetica,sans-Serif" font-size="10.00">cassert</text>
</a>
</g>
</g>
<!-- Node3&#45;&gt;Node6 -->
<g id="edge5" class="edge">
<title>Node3&#45;&gt;Node6</title>
<path fill="none" stroke="midnightblue" d="M873.83,-56.08C868.8,-48.53 861.44,-37.49 855.26,-28.23"/>
<polygon fill="midnightblue" stroke="midnightblue" points="858.07,-26.13 849.61,-19.75 852.25,-30.01 858.07,-26.13"/>
</g>
<!-- Node7 -->
<g id="node7" class="node">
<title>Node7</title>
<g id="a_node7"><a xlink:title=" ">
<polygon fill="white" stroke="#bfbfbf" points="887.78,-0.5 887.78,-19.5 943.78,-19.5 943.78,-0.5 887.78,-0.5"/>
<text text-anchor="middle" x="915.78" y="-7.5" font-family="Helvetica,sans-Serif" font-size="10.00">sstream</text>
</a>
</g>
</g>
<!-- Node3&#45;&gt;Node7 -->
<g id="edge6" class="edge">
<title>Node3&#45;&gt;Node7</title>
<path fill="none" stroke="midnightblue" d="M885.72,-56.08C890.75,-48.53 898.11,-37.49 904.29,-28.23"/>
<polygon fill="midnightblue" stroke="midnightblue" points="907.31,-30.01 909.94,-19.75 901.48,-26.13 907.31,-30.01"/>
</g>
<!-- Node8 -->
<g id="node8" class="node">
<title>Node8</title>
<g id="a_node8"><a xlink:title=" ">
<polygon fill="white" stroke="#bfbfbf" points="961.78,-0.5 961.78,-19.5 1005.78,-19.5 1005.78,-0.5 961.78,-0.5"/>
<text text-anchor="middle" x="983.78" y="-7.5" font-family="Helvetica,sans-Serif" font-size="10.00">limits</text>
</a>
</g>
</g>
<!-- Node3&#45;&gt;Node8 -->
<g id="edge7" class="edge">
<title>Node3&#45;&gt;Node8</title>
<path fill="none" stroke="midnightblue" d="M896.49,-56.32C913.09,-47.7 938.78,-34.36 958,-24.39"/>
<polygon fill="midnightblue" stroke="midnightblue" points="959.85,-27.37 967.11,-19.65 956.62,-21.16 959.85,-27.37"/>
</g>
<!-- Node9 -->
<g id="node9" class="node">
<title>Node9</title>
<g id="a_node9"><a xlink:href="sitkConfigure_8h.html" target="_top" xlink:title=" ">
<polygon fill="white" stroke="black" points="389.78,-0.5 389.78,-19.5 479.78,-19.5 479.78,-0.5 389.78,-0.5"/>
<text text-anchor="middle" x="434.78" y="-7.5" font-family="Helvetica,sans-Serif" font-size="10.00">sitkConfigure.h</text>
</a>
</g>
</g>
<!-- Node3&#45;&gt;Node9 -->
<g id="edge8" class="edge">
<title>Node3&#45;&gt;Node9</title>
<path fill="none" stroke="midnightblue" d="M842.76,-58.81C836.43,-57.82 829.92,-56.85 823.78,-56 705.11,-39.61 565.5,-24.46 490,-16.61"/>
<polygon fill="midnightblue" stroke="midnightblue" points="490.09,-13.1 479.78,-15.55 489.37,-20.07 490.09,-13.1"/>
</g>
<!-- Node10&#45;&gt;Node2 -->
<g id="edge11" class="edge">
<title>Node10&#45;&gt;Node2</title>
<path fill="none" stroke="midnightblue" d="M1141.61,-168.44C1086.8,-158.71 997.5,-142.85 940.22,-132.67"/>
<polygon fill="midnightblue" stroke="midnightblue" points="940.72,-129.2 930.26,-130.9 939.49,-136.1 940.72,-129.2"/>
</g>
<!-- Node10&#45;&gt;Node3 -->
<g id="edge10" class="edge">
<title>Node10&#45;&gt;Node3</title>
<path fill="none" stroke="midnightblue" d="M1165.71,-168.46C1110.89,-149.01 976.6,-101.36 913.53,-78.98"/>
<polygon fill="midnightblue" stroke="midnightblue" points="914.64,-75.66 904.04,-75.61 912.3,-82.25 914.64,-75.66"/>
</g>
<!-- Node11&#45;&gt;Node2 -->
<g id="edge13" class="edge">
<title>Node11&#45;&gt;Node2</title>
<path fill="none" stroke="midnightblue" d="M1038.72,-355.68C1002.76,-353.31 949.14,-343.95 917.78,-311 873.09,-264.06 878.03,-178.98 882.84,-141.54"/>
<polygon fill="midnightblue" stroke="midnightblue" points="886.31,-141.94 884.27,-131.54 879.38,-140.94 886.31,-141.94"/>
</g>
<!-- Node12 -->
<g id="node12" class="node">
<title>Node12</title>
<g id="a_node12"><a xlink:href="sitkTemplateFunctions_8h.html" target="_top" xlink:title=" ">
<polygon fill="white" stroke="black" points="1169.28,-230 1169.28,-249 1304.28,-249 1304.28,-230 1169.28,-230"/>
<text text-anchor="middle" x="1236.78" y="-237" font-family="Helvetica,sans-Serif" font-size="10.00">sitkTemplateFunctions.h</text>
</a>
</g>
</g>
<!-- Node11&#45;&gt;Node12 -->
<g id="edge14" class="edge">
<title>Node11&#45;&gt;Node12</title>
<path fill="none" stroke="midnightblue" d="M1087.88,-347.32C1115.27,-327.67 1182.26,-279.61 1216.26,-255.22"/>
<polygon fill="midnightblue" stroke="midnightblue" points="1218.45,-257.96 1224.54,-249.28 1214.37,-252.27 1218.45,-257.96"/>
</g>
<!-- Node11&#45;&gt;Node13 -->
<g id="edge48" class="edge">
<title>Node11&#45;&gt;Node13</title>
<path fill="none" stroke="midnightblue" d="M1113.05,-353.82C1154.62,-350.01 1222.71,-339.58 1273.78,-311 1326.03,-281.76 1370.74,-224.87 1391.07,-196.28"/>
<polygon fill="midnightblue" stroke="midnightblue" points="1394.17,-197.96 1397.01,-187.75 1388.42,-193.96 1394.17,-197.96"/>
</g>
<!-- Node16 -->
<g id="node16" class="node">
<title>Node16</title>
<g id="a_node16"><a xlink:href="sitkDetail_8h.html" target="_top" xlink:title=" ">
<polygon fill="white" stroke="black" points="675.28,-291.5 675.28,-310.5 748.28,-310.5 748.28,-291.5 675.28,-291.5"/>
<text text-anchor="middle" x="711.78" y="-298.5" font-family="Helvetica,sans-Serif" font-size="10.00">sitkDetail.h</text>
</a>
</g>
</g>
<!-- Node11&#45;&gt;Node16 -->
<g id="edge21" class="edge">
<title>Node11&#45;&gt;Node16</title>
<path fill="none" stroke="midnightblue" d="M1038.53,-350.47C971.78,-340.57 831.93,-319.83 758.73,-308.97"/>
<polygon fill="midnightblue" stroke="midnightblue" points="758.83,-305.44 748.43,-307.44 757.8,-312.37 758.83,-305.44"/>
</g>
<!-- Node27 -->
<g id="node27" class="node">
<title>Node27</title>
<g id="a_node27"><a xlink:href="sitkPixelIDTokens_8h.html" target="_top" xlink:title=" ">
<polygon fill="white" stroke="black" points="926.78,-291.5 926.78,-310.5 1036.78,-310.5 1036.78,-291.5 926.78,-291.5"/>
<text text-anchor="middle" x="981.78" y="-298.5" font-family="Helvetica,sans-Serif" font-size="10.00">sitkPixelIDTokens.h</text>
</a>
</g>
</g>
<!-- Node11&#45;&gt;Node27 -->
<g id="edge40" class="edge">
<title>Node11&#45;&gt;Node27</title>
<path fill="none" stroke="midnightblue" d="M1060.67,-347.32C1045.87,-338.82 1023.08,-325.73 1005.79,-315.8"/>
<polygon fill="midnightblue" stroke="midnightblue" points="1007.26,-312.6 996.84,-310.65 1003.77,-318.67 1007.26,-312.6"/>
</g>
<!-- Node30 -->
<g id="node30" class="node">
<title>Node30</title>
<g id="a_node30"><a xlink:title=" ">
<polygon fill="white" stroke="#bfbfbf" points="1042.28,-230 1042.28,-249 1111.28,-249 1111.28,-230 1042.28,-230"/>
<text text-anchor="middle" x="1076.78" y="-237" font-family="Helvetica,sans-Serif" font-size="10.00">type_traits</text>
</a>
</g>
</g>
<!-- Node11&#45;&gt;Node30 -->
<g id="edge50" class="edge">
<title>Node11&#45;&gt;Node30</title>
<path fill="none" stroke="midnightblue" d="M1075.85,-347.32C1076.01,-328.76 1076.39,-284.84 1076.61,-259.47"/>
<polygon fill="midnightblue" stroke="midnightblue" points="1080.11,-259.31 1076.7,-249.28 1073.11,-259.25 1080.11,-259.31"/>
</g>
<!-- Node31 -->
<g id="node31" class="node">
<title>Node31</title>
<g id="a_node31"><a xlink:title=" ">
<polygon fill="white" stroke="#bfbfbf" points="1206.78,-291.5 1206.78,-310.5 1264.78,-310.5 1264.78,-291.5 1206.78,-291.5"/>
<text text-anchor="middle" x="1235.78" y="-298.5" font-family="Helvetica,sans-Serif" font-size="10.00">memory</text>
</a>
</g>
</g>
<!-- Node11&#45;&gt;Node31 -->
<g id="edge49" class="edge">
<title>Node11&#45;&gt;Node31</title>
<path fill="none" stroke="midnightblue" d="M1101.13,-347.44C1128.05,-338.36 1170.77,-323.94 1200.86,-313.78"/>
<polygon fill="midnightblue" stroke="midnightblue" points="1202.19,-317.03 1210.54,-310.52 1199.95,-310.4 1202.19,-317.03"/>
</g>
<!-- Node12&#45;&gt;Node2 -->
<g id="edge16" class="edge">
<title>Node12&#45;&gt;Node2</title>
<path fill="none" stroke="midnightblue" d="M1215.88,-229.97C1192.33,-220.25 1152.99,-203.66 1119.78,-188 1102.16,-179.69 1099.07,-174.69 1080.78,-168 1034.55,-151.11 979.77,-139.13 940.06,-131.8"/>
<polygon fill="midnightblue" stroke="midnightblue" points="940.51,-128.33 930.04,-129.99 939.26,-135.21 940.51,-128.33"/>
</g>
<!-- Node12&#45;&gt;Node3 -->
<g id="edge15" class="edge">
<title>Node12&#45;&gt;Node3</title>
<path fill="none" stroke="midnightblue" d="M1244.47,-229.84C1256.13,-215.64 1275.44,-187.06 1260.78,-168 1220,-115.01 1019.46,-84.06 926.83,-72.39"/>
<polygon fill="midnightblue" stroke="midnightblue" points="927.24,-68.91 916.88,-71.16 926.38,-75.86 927.24,-68.91"/>
</g>
<!-- Node12&#45;&gt;Node10 -->
<g id="edge17" class="edge">
<title>Node12&#45;&gt;Node10</title>
<path fill="none" stroke="midnightblue" d="M1230.04,-229.98C1222.99,-221.05 1211.74,-206.81 1202.92,-195.64"/>
<polygon fill="midnightblue" stroke="midnightblue" points="1205.44,-193.19 1196.5,-187.51 1199.95,-197.53 1205.44,-193.19"/>
</g>
<!-- Node12&#45;&gt;Node13 -->
<g id="edge18" class="edge">
<title>Node12&#45;&gt;Node13</title>
<path fill="none" stroke="midnightblue" d="M1260.56,-229.98C1289.16,-219.72 1337.33,-202.46 1369.58,-190.9"/>
<polygon fill="midnightblue" stroke="midnightblue" points="1370.8,-194.18 1379.04,-187.51 1368.44,-187.59 1370.8,-194.18"/>
</g>
<!-- Node14 -->
<g id="node14" class="node">
<title>Node14</title>
<g id="a_node14"><a xlink:title=" ">
<polygon fill="white" stroke="#bfbfbf" points="1014.28,-168.5 1014.28,-187.5 1071.28,-187.5 1071.28,-168.5 1014.28,-168.5"/>
<text text-anchor="middle" x="1042.78" y="-175.5" font-family="Helvetica,sans-Serif" font-size="10.00">ostream</text>
</a>
</g>
</g>
<!-- Node12&#45;&gt;Node14 -->
<g id="edge19" class="edge">
<title>Node12&#45;&gt;Node14</title>
<path fill="none" stroke="midnightblue" d="M1208.98,-229.98C1175.13,-219.59 1117.81,-202.01 1080.12,-190.45"/>
<polygon fill="midnightblue" stroke="midnightblue" points="1081.11,-187.1 1070.52,-187.51 1079.06,-193.79 1081.11,-187.1"/>
</g>
<!-- Node15 -->
<g id="node15" class="node">
<title>Node15</title>
<g id="a_node15"><a xlink:title=" ">
<polygon fill="white" stroke="#bfbfbf" points="1308.28,-168.5 1308.28,-187.5 1361.28,-187.5 1361.28,-168.5 1308.28,-168.5"/>
<text text-anchor="middle" x="1334.78" y="-175.5" font-family="Helvetica,sans-Serif" font-size="10.00">iterator</text>
</a>
</g>
</g>
<!-- Node12&#45;&gt;Node15 -->
<g id="edge20" class="edge">
<title>Node12&#45;&gt;Node15</title>
<path fill="none" stroke="midnightblue" d="M1250.82,-229.98C1266.83,-220.25 1293.23,-204.23 1312.15,-192.74"/>
<polygon fill="midnightblue" stroke="midnightblue" points="1314.03,-195.69 1320.76,-187.51 1310.4,-189.71 1314.03,-195.69"/>
</g>
<!-- Node17 -->
<g id="node17" class="node">
<title>Node17</title>
<g id="a_node17"><a xlink:href="sitkMemberFunctionFactoryBase_8h.html" target="_top" xlink:title=" ">
<polygon fill="white" stroke="black" points="221.78,-224.5 221.78,-254.5 373.78,-254.5 373.78,-224.5 221.78,-224.5"/>
<text text-anchor="start" x="229.78" y="-242.5" font-family="Helvetica,sans-Serif" font-size="10.00">sitkMemberFunctionFactory</text>
<text text-anchor="middle" x="297.78" y="-231.5" font-family="Helvetica,sans-Serif" font-size="10.00">Base.h</text>
</a>
</g>
</g>
<!-- Node16&#45;&gt;Node17 -->
<g id="edge22" class="edge">
<title>Node16&#45;&gt;Node17</title>
<path fill="none" stroke="midnightblue" d="M675.04,-294.72C610.25,-285.41 474.07,-265.84 384.29,-252.93"/>
<polygon fill="midnightblue" stroke="midnightblue" points="384.51,-249.43 374.12,-251.47 383.52,-256.36 384.51,-249.43"/>
</g>
<!-- Node23 -->
<g id="node23" class="node">
<title>Node23</title>
<g id="a_node23"><a xlink:title=" ">
<polygon fill="white" stroke="#bfbfbf" points="642.28,-168.5 642.28,-187.5 781.28,-187.5 781.28,-168.5 642.28,-168.5"/>
<text text-anchor="middle" x="711.78" y="-175.5" font-family="Helvetica,sans-Serif" font-size="10.00">Ancillary/FunctionTraits.h</text>
</a>
</g>
</g>
<!-- Node16&#45;&gt;Node23 -->
<g id="edge39" class="edge">
<title>Node16&#45;&gt;Node23</title>
<path fill="none" stroke="midnightblue" d="M711.78,-291.3C711.78,-271.85 711.78,-224.49 711.78,-197.9"/>
<polygon fill="midnightblue" stroke="midnightblue" points="715.28,-197.62 711.78,-187.62 708.28,-197.62 715.28,-197.62"/>
</g>
<!-- Node17&#45;&gt;Node3 -->
<g id="edge31" class="edge">
<title>Node17&#45;&gt;Node3</title>
<path fill="none" stroke="midnightblue" d="M355.01,-224.5C388.44,-215.58 431.13,-202.92 467.78,-188 485.45,-180.8 488.01,-174.97 505.78,-168 619.6,-123.31 760.38,-91.16 832.43,-76.27"/>
<polygon fill="midnightblue" stroke="midnightblue" points="833.45,-79.64 842.55,-74.2 832.05,-72.78 833.45,-79.64"/>
</g>
<!-- Node17&#45;&gt;Node9 -->
<g id="edge23" class="edge">
<title>Node17&#45;&gt;Node9</title>
<path fill="none" stroke="midnightblue" d="M221.57,-233.28C151.56,-226.94 54.57,-213.72 26.78,-188 1.51,-164.62 -9.55,-139.02 11.78,-112 57.05,-54.65 275.67,-26.28 379.63,-15.86"/>
<polygon fill="midnightblue" stroke="midnightblue" points="380.01,-19.34 389.62,-14.88 379.33,-12.37 380.01,-19.34"/>
</g>
<!-- Node18 -->
<g id="node18" class="node">
<title>Node18</title>
<g id="a_node18"><a xlink:href="sitkPixelIDTypes_8h.html" target="_top" xlink:title=" ">
<polygon fill="white" stroke="black" points="21.28,-112.5 21.28,-131.5 126.28,-131.5 126.28,-112.5 21.28,-112.5"/>
<text text-anchor="middle" x="73.78" y="-119.5" font-family="Helvetica,sans-Serif" font-size="10.00">sitkPixelIDTypes.h</text>
</a>
</g>
</g>
<!-- Node17&#45;&gt;Node18 -->
<g id="edge24" class="edge">
<title>Node17&#45;&gt;Node18</title>
<path fill="none" stroke="midnightblue" d="M221.62,-234.39C152.57,-228.88 58.14,-216.27 34.78,-188 21.79,-172.28 38.82,-151.77 54.28,-138.03"/>
<polygon fill="midnightblue" stroke="midnightblue" points="56.64,-140.63 62.06,-131.53 52.14,-135.26 56.64,-140.63"/>
</g>
<!-- Node19 -->
<g id="node19" class="node">
<title>Node19</title>
<g id="a_node19"><a xlink:href="sitkPixelIDTypeLists_8h.html" target="_top" xlink:title=" ">
<polygon fill="white" stroke="black" points="336.78,-168.5 336.78,-187.5 458.78,-187.5 458.78,-168.5 336.78,-168.5"/>
<text text-anchor="middle" x="397.78" y="-175.5" font-family="Helvetica,sans-Serif" font-size="10.00">sitkPixelIDTypeLists.h</text>
</a>
</g>
</g>
<!-- Node17&#45;&gt;Node19 -->
<g id="edge25" class="edge">
<title>Node17&#45;&gt;Node19</title>
<path fill="none" stroke="midnightblue" d="M321.48,-224.4C337.5,-214.86 358.58,-202.32 374.51,-192.84"/>
<polygon fill="midnightblue" stroke="midnightblue" points="376.42,-195.78 383.23,-187.66 372.84,-189.76 376.42,-195.78"/>
</g>
<!-- Node20 -->
<g id="node20" class="node">
<title>Node20</title>
<g id="a_node20"><a xlink:title=" ">
<polygon fill="white" stroke="#bfbfbf" points="179.28,-112.5 179.28,-131.5 290.28,-131.5 290.28,-112.5 179.28,-112.5"/>
<text text-anchor="middle" x="234.78" y="-119.5" font-family="Helvetica,sans-Serif" font-size="10.00">Ancillary/TypeList.h</text>
</a>
</g>
</g>
<!-- Node17&#45;&gt;Node20 -->
<g id="edge34" class="edge">
<title>Node17&#45;&gt;Node20</title>
<path fill="none" stroke="midnightblue" d="M234.28,-224.5C215.09,-216.97 196.12,-205.49 184.78,-188 172.93,-169.73 193.09,-150.08 211.24,-137.23"/>
<polygon fill="midnightblue" stroke="midnightblue" points="213.46,-139.96 219.84,-131.5 209.58,-134.13 213.46,-139.96"/>
</g>
<!-- Node22 -->
<g id="node22" class="node">
<title>Node22</title>
<g id="a_node22"><a xlink:href="sitkNonCopyable_8h.html" target="_top" xlink:title=" ">
<polygon fill="white" stroke="black" points="515.28,-168.5 515.28,-187.5 624.28,-187.5 624.28,-168.5 515.28,-168.5"/>
<text text-anchor="middle" x="569.78" y="-175.5" font-family="Helvetica,sans-Serif" font-size="10.00">sitkNonCopyable.h</text>
</a>
</g>
</g>
<!-- Node17&#45;&gt;Node22 -->
<g id="edge32" class="edge">
<title>Node17&#45;&gt;Node22</title>
<path fill="none" stroke="midnightblue" d="M361.89,-224.47C410.56,-213.83 476.46,-199.41 520.91,-189.69"/>
<polygon fill="midnightblue" stroke="midnightblue" points="521.87,-193.06 530.89,-187.51 520.37,-186.22 521.87,-193.06"/>
</g>
<!-- Node17&#45;&gt;Node23 -->
<g id="edge35" class="edge">
<title>Node17&#45;&gt;Node23</title>
<path fill="none" stroke="midnightblue" d="M374.19,-227.52C450.95,-216.49 568.21,-199.63 642.38,-188.97"/>
<polygon fill="midnightblue" stroke="midnightblue" points="643.15,-192.4 652.55,-187.51 642.15,-185.47 643.15,-192.4"/>
</g>
<!-- Node24 -->
<g id="node24" class="node">
<title>Node24</title>
<g id="a_node24"><a xlink:title=" ">
<polygon fill="white" stroke="#bfbfbf" points="44.28,-168.5 44.28,-187.5 137.28,-187.5 137.28,-168.5 44.28,-168.5"/>
<text text-anchor="middle" x="90.78" y="-175.5" font-family="Helvetica,sans-Serif" font-size="10.00">unordered_map</text>
</a>
</g>
</g>
<!-- Node17&#45;&gt;Node24 -->
<g id="edge36" class="edge">
<title>Node17&#45;&gt;Node24</title>
<path fill="none" stroke="midnightblue" d="M248.98,-224.47C212.8,-214.08 164.11,-200.08 130.34,-190.37"/>
<polygon fill="midnightblue" stroke="midnightblue" points="130.95,-186.91 120.37,-187.51 129.01,-193.63 130.95,-186.91"/>
</g>
<!-- Node25 -->
<g id="node25" class="node">
<title>Node25</title>
<g id="a_node25"><a xlink:title=" ">
<polygon fill="white" stroke="#bfbfbf" points="194.28,-168.5 194.28,-187.5 259.28,-187.5 259.28,-168.5 194.28,-168.5"/>
<text text-anchor="middle" x="226.78" y="-175.5" font-family="Helvetica,sans-Serif" font-size="10.00">functional</text>
</a>
</g>
</g>
<!-- Node17&#45;&gt;Node25 -->
<g id="edge37" class="edge">
<title>Node17&#45;&gt;Node25</title>
<path fill="none" stroke="midnightblue" d="M280.95,-224.4C270.1,-215.31 256,-203.49 244.9,-194.19"/>
<polygon fill="midnightblue" stroke="midnightblue" points="247.02,-191.4 237.11,-187.66 242.52,-196.76 247.02,-191.4"/>
</g>
<!-- Node26 -->
<g id="node26" class="node">
<title>Node26</title>
<g id="a_node26"><a xlink:title=" ">
<polygon fill="white" stroke="#bfbfbf" points="277.28,-168.5 277.28,-187.5 318.28,-187.5 318.28,-168.5 277.28,-168.5"/>
<text text-anchor="middle" x="297.78" y="-175.5" font-family="Helvetica,sans-Serif" font-size="10.00">tuple</text>
</a>
</g>
</g>
<!-- Node17&#45;&gt;Node26 -->
<g id="edge38" class="edge">
<title>Node17&#45;&gt;Node26</title>
<path fill="none" stroke="midnightblue" d="M297.78,-224.4C297.78,-216.47 297.78,-206.46 297.78,-197.86"/>
<polygon fill="midnightblue" stroke="midnightblue" points="301.28,-197.66 297.78,-187.66 294.28,-197.66 301.28,-197.66"/>
</g>
<!-- Node19&#45;&gt;Node4 -->
<g id="edge26" class="edge">
<title>Node19&#45;&gt;Node4</title>
<path fill="none" stroke="midnightblue" d="M407.65,-168.13C422.27,-155.17 450.76,-130.58 476.78,-112 524.57,-77.86 583.99,-43.02 616.58,-24.51"/>
<polygon fill="midnightblue" stroke="midnightblue" points="618.42,-27.49 625.41,-19.52 614.98,-21.39 618.42,-27.49"/>
</g>
<!-- Node19&#45;&gt;Node9 -->
<g id="edge27" class="edge">
<title>Node19&#45;&gt;Node9</title>
<path fill="none" stroke="midnightblue" d="M385.56,-168.24C375.42,-160.14 361.73,-147.11 355.78,-132 352.52,-123.73 352.88,-120.4 355.78,-112 367.84,-77.01 397.55,-44.87 416.9,-26.64"/>
<polygon fill="midnightblue" stroke="midnightblue" points="419.46,-29.04 424.48,-19.7 414.74,-23.87 419.46,-29.04"/>
</g>
<!-- Node19&#45;&gt;Node18 -->
<g id="edge28" class="edge">
<title>Node19&#45;&gt;Node18</title>
<path fill="none" stroke="midnightblue" d="M346.44,-168.44C288.97,-158.87 195.91,-143.36 134.78,-133.17"/>
<polygon fill="midnightblue" stroke="midnightblue" points="135.31,-129.71 124.88,-131.52 134.16,-136.61 135.31,-129.71"/>
</g>
<!-- Node19&#45;&gt;Node20 -->
<g id="edge29" class="edge">
<title>Node19&#45;&gt;Node20</title>
<path fill="none" stroke="midnightblue" d="M371.95,-168.44C344.53,-159.36 301,-144.94 270.34,-134.78"/>
<polygon fill="midnightblue" stroke="midnightblue" points="271.08,-131.34 260.48,-131.52 268.88,-137.98 271.08,-131.34"/>
</g>
<!-- Node21 -->
<g id="node21" class="node">
<title>Node21</title>
<g id="a_node21"><a xlink:title=" ">
<polygon fill="white" stroke="#bfbfbf" points="365.28,-112.5 365.28,-131.5 424.28,-131.5 424.28,-112.5 365.28,-112.5"/>
<text text-anchor="middle" x="394.78" y="-119.5" font-family="Helvetica,sans-Serif" font-size="10.00">complex</text>
</a>
</g>
</g>
<!-- Node19&#45;&gt;Node21 -->
<g id="edge30" class="edge">
<title>Node19&#45;&gt;Node21</title>
<path fill="none" stroke="midnightblue" d="M397.28,-168.08C396.89,-161.01 396.32,-150.86 395.83,-141.99"/>
<polygon fill="midnightblue" stroke="midnightblue" points="399.31,-141.54 395.26,-131.75 392.32,-141.93 399.31,-141.54"/>
</g>
<!-- Node22&#45;&gt;Node2 -->
<g id="edge33" class="edge">
<title>Node22&#45;&gt;Node2</title>
<path fill="none" stroke="midnightblue" d="M619.85,-168.44C677.59,-158.58 772.18,-142.41 831.6,-132.26"/>
<polygon fill="midnightblue" stroke="midnightblue" points="832.28,-135.69 841.55,-130.56 831.1,-128.79 832.28,-135.69"/>
</g>
<!-- Node27&#45;&gt;Node9 -->
<g id="edge41" class="edge">
<title>Node27&#45;&gt;Node9</title>
<path fill="none" stroke="midnightblue" d="M944.46,-291.48C893.87,-277.47 809.78,-244.35 809.78,-179 809.78,-179 809.78,-179 809.78,-121 809.78,-55.18 594.34,-25.94 490.05,-15.64"/>
<polygon fill="midnightblue" stroke="midnightblue" points="490.3,-12.15 480.01,-14.68 489.63,-19.12 490.3,-12.15"/>
</g>
<!-- Node28 -->
<g id="node28" class="node">
<title>Node28</title>
<g id="a_node28"><a xlink:href="sitkPixelIDValues_8h.html" target="_top" xlink:title=" ">
<polygon fill="white" stroke="black" points="913.78,-230 913.78,-249 1023.78,-249 1023.78,-230 913.78,-230"/>
<text text-anchor="middle" x="968.78" y="-237" font-family="Helvetica,sans-Serif" font-size="10.00">sitkPixelIDValues.h</text>
</a>
</g>
</g>
<!-- Node27&#45;&gt;Node28 -->
<g id="edge42" class="edge">
<title>Node27&#45;&gt;Node28</title>
<path fill="none" stroke="midnightblue" d="M979.91,-291.48C978.06,-282.99 975.16,-269.7 972.78,-258.82"/>
<polygon fill="midnightblue" stroke="midnightblue" points="976.19,-258.03 970.64,-249.01 969.35,-259.53 976.19,-258.03"/>
</g>
<!-- Node27&#45;&gt;Node30 -->
<g id="edge47" class="edge">
<title>Node27&#45;&gt;Node30</title>
<path fill="none" stroke="midnightblue" d="M995.39,-291.48C1010.84,-281.8 1036.27,-265.87 1054.59,-254.39"/>
<polygon fill="midnightblue" stroke="midnightblue" points="1056.57,-257.28 1063.19,-249.01 1052.86,-251.35 1056.57,-257.28"/>
</g>
<!-- Node28&#45;&gt;Node2 -->
<g id="edge43" class="edge">
<title>Node28&#45;&gt;Node2</title>
<path fill="none" stroke="midnightblue" d="M971.06,-229.93C974.3,-215.86 978.6,-187.46 966.78,-168 957.58,-152.86 941.3,-142.42 925.74,-135.43"/>
<polygon fill="midnightblue" stroke="midnightblue" points="926.79,-132.08 916.21,-131.52 924.13,-138.56 926.79,-132.08"/>
</g>
<!-- Node28&#45;&gt;Node14 -->
<g id="edge46" class="edge">
<title>Node28&#45;&gt;Node14</title>
<path fill="none" stroke="midnightblue" d="M979.38,-229.98C991.03,-220.61 1009.96,-205.38 1024.11,-194.01"/>
<polygon fill="midnightblue" stroke="midnightblue" points="1026.59,-196.5 1032.19,-187.51 1022.21,-191.05 1026.59,-196.5"/>
</g>
<!-- Node28&#45;&gt;Node19 -->
<g id="edge44" class="edge">
<title>Node28&#45;&gt;Node19</title>
<path fill="none" stroke="midnightblue" d="M913.77,-232.77C809.85,-221.94 584.78,-198.49 469.3,-186.45"/>
<polygon fill="midnightblue" stroke="midnightblue" points="469.46,-182.95 459.15,-185.4 468.73,-189.91 469.46,-182.95"/>
</g>
<!-- Node29 -->
<g id="node29" class="node">
<title>Node29</title>
<g id="a_node29"><a xlink:title=" ">
<polygon fill="white" stroke="#bfbfbf" points="913.78,-168.5 913.78,-187.5 957.78,-187.5 957.78,-168.5 913.78,-168.5"/>
<text text-anchor="middle" x="935.78" y="-175.5" font-family="Helvetica,sans-Serif" font-size="10.00">string</text>
</a>
</g>
</g>
<!-- Node28&#45;&gt;Node29 -->
<g id="edge45" class="edge">
<title>Node28&#45;&gt;Node29</title>
<path fill="none" stroke="midnightblue" d="M964.05,-229.98C959.2,-221.23 951.51,-207.37 945.38,-196.31"/>
<polygon fill="midnightblue" stroke="midnightblue" points="948.41,-194.56 940.5,-187.51 942.29,-197.95 948.41,-194.56"/>
</g>
</g>
</svg>
        <g id="navigator" transform="translate(0 0)" fill="#404254">
                <rect fill="#f2f5e9" fill-opacity="0.5" stroke="#606060" stroke-width=".5" x="0" y="0" width="60" height="60"/>
                <use id="zoomplus" xlink:href="#zoomPlus" x="17" y="9" onmousedown="handleZoom(evt,'in')"/>
                <use id="zoomminus" xlink:href="#zoomMin" x="42" y="9" onmousedown="handleZoom(evt,'out')"/>
                <use id="reset" xlink:href="#resetDef" x="30" y="36" onmousedown="handleReset()"/>
                <g id="arrowUp" xlink:href="#dirArrow" transform="translate(30 24)" onmousedown="handlePan(0,-1)">
                  <use xlink:href="#rim" fill="#404040">
                        <set attributeName="fill" to="#808080" begin="arrowUp.mouseover" end="arrowUp.mouseout"/>
                  </use>
                  <path fill="none" stroke="white" stroke-width="1.5" d="M0,-3.0v7 M-2.5,-0.5L0,-3.0L2.5,-0.5"/>
                </g>
                <g id="arrowRight" xlink:href="#dirArrow" transform="rotate(90) translate(36 -43)" onmousedown="handlePan(1,0)">
                  <use xlink:href="#rim" fill="#404040">
                        <set attributeName="fill" to="#808080" begin="arrowRight.mouseover" end="arrowRight.mouseout"/>
                  </use>
                  <path fill="none" stroke="white" stroke-width="1.5" d="M0,-3.0v7 M-2.5,-0.5L0,-3.0L2.5,-0.5"/>
                </g>
                <g id="arrowDown" xlink:href="#dirArrow" transform="rotate(180) translate(-30 -48)" onmousedown="handlePan(0,1)">
                  <use xlink:href="#rim" fill="#404040">
                        <set attributeName="fill" to="#808080" begin="arrowDown.mouseover" end="arrowDown.mouseout"/>
                  </use>
                  <path fill="none" stroke="white" stroke-width="1.5" d="M0,-3.0v7 M-2.5,-0.5L0,-3.0L2.5,-0.5"/>
                </g>
                <g id="arrowLeft" xlink:href="#dirArrow" transform="rotate(270) translate(-36 17)" onmousedown="handlePan(-1,0)">
                  <use xlink:href="#rim" fill="#404040">
                        <set attributeName="fill" to="#808080" begin="arrowLeft.mouseover" end="arrowLeft.mouseout"/>
                  </use>
                  <path fill="none" stroke="white" stroke-width="1.5" d="M0,-3.0v7 M-2.5,-0.5L0,-3.0L2.5,-0.5"/>
                </g>
        </g>
        <svg viewBox="0 0 15 15" width="100%" height="30px" preserveAspectRatio="xMaxYMin meet">
         <g id="arrow_out" transform="scale(0.3 0.3)">
          <a xlink:href="sitkTransform_8h__incl_org.svg" target="_base">
           <rect id="button" ry="5" rx="5" y="6" x="6" height="38" width="38"
                fill="#f2f5e9" fill-opacity="0.5" stroke="#606060" stroke-width="1.0"/>
           <path id="arrow"
             d="M 11.500037,31.436501 C 11.940474,20.09759 22.043105,11.32322 32.158766,21.979434 L 37.068811,17.246167 C 37.068811,17.246167 37.088388,32 37.088388,32 L 22.160133,31.978069 C 22.160133,31.978069 26.997745,27.140456 26.997745,27.140456 C 18.528582,18.264221 13.291696,25.230495 11.500037,31.436501 z"
             style="fill:#404040;"/>
          </a>
         </g>
        </svg>
</svg>
