<?xml version="1.0" encoding="UTF-8" standalone="no"?>
<!DOCTYPE svg PUBLIC "-//W3C//DTD SVG 1.1//EN"
 "http://www.w3.org/Graphics/SVG/1.1/DTD/svg11.dtd">
<!-- Generated by graphviz version 2.43.0 (0)
 -->
<!-- Title: sitkPimpleImageBase.h Pages: 1 -->
<svg width="928pt" height="308pt"
 viewBox="0.00 0.00 928.13 308.00" xmlns="http://www.w3.org/2000/svg" xmlns:xlink="http://www.w3.org/1999/xlink">
<g id="graph0" class="graph" transform="scale(1 1) rotate(0) translate(4 304)">
<title>sitkPimpleImageBase.h</title>
<polygon fill="white" stroke="transparent" points="-4,4 -4,-304 924.13,-304 924.13,4 -4,4"/>
<!-- Node1 -->
<g id="node1" class="node">
<title>Node1</title>
<g id="a_node1"><a xlink:title=" ">
<polygon fill="#bfbfbf" stroke="black" points="525.5,-280.5 525.5,-299.5 657.5,-299.5 657.5,-280.5 525.5,-280.5"/>
<text text-anchor="middle" x="591.5" y="-287.5" font-family="Helvetica,sans-Serif" font-size="10.00">sitkPimpleImageBase.h</text>
</a>
</g>
</g>
<!-- Node2 -->
<g id="node2" class="node">
<title>Node2</title>
<g id="a_node2"><a xlink:title=" ">
<polygon fill="white" stroke="#bfbfbf" points="568,-168.5 568,-187.5 615,-187.5 615,-168.5 568,-168.5"/>
<text text-anchor="middle" x="591.5" y="-175.5" font-family="Helvetica,sans-Serif" font-size="10.00">vector</text>
</a>
</g>
</g>
<!-- Node1&#45;&gt;Node2 -->
<g id="edge1" class="edge">
<title>Node1&#45;&gt;Node2</title>
<path fill="none" stroke="midnightblue" d="M591.5,-280.37C591.5,-262.62 591.5,-221.67 591.5,-197.6"/>
<polygon fill="midnightblue" stroke="midnightblue" points="595,-197.59 591.5,-187.59 588,-197.59 595,-197.59"/>
</g>
<!-- Node3 -->
<g id="node3" class="node">
<title>Node3</title>
<g id="a_node3"><a xlink:href="sitkPixelIDTokens_8h.html" target="_top" xlink:title=" ">
<polygon fill="white" stroke="black" points="403.5,-224.5 403.5,-243.5 513.5,-243.5 513.5,-224.5 403.5,-224.5"/>
<text text-anchor="middle" x="458.5" y="-231.5" font-family="Helvetica,sans-Serif" font-size="10.00">sitkPixelIDTokens.h</text>
</a>
</g>
</g>
<!-- Node1&#45;&gt;Node3 -->
<g id="edge2" class="edge">
<title>Node1&#45;&gt;Node3</title>
<path fill="none" stroke="midnightblue" d="M570.43,-280.44C548.44,-271.52 513.77,-257.44 488.84,-247.32"/>
<polygon fill="midnightblue" stroke="midnightblue" points="490.06,-244.04 479.48,-243.52 487.42,-250.52 490.06,-244.04"/>
</g>
<!-- Node20 -->
<g id="node20" class="node">
<title>Node20</title>
<g id="a_node20"><a xlink:href="sitkTemplateFunctions_8h.html" target="_top" xlink:title=" ">
<polygon fill="white" stroke="black" points="647,-224.5 647,-243.5 782,-243.5 782,-224.5 647,-224.5"/>
<text text-anchor="middle" x="714.5" y="-231.5" font-family="Helvetica,sans-Serif" font-size="10.00">sitkTemplateFunctions.h</text>
</a>
</g>
</g>
<!-- Node1&#45;&gt;Node20 -->
<g id="edge22" class="edge">
<title>Node1&#45;&gt;Node20</title>
<path fill="none" stroke="midnightblue" d="M610.99,-280.44C631.14,-271.6 662.82,-257.69 685.83,-247.59"/>
<polygon fill="midnightblue" stroke="midnightblue" points="687.35,-250.74 695.1,-243.52 684.54,-244.33 687.35,-250.74"/>
</g>
<!-- Node4 -->
<g id="node4" class="node">
<title>Node4</title>
<g id="a_node4"><a xlink:href="sitkConfigure_8h.html" target="_top" xlink:title=" ">
<polygon fill="white" stroke="black" points="408.5,-0.5 408.5,-19.5 498.5,-19.5 498.5,-0.5 408.5,-0.5"/>
<text text-anchor="middle" x="453.5" y="-7.5" font-family="Helvetica,sans-Serif" font-size="10.00">sitkConfigure.h</text>
</a>
</g>
</g>
<!-- Node3&#45;&gt;Node4 -->
<g id="edge3" class="edge">
<title>Node3&#45;&gt;Node4</title>
<path fill="none" stroke="midnightblue" d="M403.42,-225.21C380.95,-219.02 357.1,-207.92 343.5,-188 303.32,-129.13 390.11,-56.06 432.25,-25.5"/>
<polygon fill="midnightblue" stroke="midnightblue" points="434.38,-28.28 440.51,-19.64 430.33,-22.57 434.38,-28.28"/>
</g>
<!-- Node5 -->
<g id="node5" class="node">
<title>Node5</title>
<g id="a_node5"><a xlink:href="sitkPixelIDValues_8h.html" target="_top" xlink:title=" ">
<polygon fill="white" stroke="black" points="352.5,-168.5 352.5,-187.5 462.5,-187.5 462.5,-168.5 352.5,-168.5"/>
<text text-anchor="middle" x="407.5" y="-175.5" font-family="Helvetica,sans-Serif" font-size="10.00">sitkPixelIDValues.h</text>
</a>
</g>
</g>
<!-- Node3&#45;&gt;Node5 -->
<g id="edge4" class="edge">
<title>Node3&#45;&gt;Node5</title>
<path fill="none" stroke="midnightblue" d="M450.08,-224.08C442.65,-216.22 431.65,-204.57 422.69,-195.08"/>
<polygon fill="midnightblue" stroke="midnightblue" points="425.18,-192.62 415.76,-187.75 420.09,-197.42 425.18,-192.62"/>
</g>
<!-- Node19 -->
<g id="node19" class="node">
<title>Node19</title>
<g id="a_node19"><a xlink:title=" ">
<polygon fill="white" stroke="#bfbfbf" points="481,-168.5 481,-187.5 550,-187.5 550,-168.5 481,-168.5"/>
<text text-anchor="middle" x="515.5" y="-175.5" font-family="Helvetica,sans-Serif" font-size="10.00">type_traits</text>
</a>
</g>
</g>
<!-- Node3&#45;&gt;Node19 -->
<g id="edge21" class="edge">
<title>Node3&#45;&gt;Node19</title>
<path fill="none" stroke="midnightblue" d="M467.66,-224.32C476,-216.42 488.53,-204.55 498.68,-194.94"/>
<polygon fill="midnightblue" stroke="midnightblue" points="501.32,-197.25 506.18,-187.83 496.51,-192.17 501.32,-197.25"/>
</g>
<!-- Node6 -->
<g id="node6" class="node">
<title>Node6</title>
<g id="a_node6"><a xlink:href="sitkCommon_8h.html" target="_top" xlink:title=" ">
<polygon fill="white" stroke="black" points="686.5,-112.5 686.5,-131.5 774.5,-131.5 774.5,-112.5 686.5,-112.5"/>
<text text-anchor="middle" x="730.5" y="-119.5" font-family="Helvetica,sans-Serif" font-size="10.00">sitkCommon.h</text>
</a>
</g>
</g>
<!-- Node5&#45;&gt;Node6 -->
<g id="edge5" class="edge">
<title>Node5&#45;&gt;Node6</title>
<path fill="none" stroke="midnightblue" d="M458.68,-168.44C518.04,-158.52 615.49,-142.23 676.16,-132.08"/>
<polygon fill="midnightblue" stroke="midnightblue" points="677.02,-135.49 686.31,-130.39 675.87,-128.59 677.02,-135.49"/>
</g>
<!-- Node13 -->
<g id="node13" class="node">
<title>Node13</title>
<g id="a_node13"><a xlink:href="sitkPixelIDTypeLists_8h.html" target="_top" xlink:title=" ">
<polygon fill="white" stroke="black" points="174.5,-56.5 174.5,-75.5 296.5,-75.5 296.5,-56.5 174.5,-56.5"/>
<text text-anchor="middle" x="235.5" y="-63.5" font-family="Helvetica,sans-Serif" font-size="10.00">sitkPixelIDTypeLists.h</text>
</a>
</g>
</g>
<!-- Node5&#45;&gt;Node13 -->
<g id="edge13" class="edge">
<title>Node5&#45;&gt;Node13</title>
<path fill="none" stroke="midnightblue" d="M394,-168.37C364.49,-149.49 293.96,-104.38 257.76,-81.24"/>
<polygon fill="midnightblue" stroke="midnightblue" points="259.24,-78.03 248.93,-75.59 255.47,-83.93 259.24,-78.03"/>
</g>
<!-- Node17 -->
<g id="node17" class="node">
<title>Node17</title>
<g id="a_node17"><a xlink:title=" ">
<polygon fill="white" stroke="#bfbfbf" points="390.5,-112.5 390.5,-131.5 434.5,-131.5 434.5,-112.5 390.5,-112.5"/>
<text text-anchor="middle" x="412.5" y="-119.5" font-family="Helvetica,sans-Serif" font-size="10.00">string</text>
</a>
</g>
</g>
<!-- Node5&#45;&gt;Node17 -->
<g id="edge19" class="edge">
<title>Node5&#45;&gt;Node17</title>
<path fill="none" stroke="midnightblue" d="M408.33,-168.08C408.98,-161.01 409.92,-150.86 410.74,-141.99"/>
<polygon fill="midnightblue" stroke="midnightblue" points="414.25,-142.03 411.69,-131.75 407.28,-141.39 414.25,-142.03"/>
</g>
<!-- Node18 -->
<g id="node18" class="node">
<title>Node18</title>
<g id="a_node18"><a xlink:title=" ">
<polygon fill="white" stroke="#bfbfbf" points="524,-112.5 524,-131.5 581,-131.5 581,-112.5 524,-112.5"/>
<text text-anchor="middle" x="552.5" y="-119.5" font-family="Helvetica,sans-Serif" font-size="10.00">ostream</text>
</a>
</g>
</g>
<!-- Node5&#45;&gt;Node18 -->
<g id="edge20" class="edge">
<title>Node5&#45;&gt;Node18</title>
<path fill="none" stroke="midnightblue" d="M430.48,-168.44C454.66,-159.44 492.92,-145.19 520.15,-135.05"/>
<polygon fill="midnightblue" stroke="midnightblue" points="521.48,-138.29 529.63,-131.52 519.04,-131.73 521.48,-138.29"/>
</g>
<!-- Node7 -->
<g id="node7" class="node">
<title>Node7</title>
<g id="a_node7"><a xlink:href="sitkMacro_8h.html" target="_top" xlink:title=" ">
<polygon fill="white" stroke="black" points="693.5,-56.5 693.5,-75.5 767.5,-75.5 767.5,-56.5 693.5,-56.5"/>
<text text-anchor="middle" x="730.5" y="-63.5" font-family="Helvetica,sans-Serif" font-size="10.00">sitkMacro.h</text>
</a>
</g>
</g>
<!-- Node6&#45;&gt;Node7 -->
<g id="edge6" class="edge">
<title>Node6&#45;&gt;Node7</title>
<path fill="none" stroke="midnightblue" d="M730.5,-112.08C730.5,-105.01 730.5,-94.86 730.5,-85.99"/>
<polygon fill="midnightblue" stroke="midnightblue" points="734,-85.75 730.5,-75.75 727,-85.75 734,-85.75"/>
</g>
<!-- Node7&#45;&gt;Node4 -->
<g id="edge12" class="edge">
<title>Node7&#45;&gt;Node4</title>
<path fill="none" stroke="midnightblue" d="M693.43,-57.77C645.55,-48.44 561.87,-32.13 507.07,-21.44"/>
<polygon fill="midnightblue" stroke="midnightblue" points="507.68,-18 497.19,-19.52 506.34,-24.87 507.68,-18"/>
</g>
<!-- Node8 -->
<g id="node8" class="node">
<title>Node8</title>
<g id="a_node8"><a xlink:title=" ">
<polygon fill="white" stroke="#bfbfbf" points="337,-0.5 337,-19.5 390,-19.5 390,-0.5 337,-0.5"/>
<text text-anchor="middle" x="363.5" y="-7.5" font-family="Helvetica,sans-Serif" font-size="10.00">stdint.h</text>
</a>
</g>
</g>
<!-- Node7&#45;&gt;Node8 -->
<g id="edge7" class="edge">
<title>Node7&#45;&gt;Node8</title>
<path fill="none" stroke="midnightblue" d="M693.05,-61.27C633.28,-55.01 512.49,-41.17 400.3,-19.95"/>
<polygon fill="midnightblue" stroke="midnightblue" points="400.64,-16.46 390.16,-18.01 399.33,-23.33 400.64,-16.46"/>
</g>
<!-- Node9 -->
<g id="node9" class="node">
<title>Node9</title>
<g id="a_node9"><a xlink:title=" ">
<polygon fill="white" stroke="#bfbfbf" points="804.5,-0.5 804.5,-19.5 860.5,-19.5 860.5,-0.5 804.5,-0.5"/>
<text text-anchor="middle" x="832.5" y="-7.5" font-family="Helvetica,sans-Serif" font-size="10.00">stddef.h</text>
</a>
</g>
</g>
<!-- Node7&#45;&gt;Node9 -->
<g id="edge8" class="edge">
<title>Node7&#45;&gt;Node9</title>
<path fill="none" stroke="midnightblue" d="M746.89,-56.32C763.17,-47.7 788.37,-34.36 807.22,-24.39"/>
<polygon fill="midnightblue" stroke="midnightblue" points="808.95,-27.43 816.15,-19.65 805.68,-21.24 808.95,-27.43"/>
</g>
<!-- Node10 -->
<g id="node10" class="node">
<title>Node10</title>
<g id="a_node10"><a xlink:title=" ">
<polygon fill="white" stroke="#bfbfbf" points="598.5,-0.5 598.5,-19.5 650.5,-19.5 650.5,-0.5 598.5,-0.5"/>
<text text-anchor="middle" x="624.5" y="-7.5" font-family="Helvetica,sans-Serif" font-size="10.00">cassert</text>
</a>
</g>
</g>
<!-- Node7&#45;&gt;Node10 -->
<g id="edge9" class="edge">
<title>Node7&#45;&gt;Node10</title>
<path fill="none" stroke="midnightblue" d="M713.47,-56.32C696.47,-47.66 670.12,-34.24 650.51,-24.25"/>
<polygon fill="midnightblue" stroke="midnightblue" points="651.99,-21.08 641.49,-19.65 648.81,-27.31 651.99,-21.08"/>
</g>
<!-- Node11 -->
<g id="node11" class="node">
<title>Node11</title>
<g id="a_node11"><a xlink:title=" ">
<polygon fill="white" stroke="#bfbfbf" points="668.5,-0.5 668.5,-19.5 724.5,-19.5 724.5,-0.5 668.5,-0.5"/>
<text text-anchor="middle" x="696.5" y="-7.5" font-family="Helvetica,sans-Serif" font-size="10.00">sstream</text>
</a>
</g>
</g>
<!-- Node7&#45;&gt;Node11 -->
<g id="edge10" class="edge">
<title>Node7&#45;&gt;Node11</title>
<path fill="none" stroke="midnightblue" d="M724.89,-56.08C720.13,-48.53 713.18,-37.49 707.35,-28.23"/>
<polygon fill="midnightblue" stroke="midnightblue" points="710.3,-26.35 702.01,-19.75 704.38,-30.08 710.3,-26.35"/>
</g>
<!-- Node12 -->
<g id="node12" class="node">
<title>Node12</title>
<g id="a_node12"><a xlink:title=" ">
<polygon fill="white" stroke="#bfbfbf" points="742.5,-0.5 742.5,-19.5 786.5,-19.5 786.5,-0.5 742.5,-0.5"/>
<text text-anchor="middle" x="764.5" y="-7.5" font-family="Helvetica,sans-Serif" font-size="10.00">limits</text>
</a>
</g>
</g>
<!-- Node7&#45;&gt;Node12 -->
<g id="edge11" class="edge">
<title>Node7&#45;&gt;Node12</title>
<path fill="none" stroke="midnightblue" d="M736.11,-56.08C740.87,-48.53 747.82,-37.49 753.65,-28.23"/>
<polygon fill="midnightblue" stroke="midnightblue" points="756.62,-30.08 758.99,-19.75 750.7,-26.35 756.62,-30.08"/>
</g>
<!-- Node13&#45;&gt;Node4 -->
<g id="edge15" class="edge">
<title>Node13&#45;&gt;Node4</title>
<path fill="none" stroke="midnightblue" d="M270.04,-56.44C307.75,-47.1 368.24,-32.12 409.36,-21.93"/>
<polygon fill="midnightblue" stroke="midnightblue" points="410.25,-25.32 419.12,-19.52 408.57,-18.52 410.25,-25.32"/>
</g>
<!-- Node13&#45;&gt;Node8 -->
<g id="edge14" class="edge">
<title>Node13&#45;&gt;Node8</title>
<path fill="none" stroke="midnightblue" d="M255.78,-56.44C276.85,-47.56 310.02,-33.56 333.99,-23.45"/>
<polygon fill="midnightblue" stroke="midnightblue" points="335.46,-26.63 343.31,-19.52 332.74,-20.18 335.46,-26.63"/>
</g>
<!-- Node14 -->
<g id="node14" class="node">
<title>Node14</title>
<g id="a_node14"><a xlink:href="sitkPixelIDTypes_8h.html" target="_top" xlink:title=" ">
<polygon fill="white" stroke="black" points="0,-0.5 0,-19.5 105,-19.5 105,-0.5 0,-0.5"/>
<text text-anchor="middle" x="52.5" y="-7.5" font-family="Helvetica,sans-Serif" font-size="10.00">sitkPixelIDTypes.h</text>
</a>
</g>
</g>
<!-- Node13&#45;&gt;Node14 -->
<g id="edge16" class="edge">
<title>Node13&#45;&gt;Node14</title>
<path fill="none" stroke="midnightblue" d="M206.5,-56.44C175.32,-47.24 125.57,-32.56 91.09,-22.39"/>
<polygon fill="midnightblue" stroke="midnightblue" points="91.94,-18.99 81.36,-19.52 89.96,-25.7 91.94,-18.99"/>
</g>
<!-- Node15 -->
<g id="node15" class="node">
<title>Node15</title>
<g id="a_node15"><a xlink:title=" ">
<polygon fill="white" stroke="#bfbfbf" points="123,-0.5 123,-19.5 242,-19.5 242,-0.5 123,-0.5"/>
<text text-anchor="middle" x="182.5" y="-7.5" font-family="Helvetica,sans-Serif" font-size="10.00">Ancillary/type_list2.h</text>
</a>
</g>
</g>
<!-- Node13&#45;&gt;Node15 -->
<g id="edge17" class="edge">
<title>Node13&#45;&gt;Node15</title>
<path fill="none" stroke="midnightblue" d="M226.75,-56.08C219.03,-48.22 207.6,-36.57 198.28,-27.08"/>
<polygon fill="midnightblue" stroke="midnightblue" points="200.59,-24.44 191.09,-19.75 195.6,-29.34 200.59,-24.44"/>
</g>
<!-- Node16 -->
<g id="node16" class="node">
<title>Node16</title>
<g id="a_node16"><a xlink:title=" ">
<polygon fill="white" stroke="#bfbfbf" points="260,-0.5 260,-19.5 319,-19.5 319,-0.5 260,-0.5"/>
<text text-anchor="middle" x="289.5" y="-7.5" font-family="Helvetica,sans-Serif" font-size="10.00">complex</text>
</a>
</g>
</g>
<!-- Node13&#45;&gt;Node16 -->
<g id="edge18" class="edge">
<title>Node13&#45;&gt;Node16</title>
<path fill="none" stroke="midnightblue" d="M244.42,-56.08C252.28,-48.22 263.93,-36.57 273.42,-27.08"/>
<polygon fill="midnightblue" stroke="midnightblue" points="276.15,-29.3 280.75,-19.75 271.2,-24.35 276.15,-29.3"/>
</g>
<!-- Node20&#45;&gt;Node2 -->
<g id="edge29" class="edge">
<title>Node20&#45;&gt;Node2</title>
<path fill="none" stroke="midnightblue" d="M695.01,-224.44C674.86,-215.6 643.18,-201.69 620.17,-191.59"/>
<polygon fill="midnightblue" stroke="midnightblue" points="621.46,-188.33 610.9,-187.52 618.65,-194.74 621.46,-188.33"/>
</g>
<!-- Node20&#45;&gt;Node6 -->
<g id="edge24" class="edge">
<title>Node20&#45;&gt;Node6</title>
<path fill="none" stroke="midnightblue" d="M718.02,-224.21C721.41,-215.26 726.33,-200.91 728.5,-188 731.07,-172.67 731.46,-155.03 731.26,-142"/>
<polygon fill="midnightblue" stroke="midnightblue" points="734.76,-141.81 730.98,-131.91 727.76,-142 734.76,-141.81"/>
</g>
<!-- Node20&#45;&gt;Node7 -->
<g id="edge23" class="edge">
<title>Node20&#45;&gt;Node7</title>
<path fill="none" stroke="midnightblue" d="M782.13,-226.66C833.18,-220.32 897.14,-208.48 913.5,-188 927.82,-170.08 915.42,-129.65 897.5,-112 865.92,-80.89 815.23,-70.7 777.97,-67.64"/>
<polygon fill="midnightblue" stroke="midnightblue" points="778.06,-64.14 767.85,-66.96 777.59,-71.12 778.06,-64.14"/>
</g>
<!-- Node20&#45;&gt;Node18 -->
<g id="edge30" class="edge">
<title>Node20&#45;&gt;Node18</title>
<path fill="none" stroke="midnightblue" d="M714.27,-224.13C713.44,-210.26 709.8,-183.43 694.5,-168 667.18,-140.45 623.11,-129.73 591.3,-125.59"/>
<polygon fill="midnightblue" stroke="midnightblue" points="591.36,-122.07 581.03,-124.42 590.57,-129.02 591.36,-122.07"/>
</g>
<!-- Node21 -->
<g id="node21" class="node">
<title>Node21</title>
<g id="a_node21"><a xlink:href="sitkExceptionObject_8h.html" target="_top" xlink:title=" ">
<polygon fill="white" stroke="black" points="781,-168.5 781,-187.5 904,-187.5 904,-168.5 781,-168.5"/>
<text text-anchor="middle" x="842.5" y="-175.5" font-family="Helvetica,sans-Serif" font-size="10.00">sitkExceptionObject.h</text>
</a>
</g>
</g>
<!-- Node20&#45;&gt;Node21 -->
<g id="edge25" class="edge">
<title>Node20&#45;&gt;Node21</title>
<path fill="none" stroke="midnightblue" d="M734.78,-224.44C755.85,-215.56 789.02,-201.56 812.99,-191.45"/>
<polygon fill="midnightblue" stroke="midnightblue" points="814.46,-194.63 822.31,-187.52 811.74,-188.18 814.46,-194.63"/>
</g>
<!-- Node23 -->
<g id="node23" class="node">
<title>Node23</title>
<g id="a_node23"><a xlink:title=" ">
<polygon fill="white" stroke="#bfbfbf" points="633,-168.5 633,-187.5 686,-187.5 686,-168.5 633,-168.5"/>
<text text-anchor="middle" x="659.5" y="-175.5" font-family="Helvetica,sans-Serif" font-size="10.00">iterator</text>
</a>
</g>
</g>
<!-- Node20&#45;&gt;Node23 -->
<g id="edge31" class="edge">
<title>Node20&#45;&gt;Node23</title>
<path fill="none" stroke="midnightblue" d="M705.42,-224.08C697.33,-216.14 685.3,-204.34 675.59,-194.8"/>
<polygon fill="midnightblue" stroke="midnightblue" points="678,-192.26 668.41,-187.75 673.1,-197.25 678,-192.26"/>
</g>
<!-- Node21&#45;&gt;Node6 -->
<g id="edge27" class="edge">
<title>Node21&#45;&gt;Node6</title>
<path fill="none" stroke="midnightblue" d="M824.51,-168.32C806.46,-159.62 778.45,-146.12 757.7,-136.11"/>
<polygon fill="midnightblue" stroke="midnightblue" points="758.98,-132.84 748.45,-131.65 755.94,-139.15 758.98,-132.84"/>
</g>
<!-- Node21&#45;&gt;Node7 -->
<g id="edge26" class="edge">
<title>Node21&#45;&gt;Node7</title>
<path fill="none" stroke="midnightblue" d="M835.2,-168.26C824.38,-155.46 803.22,-131.07 783.5,-112 772.66,-101.51 759.77,-90.53 749.41,-82.05"/>
<polygon fill="midnightblue" stroke="midnightblue" points="751.39,-79.15 741.41,-75.57 746.98,-84.59 751.39,-79.15"/>
</g>
<!-- Node22 -->
<g id="node22" class="node">
<title>Node22</title>
<g id="a_node22"><a xlink:title=" ">
<polygon fill="white" stroke="#bfbfbf" points="830.5,-112.5 830.5,-131.5 888.5,-131.5 888.5,-112.5 830.5,-112.5"/>
<text text-anchor="middle" x="859.5" y="-119.5" font-family="Helvetica,sans-Serif" font-size="10.00">memory</text>
</a>
</g>
</g>
<!-- Node21&#45;&gt;Node22 -->
<g id="edge28" class="edge">
<title>Node21&#45;&gt;Node22</title>
<path fill="none" stroke="midnightblue" d="M845.31,-168.08C847.58,-160.85 850.87,-150.41 853.71,-141.4"/>
<polygon fill="midnightblue" stroke="midnightblue" points="857.08,-142.34 856.75,-131.75 850.4,-140.24 857.08,-142.34"/>
</g>
</g>
</svg>
