<?xml version="1.0" encoding="UTF-8" standalone="no"?>
<!DOCTYPE svg PUBLIC "-//W3C//DTD SVG 1.1//EN"
 "http://www.w3.org/Graphics/SVG/1.1/DTD/svg11.dtd">
<!-- Generated by graphviz version 2.43.0 (0)
 -->
<!-- Title: sitkImageSeriesReader.h Pages: 1 -->
<svg width="1600pt" height="599pt"
 viewBox="0.00 0.00 1600.00 599.00" xmlns="http://www.w3.org/2000/svg" xmlns:xlink="http://www.w3.org/1999/xlink">
<g id="graph0" class="graph" transform="scale(1 1) rotate(0) translate(4 595)">
<title>sitkImageSeriesReader.h</title>
<polygon fill="white" stroke="transparent" points="-4,4 -4,-595 1596,-595 1596,4 -4,4"/>
<!-- Node1 -->
<g id="node1" class="node">
<title>Node1</title>
<g id="a_node1"><a xlink:title=" ">
<polygon fill="#bfbfbf" stroke="black" points="1355,-571.5 1355,-590.5 1493,-590.5 1493,-571.5 1355,-571.5"/>
<text text-anchor="middle" x="1424" y="-578.5" font-family="Helvetica,sans-Serif" font-size="10.00">sitkImageSeriesReader.h</text>
</a>
</g>
</g>
<!-- Node2 -->
<g id="node2" class="node">
<title>Node2</title>
<g id="a_node2"><a xlink:href="sitkMacro_8h.html" target="_top" xlink:title=" ">
<polygon fill="white" stroke="black" points="984,-56.5 984,-75.5 1058,-75.5 1058,-56.5 984,-56.5"/>
<text text-anchor="middle" x="1021" y="-63.5" font-family="Helvetica,sans-Serif" font-size="10.00">sitkMacro.h</text>
</a>
</g>
</g>
<!-- Node1&#45;&gt;Node2 -->
<g id="edge1" class="edge">
<title>Node1&#45;&gt;Node2</title>
<path fill="none" stroke="midnightblue" d="M1467.26,-571.39C1517.04,-558.67 1592,-529.61 1592,-470 1592,-470 1592,-470 1592,-177 1592,-132.55 1556.95,-129.27 1516,-112 1436.07,-78.29 1176.37,-69.77 1068.57,-67.67"/>
<polygon fill="midnightblue" stroke="midnightblue" points="1068.39,-64.17 1058.32,-67.48 1068.26,-71.17 1068.39,-64.17"/>
</g>
<!-- Node9 -->
<g id="node9" class="node">
<title>Node9</title>
<g id="a_node9"><a xlink:href="sitkImage_8h.html" target="_top" xlink:title=" ">
<polygon fill="white" stroke="black" points="1318,-347.5 1318,-366.5 1392,-366.5 1392,-347.5 1318,-347.5"/>
<text text-anchor="middle" x="1355" y="-354.5" font-family="Helvetica,sans-Serif" font-size="10.00">sitkImage.h</text>
</a>
</g>
</g>
<!-- Node1&#45;&gt;Node9 -->
<g id="edge8" class="edge">
<title>Node1&#45;&gt;Node9</title>
<path fill="none" stroke="midnightblue" d="M1427.81,-571.48C1439.23,-544.51 1470.43,-459.48 1437,-403 1428.03,-387.84 1411.93,-377.45 1396.37,-370.5"/>
<polygon fill="midnightblue" stroke="midnightblue" points="1397.39,-367.14 1386.81,-366.62 1394.75,-373.63 1397.39,-367.14"/>
</g>
<!-- Node32 -->
<g id="node32" class="node">
<title>Node32</title>
<g id="a_node32"><a xlink:href="sitkImageReaderBase_8h.html" target="_top" xlink:title=" ">
<polygon fill="white" stroke="black" points="1250.5,-515.5 1250.5,-534.5 1383.5,-534.5 1383.5,-515.5 1250.5,-515.5"/>
<text text-anchor="middle" x="1317" y="-522.5" font-family="Helvetica,sans-Serif" font-size="10.00">sitkImageReaderBase.h</text>
</a>
</g>
</g>
<!-- Node1&#45;&gt;Node32 -->
<g id="edge50" class="edge">
<title>Node1&#45;&gt;Node32</title>
<path fill="none" stroke="midnightblue" d="M1406.81,-571.32C1389.65,-562.66 1363.05,-549.24 1343.25,-539.25"/>
<polygon fill="midnightblue" stroke="midnightblue" points="1344.65,-536.04 1334.15,-534.65 1341.5,-542.28 1344.65,-536.04"/>
</g>
<!-- Node39 -->
<g id="node39" class="node">
<title>Node39</title>
<g id="a_node39"><a xlink:href="sitkMemberFunctionFactory_8h.html" target="_top" xlink:title=" ">
<polygon fill="white" stroke="black" points="592.5,-347.5 592.5,-366.5 751.5,-366.5 751.5,-347.5 592.5,-347.5"/>
<text text-anchor="middle" x="672" y="-354.5" font-family="Helvetica,sans-Serif" font-size="10.00">sitkMemberFunctionFactory.h</text>
</a>
</g>
</g>
<!-- Node1&#45;&gt;Node39 -->
<g id="edge66" class="edge">
<title>Node1&#45;&gt;Node39</title>
<path fill="none" stroke="midnightblue" d="M1354.59,-573.41C1252.26,-562.21 1055.98,-535 898,-479 818,-450.64 731.77,-397.38 692.99,-372.06"/>
<polygon fill="midnightblue" stroke="midnightblue" points="694.88,-369.12 684.61,-366.54 691.03,-374.96 694.88,-369.12"/>
</g>
<!-- Node3 -->
<g id="node3" class="node">
<title>Node3</title>
<g id="a_node3"><a xlink:title=" ">
<polygon fill="white" stroke="#bfbfbf" points="749.5,-0.5 749.5,-19.5 802.5,-19.5 802.5,-0.5 749.5,-0.5"/>
<text text-anchor="middle" x="776" y="-7.5" font-family="Helvetica,sans-Serif" font-size="10.00">stdint.h</text>
</a>
</g>
</g>
<!-- Node2&#45;&gt;Node3 -->
<g id="edge2" class="edge">
<title>Node2&#45;&gt;Node3</title>
<path fill="none" stroke="midnightblue" d="M983.79,-56.8C937.37,-46.57 858.51,-29.19 812.45,-19.03"/>
<polygon fill="midnightblue" stroke="midnightblue" points="813.11,-15.59 802.59,-16.86 811.6,-22.43 813.11,-15.59"/>
</g>
<!-- Node4 -->
<g id="node4" class="node">
<title>Node4</title>
<g id="a_node4"><a xlink:title=" ">
<polygon fill="white" stroke="#bfbfbf" points="919,-0.5 919,-19.5 975,-19.5 975,-0.5 919,-0.5"/>
<text text-anchor="middle" x="947" y="-7.5" font-family="Helvetica,sans-Serif" font-size="10.00">stddef.h</text>
</a>
</g>
</g>
<!-- Node2&#45;&gt;Node4 -->
<g id="edge3" class="edge">
<title>Node2&#45;&gt;Node4</title>
<path fill="none" stroke="midnightblue" d="M1009.11,-56.32C997.85,-48.11 980.71,-35.6 967.29,-25.81"/>
<polygon fill="midnightblue" stroke="midnightblue" points="969.25,-22.9 959.11,-19.83 965.12,-28.56 969.25,-22.9"/>
</g>
<!-- Node5 -->
<g id="node5" class="node">
<title>Node5</title>
<g id="a_node5"><a xlink:title=" ">
<polygon fill="white" stroke="#bfbfbf" points="273,-0.5 273,-19.5 325,-19.5 325,-0.5 273,-0.5"/>
<text text-anchor="middle" x="299" y="-7.5" font-family="Helvetica,sans-Serif" font-size="10.00">cassert</text>
</a>
</g>
</g>
<!-- Node2&#45;&gt;Node5 -->
<g id="edge4" class="edge">
<title>Node2&#45;&gt;Node5</title>
<path fill="none" stroke="midnightblue" d="M983.95,-62.23C859.68,-52.93 458.51,-22.93 335.32,-13.72"/>
<polygon fill="midnightblue" stroke="midnightblue" points="335.5,-10.22 325.27,-12.96 334.98,-17.2 335.5,-10.22"/>
</g>
<!-- Node6 -->
<g id="node6" class="node">
<title>Node6</title>
<g id="a_node6"><a xlink:title=" ">
<polygon fill="white" stroke="#bfbfbf" points="993,-0.5 993,-19.5 1049,-19.5 1049,-0.5 993,-0.5"/>
<text text-anchor="middle" x="1021" y="-7.5" font-family="Helvetica,sans-Serif" font-size="10.00">sstream</text>
</a>
</g>
</g>
<!-- Node2&#45;&gt;Node6 -->
<g id="edge5" class="edge">
<title>Node2&#45;&gt;Node6</title>
<path fill="none" stroke="midnightblue" d="M1021,-56.08C1021,-49.01 1021,-38.86 1021,-29.99"/>
<polygon fill="midnightblue" stroke="midnightblue" points="1024.5,-29.75 1021,-19.75 1017.5,-29.75 1024.5,-29.75"/>
</g>
<!-- Node7 -->
<g id="node7" class="node">
<title>Node7</title>
<g id="a_node7"><a xlink:title=" ">
<polygon fill="white" stroke="#bfbfbf" points="1067,-0.5 1067,-19.5 1111,-19.5 1111,-0.5 1067,-0.5"/>
<text text-anchor="middle" x="1089" y="-7.5" font-family="Helvetica,sans-Serif" font-size="10.00">limits</text>
</a>
</g>
</g>
<!-- Node2&#45;&gt;Node7 -->
<g id="edge6" class="edge">
<title>Node2&#45;&gt;Node7</title>
<path fill="none" stroke="midnightblue" d="M1031.93,-56.32C1042.17,-48.18 1057.72,-35.84 1070,-26.09"/>
<polygon fill="midnightblue" stroke="midnightblue" points="1072.22,-28.79 1077.88,-19.83 1067.87,-23.31 1072.22,-28.79"/>
</g>
<!-- Node8 -->
<g id="node8" class="node">
<title>Node8</title>
<g id="a_node8"><a xlink:href="sitkConfigure_8h.html" target="_top" xlink:title=" ">
<polygon fill="white" stroke="black" points="592,-0.5 592,-19.5 682,-19.5 682,-0.5 592,-0.5"/>
<text text-anchor="middle" x="637" y="-7.5" font-family="Helvetica,sans-Serif" font-size="10.00">sitkConfigure.h</text>
</a>
</g>
</g>
<!-- Node2&#45;&gt;Node8 -->
<g id="edge7" class="edge">
<title>Node2&#45;&gt;Node8</title>
<path fill="none" stroke="midnightblue" d="M983.83,-59.77C916.01,-50.24 771.87,-29.97 692.42,-18.79"/>
<polygon fill="midnightblue" stroke="midnightblue" points="692.52,-15.27 682.13,-17.35 691.54,-22.2 692.52,-15.27"/>
</g>
<!-- Node10 -->
<g id="node10" class="node">
<title>Node10</title>
<g id="a_node10"><a xlink:href="sitkCommon_8h.html" target="_top" xlink:title=" ">
<polygon fill="white" stroke="black" points="1086,-112.5 1086,-131.5 1174,-131.5 1174,-112.5 1086,-112.5"/>
<text text-anchor="middle" x="1130" y="-119.5" font-family="Helvetica,sans-Serif" font-size="10.00">sitkCommon.h</text>
</a>
</g>
</g>
<!-- Node9&#45;&gt;Node10 -->
<g id="edge9" class="edge">
<title>Node9&#45;&gt;Node10</title>
<path fill="none" stroke="midnightblue" d="M1345.47,-347.26C1336.8,-338.8 1324.28,-325.19 1317,-311 1287.09,-252.69 1326.34,-215.33 1281,-168 1255.99,-141.89 1216.54,-130.74 1184.24,-126.07"/>
<polygon fill="midnightblue" stroke="midnightblue" points="1184.39,-122.56 1174.03,-124.77 1183.51,-129.51 1184.39,-122.56"/>
</g>
<!-- Node11 -->
<g id="node11" class="node">
<title>Node11</title>
<g id="a_node11"><a xlink:href="sitkTemplateFunctions_8h.html" target="_top" xlink:title=" ">
<polygon fill="white" stroke="black" points="1326.5,-230 1326.5,-249 1461.5,-249 1461.5,-230 1326.5,-230"/>
<text text-anchor="middle" x="1394" y="-237" font-family="Helvetica,sans-Serif" font-size="10.00">sitkTemplateFunctions.h</text>
</a>
</g>
</g>
<!-- Node9&#45;&gt;Node11 -->
<g id="edge11" class="edge">
<title>Node9&#45;&gt;Node11</title>
<path fill="none" stroke="midnightblue" d="M1365.66,-347.29C1374.85,-339.04 1387.49,-325.75 1393,-311 1399.22,-294.35 1398.71,-273.91 1397.1,-259.34"/>
<polygon fill="midnightblue" stroke="midnightblue" points="1400.52,-258.51 1395.68,-249.09 1393.58,-259.47 1400.52,-258.51"/>
</g>
<!-- Node13 -->
<g id="node13" class="node">
<title>Node13</title>
<g id="a_node13"><a xlink:title=" ">
<polygon fill="white" stroke="#bfbfbf" points="1476.5,-168.5 1476.5,-187.5 1523.5,-187.5 1523.5,-168.5 1476.5,-168.5"/>
<text text-anchor="middle" x="1500" y="-175.5" font-family="Helvetica,sans-Serif" font-size="10.00">vector</text>
</a>
</g>
</g>
<!-- Node9&#45;&gt;Node13 -->
<g id="edge47" class="edge">
<title>Node9&#45;&gt;Node13</title>
<path fill="none" stroke="midnightblue" d="M1368.7,-347.4C1392.52,-331.78 1441.73,-296.51 1470,-255 1482.2,-237.09 1490.52,-213.5 1495.25,-197.38"/>
<polygon fill="midnightblue" stroke="midnightblue" points="1498.67,-198.14 1497.95,-187.57 1491.92,-196.28 1498.67,-198.14"/>
</g>
<!-- Node16 -->
<g id="node16" class="node">
<title>Node16</title>
<g id="a_node16"><a xlink:href="sitkDetail_8h.html" target="_top" xlink:title=" ">
<polygon fill="white" stroke="black" points="602.5,-291.5 602.5,-310.5 675.5,-310.5 675.5,-291.5 602.5,-291.5"/>
<text text-anchor="middle" x="639" y="-298.5" font-family="Helvetica,sans-Serif" font-size="10.00">sitkDetail.h</text>
</a>
</g>
</g>
<!-- Node9&#45;&gt;Node16 -->
<g id="edge20" class="edge">
<title>Node9&#45;&gt;Node16</title>
<path fill="none" stroke="midnightblue" d="M1317.51,-353.17C1196.91,-344.08 819.04,-315.58 685.95,-305.54"/>
<polygon fill="midnightblue" stroke="midnightblue" points="685.92,-302.03 675.69,-304.77 685.4,-309.01 685.92,-302.03"/>
</g>
<!-- Node27 -->
<g id="node27" class="node">
<title>Node27</title>
<g id="a_node27"><a xlink:href="sitkPixelIDTokens_8h.html" target="_top" xlink:title=" ">
<polygon fill="white" stroke="black" points="773,-291.5 773,-310.5 883,-310.5 883,-291.5 773,-291.5"/>
<text text-anchor="middle" x="828" y="-298.5" font-family="Helvetica,sans-Serif" font-size="10.00">sitkPixelIDTokens.h</text>
</a>
</g>
</g>
<!-- Node9&#45;&gt;Node27 -->
<g id="edge39" class="edge">
<title>Node9&#45;&gt;Node27</title>
<path fill="none" stroke="midnightblue" d="M1317.94,-352.2C1229.45,-343.14 1004.89,-320.12 893.17,-308.68"/>
<polygon fill="midnightblue" stroke="midnightblue" points="893.35,-305.18 883.05,-307.64 892.64,-312.14 893.35,-305.18"/>
</g>
<!-- Node30 -->
<g id="node30" class="node">
<title>Node30</title>
<g id="a_node30"><a xlink:title=" ">
<polygon fill="white" stroke="#bfbfbf" points="1006.5,-230 1006.5,-249 1075.5,-249 1075.5,-230 1006.5,-230"/>
<text text-anchor="middle" x="1041" y="-237" font-family="Helvetica,sans-Serif" font-size="10.00">type_traits</text>
</a>
</g>
</g>
<!-- Node9&#45;&gt;Node30 -->
<g id="edge49" class="edge">
<title>Node9&#45;&gt;Node30</title>
<path fill="none" stroke="midnightblue" d="M1331.66,-347.41C1276.48,-327.12 1137.86,-276.13 1074.07,-252.66"/>
<polygon fill="midnightblue" stroke="midnightblue" points="1075.09,-249.31 1064.5,-249.14 1072.68,-255.88 1075.09,-249.31"/>
</g>
<!-- Node31 -->
<g id="node31" class="node">
<title>Node31</title>
<g id="a_node31"><a xlink:title=" ">
<polygon fill="white" stroke="#bfbfbf" points="1326,-291.5 1326,-310.5 1384,-310.5 1384,-291.5 1326,-291.5"/>
<text text-anchor="middle" x="1355" y="-298.5" font-family="Helvetica,sans-Serif" font-size="10.00">memory</text>
</a>
</g>
</g>
<!-- Node9&#45;&gt;Node31 -->
<g id="edge48" class="edge">
<title>Node9&#45;&gt;Node31</title>
<path fill="none" stroke="midnightblue" d="M1355,-347.08C1355,-340.01 1355,-329.86 1355,-320.99"/>
<polygon fill="midnightblue" stroke="midnightblue" points="1358.5,-320.75 1355,-310.75 1351.5,-320.75 1358.5,-320.75"/>
</g>
<!-- Node10&#45;&gt;Node2 -->
<g id="edge10" class="edge">
<title>Node10&#45;&gt;Node2</title>
<path fill="none" stroke="midnightblue" d="M1112.49,-112.32C1094.93,-103.62 1067.67,-90.12 1047.47,-80.11"/>
<polygon fill="midnightblue" stroke="midnightblue" points="1048.98,-76.96 1038.47,-75.65 1045.88,-83.23 1048.98,-76.96"/>
</g>
<!-- Node11&#45;&gt;Node2 -->
<g id="edge12" class="edge">
<title>Node11&#45;&gt;Node2</title>
<path fill="none" stroke="midnightblue" d="M1390.06,-229.81C1382.95,-215.02 1366.55,-184.94 1344,-168 1259.95,-104.85 1135.6,-80.64 1068.35,-71.78"/>
<polygon fill="midnightblue" stroke="midnightblue" points="1068.42,-68.26 1058.06,-70.49 1067.54,-75.21 1068.42,-68.26"/>
</g>
<!-- Node11&#45;&gt;Node10 -->
<g id="edge13" class="edge">
<title>Node11&#45;&gt;Node10</title>
<path fill="none" stroke="midnightblue" d="M1386.72,-229.62C1373.86,-214.56 1345.6,-184.07 1315,-168 1273.9,-146.41 1222.21,-134.97 1183.93,-129.03"/>
<polygon fill="midnightblue" stroke="midnightblue" points="1184.4,-125.57 1174,-127.57 1183.38,-132.49 1184.4,-125.57"/>
</g>
<!-- Node12 -->
<g id="node12" class="node">
<title>Node12</title>
<g id="a_node12"><a xlink:href="sitkExceptionObject_8h.html" target="_top" xlink:title=" ">
<polygon fill="white" stroke="black" points="959.5,-168.5 959.5,-187.5 1082.5,-187.5 1082.5,-168.5 959.5,-168.5"/>
<text text-anchor="middle" x="1021" y="-175.5" font-family="Helvetica,sans-Serif" font-size="10.00">sitkExceptionObject.h</text>
</a>
</g>
</g>
<!-- Node11&#45;&gt;Node12 -->
<g id="edge14" class="edge">
<title>Node11&#45;&gt;Node12</title>
<path fill="none" stroke="midnightblue" d="M1340.56,-229.98C1272.97,-219.19 1156.75,-200.65 1084.65,-189.15"/>
<polygon fill="midnightblue" stroke="midnightblue" points="1084.77,-185.63 1074.34,-187.51 1083.67,-192.54 1084.77,-185.63"/>
</g>
<!-- Node11&#45;&gt;Node13 -->
<g id="edge17" class="edge">
<title>Node11&#45;&gt;Node13</title>
<path fill="none" stroke="midnightblue" d="M1409.19,-229.98C1426.66,-220.17 1455.58,-203.93 1476.08,-192.42"/>
<polygon fill="midnightblue" stroke="midnightblue" points="1477.83,-195.46 1484.84,-187.51 1474.41,-189.35 1477.83,-195.46"/>
</g>
<!-- Node14 -->
<g id="node14" class="node">
<title>Node14</title>
<g id="a_node14"><a xlink:title=" ">
<polygon fill="white" stroke="#bfbfbf" points="1215.5,-168.5 1215.5,-187.5 1272.5,-187.5 1272.5,-168.5 1215.5,-168.5"/>
<text text-anchor="middle" x="1244" y="-175.5" font-family="Helvetica,sans-Serif" font-size="10.00">ostream</text>
</a>
</g>
</g>
<!-- Node11&#45;&gt;Node14 -->
<g id="edge18" class="edge">
<title>Node11&#45;&gt;Node14</title>
<path fill="none" stroke="midnightblue" d="M1372.51,-229.98C1346.89,-219.81 1303.89,-202.76 1274.76,-191.2"/>
<polygon fill="midnightblue" stroke="midnightblue" points="1276.04,-187.94 1265.45,-187.51 1273.46,-194.45 1276.04,-187.94"/>
</g>
<!-- Node15 -->
<g id="node15" class="node">
<title>Node15</title>
<g id="a_node15"><a xlink:title=" ">
<polygon fill="white" stroke="#bfbfbf" points="1405.5,-168.5 1405.5,-187.5 1458.5,-187.5 1458.5,-168.5 1405.5,-168.5"/>
<text text-anchor="middle" x="1432" y="-175.5" font-family="Helvetica,sans-Serif" font-size="10.00">iterator</text>
</a>
</g>
</g>
<!-- Node11&#45;&gt;Node15 -->
<g id="edge19" class="edge">
<title>Node11&#45;&gt;Node15</title>
<path fill="none" stroke="midnightblue" d="M1399.44,-229.98C1405.09,-221.14 1414.06,-207.09 1421.16,-195.98"/>
<polygon fill="midnightblue" stroke="midnightblue" points="1424.13,-197.82 1426.57,-187.51 1418.23,-194.05 1424.13,-197.82"/>
</g>
<!-- Node12&#45;&gt;Node2 -->
<g id="edge15" class="edge">
<title>Node12&#45;&gt;Node2</title>
<path fill="none" stroke="midnightblue" d="M1021,-168.37C1021,-150.62 1021,-109.67 1021,-85.6"/>
<polygon fill="midnightblue" stroke="midnightblue" points="1024.5,-85.59 1021,-75.59 1017.5,-85.59 1024.5,-85.59"/>
</g>
<!-- Node12&#45;&gt;Node10 -->
<g id="edge16" class="edge">
<title>Node12&#45;&gt;Node10</title>
<path fill="none" stroke="midnightblue" d="M1038.51,-168.32C1056.07,-159.62 1083.33,-146.12 1103.53,-136.11"/>
<polygon fill="midnightblue" stroke="midnightblue" points="1105.12,-139.23 1112.53,-131.65 1102.02,-132.96 1105.12,-139.23"/>
</g>
<!-- Node17 -->
<g id="node17" class="node">
<title>Node17</title>
<g id="a_node17"><a xlink:href="sitkMemberFunctionFactoryBase_8h.html" target="_top" xlink:title=" ">
<polygon fill="white" stroke="black" points="300,-224.5 300,-254.5 452,-254.5 452,-224.5 300,-224.5"/>
<text text-anchor="start" x="308" y="-242.5" font-family="Helvetica,sans-Serif" font-size="10.00">sitkMemberFunctionFactory</text>
<text text-anchor="middle" x="376" y="-231.5" font-family="Helvetica,sans-Serif" font-size="10.00">Base.h</text>
</a>
</g>
</g>
<!-- Node16&#45;&gt;Node17 -->
<g id="edge21" class="edge">
<title>Node16&#45;&gt;Node17</title>
<path fill="none" stroke="midnightblue" d="M602.43,-291.73C562.6,-282.72 497.9,-268.08 447.83,-256.75"/>
<polygon fill="midnightblue" stroke="midnightblue" points="448.55,-253.33 438.03,-254.53 447.01,-260.15 448.55,-253.33"/>
</g>
<!-- Node23 -->
<g id="node23" class="node">
<title>Node23</title>
<g id="a_node23"><a xlink:title=" ">
<polygon fill="white" stroke="#bfbfbf" points="396.5,-168.5 396.5,-187.5 535.5,-187.5 535.5,-168.5 396.5,-168.5"/>
<text text-anchor="middle" x="466" y="-175.5" font-family="Helvetica,sans-Serif" font-size="10.00">Ancillary/FunctionTraits.h</text>
</a>
</g>
</g>
<!-- Node16&#45;&gt;Node23 -->
<g id="edge38" class="edge">
<title>Node16&#45;&gt;Node23</title>
<path fill="none" stroke="midnightblue" d="M626.83,-291.49C597.62,-271.06 523.24,-219.04 486.78,-193.54"/>
<polygon fill="midnightblue" stroke="midnightblue" points="488.58,-190.52 478.38,-187.66 484.57,-196.26 488.58,-190.52"/>
</g>
<!-- Node17&#45;&gt;Node2 -->
<g id="edge30" class="edge">
<title>Node17&#45;&gt;Node2</title>
<path fill="none" stroke="midnightblue" d="M452.05,-230.03C515.1,-222.06 606.73,-208.3 685,-188 801.34,-157.82 934.16,-103.96 991.78,-79.59"/>
<polygon fill="midnightblue" stroke="midnightblue" points="993.5,-82.67 1001.33,-75.53 990.76,-76.22 993.5,-82.67"/>
</g>
<!-- Node17&#45;&gt;Node8 -->
<g id="edge22" class="edge">
<title>Node17&#45;&gt;Node8</title>
<path fill="none" stroke="midnightblue" d="M299.79,-236.09C222.68,-231.85 111.09,-220.17 84,-188 78.28,-181.2 79.46,-175.64 84,-168 135.64,-81.14 451.65,-33.45 581.44,-17.32"/>
<polygon fill="midnightblue" stroke="midnightblue" points="582.06,-20.77 591.56,-16.08 581.21,-13.82 582.06,-20.77"/>
</g>
<!-- Node18 -->
<g id="node18" class="node">
<title>Node18</title>
<g id="a_node18"><a xlink:href="sitkPixelIDTypes_8h.html" target="_top" xlink:title=" ">
<polygon fill="white" stroke="black" points="196.5,-112.5 196.5,-131.5 301.5,-131.5 301.5,-112.5 196.5,-112.5"/>
<text text-anchor="middle" x="249" y="-119.5" font-family="Helvetica,sans-Serif" font-size="10.00">sitkPixelIDTypes.h</text>
</a>
</g>
</g>
<!-- Node17&#45;&gt;Node18 -->
<g id="edge23" class="edge">
<title>Node17&#45;&gt;Node18</title>
<path fill="none" stroke="midnightblue" d="M299.89,-235.49C225.79,-230.77 120.68,-218.7 95,-188 65.47,-152.69 131.66,-136.18 186.29,-128.73"/>
<polygon fill="midnightblue" stroke="midnightblue" points="186.86,-132.19 196.33,-127.44 185.97,-125.24 186.86,-132.19"/>
</g>
<!-- Node19 -->
<g id="node19" class="node">
<title>Node19</title>
<g id="a_node19"><a xlink:href="sitkPixelIDTypeLists_8h.html" target="_top" xlink:title=" ">
<polygon fill="white" stroke="black" points="554,-168.5 554,-187.5 676,-187.5 676,-168.5 554,-168.5"/>
<text text-anchor="middle" x="615" y="-175.5" font-family="Helvetica,sans-Serif" font-size="10.00">sitkPixelIDTypeLists.h</text>
</a>
</g>
</g>
<!-- Node17&#45;&gt;Node19 -->
<g id="edge24" class="edge">
<title>Node17&#45;&gt;Node19</title>
<path fill="none" stroke="midnightblue" d="M432.34,-224.47C474.65,-213.94 531.79,-199.72 570.82,-190"/>
<polygon fill="midnightblue" stroke="midnightblue" points="571.97,-193.32 580.83,-187.51 570.28,-186.53 571.97,-193.32"/>
</g>
<!-- Node20 -->
<g id="node20" class="node">
<title>Node20</title>
<g id="a_node20"><a xlink:title=" ">
<polygon fill="white" stroke="#bfbfbf" points="380.5,-112.5 380.5,-131.5 491.5,-131.5 491.5,-112.5 380.5,-112.5"/>
<text text-anchor="middle" x="436" y="-119.5" font-family="Helvetica,sans-Serif" font-size="10.00">Ancillary/TypeList.h</text>
</a>
</g>
</g>
<!-- Node17&#45;&gt;Node20 -->
<g id="edge33" class="edge">
<title>Node17&#45;&gt;Node20</title>
<path fill="none" stroke="midnightblue" d="M375.53,-224.4C375.62,-209.52 377.47,-185.8 387,-168 393.41,-156.03 404.26,-145.56 414.13,-137.74"/>
<polygon fill="midnightblue" stroke="midnightblue" points="416.48,-140.36 422.41,-131.58 412.3,-134.74 416.48,-140.36"/>
</g>
<!-- Node22 -->
<g id="node22" class="node">
<title>Node22</title>
<g id="a_node22"><a xlink:href="sitkNonCopyable_8h.html" target="_top" xlink:title=" ">
<polygon fill="white" stroke="black" points="832.5,-168.5 832.5,-187.5 941.5,-187.5 941.5,-168.5 832.5,-168.5"/>
<text text-anchor="middle" x="887" y="-175.5" font-family="Helvetica,sans-Serif" font-size="10.00">sitkNonCopyable.h</text>
</a>
</g>
</g>
<!-- Node17&#45;&gt;Node22 -->
<g id="edge31" class="edge">
<title>Node17&#45;&gt;Node22</title>
<path fill="none" stroke="midnightblue" d="M452,-230.55C538.83,-221.32 685.46,-205.31 821.97,-188.1"/>
<polygon fill="midnightblue" stroke="midnightblue" points="822.72,-191.53 832.2,-186.81 821.84,-184.59 822.72,-191.53"/>
</g>
<!-- Node17&#45;&gt;Node23 -->
<g id="edge34" class="edge">
<title>Node17&#45;&gt;Node23</title>
<path fill="none" stroke="midnightblue" d="M397.33,-224.4C411.49,-215.04 430.01,-202.79 444.25,-193.38"/>
<polygon fill="midnightblue" stroke="midnightblue" points="446.49,-196.09 452.9,-187.66 442.63,-190.25 446.49,-196.09"/>
</g>
<!-- Node24 -->
<g id="node24" class="node">
<title>Node24</title>
<g id="a_node24"><a xlink:title=" ">
<polygon fill="white" stroke="#bfbfbf" points="104.5,-168.5 104.5,-187.5 197.5,-187.5 197.5,-168.5 104.5,-168.5"/>
<text text-anchor="middle" x="151" y="-175.5" font-family="Helvetica,sans-Serif" font-size="10.00">unordered_map</text>
</a>
</g>
</g>
<!-- Node17&#45;&gt;Node24 -->
<g id="edge35" class="edge">
<title>Node17&#45;&gt;Node24</title>
<path fill="none" stroke="midnightblue" d="M322.96,-224.47C283.3,-213.99 229.79,-199.84 193.06,-190.12"/>
<polygon fill="midnightblue" stroke="midnightblue" points="193.73,-186.68 183.17,-187.51 191.94,-193.45 193.73,-186.68"/>
</g>
<!-- Node25 -->
<g id="node25" class="node">
<title>Node25</title>
<g id="a_node25"><a xlink:title=" ">
<polygon fill="white" stroke="#bfbfbf" points="215.5,-168.5 215.5,-187.5 280.5,-187.5 280.5,-168.5 215.5,-168.5"/>
<text text-anchor="middle" x="248" y="-175.5" font-family="Helvetica,sans-Serif" font-size="10.00">functional</text>
</a>
</g>
</g>
<!-- Node17&#45;&gt;Node25 -->
<g id="edge36" class="edge">
<title>Node17&#45;&gt;Node25</title>
<path fill="none" stroke="midnightblue" d="M345.67,-224.4C324.48,-214.55 296.41,-201.5 275.8,-191.92"/>
<polygon fill="midnightblue" stroke="midnightblue" points="277.17,-188.7 266.63,-187.66 274.22,-195.05 277.17,-188.7"/>
</g>
<!-- Node26 -->
<g id="node26" class="node">
<title>Node26</title>
<g id="a_node26"><a xlink:title=" ">
<polygon fill="white" stroke="#bfbfbf" points="298.5,-168.5 298.5,-187.5 339.5,-187.5 339.5,-168.5 298.5,-168.5"/>
<text text-anchor="middle" x="319" y="-175.5" font-family="Helvetica,sans-Serif" font-size="10.00">tuple</text>
</a>
</g>
</g>
<!-- Node17&#45;&gt;Node26 -->
<g id="edge37" class="edge">
<title>Node17&#45;&gt;Node26</title>
<path fill="none" stroke="midnightblue" d="M362.49,-224.4C354.04,-215.58 343.12,-204.18 334.34,-195.02"/>
<polygon fill="midnightblue" stroke="midnightblue" points="336.74,-192.46 327.29,-187.66 331.68,-197.3 336.74,-192.46"/>
</g>
<!-- Node19&#45;&gt;Node3 -->
<g id="edge25" class="edge">
<title>Node19&#45;&gt;Node3</title>
<path fill="none" stroke="midnightblue" d="M617.54,-168.28C621.68,-155.08 630.9,-129.69 645,-112 675.24,-74.08 722.61,-42.23 751.33,-24.95"/>
<polygon fill="midnightblue" stroke="midnightblue" points="753.47,-27.75 760.31,-19.66 749.91,-21.72 753.47,-27.75"/>
</g>
<!-- Node19&#45;&gt;Node8 -->
<g id="edge26" class="edge">
<title>Node19&#45;&gt;Node8</title>
<path fill="none" stroke="midnightblue" d="M613.18,-168.31C609.3,-148.16 601.41,-96.89 612,-56 614.55,-46.18 619.75,-36.21 624.76,-28.17"/>
<polygon fill="midnightblue" stroke="midnightblue" points="627.75,-29.99 630.37,-19.73 621.92,-26.11 627.75,-29.99"/>
</g>
<!-- Node19&#45;&gt;Node18 -->
<g id="edge27" class="edge">
<title>Node19&#45;&gt;Node18</title>
<path fill="none" stroke="midnightblue" d="M557.01,-168.44C490.19,-158.59 380.79,-142.44 311.95,-132.29"/>
<polygon fill="midnightblue" stroke="midnightblue" points="312.08,-128.77 301.68,-130.77 311.06,-135.69 312.08,-128.77"/>
</g>
<!-- Node19&#45;&gt;Node20 -->
<g id="edge28" class="edge">
<title>Node19&#45;&gt;Node20</title>
<path fill="none" stroke="midnightblue" d="M586.64,-168.44C556.26,-159.28 507.89,-144.69 474.18,-134.52"/>
<polygon fill="midnightblue" stroke="midnightblue" points="474.82,-131.05 464.23,-131.52 472.79,-137.76 474.82,-131.05"/>
</g>
<!-- Node21 -->
<g id="node21" class="node">
<title>Node21</title>
<g id="a_node21"><a xlink:title=" ">
<polygon fill="white" stroke="#bfbfbf" points="654.5,-112.5 654.5,-131.5 713.5,-131.5 713.5,-112.5 654.5,-112.5"/>
<text text-anchor="middle" x="684" y="-119.5" font-family="Helvetica,sans-Serif" font-size="10.00">complex</text>
</a>
</g>
</g>
<!-- Node19&#45;&gt;Node21 -->
<g id="edge29" class="edge">
<title>Node19&#45;&gt;Node21</title>
<path fill="none" stroke="midnightblue" d="M626.09,-168.32C636.49,-160.18 652.26,-147.84 664.72,-138.09"/>
<polygon fill="midnightblue" stroke="midnightblue" points="666.99,-140.75 672.71,-131.83 662.68,-135.24 666.99,-140.75"/>
</g>
<!-- Node22&#45;&gt;Node10 -->
<g id="edge32" class="edge">
<title>Node22&#45;&gt;Node10</title>
<path fill="none" stroke="midnightblue" d="M925.5,-168.44C967.81,-159.04 1035.82,-143.93 1081.67,-133.74"/>
<polygon fill="midnightblue" stroke="midnightblue" points="1082.67,-137.1 1091.68,-131.52 1081.15,-130.27 1082.67,-137.1"/>
</g>
<!-- Node27&#45;&gt;Node8 -->
<g id="edge40" class="edge">
<title>Node27&#45;&gt;Node8</title>
<path fill="none" stroke="midnightblue" d="M809.67,-291.47C795.24,-283.85 775.68,-271.36 764,-255 743.57,-226.38 742,-214.16 742,-179 742,-179 742,-179 742,-121 742,-76.02 695.49,-42.19 664.38,-24.59"/>
<polygon fill="midnightblue" stroke="midnightblue" points="665.75,-21.35 655.29,-19.65 662.41,-27.5 665.75,-21.35"/>
</g>
<!-- Node28 -->
<g id="node28" class="node">
<title>Node28</title>
<g id="a_node28"><a xlink:href="sitkPixelIDValues_8h.html" target="_top" xlink:title=" ">
<polygon fill="white" stroke="black" points="773,-230 773,-249 883,-249 883,-230 773,-230"/>
<text text-anchor="middle" x="828" y="-237" font-family="Helvetica,sans-Serif" font-size="10.00">sitkPixelIDValues.h</text>
</a>
</g>
</g>
<!-- Node27&#45;&gt;Node28 -->
<g id="edge41" class="edge">
<title>Node27&#45;&gt;Node28</title>
<path fill="none" stroke="midnightblue" d="M828,-291.48C828,-283.08 828,-269.98 828,-259.16"/>
<polygon fill="midnightblue" stroke="midnightblue" points="831.5,-259.01 828,-249.01 824.5,-259.01 831.5,-259.01"/>
</g>
<!-- Node27&#45;&gt;Node30 -->
<g id="edge46" class="edge">
<title>Node27&#45;&gt;Node30</title>
<path fill="none" stroke="midnightblue" d="M858.52,-291.48C895.92,-281.03 959.43,-263.29 1000.79,-251.73"/>
<polygon fill="midnightblue" stroke="midnightblue" points="1001.85,-255.07 1010.54,-249.01 999.97,-248.33 1001.85,-255.07"/>
</g>
<!-- Node28&#45;&gt;Node10 -->
<g id="edge42" class="edge">
<title>Node28&#45;&gt;Node10</title>
<path fill="none" stroke="midnightblue" d="M883.2,-233.22C950.15,-225.92 1058.13,-210.97 1091,-188 1107.14,-176.72 1117.74,-156.41 1123.76,-141.48"/>
<polygon fill="midnightblue" stroke="midnightblue" points="1127.16,-142.37 1127.35,-131.78 1120.6,-139.94 1127.16,-142.37"/>
</g>
<!-- Node28&#45;&gt;Node14 -->
<g id="edge45" class="edge">
<title>Node28&#45;&gt;Node14</title>
<path fill="none" stroke="midnightblue" d="M883.24,-230.6C968.66,-218.38 1130.69,-195.21 1204.99,-184.58"/>
<polygon fill="midnightblue" stroke="midnightblue" points="1205.9,-187.99 1215.3,-183.1 1204.9,-181.06 1205.9,-187.99"/>
</g>
<!-- Node28&#45;&gt;Node19 -->
<g id="edge43" class="edge">
<title>Node28&#45;&gt;Node19</title>
<path fill="none" stroke="midnightblue" d="M797.48,-229.98C760.08,-219.53 696.57,-201.79 655.21,-190.23"/>
<polygon fill="midnightblue" stroke="midnightblue" points="656.03,-186.83 645.46,-187.51 654.15,-193.57 656.03,-186.83"/>
</g>
<!-- Node29 -->
<g id="node29" class="node">
<title>Node29</title>
<g id="a_node29"><a xlink:title=" ">
<polygon fill="white" stroke="#bfbfbf" points="770,-168.5 770,-187.5 814,-187.5 814,-168.5 770,-168.5"/>
<text text-anchor="middle" x="792" y="-175.5" font-family="Helvetica,sans-Serif" font-size="10.00">string</text>
</a>
</g>
</g>
<!-- Node28&#45;&gt;Node29 -->
<g id="edge44" class="edge">
<title>Node28&#45;&gt;Node29</title>
<path fill="none" stroke="midnightblue" d="M822.84,-229.98C817.55,-221.23 809.16,-207.37 802.47,-196.31"/>
<polygon fill="midnightblue" stroke="midnightblue" points="805.32,-194.25 797.15,-187.51 799.33,-197.88 805.32,-194.25"/>
</g>
<!-- Node32&#45;&gt;Node28 -->
<g id="edge63" class="edge">
<title>Node32&#45;&gt;Node28</title>
<path fill="none" stroke="midnightblue" d="M1250.12,-519.64C1135.09,-510.28 912,-483.22 912,-414 912,-414 912,-414 912,-356 912,-325.77 909.08,-315.94 892,-291 881.8,-276.11 865.87,-263.52 852.46,-254.63"/>
<polygon fill="midnightblue" stroke="midnightblue" points="854,-251.47 843.68,-249.09 850.27,-257.39 854,-251.47"/>
</g>
<!-- Node33 -->
<g id="node33" class="node">
<title>Node33</title>
<g id="a_node33"><a xlink:href="sitkProcessObject_8h.html" target="_top" xlink:title=" ">
<polygon fill="white" stroke="black" points="1207.5,-459.5 1207.5,-478.5 1320.5,-478.5 1320.5,-459.5 1207.5,-459.5"/>
<text text-anchor="middle" x="1264" y="-466.5" font-family="Helvetica,sans-Serif" font-size="10.00">sitkProcessObject.h</text>
</a>
</g>
</g>
<!-- Node32&#45;&gt;Node33 -->
<g id="edge51" class="edge">
<title>Node32&#45;&gt;Node33</title>
<path fill="none" stroke="midnightblue" d="M1308.25,-515.08C1300.53,-507.22 1289.1,-495.57 1279.78,-486.08"/>
<polygon fill="midnightblue" stroke="midnightblue" points="1282.09,-483.44 1272.59,-478.75 1277.1,-488.34 1282.09,-483.44"/>
</g>
<!-- Node38 -->
<g id="node38" class="node">
<title>Node38</title>
<g id="a_node38"><a xlink:href="sitkIO_8h.html" target="_top" xlink:title=" ">
<polygon fill="white" stroke="black" points="1508,-459.5 1508,-478.5 1562,-478.5 1562,-459.5 1508,-459.5"/>
<text text-anchor="middle" x="1535" y="-466.5" font-family="Helvetica,sans-Serif" font-size="10.00">sitkIO.h</text>
</a>
</g>
</g>
<!-- Node32&#45;&gt;Node38 -->
<g id="edge64" class="edge">
<title>Node32&#45;&gt;Node38</title>
<path fill="none" stroke="midnightblue" d="M1351.54,-515.44C1391.5,-505.55 1457.02,-489.32 1497.99,-479.17"/>
<polygon fill="midnightblue" stroke="midnightblue" points="1498.99,-482.53 1507.85,-476.73 1497.3,-475.73 1498.99,-482.53"/>
</g>
<!-- Node33&#45;&gt;Node9 -->
<g id="edge58" class="edge">
<title>Node33&#45;&gt;Node9</title>
<path fill="none" stroke="midnightblue" d="M1317.99,-459.48C1357.96,-451.94 1407.54,-439.56 1420,-423 1434.82,-403.3 1408.08,-383.7 1384.55,-371.26"/>
<polygon fill="midnightblue" stroke="midnightblue" points="1385.96,-368.05 1375.45,-366.7 1382.82,-374.31 1385.96,-368.05"/>
</g>
<!-- Node33&#45;&gt;Node10 -->
<g id="edge52" class="edge">
<title>Node33&#45;&gt;Node10</title>
<path fill="none" stroke="midnightblue" d="M1208.39,-459.49C1186.14,-453.17 1162.41,-442.16 1148,-423 1114.55,-378.53 1124.34,-199.93 1128.54,-141.56"/>
<polygon fill="midnightblue" stroke="midnightblue" points="1132.03,-141.8 1129.29,-131.56 1125.05,-141.27 1132.03,-141.8"/>
</g>
<!-- Node33&#45;&gt;Node11 -->
<g id="edge54" class="edge">
<title>Node33&#45;&gt;Node11</title>
<path fill="none" stroke="midnightblue" d="M1320.65,-460.78C1365.44,-453.78 1422.72,-441.48 1437,-423 1475.95,-372.63 1430.27,-292.68 1406.55,-257.77"/>
<polygon fill="midnightblue" stroke="midnightblue" points="1409.14,-255.36 1400.53,-249.17 1403.4,-259.37 1409.14,-255.36"/>
</g>
<!-- Node33&#45;&gt;Node22 -->
<g id="edge53" class="edge">
<title>Node33&#45;&gt;Node22</title>
<path fill="none" stroke="midnightblue" d="M1207.32,-459.83C1117.62,-445.29 953,-411.33 953,-358 953,-358 953,-358 953,-300 953,-257.99 921.96,-216.69 902.45,-194.89"/>
<polygon fill="midnightblue" stroke="midnightblue" points="904.99,-192.48 895.63,-187.52 899.86,-197.24 904.99,-192.48"/>
</g>
<!-- Node34 -->
<g id="node34" class="node">
<title>Node34</title>
<g id="a_node34"><a xlink:href="sitkEvent_8h.html" target="_top" xlink:title=" ">
<polygon fill="white" stroke="black" points="1151.5,-230 1151.5,-249 1222.5,-249 1222.5,-230 1151.5,-230"/>
<text text-anchor="middle" x="1187" y="-237" font-family="Helvetica,sans-Serif" font-size="10.00">sitkEvent.h</text>
</a>
</g>
</g>
<!-- Node33&#45;&gt;Node34 -->
<g id="edge55" class="edge">
<title>Node33&#45;&gt;Node34</title>
<path fill="none" stroke="midnightblue" d="M1216.67,-459.42C1195.9,-453.05 1173.45,-442.02 1161,-423 1127.03,-371.08 1159.42,-293.14 1177.14,-258.36"/>
<polygon fill="midnightblue" stroke="midnightblue" points="1180.31,-259.87 1181.89,-249.39 1174.12,-256.59 1180.31,-259.87"/>
</g>
<!-- Node35 -->
<g id="node35" class="node">
<title>Node35</title>
<g id="a_node35"><a xlink:href="sitkImageConvert_8h.html" target="_top" xlink:title=" ">
<polygon fill="white" stroke="black" points="1298.5,-403.5 1298.5,-422.5 1411.5,-422.5 1411.5,-403.5 1298.5,-403.5"/>
<text text-anchor="middle" x="1355" y="-410.5" font-family="Helvetica,sans-Serif" font-size="10.00">sitkImageConvert.h</text>
</a>
</g>
</g>
<!-- Node33&#45;&gt;Node35 -->
<g id="edge59" class="edge">
<title>Node33&#45;&gt;Node35</title>
<path fill="none" stroke="midnightblue" d="M1278.62,-459.32C1292.95,-450.82 1315.01,-437.73 1331.75,-427.8"/>
<polygon fill="midnightblue" stroke="midnightblue" points="1333.6,-430.77 1340.42,-422.65 1330.03,-424.75 1333.6,-430.77"/>
</g>
<!-- Node36 -->
<g id="node36" class="node">
<title>Node36</title>
<g id="a_node36"><a xlink:title=" ">
<polygon fill="white" stroke="#bfbfbf" points="1170,-403.5 1170,-422.5 1230,-422.5 1230,-403.5 1170,-403.5"/>
<text text-anchor="middle" x="1200" y="-410.5" font-family="Helvetica,sans-Serif" font-size="10.00">iostream</text>
</a>
</g>
</g>
<!-- Node33&#45;&gt;Node36 -->
<g id="edge61" class="edge">
<title>Node33&#45;&gt;Node36</title>
<path fill="none" stroke="midnightblue" d="M1253.72,-459.32C1244.16,-451.26 1229.72,-439.08 1218.22,-429.37"/>
<polygon fill="midnightblue" stroke="midnightblue" points="1220.37,-426.61 1210.47,-422.83 1215.86,-431.96 1220.37,-426.61"/>
</g>
<!-- Node37 -->
<g id="node37" class="node">
<title>Node37</title>
<g id="a_node37"><a xlink:title=" ">
<polygon fill="white" stroke="#bfbfbf" points="1248,-403.5 1248,-422.5 1280,-422.5 1280,-403.5 1248,-403.5"/>
<text text-anchor="middle" x="1264" y="-410.5" font-family="Helvetica,sans-Serif" font-size="10.00">list</text>
</a>
</g>
</g>
<!-- Node33&#45;&gt;Node37 -->
<g id="edge62" class="edge">
<title>Node33&#45;&gt;Node37</title>
<path fill="none" stroke="midnightblue" d="M1264,-459.08C1264,-452.01 1264,-441.86 1264,-432.99"/>
<polygon fill="midnightblue" stroke="midnightblue" points="1267.5,-432.75 1264,-422.75 1260.5,-432.75 1267.5,-432.75"/>
</g>
<!-- Node34&#45;&gt;Node10 -->
<g id="edge56" class="edge">
<title>Node34&#45;&gt;Node10</title>
<path fill="none" stroke="midnightblue" d="M1184.98,-229.91C1181.58,-216.29 1173.99,-189.1 1163,-168 1157.8,-158.03 1150.54,-147.85 1144.15,-139.71"/>
<polygon fill="midnightblue" stroke="midnightblue" points="1146.72,-137.32 1137.7,-131.77 1141.29,-141.73 1146.72,-137.32"/>
</g>
<!-- Node34&#45;&gt;Node14 -->
<g id="edge57" class="edge">
<title>Node34&#45;&gt;Node14</title>
<path fill="none" stroke="midnightblue" d="M1195.17,-229.98C1203.89,-220.87 1217.9,-206.24 1228.69,-194.98"/>
<polygon fill="midnightblue" stroke="midnightblue" points="1231.46,-197.15 1235.85,-187.51 1226.4,-192.31 1231.46,-197.15"/>
</g>
<!-- Node35&#45;&gt;Node9 -->
<g id="edge60" class="edge">
<title>Node35&#45;&gt;Node9</title>
<path fill="none" stroke="midnightblue" d="M1355,-403.08C1355,-396.01 1355,-385.86 1355,-376.99"/>
<polygon fill="midnightblue" stroke="midnightblue" points="1358.5,-376.75 1355,-366.75 1351.5,-376.75 1358.5,-376.75"/>
</g>
<!-- Node38&#45;&gt;Node2 -->
<g id="edge65" class="edge">
<title>Node38&#45;&gt;Node2</title>
<path fill="none" stroke="midnightblue" d="M1537.56,-459.25C1542.75,-440.74 1554,-396.18 1554,-358 1554,-358 1554,-358 1554,-177 1554,-78.22 1198.45,-67.42 1068.14,-66.78"/>
<polygon fill="midnightblue" stroke="midnightblue" points="1068.07,-63.28 1058.06,-66.75 1068.05,-70.28 1068.07,-63.28"/>
</g>
<!-- Node39&#45;&gt;Node5 -->
<g id="edge71" class="edge">
<title>Node39&#45;&gt;Node5</title>
<path fill="none" stroke="midnightblue" d="M592.27,-350.53C414.27,-337.26 0,-299.98 0,-240.5 0,-240.5 0,-240.5 0,-121 0,-65.55 183.41,-29.48 262.93,-16.45"/>
<polygon fill="midnightblue" stroke="midnightblue" points="263.67,-19.88 272.99,-14.83 262.56,-12.97 263.67,-19.88"/>
</g>
<!-- Node39&#45;&gt;Node12 -->
<g id="edge74" class="edge">
<title>Node39&#45;&gt;Node12</title>
<path fill="none" stroke="midnightblue" d="M675.19,-347.46C684.61,-323.51 714.78,-255.39 764,-224 779.49,-214.12 878.6,-198.68 949.1,-188.71"/>
<polygon fill="midnightblue" stroke="midnightblue" points="949.87,-192.13 959.28,-187.27 948.89,-185.2 949.87,-192.13"/>
</g>
<!-- Node39&#45;&gt;Node16 -->
<g id="edge67" class="edge">
<title>Node39&#45;&gt;Node16</title>
<path fill="none" stroke="midnightblue" d="M666.55,-347.08C661.99,-339.61 655.33,-328.72 649.71,-319.52"/>
<polygon fill="midnightblue" stroke="midnightblue" points="652.55,-317.46 644.35,-310.75 646.58,-321.11 652.55,-317.46"/>
</g>
<!-- Node39&#45;&gt;Node17 -->
<g id="edge68" class="edge">
<title>Node39&#45;&gt;Node17</title>
<path fill="none" stroke="midnightblue" d="M592.39,-351.19C524.09,-345.55 432.35,-333.9 404,-311 389.93,-299.64 382.9,-280.18 379.4,-264.58"/>
<polygon fill="midnightblue" stroke="midnightblue" points="382.8,-263.72 377.51,-254.55 375.93,-265.02 382.8,-263.72"/>
</g>
<!-- Node39&#45;&gt;Node27 -->
<g id="edge73" class="edge">
<title>Node39&#45;&gt;Node27</title>
<path fill="none" stroke="midnightblue" d="M696.72,-347.44C722.85,-338.4 764.26,-324.06 793.58,-313.92"/>
<polygon fill="midnightblue" stroke="midnightblue" points="795.09,-317.1 803.4,-310.52 792.8,-310.48 795.09,-317.1"/>
</g>
<!-- Node39&#45;&gt;Node28 -->
<g id="edge69" class="edge">
<title>Node39&#45;&gt;Node28</title>
<path fill="none" stroke="midnightblue" d="M683.73,-347.32C710.15,-327.75 774.63,-280.02 807.7,-255.53"/>
<polygon fill="midnightblue" stroke="midnightblue" points="810.18,-258.05 816.14,-249.28 806.02,-252.42 810.18,-258.05"/>
</g>
<!-- Node39&#45;&gt;Node39 -->
<g id="edge72" class="edge">
<title>Node39&#45;&gt;Node39</title>
<path fill="none" stroke="midnightblue" d="M713.33,-366.5C741.67,-369.33 769.5,-366.16 769.5,-357 769.5,-348.95 748,-345.53 723.56,-346.74"/>
<polygon fill="midnightblue" stroke="midnightblue" points="723.04,-343.27 713.33,-347.5 723.56,-350.25 723.04,-343.27"/>
</g>
<!-- Node40 -->
<g id="node40" class="node">
<title>Node40</title>
<g id="a_node40"><a xlink:title=" ">
<polygon fill="white" stroke="#bfbfbf" points="413.5,-291.5 413.5,-310.5 584.5,-310.5 584.5,-291.5 413.5,-291.5"/>
<text text-anchor="middle" x="499" y="-298.5" font-family="Helvetica,sans-Serif" font-size="10.00">sitkMemberFunctionFactory.hxx</text>
</a>
</g>
</g>
<!-- Node39&#45;&gt;Node40 -->
<g id="edge70" class="edge">
<title>Node39&#45;&gt;Node40</title>
<path fill="none" stroke="midnightblue" d="M644.59,-347.44C615.23,-338.28 568.48,-323.69 535.9,-313.52"/>
<polygon fill="midnightblue" stroke="midnightblue" points="536.87,-310.16 526.28,-310.52 534.79,-316.84 536.87,-310.16"/>
</g>
</g>
</svg>
