<?xml version="1.0" encoding="UTF-8" standalone="no"?>
<!DOCTYPE svg PUBLIC "-//W3C//DTD SVG 1.1//EN"
 "http://www.w3.org/Graphics/SVG/1.1/DTD/svg11.dtd">
<!-- Generated by graphviz version 2.40.1 (20161225.0304)
 -->
<!-- Title: sitkObjectOwnedBase.h Pages: 1 -->
<svg width="238pt" height="196pt"
 viewBox="0.00 0.00 237.50 196.00" xmlns="http://www.w3.org/2000/svg" xmlns:xlink="http://www.w3.org/1999/xlink">
<g id="graph0" class="graph" transform="scale(1 1) rotate(0) translate(4 192)">
<title>sitkObjectOwnedBase.h</title>
<polygon fill="#ffffff" stroke="transparent" points="-4,4 -4,-192 233.5,-192 233.5,4 -4,4"/>
<!-- Node1 -->
<g id="node1" class="node">
<title>Node1</title>
<g id="a_node1"><a xlink:title=" ">
<polygon fill="#bfbfbf" stroke="#000000" points="0,-168.5 0,-187.5 133,-187.5 133,-168.5 0,-168.5"/>
<text text-anchor="middle" x="66.5" y="-175.5" font-family="Helvetica,sans-Serif" font-size="10.00" fill="#000000">sitkObjectOwnedBase.h</text>
</a>
</g>
</g>
<!-- Node2 -->
<g id="node2" class="node">
<title>Node2</title>
<g id="a_node2"><a xlink:href="SimpleITK_8h.html" target="_top" xlink:title=" ">
<polygon fill="#ffffff" stroke="#000000" points="30,-.5 30,-19.5 105,-19.5 105,-.5 30,-.5"/>
<text text-anchor="middle" x="67.5" y="-7.5" font-family="Helvetica,sans-Serif" font-size="10.00" fill="#000000">SimpleITK.h</text>
</a>
</g>
</g>
<!-- Node1&#45;&gt;Node2 -->
<g id="edge1" class="edge">
<title>Node1&#45;&gt;Node2</title>
<path fill="none" stroke="#191970" d="M57.2909,-159.156C53.7981,-151.0107 50.2441,-141.2434 48.5,-132 40.6304,-90.2929 56.3,-40.1204 63.8042,-19.5268"/>
<polygon fill="#191970" stroke="#191970" points="54.1976,-160.8077 61.5415,-168.4444 60.5628,-157.8948 54.1976,-160.8077"/>
</g>
<!-- Node3 -->
<g id="node3" class="node">
<title>Node3</title>
<g id="a_node3"><a xlink:href="sitkCommand_8h.html" target="_top" xlink:title=" ">
<polygon fill="#ffffff" stroke="#000000" points="57.5,-112.5 57.5,-131.5 151.5,-131.5 151.5,-112.5 57.5,-112.5"/>
<text text-anchor="middle" x="104.5" y="-119.5" font-family="Helvetica,sans-Serif" font-size="10.00" fill="#000000">sitkCommand.h</text>
</a>
</g>
</g>
<!-- Node1&#45;&gt;Node3 -->
<g id="edge2" class="edge">
<title>Node1&#45;&gt;Node3</title>
<path fill="none" stroke="#191970" d="M78.7679,-159.9209C85.1488,-150.5176 92.6931,-139.3997 97.9568,-131.6427"/>
<polygon fill="#191970" stroke="#191970" points="75.838,-158.0055 73.1191,-168.2455 81.6303,-161.936 75.838,-158.0055"/>
</g>
<!-- Node3&#45;&gt;Node2 -->
<g id="edge3" class="edge">
<title>Node3&#45;&gt;Node2</title>
<path fill="none" stroke="#191970" d="M96.5395,-102.8284C93.2546,-94.6286 89.5182,-84.9092 86.5,-76 79.8429,-56.3498 73.4578,-32.9212 70.0503,-19.9284"/>
<polygon fill="#191970" stroke="#191970" points="93.3548,-104.288 100.371,-112.2267 99.8368,-101.6454 93.3548,-104.288"/>
</g>
<!-- Node4 -->
<g id="node4" class="node">
<title>Node4</title>
<g id="a_node4"><a xlink:href="sitkFunctionCommand_8h.html" target="_top" xlink:title=" ">
<polygon fill="#ffffff" stroke="#000000" points="95.5,-56.5 95.5,-75.5 229.5,-75.5 229.5,-56.5 95.5,-56.5"/>
<text text-anchor="middle" x="162.5" y="-63.5" font-family="Helvetica,sans-Serif" font-size="10.00" fill="#000000">sitkFunctionCommand.h</text>
</a>
</g>
</g>
<!-- Node3&#45;&gt;Node4 -->
<g id="edge4" class="edge">
<title>Node3&#45;&gt;Node4</title>
<path fill="none" stroke="#191970" d="M122.0293,-105.0751C132.0083,-95.4402 144.1476,-83.7196 152.5129,-75.6427"/>
<polygon fill="#191970" stroke="#191970" points="119.3658,-102.7817 114.6028,-112.2455 124.228,-107.8175 119.3658,-102.7817"/>
</g>
<!-- Node4&#45;&gt;Node2 -->
<g id="edge5" class="edge">
<title>Node4&#45;&gt;Node2</title>
<path fill="none" stroke="#191970" d="M137.1324,-51.0465C120.229,-41.0824 98.5096,-28.2794 83.8581,-19.6427"/>
<polygon fill="#191970" stroke="#191970" points="135.5602,-54.1825 145.9523,-56.2455 139.1149,-48.1522 135.5602,-54.1825"/>
</g>
</g>
</svg>
