<?xml version="1.0" encoding="UTF-8" standalone="no"?>
<!DOCTYPE svg PUBLIC "-//W3C//DTD SVG 1.1//EN"
 "http://www.w3.org/Graphics/SVG/1.1/DTD/svg11.dtd">
<!-- Generated by graphviz version 2.43.0 (0)
 -->
<!-- Title: sitkProcessObject.h Pages: 1 -->
<svg width="1562pt" height="478pt"
 viewBox="0.00 0.00 1562.00 478.00" xmlns="http://www.w3.org/2000/svg" xmlns:xlink="http://www.w3.org/1999/xlink">
<g id="graph0" class="graph" transform="scale(1 1) rotate(0) translate(4 474)">
<title>sitkProcessObject.h</title>
<!-- Node1 -->
<g id="Node000001" class="node">
<title>Node1</title>
<g id="a_Node000001"><a xlink:title=" ">
<polygon fill="#999999" stroke="#666666" points="1202.5,-470 1089.5,-470 1089.5,-451 1202.5,-451 1202.5,-470"/>
<text text-anchor="middle" x="1146" y="-458" font-family="Helvetica,sans-Serif" font-size="10.00">sitkProcessObject.h</text>
</a>
</g>
</g>
<!-- Node2 -->
<g id="Node000002" class="node">
<title>Node2</title>
<g id="a_Node000002"><a xlink:href="sitkCommon_8h.html" target="_top" xlink:title=" ">
<polygon fill="white" stroke="#666666" points="1051,-129 963,-129 963,-110 1051,-110 1051,-129"/>
<text text-anchor="middle" x="1007" y="-117" font-family="Helvetica,sans-Serif" font-size="10.00">sitkCommon.h</text>
</a>
</g>
</g>
<!-- Node1&#45;&gt;Node2 -->
<g id="edge1_Node000001_Node000002" class="edge">
<title>Node1&#45;&gt;Node2</title>
<g id="a_edge1_Node000001_Node000002"><a xlink:title=" ">
<path fill="none" stroke="#63b8ff" d="M1089.19,-456.67C974.9,-449.42 728,-425.23 728,-351.5 728,-351.5 728,-351.5 728,-294.5 728,-260.33 723.94,-245.22 747,-220 779.44,-184.52 804.39,-201.92 849,-184 868.01,-176.36 872.09,-172.89 891,-165 918.69,-153.44 950.55,-141.3 973.86,-132.63"/>
<polygon fill="#63b8ff" stroke="#63b8ff" points="975.13,-135.89 983.29,-129.13 972.7,-129.32 975.13,-135.89"/>
</a>
</g>
</g>
<!-- Node10 -->
<g id="Node000010" class="node">
<title>Node10</title>
<g id="a_Node000010"><a xlink:href="sitkNonCopyable_8h.html" target="_top" xlink:title=" ">
<polygon fill="white" stroke="#666666" points="840.5,-184 731.5,-184 731.5,-165 840.5,-165 840.5,-184"/>
<text text-anchor="middle" x="786" y="-172" font-family="Helvetica,sans-Serif" font-size="10.00">sitkNonCopyable.h</text>
</a>
</g>
</g>
<!-- Node1&#45;&gt;Node10 -->
<g id="edge9_Node000001_Node000010" class="edge">
<title>Node1&#45;&gt;Node10</title>
<g id="a_edge9_Node000001_Node000010"><a xlink:title=" ">
<path fill="none" stroke="#63b8ff" d="M1117.79,-450.88C1056.46,-431.31 907.94,-379.39 801,-305 772.88,-285.44 759.96,-281.71 747,-250 741.95,-237.66 742.31,-232.48 747,-220 751.18,-208.89 759.52,-198.75 767.43,-190.96"/>
<polygon fill="#63b8ff" stroke="#63b8ff" points="770.01,-193.35 775.01,-184.01 765.28,-188.19 770.01,-193.35"/>
</a>
</g>
</g>
<!-- Node11 -->
<g id="Node000011" class="node">
<title>Node11</title>
<g id="a_Node000011"><a xlink:href="sitkTemplateFunctions_8h.html" target="_top" xlink:title=" ">
<polygon fill="white" stroke="#666666" points="1390.5,-244.5 1255.5,-244.5 1255.5,-225.5 1390.5,-225.5 1390.5,-244.5"/>
<text text-anchor="middle" x="1323" y="-232.5" font-family="Helvetica,sans-Serif" font-size="10.00">sitkTemplateFunctions.h</text>
</a>
</g>
</g>
<!-- Node1&#45;&gt;Node11 -->
<g id="edge11_Node000001_Node000011" class="edge">
<title>Node1&#45;&gt;Node11</title>
<g id="a_edge11_Node000001_Node000011"><a xlink:title=" ">
<path fill="none" stroke="#63b8ff" d="M1187.86,-450.99C1210.33,-444.5 1237.01,-433.43 1255,-415 1299.83,-369.05 1315.72,-290.58 1320.82,-254.79"/>
<polygon fill="#63b8ff" stroke="#63b8ff" points="1324.31,-255.13 1322.12,-244.76 1317.36,-254.23 1324.31,-255.13"/>
</a>
</g>
</g>
<!-- Node17 -->
<g id="Node000017" class="node">
<title>Node17</title>
<g id="a_Node000017"><a xlink:href="sitkEvent_8h.html" target="_top" xlink:title=" ">
<polygon fill="white" stroke="#666666" points="1042.5,-244.5 971.5,-244.5 971.5,-225.5 1042.5,-225.5 1042.5,-244.5"/>
<text text-anchor="middle" x="1007" y="-232.5" font-family="Helvetica,sans-Serif" font-size="10.00">sitkEvent.h</text>
</a>
</g>
</g>
<!-- Node1&#45;&gt;Node17 -->
<g id="edge21_Node000001_Node000017" class="edge">
<title>Node1&#45;&gt;Node17</title>
<g id="a_edge21_Node000001_Node000017"><a xlink:title=" ">
<path fill="none" stroke="#63b8ff" d="M1140.62,-450.98C1134.97,-442.03 1125.83,-427.54 1118,-415 1080.96,-355.7 1037.32,-285.12 1017.61,-253.19"/>
<polygon fill="#63b8ff" stroke="#63b8ff" points="1020.53,-251.25 1012.29,-244.58 1014.57,-254.93 1020.53,-251.25"/>
</a>
</g>
</g>
<!-- Node18 -->
<g id="Node000018" class="node">
<title>Node18</title>
<g id="a_Node000018"><a xlink:href="sitkImage_8h.html" target="_top" xlink:title=" ">
<polygon fill="white" stroke="#666666" points="1197,-360 1123,-360 1123,-341 1197,-341 1197,-360"/>
<text text-anchor="middle" x="1160" y="-348" font-family="Helvetica,sans-Serif" font-size="10.00">sitkImage.h</text>
</a>
</g>
</g>
<!-- Node1&#45;&gt;Node18 -->
<g id="edge24_Node000001_Node000018" class="edge">
<title>Node1&#45;&gt;Node18</title>
<g id="a_edge24_Node000001_Node000018"><a xlink:title=" ">
<path fill="none" stroke="#63b8ff" d="M1138.92,-450.87C1129.8,-438.66 1115.91,-415.63 1123,-396 1126.94,-385.09 1134.86,-374.96 1142.36,-367.14"/>
<polygon fill="#63b8ff" stroke="#63b8ff" points="1144.84,-369.61 1149.56,-360.13 1139.95,-364.6 1144.84,-369.61"/>
</a>
</g>
</g>
<!-- Node34 -->
<g id="Node000034" class="node">
<title>Node34</title>
<g id="a_Node000034"><a xlink:href="sitkImageConvert_8h.html" target="_top" xlink:title=" ">
<polygon fill="white" stroke="#666666" points="1245.5,-415 1132.5,-415 1132.5,-396 1245.5,-396 1245.5,-415"/>
<text text-anchor="middle" x="1189" y="-403" font-family="Helvetica,sans-Serif" font-size="10.00">sitkImageConvert.h</text>
</a>
</g>
</g>
<!-- Node1&#45;&gt;Node34 -->
<g id="edge59_Node000001_Node000034" class="edge">
<title>Node1&#45;&gt;Node34</title>
<g id="a_edge59_Node000001_Node000034"><a xlink:title=" ">
<path fill="none" stroke="#63b8ff" d="M1153.1,-450.75C1159.17,-443.26 1168.09,-432.28 1175.51,-423.13"/>
<polygon fill="#63b8ff" stroke="#63b8ff" points="1178.45,-425.06 1182.03,-415.09 1173.01,-420.65 1178.45,-425.06"/>
</a>
</g>
</g>
<!-- Node35 -->
<g id="Node000035" class="node">
<title>Node35</title>
<g id="a_Node000035"><a xlink:title=" ">
<polygon fill="#e0e0e0" stroke="#999999" points="1391,-415 1331,-415 1331,-396 1391,-396 1391,-415"/>
<text text-anchor="middle" x="1361" y="-403" font-family="Helvetica,sans-Serif" font-size="10.00">iostream</text>
</a>
</g>
</g>
<!-- Node1&#45;&gt;Node35 -->
<g id="edge61_Node000001_Node000035" class="edge">
<title>Node1&#45;&gt;Node35</title>
<g id="a_edge61_Node000001_Node000035"><a xlink:title=" ">
<path fill="none" stroke="#63b8ff" d="M1180.54,-450.98C1218.84,-441.54 1280.54,-426.34 1320.93,-416.38"/>
<polygon fill="#63b8ff" stroke="#63b8ff" points="1321.84,-419.76 1330.71,-413.97 1320.17,-412.96 1321.84,-419.76"/>
</a>
</g>
</g>
<!-- Node36 -->
<g id="Node000036" class="node">
<title>Node36</title>
<g id="a_Node000036"><a xlink:title=" ">
<polygon fill="#e0e0e0" stroke="#999999" points="1441,-415 1409,-415 1409,-396 1441,-396 1441,-415"/>
<text text-anchor="middle" x="1425" y="-403" font-family="Helvetica,sans-Serif" font-size="10.00">list</text>
</a>
</g>
</g>
<!-- Node1&#45;&gt;Node36 -->
<g id="edge62_Node000001_Node000036" class="edge">
<title>Node1&#45;&gt;Node36</title>
<g id="a_edge62_Node000001_Node000036"><a xlink:title=" ">
<path fill="none" stroke="#63b8ff" d="M1202.52,-452.15C1252.12,-445.12 1326.28,-433.23 1399.17,-414.87"/>
<polygon fill="#63b8ff" stroke="#63b8ff" points="1400.15,-418.23 1408.97,-412.36 1398.42,-411.45 1400.15,-418.23"/>
</a>
</g>
</g>
<!-- Node3 -->
<g id="Node000003" class="node">
<title>Node3</title>
<g id="a_Node000003"><a xlink:href="sitkMacro_8h.html" target="_top" xlink:title=" ">
<polygon fill="white" stroke="#666666" points="966,-74 892,-74 892,-55 966,-55 966,-74"/>
<text text-anchor="middle" x="929" y="-62" font-family="Helvetica,sans-Serif" font-size="10.00">sitkMacro.h</text>
</a>
</g>
</g>
<!-- Node2&#45;&gt;Node3 -->
<g id="edge2_Node000002_Node000003" class="edge">
<title>Node2&#45;&gt;Node3</title>
<g id="a_edge2_Node000002_Node000003"><a xlink:title=" ">
<path fill="none" stroke="#63b8ff" d="M994.47,-109.98C982.6,-101.92 964.54,-89.65 950.39,-80.03"/>
<polygon fill="#63b8ff" stroke="#63b8ff" points="952,-76.9 941.76,-74.17 948.06,-82.69 952,-76.9"/>
</a>
</g>
</g>
<!-- Node4 -->
<g id="Node000004" class="node">
<title>Node4</title>
<g id="a_Node000004"><a xlink:title=" ">
<polygon fill="#e0e0e0" stroke="#999999" points="591.5,-19 538.5,-19 538.5,0 591.5,0 591.5,-19"/>
<text text-anchor="middle" x="565" y="-7" font-family="Helvetica,sans-Serif" font-size="10.00">stdint.h</text>
</a>
</g>
</g>
<!-- Node3&#45;&gt;Node4 -->
<g id="edge3_Node000003_Node000004" class="edge">
<title>Node3&#45;&gt;Node4</title>
<g id="a_edge3_Node000003_Node000004"><a xlink:title=" ">
<path fill="none" stroke="#63b8ff" d="M891.76,-58.08C821.78,-47.89 671.48,-26 601.82,-15.86"/>
<polygon fill="#63b8ff" stroke="#63b8ff" points="602.16,-12.37 591.76,-14.4 601.15,-19.3 602.16,-12.37"/>
</a>
</g>
</g>
<!-- Node5 -->
<g id="Node000005" class="node">
<title>Node5</title>
<g id="a_Node000005"><a xlink:title=" ">
<polygon fill="#e0e0e0" stroke="#999999" points="991,-19 935,-19 935,0 991,0 991,-19"/>
<text text-anchor="middle" x="963" y="-7" font-family="Helvetica,sans-Serif" font-size="10.00">stddef.h</text>
</a>
</g>
</g>
<!-- Node3&#45;&gt;Node5 -->
<g id="edge4_Node000003_Node000005" class="edge">
<title>Node3&#45;&gt;Node5</title>
<g id="a_edge4_Node000003_Node000005"><a xlink:title=" ">
<path fill="none" stroke="#63b8ff" d="M934.61,-54.75C939.32,-47.42 946.17,-36.73 951.97,-27.7"/>
<polygon fill="#63b8ff" stroke="#63b8ff" points="955.04,-29.4 957.49,-19.09 949.14,-25.62 955.04,-29.4"/>
</a>
</g>
</g>
<!-- Node6 -->
<g id="Node000006" class="node">
<title>Node6</title>
<g id="a_Node000006"><a xlink:title=" ">
<polygon fill="#e0e0e0" stroke="#999999" points="1061,-19 1009,-19 1009,0 1061,0 1061,-19"/>
<text text-anchor="middle" x="1035" y="-7" font-family="Helvetica,sans-Serif" font-size="10.00">cassert</text>
</a>
</g>
</g>
<!-- Node3&#45;&gt;Node6 -->
<g id="edge5_Node000003_Node000006" class="edge">
<title>Node3&#45;&gt;Node6</title>
<g id="a_edge5_Node000003_Node000006"><a xlink:title=" ">
<path fill="none" stroke="#63b8ff" d="M946.03,-54.98C962.93,-46.54 989.06,-33.47 1008.64,-23.68"/>
<polygon fill="#63b8ff" stroke="#63b8ff" points="1010.28,-26.77 1017.66,-19.17 1007.15,-20.51 1010.28,-26.77"/>
</a>
</g>
</g>
<!-- Node7 -->
<g id="Node000007" class="node">
<title>Node7</title>
<g id="a_Node000007"><a xlink:title=" ">
<polygon fill="#e0e0e0" stroke="#999999" points="855,-19 799,-19 799,0 855,0 855,-19"/>
<text text-anchor="middle" x="827" y="-7" font-family="Helvetica,sans-Serif" font-size="10.00">sstream</text>
</a>
</g>
</g>
<!-- Node3&#45;&gt;Node7 -->
<g id="edge6_Node000003_Node000007" class="edge">
<title>Node3&#45;&gt;Node7</title>
<g id="a_edge6_Node000003_Node000007"><a xlink:title=" ">
<path fill="none" stroke="#63b8ff" d="M912.61,-54.98C896.43,-46.57 871.43,-33.59 852.62,-23.81"/>
<polygon fill="#63b8ff" stroke="#63b8ff" points="854.17,-20.68 843.69,-19.17 850.95,-26.89 854.17,-20.68"/>
</a>
</g>
</g>
<!-- Node8 -->
<g id="Node000008" class="node">
<title>Node8</title>
<g id="a_Node000008"><a xlink:title=" ">
<polygon fill="#e0e0e0" stroke="#999999" points="917,-19 873,-19 873,0 917,0 917,-19"/>
<text text-anchor="middle" x="895" y="-7" font-family="Helvetica,sans-Serif" font-size="10.00">limits</text>
</a>
</g>
</g>
<!-- Node3&#45;&gt;Node8 -->
<g id="edge7_Node000003_Node000008" class="edge">
<title>Node3&#45;&gt;Node8</title>
<g id="a_edge7_Node000003_Node000008"><a xlink:title=" ">
<path fill="none" stroke="#63b8ff" d="M923.39,-54.75C918.68,-47.42 911.83,-36.73 906.03,-27.7"/>
<polygon fill="#63b8ff" stroke="#63b8ff" points="908.86,-25.62 900.51,-19.09 902.96,-29.4 908.86,-25.62"/>
</a>
</g>
</g>
<!-- Node9 -->
<g id="Node000009" class="node">
<title>Node9</title>
<g id="a_Node000009"><a xlink:href="sitkConfigure_8h.html" target="_top" xlink:title=" ">
<polygon fill="white" stroke="#666666" points="397,-19 307,-19 307,0 397,0 397,-19"/>
<text text-anchor="middle" x="352" y="-7" font-family="Helvetica,sans-Serif" font-size="10.00">sitkConfigure.h</text>
</a>
</g>
</g>
<!-- Node3&#45;&gt;Node9 -->
<g id="edge8_Node000003_Node000009" class="edge">
<title>Node3&#45;&gt;Node9</title>
<g id="a_edge8_Node000003_Node000009"><a xlink:title=" ">
<path fill="none" stroke="#63b8ff" d="M891.59,-60.06C792.68,-50.98 523.93,-26.29 407.27,-15.58"/>
<polygon fill="#63b8ff" stroke="#63b8ff" points="407.41,-12.08 397.13,-14.65 406.77,-19.05 407.41,-12.08"/>
</a>
</g>
</g>
<!-- Node10&#45;&gt;Node2 -->
<g id="edge10_Node000010_Node000002" class="edge">
<title>Node10&#45;&gt;Node2</title>
<g id="a_edge10_Node000010_Node000002"><a xlink:title=" ">
<path fill="none" stroke="#63b8ff" d="M821.51,-164.98C859.49,-155.87 919.87,-141.4 961.36,-131.45"/>
<polygon fill="#63b8ff" stroke="#63b8ff" points="962.31,-134.82 971.21,-129.08 960.67,-128.01 962.31,-134.82"/>
</a>
</g>
</g>
<!-- Node11&#45;&gt;Node2 -->
<g id="edge13_Node000011_Node000002" class="edge">
<title>Node11&#45;&gt;Node2</title>
<g id="a_edge13_Node000011_Node000002"><a xlink:title=" ">
<path fill="none" stroke="#63b8ff" d="M1316,-225.14C1303.61,-210.13 1276.28,-179.9 1246,-165 1187.01,-135.97 1111.32,-125.79 1061.1,-122.27"/>
<polygon fill="#63b8ff" stroke="#63b8ff" points="1061.29,-118.78 1051.09,-121.64 1060.85,-125.76 1061.29,-118.78"/>
</a>
</g>
</g>
<!-- Node11&#45;&gt;Node3 -->
<g id="edge12_Node000011_Node000003" class="edge">
<title>Node11&#45;&gt;Node3</title>
<g id="a_edge12_Node000011_Node000003"><a xlink:title=" ">
<path fill="none" stroke="#63b8ff" d="M1332.97,-225.24C1347.5,-211.41 1371.19,-184.14 1356,-165 1308.98,-105.76 1077.67,-78.54 976.51,-69.32"/>
<polygon fill="#63b8ff" stroke="#63b8ff" points="976.54,-65.81 966.27,-68.41 975.92,-72.78 976.54,-65.81"/>
</a>
</g>
</g>
<!-- Node12 -->
<g id="Node000012" class="node">
<title>Node12</title>
<g id="a_Node000012"><a xlink:href="sitkExceptionObject_8h.html" target="_top" xlink:title=" ">
<polygon fill="white" stroke="#666666" points="1526.5,-184 1403.5,-184 1403.5,-165 1526.5,-165 1526.5,-184"/>
<text text-anchor="middle" x="1465" y="-172" font-family="Helvetica,sans-Serif" font-size="10.00">sitkExceptionObject.h</text>
</a>
</g>
</g>
<!-- Node11&#45;&gt;Node12 -->
<g id="edge14_Node000011_Node000012" class="edge">
<title>Node11&#45;&gt;Node12</title>
<g id="a_edge14_Node000011_Node000012"><a xlink:title=" ">
<path fill="none" stroke="#63b8ff" d="M1343.65,-225.49C1367.63,-215.62 1407.39,-199.23 1434.83,-187.93"/>
<polygon fill="#63b8ff" stroke="#63b8ff" points="1436.41,-191.06 1444.33,-184.02 1433.75,-184.59 1436.41,-191.06"/>
</a>
</g>
</g>
<!-- Node14 -->
<g id="Node000014" class="node">
<title>Node14</title>
<g id="a_Node000014"><a xlink:title=" ">
<polygon fill="#e0e0e0" stroke="#999999" points="1236.5,-184 1189.5,-184 1189.5,-165 1236.5,-165 1236.5,-184"/>
<text text-anchor="middle" x="1213" y="-172" font-family="Helvetica,sans-Serif" font-size="10.00">vector</text>
</a>
</g>
</g>
<!-- Node11&#45;&gt;Node14 -->
<g id="edge18_Node000011_Node000014" class="edge">
<title>Node11&#45;&gt;Node14</title>
<g id="a_edge18_Node000011_Node000014"><a xlink:title=" ">
<path fill="none" stroke="#63b8ff" d="M1306.77,-225.37C1288.73,-215.78 1259.38,-200.17 1238.32,-188.97"/>
<polygon fill="#63b8ff" stroke="#63b8ff" points="1239.77,-185.77 1229.3,-184.17 1236.48,-191.95 1239.77,-185.77"/>
</a>
</g>
</g>
<!-- Node15 -->
<g id="Node000015" class="node">
<title>Node15</title>
<g id="a_Node000015"><a xlink:title=" ">
<polygon fill="#e0e0e0" stroke="#999999" points="1092.5,-184 1035.5,-184 1035.5,-165 1092.5,-165 1092.5,-184"/>
<text text-anchor="middle" x="1064" y="-172" font-family="Helvetica,sans-Serif" font-size="10.00">ostream</text>
</a>
</g>
</g>
<!-- Node11&#45;&gt;Node15 -->
<g id="edge19_Node000011_Node000015" class="edge">
<title>Node11&#45;&gt;Node15</title>
<g id="a_edge19_Node000011_Node000015"><a xlink:title=" ">
<path fill="none" stroke="#63b8ff" d="M1285.34,-225.49C1236.48,-214.46 1151.7,-195.31 1102.45,-184.19"/>
<polygon fill="#63b8ff" stroke="#63b8ff" points="1103.04,-180.73 1092.51,-181.94 1101.49,-187.56 1103.04,-180.73"/>
</a>
</g>
</g>
<!-- Node16 -->
<g id="Node000016" class="node">
<title>Node16</title>
<g id="a_Node000016"><a xlink:title=" ">
<polygon fill="#e0e0e0" stroke="#999999" points="1346.5,-184 1293.5,-184 1293.5,-165 1346.5,-165 1346.5,-184"/>
<text text-anchor="middle" x="1320" y="-172" font-family="Helvetica,sans-Serif" font-size="10.00">iterator</text>
</a>
</g>
</g>
<!-- Node11&#45;&gt;Node16 -->
<g id="edge20_Node000011_Node000016" class="edge">
<title>Node11&#45;&gt;Node16</title>
<g id="a_edge20_Node000011_Node000016"><a xlink:title=" ">
<path fill="none" stroke="#63b8ff" d="M1322.56,-225.37C1322.14,-217.25 1321.5,-204.81 1320.97,-194.39"/>
<polygon fill="#63b8ff" stroke="#63b8ff" points="1324.45,-193.97 1320.44,-184.17 1317.46,-194.33 1324.45,-193.97"/>
</a>
</g>
</g>
<!-- Node12&#45;&gt;Node2 -->
<g id="edge16_Node000012_Node000002" class="edge">
<title>Node12&#45;&gt;Node2</title>
<g id="a_edge16_Node000012_Node000002"><a xlink:title=" ">
<path fill="none" stroke="#63b8ff" d="M1403.23,-166.35C1313.02,-155.91 1146.66,-136.66 1061.04,-126.75"/>
<polygon fill="#63b8ff" stroke="#63b8ff" points="1061.35,-123.27 1051.01,-125.59 1060.54,-130.22 1061.35,-123.27"/>
</a>
</g>
</g>
<!-- Node12&#45;&gt;Node3 -->
<g id="edge15_Node000012_Node000003" class="edge">
<title>Node12&#45;&gt;Node3</title>
<g id="a_edge15_Node000012_Node000003"><a xlink:title=" ">
<path fill="none" stroke="#63b8ff" d="M1457.68,-164.62C1445.25,-150.27 1418.5,-122.34 1389,-110 1315.29,-79.16 1077.86,-69.37 976.06,-66.55"/>
<polygon fill="#63b8ff" stroke="#63b8ff" points="976.15,-63.05 966.06,-66.28 975.97,-70.05 976.15,-63.05"/>
</a>
</g>
</g>
<!-- Node13 -->
<g id="Node000013" class="node">
<title>Node13</title>
<g id="a_Node000013"><a xlink:title=" ">
<polygon fill="#e0e0e0" stroke="#999999" points="1554,-129 1496,-129 1496,-110 1554,-110 1554,-129"/>
<text text-anchor="middle" x="1525" y="-117" font-family="Helvetica,sans-Serif" font-size="10.00">memory</text>
</a>
</g>
</g>
<!-- Node12&#45;&gt;Node13 -->
<g id="edge17_Node000012_Node000013" class="edge">
<title>Node12&#45;&gt;Node13</title>
<g id="a_edge17_Node000012_Node000013"><a xlink:title=" ">
<path fill="none" stroke="#63b8ff" d="M1474.64,-164.98C1483.51,-157.15 1496.87,-145.34 1507.61,-135.86"/>
<polygon fill="#63b8ff" stroke="#63b8ff" points="1510.01,-138.41 1515.18,-129.17 1505.37,-133.17 1510.01,-138.41"/>
</a>
</g>
</g>
<!-- Node17&#45;&gt;Node2 -->
<g id="edge22_Node000017_Node000002" class="edge">
<title>Node17&#45;&gt;Node2</title>
<g id="a_edge22_Node000017_Node000002"><a xlink:title=" ">
<path fill="none" stroke="#63b8ff" d="M1007,-225.47C1007,-207.23 1007,-164.07 1007,-139.14"/>
<polygon fill="#63b8ff" stroke="#63b8ff" points="1010.5,-139.13 1007,-129.13 1003.5,-139.13 1010.5,-139.13"/>
</a>
</g>
</g>
<!-- Node17&#45;&gt;Node15 -->
<g id="edge23_Node000017_Node000015" class="edge">
<title>Node17&#45;&gt;Node15</title>
<g id="a_edge23_Node000017_Node000015"><a xlink:title=" ">
<path fill="none" stroke="#63b8ff" d="M1015.41,-225.37C1024.08,-216.47 1037.8,-202.39 1048.46,-191.45"/>
<polygon fill="#63b8ff" stroke="#63b8ff" points="1051.08,-193.77 1055.55,-184.17 1046.07,-188.89 1051.08,-193.77"/>
</a>
</g>
</g>
<!-- Node18&#45;&gt;Node2 -->
<g id="edge25_Node000018_Node000002" class="edge">
<title>Node18&#45;&gt;Node2</title>
<g id="a_edge25_Node000018_Node000002"><a xlink:title=" ">
<path fill="none" stroke="#63b8ff" d="M1163.12,-340.95C1170.39,-319.66 1186.59,-262.91 1170,-220 1151.29,-171.62 1094.57,-145.21 1053.28,-131.99"/>
<polygon fill="#63b8ff" stroke="#63b8ff" points="1054.27,-128.63 1043.68,-129.06 1052.22,-135.32 1054.27,-128.63"/>
</a>
</g>
</g>
<!-- Node18&#45;&gt;Node11 -->
<g id="edge26_Node000018_Node000011" class="edge">
<title>Node18&#45;&gt;Node11</title>
<g id="a_edge26_Node000018_Node000011"><a xlink:title=" ">
<path fill="none" stroke="#63b8ff" d="M1177.97,-340.91C1194.79,-332.58 1220.36,-319.15 1241,-305 1265.05,-288.52 1290.37,-266.36 1306.41,-251.65"/>
<polygon fill="#63b8ff" stroke="#63b8ff" points="1308.94,-254.08 1313.89,-244.71 1304.18,-248.95 1308.94,-254.08"/>
</a>
</g>
</g>
<!-- Node18&#45;&gt;Node13 -->
<g id="edge57_Node000018_Node000013" class="edge">
<title>Node18&#45;&gt;Node13</title>
<g id="a_edge57_Node000018_Node000013"><a xlink:title=" ">
<path fill="none" stroke="#63b8ff" d="M1197.01,-346.36C1276.18,-337.4 1460.86,-303.99 1536,-184 1544.61,-170.25 1539.94,-151.7 1534.26,-138.2"/>
<polygon fill="#63b8ff" stroke="#63b8ff" points="1537.37,-136.57 1529.94,-129.02 1531.04,-139.56 1537.37,-136.57"/>
</a>
</g>
</g>
<!-- Node18&#45;&gt;Node14 -->
<g id="edge56_Node000018_Node000014" class="edge">
<title>Node18&#45;&gt;Node14</title>
<g id="a_edge56_Node000018_Node000014"><a xlink:title=" ">
<path fill="none" stroke="#63b8ff" d="M1172.21,-340.81C1182.4,-332.79 1196.3,-319.89 1203,-305 1219.44,-268.45 1217.87,-220.25 1215.38,-194.18"/>
<polygon fill="#63b8ff" stroke="#63b8ff" points="1218.85,-193.72 1214.27,-184.17 1211.89,-194.49 1218.85,-193.72"/>
</a>
</g>
</g>
<!-- Node19 -->
<g id="Node000019" class="node">
<title>Node19</title>
<g id="a_Node000019"><a xlink:href="sitkDetail_8h.html" target="_top" xlink:title=" ">
<polygon fill="white" stroke="#666666" points="442.5,-305 369.5,-305 369.5,-286 442.5,-286 442.5,-305"/>
<text text-anchor="middle" x="406" y="-293" font-family="Helvetica,sans-Serif" font-size="10.00">sitkDetail.h</text>
</a>
</g>
</g>
<!-- Node18&#45;&gt;Node19 -->
<g id="edge27_Node000018_Node000019" class="edge">
<title>Node18&#45;&gt;Node19</title>
<g id="a_edge27_Node000018_Node000019"><a xlink:title=" ">
<path fill="none" stroke="#63b8ff" d="M1122.87,-346.89C997.78,-338.1 591.89,-309.57 453.06,-299.81"/>
<polygon fill="#63b8ff" stroke="#63b8ff" points="452.99,-296.29 442.77,-299.08 452.5,-303.28 452.99,-296.29"/>
</a>
</g>
</g>
<!-- Node29 -->
<g id="Node000029" class="node">
<title>Node29</title>
<g id="a_Node000029"><a xlink:href="sitkPixelIDTokens_8h.html" target="_top" xlink:title=" ">
<polygon fill="white" stroke="#666666" points="920,-305 810,-305 810,-286 920,-286 920,-305"/>
<text text-anchor="middle" x="865" y="-293" font-family="Helvetica,sans-Serif" font-size="10.00">sitkPixelIDTokens.h</text>
</a>
</g>
</g>
<!-- Node18&#45;&gt;Node29 -->
<g id="edge45_Node000018_Node000029" class="edge">
<title>Node18&#45;&gt;Node29</title>
<g id="a_edge45_Node000018_Node000029"><a xlink:title=" ">
<path fill="none" stroke="#63b8ff" d="M1122.94,-342.84C1072.47,-333.77 981.64,-317.46 922.34,-306.8"/>
<polygon fill="#63b8ff" stroke="#63b8ff" points="922.84,-303.34 912.38,-305.01 921.61,-310.23 922.84,-303.34"/>
</a>
</g>
</g>
<!-- Node32 -->
<g id="Node000032" class="node">
<title>Node32</title>
<g id="a_Node000032"><a xlink:title=" ">
<polygon fill="#e0e0e0" stroke="#999999" points="953.5,-244.5 884.5,-244.5 884.5,-225.5 953.5,-225.5 953.5,-244.5"/>
<text text-anchor="middle" x="919" y="-232.5" font-family="Helvetica,sans-Serif" font-size="10.00">type_traits</text>
</a>
</g>
</g>
<!-- Node18&#45;&gt;Node32 -->
<g id="edge58_Node000018_Node000032" class="edge">
<title>Node18&#45;&gt;Node32</title>
<g id="a_edge58_Node000018_Node000032"><a xlink:title=" ">
<path fill="none" stroke="#63b8ff" d="M1141.89,-340.97C1100.01,-321.25 996.31,-272.41 946.53,-248.96"/>
<polygon fill="#63b8ff" stroke="#63b8ff" points="947.86,-245.72 937.32,-244.63 944.88,-252.06 947.86,-245.72"/>
</a>
</g>
</g>
<!-- Node33 -->
<g id="Node000033" class="node">
<title>Node33</title>
<g id="a_Node000033"><a xlink:href="sitkInterpolator_8h.html" target="_top" xlink:title=" ">
<polygon fill="white" stroke="#666666" points="1161,-244.5 1061,-244.5 1061,-225.5 1161,-225.5 1161,-244.5"/>
<text text-anchor="middle" x="1111" y="-232.5" font-family="Helvetica,sans-Serif" font-size="10.00">sitkInterpolator.h</text>
</a>
</g>
</g>
<!-- Node18&#45;&gt;Node33 -->
<g id="edge53_Node000018_Node000033" class="edge">
<title>Node18&#45;&gt;Node33</title>
<g id="a_edge53_Node000018_Node000033"><a xlink:title=" ">
<path fill="none" stroke="#63b8ff" d="M1156.32,-340.97C1148.37,-322.56 1129.47,-278.79 1118.76,-253.98"/>
<polygon fill="#63b8ff" stroke="#63b8ff" points="1121.9,-252.42 1114.73,-244.63 1115.48,-255.2 1121.9,-252.42"/>
</a>
</g>
</g>
<!-- Node20 -->
<g id="Node000020" class="node">
<title>Node20</title>
<g id="a_Node000020"><a xlink:href="sitkMemberFunctionFactoryBase_8h.html" target="_top" xlink:title=" ">
<polygon fill="white" stroke="#666666" points="482,-250 330,-250 330,-220 482,-220 482,-250"/>
<text text-anchor="start" x="338" y="-238" font-family="Helvetica,sans-Serif" font-size="10.00">sitkMemberFunctionFactory</text>
<text text-anchor="middle" x="406" y="-227" font-family="Helvetica,sans-Serif" font-size="10.00">Base.h</text>
</a>
</g>
</g>
<!-- Node19&#45;&gt;Node20 -->
<g id="edge28_Node000019_Node000020" class="edge">
<title>Node19&#45;&gt;Node20</title>
<g id="a_edge28_Node000019_Node000020"><a xlink:title=" ">
<path fill="none" stroke="#63b8ff" d="M406,-285.87C406,-279.11 406,-269.35 406,-260.26"/>
<polygon fill="#63b8ff" stroke="#63b8ff" points="409.5,-260.11 406,-250.11 402.5,-260.11 409.5,-260.11"/>
</a>
</g>
</g>
<!-- Node25 -->
<g id="Node000025" class="node">
<title>Node25</title>
<g id="a_Node000025"><a xlink:title=" ">
<polygon fill="#e0e0e0" stroke="#999999" points="167.5,-184 28.5,-184 28.5,-165 167.5,-165 167.5,-184"/>
<text text-anchor="middle" x="98" y="-172" font-family="Helvetica,sans-Serif" font-size="10.00">Ancillary/FunctionTraits.h</text>
</a>
</g>
</g>
<!-- Node19&#45;&gt;Node25 -->
<g id="edge44_Node000019_Node000025" class="edge">
<title>Node19&#45;&gt;Node25</title>
<g id="a_edge44_Node000019_Node000025"><a xlink:title=" ">
<path fill="none" stroke="#63b8ff" d="M383.85,-285.94C330.04,-265.15 192.27,-211.92 129.73,-187.76"/>
<polygon fill="#63b8ff" stroke="#63b8ff" points="130.95,-184.48 120.36,-184.14 128.43,-191.01 130.95,-184.48"/>
</a>
</g>
</g>
<!-- Node20&#45;&gt;Node3 -->
<g id="edge37_Node000020_Node000003" class="edge">
<title>Node20&#45;&gt;Node3</title>
<g id="a_edge37_Node000020_Node000003"><a xlink:title=" ">
<path fill="none" stroke="#63b8ff" d="M414.84,-219.96C425.63,-204.06 445.38,-178.59 469,-165 504.85,-144.38 771.73,-94.14 881.77,-74.03"/>
<polygon fill="#63b8ff" stroke="#63b8ff" points="882.71,-77.41 891.92,-72.18 881.45,-70.53 882.71,-77.41"/>
</a>
</g>
</g>
<!-- Node20&#45;&gt;Node9 -->
<g id="edge29_Node000020_Node000009" class="edge">
<title>Node20&#45;&gt;Node9</title>
<g id="a_edge29_Node000020_Node000009"><a xlink:title=" ">
<path fill="none" stroke="#63b8ff" d="M329.92,-224.14C273.58,-212.24 201.23,-186.13 169,-129 136.57,-71.5 233.28,-37.34 298.21,-21.41"/>
<polygon fill="#63b8ff" stroke="#63b8ff" points="299.41,-24.73 308.33,-19.01 297.8,-17.92 299.41,-24.73"/>
</a>
</g>
</g>
<!-- Node20&#45;&gt;Node10 -->
<g id="edge38_Node000020_Node000010" class="edge">
<title>Node20&#45;&gt;Node10</title>
<g id="a_edge38_Node000020_Node000010"><a xlink:title=" ">
<path fill="none" stroke="#63b8ff" d="M482.44,-222.23C552.49,-211.45 655.07,-195.66 721.19,-185.48"/>
<polygon fill="#63b8ff" stroke="#63b8ff" points="722.13,-188.87 731.48,-183.89 721.06,-181.96 722.13,-188.87"/>
</a>
</g>
</g>
<!-- Node21 -->
<g id="Node000021" class="node">
<title>Node21</title>
<g id="a_Node000021"><a xlink:href="sitkPixelIDTypes_8h.html" target="_top" xlink:title=" ">
<polygon fill="white" stroke="#666666" points="283.5,-129 178.5,-129 178.5,-110 283.5,-110 283.5,-129"/>
<text text-anchor="middle" x="231" y="-117" font-family="Helvetica,sans-Serif" font-size="10.00">sitkPixelIDTypes.h</text>
</a>
</g>
</g>
<!-- Node20&#45;&gt;Node21 -->
<g id="edge30_Node000020_Node000021" class="edge">
<title>Node20&#45;&gt;Node21</title>
<g id="a_edge30_Node000020_Node000021"><a xlink:title=" ">
<path fill="none" stroke="#63b8ff" d="M356.86,-219.99C333.41,-211.83 305.79,-199.96 284,-184 266.68,-171.32 251.51,-151.79 241.89,-137.74"/>
<polygon fill="#63b8ff" stroke="#63b8ff" points="244.59,-135.46 236.16,-129.04 238.74,-139.31 244.59,-135.46"/>
</a>
</g>
</g>
<!-- Node22 -->
<g id="Node000022" class="node">
<title>Node22</title>
<g id="a_Node000022"><a xlink:href="sitkPixelIDTypeLists_8h.html" target="_top" xlink:title=" ">
<polygon fill="white" stroke="#666666" points="422,-184 300,-184 300,-165 422,-165 422,-184"/>
<text text-anchor="middle" x="361" y="-172" font-family="Helvetica,sans-Serif" font-size="10.00">sitkPixelIDTypeLists.h</text>
</a>
</g>
</g>
<!-- Node20&#45;&gt;Node22 -->
<g id="edge31_Node000020_Node000022" class="edge">
<title>Node20&#45;&gt;Node22</title>
<g id="a_edge31_Node000020_Node000022"><a xlink:title=" ">
<path fill="none" stroke="#63b8ff" d="M395.11,-219.84C388.71,-211.52 380.58,-200.96 373.87,-192.23"/>
<polygon fill="#63b8ff" stroke="#63b8ff" points="376.61,-190.06 367.74,-184.27 371.07,-194.33 376.61,-190.06"/>
</a>
</g>
</g>
<!-- Node23 -->
<g id="Node000023" class="node">
<title>Node23</title>
<g id="a_Node000023"><a xlink:title=" ">
<polygon fill="#e0e0e0" stroke="#999999" points="420.5,-129 301.5,-129 301.5,-110 420.5,-110 420.5,-129"/>
<text text-anchor="middle" x="361" y="-117" font-family="Helvetica,sans-Serif" font-size="10.00">Ancillary/type_list2.h</text>
</a>
</g>
</g>
<!-- Node20&#45;&gt;Node23 -->
<g id="edge39_Node000020_Node000023" class="edge">
<title>Node20&#45;&gt;Node23</title>
<g id="a_edge39_Node000020_Node000023"><a xlink:title=" ">
<path fill="none" stroke="#63b8ff" d="M339.91,-219.95C320.9,-212.52 302.28,-201.21 291,-184 277.42,-163.29 304.2,-144.92 328.46,-133.34"/>
<polygon fill="#63b8ff" stroke="#63b8ff" points="330.2,-136.39 337.89,-129.09 327.33,-130.01 330.2,-136.39"/>
</a>
</g>
</g>
<!-- Node20&#45;&gt;Node25 -->
<g id="edge40_Node000020_Node000025" class="edge">
<title>Node20&#45;&gt;Node25</title>
<g id="a_edge40_Node000020_Node000025"><a xlink:title=" ">
<path fill="none" stroke="#63b8ff" d="M332.23,-219.99C277.12,-209.52 202.99,-195.44 153.01,-185.95"/>
<polygon fill="#63b8ff" stroke="#63b8ff" points="153.51,-182.48 143.03,-184.05 152.21,-189.36 153.51,-182.48"/>
</a>
</g>
</g>
<!-- Node26 -->
<g id="Node000026" class="node">
<title>Node26</title>
<g id="a_Node000026"><a xlink:title=" ">
<polygon fill="#e0e0e0" stroke="#999999" points="571.5,-184 478.5,-184 478.5,-165 571.5,-165 571.5,-184"/>
<text text-anchor="middle" x="525" y="-172" font-family="Helvetica,sans-Serif" font-size="10.00">unordered_map</text>
</a>
</g>
</g>
<!-- Node20&#45;&gt;Node26 -->
<g id="edge41_Node000020_Node000026" class="edge">
<title>Node20&#45;&gt;Node26</title>
<g id="a_edge41_Node000020_Node000026"><a xlink:title=" ">
<path fill="none" stroke="#63b8ff" d="M434.5,-219.99C453.91,-210.45 479.43,-197.9 498.42,-188.57"/>
<polygon fill="#63b8ff" stroke="#63b8ff" points="500,-191.69 507.43,-184.14 496.91,-185.41 500,-191.69"/>
</a>
</g>
</g>
<!-- Node27 -->
<g id="Node000027" class="node">
<title>Node27</title>
<g id="a_Node000027"><a xlink:title=" ">
<polygon fill="#e0e0e0" stroke="#999999" points="654.5,-184 589.5,-184 589.5,-165 654.5,-165 654.5,-184"/>
<text text-anchor="middle" x="622" y="-172" font-family="Helvetica,sans-Serif" font-size="10.00">functional</text>
</a>
</g>
</g>
<!-- Node20&#45;&gt;Node27 -->
<g id="edge42_Node000020_Node000027" class="edge">
<title>Node20&#45;&gt;Node27</title>
<g id="a_edge42_Node000020_Node000027"><a xlink:title=" ">
<path fill="none" stroke="#63b8ff" d="M457.74,-219.99C495.34,-209.8 545.56,-196.2 580.53,-186.73"/>
<polygon fill="#63b8ff" stroke="#63b8ff" points="581.68,-190.05 590.42,-184.05 579.85,-183.29 581.68,-190.05"/>
</a>
</g>
</g>
<!-- Node28 -->
<g id="Node000028" class="node">
<title>Node28</title>
<g id="a_Node000028"><a xlink:title=" ">
<polygon fill="#e0e0e0" stroke="#999999" points="713.5,-184 672.5,-184 672.5,-165 713.5,-165 713.5,-184"/>
<text text-anchor="middle" x="693" y="-172" font-family="Helvetica,sans-Serif" font-size="10.00">tuple</text>
</a>
</g>
</g>
<!-- Node20&#45;&gt;Node28 -->
<g id="edge43_Node000020_Node000028" class="edge">
<title>Node20&#45;&gt;Node28</title>
<g id="a_edge43_Node000020_Node000028"><a xlink:title=" ">
<path fill="none" stroke="#63b8ff" d="M482.27,-220.9C531.18,-212.09 596.21,-199.63 662.6,-183.92"/>
<polygon fill="#63b8ff" stroke="#63b8ff" points="663.49,-187.31 672.4,-181.58 661.86,-180.5 663.49,-187.31"/>
</a>
</g>
</g>
<!-- Node22&#45;&gt;Node4 -->
<g id="edge32_Node000022_Node000004" class="edge">
<title>Node22&#45;&gt;Node4</title>
<g id="a_edge32_Node000022_Node000004"><a xlink:title=" ">
<path fill="none" stroke="#63b8ff" d="M380.97,-164.94C398.62,-156.92 424.64,-143.94 445,-129 487.86,-97.54 530.3,-51.09 551.34,-26.74"/>
<polygon fill="#63b8ff" stroke="#63b8ff" points="554.03,-28.99 557.86,-19.11 548.7,-24.44 554.03,-28.99"/>
</a>
</g>
</g>
<!-- Node22&#45;&gt;Node9 -->
<g id="edge33_Node000022_Node000009" class="edge">
<title>Node22&#45;&gt;Node9</title>
<g id="a_edge33_Node000022_Node000009"><a xlink:title=" ">
<path fill="none" stroke="#63b8ff" d="M384.78,-164.92C400.43,-157.89 419.67,-146.25 429,-129 433.02,-121.57 431.73,-117.99 429,-110 417.26,-75.64 388.29,-43.94 369.43,-25.94"/>
<polygon fill="#63b8ff" stroke="#63b8ff" points="371.75,-23.33 362.04,-19.1 367,-28.46 371.75,-23.33"/>
</a>
</g>
</g>
<!-- Node22&#45;&gt;Node21 -->
<g id="edge34_Node000022_Node000021" class="edge">
<title>Node22&#45;&gt;Node21</title>
<g id="a_edge34_Node000022_Node000021"><a xlink:title=" ">
<path fill="none" stroke="#63b8ff" d="M340.11,-164.98C318.92,-156.34 285.87,-142.87 261.7,-133.02"/>
<polygon fill="#63b8ff" stroke="#63b8ff" points="262.85,-129.7 252.27,-129.17 260.21,-136.19 262.85,-129.7"/>
</a>
</g>
</g>
<!-- Node22&#45;&gt;Node23 -->
<g id="edge35_Node000022_Node000023" class="edge">
<title>Node22&#45;&gt;Node23</title>
<g id="a_edge35_Node000022_Node000023"><a xlink:title=" ">
<path fill="none" stroke="#63b8ff" d="M361,-164.75C361,-157.8 361,-147.85 361,-139.13"/>
<polygon fill="#63b8ff" stroke="#63b8ff" points="364.5,-139.09 361,-129.09 357.5,-139.09 364.5,-139.09"/>
</a>
</g>
</g>
<!-- Node24 -->
<g id="Node000024" class="node">
<title>Node24</title>
<g id="a_Node000024"><a xlink:title=" ">
<polygon fill="#e0e0e0" stroke="#999999" points="574.5,-129 515.5,-129 515.5,-110 574.5,-110 574.5,-129"/>
<text text-anchor="middle" x="545" y="-117" font-family="Helvetica,sans-Serif" font-size="10.00">complex</text>
</a>
</g>
</g>
<!-- Node22&#45;&gt;Node24 -->
<g id="edge36_Node000022_Node000024" class="edge">
<title>Node22&#45;&gt;Node24</title>
<g id="a_edge36_Node000022_Node000024"><a xlink:title=" ">
<path fill="none" stroke="#63b8ff" d="M390.56,-164.98C421.72,-156.01 470.97,-141.82 505.46,-131.89"/>
<polygon fill="#63b8ff" stroke="#63b8ff" points="506.57,-135.21 515.21,-129.08 504.63,-128.49 506.57,-135.21"/>
</a>
</g>
</g>
<!-- Node29&#45;&gt;Node9 -->
<g id="edge46_Node000029_Node000009" class="edge">
<title>Node29&#45;&gt;Node9</title>
<g id="a_edge46_Node000029_Node000009"><a xlink:title=" ">
<path fill="none" stroke="#63b8ff" d="M809.9,-292.75C619.37,-285.96 0,-257.59 0,-175.5 0,-175.5 0,-175.5 0,-118.5 0,-57.23 197.41,-27.16 296.56,-15.92"/>
<polygon fill="#63b8ff" stroke="#63b8ff" points="297.15,-19.38 306.7,-14.8 296.38,-12.42 297.15,-19.38"/>
</a>
</g>
</g>
<!-- Node30 -->
<g id="Node000030" class="node">
<title>Node30</title>
<g id="a_Node000030"><a xlink:href="sitkPixelIDValues_8h.html" target="_top" xlink:title=" ">
<polygon fill="white" stroke="#666666" points="866,-244.5 756,-244.5 756,-225.5 866,-225.5 866,-244.5"/>
<text text-anchor="middle" x="811" y="-232.5" font-family="Helvetica,sans-Serif" font-size="10.00">sitkPixelIDValues.h</text>
</a>
</g>
</g>
<!-- Node29&#45;&gt;Node30 -->
<g id="edge47_Node000029_Node000030" class="edge">
<title>Node29&#45;&gt;Node30</title>
<g id="a_edge47_Node000029_Node000030"><a xlink:title=" ">
<path fill="none" stroke="#63b8ff" d="M857.03,-285.87C848.9,-277.05 836.07,-263.16 826.02,-252.27"/>
<polygon fill="#63b8ff" stroke="#63b8ff" points="828.36,-249.64 819,-244.67 823.21,-254.39 828.36,-249.64"/>
</a>
</g>
</g>
<!-- Node29&#45;&gt;Node32 -->
<g id="edge52_Node000029_Node000032" class="edge">
<title>Node29&#45;&gt;Node32</title>
<g id="a_edge52_Node000029_Node000032"><a xlink:title=" ">
<path fill="none" stroke="#63b8ff" d="M872.97,-285.87C881.1,-277.05 893.93,-263.16 903.98,-252.27"/>
<polygon fill="#63b8ff" stroke="#63b8ff" points="906.79,-254.39 911,-244.67 901.64,-249.64 906.79,-254.39"/>
</a>
</g>
</g>
<!-- Node30&#45;&gt;Node2 -->
<g id="edge48_Node000030_Node000002" class="edge">
<title>Node30&#45;&gt;Node2</title>
<g id="a_edge48_Node000030_Node000002"><a xlink:title=" ">
<path fill="none" stroke="#63b8ff" d="M825.06,-225.33C846.63,-212.08 889.26,-186.11 926,-165 944.72,-154.24 966.15,-142.5 982.26,-133.78"/>
<polygon fill="#63b8ff" stroke="#63b8ff" points="983.93,-136.85 991.07,-129.02 980.61,-130.69 983.93,-136.85"/>
</a>
</g>
</g>
<!-- Node30&#45;&gt;Node15 -->
<g id="edge51_Node000030_Node000015" class="edge">
<title>Node30&#45;&gt;Node15</title>
<g id="a_edge51_Node000030_Node000015"><a xlink:title=" ">
<path fill="none" stroke="#63b8ff" d="M847.79,-225.49C895.26,-214.52 977.45,-195.51 1025.66,-184.37"/>
<polygon fill="#63b8ff" stroke="#63b8ff" points="1026.45,-187.77 1035.41,-182.11 1024.88,-180.95 1026.45,-187.77"/>
</a>
</g>
</g>
<!-- Node30&#45;&gt;Node22 -->
<g id="edge49_Node000030_Node000022" class="edge">
<title>Node30&#45;&gt;Node22</title>
<g id="a_edge49_Node000030_Node000022"><a xlink:title=" ">
<path fill="none" stroke="#63b8ff" d="M755.82,-226.83C674.35,-216.24 521.87,-196.41 432.12,-184.75"/>
<polygon fill="#63b8ff" stroke="#63b8ff" points="432.39,-181.25 422.03,-183.43 431.49,-188.19 432.39,-181.25"/>
</a>
</g>
</g>
<!-- Node31 -->
<g id="Node000031" class="node">
<title>Node31</title>
<g id="a_Node000031"><a xlink:title=" ">
<polygon fill="#e0e0e0" stroke="#999999" points="979,-184 935,-184 935,-165 979,-165 979,-184"/>
<text text-anchor="middle" x="957" y="-172" font-family="Helvetica,sans-Serif" font-size="10.00">string</text>
</a>
</g>
</g>
<!-- Node30&#45;&gt;Node31 -->
<g id="edge50_Node000030_Node000031" class="edge">
<title>Node30&#45;&gt;Node31</title>
<g id="a_edge50_Node000030_Node000031"><a xlink:title=" ">
<path fill="none" stroke="#63b8ff" d="M832.23,-225.49C856.99,-215.57 898.12,-199.09 926.35,-187.78"/>
<polygon fill="#63b8ff" stroke="#63b8ff" points="927.76,-190.99 935.74,-184.02 925.16,-184.49 927.76,-190.99"/>
</a>
</g>
</g>
<!-- Node33&#45;&gt;Node2 -->
<g id="edge54_Node000033_Node000002" class="edge">
<title>Node33&#45;&gt;Node2</title>
<g id="a_edge54_Node000033_Node000002"><a xlink:title=" ">
<path fill="none" stroke="#63b8ff" d="M1112.17,-225.41C1113.6,-211.33 1114.38,-183.11 1101,-165 1089.59,-149.56 1071.45,-139.27 1054.13,-132.52"/>
<polygon fill="#63b8ff" stroke="#63b8ff" points="1055.24,-129.19 1044.64,-129.12 1052.88,-135.78 1055.24,-129.19"/>
</a>
</g>
</g>
<!-- Node33&#45;&gt;Node15 -->
<g id="edge55_Node000033_Node000015" class="edge">
<title>Node33&#45;&gt;Node15</title>
<g id="a_edge55_Node000033_Node000015"><a xlink:title=" ">
<path fill="none" stroke="#63b8ff" d="M1104.06,-225.37C1097.05,-216.64 1086.04,-202.93 1077.33,-192.09"/>
<polygon fill="#63b8ff" stroke="#63b8ff" points="1079.96,-189.77 1070.96,-184.17 1074.5,-194.16 1079.96,-189.77"/>
</a>
</g>
</g>
<!-- Node34&#45;&gt;Node18 -->
<g id="edge60_Node000034_Node000018" class="edge">
<title>Node34&#45;&gt;Node18</title>
<g id="a_edge60_Node000034_Node000018"><a xlink:title=" ">
<path fill="none" stroke="#63b8ff" d="M1184.21,-395.75C1180.24,-388.49 1174.47,-377.95 1169.57,-368.98"/>
<polygon fill="#63b8ff" stroke="#63b8ff" points="1172.57,-367.18 1164.7,-360.09 1166.43,-370.54 1172.57,-367.18"/>
</a>
</g>
</g>
</g>
</svg>
