<?xml version="1.0" encoding="UTF-8" standalone="no"?>
<!DOCTYPE svg PUBLIC "-//W3C//DTD SVG 1.1//EN"
 "http://www.w3.org/Graphics/SVG/1.1/DTD/svg11.dtd">
<!-- Generated by graphviz version 2.43.0 (0)
 -->
<!-- Title: sitkImageViewer.h Pages: 1 -->
<!--zoomable 543 -->
<svg id="main" version="1.1" xmlns="http://www.w3.org/2000/svg" xmlns:xlink="http://www.w3.org/1999/xlink" xml:space="preserve" onload="init(evt)">
<style type="text/css"><![CDATA[
.edge:hover path { stroke: red; }
.edge:hover polygon { stroke: red; fill: red; }
]]></style>
<script type="text/javascript"><![CDATA[
var edges = document.getElementsByTagName('g');
if (edges && edges.length) {
  for (var i=0;i<edges.length;i++) {
    if (edges[i].id.substr(0,4)=='edge') {
      edges[i].setAttribute('class','edge');
    }
  }
}
]]></script>
        <defs>
                <circle id="rim" cx="0" cy="0" r="7"/>
                <circle id="rim2" cx="0" cy="0" r="3.5"/>
                <g id="zoomPlus">
                        <use xlink:href="#rim" fill="#404040">
                                <set attributeName="fill" to="#808080" begin="zoomplus.mouseover" end="zoomplus.mouseout"/>
                        </use>
                        <path d="M-4,0h8M0,-4v8" fill="none" stroke="white" stroke-width="1.5" pointer-events="none"/>
                </g>
                <g id="zoomMin">
                        <use xlink:href="#rim" fill="#404040">
                                <set attributeName="fill" to="#808080" begin="zoomminus.mouseover" end="zoomminus.mouseout"/>
                        </use>
                        <path d="M-4,0h8" fill="none" stroke="white" stroke-width="1.5" pointer-events="none"/>
                </g>
                <g id="dirArrow">
                        <path fill="none" stroke="white" stroke-width="1.5" d="M0,-3.0v7 M-2.5,-0.5L0,-3.0L2.5,-0.5"/>
                </g>
               <g id="resetDef">
                       <use xlink:href="#rim2" fill="#404040">
                               <set attributeName="fill" to="#808080" begin="reset.mouseover" end="reset.mouseout"/>
                       </use>
               </g>
        </defs>

<script type="text/javascript">
var viewWidth = 1612;
var viewHeight = 543;
var sectionId = 'dynsection-0';
</script>
<script xlink:href="svgpan.js"/>
<svg id="graph" class="graph">
<g id="viewport">
<title>sitkImageViewer.h</title>
<polygon fill="white" stroke="transparent" points="-4,4 -4,-539 1608.28,-539 1608.28,4 -4,4"/>
<!-- Node1 -->
<g id="node1" class="node">
<title>Node1</title>
<g id="a_node1"><a xlink:title=" ">
<polygon fill="#bfbfbf" stroke="black" points="565.5,-515.5 565.5,-534.5 672.5,-534.5 672.5,-515.5 565.5,-515.5"/>
<text text-anchor="middle" x="619" y="-522.5" font-family="Helvetica,sans-Serif" font-size="10.00">sitkImageViewer.h</text>
</a>
</g>
</g>
<!-- Node2 -->
<g id="node2" class="node">
<title>Node2</title>
<g id="a_node2"><a xlink:href="sitkImage_8h.html" target="_top" xlink:title=" ">
<polygon fill="white" stroke="black" points="507,-347.5 507,-366.5 581,-366.5 581,-347.5 507,-347.5"/>
<text text-anchor="middle" x="544" y="-354.5" font-family="Helvetica,sans-Serif" font-size="10.00">sitkImage.h</text>
</a>
</g>
</g>
<!-- Node1&#45;&gt;Node2 -->
<g id="edge1" class="edge">
<title>Node1&#45;&gt;Node2</title>
<path fill="none" stroke="midnightblue" d="M630.38,-515.33C655.94,-494.8 713.51,-442.03 685,-403 663.73,-373.89 623.42,-363.17 591.33,-359.43"/>
<polygon fill="midnightblue" stroke="midnightblue" points="591.52,-355.93 581.23,-358.44 590.85,-362.9 591.52,-355.93"/>
</g>
<!-- Node33 -->
<g id="node33" class="node">
<title>Node33</title>
<g id="a_node33"><a xlink:href="sitkPathType_8h.html" target="_top" xlink:title=" ">
<polygon fill="white" stroke="black" points="996.5,-347.5 996.5,-366.5 1083.5,-366.5 1083.5,-347.5 996.5,-347.5"/>
<text text-anchor="middle" x="1040" y="-354.5" font-family="Helvetica,sans-Serif" font-size="10.00">sitkPathType.h</text>
</a>
</g>
</g>
<!-- Node1&#45;&gt;Node33 -->
<g id="edge53" class="edge">
<title>Node1&#45;&gt;Node33</title>
<path fill="none" stroke="midnightblue" d="M672.66,-518.64C747.04,-509.19 883.43,-484.36 982,-423 1001.59,-410.8 1018.43,-390.06 1028.84,-375.28"/>
<polygon fill="midnightblue" stroke="midnightblue" points="1032.02,-376.83 1034.72,-366.59 1026.22,-372.91 1032.02,-376.83"/>
</g>
<!-- Node34 -->
<g id="node34" class="node">
<title>Node34</title>
<g id="a_node34"><a xlink:href="sitkIO_8h.html" target="_top" xlink:title=" ">
<polygon fill="white" stroke="black" points="189,-459.5 189,-478.5 243,-478.5 243,-459.5 189,-459.5"/>
<text text-anchor="middle" x="216" y="-466.5" font-family="Helvetica,sans-Serif" font-size="10.00">sitkIO.h</text>
</a>
</g>
</g>
<!-- Node1&#45;&gt;Node34 -->
<g id="edge55" class="edge">
<title>Node1&#45;&gt;Node34</title>
<path fill="none" stroke="midnightblue" d="M565.48,-516.83C482.43,-505.7 324.61,-484.55 252.99,-474.96"/>
<polygon fill="midnightblue" stroke="midnightblue" points="253.45,-471.49 243.07,-473.63 252.52,-478.42 253.45,-471.49"/>
</g>
<!-- Node35 -->
<g id="node35" class="node">
<title>Node35</title>
<g id="a_node35"><a xlink:href="sitkProcessObject_8h.html" target="_top" xlink:title=" ">
<polygon fill="white" stroke="black" points="477.5,-459.5 477.5,-478.5 590.5,-478.5 590.5,-459.5 477.5,-459.5"/>
<text text-anchor="middle" x="534" y="-466.5" font-family="Helvetica,sans-Serif" font-size="10.00">sitkProcessObject.h</text>
</a>
</g>
</g>
<!-- Node1&#45;&gt;Node35 -->
<g id="edge57" class="edge">
<title>Node1&#45;&gt;Node35</title>
<path fill="none" stroke="midnightblue" d="M605.34,-515.32C592.08,-506.9 571.73,-493.97 556.15,-484.07"/>
<polygon fill="midnightblue" stroke="midnightblue" points="557.94,-481.06 547.62,-478.65 554.19,-486.97 557.94,-481.06"/>
</g>
<!-- Node3 -->
<g id="node3" class="node">
<title>Node3</title>
<g id="a_node3"><a xlink:href="sitkCommon_8h.html" target="_top" xlink:title=" ">
<polygon fill="white" stroke="black" points="519,-112.5 519,-131.5 607,-131.5 607,-112.5 519,-112.5"/>
<text text-anchor="middle" x="563" y="-119.5" font-family="Helvetica,sans-Serif" font-size="10.00">sitkCommon.h</text>
</a>
</g>
</g>
<!-- Node2&#45;&gt;Node3 -->
<g id="edge2" class="edge">
<title>Node2&#45;&gt;Node3</title>
<path fill="none" stroke="midnightblue" d="M544.7,-347.43C547.44,-313.75 557.54,-189.99 561.44,-142.1"/>
<polygon fill="midnightblue" stroke="midnightblue" points="564.95,-142.15 562.27,-131.9 557.97,-141.58 564.95,-142.15"/>
</g>
<!-- Node11 -->
<g id="node11" class="node">
<title>Node11</title>
<g id="a_node11"><a xlink:href="sitkTemplateFunctions_8h.html" target="_top" xlink:title=" ">
<polygon fill="white" stroke="black" points="262.5,-230 262.5,-249 397.5,-249 397.5,-230 262.5,-230"/>
<text text-anchor="middle" x="330" y="-237" font-family="Helvetica,sans-Serif" font-size="10.00">sitkTemplateFunctions.h</text>
</a>
</g>
</g>
<!-- Node2&#45;&gt;Node11 -->
<g id="edge10" class="edge">
<title>Node2&#45;&gt;Node11</title>
<path fill="none" stroke="midnightblue" d="M527.92,-347.32C490.88,-327.33 399.35,-277.93 354.95,-253.97"/>
<polygon fill="midnightblue" stroke="midnightblue" points="356.44,-250.79 345.98,-249.12 353.12,-256.95 356.44,-250.79"/>
</g>
<!-- Node13 -->
<g id="node13" class="node">
<title>Node13</title>
<g id="a_node13"><a xlink:title=" ">
<polygon fill="white" stroke="#bfbfbf" points="103,-112.5 103,-131.5 161,-131.5 161,-112.5 103,-112.5"/>
<text text-anchor="middle" x="132" y="-119.5" font-family="Helvetica,sans-Serif" font-size="10.00">memory</text>
</a>
</g>
</g>
<!-- Node2&#45;&gt;Node13 -->
<g id="edge51" class="edge">
<title>Node2&#45;&gt;Node13</title>
<path fill="none" stroke="midnightblue" d="M506.77,-349.41C401.34,-329.86 105.18,-268.48 57,-188 43.6,-165.62 72.29,-146.97 97.96,-135.48"/>
<polygon fill="midnightblue" stroke="midnightblue" points="99.35,-138.69 107.2,-131.57 96.63,-132.24 99.35,-138.69"/>
</g>
<!-- Node14 -->
<g id="node14" class="node">
<title>Node14</title>
<g id="a_node14"><a xlink:title=" ">
<polygon fill="white" stroke="#bfbfbf" points="66.5,-168.5 66.5,-187.5 113.5,-187.5 113.5,-168.5 66.5,-168.5"/>
<text text-anchor="middle" x="90" y="-175.5" font-family="Helvetica,sans-Serif" font-size="10.00">vector</text>
</a>
</g>
</g>
<!-- Node2&#45;&gt;Node14 -->
<g id="edge50" class="edge">
<title>Node2&#45;&gt;Node14</title>
<path fill="none" stroke="midnightblue" d="M516.37,-347.45C464.26,-331.1 348.15,-293.58 253,-255 203.7,-235.01 147.82,-207.97 115.96,-192.11"/>
<polygon fill="midnightblue" stroke="midnightblue" points="117.39,-188.91 106.88,-187.57 114.26,-195.17 117.39,-188.91"/>
</g>
<!-- Node17 -->
<g id="node17" class="node">
<title>Node17</title>
<g id="a_node17"><a xlink:href="sitkDetail_8h.html" target="_top" xlink:title=" ">
<polygon fill="white" stroke="black" points="866.5,-291.5 866.5,-310.5 939.5,-310.5 939.5,-291.5 866.5,-291.5"/>
<text text-anchor="middle" x="903" y="-298.5" font-family="Helvetica,sans-Serif" font-size="10.00">sitkDetail.h</text>
</a>
</g>
</g>
<!-- Node2&#45;&gt;Node17 -->
<g id="edge20" class="edge">
<title>Node2&#45;&gt;Node17</title>
<path fill="none" stroke="midnightblue" d="M581.19,-351.27C638.15,-343.89 750.6,-328.8 856.48,-311.01"/>
<polygon fill="midnightblue" stroke="midnightblue" points="857.1,-314.46 866.37,-309.34 855.93,-307.56 857.1,-314.46"/>
</g>
<!-- Node28 -->
<g id="node28" class="node">
<title>Node28</title>
<g id="a_node28"><a xlink:href="sitkPixelIDTokens_8h.html" target="_top" xlink:title=" ">
<polygon fill="white" stroke="black" points="738,-291.5 738,-310.5 848,-310.5 848,-291.5 738,-291.5"/>
<text text-anchor="middle" x="793" y="-298.5" font-family="Helvetica,sans-Serif" font-size="10.00">sitkPixelIDTokens.h</text>
</a>
</g>
</g>
<!-- Node2&#45;&gt;Node28 -->
<g id="edge39" class="edge">
<title>Node2&#45;&gt;Node28</title>
<path fill="none" stroke="midnightblue" d="M581.01,-347.97C624.26,-338.59 696.01,-323.03 743.89,-312.65"/>
<polygon fill="midnightblue" stroke="midnightblue" points="744.7,-316.06 753.73,-310.52 743.22,-309.22 744.7,-316.06"/>
</g>
<!-- Node31 -->
<g id="node31" class="node">
<title>Node31</title>
<g id="a_node31"><a xlink:title=" ">
<polygon fill="white" stroke="#bfbfbf" points="700.5,-230 700.5,-249 769.5,-249 769.5,-230 700.5,-230"/>
<text text-anchor="middle" x="735" y="-237" font-family="Helvetica,sans-Serif" font-size="10.00">type_traits</text>
</a>
</g>
</g>
<!-- Node2&#45;&gt;Node31 -->
<g id="edge52" class="edge">
<title>Node2&#45;&gt;Node31</title>
<path fill="none" stroke="midnightblue" d="M581.12,-351.03C611.68,-345.43 654.88,-333.94 686,-311 704.5,-297.36 718.5,-274.57 726.7,-258.6"/>
<polygon fill="midnightblue" stroke="midnightblue" points="730.01,-259.78 731.24,-249.26 723.72,-256.72 730.01,-259.78"/>
</g>
<!-- Node32 -->
<g id="node32" class="node">
<title>Node32</title>
<g id="a_node32"><a xlink:href="sitkInterpolator_8h.html" target="_top" xlink:title=" ">
<polygon fill="white" stroke="black" points="416,-230 416,-249 516,-249 516,-230 416,-230"/>
<text text-anchor="middle" x="466" y="-237" font-family="Helvetica,sans-Serif" font-size="10.00">sitkInterpolator.h</text>
</a>
</g>
</g>
<!-- Node2&#45;&gt;Node32 -->
<g id="edge47" class="edge">
<title>Node2&#45;&gt;Node32</title>
<path fill="none" stroke="midnightblue" d="M538.14,-347.32C525.32,-328.34 494.6,-282.85 477.68,-257.79"/>
<polygon fill="midnightblue" stroke="midnightblue" points="480.43,-255.61 471.93,-249.28 474.63,-259.53 480.43,-255.61"/>
</g>
<!-- Node4 -->
<g id="node4" class="node">
<title>Node4</title>
<g id="a_node4"><a xlink:href="sitkMacro_8h.html" target="_top" xlink:title=" ">
<polygon fill="white" stroke="black" points="526,-56.5 526,-75.5 600,-75.5 600,-56.5 526,-56.5"/>
<text text-anchor="middle" x="563" y="-63.5" font-family="Helvetica,sans-Serif" font-size="10.00">sitkMacro.h</text>
</a>
</g>
</g>
<!-- Node3&#45;&gt;Node4 -->
<g id="edge3" class="edge">
<title>Node3&#45;&gt;Node4</title>
<path fill="none" stroke="midnightblue" d="M563,-112.08C563,-105.01 563,-94.86 563,-85.99"/>
<polygon fill="midnightblue" stroke="midnightblue" points="566.5,-85.75 563,-75.75 559.5,-85.75 566.5,-85.75"/>
</g>
<!-- Node5 -->
<g id="node5" class="node">
<title>Node5</title>
<g id="a_node5"><a xlink:title=" ">
<polygon fill="white" stroke="#bfbfbf" points="1149.5,-0.5 1149.5,-19.5 1202.5,-19.5 1202.5,-0.5 1149.5,-0.5"/>
<text text-anchor="middle" x="1176" y="-7.5" font-family="Helvetica,sans-Serif" font-size="10.00">stdint.h</text>
</a>
</g>
</g>
<!-- Node4&#45;&gt;Node5 -->
<g id="edge4" class="edge">
<title>Node4&#45;&gt;Node5</title>
<path fill="none" stroke="midnightblue" d="M600.42,-61.7C710.11,-52.04 1029.92,-23.87 1139.03,-14.26"/>
<polygon fill="midnightblue" stroke="midnightblue" points="1139.56,-17.72 1149.21,-13.36 1138.94,-10.75 1139.56,-17.72"/>
</g>
<!-- Node6 -->
<g id="node6" class="node">
<title>Node6</title>
<g id="a_node6"><a xlink:title=" ">
<polygon fill="white" stroke="#bfbfbf" points="427,-0.5 427,-19.5 483,-19.5 483,-0.5 427,-0.5"/>
<text text-anchor="middle" x="455" y="-7.5" font-family="Helvetica,sans-Serif" font-size="10.00">stddef.h</text>
</a>
</g>
</g>
<!-- Node4&#45;&gt;Node6 -->
<g id="edge5" class="edge">
<title>Node4&#45;&gt;Node6</title>
<path fill="none" stroke="midnightblue" d="M545.65,-56.32C528.33,-47.66 501.48,-34.24 481.5,-24.25"/>
<polygon fill="midnightblue" stroke="midnightblue" points="482.82,-21 472.31,-19.65 479.69,-27.26 482.82,-21"/>
</g>
<!-- Node7 -->
<g id="node7" class="node">
<title>Node7</title>
<g id="a_node7"><a xlink:title=" ">
<polygon fill="white" stroke="#bfbfbf" points="501,-0.5 501,-19.5 553,-19.5 553,-0.5 501,-0.5"/>
<text text-anchor="middle" x="527" y="-7.5" font-family="Helvetica,sans-Serif" font-size="10.00">cassert</text>
</a>
</g>
</g>
<!-- Node4&#45;&gt;Node7 -->
<g id="edge6" class="edge">
<title>Node4&#45;&gt;Node7</title>
<path fill="none" stroke="midnightblue" d="M557.06,-56.08C552.02,-48.53 544.66,-37.49 538.49,-28.23"/>
<polygon fill="midnightblue" stroke="midnightblue" points="541.29,-26.13 532.83,-19.75 535.47,-30.01 541.29,-26.13"/>
</g>
<!-- Node8 -->
<g id="node8" class="node">
<title>Node8</title>
<g id="a_node8"><a xlink:title=" ">
<polygon fill="white" stroke="#bfbfbf" points="571,-0.5 571,-19.5 627,-19.5 627,-0.5 571,-0.5"/>
<text text-anchor="middle" x="599" y="-7.5" font-family="Helvetica,sans-Serif" font-size="10.00">sstream</text>
</a>
</g>
</g>
<!-- Node4&#45;&gt;Node8 -->
<g id="edge7" class="edge">
<title>Node4&#45;&gt;Node8</title>
<path fill="none" stroke="midnightblue" d="M568.94,-56.08C573.98,-48.53 581.34,-37.49 587.51,-28.23"/>
<polygon fill="midnightblue" stroke="midnightblue" points="590.53,-30.01 593.17,-19.75 584.71,-26.13 590.53,-30.01"/>
</g>
<!-- Node9 -->
<g id="node9" class="node">
<title>Node9</title>
<g id="a_node9"><a xlink:title=" ">
<polygon fill="white" stroke="#bfbfbf" points="645,-0.5 645,-19.5 689,-19.5 689,-0.5 645,-0.5"/>
<text text-anchor="middle" x="667" y="-7.5" font-family="Helvetica,sans-Serif" font-size="10.00">limits</text>
</a>
</g>
</g>
<!-- Node4&#45;&gt;Node9 -->
<g id="edge8" class="edge">
<title>Node4&#45;&gt;Node9</title>
<path fill="none" stroke="midnightblue" d="M579.71,-56.32C596.31,-47.7 622,-34.36 641.22,-24.39"/>
<polygon fill="midnightblue" stroke="midnightblue" points="643.07,-27.37 650.33,-19.65 639.84,-21.16 643.07,-27.37"/>
</g>
<!-- Node10 -->
<g id="node10" class="node">
<title>Node10</title>
<g id="a_node10"><a xlink:href="sitkConfigure_8h.html" target="_top" xlink:title=" ">
<polygon fill="white" stroke="black" points="1344,-0.5 1344,-19.5 1434,-19.5 1434,-0.5 1344,-0.5"/>
<text text-anchor="middle" x="1389" y="-7.5" font-family="Helvetica,sans-Serif" font-size="10.00">sitkConfigure.h</text>
</a>
</g>
</g>
<!-- Node4&#45;&gt;Node10 -->
<g id="edge9" class="edge">
<title>Node4&#45;&gt;Node10</title>
<path fill="none" stroke="midnightblue" d="M600.1,-62.57C731.66,-53.97 1176.47,-24.89 1333.52,-14.63"/>
<polygon fill="midnightblue" stroke="midnightblue" points="1334.14,-18.09 1343.89,-13.95 1333.68,-11.11 1334.14,-18.09"/>
</g>
<!-- Node11&#45;&gt;Node3 -->
<g id="edge12" class="edge">
<title>Node11&#45;&gt;Node3</title>
<path fill="none" stroke="midnightblue" d="M341.7,-229.77C361.26,-215.47 402.2,-186.74 440,-168 467.21,-154.5 499.52,-142.84 524.2,-134.77"/>
<polygon fill="midnightblue" stroke="midnightblue" points="525.48,-138.03 533.93,-131.64 523.33,-131.37 525.48,-138.03"/>
</g>
<!-- Node11&#45;&gt;Node4 -->
<g id="edge11" class="edge">
<title>Node11&#45;&gt;Node4</title>
<path fill="none" stroke="midnightblue" d="M337.88,-229.64C350.58,-215.63 376.72,-187.93 402,-168 447.05,-132.49 505.16,-98.63 537.81,-80.56"/>
<polygon fill="midnightblue" stroke="midnightblue" points="539.62,-83.56 546.7,-75.68 536.25,-77.42 539.62,-83.56"/>
</g>
<!-- Node12 -->
<g id="node12" class="node">
<title>Node12</title>
<g id="a_node12"><a xlink:href="sitkExceptionObject_8h.html" target="_top" xlink:title=" ">
<polygon fill="white" stroke="black" points="202.5,-168.5 202.5,-187.5 325.5,-187.5 325.5,-168.5 202.5,-168.5"/>
<text text-anchor="middle" x="264" y="-175.5" font-family="Helvetica,sans-Serif" font-size="10.00">sitkExceptionObject.h</text>
</a>
</g>
</g>
<!-- Node11&#45;&gt;Node12 -->
<g id="edge13" class="edge">
<title>Node11&#45;&gt;Node12</title>
<path fill="none" stroke="midnightblue" d="M320.54,-229.98C310.25,-220.7 293.58,-205.67 281.01,-194.33"/>
<polygon fill="midnightblue" stroke="midnightblue" points="283.21,-191.61 273.44,-187.51 278.52,-196.8 283.21,-191.61"/>
</g>
<!-- Node11&#45;&gt;Node14 -->
<g id="edge17" class="edge">
<title>Node11&#45;&gt;Node14</title>
<path fill="none" stroke="midnightblue" d="M293.08,-229.96C253.45,-220.7 188.42,-205.23 123.7,-188.38"/>
<polygon fill="midnightblue" stroke="midnightblue" points="124.3,-184.92 113.74,-185.78 122.53,-191.7 124.3,-184.92"/>
</g>
<!-- Node15 -->
<g id="node15" class="node">
<title>Node15</title>
<g id="a_node15"><a xlink:title=" ">
<polygon fill="white" stroke="#bfbfbf" points="458.5,-168.5 458.5,-187.5 515.5,-187.5 515.5,-168.5 458.5,-168.5"/>
<text text-anchor="middle" x="487" y="-175.5" font-family="Helvetica,sans-Serif" font-size="10.00">ostream</text>
</a>
</g>
</g>
<!-- Node11&#45;&gt;Node15 -->
<g id="edge18" class="edge">
<title>Node11&#45;&gt;Node15</title>
<path fill="none" stroke="midnightblue" d="M352.49,-229.98C379.31,-219.81 424.32,-202.76 454.81,-191.2"/>
<polygon fill="midnightblue" stroke="midnightblue" points="456.44,-194.33 464.55,-187.51 453.96,-187.78 456.44,-194.33"/>
</g>
<!-- Node16 -->
<g id="node16" class="node">
<title>Node16</title>
<g id="a_node16"><a xlink:title=" ">
<polygon fill="white" stroke="#bfbfbf" points="131.5,-168.5 131.5,-187.5 184.5,-187.5 184.5,-168.5 131.5,-168.5"/>
<text text-anchor="middle" x="158" y="-175.5" font-family="Helvetica,sans-Serif" font-size="10.00">iterator</text>
</a>
</g>
</g>
<!-- Node11&#45;&gt;Node16 -->
<g id="edge19" class="edge">
<title>Node11&#45;&gt;Node16</title>
<path fill="none" stroke="midnightblue" d="M305.36,-229.98C275.72,-219.72 225.82,-202.46 192.4,-190.9"/>
<polygon fill="midnightblue" stroke="midnightblue" points="193.19,-187.47 182.6,-187.51 190.9,-194.09 193.19,-187.47"/>
</g>
<!-- Node12&#45;&gt;Node3 -->
<g id="edge15" class="edge">
<title>Node12&#45;&gt;Node3</title>
<path fill="none" stroke="midnightblue" d="M311.38,-168.44C365.01,-158.76 452.24,-143 508.62,-132.82"/>
<polygon fill="midnightblue" stroke="midnightblue" points="509.55,-136.21 518.77,-130.99 508.31,-129.32 509.55,-136.21"/>
</g>
<!-- Node12&#45;&gt;Node4 -->
<g id="edge14" class="edge">
<title>Node12&#45;&gt;Node4</title>
<path fill="none" stroke="midnightblue" d="M271.43,-168.25C284,-154.05 310.97,-126.14 340,-112 396.45,-84.5 468.78,-73.8 515.51,-69.64"/>
<polygon fill="midnightblue" stroke="midnightblue" points="515.97,-73.12 525.65,-68.81 515.4,-66.14 515.97,-73.12"/>
</g>
<!-- Node12&#45;&gt;Node13 -->
<g id="edge16" class="edge">
<title>Node12&#45;&gt;Node13</title>
<path fill="none" stroke="midnightblue" d="M243.08,-168.44C221.26,-159.52 186.85,-145.44 162.11,-135.32"/>
<polygon fill="midnightblue" stroke="midnightblue" points="163.4,-132.06 152.82,-131.52 160.75,-138.54 163.4,-132.06"/>
</g>
<!-- Node18 -->
<g id="node18" class="node">
<title>Node18</title>
<g id="a_node18"><a xlink:href="sitkMemberFunctionFactoryBase_8h.html" target="_top" xlink:title=" ">
<polygon fill="white" stroke="black" points="1040,-224.5 1040,-254.5 1192,-254.5 1192,-224.5 1040,-224.5"/>
<text text-anchor="start" x="1048" y="-242.5" font-family="Helvetica,sans-Serif" font-size="10.00">sitkMemberFunctionFactory</text>
<text text-anchor="middle" x="1116" y="-231.5" font-family="Helvetica,sans-Serif" font-size="10.00">Base.h</text>
</a>
</g>
</g>
<!-- Node17&#45;&gt;Node18 -->
<g id="edge21" class="edge">
<title>Node17&#45;&gt;Node18</title>
<path fill="none" stroke="midnightblue" d="M933.52,-291.48C965.4,-282.57 1016.23,-268.37 1056.16,-257.22"/>
<polygon fill="midnightblue" stroke="midnightblue" points="1057.11,-260.58 1065.8,-254.52 1055.23,-253.84 1057.11,-260.58"/>
</g>
<!-- Node24 -->
<g id="node24" class="node">
<title>Node24</title>
<g id="a_node24"><a xlink:title=" ">
<polygon fill="white" stroke="#bfbfbf" points="837.5,-168.5 837.5,-187.5 976.5,-187.5 976.5,-168.5 837.5,-168.5"/>
<text text-anchor="middle" x="907" y="-175.5" font-family="Helvetica,sans-Serif" font-size="10.00">Ancillary/FunctionTraits.h</text>
</a>
</g>
</g>
<!-- Node17&#45;&gt;Node24 -->
<g id="edge38" class="edge">
<title>Node17&#45;&gt;Node24</title>
<path fill="none" stroke="midnightblue" d="M903.99,-291.39C904.98,-282.34 906.44,-267.69 907,-255 907.86,-235.67 907.73,-213.55 907.47,-198.18"/>
<polygon fill="midnightblue" stroke="midnightblue" points="910.96,-197.82 907.26,-187.9 903.96,-197.97 910.96,-197.82"/>
</g>
<!-- Node18&#45;&gt;Node4 -->
<g id="edge30" class="edge">
<title>Node18&#45;&gt;Node4</title>
<path fill="none" stroke="midnightblue" d="M1182.31,-224.39C1222.32,-212.87 1261.57,-194.2 1239,-168 1197.73,-120.1 756.61,-81.95 610.04,-70.52"/>
<polygon fill="midnightblue" stroke="midnightblue" points="610.25,-67.02 600.01,-69.74 609.71,-74 610.25,-67.02"/>
</g>
<!-- Node18&#45;&gt;Node10 -->
<g id="edge22" class="edge">
<title>Node18&#45;&gt;Node10</title>
<path fill="none" stroke="midnightblue" d="M1192.08,-226.05C1196.79,-225.34 1201.46,-224.65 1206,-224 1333.7,-205.74 1372.74,-232.01 1494,-188 1537.23,-172.31 1558.98,-172.37 1581,-132 1614.03,-71.47 1512.16,-37.15 1444.4,-21.49"/>
<polygon fill="midnightblue" stroke="midnightblue" points="1444.78,-17.99 1434.26,-19.23 1443.26,-24.82 1444.78,-17.99"/>
</g>
<!-- Node19 -->
<g id="node19" class="node">
<title>Node19</title>
<g id="a_node19"><a xlink:href="sitkPixelIDTypes_8h.html" target="_top" xlink:title=" ">
<polygon fill="white" stroke="black" points="1329.5,-112.5 1329.5,-131.5 1434.5,-131.5 1434.5,-112.5 1329.5,-112.5"/>
<text text-anchor="middle" x="1382" y="-119.5" font-family="Helvetica,sans-Serif" font-size="10.00">sitkPixelIDTypes.h</text>
</a>
</g>
</g>
<!-- Node18&#45;&gt;Node19 -->
<g id="edge23" class="edge">
<title>Node18&#45;&gt;Node19</title>
<path fill="none" stroke="midnightblue" d="M1192.09,-226.15C1196.8,-225.42 1201.46,-224.69 1206,-224 1261.27,-215.55 1418.4,-230.27 1455,-188 1472.39,-167.92 1441.21,-148.09 1414.37,-135.72"/>
<polygon fill="midnightblue" stroke="midnightblue" points="1415.7,-132.48 1405.14,-131.66 1412.89,-138.89 1415.7,-132.48"/>
</g>
<!-- Node20 -->
<g id="node20" class="node">
<title>Node20</title>
<g id="a_node20"><a xlink:href="sitkPixelIDTypeLists_8h.html" target="_top" xlink:title=" ">
<polygon fill="white" stroke="black" points="1324,-168.5 1324,-187.5 1446,-187.5 1446,-168.5 1324,-168.5"/>
<text text-anchor="middle" x="1385" y="-175.5" font-family="Helvetica,sans-Serif" font-size="10.00">sitkPixelIDTypeLists.h</text>
</a>
</g>
</g>
<!-- Node18&#45;&gt;Node20 -->
<g id="edge24" class="edge">
<title>Node18&#45;&gt;Node20</title>
<path fill="none" stroke="midnightblue" d="M1179.41,-224.47C1227.54,-213.83 1292.71,-199.41 1336.67,-189.69"/>
<polygon fill="midnightblue" stroke="midnightblue" points="1337.53,-193.08 1346.54,-187.51 1336.02,-186.25 1337.53,-193.08"/>
</g>
<!-- Node21 -->
<g id="node21" class="node">
<title>Node21</title>
<g id="a_node21"><a xlink:title=" ">
<polygon fill="white" stroke="#bfbfbf" points="1452.5,-112.5 1452.5,-131.5 1571.5,-131.5 1571.5,-112.5 1452.5,-112.5"/>
<text text-anchor="middle" x="1512" y="-119.5" font-family="Helvetica,sans-Serif" font-size="10.00">Ancillary/type_list2.h</text>
</a>
</g>
</g>
<!-- Node18&#45;&gt;Node21 -->
<g id="edge33" class="edge">
<title>Node18&#45;&gt;Node21</title>
<path fill="none" stroke="midnightblue" d="M1192.09,-226.11C1196.79,-225.38 1201.46,-224.67 1206,-224 1323.57,-206.55 1371.03,-252.29 1471,-188 1487.96,-177.09 1499.18,-156.41 1505.53,-141.3"/>
<polygon fill="midnightblue" stroke="midnightblue" points="1508.82,-142.5 1509.16,-131.91 1502.29,-139.98 1508.82,-142.5"/>
</g>
<!-- Node23 -->
<g id="node23" class="node">
<title>Node23</title>
<g id="a_node23"><a xlink:href="sitkNonCopyable_8h.html" target="_top" xlink:title=" ">
<polygon fill="white" stroke="black" points="710.5,-168.5 710.5,-187.5 819.5,-187.5 819.5,-168.5 710.5,-168.5"/>
<text text-anchor="middle" x="765" y="-175.5" font-family="Helvetica,sans-Serif" font-size="10.00">sitkNonCopyable.h</text>
</a>
</g>
</g>
<!-- Node18&#45;&gt;Node23 -->
<g id="edge31" class="edge">
<title>Node18&#45;&gt;Node23</title>
<path fill="none" stroke="midnightblue" d="M1039.84,-225.59C975.51,-214.68 884.64,-199.28 825.27,-189.22"/>
<polygon fill="midnightblue" stroke="midnightblue" points="825.74,-185.75 815.3,-187.53 824.57,-192.65 825.74,-185.75"/>
</g>
<!-- Node18&#45;&gt;Node24 -->
<g id="edge34" class="edge">
<title>Node18&#45;&gt;Node24</title>
<path fill="none" stroke="midnightblue" d="M1066.73,-224.47C1030.05,-214.03 980.62,-199.96 946.51,-190.25"/>
<polygon fill="midnightblue" stroke="midnightblue" points="947.46,-186.88 936.88,-187.51 945.54,-193.61 947.46,-186.88"/>
</g>
<!-- Node25 -->
<g id="node25" class="node">
<title>Node25</title>
<g id="a_node25"><a xlink:title=" ">
<polygon fill="white" stroke="#bfbfbf" points="994.5,-168.5 994.5,-187.5 1087.5,-187.5 1087.5,-168.5 994.5,-168.5"/>
<text text-anchor="middle" x="1041" y="-175.5" font-family="Helvetica,sans-Serif" font-size="10.00">unordered_map</text>
</a>
</g>
</g>
<!-- Node18&#45;&gt;Node25 -->
<g id="edge35" class="edge">
<title>Node18&#45;&gt;Node25</title>
<path fill="none" stroke="midnightblue" d="M1098.23,-224.4C1086.65,-215.22 1071.58,-203.26 1059.8,-193.92"/>
<polygon fill="midnightblue" stroke="midnightblue" points="1061.92,-191.13 1051.91,-187.66 1057.57,-196.61 1061.92,-191.13"/>
</g>
<!-- Node26 -->
<g id="node26" class="node">
<title>Node26</title>
<g id="a_node26"><a xlink:title=" ">
<polygon fill="white" stroke="#bfbfbf" points="1105.5,-168.5 1105.5,-187.5 1170.5,-187.5 1170.5,-168.5 1105.5,-168.5"/>
<text text-anchor="middle" x="1138" y="-175.5" font-family="Helvetica,sans-Serif" font-size="10.00">functional</text>
</a>
</g>
</g>
<!-- Node18&#45;&gt;Node26 -->
<g id="edge36" class="edge">
<title>Node18&#45;&gt;Node26</title>
<path fill="none" stroke="midnightblue" d="M1121.21,-224.4C1124.21,-216.29 1128.01,-206.01 1131.24,-197.28"/>
<polygon fill="midnightblue" stroke="midnightblue" points="1134.61,-198.25 1134.8,-187.66 1128.05,-195.82 1134.61,-198.25"/>
</g>
<!-- Node27 -->
<g id="node27" class="node">
<title>Node27</title>
<g id="a_node27"><a xlink:title=" ">
<polygon fill="white" stroke="#bfbfbf" points="1188.5,-168.5 1188.5,-187.5 1229.5,-187.5 1229.5,-168.5 1188.5,-168.5"/>
<text text-anchor="middle" x="1209" y="-175.5" font-family="Helvetica,sans-Serif" font-size="10.00">tuple</text>
</a>
</g>
</g>
<!-- Node18&#45;&gt;Node27 -->
<g id="edge37" class="edge">
<title>Node18&#45;&gt;Node27</title>
<path fill="none" stroke="midnightblue" d="M1138.04,-224.4C1152.81,-214.95 1172.18,-202.56 1186.95,-193.11"/>
<polygon fill="midnightblue" stroke="midnightblue" points="1188.93,-196 1195.47,-187.66 1185.16,-190.1 1188.93,-196"/>
</g>
<!-- Node20&#45;&gt;Node5 -->
<g id="edge25" class="edge">
<title>Node20&#45;&gt;Node5</title>
<path fill="none" stroke="midnightblue" d="M1369.87,-168.34C1355.18,-159.72 1332.46,-145.81 1314,-132 1267.5,-97.2 1217.26,-50.62 1192.17,-26.67"/>
<polygon fill="midnightblue" stroke="midnightblue" points="1194.59,-24.14 1184.95,-19.73 1189.74,-29.18 1194.59,-24.14"/>
</g>
<!-- Node20&#45;&gt;Node10 -->
<g id="edge26" class="edge">
<title>Node20&#45;&gt;Node10</title>
<path fill="none" stroke="midnightblue" d="M1363.52,-168.36C1348.61,-161.09 1329.89,-149.12 1321,-132 1316.9,-124.11 1318.4,-120.5 1321,-112 1331.28,-78.34 1356.95,-45.74 1373.65,-27.06"/>
<polygon fill="midnightblue" stroke="midnightblue" points="1376.4,-29.23 1380.6,-19.5 1371.25,-24.49 1376.4,-29.23"/>
</g>
<!-- Node20&#45;&gt;Node19 -->
<g id="edge27" class="edge">
<title>Node20&#45;&gt;Node19</title>
<path fill="none" stroke="midnightblue" d="M1384.5,-168.08C1384.11,-161.01 1383.55,-150.86 1383.05,-141.99"/>
<polygon fill="midnightblue" stroke="midnightblue" points="1386.54,-141.54 1382.49,-131.75 1379.55,-141.93 1386.54,-141.54"/>
</g>
<!-- Node20&#45;&gt;Node21 -->
<g id="edge28" class="edge">
<title>Node20&#45;&gt;Node21</title>
<path fill="none" stroke="midnightblue" d="M1405.12,-168.44C1426.02,-159.56 1458.93,-145.56 1482.72,-135.45"/>
<polygon fill="midnightblue" stroke="midnightblue" points="1484.14,-138.65 1491.97,-131.52 1481.4,-132.21 1484.14,-138.65"/>
</g>
<!-- Node22 -->
<g id="node22" class="node">
<title>Node22</title>
<g id="a_node22"><a xlink:title=" ">
<polygon fill="white" stroke="#bfbfbf" points="1175.5,-112.5 1175.5,-131.5 1234.5,-131.5 1234.5,-112.5 1175.5,-112.5"/>
<text text-anchor="middle" x="1205" y="-119.5" font-family="Helvetica,sans-Serif" font-size="10.00">complex</text>
</a>
</g>
</g>
<!-- Node20&#45;&gt;Node22 -->
<g id="edge29" class="edge">
<title>Node20&#45;&gt;Node22</title>
<path fill="none" stroke="midnightblue" d="M1356.48,-168.44C1325.93,-159.28 1277.29,-144.69 1243.4,-134.52"/>
<polygon fill="midnightblue" stroke="midnightblue" points="1243.97,-131.04 1233.39,-131.52 1241.96,-137.74 1243.97,-131.04"/>
</g>
<!-- Node23&#45;&gt;Node3 -->
<g id="edge32" class="edge">
<title>Node23&#45;&gt;Node3</title>
<path fill="none" stroke="midnightblue" d="M732.99,-168.44C698.27,-159.16 642.71,-144.31 604.62,-134.13"/>
<polygon fill="midnightblue" stroke="midnightblue" points="605.42,-130.72 594.86,-131.52 603.61,-137.48 605.42,-130.72"/>
</g>
<!-- Node28&#45;&gt;Node10 -->
<g id="edge40" class="edge">
<title>Node28&#45;&gt;Node10</title>
<path fill="none" stroke="midnightblue" d="M848.3,-292.22C851.58,-291.79 854.83,-291.39 858,-291 1159.69,-254.29 1261.5,-322.56 1534,-188 1567.89,-171.26 1582.38,-166.42 1598,-132 1612.81,-99.36 1598.83,-78.59 1571,-56 1535.28,-27 1483.51,-16.3 1444.31,-12.54"/>
<polygon fill="midnightblue" stroke="midnightblue" points="1444.38,-9.04 1434.12,-11.69 1443.8,-16.01 1444.38,-9.04"/>
</g>
<!-- Node29 -->
<g id="node29" class="node">
<title>Node29</title>
<g id="a_node29"><a xlink:href="sitkPixelIDValues_8h.html" target="_top" xlink:title=" ">
<polygon fill="white" stroke="black" points="788,-230 788,-249 898,-249 898,-230 788,-230"/>
<text text-anchor="middle" x="843" y="-237" font-family="Helvetica,sans-Serif" font-size="10.00">sitkPixelIDValues.h</text>
</a>
</g>
</g>
<!-- Node28&#45;&gt;Node29 -->
<g id="edge41" class="edge">
<title>Node28&#45;&gt;Node29</title>
<path fill="none" stroke="midnightblue" d="M800.16,-291.48C807.74,-282.46 819.87,-268.02 829.29,-256.81"/>
<polygon fill="midnightblue" stroke="midnightblue" points="832.1,-258.92 835.85,-249.01 826.74,-254.41 832.1,-258.92"/>
</g>
<!-- Node28&#45;&gt;Node31 -->
<g id="edge46" class="edge">
<title>Node28&#45;&gt;Node31</title>
<path fill="none" stroke="midnightblue" d="M784.69,-291.48C775.82,-282.37 761.55,-267.74 750.58,-256.48"/>
<polygon fill="midnightblue" stroke="midnightblue" points="752.78,-253.73 743.29,-249.01 747.77,-258.61 752.78,-253.73"/>
</g>
<!-- Node29&#45;&gt;Node3 -->
<g id="edge42" class="edge">
<title>Node29&#45;&gt;Node3</title>
<path fill="none" stroke="midnightblue" d="M806.36,-229.89C749.7,-216.51 646.5,-191.86 639,-188 614.77,-175.54 591.69,-153.93 577.45,-139.07"/>
<polygon fill="midnightblue" stroke="midnightblue" points="579.88,-136.54 570.5,-131.61 574.76,-141.31 579.88,-136.54"/>
</g>
<!-- Node29&#45;&gt;Node15 -->
<g id="edge45" class="edge">
<title>Node29&#45;&gt;Node15</title>
<path fill="none" stroke="midnightblue" d="M807.21,-229.93C798.04,-227.86 788.18,-225.74 779,-224 688.82,-206.86 582.02,-191.69 525.91,-184.11"/>
<polygon fill="midnightblue" stroke="midnightblue" points="526.09,-180.61 515.71,-182.75 525.16,-187.55 526.09,-180.61"/>
</g>
<!-- Node29&#45;&gt;Node20 -->
<g id="edge43" class="edge">
<title>Node29&#45;&gt;Node20</title>
<path fill="none" stroke="midnightblue" d="M898.2,-232.44C997.11,-221.58 1204.38,-198.83 1313.82,-186.81"/>
<polygon fill="midnightblue" stroke="midnightblue" points="1314.22,-190.29 1323.77,-185.72 1313.45,-183.33 1314.22,-190.29"/>
</g>
<!-- Node30 -->
<g id="node30" class="node">
<title>Node30</title>
<g id="a_node30"><a xlink:title=" ">
<polygon fill="white" stroke="#bfbfbf" points="648,-168.5 648,-187.5 692,-187.5 692,-168.5 648,-168.5"/>
<text text-anchor="middle" x="670" y="-175.5" font-family="Helvetica,sans-Serif" font-size="10.00">string</text>
</a>
</g>
</g>
<!-- Node29&#45;&gt;Node30 -->
<g id="edge44" class="edge">
<title>Node29&#45;&gt;Node30</title>
<path fill="none" stroke="midnightblue" d="M818.21,-229.98C787.56,-219.43 735.34,-201.47 701.77,-189.93"/>
<polygon fill="midnightblue" stroke="midnightblue" points="702.6,-186.51 692,-186.57 700.32,-193.13 702.6,-186.51"/>
</g>
<!-- Node32&#45;&gt;Node3 -->
<g id="edge48" class="edge">
<title>Node32&#45;&gt;Node3</title>
<path fill="none" stroke="midnightblue" d="M459.93,-229.91C450.77,-215.81 435.83,-187.36 449,-168 462.61,-148 486.61,-136.89 509.09,-130.72"/>
<polygon fill="midnightblue" stroke="midnightblue" points="510.06,-134.08 518.93,-128.29 508.38,-127.29 510.06,-134.08"/>
</g>
<!-- Node32&#45;&gt;Node15 -->
<g id="edge49" class="edge">
<title>Node32&#45;&gt;Node15</title>
<path fill="none" stroke="midnightblue" d="M469.01,-229.98C472.03,-221.4 476.79,-207.93 480.65,-196.98"/>
<polygon fill="midnightblue" stroke="midnightblue" points="483.97,-198.1 484,-187.51 477.37,-195.77 483.97,-198.1"/>
</g>
<!-- Node33&#45;&gt;Node30 -->
<g id="edge54" class="edge">
<title>Node33&#45;&gt;Node30</title>
<path fill="none" stroke="midnightblue" d="M1034.3,-347.45C1017.82,-323.46 967.38,-255.26 907,-224 827.66,-182.92 794.48,-206.78 702.32,-187.77"/>
<polygon fill="midnightblue" stroke="midnightblue" points="702.82,-184.29 692.31,-185.58 701.33,-191.13 702.82,-184.29"/>
</g>
<!-- Node34&#45;&gt;Node4 -->
<g id="edge56" class="edge">
<title>Node34&#45;&gt;Node4</title>
<path fill="none" stroke="midnightblue" d="M188.64,-466.52C130.52,-461.76 0,-441.74 0,-358 0,-358 0,-358 0,-177 0,-72.29 379.83,-65.38 515.53,-66.25"/>
<polygon fill="midnightblue" stroke="midnightblue" points="515.6,-69.75 525.62,-66.34 515.65,-62.75 515.6,-69.75"/>
</g>
<!-- Node35&#45;&gt;Node2 -->
<g id="edge64" class="edge">
<title>Node35&#45;&gt;Node2</title>
<path fill="none" stroke="midnightblue" d="M534.78,-459.37C536.4,-441.62 540.12,-400.67 542.31,-376.6"/>
<polygon fill="midnightblue" stroke="midnightblue" points="545.8,-376.87 543.22,-366.59 538.83,-376.23 545.8,-376.87"/>
</g>
<!-- Node35&#45;&gt;Node3 -->
<g id="edge58" class="edge">
<title>Node35&#45;&gt;Node3</title>
<path fill="none" stroke="midnightblue" d="M568.82,-459.43C603.12,-450.83 656.92,-436.89 703,-423 814.82,-389.29 1110.93,-329.35 1201,-255 1233.54,-228.14 1267.83,-198.81 1239,-168 1196.87,-122.98 770.24,-121.52 617.24,-122.46"/>
<polygon fill="midnightblue" stroke="midnightblue" points="617.11,-118.97 607.14,-122.53 617.16,-125.97 617.11,-118.97"/>
</g>
<!-- Node35&#45;&gt;Node11 -->
<g id="edge60" class="edge">
<title>Node35&#45;&gt;Node11</title>
<path fill="none" stroke="midnightblue" d="M477.08,-460.8C430.7,-453.71 370.29,-441.27 354,-423 312.73,-376.73 320.23,-295.78 326.28,-259.28"/>
<polygon fill="midnightblue" stroke="midnightblue" points="329.79,-259.56 328.13,-249.1 322.9,-258.31 329.79,-259.56"/>
</g>
<!-- Node35&#45;&gt;Node23 -->
<g id="edge59" class="edge">
<title>Node35&#45;&gt;Node23</title>
<path fill="none" stroke="midnightblue" d="M477.47,-463.61C427.06,-457.16 364.44,-441.37 387,-403 455.57,-286.38 540.56,-330.23 653,-255 671.4,-242.69 673.88,-236.72 692,-224 707.89,-212.84 726.54,-201.37 741.01,-192.81"/>
<polygon fill="midnightblue" stroke="midnightblue" points="742.99,-195.7 749.85,-187.63 739.45,-189.67 742.99,-195.7"/>
</g>
<!-- Node36 -->
<g id="node36" class="node">
<title>Node36</title>
<g id="a_node36"><a xlink:href="sitkEvent_8h.html" target="_top" xlink:title=" ">
<polygon fill="white" stroke="black" points="572.5,-230 572.5,-249 643.5,-249 643.5,-230 572.5,-230"/>
<text text-anchor="middle" x="608" y="-237" font-family="Helvetica,sans-Serif" font-size="10.00">sitkEvent.h</text>
</a>
</g>
</g>
<!-- Node35&#45;&gt;Node36 -->
<g id="edge61" class="edge">
<title>Node35&#45;&gt;Node36</title>
<path fill="none" stroke="midnightblue" d="M590.77,-466.93C623.95,-463.01 663.42,-451.95 685,-423 725.53,-368.63 657.93,-289.74 624.74,-256.36"/>
<polygon fill="midnightblue" stroke="midnightblue" points="627.08,-253.75 617.49,-249.25 622.18,-258.75 627.08,-253.75"/>
</g>
<!-- Node37 -->
<g id="node37" class="node">
<title>Node37</title>
<g id="a_node37"><a xlink:href="sitkImageConvert_8h.html" target="_top" xlink:title=" ">
<polygon fill="white" stroke="black" points="562.5,-403.5 562.5,-422.5 675.5,-422.5 675.5,-403.5 562.5,-403.5"/>
<text text-anchor="middle" x="619" y="-410.5" font-family="Helvetica,sans-Serif" font-size="10.00">sitkImageConvert.h</text>
</a>
</g>
</g>
<!-- Node35&#45;&gt;Node37 -->
<g id="edge65" class="edge">
<title>Node35&#45;&gt;Node37</title>
<path fill="none" stroke="midnightblue" d="M547.66,-459.32C560.92,-450.9 581.27,-437.97 596.85,-428.07"/>
<polygon fill="midnightblue" stroke="midnightblue" points="598.81,-430.97 605.38,-422.65 595.06,-425.06 598.81,-430.97"/>
</g>
<!-- Node38 -->
<g id="node38" class="node">
<title>Node38</title>
<g id="a_node38"><a xlink:title=" ">
<polygon fill="white" stroke="#bfbfbf" points="396,-403.5 396,-422.5 456,-422.5 456,-403.5 396,-403.5"/>
<text text-anchor="middle" x="426" y="-410.5" font-family="Helvetica,sans-Serif" font-size="10.00">iostream</text>
</a>
</g>
</g>
<!-- Node35&#45;&gt;Node38 -->
<g id="edge67" class="edge">
<title>Node35&#45;&gt;Node38</title>
<path fill="none" stroke="midnightblue" d="M516.65,-459.32C499.33,-450.66 472.48,-437.24 452.5,-427.25"/>
<polygon fill="midnightblue" stroke="midnightblue" points="453.82,-424 443.31,-422.65 450.69,-430.26 453.82,-424"/>
</g>
<!-- Node39 -->
<g id="node39" class="node">
<title>Node39</title>
<g id="a_node39"><a xlink:title=" ">
<polygon fill="white" stroke="#bfbfbf" points="474,-403.5 474,-422.5 506,-422.5 506,-403.5 474,-403.5"/>
<text text-anchor="middle" x="490" y="-410.5" font-family="Helvetica,sans-Serif" font-size="10.00">list</text>
</a>
</g>
</g>
<!-- Node35&#45;&gt;Node39 -->
<g id="edge68" class="edge">
<title>Node35&#45;&gt;Node39</title>
<path fill="none" stroke="midnightblue" d="M526.73,-459.08C520.46,-451.38 511.21,-440.03 503.57,-430.65"/>
<polygon fill="midnightblue" stroke="midnightblue" points="506.16,-428.29 497.13,-422.75 500.73,-432.71 506.16,-428.29"/>
</g>
<!-- Node36&#45;&gt;Node3 -->
<g id="edge62" class="edge">
<title>Node36&#45;&gt;Node3</title>
<path fill="none" stroke="midnightblue" d="M604.62,-229.82C597.32,-211.09 579.97,-166.55 570.13,-141.29"/>
<polygon fill="midnightblue" stroke="midnightblue" points="573.31,-139.83 566.42,-131.78 566.79,-142.37 573.31,-139.83"/>
</g>
<!-- Node36&#45;&gt;Node15 -->
<g id="edge63" class="edge">
<title>Node36&#45;&gt;Node15</title>
<path fill="none" stroke="midnightblue" d="M590.66,-229.98C570.45,-220.03 536.81,-203.49 513.36,-191.96"/>
<polygon fill="midnightblue" stroke="midnightblue" points="514.82,-188.78 504.3,-187.51 511.73,-195.06 514.82,-188.78"/>
</g>
<!-- Node37&#45;&gt;Node2 -->
<g id="edge66" class="edge">
<title>Node37&#45;&gt;Node2</title>
<path fill="none" stroke="midnightblue" d="M606.95,-403.32C595.54,-395.11 578.17,-382.6 564.57,-372.81"/>
<polygon fill="midnightblue" stroke="midnightblue" points="566.43,-369.84 556.27,-366.83 562.34,-375.52 566.43,-369.84"/>
</g>
</g>
</svg>
        <g id="navigator" transform="translate(0 0)" fill="#404254">
                <rect fill="#f2f5e9" fill-opacity="0.5" stroke="#606060" stroke-width=".5" x="0" y="0" width="60" height="60"/>
                <use id="zoomplus" xlink:href="#zoomPlus" x="17" y="9" onmousedown="handleZoom(evt,'in')"/>
                <use id="zoomminus" xlink:href="#zoomMin" x="42" y="9" onmousedown="handleZoom(evt,'out')"/>
                <use id="reset" xlink:href="#resetDef" x="30" y="36" onmousedown="handleReset()"/>
                <g id="arrowUp" xlink:href="#dirArrow" transform="translate(30 24)" onmousedown="handlePan(0,-1)">
                  <use xlink:href="#rim" fill="#404040">
                        <set attributeName="fill" to="#808080" begin="arrowUp.mouseover" end="arrowUp.mouseout"/>
                  </use>
                  <path fill="none" stroke="white" stroke-width="1.5" d="M0,-3.0v7 M-2.5,-0.5L0,-3.0L2.5,-0.5"/>
                </g>
                <g id="arrowRight" xlink:href="#dirArrow" transform="rotate(90) translate(36 -43)" onmousedown="handlePan(1,0)">
                  <use xlink:href="#rim" fill="#404040">
                        <set attributeName="fill" to="#808080" begin="arrowRight.mouseover" end="arrowRight.mouseout"/>
                  </use>
                  <path fill="none" stroke="white" stroke-width="1.5" d="M0,-3.0v7 M-2.5,-0.5L0,-3.0L2.5,-0.5"/>
                </g>
                <g id="arrowDown" xlink:href="#dirArrow" transform="rotate(180) translate(-30 -48)" onmousedown="handlePan(0,1)">
                  <use xlink:href="#rim" fill="#404040">
                        <set attributeName="fill" to="#808080" begin="arrowDown.mouseover" end="arrowDown.mouseout"/>
                  </use>
                  <path fill="none" stroke="white" stroke-width="1.5" d="M0,-3.0v7 M-2.5,-0.5L0,-3.0L2.5,-0.5"/>
                </g>
                <g id="arrowLeft" xlink:href="#dirArrow" transform="rotate(270) translate(-36 17)" onmousedown="handlePan(-1,0)">
                  <use xlink:href="#rim" fill="#404040">
                        <set attributeName="fill" to="#808080" begin="arrowLeft.mouseover" end="arrowLeft.mouseout"/>
                  </use>
                  <path fill="none" stroke="white" stroke-width="1.5" d="M0,-3.0v7 M-2.5,-0.5L0,-3.0L2.5,-0.5"/>
                </g>
        </g>
        <svg viewBox="0 0 15 15" width="100%" height="30px" preserveAspectRatio="xMaxYMin meet">
         <g id="arrow_out" transform="scale(0.3 0.3)">
          <a xlink:href="sitkImageViewer_8h__incl_org.svg" target="_base">
           <rect id="button" ry="5" rx="5" y="6" x="6" height="38" width="38"
                fill="#f2f5e9" fill-opacity="0.5" stroke="#606060" stroke-width="1.0"/>
           <path id="arrow"
             d="M 11.500037,31.436501 C 11.940474,20.09759 22.043105,11.32322 32.158766,21.979434 L 37.068811,17.246167 C 37.068811,17.246167 37.088388,32 37.088388,32 L 22.160133,31.978069 C 22.160133,31.978069 26.997745,27.140456 26.997745,27.140456 C 18.528582,18.264221 13.291696,25.230495 11.500037,31.436501 z"
             style="fill:#404040;"/>
          </a>
         </g>
        </svg>
</svg>
