<?xml version="1.0" encoding="UTF-8" standalone="no"?>
<!DOCTYPE svg PUBLIC "-//W3C//DTD SVG 1.1//EN"
 "http://www.w3.org/Graphics/SVG/1.1/DTD/svg11.dtd">
<!-- Generated by graphviz version 2.43.0 (0)
 -->
<!-- Title: sitkTransformixImageFilterImpl.h Pages: 1 -->
<svg width="1594pt" height="434pt"
 viewBox="0.00 0.00 1594.00 434.00" xmlns="http://www.w3.org/2000/svg" xmlns:xlink="http://www.w3.org/1999/xlink">
<g id="graph0" class="graph" transform="scale(1 1) rotate(0) translate(4 430)">
<title>sitkTransformixImageFilterImpl.h</title>
<!-- Node1 -->
<g id="Node000001" class="node">
<title>Node1</title>
<g id="a_Node000001"><a xlink:title=" ">
<polygon fill="#999999" stroke="#666666" points="1392.5,-426 1244.5,-426 1244.5,-396 1392.5,-396 1392.5,-426"/>
<text text-anchor="start" x="1252.5" y="-414" font-family="Helvetica,sans-Serif" font-size="10.00">sitkTransformixImageFilter</text>
<text text-anchor="middle" x="1318.5" y="-403" font-family="Helvetica,sans-Serif" font-size="10.00">Impl.h</text>
</a>
</g>
</g>
<!-- Node2 -->
<g id="Node000002" class="node">
<title>Node2</title>
<g id="a_Node000002"><a xlink:href="sitkTransformixImageFilter_8h.html" target="_top" xlink:title=" ">
<polygon fill="white" stroke="#666666" points="1074.5,-360 918.5,-360 918.5,-341 1074.5,-341 1074.5,-360"/>
<text text-anchor="middle" x="996.5" y="-348" font-family="Helvetica,sans-Serif" font-size="10.00">sitkTransformixImageFilter.h</text>
</a>
</g>
</g>
<!-- Node1&#45;&gt;Node2 -->
<g id="edge1_Node000001_Node000002" class="edge">
<title>Node1&#45;&gt;Node2</title>
<g id="a_edge1_Node000001_Node000002"><a xlink:title=" ">
<path fill="none" stroke="#63b8ff" d="M1244.22,-396.51C1186.12,-385.95 1106.54,-371.49 1053.41,-361.84"/>
<polygon fill="#63b8ff" stroke="#63b8ff" points="1053.95,-358.38 1043.49,-360.04 1052.7,-365.27 1053.95,-358.38"/>
</a>
</g>
</g>
<!-- Node36 -->
<g id="Node000036" class="node">
<title>Node36</title>
<g id="a_Node000036"><a xlink:href="sitkMemberFunctionFactory_8h.html" target="_top" xlink:title=" ">
<polygon fill="white" stroke="#666666" points="1389,-250 1230,-250 1230,-231 1389,-231 1389,-250"/>
<text text-anchor="middle" x="1309.5" y="-238" font-family="Helvetica,sans-Serif" font-size="10.00">sitkMemberFunctionFactory.h</text>
</a>
</g>
</g>
<!-- Node1&#45;&gt;Node36 -->
<g id="edge58_Node000001_Node000036" class="edge">
<title>Node1&#45;&gt;Node36</title>
<g id="a_edge58_Node000001_Node000036"><a xlink:title=" ">
<path fill="none" stroke="#63b8ff" d="M1309.17,-395.81C1303.4,-386.15 1296.53,-372.85 1293.5,-360 1285.27,-325.12 1295.42,-283.38 1302.9,-259.91"/>
<polygon fill="#63b8ff" stroke="#63b8ff" points="1306.28,-260.82 1306.17,-250.23 1299.65,-258.58 1306.28,-260.82"/>
</a>
</g>
</g>
<!-- Node38 -->
<g id="Node000038" class="node">
<title>Node38</title>
<g id="a_Node000038"><a xlink:title=" ">
<polygon fill="#e0e0e0" stroke="#999999" points="1422.5,-360 1302.5,-360 1302.5,-341 1422.5,-341 1422.5,-360"/>
<text text-anchor="middle" x="1362.5" y="-348" font-family="Helvetica,sans-Serif" font-size="10.00">itkTransformixFilter.h</text>
</a>
</g>
</g>
<!-- Node1&#45;&gt;Node38 -->
<g id="edge63_Node000001_Node000038" class="edge">
<title>Node1&#45;&gt;Node38</title>
<g id="a_edge63_Node000001_Node000038"><a xlink:title=" ">
<path fill="none" stroke="#63b8ff" d="M1329.15,-395.84C1335.34,-387.61 1343.19,-377.18 1349.71,-368.51"/>
<polygon fill="#63b8ff" stroke="#63b8ff" points="1352.69,-370.36 1355.91,-360.27 1347.1,-366.15 1352.69,-370.36"/>
</a>
</g>
</g>
<!-- Node39 -->
<g id="Node000039" class="node">
<title>Node39</title>
<g id="a_Node000039"><a xlink:title=" ">
<polygon fill="#e0e0e0" stroke="#999999" points="1562.5,-360 1440.5,-360 1440.5,-341 1562.5,-341 1562.5,-360"/>
<text text-anchor="middle" x="1501.5" y="-348" font-family="Helvetica,sans-Serif" font-size="10.00">elxParameterObject.h</text>
</a>
</g>
</g>
<!-- Node1&#45;&gt;Node39 -->
<g id="edge64_Node000001_Node000039" class="edge">
<title>Node1&#45;&gt;Node39</title>
<g id="a_edge64_Node000001_Node000039"><a xlink:title=" ">
<path fill="none" stroke="#63b8ff" d="M1362.33,-395.99C1393.64,-385.98 1435.28,-372.67 1464.83,-363.22"/>
<polygon fill="#63b8ff" stroke="#63b8ff" points="1466.28,-366.43 1474.74,-360.05 1464.15,-359.76 1466.28,-366.43"/>
</a>
</g>
</g>
<!-- Node3 -->
<g id="Node000003" class="node">
<title>Node3</title>
<g id="a_Node000003"><a xlink:href="sitkElastixTransformixWrappers_8h.html" target="_top" xlink:title=" ">
<polygon fill="white" stroke="#666666" points="181,-305 0,-305 0,-286 181,-286 181,-305"/>
<text text-anchor="middle" x="90.5" y="-293" font-family="Helvetica,sans-Serif" font-size="10.00">sitkElastixTransformixWrappers.h</text>
</a>
</g>
</g>
<!-- Node2&#45;&gt;Node3 -->
<g id="edge2_Node000002_Node000003" class="edge">
<title>Node2&#45;&gt;Node3</title>
<g id="a_edge2_Node000002_Node000003"><a xlink:title=" ">
<path fill="none" stroke="#63b8ff" d="M918.29,-345.81C774.92,-338.91 460.38,-323.08 195.5,-305 194.19,-304.91 192.87,-304.82 191.55,-304.73"/>
<polygon fill="#63b8ff" stroke="#63b8ff" points="191.49,-301.21 181.27,-303.99 190.99,-308.2 191.49,-301.21"/>
</a>
</g>
</g>
<!-- Node11 -->
<g id="Node000011" class="node">
<title>Node11</title>
<g id="a_Node000011"><a xlink:href="sitkCommon_8h.html" target="_top" xlink:title=" ">
<polygon fill="white" stroke="#666666" points="447.5,-134.5 359.5,-134.5 359.5,-115.5 447.5,-115.5 447.5,-134.5"/>
<text text-anchor="middle" x="403.5" y="-122.5" font-family="Helvetica,sans-Serif" font-size="10.00">sitkCommon.h</text>
</a>
</g>
</g>
<!-- Node2&#45;&gt;Node11 -->
<g id="edge10_Node000002_Node000011" class="edge">
<title>Node2&#45;&gt;Node11</title>
<g id="a_edge10_Node000002_Node000011"><a xlink:title=" ">
<path fill="none" stroke="#63b8ff" d="M918.46,-343.87C763.3,-331.73 421.91,-300.09 316.5,-250 278.26,-231.83 231.85,-210.42 256.5,-176 267.99,-159.96 314.42,-145.91 352.07,-136.82"/>
<polygon fill="#63b8ff" stroke="#63b8ff" points="352.99,-140.2 361.92,-134.51 351.38,-133.39 352.99,-140.2"/>
</a>
</g>
</g>
<!-- Node12 -->
<g id="Node000012" class="node">
<title>Node12</title>
<g id="a_Node000012"><a xlink:href="sitkImage_8h.html" target="_top" xlink:title=" ">
<polygon fill="white" stroke="#666666" points="921.5,-305 847.5,-305 847.5,-286 921.5,-286 921.5,-305"/>
<text text-anchor="middle" x="884.5" y="-293" font-family="Helvetica,sans-Serif" font-size="10.00">sitkImage.h</text>
</a>
</g>
</g>
<!-- Node2&#45;&gt;Node12 -->
<g id="edge12_Node000002_Node000012" class="edge">
<title>Node2&#45;&gt;Node12</title>
<g id="a_edge12_Node000002_Node000012"><a xlink:title=" ">
<path fill="none" stroke="#63b8ff" d="M978.51,-340.98C960.57,-332.5 932.78,-319.35 912.07,-309.54"/>
<polygon fill="#63b8ff" stroke="#63b8ff" points="913.36,-306.28 902.82,-305.17 910.36,-312.61 913.36,-306.28"/>
</a>
</g>
</g>
<!-- Node15 -->
<g id="Node000015" class="node">
<title>Node15</title>
<g id="a_Node000015"><a xlink:title=" ">
<polygon fill="#e0e0e0" stroke="#999999" points="1138.5,-134.5 1080.5,-134.5 1080.5,-115.5 1138.5,-115.5 1138.5,-134.5"/>
<text text-anchor="middle" x="1109.5" y="-122.5" font-family="Helvetica,sans-Serif" font-size="10.00">memory</text>
</a>
</g>
</g>
<!-- Node2&#45;&gt;Node15 -->
<g id="edge55_Node000002_Node000015" class="edge">
<title>Node2&#45;&gt;Node15</title>
<g id="a_edge55_Node000002_Node000015"><a xlink:title=" ">
<path fill="none" stroke="#63b8ff" d="M1006.59,-340.68C1030.64,-318.89 1090.95,-259.59 1112.5,-195 1117.95,-178.67 1116.34,-158.94 1113.88,-144.78"/>
<polygon fill="#63b8ff" stroke="#63b8ff" points="1117.27,-143.87 1111.84,-134.77 1110.41,-145.27 1117.27,-143.87"/>
</a>
</g>
</g>
<!-- Node16 -->
<g id="Node000016" class="node">
<title>Node16</title>
<g id="a_Node000016"><a xlink:title=" ">
<polygon fill="#e0e0e0" stroke="#999999" points="832,-195 785,-195 785,-176 832,-176 832,-195"/>
<text text-anchor="middle" x="808.5" y="-183" font-family="Helvetica,sans-Serif" font-size="10.00">vector</text>
</a>
</g>
</g>
<!-- Node2&#45;&gt;Node16 -->
<g id="edge57_Node000002_Node000016" class="edge">
<title>Node2&#45;&gt;Node16</title>
<g id="a_edge57_Node000002_Node000016"><a xlink:title=" ">
<path fill="none" stroke="#63b8ff" d="M918.22,-343.69C889.71,-337.78 859.38,-326.44 838.5,-305 812.18,-277.97 807.95,-231.34 807.82,-205.36"/>
<polygon fill="#63b8ff" stroke="#63b8ff" points="811.32,-205.08 807.98,-195.02 804.32,-204.97 811.32,-205.08"/>
</a>
</g>
</g>
<!-- Node32 -->
<g id="Node000032" class="node">
<title>Node32</title>
<g id="a_Node000032"><a xlink:title=" ">
<polygon fill="#e0e0e0" stroke="#999999" points="1200.5,-134.5 1156.5,-134.5 1156.5,-115.5 1200.5,-115.5 1200.5,-134.5"/>
<text text-anchor="middle" x="1178.5" y="-122.5" font-family="Helvetica,sans-Serif" font-size="10.00">string</text>
</a>
</g>
</g>
<!-- Node2&#45;&gt;Node32 -->
<g id="edge56_Node000002_Node000032" class="edge">
<title>Node2&#45;&gt;Node32</title>
<g id="a_edge56_Node000002_Node000032"><a xlink:title=" ">
<path fill="none" stroke="#63b8ff" d="M1072.48,-341C1117.92,-334.17 1169.48,-322.74 1183.5,-305 1220.87,-257.69 1198.75,-179.33 1185.83,-144.12"/>
<polygon fill="#63b8ff" stroke="#63b8ff" points="1189.05,-142.73 1182.19,-134.66 1182.51,-145.25 1189.05,-142.73"/>
</a>
</g>
</g>
<!-- Node35 -->
<g id="Node000035" class="node">
<title>Node35</title>
<g id="a_Node000035"><a xlink:title=" ">
<polygon fill="#e0e0e0" stroke="#999999" points="1174.5,-305 1136.5,-305 1136.5,-286 1174.5,-286 1174.5,-305"/>
<text text-anchor="middle" x="1155.5" y="-293" font-family="Helvetica,sans-Serif" font-size="10.00">map</text>
</a>
</g>
</g>
<!-- Node2&#45;&gt;Node35 -->
<g id="edge54_Node000002_Node000035" class="edge">
<title>Node2&#45;&gt;Node35</title>
<g id="a_edge54_Node000002_Node000035"><a xlink:title=" ">
<path fill="none" stroke="#63b8ff" d="M1022.05,-340.98C1050.47,-331.51 1096.32,-316.23 1126.19,-306.27"/>
<polygon fill="#63b8ff" stroke="#63b8ff" points="1127.65,-309.47 1136.03,-302.99 1125.44,-302.83 1127.65,-309.47"/>
</a>
</g>
</g>
<!-- Node4 -->
<g id="Node000004" class="node">
<title>Node4</title>
<g id="a_Node000004"><a xlink:href="sitkMacro_8h.html" target="_top" xlink:title=" ">
<polygon fill="white" stroke="#666666" points="597.5,-74 523.5,-74 523.5,-55 597.5,-55 597.5,-74"/>
<text text-anchor="middle" x="560.5" y="-62" font-family="Helvetica,sans-Serif" font-size="10.00">sitkMacro.h</text>
</a>
</g>
</g>
<!-- Node3&#45;&gt;Node4 -->
<g id="edge3_Node000003_Node000004" class="edge">
<title>Node3&#45;&gt;Node4</title>
<g id="a_edge3_Node000003_Node000004"><a xlink:title=" ">
<path fill="none" stroke="#63b8ff" d="M96.1,-285.87C110.34,-264.56 150,-208.77 195.5,-176 294.28,-104.86 439.43,-78.91 513.41,-69.93"/>
<polygon fill="#63b8ff" stroke="#63b8ff" points="513.83,-73.41 523.36,-68.78 513.02,-66.45 513.83,-73.41"/>
</a>
</g>
</g>
<!-- Node5 -->
<g id="Node000005" class="node">
<title>Node5</title>
<g id="a_Node000005"><a xlink:title=" ">
<polygon fill="#e0e0e0" stroke="#999999" points="816,-19 763,-19 763,0 816,0 816,-19"/>
<text text-anchor="middle" x="789.5" y="-7" font-family="Helvetica,sans-Serif" font-size="10.00">stdint.h</text>
</a>
</g>
</g>
<!-- Node4&#45;&gt;Node5 -->
<g id="edge4_Node000004_Node000005" class="edge">
<title>Node4&#45;&gt;Node5</title>
<g id="a_edge4_Node000004_Node000005"><a xlink:title=" ">
<path fill="none" stroke="#63b8ff" d="M597.29,-54.98C640.04,-45.09 710.15,-28.86 752.84,-18.98"/>
<polygon fill="#63b8ff" stroke="#63b8ff" points="753.86,-22.34 762.81,-16.68 752.28,-15.52 753.86,-22.34"/>
</a>
</g>
</g>
<!-- Node6 -->
<g id="Node000006" class="node">
<title>Node6</title>
<g id="a_Node000006"><a xlink:title=" ">
<polygon fill="#e0e0e0" stroke="#999999" points="690.5,-19 634.5,-19 634.5,0 690.5,0 690.5,-19"/>
<text text-anchor="middle" x="662.5" y="-7" font-family="Helvetica,sans-Serif" font-size="10.00">stddef.h</text>
</a>
</g>
</g>
<!-- Node4&#45;&gt;Node6 -->
<g id="edge5_Node000004_Node000006" class="edge">
<title>Node4&#45;&gt;Node6</title>
<g id="a_edge5_Node000004_Node000006"><a xlink:title=" ">
<path fill="none" stroke="#63b8ff" d="M576.89,-54.98C593.07,-46.57 618.07,-33.59 636.88,-23.81"/>
<polygon fill="#63b8ff" stroke="#63b8ff" points="638.55,-26.89 645.81,-19.17 635.33,-20.68 638.55,-26.89"/>
</a>
</g>
</g>
<!-- Node7 -->
<g id="Node000007" class="node">
<title>Node7</title>
<g id="a_Node000007"><a xlink:title=" ">
<polygon fill="#e0e0e0" stroke="#999999" points="480.5,-19 428.5,-19 428.5,0 480.5,0 480.5,-19"/>
<text text-anchor="middle" x="454.5" y="-7" font-family="Helvetica,sans-Serif" font-size="10.00">cassert</text>
</a>
</g>
</g>
<!-- Node4&#45;&gt;Node7 -->
<g id="edge6_Node000004_Node000007" class="edge">
<title>Node4&#45;&gt;Node7</title>
<g id="a_edge6_Node000004_Node000007"><a xlink:title=" ">
<path fill="none" stroke="#63b8ff" d="M543.47,-54.98C526.57,-46.54 500.44,-33.47 480.86,-23.68"/>
<polygon fill="#63b8ff" stroke="#63b8ff" points="482.35,-20.51 471.84,-19.17 479.22,-26.77 482.35,-20.51"/>
</a>
</g>
</g>
<!-- Node8 -->
<g id="Node000008" class="node">
<title>Node8</title>
<g id="a_Node000008"><a xlink:title=" ">
<polygon fill="#e0e0e0" stroke="#999999" points="554.5,-19 498.5,-19 498.5,0 554.5,0 554.5,-19"/>
<text text-anchor="middle" x="526.5" y="-7" font-family="Helvetica,sans-Serif" font-size="10.00">sstream</text>
</a>
</g>
</g>
<!-- Node4&#45;&gt;Node8 -->
<g id="edge7_Node000004_Node000008" class="edge">
<title>Node4&#45;&gt;Node8</title>
<g id="a_edge7_Node000004_Node000008"><a xlink:title=" ">
<path fill="none" stroke="#63b8ff" d="M554.89,-54.75C550.18,-47.42 543.33,-36.73 537.53,-27.7"/>
<polygon fill="#63b8ff" stroke="#63b8ff" points="540.36,-25.62 532.01,-19.09 534.46,-29.4 540.36,-25.62"/>
</a>
</g>
</g>
<!-- Node9 -->
<g id="Node000009" class="node">
<title>Node9</title>
<g id="a_Node000009"><a xlink:title=" ">
<polygon fill="#e0e0e0" stroke="#999999" points="616.5,-19 572.5,-19 572.5,0 616.5,0 616.5,-19"/>
<text text-anchor="middle" x="594.5" y="-7" font-family="Helvetica,sans-Serif" font-size="10.00">limits</text>
</a>
</g>
</g>
<!-- Node4&#45;&gt;Node9 -->
<g id="edge8_Node000004_Node000009" class="edge">
<title>Node4&#45;&gt;Node9</title>
<g id="a_edge8_Node000004_Node000009"><a xlink:title=" ">
<path fill="none" stroke="#63b8ff" d="M566.11,-54.75C570.82,-47.42 577.67,-36.73 583.47,-27.7"/>
<polygon fill="#63b8ff" stroke="#63b8ff" points="586.54,-29.4 588.99,-19.09 580.64,-25.62 586.54,-29.4"/>
</a>
</g>
</g>
<!-- Node10 -->
<g id="Node000010" class="node">
<title>Node10</title>
<g id="a_Node000010"><a xlink:href="sitkConfigure_8h.html" target="_top" xlink:title=" ">
<polygon fill="white" stroke="#666666" points="1034.5,-19 944.5,-19 944.5,0 1034.5,0 1034.5,-19"/>
<text text-anchor="middle" x="989.5" y="-7" font-family="Helvetica,sans-Serif" font-size="10.00">sitkConfigure.h</text>
</a>
</g>
</g>
<!-- Node4&#45;&gt;Node10 -->
<g id="edge9_Node000004_Node000010" class="edge">
<title>Node4&#45;&gt;Node10</title>
<g id="a_edge9_Node000004_Node000010"><a xlink:title=" ">
<path fill="none" stroke="#63b8ff" d="M597.82,-58.89C673.51,-49.54 845.41,-28.3 934.17,-17.34"/>
<polygon fill="#63b8ff" stroke="#63b8ff" points="934.81,-20.78 944.31,-16.08 933.96,-13.84 934.81,-20.78"/>
</a>
</g>
</g>
<!-- Node11&#45;&gt;Node4 -->
<g id="edge11_Node000011_Node000004" class="edge">
<title>Node11&#45;&gt;Node4</title>
<g id="a_edge11_Node000011_Node000004"><a xlink:title=" ">
<path fill="none" stroke="#63b8ff" d="M426.33,-115.49C453.07,-105.53 497.58,-88.95 527.94,-77.63"/>
<polygon fill="#63b8ff" stroke="#63b8ff" points="529.49,-80.79 537.64,-74.02 527.05,-74.23 529.49,-80.79"/>
</a>
</g>
</g>
<!-- Node12&#45;&gt;Node11 -->
<g id="edge13_Node000012_Node000011" class="edge">
<title>Node12&#45;&gt;Node11</title>
<g id="a_edge13_Node000012_Node000011"><a xlink:title=" ">
<path fill="none" stroke="#63b8ff" d="M847.18,-294.7C724.75,-294.48 339,-286.43 266.5,-195 239.95,-161.52 300.5,-142.9 349.39,-133.67"/>
<polygon fill="#63b8ff" stroke="#63b8ff" points="350.07,-137.1 359.3,-131.89 348.84,-130.21 350.07,-137.1"/>
</a>
</g>
</g>
<!-- Node13 -->
<g id="Node000013" class="node">
<title>Node13</title>
<g id="a_Node000013"><a xlink:href="sitkTemplateFunctions_8h.html" target="_top" xlink:title=" ">
<polygon fill="white" stroke="#666666" points="739,-250 604,-250 604,-231 739,-231 739,-250"/>
<text text-anchor="middle" x="671.5" y="-238" font-family="Helvetica,sans-Serif" font-size="10.00">sitkTemplateFunctions.h</text>
</a>
</g>
</g>
<!-- Node12&#45;&gt;Node13 -->
<g id="edge14_Node000012_Node000013" class="edge">
<title>Node12&#45;&gt;Node13</title>
<g id="a_edge14_Node000012_Node000013"><a xlink:title=" ">
<path fill="none" stroke="#63b8ff" d="M850.28,-285.98C813.74,-276.89 755.72,-262.46 715.74,-252.51"/>
<polygon fill="#63b8ff" stroke="#63b8ff" points="716.54,-249.1 705.99,-250.08 714.85,-255.89 716.54,-249.1"/>
</a>
</g>
</g>
<!-- Node12&#45;&gt;Node15 -->
<g id="edge52_Node000012_Node000015" class="edge">
<title>Node12&#45;&gt;Node15</title>
<g id="a_edge52_Node000012_Node000015"><a xlink:title=" ">
<path fill="none" stroke="#63b8ff" d="M921.55,-287.83C952.35,-281.25 996.63,-269.32 1031.5,-250 1064.01,-231.99 1075.6,-227 1094.5,-195 1103.55,-179.68 1107.16,-159.54 1108.59,-144.98"/>
<polygon fill="#63b8ff" stroke="#63b8ff" points="1112.1,-144.92 1109.33,-134.7 1105.12,-144.42 1112.1,-144.92"/>
</a>
</g>
</g>
<!-- Node12&#45;&gt;Node16 -->
<g id="edge51_Node000012_Node000016" class="edge">
<title>Node12&#45;&gt;Node16</title>
<g id="a_edge51_Node000012_Node000016"><a xlink:title=" ">
<path fill="none" stroke="#63b8ff" d="M878.28,-285.66C865.64,-267.69 836.75,-226.64 820.38,-203.38"/>
<polygon fill="#63b8ff" stroke="#63b8ff" points="823.21,-201.32 814.59,-195.16 817.49,-205.35 823.21,-201.32"/>
</a>
</g>
</g>
<!-- Node20 -->
<g id="Node000020" class="node">
<title>Node20</title>
<g id="a_Node000020"><a xlink:href="sitkDetail_8h.html" target="_top" xlink:title=" ">
<polygon fill="white" stroke="#666666" points="1304,-195 1231,-195 1231,-176 1304,-176 1304,-195"/>
<text text-anchor="middle" x="1267.5" y="-183" font-family="Helvetica,sans-Serif" font-size="10.00">sitkDetail.h</text>
</a>
</g>
</g>
<!-- Node12&#45;&gt;Node20 -->
<g id="edge25_Node000012_Node000020" class="edge">
<title>Node12&#45;&gt;Node20</title>
<g id="a_edge25_Node000012_Node000020"><a xlink:title=" ">
<path fill="none" stroke="#63b8ff" d="M921.6,-288.86C965.35,-281.76 1040.03,-268.26 1102.5,-250 1151.49,-235.68 1206.46,-213.17 1238.97,-199.15"/>
<polygon fill="#63b8ff" stroke="#63b8ff" points="1240.53,-202.29 1248.3,-195.09 1237.74,-195.87 1240.53,-202.29"/>
</a>
</g>
</g>
<!-- Node30 -->
<g id="Node000030" class="node">
<title>Node30</title>
<g id="a_Node000030"><a xlink:href="sitkPixelIDTokens_8h.html" target="_top" xlink:title=" ">
<polygon fill="white" stroke="#666666" points="1022.5,-250 912.5,-250 912.5,-231 1022.5,-231 1022.5,-250"/>
<text text-anchor="middle" x="967.5" y="-238" font-family="Helvetica,sans-Serif" font-size="10.00">sitkPixelIDTokens.h</text>
</a>
</g>
</g>
<!-- Node12&#45;&gt;Node30 -->
<g id="edge40_Node000012_Node000030" class="edge">
<title>Node12&#45;&gt;Node30</title>
<g id="a_edge40_Node000012_Node000030"><a xlink:title=" ">
<path fill="none" stroke="#63b8ff" d="M897.84,-285.98C910.59,-277.84 930.05,-265.41 945.17,-255.76"/>
<polygon fill="#63b8ff" stroke="#63b8ff" points="947.38,-258.5 953.92,-250.17 943.61,-252.6 947.38,-258.5"/>
</a>
</g>
</g>
<!-- Node33 -->
<g id="Node000033" class="node">
<title>Node33</title>
<g id="a_Node000033"><a xlink:title=" ">
<polygon fill="#e0e0e0" stroke="#999999" points="919,-195 850,-195 850,-176 919,-176 919,-195"/>
<text text-anchor="middle" x="884.5" y="-183" font-family="Helvetica,sans-Serif" font-size="10.00">type_traits</text>
</a>
</g>
</g>
<!-- Node12&#45;&gt;Node33 -->
<g id="edge53_Node000012_Node000033" class="edge">
<title>Node12&#45;&gt;Node33</title>
<g id="a_edge53_Node000012_Node000033"><a xlink:title=" ">
<path fill="none" stroke="#63b8ff" d="M884.5,-285.66C884.5,-268.17 884.5,-228.8 884.5,-205.27"/>
<polygon fill="#63b8ff" stroke="#63b8ff" points="888,-205.16 884.5,-195.16 881,-205.16 888,-205.16"/>
</a>
</g>
</g>
<!-- Node34 -->
<g id="Node000034" class="node">
<title>Node34</title>
<g id="a_Node000034"><a xlink:href="sitkInterpolator_8h.html" target="_top" xlink:title=" ">
<polygon fill="white" stroke="#666666" points="375.5,-195 275.5,-195 275.5,-176 375.5,-176 375.5,-195"/>
<text text-anchor="middle" x="325.5" y="-183" font-family="Helvetica,sans-Serif" font-size="10.00">sitkInterpolator.h</text>
</a>
</g>
</g>
<!-- Node12&#45;&gt;Node34 -->
<g id="edge48_Node000012_Node000034" class="edge">
<title>Node12&#45;&gt;Node34</title>
<g id="a_edge48_Node000012_Node000034"><a xlink:title=" ">
<path fill="none" stroke="#63b8ff" d="M847.39,-289.73C792.23,-282.43 685.45,-267.47 595.5,-250 514.46,-234.26 420.86,-211.12 367.88,-197.55"/>
<polygon fill="#63b8ff" stroke="#63b8ff" points="368.71,-194.15 358.16,-195.05 366.97,-200.93 368.71,-194.15"/>
</a>
</g>
</g>
<!-- Node13&#45;&gt;Node4 -->
<g id="edge15_Node000013_Node000004" class="edge">
<title>Node13&#45;&gt;Node4</title>
<g id="a_edge15_Node000013_Node000004"><a xlink:title=" ">
<path fill="none" stroke="#63b8ff" d="M651.58,-230.95C636.41,-223.5 616.06,-211.32 603.5,-195 577.58,-161.33 566.87,-111.26 562.79,-84.31"/>
<polygon fill="#63b8ff" stroke="#63b8ff" points="566.24,-83.72 561.41,-74.29 559.3,-84.67 566.24,-83.72"/>
</a>
</g>
</g>
<!-- Node13&#45;&gt;Node11 -->
<g id="edge16_Node000013_Node000011" class="edge">
<title>Node13&#45;&gt;Node11</title>
<g id="a_edge16_Node000013_Node000011"><a xlink:title=" ">
<path fill="none" stroke="#63b8ff" d="M603.7,-235.27C539.6,-229.91 449.46,-218.38 423.5,-195 409.48,-182.37 405.05,-160.57 403.76,-144.85"/>
<polygon fill="#63b8ff" stroke="#63b8ff" points="407.25,-144.53 403.3,-134.7 400.26,-144.85 407.25,-144.53"/>
</a>
</g>
</g>
<!-- Node14 -->
<g id="Node000014" class="node">
<title>Node14</title>
<g id="a_Node000014"><a xlink:href="sitkExceptionObject_8h.html" target="_top" xlink:title=" ">
<polygon fill="white" stroke="#666666" points="555,-195 432,-195 432,-176 555,-176 555,-195"/>
<text text-anchor="middle" x="493.5" y="-183" font-family="Helvetica,sans-Serif" font-size="10.00">sitkExceptionObject.h</text>
</a>
</g>
</g>
<!-- Node13&#45;&gt;Node14 -->
<g id="edge17_Node000013_Node000014" class="edge">
<title>Node13&#45;&gt;Node14</title>
<g id="a_edge17_Node000013_Node000014"><a xlink:title=" ">
<path fill="none" stroke="#63b8ff" d="M642.9,-230.98C612.89,-222.05 565.52,-207.94 532.18,-198.02"/>
<polygon fill="#63b8ff" stroke="#63b8ff" points="532.91,-194.58 522.32,-195.08 530.91,-201.29 532.91,-194.58"/>
</a>
</g>
</g>
<!-- Node13&#45;&gt;Node16 -->
<g id="edge21_Node000013_Node000016" class="edge">
<title>Node13&#45;&gt;Node16</title>
<g id="a_edge21_Node000013_Node000016"><a xlink:title=" ">
<path fill="none" stroke="#63b8ff" d="M693.51,-230.98C715.95,-222.3 750.98,-208.75 776.49,-198.88"/>
<polygon fill="#63b8ff" stroke="#63b8ff" points="778.02,-202.04 786.09,-195.17 775.5,-195.51 778.02,-202.04"/>
</a>
</g>
</g>
<!-- Node17 -->
<g id="Node000017" class="node">
<title>Node17</title>
<g id="a_Node000017"><a xlink:title=" ">
<polygon fill="#e0e0e0" stroke="#999999" points="785,-134.5 728,-134.5 728,-115.5 785,-115.5 785,-134.5"/>
<text text-anchor="middle" x="756.5" y="-122.5" font-family="Helvetica,sans-Serif" font-size="10.00">ostream</text>
</a>
</g>
</g>
<!-- Node13&#45;&gt;Node17 -->
<g id="edge22_Node000013_Node000017" class="edge">
<title>Node13&#45;&gt;Node17</title>
<g id="a_edge22_Node000013_Node000017"><a xlink:title=" ">
<path fill="none" stroke="#63b8ff" d="M691.06,-230.99C705.91,-223.55 725.73,-211.38 737.5,-195 748.13,-180.21 752.82,-159.72 754.88,-144.92"/>
<polygon fill="#63b8ff" stroke="#63b8ff" points="758.37,-145.23 756,-134.9 751.41,-144.45 758.37,-145.23"/>
</a>
</g>
</g>
<!-- Node18 -->
<g id="Node000018" class="node">
<title>Node18</title>
<g id="a_Node000018"><a xlink:title=" ">
<polygon fill="#e0e0e0" stroke="#999999" points="665,-195 612,-195 612,-176 665,-176 665,-195"/>
<text text-anchor="middle" x="638.5" y="-183" font-family="Helvetica,sans-Serif" font-size="10.00">iterator</text>
</a>
</g>
</g>
<!-- Node13&#45;&gt;Node18 -->
<g id="edge23_Node000013_Node000018" class="edge">
<title>Node13&#45;&gt;Node18</title>
<g id="a_edge23_Node000013_Node000018"><a xlink:title=" ">
<path fill="none" stroke="#63b8ff" d="M666.05,-230.75C661.49,-223.42 654.83,-212.73 649.21,-203.7"/>
<polygon fill="#63b8ff" stroke="#63b8ff" points="652.1,-201.73 643.85,-195.09 646.16,-205.43 652.1,-201.73"/>
</a>
</g>
</g>
<!-- Node19 -->
<g id="Node000019" class="node">
<title>Node19</title>
<g id="a_Node000019"><a xlink:title=" ">
<polygon fill="#e0e0e0" stroke="#999999" points="728,-195 683,-195 683,-176 728,-176 728,-195"/>
<text text-anchor="middle" x="705.5" y="-183" font-family="Helvetica,sans-Serif" font-size="10.00">utility</text>
</a>
</g>
</g>
<!-- Node13&#45;&gt;Node19 -->
<g id="edge24_Node000013_Node000019" class="edge">
<title>Node13&#45;&gt;Node19</title>
<g id="a_edge24_Node000013_Node000019"><a xlink:title=" ">
<path fill="none" stroke="#63b8ff" d="M677.11,-230.75C681.82,-223.42 688.67,-212.73 694.47,-203.7"/>
<polygon fill="#63b8ff" stroke="#63b8ff" points="697.54,-205.4 699.99,-195.09 691.64,-201.62 697.54,-205.4"/>
</a>
</g>
</g>
<!-- Node14&#45;&gt;Node4 -->
<g id="edge18_Node000014_Node000004" class="edge">
<title>Node14&#45;&gt;Node4</title>
<g id="a_edge18_Node000014_Node000004"><a xlink:title=" ">
<path fill="none" stroke="#63b8ff" d="M498.32,-175.94C509.23,-156.57 536,-109.02 550.6,-83.08"/>
<polygon fill="#63b8ff" stroke="#63b8ff" points="553.69,-84.73 555.54,-74.3 547.59,-81.3 553.69,-84.73"/>
</a>
</g>
</g>
<!-- Node14&#45;&gt;Node11 -->
<g id="edge19_Node000014_Node000011" class="edge">
<title>Node14&#45;&gt;Node11</title>
<g id="a_edge19_Node000014_Node000011"><a xlink:title=" ">
<path fill="none" stroke="#63b8ff" d="M480.22,-175.87C465.86,-166.54 442.74,-151.51 425.63,-140.38"/>
<polygon fill="#63b8ff" stroke="#63b8ff" points="427.13,-137.18 416.83,-134.67 423.31,-143.05 427.13,-137.18"/>
</a>
</g>
</g>
<!-- Node14&#45;&gt;Node15 -->
<g id="edge20_Node000014_Node000015" class="edge">
<title>Node14&#45;&gt;Node15</title>
<g id="a_edge20_Node000014_Node000015"><a xlink:title=" ">
<path fill="none" stroke="#63b8ff" d="M555.1,-178.65C681.33,-166.66 966.25,-139.6 1070.41,-129.71"/>
<polygon fill="#63b8ff" stroke="#63b8ff" points="1070.87,-133.18 1080.49,-128.75 1070.21,-126.22 1070.87,-133.18"/>
</a>
</g>
</g>
<!-- Node21 -->
<g id="Node000021" class="node">
<title>Node21</title>
<g id="a_Node000021"><a xlink:href="sitkMemberFunctionFactoryBase_8h.html" target="_top" xlink:title=" ">
<polygon fill="white" stroke="#666666" points="1408.5,-140 1256.5,-140 1256.5,-110 1408.5,-110 1408.5,-140"/>
<text text-anchor="start" x="1264.5" y="-128" font-family="Helvetica,sans-Serif" font-size="10.00">sitkMemberFunctionFactory</text>
<text text-anchor="middle" x="1332.5" y="-117" font-family="Helvetica,sans-Serif" font-size="10.00">Base.h</text>
</a>
</g>
</g>
<!-- Node20&#45;&gt;Node21 -->
<g id="edge26_Node000020_Node000021" class="edge">
<title>Node20&#45;&gt;Node21</title>
<g id="a_edge26_Node000020_Node000021"><a xlink:title=" ">
<path fill="none" stroke="#63b8ff" d="M1277.09,-175.87C1285.5,-168.3 1298.08,-156.98 1309.13,-147.04"/>
<polygon fill="#63b8ff" stroke="#63b8ff" points="1311.73,-149.41 1316.82,-140.11 1307.04,-144.2 1311.73,-149.41"/>
</a>
</g>
</g>
<!-- Node26 -->
<g id="Node000026" class="node">
<title>Node26</title>
<g id="a_Node000026"><a xlink:title=" ">
<polygon fill="#e0e0e0" stroke="#999999" points="1115,-74 976,-74 976,-55 1115,-55 1115,-74"/>
<text text-anchor="middle" x="1045.5" y="-62" font-family="Helvetica,sans-Serif" font-size="10.00">Ancillary/FunctionTraits.h</text>
</a>
</g>
</g>
<!-- Node20&#45;&gt;Node26 -->
<g id="edge39_Node000020_Node000026" class="edge">
<title>Node20&#45;&gt;Node26</title>
<g id="a_edge39_Node000020_Node000026"><a xlink:title=" ">
<path fill="none" stroke="#63b8ff" d="M1263.22,-175.88C1255.02,-160.28 1235.56,-127.34 1209.5,-110 1184.23,-93.19 1152.79,-82.7 1124.22,-76.17"/>
<polygon fill="#63b8ff" stroke="#63b8ff" points="1124.76,-72.71 1114.24,-74.02 1123.28,-79.55 1124.76,-72.71"/>
</a>
</g>
</g>
<!-- Node21&#45;&gt;Node10 -->
<g id="edge27_Node000021_Node000010" class="edge">
<title>Node21&#45;&gt;Node10</title>
<g id="a_edge27_Node000021_Node000010"><a xlink:title=" ">
<path fill="none" stroke="#63b8ff" d="M1275.37,-109.92C1241.98,-101.02 1199.29,-88.47 1162.5,-74 1144.93,-67.09 1141.96,-62.2 1124.5,-55 1093.14,-42.07 1056.54,-30.2 1029.37,-21.97"/>
<polygon fill="#63b8ff" stroke="#63b8ff" points="1030.03,-18.52 1019.45,-19.01 1028.02,-25.23 1030.03,-18.52"/>
</a>
</g>
</g>
<!-- Node22 -->
<g id="Node000022" class="node">
<title>Node22</title>
<g id="a_Node000022"><a xlink:href="sitkPixelIDTypeLists_8h.html" target="_top" xlink:title=" ">
<polygon fill="white" stroke="#666666" points="1293.5,-74 1171.5,-74 1171.5,-55 1293.5,-55 1293.5,-74"/>
<text text-anchor="middle" x="1232.5" y="-62" font-family="Helvetica,sans-Serif" font-size="10.00">sitkPixelIDTypeLists.h</text>
</a>
</g>
</g>
<!-- Node21&#45;&gt;Node22 -->
<g id="edge28_Node000021_Node000022" class="edge">
<title>Node21&#45;&gt;Node22</title>
<g id="a_edge28_Node000021_Node000022"><a xlink:title=" ">
<path fill="none" stroke="#63b8ff" d="M1308.55,-109.99C1292.61,-100.66 1271.77,-88.47 1255.94,-79.21"/>
<polygon fill="#63b8ff" stroke="#63b8ff" points="1257.67,-76.17 1247.27,-74.14 1254.13,-82.21 1257.67,-76.17"/>
</a>
</g>
</g>
<!-- Node24 -->
<g id="Node000024" class="node">
<title>Node24</title>
<g id="a_Node000024"><a xlink:title=" ">
<polygon fill="#e0e0e0" stroke="#999999" points="1436,-19 1317,-19 1317,0 1436,0 1436,-19"/>
<text text-anchor="middle" x="1376.5" y="-7" font-family="Helvetica,sans-Serif" font-size="10.00">Ancillary/type_list2.h</text>
</a>
</g>
</g>
<!-- Node21&#45;&gt;Node24 -->
<g id="edge34_Node000021_Node000024" class="edge">
<title>Node21&#45;&gt;Node24</title>
<g id="a_edge34_Node000021_Node000024"><a xlink:title=" ">
<path fill="none" stroke="#63b8ff" d="M1342.74,-109.77C1349.26,-100.1 1357.41,-86.79 1362.5,-74 1368.25,-59.56 1371.86,-42.29 1373.97,-29.4"/>
<polygon fill="#63b8ff" stroke="#63b8ff" points="1377.45,-29.8 1375.46,-19.39 1370.53,-28.77 1377.45,-29.8"/>
</a>
</g>
</g>
<!-- Node21&#45;&gt;Node26 -->
<g id="edge35_Node000021_Node000026" class="edge">
<title>Node21&#45;&gt;Node26</title>
<g id="a_edge35_Node000021_Node000026"><a xlink:title=" ">
<path fill="none" stroke="#63b8ff" d="M1263.76,-109.99C1212.62,-99.56 1143.91,-85.56 1097.34,-76.07"/>
<polygon fill="#63b8ff" stroke="#63b8ff" points="1097.96,-72.62 1087.46,-74.05 1096.56,-79.48 1097.96,-72.62"/>
</a>
</g>
</g>
<!-- Node27 -->
<g id="Node000027" class="node">
<title>Node27</title>
<g id="a_Node000027"><a xlink:title=" ">
<polygon fill="#e0e0e0" stroke="#999999" points="1503,-74 1410,-74 1410,-55 1503,-55 1503,-74"/>
<text text-anchor="middle" x="1456.5" y="-62" font-family="Helvetica,sans-Serif" font-size="10.00">unordered_map</text>
</a>
</g>
</g>
<!-- Node21&#45;&gt;Node27 -->
<g id="edge36_Node000021_Node000027" class="edge">
<title>Node21&#45;&gt;Node27</title>
<g id="a_edge36_Node000021_Node000027"><a xlink:title=" ">
<path fill="none" stroke="#63b8ff" d="M1362.2,-109.99C1382.52,-100.4 1409.26,-87.79 1429.08,-78.44"/>
<polygon fill="#63b8ff" stroke="#63b8ff" points="1430.64,-81.57 1438.19,-74.14 1427.65,-75.24 1430.64,-81.57"/>
</a>
</g>
</g>
<!-- Node28 -->
<g id="Node000028" class="node">
<title>Node28</title>
<g id="a_Node000028"><a xlink:title=" ">
<polygon fill="#e0e0e0" stroke="#999999" points="1586,-74 1521,-74 1521,-55 1586,-55 1586,-74"/>
<text text-anchor="middle" x="1553.5" y="-62" font-family="Helvetica,sans-Serif" font-size="10.00">functional</text>
</a>
</g>
</g>
<!-- Node21&#45;&gt;Node28 -->
<g id="edge37_Node000021_Node000028" class="edge">
<title>Node21&#45;&gt;Node28</title>
<g id="a_edge37_Node000021_Node000028"><a xlink:title=" ">
<path fill="none" stroke="#63b8ff" d="M1385.44,-109.99C1423.91,-99.8 1475.29,-86.2 1511.07,-76.73"/>
<polygon fill="#63b8ff" stroke="#63b8ff" points="1512.41,-80 1521.19,-74.05 1510.62,-73.23 1512.41,-80"/>
</a>
</g>
</g>
<!-- Node29 -->
<g id="Node000029" class="node">
<title>Node29</title>
<g id="a_Node000029"><a xlink:title=" ">
<polygon fill="#e0e0e0" stroke="#999999" points="1353,-74 1312,-74 1312,-55 1353,-55 1353,-74"/>
<text text-anchor="middle" x="1332.5" y="-62" font-family="Helvetica,sans-Serif" font-size="10.00">tuple</text>
</a>
</g>
</g>
<!-- Node21&#45;&gt;Node29 -->
<g id="edge38_Node000021_Node000029" class="edge">
<title>Node21&#45;&gt;Node29</title>
<g id="a_edge38_Node000021_Node000029"><a xlink:title=" ">
<path fill="none" stroke="#63b8ff" d="M1332.5,-109.84C1332.5,-102.21 1332.5,-92.7 1332.5,-84.45"/>
<polygon fill="#63b8ff" stroke="#63b8ff" points="1336,-84.27 1332.5,-74.27 1329,-84.27 1336,-84.27"/>
</a>
</g>
</g>
<!-- Node22&#45;&gt;Node5 -->
<g id="edge29_Node000022_Node000005" class="edge">
<title>Node22&#45;&gt;Node5</title>
<g id="a_edge29_Node000022_Node000005"><a xlink:title=" ">
<path fill="none" stroke="#63b8ff" d="M1171.37,-56.19C1077.86,-45 902.15,-23.98 826.12,-14.88"/>
<polygon fill="#63b8ff" stroke="#63b8ff" points="826.41,-11.39 816.07,-13.68 825.58,-18.34 826.41,-11.39"/>
</a>
</g>
</g>
<!-- Node22&#45;&gt;Node10 -->
<g id="edge30_Node000022_Node000010" class="edge">
<title>Node22&#45;&gt;Node10</title>
<g id="a_edge30_Node000022_Node000010"><a xlink:title=" ">
<path fill="none" stroke="#63b8ff" d="M1193.46,-54.98C1151.42,-45.82 1084.46,-31.21 1038.82,-21.26"/>
<polygon fill="#63b8ff" stroke="#63b8ff" points="1039.36,-17.79 1028.85,-19.08 1037.87,-24.63 1039.36,-17.79"/>
</a>
</g>
</g>
<!-- Node23 -->
<g id="Node000023" class="node">
<title>Node23</title>
<g id="a_Node000023"><a xlink:href="sitkPixelIDTypes_8h.html" target="_top" xlink:title=" ">
<polygon fill="white" stroke="#666666" points="1290,-19 1185,-19 1185,0 1290,0 1290,-19"/>
<text text-anchor="middle" x="1237.5" y="-7" font-family="Helvetica,sans-Serif" font-size="10.00">sitkPixelIDTypes.h</text>
</a>
</g>
</g>
<!-- Node22&#45;&gt;Node23 -->
<g id="edge31_Node000022_Node000023" class="edge">
<title>Node22&#45;&gt;Node23</title>
<g id="a_edge31_Node000022_Node000023"><a xlink:title=" ">
<path fill="none" stroke="#63b8ff" d="M1233.33,-54.75C1233.98,-47.8 1234.92,-37.85 1235.74,-29.13"/>
<polygon fill="#63b8ff" stroke="#63b8ff" points="1239.23,-29.37 1236.69,-19.09 1232.27,-28.72 1239.23,-29.37"/>
</a>
</g>
</g>
<!-- Node22&#45;&gt;Node24 -->
<g id="edge32_Node000022_Node000024" class="edge">
<title>Node22&#45;&gt;Node24</title>
<g id="a_edge32_Node000022_Node000024"><a xlink:title=" ">
<path fill="none" stroke="#63b8ff" d="M1255.64,-54.98C1279.32,-46.27 1316.37,-32.63 1343.21,-22.75"/>
<polygon fill="#63b8ff" stroke="#63b8ff" points="1344.77,-25.91 1352.94,-19.17 1342.35,-19.34 1344.77,-25.91"/>
</a>
</g>
</g>
<!-- Node25 -->
<g id="Node000025" class="node">
<title>Node25</title>
<g id="a_Node000025"><a xlink:title=" ">
<polygon fill="#e0e0e0" stroke="#999999" points="1167,-19 1108,-19 1108,0 1167,0 1167,-19"/>
<text text-anchor="middle" x="1137.5" y="-7" font-family="Helvetica,sans-Serif" font-size="10.00">complex</text>
</a>
</g>
</g>
<!-- Node22&#45;&gt;Node25 -->
<g id="edge33_Node000022_Node000025" class="edge">
<title>Node22&#45;&gt;Node25</title>
<g id="a_edge33_Node000022_Node000025"><a xlink:title=" ">
<path fill="none" stroke="#63b8ff" d="M1217.24,-54.98C1202.37,-46.69 1179.52,-33.94 1162.08,-24.22"/>
<polygon fill="#63b8ff" stroke="#63b8ff" points="1163.48,-20.99 1153.04,-19.17 1160.07,-27.1 1163.48,-20.99"/>
</a>
</g>
</g>
<!-- Node30&#45;&gt;Node10 -->
<g id="edge41_Node000030_Node000010" class="edge">
<title>Node30&#45;&gt;Node10</title>
<g id="a_edge41_Node000030_Node000010"><a xlink:title=" ">
<path fill="none" stroke="#63b8ff" d="M966.11,-230.88C962.09,-204.24 951.77,-121.06 967.5,-55 969.74,-45.58 974.25,-35.86 978.61,-27.92"/>
<polygon fill="#63b8ff" stroke="#63b8ff" points="981.65,-29.65 983.68,-19.25 975.61,-26.11 981.65,-29.65"/>
</a>
</g>
</g>
<!-- Node31 -->
<g id="Node000031" class="node">
<title>Node31</title>
<g id="a_Node000031"><a xlink:href="sitkPixelIDValues_8h.html" target="_top" xlink:title=" ">
<polygon fill="white" stroke="#666666" points="1085.5,-195 975.5,-195 975.5,-176 1085.5,-176 1085.5,-195"/>
<text text-anchor="middle" x="1030.5" y="-183" font-family="Helvetica,sans-Serif" font-size="10.00">sitkPixelIDValues.h</text>
</a>
</g>
</g>
<!-- Node30&#45;&gt;Node31 -->
<g id="edge42_Node000030_Node000031" class="edge">
<title>Node30&#45;&gt;Node31</title>
<g id="a_edge42_Node000030_Node000031"><a xlink:title=" ">
<path fill="none" stroke="#63b8ff" d="M977.62,-230.98C986.94,-223.15 1000.97,-211.34 1012.24,-201.86"/>
<polygon fill="#63b8ff" stroke="#63b8ff" points="1014.79,-204.29 1020.19,-195.17 1010.29,-198.93 1014.79,-204.29"/>
</a>
</g>
</g>
<!-- Node30&#45;&gt;Node33 -->
<g id="edge47_Node000030_Node000033" class="edge">
<title>Node30&#45;&gt;Node33</title>
<g id="a_edge47_Node000030_Node000033"><a xlink:title=" ">
<path fill="none" stroke="#63b8ff" d="M954.16,-230.98C941.41,-222.84 921.95,-210.41 906.83,-200.76"/>
<polygon fill="#63b8ff" stroke="#63b8ff" points="908.39,-197.6 898.08,-195.17 904.62,-203.5 908.39,-197.6"/>
</a>
</g>
</g>
<!-- Node31&#45;&gt;Node11 -->
<g id="edge43_Node000031_Node000011" class="edge">
<title>Node31&#45;&gt;Node11</title>
<g id="a_edge43_Node000031_Node000011"><a xlink:title=" ">
<path fill="none" stroke="#63b8ff" d="M975.41,-179.36C856.33,-168.25 576.2,-142.11 457.82,-131.07"/>
<polygon fill="#63b8ff" stroke="#63b8ff" points="457.84,-127.55 447.55,-130.11 457.19,-134.52 457.84,-127.55"/>
</a>
</g>
</g>
<!-- Node31&#45;&gt;Node17 -->
<g id="edge46_Node000031_Node000017" class="edge">
<title>Node31&#45;&gt;Node17</title>
<g id="a_edge46_Node000031_Node000017"><a xlink:title=" ">
<path fill="none" stroke="#63b8ff" d="M990.66,-175.99C938.2,-164.79 846.58,-145.23 794.87,-134.19"/>
<polygon fill="#63b8ff" stroke="#63b8ff" points="795.59,-130.77 785.08,-132.1 794.13,-137.61 795.59,-130.77"/>
</a>
</g>
</g>
<!-- Node31&#45;&gt;Node22 -->
<g id="edge44_Node000031_Node000022" class="edge">
<title>Node31&#45;&gt;Node22</title>
<g id="a_edge44_Node000031_Node000022"><a xlink:title=" ">
<path fill="none" stroke="#63b8ff" d="M1032.81,-175.91C1037.44,-160.35 1049.37,-127.48 1071.5,-110 1096.95,-89.89 1130.9,-78.86 1161.06,-72.81"/>
<polygon fill="#63b8ff" stroke="#63b8ff" points="1161.93,-76.21 1171.12,-70.94 1160.65,-69.33 1161.93,-76.21"/>
</a>
</g>
</g>
<!-- Node31&#45;&gt;Node32 -->
<g id="edge45_Node000031_Node000032" class="edge">
<title>Node31&#45;&gt;Node32</title>
<g id="a_edge45_Node000031_Node000032"><a xlink:title=" ">
<path fill="none" stroke="#63b8ff" d="M1054.42,-175.89C1078.19,-167.21 1115.59,-153.26 1147.5,-140 1148.51,-139.58 1149.53,-139.15 1150.57,-138.71"/>
<polygon fill="#63b8ff" stroke="#63b8ff" points="1152.14,-141.84 1159.89,-134.62 1149.33,-135.43 1152.14,-141.84"/>
</a>
</g>
</g>
<!-- Node34&#45;&gt;Node11 -->
<g id="edge49_Node000034_Node000011" class="edge">
<title>Node34&#45;&gt;Node11</title>
<g id="a_edge49_Node000034_Node000011"><a xlink:title=" ">
<path fill="none" stroke="#63b8ff" d="M337.01,-175.87C349.34,-166.62 369.12,-151.78 383.91,-140.69"/>
<polygon fill="#63b8ff" stroke="#63b8ff" points="386.04,-143.47 391.94,-134.67 381.84,-137.87 386.04,-143.47"/>
</a>
</g>
</g>
<!-- Node34&#45;&gt;Node17 -->
<g id="edge50_Node000034_Node000017" class="edge">
<title>Node34&#45;&gt;Node17</title>
<g id="a_edge50_Node000034_Node000017"><a xlink:title=" ">
<path fill="none" stroke="#63b8ff" d="M375.78,-177.67C462.81,-165.86 639.67,-141.86 717.85,-131.25"/>
<polygon fill="#63b8ff" stroke="#63b8ff" points="718.33,-134.71 727.77,-129.9 717.39,-127.78 718.33,-134.71"/>
</a>
</g>
</g>
<!-- Node36&#45;&gt;Node20 -->
<g id="edge59_Node000036_Node000020" class="edge">
<title>Node36&#45;&gt;Node20</title>
<g id="a_edge59_Node000036_Node000020"><a xlink:title=" ">
<path fill="none" stroke="#63b8ff" d="M1302.56,-230.75C1296.63,-223.26 1287.93,-212.28 1280.68,-203.13"/>
<polygon fill="#63b8ff" stroke="#63b8ff" points="1283.26,-200.75 1274.31,-195.09 1277.77,-205.1 1283.26,-200.75"/>
</a>
</g>
</g>
<!-- Node36&#45;&gt;Node21 -->
<g id="edge60_Node000036_Node000021" class="edge">
<title>Node36&#45;&gt;Node21</title>
<g id="a_edge60_Node000036_Node000021"><a xlink:title=" ">
<path fill="none" stroke="#63b8ff" d="M1311.23,-230.97C1314.67,-214.01 1322.47,-175.5 1327.61,-150.14"/>
<polygon fill="#63b8ff" stroke="#63b8ff" points="1331.07,-150.68 1329.63,-140.18 1324.21,-149.29 1331.07,-150.68"/>
</a>
</g>
</g>
<!-- Node36&#45;&gt;Node31 -->
<g id="edge61_Node000036_Node000031" class="edge">
<title>Node36&#45;&gt;Node31</title>
<g id="a_edge61_Node000036_Node000031"><a xlink:title=" ">
<path fill="none" stroke="#63b8ff" d="M1264.67,-230.98C1216.01,-221.74 1138.24,-206.97 1085.81,-197.01"/>
<polygon fill="#63b8ff" stroke="#63b8ff" points="1086.16,-193.51 1075.68,-195.08 1084.85,-200.39 1086.16,-193.51"/>
</a>
</g>
</g>
<!-- Node37 -->
<g id="Node000037" class="node">
<title>Node37</title>
<g id="a_Node000037"><a xlink:title=" ">
<polygon fill="#e0e0e0" stroke="#999999" points="1532,-195 1361,-195 1361,-176 1532,-176 1532,-195"/>
<text text-anchor="middle" x="1446.5" y="-183" font-family="Helvetica,sans-Serif" font-size="10.00">sitkMemberFunctionFactory.hxx</text>
</a>
</g>
</g>
<!-- Node36&#45;&gt;Node37 -->
<g id="edge62_Node000036_Node000037" class="edge">
<title>Node36&#45;&gt;Node37</title>
<g id="a_edge62_Node000036_Node000037"><a xlink:title=" ">
<path fill="none" stroke="#63b8ff" d="M1331.51,-230.98C1353.95,-222.3 1388.98,-208.75 1414.49,-198.88"/>
<polygon fill="#63b8ff" stroke="#63b8ff" points="1416.02,-202.04 1424.09,-195.17 1413.5,-195.51 1416.02,-202.04"/>
</a>
</g>
</g>
</g>
</svg>
