<?xml version="1.0" encoding="UTF-8" standalone="no"?>
<!DOCTYPE svg PUBLIC "-//W3C//DTD SVG 1.1//EN"
 "http://www.w3.org/Graphics/SVG/1.1/DTD/svg11.dtd">
<!-- Generated by graphviz version 2.43.0 (0)
 -->
<!-- Title: sitkDisplacementFieldTransform.h Pages: 1 -->
<!--zoomable 487 -->
<svg id="main" version="1.1" xmlns="http://www.w3.org/2000/svg" xmlns:xlink="http://www.w3.org/1999/xlink" xml:space="preserve" onload="init(evt)">
<style type="text/css"><![CDATA[
.edge:hover path { stroke: red; }
.edge:hover polygon { stroke: red; fill: red; }
]]></style>
<script type="text/javascript"><![CDATA[
var edges = document.getElementsByTagName('g');
if (edges && edges.length) {
  for (var i=0;i<edges.length;i++) {
    if (edges[i].id.substr(0,4)=='edge') {
      edges[i].setAttribute('class','edge');
    }
  }
}
]]></script>
        <defs>
                <circle id="rim" cx="0" cy="0" r="7"/>
                <circle id="rim2" cx="0" cy="0" r="3.5"/>
                <g id="zoomPlus">
                        <use xlink:href="#rim" fill="#404040">
                                <set attributeName="fill" to="#808080" begin="zoomplus.mouseover" end="zoomplus.mouseout"/>
                        </use>
                        <path d="M-4,0h8M0,-4v8" fill="none" stroke="white" stroke-width="1.5" pointer-events="none"/>
                </g>
                <g id="zoomMin">
                        <use xlink:href="#rim" fill="#404040">
                                <set attributeName="fill" to="#808080" begin="zoomminus.mouseover" end="zoomminus.mouseout"/>
                        </use>
                        <path d="M-4,0h8" fill="none" stroke="white" stroke-width="1.5" pointer-events="none"/>
                </g>
                <g id="dirArrow">
                        <path fill="none" stroke="white" stroke-width="1.5" d="M0,-3.0v7 M-2.5,-0.5L0,-3.0L2.5,-0.5"/>
                </g>
               <g id="resetDef">
                       <use xlink:href="#rim2" fill="#404040">
                               <set attributeName="fill" to="#808080" begin="reset.mouseover" end="reset.mouseout"/>
                       </use>
               </g>
        </defs>

<script type="text/javascript">
var viewWidth = 1604;
var viewHeight = 487;
var sectionId = 'dynsection-0';
</script>
<script xlink:href="svgpan.js"/>
<svg id="graph" class="graph">
<g id="viewport">
<title>sitkDisplacementFieldTransform.h</title>
<polygon fill="white" stroke="transparent" points="-4,4 -4,-483 1600,-483 1600,4 -4,4"/>
<!-- Node1 -->
<g id="node1" class="node">
<title>Node1</title>
<g id="a_node1"><a xlink:title=" ">
<polygon fill="#bfbfbf" stroke="black" points="1413,-459.5 1413,-478.5 1596,-478.5 1596,-459.5 1413,-459.5"/>
<text text-anchor="middle" x="1504.5" y="-466.5" font-family="Helvetica,sans-Serif" font-size="10.00">sitkDisplacementFieldTransform.h</text>
</a>
</g>
</g>
<!-- Node2 -->
<g id="node2" class="node">
<title>Node2</title>
<g id="a_node2"><a xlink:href="sitkCommon_8h.html" target="_top" xlink:title=" ">
<polygon fill="white" stroke="black" points="1077.5,-112.5 1077.5,-131.5 1165.5,-131.5 1165.5,-112.5 1077.5,-112.5"/>
<text text-anchor="middle" x="1121.5" y="-119.5" font-family="Helvetica,sans-Serif" font-size="10.00">sitkCommon.h</text>
</a>
</g>
</g>
<!-- Node1&#45;&gt;Node2 -->
<g id="edge1" class="edge">
<title>Node1&#45;&gt;Node2</title>
<path fill="none" stroke="midnightblue" d="M1516.69,-459.24C1538.62,-442.35 1582.5,-402.95 1582.5,-358 1582.5,-358 1582.5,-358 1582.5,-238.5 1582.5,-155.52 1297.92,-131.63 1175.94,-125.21"/>
<polygon fill="midnightblue" stroke="midnightblue" points="1175.87,-121.7 1165.7,-124.69 1175.51,-128.69 1175.87,-121.7"/>
</g>
<!-- Node10 -->
<g id="node10" class="node">
<title>Node10</title>
<g id="a_node10"><a xlink:href="sitkTransform_8h.html" target="_top" xlink:title=" ">
<polygon fill="white" stroke="black" points="1342.5,-403.5 1342.5,-422.5 1434.5,-422.5 1434.5,-403.5 1342.5,-403.5"/>
<text text-anchor="middle" x="1388.5" y="-410.5" font-family="Helvetica,sans-Serif" font-size="10.00">sitkTransform.h</text>
</a>
</g>
</g>
<!-- Node1&#45;&gt;Node10 -->
<g id="edge9" class="edge">
<title>Node1&#45;&gt;Node10</title>
<path fill="none" stroke="midnightblue" d="M1486.12,-459.44C1467.28,-450.68 1437.77,-436.94 1416.12,-426.86"/>
<polygon fill="midnightblue" stroke="midnightblue" points="1417.34,-423.56 1406.79,-422.52 1414.38,-429.91 1417.34,-423.56"/>
</g>
<!-- Node33 -->
<g id="node33" class="node">
<title>Node33</title>
<g id="a_node33"><a xlink:href="sitkInterpolator_8h.html" target="_top" xlink:title=" ">
<polygon fill="white" stroke="black" points="1454.5,-230 1454.5,-249 1554.5,-249 1554.5,-230 1454.5,-230"/>
<text text-anchor="middle" x="1504.5" y="-237" font-family="Helvetica,sans-Serif" font-size="10.00">sitkInterpolator.h</text>
</a>
</g>
</g>
<!-- Node1&#45;&gt;Node33 -->
<g id="edge54" class="edge">
<title>Node1&#45;&gt;Node33</title>
<path fill="none" stroke="midnightblue" d="M1504.5,-459.36C1504.5,-426.14 1504.5,-306.16 1504.5,-259.37"/>
<polygon fill="midnightblue" stroke="midnightblue" points="1508,-259.15 1504.5,-249.15 1501,-259.15 1508,-259.15"/>
</g>
<!-- Node3 -->
<g id="node3" class="node">
<title>Node3</title>
<g id="a_node3"><a xlink:href="sitkMacro_8h.html" target="_top" xlink:title=" ">
<polygon fill="white" stroke="black" points="912.5,-56.5 912.5,-75.5 986.5,-75.5 986.5,-56.5 912.5,-56.5"/>
<text text-anchor="middle" x="949.5" y="-63.5" font-family="Helvetica,sans-Serif" font-size="10.00">sitkMacro.h</text>
</a>
</g>
</g>
<!-- Node2&#45;&gt;Node3 -->
<g id="edge2" class="edge">
<title>Node2&#45;&gt;Node3</title>
<path fill="none" stroke="midnightblue" d="M1094.25,-112.44C1065.06,-103.28 1018.58,-88.69 986.19,-78.52"/>
<polygon fill="midnightblue" stroke="midnightblue" points="987.22,-75.17 976.63,-75.52 985.12,-81.85 987.22,-75.17"/>
</g>
<!-- Node4 -->
<g id="node4" class="node">
<title>Node4</title>
<g id="a_node4"><a xlink:title=" ">
<polygon fill="white" stroke="#bfbfbf" points="709,-0.5 709,-19.5 762,-19.5 762,-0.5 709,-0.5"/>
<text text-anchor="middle" x="735.5" y="-7.5" font-family="Helvetica,sans-Serif" font-size="10.00">stdint.h</text>
</a>
</g>
</g>
<!-- Node3&#45;&gt;Node4 -->
<g id="edge3" class="edge">
<title>Node3&#45;&gt;Node4</title>
<path fill="none" stroke="midnightblue" d="M915.59,-56.44C876.45,-46.57 812.32,-30.38 772.08,-20.23"/>
<polygon fill="midnightblue" stroke="midnightblue" points="772.7,-16.78 762.15,-17.73 770.99,-23.57 772.7,-16.78"/>
</g>
<!-- Node5 -->
<g id="node5" class="node">
<title>Node5</title>
<g id="a_node5"><a xlink:title=" ">
<polygon fill="white" stroke="#bfbfbf" points="955.5,-0.5 955.5,-19.5 1011.5,-19.5 1011.5,-0.5 955.5,-0.5"/>
<text text-anchor="middle" x="983.5" y="-7.5" font-family="Helvetica,sans-Serif" font-size="10.00">stddef.h</text>
</a>
</g>
</g>
<!-- Node3&#45;&gt;Node5 -->
<g id="edge4" class="edge">
<title>Node3&#45;&gt;Node5</title>
<path fill="none" stroke="midnightblue" d="M955.11,-56.08C959.87,-48.53 966.82,-37.49 972.65,-28.23"/>
<polygon fill="midnightblue" stroke="midnightblue" points="975.62,-30.08 977.99,-19.75 969.7,-26.35 975.62,-30.08"/>
</g>
<!-- Node6 -->
<g id="node6" class="node">
<title>Node6</title>
<g id="a_node6"><a xlink:title=" ">
<polygon fill="white" stroke="#bfbfbf" points="1029.5,-0.5 1029.5,-19.5 1081.5,-19.5 1081.5,-0.5 1029.5,-0.5"/>
<text text-anchor="middle" x="1055.5" y="-7.5" font-family="Helvetica,sans-Serif" font-size="10.00">cassert</text>
</a>
</g>
</g>
<!-- Node3&#45;&gt;Node6 -->
<g id="edge5" class="edge">
<title>Node3&#45;&gt;Node6</title>
<path fill="none" stroke="midnightblue" d="M966.53,-56.32C983.53,-47.66 1009.88,-34.24 1029.49,-24.25"/>
<polygon fill="midnightblue" stroke="midnightblue" points="1031.19,-27.31 1038.51,-19.65 1028.01,-21.08 1031.19,-27.31"/>
</g>
<!-- Node7 -->
<g id="node7" class="node">
<title>Node7</title>
<g id="a_node7"><a xlink:title=" ">
<polygon fill="white" stroke="#bfbfbf" points="819.5,-0.5 819.5,-19.5 875.5,-19.5 875.5,-0.5 819.5,-0.5"/>
<text text-anchor="middle" x="847.5" y="-7.5" font-family="Helvetica,sans-Serif" font-size="10.00">sstream</text>
</a>
</g>
</g>
<!-- Node3&#45;&gt;Node7 -->
<g id="edge6" class="edge">
<title>Node3&#45;&gt;Node7</title>
<path fill="none" stroke="midnightblue" d="M933.11,-56.32C916.83,-47.7 891.63,-34.36 872.78,-24.39"/>
<polygon fill="midnightblue" stroke="midnightblue" points="874.32,-21.24 863.85,-19.65 871.05,-27.43 874.32,-21.24"/>
</g>
<!-- Node8 -->
<g id="node8" class="node">
<title>Node8</title>
<g id="a_node8"><a xlink:title=" ">
<polygon fill="white" stroke="#bfbfbf" points="893.5,-0.5 893.5,-19.5 937.5,-19.5 937.5,-0.5 893.5,-0.5"/>
<text text-anchor="middle" x="915.5" y="-7.5" font-family="Helvetica,sans-Serif" font-size="10.00">limits</text>
</a>
</g>
</g>
<!-- Node3&#45;&gt;Node8 -->
<g id="edge7" class="edge">
<title>Node3&#45;&gt;Node8</title>
<path fill="none" stroke="midnightblue" d="M943.89,-56.08C939.13,-48.53 932.18,-37.49 926.35,-28.23"/>
<polygon fill="midnightblue" stroke="midnightblue" points="929.3,-26.35 921.01,-19.75 923.38,-30.08 929.3,-26.35"/>
</g>
<!-- Node9 -->
<g id="node9" class="node">
<title>Node9</title>
<g id="a_node9"><a xlink:href="sitkConfigure_8h.html" target="_top" xlink:title=" ">
<polygon fill="white" stroke="black" points="522.5,-0.5 522.5,-19.5 612.5,-19.5 612.5,-0.5 522.5,-0.5"/>
<text text-anchor="middle" x="567.5" y="-7.5" font-family="Helvetica,sans-Serif" font-size="10.00">sitkConfigure.h</text>
</a>
</g>
</g>
<!-- Node3&#45;&gt;Node9 -->
<g id="edge8" class="edge">
<title>Node3&#45;&gt;Node9</title>
<path fill="none" stroke="midnightblue" d="M912.18,-59.72C844.62,-50.17 701.77,-29.98 622.83,-18.82"/>
<polygon fill="midnightblue" stroke="midnightblue" points="622.99,-15.31 612.6,-17.37 622.01,-22.24 622.99,-15.31"/>
</g>
<!-- Node10&#45;&gt;Node2 -->
<g id="edge10" class="edge">
<title>Node10&#45;&gt;Node2</title>
<path fill="none" stroke="midnightblue" d="M1392.26,-403.21C1395.94,-394.26 1401.41,-379.9 1404.5,-367 1414.85,-323.7 1456.6,-201.69 1427.5,-168 1395.63,-131.1 1255,-123.91 1175.94,-122.84"/>
<polygon fill="midnightblue" stroke="midnightblue" points="1175.72,-119.34 1165.68,-122.74 1175.65,-126.34 1175.72,-119.34"/>
</g>
<!-- Node11 -->
<g id="node11" class="node">
<title>Node11</title>
<g id="a_node11"><a xlink:href="sitkExceptionObject_8h.html" target="_top" xlink:title=" ">
<polygon fill="white" stroke="black" points="932,-168.5 932,-187.5 1055,-187.5 1055,-168.5 932,-168.5"/>
<text text-anchor="middle" x="993.5" y="-175.5" font-family="Helvetica,sans-Serif" font-size="10.00">sitkExceptionObject.h</text>
</a>
</g>
</g>
<!-- Node10&#45;&gt;Node11 -->
<g id="edge11" class="edge">
<title>Node10&#45;&gt;Node11</title>
<path fill="none" stroke="midnightblue" d="M1342.19,-409.97C1230.44,-403.97 951.29,-382.02 898.5,-311 875.43,-279.97 877.82,-256.67 898.5,-224 908.55,-208.13 925.87,-197.74 943,-191"/>
<polygon fill="midnightblue" stroke="midnightblue" points="944.21,-194.28 952.45,-187.62 941.85,-187.69 944.21,-194.28"/>
</g>
<!-- Node12 -->
<g id="node12" class="node">
<title>Node12</title>
<g id="a_node12"><a xlink:href="sitkImage_8h.html" target="_top" xlink:title=" ">
<polygon fill="white" stroke="black" points="1093.5,-347.5 1093.5,-366.5 1167.5,-366.5 1167.5,-347.5 1093.5,-347.5"/>
<text text-anchor="middle" x="1130.5" y="-354.5" font-family="Helvetica,sans-Serif" font-size="10.00">sitkImage.h</text>
</a>
</g>
</g>
<!-- Node10&#45;&gt;Node12 -->
<g id="edge14" class="edge">
<title>Node10&#45;&gt;Node12</title>
<path fill="none" stroke="midnightblue" d="M1347.62,-403.44C1301.46,-393.78 1226.45,-378.08 1177.8,-367.9"/>
<polygon fill="midnightblue" stroke="midnightblue" points="1178.34,-364.44 1167.84,-365.82 1176.91,-371.29 1178.34,-364.44"/>
</g>
<!-- Node14 -->
<g id="node14" class="node">
<title>Node14</title>
<g id="a_node14"><a xlink:title=" ">
<polygon fill="white" stroke="#bfbfbf" points="1372,-168.5 1372,-187.5 1419,-187.5 1419,-168.5 1372,-168.5"/>
<text text-anchor="middle" x="1395.5" y="-175.5" font-family="Helvetica,sans-Serif" font-size="10.00">vector</text>
</a>
</g>
</g>
<!-- Node10&#45;&gt;Node14 -->
<g id="edge53" class="edge">
<title>Node10&#45;&gt;Node14</title>
<path fill="none" stroke="midnightblue" d="M1388.76,-403.43C1389.77,-369.75 1393.49,-245.99 1394.93,-198.1"/>
<polygon fill="midnightblue" stroke="midnightblue" points="1398.43,-198 1395.23,-187.9 1391.43,-197.79 1398.43,-198"/>
</g>
<!-- Node11&#45;&gt;Node2 -->
<g id="edge13" class="edge">
<title>Node11&#45;&gt;Node2</title>
<path fill="none" stroke="midnightblue" d="M1013.78,-168.44C1034.85,-159.56 1068.02,-145.56 1091.99,-135.45"/>
<polygon fill="midnightblue" stroke="midnightblue" points="1093.46,-138.63 1101.31,-131.52 1090.74,-132.18 1093.46,-138.63"/>
</g>
<!-- Node11&#45;&gt;Node3 -->
<g id="edge12" class="edge">
<title>Node11&#45;&gt;Node3</title>
<path fill="none" stroke="midnightblue" d="M990.05,-168.37C982.88,-150.46 966.27,-108.92 956.68,-84.95"/>
<polygon fill="midnightblue" stroke="midnightblue" points="959.9,-83.58 952.94,-75.59 953.4,-86.18 959.9,-83.58"/>
</g>
<!-- Node12&#45;&gt;Node2 -->
<g id="edge15" class="edge">
<title>Node12&#45;&gt;Node2</title>
<path fill="none" stroke="midnightblue" d="M1132.98,-347.47C1135.46,-338.48 1139.09,-323.89 1140.5,-311 1147.32,-248.89 1133.47,-175.13 1125.94,-141.44"/>
<polygon fill="midnightblue" stroke="midnightblue" points="1129.33,-140.58 1123.66,-131.63 1122.51,-142.16 1129.33,-140.58"/>
</g>
<!-- Node13 -->
<g id="node13" class="node">
<title>Node13</title>
<g id="a_node13"><a xlink:href="sitkTemplateFunctions_8h.html" target="_top" xlink:title=" ">
<polygon fill="white" stroke="black" points="1162,-230 1162,-249 1297,-249 1297,-230 1162,-230"/>
<text text-anchor="middle" x="1229.5" y="-237" font-family="Helvetica,sans-Serif" font-size="10.00">sitkTemplateFunctions.h</text>
</a>
</g>
</g>
<!-- Node12&#45;&gt;Node13 -->
<g id="edge16" class="edge">
<title>Node12&#45;&gt;Node13</title>
<path fill="none" stroke="midnightblue" d="M1139.31,-347.26C1148.18,-338.35 1162.14,-324.03 1173.5,-311 1188.98,-293.24 1205.64,-271.96 1216.73,-257.45"/>
<polygon fill="midnightblue" stroke="midnightblue" points="1219.59,-259.47 1222.85,-249.39 1214.02,-255.24 1219.59,-259.47"/>
</g>
<!-- Node12&#45;&gt;Node14 -->
<g id="edge50" class="edge">
<title>Node12&#45;&gt;Node14</title>
<path fill="none" stroke="midnightblue" d="M1147.51,-347.48C1179.51,-331.17 1250.39,-293.71 1305.5,-255 1332.54,-236.01 1361.29,-210.72 1378.83,-194.64"/>
<polygon fill="midnightblue" stroke="midnightblue" points="1381.52,-196.92 1386.48,-187.56 1376.77,-191.79 1381.52,-196.92"/>
</g>
<!-- Node17 -->
<g id="node17" class="node">
<title>Node17</title>
<g id="a_node17"><a xlink:href="sitkDetail_8h.html" target="_top" xlink:title=" ">
<polygon fill="white" stroke="black" points="401,-291.5 401,-310.5 474,-310.5 474,-291.5 401,-291.5"/>
<text text-anchor="middle" x="437.5" y="-298.5" font-family="Helvetica,sans-Serif" font-size="10.00">sitkDetail.h</text>
</a>
</g>
</g>
<!-- Node12&#45;&gt;Node17 -->
<g id="edge23" class="edge">
<title>Node12&#45;&gt;Node17</title>
<path fill="none" stroke="midnightblue" d="M1093.24,-353.1C975.81,-343.95 613.57,-315.72 484.1,-305.63"/>
<polygon fill="midnightblue" stroke="midnightblue" points="484.34,-302.14 474.1,-304.85 483.8,-309.12 484.34,-302.14"/>
</g>
<!-- Node28 -->
<g id="node28" class="node">
<title>Node28</title>
<g id="a_node28"><a xlink:href="sitkPixelIDTokens_8h.html" target="_top" xlink:title=" ">
<polygon fill="white" stroke="black" points="907.5,-291.5 907.5,-310.5 1017.5,-310.5 1017.5,-291.5 907.5,-291.5"/>
<text text-anchor="middle" x="962.5" y="-298.5" font-family="Helvetica,sans-Serif" font-size="10.00">sitkPixelIDTokens.h</text>
</a>
</g>
</g>
<!-- Node12&#45;&gt;Node28 -->
<g id="edge42" class="edge">
<title>Node12&#45;&gt;Node28</title>
<path fill="none" stroke="midnightblue" d="M1103.88,-347.44C1075.49,-338.32 1030.36,-323.81 998.75,-313.65"/>
<polygon fill="midnightblue" stroke="midnightblue" points="999.59,-310.24 989,-310.52 997.44,-316.91 999.59,-310.24"/>
</g>
<!-- Node31 -->
<g id="node31" class="node">
<title>Node31</title>
<g id="a_node31"><a xlink:title=" ">
<polygon fill="white" stroke="#bfbfbf" points="1036,-230 1036,-249 1105,-249 1105,-230 1036,-230"/>
<text text-anchor="middle" x="1070.5" y="-237" font-family="Helvetica,sans-Serif" font-size="10.00">type_traits</text>
</a>
</g>
</g>
<!-- Node12&#45;&gt;Node31 -->
<g id="edge52" class="edge">
<title>Node12&#45;&gt;Node31</title>
<path fill="none" stroke="midnightblue" d="M1108.04,-347.38C1092.73,-340.18 1073.64,-328.29 1064.5,-311 1056,-294.92 1059.34,-273.86 1063.67,-258.95"/>
<polygon fill="midnightblue" stroke="midnightblue" points="1067.03,-259.94 1066.84,-249.35 1060.38,-257.75 1067.03,-259.94"/>
</g>
<!-- Node32 -->
<g id="node32" class="node">
<title>Node32</title>
<g id="a_node32"><a xlink:title=" ">
<polygon fill="white" stroke="#bfbfbf" points="1073.5,-291.5 1073.5,-310.5 1131.5,-310.5 1131.5,-291.5 1073.5,-291.5"/>
<text text-anchor="middle" x="1102.5" y="-298.5" font-family="Helvetica,sans-Serif" font-size="10.00">memory</text>
</a>
</g>
</g>
<!-- Node12&#45;&gt;Node32 -->
<g id="edge51" class="edge">
<title>Node12&#45;&gt;Node32</title>
<path fill="none" stroke="midnightblue" d="M1125.88,-347.08C1122.04,-339.69 1116.48,-328.95 1111.74,-319.81"/>
<polygon fill="midnightblue" stroke="midnightblue" points="1114.75,-318.02 1107.04,-310.75 1108.53,-321.24 1114.75,-318.02"/>
</g>
<!-- Node13&#45;&gt;Node2 -->
<g id="edge18" class="edge">
<title>Node13&#45;&gt;Node2</title>
<path fill="none" stroke="midnightblue" d="M1221.38,-229.82C1203.4,-210.59 1159.97,-164.14 1136.75,-139.31"/>
<polygon fill="midnightblue" stroke="midnightblue" points="1139.1,-136.7 1129.71,-131.78 1133.99,-141.48 1139.1,-136.7"/>
</g>
<!-- Node13&#45;&gt;Node3 -->
<g id="edge17" class="edge">
<title>Node13&#45;&gt;Node3</title>
<path fill="none" stroke="midnightblue" d="M1226.93,-229.99C1219.01,-204.23 1194.25,-127.94 1174.5,-112 1147.67,-90.35 1054.24,-77.4 996.56,-71.29"/>
<polygon fill="midnightblue" stroke="midnightblue" points="996.88,-67.8 986.57,-70.26 996.16,-74.77 996.88,-67.8"/>
</g>
<!-- Node13&#45;&gt;Node11 -->
<g id="edge19" class="edge">
<title>Node13&#45;&gt;Node11</title>
<path fill="none" stroke="midnightblue" d="M1195.69,-229.98C1153.98,-219.46 1082.99,-201.56 1037.19,-190.01"/>
<polygon fill="midnightblue" stroke="midnightblue" points="1037.8,-186.56 1027.25,-187.51 1036.09,-193.35 1037.8,-186.56"/>
</g>
<!-- Node13&#45;&gt;Node14 -->
<g id="edge20" class="edge">
<title>Node13&#45;&gt;Node14</title>
<path fill="none" stroke="midnightblue" d="M1253.28,-229.98C1281.88,-219.72 1330.05,-202.46 1362.3,-190.9"/>
<polygon fill="midnightblue" stroke="midnightblue" points="1363.53,-194.18 1371.76,-187.51 1361.17,-187.59 1363.53,-194.18"/>
</g>
<!-- Node15 -->
<g id="node15" class="node">
<title>Node15</title>
<g id="a_node15"><a xlink:title=" ">
<polygon fill="white" stroke="#bfbfbf" points="1297,-168.5 1297,-187.5 1354,-187.5 1354,-168.5 1297,-168.5"/>
<text text-anchor="middle" x="1325.5" y="-175.5" font-family="Helvetica,sans-Serif" font-size="10.00">ostream</text>
</a>
</g>
</g>
<!-- Node13&#45;&gt;Node15 -->
<g id="edge21" class="edge">
<title>Node13&#45;&gt;Node15</title>
<path fill="none" stroke="midnightblue" d="M1243.25,-229.98C1258.87,-220.3 1284.56,-204.37 1303.08,-192.89"/>
<polygon fill="midnightblue" stroke="midnightblue" points="1305.12,-195.75 1311.77,-187.51 1301.43,-189.8 1305.12,-195.75"/>
</g>
<!-- Node16 -->
<g id="node16" class="node">
<title>Node16</title>
<g id="a_node16"><a xlink:title=" ">
<polygon fill="white" stroke="#bfbfbf" points="1226,-168.5 1226,-187.5 1279,-187.5 1279,-168.5 1226,-168.5"/>
<text text-anchor="middle" x="1252.5" y="-175.5" font-family="Helvetica,sans-Serif" font-size="10.00">iterator</text>
</a>
</g>
</g>
<!-- Node13&#45;&gt;Node16 -->
<g id="edge22" class="edge">
<title>Node13&#45;&gt;Node16</title>
<path fill="none" stroke="midnightblue" d="M1232.8,-229.98C1236.11,-221.4 1241.32,-207.93 1245.55,-196.98"/>
<polygon fill="midnightblue" stroke="midnightblue" points="1248.87,-198.1 1249.21,-187.51 1242.34,-195.57 1248.87,-198.1"/>
</g>
<!-- Node18 -->
<g id="node18" class="node">
<title>Node18</title>
<g id="a_node18"><a xlink:href="sitkMemberFunctionFactoryBase_8h.html" target="_top" xlink:title=" ">
<polygon fill="white" stroke="black" points="241.5,-224.5 241.5,-254.5 393.5,-254.5 393.5,-224.5 241.5,-224.5"/>
<text text-anchor="start" x="249.5" y="-242.5" font-family="Helvetica,sans-Serif" font-size="10.00">sitkMemberFunctionFactory</text>
<text text-anchor="middle" x="317.5" y="-231.5" font-family="Helvetica,sans-Serif" font-size="10.00">Base.h</text>
</a>
</g>
</g>
<!-- Node17&#45;&gt;Node18 -->
<g id="edge24" class="edge">
<title>Node17&#45;&gt;Node18</title>
<path fill="none" stroke="midnightblue" d="M420.31,-291.48C403.3,-283.04 376.7,-269.86 354.83,-259.01"/>
<polygon fill="midnightblue" stroke="midnightblue" points="356.3,-255.83 345.78,-254.52 353.19,-262.1 356.3,-255.83"/>
</g>
<!-- Node24 -->
<g id="node24" class="node">
<title>Node24</title>
<g id="a_node24"><a xlink:title=" ">
<polygon fill="white" stroke="#bfbfbf" points="368,-168.5 368,-187.5 507,-187.5 507,-168.5 368,-168.5"/>
<text text-anchor="middle" x="437.5" y="-175.5" font-family="Helvetica,sans-Serif" font-size="10.00">Ancillary/FunctionTraits.h</text>
</a>
</g>
</g>
<!-- Node17&#45;&gt;Node24 -->
<g id="edge41" class="edge">
<title>Node17&#45;&gt;Node24</title>
<path fill="none" stroke="midnightblue" d="M437.5,-291.3C437.5,-271.85 437.5,-224.49 437.5,-197.9"/>
<polygon fill="midnightblue" stroke="midnightblue" points="441,-197.62 437.5,-187.62 434,-197.62 441,-197.62"/>
</g>
<!-- Node18&#45;&gt;Node3 -->
<g id="edge33" class="edge">
<title>Node18&#45;&gt;Node3</title>
<path fill="none" stroke="midnightblue" d="M393.57,-234.49C463.4,-229.1 568.98,-216.63 656.5,-188 674.64,-182.07 677.16,-175.97 694.5,-168 772.22,-132.28 866.42,-96.96 915.7,-79.07"/>
<polygon fill="midnightblue" stroke="midnightblue" points="917.02,-82.31 925.23,-75.62 914.64,-75.73 917.02,-82.31"/>
</g>
<!-- Node18&#45;&gt;Node9 -->
<g id="edge25" class="edge">
<title>Node18&#45;&gt;Node9</title>
<path fill="none" stroke="midnightblue" d="M241.33,-232.07C208.11,-225.6 171.02,-212.87 145.5,-188 120.64,-163.77 105.87,-139.15 127.5,-112 175.1,-52.24 405.39,-24.92 512.5,-15.3"/>
<polygon fill="midnightblue" stroke="midnightblue" points="512.82,-18.78 522.47,-14.42 512.21,-11.81 512.82,-18.78"/>
</g>
<!-- Node19 -->
<g id="node19" class="node">
<title>Node19</title>
<g id="a_node19"><a xlink:href="sitkPixelIDTypes_8h.html" target="_top" xlink:title=" ">
<polygon fill="white" stroke="black" points="137,-112.5 137,-131.5 242,-131.5 242,-112.5 137,-112.5"/>
<text text-anchor="middle" x="189.5" y="-119.5" font-family="Helvetica,sans-Serif" font-size="10.00">sitkPixelIDTypes.h</text>
</a>
</g>
</g>
<!-- Node18&#45;&gt;Node19 -->
<g id="edge26" class="edge">
<title>Node18&#45;&gt;Node19</title>
<path fill="none" stroke="midnightblue" d="M241.15,-234.42C208.71,-228.44 173.76,-215.44 153.5,-188 141.8,-172.15 156.87,-152.08 170.94,-138.46"/>
<polygon fill="midnightblue" stroke="midnightblue" points="173.41,-140.94 178.47,-131.63 168.71,-135.76 173.41,-140.94"/>
</g>
<!-- Node20 -->
<g id="node20" class="node">
<title>Node20</title>
<g id="a_node20"><a xlink:href="sitkPixelIDTypeLists_8h.html" target="_top" xlink:title=" ">
<polygon fill="white" stroke="black" points="525.5,-168.5 525.5,-187.5 647.5,-187.5 647.5,-168.5 525.5,-168.5"/>
<text text-anchor="middle" x="586.5" y="-175.5" font-family="Helvetica,sans-Serif" font-size="10.00">sitkPixelIDTypeLists.h</text>
</a>
</g>
</g>
<!-- Node18&#45;&gt;Node20 -->
<g id="edge27" class="edge">
<title>Node18&#45;&gt;Node20</title>
<path fill="none" stroke="midnightblue" d="M380.91,-224.47C429.04,-213.83 494.21,-199.41 538.17,-189.69"/>
<polygon fill="midnightblue" stroke="midnightblue" points="539.03,-193.08 548.04,-187.51 537.52,-186.25 539.03,-193.08"/>
</g>
<!-- Node21 -->
<g id="node21" class="node">
<title>Node21</title>
<g id="a_node21"><a xlink:title=" ">
<polygon fill="white" stroke="#bfbfbf" points="344,-112.5 344,-131.5 455,-131.5 455,-112.5 344,-112.5"/>
<text text-anchor="middle" x="399.5" y="-119.5" font-family="Helvetica,sans-Serif" font-size="10.00">Ancillary/TypeList.h</text>
</a>
</g>
</g>
<!-- Node18&#45;&gt;Node21 -->
<g id="edge36" class="edge">
<title>Node18&#45;&gt;Node21</title>
<path fill="none" stroke="midnightblue" d="M241.44,-228.77C190.52,-219.09 137.39,-200.8 164.5,-168 185.65,-142.41 272.02,-131.23 333.9,-126.45"/>
<polygon fill="midnightblue" stroke="midnightblue" points="334.28,-129.93 344,-125.7 333.77,-122.95 334.28,-129.93"/>
</g>
<!-- Node23 -->
<g id="node23" class="node">
<title>Node23</title>
<g id="a_node23"><a xlink:href="sitkNonCopyable_8h.html" target="_top" xlink:title=" ">
<polygon fill="white" stroke="black" points="704,-168.5 704,-187.5 813,-187.5 813,-168.5 704,-168.5"/>
<text text-anchor="middle" x="758.5" y="-175.5" font-family="Helvetica,sans-Serif" font-size="10.00">sitkNonCopyable.h</text>
</a>
</g>
</g>
<!-- Node18&#45;&gt;Node23 -->
<g id="edge34" class="edge">
<title>Node18&#45;&gt;Node23</title>
<path fill="none" stroke="midnightblue" d="M393.56,-228.24C478.39,-216.79 614.14,-198.48 693.98,-187.71"/>
<polygon fill="midnightblue" stroke="midnightblue" points="694.47,-191.17 703.91,-186.37 693.53,-184.23 694.47,-191.17"/>
</g>
<!-- Node18&#45;&gt;Node24 -->
<g id="edge37" class="edge">
<title>Node18&#45;&gt;Node24</title>
<path fill="none" stroke="midnightblue" d="M345.94,-224.4C365.62,-214.64 391.64,-201.74 410.91,-192.18"/>
<polygon fill="midnightblue" stroke="midnightblue" points="412.63,-195.24 420.04,-187.66 409.52,-188.96 412.63,-195.24"/>
</g>
<!-- Node25 -->
<g id="node25" class="node">
<title>Node25</title>
<g id="a_node25"><a xlink:title=" ">
<polygon fill="white" stroke="#bfbfbf" points="174,-168.5 174,-187.5 267,-187.5 267,-168.5 174,-168.5"/>
<text text-anchor="middle" x="220.5" y="-175.5" font-family="Helvetica,sans-Serif" font-size="10.00">unordered_map</text>
</a>
</g>
</g>
<!-- Node18&#45;&gt;Node25 -->
<g id="edge38" class="edge">
<title>Node18&#45;&gt;Node25</title>
<path fill="none" stroke="midnightblue" d="M294.51,-224.4C279.11,-214.95 258.91,-202.56 243.5,-193.11"/>
<polygon fill="midnightblue" stroke="midnightblue" points="244.97,-189.9 234.61,-187.66 241.31,-195.87 244.97,-189.9"/>
</g>
<!-- Node26 -->
<g id="node26" class="node">
<title>Node26</title>
<g id="a_node26"><a xlink:title=" ">
<polygon fill="white" stroke="#bfbfbf" points="285,-168.5 285,-187.5 350,-187.5 350,-168.5 285,-168.5"/>
<text text-anchor="middle" x="317.5" y="-175.5" font-family="Helvetica,sans-Serif" font-size="10.00">functional</text>
</a>
</g>
</g>
<!-- Node18&#45;&gt;Node26 -->
<g id="edge39" class="edge">
<title>Node18&#45;&gt;Node26</title>
<path fill="none" stroke="midnightblue" d="M317.5,-224.4C317.5,-216.47 317.5,-206.46 317.5,-197.86"/>
<polygon fill="midnightblue" stroke="midnightblue" points="321,-197.66 317.5,-187.66 314,-197.66 321,-197.66"/>
</g>
<!-- Node27 -->
<g id="node27" class="node">
<title>Node27</title>
<g id="a_node27"><a xlink:title=" ">
<polygon fill="white" stroke="#bfbfbf" points="0,-168.5 0,-187.5 41,-187.5 41,-168.5 0,-168.5"/>
<text text-anchor="middle" x="20.5" y="-175.5" font-family="Helvetica,sans-Serif" font-size="10.00">tuple</text>
</a>
</g>
</g>
<!-- Node18&#45;&gt;Node27 -->
<g id="edge40" class="edge">
<title>Node18&#45;&gt;Node27</title>
<path fill="none" stroke="midnightblue" d="M241.29,-225.08C188.87,-215.55 117.76,-201.99 55.5,-188 54.05,-187.67 52.56,-187.33 51.06,-186.98"/>
<polygon fill="midnightblue" stroke="midnightblue" points="51.72,-183.53 41.18,-184.54 50.05,-190.33 51.72,-183.53"/>
</g>
<!-- Node20&#45;&gt;Node4 -->
<g id="edge28" class="edge">
<title>Node20&#45;&gt;Node4</title>
<path fill="none" stroke="midnightblue" d="M594.51,-168.08C618.47,-141.38 689.84,-61.87 720.85,-27.32"/>
<polygon fill="midnightblue" stroke="midnightblue" points="723.73,-29.35 727.81,-19.57 718.52,-24.67 723.73,-29.35"/>
</g>
<!-- Node20&#45;&gt;Node9 -->
<g id="edge29" class="edge">
<title>Node20&#45;&gt;Node9</title>
<path fill="none" stroke="midnightblue" d="M574.29,-168.24C564.15,-160.14 550.46,-147.11 544.5,-132 530.64,-96.84 546.88,-52.55 558.27,-28.5"/>
<polygon fill="midnightblue" stroke="midnightblue" points="561.42,-30.03 562.75,-19.52 555.15,-26.9 561.42,-30.03"/>
</g>
<!-- Node20&#45;&gt;Node19 -->
<g id="edge30" class="edge">
<title>Node20&#45;&gt;Node19</title>
<path fill="none" stroke="midnightblue" d="M525.34,-168.68C451.28,-158.61 327.2,-141.73 252.38,-131.55"/>
<polygon fill="midnightblue" stroke="midnightblue" points="252.54,-128.04 242.16,-130.16 251.6,-134.98 252.54,-128.04"/>
</g>
<!-- Node20&#45;&gt;Node21 -->
<g id="edge31" class="edge">
<title>Node20&#45;&gt;Node21</title>
<path fill="none" stroke="midnightblue" d="M556.87,-168.44C525,-159.24 474.17,-144.56 438.94,-134.39"/>
<polygon fill="midnightblue" stroke="midnightblue" points="439.57,-130.93 428.99,-131.52 437.63,-137.65 439.57,-130.93"/>
</g>
<!-- Node22 -->
<g id="node22" class="node">
<title>Node22</title>
<g id="a_node22"><a xlink:title=" ">
<polygon fill="white" stroke="#bfbfbf" points="554,-112.5 554,-131.5 613,-131.5 613,-112.5 554,-112.5"/>
<text text-anchor="middle" x="583.5" y="-119.5" font-family="Helvetica,sans-Serif" font-size="10.00">complex</text>
</a>
</g>
</g>
<!-- Node20&#45;&gt;Node22 -->
<g id="edge32" class="edge">
<title>Node20&#45;&gt;Node22</title>
<path fill="none" stroke="midnightblue" d="M586,-168.08C585.61,-161.01 585.05,-150.86 584.55,-141.99"/>
<polygon fill="midnightblue" stroke="midnightblue" points="588.04,-141.54 583.99,-131.75 581.05,-141.93 588.04,-141.54"/>
</g>
<!-- Node23&#45;&gt;Node2 -->
<g id="edge35" class="edge">
<title>Node23&#45;&gt;Node2</title>
<path fill="none" stroke="midnightblue" d="M813.24,-168.86C881.91,-158.64 998.93,-141.23 1067.33,-131.06"/>
<polygon fill="midnightblue" stroke="midnightblue" points="1068.09,-134.48 1077.46,-129.55 1067.06,-127.56 1068.09,-134.48"/>
</g>
<!-- Node28&#45;&gt;Node9 -->
<g id="edge43" class="edge">
<title>Node28&#45;&gt;Node9</title>
<path fill="none" stroke="midnightblue" d="M942.79,-291.4C908.5,-274.96 841.5,-235.59 841.5,-179 841.5,-179 841.5,-179 841.5,-121 841.5,-74.3 702.7,-38.35 622.67,-21.51"/>
<polygon fill="midnightblue" stroke="midnightblue" points="623.25,-18.05 612.75,-19.45 621.83,-24.91 623.25,-18.05"/>
</g>
<!-- Node29 -->
<g id="node29" class="node">
<title>Node29</title>
<g id="a_node29"><a xlink:href="sitkPixelIDValues_8h.html" target="_top" xlink:title=" ">
<polygon fill="white" stroke="black" points="907.5,-230 907.5,-249 1017.5,-249 1017.5,-230 907.5,-230"/>
<text text-anchor="middle" x="962.5" y="-237" font-family="Helvetica,sans-Serif" font-size="10.00">sitkPixelIDValues.h</text>
</a>
</g>
</g>
<!-- Node28&#45;&gt;Node29 -->
<g id="edge44" class="edge">
<title>Node28&#45;&gt;Node29</title>
<path fill="none" stroke="midnightblue" d="M962.5,-291.48C962.5,-283.08 962.5,-269.98 962.5,-259.16"/>
<polygon fill="midnightblue" stroke="midnightblue" points="966,-259.01 962.5,-249.01 959,-259.01 966,-259.01"/>
</g>
<!-- Node28&#45;&gt;Node31 -->
<g id="edge49" class="edge">
<title>Node28&#45;&gt;Node31</title>
<path fill="none" stroke="midnightblue" d="M977.97,-291.48C995.78,-281.67 1025.24,-265.43 1046.13,-253.92"/>
<polygon fill="midnightblue" stroke="midnightblue" points="1047.99,-256.9 1055.05,-249.01 1044.61,-250.77 1047.99,-256.9"/>
</g>
<!-- Node29&#45;&gt;Node2 -->
<g id="edge45" class="edge">
<title>Node29&#45;&gt;Node2</title>
<path fill="none" stroke="midnightblue" d="M985.57,-229.91C1007.02,-221.27 1039.21,-206.58 1063.5,-188 1081.63,-174.13 1098.55,-154.02 1109.37,-139.85"/>
<polygon fill="midnightblue" stroke="midnightblue" points="1112.41,-141.63 1115.56,-131.52 1106.79,-137.46 1112.41,-141.63"/>
</g>
<!-- Node29&#45;&gt;Node15 -->
<g id="edge48" class="edge">
<title>Node29&#45;&gt;Node15</title>
<path fill="none" stroke="midnightblue" d="M997.6,-229.98C1006.96,-227.86 1017.08,-225.71 1026.5,-224 1138.56,-203.62 1170.65,-209.18 1286.92,-187.93"/>
<polygon fill="midnightblue" stroke="midnightblue" points="1287.73,-191.34 1296.93,-186.08 1286.46,-184.46 1287.73,-191.34"/>
</g>
<!-- Node29&#45;&gt;Node20 -->
<g id="edge46" class="edge">
<title>Node29&#45;&gt;Node20</title>
<path fill="none" stroke="midnightblue" d="M908.63,-229.98C840.36,-219.17 722.86,-200.58 650.21,-189.08"/>
<polygon fill="midnightblue" stroke="midnightblue" points="650.7,-185.62 640.27,-187.51 649.6,-192.53 650.7,-185.62"/>
</g>
<!-- Node30 -->
<g id="node30" class="node">
<title>Node30</title>
<g id="a_node30"><a xlink:title=" ">
<polygon fill="white" stroke="#bfbfbf" points="869.5,-168.5 869.5,-187.5 913.5,-187.5 913.5,-168.5 869.5,-168.5"/>
<text text-anchor="middle" x="891.5" y="-175.5" font-family="Helvetica,sans-Serif" font-size="10.00">string</text>
</a>
</g>
</g>
<!-- Node29&#45;&gt;Node30 -->
<g id="edge47" class="edge">
<title>Node29&#45;&gt;Node30</title>
<path fill="none" stroke="midnightblue" d="M952.33,-229.98C941.15,-220.61 922.98,-205.38 909.41,-194.01"/>
<polygon fill="midnightblue" stroke="midnightblue" points="911.57,-191.25 901.65,-187.51 907.07,-196.61 911.57,-191.25"/>
</g>
<!-- Node33&#45;&gt;Node2 -->
<g id="edge55" class="edge">
<title>Node33&#45;&gt;Node2</title>
<path fill="none" stroke="midnightblue" d="M1501.95,-229.82C1496.96,-214.5 1484.32,-182.87 1461.5,-168 1415.52,-138.05 1259.51,-127.9 1175.74,-124.56"/>
<polygon fill="midnightblue" stroke="midnightblue" points="1175.77,-121.06 1165.64,-124.18 1175.5,-128.06 1175.77,-121.06"/>
</g>
<!-- Node33&#45;&gt;Node15 -->
<g id="edge56" class="edge">
<title>Node33&#45;&gt;Node15</title>
<path fill="none" stroke="midnightblue" d="M1478.85,-229.98C1447.88,-219.68 1395.63,-202.31 1360.85,-190.75"/>
<polygon fill="midnightblue" stroke="midnightblue" points="1361.69,-187.34 1351.1,-187.51 1359.48,-193.98 1361.69,-187.34"/>
</g>
</g>
</svg>
        <g id="navigator" transform="translate(0 0)" fill="#404254">
                <rect fill="#f2f5e9" fill-opacity="0.5" stroke="#606060" stroke-width=".5" x="0" y="0" width="60" height="60"/>
                <use id="zoomplus" xlink:href="#zoomPlus" x="17" y="9" onmousedown="handleZoom(evt,'in')"/>
                <use id="zoomminus" xlink:href="#zoomMin" x="42" y="9" onmousedown="handleZoom(evt,'out')"/>
                <use id="reset" xlink:href="#resetDef" x="30" y="36" onmousedown="handleReset()"/>
                <g id="arrowUp" xlink:href="#dirArrow" transform="translate(30 24)" onmousedown="handlePan(0,-1)">
                  <use xlink:href="#rim" fill="#404040">
                        <set attributeName="fill" to="#808080" begin="arrowUp.mouseover" end="arrowUp.mouseout"/>
                  </use>
                  <path fill="none" stroke="white" stroke-width="1.5" d="M0,-3.0v7 M-2.5,-0.5L0,-3.0L2.5,-0.5"/>
                </g>
                <g id="arrowRight" xlink:href="#dirArrow" transform="rotate(90) translate(36 -43)" onmousedown="handlePan(1,0)">
                  <use xlink:href="#rim" fill="#404040">
                        <set attributeName="fill" to="#808080" begin="arrowRight.mouseover" end="arrowRight.mouseout"/>
                  </use>
                  <path fill="none" stroke="white" stroke-width="1.5" d="M0,-3.0v7 M-2.5,-0.5L0,-3.0L2.5,-0.5"/>
                </g>
                <g id="arrowDown" xlink:href="#dirArrow" transform="rotate(180) translate(-30 -48)" onmousedown="handlePan(0,1)">
                  <use xlink:href="#rim" fill="#404040">
                        <set attributeName="fill" to="#808080" begin="arrowDown.mouseover" end="arrowDown.mouseout"/>
                  </use>
                  <path fill="none" stroke="white" stroke-width="1.5" d="M0,-3.0v7 M-2.5,-0.5L0,-3.0L2.5,-0.5"/>
                </g>
                <g id="arrowLeft" xlink:href="#dirArrow" transform="rotate(270) translate(-36 17)" onmousedown="handlePan(-1,0)">
                  <use xlink:href="#rim" fill="#404040">
                        <set attributeName="fill" to="#808080" begin="arrowLeft.mouseover" end="arrowLeft.mouseout"/>
                  </use>
                  <path fill="none" stroke="white" stroke-width="1.5" d="M0,-3.0v7 M-2.5,-0.5L0,-3.0L2.5,-0.5"/>
                </g>
        </g>
        <svg viewBox="0 0 15 15" width="100%" height="30px" preserveAspectRatio="xMaxYMin meet">
         <g id="arrow_out" transform="scale(0.3 0.3)">
          <a xlink:href="sitkDisplacementFieldTransform_8h__incl_org.svg" target="_base">
           <rect id="button" ry="5" rx="5" y="6" x="6" height="38" width="38"
                fill="#f2f5e9" fill-opacity="0.5" stroke="#606060" stroke-width="1.0"/>
           <path id="arrow"
             d="M 11.500037,31.436501 C 11.940474,20.09759 22.043105,11.32322 32.158766,21.979434 L 37.068811,17.246167 C 37.068811,17.246167 37.088388,32 37.088388,32 L 22.160133,31.978069 C 22.160133,31.978069 26.997745,27.140456 26.997745,27.140456 C 18.528582,18.264221 13.291696,25.230495 11.500037,31.436501 z"
             style="fill:#404040;"/>
          </a>
         </g>
        </svg>
</svg>
