<?xml version="1.0" encoding="UTF-8" standalone="no"?>
<!DOCTYPE svg PUBLIC "-//W3C//DTD SVG 1.1//EN"
 "http://www.w3.org/Graphics/SVG/1.1/DTD/svg11.dtd">
<!-- Generated by graphviz version 2.43.0 (0)
 -->
<!-- Title: sitkTransform.h Pages: 1 -->
<!--zoomable 431 -->
<svg id="main" version="1.1" xmlns="http://www.w3.org/2000/svg" xmlns:xlink="http://www.w3.org/1999/xlink" xml:space="preserve" onload="init(evt)">
<style type="text/css"><![CDATA[
.edge:hover path { stroke: red; }
.edge:hover polygon { stroke: red; fill: red; }
]]></style>
<script type="text/javascript"><![CDATA[
var edges = document.getElementsByTagName('g');
if (edges && edges.length) {
  for (var i=0;i<edges.length;i++) {
    if (edges[i].id.substr(0,4)=='edge') {
      edges[i].setAttribute('class','edge');
    }
  }
}
]]></script>
        <defs>
                <circle id="rim" cx="0" cy="0" r="7"/>
                <circle id="rim2" cx="0" cy="0" r="3.5"/>
                <g id="zoomPlus">
                        <use xlink:href="#rim" fill="#404040">
                                <set attributeName="fill" to="#808080" begin="zoomplus.mouseover" end="zoomplus.mouseout"/>
                        </use>
                        <path d="M-4,0h8M0,-4v8" fill="none" stroke="white" stroke-width="1.5" pointer-events="none"/>
                </g>
                <g id="zoomMin">
                        <use xlink:href="#rim" fill="#404040">
                                <set attributeName="fill" to="#808080" begin="zoomminus.mouseover" end="zoomminus.mouseout"/>
                        </use>
                        <path d="M-4,0h8" fill="none" stroke="white" stroke-width="1.5" pointer-events="none"/>
                </g>
                <g id="dirArrow">
                        <path fill="none" stroke="white" stroke-width="1.5" d="M0,-3.0v7 M-2.5,-0.5L0,-3.0L2.5,-0.5"/>
                </g>
               <g id="resetDef">
                       <use xlink:href="#rim2" fill="#404040">
                               <set attributeName="fill" to="#808080" begin="reset.mouseover" end="reset.mouseout"/>
                       </use>
               </g>
        </defs>

<script type="text/javascript">
var viewWidth = 1409;
var viewHeight = 431;
var sectionId = 'dynsection-0';
</script>
<script xlink:href="svgpan.js"/>
<svg id="graph" class="graph">
<g id="viewport">
<title>sitkTransform.h</title>
<polygon fill="white" stroke="transparent" points="-4,4 -4,-427 1404.92,-427 1404.92,4 -4,4"/>
<!-- Node1 -->
<g id="node1" class="node">
<title>Node1</title>
<g id="a_node1"><a xlink:title=" ">
<polygon fill="#bfbfbf" stroke="black" points="317.42,-403.5 317.42,-422.5 409.42,-422.5 409.42,-403.5 317.42,-403.5"/>
<text text-anchor="middle" x="363.42" y="-410.5" font-family="Helvetica,sans-Serif" font-size="10.00">sitkTransform.h</text>
</a>
</g>
</g>
<!-- Node2 -->
<g id="node2" class="node">
<title>Node2</title>
<g id="a_node2"><a xlink:href="sitkCommon_8h.html" target="_top" xlink:title=" ">
<polygon fill="white" stroke="black" points="286.42,-112.5 286.42,-131.5 374.42,-131.5 374.42,-112.5 286.42,-112.5"/>
<text text-anchor="middle" x="330.42" y="-119.5" font-family="Helvetica,sans-Serif" font-size="10.00">sitkCommon.h</text>
</a>
</g>
</g>
<!-- Node1&#45;&gt;Node2 -->
<g id="edge1" class="edge">
<title>Node1&#45;&gt;Node2</title>
<path fill="none" stroke="midnightblue" d="M317.15,-407.81C237.11,-397.73 75.18,-364.17 10.42,-255 -49.66,-153.71 169.78,-130.14 275.99,-124.66"/>
<polygon fill="midnightblue" stroke="midnightblue" points="276.38,-128.15 286.2,-124.17 276.05,-121.15 276.38,-128.15"/>
</g>
<!-- Node10 -->
<g id="node10" class="node">
<title>Node10</title>
<g id="a_node10"><a xlink:href="sitkExceptionObject_8h.html" target="_top" xlink:title=" ">
<polygon fill="white" stroke="black" points="19.92,-230 19.92,-249 142.92,-249 142.92,-230 19.92,-230"/>
<text text-anchor="middle" x="81.42" y="-237" font-family="Helvetica,sans-Serif" font-size="10.00">sitkExceptionObject.h</text>
</a>
</g>
</g>
<!-- Node1&#45;&gt;Node10 -->
<g id="edge9" class="edge">
<title>Node1&#45;&gt;Node10</title>
<path fill="none" stroke="midnightblue" d="M340.61,-403.38C301.31,-387.99 219.15,-353.4 157.42,-311 134.14,-295.01 110.84,-272.13 96.3,-256.82"/>
<polygon fill="midnightblue" stroke="midnightblue" points="98.56,-254.1 89.18,-249.18 93.44,-258.88 98.56,-254.1"/>
</g>
<!-- Node12 -->
<g id="node12" class="node">
<title>Node12</title>
<g id="a_node12"><a xlink:href="sitkImage_8h.html" target="_top" xlink:title=" ">
<polygon fill="white" stroke="black" points="402.42,-347.5 402.42,-366.5 476.42,-366.5 476.42,-347.5 402.42,-347.5"/>
<text text-anchor="middle" x="439.42" y="-354.5" font-family="Helvetica,sans-Serif" font-size="10.00">sitkImage.h</text>
</a>
</g>
</g>
<!-- Node1&#45;&gt;Node12 -->
<g id="edge13" class="edge">
<title>Node1&#45;&gt;Node12</title>
<path fill="none" stroke="midnightblue" d="M375.64,-403.32C387.2,-395.11 404.8,-382.6 418.59,-372.81"/>
<polygon fill="midnightblue" stroke="midnightblue" points="420.87,-375.48 426.99,-366.83 416.81,-369.77 420.87,-375.48"/>
</g>
<!-- Node14 -->
<g id="node14" class="node">
<title>Node14</title>
<g id="a_node14"><a xlink:title=" ">
<polygon fill="white" stroke="#bfbfbf" points="347.92,-230 347.92,-249 394.92,-249 394.92,-230 347.92,-230"/>
<text text-anchor="middle" x="371.42" y="-237" font-family="Helvetica,sans-Serif" font-size="10.00">vector</text>
</a>
</g>
</g>
<!-- Node1&#45;&gt;Node14 -->
<g id="edge57" class="edge">
<title>Node1&#45;&gt;Node14</title>
<path fill="none" stroke="midnightblue" d="M363.83,-403.26C365.07,-376.65 368.83,-296.21 370.55,-259.34"/>
<polygon fill="midnightblue" stroke="midnightblue" points="374.06,-259.17 371.03,-249.02 367.07,-258.85 374.06,-259.17"/>
</g>
<!-- Node33 -->
<g id="node33" class="node">
<title>Node33</title>
<g id="a_node33"><a xlink:href="sitkPathType_8h.html" target="_top" xlink:title=" ">
<polygon fill="white" stroke="black" points="663.92,-347.5 663.92,-366.5 750.92,-366.5 750.92,-347.5 663.92,-347.5"/>
<text text-anchor="middle" x="707.42" y="-354.5" font-family="Helvetica,sans-Serif" font-size="10.00">sitkPathType.h</text>
</a>
</g>
</g>
<!-- Node1&#45;&gt;Node33 -->
<g id="edge55" class="edge">
<title>Node1&#45;&gt;Node33</title>
<path fill="none" stroke="midnightblue" d="M409.46,-404.77C472.85,-394.82 586.76,-376.94 653.88,-366.41"/>
<polygon fill="midnightblue" stroke="midnightblue" points="654.5,-369.85 663.83,-364.84 653.41,-362.94 654.5,-369.85"/>
</g>
<!-- Node3 -->
<g id="node3" class="node">
<title>Node3</title>
<g id="a_node3"><a xlink:href="sitkMacro_8h.html" target="_top" xlink:title=" ">
<polygon fill="white" stroke="black" points="324.42,-56.5 324.42,-75.5 398.42,-75.5 398.42,-56.5 324.42,-56.5"/>
<text text-anchor="middle" x="361.42" y="-63.5" font-family="Helvetica,sans-Serif" font-size="10.00">sitkMacro.h</text>
</a>
</g>
</g>
<!-- Node2&#45;&gt;Node3 -->
<g id="edge2" class="edge">
<title>Node2&#45;&gt;Node3</title>
<path fill="none" stroke="midnightblue" d="M335.54,-112.08C339.83,-104.61 346.08,-93.72 351.37,-84.52"/>
<polygon fill="midnightblue" stroke="midnightblue" points="354.46,-86.17 356.4,-75.75 348.39,-82.68 354.46,-86.17"/>
</g>
<!-- Node4 -->
<g id="node4" class="node">
<title>Node4</title>
<g id="a_node4"><a xlink:title=" ">
<polygon fill="white" stroke="#bfbfbf" points="627.92,-0.5 627.92,-19.5 680.92,-19.5 680.92,-0.5 627.92,-0.5"/>
<text text-anchor="middle" x="654.42" y="-7.5" font-family="Helvetica,sans-Serif" font-size="10.00">stdint.h</text>
</a>
</g>
</g>
<!-- Node3&#45;&gt;Node4 -->
<g id="edge3" class="edge">
<title>Node3&#45;&gt;Node4</title>
<path fill="none" stroke="midnightblue" d="M398.53,-58.16C454.93,-47.77 561.56,-28.12 617.71,-17.77"/>
<polygon fill="midnightblue" stroke="midnightblue" points="618.39,-21.2 627.59,-15.95 617.12,-14.32 618.39,-21.2"/>
</g>
<!-- Node5 -->
<g id="node5" class="node">
<title>Node5</title>
<g id="a_node5"><a xlink:title=" ">
<polygon fill="white" stroke="#bfbfbf" points="225.42,-0.5 225.42,-19.5 281.42,-19.5 281.42,-0.5 225.42,-0.5"/>
<text text-anchor="middle" x="253.42" y="-7.5" font-family="Helvetica,sans-Serif" font-size="10.00">stddef.h</text>
</a>
</g>
</g>
<!-- Node3&#45;&gt;Node5 -->
<g id="edge4" class="edge">
<title>Node3&#45;&gt;Node5</title>
<path fill="none" stroke="midnightblue" d="M344.07,-56.32C326.75,-47.66 299.91,-34.24 279.92,-24.25"/>
<polygon fill="midnightblue" stroke="midnightblue" points="281.24,-21 270.73,-19.65 278.11,-27.26 281.24,-21"/>
</g>
<!-- Node6 -->
<g id="node6" class="node">
<title>Node6</title>
<g id="a_node6"><a xlink:title=" ">
<polygon fill="white" stroke="#bfbfbf" points="299.42,-0.5 299.42,-19.5 351.42,-19.5 351.42,-0.5 299.42,-0.5"/>
<text text-anchor="middle" x="325.42" y="-7.5" font-family="Helvetica,sans-Serif" font-size="10.00">cassert</text>
</a>
</g>
</g>
<!-- Node3&#45;&gt;Node6 -->
<g id="edge5" class="edge">
<title>Node3&#45;&gt;Node6</title>
<path fill="none" stroke="midnightblue" d="M355.48,-56.08C350.45,-48.53 343.09,-37.49 336.91,-28.23"/>
<polygon fill="midnightblue" stroke="midnightblue" points="339.72,-26.13 331.26,-19.75 333.89,-30.01 339.72,-26.13"/>
</g>
<!-- Node7 -->
<g id="node7" class="node">
<title>Node7</title>
<g id="a_node7"><a xlink:title=" ">
<polygon fill="white" stroke="#bfbfbf" points="369.42,-0.5 369.42,-19.5 425.42,-19.5 425.42,-0.5 369.42,-0.5"/>
<text text-anchor="middle" x="397.42" y="-7.5" font-family="Helvetica,sans-Serif" font-size="10.00">sstream</text>
</a>
</g>
</g>
<!-- Node3&#45;&gt;Node7 -->
<g id="edge6" class="edge">
<title>Node3&#45;&gt;Node7</title>
<path fill="none" stroke="midnightblue" d="M367.37,-56.08C372.4,-48.53 379.76,-37.49 385.94,-28.23"/>
<polygon fill="midnightblue" stroke="midnightblue" points="388.96,-30.01 391.59,-19.75 383.13,-26.13 388.96,-30.01"/>
</g>
<!-- Node8 -->
<g id="node8" class="node">
<title>Node8</title>
<g id="a_node8"><a xlink:title=" ">
<polygon fill="white" stroke="#bfbfbf" points="443.42,-0.5 443.42,-19.5 487.42,-19.5 487.42,-0.5 443.42,-0.5"/>
<text text-anchor="middle" x="465.42" y="-7.5" font-family="Helvetica,sans-Serif" font-size="10.00">limits</text>
</a>
</g>
</g>
<!-- Node3&#45;&gt;Node8 -->
<g id="edge7" class="edge">
<title>Node3&#45;&gt;Node8</title>
<path fill="none" stroke="midnightblue" d="M378.13,-56.32C394.74,-47.7 420.43,-34.36 439.65,-24.39"/>
<polygon fill="midnightblue" stroke="midnightblue" points="441.49,-27.37 448.76,-19.65 438.27,-21.16 441.49,-27.37"/>
</g>
<!-- Node9 -->
<g id="node9" class="node">
<title>Node9</title>
<g id="a_node9"><a xlink:href="sitkConfigure_8h.html" target="_top" xlink:title=" ">
<polygon fill="white" stroke="black" points="760.42,-0.5 760.42,-19.5 850.42,-19.5 850.42,-0.5 760.42,-0.5"/>
<text text-anchor="middle" x="805.42" y="-7.5" font-family="Helvetica,sans-Serif" font-size="10.00">sitkConfigure.h</text>
</a>
</g>
</g>
<!-- Node3&#45;&gt;Node9 -->
<g id="edge8" class="edge">
<title>Node3&#45;&gt;Node9</title>
<path fill="none" stroke="midnightblue" d="M398.52,-60.49C476.66,-50.98 658.57,-28.86 750.36,-17.7"/>
<polygon fill="midnightblue" stroke="midnightblue" points="750.79,-21.17 760.29,-16.49 749.94,-14.22 750.79,-21.17"/>
</g>
<!-- Node10&#45;&gt;Node2 -->
<g id="edge11" class="edge">
<title>Node10&#45;&gt;Node2</title>
<path fill="none" stroke="midnightblue" d="M87.9,-229.63C99.36,-214.58 124.75,-184.11 153.42,-168 191.45,-146.63 239.72,-135.24 276.24,-129.26"/>
<polygon fill="midnightblue" stroke="midnightblue" points="276.87,-132.71 286.22,-127.72 275.8,-125.79 276.87,-132.71"/>
</g>
<!-- Node10&#45;&gt;Node3 -->
<g id="edge10" class="edge">
<title>Node10&#45;&gt;Node3</title>
<path fill="none" stroke="midnightblue" d="M84.47,-229.95C90.05,-215.38 103.24,-185.61 123.42,-168 179.39,-119.17 262.44,-91.27 314.18,-77.64"/>
<polygon fill="midnightblue" stroke="midnightblue" points="315.27,-80.97 324.09,-75.1 313.54,-74.19 315.27,-80.97"/>
</g>
<!-- Node11 -->
<g id="node11" class="node">
<title>Node11</title>
<g id="a_node11"><a xlink:title=" ">
<polygon fill="white" stroke="#bfbfbf" points="195.42,-168.5 195.42,-187.5 253.42,-187.5 253.42,-168.5 195.42,-168.5"/>
<text text-anchor="middle" x="224.42" y="-175.5" font-family="Helvetica,sans-Serif" font-size="10.00">memory</text>
</a>
</g>
</g>
<!-- Node10&#45;&gt;Node11 -->
<g id="edge12" class="edge">
<title>Node10&#45;&gt;Node11</title>
<path fill="none" stroke="midnightblue" d="M101.91,-229.98C126.23,-219.86 166.97,-202.9 194.74,-191.35"/>
<polygon fill="midnightblue" stroke="midnightblue" points="196.09,-194.58 203.97,-187.51 193.4,-188.12 196.09,-194.58"/>
</g>
<!-- Node12&#45;&gt;Node2 -->
<g id="edge14" class="edge">
<title>Node12&#45;&gt;Node2</title>
<path fill="none" stroke="midnightblue" d="M402.26,-354.8C339.7,-351.92 217.48,-342.34 190.42,-311 148.87,-262.88 148.76,-219.23 186.42,-168 206.93,-140.1 244.66,-129.02 276.35,-124.82"/>
<polygon fill="midnightblue" stroke="midnightblue" points="276.86,-128.29 286.4,-123.69 276.07,-121.33 276.86,-128.29"/>
</g>
<!-- Node12&#45;&gt;Node11 -->
<g id="edge53" class="edge">
<title>Node12&#45;&gt;Node11</title>
<path fill="none" stroke="midnightblue" d="M439.9,-347.47C440.7,-324.12 439.54,-258.62 404.42,-224 384.75,-204.6 310.63,-191 263.86,-184.13"/>
<polygon fill="midnightblue" stroke="midnightblue" points="264.15,-180.64 253.75,-182.69 263.16,-187.57 264.15,-180.64"/>
</g>
<!-- Node13 -->
<g id="node13" class="node">
<title>Node13</title>
<g id="a_node13"><a xlink:href="sitkTemplateFunctions_8h.html" target="_top" xlink:title=" ">
<polygon fill="white" stroke="black" points="199.92,-291.5 199.92,-310.5 334.92,-310.5 334.92,-291.5 199.92,-291.5"/>
<text text-anchor="middle" x="267.42" y="-298.5" font-family="Helvetica,sans-Serif" font-size="10.00">sitkTemplateFunctions.h</text>
</a>
</g>
</g>
<!-- Node12&#45;&gt;Node13 -->
<g id="edge15" class="edge">
<title>Node12&#45;&gt;Node13</title>
<path fill="none" stroke="midnightblue" d="M412.17,-347.44C382.98,-338.28 336.5,-323.69 304.12,-313.52"/>
<polygon fill="midnightblue" stroke="midnightblue" points="305.14,-310.17 294.55,-310.52 303.04,-316.85 305.14,-310.17"/>
</g>
<!-- Node12&#45;&gt;Node14 -->
<g id="edge52" class="edge">
<title>Node12&#45;&gt;Node14</title>
<path fill="none" stroke="midnightblue" d="M434.31,-347.32C423.19,-328.42 396.59,-283.25 381.8,-258.12"/>
<polygon fill="midnightblue" stroke="midnightblue" points="384.68,-256.12 376.6,-249.28 378.65,-259.68 384.68,-256.12"/>
</g>
<!-- Node17 -->
<g id="node17" class="node">
<title>Node17</title>
<g id="a_node17"><a xlink:href="sitkDetail_8h.html" target="_top" xlink:title=" ">
<polygon fill="white" stroke="black" points="947.92,-291.5 947.92,-310.5 1020.92,-310.5 1020.92,-291.5 947.92,-291.5"/>
<text text-anchor="middle" x="984.42" y="-298.5" font-family="Helvetica,sans-Serif" font-size="10.00">sitkDetail.h</text>
</a>
</g>
</g>
<!-- Node12&#45;&gt;Node17 -->
<g id="edge22" class="edge">
<title>Node12&#45;&gt;Node17</title>
<path fill="none" stroke="midnightblue" d="M476.46,-352.33C572.79,-342.79 831.13,-317.19 937.58,-306.64"/>
<polygon fill="midnightblue" stroke="midnightblue" points="938.1,-310.11 947.7,-305.64 937.4,-303.14 938.1,-310.11"/>
</g>
<!-- Node28 -->
<g id="node28" class="node">
<title>Node28</title>
<g id="a_node28"><a xlink:href="sitkPixelIDTokens_8h.html" target="_top" xlink:title=" ">
<polygon fill="white" stroke="black" points="560.42,-291.5 560.42,-310.5 670.42,-310.5 670.42,-291.5 560.42,-291.5"/>
<text text-anchor="middle" x="615.42" y="-298.5" font-family="Helvetica,sans-Serif" font-size="10.00">sitkPixelIDTokens.h</text>
</a>
</g>
</g>
<!-- Node12&#45;&gt;Node28 -->
<g id="edge41" class="edge">
<title>Node12&#45;&gt;Node28</title>
<path fill="none" stroke="midnightblue" d="M467.31,-347.44C497.18,-338.28 544.74,-323.69 577.88,-313.52"/>
<polygon fill="midnightblue" stroke="midnightblue" points="579.13,-316.8 587.67,-310.52 577.08,-310.1 579.13,-316.8"/>
</g>
<!-- Node31 -->
<g id="node31" class="node">
<title>Node31</title>
<g id="a_node31"><a xlink:title=" ">
<polygon fill="white" stroke="#bfbfbf" points="569.92,-230 569.92,-249 638.92,-249 638.92,-230 569.92,-230"/>
<text text-anchor="middle" x="604.42" y="-237" font-family="Helvetica,sans-Serif" font-size="10.00">type_traits</text>
</a>
</g>
</g>
<!-- Node12&#45;&gt;Node31 -->
<g id="edge54" class="edge">
<title>Node12&#45;&gt;Node31</title>
<path fill="none" stroke="midnightblue" d="M451.83,-347.32C479.9,-327.67 548.56,-279.61 583.4,-255.22"/>
<polygon fill="midnightblue" stroke="midnightblue" points="585.69,-257.88 591.88,-249.28 581.68,-252.15 585.69,-257.88"/>
</g>
<!-- Node32 -->
<g id="node32" class="node">
<title>Node32</title>
<g id="a_node32"><a xlink:href="sitkInterpolator_8h.html" target="_top" xlink:title=" ">
<polygon fill="white" stroke="black" points="451.42,-230 451.42,-249 551.42,-249 551.42,-230 451.42,-230"/>
<text text-anchor="middle" x="501.42" y="-237" font-family="Helvetica,sans-Serif" font-size="10.00">sitkInterpolator.h</text>
</a>
</g>
</g>
<!-- Node12&#45;&gt;Node32 -->
<g id="edge49" class="edge">
<title>Node12&#45;&gt;Node32</title>
<path fill="none" stroke="midnightblue" d="M444.09,-347.32C454.23,-328.42 478.48,-283.25 491.97,-258.12"/>
<polygon fill="midnightblue" stroke="midnightblue" points="495.06,-259.75 496.71,-249.28 488.9,-256.44 495.06,-259.75"/>
</g>
<!-- Node13&#45;&gt;Node2 -->
<g id="edge17" class="edge">
<title>Node13&#45;&gt;Node2</title>
<path fill="none" stroke="midnightblue" d="M268.67,-291.35C271.98,-269.79 282.08,-212.23 301.42,-168 305.7,-158.22 311.97,-148.17 317.59,-140.05"/>
<polygon fill="midnightblue" stroke="midnightblue" points="320.51,-141.98 323.52,-131.82 314.83,-137.89 320.51,-141.98"/>
</g>
<!-- Node13&#45;&gt;Node3 -->
<g id="edge16" class="edge">
<title>Node13&#45;&gt;Node3</title>
<path fill="none" stroke="midnightblue" d="M199.72,-297.69C131.87,-293.78 34.17,-283.27 10.42,-255 1.56,-244.45 4.01,-236.19 10.42,-224 69.23,-112.25 232.77,-79.93 314.16,-70.67"/>
<polygon fill="midnightblue" stroke="midnightblue" points="314.57,-74.14 324.14,-69.6 313.82,-67.18 314.57,-74.14"/>
</g>
<!-- Node13&#45;&gt;Node10 -->
<g id="edge18" class="edge">
<title>Node13&#45;&gt;Node10</title>
<path fill="none" stroke="midnightblue" d="M240.78,-291.48C208.46,-281.14 153.83,-263.66 117.69,-252.1"/>
<polygon fill="midnightblue" stroke="midnightblue" points="118.62,-248.72 108.02,-249.01 116.48,-255.39 118.62,-248.72"/>
</g>
<!-- Node13&#45;&gt;Node14 -->
<g id="edge19" class="edge">
<title>Node13&#45;&gt;Node14</title>
<path fill="none" stroke="midnightblue" d="M282.33,-291.48C299.39,-281.71 327.59,-265.58 347.69,-254.08"/>
<polygon fill="midnightblue" stroke="midnightblue" points="349.61,-257.01 356.55,-249.01 346.13,-250.94 349.61,-257.01"/>
</g>
<!-- Node15 -->
<g id="node15" class="node">
<title>Node15</title>
<g id="a_node15"><a xlink:title=" ">
<polygon fill="white" stroke="#bfbfbf" points="309.92,-168.5 309.92,-187.5 366.92,-187.5 366.92,-168.5 309.92,-168.5"/>
<text text-anchor="middle" x="338.42" y="-175.5" font-family="Helvetica,sans-Serif" font-size="10.00">ostream</text>
</a>
</g>
</g>
<!-- Node13&#45;&gt;Node15 -->
<g id="edge20" class="edge">
<title>Node13&#45;&gt;Node15</title>
<path fill="none" stroke="midnightblue" d="M272.9,-291.44C278.62,-282.43 287.82,-267.82 295.42,-255 307.23,-235.11 320.24,-211.93 328.82,-196.45"/>
<polygon fill="midnightblue" stroke="midnightblue" points="332,-197.95 333.77,-187.5 325.87,-194.56 332,-197.95"/>
</g>
<!-- Node16 -->
<g id="node16" class="node">
<title>Node16</title>
<g id="a_node16"><a xlink:title=" ">
<polygon fill="white" stroke="#bfbfbf" points="199.92,-230 199.92,-249 252.92,-249 252.92,-230 199.92,-230"/>
<text text-anchor="middle" x="226.42" y="-237" font-family="Helvetica,sans-Serif" font-size="10.00">iterator</text>
</a>
</g>
</g>
<!-- Node13&#45;&gt;Node16 -->
<g id="edge21" class="edge">
<title>Node13&#45;&gt;Node16</title>
<path fill="none" stroke="midnightblue" d="M261.55,-291.48C255.46,-282.64 245.78,-268.59 238.12,-257.48"/>
<polygon fill="midnightblue" stroke="midnightblue" points="240.84,-255.26 232.29,-249.01 235.08,-259.23 240.84,-255.26"/>
</g>
<!-- Node18 -->
<g id="node18" class="node">
<title>Node18</title>
<g id="a_node18"><a xlink:href="sitkMemberFunctionFactoryBase_8h.html" target="_top" xlink:title=" ">
<polygon fill="white" stroke="black" points="908.42,-224.5 908.42,-254.5 1060.42,-254.5 1060.42,-224.5 908.42,-224.5"/>
<text text-anchor="start" x="916.42" y="-242.5" font-family="Helvetica,sans-Serif" font-size="10.00">sitkMemberFunctionFactory</text>
<text text-anchor="middle" x="984.42" y="-231.5" font-family="Helvetica,sans-Serif" font-size="10.00">Base.h</text>
</a>
</g>
</g>
<!-- Node17&#45;&gt;Node18 -->
<g id="edge23" class="edge">
<title>Node17&#45;&gt;Node18</title>
<path fill="none" stroke="midnightblue" d="M984.42,-291.48C984.42,-284.47 984.42,-274.19 984.42,-264.7"/>
<polygon fill="midnightblue" stroke="midnightblue" points="987.93,-264.52 984.42,-254.52 980.93,-264.52 987.93,-264.52"/>
</g>
<!-- Node24 -->
<g id="node24" class="node">
<title>Node24</title>
<g id="a_node24"><a xlink:title=" ">
<polygon fill="white" stroke="#bfbfbf" points="1261.92,-168.5 1261.92,-187.5 1400.92,-187.5 1400.92,-168.5 1261.92,-168.5"/>
<text text-anchor="middle" x="1331.42" y="-175.5" font-family="Helvetica,sans-Serif" font-size="10.00">Ancillary/FunctionTraits.h</text>
</a>
</g>
</g>
<!-- Node17&#45;&gt;Node24 -->
<g id="edge40" class="edge">
<title>Node17&#45;&gt;Node24</title>
<path fill="none" stroke="midnightblue" d="M1008.83,-291.49C1069.4,-270.37 1226.82,-215.47 1296.9,-191.04"/>
<polygon fill="midnightblue" stroke="midnightblue" points="1298.3,-194.26 1306.59,-187.66 1295.99,-187.65 1298.3,-194.26"/>
</g>
<!-- Node18&#45;&gt;Node3 -->
<g id="edge32" class="edge">
<title>Node18&#45;&gt;Node3</title>
<path fill="none" stroke="midnightblue" d="M908.15,-232.63C845.66,-226.23 755.6,-213.29 680.42,-188 662.34,-181.91 659.89,-175.69 642.42,-168 557.12,-130.44 453.02,-95.81 398.61,-78.53"/>
<polygon fill="midnightblue" stroke="midnightblue" points="399.64,-75.19 389.05,-75.51 397.53,-81.86 399.64,-75.19"/>
</g>
<!-- Node18&#45;&gt;Node9 -->
<g id="edge24" class="edge">
<title>Node18&#45;&gt;Node9</title>
<path fill="none" stroke="midnightblue" d="M972.82,-224.46C961.7,-209.2 948.37,-184.75 961.42,-168 1003.39,-114.17 1144.22,-167.45 1104.42,-112 1048.89,-34.62 930.92,-15.76 860.9,-11.62"/>
<polygon fill="midnightblue" stroke="midnightblue" points="860.68,-8.11 850.52,-11.09 860.32,-15.1 860.68,-8.11"/>
</g>
<!-- Node19 -->
<g id="node19" class="node">
<title>Node19</title>
<g id="a_node19"><a xlink:href="sitkPixelIDTypes_8h.html" target="_top" xlink:title=" ">
<polygon fill="white" stroke="black" points="852.92,-112.5 852.92,-131.5 957.92,-131.5 957.92,-112.5 852.92,-112.5"/>
<text text-anchor="middle" x="905.42" y="-119.5" font-family="Helvetica,sans-Serif" font-size="10.00">sitkPixelIDTypes.h</text>
</a>
</g>
</g>
<!-- Node18&#45;&gt;Node19 -->
<g id="edge25" class="edge">
<title>Node18&#45;&gt;Node19</title>
<path fill="none" stroke="midnightblue" d="M963.78,-224.46C951.71,-215.31 937,-202.43 927.42,-188 918.06,-173.89 912.31,-155.4 909.05,-141.75"/>
<polygon fill="midnightblue" stroke="midnightblue" points="912.4,-140.67 906.87,-131.63 905.55,-142.14 912.4,-140.67"/>
</g>
<!-- Node20 -->
<g id="node20" class="node">
<title>Node20</title>
<g id="a_node20"><a xlink:href="sitkPixelIDTypeLists_8h.html" target="_top" xlink:title=" ">
<polygon fill="white" stroke="black" points="689.42,-168.5 689.42,-187.5 811.42,-187.5 811.42,-168.5 689.42,-168.5"/>
<text text-anchor="middle" x="750.42" y="-175.5" font-family="Helvetica,sans-Serif" font-size="10.00">sitkPixelIDTypeLists.h</text>
</a>
</g>
</g>
<!-- Node18&#45;&gt;Node20 -->
<g id="edge26" class="edge">
<title>Node18&#45;&gt;Node20</title>
<path fill="none" stroke="midnightblue" d="M929.27,-224.47C887.84,-213.94 831.9,-199.72 793.68,-190"/>
<polygon fill="midnightblue" stroke="midnightblue" points="794.43,-186.58 783.88,-187.51 792.71,-193.36 794.43,-186.58"/>
</g>
<!-- Node21 -->
<g id="node21" class="node">
<title>Node21</title>
<g id="a_node21"><a xlink:title=" ">
<polygon fill="white" stroke="#bfbfbf" points="975.92,-112.5 975.92,-131.5 1094.92,-131.5 1094.92,-112.5 975.92,-112.5"/>
<text text-anchor="middle" x="1035.42" y="-119.5" font-family="Helvetica,sans-Serif" font-size="10.00">Ancillary/type_list2.h</text>
</a>
</g>
</g>
<!-- Node18&#45;&gt;Node21 -->
<g id="edge35" class="edge">
<title>Node18&#45;&gt;Node21</title>
<path fill="none" stroke="midnightblue" d="M1060.48,-231.95C1119.8,-225.08 1195.24,-211.85 1214.42,-188 1247.76,-146.55 1168.49,-131.53 1104.99,-126.08"/>
<polygon fill="midnightblue" stroke="midnightblue" points="1105.2,-122.59 1094.95,-125.29 1104.65,-129.57 1105.2,-122.59"/>
</g>
<!-- Node23 -->
<g id="node23" class="node">
<title>Node23</title>
<g id="a_node23"><a xlink:href="sitkNonCopyable_8h.html" target="_top" xlink:title=" ">
<polygon fill="white" stroke="black" points="523.92,-168.5 523.92,-187.5 632.92,-187.5 632.92,-168.5 523.92,-168.5"/>
<text text-anchor="middle" x="578.42" y="-175.5" font-family="Helvetica,sans-Serif" font-size="10.00">sitkNonCopyable.h</text>
</a>
</g>
</g>
<!-- Node18&#45;&gt;Node23 -->
<g id="edge33" class="edge">
<title>Node18&#45;&gt;Node23</title>
<path fill="none" stroke="midnightblue" d="M908.31,-226.56C902.6,-225.68 896.92,-224.82 891.42,-224 805.67,-211.15 706.57,-197.03 643.25,-188.09"/>
<polygon fill="midnightblue" stroke="midnightblue" points="643.41,-184.58 633.02,-186.65 642.43,-191.51 643.41,-184.58"/>
</g>
<!-- Node18&#45;&gt;Node24 -->
<g id="edge36" class="edge">
<title>Node18&#45;&gt;Node24</title>
<path fill="none" stroke="midnightblue" d="M1060.58,-225.44C1124,-214.57 1213.09,-199.29 1271.51,-189.27"/>
<polygon fill="midnightblue" stroke="midnightblue" points="1272.43,-192.67 1281.69,-187.53 1271.24,-185.77 1272.43,-192.67"/>
</g>
<!-- Node25 -->
<g id="node25" class="node">
<title>Node25</title>
<g id="a_node25"><a xlink:title=" ">
<polygon fill="white" stroke="#bfbfbf" points="1028.92,-168.5 1028.92,-187.5 1121.92,-187.5 1121.92,-168.5 1028.92,-168.5"/>
<text text-anchor="middle" x="1075.42" y="-175.5" font-family="Helvetica,sans-Serif" font-size="10.00">unordered_map</text>
</a>
</g>
</g>
<!-- Node18&#45;&gt;Node25 -->
<g id="edge37" class="edge">
<title>Node18&#45;&gt;Node25</title>
<path fill="none" stroke="midnightblue" d="M1005.99,-224.4C1020.3,-215.04 1039.04,-202.79 1053.44,-193.38"/>
<polygon fill="midnightblue" stroke="midnightblue" points="1055.73,-196.06 1062.18,-187.66 1051.9,-190.2 1055.73,-196.06"/>
</g>
<!-- Node26 -->
<g id="node26" class="node">
<title>Node26</title>
<g id="a_node26"><a xlink:title=" ">
<polygon fill="white" stroke="#bfbfbf" points="1139.92,-168.5 1139.92,-187.5 1204.92,-187.5 1204.92,-168.5 1139.92,-168.5"/>
<text text-anchor="middle" x="1172.42" y="-175.5" font-family="Helvetica,sans-Serif" font-size="10.00">functional</text>
</a>
</g>
</g>
<!-- Node18&#45;&gt;Node26 -->
<g id="edge38" class="edge">
<title>Node18&#45;&gt;Node26</title>
<path fill="none" stroke="midnightblue" d="M1028.98,-224.4C1061.46,-214.12 1104.96,-200.35 1135.51,-190.68"/>
<polygon fill="midnightblue" stroke="midnightblue" points="1136.87,-193.93 1145.34,-187.57 1134.75,-187.25 1136.87,-193.93"/>
</g>
<!-- Node27 -->
<g id="node27" class="node">
<title>Node27</title>
<g id="a_node27"><a xlink:title=" ">
<polygon fill="white" stroke="#bfbfbf" points="969.92,-168.5 969.92,-187.5 1010.92,-187.5 1010.92,-168.5 969.92,-168.5"/>
<text text-anchor="middle" x="990.42" y="-175.5" font-family="Helvetica,sans-Serif" font-size="10.00">tuple</text>
</a>
</g>
</g>
<!-- Node18&#45;&gt;Node27 -->
<g id="edge39" class="edge">
<title>Node18&#45;&gt;Node27</title>
<path fill="none" stroke="midnightblue" d="M985.85,-224.4C986.65,-216.47 987.66,-206.46 988.52,-197.86"/>
<polygon fill="midnightblue" stroke="midnightblue" points="992.03,-197.96 989.55,-187.66 985.07,-197.26 992.03,-197.96"/>
</g>
<!-- Node20&#45;&gt;Node4 -->
<g id="edge27" class="edge">
<title>Node20&#45;&gt;Node4</title>
<path fill="none" stroke="midnightblue" d="M748.56,-168.23C745.61,-155.4 739.2,-130.98 729.42,-112 712.69,-79.5 685.78,-46.33 669.15,-27.25"/>
<polygon fill="midnightblue" stroke="midnightblue" points="671.56,-24.69 662.31,-19.53 666.32,-29.34 671.56,-24.69"/>
</g>
<!-- Node20&#45;&gt;Node9 -->
<g id="edge28" class="edge">
<title>Node20&#45;&gt;Node9</title>
<path fill="none" stroke="midnightblue" d="M753.38,-168.08C762.08,-141.83 787.68,-64.55 799.42,-29.12"/>
<polygon fill="midnightblue" stroke="midnightblue" points="802.76,-30.16 802.59,-19.57 796.12,-27.96 802.76,-30.16"/>
</g>
<!-- Node20&#45;&gt;Node19 -->
<g id="edge29" class="edge">
<title>Node20&#45;&gt;Node19</title>
<path fill="none" stroke="midnightblue" d="M774.99,-168.44C800.95,-159.4 842.09,-145.06 871.22,-134.92"/>
<polygon fill="midnightblue" stroke="midnightblue" points="872.69,-138.11 880.98,-131.52 870.38,-131.5 872.69,-138.11"/>
</g>
<!-- Node20&#45;&gt;Node21 -->
<g id="edge30" class="edge">
<title>Node20&#45;&gt;Node21</title>
<path fill="none" stroke="midnightblue" d="M795.58,-168.44C845.72,-158.94 926.64,-143.61 980.43,-133.42"/>
<polygon fill="midnightblue" stroke="midnightblue" points="981.3,-136.82 990.48,-131.52 980,-129.94 981.3,-136.82"/>
</g>
<!-- Node22 -->
<g id="node22" class="node">
<title>Node22</title>
<g id="a_node22"><a xlink:title=" ">
<polygon fill="white" stroke="#bfbfbf" points="660.92,-112.5 660.92,-131.5 719.92,-131.5 719.92,-112.5 660.92,-112.5"/>
<text text-anchor="middle" x="690.42" y="-119.5" font-family="Helvetica,sans-Serif" font-size="10.00">complex</text>
</a>
</g>
</g>
<!-- Node20&#45;&gt;Node22 -->
<g id="edge31" class="edge">
<title>Node20&#45;&gt;Node22</title>
<path fill="none" stroke="midnightblue" d="M740.78,-168.32C731.92,-160.34 718.55,-148.31 707.82,-138.65"/>
<polygon fill="midnightblue" stroke="midnightblue" points="710.01,-135.92 700.24,-131.83 705.33,-141.13 710.01,-135.92"/>
</g>
<!-- Node23&#45;&gt;Node2 -->
<g id="edge34" class="edge">
<title>Node23&#45;&gt;Node2</title>
<path fill="none" stroke="midnightblue" d="M539.13,-168.44C495.87,-159.02 426.25,-143.87 379.45,-133.68"/>
<polygon fill="midnightblue" stroke="midnightblue" points="380.05,-130.22 369.54,-131.52 378.56,-137.06 380.05,-130.22"/>
</g>
<!-- Node28&#45;&gt;Node9 -->
<g id="edge42" class="edge">
<title>Node28&#45;&gt;Node9</title>
<path fill="none" stroke="midnightblue" d="M670.76,-294.4C703.97,-288.78 745.61,-277.52 776.42,-255 805.19,-233.98 810.22,-222.13 820.42,-188 837.1,-132.23 821.03,-62.48 811.44,-29.68"/>
<polygon fill="midnightblue" stroke="midnightblue" points="814.66,-28.24 808.38,-19.71 807.97,-30.29 814.66,-28.24"/>
</g>
<!-- Node29 -->
<g id="node29" class="node">
<title>Node29</title>
<g id="a_node29"><a xlink:href="sitkPixelIDValues_8h.html" target="_top" xlink:title=" ">
<polygon fill="white" stroke="black" points="657.42,-230 657.42,-249 767.42,-249 767.42,-230 657.42,-230"/>
<text text-anchor="middle" x="712.42" y="-237" font-family="Helvetica,sans-Serif" font-size="10.00">sitkPixelIDValues.h</text>
</a>
</g>
</g>
<!-- Node28&#45;&gt;Node29 -->
<g id="edge43" class="edge">
<title>Node28&#45;&gt;Node29</title>
<path fill="none" stroke="midnightblue" d="M629.32,-291.48C645.1,-281.8 671.06,-265.87 689.77,-254.39"/>
<polygon fill="midnightblue" stroke="midnightblue" points="691.86,-257.22 698.55,-249.01 688.2,-251.25 691.86,-257.22"/>
</g>
<!-- Node28&#45;&gt;Node31 -->
<g id="edge48" class="edge">
<title>Node28&#45;&gt;Node31</title>
<path fill="none" stroke="midnightblue" d="M613.85,-291.48C612.3,-283.08 609.88,-269.98 607.88,-259.16"/>
<polygon fill="midnightblue" stroke="midnightblue" points="611.26,-258.21 606,-249.01 604.37,-259.48 611.26,-258.21"/>
</g>
<!-- Node29&#45;&gt;Node2 -->
<g id="edge44" class="edge">
<title>Node29&#45;&gt;Node2</title>
<path fill="none" stroke="midnightblue" d="M675.93,-229.96C666.95,-227.93 657.35,-225.83 648.42,-224 561.66,-206.21 535.21,-219.47 452.42,-188 436.39,-181.91 434.42,-176.32 419.42,-168 398.99,-156.66 375.35,-144.77 357.58,-136.06"/>
<polygon fill="midnightblue" stroke="midnightblue" points="358.89,-132.8 348.37,-131.57 355.82,-139.09 358.89,-132.8"/>
</g>
<!-- Node29&#45;&gt;Node15 -->
<g id="edge47" class="edge">
<title>Node29&#45;&gt;Node15</title>
<path fill="none" stroke="midnightblue" d="M676.98,-229.95C667.72,-227.86 657.72,-225.73 648.42,-224 551.32,-205.98 435.99,-190.88 377.15,-183.63"/>
<polygon fill="midnightblue" stroke="midnightblue" points="377.54,-180.15 367.18,-182.41 376.68,-187.1 377.54,-180.15"/>
</g>
<!-- Node29&#45;&gt;Node20 -->
<g id="edge45" class="edge">
<title>Node29&#45;&gt;Node20</title>
<path fill="none" stroke="midnightblue" d="M717.87,-229.98C723.51,-221.14 732.49,-207.09 739.58,-195.98"/>
<polygon fill="midnightblue" stroke="midnightblue" points="742.56,-197.82 744.99,-187.51 736.66,-194.05 742.56,-197.82"/>
</g>
<!-- Node30 -->
<g id="node30" class="node">
<title>Node30</title>
<g id="a_node30"><a xlink:title=" ">
<polygon fill="white" stroke="#bfbfbf" points="461.42,-168.5 461.42,-187.5 505.42,-187.5 505.42,-168.5 461.42,-168.5"/>
<text text-anchor="middle" x="483.42" y="-175.5" font-family="Helvetica,sans-Serif" font-size="10.00">string</text>
</a>
</g>
</g>
<!-- Node29&#45;&gt;Node30 -->
<g id="edge46" class="edge">
<title>Node29&#45;&gt;Node30</title>
<path fill="none" stroke="midnightblue" d="M678.2,-229.98C638.85,-220.13 572.37,-203.3 515.42,-188 515.32,-187.97 515.22,-187.95 515.12,-187.92"/>
<polygon fill="midnightblue" stroke="midnightblue" points="516.01,-184.53 505.44,-185.26 514.16,-191.28 516.01,-184.53"/>
</g>
<!-- Node32&#45;&gt;Node2 -->
<g id="edge50" class="edge">
<title>Node32&#45;&gt;Node2</title>
<path fill="none" stroke="midnightblue" d="M486.69,-229.9C470.1,-220.11 442.47,-203.47 419.42,-188 395.08,-171.65 367.98,-151.58 350.15,-138.1"/>
<polygon fill="midnightblue" stroke="midnightblue" points="351.82,-134.97 341.74,-131.71 347.59,-140.54 351.82,-134.97"/>
</g>
<!-- Node32&#45;&gt;Node15 -->
<g id="edge51" class="edge">
<title>Node32&#45;&gt;Node15</title>
<path fill="none" stroke="midnightblue" d="M478.07,-229.98C450.11,-219.77 403.1,-202.61 371.43,-191.05"/>
<polygon fill="midnightblue" stroke="midnightblue" points="372.33,-187.65 361.74,-187.51 369.93,-194.23 372.33,-187.65"/>
</g>
<!-- Node33&#45;&gt;Node30 -->
<g id="edge56" class="edge">
<title>Node33&#45;&gt;Node30</title>
<path fill="none" stroke="midnightblue" d="M718.3,-347.46C745.42,-325.16 811.42,-264.16 776.42,-224 739.76,-181.93 587.95,-198.21 515.76,-187.48"/>
<polygon fill="midnightblue" stroke="midnightblue" points="516.17,-184 505.71,-185.69 514.94,-190.89 516.17,-184"/>
</g>
</g>
</svg>
        <g id="navigator" transform="translate(0 0)" fill="#404254">
                <rect fill="#f2f5e9" fill-opacity="0.5" stroke="#606060" stroke-width=".5" x="0" y="0" width="60" height="60"/>
                <use id="zoomplus" xlink:href="#zoomPlus" x="17" y="9" onmousedown="handleZoom(evt,'in')"/>
                <use id="zoomminus" xlink:href="#zoomMin" x="42" y="9" onmousedown="handleZoom(evt,'out')"/>
                <use id="reset" xlink:href="#resetDef" x="30" y="36" onmousedown="handleReset()"/>
                <g id="arrowUp" xlink:href="#dirArrow" transform="translate(30 24)" onmousedown="handlePan(0,-1)">
                  <use xlink:href="#rim" fill="#404040">
                        <set attributeName="fill" to="#808080" begin="arrowUp.mouseover" end="arrowUp.mouseout"/>
                  </use>
                  <path fill="none" stroke="white" stroke-width="1.5" d="M0,-3.0v7 M-2.5,-0.5L0,-3.0L2.5,-0.5"/>
                </g>
                <g id="arrowRight" xlink:href="#dirArrow" transform="rotate(90) translate(36 -43)" onmousedown="handlePan(1,0)">
                  <use xlink:href="#rim" fill="#404040">
                        <set attributeName="fill" to="#808080" begin="arrowRight.mouseover" end="arrowRight.mouseout"/>
                  </use>
                  <path fill="none" stroke="white" stroke-width="1.5" d="M0,-3.0v7 M-2.5,-0.5L0,-3.0L2.5,-0.5"/>
                </g>
                <g id="arrowDown" xlink:href="#dirArrow" transform="rotate(180) translate(-30 -48)" onmousedown="handlePan(0,1)">
                  <use xlink:href="#rim" fill="#404040">
                        <set attributeName="fill" to="#808080" begin="arrowDown.mouseover" end="arrowDown.mouseout"/>
                  </use>
                  <path fill="none" stroke="white" stroke-width="1.5" d="M0,-3.0v7 M-2.5,-0.5L0,-3.0L2.5,-0.5"/>
                </g>
                <g id="arrowLeft" xlink:href="#dirArrow" transform="rotate(270) translate(-36 17)" onmousedown="handlePan(-1,0)">
                  <use xlink:href="#rim" fill="#404040">
                        <set attributeName="fill" to="#808080" begin="arrowLeft.mouseover" end="arrowLeft.mouseout"/>
                  </use>
                  <path fill="none" stroke="white" stroke-width="1.5" d="M0,-3.0v7 M-2.5,-0.5L0,-3.0L2.5,-0.5"/>
                </g>
        </g>
        <svg viewBox="0 0 15 15" width="100%" height="30px" preserveAspectRatio="xMaxYMin meet">
         <g id="arrow_out" transform="scale(0.3 0.3)">
          <a xlink:href="sitkTransform_8h__incl_org.svg" target="_base">
           <rect id="button" ry="5" rx="5" y="6" x="6" height="38" width="38"
                fill="#f2f5e9" fill-opacity="0.5" stroke="#606060" stroke-width="1.0"/>
           <path id="arrow"
             d="M 11.500037,31.436501 C 11.940474,20.09759 22.043105,11.32322 32.158766,21.979434 L 37.068811,17.246167 C 37.068811,17.246167 37.088388,32 37.088388,32 L 22.160133,31.978069 C 22.160133,31.978069 26.997745,27.140456 26.997745,27.140456 C 18.528582,18.264221 13.291696,25.230495 11.500037,31.436501 z"
             style="fill:#404040;"/>
          </a>
         </g>
        </svg>
</svg>
