<?xml version="1.0" encoding="UTF-8" standalone="no"?>
<!DOCTYPE svg PUBLIC "-//W3C//DTD SVG 1.1//EN"
 "http://www.w3.org/Graphics/SVG/1.1/DTD/svg11.dtd">
<!-- Generated by graphviz version 2.43.0 (0)
 -->
<!-- Title: sitkTransform.h Pages: 1 -->
<svg width="1489pt" height="431pt"
 viewBox="0.00 0.00 1489.13 431.00" xmlns="http://www.w3.org/2000/svg" xmlns:xlink="http://www.w3.org/1999/xlink">
<g id="graph0" class="graph" transform="scale(1 1) rotate(0) translate(4 427)">
<title>sitkTransform.h</title>
<polygon fill="white" stroke="transparent" points="-4,4 -4,-427 1485.13,-427 1485.13,4 -4,4"/>
<!-- Node1 -->
<g id="node1" class="node">
<title>Node1</title>
<g id="a_node1"><a xlink:title=" ">
<polygon fill="#bfbfbf" stroke="black" points="1232,-403.5 1232,-422.5 1324,-422.5 1324,-403.5 1232,-403.5"/>
<text text-anchor="middle" x="1278" y="-410.5" font-family="Helvetica,sans-Serif" font-size="10.00">sitkTransform.h</text>
</a>
</g>
</g>
<!-- Node2 -->
<g id="node2" class="node">
<title>Node2</title>
<g id="a_node2"><a xlink:href="sitkCommon_8h.html" target="_top" xlink:title=" ">
<polygon fill="white" stroke="black" points="1021,-112.5 1021,-131.5 1109,-131.5 1109,-112.5 1021,-112.5"/>
<text text-anchor="middle" x="1065" y="-119.5" font-family="Helvetica,sans-Serif" font-size="10.00">sitkCommon.h</text>
</a>
</g>
</g>
<!-- Node1&#45;&gt;Node2 -->
<g id="edge1" class="edge">
<title>Node1&#45;&gt;Node2</title>
<path fill="none" stroke="midnightblue" d="M1300.28,-403.46C1361.87,-378.58 1526.2,-302.93 1469,-224 1428.08,-167.55 1219.49,-138.83 1119.11,-128.1"/>
<polygon fill="midnightblue" stroke="midnightblue" points="1119.48,-124.62 1109.17,-127.05 1118.75,-131.58 1119.48,-124.62"/>
</g>
<!-- Node10 -->
<g id="node10" class="node">
<title>Node10</title>
<g id="a_node10"><a xlink:href="sitkExceptionObject_8h.html" target="_top" xlink:title=" ">
<polygon fill="white" stroke="black" points="890.5,-230 890.5,-249 1013.5,-249 1013.5,-230 890.5,-230"/>
<text text-anchor="middle" x="952" y="-237" font-family="Helvetica,sans-Serif" font-size="10.00">sitkExceptionObject.h</text>
</a>
</g>
</g>
<!-- Node1&#45;&gt;Node10 -->
<g id="edge9" class="edge">
<title>Node1&#45;&gt;Node10</title>
<path fill="none" stroke="midnightblue" d="M1231.95,-409.45C1188.74,-405.37 1123.53,-394.72 1074,-367 1024.7,-339.4 982.89,-285.55 963.53,-257.86"/>
<polygon fill="midnightblue" stroke="midnightblue" points="966.17,-255.52 957.64,-249.24 960.39,-259.47 966.17,-255.52"/>
</g>
<!-- Node12 -->
<g id="node12" class="node">
<title>Node12</title>
<g id="a_node12"><a xlink:href="sitkImage_8h.html" target="_top" xlink:title=" ">
<polygon fill="white" stroke="black" points="1083,-347.5 1083,-366.5 1157,-366.5 1157,-347.5 1083,-347.5"/>
<text text-anchor="middle" x="1120" y="-354.5" font-family="Helvetica,sans-Serif" font-size="10.00">sitkImage.h</text>
</a>
</g>
</g>
<!-- Node1&#45;&gt;Node12 -->
<g id="edge13" class="edge">
<title>Node1&#45;&gt;Node12</title>
<path fill="none" stroke="midnightblue" d="M1252.96,-403.44C1226.38,-394.36 1184.19,-379.94 1154.48,-369.78"/>
<polygon fill="midnightblue" stroke="midnightblue" points="1155.51,-366.44 1144.92,-366.52 1153.25,-373.06 1155.51,-366.44"/>
</g>
<!-- Node14 -->
<g id="node14" class="node">
<title>Node14</title>
<g id="a_node14"><a xlink:title=" ">
<polygon fill="white" stroke="#bfbfbf" points="1412.5,-230 1412.5,-249 1459.5,-249 1459.5,-230 1412.5,-230"/>
<text text-anchor="middle" x="1436" y="-237" font-family="Helvetica,sans-Serif" font-size="10.00">vector</text>
</a>
</g>
</g>
<!-- Node1&#45;&gt;Node14 -->
<g id="edge55" class="edge">
<title>Node1&#45;&gt;Node14</title>
<path fill="none" stroke="midnightblue" d="M1289.23,-403.33C1310.25,-386.78 1356.38,-348.93 1389,-311 1403.48,-294.17 1417.22,-272.67 1426.06,-257.87"/>
<polygon fill="midnightblue" stroke="midnightblue" points="1429.09,-259.62 1431.13,-249.22 1423.05,-256.09 1429.09,-259.62"/>
</g>
<!-- Node3 -->
<g id="node3" class="node">
<title>Node3</title>
<g id="a_node3"><a xlink:href="sitkMacro_8h.html" target="_top" xlink:title=" ">
<polygon fill="white" stroke="black" points="880,-56.5 880,-75.5 954,-75.5 954,-56.5 880,-56.5"/>
<text text-anchor="middle" x="917" y="-63.5" font-family="Helvetica,sans-Serif" font-size="10.00">sitkMacro.h</text>
</a>
</g>
</g>
<!-- Node2&#45;&gt;Node3 -->
<g id="edge2" class="edge">
<title>Node2&#45;&gt;Node3</title>
<path fill="none" stroke="midnightblue" d="M1041.55,-112.44C1016.87,-103.44 977.81,-89.19 950.02,-79.05"/>
<polygon fill="midnightblue" stroke="midnightblue" points="950.94,-75.66 940.34,-75.52 948.54,-82.23 950.94,-75.66"/>
</g>
<!-- Node4 -->
<g id="node4" class="node">
<title>Node4</title>
<g id="a_node4"><a xlink:title=" ">
<polygon fill="white" stroke="#bfbfbf" points="660.5,-0.5 660.5,-19.5 713.5,-19.5 713.5,-0.5 660.5,-0.5"/>
<text text-anchor="middle" x="687" y="-7.5" font-family="Helvetica,sans-Serif" font-size="10.00">stdint.h</text>
</a>
</g>
</g>
<!-- Node3&#45;&gt;Node4 -->
<g id="edge3" class="edge">
<title>Node3&#45;&gt;Node4</title>
<path fill="none" stroke="midnightblue" d="M880.56,-56.44C837.52,-46.34 766.37,-29.63 723.36,-19.54"/>
<polygon fill="midnightblue" stroke="midnightblue" points="724.13,-16.12 713.59,-17.24 722.53,-22.94 724.13,-16.12"/>
</g>
<!-- Node5 -->
<g id="node5" class="node">
<title>Node5</title>
<g id="a_node5"><a xlink:title=" ">
<polygon fill="white" stroke="#bfbfbf" points="927,-0.5 927,-19.5 983,-19.5 983,-0.5 927,-0.5"/>
<text text-anchor="middle" x="955" y="-7.5" font-family="Helvetica,sans-Serif" font-size="10.00">stddef.h</text>
</a>
</g>
</g>
<!-- Node3&#45;&gt;Node5 -->
<g id="edge4" class="edge">
<title>Node3&#45;&gt;Node5</title>
<path fill="none" stroke="midnightblue" d="M923.27,-56.08C928.64,-48.46 936.52,-37.26 943.08,-27.94"/>
<polygon fill="midnightblue" stroke="midnightblue" points="945.95,-29.94 948.84,-19.75 940.22,-25.91 945.95,-29.94"/>
</g>
<!-- Node6 -->
<g id="node6" class="node">
<title>Node6</title>
<g id="a_node6"><a xlink:title=" ">
<polygon fill="white" stroke="#bfbfbf" points="1001,-0.5 1001,-19.5 1053,-19.5 1053,-0.5 1001,-0.5"/>
<text text-anchor="middle" x="1027" y="-7.5" font-family="Helvetica,sans-Serif" font-size="10.00">cassert</text>
</a>
</g>
</g>
<!-- Node3&#45;&gt;Node6 -->
<g id="edge5" class="edge">
<title>Node3&#45;&gt;Node6</title>
<path fill="none" stroke="midnightblue" d="M934.67,-56.32C952.39,-47.62 979.9,-34.12 1000.29,-24.11"/>
<polygon fill="midnightblue" stroke="midnightblue" points="1001.94,-27.2 1009.37,-19.65 998.85,-20.92 1001.94,-27.2"/>
</g>
<!-- Node7 -->
<g id="node7" class="node">
<title>Node7</title>
<g id="a_node7"><a xlink:title=" ">
<polygon fill="white" stroke="#bfbfbf" points="791,-0.5 791,-19.5 847,-19.5 847,-0.5 791,-0.5"/>
<text text-anchor="middle" x="819" y="-7.5" font-family="Helvetica,sans-Serif" font-size="10.00">sstream</text>
</a>
</g>
</g>
<!-- Node3&#45;&gt;Node7 -->
<g id="edge6" class="edge">
<title>Node3&#45;&gt;Node7</title>
<path fill="none" stroke="midnightblue" d="M901.25,-56.32C885.68,-47.74 861.62,-34.49 843.54,-24.52"/>
<polygon fill="midnightblue" stroke="midnightblue" points="845.15,-21.42 834.71,-19.65 841.78,-27.55 845.15,-21.42"/>
</g>
<!-- Node8 -->
<g id="node8" class="node">
<title>Node8</title>
<g id="a_node8"><a xlink:title=" ">
<polygon fill="white" stroke="#bfbfbf" points="865,-0.5 865,-19.5 909,-19.5 909,-0.5 865,-0.5"/>
<text text-anchor="middle" x="887" y="-7.5" font-family="Helvetica,sans-Serif" font-size="10.00">limits</text>
</a>
</g>
</g>
<!-- Node3&#45;&gt;Node8 -->
<g id="edge7" class="edge">
<title>Node3&#45;&gt;Node8</title>
<path fill="none" stroke="midnightblue" d="M912.05,-56.08C907.9,-48.61 901.85,-37.72 896.73,-28.52"/>
<polygon fill="midnightblue" stroke="midnightblue" points="899.78,-26.79 891.86,-19.75 893.66,-30.19 899.78,-26.79"/>
</g>
<!-- Node9 -->
<g id="node9" class="node">
<title>Node9</title>
<g id="a_node9"><a xlink:href="sitkConfigure_8h.html" target="_top" xlink:title=" ">
<polygon fill="white" stroke="black" points="361,-0.5 361,-19.5 451,-19.5 451,-0.5 361,-0.5"/>
<text text-anchor="middle" x="406" y="-7.5" font-family="Helvetica,sans-Serif" font-size="10.00">sitkConfigure.h</text>
</a>
</g>
</g>
<!-- Node3&#45;&gt;Node9 -->
<g id="edge8" class="edge">
<title>Node3&#45;&gt;Node9</title>
<path fill="none" stroke="midnightblue" d="M879.84,-61.07C791.04,-51.69 566.16,-27.92 461.35,-16.85"/>
<polygon fill="midnightblue" stroke="midnightblue" points="461.6,-13.36 451.29,-15.79 460.86,-20.32 461.6,-13.36"/>
</g>
<!-- Node10&#45;&gt;Node2 -->
<g id="edge11" class="edge">
<title>Node10&#45;&gt;Node2</title>
<path fill="none" stroke="midnightblue" d="M960.49,-229.82C979.39,-210.5 1025.15,-163.74 1049.36,-138.98"/>
<polygon fill="midnightblue" stroke="midnightblue" points="1051.92,-141.38 1056.41,-131.78 1046.91,-136.48 1051.92,-141.38"/>
</g>
<!-- Node10&#45;&gt;Node3 -->
<g id="edge10" class="edge">
<title>Node10&#45;&gt;Node3</title>
<path fill="none" stroke="midnightblue" d="M950.22,-229.76C944.76,-203.04 928.23,-122.02 920.75,-85.36"/>
<polygon fill="midnightblue" stroke="midnightblue" points="924.17,-84.62 918.74,-75.52 917.31,-86.02 924.17,-84.62"/>
</g>
<!-- Node11 -->
<g id="node11" class="node">
<title>Node11</title>
<g id="a_node11"><a xlink:title=" ">
<polygon fill="white" stroke="#bfbfbf" points="1036,-168.5 1036,-187.5 1094,-187.5 1094,-168.5 1036,-168.5"/>
<text text-anchor="middle" x="1065" y="-175.5" font-family="Helvetica,sans-Serif" font-size="10.00">memory</text>
</a>
</g>
</g>
<!-- Node10&#45;&gt;Node11 -->
<g id="edge12" class="edge">
<title>Node10&#45;&gt;Node11</title>
<path fill="none" stroke="midnightblue" d="M968.19,-229.98C986.9,-220.12 1017.92,-203.79 1039.8,-192.27"/>
<polygon fill="midnightblue" stroke="midnightblue" points="1041.62,-195.27 1048.84,-187.51 1038.36,-189.07 1041.62,-195.27"/>
</g>
<!-- Node12&#45;&gt;Node2 -->
<g id="edge14" class="edge">
<title>Node12&#45;&gt;Node2</title>
<path fill="none" stroke="midnightblue" d="M1157.4,-351.86C1206.9,-345.64 1290.42,-332.27 1312,-311 1339.9,-283.51 1344.93,-258.28 1326,-224 1285.95,-151.48 1183.47,-130.76 1119.48,-125.01"/>
<polygon fill="midnightblue" stroke="midnightblue" points="1119.42,-121.49 1109.17,-124.18 1118.86,-128.47 1119.42,-121.49"/>
</g>
<!-- Node12&#45;&gt;Node11 -->
<g id="edge53" class="edge">
<title>Node12&#45;&gt;Node11</title>
<path fill="none" stroke="midnightblue" d="M1112.69,-347.28C1099.28,-330.63 1071.19,-292.64 1061,-255 1055.83,-235.91 1058.08,-213.16 1060.83,-197.56"/>
<polygon fill="midnightblue" stroke="midnightblue" points="1064.29,-198.11 1062.83,-187.62 1057.43,-196.73 1064.29,-198.11"/>
</g>
<!-- Node13 -->
<g id="node13" class="node">
<title>Node13</title>
<g id="a_node13"><a xlink:href="sitkTemplateFunctions_8h.html" target="_top" xlink:title=" ">
<polygon fill="white" stroke="black" points="1168.5,-291.5 1168.5,-310.5 1303.5,-310.5 1303.5,-291.5 1168.5,-291.5"/>
<text text-anchor="middle" x="1236" y="-298.5" font-family="Helvetica,sans-Serif" font-size="10.00">sitkTemplateFunctions.h</text>
</a>
</g>
</g>
<!-- Node12&#45;&gt;Node13 -->
<g id="edge15" class="edge">
<title>Node12&#45;&gt;Node13</title>
<path fill="none" stroke="midnightblue" d="M1138.38,-347.44C1157.22,-338.68 1186.73,-324.94 1208.38,-314.86"/>
<polygon fill="midnightblue" stroke="midnightblue" points="1210.12,-317.91 1217.71,-310.52 1207.16,-311.56 1210.12,-317.91"/>
</g>
<!-- Node12&#45;&gt;Node14 -->
<g id="edge52" class="edge">
<title>Node12&#45;&gt;Node14</title>
<path fill="none" stroke="midnightblue" d="M1157.4,-355.34C1206.42,-353.1 1293.93,-344.28 1360,-311 1385.77,-298.02 1409.07,-273.65 1422.88,-257.25"/>
<polygon fill="midnightblue" stroke="midnightblue" points="1425.94,-259.04 1429.54,-249.07 1420.51,-254.62 1425.94,-259.04"/>
</g>
<!-- Node17 -->
<g id="node17" class="node">
<title>Node17</title>
<g id="a_node17"><a xlink:href="sitkDetail_8h.html" target="_top" xlink:title=" ">
<polygon fill="white" stroke="black" points="379.5,-291.5 379.5,-310.5 452.5,-310.5 452.5,-291.5 379.5,-291.5"/>
<text text-anchor="middle" x="416" y="-298.5" font-family="Helvetica,sans-Serif" font-size="10.00">sitkDetail.h</text>
</a>
</g>
</g>
<!-- Node12&#45;&gt;Node17 -->
<g id="edge22" class="edge">
<title>Node12&#45;&gt;Node17</title>
<path fill="none" stroke="midnightblue" d="M1082.65,-353.13C963.78,-344.02 594.37,-315.68 462.98,-305.6"/>
<polygon fill="midnightblue" stroke="midnightblue" points="463.08,-302.1 452.84,-304.83 462.54,-309.08 463.08,-302.1"/>
</g>
<!-- Node28 -->
<g id="node28" class="node">
<title>Node28</title>
<g id="a_node28"><a xlink:href="sitkPixelIDTokens_8h.html" target="_top" xlink:title=" ">
<polygon fill="white" stroke="black" points="729,-291.5 729,-310.5 839,-310.5 839,-291.5 729,-291.5"/>
<text text-anchor="middle" x="784" y="-298.5" font-family="Helvetica,sans-Serif" font-size="10.00">sitkPixelIDTokens.h</text>
</a>
</g>
</g>
<!-- Node12&#45;&gt;Node28 -->
<g id="edge41" class="edge">
<title>Node12&#45;&gt;Node28</title>
<path fill="none" stroke="midnightblue" d="M1082.76,-350.01C1025.84,-340.87 916.52,-323.3 847.08,-312.14"/>
<polygon fill="midnightblue" stroke="midnightblue" points="847.56,-308.67 837.13,-310.54 846.45,-315.58 847.56,-308.67"/>
</g>
<!-- Node31 -->
<g id="node31" class="node">
<title>Node31</title>
<g id="a_node31"><a xlink:title=" ">
<polygon fill="white" stroke="#bfbfbf" points="803.5,-230 803.5,-249 872.5,-249 872.5,-230 803.5,-230"/>
<text text-anchor="middle" x="838" y="-237" font-family="Helvetica,sans-Serif" font-size="10.00">type_traits</text>
</a>
</g>
</g>
<!-- Node12&#45;&gt;Node31 -->
<g id="edge54" class="edge">
<title>Node12&#45;&gt;Node31</title>
<path fill="none" stroke="midnightblue" d="M1098.8,-347.32C1049.28,-327.03 925.83,-276.47 868.34,-252.93"/>
<polygon fill="midnightblue" stroke="midnightblue" points="869.64,-249.68 859.06,-249.12 866.98,-256.15 869.64,-249.68"/>
</g>
<!-- Node32 -->
<g id="node32" class="node">
<title>Node32</title>
<g id="a_node32"><a xlink:href="sitkInterpolator_8h.html" target="_top" xlink:title=" ">
<polygon fill="white" stroke="black" points="1070,-230 1070,-249 1170,-249 1170,-230 1070,-230"/>
<text text-anchor="middle" x="1120" y="-237" font-family="Helvetica,sans-Serif" font-size="10.00">sitkInterpolator.h</text>
</a>
</g>
</g>
<!-- Node12&#45;&gt;Node32 -->
<g id="edge49" class="edge">
<title>Node12&#45;&gt;Node32</title>
<path fill="none" stroke="midnightblue" d="M1120,-347.32C1120,-328.76 1120,-284.84 1120,-259.47"/>
<polygon fill="midnightblue" stroke="midnightblue" points="1123.5,-259.28 1120,-249.28 1116.5,-259.28 1123.5,-259.28"/>
</g>
<!-- Node13&#45;&gt;Node2 -->
<g id="edge17" class="edge">
<title>Node13&#45;&gt;Node2</title>
<path fill="none" stroke="midnightblue" d="M1237.54,-291.32C1241.13,-268.16 1247.48,-204.2 1216,-168 1192.11,-140.53 1152.24,-129.46 1119.47,-125.16"/>
<polygon fill="midnightblue" stroke="midnightblue" points="1119.44,-121.63 1109.11,-123.99 1118.66,-128.59 1119.44,-121.63"/>
</g>
<!-- Node13&#45;&gt;Node3 -->
<g id="edge16" class="edge">
<title>Node13&#45;&gt;Node3</title>
<path fill="none" stroke="midnightblue" d="M1273.1,-291.46C1292.44,-284.92 1314.43,-273.72 1326,-255 1333.24,-243.28 1332.66,-236.06 1326,-224 1254.48,-94.5 1055.54,-71.15 964.08,-67.41"/>
<polygon fill="midnightblue" stroke="midnightblue" points="964.12,-63.91 954,-67.06 963.88,-70.9 964.12,-63.91"/>
</g>
<!-- Node13&#45;&gt;Node10 -->
<g id="edge18" class="edge">
<title>Node13&#45;&gt;Node10</title>
<path fill="none" stroke="midnightblue" d="M1195.31,-291.48C1144.48,-280.83 1057.53,-262.61 1002.5,-251.08"/>
<polygon fill="midnightblue" stroke="midnightblue" points="1003.12,-247.63 992.61,-249.01 1001.68,-254.49 1003.12,-247.63"/>
</g>
<!-- Node13&#45;&gt;Node14 -->
<g id="edge19" class="edge">
<title>Node13&#45;&gt;Node14</title>
<path fill="none" stroke="midnightblue" d="M1270.41,-291.44C1303.4,-283 1354.47,-269.32 1398,-255 1400.26,-254.26 1402.59,-253.46 1404.93,-252.63"/>
<polygon fill="midnightblue" stroke="midnightblue" points="1406.25,-255.87 1414.42,-249.13 1403.83,-249.3 1406.25,-255.87"/>
</g>
<!-- Node15 -->
<g id="node15" class="node">
<title>Node15</title>
<g id="a_node15"><a xlink:title=" ">
<polygon fill="white" stroke="#bfbfbf" points="1150.5,-168.5 1150.5,-187.5 1207.5,-187.5 1207.5,-168.5 1150.5,-168.5"/>
<text text-anchor="middle" x="1179" y="-175.5" font-family="Helvetica,sans-Serif" font-size="10.00">ostream</text>
</a>
</g>
</g>
<!-- Node13&#45;&gt;Node15 -->
<g id="edge20" class="edge">
<title>Node13&#45;&gt;Node15</title>
<path fill="none" stroke="midnightblue" d="M1231.9,-291.3C1222.62,-271.59 1199.83,-223.21 1187.4,-196.84"/>
<polygon fill="midnightblue" stroke="midnightblue" points="1190.49,-195.18 1183.06,-187.62 1184.16,-198.16 1190.49,-195.18"/>
</g>
<!-- Node16 -->
<g id="node16" class="node">
<title>Node16</title>
<g id="a_node16"><a xlink:title=" ">
<polygon fill="white" stroke="#bfbfbf" points="1264.5,-230 1264.5,-249 1317.5,-249 1317.5,-230 1264.5,-230"/>
<text text-anchor="middle" x="1291" y="-237" font-family="Helvetica,sans-Serif" font-size="10.00">iterator</text>
</a>
</g>
</g>
<!-- Node13&#45;&gt;Node16 -->
<g id="edge21" class="edge">
<title>Node13&#45;&gt;Node16</title>
<path fill="none" stroke="midnightblue" d="M1243.88,-291.48C1252.29,-282.37 1265.82,-267.74 1276.23,-256.48"/>
<polygon fill="midnightblue" stroke="midnightblue" points="1278.92,-258.73 1283.13,-249.01 1273.78,-253.98 1278.92,-258.73"/>
</g>
<!-- Node18 -->
<g id="node18" class="node">
<title>Node18</title>
<g id="a_node18"><a xlink:href="sitkMemberFunctionFactoryBase_8h.html" target="_top" xlink:title=" ">
<polygon fill="white" stroke="black" points="340,-224.5 340,-254.5 492,-254.5 492,-224.5 340,-224.5"/>
<text text-anchor="start" x="348" y="-242.5" font-family="Helvetica,sans-Serif" font-size="10.00">sitkMemberFunctionFactory</text>
<text text-anchor="middle" x="416" y="-231.5" font-family="Helvetica,sans-Serif" font-size="10.00">Base.h</text>
</a>
</g>
</g>
<!-- Node17&#45;&gt;Node18 -->
<g id="edge23" class="edge">
<title>Node17&#45;&gt;Node18</title>
<path fill="none" stroke="midnightblue" d="M416,-291.48C416,-284.47 416,-274.19 416,-264.7"/>
<polygon fill="midnightblue" stroke="midnightblue" points="419.5,-264.52 416,-254.52 412.5,-264.52 419.5,-264.52"/>
</g>
<!-- Node24 -->
<g id="node24" class="node">
<title>Node24</title>
<g id="a_node24"><a xlink:title=" ">
<polygon fill="white" stroke="#bfbfbf" points="28.5,-168.5 28.5,-187.5 167.5,-187.5 167.5,-168.5 28.5,-168.5"/>
<text text-anchor="middle" x="98" y="-175.5" font-family="Helvetica,sans-Serif" font-size="10.00">Ancillary/FunctionTraits.h</text>
</a>
</g>
</g>
<!-- Node17&#45;&gt;Node24 -->
<g id="edge40" class="edge">
<title>Node17&#45;&gt;Node24</title>
<path fill="none" stroke="midnightblue" d="M393.64,-291.49C338.35,-270.45 195.04,-215.92 130.43,-191.34"/>
<polygon fill="midnightblue" stroke="midnightblue" points="131.35,-187.95 120.76,-187.66 128.86,-194.49 131.35,-187.95"/>
</g>
<!-- Node18&#45;&gt;Node3 -->
<g id="edge32" class="edge">
<title>Node18&#45;&gt;Node3</title>
<path fill="none" stroke="midnightblue" d="M492.07,-230.38C546.81,-223.06 621.84,-209.99 685,-188 703.02,-181.72 706.09,-176.85 723,-168 783.22,-136.48 854.08,-99.66 891.25,-80.36"/>
<polygon fill="midnightblue" stroke="midnightblue" points="893.12,-83.33 900.38,-75.62 889.89,-77.12 893.12,-83.33"/>
</g>
<!-- Node18&#45;&gt;Node9 -->
<g id="edge24" class="edge">
<title>Node18&#45;&gt;Node9</title>
<path fill="none" stroke="midnightblue" d="M367.96,-224.46C346.76,-216.43 322.69,-204.58 305,-188 284.4,-168.69 281.87,-159.39 275,-132 261.69,-78.96 329.12,-41.5 372.2,-23.38"/>
<polygon fill="midnightblue" stroke="midnightblue" points="373.56,-26.61 381.51,-19.6 370.93,-20.12 373.56,-26.61"/>
</g>
<!-- Node19 -->
<g id="node19" class="node">
<title>Node19</title>
<g id="a_node19"><a xlink:href="sitkPixelIDTypes_8h.html" target="_top" xlink:title=" ">
<polygon fill="white" stroke="black" points="284.5,-112.5 284.5,-131.5 389.5,-131.5 389.5,-112.5 284.5,-112.5"/>
<text text-anchor="middle" x="337" y="-119.5" font-family="Helvetica,sans-Serif" font-size="10.00">sitkPixelIDTypes.h</text>
</a>
</g>
</g>
<!-- Node18&#45;&gt;Node19 -->
<g id="edge25" class="edge">
<title>Node18&#45;&gt;Node19</title>
<path fill="none" stroke="midnightblue" d="M359.9,-224.39C341.4,-216.78 322.81,-205.27 312,-188 302.53,-172.87 312.3,-153.57 322.27,-139.94"/>
<polygon fill="midnightblue" stroke="midnightblue" points="325.17,-141.92 328.64,-131.91 319.69,-137.56 325.17,-141.92"/>
</g>
<!-- Node20 -->
<g id="node20" class="node">
<title>Node20</title>
<g id="a_node20"><a xlink:href="sitkPixelIDTypeLists_8h.html" target="_top" xlink:title=" ">
<polygon fill="white" stroke="black" points="554,-168.5 554,-187.5 676,-187.5 676,-168.5 554,-168.5"/>
<text text-anchor="middle" x="615" y="-175.5" font-family="Helvetica,sans-Serif" font-size="10.00">sitkPixelIDTypeLists.h</text>
</a>
</g>
</g>
<!-- Node18&#45;&gt;Node20 -->
<g id="edge26" class="edge">
<title>Node18&#45;&gt;Node20</title>
<path fill="none" stroke="midnightblue" d="M462.91,-224.47C497.69,-214.08 544.5,-200.08 576.97,-190.37"/>
<polygon fill="midnightblue" stroke="midnightblue" points="577.97,-193.72 586.55,-187.51 575.97,-187.02 577.97,-193.72"/>
</g>
<!-- Node21 -->
<g id="node21" class="node">
<title>Node21</title>
<g id="a_node21"><a xlink:title=" ">
<polygon fill="white" stroke="#bfbfbf" points="408.5,-112.5 408.5,-131.5 527.5,-131.5 527.5,-112.5 408.5,-112.5"/>
<text text-anchor="middle" x="468" y="-119.5" font-family="Helvetica,sans-Serif" font-size="10.00">Ancillary/type_list2.h</text>
</a>
</g>
</g>
<!-- Node18&#45;&gt;Node21 -->
<g id="edge35" class="edge">
<title>Node18&#45;&gt;Node21</title>
<path fill="none" stroke="midnightblue" d="M461.18,-224.34C478.35,-216.51 496.13,-204.85 506,-188 515.88,-171.12 501.23,-151.77 487.35,-138.6"/>
<polygon fill="midnightblue" stroke="midnightblue" points="489.27,-135.62 479.45,-131.62 484.63,-140.87 489.27,-135.62"/>
</g>
<!-- Node23 -->
<g id="node23" class="node">
<title>Node23</title>
<g id="a_node23"><a xlink:href="sitkNonCopyable_8h.html" target="_top" xlink:title=" ">
<polygon fill="white" stroke="black" points="732.5,-168.5 732.5,-187.5 841.5,-187.5 841.5,-168.5 732.5,-168.5"/>
<text text-anchor="middle" x="787" y="-175.5" font-family="Helvetica,sans-Serif" font-size="10.00">sitkNonCopyable.h</text>
</a>
</g>
</g>
<!-- Node18&#45;&gt;Node23 -->
<g id="edge33" class="edge">
<title>Node18&#45;&gt;Node23</title>
<path fill="none" stroke="midnightblue" d="M492.42,-226.24C560.78,-215.28 659.79,-199.4 723.78,-189.14"/>
<polygon fill="midnightblue" stroke="midnightblue" points="724.42,-192.58 733.74,-187.54 723.31,-185.67 724.42,-192.58"/>
</g>
<!-- Node18&#45;&gt;Node24 -->
<g id="edge36" class="edge">
<title>Node18&#45;&gt;Node24</title>
<path fill="none" stroke="midnightblue" d="M341.04,-224.47C283.54,-213.72 205.47,-199.11 153.5,-189.38"/>
<polygon fill="midnightblue" stroke="midnightblue" points="153.94,-185.91 143.46,-187.51 152.65,-192.79 153.94,-185.91"/>
</g>
<!-- Node25 -->
<g id="node25" class="node">
<title>Node25</title>
<g id="a_node25"><a xlink:title=" ">
<polygon fill="white" stroke="#bfbfbf" points="321.5,-168.5 321.5,-187.5 414.5,-187.5 414.5,-168.5 321.5,-168.5"/>
<text text-anchor="middle" x="368" y="-175.5" font-family="Helvetica,sans-Serif" font-size="10.00">unordered_map</text>
</a>
</g>
</g>
<!-- Node18&#45;&gt;Node25 -->
<g id="edge37" class="edge">
<title>Node18&#45;&gt;Node25</title>
<path fill="none" stroke="midnightblue" d="M404.62,-224.4C397.65,-215.75 388.69,-204.64 381.37,-195.58"/>
<polygon fill="midnightblue" stroke="midnightblue" points="383.99,-193.24 374.98,-187.66 378.54,-197.64 383.99,-193.24"/>
</g>
<!-- Node26 -->
<g id="node26" class="node">
<title>Node26</title>
<g id="a_node26"><a xlink:title=" ">
<polygon fill="white" stroke="#bfbfbf" points="432.5,-168.5 432.5,-187.5 497.5,-187.5 497.5,-168.5 432.5,-168.5"/>
<text text-anchor="middle" x="465" y="-175.5" font-family="Helvetica,sans-Serif" font-size="10.00">functional</text>
</a>
</g>
</g>
<!-- Node18&#45;&gt;Node26 -->
<g id="edge38" class="edge">
<title>Node18&#45;&gt;Node26</title>
<path fill="none" stroke="midnightblue" d="M427.61,-224.4C434.73,-215.75 443.88,-204.64 451.35,-195.58"/>
<polygon fill="midnightblue" stroke="midnightblue" points="454.21,-197.6 457.87,-187.66 448.81,-193.15 454.21,-197.6"/>
</g>
<!-- Node27 -->
<g id="node27" class="node">
<title>Node27</title>
<g id="a_node27"><a xlink:title=" ">
<polygon fill="white" stroke="#bfbfbf" points="185.5,-168.5 185.5,-187.5 226.5,-187.5 226.5,-168.5 185.5,-168.5"/>
<text text-anchor="middle" x="206" y="-175.5" font-family="Helvetica,sans-Serif" font-size="10.00">tuple</text>
</a>
</g>
</g>
<!-- Node18&#45;&gt;Node27 -->
<g id="edge39" class="edge">
<title>Node18&#45;&gt;Node27</title>
<path fill="none" stroke="midnightblue" d="M366.5,-224.47C326.17,-213.05 270.51,-197.28 236.45,-187.63"/>
<polygon fill="midnightblue" stroke="midnightblue" points="237.19,-184.2 226.62,-184.84 235.29,-190.94 237.19,-184.2"/>
</g>
<!-- Node20&#45;&gt;Node4 -->
<g id="edge27" class="edge">
<title>Node20&#45;&gt;Node4</title>
<path fill="none" stroke="midnightblue" d="M623.84,-168.48C632.2,-159.97 644.55,-146.14 652,-132 669.77,-98.26 679.57,-54.34 684.02,-29.77"/>
<polygon fill="midnightblue" stroke="midnightblue" points="687.51,-30.11 685.73,-19.66 680.61,-28.94 687.51,-30.11"/>
</g>
<!-- Node20&#45;&gt;Node9 -->
<g id="edge28" class="edge">
<title>Node20&#45;&gt;Node9</title>
<path fill="none" stroke="midnightblue" d="M604.85,-168.49C589.88,-155.99 560.97,-131.97 536,-112 497.06,-80.87 450.83,-45.27 425.32,-25.74"/>
<polygon fill="midnightblue" stroke="midnightblue" points="427.28,-22.84 417.21,-19.54 423.03,-28.4 427.28,-22.84"/>
</g>
<!-- Node20&#45;&gt;Node19 -->
<g id="edge29" class="edge">
<title>Node20&#45;&gt;Node19</title>
<path fill="none" stroke="midnightblue" d="M570.95,-168.44C522.15,-158.96 443.44,-143.67 390.97,-133.48"/>
<polygon fill="midnightblue" stroke="midnightblue" points="391.33,-129.99 380.84,-131.52 389.99,-136.86 391.33,-129.99"/>
</g>
<!-- Node20&#45;&gt;Node21 -->
<g id="edge30" class="edge">
<title>Node20&#45;&gt;Node21</title>
<path fill="none" stroke="midnightblue" d="M591.71,-168.44C567.19,-159.44 528.4,-145.19 500.8,-135.05"/>
<polygon fill="midnightblue" stroke="midnightblue" points="501.78,-131.68 491.18,-131.52 499.36,-138.25 501.78,-131.68"/>
</g>
<!-- Node22 -->
<g id="node22" class="node">
<title>Node22</title>
<g id="a_node22"><a xlink:title=" ">
<polygon fill="white" stroke="#bfbfbf" points="584.5,-112.5 584.5,-131.5 643.5,-131.5 643.5,-112.5 584.5,-112.5"/>
<text text-anchor="middle" x="614" y="-119.5" font-family="Helvetica,sans-Serif" font-size="10.00">complex</text>
</a>
</g>
</g>
<!-- Node20&#45;&gt;Node22 -->
<g id="edge31" class="edge">
<title>Node20&#45;&gt;Node22</title>
<path fill="none" stroke="midnightblue" d="M614.83,-168.08C614.7,-161.01 614.52,-150.86 614.35,-141.99"/>
<polygon fill="midnightblue" stroke="midnightblue" points="617.85,-141.68 614.16,-131.75 610.85,-141.81 617.85,-141.68"/>
</g>
<!-- Node23&#45;&gt;Node2 -->
<g id="edge34" class="edge">
<title>Node23&#45;&gt;Node2</title>
<path fill="none" stroke="midnightblue" d="M831.05,-168.44C879.85,-158.96 958.56,-143.67 1011.03,-133.48"/>
<polygon fill="midnightblue" stroke="midnightblue" points="1012.01,-136.86 1021.16,-131.52 1010.67,-129.99 1012.01,-136.86"/>
</g>
<!-- Node28&#45;&gt;Node9 -->
<g id="edge42" class="edge">
<title>Node28&#45;&gt;Node9</title>
<path fill="none" stroke="midnightblue" d="M728.87,-297.31C550.42,-287.89 0,-252.85 0,-179 0,-179 0,-179 0,-121 0,-49.12 240.07,-22.74 351,-14.39"/>
<polygon fill="midnightblue" stroke="midnightblue" points="351.28,-17.88 361,-13.66 350.77,-10.9 351.28,-17.88"/>
</g>
<!-- Node29 -->
<g id="node29" class="node">
<title>Node29</title>
<g id="a_node29"><a xlink:href="sitkPixelIDValues_8h.html" target="_top" xlink:title=" ">
<polygon fill="white" stroke="black" points="675,-230 675,-249 785,-249 785,-230 675,-230"/>
<text text-anchor="middle" x="730" y="-237" font-family="Helvetica,sans-Serif" font-size="10.00">sitkPixelIDValues.h</text>
</a>
</g>
</g>
<!-- Node28&#45;&gt;Node29 -->
<g id="edge43" class="edge">
<title>Node28&#45;&gt;Node29</title>
<path fill="none" stroke="midnightblue" d="M776.26,-291.48C768,-282.37 754.72,-267.74 744.51,-256.48"/>
<polygon fill="midnightblue" stroke="midnightblue" points="747.03,-254.06 737.72,-249.01 741.85,-258.77 747.03,-254.06"/>
</g>
<!-- Node28&#45;&gt;Node31 -->
<g id="edge48" class="edge">
<title>Node28&#45;&gt;Node31</title>
<path fill="none" stroke="midnightblue" d="M791.74,-291.48C800,-282.37 813.28,-267.74 823.49,-256.48"/>
<polygon fill="midnightblue" stroke="midnightblue" points="826.15,-258.77 830.28,-249.01 820.97,-254.06 826.15,-258.77"/>
</g>
<!-- Node29&#45;&gt;Node2 -->
<g id="edge44" class="edge">
<title>Node29&#45;&gt;Node2</title>
<path fill="none" stroke="midnightblue" d="M766.56,-229.96C803.82,-220.89 863.07,-205.47 913,-188 957.54,-172.41 1007.56,-150.04 1037.66,-136.02"/>
<polygon fill="midnightblue" stroke="midnightblue" points="1039.49,-139.02 1047.06,-131.61 1036.52,-132.69 1039.49,-139.02"/>
</g>
<!-- Node29&#45;&gt;Node15 -->
<g id="edge47" class="edge">
<title>Node29&#45;&gt;Node15</title>
<path fill="none" stroke="midnightblue" d="M764.41,-229.99C773.95,-227.83 784.34,-225.65 794,-224 930.28,-200.69 965.68,-204.13 1103,-188 1115.15,-186.57 1128.38,-185.01 1140.35,-183.59"/>
<polygon fill="midnightblue" stroke="midnightblue" points="1140.97,-187.04 1150.49,-182.39 1140.15,-180.09 1140.97,-187.04"/>
</g>
<!-- Node29&#45;&gt;Node20 -->
<g id="edge45" class="edge">
<title>Node29&#45;&gt;Node20</title>
<path fill="none" stroke="midnightblue" d="M713.52,-229.98C694.39,-220.08 662.63,-203.64 640.35,-192.12"/>
<polygon fill="midnightblue" stroke="midnightblue" points="641.94,-189 631.45,-187.51 638.72,-195.21 641.94,-189"/>
</g>
<!-- Node30 -->
<g id="node30" class="node">
<title>Node30</title>
<g id="a_node30"><a xlink:title=" ">
<polygon fill="white" stroke="#bfbfbf" points="860,-168.5 860,-187.5 904,-187.5 904,-168.5 860,-168.5"/>
<text text-anchor="middle" x="882" y="-175.5" font-family="Helvetica,sans-Serif" font-size="10.00">string</text>
</a>
</g>
</g>
<!-- Node29&#45;&gt;Node30 -->
<g id="edge46" class="edge">
<title>Node29&#45;&gt;Node30</title>
<path fill="none" stroke="midnightblue" d="M751.78,-229.98C777.74,-219.81 821.31,-202.76 850.83,-191.2"/>
<polygon fill="midnightblue" stroke="midnightblue" points="852.23,-194.41 860.26,-187.51 849.67,-187.9 852.23,-194.41"/>
</g>
<!-- Node32&#45;&gt;Node2 -->
<g id="edge50" class="edge">
<title>Node32&#45;&gt;Node2</title>
<path fill="none" stroke="midnightblue" d="M1119.21,-229.81C1117.67,-216.04 1113.47,-188.67 1103,-168 1097.59,-157.33 1089.19,-147.01 1081.66,-138.95"/>
<polygon fill="midnightblue" stroke="midnightblue" points="1084.07,-136.41 1074.56,-131.72 1079.07,-141.31 1084.07,-136.41"/>
</g>
<!-- Node32&#45;&gt;Node15 -->
<g id="edge51" class="edge">
<title>Node32&#45;&gt;Node15</title>
<path fill="none" stroke="midnightblue" d="M1128.45,-229.98C1137.57,-220.78 1152.27,-205.96 1163.48,-194.66"/>
<polygon fill="midnightblue" stroke="midnightblue" points="1166.01,-197.07 1170.56,-187.51 1161.04,-192.15 1166.01,-197.07"/>
</g>
</g>
</svg>
