<?xml version="1.0" encoding="UTF-8" standalone="no"?>
<!DOCTYPE svg PUBLIC "-//W3C//DTD SVG 1.1//EN"
 "http://www.w3.org/Graphics/SVG/1.1/DTD/svg11.dtd">
<!-- Generated by graphviz version 2.43.0 (0)
 -->
<!-- Title: sitkImageConvert.h Pages: 1 -->
<!--zoomable 423 -->

<svg id="main" version="1.1" xmlns="http://www.w3.org/2000/svg" xmlns:xlink="http://www.w3.org/1999/xlink" xml:space="preserve" onload="init(evt)">

<style type="text/css"><![CDATA[
.node, .edge {opacity: 0.7;}
.node.selected, .edge.selected {opacity: 1;}
.edge:hover path { stroke: red; }
.edge:hover polygon { stroke: red; fill: red; }
]]></style>

<defs>
  <circle id="rim" cx="0" cy="0" r="7"/>
  <circle id="rim2" cx="0" cy="0" r="3.5"/>
  <g id="zoomPlus">
    <use xlink:href="#rim" fill="#404040"><set attributeName="fill" to="#808080" begin="zoomplus.mouseover" end="zoomplus.mouseout"/></use>
    <path d="M-4,0h8M0,-4v8" fill="none" stroke="white" stroke-width="1.5" pointer-events="none"/>
  </g>
  <g id="zoomMin">
    <use xlink:href="#rim" fill="#404040"><set attributeName="fill" to="#808080" begin="zoomminus.mouseover" end="zoomminus.mouseout"/></use>
    <path d="M-4,0h8" fill="none" stroke="white" stroke-width="1.5" pointer-events="none"/>
  </g>
  <g id="arrowUp" transform="translate(30 24)">
    <use xlink:href="#rim"/>
    <path pointer-events="none" fill="none" stroke="white" stroke-width="1.5" d="M0,-3.0v7 M-2.5,-0.5L0,-3.0L2.5,-0.5"/>
  </g>
  <g id="arrowRight" transform="rotate(90) translate(36 -43)">
    <use xlink:href="#rim"/>
    <path pointer-events="none" fill="none" stroke="white" stroke-width="1.5" d="M0,-3.0v7 M-2.5,-0.5L0,-3.0L2.5,-0.5"/>
  </g>
  <g id="arrowDown" transform="rotate(180) translate(-30 -48)">
    <use xlink:href="#rim"/>
    <path pointer-events="none" fill="none" stroke="white" stroke-width="1.5" d="M0,-3.0v7 M-2.5,-0.5L0,-3.0L2.5,-0.5"/>
  </g>
  <g id="arrowLeft" transform="rotate(270) translate(-36 17)">
    <use xlink:href="#rim"/>
    <path pointer-events="none" fill="none" stroke="white" stroke-width="1.5" d="M0,-3.0v7 M-2.5,-0.5L0,-3.0L2.5,-0.5"/>
  </g>
  <g id="resetDef">
    <use xlink:href="#rim2" fill="#404040"><set attributeName="fill" to="#808080" begin="reset.mouseover" end="reset.mouseout"/></use>
  </g>
</defs>
<script type="application/ecmascript">
var viewWidth = 1566;
var viewHeight = 423;
var sectionId = 'dynsection-0';
</script>
<script type="application/ecmascript" xlink:href="svg.min.js"/>
<svg id="graph" class="graph">
<g id="viewport">
<title>sitkImageConvert.h</title>
<!-- Node1 -->
<g id="Node000001" class="node">
<title>Node1</title>
<g id="a_Node000001"><a xlink:title=" ">
<polygon fill="#999999" stroke="#666666" points="473.19,-415 360.19,-415 360.19,-396 473.19,-396 473.19,-415"/>
<text text-anchor="middle" x="416.69" y="-403" font-family="Helvetica,sans-Serif" font-size="10.00">sitkImageConvert.h</text>
</a>
</g>
</g>
<!-- Node2 -->
<g id="Node000002" class="node">
<title>Node2</title>
<g id="a_Node000002"><a xlink:href="sitkImage_8h.html" target="_top" xlink:title=" ">
<polygon fill="white" stroke="#666666" points="453.69,-360 379.69,-360 379.69,-341 453.69,-341 453.69,-360"/>
<text text-anchor="middle" x="416.69" y="-348" font-family="Helvetica,sans-Serif" font-size="10.00">sitkImage.h</text>
</a>
</g>
</g>
<!-- Node1&#45;&gt;Node2 -->
<g id="edge1_Node000001_Node000002" class="edge">
<title>Node1&#45;&gt;Node2</title>
<g id="a_edge1_Node000001_Node000002"><a xlink:title=" ">
<path fill="none" stroke="#63b8ff" d="M416.69,-395.75C416.69,-388.8 416.69,-378.85 416.69,-370.13"/>
<polygon fill="#63b8ff" stroke="#63b8ff" points="420.19,-370.09 416.69,-360.09 413.19,-370.09 420.19,-370.09"/>
</a>
</g>
</g>
<!-- Node3 -->
<g id="Node000003" class="node">
<title>Node3</title>
<g id="a_Node000003"><a xlink:href="sitkCommon_8h.html" target="_top" xlink:title=" ">
<polygon fill="white" stroke="#666666" points="459.69,-129 371.69,-129 371.69,-110 459.69,-110 459.69,-129"/>
<text text-anchor="middle" x="415.69" y="-117" font-family="Helvetica,sans-Serif" font-size="10.00">sitkCommon.h</text>
</a>
</g>
</g>
<!-- Node2&#45;&gt;Node3 -->
<g id="edge2_Node000002_Node000003" class="edge">
<title>Node2&#45;&gt;Node3</title>
<g id="a_edge2_Node000002_Node000003"><a xlink:title=" ">
<path fill="none" stroke="#63b8ff" d="M414.33,-340.8C409.81,-323.62 400.07,-284.01 396.69,-250 392.73,-210.21 403.19,-163.94 410.12,-138.89"/>
<polygon fill="#63b8ff" stroke="#63b8ff" points="413.49,-139.84 412.9,-129.26 406.76,-137.89 413.49,-139.84"/>
</a>
</g>
</g>
<!-- Node11 -->
<g id="Node000011" class="node">
<title>Node11</title>
<g id="a_Node000011"><a xlink:href="sitkTemplateFunctions_8h.html" target="_top" xlink:title=" ">
<polygon fill="white" stroke="#666666" points="317.19,-244.5 182.19,-244.5 182.19,-225.5 317.19,-225.5 317.19,-244.5"/>
<text text-anchor="middle" x="249.69" y="-232.5" font-family="Helvetica,sans-Serif" font-size="10.00">sitkTemplateFunctions.h</text>
</a>
</g>
</g>
<!-- Node2&#45;&gt;Node11 -->
<g id="edge10_Node000002_Node000011" class="edge">
<title>Node2&#45;&gt;Node11</title>
<g id="a_edge10_Node000002_Node000011"><a xlink:title=" ">
<path fill="none" stroke="#63b8ff" d="M404.14,-340.97C375.73,-321.66 306.23,-274.43 270.97,-250.46"/>
<polygon fill="#63b8ff" stroke="#63b8ff" points="272.62,-247.36 262.39,-244.63 268.69,-253.15 272.62,-247.36"/>
</a>
</g>
</g>
<!-- Node13 -->
<g id="Node000013" class="node">
<title>Node13</title>
<g id="a_Node000013"><a xlink:title=" ">
<polygon fill="#e0e0e0" stroke="#999999" points="238.69,-129 180.69,-129 180.69,-110 238.69,-110 238.69,-129"/>
<text text-anchor="middle" x="209.69" y="-117" font-family="Helvetica,sans-Serif" font-size="10.00">memory</text>
</a>
</g>
</g>
<!-- Node2&#45;&gt;Node13 -->
<g id="edge51_Node000002_Node000013" class="edge">
<title>Node2&#45;&gt;Node13</title>
<g id="a_edge51_Node000002_Node000013"><a xlink:title=" ">
<path fill="none" stroke="#63b8ff" d="M379.54,-348.66C293.15,-344.39 80.29,-319.93 3.69,-184 -0.46,-176.64 -1.62,-171.57 3.69,-165 24.21,-139.57 116.36,-127.97 170.2,-123.27"/>
<polygon fill="#63b8ff" stroke="#63b8ff" points="170.75,-126.74 180.43,-122.42 170.18,-119.76 170.75,-126.74"/>
</a>
</g>
</g>
<!-- Node14 -->
<g id="Node000014" class="node">
<title>Node14</title>
<g id="a_Node000014"><a xlink:title=" ">
<polygon fill="#e0e0e0" stroke="#999999" points="60.19,-184 13.19,-184 13.19,-165 60.19,-165 60.19,-184"/>
<text text-anchor="middle" x="36.69" y="-172" font-family="Helvetica,sans-Serif" font-size="10.00">vector</text>
</a>
</g>
</g>
<!-- Node2&#45;&gt;Node14 -->
<g id="edge50_Node000002_Node000014" class="edge">
<title>Node2&#45;&gt;Node14</title>
<g id="a_edge50_Node000002_Node000014"><a xlink:title=" ">
<path fill="none" stroke="#63b8ff" d="M393.09,-340.9C349.09,-324.65 251.79,-287.65 172.69,-250 132.02,-230.65 86.43,-204.78 59.72,-189.17"/>
<polygon fill="#63b8ff" stroke="#63b8ff" points="61.49,-186.15 51.09,-184.1 57.94,-192.19 61.49,-186.15"/>
</a>
</g>
</g>
<!-- Node17 -->
<g id="Node000017" class="node">
<title>Node17</title>
<g id="a_Node000017"><a xlink:href="sitkDetail_8h.html" target="_top" xlink:title=" ">
<polygon fill="white" stroke="#666666" points="961.19,-305 888.19,-305 888.19,-286 961.19,-286 961.19,-305"/>
<text text-anchor="middle" x="924.69" y="-293" font-family="Helvetica,sans-Serif" font-size="10.00">sitkDetail.h</text>
</a>
</g>
</g>
<!-- Node2&#45;&gt;Node17 -->
<g id="edge20_Node000002_Node000017" class="edge">
<title>Node2&#45;&gt;Node17</title>
<g id="a_edge20_Node000002_Node000017"><a xlink:title=" ">
<path fill="none" stroke="#63b8ff" d="M454.04,-345.6C545,-336.11 777.82,-311.82 877.85,-301.39"/>
<polygon fill="#63b8ff" stroke="#63b8ff" points="878.38,-304.85 887.96,-300.33 877.65,-297.89 878.38,-304.85"/>
</a>
</g>
</g>
<!-- Node28 -->
<g id="Node000028" class="node">
<title>Node28</title>
<g id="a_Node000028"><a xlink:href="sitkPixelIDTokens_8h.html" target="_top" xlink:title=" ">
<polygon fill="white" stroke="#666666" points="1397.69,-305 1287.69,-305 1287.69,-286 1397.69,-286 1397.69,-305"/>
<text text-anchor="middle" x="1342.69" y="-293" font-family="Helvetica,sans-Serif" font-size="10.00">sitkPixelIDTokens.h</text>
</a>
</g>
</g>
<!-- Node2&#45;&gt;Node28 -->
<g id="edge39_Node000002_Node000028" class="edge">
<title>Node2&#45;&gt;Node28</title>
<g id="a_edge39_Node000002_Node000028"><a xlink:title=" ">
<path fill="none" stroke="#63b8ff" d="M453.85,-347.37C594.66,-339.31 1096.61,-310.58 1277.29,-300.24"/>
<polygon fill="#63b8ff" stroke="#63b8ff" points="1277.66,-303.73 1287.44,-299.66 1277.26,-296.74 1277.66,-303.73"/>
</a>
</g>
</g>
<!-- Node31 -->
<g id="Node000031" class="node">
<title>Node31</title>
<g id="a_Node000031"><a xlink:title=" ">
<polygon fill="#e0e0e0" stroke="#999999" points="1558.19,-244.5 1489.19,-244.5 1489.19,-225.5 1558.19,-225.5 1558.19,-244.5"/>
<text text-anchor="middle" x="1523.69" y="-232.5" font-family="Helvetica,sans-Serif" font-size="10.00">type_traits</text>
</a>
</g>
</g>
<!-- Node2&#45;&gt;Node31 -->
<g id="edge52_Node000002_Node000031" class="edge">
<title>Node2&#45;&gt;Node31</title>
<g id="a_edge52_Node000002_Node000031"><a xlink:title=" ">
<path fill="none" stroke="#63b8ff" d="M453.76,-348.89C622.55,-345.99 1314.13,-332.51 1406.69,-305 1444.63,-293.72 1483.12,-267.57 1505.13,-250.89"/>
<polygon fill="#63b8ff" stroke="#63b8ff" points="1507.48,-253.5 1513.24,-244.6 1503.19,-247.96 1507.48,-253.5"/>
</a>
</g>
</g>
<!-- Node32 -->
<g id="Node000032" class="node">
<title>Node32</title>
<g id="a_Node000032"><a xlink:href="sitkInterpolator_8h.html" target="_top" xlink:title=" ">
<polygon fill="white" stroke="#666666" points="505.69,-244.5 405.69,-244.5 405.69,-225.5 505.69,-225.5 505.69,-244.5"/>
<text text-anchor="middle" x="455.69" y="-232.5" font-family="Helvetica,sans-Serif" font-size="10.00">sitkInterpolator.h</text>
</a>
</g>
</g>
<!-- Node2&#45;&gt;Node32 -->
<g id="edge47_Node000002_Node000032" class="edge">
<title>Node2&#45;&gt;Node32</title>
<g id="a_edge47_Node000002_Node000032"><a xlink:title=" ">
<path fill="none" stroke="#63b8ff" d="M419.62,-340.97C425.92,-322.65 440.85,-279.18 449.4,-254.31"/>
<polygon fill="#63b8ff" stroke="#63b8ff" points="452.78,-255.22 452.72,-244.63 446.16,-252.95 452.78,-255.22"/>
</a>
</g>
</g>
<!-- Node4 -->
<g id="Node000004" class="node">
<title>Node4</title>
<g id="a_Node000004"><a xlink:href="sitkMacro_8h.html" target="_top" xlink:title=" ">
<polygon fill="white" stroke="#666666" points="573.69,-74 499.69,-74 499.69,-55 573.69,-55 573.69,-74"/>
<text text-anchor="middle" x="536.69" y="-62" font-family="Helvetica,sans-Serif" font-size="10.00">sitkMacro.h</text>
</a>
</g>
</g>
<!-- Node3&#45;&gt;Node4 -->
<g id="edge3_Node000003_Node000004" class="edge">
<title>Node3&#45;&gt;Node4</title>
<g id="a_edge3_Node000003_Node000004"><a xlink:title=" ">
<path fill="none" stroke="#63b8ff" d="M435.13,-109.98C454.68,-101.42 485.07,-88.11 507.51,-78.28"/>
<polygon fill="#63b8ff" stroke="#63b8ff" points="509.14,-81.39 516.89,-74.17 506.33,-74.98 509.14,-81.39"/>
</a>
</g>
</g>
<!-- Node5 -->
<g id="Node000005" class="node">
<title>Node5</title>
<g id="a_Node000005"><a xlink:title=" ">
<polygon fill="#e0e0e0" stroke="#999999" points="943.19,-19 890.19,-19 890.19,0 943.19,0 943.19,-19"/>
<text text-anchor="middle" x="916.69" y="-7" font-family="Helvetica,sans-Serif" font-size="10.00">stdint.h</text>
</a>
</g>
</g>
<!-- Node4&#45;&gt;Node5 -->
<g id="edge4_Node000004_Node000005" class="edge">
<title>Node4&#45;&gt;Node5</title>
<g id="a_edge4_Node000004_Node000005"><a xlink:title=" ">
<path fill="none" stroke="#63b8ff" d="M573.82,-58.32C646.62,-48.17 807.32,-25.75 879.87,-15.63"/>
<polygon fill="#63b8ff" stroke="#63b8ff" points="880.5,-19.08 889.92,-14.23 879.53,-12.15 880.5,-19.08"/>
</a>
</g>
</g>
<!-- Node6 -->
<g id="Node000006" class="node">
<title>Node6</title>
<g id="a_Node000006"><a xlink:title=" ">
<polygon fill="#e0e0e0" stroke="#999999" points="598.69,-19 542.69,-19 542.69,0 598.69,0 598.69,-19"/>
<text text-anchor="middle" x="570.69" y="-7" font-family="Helvetica,sans-Serif" font-size="10.00">stddef.h</text>
</a>
</g>
</g>
<!-- Node4&#45;&gt;Node6 -->
<g id="edge5_Node000004_Node000006" class="edge">
<title>Node4&#45;&gt;Node6</title>
<g id="a_edge5_Node000004_Node000006"><a xlink:title=" ">
<path fill="none" stroke="#63b8ff" d="M542.3,-54.75C547.01,-47.42 553.86,-36.73 559.66,-27.7"/>
<polygon fill="#63b8ff" stroke="#63b8ff" points="562.72,-29.4 565.18,-19.09 556.83,-25.62 562.72,-29.4"/>
</a>
</g>
</g>
<!-- Node7 -->
<g id="Node000007" class="node">
<title>Node7</title>
<g id="a_Node000007"><a xlink:title=" ">
<polygon fill="#e0e0e0" stroke="#999999" points="668.69,-19 616.69,-19 616.69,0 668.69,0 668.69,-19"/>
<text text-anchor="middle" x="642.69" y="-7" font-family="Helvetica,sans-Serif" font-size="10.00">cassert</text>
</a>
</g>
</g>
<!-- Node4&#45;&gt;Node7 -->
<g id="edge6_Node000004_Node000007" class="edge">
<title>Node4&#45;&gt;Node7</title>
<g id="a_edge6_Node000004_Node000007"><a xlink:title=" ">
<path fill="none" stroke="#63b8ff" d="M553.72,-54.98C570.62,-46.54 596.75,-33.47 616.33,-23.68"/>
<polygon fill="#63b8ff" stroke="#63b8ff" points="617.97,-26.77 625.35,-19.17 614.84,-20.51 617.97,-26.77"/>
</a>
</g>
</g>
<!-- Node8 -->
<g id="Node000008" class="node">
<title>Node8</title>
<g id="a_Node000008"><a xlink:title=" ">
<polygon fill="#e0e0e0" stroke="#999999" points="462.69,-19 406.69,-19 406.69,0 462.69,0 462.69,-19"/>
<text text-anchor="middle" x="434.69" y="-7" font-family="Helvetica,sans-Serif" font-size="10.00">sstream</text>
</a>
</g>
</g>
<!-- Node4&#45;&gt;Node8 -->
<g id="edge7_Node000004_Node000008" class="edge">
<title>Node4&#45;&gt;Node8</title>
<g id="a_edge7_Node000004_Node000008"><a xlink:title=" ">
<path fill="none" stroke="#63b8ff" d="M520.3,-54.98C504.11,-46.57 479.12,-33.59 460.31,-23.81"/>
<polygon fill="#63b8ff" stroke="#63b8ff" points="461.86,-20.68 451.37,-19.17 458.63,-26.89 461.86,-20.68"/>
</a>
</g>
</g>
<!-- Node9 -->
<g id="Node000009" class="node">
<title>Node9</title>
<g id="a_Node000009"><a xlink:title=" ">
<polygon fill="#e0e0e0" stroke="#999999" points="524.69,-19 480.69,-19 480.69,0 524.69,0 524.69,-19"/>
<text text-anchor="middle" x="502.69" y="-7" font-family="Helvetica,sans-Serif" font-size="10.00">limits</text>
</a>
</g>
</g>
<!-- Node4&#45;&gt;Node9 -->
<g id="edge8_Node000004_Node000009" class="edge">
<title>Node4&#45;&gt;Node9</title>
<g id="a_edge8_Node000004_Node000009"><a xlink:title=" ">
<path fill="none" stroke="#63b8ff" d="M531.07,-54.75C526.37,-47.42 519.51,-36.73 513.72,-27.7"/>
<polygon fill="#63b8ff" stroke="#63b8ff" points="516.54,-25.62 508.2,-19.09 510.65,-29.4 516.54,-25.62"/>
</a>
</g>
</g>
<!-- Node10 -->
<g id="Node000010" class="node">
<title>Node10</title>
<g id="a_Node000010"><a xlink:href="sitkConfigure_8h.html" target="_top" xlink:title=" ">
<polygon fill="white" stroke="#666666" points="1201.69,-19 1111.69,-19 1111.69,0 1201.69,0 1201.69,-19"/>
<text text-anchor="middle" x="1156.69" y="-7" font-family="Helvetica,sans-Serif" font-size="10.00">sitkConfigure.h</text>
</a>
</g>
</g>
<!-- Node4&#45;&gt;Node10 -->
<g id="edge9_Node000004_Node000010" class="edge">
<title>Node4&#45;&gt;Node10</title>
<g id="a_edge9_Node000004_Node000010"><a xlink:title=" ">
<path fill="none" stroke="#63b8ff" d="M574.08,-60.3C679.12,-51.32 977.3,-25.83 1101.42,-15.22"/>
<polygon fill="#63b8ff" stroke="#63b8ff" points="1101.8,-18.7 1111.47,-14.37 1101.2,-11.73 1101.8,-18.7"/>
</a>
</g>
</g>
<!-- Node11&#45;&gt;Node3 -->
<g id="edge12_Node000011_Node000003" class="edge">
<title>Node11&#45;&gt;Node3</title>
<g id="a_edge12_Node000011_Node000003"><a xlink:title=" ">
<path fill="none" stroke="#63b8ff" d="M262.17,-225.47C290.41,-206.16 359.48,-158.93 394.54,-134.96"/>
<polygon fill="#63b8ff" stroke="#63b8ff" points="396.79,-137.66 403.07,-129.13 392.84,-131.88 396.79,-137.66"/>
</a>
</g>
</g>
<!-- Node11&#45;&gt;Node4 -->
<g id="edge11_Node000011_Node000004" class="edge">
<title>Node11&#45;&gt;Node4</title>
<g id="a_edge11_Node000011_Node000004"><a xlink:title=" ">
<path fill="none" stroke="#63b8ff" d="M182.01,-226.44C137.88,-218.1 91.28,-200.74 107.69,-165 123.34,-130.92 137.38,-125.14 171.69,-110 227.54,-85.35 403.69,-72.69 489.2,-67.87"/>
<polygon fill="#63b8ff" stroke="#63b8ff" points="489.62,-71.35 499.41,-67.31 489.23,-64.36 489.62,-71.35"/>
</a>
</g>
</g>
<!-- Node12 -->
<g id="Node000012" class="node">
<title>Node12</title>
<g id="a_Node000012"><a xlink:href="sitkExceptionObject_8h.html" target="_top" xlink:title=" ">
<polygon fill="white" stroke="#666666" points="311.19,-184 188.19,-184 188.19,-165 311.19,-165 311.19,-184"/>
<text text-anchor="middle" x="249.69" y="-172" font-family="Helvetica,sans-Serif" font-size="10.00">sitkExceptionObject.h</text>
</a>
</g>
</g>
<!-- Node11&#45;&gt;Node12 -->
<g id="edge13_Node000011_Node000012" class="edge">
<title>Node11&#45;&gt;Node12</title>
<g id="a_edge13_Node000011_Node000012"><a xlink:title=" ">
<path fill="none" stroke="#63b8ff" d="M249.69,-225.37C249.69,-217.25 249.69,-204.81 249.69,-194.39"/>
<polygon fill="#63b8ff" stroke="#63b8ff" points="253.19,-194.17 249.69,-184.17 246.19,-194.17 253.19,-194.17"/>
</a>
</g>
</g>
<!-- Node11&#45;&gt;Node14 -->
<g id="edge17_Node000011_Node000014" class="edge">
<title>Node11&#45;&gt;Node14</title>
<g id="a_edge17_Node000011_Node000014"><a xlink:title=" ">
<path fill="none" stroke="#63b8ff" d="M218.72,-225.49C179.15,-214.63 110.92,-195.89 70.18,-184.7"/>
<polygon fill="#63b8ff" stroke="#63b8ff" points="71.02,-181.3 60.45,-182.03 69.16,-188.05 71.02,-181.3"/>
</a>
</g>
</g>
<!-- Node15 -->
<g id="Node000015" class="node">
<title>Node15</title>
<g id="a_Node000015"><a xlink:title=" ">
<polygon fill="#e0e0e0" stroke="#999999" points="501.19,-184 444.19,-184 444.19,-165 501.19,-165 501.19,-184"/>
<text text-anchor="middle" x="472.69" y="-172" font-family="Helvetica,sans-Serif" font-size="10.00">ostream</text>
</a>
</g>
</g>
<!-- Node11&#45;&gt;Node15 -->
<g id="edge18_Node000011_Node000015" class="edge">
<title>Node11&#45;&gt;Node15</title>
<g id="a_edge18_Node000011_Node000015"><a xlink:title=" ">
<path fill="none" stroke="#63b8ff" d="M282.11,-225.49C322.49,-214.9 391.35,-196.84 434.31,-185.57"/>
<polygon fill="#63b8ff" stroke="#63b8ff" points="435.33,-188.92 444.12,-183 433.56,-182.15 435.33,-188.92"/>
</a>
</g>
</g>
<!-- Node16 -->
<g id="Node000016" class="node">
<title>Node16</title>
<g id="a_Node000016"><a xlink:title=" ">
<polygon fill="#e0e0e0" stroke="#999999" points="170.19,-184 117.19,-184 117.19,-165 170.19,-165 170.19,-184"/>
<text text-anchor="middle" x="143.69" y="-172" font-family="Helvetica,sans-Serif" font-size="10.00">iterator</text>
</a>
</g>
</g>
<!-- Node11&#45;&gt;Node16 -->
<g id="edge19_Node000011_Node000016" class="edge">
<title>Node11&#45;&gt;Node16</title>
<g id="a_edge19_Node000011_Node000016"><a xlink:title=" ">
<path fill="none" stroke="#63b8ff" d="M234.05,-225.37C216.75,-215.82 188.64,-200.31 168.36,-189.12"/>
<polygon fill="#63b8ff" stroke="#63b8ff" points="169.84,-185.93 159.39,-184.17 166.46,-192.06 169.84,-185.93"/>
</a>
</g>
</g>
<!-- Node12&#45;&gt;Node3 -->
<g id="edge15_Node000012_Node000003" class="edge">
<title>Node12&#45;&gt;Node3</title>
<g id="a_edge15_Node000012_Node000003"><a xlink:title=" ">
<path fill="none" stroke="#63b8ff" d="M276.36,-164.98C304.23,-156.09 348.14,-142.07 379.21,-132.15"/>
<polygon fill="#63b8ff" stroke="#63b8ff" points="380.35,-135.46 388.81,-129.08 378.22,-128.79 380.35,-135.46"/>
</a>
</g>
</g>
<!-- Node12&#45;&gt;Node4 -->
<g id="edge14_Node000012_Node000004" class="edge">
<title>Node12&#45;&gt;Node4</title>
<g id="a_edge14_Node000012_Node000004"><a xlink:title=" ">
<path fill="none" stroke="#63b8ff" d="M262.35,-164.91C282.69,-151.47 324.25,-125.4 362.69,-110 404.18,-93.37 453.76,-81.41 489.36,-74.11"/>
<polygon fill="#63b8ff" stroke="#63b8ff" points="490.36,-77.48 499.48,-72.08 488.98,-70.61 490.36,-77.48"/>
</a>
</g>
</g>
<!-- Node12&#45;&gt;Node13 -->
<g id="edge16_Node000012_Node000013" class="edge">
<title>Node12&#45;&gt;Node13</title>
<g id="a_edge16_Node000012_Node000013"><a xlink:title=" ">
<path fill="none" stroke="#63b8ff" d="M243.08,-164.75C237.43,-157.26 229.14,-146.28 222.24,-137.13"/>
<polygon fill="#63b8ff" stroke="#63b8ff" points="224.99,-134.96 216.17,-129.09 219.4,-139.18 224.99,-134.96"/>
</a>
</g>
</g>
<!-- Node18 -->
<g id="Node000018" class="node">
<title>Node18</title>
<g id="a_Node000018"><a xlink:href="sitkMemberFunctionFactoryBase_8h.html" target="_top" xlink:title=" ">
<polygon fill="white" stroke="#666666" points="1000.69,-250 848.69,-250 848.69,-220 1000.69,-220 1000.69,-250"/>
<text text-anchor="start" x="856.69" y="-238" font-family="Helvetica,sans-Serif" font-size="10.00">sitkMemberFunctionFactory</text>
<text text-anchor="middle" x="924.69" y="-227" font-family="Helvetica,sans-Serif" font-size="10.00">Base.h</text>
</a>
</g>
</g>
<!-- Node17&#45;&gt;Node18 -->
<g id="edge21_Node000017_Node000018" class="edge">
<title>Node17&#45;&gt;Node18</title>
<g id="a_edge21_Node000017_Node000018"><a xlink:title=" ">
<path fill="none" stroke="#63b8ff" d="M924.69,-285.87C924.69,-279.11 924.69,-269.35 924.69,-260.26"/>
<polygon fill="#63b8ff" stroke="#63b8ff" points="928.19,-260.11 924.69,-250.11 921.19,-260.11 928.19,-260.11"/>
</a>
</g>
</g>
<!-- Node24 -->
<g id="Node000024" class="node">
<title>Node24</title>
<g id="a_Node000024"><a xlink:title=" ">
<polygon fill="#e0e0e0" stroke="#999999" points="1192.19,-184 1053.19,-184 1053.19,-165 1192.19,-165 1192.19,-184"/>
<text text-anchor="middle" x="1122.69" y="-172" font-family="Helvetica,sans-Serif" font-size="10.00">Ancillary/FunctionTraits.h</text>
</a>
</g>
</g>
<!-- Node17&#45;&gt;Node24 -->
<g id="edge38_Node000017_Node000024" class="edge">
<title>Node17&#45;&gt;Node24</title>
<g id="a_edge38_Node000017_Node000024"><a xlink:title=" ">
<path fill="none" stroke="#63b8ff" d="M942.22,-285.97C959.61,-277.36 986.87,-263.45 1009.69,-250 1042.78,-230.49 1079.69,-205.52 1102.04,-190.02"/>
<polygon fill="#63b8ff" stroke="#63b8ff" points="1104.21,-192.78 1110.41,-184.19 1100.2,-187.03 1104.21,-192.78"/>
</a>
</g>
</g>
<!-- Node18&#45;&gt;Node4 -->
<g id="edge30_Node000018_Node000004" class="edge">
<title>Node18&#45;&gt;Node4</title>
<g id="a_edge30_Node000018_Node000004"><a xlink:title=" ">
<path fill="none" stroke="#63b8ff" d="M848.52,-228.74C797.52,-222.85 730.03,-210.39 675.69,-184 622.89,-158.36 573.78,-107.86 550.63,-81.84"/>
<polygon fill="#63b8ff" stroke="#63b8ff" points="553.01,-79.26 543.8,-74.03 547.74,-83.86 553.01,-79.26"/>
</a>
</g>
</g>
<!-- Node18&#45;&gt;Node10 -->
<g id="edge22_Node000018_Node000010" class="edge">
<title>Node18&#45;&gt;Node10</title>
<g id="a_edge22_Node000018_Node000010"><a xlink:title=" ">
<path fill="none" stroke="#63b8ff" d="M926.21,-219.68C929.56,-194.68 939.62,-142.66 967.69,-110 1007.07,-64.18 1072.89,-36.38 1115.53,-22.22"/>
<polygon fill="#63b8ff" stroke="#63b8ff" points="1116.87,-25.47 1125.32,-19.08 1114.72,-18.8 1116.87,-25.47"/>
</a>
</g>
</g>
<!-- Node19 -->
<g id="Node000019" class="node">
<title>Node19</title>
<g id="a_Node000019"><a xlink:href="sitkPixelIDTypes_8h.html" target="_top" xlink:title=" ">
<polygon fill="white" stroke="#666666" points="1219.19,-129 1114.19,-129 1114.19,-110 1219.19,-110 1219.19,-129"/>
<text text-anchor="middle" x="1166.69" y="-117" font-family="Helvetica,sans-Serif" font-size="10.00">sitkPixelIDTypes.h</text>
</a>
</g>
</g>
<!-- Node18&#45;&gt;Node19 -->
<g id="edge23_Node000018_Node000019" class="edge">
<title>Node18&#45;&gt;Node19</title>
<g id="a_edge23_Node000018_Node000019"><a xlink:title=" ">
<path fill="none" stroke="#63b8ff" d="M946.42,-219.81C969.81,-204.93 1008.41,-181.45 1043.69,-165 1071.55,-152.01 1104.33,-140.32 1129.04,-132.18"/>
<polygon fill="#63b8ff" stroke="#63b8ff" points="1130.33,-135.44 1138.76,-129.03 1128.17,-128.78 1130.33,-135.44"/>
</a>
</g>
</g>
<!-- Node20 -->
<g id="Node000020" class="node">
<title>Node20</title>
<g id="a_Node000020"><a xlink:href="sitkPixelIDTypeLists_8h.html" target="_top" xlink:title=" ">
<polygon fill="white" stroke="#666666" points="1370.69,-184 1248.69,-184 1248.69,-165 1370.69,-165 1370.69,-184"/>
<text text-anchor="middle" x="1309.69" y="-172" font-family="Helvetica,sans-Serif" font-size="10.00">sitkPixelIDTypeLists.h</text>
</a>
</g>
</g>
<!-- Node18&#45;&gt;Node20 -->
<g id="edge24_Node000018_Node000020" class="edge">
<title>Node18&#45;&gt;Node20</title>
<g id="a_edge24_Node000018_Node000020"><a xlink:title=" ">
<path fill="none" stroke="#63b8ff" d="M1000.75,-222.44C1071.62,-211.67 1176.22,-195.78 1243.66,-185.53"/>
<polygon fill="#63b8ff" stroke="#63b8ff" points="1244.38,-188.96 1253.74,-184 1243.33,-182.04 1244.38,-188.96"/>
</a>
</g>
</g>
<!-- Node21 -->
<g id="Node000021" class="node">
<title>Node21</title>
<g id="a_Node000021"><a xlink:title=" ">
<polygon fill="#e0e0e0" stroke="#999999" points="1096.19,-129 977.19,-129 977.19,-110 1096.19,-110 1096.19,-129"/>
<text text-anchor="middle" x="1036.69" y="-117" font-family="Helvetica,sans-Serif" font-size="10.00">Ancillary/type_list2.h</text>
</a>
</g>
</g>
<!-- Node18&#45;&gt;Node21 -->
<g id="edge33_Node000018_Node000021" class="edge">
<title>Node18&#45;&gt;Node21</title>
<g id="a_edge33_Node000018_Node000021"><a xlink:title=" ">
<path fill="none" stroke="#63b8ff" d="M938.87,-219.63C959.84,-198.37 998.99,-158.71 1020.86,-136.54"/>
<polygon fill="#63b8ff" stroke="#63b8ff" points="1023.54,-138.81 1028.07,-129.23 1018.56,-133.89 1023.54,-138.81"/>
</a>
</g>
</g>
<!-- Node23 -->
<g id="Node000023" class="node">
<title>Node23</title>
<g id="a_Node000023"><a xlink:href="sitkNonCopyable_8h.html" target="_top" xlink:title=" ">
<polygon fill="white" stroke="#666666" points="628.19,-184 519.19,-184 519.19,-165 628.19,-165 628.19,-184"/>
<text text-anchor="middle" x="573.69" y="-172" font-family="Helvetica,sans-Serif" font-size="10.00">sitkNonCopyable.h</text>
</a>
</g>
</g>
<!-- Node18&#45;&gt;Node23 -->
<g id="edge31_Node000018_Node000023" class="edge">
<title>Node18&#45;&gt;Node23</title>
<g id="a_edge31_Node000018_Node000023"><a xlink:title=" ">
<path fill="none" stroke="#63b8ff" d="M848.53,-221.31C784.49,-210.63 694.13,-195.57 634.76,-185.68"/>
<polygon fill="#63b8ff" stroke="#63b8ff" points="635.21,-182.21 624.77,-184.01 634.06,-189.11 635.21,-182.21"/>
</a>
</g>
</g>
<!-- Node18&#45;&gt;Node24 -->
<g id="edge34_Node000018_Node000024" class="edge">
<title>Node18&#45;&gt;Node24</title>
<g id="a_edge34_Node000018_Node000024"><a xlink:title=" ">
<path fill="none" stroke="#63b8ff" d="M972.11,-219.99C1006.28,-209.89 1051.83,-196.44 1083.85,-186.98"/>
<polygon fill="#63b8ff" stroke="#63b8ff" points="1085.14,-190.24 1093.74,-184.05 1083.16,-183.53 1085.14,-190.24"/>
</a>
</g>
</g>
<!-- Node25 -->
<g id="Node000025" class="node">
<title>Node25</title>
<g id="a_Node000025"><a xlink:title=" ">
<polygon fill="#e0e0e0" stroke="#999999" points="778.19,-184 685.19,-184 685.19,-165 778.19,-165 778.19,-184"/>
<text text-anchor="middle" x="731.69" y="-172" font-family="Helvetica,sans-Serif" font-size="10.00">unordered_map</text>
</a>
</g>
</g>
<!-- Node18&#45;&gt;Node25 -->
<g id="edge35_Node000018_Node000025" class="edge">
<title>Node18&#45;&gt;Node25</title>
<g id="a_edge35_Node000018_Node000025"><a xlink:title=" ">
<path fill="none" stroke="#63b8ff" d="M878.46,-219.99C845.15,-209.89 800.76,-196.44 769.55,-186.98"/>
<polygon fill="#63b8ff" stroke="#63b8ff" points="770.49,-183.6 759.91,-184.05 768.46,-190.3 770.49,-183.6"/>
</a>
</g>
</g>
<!-- Node26 -->
<g id="Node000026" class="node">
<title>Node26</title>
<g id="a_Node000026"><a xlink:title=" ">
<polygon fill="#e0e0e0" stroke="#999999" points="861.19,-184 796.19,-184 796.19,-165 861.19,-165 861.19,-184"/>
<text text-anchor="middle" x="828.69" y="-172" font-family="Helvetica,sans-Serif" font-size="10.00">functional</text>
</a>
</g>
</g>
<!-- Node18&#45;&gt;Node26 -->
<g id="edge36_Node000018_Node000026" class="edge">
<title>Node18&#45;&gt;Node26</title>
<g id="a_edge36_Node000018_Node000026"><a xlink:title=" ">
<path fill="none" stroke="#63b8ff" d="M901.45,-219.84C886.28,-210.6 866.58,-198.59 851.5,-189.4"/>
<polygon fill="#63b8ff" stroke="#63b8ff" points="853.15,-186.31 842.79,-184.09 849.51,-192.29 853.15,-186.31"/>
</a>
</g>
</g>
<!-- Node27 -->
<g id="Node000027" class="node">
<title>Node27</title>
<g id="a_Node000027"><a xlink:title=" ">
<polygon fill="#e0e0e0" stroke="#999999" points="920.19,-184 879.19,-184 879.19,-165 920.19,-165 920.19,-184"/>
<text text-anchor="middle" x="899.69" y="-172" font-family="Helvetica,sans-Serif" font-size="10.00">tuple</text>
</a>
</g>
</g>
<!-- Node18&#45;&gt;Node27 -->
<g id="edge37_Node000018_Node000027" class="edge">
<title>Node18&#45;&gt;Node27</title>
<g id="a_edge37_Node000018_Node000027"><a xlink:title=" ">
<path fill="none" stroke="#63b8ff" d="M918.64,-219.84C915.27,-211.95 911.04,-202.05 907.43,-193.61"/>
<polygon fill="#63b8ff" stroke="#63b8ff" points="910.58,-192.09 903.43,-184.27 904.15,-194.84 910.58,-192.09"/>
</a>
</g>
</g>
<!-- Node20&#45;&gt;Node5 -->
<g id="edge25_Node000020_Node000005" class="edge">
<title>Node20&#45;&gt;Node5</title>
<g id="a_edge25_Node000020_Node000005"><a xlink:title=" ">
<path fill="none" stroke="#63b8ff" d="M1300.84,-164.92C1286.54,-151.48 1257.01,-125.42 1227.69,-110 1134.69,-61.07 1013.31,-30.83 953.41,-17.87"/>
<polygon fill="#63b8ff" stroke="#63b8ff" points="953.81,-14.38 943.3,-15.72 952.36,-21.22 953.81,-14.38"/>
</a>
</g>
</g>
<!-- Node20&#45;&gt;Node10 -->
<g id="edge26_Node000020_Node000010" class="edge">
<title>Node20&#45;&gt;Node10</title>
<g id="a_edge26_Node000020_Node000010"><a xlink:title=" ">
<path fill="none" stroke="#63b8ff" d="M1320.67,-164.75C1334.81,-152.4 1356.25,-129.2 1344.69,-110 1315.11,-60.88 1252.26,-34.75 1207.38,-21.78"/>
<polygon fill="#63b8ff" stroke="#63b8ff" points="1208.09,-18.35 1197.52,-19.06 1206.23,-25.09 1208.09,-18.35"/>
</a>
</g>
</g>
<!-- Node20&#45;&gt;Node19 -->
<g id="edge27_Node000020_Node000019" class="edge">
<title>Node20&#45;&gt;Node19</title>
<g id="a_edge27_Node000020_Node000019"><a xlink:title=" ">
<path fill="none" stroke="#63b8ff" d="M1286.71,-164.98C1263.19,-156.27 1226.4,-142.63 1199.75,-132.75"/>
<polygon fill="#63b8ff" stroke="#63b8ff" points="1200.67,-129.36 1190.08,-129.17 1198.24,-135.93 1200.67,-129.36"/>
</a>
</g>
</g>
<!-- Node20&#45;&gt;Node21 -->
<g id="edge28_Node000020_Node000021" class="edge">
<title>Node20&#45;&gt;Node21</title>
<g id="a_edge28_Node000020_Node000021"><a xlink:title=" ">
<path fill="none" stroke="#63b8ff" d="M1265.83,-164.98C1218.21,-155.74 1142.11,-140.97 1090.81,-131.01"/>
<polygon fill="#63b8ff" stroke="#63b8ff" points="1091.38,-127.55 1080.89,-129.08 1090.04,-134.42 1091.38,-127.55"/>
</a>
</g>
</g>
<!-- Node22 -->
<g id="Node000022" class="node">
<title>Node22</title>
<g id="a_Node000022"><a xlink:title=" ">
<polygon fill="#e0e0e0" stroke="#999999" points="1335.19,-129 1276.19,-129 1276.19,-110 1335.19,-110 1335.19,-129"/>
<text text-anchor="middle" x="1305.69" y="-117" font-family="Helvetica,sans-Serif" font-size="10.00">complex</text>
</a>
</g>
</g>
<!-- Node20&#45;&gt;Node22 -->
<g id="edge29_Node000020_Node000022" class="edge">
<title>Node20&#45;&gt;Node22</title>
<g id="a_edge29_Node000020_Node000022"><a xlink:title=" ">
<path fill="none" stroke="#63b8ff" d="M1309.03,-164.75C1308.5,-157.8 1307.75,-147.85 1307.09,-139.13"/>
<polygon fill="#63b8ff" stroke="#63b8ff" points="1310.58,-138.8 1306.34,-129.09 1303.6,-139.32 1310.58,-138.8"/>
</a>
</g>
</g>
<!-- Node23&#45;&gt;Node3 -->
<g id="edge32_Node000023_Node000003" class="edge">
<title>Node23&#45;&gt;Node3</title>
<g id="a_edge32_Node000023_Node000003"><a xlink:title=" ">
<path fill="none" stroke="#63b8ff" d="M548.3,-164.98C521.89,-156.13 480.34,-142.19 450.79,-132.28"/>
<polygon fill="#63b8ff" stroke="#63b8ff" points="451.87,-128.94 441.27,-129.08 449.64,-135.58 451.87,-128.94"/>
</a>
</g>
</g>
<!-- Node28&#45;&gt;Node10 -->
<g id="edge40_Node000028_Node000010" class="edge">
<title>Node28&#45;&gt;Node10</title>
<g id="a_edge40_Node000028_Node000010"><a xlink:title=" ">
<path fill="none" stroke="#63b8ff" d="M1362.17,-285.87C1395.69,-269.55 1460.69,-230.78 1460.69,-175.5 1460.69,-175.5 1460.69,-175.5 1460.69,-118.5 1460.69,-66.31 1299.57,-32.87 1211.92,-18.54"/>
<polygon fill="#63b8ff" stroke="#63b8ff" points="1212.3,-15.06 1201.87,-16.93 1211.19,-21.97 1212.3,-15.06"/>
</a>
</g>
</g>
<!-- Node29 -->
<g id="Node000029" class="node">
<title>Node29</title>
<g id="a_Node000029"><a xlink:href="sitkPixelIDValues_8h.html" target="_top" xlink:title=" ">
<polygon fill="white" stroke="#666666" points="1364.69,-244.5 1254.69,-244.5 1254.69,-225.5 1364.69,-225.5 1364.69,-244.5"/>
<text text-anchor="middle" x="1309.69" y="-232.5" font-family="Helvetica,sans-Serif" font-size="10.00">sitkPixelIDValues.h</text>
</a>
</g>
</g>
<!-- Node28&#45;&gt;Node29 -->
<g id="edge41_Node000028_Node000029" class="edge">
<title>Node28&#45;&gt;Node29</title>
<g id="a_edge41_Node000028_Node000029"><a xlink:title=" ">
<path fill="none" stroke="#63b8ff" d="M1337.82,-285.87C1333.04,-277.4 1325.62,-264.24 1319.6,-253.57"/>
<polygon fill="#63b8ff" stroke="#63b8ff" points="1322.54,-251.66 1314.58,-244.67 1316.44,-255.1 1322.54,-251.66"/>
</a>
</g>
</g>
<!-- Node28&#45;&gt;Node31 -->
<g id="edge46_Node000028_Node000031" class="edge">
<title>Node28&#45;&gt;Node31</title>
<g id="a_edge46_Node000028_Node000031"><a xlink:title=" ">
<path fill="none" stroke="#63b8ff" d="M1369.01,-285.99C1400.24,-275.9 1452.49,-259.01 1487.51,-247.69"/>
<polygon fill="#63b8ff" stroke="#63b8ff" points="1488.9,-250.92 1497.34,-244.52 1486.75,-244.26 1488.9,-250.92"/>
</a>
</g>
</g>
<!-- Node29&#45;&gt;Node3 -->
<g id="edge42_Node000029_Node000003" class="edge">
<title>Node29&#45;&gt;Node3</title>
<g id="a_edge42_Node000029_Node000003"><a xlink:title=" ">
<path fill="none" stroke="#63b8ff" d="M1297.61,-225.25C1273.84,-208.21 1221.48,-171.67 1200.69,-165 1064.42,-121.28 624.74,-119.32 470.1,-120.05"/>
<polygon fill="#63b8ff" stroke="#63b8ff" points="469.88,-116.55 459.9,-120.1 469.92,-123.55 469.88,-116.55"/>
</a>
</g>
</g>
<!-- Node29&#45;&gt;Node15 -->
<g id="edge45_Node000029_Node000015" class="edge">
<title>Node29&#45;&gt;Node15</title>
<g id="a_edge45_Node000029_Node000015"><a xlink:title=" ">
<path fill="none" stroke="#63b8ff" d="M1254.58,-231.08C1091.71,-222.38 617.8,-196.52 511.42,-183.88"/>
<polygon fill="#63b8ff" stroke="#63b8ff" points="511.65,-180.38 501.28,-182.56 510.74,-187.32 511.65,-180.38"/>
</a>
</g>
</g>
<!-- Node29&#45;&gt;Node20 -->
<g id="edge43_Node000029_Node000020" class="edge">
<title>Node29&#45;&gt;Node20</title>
<g id="a_edge43_Node000029_Node000020"><a xlink:title=" ">
<path fill="none" stroke="#63b8ff" d="M1309.69,-225.37C1309.69,-217.25 1309.69,-204.81 1309.69,-194.39"/>
<polygon fill="#63b8ff" stroke="#63b8ff" points="1313.19,-194.17 1309.69,-184.17 1306.19,-194.17 1313.19,-194.17"/>
</a>
</g>
</g>
<!-- Node30 -->
<g id="Node000030" class="node">
<title>Node30</title>
<g id="a_Node000030"><a xlink:title=" ">
<polygon fill="#e0e0e0" stroke="#999999" points="1432.69,-184 1388.69,-184 1388.69,-165 1432.69,-165 1432.69,-184"/>
<text text-anchor="middle" x="1410.69" y="-172" font-family="Helvetica,sans-Serif" font-size="10.00">string</text>
</a>
</g>
</g>
<!-- Node29&#45;&gt;Node30 -->
<g id="edge44_Node000029_Node000030" class="edge">
<title>Node29&#45;&gt;Node30</title>
<g id="a_edge44_Node000029_Node000030"><a xlink:title=" ">
<path fill="none" stroke="#63b8ff" d="M1324.59,-225.37C1341,-215.86 1367.62,-200.45 1386.91,-189.27"/>
<polygon fill="#63b8ff" stroke="#63b8ff" points="1388.83,-192.21 1395.72,-184.17 1385.32,-186.15 1388.83,-192.21"/>
</a>
</g>
</g>
<!-- Node32&#45;&gt;Node3 -->
<g id="edge48_Node000032_Node000003" class="edge">
<title>Node32&#45;&gt;Node3</title>
<g id="a_edge48_Node000032_Node000003"><a xlink:title=" ">
<path fill="none" stroke="#63b8ff" d="M451.68,-225.26C447.23,-215.37 439.96,-198.71 434.69,-184 429.34,-169.09 424.25,-151.85 420.69,-139.1"/>
<polygon fill="#63b8ff" stroke="#63b8ff" points="424,-137.94 417.98,-129.22 417.25,-139.79 424,-137.94"/>
</a>
</g>
</g>
<!-- Node32&#45;&gt;Node15 -->
<g id="edge49_Node000032_Node000015" class="edge">
<title>Node32&#45;&gt;Node15</title>
<g id="a_edge49_Node000032_Node000015"><a xlink:title=" ">
<path fill="none" stroke="#63b8ff" d="M458.2,-225.37C460.58,-217.16 464.25,-204.54 467.3,-194.05"/>
<polygon fill="#63b8ff" stroke="#63b8ff" points="470.74,-194.75 470.17,-184.17 464.02,-192.79 470.74,-194.75"/>
</a>
</g>
</g>
</g>
</svg>

<g id="navigator" transform="translate(0 0)" fill="#404254">
  <rect fill="#f2f5e9" fill-opacity="0.5" stroke="#606060" stroke-width=".5" x="0" y="0" width="60" height="60"/>
  <use id="zoomplus" xlink:href="#zoomPlus" x="17" y="9" onmousedown="handleZoom(evt,'in')"/>
  <use id="zoomminus" xlink:href="#zoomMin" x="42" y="9" onmousedown="handleZoom(evt,'out')"/>
  <use id="reset" xlink:href="#resetDef" x="30" y="36" onmousedown="handleReset()"/>
   <use id="arrowup" xlink:href="#arrowUp" x="0" y="0" onmousedown="handlePan(0,-1)"/>
  <use id="arrowright" xlink:href="#arrowRight" x="0" y="0" onmousedown="handlePan(1,0)"/>
  <use id="arrowdown" xlink:href="#arrowDown" x="0" y="0" onmousedown="handlePan(0,1)"/>
  <use id="arrowleft" xlink:href="#arrowLeft" x="0" y="0" onmousedown="handlePan(-1,0)"/>
</g>
<svg viewBox="0 0 15 15" width="100%" height="30px" preserveAspectRatio="xMaxYMin meet">
 <g id="arrow_out" transform="scale(0.3 0.3)">
  <a xlink:href="sitkImageConvert_8h__incl_org.svg" target="_base">
   <rect id="button" ry="5" rx="5" y="6" x="6" height="38" width="38"
        fill="#f2f5e9" fill-opacity="0.5" stroke="#606060" stroke-width="1.0"/>
   <path id="arrow"
     d="M 11.500037,31.436501 C 11.940474,20.09759 22.043105,11.32322 32.158766,21.979434 L 37.068811,17.246167 C 37.068811,17.246167 37.088388,32 37.088388,32 L 22.160133,31.978069 C 22.160133,31.978069 26.997745,27.140456 26.997745,27.140456 C 18.528582,18.264221 13.291696,25.230495 11.500037,31.436501 z"
     style="fill:#404040;"/>
  </a>
 </g>
</svg>

<style type='text/css'>
<![CDATA[
[data-mouse-over-selected='false'] { opacity: 0.7; }
[data-mouse-over-selected='true']  { opacity: 1.0; }
]]>
</style>
<script type="application/ecmascript"><![CDATA[
document.addEventListener('DOMContentLoaded', (event) => {
  highlightEdges();
  highlightAdjacentNodes();
});
]]></script>
</svg>
