<?xml version="1.0" encoding="UTF-8" standalone="no"?>
<!DOCTYPE svg PUBLIC "-//W3C//DTD SVG 1.1//EN"
 "http://www.w3.org/Graphics/SVG/1.1/DTD/svg11.dtd">
<!-- Generated by graphviz version 2.43.0 (0)
 -->
<!-- Title: sitkProcessObject.h Pages: 1 -->
<svg width="7593pt" height="218pt"
 viewBox="0.00 0.00 7593.00 218.00" xmlns="http://www.w3.org/2000/svg" xmlns:xlink="http://www.w3.org/1999/xlink">
<g id="graph0" class="graph" transform="scale(1 1) rotate(0) translate(4 214)">
<title>sitkProcessObject.h</title>
<polygon fill="white" stroke="transparent" points="-4,4 -4,-214 7589,-214 7589,4 -4,4"/>
<!-- Node1 -->
<g id="node1" class="node">
<title>Node1</title>
<g id="a_node1"><a xlink:title=" ">
<polygon fill="#bfbfbf" stroke="black" points="6769.5,-190.5 6769.5,-209.5 6882.5,-209.5 6882.5,-190.5 6769.5,-190.5"/>
<text text-anchor="middle" x="6826" y="-197.5" font-family="Helvetica,sans-Serif" font-size="10.00">sitkProcessObject.h</text>
</a>
</g>
</g>
<!-- Node2 -->
<g id="node2" class="node">
<title>Node2</title>
<g id="a_node2"><a xlink:href="sitkImageFilter_8h.html" target="_top" xlink:title=" ">
<polygon fill="white" stroke="red" points="3109,-129 3109,-148 3207,-148 3207,-129 3109,-129"/>
<text text-anchor="middle" x="3158" y="-136" font-family="Helvetica,sans-Serif" font-size="10.00">sitkImageFilter.h</text>
</a>
</g>
</g>
<!-- Node1&#45;&gt;Node2 -->
<g id="edge1" class="edge">
<title>Node1&#45;&gt;Node2</title>
<path fill="none" stroke="midnightblue" d="M6759.36,-197.92C6299.6,-190.46 3604.68,-146.75 3207.01,-140.3"/>
<polygon fill="midnightblue" stroke="midnightblue" points="6759.43,-201.42 6769.49,-198.08 6759.55,-194.42 6759.43,-201.42"/>
</g>
<!-- Node4 -->
<g id="node4" class="node">
<title>Node4</title>
<g id="a_node4"><a xlink:href="SimpleITK_8h.html" target="_top" xlink:title=" ">
<polygon fill="white" stroke="black" points="6548.5,-0.5 6548.5,-19.5 6623.5,-19.5 6623.5,-0.5 6548.5,-0.5"/>
<text text-anchor="middle" x="6586" y="-7.5" font-family="Helvetica,sans-Serif" font-size="10.00">SimpleITK.h</text>
</a>
</g>
</g>
<!-- Node1&#45;&gt;Node4 -->
<g id="edge53" class="edge">
<title>Node1&#45;&gt;Node4</title>
<path fill="none" stroke="midnightblue" d="M6759.14,-197.05C6641.54,-192.93 6407.71,-181.35 6383,-154 6373.76,-143.78 6374.24,-133.64 6383,-123 6435.96,-58.67 6506.57,-144.38 6567,-87 6585.94,-69.02 6587.16,-35.26 6586.58,-19.5"/>
<polygon fill="midnightblue" stroke="midnightblue" points="6759.34,-200.56 6769.46,-197.4 6759.58,-193.56 6759.34,-200.56"/>
</g>
<!-- Node7 -->
<g id="node7" class="node">
<title>Node7</title>
<g id="a_node7"><a xlink:href="sitkHashImageFilter_8h.html" target="_top" xlink:title=" ">
<polygon fill="white" stroke="black" points="6434.5,-62 6434.5,-81 6557.5,-81 6557.5,-62 6434.5,-62"/>
<text text-anchor="middle" x="6496" y="-69" font-family="Helvetica,sans-Serif" font-size="10.00">sitkHashImageFilter.h</text>
</a>
</g>
</g>
<!-- Node1&#45;&gt;Node7 -->
<g id="edge52" class="edge">
<title>Node1&#45;&gt;Node7</title>
<path fill="none" stroke="midnightblue" d="M6759.07,-197.57C6634.25,-194.22 6376.06,-183.73 6349,-154 6339.73,-143.81 6341,-134.21 6349,-123 6361.54,-105.43 6415.83,-90.1 6454.78,-81.07"/>
<polygon fill="midnightblue" stroke="midnightblue" points="6759.19,-201.08 6769.28,-197.84 6759.37,-194.08 6759.19,-201.08"/>
</g>
<!-- Node308 -->
<g id="node43" class="node">
<title>Node308</title>
<g id="a_node43"><a xlink:href="sitkCenteredTransformInitializerFilter_8h.html" target="_top" xlink:title=" ">
<polygon fill="white" stroke="black" points="6391.5,-123.5 6391.5,-153.5 6564.5,-153.5 6564.5,-123.5 6391.5,-123.5"/>
<text text-anchor="start" x="6399.5" y="-141.5" font-family="Helvetica,sans-Serif" font-size="10.00">sitkCenteredTransformInitializer</text>
<text text-anchor="middle" x="6478" y="-130.5" font-family="Helvetica,sans-Serif" font-size="10.00">Filter.h</text>
</a>
</g>
</g>
<!-- Node1&#45;&gt;Node308 -->
<g id="edge48" class="edge">
<title>Node1&#45;&gt;Node308</title>
<path fill="none" stroke="midnightblue" d="M6766.22,-188.78C6709.34,-179.05 6623.29,-164.34 6560.02,-153.52"/>
<polygon fill="midnightblue" stroke="midnightblue" points="6765.69,-192.24 6776.14,-190.48 6766.87,-185.34 6765.69,-192.24"/>
</g>
<!-- Node309 -->
<g id="node44" class="node">
<title>Node309</title>
<g id="a_node44"><a xlink:href="sitkCenteredVersorTransformInitializerFilter_8h.html" target="_top" xlink:title=" ">
<polygon fill="white" stroke="black" points="6583,-123.5 6583,-153.5 6741,-153.5 6741,-123.5 6583,-123.5"/>
<text text-anchor="start" x="6591" y="-141.5" font-family="Helvetica,sans-Serif" font-size="10.00">sitkCenteredVersorTransform</text>
<text text-anchor="middle" x="6662" y="-130.5" font-family="Helvetica,sans-Serif" font-size="10.00">InitializerFilter.h</text>
</a>
</g>
</g>
<!-- Node1&#45;&gt;Node309 -->
<g id="edge50" class="edge">
<title>Node1&#45;&gt;Node309</title>
<path fill="none" stroke="midnightblue" d="M6792.86,-186.98C6766.19,-177.3 6728.68,-163.69 6700.65,-153.52"/>
<polygon fill="midnightblue" stroke="midnightblue" points="6791.91,-190.35 6802.5,-190.48 6794.3,-183.77 6791.91,-190.35"/>
</g>
<!-- Node310 -->
<g id="node45" class="node">
<title>Node310</title>
<g id="a_node45"><a xlink:href="sitkImageReaderBase_8h.html" target="_top" xlink:title=" ">
<polygon fill="white" stroke="red" points="6759.5,-129 6759.5,-148 6892.5,-148 6892.5,-129 6759.5,-129"/>
<text text-anchor="middle" x="6826" y="-136" font-family="Helvetica,sans-Serif" font-size="10.00">sitkImageReaderBase.h</text>
</a>
</g>
</g>
<!-- Node1&#45;&gt;Node310 -->
<g id="edge54" class="edge">
<title>Node1&#45;&gt;Node310</title>
<path fill="none" stroke="midnightblue" d="M6826,-180.32C6826,-169.5 6826,-156.4 6826,-148.01"/>
<polygon fill="midnightblue" stroke="midnightblue" points="6822.5,-180.48 6826,-190.48 6829.5,-180.48 6822.5,-180.48"/>
</g>
<!-- Node314 -->
<g id="node46" class="node">
<title>Node314</title>
<g id="a_node46"><a xlink:href="sitkImageFileWriter_8h.html" target="_top" xlink:title=" ">
<polygon fill="white" stroke="black" points="6910.5,-129 6910.5,-148 7031.5,-148 7031.5,-129 6910.5,-129"/>
<text text-anchor="middle" x="6971" y="-136" font-family="Helvetica,sans-Serif" font-size="10.00">sitkImageFileWriter.h</text>
</a>
</g>
</g>
<!-- Node1&#45;&gt;Node314 -->
<g id="edge55" class="edge">
<title>Node1&#45;&gt;Node314</title>
<path fill="none" stroke="midnightblue" d="M6856.14,-186.63C6884.31,-175.07 6925.62,-158.12 6950.26,-148.01"/>
<polygon fill="midnightblue" stroke="midnightblue" points="6854.7,-183.44 6846.77,-190.48 6857.36,-189.92 6854.7,-183.44"/>
</g>
<!-- Node315 -->
<g id="node47" class="node">
<title>Node315</title>
<g id="a_node47"><a xlink:href="sitkImageSeriesWriter_8h.html" target="_top" xlink:title=" ">
<polygon fill="white" stroke="black" points="7050,-129 7050,-148 7184,-148 7184,-129 7050,-129"/>
<text text-anchor="middle" x="7117" y="-136" font-family="Helvetica,sans-Serif" font-size="10.00">sitkImageSeriesWriter.h</text>
</a>
</g>
</g>
<!-- Node1&#45;&gt;Node315 -->
<g id="edge57" class="edge">
<title>Node1&#45;&gt;Node315</title>
<path fill="none" stroke="midnightblue" d="M6877.83,-188.4C6934.25,-176.87 7023.34,-158.65 7075.38,-148.01"/>
<polygon fill="midnightblue" stroke="midnightblue" points="6876.79,-185.04 6867.69,-190.48 6878.19,-191.9 6876.79,-185.04"/>
</g>
<!-- Node316 -->
<g id="node48" class="node">
<title>Node316</title>
<g id="a_node48"><a xlink:href="sitkImageViewer_8h.html" target="_top" xlink:title=" ">
<polygon fill="white" stroke="black" points="7202.5,-129 7202.5,-148 7309.5,-148 7309.5,-129 7202.5,-129"/>
<text text-anchor="middle" x="7256" y="-136" font-family="Helvetica,sans-Serif" font-size="10.00">sitkImageViewer.h</text>
</a>
</g>
</g>
<!-- Node1&#45;&gt;Node316 -->
<g id="edge59" class="edge">
<title>Node1&#45;&gt;Node316</title>
<path fill="none" stroke="midnightblue" d="M6892.62,-192.94C6966.39,-185.74 7088.69,-172.35 7193,-154 7202.4,-152.35 7212.5,-150.19 7221.8,-148.05"/>
<polygon fill="midnightblue" stroke="midnightblue" points="6892.16,-189.47 6882.54,-193.91 6892.83,-196.43 6892.16,-189.47"/>
</g>
<!-- Node317 -->
<g id="node49" class="node">
<title>Node317</title>
<g id="a_node49"><a xlink:href="sitkShow_8h.html" target="_top" xlink:title=" ">
<polygon fill="white" stroke="black" points="7327.5,-129 7327.5,-148 7396.5,-148 7396.5,-129 7327.5,-129"/>
<text text-anchor="middle" x="7362" y="-136" font-family="Helvetica,sans-Serif" font-size="10.00">sitkShow.h</text>
</a>
</g>
</g>
<!-- Node1&#45;&gt;Node317 -->
<g id="edge61" class="edge">
<title>Node1&#45;&gt;Node317</title>
<path fill="none" stroke="midnightblue" d="M6892.93,-197.84C6988.44,-195.07 7168.9,-185.7 7319,-154 7325.94,-152.53 7333.31,-150.31 7339.96,-148.04"/>
<polygon fill="midnightblue" stroke="midnightblue" points="6892.73,-194.34 6882.83,-198.12 6892.92,-201.34 6892.73,-194.34"/>
</g>
<!-- Node318 -->
<g id="node50" class="node">
<title>Node318</title>
<g id="a_node50"><a xlink:href="sitkImageRegistrationMethod_8h.html" target="_top" xlink:title=" ">
<polygon fill="white" stroke="black" points="7415,-129 7415,-148 7585,-148 7585,-129 7415,-129"/>
<text text-anchor="middle" x="7500" y="-136" font-family="Helvetica,sans-Serif" font-size="10.00">sitkImageRegistrationMethod.h</text>
</a>
</g>
</g>
<!-- Node1&#45;&gt;Node318 -->
<g id="edge63" class="edge">
<title>Node1&#45;&gt;Node318</title>
<path fill="none" stroke="midnightblue" d="M6892.63,-195.47C7000.65,-189.39 7220.61,-175.46 7406,-154 7420.11,-152.37 7435.34,-150.19 7449.36,-148.03"/>
<polygon fill="midnightblue" stroke="midnightblue" points="6892.32,-191.98 6882.53,-196.04 6892.71,-198.97 6892.32,-191.98"/>
</g>
<!-- Node3 -->
<g id="node3" class="node">
<title>Node3</title>
<g id="a_node3"><a xlink:href="sitkBSplineTransformInitializerFilter_8h.html" target="_top" xlink:title=" ">
<polygon fill="white" stroke="black" points="0,-56.5 0,-86.5 166,-86.5 166,-56.5 0,-56.5"/>
<text text-anchor="start" x="8" y="-74.5" font-family="Helvetica,sans-Serif" font-size="10.00">sitkBSplineTransformInitializer</text>
<text text-anchor="middle" x="83" y="-63.5" font-family="Helvetica,sans-Serif" font-size="10.00">Filter.h</text>
</a>
</g>
</g>
<!-- Node2&#45;&gt;Node3 -->
<g id="edge2" class="edge">
<title>Node2&#45;&gt;Node3</title>
<path fill="none" stroke="midnightblue" d="M3098.78,-137.56C2732.98,-137.76 777.03,-136.47 180,-87 175.5,-86.63 170.9,-86.18 166.25,-85.67"/>
<polygon fill="midnightblue" stroke="midnightblue" points="3098.89,-141.06 3108.89,-137.55 3098.89,-134.06 3098.89,-141.06"/>
</g>
<!-- Node2&#45;&gt;Node4 -->
<g id="edge14" class="edge">
<title>Node2&#45;&gt;Node4</title>
<path fill="none" stroke="midnightblue" d="M3098.55,-137.63C2686.09,-138.36 265.46,-140.37 213,-87 203.34,-77.17 203.29,-65.78 213,-56 242.78,-26.01 6026,-12.26 6548.35,-11.08"/>
<polygon fill="midnightblue" stroke="midnightblue" points="3098.77,-141.12 3108.76,-137.61 3098.76,-134.13 3098.77,-141.12"/>
</g>
<!-- Node5 -->
<g id="node5" class="node">
<title>Node5</title>
<g id="a_node5"><a xlink:href="sitkCastImageFilter_8h.html" target="_top" xlink:title=" ">
<polygon fill="white" stroke="black" points="222,-62 222,-81 342,-81 342,-62 222,-62"/>
<text text-anchor="middle" x="282" y="-69" font-family="Helvetica,sans-Serif" font-size="10.00">sitkCastImageFilter.h</text>
</a>
</g>
</g>
<!-- Node2&#45;&gt;Node5 -->
<g id="edge4" class="edge">
<title>Node2&#45;&gt;Node5</title>
<path fill="none" stroke="midnightblue" d="M3098.55,-137.11C2718.17,-134.5 632.52,-118.82 351,-87 339.57,-85.71 327.23,-83.41 316.19,-81.02"/>
<polygon fill="midnightblue" stroke="midnightblue" points="3098.76,-140.61 3108.78,-137.18 3098.81,-133.61 3098.76,-140.61"/>
</g>
<!-- Node6 -->
<g id="node6" class="node">
<title>Node6</title>
<g id="a_node6"><a xlink:href="sitkExtractImageFilter_8h.html" target="_top" xlink:title=" ">
<polygon fill="white" stroke="black" points="360.5,-62 360.5,-81 493.5,-81 493.5,-62 360.5,-62"/>
<text text-anchor="middle" x="427" y="-69" font-family="Helvetica,sans-Serif" font-size="10.00">sitkExtractImageFilter.h</text>
</a>
</g>
</g>
<!-- Node2&#45;&gt;Node6 -->
<g id="edge6" class="edge">
<title>Node2&#45;&gt;Node6</title>
<path fill="none" stroke="midnightblue" d="M3098.79,-137.74C2756.79,-138.91 1030.87,-141.98 503,-87 490.58,-85.71 477.15,-83.44 465.09,-81.08"/>
<polygon fill="midnightblue" stroke="midnightblue" points="3098.99,-141.24 3108.98,-137.7 3098.96,-134.24 3098.99,-141.24"/>
</g>
<!-- Node2&#45;&gt;Node7 -->
<g id="edge8" class="edge">
<title>Node2&#45;&gt;Node7</title>
<path fill="none" stroke="midnightblue" d="M3217.36,-137.25C3632.53,-135.4 6094.69,-122.96 6425,-87 6436.76,-85.72 6449.45,-83.42 6460.81,-81.03"/>
<polygon fill="midnightblue" stroke="midnightblue" points="3217.07,-133.75 3207.08,-137.29 3217.1,-140.75 3217.07,-133.75"/>
</g>
<!-- Node8 -->
<g id="node8" class="node">
<title>Node8</title>
<g id="a_node8"><a xlink:href="sitkLandmarkBasedTransformInitializerFilter_8h.html" target="_top" xlink:title=" ">
<polygon fill="white" stroke="black" points="512,-56.5 512,-86.5 674,-86.5 674,-56.5 512,-56.5"/>
<text text-anchor="start" x="520" y="-74.5" font-family="Helvetica,sans-Serif" font-size="10.00">sitkLandmarkBasedTransform</text>
<text text-anchor="middle" x="593" y="-63.5" font-family="Helvetica,sans-Serif" font-size="10.00">InitializerFilter.h</text>
</a>
</g>
</g>
<!-- Node2&#45;&gt;Node8 -->
<g id="edge10" class="edge">
<title>Node2&#45;&gt;Node8</title>
<path fill="none" stroke="midnightblue" d="M3098.69,-137.41C2770.47,-136.76 1173.66,-131.31 683,-87 680.16,-86.74 677.28,-86.45 674.37,-86.13"/>
<polygon fill="midnightblue" stroke="midnightblue" points="3098.93,-140.91 3108.93,-137.43 3098.94,-133.91 3098.93,-140.91"/>
</g>
<!-- Node9 -->
<g id="node9" class="node">
<title>Node9</title>
<g id="a_node9"><a xlink:href="sitkPasteImageFilter_8h.html" target="_top" xlink:title=" ">
<polygon fill="white" stroke="black" points="692.5,-62 692.5,-81 817.5,-81 817.5,-62 692.5,-62"/>
<text text-anchor="middle" x="755" y="-69" font-family="Helvetica,sans-Serif" font-size="10.00">sitkPasteImageFilter.h</text>
</a>
</g>
</g>
<!-- Node2&#45;&gt;Node9 -->
<g id="edge12" class="edge">
<title>Node2&#45;&gt;Node9</title>
<path fill="none" stroke="midnightblue" d="M3098.6,-137.64C2781.62,-138.16 1286.47,-137.84 827,-87 815.21,-85.7 802.49,-83.43 791.06,-81.06"/>
<polygon fill="midnightblue" stroke="midnightblue" points="3098.95,-141.14 3108.95,-137.62 3098.94,-134.14 3098.95,-141.14"/>
</g>
<!-- Node10 -->
<g id="node10" class="node">
<title>Node10</title>
<g id="a_node10"><a xlink:href="sitkAbsImageFilter_8h.html" target="_top" xlink:title=" ">
<polygon fill="white" stroke="red" points="836,-62 836,-81 952,-81 952,-62 836,-62"/>
<text text-anchor="middle" x="894" y="-69" font-family="Helvetica,sans-Serif" font-size="10.00">sitkAbsImageFilter.h</text>
</a>
</g>
</g>
<!-- Node2&#45;&gt;Node10 -->
<g id="edge15" class="edge">
<title>Node2&#45;&gt;Node10</title>
<path fill="none" stroke="midnightblue" d="M3098.56,-137.66C2792.51,-138.26 1392.04,-138.12 961,-87 950.01,-85.7 938.16,-83.43 927.53,-81.06"/>
<polygon fill="midnightblue" stroke="midnightblue" points="3098.57,-141.16 3108.56,-137.64 3098.56,-134.16 3098.57,-141.16"/>
</g>
<!-- Node13 -->
<g id="node11" class="node">
<title>Node13</title>
<g id="a_node11"><a xlink:href="sitkAbsoluteValueDifferenceImageFilter_8h.html" target="_top" xlink:title=" ">
<polygon fill="white" stroke="red" points="970.5,-56.5 970.5,-86.5 1125.5,-86.5 1125.5,-56.5 970.5,-56.5"/>
<text text-anchor="start" x="978.5" y="-74.5" font-family="Helvetica,sans-Serif" font-size="10.00">sitkAbsoluteValueDifference</text>
<text text-anchor="middle" x="1048" y="-63.5" font-family="Helvetica,sans-Serif" font-size="10.00">ImageFilter.h</text>
</a>
</g>
</g>
<!-- Node2&#45;&gt;Node13 -->
<g id="edge16" class="edge">
<title>Node2&#45;&gt;Node13</title>
<path fill="none" stroke="midnightblue" d="M3098.24,-137.14C2806.57,-135.21 1530.56,-124.71 1135,-87 1131.95,-86.71 1128.85,-86.38 1125.72,-86.01"/>
<polygon fill="midnightblue" stroke="midnightblue" points="3098.58,-140.64 3108.6,-137.21 3098.62,-133.64 3098.58,-140.64"/>
</g>
<!-- Node14 -->
<g id="node12" class="node">
<title>Node14</title>
<g id="a_node12"><a xlink:href="sitkAcosImageFilter_8h.html" target="_top" xlink:title=" ">
<polygon fill="white" stroke="red" points="1144,-62 1144,-81 1266,-81 1266,-62 1144,-62"/>
<text text-anchor="middle" x="1205" y="-69" font-family="Helvetica,sans-Serif" font-size="10.00">sitkAcosImageFilter.h</text>
</a>
</g>
</g>
<!-- Node2&#45;&gt;Node14 -->
<g id="edge17" class="edge">
<title>Node2&#45;&gt;Node14</title>
<path fill="none" stroke="midnightblue" d="M3098.32,-137.32C2819.19,-136.29 1640.62,-129.43 1275,-87 1263.53,-85.67 1251.16,-83.39 1240.05,-81.03"/>
<polygon fill="midnightblue" stroke="midnightblue" points="3098.63,-140.83 3108.64,-137.36 3098.65,-133.83 3098.63,-140.83"/>
</g>
<!-- Node15 -->
<g id="node13" class="node">
<title>Node15</title>
<g id="a_node13"><a xlink:href="sitkAdaptiveHistogramEqualizationImageFilter_8h.html" target="_top" xlink:title=" ">
<polygon fill="white" stroke="red" points="1284.5,-56.5 1284.5,-86.5 1473.5,-86.5 1473.5,-56.5 1284.5,-56.5"/>
<text text-anchor="start" x="1292.5" y="-74.5" font-family="Helvetica,sans-Serif" font-size="10.00">sitkAdaptiveHistogramEqualization</text>
<text text-anchor="middle" x="1379" y="-63.5" font-family="Helvetica,sans-Serif" font-size="10.00">ImageFilter.h</text>
</a>
</g>
</g>
<!-- Node2&#45;&gt;Node15 -->
<g id="edge18" class="edge">
<title>Node2&#45;&gt;Node15</title>
<path fill="none" stroke="midnightblue" d="M3098.3,-136.58C2838.59,-132.45 1805.64,-114.57 1482,-87 1479.21,-86.76 1476.38,-86.5 1473.53,-86.22"/>
<polygon fill="midnightblue" stroke="midnightblue" points="3098.6,-140.09 3108.65,-136.75 3098.71,-133.09 3098.6,-140.09"/>
</g>
<!-- Node16 -->
<g id="node14" class="node">
<title>Node16</title>
<g id="a_node14"><a xlink:href="sitkAddImageFilter_8h.html" target="_top" xlink:title=" ">
<polygon fill="white" stroke="red" points="1491.5,-62 1491.5,-81 1608.5,-81 1608.5,-62 1491.5,-62"/>
<text text-anchor="middle" x="1550" y="-69" font-family="Helvetica,sans-Serif" font-size="10.00">sitkAddImageFilter.h</text>
</a>
</g>
</g>
<!-- Node2&#45;&gt;Node16 -->
<g id="edge19" class="edge">
<title>Node2&#45;&gt;Node16</title>
<path fill="none" stroke="midnightblue" d="M3098.7,-136.96C2852.82,-134.51 1912.5,-122.94 1618,-87 1606.98,-85.65 1595.09,-83.4 1584.39,-81.07"/>
<polygon fill="midnightblue" stroke="midnightblue" points="3098.83,-140.46 3108.86,-137.06 3098.9,-133.46 3098.83,-140.46"/>
</g>
<!-- Node18 -->
<g id="node15" class="node">
<title>Node18</title>
<g id="a_node15"><a xlink:href="sitkAdditiveGaussianNoiseImageFilter_8h.html" target="_top" xlink:title=" ">
<polygon fill="white" stroke="red" points="1627,-56.5 1627,-86.5 1775,-86.5 1775,-56.5 1627,-56.5"/>
<text text-anchor="start" x="1635" y="-74.5" font-family="Helvetica,sans-Serif" font-size="10.00">sitkAdditiveGaussianNoise</text>
<text text-anchor="middle" x="1701" y="-63.5" font-family="Helvetica,sans-Serif" font-size="10.00">ImageFilter.h</text>
</a>
</g>
</g>
<!-- Node2&#45;&gt;Node18 -->
<g id="edge20" class="edge">
<title>Node2&#45;&gt;Node18</title>
<path fill="none" stroke="midnightblue" d="M3098.83,-136.4C2870.28,-131.98 2044.83,-114.45 1784,-87 1781.09,-86.69 1778.13,-86.35 1775.14,-85.97"/>
<polygon fill="midnightblue" stroke="midnightblue" points="3098.88,-139.9 3108.95,-136.59 3099.01,-132.9 3098.88,-139.9"/>
</g>
<!-- Node19 -->
<g id="node16" class="node">
<title>Node19</title>
<g id="a_node16"><a xlink:href="sitkAggregateLabelMapFilter_8h.html" target="_top" xlink:title=" ">
<polygon fill="white" stroke="red" points="1793.5,-62 1793.5,-81 1958.5,-81 1958.5,-62 1793.5,-62"/>
<text text-anchor="middle" x="1876" y="-69" font-family="Helvetica,sans-Serif" font-size="10.00">sitkAggregateLabelMapFilter.h</text>
</a>
</g>
</g>
<!-- Node2&#45;&gt;Node19 -->
<g id="edge21" class="edge">
<title>Node2&#45;&gt;Node19</title>
<path fill="none" stroke="midnightblue" d="M3098.55,-137.41C2924.26,-136.61 2399.6,-130.49 1967,-87 1952.67,-85.56 1937.17,-83.34 1923.1,-81.07"/>
<polygon fill="midnightblue" stroke="midnightblue" points="3098.77,-140.91 3108.79,-137.45 3098.8,-133.91 3098.77,-140.91"/>
</g>
<!-- Node20 -->
<g id="node17" class="node">
<title>Node20</title>
<g id="a_node17"><a xlink:href="sitkAndImageFilter_8h.html" target="_top" xlink:title=" ">
<polygon fill="white" stroke="red" points="1976.5,-62 1976.5,-81 2093.5,-81 2093.5,-62 1976.5,-62"/>
<text text-anchor="middle" x="2035" y="-69" font-family="Helvetica,sans-Serif" font-size="10.00">sitkAndImageFilter.h</text>
</a>
</g>
</g>
<!-- Node2&#45;&gt;Node20 -->
<g id="edge22" class="edge">
<title>Node2&#45;&gt;Node20</title>
<path fill="none" stroke="midnightblue" d="M3098.68,-138.02C2937.77,-138.71 2479.79,-135.86 2103,-87 2092.11,-85.59 2080.37,-83.35 2069.76,-81.05"/>
<polygon fill="midnightblue" stroke="midnightblue" points="3098.87,-141.52 3108.85,-137.97 3098.83,-134.52 3098.87,-141.52"/>
</g>
<!-- Node21 -->
<g id="node18" class="node">
<title>Node21</title>
<g id="a_node18"><a xlink:href="sitkAntiAliasBinaryImageFilter_8h.html" target="_top" xlink:title=" ">
<polygon fill="white" stroke="red" points="2112,-56.5 2112,-86.5 2252,-86.5 2252,-56.5 2112,-56.5"/>
<text text-anchor="start" x="2120" y="-74.5" font-family="Helvetica,sans-Serif" font-size="10.00">sitkAntiAliasBinaryImage</text>
<text text-anchor="middle" x="2182" y="-63.5" font-family="Helvetica,sans-Serif" font-size="10.00">Filter.h</text>
</a>
</g>
</g>
<!-- Node2&#45;&gt;Node21 -->
<g id="edge23" class="edge">
<title>Node2&#45;&gt;Node21</title>
<path fill="none" stroke="midnightblue" d="M3098.32,-136.72C2954.01,-134.27 2574.9,-124.49 2261,-87 2258.09,-86.65 2255.13,-86.26 2252.14,-85.85"/>
<polygon fill="midnightblue" stroke="midnightblue" points="3098.65,-140.23 3108.71,-136.89 3098.77,-133.23 3098.65,-140.23"/>
</g>
<!-- Node22 -->
<g id="node19" class="node">
<title>Node22</title>
<g id="a_node19"><a xlink:href="sitkApproximateSignedDistanceMapImageFilter_8h.html" target="_top" xlink:title=" ">
<polygon fill="white" stroke="red" points="2270.5,-56.5 2270.5,-86.5 2443.5,-86.5 2443.5,-56.5 2270.5,-56.5"/>
<text text-anchor="start" x="2278.5" y="-74.5" font-family="Helvetica,sans-Serif" font-size="10.00">sitkApproximateSignedDistance</text>
<text text-anchor="middle" x="2357" y="-63.5" font-family="Helvetica,sans-Serif" font-size="10.00">MapImageFilter.h</text>
</a>
</g>
</g>
<!-- Node2&#45;&gt;Node22 -->
<g id="edge24" class="edge">
<title>Node2&#45;&gt;Node22</title>
<path fill="none" stroke="midnightblue" d="M3098.44,-134.85C2976.73,-129.09 2690.81,-113.72 2452,-87 2449.26,-86.69 2446.49,-86.37 2443.68,-86.02"/>
<polygon fill="midnightblue" stroke="midnightblue" points="3098.51,-138.36 3108.66,-135.33 3098.84,-131.37 3098.51,-138.36"/>
</g>
<!-- Node23 -->
<g id="node20" class="node">
<title>Node23</title>
<g id="a_node20"><a xlink:href="sitkAreaClosingImageFilter_8h.html" target="_top" xlink:title=" ">
<polygon fill="white" stroke="red" points="2461.5,-62 2461.5,-81 2618.5,-81 2618.5,-62 2461.5,-62"/>
<text text-anchor="middle" x="2540" y="-69" font-family="Helvetica,sans-Serif" font-size="10.00">sitkAreaClosingImageFilter.h</text>
</a>
</g>
</g>
<!-- Node2&#45;&gt;Node23 -->
<g id="edge25" class="edge">
<title>Node2&#45;&gt;Node23</title>
<path fill="none" stroke="midnightblue" d="M3098.79,-133.24C3000.54,-125.85 2797.72,-109.32 2627,-87 2614.09,-85.31 2600.17,-83.15 2587.32,-81.01"/>
<polygon fill="midnightblue" stroke="midnightblue" points="3098.59,-136.73 3108.82,-133.98 3099.11,-129.75 3098.59,-136.73"/>
</g>
<!-- Node24 -->
<g id="node21" class="node">
<title>Node24</title>
<g id="a_node21"><a xlink:href="sitkAreaOpeningImageFilter_8h.html" target="_top" xlink:title=" ">
<polygon fill="white" stroke="red" points="2636.5,-62 2636.5,-81 2797.5,-81 2797.5,-62 2636.5,-62"/>
<text text-anchor="middle" x="2717" y="-69" font-family="Helvetica,sans-Serif" font-size="10.00">sitkAreaOpeningImageFilter.h</text>
</a>
</g>
</g>
<!-- Node2&#45;&gt;Node24 -->
<g id="edge26" class="edge">
<title>Node2&#45;&gt;Node24</title>
<path fill="none" stroke="midnightblue" d="M3099.04,-129.39C3029.08,-119.69 2908.95,-102.77 2806,-87 2793.78,-85.13 2780.62,-83.03 2768.27,-81.02"/>
<polygon fill="midnightblue" stroke="midnightblue" points="3098.6,-132.86 3108.98,-130.77 3099.56,-125.93 3098.6,-132.86"/>
</g>
<!-- Node25 -->
<g id="node22" class="node">
<title>Node25</title>
<g id="a_node22"><a xlink:href="sitkAsinImageFilter_8h.html" target="_top" xlink:title=" ">
<polygon fill="white" stroke="red" points="2815.5,-62 2815.5,-81 2934.5,-81 2934.5,-62 2815.5,-62"/>
<text text-anchor="middle" x="2875" y="-69" font-family="Helvetica,sans-Serif" font-size="10.00">sitkAsinImageFilter.h</text>
</a>
</g>
</g>
<!-- Node2&#45;&gt;Node25 -->
<g id="edge27" class="edge">
<title>Node2&#45;&gt;Node25</title>
<path fill="none" stroke="midnightblue" d="M3110.73,-126.64C3054.98,-113.84 2963.42,-92.81 2912.37,-81.08"/>
<polygon fill="midnightblue" stroke="midnightblue" points="3110.18,-130.11 3120.71,-128.94 3111.75,-123.29 3110.18,-130.11"/>
</g>
<!-- Node26 -->
<g id="node23" class="node">
<title>Node26</title>
<g id="a_node23"><a xlink:href="sitkAtan2ImageFilter_8h.html" target="_top" xlink:title=" ">
<polygon fill="white" stroke="red" points="2952.5,-62 2952.5,-81 3079.5,-81 3079.5,-62 2952.5,-62"/>
<text text-anchor="middle" x="3016" y="-69" font-family="Helvetica,sans-Serif" font-size="10.00">sitkAtan2ImageFilter.h</text>
</a>
</g>
</g>
<!-- Node2&#45;&gt;Node26 -->
<g id="edge28" class="edge">
<title>Node2&#45;&gt;Node26</title>
<path fill="none" stroke="midnightblue" d="M3129.85,-124.61C3101.72,-111.74 3059.27,-92.31 3034.93,-81.17"/>
<polygon fill="midnightblue" stroke="midnightblue" points="3128.59,-127.89 3139.14,-128.87 3131.51,-121.52 3128.59,-127.89"/>
</g>
<!-- Node27 -->
<g id="node24" class="node">
<title>Node27</title>
<g id="a_node24"><a xlink:href="sitkAtanImageFilter_8h.html" target="_top" xlink:title=" ">
<polygon fill="white" stroke="red" points="3097.5,-62 3097.5,-81 3218.5,-81 3218.5,-62 3097.5,-62"/>
<text text-anchor="middle" x="3158" y="-69" font-family="Helvetica,sans-Serif" font-size="10.00">sitkAtanImageFilter.h</text>
</a>
</g>
</g>
<!-- Node2&#45;&gt;Node27 -->
<g id="edge29" class="edge">
<title>Node2&#45;&gt;Node27</title>
<path fill="none" stroke="midnightblue" d="M3158,-118.54C3158,-106.17 3158,-90.62 3158,-81.13"/>
<polygon fill="midnightblue" stroke="midnightblue" points="3154.5,-118.73 3158,-128.73 3161.5,-118.73 3154.5,-118.73"/>
</g>
<!-- Node28 -->
<g id="node25" class="node">
<title>Node28</title>
<g id="a_node25"><a xlink:href="sitkBSplineDecompositionImageFilter_8h.html" target="_top" xlink:title=" ">
<polygon fill="white" stroke="red" points="3236.5,-56.5 3236.5,-86.5 3381.5,-86.5 3381.5,-56.5 3236.5,-56.5"/>
<text text-anchor="start" x="3244.5" y="-74.5" font-family="Helvetica,sans-Serif" font-size="10.00">sitkBSplineDecomposition</text>
<text text-anchor="middle" x="3309" y="-63.5" font-family="Helvetica,sans-Serif" font-size="10.00">ImageFilter.h</text>
</a>
</g>
</g>
<!-- Node2&#45;&gt;Node28 -->
<g id="edge30" class="edge">
<title>Node2&#45;&gt;Node28</title>
<path fill="none" stroke="midnightblue" d="M3187.24,-124.91C3212.81,-113.91 3249.9,-97.94 3276.41,-86.53"/>
<polygon fill="midnightblue" stroke="midnightblue" points="3185.85,-121.7 3178.05,-128.87 3188.62,-128.13 3185.85,-121.7"/>
</g>
<!-- Node29 -->
<g id="node26" class="node">
<title>Node29</title>
<g id="a_node26"><a xlink:href="sitkBilateralImageFilter_8h.html" target="_top" xlink:title=" ">
<polygon fill="white" stroke="red" points="3400,-62 3400,-81 3540,-81 3540,-62 3400,-62"/>
<text text-anchor="middle" x="3470" y="-69" font-family="Helvetica,sans-Serif" font-size="10.00">sitkBilateralImageFilter.h</text>
</a>
</g>
</g>
<!-- Node2&#45;&gt;Node29 -->
<g id="edge31" class="edge">
<title>Node2&#45;&gt;Node29</title>
<path fill="none" stroke="midnightblue" d="M3208.97,-126.88C3270.32,-114.1 3372.17,-92.88 3428.8,-81.08"/>
<polygon fill="midnightblue" stroke="midnightblue" points="3208.19,-123.47 3199.11,-128.94 3209.61,-130.32 3208.19,-123.47"/>
</g>
<!-- Node30 -->
<g id="node27" class="node">
<title>Node30</title>
<g id="a_node27"><a xlink:href="sitkBinShrinkImageFilter_8h.html" target="_top" xlink:title=" ">
<polygon fill="white" stroke="red" points="3558.5,-62 3558.5,-81 3703.5,-81 3703.5,-62 3558.5,-62"/>
<text text-anchor="middle" x="3631" y="-69" font-family="Helvetica,sans-Serif" font-size="10.00">sitkBinShrinkImageFilter.h</text>
</a>
</g>
</g>
<!-- Node2&#45;&gt;Node30 -->
<g id="edge32" class="edge">
<title>Node2&#45;&gt;Node30</title>
<path fill="none" stroke="midnightblue" d="M3217.13,-130.73C3293.8,-121.76 3431.64,-104.95 3549,-87 3560.72,-85.21 3573.34,-83.08 3585.09,-81.01"/>
<polygon fill="midnightblue" stroke="midnightblue" points="3216.7,-127.26 3207.17,-131.89 3217.51,-134.21 3216.7,-127.26"/>
</g>
<!-- Node31 -->
<g id="node28" class="node">
<title>Node31</title>
<g id="a_node28"><a xlink:href="sitkBinaryClosingByReconstructionImageFilter_8h.html" target="_top" xlink:title=" ">
<polygon fill="white" stroke="red" points="3722,-56.5 3722,-86.5 3910,-86.5 3910,-56.5 3722,-56.5"/>
<text text-anchor="start" x="3730" y="-74.5" font-family="Helvetica,sans-Serif" font-size="10.00">sitkBinaryClosingByReconstruction</text>
<text text-anchor="middle" x="3816" y="-63.5" font-family="Helvetica,sans-Serif" font-size="10.00">ImageFilter.h</text>
</a>
</g>
</g>
<!-- Node2&#45;&gt;Node31 -->
<g id="edge33" class="edge">
<title>Node2&#45;&gt;Node31</title>
<path fill="none" stroke="midnightblue" d="M3217.43,-133.02C3318.96,-125.15 3532.28,-107.71 3712,-87 3715.26,-86.62 3718.58,-86.23 3721.92,-85.82"/>
<polygon fill="midnightblue" stroke="midnightblue" points="3217.07,-129.53 3207.37,-133.79 3217.61,-136.51 3217.07,-129.53"/>
</g>
<!-- Node32 -->
<g id="node29" class="node">
<title>Node32</title>
<g id="a_node29"><a xlink:href="sitkBinaryContourImageFilter_8h.html" target="_top" xlink:title=" ">
<polygon fill="white" stroke="red" points="3928,-62 3928,-81 4096,-81 4096,-62 3928,-62"/>
<text text-anchor="middle" x="4012" y="-69" font-family="Helvetica,sans-Serif" font-size="10.00">sitkBinaryContourImageFilter.h</text>
</a>
</g>
</g>
<!-- Node2&#45;&gt;Node32 -->
<g id="edge34" class="edge">
<title>Node2&#45;&gt;Node32</title>
<path fill="none" stroke="midnightblue" d="M3217.1,-135.36C3345.27,-130.33 3658.25,-115.92 3919,-87 3933.13,-85.43 3948.4,-83.26 3962.4,-81.07"/>
<polygon fill="midnightblue" stroke="midnightblue" points="3216.96,-131.86 3207.1,-135.75 3217.23,-138.86 3216.96,-131.86"/>
</g>
<!-- Node33 -->
<g id="node30" class="node">
<title>Node33</title>
<g id="a_node30"><a xlink:href="sitkBinaryDilateImageFilter_8h.html" target="_top" xlink:title=" ">
<polygon fill="white" stroke="red" points="4113.5,-62 4113.5,-81 4272.5,-81 4272.5,-62 4113.5,-62"/>
<text text-anchor="middle" x="4193" y="-69" font-family="Helvetica,sans-Serif" font-size="10.00">sitkBinaryDilateImageFilter.h</text>
</a>
</g>
</g>
<!-- Node2&#45;&gt;Node33 -->
<g id="edge35" class="edge">
<title>Node2&#45;&gt;Node33</title>
<path fill="none" stroke="midnightblue" d="M3217.52,-136.6C3367.11,-133.84 3770.73,-123.34 4105,-87 4118.7,-85.51 4133.51,-83.3 4147,-81.06"/>
<polygon fill="midnightblue" stroke="midnightblue" points="3217.13,-133.1 3207.2,-136.78 3217.26,-140.1 3217.13,-133.1"/>
</g>
<!-- Node34 -->
<g id="node31" class="node">
<title>Node34</title>
<g id="a_node31"><a xlink:href="sitkBinaryErodeImageFilter_8h.html" target="_top" xlink:title=" ">
<polygon fill="white" stroke="red" points="4290,-62 4290,-81 4448,-81 4448,-62 4290,-62"/>
<text text-anchor="middle" x="4369" y="-69" font-family="Helvetica,sans-Serif" font-size="10.00">sitkBinaryErodeImageFilter.h</text>
</a>
</g>
</g>
<!-- Node2&#45;&gt;Node34 -->
<g id="edge36" class="edge">
<title>Node2&#45;&gt;Node34</title>
<path fill="none" stroke="midnightblue" d="M3217.23,-137.3C3384.69,-136.21 3875.8,-129.34 4281,-87 4294.86,-85.55 4309.85,-83.33 4323.46,-81.06"/>
<polygon fill="midnightblue" stroke="midnightblue" points="3217.12,-133.8 3207.14,-137.36 3217.16,-140.8 3217.12,-133.8"/>
</g>
<!-- Node35 -->
<g id="node32" class="node">
<title>Node35</title>
<g id="a_node32"><a xlink:href="sitkBinaryFillholeImageFilter_8h.html" target="_top" xlink:title=" ">
<polygon fill="white" stroke="red" points="4466.5,-62 4466.5,-81 4631.5,-81 4631.5,-62 4466.5,-62"/>
<text text-anchor="middle" x="4549" y="-69" font-family="Helvetica,sans-Serif" font-size="10.00">sitkBinaryFillholeImageFilter.h</text>
</a>
</g>
</g>
<!-- Node2&#45;&gt;Node35 -->
<g id="edge37" class="edge">
<title>Node2&#45;&gt;Node35</title>
<path fill="none" stroke="midnightblue" d="M3217.11,-137.67C3401.17,-137.67 3980.28,-133.67 4457,-87 4471.64,-85.57 4487.5,-83.32 4501.86,-81.02"/>
<polygon fill="midnightblue" stroke="midnightblue" points="3217.1,-134.17 3207.1,-137.67 3217.1,-141.17 3217.1,-134.17"/>
</g>
<!-- Node36 -->
<g id="node33" class="node">
<title>Node36</title>
<g id="a_node33"><a xlink:href="sitkBinaryGrindPeakImageFilter_8h.html" target="_top" xlink:title=" ">
<polygon fill="white" stroke="red" points="4649.5,-56.5 4649.5,-86.5 4796.5,-86.5 4796.5,-56.5 4649.5,-56.5"/>
<text text-anchor="start" x="4657.5" y="-74.5" font-family="Helvetica,sans-Serif" font-size="10.00">sitkBinaryGrindPeakImage</text>
<text text-anchor="middle" x="4723" y="-63.5" font-family="Helvetica,sans-Serif" font-size="10.00">Filter.h</text>
</a>
</g>
</g>
<!-- Node2&#45;&gt;Node36 -->
<g id="edge38" class="edge">
<title>Node2&#45;&gt;Node36</title>
<path fill="none" stroke="midnightblue" d="M3217.38,-136.58C3457.45,-132.69 4356.94,-116.4 4640,-87 4643.06,-86.68 4646.17,-86.32 4649.31,-85.92"/>
<polygon fill="midnightblue" stroke="midnightblue" points="3217.05,-133.08 3207.11,-136.74 3217.17,-140.08 3217.05,-133.08"/>
</g>
<!-- Node37 -->
<g id="node34" class="node">
<title>Node37</title>
<g id="a_node34"><a xlink:href="sitkBinaryImageToLabelMapFilter_8h.html" target="_top" xlink:title=" ">
<polygon fill="white" stroke="red" points="4814.5,-56.5 4814.5,-86.5 4969.5,-86.5 4969.5,-56.5 4814.5,-56.5"/>
<text text-anchor="start" x="4822.5" y="-74.5" font-family="Helvetica,sans-Serif" font-size="10.00">sitkBinaryImageToLabelMap</text>
<text text-anchor="middle" x="4892" y="-63.5" font-family="Helvetica,sans-Serif" font-size="10.00">Filter.h</text>
</a>
</g>
</g>
<!-- Node2&#45;&gt;Node37 -->
<g id="edge39" class="edge">
<title>Node2&#45;&gt;Node37</title>
<path fill="none" stroke="midnightblue" d="M3217.53,-136.75C3474.23,-133.35 4487.69,-118.16 4805,-87 4808.05,-86.7 4811.15,-86.36 4814.28,-85.99"/>
<polygon fill="midnightblue" stroke="midnightblue" points="3217.25,-133.25 3207.3,-136.88 3217.34,-140.25 3217.25,-133.25"/>
</g>
<!-- Node38 -->
<g id="node35" class="node">
<title>Node38</title>
<g id="a_node35"><a xlink:href="sitkBinaryMagnitudeImageFilter_8h.html" target="_top" xlink:title=" ">
<polygon fill="white" stroke="red" points="4987.5,-56.5 4987.5,-86.5 5136.5,-86.5 5136.5,-56.5 4987.5,-56.5"/>
<text text-anchor="start" x="4995.5" y="-74.5" font-family="Helvetica,sans-Serif" font-size="10.00">sitkBinaryMagnitudeImage</text>
<text text-anchor="middle" x="5062" y="-63.5" font-family="Helvetica,sans-Serif" font-size="10.00">Filter.h</text>
</a>
</g>
</g>
<!-- Node2&#45;&gt;Node38 -->
<g id="edge40" class="edge">
<title>Node2&#45;&gt;Node38</title>
<path fill="none" stroke="midnightblue" d="M3217.44,-137C3490.32,-134.51 4624.76,-122.21 4978,-87 4981.09,-86.69 4984.24,-86.34 4987.42,-85.94"/>
<polygon fill="midnightblue" stroke="midnightblue" points="3217.31,-133.5 3207.35,-137.09 3217.38,-140.5 3217.31,-133.5"/>
</g>
<!-- Node39 -->
<g id="node36" class="node">
<title>Node39</title>
<g id="a_node36"><a xlink:href="sitkBinaryMedianImageFilter_8h.html" target="_top" xlink:title=" ">
<polygon fill="white" stroke="red" points="5155,-62 5155,-81 5321,-81 5321,-62 5155,-62"/>
<text text-anchor="middle" x="5238" y="-69" font-family="Helvetica,sans-Serif" font-size="10.00">sitkBinaryMedianImageFilter.h</text>
</a>
</g>
</g>
<!-- Node2&#45;&gt;Node39 -->
<g id="edge41" class="edge">
<title>Node2&#45;&gt;Node39</title>
<path fill="none" stroke="midnightblue" d="M3217.63,-137.03C3505.86,-134.57 4756.72,-122.06 5145,-87 5159.97,-85.65 5176.19,-83.4 5190.83,-81.06"/>
<polygon fill="midnightblue" stroke="midnightblue" points="3217.36,-133.53 3207.39,-137.11 3217.42,-140.53 3217.36,-133.53"/>
</g>
<!-- Node40 -->
<g id="node37" class="node">
<title>Node40</title>
<g id="a_node37"><a xlink:href="sitkBinaryMinMaxCurvatureFlowImageFilter_8h.html" target="_top" xlink:title=" ">
<polygon fill="white" stroke="red" points="5339.5,-56.5 5339.5,-86.5 5492.5,-86.5 5492.5,-56.5 5339.5,-56.5"/>
<text text-anchor="start" x="5347.5" y="-74.5" font-family="Helvetica,sans-Serif" font-size="10.00">sitkBinaryMinMaxCurvature</text>
<text text-anchor="middle" x="5416" y="-63.5" font-family="Helvetica,sans-Serif" font-size="10.00">FlowImageFilter.h</text>
</a>
</g>
</g>
<!-- Node2&#45;&gt;Node40 -->
<g id="edge42" class="edge">
<title>Node2&#45;&gt;Node40</title>
<path fill="none" stroke="midnightblue" d="M3217.67,-137.27C3521.97,-135.94 4903.26,-127.72 5330,-87 5333.01,-86.71 5336.08,-86.38 5339.18,-86.01"/>
<polygon fill="midnightblue" stroke="midnightblue" points="3217.28,-133.78 3207.3,-137.32 3217.31,-140.78 3217.28,-133.78"/>
</g>
<!-- Node41 -->
<g id="node38" class="node">
<title>Node41</title>
<g id="a_node38"><a xlink:href="sitkBinaryMorphologicalClosingImageFilter_8h.html" target="_top" xlink:title=" ">
<polygon fill="white" stroke="red" points="5510.5,-56.5 5510.5,-86.5 5681.5,-86.5 5681.5,-56.5 5510.5,-56.5"/>
<text text-anchor="start" x="5518.5" y="-74.5" font-family="Helvetica,sans-Serif" font-size="10.00">sitkBinaryMorphologicalClosing</text>
<text text-anchor="middle" x="5596" y="-63.5" font-family="Helvetica,sans-Serif" font-size="10.00">ImageFilter.h</text>
</a>
</g>
</g>
<!-- Node2&#45;&gt;Node41 -->
<g id="edge43" class="edge">
<title>Node2&#45;&gt;Node41</title>
<path fill="none" stroke="midnightblue" d="M3217.66,-137.27C3536.09,-135.85 5038.09,-127.15 5501,-87 5504.08,-86.73 5507.2,-86.43 5510.36,-86.1"/>
<polygon fill="midnightblue" stroke="midnightblue" points="3217.26,-133.77 3207.28,-137.31 3217.29,-140.77 3217.26,-133.77"/>
</g>
<!-- Node42 -->
<g id="node39" class="node">
<title>Node42</title>
<g id="a_node39"><a xlink:href="sitkBinaryMorphologicalOpeningImageFilter_8h.html" target="_top" xlink:title=" ">
<polygon fill="white" stroke="red" points="5700,-56.5 5700,-86.5 5876,-86.5 5876,-56.5 5700,-56.5"/>
<text text-anchor="start" x="5708" y="-74.5" font-family="Helvetica,sans-Serif" font-size="10.00">sitkBinaryMorphologicalOpening</text>
<text text-anchor="middle" x="5788" y="-63.5" font-family="Helvetica,sans-Serif" font-size="10.00">ImageFilter.h</text>
</a>
</g>
</g>
<!-- Node2&#45;&gt;Node42 -->
<g id="edge44" class="edge">
<title>Node2&#45;&gt;Node42</title>
<path fill="none" stroke="midnightblue" d="M3217.58,-137.34C3550.87,-136.29 5187.22,-129.04 5690,-87 5693.26,-86.73 5696.57,-86.42 5699.91,-86.07"/>
<polygon fill="midnightblue" stroke="midnightblue" points="3217.18,-133.84 3207.19,-137.37 3217.2,-140.84 3217.18,-133.84"/>
</g>
<!-- Node43 -->
<g id="node40" class="node">
<title>Node43</title>
<g id="a_node40"><a xlink:href="sitkBinaryNotImageFilter_8h.html" target="_top" xlink:title=" ">
<polygon fill="white" stroke="red" points="5894.5,-62 5894.5,-81 6041.5,-81 6041.5,-62 5894.5,-62"/>
<text text-anchor="middle" x="5968" y="-69" font-family="Helvetica,sans-Serif" font-size="10.00">sitkBinaryNotImageFilter.h</text>
</a>
</g>
</g>
<!-- Node2&#45;&gt;Node43 -->
<g id="edge45" class="edge">
<title>Node2&#45;&gt;Node43</title>
<path fill="none" stroke="midnightblue" d="M3217.13,-137.65C3564.36,-138.33 5341.52,-139.19 5885,-87 5898.54,-85.7 5913.2,-83.43 5926.37,-81.07"/>
<polygon fill="midnightblue" stroke="midnightblue" points="3217.05,-134.15 3207.04,-137.63 3217.03,-141.15 3217.05,-134.15"/>
</g>
<!-- Node44 -->
<g id="node41" class="node">
<title>Node44</title>
<g id="a_node41"><a xlink:href="sitkBinaryOpeningByReconstructionImageFilter_8h.html" target="_top" xlink:title=" ">
<polygon fill="white" stroke="red" points="6060,-56.5 6060,-86.5 6252,-86.5 6252,-56.5 6060,-56.5"/>
<text text-anchor="start" x="6068" y="-74.5" font-family="Helvetica,sans-Serif" font-size="10.00">sitkBinaryOpeningByReconstruction</text>
<text text-anchor="middle" x="6156" y="-63.5" font-family="Helvetica,sans-Serif" font-size="10.00">ImageFilter.h</text>
</a>
</g>
</g>
<!-- Node2&#45;&gt;Node44 -->
<g id="edge46" class="edge">
<title>Node2&#45;&gt;Node44</title>
<path fill="none" stroke="midnightblue" d="M3217.2,-137.42C3576.69,-136.81 5470.85,-131.51 6050,-87 6053.24,-86.75 6056.53,-86.47 6059.86,-86.16"/>
<polygon fill="midnightblue" stroke="midnightblue" points="3217.01,-133.92 3207.01,-137.44 3217.02,-140.92 3217.01,-133.92"/>
</g>
<!-- Node45 -->
<g id="node42" class="node">
<title>Node45</title>
<g id="a_node42"><a xlink:href="sitkBinaryProjectionImageFilter_8h.html" target="_top" xlink:title=" ">
<polygon fill="white" stroke="red" points="6270,-56.5 6270,-86.5 6416,-86.5 6416,-56.5 6270,-56.5"/>
<text text-anchor="start" x="6278" y="-74.5" font-family="Helvetica,sans-Serif" font-size="10.00">sitkBinaryProjectionImage</text>
<text text-anchor="middle" x="6343" y="-63.5" font-family="Helvetica,sans-Serif" font-size="10.00">Filter.h</text>
</a>
</g>
</g>
<!-- Node2&#45;&gt;Node45 -->
<g id="edge47" class="edge">
<title>Node2&#45;&gt;Node45</title>
<path fill="none" stroke="midnightblue" d="M3217.52,-137.1C3620.9,-134.32 5947.68,-117.06 6261,-87 6263.88,-86.72 6266.81,-86.4 6269.76,-86.04"/>
<polygon fill="midnightblue" stroke="midnightblue" points="3217.22,-133.6 3207.24,-137.17 3217.27,-140.6 3217.22,-133.6"/>
</g>
<!-- Node3&#45;&gt;Node4 -->
<g id="edge3" class="edge">
<title>Node3&#45;&gt;Node4</title>
<path fill="none" stroke="midnightblue" d="M176.61,-56.28C177.74,-56.18 178.88,-56.09 180,-56 855.86,-3.38 6054.92,-10.17 6548.42,-10.94"/>
<polygon fill="midnightblue" stroke="midnightblue" points="175.87,-52.83 166.25,-57.28 176.54,-59.8 175.87,-52.83"/>
</g>
<!-- Node5&#45;&gt;Node4 -->
<g id="edge5" class="edge">
<title>Node5&#45;&gt;Node4</title>
<path fill="none" stroke="midnightblue" d="M325.76,-59.93C334.09,-58.31 342.78,-56.88 351,-56 679.27,-20.68 6045.94,-11.81 6548.35,-11.05"/>
<polygon fill="midnightblue" stroke="midnightblue" points="324.91,-56.53 315.83,-61.98 326.33,-63.39 324.91,-56.53"/>
</g>
<!-- Node6&#45;&gt;Node4 -->
<g id="edge7" class="edge">
<title>Node6&#45;&gt;Node4</title>
<path fill="none" stroke="midnightblue" d="M474.34,-60.1C483.79,-58.41 493.67,-56.92 503,-56 823.32,-24.52 6051.09,-12.19 6548.13,-11.08"/>
<polygon fill="midnightblue" stroke="midnightblue" points="473.48,-56.7 464.3,-61.99 474.78,-63.58 473.48,-56.7"/>
</g>
<!-- Node7&#45;&gt;Node4 -->
<g id="edge9" class="edge">
<title>Node7&#45;&gt;Node4</title>
<path fill="none" stroke="midnightblue" d="M6517.28,-56.43C6534.63,-44.96 6558.57,-29.13 6573.13,-19.51"/>
<polygon fill="midnightblue" stroke="midnightblue" points="6515.31,-53.54 6508.89,-61.98 6519.17,-59.38 6515.31,-53.54"/>
</g>
<!-- Node8&#45;&gt;Node4 -->
<g id="edge11" class="edge">
<title>Node8&#45;&gt;Node4</title>
<path fill="none" stroke="midnightblue" d="M684.38,-56.01C1352.86,-3.97 6076.94,-10.19 6548.15,-10.94"/>
<polygon fill="midnightblue" stroke="midnightblue" points="684.05,-52.53 674.37,-56.82 684.62,-59.51 684.05,-52.53"/>
</g>
<!-- Node9&#45;&gt;Node4 -->
<g id="edge13" class="edge">
<title>Node9&#45;&gt;Node4</title>
<path fill="none" stroke="midnightblue" d="M800.4,-59.99C809.18,-58.35 818.34,-56.9 827,-56 1129.71,-24.63 6066.89,-12.22 6548.31,-11.09"/>
<polygon fill="midnightblue" stroke="midnightblue" points="799.45,-56.61 790.32,-61.99 800.81,-63.48 799.45,-56.61"/>
</g>
<!-- Node308&#45;&gt;Node4 -->
<g id="edge49" class="edge">
<title>Node308&#45;&gt;Node4</title>
<path fill="none" stroke="midnightblue" d="M6559.2,-119.46C6575.28,-112.07 6590.2,-101.66 6600,-87 6614.02,-66.03 6599.9,-34.87 6591.41,-19.8"/>
<polygon fill="midnightblue" stroke="midnightblue" points="6557.5,-116.37 6549.63,-123.47 6560.2,-122.83 6557.5,-116.37"/>
</g>
<!-- Node309&#45;&gt;Node4 -->
<g id="edge51" class="edge">
<title>Node309&#45;&gt;Node4</title>
<path fill="none" stroke="midnightblue" d="M6658.53,-112.96C6655.26,-95.93 6649.13,-73.3 6638,-56 6628.18,-40.74 6611.69,-27.74 6599.91,-19.69"/>
<polygon fill="midnightblue" stroke="midnightblue" points="6655.15,-113.96 6660.29,-123.23 6662.05,-112.78 6655.15,-113.96"/>
</g>
<!-- Node314&#45;&gt;Node4 -->
<g id="edge56" class="edge">
<title>Node314&#45;&gt;Node4</title>
<path fill="none" stroke="midnightblue" d="M6935.12,-125.71C6858.2,-100.44 6679,-41.56 6611.94,-19.52"/>
<polygon fill="midnightblue" stroke="midnightblue" points="6934.25,-129.11 6944.84,-128.9 6936.43,-122.46 6934.25,-129.11"/>
</g>
<!-- Node315&#45;&gt;Node4 -->
<g id="edge58" class="edge">
<title>Node315&#45;&gt;Node4</title>
<path fill="none" stroke="midnightblue" d="M7073.2,-126.42C7009.9,-110.47 6889.13,-80.3 6786,-56 6729.53,-42.7 6663.89,-28.09 6623.65,-19.23"/>
<polygon fill="midnightblue" stroke="midnightblue" points="7072.67,-129.89 7083.22,-128.95 7074.38,-123.11 7072.67,-129.89"/>
</g>
<!-- Node316&#45;&gt;Node4 -->
<g id="edge60" class="edge">
<title>Node316&#45;&gt;Node4</title>
<path fill="none" stroke="midnightblue" d="M7209.71,-126.7C7204.09,-125.43 7198.42,-124.17 7193,-123 7046.73,-91.32 7010.22,-82.89 6863,-56 6777.69,-40.42 6677.1,-24.75 6623.72,-16.65"/>
<polygon fill="midnightblue" stroke="midnightblue" points="7209.2,-130.17 7219.72,-128.98 7210.75,-123.35 7209.2,-130.17"/>
</g>
<!-- Node317&#45;&gt;Node4 -->
<g id="edge62" class="edge">
<title>Node317&#45;&gt;Node4</title>
<path fill="none" stroke="midnightblue" d="M7328.81,-125.79C7325.51,-124.78 7322.2,-123.83 7319,-123 7057.64,-55.18 6732.49,-23.31 6623.54,-14.01"/>
<polygon fill="midnightblue" stroke="midnightblue" points="7327.93,-129.18 7338.53,-128.91 7330.08,-122.52 7327.93,-129.18"/>
</g>
<!-- Node318&#45;&gt;Node4 -->
<g id="edge64" class="edge">
<title>Node318&#45;&gt;Node4</title>
<path fill="none" stroke="midnightblue" d="M7451.94,-126.72C7373.3,-109.45 7212.07,-75.53 7074,-56 6906.99,-32.38 6705.99,-18.36 6623.8,-13.23"/>
<polygon fill="midnightblue" stroke="midnightblue" points="7451.5,-130.21 7462.02,-128.95 7453.01,-123.38 7451.5,-130.21"/>
</g>
</g>
</svg>
