<?xml version="1.0" encoding="UTF-8" standalone="no"?>
<!DOCTYPE svg PUBLIC "-//W3C//DTD SVG 1.1//EN"
 "http://www.w3.org/Graphics/SVG/1.1/DTD/svg11.dtd">
<!-- Generated by graphviz version 2.43.0 (0)
 -->
<!-- Title: sitkElastixTransformixWrappers.h Pages: 1 -->
<svg width="422pt" height="148pt"
 viewBox="0.00 0.00 422.00 148.00" xmlns="http://www.w3.org/2000/svg" xmlns:xlink="http://www.w3.org/1999/xlink">
<g id="graph0" class="graph" transform="scale(1 1) rotate(0) translate(4 144)">
<title>sitkElastixTransformixWrappers.h</title>
<!-- Node1 -->
<g id="Node000001" class="node">
<title>Node1</title>
<g id="a_Node000001"><a xlink:title=" ">
<polygon fill="#999999" stroke="#666666" points="298.5,-140 117.5,-140 117.5,-121 298.5,-121 298.5,-140"/>
<text text-anchor="middle" x="208" y="-128" font-family="Helvetica,sans-Serif" font-size="10.00">sitkElastixTransformixWrappers.h</text>
</a>
</g>
</g>
<!-- Node2 -->
<g id="Node000002" class="node">
<title>Node2</title>
<g id="a_Node000002"><a xlink:href="sitkElastixImageFilter_8h.html" target="_top" xlink:title=" ">
<polygon fill="white" stroke="#666666" points="192.5,-85 61.5,-85 61.5,-66 192.5,-66 192.5,-85"/>
<text text-anchor="middle" x="127" y="-73" font-family="Helvetica,sans-Serif" font-size="10.00">sitkElastixImageFilter.h</text>
</a>
</g>
</g>
<!-- Node1&#45;&gt;Node2 -->
<g id="edge1_Node000001_Node000002" class="edge">
<title>Node1&#45;&gt;Node2</title>
<g id="a_edge1_Node000001_Node000002"><a xlink:title=" ">
<path fill="none" stroke="#63b8ff" d="M186.49,-115.42C171.79,-105.81 152.78,-93.37 140.25,-85.17"/>
<polygon fill="#63b8ff" stroke="#63b8ff" points="184.7,-118.44 194.99,-120.98 188.53,-112.58 184.7,-118.44"/>
</a>
</g>
</g>
<!-- Node5 -->
<g id="Node000005" class="node">
<title>Node5</title>
<g id="a_Node000005"><a xlink:href="sitkTransformixImageFilter_8h.html" target="_top" xlink:title=" ">
<polygon fill="white" stroke="#666666" points="367,-85 211,-85 211,-66 367,-66 367,-85"/>
<text text-anchor="middle" x="289" y="-73" font-family="Helvetica,sans-Serif" font-size="10.00">sitkTransformixImageFilter.h</text>
</a>
</g>
</g>
<!-- Node1&#45;&gt;Node5 -->
<g id="edge4_Node000001_Node000005" class="edge">
<title>Node1&#45;&gt;Node5</title>
<g id="a_edge4_Node000001_Node000005"><a xlink:title=" ">
<path fill="none" stroke="#63b8ff" d="M229.51,-115.42C244.21,-105.81 263.22,-93.37 275.75,-85.17"/>
<polygon fill="#63b8ff" stroke="#63b8ff" points="227.47,-112.58 221.01,-120.98 231.3,-118.44 227.47,-112.58"/>
</a>
</g>
</g>
<!-- Node3 -->
<g id="Node000003" class="node">
<title>Node3</title>
<g id="a_Node000003"><a xlink:href="SimpleITK_8h.html" target="_top" xlink:title=" ">
<polygon fill="white" stroke="#666666" points="247.5,-24.5 172.5,-24.5 172.5,-5.5 247.5,-5.5 247.5,-24.5"/>
<text text-anchor="middle" x="210" y="-12.5" font-family="Helvetica,sans-Serif" font-size="10.00">SimpleITK.h</text>
</a>
</g>
</g>
<!-- Node2&#45;&gt;Node3 -->
<g id="edge2_Node000002_Node000003" class="edge">
<title>Node2&#45;&gt;Node3</title>
<g id="a_edge2_Node000002_Node000003"><a xlink:title=" ">
<path fill="none" stroke="#63b8ff" d="M147.79,-59.85C163.51,-48.77 184.56,-33.93 197.7,-24.67"/>
<polygon fill="#63b8ff" stroke="#63b8ff" points="145.4,-57.25 139.25,-65.87 149.44,-62.97 145.4,-57.25"/>
</a>
</g>
</g>
<!-- Node4 -->
<g id="Node000004" class="node">
<title>Node4</title>
<g id="a_Node000004"><a xlink:href="sitkElastixImageFilterImpl_8h.html" target="_top" xlink:title=" ">
<polygon fill="white" stroke="#666666" points="154,-24.5 0,-24.5 0,-5.5 154,-5.5 154,-24.5"/>
<text text-anchor="middle" x="77" y="-12.5" font-family="Helvetica,sans-Serif" font-size="10.00">sitkElastixImageFilterImpl.h</text>
</a>
</g>
</g>
<!-- Node2&#45;&gt;Node4 -->
<g id="edge3_Node000002_Node000004" class="edge">
<title>Node2&#45;&gt;Node4</title>
<g id="a_edge3_Node000002_Node000004"><a xlink:title=" ">
<path fill="none" stroke="#63b8ff" d="M112.86,-57.95C103.6,-47.12 91.88,-33.41 84.41,-24.67"/>
<polygon fill="#63b8ff" stroke="#63b8ff" points="110.46,-60.54 119.62,-65.87 115.79,-55.99 110.46,-60.54"/>
</a>
</g>
</g>
<!-- Node5&#45;&gt;Node3 -->
<g id="edge5_Node000005_Node000003" class="edge">
<title>Node5&#45;&gt;Node3</title>
<g id="a_edge5_Node000005_Node000003"><a xlink:title=" ">
<path fill="none" stroke="#63b8ff" d="M269.21,-59.85C254.25,-48.77 234.21,-33.93 221.7,-24.67"/>
<polygon fill="#63b8ff" stroke="#63b8ff" points="267.22,-62.73 277.34,-65.87 271.39,-57.1 267.22,-62.73"/>
</a>
</g>
</g>
<!-- Node6 -->
<g id="Node000006" class="node">
<title>Node6</title>
<g id="a_Node000006"><a xlink:href="sitkTransformixImageFilterImpl_8h.html" target="_top" xlink:title=" ">
<polygon fill="white" stroke="#666666" points="414,-30 266,-30 266,0 414,0 414,-30"/>
<text text-anchor="start" x="274" y="-18" font-family="Helvetica,sans-Serif" font-size="10.00">sitkTransformixImageFilter</text>
<text text-anchor="middle" x="340" y="-7" font-family="Helvetica,sans-Serif" font-size="10.00">Impl.h</text>
</a>
</g>
</g>
<!-- Node5&#45;&gt;Node6 -->
<g id="edge6_Node000005_Node000006" class="edge">
<title>Node5&#45;&gt;Node6</title>
<g id="a_edge6_Node000005_Node000006"><a xlink:title=" ">
<path fill="none" stroke="#63b8ff" d="M303.25,-58.15C310.94,-49.34 320.33,-38.56 327.69,-30.11"/>
<polygon fill="#63b8ff" stroke="#63b8ff" points="300.46,-56.03 296.53,-65.87 305.73,-60.63 300.46,-56.03"/>
</a>
</g>
</g>
</g>
</svg>
