<?xml version="1.0" encoding="UTF-8" standalone="no"?>
<!DOCTYPE svg PUBLIC "-//W3C//DTD SVG 1.1//EN"
 "http://www.w3.org/Graphics/SVG/1.1/DTD/svg11.dtd">
<!-- Generated by graphviz version 2.43.0 (0)
 -->
<!-- Title: sitkWrapPadImageFilter.h Pages: 1 -->
<svg width="1899pt" height="599pt"
 viewBox="0.00 0.00 1899.00 599.00" xmlns="http://www.w3.org/2000/svg" xmlns:xlink="http://www.w3.org/1999/xlink">
<g id="graph0" class="graph" transform="scale(1 1) rotate(0) translate(4 595)">
<title>sitkWrapPadImageFilter.h</title>
<polygon fill="white" stroke="transparent" points="-4,4 -4,-595 1895,-595 1895,4 -4,4"/>
<!-- Node1 -->
<g id="node1" class="node">
<title>Node1</title>
<g id="a_node1"><a xlink:title=" ">
<polygon fill="#bfbfbf" stroke="black" points="383.5,-571.5 383.5,-590.5 524.5,-590.5 524.5,-571.5 383.5,-571.5"/>
<text text-anchor="middle" x="454" y="-578.5" font-family="Helvetica,sans-Serif" font-size="10.00">sitkWrapPadImageFilter.h</text>
</a>
</g>
</g>
<!-- Node2 -->
<g id="node2" class="node">
<title>Node2</title>
<g id="a_node2"><a xlink:title=" ">
<polygon fill="white" stroke="#bfbfbf" points="425,-291.5 425,-310.5 483,-310.5 483,-291.5 425,-291.5"/>
<text text-anchor="middle" x="454" y="-298.5" font-family="Helvetica,sans-Serif" font-size="10.00">memory</text>
</a>
</g>
</g>
<!-- Node1&#45;&gt;Node2 -->
<g id="edge1" class="edge">
<title>Node1&#45;&gt;Node2</title>
<path fill="none" stroke="midnightblue" d="M454,-571.44C454,-552.94 454,-507.81 454,-470 454,-470 454,-470 454,-412 454,-379.95 454,-342.64 454,-320.75"/>
<polygon fill="midnightblue" stroke="midnightblue" points="457.5,-320.56 454,-310.56 450.5,-320.56 457.5,-320.56"/>
</g>
<!-- Node3 -->
<g id="node3" class="node">
<title>Node3</title>
<g id="a_node3"><a xlink:href="sitkBasicFilters_8h.html" target="_top" xlink:title=" ">
<polygon fill="white" stroke="black" points="166,-459.5 166,-478.5 266,-478.5 266,-459.5 166,-459.5"/>
<text text-anchor="middle" x="216" y="-466.5" font-family="Helvetica,sans-Serif" font-size="10.00">sitkBasicFilters.h</text>
</a>
</g>
</g>
<!-- Node1&#45;&gt;Node3 -->
<g id="edge2" class="edge">
<title>Node1&#45;&gt;Node3</title>
<path fill="none" stroke="midnightblue" d="M435.32,-571.37C393.61,-552.09 292.71,-505.45 243.67,-482.79"/>
<polygon fill="midnightblue" stroke="midnightblue" points="245.13,-479.61 234.59,-478.59 242.2,-485.96 245.13,-479.61"/>
</g>
<!-- Node38 -->
<g id="node38" class="node">
<title>Node38</title>
<g id="a_node38"><a xlink:href="sitkImageFilter_8h.html" target="_top" xlink:title=" ">
<polygon fill="white" stroke="black" points="482,-515.5 482,-534.5 580,-534.5 580,-515.5 482,-515.5"/>
<text text-anchor="middle" x="531" y="-522.5" font-family="Helvetica,sans-Serif" font-size="10.00">sitkImageFilter.h</text>
</a>
</g>
</g>
<!-- Node1&#45;&gt;Node38 -->
<g id="edge65" class="edge">
<title>Node1&#45;&gt;Node38</title>
<path fill="none" stroke="midnightblue" d="M466.37,-571.32C478.16,-563.06 496.13,-550.45 510.14,-540.63"/>
<polygon fill="midnightblue" stroke="midnightblue" points="512.48,-543.26 518.66,-534.65 508.46,-537.53 512.48,-543.26"/>
</g>
<!-- Node4 -->
<g id="node4" class="node">
<title>Node4</title>
<g id="a_node4"><a xlink:href="sitkMacro_8h.html" target="_top" xlink:title=" ">
<polygon fill="white" stroke="black" points="574,-56.5 574,-75.5 648,-75.5 648,-56.5 574,-56.5"/>
<text text-anchor="middle" x="611" y="-63.5" font-family="Helvetica,sans-Serif" font-size="10.00">sitkMacro.h</text>
</a>
</g>
</g>
<!-- Node3&#45;&gt;Node4 -->
<g id="edge3" class="edge">
<title>Node3&#45;&gt;Node4</title>
<path fill="none" stroke="midnightblue" d="M166.89,-459.47C114.2,-447.16 38,-418.85 38,-358 38,-358 38,-358 38,-177 38,-92.36 134.61,-131.38 217,-112 340.06,-83.05 489.28,-72.48 563.83,-68.82"/>
<polygon fill="midnightblue" stroke="midnightblue" points="564.02,-72.31 573.84,-68.34 563.69,-65.32 564.02,-72.31"/>
</g>
<!-- Node11 -->
<g id="node11" class="node">
<title>Node11</title>
<g id="a_node11"><a xlink:href="sitkInterpolator_8h.html" target="_top" xlink:title=" ">
<polygon fill="white" stroke="black" points="284,-230 284,-249 384,-249 384,-230 284,-230"/>
<text text-anchor="middle" x="334" y="-237" font-family="Helvetica,sans-Serif" font-size="10.00">sitkInterpolator.h</text>
</a>
</g>
</g>
<!-- Node3&#45;&gt;Node11 -->
<g id="edge10" class="edge">
<title>Node3&#45;&gt;Node11</title>
<path fill="none" stroke="midnightblue" d="M206.44,-459.45C197.91,-451.12 186.01,-437.6 181,-423 161.96,-367.51 146.63,-338.54 181,-291 192.92,-274.51 240.72,-260.45 279.75,-251.39"/>
<polygon fill="midnightblue" stroke="midnightblue" points="280.99,-254.7 289.98,-249.08 279.45,-247.87 280.99,-254.7"/>
</g>
<!-- Node14 -->
<g id="node14" class="node">
<title>Node14</title>
<g id="a_node14"><a xlink:href="sitkRandomSeed_8h.html" target="_top" xlink:title=" ">
<polygon fill="white" stroke="black" points="223,-347.5 223,-366.5 331,-366.5 331,-347.5 223,-347.5"/>
<text text-anchor="middle" x="277" y="-354.5" font-family="Helvetica,sans-Serif" font-size="10.00">sitkRandomSeed.h</text>
</a>
</g>
</g>
<!-- Node3&#45;&gt;Node14 -->
<g id="edge14" class="edge">
<title>Node3&#45;&gt;Node14</title>
<path fill="none" stroke="midnightblue" d="M220.79,-459.37C230.76,-441.38 253.96,-399.55 267.23,-375.63"/>
<polygon fill="midnightblue" stroke="midnightblue" points="270.45,-377.03 272.24,-366.59 264.33,-373.64 270.45,-377.03"/>
</g>
<!-- Node15 -->
<g id="node15" class="node">
<title>Node15</title>
<g id="a_node15"><a xlink:href="sitkKernel_8h.html" target="_top" xlink:title=" ">
<polygon fill="white" stroke="black" points="402,-230 402,-249 476,-249 476,-230 402,-230"/>
<text text-anchor="middle" x="439" y="-237" font-family="Helvetica,sans-Serif" font-size="10.00">sitkKernel.h</text>
</a>
</g>
</g>
<!-- Node3&#45;&gt;Node15 -->
<g id="edge16" class="edge">
<title>Node3&#45;&gt;Node15</title>
<path fill="none" stroke="midnightblue" d="M212.85,-459.22C205.81,-438.01 191.19,-383.04 214,-347 235.52,-313 344.8,-272.11 402.77,-252.34"/>
<polygon fill="midnightblue" stroke="midnightblue" points="403.93,-255.65 412.28,-249.13 401.69,-249.01 403.93,-255.65"/>
</g>
<!-- Node16 -->
<g id="node16" class="node">
<title>Node16</title>
<g id="a_node16"><a xlink:href="sitkTransform_8h.html" target="_top" xlink:title=" ">
<polygon fill="white" stroke="black" points="334,-403.5 334,-422.5 426,-422.5 426,-403.5 334,-403.5"/>
<text text-anchor="middle" x="380" y="-410.5" font-family="Helvetica,sans-Serif" font-size="10.00">sitkTransform.h</text>
</a>
</g>
</g>
<!-- Node3&#45;&gt;Node16 -->
<g id="edge19" class="edge">
<title>Node3&#45;&gt;Node16</title>
<path fill="none" stroke="midnightblue" d="M241.99,-459.44C269.7,-450.32 313.75,-435.81 344.62,-425.65"/>
<polygon fill="midnightblue" stroke="midnightblue" points="345.73,-428.97 354.14,-422.52 343.54,-422.32 345.73,-428.97"/>
</g>
<!-- Node37 -->
<g id="node37" class="node">
<title>Node37</title>
<g id="a_node37"><a xlink:title=" ">
<polygon fill="white" stroke="#bfbfbf" points="91,-403.5 91,-422.5 129,-422.5 129,-403.5 91,-403.5"/>
<text text-anchor="middle" x="110" y="-410.5" font-family="Helvetica,sans-Serif" font-size="10.00">map</text>
</a>
</g>
</g>
<!-- Node3&#45;&gt;Node37 -->
<g id="edge64" class="edge">
<title>Node3&#45;&gt;Node37</title>
<path fill="none" stroke="midnightblue" d="M198.97,-459.32C181.97,-450.66 155.62,-437.24 136.01,-427.25"/>
<polygon fill="midnightblue" stroke="midnightblue" points="137.49,-424.08 126.99,-422.65 134.31,-430.31 137.49,-424.08"/>
</g>
<!-- Node5 -->
<g id="node5" class="node">
<title>Node5</title>
<g id="a_node5"><a xlink:title=" ">
<polygon fill="white" stroke="#bfbfbf" points="947.5,-0.5 947.5,-19.5 1000.5,-19.5 1000.5,-0.5 947.5,-0.5"/>
<text text-anchor="middle" x="974" y="-7.5" font-family="Helvetica,sans-Serif" font-size="10.00">stdint.h</text>
</a>
</g>
</g>
<!-- Node4&#45;&gt;Node5 -->
<g id="edge4" class="edge">
<title>Node4&#45;&gt;Node5</title>
<path fill="none" stroke="midnightblue" d="M648.14,-59.47C717.92,-49.09 867.82,-26.8 937.28,-16.46"/>
<polygon fill="midnightblue" stroke="midnightblue" points="937.94,-19.9 947.32,-14.97 936.91,-12.98 937.94,-19.9"/>
</g>
<!-- Node6 -->
<g id="node6" class="node">
<title>Node6</title>
<g id="a_node6"><a xlink:title=" ">
<polygon fill="white" stroke="#bfbfbf" points="509,-0.5 509,-19.5 565,-19.5 565,-0.5 509,-0.5"/>
<text text-anchor="middle" x="537" y="-7.5" font-family="Helvetica,sans-Serif" font-size="10.00">stddef.h</text>
</a>
</g>
</g>
<!-- Node4&#45;&gt;Node6 -->
<g id="edge5" class="edge">
<title>Node4&#45;&gt;Node6</title>
<path fill="none" stroke="midnightblue" d="M599.11,-56.32C587.85,-48.11 570.71,-35.6 557.29,-25.81"/>
<polygon fill="midnightblue" stroke="midnightblue" points="559.25,-22.9 549.11,-19.83 555.12,-28.56 559.25,-22.9"/>
</g>
<!-- Node7 -->
<g id="node7" class="node">
<title>Node7</title>
<g id="a_node7"><a xlink:title=" ">
<polygon fill="white" stroke="#bfbfbf" points="1580,-0.5 1580,-19.5 1632,-19.5 1632,-0.5 1580,-0.5"/>
<text text-anchor="middle" x="1606" y="-7.5" font-family="Helvetica,sans-Serif" font-size="10.00">cassert</text>
</a>
</g>
</g>
<!-- Node4&#45;&gt;Node7 -->
<g id="edge6" class="edge">
<title>Node4&#45;&gt;Node7</title>
<path fill="none" stroke="midnightblue" d="M648.19,-62.98C805.3,-54.46 1413.67,-21.44 1569.48,-12.98"/>
<polygon fill="midnightblue" stroke="midnightblue" points="1570.11,-16.45 1579.91,-12.42 1569.73,-9.46 1570.11,-16.45"/>
</g>
<!-- Node8 -->
<g id="node8" class="node">
<title>Node8</title>
<g id="a_node8"><a xlink:title=" ">
<polygon fill="white" stroke="#bfbfbf" points="583,-0.5 583,-19.5 639,-19.5 639,-0.5 583,-0.5"/>
<text text-anchor="middle" x="611" y="-7.5" font-family="Helvetica,sans-Serif" font-size="10.00">sstream</text>
</a>
</g>
</g>
<!-- Node4&#45;&gt;Node8 -->
<g id="edge7" class="edge">
<title>Node4&#45;&gt;Node8</title>
<path fill="none" stroke="midnightblue" d="M611,-56.08C611,-49.01 611,-38.86 611,-29.99"/>
<polygon fill="midnightblue" stroke="midnightblue" points="614.5,-29.75 611,-19.75 607.5,-29.75 614.5,-29.75"/>
</g>
<!-- Node9 -->
<g id="node9" class="node">
<title>Node9</title>
<g id="a_node9"><a xlink:title=" ">
<polygon fill="white" stroke="#bfbfbf" points="657,-0.5 657,-19.5 701,-19.5 701,-0.5 657,-0.5"/>
<text text-anchor="middle" x="679" y="-7.5" font-family="Helvetica,sans-Serif" font-size="10.00">limits</text>
</a>
</g>
</g>
<!-- Node4&#45;&gt;Node9 -->
<g id="edge8" class="edge">
<title>Node4&#45;&gt;Node9</title>
<path fill="none" stroke="midnightblue" d="M621.93,-56.32C632.17,-48.18 647.72,-35.84 660,-26.09"/>
<polygon fill="midnightblue" stroke="midnightblue" points="662.22,-28.79 667.88,-19.83 657.87,-23.31 662.22,-28.79"/>
</g>
<!-- Node10 -->
<g id="node10" class="node">
<title>Node10</title>
<g id="a_node10"><a xlink:href="sitkConfigure_8h.html" target="_top" xlink:title=" ">
<polygon fill="white" stroke="black" points="1288,-0.5 1288,-19.5 1378,-19.5 1378,-0.5 1288,-0.5"/>
<text text-anchor="middle" x="1333" y="-7.5" font-family="Helvetica,sans-Serif" font-size="10.00">sitkConfigure.h</text>
</a>
</g>
</g>
<!-- Node4&#45;&gt;Node10 -->
<g id="edge9" class="edge">
<title>Node4&#45;&gt;Node10</title>
<path fill="none" stroke="midnightblue" d="M648.05,-62.23C766.5,-53.37 1136.51,-25.7 1277.59,-15.14"/>
<polygon fill="midnightblue" stroke="midnightblue" points="1278.03,-18.62 1287.75,-14.38 1277.51,-11.64 1278.03,-18.62"/>
</g>
<!-- Node12 -->
<g id="node12" class="node">
<title>Node12</title>
<g id="a_node12"><a xlink:href="sitkCommon_8h.html" target="_top" xlink:title=" ">
<polygon fill="white" stroke="black" points="567,-112.5 567,-131.5 655,-131.5 655,-112.5 567,-112.5"/>
<text text-anchor="middle" x="611" y="-119.5" font-family="Helvetica,sans-Serif" font-size="10.00">sitkCommon.h</text>
</a>
</g>
</g>
<!-- Node11&#45;&gt;Node12 -->
<g id="edge11" class="edge">
<title>Node11&#45;&gt;Node12</title>
<path fill="none" stroke="midnightblue" d="M347.24,-229.89C369.81,-215.5 417.55,-186.33 461,-168 494.87,-153.71 534.81,-141.97 564.96,-134.06"/>
<polygon fill="midnightblue" stroke="midnightblue" points="565.97,-137.41 574.78,-131.53 564.22,-130.63 565.97,-137.41"/>
</g>
<!-- Node13 -->
<g id="node13" class="node">
<title>Node13</title>
<g id="a_node13"><a xlink:title=" ">
<polygon fill="white" stroke="#bfbfbf" points="525.5,-168.5 525.5,-187.5 582.5,-187.5 582.5,-168.5 525.5,-168.5"/>
<text text-anchor="middle" x="554" y="-175.5" font-family="Helvetica,sans-Serif" font-size="10.00">ostream</text>
</a>
</g>
</g>
<!-- Node11&#45;&gt;Node13 -->
<g id="edge13" class="edge">
<title>Node11&#45;&gt;Node13</title>
<path fill="none" stroke="midnightblue" d="M365.52,-229.98C405.12,-219.27 473.03,-200.9 515.61,-189.38"/>
<polygon fill="midnightblue" stroke="midnightblue" points="516.6,-192.74 525.34,-186.75 514.77,-185.98 516.6,-192.74"/>
</g>
<!-- Node12&#45;&gt;Node4 -->
<g id="edge12" class="edge">
<title>Node12&#45;&gt;Node4</title>
<path fill="none" stroke="midnightblue" d="M611,-112.08C611,-105.01 611,-94.86 611,-85.99"/>
<polygon fill="midnightblue" stroke="midnightblue" points="614.5,-85.75 611,-75.75 607.5,-85.75 614.5,-85.75"/>
</g>
<!-- Node14&#45;&gt;Node12 -->
<g id="edge15" class="edge">
<title>Node14&#45;&gt;Node12</title>
<path fill="none" stroke="midnightblue" d="M295.46,-347.5C345.08,-324.59 478.04,-262.77 485,-255 512.39,-224.43 488.46,-198.44 516,-168 529.91,-152.63 550.17,-142.04 568.42,-135.01"/>
<polygon fill="midnightblue" stroke="midnightblue" points="569.79,-138.24 578.02,-131.56 567.42,-131.65 569.79,-138.24"/>
</g>
<!-- Node15&#45;&gt;Node12 -->
<g id="edge17" class="edge">
<title>Node15&#45;&gt;Node12</title>
<path fill="none" stroke="midnightblue" d="M442.18,-229.81C448.02,-215.03 461.83,-184.96 483,-168 504.25,-150.98 532.4,-140.15 556.89,-133.4"/>
<polygon fill="midnightblue" stroke="midnightblue" points="557.98,-136.73 566.78,-130.84 556.22,-129.96 557.98,-136.73"/>
</g>
<!-- Node15&#45;&gt;Node13 -->
<g id="edge18" class="edge">
<title>Node15&#45;&gt;Node13</title>
<path fill="none" stroke="midnightblue" d="M455.48,-229.98C474.61,-220.08 506.37,-203.64 528.65,-192.12"/>
<polygon fill="midnightblue" stroke="midnightblue" points="530.28,-195.21 537.55,-187.51 527.06,-189 530.28,-195.21"/>
</g>
<!-- Node16&#45;&gt;Node12 -->
<g id="edge20" class="edge">
<title>Node16&#45;&gt;Node12</title>
<path fill="none" stroke="midnightblue" d="M376.75,-403.15C371.25,-389.3 358.82,-362.5 340,-347 245.97,-269.52 18.84,-319.11 95,-224 152.17,-152.6 436.06,-131.09 556.66,-125.12"/>
<polygon fill="midnightblue" stroke="midnightblue" points="556.96,-128.61 566.78,-124.64 556.62,-121.62 556.96,-128.61"/>
</g>
<!-- Node17 -->
<g id="node17" class="node">
<title>Node17</title>
<g id="a_node17"><a xlink:href="sitkExceptionObject_8h.html" target="_top" xlink:title=" ">
<polygon fill="white" stroke="black" points="104.5,-230 104.5,-249 227.5,-249 227.5,-230 104.5,-230"/>
<text text-anchor="middle" x="166" y="-237" font-family="Helvetica,sans-Serif" font-size="10.00">sitkExceptionObject.h</text>
</a>
</g>
</g>
<!-- Node16&#45;&gt;Node17 -->
<g id="edge21" class="edge">
<title>Node16&#45;&gt;Node17</title>
<path fill="none" stroke="midnightblue" d="M381.24,-403.29C382.67,-390.1 383.61,-364.72 373,-347 340.47,-292.66 270.2,-264.94 220.59,-251.61"/>
<polygon fill="midnightblue" stroke="midnightblue" points="221.2,-248.16 210.64,-249.06 219.46,-254.94 221.2,-248.16"/>
</g>
<!-- Node18 -->
<g id="node18" class="node">
<title>Node18</title>
<g id="a_node18"><a xlink:href="sitkImage_8h.html" target="_top" xlink:title=" ">
<polygon fill="white" stroke="black" points="818,-347.5 818,-366.5 892,-366.5 892,-347.5 818,-347.5"/>
<text text-anchor="middle" x="855" y="-354.5" font-family="Helvetica,sans-Serif" font-size="10.00">sitkImage.h</text>
</a>
</g>
</g>
<!-- Node16&#45;&gt;Node18 -->
<g id="edge24" class="edge">
<title>Node16&#45;&gt;Node18</title>
<path fill="none" stroke="midnightblue" d="M426.41,-406.72C517,-396.43 716.46,-373.75 807.73,-363.37"/>
<polygon fill="midnightblue" stroke="midnightblue" points="808.25,-366.84 817.79,-362.23 807.46,-359.88 808.25,-366.84"/>
</g>
<!-- Node20 -->
<g id="node20" class="node">
<title>Node20</title>
<g id="a_node20"><a xlink:title=" ">
<polygon fill="white" stroke="#bfbfbf" points="679.5,-230 679.5,-249 726.5,-249 726.5,-230 679.5,-230"/>
<text text-anchor="middle" x="703" y="-237" font-family="Helvetica,sans-Serif" font-size="10.00">vector</text>
</a>
</g>
</g>
<!-- Node16&#45;&gt;Node20 -->
<g id="edge63" class="edge">
<title>Node16&#45;&gt;Node20</title>
<path fill="none" stroke="midnightblue" d="M426.03,-409.66C492.26,-403.78 614.04,-383.16 683,-311 696.3,-297.09 700.86,-275 702.37,-259.25"/>
<polygon fill="midnightblue" stroke="midnightblue" points="705.88,-259.32 703.01,-249.12 698.89,-258.88 705.88,-259.32"/>
</g>
<!-- Node17&#45;&gt;Node4 -->
<g id="edge22" class="edge">
<title>Node17&#45;&gt;Node4</title>
<path fill="none" stroke="midnightblue" d="M168.3,-229.89C175.06,-206.39 197.3,-141.01 242,-112 294.09,-78.2 476.36,-69.79 563.67,-67.69"/>
<polygon fill="midnightblue" stroke="midnightblue" points="563.91,-71.19 573.83,-67.47 563.76,-64.19 563.91,-71.19"/>
</g>
<!-- Node17&#45;&gt;Node12 -->
<g id="edge23" class="edge">
<title>Node17&#45;&gt;Node12</title>
<path fill="none" stroke="midnightblue" d="M194.99,-229.94C241.75,-216.24 336.81,-188.81 418,-168 466.9,-155.47 523.15,-142.52 562.26,-133.75"/>
<polygon fill="midnightblue" stroke="midnightblue" points="563.07,-137.15 572.06,-131.55 561.54,-130.32 563.07,-137.15"/>
</g>
<!-- Node18&#45;&gt;Node2 -->
<g id="edge61" class="edge">
<title>Node18&#45;&gt;Node2</title>
<path fill="none" stroke="midnightblue" d="M817.75,-352.33C752.52,-345.67 613.46,-330.47 497,-311 495.73,-310.79 494.44,-310.56 493.14,-310.33"/>
<polygon fill="midnightblue" stroke="midnightblue" points="493.56,-306.85 483.08,-308.42 492.25,-313.73 493.56,-306.85"/>
</g>
<!-- Node18&#45;&gt;Node12 -->
<g id="edge25" class="edge">
<title>Node18&#45;&gt;Node12</title>
<path fill="none" stroke="midnightblue" d="M855.48,-347.18C856.25,-324.23 855.27,-261.78 825,-224 784.62,-173.61 713.16,-147.03 664,-134.01"/>
<polygon fill="midnightblue" stroke="midnightblue" points="664.73,-130.58 654.18,-131.51 663,-137.36 664.73,-130.58"/>
</g>
<!-- Node19 -->
<g id="node19" class="node">
<title>Node19</title>
<g id="a_node19"><a xlink:href="sitkTemplateFunctions_8h.html" target="_top" xlink:title=" ">
<polygon fill="white" stroke="black" points="539.5,-291.5 539.5,-310.5 674.5,-310.5 674.5,-291.5 539.5,-291.5"/>
<text text-anchor="middle" x="607" y="-298.5" font-family="Helvetica,sans-Serif" font-size="10.00">sitkTemplateFunctions.h</text>
</a>
</g>
</g>
<!-- Node18&#45;&gt;Node19 -->
<g id="edge26" class="edge">
<title>Node18&#45;&gt;Node19</title>
<path fill="none" stroke="midnightblue" d="M817.87,-347.92C774.85,-338.55 703.8,-323.08 656.22,-312.72"/>
<polygon fill="midnightblue" stroke="midnightblue" points="656.95,-309.29 646.43,-310.59 655.46,-316.13 656.95,-309.29"/>
</g>
<!-- Node18&#45;&gt;Node20 -->
<g id="edge60" class="edge">
<title>Node18&#45;&gt;Node20</title>
<path fill="none" stroke="midnightblue" d="M843.58,-347.32C817.83,-327.75 755.01,-280.02 722.78,-255.53"/>
<polygon fill="midnightblue" stroke="midnightblue" points="724.64,-252.55 714.56,-249.28 720.4,-258.12 724.64,-252.55"/>
</g>
<!-- Node22 -->
<g id="node22" class="node">
<title>Node22</title>
<g id="a_node22"><a xlink:href="sitkDetail_8h.html" target="_top" xlink:title=" ">
<polygon fill="white" stroke="black" points="1175.5,-291.5 1175.5,-310.5 1248.5,-310.5 1248.5,-291.5 1175.5,-291.5"/>
<text text-anchor="middle" x="1212" y="-298.5" font-family="Helvetica,sans-Serif" font-size="10.00">sitkDetail.h</text>
</a>
</g>
</g>
<!-- Node18&#45;&gt;Node22 -->
<g id="edge33" class="edge">
<title>Node18&#45;&gt;Node22</title>
<path fill="none" stroke="midnightblue" d="M892.19,-350.37C957.73,-340.46 1093.6,-319.91 1165.32,-309.06"/>
<polygon fill="midnightblue" stroke="midnightblue" points="1166.06,-312.49 1175.42,-307.53 1165.01,-305.57 1166.06,-312.49"/>
</g>
<!-- Node33 -->
<g id="node33" class="node">
<title>Node33</title>
<g id="a_node33"><a xlink:href="sitkPixelIDTokens_8h.html" target="_top" xlink:title=" ">
<polygon fill="white" stroke="black" points="971,-291.5 971,-310.5 1081,-310.5 1081,-291.5 971,-291.5"/>
<text text-anchor="middle" x="1026" y="-298.5" font-family="Helvetica,sans-Serif" font-size="10.00">sitkPixelIDTokens.h</text>
</a>
</g>
</g>
<!-- Node18&#45;&gt;Node33 -->
<g id="edge52" class="edge">
<title>Node18&#45;&gt;Node33</title>
<path fill="none" stroke="midnightblue" d="M882.1,-347.44C910.99,-338.32 956.92,-323.81 989.11,-313.65"/>
<polygon fill="midnightblue" stroke="midnightblue" points="990.55,-316.87 999.03,-310.52 988.44,-310.19 990.55,-316.87"/>
</g>
<!-- Node36 -->
<g id="node36" class="node">
<title>Node36</title>
<g id="a_node36"><a xlink:title=" ">
<polygon fill="white" stroke="#bfbfbf" points="910.5,-230 910.5,-249 979.5,-249 979.5,-230 910.5,-230"/>
<text text-anchor="middle" x="945" y="-237" font-family="Helvetica,sans-Serif" font-size="10.00">type_traits</text>
</a>
</g>
</g>
<!-- Node18&#45;&gt;Node36 -->
<g id="edge62" class="edge">
<title>Node18&#45;&gt;Node36</title>
<path fill="none" stroke="midnightblue" d="M861.76,-347.32C876.62,-328.26 912.31,-282.45 931.79,-257.46"/>
<polygon fill="midnightblue" stroke="midnightblue" points="934.77,-259.32 938.16,-249.28 929.25,-255.02 934.77,-259.32"/>
</g>
<!-- Node19&#45;&gt;Node4 -->
<g id="edge27" class="edge">
<title>Node19&#45;&gt;Node4</title>
<path fill="none" stroke="midnightblue" d="M539.32,-291.95C443.5,-280.4 279.33,-259.96 275,-255 185.34,-152.36 451.62,-93.96 563.75,-74.44"/>
<polygon fill="midnightblue" stroke="midnightblue" points="564.52,-77.86 573.78,-72.73 563.34,-70.96 564.52,-77.86"/>
</g>
<!-- Node19&#45;&gt;Node12 -->
<g id="edge28" class="edge">
<title>Node19&#45;&gt;Node12</title>
<path fill="none" stroke="midnightblue" d="M605.01,-291.43C603.03,-282.42 600.13,-267.8 599,-255 595.44,-214.65 602.45,-167.37 607.18,-141.78"/>
<polygon fill="midnightblue" stroke="midnightblue" points="610.67,-142.13 609.14,-131.65 603.8,-140.8 610.67,-142.13"/>
</g>
<!-- Node19&#45;&gt;Node13 -->
<g id="edge31" class="edge">
<title>Node19&#45;&gt;Node13</title>
<path fill="none" stroke="midnightblue" d="M596.02,-291.25C586.45,-282.98 573.05,-269.67 566,-255 557.34,-236.98 554.71,-214.05 554.01,-198.11"/>
<polygon fill="midnightblue" stroke="midnightblue" points="557.51,-197.84 553.79,-187.92 550.51,-197.99 557.51,-197.84"/>
</g>
<!-- Node19&#45;&gt;Node17 -->
<g id="edge29" class="edge">
<title>Node19&#45;&gt;Node17</title>
<path fill="none" stroke="midnightblue" d="M539.37,-292.2C450.07,-281.81 297.67,-263.73 242,-255 234.26,-253.79 226.09,-252.37 218.1,-250.91"/>
<polygon fill="midnightblue" stroke="midnightblue" points="218.6,-247.44 208.12,-249.05 217.31,-254.32 218.6,-247.44"/>
</g>
<!-- Node19&#45;&gt;Node20 -->
<g id="edge30" class="edge">
<title>Node19&#45;&gt;Node20</title>
<path fill="none" stroke="midnightblue" d="M620.75,-291.48C636.37,-281.8 662.06,-265.87 680.58,-254.39"/>
<polygon fill="midnightblue" stroke="midnightblue" points="682.62,-257.25 689.27,-249.01 678.93,-251.3 682.62,-257.25"/>
</g>
<!-- Node21 -->
<g id="node21" class="node">
<title>Node21</title>
<g id="a_node21"><a xlink:title=" ">
<polygon fill="white" stroke="#bfbfbf" points="608.5,-230 608.5,-249 661.5,-249 661.5,-230 608.5,-230"/>
<text text-anchor="middle" x="635" y="-237" font-family="Helvetica,sans-Serif" font-size="10.00">iterator</text>
</a>
</g>
</g>
<!-- Node19&#45;&gt;Node21 -->
<g id="edge32" class="edge">
<title>Node19&#45;&gt;Node21</title>
<path fill="none" stroke="midnightblue" d="M611.01,-291.48C615.09,-282.82 621.52,-269.15 626.7,-258.15"/>
<polygon fill="midnightblue" stroke="midnightblue" points="629.9,-259.55 631,-249.01 623.57,-256.57 629.9,-259.55"/>
</g>
<!-- Node23 -->
<g id="node23" class="node">
<title>Node23</title>
<g id="a_node23"><a xlink:href="sitkMemberFunctionFactoryBase_8h.html" target="_top" xlink:title=" ">
<polygon fill="white" stroke="black" points="1443,-224.5 1443,-254.5 1595,-254.5 1595,-224.5 1443,-224.5"/>
<text text-anchor="start" x="1451" y="-242.5" font-family="Helvetica,sans-Serif" font-size="10.00">sitkMemberFunctionFactory</text>
<text text-anchor="middle" x="1519" y="-231.5" font-family="Helvetica,sans-Serif" font-size="10.00">Base.h</text>
</a>
</g>
</g>
<!-- Node22&#45;&gt;Node23 -->
<g id="edge34" class="edge">
<title>Node22&#45;&gt;Node23</title>
<path fill="none" stroke="midnightblue" d="M1248.66,-292.82C1251.82,-292.2 1254.96,-291.59 1258,-291 1317.67,-279.39 1385.04,-266.36 1436.38,-256.44"/>
<polygon fill="midnightblue" stroke="midnightblue" points="1437.27,-259.83 1446.43,-254.5 1435.94,-252.96 1437.27,-259.83"/>
</g>
<!-- Node29 -->
<g id="node29" class="node">
<title>Node29</title>
<g id="a_node29"><a xlink:title=" ">
<polygon fill="white" stroke="#bfbfbf" points="1176.5,-168.5 1176.5,-187.5 1315.5,-187.5 1315.5,-168.5 1176.5,-168.5"/>
<text text-anchor="middle" x="1246" y="-175.5" font-family="Helvetica,sans-Serif" font-size="10.00">Ancillary/FunctionTraits.h</text>
</a>
</g>
</g>
<!-- Node22&#45;&gt;Node29 -->
<g id="edge51" class="edge">
<title>Node22&#45;&gt;Node29</title>
<path fill="none" stroke="midnightblue" d="M1214.45,-291.3C1219.93,-271.76 1233.34,-224.06 1240.79,-197.55"/>
<polygon fill="midnightblue" stroke="midnightblue" points="1244.24,-198.2 1243.58,-187.62 1237.5,-196.3 1244.24,-198.2"/>
</g>
<!-- Node23&#45;&gt;Node4 -->
<g id="edge43" class="edge">
<title>Node23&#45;&gt;Node4</title>
<path fill="none" stroke="midnightblue" d="M1468.32,-224.49C1437.41,-215.36 1397.37,-202.48 1363,-188 1345.41,-180.59 1343.16,-173.87 1325,-168 1082.69,-89.71 774.69,-72.07 658.35,-68.12"/>
<polygon fill="midnightblue" stroke="midnightblue" points="658.13,-64.62 648.03,-67.79 657.91,-71.61 658.13,-64.62"/>
</g>
<!-- Node23&#45;&gt;Node10 -->
<g id="edge35" class="edge">
<title>Node23&#45;&gt;Node10</title>
<path fill="none" stroke="midnightblue" d="M1595.11,-236.14C1672.5,-231.96 1784.77,-220.32 1812,-188 1817.73,-181.2 1813.85,-176.69 1812,-168 1806.32,-141.34 1808.11,-129.24 1787,-112 1726.12,-62.27 1495.19,-29.76 1388.12,-17.04"/>
<polygon fill="midnightblue" stroke="midnightblue" points="1388.5,-13.56 1378.16,-15.87 1387.68,-20.52 1388.5,-13.56"/>
</g>
<!-- Node24 -->
<g id="node24" class="node">
<title>Node24</title>
<g id="a_node24"><a xlink:href="sitkPixelIDTypes_8h.html" target="_top" xlink:title=" ">
<polygon fill="white" stroke="black" points="1495.5,-112.5 1495.5,-131.5 1600.5,-131.5 1600.5,-112.5 1495.5,-112.5"/>
<text text-anchor="middle" x="1548" y="-119.5" font-family="Helvetica,sans-Serif" font-size="10.00">sitkPixelIDTypes.h</text>
</a>
</g>
</g>
<!-- Node23&#45;&gt;Node24 -->
<g id="edge36" class="edge">
<title>Node23&#45;&gt;Node24</title>
<path fill="none" stroke="midnightblue" d="M1536.63,-224.13C1546.43,-214.96 1557.7,-202.16 1563,-188 1568.83,-172.44 1563.41,-153.91 1557.53,-140.63"/>
<polygon fill="midnightblue" stroke="midnightblue" points="1560.66,-139.06 1553.11,-131.62 1554.37,-142.14 1560.66,-139.06"/>
</g>
<!-- Node25 -->
<g id="node25" class="node">
<title>Node25</title>
<g id="a_node25"><a xlink:href="sitkPixelIDTypeLists_8h.html" target="_top" xlink:title=" ">
<polygon fill="white" stroke="black" points="1372,-168.5 1372,-187.5 1494,-187.5 1494,-168.5 1372,-168.5"/>
<text text-anchor="middle" x="1433" y="-175.5" font-family="Helvetica,sans-Serif" font-size="10.00">sitkPixelIDTypeLists.h</text>
</a>
</g>
</g>
<!-- Node23&#45;&gt;Node25 -->
<g id="edge37" class="edge">
<title>Node23&#45;&gt;Node25</title>
<path fill="none" stroke="midnightblue" d="M1498.62,-224.4C1485.09,-215.04 1467.39,-202.79 1453.78,-193.38"/>
<polygon fill="midnightblue" stroke="midnightblue" points="1455.73,-190.47 1445.51,-187.66 1451.75,-196.23 1455.73,-190.47"/>
</g>
<!-- Node26 -->
<g id="node26" class="node">
<title>Node26</title>
<g id="a_node26"><a xlink:title=" ">
<polygon fill="white" stroke="#bfbfbf" points="1666.5,-112.5 1666.5,-131.5 1777.5,-131.5 1777.5,-112.5 1666.5,-112.5"/>
<text text-anchor="middle" x="1722" y="-119.5" font-family="Helvetica,sans-Serif" font-size="10.00">Ancillary/TypeList.h</text>
</a>
</g>
</g>
<!-- Node23&#45;&gt;Node26 -->
<g id="edge46" class="edge">
<title>Node23&#45;&gt;Node26</title>
<path fill="none" stroke="midnightblue" d="M1595.05,-235.26C1668.05,-230.36 1770.83,-218.17 1796,-188 1813.15,-167.44 1781.65,-147.72 1754.59,-135.5"/>
<polygon fill="midnightblue" stroke="midnightblue" points="1755.86,-132.24 1745.29,-131.5 1753.1,-138.67 1755.86,-132.24"/>
</g>
<!-- Node28 -->
<g id="node28" class="node">
<title>Node28</title>
<g id="a_node28"><a xlink:href="sitkNonCopyable_8h.html" target="_top" xlink:title=" ">
<polygon fill="white" stroke="black" points="1010.5,-168.5 1010.5,-187.5 1119.5,-187.5 1119.5,-168.5 1010.5,-168.5"/>
<text text-anchor="middle" x="1065" y="-175.5" font-family="Helvetica,sans-Serif" font-size="10.00">sitkNonCopyable.h</text>
</a>
</g>
</g>
<!-- Node23&#45;&gt;Node28 -->
<g id="edge44" class="edge">
<title>Node23&#45;&gt;Node28</title>
<path fill="none" stroke="midnightblue" d="M1442.75,-228.51C1354.99,-217 1212.34,-198.31 1129.74,-187.48"/>
<polygon fill="midnightblue" stroke="midnightblue" points="1130.1,-184 1119.73,-186.17 1129.19,-190.94 1130.1,-184"/>
</g>
<!-- Node23&#45;&gt;Node29 -->
<g id="edge47" class="edge">
<title>Node23&#45;&gt;Node29</title>
<path fill="none" stroke="midnightblue" d="M1454.65,-224.47C1405.8,-213.83 1339.66,-199.41 1295.04,-189.69"/>
<polygon fill="midnightblue" stroke="midnightblue" points="1295.55,-186.22 1285.03,-187.51 1294.05,-193.06 1295.55,-186.22"/>
</g>
<!-- Node30 -->
<g id="node30" class="node">
<title>Node30</title>
<g id="a_node30"><a xlink:title=" ">
<polygon fill="white" stroke="#bfbfbf" points="1610.5,-168.5 1610.5,-187.5 1703.5,-187.5 1703.5,-168.5 1610.5,-168.5"/>
<text text-anchor="middle" x="1657" y="-175.5" font-family="Helvetica,sans-Serif" font-size="10.00">unordered_map</text>
</a>
</g>
</g>
<!-- Node23&#45;&gt;Node30 -->
<g id="edge48" class="edge">
<title>Node23&#45;&gt;Node30</title>
<path fill="none" stroke="midnightblue" d="M1551.7,-224.4C1574.75,-214.46 1605.36,-201.26 1627.63,-191.66"/>
<polygon fill="midnightblue" stroke="midnightblue" points="1629.12,-194.83 1636.92,-187.66 1626.35,-188.4 1629.12,-194.83"/>
</g>
<!-- Node31 -->
<g id="node31" class="node">
<title>Node31</title>
<g id="a_node31"><a xlink:title=" ">
<polygon fill="white" stroke="#bfbfbf" points="1721.5,-168.5 1721.5,-187.5 1786.5,-187.5 1786.5,-168.5 1721.5,-168.5"/>
<text text-anchor="middle" x="1754" y="-175.5" font-family="Helvetica,sans-Serif" font-size="10.00">functional</text>
</a>
</g>
</g>
<!-- Node23&#45;&gt;Node31 -->
<g id="edge49" class="edge">
<title>Node23&#45;&gt;Node31</title>
<path fill="none" stroke="midnightblue" d="M1574.39,-224.47C1616.37,-213.85 1673.19,-199.46 1711.59,-189.74"/>
<polygon fill="midnightblue" stroke="midnightblue" points="1712.59,-193.1 1721.42,-187.25 1710.87,-186.31 1712.59,-193.1"/>
</g>
<!-- Node32 -->
<g id="node32" class="node">
<title>Node32</title>
<g id="a_node32"><a xlink:title=" ">
<polygon fill="white" stroke="#bfbfbf" points="1512.5,-168.5 1512.5,-187.5 1553.5,-187.5 1553.5,-168.5 1512.5,-168.5"/>
<text text-anchor="middle" x="1533" y="-175.5" font-family="Helvetica,sans-Serif" font-size="10.00">tuple</text>
</a>
</g>
</g>
<!-- Node23&#45;&gt;Node32 -->
<g id="edge50" class="edge">
<title>Node23&#45;&gt;Node32</title>
<path fill="none" stroke="midnightblue" d="M1522.32,-224.4C1524.21,-216.38 1526.59,-206.23 1528.63,-197.57"/>
<polygon fill="midnightblue" stroke="midnightblue" points="1532.08,-198.19 1530.96,-187.66 1525.27,-196.59 1532.08,-198.19"/>
</g>
<!-- Node25&#45;&gt;Node5 -->
<g id="edge38" class="edge">
<title>Node25&#45;&gt;Node5</title>
<path fill="none" stroke="midnightblue" d="M1409.29,-168.42C1333.19,-140.9 1094.99,-54.76 1007.05,-22.95"/>
<polygon fill="midnightblue" stroke="midnightblue" points="1008.16,-19.63 997.57,-19.52 1005.78,-26.22 1008.16,-19.63"/>
</g>
<!-- Node25&#45;&gt;Node10 -->
<g id="edge39" class="edge">
<title>Node25&#45;&gt;Node10</title>
<path fill="none" stroke="midnightblue" d="M1431.56,-168.18C1429.2,-155.28 1423.78,-130.77 1414,-112 1396.56,-78.51 1367.12,-45.48 1348.95,-26.73"/>
<polygon fill="midnightblue" stroke="midnightblue" points="1351.44,-24.26 1341.92,-19.6 1346.45,-29.18 1351.44,-24.26"/>
</g>
<!-- Node25&#45;&gt;Node24 -->
<g id="edge40" class="edge">
<title>Node25&#45;&gt;Node24</title>
<path fill="none" stroke="midnightblue" d="M1451.22,-168.44C1469.9,-159.68 1499.16,-145.94 1520.62,-135.86"/>
<polygon fill="midnightblue" stroke="midnightblue" points="1522.3,-138.93 1529.86,-131.52 1519.32,-132.6 1522.3,-138.93"/>
</g>
<!-- Node25&#45;&gt;Node26 -->
<g id="edge41" class="edge">
<title>Node25&#45;&gt;Node26</title>
<path fill="none" stroke="midnightblue" d="M1478.79,-168.44C1529.74,-158.92 1612.03,-143.55 1666.57,-133.36"/>
<polygon fill="midnightblue" stroke="midnightblue" points="1667.23,-136.79 1676.42,-131.52 1665.95,-129.91 1667.23,-136.79"/>
</g>
<!-- Node27 -->
<g id="node27" class="node">
<title>Node27</title>
<g id="a_node27"><a xlink:title=" ">
<polygon fill="white" stroke="#bfbfbf" points="1345.5,-112.5 1345.5,-131.5 1404.5,-131.5 1404.5,-112.5 1345.5,-112.5"/>
<text text-anchor="middle" x="1375" y="-119.5" font-family="Helvetica,sans-Serif" font-size="10.00">complex</text>
</a>
</g>
</g>
<!-- Node25&#45;&gt;Node27 -->
<g id="edge42" class="edge">
<title>Node25&#45;&gt;Node27</title>
<path fill="none" stroke="midnightblue" d="M1423.68,-168.32C1415.11,-160.34 1402.19,-148.31 1391.81,-138.65"/>
<polygon fill="midnightblue" stroke="midnightblue" points="1394.19,-136.09 1384.49,-131.83 1389.42,-141.21 1394.19,-136.09"/>
</g>
<!-- Node28&#45;&gt;Node12 -->
<g id="edge45" class="edge">
<title>Node28&#45;&gt;Node12</title>
<path fill="none" stroke="midnightblue" d="M1010.2,-169.2C1007.09,-168.79 1004.01,-168.38 1001,-168 881.39,-152.69 740.82,-137.05 665.4,-128.85"/>
<polygon fill="midnightblue" stroke="midnightblue" points="665.52,-125.34 655.2,-127.74 664.77,-132.3 665.52,-125.34"/>
</g>
<!-- Node33&#45;&gt;Node10 -->
<g id="edge53" class="edge">
<title>Node33&#45;&gt;Node10</title>
<path fill="none" stroke="midnightblue" d="M1052.76,-291.48C1072.32,-284.21 1098.56,-272.18 1117,-255 1149.8,-224.45 1140.16,-203.13 1168,-168 1214.22,-109.69 1281.65,-52.27 1314.13,-25.94"/>
<polygon fill="midnightblue" stroke="midnightblue" points="1316.36,-28.64 1321.96,-19.65 1311.97,-23.18 1316.36,-28.64"/>
</g>
<!-- Node34 -->
<g id="node34" class="node">
<title>Node34</title>
<g id="a_node34"><a xlink:href="sitkPixelIDValues_8h.html" target="_top" xlink:title=" ">
<polygon fill="white" stroke="black" points="998,-230 998,-249 1108,-249 1108,-230 998,-230"/>
<text text-anchor="middle" x="1053" y="-237" font-family="Helvetica,sans-Serif" font-size="10.00">sitkPixelIDValues.h</text>
</a>
</g>
</g>
<!-- Node33&#45;&gt;Node34 -->
<g id="edge54" class="edge">
<title>Node33&#45;&gt;Node34</title>
<path fill="none" stroke="midnightblue" d="M1029.87,-291.48C1033.8,-282.82 1040,-269.15 1044.99,-258.15"/>
<polygon fill="midnightblue" stroke="midnightblue" points="1048.19,-259.56 1049.14,-249.01 1041.82,-256.67 1048.19,-259.56"/>
</g>
<!-- Node33&#45;&gt;Node36 -->
<g id="edge59" class="edge">
<title>Node33&#45;&gt;Node36</title>
<path fill="none" stroke="midnightblue" d="M1014.39,-291.48C1001.52,-282.02 980.53,-266.6 964.99,-255.19"/>
<polygon fill="midnightblue" stroke="midnightblue" points="966.72,-252.11 956.58,-249.01 962.57,-257.75 966.72,-252.11"/>
</g>
<!-- Node34&#45;&gt;Node12 -->
<g id="edge55" class="edge">
<title>Node34&#45;&gt;Node12</title>
<path fill="none" stroke="midnightblue" d="M1033.18,-229.85C1010.4,-219.88 971.92,-202.94 939,-188 919.81,-179.29 916.16,-174.15 896,-168 817.8,-144.16 723.48,-132.42 665.37,-127.05"/>
<polygon fill="midnightblue" stroke="midnightblue" points="665.58,-123.56 655.31,-126.15 664.96,-130.53 665.58,-123.56"/>
</g>
<!-- Node34&#45;&gt;Node13 -->
<g id="edge58" class="edge">
<title>Node34&#45;&gt;Node13</title>
<path fill="none" stroke="midnightblue" d="M1018.94,-229.99C1009.3,-227.8 998.78,-225.61 989,-224 843.75,-200.12 669,-186.6 592.75,-181.44"/>
<polygon fill="midnightblue" stroke="midnightblue" points="592.87,-177.95 582.66,-180.77 592.4,-184.93 592.87,-177.95"/>
</g>
<!-- Node34&#45;&gt;Node25 -->
<g id="edge56" class="edge">
<title>Node34&#45;&gt;Node25</title>
<path fill="none" stroke="midnightblue" d="M1107.44,-229.98C1176.44,-219.17 1295.19,-200.58 1368.61,-189.08"/>
<polygon fill="midnightblue" stroke="midnightblue" points="1369.32,-192.51 1378.66,-187.51 1368.24,-185.6 1369.32,-192.51"/>
</g>
<!-- Node35 -->
<g id="node35" class="node">
<title>Node35</title>
<g id="a_node35"><a xlink:title=" ">
<polygon fill="white" stroke="#bfbfbf" points="948,-168.5 948,-187.5 992,-187.5 992,-168.5 948,-168.5"/>
<text text-anchor="middle" x="970" y="-175.5" font-family="Helvetica,sans-Serif" font-size="10.00">string</text>
</a>
</g>
</g>
<!-- Node34&#45;&gt;Node35 -->
<g id="edge57" class="edge">
<title>Node34&#45;&gt;Node35</title>
<path fill="none" stroke="midnightblue" d="M1041.11,-229.98C1027.8,-220.43 1006,-204.81 990.04,-193.37"/>
<polygon fill="midnightblue" stroke="midnightblue" points="992.04,-190.49 981.87,-187.51 987.96,-196.18 992.04,-190.49"/>
</g>
<!-- Node38&#45;&gt;Node3 -->
<g id="edge76" class="edge">
<title>Node38&#45;&gt;Node3</title>
<path fill="none" stroke="midnightblue" d="M481.78,-515.56C426.09,-506.01 335.37,-490.46 275.69,-480.23"/>
<polygon fill="midnightblue" stroke="midnightblue" points="276.1,-476.75 265.65,-478.51 274.92,-483.65 276.1,-476.75"/>
</g>
<!-- Node38&#45;&gt;Node4 -->
<g id="edge66" class="edge">
<title>Node38&#45;&gt;Node4</title>
<path fill="none" stroke="midnightblue" d="M482,-524.18C350.54,-523.33 0,-511.91 0,-414 0,-414 0,-414 0,-177 0,-139.16 21.34,-129.3 55,-112 143.21,-66.67 446.18,-65.07 563.79,-66.24"/>
<polygon fill="midnightblue" stroke="midnightblue" points="563.89,-69.74 573.92,-66.35 563.96,-62.74 563.89,-69.74"/>
</g>
<!-- Node39 -->
<g id="node39" class="node">
<title>Node39</title>
<g id="a_node39"><a xlink:href="sitkMemberFunctionFactory_8h.html" target="_top" xlink:title=" ">
<polygon fill="white" stroke="black" points="1076.5,-347.5 1076.5,-366.5 1235.5,-366.5 1235.5,-347.5 1076.5,-347.5"/>
<text text-anchor="middle" x="1156" y="-354.5" font-family="Helvetica,sans-Serif" font-size="10.00">sitkMemberFunctionFactory.h</text>
</a>
</g>
</g>
<!-- Node38&#45;&gt;Node39 -->
<g id="edge67" class="edge">
<title>Node38&#45;&gt;Node39</title>
<path fill="none" stroke="midnightblue" d="M580.09,-520.81C703.67,-511.94 1023.79,-483.56 1109,-423 1126.15,-410.81 1139.43,-390.36 1147.44,-375.65"/>
<polygon fill="midnightblue" stroke="midnightblue" points="1150.65,-377.05 1152.12,-366.56 1144.43,-373.85 1150.65,-377.05"/>
</g>
<!-- Node41 -->
<g id="node41" class="node">
<title>Node41</title>
<g id="a_node41"><a xlink:href="sitkProcessObject_8h.html" target="_top" xlink:title=" ">
<polygon fill="white" stroke="black" points="799.5,-459.5 799.5,-478.5 912.5,-478.5 912.5,-459.5 799.5,-459.5"/>
<text text-anchor="middle" x="856" y="-466.5" font-family="Helvetica,sans-Serif" font-size="10.00">sitkProcessObject.h</text>
</a>
</g>
</g>
<!-- Node38&#45;&gt;Node41 -->
<g id="edge77" class="edge">
<title>Node38&#45;&gt;Node41</title>
<path fill="none" stroke="midnightblue" d="M580.01,-515.86C637.37,-506.33 732.42,-490.53 794.64,-480.2"/>
<polygon fill="midnightblue" stroke="midnightblue" points="795.42,-483.61 804.71,-478.52 794.27,-476.71 795.42,-483.61"/>
</g>
<!-- Node39&#45;&gt;Node7 -->
<g id="edge72" class="edge">
<title>Node39&#45;&gt;Node7</title>
<path fill="none" stroke="midnightblue" d="M1235.71,-351.73C1425.98,-340.48 1891,-306.26 1891,-240.5 1891,-240.5 1891,-240.5 1891,-121 1891,-68.26 1718.97,-31.07 1642.22,-17.11"/>
<polygon fill="midnightblue" stroke="midnightblue" points="1642.51,-13.6 1632.05,-15.29 1641.28,-20.49 1642.51,-13.6"/>
</g>
<!-- Node39&#45;&gt;Node17 -->
<g id="edge75" class="edge">
<title>Node39&#45;&gt;Node17</title>
<path fill="none" stroke="midnightblue" d="M1076.22,-352.1C919.28,-344.15 581.21,-325.62 530,-311 511.65,-305.76 510.15,-296.89 492,-291 385.22,-256.35 352.72,-273.52 242,-255 234.54,-253.75 226.68,-252.35 218.96,-250.92"/>
<polygon fill="midnightblue" stroke="midnightblue" points="219.42,-247.45 208.95,-249.05 218.13,-254.33 219.42,-247.45"/>
</g>
<!-- Node39&#45;&gt;Node22 -->
<g id="edge68" class="edge">
<title>Node39&#45;&gt;Node22</title>
<path fill="none" stroke="midnightblue" d="M1165,-347.32C1173.19,-339.42 1185.51,-327.55 1195.47,-317.94"/>
<polygon fill="midnightblue" stroke="midnightblue" points="1198.07,-320.29 1202.84,-310.83 1193.21,-315.26 1198.07,-320.29"/>
</g>
<!-- Node39&#45;&gt;Node23 -->
<g id="edge69" class="edge">
<title>Node39&#45;&gt;Node23</title>
<path fill="none" stroke="midnightblue" d="M1235.75,-349.18C1308.83,-341.94 1410.94,-329.05 1447,-311 1469.65,-299.66 1489.7,-278.6 1502.86,-262.44"/>
<polygon fill="midnightblue" stroke="midnightblue" points="1505.66,-264.54 1509.09,-254.52 1500.16,-260.22 1505.66,-264.54"/>
</g>
<!-- Node39&#45;&gt;Node33 -->
<g id="edge74" class="edge">
<title>Node39&#45;&gt;Node33</title>
<path fill="none" stroke="midnightblue" d="M1135.4,-347.44C1114.01,-338.56 1080.32,-324.56 1055.98,-314.45"/>
<polygon fill="midnightblue" stroke="midnightblue" points="1057.08,-311.12 1046.5,-310.52 1054.39,-317.58 1057.08,-311.12"/>
</g>
<!-- Node39&#45;&gt;Node34 -->
<g id="edge70" class="edge">
<title>Node39&#45;&gt;Node34</title>
<path fill="none" stroke="midnightblue" d="M1148.26,-347.32C1131.11,-328.09 1089.69,-281.64 1067.54,-256.81"/>
<polygon fill="midnightblue" stroke="midnightblue" points="1070.1,-254.42 1060.83,-249.28 1064.88,-259.07 1070.1,-254.42"/>
</g>
<!-- Node39&#45;&gt;Node39 -->
<g id="edge73" class="edge">
<title>Node39&#45;&gt;Node39</title>
<path fill="none" stroke="midnightblue" d="M1197.33,-366.5C1225.67,-369.33 1253.5,-366.16 1253.5,-357 1253.5,-348.95 1232,-345.53 1207.56,-346.74"/>
<polygon fill="midnightblue" stroke="midnightblue" points="1207.04,-343.27 1197.33,-347.5 1207.56,-350.25 1207.04,-343.27"/>
</g>
<!-- Node40 -->
<g id="node40" class="node">
<title>Node40</title>
<g id="a_node40"><a xlink:title=" ">
<polygon fill="white" stroke="#bfbfbf" points="1266.5,-291.5 1266.5,-310.5 1437.5,-310.5 1437.5,-291.5 1266.5,-291.5"/>
<text text-anchor="middle" x="1352" y="-298.5" font-family="Helvetica,sans-Serif" font-size="10.00">sitkMemberFunctionFactory.hxx</text>
</a>
</g>
</g>
<!-- Node39&#45;&gt;Node40 -->
<g id="edge71" class="edge">
<title>Node39&#45;&gt;Node40</title>
<path fill="none" stroke="midnightblue" d="M1187.06,-347.44C1220.6,-338.2 1274.2,-323.44 1311.14,-313.26"/>
<polygon fill="midnightblue" stroke="midnightblue" points="1312.38,-316.55 1321.09,-310.52 1310.52,-309.8 1312.38,-316.55"/>
</g>
<!-- Node41&#45;&gt;Node12 -->
<g id="edge78" class="edge">
<title>Node41&#45;&gt;Node12</title>
<path fill="none" stroke="midnightblue" d="M912.72,-460.16C974.41,-451.06 1065.66,-435.67 1076,-423 1081.62,-416.11 1079.85,-411.01 1076,-403 1075.44,-401.82 784.17,-168.59 783,-168 745.85,-149.32 700.18,-137.84 665.23,-131.15"/>
<polygon fill="midnightblue" stroke="midnightblue" points="665.68,-127.68 655.22,-129.31 664.42,-134.56 665.68,-127.68"/>
</g>
<!-- Node41&#45;&gt;Node18 -->
<g id="edge84" class="edge">
<title>Node41&#45;&gt;Node18</title>
<path fill="none" stroke="midnightblue" d="M876.86,-459.48C900.74,-448.36 935.01,-427.41 922,-403 914.45,-388.83 900.24,-378.33 886.84,-371.06"/>
<polygon fill="midnightblue" stroke="midnightblue" points="888.3,-367.87 877.79,-366.53 885.17,-374.13 888.3,-367.87"/>
</g>
<!-- Node41&#45;&gt;Node19 -->
<g id="edge80" class="edge">
<title>Node41&#45;&gt;Node19</title>
<path fill="none" stroke="midnightblue" d="M801.33,-459.48C771.6,-452.96 735.24,-441.78 707,-423 665.75,-395.57 632.66,-346.09 616.94,-319.7"/>
<polygon fill="midnightblue" stroke="midnightblue" points="619.83,-317.71 611.79,-310.81 613.77,-321.22 619.83,-317.71"/>
</g>
<!-- Node41&#45;&gt;Node28 -->
<g id="edge79" class="edge">
<title>Node41&#45;&gt;Node28</title>
<path fill="none" stroke="midnightblue" d="M876.04,-459.4C920.33,-439.46 1027.57,-386.02 1090,-311 1115.9,-279.88 1133.83,-260.82 1117,-224 1111.22,-211.36 1099.95,-200.91 1089.37,-193.27"/>
<polygon fill="midnightblue" stroke="midnightblue" points="1091.04,-190.18 1080.78,-187.53 1087.15,-196 1091.04,-190.18"/>
</g>
<!-- Node42 -->
<g id="node42" class="node">
<title>Node42</title>
<g id="a_node42"><a xlink:href="sitkEvent_8h.html" target="_top" xlink:title=" ">
<polygon fill="white" stroke="black" points="744.5,-230 744.5,-249 815.5,-249 815.5,-230 744.5,-230"/>
<text text-anchor="middle" x="780" y="-237" font-family="Helvetica,sans-Serif" font-size="10.00">sitkEvent.h</text>
</a>
</g>
</g>
<!-- Node41&#45;&gt;Node42 -->
<g id="edge81" class="edge">
<title>Node41&#45;&gt;Node42</title>
<path fill="none" stroke="midnightblue" d="M799.25,-460C776.94,-453.77 753.48,-442.7 740,-423 704.16,-370.65 746.44,-291.75 768.39,-257.44"/>
<polygon fill="midnightblue" stroke="midnightblue" points="771.37,-259.27 773.96,-249 765.53,-255.42 771.37,-259.27"/>
</g>
<!-- Node43 -->
<g id="node43" class="node">
<title>Node43</title>
<g id="a_node43"><a xlink:href="sitkImageConvert_8h.html" target="_top" xlink:title=" ">
<polygon fill="white" stroke="black" points="799.5,-403.5 799.5,-422.5 912.5,-422.5 912.5,-403.5 799.5,-403.5"/>
<text text-anchor="middle" x="856" y="-410.5" font-family="Helvetica,sans-Serif" font-size="10.00">sitkImageConvert.h</text>
</a>
</g>
</g>
<!-- Node41&#45;&gt;Node43 -->
<g id="edge85" class="edge">
<title>Node41&#45;&gt;Node43</title>
<path fill="none" stroke="midnightblue" d="M856,-459.08C856,-452.01 856,-441.86 856,-432.99"/>
<polygon fill="midnightblue" stroke="midnightblue" points="859.5,-432.75 856,-422.75 852.5,-432.75 859.5,-432.75"/>
</g>
<!-- Node44 -->
<g id="node44" class="node">
<title>Node44</title>
<g id="a_node44"><a xlink:title=" ">
<polygon fill="white" stroke="#bfbfbf" points="1007,-403.5 1007,-422.5 1067,-422.5 1067,-403.5 1007,-403.5"/>
<text text-anchor="middle" x="1037" y="-410.5" font-family="Helvetica,sans-Serif" font-size="10.00">iostream</text>
</a>
</g>
</g>
<!-- Node41&#45;&gt;Node44 -->
<g id="edge87" class="edge">
<title>Node41&#45;&gt;Node44</title>
<path fill="none" stroke="midnightblue" d="M884.68,-459.44C915.53,-450.24 964.73,-435.56 998.83,-425.39"/>
<polygon fill="midnightblue" stroke="midnightblue" points="999.87,-428.73 1008.45,-422.52 997.87,-422.02 999.87,-428.73"/>
</g>
<!-- Node45 -->
<g id="node45" class="node">
<title>Node45</title>
<g id="a_node45"><a xlink:title=" ">
<polygon fill="white" stroke="#bfbfbf" points="749,-403.5 749,-422.5 781,-422.5 781,-403.5 749,-403.5"/>
<text text-anchor="middle" x="765" y="-410.5" font-family="Helvetica,sans-Serif" font-size="10.00">list</text>
</a>
</g>
</g>
<!-- Node41&#45;&gt;Node45 -->
<g id="edge88" class="edge">
<title>Node41&#45;&gt;Node45</title>
<path fill="none" stroke="midnightblue" d="M841.38,-459.32C827.05,-450.82 804.99,-437.73 788.25,-427.8"/>
<polygon fill="midnightblue" stroke="midnightblue" points="789.97,-424.75 779.58,-422.65 786.4,-430.77 789.97,-424.75"/>
</g>
<!-- Node42&#45;&gt;Node12 -->
<g id="edge82" class="edge">
<title>Node42&#45;&gt;Node12</title>
<path fill="none" stroke="midnightblue" d="M767.3,-229.82C738.55,-210.17 668.22,-162.11 632.53,-137.72"/>
<polygon fill="midnightblue" stroke="midnightblue" points="634.08,-134.53 623.85,-131.78 630.13,-140.31 634.08,-134.53"/>
</g>
<!-- Node42&#45;&gt;Node13 -->
<g id="edge83" class="edge">
<title>Node42&#45;&gt;Node13</title>
<path fill="none" stroke="midnightblue" d="M754.39,-229.92C748.08,-227.89 741.31,-225.8 735,-224 686.18,-210.08 629.28,-196.34 592.5,-187.77"/>
<polygon fill="midnightblue" stroke="midnightblue" points="593.22,-184.34 582.69,-185.5 591.64,-191.16 593.22,-184.34"/>
</g>
<!-- Node43&#45;&gt;Node18 -->
<g id="edge86" class="edge">
<title>Node43&#45;&gt;Node18</title>
<path fill="none" stroke="midnightblue" d="M855.83,-403.08C855.7,-396.01 855.52,-385.86 855.35,-376.99"/>
<polygon fill="midnightblue" stroke="midnightblue" points="858.85,-376.68 855.16,-366.75 851.85,-376.81 858.85,-376.68"/>
</g>
</g>
</svg>
