<?xml version="1.0" encoding="UTF-8" standalone="no"?>
<!DOCTYPE svg PUBLIC "-//W3C//DTD SVG 1.1//EN"
 "http://www.w3.org/Graphics/SVG/1.1/DTD/svg11.dtd">
<!-- Generated by graphviz version 2.43.0 (0)
 -->
<!-- Title: sitkTransform.h Pages: 1 -->
<svg width="1678pt" height="423pt"
 viewBox="0.00 0.00 1677.76 423.00" xmlns="http://www.w3.org/2000/svg" xmlns:xlink="http://www.w3.org/1999/xlink">
<g id="graph0" class="graph" transform="scale(1 1) rotate(0) translate(4 419)">
<title>sitkTransform.h</title>
<!-- Node1 -->
<g id="Node000001" class="node">
<title>Node1</title>
<g id="a_Node000001"><a xlink:title=" ">
<polygon fill="#999999" stroke="#666666" points="633,-415 541,-415 541,-396 633,-396 633,-415"/>
<text text-anchor="middle" x="587" y="-403" font-family="Helvetica,sans-Serif" font-size="10.00">sitkTransform.h</text>
</a>
</g>
</g>
<!-- Node2 -->
<g id="Node000002" class="node">
<title>Node2</title>
<g id="a_Node000002"><a xlink:href="sitkCommon_8h.html" target="_top" xlink:title=" ">
<polygon fill="white" stroke="#666666" points="665,-129 577,-129 577,-110 665,-110 665,-129"/>
<text text-anchor="middle" x="621" y="-117" font-family="Helvetica,sans-Serif" font-size="10.00">sitkCommon.h</text>
</a>
</g>
</g>
<!-- Node1&#45;&gt;Node2 -->
<g id="edge1_Node000001_Node000002" class="edge">
<title>Node1&#45;&gt;Node2</title>
<g id="a_edge1_Node000001_Node000002"><a xlink:title=" ">
<path fill="none" stroke="#63b8ff" d="M626.41,-395.95C670.72,-384.01 740.57,-357.59 772,-305 814.06,-234.61 700.6,-162.68 647.13,-133.74"/>
<polygon fill="#63b8ff" stroke="#63b8ff" points="648.67,-130.59 638.19,-129 645.39,-136.78 648.67,-130.59"/>
</a>
</g>
</g>
<!-- Node10 -->
<g id="Node000010" class="node">
<title>Node10</title>
<g id="a_Node000010"><a xlink:href="sitkExceptionObject_8h.html" target="_top" xlink:title=" ">
<polygon fill="white" stroke="#666666" points="166.5,-244.5 43.5,-244.5 43.5,-225.5 166.5,-225.5 166.5,-244.5"/>
<text text-anchor="middle" x="105" y="-232.5" font-family="Helvetica,sans-Serif" font-size="10.00">sitkExceptionObject.h</text>
</a>
</g>
</g>
<!-- Node1&#45;&gt;Node10 -->
<g id="edge9_Node000001_Node000010" class="edge">
<title>Node1&#45;&gt;Node10</title>
<g id="a_edge9_Node000001_Node000010"><a xlink:title=" ">
<path fill="none" stroke="#63b8ff" d="M545.41,-395.94C478.24,-381.43 342.35,-349.21 233,-305 194.4,-289.39 152.41,-265.26 127.42,-250.06"/>
<polygon fill="#63b8ff" stroke="#63b8ff" points="129.06,-246.96 118.71,-244.71 125.4,-252.93 129.06,-246.96"/>
</a>
</g>
</g>
<!-- Node12 -->
<g id="Node000012" class="node">
<title>Node12</title>
<g id="a_Node000012"><a xlink:href="sitkImage_8h.html" target="_top" xlink:title=" ">
<polygon fill="white" stroke="#666666" points="559,-360 485,-360 485,-341 559,-341 559,-360"/>
<text text-anchor="middle" x="522" y="-348" font-family="Helvetica,sans-Serif" font-size="10.00">sitkImage.h</text>
</a>
</g>
</g>
<!-- Node1&#45;&gt;Node12 -->
<g id="edge13_Node000001_Node000012" class="edge">
<title>Node1&#45;&gt;Node12</title>
<g id="a_edge13_Node000001_Node000012"><a xlink:title=" ">
<path fill="none" stroke="#63b8ff" d="M576.56,-395.98C566.85,-388.07 552.18,-376.11 540.5,-366.58"/>
<polygon fill="#63b8ff" stroke="#63b8ff" points="542.6,-363.78 532.63,-360.17 538.17,-369.2 542.6,-363.78"/>
</a>
</g>
</g>
<!-- Node14 -->
<g id="Node000014" class="node">
<title>Node14</title>
<g id="a_Node000014"><a xlink:title=" ">
<polygon fill="#e0e0e0" stroke="#999999" points="637.5,-244.5 590.5,-244.5 590.5,-225.5 637.5,-225.5 637.5,-244.5"/>
<text text-anchor="middle" x="614" y="-232.5" font-family="Helvetica,sans-Serif" font-size="10.00">vector</text>
</a>
</g>
</g>
<!-- Node1&#45;&gt;Node14 -->
<g id="edge58_Node000001_Node000014" class="edge">
<title>Node1&#45;&gt;Node14</title>
<g id="a_edge58_Node000001_Node000014"><a xlink:title=" ">
<path fill="none" stroke="#63b8ff" d="M588.38,-395.91C592.55,-369.89 605.11,-291.47 610.95,-255.01"/>
<polygon fill="#63b8ff" stroke="#63b8ff" points="614.47,-255.2 612.59,-244.77 607.56,-254.09 614.47,-255.2"/>
</a>
</g>
</g>
<!-- Node34 -->
<g id="Node000034" class="node">
<title>Node34</title>
<g id="a_Node000034"><a xlink:href="sitkPathType_8h.html" target="_top" xlink:title=" ">
<polygon fill="white" stroke="#666666" points="953.5,-360 866.5,-360 866.5,-341 953.5,-341 953.5,-360"/>
<text text-anchor="middle" x="910" y="-348" font-family="Helvetica,sans-Serif" font-size="10.00">sitkPathType.h</text>
</a>
</g>
</g>
<!-- Node1&#45;&gt;Node34 -->
<g id="edge56_Node000001_Node000034" class="edge">
<title>Node1&#45;&gt;Node34</title>
<g id="a_edge56_Node000001_Node000034"><a xlink:title=" ">
<path fill="none" stroke="#63b8ff" d="M633.28,-396.91C692.27,-387.23 794.05,-370.53 856.37,-360.3"/>
<polygon fill="#63b8ff" stroke="#63b8ff" points="857.09,-363.73 866.39,-358.66 855.96,-356.82 857.09,-363.73"/>
</a>
</g>
</g>
<!-- Node3 -->
<g id="Node000003" class="node">
<title>Node3</title>
<g id="a_Node000003"><a xlink:href="sitkMacro_8h.html" target="_top" xlink:title=" ">
<polygon fill="white" stroke="#666666" points="819,-74 745,-74 745,-55 819,-55 819,-74"/>
<text text-anchor="middle" x="782" y="-62" font-family="Helvetica,sans-Serif" font-size="10.00">sitkMacro.h</text>
</a>
</g>
</g>
<!-- Node2&#45;&gt;Node3 -->
<g id="edge2_Node000002_Node000003" class="edge">
<title>Node2&#45;&gt;Node3</title>
<g id="a_edge2_Node000002_Node000003"><a xlink:title=" ">
<path fill="none" stroke="#63b8ff" d="M646.87,-109.98C673.78,-101.13 716.12,-87.19 746.23,-77.28"/>
<polygon fill="#63b8ff" stroke="#63b8ff" points="747.53,-80.53 755.93,-74.08 745.34,-73.88 747.53,-80.53"/>
</a>
</g>
</g>
<!-- Node4 -->
<g id="Node000004" class="node">
<title>Node4</title>
<g id="a_Node000004"><a xlink:title=" ">
<polygon fill="#e0e0e0" stroke="#999999" points="997.5,-19 944.5,-19 944.5,0 997.5,0 997.5,-19"/>
<text text-anchor="middle" x="971" y="-7" font-family="Helvetica,sans-Serif" font-size="10.00">stdint.h</text>
</a>
</g>
</g>
<!-- Node3&#45;&gt;Node4 -->
<g id="edge3_Node000003_Node000004" class="edge">
<title>Node3&#45;&gt;Node4</title>
<g id="a_edge3_Node000003_Node000004"><a xlink:title=" ">
<path fill="none" stroke="#63b8ff" d="M812.37,-54.98C845.61,-45.66 898.89,-30.72 934.41,-20.76"/>
<polygon fill="#63b8ff" stroke="#63b8ff" points="935.69,-24.04 944.37,-17.97 933.8,-17.3 935.69,-24.04"/>
</a>
</g>
</g>
<!-- Node5 -->
<g id="Node000005" class="node">
<title>Node5</title>
<g id="a_Node000005"><a xlink:title=" ">
<polygon fill="#e0e0e0" stroke="#999999" points="912,-19 856,-19 856,0 912,0 912,-19"/>
<text text-anchor="middle" x="884" y="-7" font-family="Helvetica,sans-Serif" font-size="10.00">stddef.h</text>
</a>
</g>
</g>
<!-- Node3&#45;&gt;Node5 -->
<g id="edge4_Node000003_Node000005" class="edge">
<title>Node3&#45;&gt;Node5</title>
<g id="a_edge4_Node000003_Node000005"><a xlink:title=" ">
<path fill="none" stroke="#63b8ff" d="M798.39,-54.98C814.57,-46.57 839.57,-33.59 858.38,-23.81"/>
<polygon fill="#63b8ff" stroke="#63b8ff" points="860.05,-26.89 867.31,-19.17 856.83,-20.68 860.05,-26.89"/>
</a>
</g>
</g>
<!-- Node6 -->
<g id="Node000006" class="node">
<title>Node6</title>
<g id="a_Node000006"><a xlink:title=" ">
<polygon fill="#e0e0e0" stroke="#999999" points="702,-19 650,-19 650,0 702,0 702,-19"/>
<text text-anchor="middle" x="676" y="-7" font-family="Helvetica,sans-Serif" font-size="10.00">cassert</text>
</a>
</g>
</g>
<!-- Node3&#45;&gt;Node6 -->
<g id="edge5_Node000003_Node000006" class="edge">
<title>Node3&#45;&gt;Node6</title>
<g id="a_edge5_Node000003_Node000006"><a xlink:title=" ">
<path fill="none" stroke="#63b8ff" d="M764.97,-54.98C748.07,-46.54 721.94,-33.47 702.36,-23.68"/>
<polygon fill="#63b8ff" stroke="#63b8ff" points="703.85,-20.51 693.34,-19.17 700.72,-26.77 703.85,-20.51"/>
</a>
</g>
</g>
<!-- Node7 -->
<g id="Node000007" class="node">
<title>Node7</title>
<g id="a_Node000007"><a xlink:title=" ">
<polygon fill="#e0e0e0" stroke="#999999" points="776,-19 720,-19 720,0 776,0 776,-19"/>
<text text-anchor="middle" x="748" y="-7" font-family="Helvetica,sans-Serif" font-size="10.00">sstream</text>
</a>
</g>
</g>
<!-- Node3&#45;&gt;Node7 -->
<g id="edge6_Node000003_Node000007" class="edge">
<title>Node3&#45;&gt;Node7</title>
<g id="a_edge6_Node000003_Node000007"><a xlink:title=" ">
<path fill="none" stroke="#63b8ff" d="M776.39,-54.75C771.68,-47.42 764.83,-36.73 759.03,-27.7"/>
<polygon fill="#63b8ff" stroke="#63b8ff" points="761.86,-25.62 753.51,-19.09 755.96,-29.4 761.86,-25.62"/>
</a>
</g>
</g>
<!-- Node8 -->
<g id="Node000008" class="node">
<title>Node8</title>
<g id="a_Node000008"><a xlink:title=" ">
<polygon fill="#e0e0e0" stroke="#999999" points="838,-19 794,-19 794,0 838,0 838,-19"/>
<text text-anchor="middle" x="816" y="-7" font-family="Helvetica,sans-Serif" font-size="10.00">limits</text>
</a>
</g>
</g>
<!-- Node3&#45;&gt;Node8 -->
<g id="edge7_Node000003_Node000008" class="edge">
<title>Node3&#45;&gt;Node8</title>
<g id="a_edge7_Node000003_Node000008"><a xlink:title=" ">
<path fill="none" stroke="#63b8ff" d="M787.61,-54.75C792.32,-47.42 799.17,-36.73 804.97,-27.7"/>
<polygon fill="#63b8ff" stroke="#63b8ff" points="808.04,-29.4 810.49,-19.09 802.14,-25.62 808.04,-29.4"/>
</a>
</g>
</g>
<!-- Node9 -->
<g id="Node000009" class="node">
<title>Node9</title>
<g id="a_Node000009"><a xlink:href="sitkConfigure_8h.html" target="_top" xlink:title=" ">
<polygon fill="white" stroke="#666666" points="1138,-19 1048,-19 1048,0 1138,0 1138,-19"/>
<text text-anchor="middle" x="1093" y="-7" font-family="Helvetica,sans-Serif" font-size="10.00">sitkConfigure.h</text>
</a>
</g>
</g>
<!-- Node3&#45;&gt;Node9 -->
<g id="edge8_Node000003_Node000009" class="edge">
<title>Node3&#45;&gt;Node9</title>
<g id="a_edge8_Node000003_Node000009"><a xlink:title=" ">
<path fill="none" stroke="#63b8ff" d="M819.2,-57.16C873.5,-47.91 974.82,-30.64 1037.81,-19.91"/>
<polygon fill="#63b8ff" stroke="#63b8ff" points="1038.69,-23.31 1047.96,-18.18 1037.52,-16.41 1038.69,-23.31"/>
</a>
</g>
</g>
<!-- Node10&#45;&gt;Node2 -->
<g id="edge11_Node000010_Node000002" class="edge">
<title>Node10&#45;&gt;Node2</title>
<g id="a_edge11_Node000010_Node000002"><a xlink:title=" ">
<path fill="none" stroke="#63b8ff" d="M132.4,-225.39C178,-211.28 272.53,-183.02 354,-165 427.06,-148.83 512.54,-135.56 566.71,-127.84"/>
<polygon fill="#63b8ff" stroke="#63b8ff" points="567.38,-131.28 576.79,-126.41 566.4,-124.35 567.38,-131.28"/>
</a>
</g>
</g>
<!-- Node10&#45;&gt;Node3 -->
<g id="edge10_Node000010_Node000003" class="edge">
<title>Node10&#45;&gt;Node3</title>
<g id="a_edge10_Node000010_Node000003"><a xlink:title=" ">
<path fill="none" stroke="#63b8ff" d="M107.28,-225.44C114.01,-202.11 136.16,-137.34 181,-110 227.81,-81.47 600.76,-69.83 734.49,-66.54"/>
<polygon fill="#63b8ff" stroke="#63b8ff" points="734.9,-70.04 744.82,-66.3 734.74,-63.04 734.9,-70.04"/>
</a>
</g>
</g>
<!-- Node11 -->
<g id="Node000011" class="node">
<title>Node11</title>
<g id="a_Node000011"><a xlink:title=" ">
<polygon fill="#e0e0e0" stroke="#999999" points="58,-184 0,-184 0,-165 58,-165 58,-184"/>
<text text-anchor="middle" x="29" y="-172" font-family="Helvetica,sans-Serif" font-size="10.00">memory</text>
</a>
</g>
</g>
<!-- Node10&#45;&gt;Node11 -->
<g id="edge12_Node000010_Node000011" class="edge">
<title>Node10&#45;&gt;Node11</title>
<g id="a_edge12_Node000010_Node000011"><a xlink:title=" ">
<path fill="none" stroke="#63b8ff" d="M93.79,-225.37C81.89,-216.21 62.86,-201.56 48.49,-190.51"/>
<polygon fill="#63b8ff" stroke="#63b8ff" points="50.32,-187.49 40.26,-184.17 46.05,-193.04 50.32,-187.49"/>
</a>
</g>
</g>
<!-- Node12&#45;&gt;Node2 -->
<g id="edge14_Node000012_Node000002" class="edge">
<title>Node12&#45;&gt;Node2</title>
<g id="a_edge14_Node000012_Node000002"><a xlink:title=" ">
<path fill="none" stroke="#63b8ff" d="M514.69,-340.93C501.29,-324.56 473.2,-287.19 463,-250 452.68,-212.37 456.53,-191.69 485,-165 507.27,-144.11 539.51,-133.03 567,-127.14"/>
<polygon fill="#63b8ff" stroke="#63b8ff" points="567.75,-130.56 576.89,-125.2 566.41,-123.69 567.75,-130.56"/>
</a>
</g>
</g>
<!-- Node12&#45;&gt;Node11 -->
<g id="edge54_Node000012_Node000011" class="edge">
<title>Node12&#45;&gt;Node11</title>
<g id="a_edge54_Node000012_Node000011"><a xlink:title=" ">
<path fill="none" stroke="#63b8ff" d="M484.84,-347.77C380.92,-342.08 91.17,-320.11 34,-250 21.49,-234.65 22.13,-211.1 24.68,-194.59"/>
<polygon fill="#63b8ff" stroke="#63b8ff" points="28.17,-194.96 26.61,-184.48 21.3,-193.64 28.17,-194.96"/>
</a>
</g>
</g>
<!-- Node13 -->
<g id="Node000013" class="node">
<title>Node13</title>
<g id="a_Node000013"><a xlink:href="sitkTemplateFunctions_8h.html" target="_top" xlink:title=" ">
<polygon fill="white" stroke="#666666" points="377.5,-305 242.5,-305 242.5,-286 377.5,-286 377.5,-305"/>
<text text-anchor="middle" x="310" y="-293" font-family="Helvetica,sans-Serif" font-size="10.00">sitkTemplateFunctions.h</text>
</a>
</g>
</g>
<!-- Node12&#45;&gt;Node13 -->
<g id="edge15_Node000012_Node000013" class="edge">
<title>Node12&#45;&gt;Node13</title>
<g id="a_edge15_Node000012_Node000013"><a xlink:title=" ">
<path fill="none" stroke="#63b8ff" d="M487.94,-340.98C451.58,-331.89 393.83,-317.46 354.03,-307.51"/>
<polygon fill="#63b8ff" stroke="#63b8ff" points="354.88,-304.11 344.33,-305.08 353.18,-310.9 354.88,-304.11"/>
</a>
</g>
</g>
<!-- Node12&#45;&gt;Node14 -->
<g id="edge53_Node000012_Node000014" class="edge">
<title>Node12&#45;&gt;Node14</title>
<g id="a_edge53_Node000012_Node000014"><a xlink:title=" ">
<path fill="none" stroke="#63b8ff" d="M528.9,-340.85C538.68,-328.61 557.14,-305.54 573,-286 581.99,-274.92 592.16,-262.52 600.12,-252.84"/>
<polygon fill="#63b8ff" stroke="#63b8ff" points="603.06,-254.77 606.71,-244.83 597.66,-250.33 603.06,-254.77"/>
</a>
</g>
</g>
<!-- Node18 -->
<g id="Node000018" class="node">
<title>Node18</title>
<g id="a_Node000018"><a xlink:href="sitkDetail_8h.html" target="_top" xlink:title=" ">
<polygon fill="white" stroke="#666666" points="1058.5,-305 985.5,-305 985.5,-286 1058.5,-286 1058.5,-305"/>
<text text-anchor="middle" x="1022" y="-293" font-family="Helvetica,sans-Serif" font-size="10.00">sitkDetail.h</text>
</a>
</g>
</g>
<!-- Node12&#45;&gt;Node18 -->
<g id="edge23_Node000012_Node000018" class="edge">
<title>Node12&#45;&gt;Node18</title>
<g id="a_edge23_Node000012_Node000018"><a xlink:title=" ">
<path fill="none" stroke="#63b8ff" d="M559.17,-345.56C648.79,-336.06 876.63,-311.91 975.28,-301.45"/>
<polygon fill="#63b8ff" stroke="#63b8ff" points="975.69,-304.93 985.26,-300.39 974.95,-297.97 975.69,-304.93"/>
</a>
</g>
</g>
<!-- Node29 -->
<g id="Node000029" class="node">
<title>Node29</title>
<g id="a_Node000029"><a xlink:href="sitkPixelIDTokens_8h.html" target="_top" xlink:title=" ">
<polygon fill="white" stroke="#666666" points="763,-305 653,-305 653,-286 763,-286 763,-305"/>
<text text-anchor="middle" x="708" y="-293" font-family="Helvetica,sans-Serif" font-size="10.00">sitkPixelIDTokens.h</text>
</a>
</g>
</g>
<!-- Node12&#45;&gt;Node29 -->
<g id="edge42_Node000012_Node000029" class="edge">
<title>Node12&#45;&gt;Node29</title>
<g id="a_edge42_Node000012_Node000029"><a xlink:title=" ">
<path fill="none" stroke="#63b8ff" d="M551.88,-340.98C583.38,-332.01 633.17,-317.82 668.03,-307.89"/>
<polygon fill="#63b8ff" stroke="#63b8ff" points="669.22,-311.19 677.88,-305.08 667.31,-304.46 669.22,-311.19"/>
</a>
</g>
</g>
<!-- Node32 -->
<g id="Node000032" class="node">
<title>Node32</title>
<g id="a_Node000032"><a xlink:title=" ">
<polygon fill="#e0e0e0" stroke="#999999" points="724.5,-244.5 655.5,-244.5 655.5,-225.5 724.5,-225.5 724.5,-244.5"/>
<text text-anchor="middle" x="690" y="-232.5" font-family="Helvetica,sans-Serif" font-size="10.00">type_traits</text>
</a>
</g>
</g>
<!-- Node12&#45;&gt;Node32 -->
<g id="edge55_Node000012_Node000032" class="edge">
<title>Node12&#45;&gt;Node32</title>
<g id="a_edge55_Node000012_Node000032"><a xlink:title=" ">
<path fill="none" stroke="#63b8ff" d="M534.63,-340.97C563.21,-321.66 633.11,-274.43 668.59,-250.46"/>
<polygon fill="#63b8ff" stroke="#63b8ff" points="670.9,-253.13 677.23,-244.63 666.98,-247.33 670.9,-253.13"/>
</a>
</g>
</g>
<!-- Node33 -->
<g id="Node000033" class="node">
<title>Node33</title>
<g id="a_Node000033"><a xlink:href="sitkInterpolator_8h.html" target="_top" xlink:title=" ">
<polygon fill="white" stroke="#666666" points="572,-244.5 472,-244.5 472,-225.5 572,-225.5 572,-244.5"/>
<text text-anchor="middle" x="522" y="-232.5" font-family="Helvetica,sans-Serif" font-size="10.00">sitkInterpolator.h</text>
</a>
</g>
</g>
<!-- Node12&#45;&gt;Node33 -->
<g id="edge50_Node000012_Node000033" class="edge">
<title>Node12&#45;&gt;Node33</title>
<g id="a_edge50_Node000012_Node000033"><a xlink:title=" ">
<path fill="none" stroke="#63b8ff" d="M522,-340.97C522,-322.73 522,-279.57 522,-254.64"/>
<polygon fill="#63b8ff" stroke="#63b8ff" points="525.5,-254.63 522,-244.63 518.5,-254.63 525.5,-254.63"/>
</a>
</g>
</g>
<!-- Node13&#45;&gt;Node2 -->
<g id="edge17_Node000013_Node000002" class="edge">
<title>Node13&#45;&gt;Node2</title>
<g id="a_edge17_Node000013_Node000002"><a xlink:title=" ">
<path fill="none" stroke="#63b8ff" d="M318.5,-285.78C326.66,-277.15 339.04,-263.32 348,-250 371.75,-214.71 357.94,-190.49 392,-165 418.99,-144.8 507.75,-132.05 566.5,-125.61"/>
<polygon fill="#63b8ff" stroke="#63b8ff" points="567.17,-129.05 576.74,-124.51 566.43,-122.09 567.17,-129.05"/>
</a>
</g>
</g>
<!-- Node13&#45;&gt;Node3 -->
<g id="edge16_Node000013_Node000003" class="edge">
<title>Node13&#45;&gt;Node3</title>
<g id="a_edge16_Node000013_Node000003"><a xlink:title=" ">
<path fill="none" stroke="#63b8ff" d="M267.55,-285.9C247.7,-279.52 225.87,-268.58 214,-250 206.82,-238.76 206.29,-230.88 214,-220 275.24,-133.65 609.36,-85.88 734.58,-70.79"/>
<polygon fill="#63b8ff" stroke="#63b8ff" points="735.12,-74.25 744.64,-69.6 734.29,-67.3 735.12,-74.25"/>
</a>
</g>
</g>
<!-- Node13&#45;&gt;Node10 -->
<g id="edge18_Node000013_Node000010" class="edge">
<title>Node13&#45;&gt;Node10</title>
<g id="a_edge18_Node000013_Node000010"><a xlink:title=" ">
<path fill="none" stroke="#63b8ff" d="M280.19,-285.99C244.44,-275.79 184.37,-258.65 144.71,-247.33"/>
<polygon fill="#63b8ff" stroke="#63b8ff" points="145.42,-243.9 134.84,-244.52 143.5,-250.63 145.42,-243.9"/>
</a>
</g>
</g>
<!-- Node13&#45;&gt;Node14 -->
<g id="edge19_Node000013_Node000014" class="edge">
<title>Node13&#45;&gt;Node14</title>
<g id="a_edge19_Node000013_Node000014"><a xlink:title=" ">
<path fill="none" stroke="#63b8ff" d="M377.53,-287.94C432.97,-281.48 513.11,-269.67 581,-250 582.68,-249.51 584.4,-248.96 586.12,-248.37"/>
<polygon fill="#63b8ff" stroke="#63b8ff" points="587.71,-251.51 595.78,-244.64 585.19,-244.97 587.71,-251.51"/>
</a>
</g>
</g>
<!-- Node15 -->
<g id="Node000015" class="node">
<title>Node15</title>
<g id="a_Node000015"><a xlink:title=" ">
<polygon fill="#e0e0e0" stroke="#999999" points="550.5,-184 493.5,-184 493.5,-165 550.5,-165 550.5,-184"/>
<text text-anchor="middle" x="522" y="-172" font-family="Helvetica,sans-Serif" font-size="10.00">ostream</text>
</a>
</g>
</g>
<!-- Node13&#45;&gt;Node15 -->
<g id="edge20_Node000013_Node000015" class="edge">
<title>Node13&#45;&gt;Node15</title>
<g id="a_edge20_Node000013_Node000015"><a xlink:title=" ">
<path fill="none" stroke="#63b8ff" d="M325.25,-285.94C361.6,-265.54 453.62,-213.88 497.72,-189.13"/>
<polygon fill="#63b8ff" stroke="#63b8ff" points="499.6,-192.09 506.61,-184.14 496.17,-185.98 499.6,-192.09"/>
</a>
</g>
</g>
<!-- Node16 -->
<g id="Node000016" class="node">
<title>Node16</title>
<g id="a_Node000016"><a xlink:title=" ">
<polygon fill="#e0e0e0" stroke="#999999" points="276.5,-244.5 223.5,-244.5 223.5,-225.5 276.5,-225.5 276.5,-244.5"/>
<text text-anchor="middle" x="250" y="-232.5" font-family="Helvetica,sans-Serif" font-size="10.00">iterator</text>
</a>
</g>
</g>
<!-- Node13&#45;&gt;Node16 -->
<g id="edge21_Node000013_Node000016" class="edge">
<title>Node13&#45;&gt;Node16</title>
<g id="a_edge21_Node000013_Node000016"><a xlink:title=" ">
<path fill="none" stroke="#63b8ff" d="M301.15,-285.87C292.02,-276.97 277.58,-262.89 266.36,-251.95"/>
<polygon fill="#63b8ff" stroke="#63b8ff" points="268.49,-249.14 258.89,-244.67 263.61,-254.15 268.49,-249.14"/>
</a>
</g>
</g>
<!-- Node17 -->
<g id="Node000017" class="node">
<title>Node17</title>
<g id="a_Node000017"><a xlink:title=" ">
<polygon fill="#e0e0e0" stroke="#999999" points="339.5,-244.5 294.5,-244.5 294.5,-225.5 339.5,-225.5 339.5,-244.5"/>
<text text-anchor="middle" x="317" y="-232.5" font-family="Helvetica,sans-Serif" font-size="10.00">utility</text>
</a>
</g>
</g>
<!-- Node13&#45;&gt;Node17 -->
<g id="edge22_Node000013_Node000017" class="edge">
<title>Node13&#45;&gt;Node17</title>
<g id="a_edge22_Node000013_Node000017"><a xlink:title=" ">
<path fill="none" stroke="#63b8ff" d="M311.03,-285.87C312,-277.75 313.49,-265.31 314.74,-254.89"/>
<polygon fill="#63b8ff" stroke="#63b8ff" points="318.25,-255.01 315.96,-244.67 311.3,-254.18 318.25,-255.01"/>
</a>
</g>
</g>
<!-- Node19 -->
<g id="Node000019" class="node">
<title>Node19</title>
<g id="a_Node000019"><a xlink:href="sitkMemberFunctionFactoryBase_8h.html" target="_top" xlink:title=" ">
<polygon fill="white" stroke="#666666" points="1453,-250 1301,-250 1301,-220 1453,-220 1453,-250"/>
<text text-anchor="start" x="1309" y="-238" font-family="Helvetica,sans-Serif" font-size="10.00">sitkMemberFunctionFactory</text>
<text text-anchor="middle" x="1377" y="-227" font-family="Helvetica,sans-Serif" font-size="10.00">Base.h</text>
</a>
</g>
</g>
<!-- Node18&#45;&gt;Node19 -->
<g id="edge24_Node000018_Node000019" class="edge">
<title>Node18&#45;&gt;Node19</title>
<g id="a_edge24_Node000018_Node000019"><a xlink:title=" ">
<path fill="none" stroke="#63b8ff" d="M1058.65,-288.46C1112.97,-279.51 1216.38,-262.47 1290.61,-250.24"/>
<polygon fill="#63b8ff" stroke="#63b8ff" points="1291.59,-253.62 1300.89,-248.54 1290.45,-246.72 1291.59,-253.62"/>
</a>
</g>
</g>
<!-- Node25 -->
<g id="Node000025" class="node">
<title>Node25</title>
<g id="a_Node000025"><a xlink:title=" ">
<polygon fill="#e0e0e0" stroke="#999999" points="1020.5,-184 881.5,-184 881.5,-165 1020.5,-165 1020.5,-184"/>
<text text-anchor="middle" x="951" y="-172" font-family="Helvetica,sans-Serif" font-size="10.00">Ancillary/FunctionTraits.h</text>
</a>
</g>
</g>
<!-- Node18&#45;&gt;Node25 -->
<g id="edge41_Node000018_Node000025" class="edge">
<title>Node18&#45;&gt;Node25</title>
<g id="a_edge41_Node000018_Node000025"><a xlink:title=" ">
<path fill="none" stroke="#63b8ff" d="M1016.89,-285.94C1005.33,-266.57 976.97,-219.02 961.49,-193.08"/>
<polygon fill="#63b8ff" stroke="#63b8ff" points="964.38,-191.1 956.25,-184.3 958.37,-194.68 964.38,-191.1"/>
</a>
</g>
</g>
<!-- Node19&#45;&gt;Node3 -->
<g id="edge33_Node000019_Node000003" class="edge">
<title>Node19&#45;&gt;Node3</title>
<g id="a_edge33_Node000019_Node000003"><a xlink:title=" ">
<path fill="none" stroke="#63b8ff" d="M1314.12,-219.95C1278.6,-211.21 1233.71,-198.83 1195,-184 1177.37,-177.24 1174.66,-171.68 1157,-165 1042.45,-121.69 901.47,-89.71 829.37,-74.81"/>
<polygon fill="#63b8ff" stroke="#63b8ff" points="829.74,-71.32 819.24,-72.74 828.34,-78.18 829.74,-71.32"/>
</a>
</g>
</g>
<!-- Node19&#45;&gt;Node9 -->
<g id="edge25_Node000019_Node000009" class="edge">
<title>Node19&#45;&gt;Node9</title>
<g id="a_edge25_Node000019_Node000009"><a xlink:title=" ">
<path fill="none" stroke="#63b8ff" d="M1453.13,-231.57C1529.42,-227.34 1639.27,-215.75 1666,-184 1671.44,-177.54 1670.15,-172.36 1666,-165 1614.38,-73.49 1281.37,-29.73 1148.05,-15.72"/>
<polygon fill="#63b8ff" stroke="#63b8ff" points="1148.36,-12.23 1138.05,-14.68 1147.64,-19.19 1148.36,-12.23"/>
</a>
</g>
</g>
<!-- Node20 -->
<g id="Node000020" class="node">
<title>Node20</title>
<g id="a_Node000020"><a xlink:href="sitkPixelIDTypes_8h.html" target="_top" xlink:title=" ">
<polygon fill="white" stroke="#666666" points="1413.5,-129 1308.5,-129 1308.5,-110 1413.5,-110 1413.5,-129"/>
<text text-anchor="middle" x="1361" y="-117" font-family="Helvetica,sans-Serif" font-size="10.00">sitkPixelIDTypes.h</text>
</a>
</g>
</g>
<!-- Node19&#45;&gt;Node20 -->
<g id="edge26_Node000019_Node000020" class="edge">
<title>Node19&#45;&gt;Node20</title>
<g id="a_edge26_Node000019_Node000020"><a xlink:title=" ">
<path fill="none" stroke="#63b8ff" d="M1429.43,-219.91C1462.17,-208.34 1495.12,-189.83 1478,-165 1465.43,-146.77 1444.34,-136.01 1423.5,-129.65"/>
<polygon fill="#63b8ff" stroke="#63b8ff" points="1424.22,-126.22 1413.65,-126.95 1422.37,-132.97 1424.22,-126.22"/>
</a>
</g>
</g>
<!-- Node21 -->
<g id="Node000021" class="node">
<title>Node21</title>
<g id="a_Node000021"><a xlink:href="sitkPixelIDTypeLists_8h.html" target="_top" xlink:title=" ">
<polygon fill="white" stroke="#666666" points="1326,-184 1204,-184 1204,-165 1326,-165 1326,-184"/>
<text text-anchor="middle" x="1265" y="-172" font-family="Helvetica,sans-Serif" font-size="10.00">sitkPixelIDTypeLists.h</text>
</a>
</g>
</g>
<!-- Node19&#45;&gt;Node21 -->
<g id="edge27_Node000019_Node000021" class="edge">
<title>Node19&#45;&gt;Node21</title>
<g id="a_edge27_Node000019_Node000021"><a xlink:title=" ">
<path fill="none" stroke="#63b8ff" d="M1350.17,-219.99C1332.15,-210.58 1308.54,-198.24 1290.75,-188.95"/>
<polygon fill="#63b8ff" stroke="#63b8ff" points="1292.02,-185.67 1281.54,-184.14 1288.78,-191.87 1292.02,-185.67"/>
</a>
</g>
</g>
<!-- Node22 -->
<g id="Node000022" class="node">
<title>Node22</title>
<g id="a_Node000022"><a xlink:title=" ">
<polygon fill="#e0e0e0" stroke="#999999" points="1565.5,-129 1446.5,-129 1446.5,-110 1565.5,-110 1565.5,-129"/>
<text text-anchor="middle" x="1506" y="-117" font-family="Helvetica,sans-Serif" font-size="10.00">Ancillary/type_list2.h</text>
</a>
</g>
</g>
<!-- Node19&#45;&gt;Node22 -->
<g id="edge36_Node000019_Node000022" class="edge">
<title>Node19&#45;&gt;Node22</title>
<g id="a_edge36_Node000019_Node000022"><a xlink:title=" ">
<path fill="none" stroke="#63b8ff" d="M1439.28,-220C1459.49,-212.5 1480.23,-201.13 1494,-184 1503.99,-171.56 1506.59,-153.35 1506.92,-139.62"/>
<polygon fill="#63b8ff" stroke="#63b8ff" points="1510.41,-139.31 1506.78,-129.36 1503.42,-139.41 1510.41,-139.31"/>
</a>
</g>
</g>
<!-- Node24 -->
<g id="Node000024" class="node">
<title>Node24</title>
<g id="a_Node000024"><a xlink:href="sitkNonCopyable_8h.html" target="_top" xlink:title=" ">
<polygon fill="white" stroke="#666666" points="1147.5,-184 1038.5,-184 1038.5,-165 1147.5,-165 1147.5,-184"/>
<text text-anchor="middle" x="1093" y="-172" font-family="Helvetica,sans-Serif" font-size="10.00">sitkNonCopyable.h</text>
</a>
</g>
</g>
<!-- Node19&#45;&gt;Node24 -->
<g id="edge34_Node000019_Node000024" class="edge">
<title>Node19&#45;&gt;Node24</title>
<g id="a_edge34_Node000019_Node000024"><a xlink:title=" ">
<path fill="none" stroke="#63b8ff" d="M1308.97,-219.99C1258.48,-209.59 1190.66,-195.62 1144.59,-186.13"/>
<polygon fill="#63b8ff" stroke="#63b8ff" points="1145.03,-182.64 1134.53,-184.05 1143.61,-189.5 1145.03,-182.64"/>
</a>
</g>
</g>
<!-- Node19&#45;&gt;Node25 -->
<g id="edge37_Node000019_Node000025" class="edge">
<title>Node19&#45;&gt;Node25</title>
<g id="a_edge37_Node000019_Node000025"><a xlink:title=" ">
<path fill="none" stroke="#63b8ff" d="M1300.84,-223.54C1222.17,-212.74 1100.3,-196 1023.14,-185.41"/>
<polygon fill="#63b8ff" stroke="#63b8ff" points="1023.4,-181.91 1013.02,-184.02 1022.45,-188.84 1023.4,-181.91"/>
</a>
</g>
</g>
<!-- Node26 -->
<g id="Node000026" class="node">
<title>Node26</title>
<g id="a_Node000026"><a xlink:title=" ">
<polygon fill="#e0e0e0" stroke="#999999" points="1656.5,-184 1563.5,-184 1563.5,-165 1656.5,-165 1656.5,-184"/>
<text text-anchor="middle" x="1610" y="-172" font-family="Helvetica,sans-Serif" font-size="10.00">unordered_map</text>
</a>
</g>
</g>
<!-- Node19&#45;&gt;Node26 -->
<g id="edge38_Node000019_Node000026" class="edge">
<title>Node19&#45;&gt;Node26</title>
<g id="a_edge38_Node000019_Node000026"><a xlink:title=" ">
<path fill="none" stroke="#63b8ff" d="M1432.81,-219.99C1473.54,-209.76 1528.01,-196.09 1565.75,-186.61"/>
<polygon fill="#63b8ff" stroke="#63b8ff" points="1567.09,-189.88 1575.93,-184.05 1565.38,-183.09 1567.09,-189.88"/>
</a>
</g>
</g>
<!-- Node27 -->
<g id="Node000027" class="node">
<title>Node27</title>
<g id="a_Node000027"><a xlink:title=" ">
<polygon fill="#e0e0e0" stroke="#999999" points="1409.5,-184 1344.5,-184 1344.5,-165 1409.5,-165 1409.5,-184"/>
<text text-anchor="middle" x="1377" y="-172" font-family="Helvetica,sans-Serif" font-size="10.00">functional</text>
</a>
</g>
</g>
<!-- Node19&#45;&gt;Node27 -->
<g id="edge39_Node000019_Node000027" class="edge">
<title>Node19&#45;&gt;Node27</title>
<g id="a_edge39_Node000019_Node000027"><a xlink:title=" ">
<path fill="none" stroke="#63b8ff" d="M1377,-219.84C1377,-212.21 1377,-202.7 1377,-194.45"/>
<polygon fill="#63b8ff" stroke="#63b8ff" points="1380.5,-194.27 1377,-184.27 1373.5,-194.27 1380.5,-194.27"/>
</a>
</g>
</g>
<!-- Node28 -->
<g id="Node000028" class="node">
<title>Node28</title>
<g id="a_Node000028"><a xlink:title=" ">
<polygon fill="#e0e0e0" stroke="#999999" points="1468.5,-184 1427.5,-184 1427.5,-165 1468.5,-165 1468.5,-184"/>
<text text-anchor="middle" x="1448" y="-172" font-family="Helvetica,sans-Serif" font-size="10.00">tuple</text>
</a>
</g>
</g>
<!-- Node19&#45;&gt;Node28 -->
<g id="edge40_Node000019_Node000028" class="edge">
<title>Node19&#45;&gt;Node28</title>
<g id="a_edge40_Node000019_Node000028"><a xlink:title=" ">
<path fill="none" stroke="#63b8ff" d="M1394.19,-219.84C1404.81,-211.09 1418.44,-199.85 1429.33,-190.88"/>
<polygon fill="#63b8ff" stroke="#63b8ff" points="1431.87,-193.33 1437.36,-184.27 1427.42,-187.92 1431.87,-193.33"/>
</a>
</g>
</g>
<!-- Node21&#45;&gt;Node4 -->
<g id="edge28_Node000021_Node000004" class="edge">
<title>Node21&#45;&gt;Node4</title>
<g id="a_edge28_Node000021_Node000004"><a xlink:title=" ">
<path fill="none" stroke="#63b8ff" d="M1244.84,-164.9C1225.21,-156.34 1194.65,-142.57 1169,-129 1103.34,-94.26 1028.92,-47.67 992.87,-24.63"/>
<polygon fill="#63b8ff" stroke="#63b8ff" points="994.47,-21.5 984.17,-19.04 990.69,-27.39 994.47,-21.5"/>
</a>
</g>
</g>
<!-- Node21&#45;&gt;Node9 -->
<g id="edge29_Node000021_Node000009" class="edge">
<title>Node21&#45;&gt;Node9</title>
<g id="a_edge29_Node000021_Node000009"><a xlink:title=" ">
<path fill="none" stroke="#63b8ff" d="M1264.3,-164.85C1262.86,-151.79 1258.55,-126.77 1246,-110 1214.42,-67.8 1159.27,-38.43 1124.52,-23.03"/>
<polygon fill="#63b8ff" stroke="#63b8ff" points="1125.87,-19.8 1115.3,-19.06 1123.1,-26.23 1125.87,-19.8"/>
</a>
</g>
</g>
<!-- Node21&#45;&gt;Node20 -->
<g id="edge30_Node000021_Node000020" class="edge">
<title>Node21&#45;&gt;Node20</title>
<g id="a_edge30_Node000021_Node000020"><a xlink:title=" ">
<path fill="none" stroke="#63b8ff" d="M1280.42,-164.98C1295.45,-156.69 1318.54,-143.94 1336.16,-134.22"/>
<polygon fill="#63b8ff" stroke="#63b8ff" points="1338.23,-137.07 1345.3,-129.17 1334.85,-130.94 1338.23,-137.07"/>
</a>
</g>
</g>
<!-- Node21&#45;&gt;Node22 -->
<g id="edge31_Node000021_Node000022" class="edge">
<title>Node21&#45;&gt;Node22</title>
<g id="a_edge31_Node000021_Node000022"><a xlink:title=" ">
<path fill="none" stroke="#63b8ff" d="M1303.72,-164.98C1345.41,-155.82 1411.82,-141.21 1457.09,-131.26"/>
<polygon fill="#63b8ff" stroke="#63b8ff" points="1457.96,-134.65 1466.98,-129.08 1456.46,-127.81 1457.96,-134.65"/>
</a>
</g>
</g>
<!-- Node23 -->
<g id="Node000023" class="node">
<title>Node23</title>
<g id="a_Node000023"><a xlink:title=" ">
<polygon fill="#e0e0e0" stroke="#999999" points="1236.5,-129 1177.5,-129 1177.5,-110 1236.5,-110 1236.5,-129"/>
<text text-anchor="middle" x="1207" y="-117" font-family="Helvetica,sans-Serif" font-size="10.00">complex</text>
</a>
</g>
</g>
<!-- Node21&#45;&gt;Node23 -->
<g id="edge32_Node000021_Node000023" class="edge">
<title>Node21&#45;&gt;Node23</title>
<g id="a_edge32_Node000021_Node000023"><a xlink:title=" ">
<path fill="none" stroke="#63b8ff" d="M1255.68,-164.98C1247.19,-157.23 1234.44,-145.58 1224.12,-136.14"/>
<polygon fill="#63b8ff" stroke="#63b8ff" points="1226.23,-133.33 1216.49,-129.17 1221.51,-138.5 1226.23,-133.33"/>
</a>
</g>
</g>
<!-- Node24&#45;&gt;Node2 -->
<g id="edge35_Node000024_Node000002" class="edge">
<title>Node24&#45;&gt;Node2</title>
<g id="a_edge35_Node000024_Node000002"><a xlink:title=" ">
<path fill="none" stroke="#63b8ff" d="M1038.38,-166.04C1035.54,-165.68 1032.74,-165.33 1030,-165 903.11,-149.54 753.75,-133.95 675.35,-125.96"/>
<polygon fill="#63b8ff" stroke="#63b8ff" points="675.53,-122.46 665.23,-124.93 674.82,-129.43 675.53,-122.46"/>
</a>
</g>
</g>
<!-- Node29&#45;&gt;Node9 -->
<g id="edge43_Node000029_Node000009" class="edge">
<title>Node29&#45;&gt;Node9</title>
<g id="a_edge43_Node000029_Node000009"><a xlink:title=" ">
<path fill="none" stroke="#63b8ff" d="M713,-285.96C726.36,-263.72 764.97,-203.06 810,-165 890.5,-96.97 1005.67,-45.44 1060.97,-22.93"/>
<polygon fill="#63b8ff" stroke="#63b8ff" points="1062.6,-26.05 1070.57,-19.07 1059.99,-19.55 1062.6,-26.05"/>
</a>
</g>
</g>
<!-- Node30 -->
<g id="Node000030" class="node">
<title>Node30</title>
<g id="a_Node000030"><a xlink:href="sitkPixelIDValues_8h.html" target="_top" xlink:title=" ">
<polygon fill="white" stroke="#666666" points="929,-244.5 819,-244.5 819,-225.5 929,-225.5 929,-244.5"/>
<text text-anchor="middle" x="874" y="-232.5" font-family="Helvetica,sans-Serif" font-size="10.00">sitkPixelIDValues.h</text>
</a>
</g>
</g>
<!-- Node29&#45;&gt;Node30 -->
<g id="edge44_Node000029_Node000030" class="edge">
<title>Node29&#45;&gt;Node30</title>
<g id="a_edge44_Node000029_Node000030"><a xlink:title=" ">
<path fill="none" stroke="#63b8ff" d="M732.14,-285.99C760.54,-275.99 807.88,-259.3 839.99,-247.99"/>
<polygon fill="#63b8ff" stroke="#63b8ff" points="841.56,-251.14 849.83,-244.52 839.24,-244.54 841.56,-251.14"/>
</a>
</g>
</g>
<!-- Node29&#45;&gt;Node32 -->
<g id="edge49_Node000029_Node000032" class="edge">
<title>Node29&#45;&gt;Node32</title>
<g id="a_edge49_Node000029_Node000032"><a xlink:title=" ">
<path fill="none" stroke="#63b8ff" d="M705.34,-285.87C702.82,-277.66 698.94,-265.04 695.71,-254.55"/>
<polygon fill="#63b8ff" stroke="#63b8ff" points="698.95,-253.2 692.67,-244.67 692.26,-255.25 698.95,-253.2"/>
</a>
</g>
</g>
<!-- Node30&#45;&gt;Node2 -->
<g id="edge45_Node000030_Node000002" class="edge">
<title>Node30&#45;&gt;Node2</title>
<g id="a_edge45_Node000030_Node000002"><a xlink:title=" ">
<path fill="none" stroke="#63b8ff" d="M856.73,-225.41C829.69,-212.06 775.64,-185.69 729,-165 703.28,-153.59 673.71,-141.48 652.03,-132.77"/>
<polygon fill="#63b8ff" stroke="#63b8ff" points="653.24,-129.49 642.66,-129.03 650.65,-135.99 653.24,-129.49"/>
</a>
</g>
</g>
<!-- Node30&#45;&gt;Node15 -->
<g id="edge48_Node000030_Node000015" class="edge">
<title>Node30&#45;&gt;Node15</title>
<g id="a_edge48_Node000030_Node000015"><a xlink:title=" ">
<path fill="none" stroke="#63b8ff" d="M822.82,-225.49C751.65,-213.67 624.39,-192.52 560.64,-181.92"/>
<polygon fill="#63b8ff" stroke="#63b8ff" points="561.04,-178.44 550.6,-180.25 559.89,-185.34 561.04,-178.44"/>
</a>
</g>
</g>
<!-- Node30&#45;&gt;Node21 -->
<g id="edge46_Node000030_Node000021" class="edge">
<title>Node30&#45;&gt;Node21</title>
<g id="a_edge46_Node000030_Node000021"><a xlink:title=" ">
<path fill="none" stroke="#63b8ff" d="M929.19,-225.74C999.9,-215.16 1122.38,-196.84 1198.26,-185.49"/>
<polygon fill="#63b8ff" stroke="#63b8ff" points="1198.81,-188.94 1208.19,-184 1197.78,-182.02 1198.81,-188.94"/>
</a>
</g>
</g>
<!-- Node31 -->
<g id="Node000031" class="node">
<title>Node31</title>
<g id="a_Node000031"><a xlink:title=" ">
<polygon fill="#e0e0e0" stroke="#999999" points="863,-184 819,-184 819,-165 863,-165 863,-184"/>
<text text-anchor="middle" x="841" y="-172" font-family="Helvetica,sans-Serif" font-size="10.00">string</text>
</a>
</g>
</g>
<!-- Node30&#45;&gt;Node31 -->
<g id="edge47_Node000030_Node000031" class="edge">
<title>Node30&#45;&gt;Node31</title>
<g id="a_edge47_Node000030_Node000031"><a xlink:title=" ">
<path fill="none" stroke="#63b8ff" d="M869.13,-225.37C864.35,-216.9 856.93,-203.74 850.91,-193.07"/>
<polygon fill="#63b8ff" stroke="#63b8ff" points="853.85,-191.16 845.89,-184.17 847.75,-194.6 853.85,-191.16"/>
</a>
</g>
</g>
<!-- Node33&#45;&gt;Node2 -->
<g id="edge51_Node000033_Node000002" class="edge">
<title>Node33&#45;&gt;Node2</title>
<g id="a_edge51_Node000033_Node000002"><a xlink:title=" ">
<path fill="none" stroke="#63b8ff" d="M529.44,-225.47C545.85,-206.65 585.39,-161.32 606.75,-136.84"/>
<polygon fill="#63b8ff" stroke="#63b8ff" points="609.54,-138.97 613.47,-129.13 604.26,-134.37 609.54,-138.97"/>
</a>
</g>
</g>
<!-- Node33&#45;&gt;Node15 -->
<g id="edge52_Node000033_Node000015" class="edge">
<title>Node33&#45;&gt;Node15</title>
<g id="a_edge52_Node000033_Node000015"><a xlink:title=" ">
<path fill="none" stroke="#63b8ff" d="M522,-225.37C522,-217.25 522,-204.81 522,-194.39"/>
<polygon fill="#63b8ff" stroke="#63b8ff" points="525.5,-194.17 522,-184.17 518.5,-194.17 525.5,-194.17"/>
</a>
</g>
</g>
<!-- Node34&#45;&gt;Node31 -->
<g id="edge57_Node000034_Node000031" class="edge">
<title>Node34&#45;&gt;Node31</title>
<g id="a_edge57_Node000034_Node000031"><a xlink:title=" ">
<path fill="none" stroke="#63b8ff" d="M915.92,-340.85C930.19,-318.86 963.46,-259.69 938,-220 930.45,-208.23 898.07,-194.87 872.78,-185.88"/>
<polygon fill="#63b8ff" stroke="#63b8ff" points="873.75,-182.51 863.15,-182.55 871.46,-189.13 873.75,-182.51"/>
</a>
</g>
</g>
</g>
</svg>
