<?xml version="1.0" encoding="UTF-8" standalone="no"?>
<!DOCTYPE svg PUBLIC "-//W3C//DTD SVG 1.1//EN"
 "http://www.w3.org/Graphics/SVG/1.1/DTD/svg11.dtd">
<!-- Generated by graphviz version 2.43.0 (0)
 -->
<!-- Title: sitkExplicitITK.h Pages: 1 -->
<!--zoomable 274 -->
<svg id="main" version="1.1" xmlns="http://www.w3.org/2000/svg" xmlns:xlink="http://www.w3.org/1999/xlink" xml:space="preserve" onload="init(evt)">
<style type="text/css"><![CDATA[
.edge:hover path { stroke: red; }
.edge:hover polygon { stroke: red; fill: red; }
]]></style>
<script type="text/javascript"><![CDATA[
var edges = document.getElementsByTagName('g');
if (edges && edges.length) {
  for (var i=0;i<edges.length;i++) {
    if (edges[i].id.substr(0,4)=='edge') {
      edges[i].setAttribute('class','edge');
    }
  }
}
]]></script>
        <defs>
                <circle id="rim" cx="0" cy="0" r="7"/>
                <circle id="rim2" cx="0" cy="0" r="3.5"/>
                <g id="zoomPlus">
                        <use xlink:href="#rim" fill="#404040">
                                <set attributeName="fill" to="#808080" begin="zoomplus.mouseover" end="zoomplus.mouseout"/>
                        </use>
                        <path d="M-4,0h8M0,-4v8" fill="none" stroke="white" stroke-width="1.5" pointer-events="none"/>
                </g>
                <g id="zoomMin">
                        <use xlink:href="#rim" fill="#404040">
                                <set attributeName="fill" to="#808080" begin="zoomminus.mouseover" end="zoomminus.mouseout"/>
                        </use>
                        <path d="M-4,0h8" fill="none" stroke="white" stroke-width="1.5" pointer-events="none"/>
                </g>
                <g id="dirArrow">
                        <path fill="none" stroke="white" stroke-width="1.5" d="M0,-3.0v7 M-2.5,-0.5L0,-3.0L2.5,-0.5"/>
                </g>
               <g id="resetDef">
                       <use xlink:href="#rim2" fill="#404040">
                               <set attributeName="fill" to="#808080" begin="reset.mouseover" end="reset.mouseout"/>
                       </use>
               </g>
        </defs>

<script type="text/javascript">
var viewWidth = 3292;
var viewHeight = 274;
var sectionId = 'dynsection-0';
</script>
<script xlink:href="svgpan.js"/>
<svg id="graph" class="graph">
<g id="viewport">
<title>sitkExplicitITK.h</title>
<polygon fill="white" stroke="transparent" points="-4,4 -4,-270 3287.5,-270 3287.5,4 -4,4"/>
<!-- Node1 -->
<g id="node1" class="node">
<title>Node1</title>
<g id="a_node1"><a xlink:title=" ">
<polygon fill="#bfbfbf" stroke="black" points="1456,-246.5 1456,-265.5 1551,-265.5 1551,-246.5 1456,-246.5"/>
<text text-anchor="middle" x="1503.5" y="-253.5" font-family="Helvetica,sans-Serif" font-size="10.00">sitkExplicitITK.h</text>
</a>
</g>
</g>
<!-- Node2 -->
<g id="node2" class="node">
<title>Node2</title>
<g id="a_node2"><a xlink:title=" ">
<polygon fill="white" stroke="#bfbfbf" points="0,-185 0,-204 59,-204 59,-185 0,-185"/>
<text text-anchor="middle" x="29.5" y="-192" font-family="Helvetica,sans-Serif" font-size="10.00">complex</text>
</a>
</g>
</g>
<!-- Node1&#45;&gt;Node2 -->
<g id="edge1" class="edge">
<title>Node1&#45;&gt;Node2</title>
<path fill="none" stroke="midnightblue" d="M1455.82,-254.45C1222.41,-251.61 205.9,-237.76 67.5,-210 64.25,-209.35 60.91,-208.45 57.62,-207.41"/>
<polygon fill="midnightblue" stroke="midnightblue" points="58.67,-204.07 48.07,-204 56.32,-210.66 58.67,-204.07"/>
</g>
<!-- Node3 -->
<g id="node3" class="node">
<title>Node3</title>
<g id="a_node3"><a xlink:title=" ">
<polygon fill="white" stroke="#bfbfbf" points="77,-185 77,-204 216,-204 216,-185 77,-185"/>
<text text-anchor="middle" x="146.5" y="-192" font-family="Helvetica,sans-Serif" font-size="10.00">itkAttributeLabelObject.h</text>
</a>
</g>
</g>
<!-- Node1&#45;&gt;Node3 -->
<g id="edge2" class="edge">
<title>Node1&#45;&gt;Node3</title>
<path fill="none" stroke="midnightblue" d="M1455.85,-254.26C1254.29,-250.97 470.9,-236.7 225.5,-210 216.03,-208.97 206,-207.46 196.37,-205.79"/>
<polygon fill="midnightblue" stroke="midnightblue" points="196.98,-202.35 186.52,-204.02 195.74,-209.24 196.98,-202.35"/>
</g>
<!-- Node4 -->
<g id="node4" class="node">
<title>Node4</title>
<g id="a_node4"><a xlink:title=" ">
<polygon fill="white" stroke="#bfbfbf" points="234.5,-185 234.5,-204 360.5,-204 360.5,-185 234.5,-185"/>
<text text-anchor="middle" x="297.5" y="-192" font-family="Helvetica,sans-Serif" font-size="10.00">itkShapeLabelObject.h</text>
</a>
</g>
</g>
<!-- Node1&#45;&gt;Node4 -->
<g id="edge3" class="edge">
<title>Node1&#45;&gt;Node4</title>
<path fill="none" stroke="midnightblue" d="M1455.99,-255.59C1300.3,-256.98 791.61,-257.33 374.5,-210 365.56,-208.99 356.11,-207.53 346.99,-205.92"/>
<polygon fill="midnightblue" stroke="midnightblue" points="347.37,-202.43 336.9,-204.07 346.1,-209.32 347.37,-202.43"/>
</g>
<!-- Node5 -->
<g id="node5" class="node">
<title>Node5</title>
<g id="a_node5"><a xlink:title=" ">
<polygon fill="white" stroke="#bfbfbf" points="392.5,-118 392.5,-137 492.5,-137 492.5,-118 392.5,-118"/>
<text text-anchor="middle" x="442.5" y="-125" font-family="Helvetica,sans-Serif" font-size="10.00">itkVectorImage.h</text>
</a>
</g>
</g>
<!-- Node1&#45;&gt;Node5 -->
<g id="edge4" class="edge">
<title>Node1&#45;&gt;Node5</title>
<path fill="none" stroke="midnightblue" d="M1455.74,-254.86C1249.53,-254.03 444.28,-248.32 407.5,-210 389.75,-191.5 409.89,-162.59 426.15,-144.64"/>
<polygon fill="midnightblue" stroke="midnightblue" points="428.83,-146.89 433.19,-137.23 423.76,-142.07 428.83,-146.89"/>
</g>
<!-- Node6 -->
<g id="node6" class="node">
<title>Node6</title>
<g id="a_node6"><a xlink:href="sitkExplicitITKImageRegion_8h.html" target="_top" xlink:title=" ">
<polygon fill="white" stroke="black" points="592.5,-185 592.5,-204 752.5,-204 752.5,-185 592.5,-185"/>
<text text-anchor="middle" x="672.5" y="-192" font-family="Helvetica,sans-Serif" font-size="10.00">sitkExplicitITKImageRegion.h</text>
</a>
</g>
</g>
<!-- Node1&#45;&gt;Node6 -->
<g id="edge5" class="edge">
<title>Node1&#45;&gt;Node6</title>
<path fill="none" stroke="midnightblue" d="M1455.61,-253.77C1337.43,-250.37 1022.51,-239.1 761.5,-210 751.12,-208.84 740.11,-207.31 729.51,-205.66"/>
<polygon fill="midnightblue" stroke="midnightblue" points="729.92,-202.18 719.49,-204.07 728.81,-209.1 729.92,-202.18"/>
</g>
<!-- Node16 -->
<g id="node16" class="node">
<title>Node16</title>
<g id="a_node16"><a xlink:href="sitkExplicitITKDefaultPixelAccessor_8h.html" target="_top" xlink:title=" ">
<polygon fill="white" stroke="black" points="770.5,-179.5 770.5,-209.5 916.5,-209.5 916.5,-179.5 770.5,-179.5"/>
<text text-anchor="start" x="778.5" y="-197.5" font-family="Helvetica,sans-Serif" font-size="10.00">sitkExplicitITKDefaultPixel</text>
<text text-anchor="middle" x="843.5" y="-186.5" font-family="Helvetica,sans-Serif" font-size="10.00">Accessor.h</text>
</a>
</g>
</g>
<!-- Node1&#45;&gt;Node16 -->
<g id="edge15" class="edge">
<title>Node1&#45;&gt;Node16</title>
<path fill="none" stroke="midnightblue" d="M1455.76,-252.86C1358.29,-248.15 1129.22,-235.33 926.98,-210.11"/>
<polygon fill="midnightblue" stroke="midnightblue" points="927.12,-206.6 916.76,-208.82 926.25,-213.54 927.12,-206.6"/>
</g>
<!-- Node18 -->
<g id="node18" class="node">
<title>Node18</title>
<g id="a_node18"><a xlink:href="sitkExplicitITKDefaultVectorPixelAccessor_8h.html" target="_top" xlink:title=" ">
<polygon fill="white" stroke="black" points="935,-179.5 935,-209.5 1088,-209.5 1088,-179.5 935,-179.5"/>
<text text-anchor="start" x="943" y="-197.5" font-family="Helvetica,sans-Serif" font-size="10.00">sitkExplicitITKDefaultVector</text>
<text text-anchor="middle" x="1011.5" y="-186.5" font-family="Helvetica,sans-Serif" font-size="10.00">PixelAccessor.h</text>
</a>
</g>
</g>
<!-- Node1&#45;&gt;Node18 -->
<g id="edge18" class="edge">
<title>Node1&#45;&gt;Node18</title>
<path fill="none" stroke="midnightblue" d="M1455.77,-250.64C1381.48,-243.66 1233.49,-228.94 1098.49,-210.23"/>
<polygon fill="midnightblue" stroke="midnightblue" points="1098.77,-206.74 1088.38,-208.82 1097.8,-213.67 1098.77,-206.74"/>
</g>
<!-- Node20 -->
<g id="node20" class="node">
<title>Node20</title>
<g id="a_node20"><a xlink:href="sitkExplicitITKImportImageContainer_8h.html" target="_top" xlink:title=" ">
<polygon fill="white" stroke="black" points="1106,-179.5 1106,-209.5 1255,-209.5 1255,-179.5 1106,-179.5"/>
<text text-anchor="start" x="1114" y="-197.5" font-family="Helvetica,sans-Serif" font-size="10.00">sitkExplicitITKImportImage</text>
<text text-anchor="middle" x="1180.5" y="-186.5" font-family="Helvetica,sans-Serif" font-size="10.00">Container.h</text>
</a>
</g>
</g>
<!-- Node1&#45;&gt;Node20 -->
<g id="edge21" class="edge">
<title>Node1&#45;&gt;Node20</title>
<path fill="none" stroke="midnightblue" d="M1457.22,-246.48C1407.24,-237.27 1326.53,-222.4 1265.14,-211.09"/>
<polygon fill="midnightblue" stroke="midnightblue" points="1265.54,-207.61 1255.07,-209.24 1264.27,-214.49 1265.54,-207.61"/>
</g>
<!-- Node22 -->
<g id="node22" class="node">
<title>Node22</title>
<g id="a_node22"><a xlink:href="sitkExplicitITKImageBase_8h.html" target="_top" xlink:title=" ">
<polygon fill="white" stroke="black" points="1272.5,-185 1272.5,-204 1422.5,-204 1422.5,-185 1272.5,-185"/>
<text text-anchor="middle" x="1347.5" y="-192" font-family="Helvetica,sans-Serif" font-size="10.00">sitkExplicitITKImageBase.h</text>
</a>
</g>
</g>
<!-- Node1&#45;&gt;Node22 -->
<g id="edge24" class="edge">
<title>Node1&#45;&gt;Node22</title>
<path fill="none" stroke="midnightblue" d="M1481.15,-246.48C1454.51,-236.31 1409.79,-219.26 1379.49,-207.7"/>
<polygon fill="midnightblue" stroke="midnightblue" points="1380.4,-204.3 1369.81,-204.01 1377.91,-210.84 1380.4,-204.3"/>
</g>
<!-- Node24 -->
<g id="node24" class="node">
<title>Node24</title>
<g id="a_node24"><a xlink:href="sitkExplicitITKImage_8h.html" target="_top" xlink:title=" ">
<polygon fill="white" stroke="black" points="1440.5,-185 1440.5,-204 1566.5,-204 1566.5,-185 1440.5,-185"/>
<text text-anchor="middle" x="1503.5" y="-192" font-family="Helvetica,sans-Serif" font-size="10.00">sitkExplicitITKImage.h</text>
</a>
</g>
</g>
<!-- Node1&#45;&gt;Node24 -->
<g id="edge27" class="edge">
<title>Node1&#45;&gt;Node24</title>
<path fill="none" stroke="midnightblue" d="M1503.5,-246.48C1503.5,-238.08 1503.5,-224.98 1503.5,-214.16"/>
<polygon fill="midnightblue" stroke="midnightblue" points="1507,-214.01 1503.5,-204.01 1500,-214.01 1507,-214.01"/>
</g>
<!-- Node26 -->
<g id="node26" class="node">
<title>Node26</title>
<g id="a_node26"><a xlink:href="sitkExplicitITKLabelMap_8h.html" target="_top" xlink:title=" ">
<polygon fill="white" stroke="black" points="1585,-185 1585,-204 1728,-204 1728,-185 1585,-185"/>
<text text-anchor="middle" x="1656.5" y="-192" font-family="Helvetica,sans-Serif" font-size="10.00">sitkExplicitITKLabelMap.h</text>
</a>
</g>
</g>
<!-- Node1&#45;&gt;Node26 -->
<g id="edge30" class="edge">
<title>Node1&#45;&gt;Node26</title>
<path fill="none" stroke="midnightblue" d="M1525.42,-246.48C1551.55,-236.31 1595.41,-219.26 1625.13,-207.7"/>
<polygon fill="midnightblue" stroke="midnightblue" points="1626.57,-210.9 1634.62,-204.01 1624.03,-204.37 1626.57,-210.9"/>
</g>
<!-- Node28 -->
<g id="node28" class="node">
<title>Node28</title>
<g id="a_node28"><a xlink:href="sitkExplicitITKVectorImage_8h.html" target="_top" xlink:title=" ">
<polygon fill="white" stroke="black" points="417,-185 417,-204 574,-204 574,-185 417,-185"/>
<text text-anchor="middle" x="495.5" y="-192" font-family="Helvetica,sans-Serif" font-size="10.00">sitkExplicitITKVectorImage.h</text>
</a>
</g>
</g>
<!-- Node1&#45;&gt;Node28 -->
<g id="edge33" class="edge">
<title>Node1&#45;&gt;Node28</title>
<path fill="none" stroke="midnightblue" d="M1455.95,-254.59C1319.69,-253.01 916.24,-245.43 583.5,-210 573,-208.88 561.85,-207.33 551.14,-205.66"/>
<polygon fill="midnightblue" stroke="midnightblue" points="551.47,-202.16 541.04,-204.02 550.35,-209.07 551.47,-202.16"/>
</g>
<!-- Node29 -->
<g id="node29" class="node">
<title>Node29</title>
<g id="a_node29"><a xlink:href="sitkExplicitITKImageConstIterator_8h.html" target="_top" xlink:title=" ">
<polygon fill="white" stroke="black" points="1746,-179.5 1746,-209.5 1891,-209.5 1891,-179.5 1746,-179.5"/>
<text text-anchor="start" x="1754" y="-197.5" font-family="Helvetica,sans-Serif" font-size="10.00">sitkExplicitITKImageConst</text>
<text text-anchor="middle" x="1818.5" y="-186.5" font-family="Helvetica,sans-Serif" font-size="10.00">Iterator.h</text>
</a>
</g>
</g>
<!-- Node1&#45;&gt;Node29 -->
<g id="edge36" class="edge">
<title>Node1&#45;&gt;Node29</title>
<path fill="none" stroke="midnightblue" d="M1548.63,-246.48C1597.28,-237.29 1675.77,-222.46 1735.59,-211.16"/>
<polygon fill="midnightblue" stroke="midnightblue" points="1736.6,-214.53 1745.77,-209.24 1735.3,-207.65 1736.6,-214.53"/>
</g>
<!-- Node31 -->
<g id="node31" class="node">
<title>Node31</title>
<g id="a_node31"><a xlink:href="sitkExplicitITKImageRegionConstIterator_8h.html" target="_top" xlink:title=" ">
<polygon fill="white" stroke="black" points="1909,-179.5 1909,-209.5 2060,-209.5 2060,-179.5 1909,-179.5"/>
<text text-anchor="start" x="1917" y="-197.5" font-family="Helvetica,sans-Serif" font-size="10.00">sitkExplicitITKImageRegion</text>
<text text-anchor="middle" x="1984.5" y="-186.5" font-family="Helvetica,sans-Serif" font-size="10.00">ConstIterator.h</text>
</a>
</g>
</g>
<!-- Node1&#45;&gt;Node31 -->
<g id="edge39" class="edge">
<title>Node1&#45;&gt;Node31</title>
<path fill="none" stroke="midnightblue" d="M1551.28,-250.49C1624.07,-243.42 1767.33,-228.72 1898.73,-210.2"/>
<polygon fill="midnightblue" stroke="midnightblue" points="1899.57,-213.62 1908.98,-208.75 1898.58,-206.69 1899.57,-213.62"/>
</g>
<!-- Node33 -->
<g id="node33" class="node">
<title>Node33</title>
<g id="a_node33"><a xlink:href="sitkExplicitITKImageScanlineConstIterator_8h.html" target="_top" xlink:title=" ">
<polygon fill="white" stroke="black" points="2078.5,-179.5 2078.5,-209.5 2236.5,-209.5 2236.5,-179.5 2078.5,-179.5"/>
<text text-anchor="start" x="2086.5" y="-197.5" font-family="Helvetica,sans-Serif" font-size="10.00">sitkExplicitITKImageScanline</text>
<text text-anchor="middle" x="2157.5" y="-186.5" font-family="Helvetica,sans-Serif" font-size="10.00">ConstIterator.h</text>
</a>
</g>
</g>
<!-- Node1&#45;&gt;Node33 -->
<g id="edge42" class="edge">
<title>Node1&#45;&gt;Node33</title>
<path fill="none" stroke="midnightblue" d="M1551.34,-252.56C1647.37,-247.36 1870.63,-233.78 2068.4,-210.07"/>
<polygon fill="midnightblue" stroke="midnightblue" points="2068.88,-213.53 2078.39,-208.86 2068.04,-206.58 2068.88,-213.53"/>
</g>
<!-- Node35 -->
<g id="node35" class="node">
<title>Node35</title>
<g id="a_node35"><a xlink:href="sitkExplicitITKImageScanlineIterator_8h.html" target="_top" xlink:title=" ">
<polygon fill="white" stroke="black" points="2254.5,-179.5 2254.5,-209.5 2412.5,-209.5 2412.5,-179.5 2254.5,-179.5"/>
<text text-anchor="start" x="2262.5" y="-197.5" font-family="Helvetica,sans-Serif" font-size="10.00">sitkExplicitITKImageScanline</text>
<text text-anchor="middle" x="2333.5" y="-186.5" font-family="Helvetica,sans-Serif" font-size="10.00">Iterator.h</text>
</a>
</g>
</g>
<!-- Node1&#45;&gt;Node35 -->
<g id="edge45" class="edge">
<title>Node1&#45;&gt;Node35</title>
<path fill="none" stroke="midnightblue" d="M1551.39,-253.8C1668.08,-250.51 1976.55,-239.62 2244.1,-210.08"/>
<polygon fill="midnightblue" stroke="midnightblue" points="2244.85,-213.51 2254.4,-208.93 2244.07,-206.56 2244.85,-213.51"/>
</g>
<!-- Node37 -->
<g id="node37" class="node">
<title>Node37</title>
<g id="a_node37"><a xlink:href="sitkExplicitITKImageSource_8h.html" target="_top" xlink:title=" ">
<polygon fill="white" stroke="black" points="2430,-185 2430,-204 2589,-204 2589,-185 2430,-185"/>
<text text-anchor="middle" x="2509.5" y="-192" font-family="Helvetica,sans-Serif" font-size="10.00">sitkExplicitITKImageSource.h</text>
</a>
</g>
</g>
<!-- Node1&#45;&gt;Node37 -->
<g id="edge48" class="edge">
<title>Node1&#45;&gt;Node37</title>
<path fill="none" stroke="midnightblue" d="M1551.43,-254.58C1687.87,-252.97 2089.88,-245.33 2421.5,-210 2432,-208.88 2443.15,-207.33 2453.86,-205.65"/>
<polygon fill="midnightblue" stroke="midnightblue" points="2454.65,-209.07 2463.96,-204.02 2453.53,-202.16 2454.65,-209.07"/>
</g>
<!-- Node39 -->
<g id="node39" class="node">
<title>Node39</title>
<g id="a_node39"><a xlink:href="sitkExplicitITKImageToImageFilter_8h.html" target="_top" xlink:title=" ">
<polygon fill="white" stroke="black" points="2606.5,-179.5 2606.5,-209.5 2764.5,-209.5 2764.5,-179.5 2606.5,-179.5"/>
<text text-anchor="start" x="2614.5" y="-197.5" font-family="Helvetica,sans-Serif" font-size="10.00">sitkExplicitITKImageToImage</text>
<text text-anchor="middle" x="2685.5" y="-186.5" font-family="Helvetica,sans-Serif" font-size="10.00">Filter.h</text>
</a>
</g>
</g>
<!-- Node1&#45;&gt;Node39 -->
<g id="edge51" class="edge">
<title>Node1&#45;&gt;Node39</title>
<path fill="none" stroke="midnightblue" d="M1551.14,-255.15C1702.66,-255.17 2187.03,-251.82 2596.41,-210.14"/>
<polygon fill="midnightblue" stroke="midnightblue" points="2596.78,-213.62 2606.37,-209.12 2596.07,-206.66 2596.78,-213.62"/>
</g>
<!-- Node41 -->
<g id="node41" class="node">
<title>Node41</title>
<g id="a_node41"><a xlink:href="sitkExplicitITKInPlaceImageFilter_8h.html" target="_top" xlink:title=" ">
<polygon fill="white" stroke="black" points="2782.5,-179.5 2782.5,-209.5 2934.5,-209.5 2934.5,-179.5 2782.5,-179.5"/>
<text text-anchor="start" x="2790.5" y="-197.5" font-family="Helvetica,sans-Serif" font-size="10.00">sitkExplicitITKInPlaceImage</text>
<text text-anchor="middle" x="2858.5" y="-186.5" font-family="Helvetica,sans-Serif" font-size="10.00">Filter.h</text>
</a>
</g>
</g>
<!-- Node1&#45;&gt;Node41 -->
<g id="edge54" class="edge">
<title>Node1&#45;&gt;Node41</title>
<path fill="none" stroke="midnightblue" d="M1551.18,-254.16C1749.34,-250.56 2509.21,-235.42 2771.85,-210.05"/>
<polygon fill="midnightblue" stroke="midnightblue" points="2772.51,-213.5 2782.11,-209.03 2771.81,-206.54 2772.51,-213.5"/>
</g>
<!-- Node43 -->
<g id="node43" class="node">
<title>Node43</title>
<g id="a_node43"><a xlink:href="sitkExplicitITKComposeImageFilter_8h.html" target="_top" xlink:title=" ">
<polygon fill="white" stroke="black" points="2952.5,-179.5 2952.5,-209.5 3114.5,-209.5 3114.5,-179.5 2952.5,-179.5"/>
<text text-anchor="start" x="2960.5" y="-197.5" font-family="Helvetica,sans-Serif" font-size="10.00">sitkExplicitITKComposeImage</text>
<text text-anchor="middle" x="3033.5" y="-186.5" font-family="Helvetica,sans-Serif" font-size="10.00">Filter.h</text>
</a>
</g>
</g>
<!-- Node1&#45;&gt;Node43 -->
<g id="edge57" class="edge">
<title>Node1&#45;&gt;Node43</title>
<path fill="none" stroke="midnightblue" d="M1551.21,-254.33C1765.75,-251.22 2643.27,-237.09 2941.75,-210.06"/>
<polygon fill="midnightblue" stroke="midnightblue" points="2942.49,-213.5 2952.13,-209.09 2941.84,-206.53 2942.49,-213.5"/>
</g>
<!-- Node45 -->
<g id="node45" class="node">
<title>Node45</title>
<g id="a_node45"><a xlink:href="sitkExplicitITKVectorIndexSelectionCastImageFilter_8h.html" target="_top" xlink:title=" ">
<polygon fill="white" stroke="black" points="3133,-179.5 3133,-209.5 3280,-209.5 3280,-179.5 3133,-179.5"/>
<text text-anchor="start" x="3141" y="-197.5" font-family="Helvetica,sans-Serif" font-size="10.00">sitkExplicitITKVectorIndex</text>
<text text-anchor="middle" x="3206.5" y="-186.5" font-family="Helvetica,sans-Serif" font-size="10.00">SelectionCastImageFilter.h</text>
</a>
</g>
</g>
<!-- Node1&#45;&gt;Node45 -->
<g id="edge60" class="edge">
<title>Node1&#45;&gt;Node45</title>
<path fill="none" stroke="midnightblue" d="M1551.22,-254.61C1782.15,-252.58 2785.93,-242.11 3122.56,-209.95"/>
<polygon fill="midnightblue" stroke="midnightblue" points="3123.2,-213.41 3132.81,-208.95 3122.52,-206.44 3123.2,-213.41"/>
</g>
<!-- Node7 -->
<g id="node7" class="node">
<title>Node7</title>
<g id="a_node7"><a xlink:href="sitkExplicit_8h.html" target="_top" xlink:title=" ">
<polygon fill="white" stroke="black" points="1654.5,-118 1654.5,-137 1734.5,-137 1734.5,-118 1654.5,-118"/>
<text text-anchor="middle" x="1694.5" y="-125" font-family="Helvetica,sans-Serif" font-size="10.00">sitkExplicit.h</text>
</a>
</g>
</g>
<!-- Node6&#45;&gt;Node7 -->
<g id="edge6" class="edge">
<title>Node6&#45;&gt;Node7</title>
<path fill="none" stroke="midnightblue" d="M718.09,-184.99C731.98,-182.69 747.33,-180.44 761.5,-179 1152.71,-139.31 1257.57,-207.28 1645.5,-143 1650.33,-142.2 1655.36,-141.07 1660.27,-139.79"/>
<polygon fill="midnightblue" stroke="midnightblue" points="1661.43,-143.1 1670.1,-137.01 1659.53,-136.36 1661.43,-143.1"/>
</g>
<!-- Node15 -->
<g id="node15" class="node">
<title>Node15</title>
<g id="a_node15"><a xlink:title=" ">
<polygon fill="white" stroke="#bfbfbf" points="621,-118 621,-137 724,-137 724,-118 621,-118"/>
<text text-anchor="middle" x="672.5" y="-125" font-family="Helvetica,sans-Serif" font-size="10.00">itkImageRegion.h</text>
</a>
</g>
</g>
<!-- Node6&#45;&gt;Node15 -->
<g id="edge14" class="edge">
<title>Node6&#45;&gt;Node15</title>
<path fill="none" stroke="midnightblue" d="M672.5,-184.73C672.5,-175.18 672.5,-159.62 672.5,-147.28"/>
<polygon fill="midnightblue" stroke="midnightblue" points="676,-147.13 672.5,-137.13 669,-147.13 676,-147.13"/>
</g>
<!-- Node8 -->
<g id="node8" class="node">
<title>Node8</title>
<g id="a_node8"><a xlink:href="sitkMacro_8h.html" target="_top" xlink:title=" ">
<polygon fill="white" stroke="black" points="1657.5,-56.5 1657.5,-75.5 1731.5,-75.5 1731.5,-56.5 1657.5,-56.5"/>
<text text-anchor="middle" x="1694.5" y="-63.5" font-family="Helvetica,sans-Serif" font-size="10.00">sitkMacro.h</text>
</a>
</g>
</g>
<!-- Node7&#45;&gt;Node8 -->
<g id="edge7" class="edge">
<title>Node7&#45;&gt;Node8</title>
<path fill="none" stroke="midnightblue" d="M1694.5,-117.98C1694.5,-109.58 1694.5,-96.48 1694.5,-85.66"/>
<polygon fill="midnightblue" stroke="midnightblue" points="1698,-85.51 1694.5,-75.51 1691,-85.51 1698,-85.51"/>
</g>
<!-- Node9 -->
<g id="node9" class="node">
<title>Node9</title>
<g id="a_node9"><a xlink:title=" ">
<polygon fill="white" stroke="#bfbfbf" points="1487,-0.5 1487,-19.5 1540,-19.5 1540,-0.5 1487,-0.5"/>
<text text-anchor="middle" x="1513.5" y="-7.5" font-family="Helvetica,sans-Serif" font-size="10.00">stdint.h</text>
</a>
</g>
</g>
<!-- Node8&#45;&gt;Node9 -->
<g id="edge8" class="edge">
<title>Node8&#45;&gt;Node9</title>
<path fill="none" stroke="midnightblue" d="M1665.82,-56.44C1634.43,-47.08 1584.03,-32.04 1549.88,-21.85"/>
<polygon fill="midnightblue" stroke="midnightblue" points="1550.86,-18.49 1540.28,-18.99 1548.86,-25.2 1550.86,-18.49"/>
</g>
<!-- Node10 -->
<g id="node10" class="node">
<title>Node10</title>
<g id="a_node10"><a xlink:title=" ">
<polygon fill="white" stroke="#bfbfbf" points="1558.5,-0.5 1558.5,-19.5 1614.5,-19.5 1614.5,-0.5 1558.5,-0.5"/>
<text text-anchor="middle" x="1586.5" y="-7.5" font-family="Helvetica,sans-Serif" font-size="10.00">stddef.h</text>
</a>
</g>
</g>
<!-- Node8&#45;&gt;Node10 -->
<g id="edge9" class="edge">
<title>Node8&#45;&gt;Node10</title>
<path fill="none" stroke="midnightblue" d="M1677.15,-56.32C1659.83,-47.66 1632.98,-34.24 1613,-24.25"/>
<polygon fill="midnightblue" stroke="midnightblue" points="1614.32,-21 1603.81,-19.65 1611.19,-27.26 1614.32,-21"/>
</g>
<!-- Node11 -->
<g id="node11" class="node">
<title>Node11</title>
<g id="a_node11"><a xlink:title=" ">
<polygon fill="white" stroke="#bfbfbf" points="1632.5,-0.5 1632.5,-19.5 1684.5,-19.5 1684.5,-0.5 1632.5,-0.5"/>
<text text-anchor="middle" x="1658.5" y="-7.5" font-family="Helvetica,sans-Serif" font-size="10.00">cassert</text>
</a>
</g>
</g>
<!-- Node8&#45;&gt;Node11 -->
<g id="edge10" class="edge">
<title>Node8&#45;&gt;Node11</title>
<path fill="none" stroke="midnightblue" d="M1688.56,-56.08C1683.52,-48.53 1676.16,-37.49 1669.99,-28.23"/>
<polygon fill="midnightblue" stroke="midnightblue" points="1672.79,-26.13 1664.33,-19.75 1666.97,-30.01 1672.79,-26.13"/>
</g>
<!-- Node12 -->
<g id="node12" class="node">
<title>Node12</title>
<g id="a_node12"><a xlink:title=" ">
<polygon fill="white" stroke="#bfbfbf" points="1702.5,-0.5 1702.5,-19.5 1758.5,-19.5 1758.5,-0.5 1702.5,-0.5"/>
<text text-anchor="middle" x="1730.5" y="-7.5" font-family="Helvetica,sans-Serif" font-size="10.00">sstream</text>
</a>
</g>
</g>
<!-- Node8&#45;&gt;Node12 -->
<g id="edge11" class="edge">
<title>Node8&#45;&gt;Node12</title>
<path fill="none" stroke="midnightblue" d="M1700.44,-56.08C1705.48,-48.53 1712.84,-37.49 1719.01,-28.23"/>
<polygon fill="midnightblue" stroke="midnightblue" points="1722.03,-30.01 1724.67,-19.75 1716.21,-26.13 1722.03,-30.01"/>
</g>
<!-- Node13 -->
<g id="node13" class="node">
<title>Node13</title>
<g id="a_node13"><a xlink:title=" ">
<polygon fill="white" stroke="#bfbfbf" points="1776.5,-0.5 1776.5,-19.5 1820.5,-19.5 1820.5,-0.5 1776.5,-0.5"/>
<text text-anchor="middle" x="1798.5" y="-7.5" font-family="Helvetica,sans-Serif" font-size="10.00">limits</text>
</a>
</g>
</g>
<!-- Node8&#45;&gt;Node13 -->
<g id="edge12" class="edge">
<title>Node8&#45;&gt;Node13</title>
<path fill="none" stroke="midnightblue" d="M1711.21,-56.32C1727.81,-47.7 1753.5,-34.36 1772.72,-24.39"/>
<polygon fill="midnightblue" stroke="midnightblue" points="1774.57,-27.37 1781.83,-19.65 1771.34,-21.16 1774.57,-27.37"/>
</g>
<!-- Node14 -->
<g id="node14" class="node">
<title>Node14</title>
<g id="a_node14"><a xlink:href="sitkConfigure_8h.html" target="_top" xlink:title=" ">
<polygon fill="white" stroke="black" points="1838.5,-0.5 1838.5,-19.5 1928.5,-19.5 1928.5,-0.5 1838.5,-0.5"/>
<text text-anchor="middle" x="1883.5" y="-7.5" font-family="Helvetica,sans-Serif" font-size="10.00">sitkConfigure.h</text>
</a>
</g>
</g>
<!-- Node8&#45;&gt;Node14 -->
<g id="edge13" class="edge">
<title>Node8&#45;&gt;Node14</title>
<path fill="none" stroke="midnightblue" d="M1724.45,-56.44C1756.66,-47.24 1808.03,-32.56 1843.64,-22.39"/>
<polygon fill="midnightblue" stroke="midnightblue" points="1845.04,-25.63 1853.69,-19.52 1843.12,-18.9 1845.04,-25.63"/>
</g>
<!-- Node16&#45;&gt;Node7 -->
<g id="edge16" class="edge">
<title>Node16&#45;&gt;Node7</title>
<path fill="none" stroke="midnightblue" d="M916.75,-180.08C919.7,-179.69 922.63,-179.32 925.5,-179 1243.87,-143.03 1329.66,-196.84 1645.5,-143 1650.28,-142.19 1655.25,-141.06 1660.11,-139.79"/>
<polygon fill="midnightblue" stroke="midnightblue" points="1661.17,-143.13 1669.84,-137.04 1659.27,-136.39 1661.17,-143.13"/>
</g>
<!-- Node17 -->
<g id="node17" class="node">
<title>Node17</title>
<g id="a_node17"><a xlink:title=" ">
<polygon fill="white" stroke="#bfbfbf" points="767.5,-118 767.5,-137 907.5,-137 907.5,-118 767.5,-118"/>
<text text-anchor="middle" x="837.5" y="-125" font-family="Helvetica,sans-Serif" font-size="10.00">itkDefaultPixelAccessor.h</text>
</a>
</g>
</g>
<!-- Node16&#45;&gt;Node17 -->
<g id="edge17" class="edge">
<title>Node16&#45;&gt;Node17</title>
<path fill="none" stroke="midnightblue" d="M842.2,-179.4C841.33,-169.96 840.17,-157.45 839.23,-147.19"/>
<polygon fill="midnightblue" stroke="midnightblue" points="842.71,-146.83 838.3,-137.19 835.74,-147.47 842.71,-146.83"/>
</g>
<!-- Node18&#45;&gt;Node7 -->
<g id="edge19" class="edge">
<title>Node18&#45;&gt;Node7</title>
<path fill="none" stroke="midnightblue" d="M1088.36,-180.02C1091.1,-179.66 1093.82,-179.32 1096.5,-179 1339.35,-150.4 1404.78,-185.96 1645.5,-143 1650.22,-142.16 1655.13,-141.03 1659.94,-139.76"/>
<polygon fill="midnightblue" stroke="midnightblue" points="1660.91,-143.13 1669.58,-137.04 1659,-136.39 1660.91,-143.13"/>
</g>
<!-- Node19 -->
<g id="node19" class="node">
<title>Node19</title>
<g id="a_node19"><a xlink:title=" ">
<polygon fill="white" stroke="#bfbfbf" points="926,-118 926,-137 1097,-137 1097,-118 926,-118"/>
<text text-anchor="middle" x="1011.5" y="-125" font-family="Helvetica,sans-Serif" font-size="10.00">itkDefaultVectorPixelAccessor.h</text>
</a>
</g>
</g>
<!-- Node18&#45;&gt;Node19 -->
<g id="edge20" class="edge">
<title>Node18&#45;&gt;Node19</title>
<path fill="none" stroke="midnightblue" d="M1011.5,-179.4C1011.5,-170.06 1011.5,-157.71 1011.5,-147.52"/>
<polygon fill="midnightblue" stroke="midnightblue" points="1015,-147.19 1011.5,-137.19 1008,-147.19 1015,-147.19"/>
</g>
<!-- Node20&#45;&gt;Node7 -->
<g id="edge22" class="edge">
<title>Node20&#45;&gt;Node7</title>
<path fill="none" stroke="midnightblue" d="M1255.11,-180.18C1257.94,-179.76 1260.75,-179.37 1263.5,-179 1432.51,-156.31 1478.07,-175.35 1645.5,-143 1649.98,-142.13 1654.64,-141.03 1659.23,-139.82"/>
<polygon fill="midnightblue" stroke="midnightblue" points="1660.37,-143.13 1669.05,-137.05 1658.47,-136.4 1660.37,-143.13"/>
</g>
<!-- Node21 -->
<g id="node21" class="node">
<title>Node21</title>
<g id="a_node21"><a xlink:title=" ">
<polygon fill="white" stroke="#bfbfbf" points="1115.5,-118 1115.5,-137 1263.5,-137 1263.5,-118 1115.5,-118"/>
<text text-anchor="middle" x="1189.5" y="-125" font-family="Helvetica,sans-Serif" font-size="10.00">itkImportImageContainer.h</text>
</a>
</g>
</g>
<!-- Node20&#45;&gt;Node21 -->
<g id="edge23" class="edge">
<title>Node20&#45;&gt;Node21</title>
<path fill="none" stroke="midnightblue" d="M1182.45,-179.4C1183.76,-169.96 1185.49,-157.45 1186.91,-147.19"/>
<polygon fill="midnightblue" stroke="midnightblue" points="1190.39,-147.58 1188.3,-137.19 1183.46,-146.62 1190.39,-147.58"/>
</g>
<!-- Node22&#45;&gt;Node7 -->
<g id="edge25" class="edge">
<title>Node22&#45;&gt;Node7</title>
<path fill="none" stroke="midnightblue" d="M1396.8,-184.95C1408.19,-182.99 1420.27,-180.91 1431.5,-179 1526.58,-162.8 1551.53,-164.72 1645.5,-143 1649.58,-142.06 1653.83,-140.97 1658.04,-139.82"/>
<polygon fill="midnightblue" stroke="midnightblue" points="1659.04,-143.17 1667.7,-137.07 1657.12,-136.44 1659.04,-143.17"/>
</g>
<!-- Node23 -->
<g id="node23" class="node">
<title>Node23</title>
<g id="a_node23"><a xlink:title=" ">
<polygon fill="white" stroke="#bfbfbf" points="1301,-118 1301,-137 1394,-137 1394,-118 1301,-118"/>
<text text-anchor="middle" x="1347.5" y="-125" font-family="Helvetica,sans-Serif" font-size="10.00">itkImageBase.h</text>
</a>
</g>
</g>
<!-- Node22&#45;&gt;Node23 -->
<g id="edge26" class="edge">
<title>Node22&#45;&gt;Node23</title>
<path fill="none" stroke="midnightblue" d="M1347.5,-184.73C1347.5,-175.18 1347.5,-159.62 1347.5,-147.28"/>
<polygon fill="midnightblue" stroke="midnightblue" points="1351,-147.13 1347.5,-137.13 1344,-147.13 1351,-147.13"/>
</g>
<!-- Node24&#45;&gt;Node7 -->
<g id="edge28" class="edge">
<title>Node24&#45;&gt;Node7</title>
<path fill="none" stroke="midnightblue" d="M1528.86,-184.87C1562.49,-173.42 1621.98,-153.18 1659.76,-140.32"/>
<polygon fill="midnightblue" stroke="midnightblue" points="1661,-143.6 1669.34,-137.06 1658.74,-136.97 1661,-143.6"/>
</g>
<!-- Node25 -->
<g id="node25" class="node">
<title>Node25</title>
<g id="a_node25"><a xlink:title=" ">
<polygon fill="white" stroke="#bfbfbf" points="1463,-118 1463,-137 1532,-137 1532,-118 1463,-118"/>
<text text-anchor="middle" x="1497.5" y="-125" font-family="Helvetica,sans-Serif" font-size="10.00">itkImage.h</text>
</a>
</g>
</g>
<!-- Node24&#45;&gt;Node25 -->
<g id="edge29" class="edge">
<title>Node24&#45;&gt;Node25</title>
<path fill="none" stroke="midnightblue" d="M1502.69,-184.73C1501.81,-175.18 1500.37,-159.62 1499.23,-147.28"/>
<polygon fill="midnightblue" stroke="midnightblue" points="1502.7,-146.76 1498.3,-137.13 1495.73,-147.41 1502.7,-146.76"/>
</g>
<!-- Node26&#45;&gt;Node7 -->
<g id="edge31" class="edge">
<title>Node26&#45;&gt;Node7</title>
<path fill="none" stroke="midnightblue" d="M1661.62,-184.73C1667.44,-174.79 1677.06,-158.34 1684.39,-145.79"/>
<polygon fill="midnightblue" stroke="midnightblue" points="1687.43,-147.53 1689.46,-137.13 1681.39,-143.99 1687.43,-147.53"/>
</g>
<!-- Node27 -->
<g id="node27" class="node">
<title>Node27</title>
<g id="a_node27"><a xlink:title=" ">
<polygon fill="white" stroke="#bfbfbf" points="1550.5,-118 1550.5,-137 1636.5,-137 1636.5,-118 1550.5,-118"/>
<text text-anchor="middle" x="1593.5" y="-125" font-family="Helvetica,sans-Serif" font-size="10.00">itkLabelMap.h</text>
</a>
</g>
</g>
<!-- Node26&#45;&gt;Node27 -->
<g id="edge32" class="edge">
<title>Node26&#45;&gt;Node27</title>
<path fill="none" stroke="midnightblue" d="M1648,-184.73C1637.99,-174.4 1621.16,-157.04 1608.84,-144.33"/>
<polygon fill="midnightblue" stroke="midnightblue" points="1611.33,-141.87 1601.86,-137.13 1606.31,-146.74 1611.33,-141.87"/>
</g>
<!-- Node28&#45;&gt;Node5 -->
<g id="edge35" class="edge">
<title>Node28&#45;&gt;Node5</title>
<path fill="none" stroke="midnightblue" d="M488.35,-184.73C480.09,-174.6 466.3,-157.69 456,-145.06"/>
<polygon fill="midnightblue" stroke="midnightblue" points="458.57,-142.67 449.53,-137.13 453.14,-147.09 458.57,-142.67"/>
</g>
<!-- Node28&#45;&gt;Node7 -->
<g id="edge34" class="edge">
<title>Node28&#45;&gt;Node7</title>
<path fill="none" stroke="midnightblue" d="M540.12,-185C553.97,-182.67 569.32,-180.4 583.5,-179 1053.48,-132.51 1179.32,-218.61 1645.5,-143 1650.34,-142.22 1655.36,-141.1 1660.28,-139.82"/>
<polygon fill="midnightblue" stroke="midnightblue" points="1661.44,-143.13 1670.11,-137.04 1659.53,-136.39 1661.44,-143.13"/>
</g>
<!-- Node29&#45;&gt;Node7 -->
<g id="edge37" class="edge">
<title>Node29&#45;&gt;Node7</title>
<path fill="none" stroke="midnightblue" d="M1791.59,-179.4C1770.22,-168.19 1740.55,-152.64 1719.65,-141.69"/>
<polygon fill="midnightblue" stroke="midnightblue" points="1721.21,-138.55 1710.73,-137.01 1717.96,-144.75 1721.21,-138.55"/>
</g>
<!-- Node30 -->
<g id="node30" class="node">
<title>Node30</title>
<g id="a_node30"><a xlink:title=" ">
<polygon fill="white" stroke="#bfbfbf" points="1752.5,-118 1752.5,-137 1884.5,-137 1884.5,-118 1752.5,-118"/>
<text text-anchor="middle" x="1818.5" y="-125" font-family="Helvetica,sans-Serif" font-size="10.00">itkImageConstIterator.h</text>
</a>
</g>
</g>
<!-- Node29&#45;&gt;Node30 -->
<g id="edge38" class="edge">
<title>Node29&#45;&gt;Node30</title>
<path fill="none" stroke="midnightblue" d="M1818.5,-179.4C1818.5,-170.06 1818.5,-157.71 1818.5,-147.52"/>
<polygon fill="midnightblue" stroke="midnightblue" points="1822,-147.19 1818.5,-137.19 1815,-147.19 1822,-147.19"/>
</g>
<!-- Node31&#45;&gt;Node7 -->
<g id="edge40" class="edge">
<title>Node31&#45;&gt;Node7</title>
<path fill="none" stroke="midnightblue" d="M1909.77,-179.47C1862,-170.09 1798.84,-156.96 1743.5,-143 1739.64,-142.03 1735.63,-140.95 1731.64,-139.83"/>
<polygon fill="midnightblue" stroke="midnightblue" points="1732.44,-136.42 1721.86,-137.02 1730.51,-143.15 1732.44,-136.42"/>
</g>
<!-- Node32 -->
<g id="node32" class="node">
<title>Node32</title>
<g id="a_node32"><a xlink:title=" ">
<polygon fill="white" stroke="#bfbfbf" points="1902.5,-118 1902.5,-137 2068.5,-137 2068.5,-118 1902.5,-118"/>
<text text-anchor="middle" x="1985.5" y="-125" font-family="Helvetica,sans-Serif" font-size="10.00">itkImageRegionConstIterator.h</text>
</a>
</g>
</g>
<!-- Node31&#45;&gt;Node32 -->
<g id="edge41" class="edge">
<title>Node31&#45;&gt;Node32</title>
<path fill="none" stroke="midnightblue" d="M1984.72,-179.4C1984.86,-170.06 1985.05,-157.71 1985.21,-147.52"/>
<polygon fill="midnightblue" stroke="midnightblue" points="1988.71,-147.25 1985.37,-137.19 1981.71,-147.14 1988.71,-147.25"/>
</g>
<!-- Node33&#45;&gt;Node7 -->
<g id="edge43" class="edge">
<title>Node33&#45;&gt;Node7</title>
<path fill="none" stroke="midnightblue" d="M2078.38,-180.26C2075.38,-179.82 2072.41,-179.4 2069.5,-179 1925.09,-159.14 1886.4,-171.8 1743.5,-143 1739.08,-142.11 1734.47,-141 1729.94,-139.79"/>
<polygon fill="midnightblue" stroke="midnightblue" points="1730.8,-136.4 1720.22,-137.05 1728.89,-143.13 1730.8,-136.4"/>
</g>
<!-- Node34 -->
<g id="node34" class="node">
<title>Node34</title>
<g id="a_node34"><a xlink:title=" ">
<polygon fill="white" stroke="#bfbfbf" points="2087,-118 2087,-137 2260,-137 2260,-118 2087,-118"/>
<text text-anchor="middle" x="2173.5" y="-125" font-family="Helvetica,sans-Serif" font-size="10.00">itkImageScanlineConstIterator.h</text>
</a>
</g>
</g>
<!-- Node33&#45;&gt;Node34 -->
<g id="edge44" class="edge">
<title>Node33&#45;&gt;Node34</title>
<path fill="none" stroke="midnightblue" d="M2160.97,-179.4C2163.29,-169.96 2166.37,-157.45 2168.9,-147.19"/>
<polygon fill="midnightblue" stroke="midnightblue" points="2172.37,-147.74 2171.36,-137.19 2165.57,-146.07 2172.37,-147.74"/>
</g>
<!-- Node35&#45;&gt;Node7 -->
<g id="edge46" class="edge">
<title>Node35&#45;&gt;Node7</title>
<path fill="none" stroke="midnightblue" d="M2254.39,-180.11C2251.39,-179.72 2248.42,-179.34 2245.5,-179 2023.36,-152.79 1963.58,-182.97 1743.5,-143 1738.78,-142.14 1733.88,-141 1729.07,-139.74"/>
<polygon fill="midnightblue" stroke="midnightblue" points="1730,-136.36 1719.43,-137.01 1728.1,-143.1 1730,-136.36"/>
</g>
<!-- Node36 -->
<g id="node36" class="node">
<title>Node36</title>
<g id="a_node36"><a xlink:title=" ">
<polygon fill="white" stroke="#bfbfbf" points="2278.5,-118 2278.5,-137 2424.5,-137 2424.5,-118 2278.5,-118"/>
<text text-anchor="middle" x="2351.5" y="-125" font-family="Helvetica,sans-Serif" font-size="10.00">itkImageScanlineIterator.h</text>
</a>
</g>
</g>
<!-- Node35&#45;&gt;Node36 -->
<g id="edge47" class="edge">
<title>Node35&#45;&gt;Node36</title>
<path fill="none" stroke="midnightblue" d="M2337.41,-179.4C2340.05,-169.86 2343.56,-157.18 2346.42,-146.86"/>
<polygon fill="midnightblue" stroke="midnightblue" points="2349.8,-147.77 2349.09,-137.19 2343.05,-145.9 2349.8,-147.77"/>
</g>
<!-- Node37&#45;&gt;Node7 -->
<g id="edge49" class="edge">
<title>Node37&#45;&gt;Node7</title>
<path fill="none" stroke="midnightblue" d="M2463.5,-184.94C2450.01,-182.69 2435.2,-180.49 2421.5,-179 2121.51,-146.42 2040.89,-194.16 1743.5,-143 1738.72,-142.18 1733.76,-141.05 1728.89,-139.78"/>
<polygon fill="midnightblue" stroke="midnightblue" points="1729.74,-136.38 1719.16,-137.02 1727.83,-143.11 1729.74,-136.38"/>
</g>
<!-- Node38 -->
<g id="node38" class="node">
<title>Node38</title>
<g id="a_node38"><a xlink:title=" ">
<polygon fill="white" stroke="#bfbfbf" points="2458.5,-118 2458.5,-137 2560.5,-137 2560.5,-118 2458.5,-118"/>
<text text-anchor="middle" x="2509.5" y="-125" font-family="Helvetica,sans-Serif" font-size="10.00">itkImageSource.h</text>
</a>
</g>
</g>
<!-- Node37&#45;&gt;Node38 -->
<g id="edge50" class="edge">
<title>Node37&#45;&gt;Node38</title>
<path fill="none" stroke="midnightblue" d="M2509.5,-184.73C2509.5,-175.18 2509.5,-159.62 2509.5,-147.28"/>
<polygon fill="midnightblue" stroke="midnightblue" points="2513,-147.13 2509.5,-137.13 2506,-147.13 2513,-147.13"/>
</g>
<!-- Node39&#45;&gt;Node7 -->
<g id="edge52" class="edge">
<title>Node39&#45;&gt;Node7</title>
<path fill="none" stroke="midnightblue" d="M2606.37,-179.89C2603.72,-179.57 2601.09,-179.27 2598.5,-179 2220.2,-139.66 2118.68,-205.43 1743.5,-143 1738.67,-142.2 1733.64,-141.06 1728.73,-139.78"/>
<polygon fill="midnightblue" stroke="midnightblue" points="1729.48,-136.36 1718.9,-137 1727.57,-143.09 1729.48,-136.36"/>
</g>
<!-- Node40 -->
<g id="node40" class="node">
<title>Node40</title>
<g id="a_node40"><a xlink:title=" ">
<polygon fill="white" stroke="#bfbfbf" points="2618.5,-118 2618.5,-137 2752.5,-137 2752.5,-118 2618.5,-118"/>
<text text-anchor="middle" x="2685.5" y="-125" font-family="Helvetica,sans-Serif" font-size="10.00">itkImageToImageFilter.h</text>
</a>
</g>
</g>
<!-- Node39&#45;&gt;Node40 -->
<g id="edge53" class="edge">
<title>Node39&#45;&gt;Node40</title>
<path fill="none" stroke="midnightblue" d="M2685.5,-179.4C2685.5,-170.06 2685.5,-157.71 2685.5,-147.52"/>
<polygon fill="midnightblue" stroke="midnightblue" points="2689,-147.19 2685.5,-137.19 2682,-147.19 2689,-147.19"/>
</g>
<!-- Node41&#45;&gt;Node7 -->
<g id="edge55" class="edge">
<title>Node41&#45;&gt;Node7</title>
<path fill="none" stroke="midnightblue" d="M2782.11,-179.97C2779.21,-179.62 2776.33,-179.29 2773.5,-179 2317.82,-132.38 2195.61,-216.57 1743.5,-143 1738.66,-142.21 1733.64,-141.09 1728.72,-139.82"/>
<polygon fill="midnightblue" stroke="midnightblue" points="1729.47,-136.39 1718.89,-137.04 1727.57,-143.13 1729.47,-136.39"/>
</g>
<!-- Node42 -->
<g id="node42" class="node">
<title>Node42</title>
<g id="a_node42"><a xlink:title=" ">
<polygon fill="white" stroke="#bfbfbf" points="2794.5,-118 2794.5,-137 2922.5,-137 2922.5,-118 2794.5,-118"/>
<text text-anchor="middle" x="2858.5" y="-125" font-family="Helvetica,sans-Serif" font-size="10.00">itkInPlaceImageFilter.h</text>
</a>
</g>
</g>
<!-- Node41&#45;&gt;Node42 -->
<g id="edge56" class="edge">
<title>Node41&#45;&gt;Node42</title>
<path fill="none" stroke="midnightblue" d="M2858.5,-179.4C2858.5,-170.06 2858.5,-157.71 2858.5,-147.52"/>
<polygon fill="midnightblue" stroke="midnightblue" points="2862,-147.19 2858.5,-137.19 2855,-147.19 2862,-147.19"/>
</g>
<!-- Node43&#45;&gt;Node7 -->
<g id="edge58" class="edge">
<title>Node43&#45;&gt;Node7</title>
<path fill="none" stroke="midnightblue" d="M2952.13,-179.9C2949.22,-179.57 2946.34,-179.27 2943.5,-179 2412.33,-128.46 2270.36,-227.4 1743.5,-143 1738.66,-142.23 1733.63,-141.11 1728.72,-139.84"/>
<polygon fill="midnightblue" stroke="midnightblue" points="1729.46,-136.41 1718.89,-137.06 1727.56,-143.15 1729.46,-136.41"/>
</g>
<!-- Node44 -->
<g id="node44" class="node">
<title>Node44</title>
<g id="a_node44"><a xlink:title=" ">
<polygon fill="white" stroke="#bfbfbf" points="2964,-118 2964,-137 3103,-137 3103,-118 2964,-118"/>
<text text-anchor="middle" x="3033.5" y="-125" font-family="Helvetica,sans-Serif" font-size="10.00">itkComposeImageFilter.h</text>
</a>
</g>
</g>
<!-- Node43&#45;&gt;Node44 -->
<g id="edge59" class="edge">
<title>Node43&#45;&gt;Node44</title>
<path fill="none" stroke="midnightblue" d="M3033.5,-179.4C3033.5,-170.06 3033.5,-157.71 3033.5,-147.52"/>
<polygon fill="midnightblue" stroke="midnightblue" points="3037,-147.19 3033.5,-137.19 3030,-147.19 3037,-147.19"/>
</g>
<!-- Node45&#45;&gt;Node7 -->
<g id="edge61" class="edge">
<title>Node45&#45;&gt;Node7</title>
<path fill="none" stroke="midnightblue" d="M3132.81,-180.05C3129.67,-179.66 3126.56,-179.31 3123.5,-179 2818.25,-148.52 2046.5,-190.93 1743.5,-143 1738.61,-142.23 1733.52,-141.1 1728.56,-139.81"/>
<polygon fill="midnightblue" stroke="midnightblue" points="1729.21,-136.36 1718.64,-137.01 1727.31,-143.1 1729.21,-136.36"/>
</g>
<!-- Node46 -->
<g id="node46" class="node">
<title>Node46</title>
<g id="a_node46"><a xlink:title=" ">
<polygon fill="white" stroke="#bfbfbf" points="3129.5,-112.5 3129.5,-142.5 3283.5,-142.5 3283.5,-112.5 3129.5,-112.5"/>
<text text-anchor="start" x="3137.5" y="-130.5" font-family="Helvetica,sans-Serif" font-size="10.00">itkVectorIndexSelectionCast</text>
<text text-anchor="middle" x="3206.5" y="-119.5" font-family="Helvetica,sans-Serif" font-size="10.00">ImageFilter.h</text>
</a>
</g>
</g>
<!-- Node45&#45;&gt;Node46 -->
<g id="edge62" class="edge">
<title>Node45&#45;&gt;Node46</title>
<path fill="none" stroke="midnightblue" d="M3206.5,-179.4C3206.5,-171.64 3206.5,-161.81 3206.5,-152.86"/>
<polygon fill="midnightblue" stroke="midnightblue" points="3210,-152.58 3206.5,-142.58 3203,-152.58 3210,-152.58"/>
</g>
</g>
</svg>
        <g id="navigator" transform="translate(0 0)" fill="#404254">
                <rect fill="#f2f5e9" fill-opacity="0.5" stroke="#606060" stroke-width=".5" x="0" y="0" width="60" height="60"/>
                <use id="zoomplus" xlink:href="#zoomPlus" x="17" y="9" onmousedown="handleZoom(evt,'in')"/>
                <use id="zoomminus" xlink:href="#zoomMin" x="42" y="9" onmousedown="handleZoom(evt,'out')"/>
                <use id="reset" xlink:href="#resetDef" x="30" y="36" onmousedown="handleReset()"/>
                <g id="arrowUp" xlink:href="#dirArrow" transform="translate(30 24)" onmousedown="handlePan(0,-1)">
                  <use xlink:href="#rim" fill="#404040">
                        <set attributeName="fill" to="#808080" begin="arrowUp.mouseover" end="arrowUp.mouseout"/>
                  </use>
                  <path fill="none" stroke="white" stroke-width="1.5" d="M0,-3.0v7 M-2.5,-0.5L0,-3.0L2.5,-0.5"/>
                </g>
                <g id="arrowRight" xlink:href="#dirArrow" transform="rotate(90) translate(36 -43)" onmousedown="handlePan(1,0)">
                  <use xlink:href="#rim" fill="#404040">
                        <set attributeName="fill" to="#808080" begin="arrowRight.mouseover" end="arrowRight.mouseout"/>
                  </use>
                  <path fill="none" stroke="white" stroke-width="1.5" d="M0,-3.0v7 M-2.5,-0.5L0,-3.0L2.5,-0.5"/>
                </g>
                <g id="arrowDown" xlink:href="#dirArrow" transform="rotate(180) translate(-30 -48)" onmousedown="handlePan(0,1)">
                  <use xlink:href="#rim" fill="#404040">
                        <set attributeName="fill" to="#808080" begin="arrowDown.mouseover" end="arrowDown.mouseout"/>
                  </use>
                  <path fill="none" stroke="white" stroke-width="1.5" d="M0,-3.0v7 M-2.5,-0.5L0,-3.0L2.5,-0.5"/>
                </g>
                <g id="arrowLeft" xlink:href="#dirArrow" transform="rotate(270) translate(-36 17)" onmousedown="handlePan(-1,0)">
                  <use xlink:href="#rim" fill="#404040">
                        <set attributeName="fill" to="#808080" begin="arrowLeft.mouseover" end="arrowLeft.mouseout"/>
                  </use>
                  <path fill="none" stroke="white" stroke-width="1.5" d="M0,-3.0v7 M-2.5,-0.5L0,-3.0L2.5,-0.5"/>
                </g>
        </g>
        <svg viewBox="0 0 15 15" width="100%" height="30px" preserveAspectRatio="xMaxYMin meet">
         <g id="arrow_out" transform="scale(0.3 0.3)">
          <a xlink:href="sitkExplicitITK_8h__incl_org.svg" target="_base">
           <rect id="button" ry="5" rx="5" y="6" x="6" height="38" width="38"
                fill="#f2f5e9" fill-opacity="0.5" stroke="#606060" stroke-width="1.0"/>
           <path id="arrow"
             d="M 11.500037,31.436501 C 11.940474,20.09759 22.043105,11.32322 32.158766,21.979434 L 37.068811,17.246167 C 37.068811,17.246167 37.088388,32 37.088388,32 L 22.160133,31.978069 C 22.160133,31.978069 26.997745,27.140456 26.997745,27.140456 C 18.528582,18.264221 13.291696,25.230495 11.500037,31.436501 z"
             style="fill:#404040;"/>
          </a>
         </g>
        </svg>
</svg>
