<?xml version="1.0" encoding="UTF-8" standalone="no"?>
<!DOCTYPE svg PUBLIC "-//W3C//DTD SVG 1.1//EN"
 "http://www.w3.org/Graphics/SVG/1.1/DTD/svg11.dtd">
<!-- Generated by graphviz version 2.43.0 (0)
 -->
<!-- Title: sitkTransformixImageFilterImpl.h Pages: 1 -->
<!--zoomable 498 -->
<svg id="main" version="1.1" xmlns="http://www.w3.org/2000/svg" xmlns:xlink="http://www.w3.org/1999/xlink" xml:space="preserve" onload="init(evt)">
<style type="text/css"><![CDATA[
.edge:hover path { stroke: red; }
.edge:hover polygon { stroke: red; fill: red; }
]]></style>
<script type="text/javascript"><![CDATA[
var edges = document.getElementsByTagName('g');
if (edges && edges.length) {
  for (var i=0;i<edges.length;i++) {
    if (edges[i].id.substr(0,4)=='edge') {
      edges[i].setAttribute('class','edge');
    }
  }
}
]]></script>
        <defs>
                <circle id="rim" cx="0" cy="0" r="7"/>
                <circle id="rim2" cx="0" cy="0" r="3.5"/>
                <g id="zoomPlus">
                        <use xlink:href="#rim" fill="#404040">
                                <set attributeName="fill" to="#808080" begin="zoomplus.mouseover" end="zoomplus.mouseout"/>
                        </use>
                        <path d="M-4,0h8M0,-4v8" fill="none" stroke="white" stroke-width="1.5" pointer-events="none"/>
                </g>
                <g id="zoomMin">
                        <use xlink:href="#rim" fill="#404040">
                                <set attributeName="fill" to="#808080" begin="zoomminus.mouseover" end="zoomminus.mouseout"/>
                        </use>
                        <path d="M-4,0h8" fill="none" stroke="white" stroke-width="1.5" pointer-events="none"/>
                </g>
                <g id="dirArrow">
                        <path fill="none" stroke="white" stroke-width="1.5" d="M0,-3.0v7 M-2.5,-0.5L0,-3.0L2.5,-0.5"/>
                </g>
               <g id="resetDef">
                       <use xlink:href="#rim2" fill="#404040">
                               <set attributeName="fill" to="#808080" begin="reset.mouseover" end="reset.mouseout"/>
                       </use>
               </g>
        </defs>

<script type="text/javascript">
var viewWidth = 1779;
var viewHeight = 498;
var sectionId = 'dynsection-0';
</script>
<script xlink:href="svgpan.js"/>
<svg id="graph" class="graph">
<g id="viewport">
<title>sitkTransformixImageFilterImpl.h</title>
<polygon fill="white" stroke="transparent" points="-4,4 -4,-494 1774.5,-494 1774.5,4 -4,4"/>
<!-- Node1 -->
<g id="node1" class="node">
<title>Node1</title>
<g id="a_node1"><a xlink:title=" ">
<polygon fill="#bfbfbf" stroke="black" points="830.5,-459.5 830.5,-489.5 978.5,-489.5 978.5,-459.5 830.5,-459.5"/>
<text text-anchor="start" x="838.5" y="-477.5" font-family="Helvetica,sans-Serif" font-size="10.00">sitkTransformixImageFilter</text>
<text text-anchor="middle" x="904.5" y="-466.5" font-family="Helvetica,sans-Serif" font-size="10.00">Impl.h</text>
</a>
</g>
</g>
<!-- Node2 -->
<g id="node2" class="node">
<title>Node2</title>
<g id="a_node2"><a xlink:href="sitkTransformixImageFilter_8h.html" target="_top" xlink:title=" ">
<polygon fill="white" stroke="black" points="459.5,-403.5 459.5,-422.5 615.5,-422.5 615.5,-403.5 459.5,-403.5"/>
<text text-anchor="middle" x="537.5" y="-410.5" font-family="Helvetica,sans-Serif" font-size="10.00">sitkTransformixImageFilter.h</text>
</a>
</g>
</g>
<!-- Node1&#45;&gt;Node2 -->
<g id="edge1" class="edge">
<title>Node1&#45;&gt;Node2</title>
<path fill="none" stroke="midnightblue" d="M830.23,-461.46C762.54,-450.48 663.66,-434.45 599.94,-424.12"/>
<polygon fill="midnightblue" stroke="midnightblue" points="600.46,-420.66 590.02,-422.52 599.34,-427.57 600.46,-420.66"/>
</g>
<!-- Node36 -->
<g id="node36" class="node">
<title>Node36</title>
<g id="a_node36"><a xlink:href="sitkMemberFunctionFactory_8h.html" target="_top" xlink:title=" ">
<polygon fill="white" stroke="black" points="1036,-347.5 1036,-366.5 1195,-366.5 1195,-347.5 1036,-347.5"/>
<text text-anchor="middle" x="1115.5" y="-354.5" font-family="Helvetica,sans-Serif" font-size="10.00">sitkMemberFunctionFactory.h</text>
</a>
</g>
</g>
<!-- Node1&#45;&gt;Node36 -->
<g id="edge60" class="edge">
<title>Node1&#45;&gt;Node36</title>
<path fill="none" stroke="midnightblue" d="M892.09,-459.37C880.17,-444.02 865.84,-419.51 879.5,-403 898.13,-380.48 967.09,-369.13 1025.69,-363.47"/>
<polygon fill="midnightblue" stroke="midnightblue" points="1026.11,-366.95 1035.74,-362.54 1025.46,-359.98 1026.11,-366.95"/>
</g>
<!-- Node38 -->
<g id="node38" class="node">
<title>Node38</title>
<g id="a_node38"><a xlink:title=" ">
<polygon fill="white" stroke="#bfbfbf" points="888.5,-403.5 888.5,-422.5 1008.5,-422.5 1008.5,-403.5 888.5,-403.5"/>
<text text-anchor="middle" x="948.5" y="-410.5" font-family="Helvetica,sans-Serif" font-size="10.00">itkTransformixFilter.h</text>
</a>
</g>
</g>
<!-- Node1&#45;&gt;Node38 -->
<g id="edge69" class="edge">
<title>Node1&#45;&gt;Node38</title>
<path fill="none" stroke="midnightblue" d="M914.93,-459.4C921.26,-450.84 929.37,-439.87 936.03,-430.86"/>
<polygon fill="midnightblue" stroke="midnightblue" points="938.97,-432.78 942.1,-422.66 933.34,-428.62 938.97,-432.78"/>
</g>
<!-- Node39 -->
<g id="node39" class="node">
<title>Node39</title>
<g id="a_node39"><a xlink:title=" ">
<polygon fill="white" stroke="#bfbfbf" points="1026.5,-403.5 1026.5,-422.5 1148.5,-422.5 1148.5,-403.5 1026.5,-403.5"/>
<text text-anchor="middle" x="1087.5" y="-410.5" font-family="Helvetica,sans-Serif" font-size="10.00">elxParameterObject.h</text>
</a>
</g>
</g>
<!-- Node1&#45;&gt;Node39 -->
<g id="edge70" class="edge">
<title>Node1&#45;&gt;Node39</title>
<path fill="none" stroke="midnightblue" d="M947.87,-459.4C979.49,-449.12 1021.83,-435.35 1051.57,-425.68"/>
<polygon fill="midnightblue" stroke="midnightblue" points="1052.71,-428.99 1061.14,-422.57 1050.55,-422.33 1052.71,-428.99"/>
</g>
<!-- Node3 -->
<g id="node3" class="node">
<title>Node3</title>
<g id="a_node3"><a xlink:href="sitkElastixTransformixWrappers_8h.html" target="_top" xlink:title=" ">
<polygon fill="white" stroke="black" points="0,-347.5 0,-366.5 181,-366.5 181,-347.5 0,-347.5"/>
<text text-anchor="middle" x="90.5" y="-354.5" font-family="Helvetica,sans-Serif" font-size="10.00">sitkElastixTransformixWrappers.h</text>
</a>
</g>
</g>
<!-- Node2&#45;&gt;Node3 -->
<g id="edge2" class="edge">
<title>Node2&#45;&gt;Node3</title>
<path fill="none" stroke="midnightblue" d="M466.67,-403.44C386.24,-393.73 255.28,-377.91 171.03,-367.73"/>
<polygon fill="midnightblue" stroke="midnightblue" points="171.34,-364.24 161,-366.52 170.51,-371.19 171.34,-364.24"/>
</g>
<!-- Node11 -->
<g id="node11" class="node">
<title>Node11</title>
<g id="a_node11"><a xlink:href="sitkCommon_8h.html" target="_top" xlink:title=" ">
<polygon fill="white" stroke="black" points="533.5,-112.5 533.5,-131.5 621.5,-131.5 621.5,-112.5 533.5,-112.5"/>
<text text-anchor="middle" x="577.5" y="-119.5" font-family="Helvetica,sans-Serif" font-size="10.00">sitkCommon.h</text>
</a>
</g>
</g>
<!-- Node2&#45;&gt;Node11 -->
<g id="edge10" class="edge">
<title>Node2&#45;&gt;Node11</title>
<path fill="none" stroke="midnightblue" d="M471.52,-403.5C375.74,-389.28 209.5,-356.73 209.5,-302 209.5,-302 209.5,-302 209.5,-238.5 209.5,-173.52 421.02,-140.68 523.33,-128.6"/>
<polygon fill="midnightblue" stroke="midnightblue" points="523.94,-132.05 533.48,-127.43 523.14,-125.1 523.94,-132.05"/>
</g>
<!-- Node12 -->
<g id="node12" class="node">
<title>Node12</title>
<g id="a_node12"><a xlink:href="sitkImage_8h.html" target="_top" xlink:title=" ">
<polygon fill="white" stroke="black" points="500.5,-347.5 500.5,-366.5 574.5,-366.5 574.5,-347.5 500.5,-347.5"/>
<text text-anchor="middle" x="537.5" y="-354.5" font-family="Helvetica,sans-Serif" font-size="10.00">sitkImage.h</text>
</a>
</g>
</g>
<!-- Node2&#45;&gt;Node12 -->
<g id="edge12" class="edge">
<title>Node2&#45;&gt;Node12</title>
<path fill="none" stroke="midnightblue" d="M537.5,-403.08C537.5,-396.01 537.5,-385.86 537.5,-376.99"/>
<polygon fill="midnightblue" stroke="midnightblue" points="541,-376.75 537.5,-366.75 534,-376.75 541,-376.75"/>
</g>
<!-- Node16 -->
<g id="node16" class="node">
<title>Node16</title>
<g id="a_node16"><a xlink:title=" ">
<polygon fill="white" stroke="#bfbfbf" points="238,-230 238,-249 285,-249 285,-230 238,-230"/>
<text text-anchor="middle" x="261.5" y="-237" font-family="Helvetica,sans-Serif" font-size="10.00">vector</text>
</a>
</g>
</g>
<!-- Node2&#45;&gt;Node16 -->
<g id="edge59" class="edge">
<title>Node2&#45;&gt;Node16</title>
<path fill="none" stroke="midnightblue" d="M480.08,-403.49C422.95,-392.1 336.5,-366.46 284.5,-311 271.18,-296.79 265.57,-274.76 263.21,-259.11"/>
<polygon fill="midnightblue" stroke="midnightblue" points="266.67,-258.55 262,-249.04 259.72,-259.39 266.67,-258.55"/>
</g>
<!-- Node32 -->
<g id="node32" class="node">
<title>Node32</title>
<g id="a_node32"><a xlink:title=" ">
<polygon fill="white" stroke="#bfbfbf" points="791.5,-168.5 791.5,-187.5 835.5,-187.5 835.5,-168.5 791.5,-168.5"/>
<text text-anchor="middle" x="813.5" y="-175.5" font-family="Helvetica,sans-Serif" font-size="10.00">string</text>
</a>
</g>
</g>
<!-- Node2&#45;&gt;Node32 -->
<g id="edge58" class="edge">
<title>Node2&#45;&gt;Node32</title>
<path fill="none" stroke="midnightblue" d="M615.44,-403.48C702.77,-389.31 840.47,-352.03 904.5,-255 912.09,-243.5 911.77,-235.7 904.5,-224 897.67,-213 868.67,-199.79 845.23,-190.54"/>
<polygon fill="midnightblue" stroke="midnightblue" points="846.19,-187.16 835.6,-186.84 843.67,-193.69 846.19,-187.16"/>
</g>
<!-- Node35 -->
<g id="node35" class="node">
<title>Node35</title>
<g id="a_node35"><a xlink:title=" ">
<polygon fill="white" stroke="#bfbfbf" points="592.5,-347.5 592.5,-366.5 630.5,-366.5 630.5,-347.5 592.5,-347.5"/>
<text text-anchor="middle" x="611.5" y="-354.5" font-family="Helvetica,sans-Serif" font-size="10.00">map</text>
</a>
</g>
</g>
<!-- Node2&#45;&gt;Node35 -->
<g id="edge57" class="edge">
<title>Node2&#45;&gt;Node35</title>
<path fill="none" stroke="midnightblue" d="M549.39,-403.32C560.65,-395.11 577.79,-382.6 591.21,-372.81"/>
<polygon fill="midnightblue" stroke="midnightblue" points="593.38,-375.56 599.39,-366.83 589.25,-369.9 593.38,-375.56"/>
</g>
<!-- Node4 -->
<g id="node4" class="node">
<title>Node4</title>
<g id="a_node4"><a xlink:href="sitkMacro_8h.html" target="_top" xlink:title=" ">
<polygon fill="white" stroke="black" points="651.5,-56.5 651.5,-75.5 725.5,-75.5 725.5,-56.5 651.5,-56.5"/>
<text text-anchor="middle" x="688.5" y="-63.5" font-family="Helvetica,sans-Serif" font-size="10.00">sitkMacro.h</text>
</a>
</g>
</g>
<!-- Node3&#45;&gt;Node4 -->
<g id="edge3" class="edge">
<title>Node3&#45;&gt;Node4</title>
<path fill="none" stroke="midnightblue" d="M95.73,-347.37C106.57,-328.63 130.5,-282.52 130.5,-240.5 130.5,-240.5 130.5,-240.5 130.5,-177 130.5,-73.19 506.96,-65.7 641.45,-66.34"/>
<polygon fill="midnightblue" stroke="midnightblue" points="641.43,-69.84 651.46,-66.4 641.48,-62.84 641.43,-69.84"/>
</g>
<!-- Node5 -->
<g id="node5" class="node">
<title>Node5</title>
<g id="a_node5"><a xlink:title=" ">
<polygon fill="white" stroke="#bfbfbf" points="883,-0.5 883,-19.5 936,-19.5 936,-0.5 883,-0.5"/>
<text text-anchor="middle" x="909.5" y="-7.5" font-family="Helvetica,sans-Serif" font-size="10.00">stdint.h</text>
</a>
</g>
</g>
<!-- Node4&#45;&gt;Node5 -->
<g id="edge4" class="edge">
<title>Node4&#45;&gt;Node5</title>
<path fill="none" stroke="midnightblue" d="M723.52,-56.44C764.36,-46.46 831.55,-30.05 873.01,-19.92"/>
<polygon fill="midnightblue" stroke="midnightblue" points="874.09,-23.26 882.97,-17.48 872.42,-16.46 874.09,-23.26"/>
</g>
<!-- Node6 -->
<g id="node6" class="node">
<title>Node6</title>
<g id="a_node6"><a xlink:title=" ">
<polygon fill="white" stroke="#bfbfbf" points="586.5,-0.5 586.5,-19.5 642.5,-19.5 642.5,-0.5 586.5,-0.5"/>
<text text-anchor="middle" x="614.5" y="-7.5" font-family="Helvetica,sans-Serif" font-size="10.00">stddef.h</text>
</a>
</g>
</g>
<!-- Node4&#45;&gt;Node6 -->
<g id="edge5" class="edge">
<title>Node4&#45;&gt;Node6</title>
<path fill="none" stroke="midnightblue" d="M676.61,-56.32C665.35,-48.11 648.21,-35.6 634.79,-25.81"/>
<polygon fill="midnightblue" stroke="midnightblue" points="636.75,-22.9 626.61,-19.83 632.62,-28.56 636.75,-22.9"/>
</g>
<!-- Node7 -->
<g id="node7" class="node">
<title>Node7</title>
<g id="a_node7"><a xlink:title=" ">
<polygon fill="white" stroke="#bfbfbf" points="1437.5,-0.5 1437.5,-19.5 1489.5,-19.5 1489.5,-0.5 1437.5,-0.5"/>
<text text-anchor="middle" x="1463.5" y="-7.5" font-family="Helvetica,sans-Serif" font-size="10.00">cassert</text>
</a>
</g>
</g>
<!-- Node4&#45;&gt;Node7 -->
<g id="edge6" class="edge">
<title>Node4&#45;&gt;Node7</title>
<path fill="none" stroke="midnightblue" d="M725.62,-62.41C856.74,-53.28 1297.26,-22.58 1427.16,-13.53"/>
<polygon fill="midnightblue" stroke="midnightblue" points="1427.63,-17.01 1437.36,-12.82 1427.14,-10.02 1427.63,-17.01"/>
</g>
<!-- Node8 -->
<g id="node8" class="node">
<title>Node8</title>
<g id="a_node8"><a xlink:title=" ">
<polygon fill="white" stroke="#bfbfbf" points="660.5,-0.5 660.5,-19.5 716.5,-19.5 716.5,-0.5 660.5,-0.5"/>
<text text-anchor="middle" x="688.5" y="-7.5" font-family="Helvetica,sans-Serif" font-size="10.00">sstream</text>
</a>
</g>
</g>
<!-- Node4&#45;&gt;Node8 -->
<g id="edge7" class="edge">
<title>Node4&#45;&gt;Node8</title>
<path fill="none" stroke="midnightblue" d="M688.5,-56.08C688.5,-49.01 688.5,-38.86 688.5,-29.99"/>
<polygon fill="midnightblue" stroke="midnightblue" points="692,-29.75 688.5,-19.75 685,-29.75 692,-29.75"/>
</g>
<!-- Node9 -->
<g id="node9" class="node">
<title>Node9</title>
<g id="a_node9"><a xlink:title=" ">
<polygon fill="white" stroke="#bfbfbf" points="734.5,-0.5 734.5,-19.5 778.5,-19.5 778.5,-0.5 734.5,-0.5"/>
<text text-anchor="middle" x="756.5" y="-7.5" font-family="Helvetica,sans-Serif" font-size="10.00">limits</text>
</a>
</g>
</g>
<!-- Node4&#45;&gt;Node9 -->
<g id="edge8" class="edge">
<title>Node4&#45;&gt;Node9</title>
<path fill="none" stroke="midnightblue" d="M699.43,-56.32C709.67,-48.18 725.22,-35.84 737.5,-26.09"/>
<polygon fill="midnightblue" stroke="midnightblue" points="739.72,-28.79 745.38,-19.83 735.37,-23.31 739.72,-28.79"/>
</g>
<!-- Node10 -->
<g id="node10" class="node">
<title>Node10</title>
<g id="a_node10"><a xlink:href="sitkConfigure_8h.html" target="_top" xlink:title=" ">
<polygon fill="white" stroke="black" points="1021.5,-0.5 1021.5,-19.5 1111.5,-19.5 1111.5,-0.5 1021.5,-0.5"/>
<text text-anchor="middle" x="1066.5" y="-7.5" font-family="Helvetica,sans-Serif" font-size="10.00">sitkConfigure.h</text>
</a>
</g>
</g>
<!-- Node4&#45;&gt;Node10 -->
<g id="edge9" class="edge">
<title>Node4&#45;&gt;Node10</title>
<path fill="none" stroke="midnightblue" d="M725.78,-59.67C792.62,-50.13 933.17,-30.05 1011.25,-18.89"/>
<polygon fill="midnightblue" stroke="midnightblue" points="1011.97,-22.33 1021.37,-17.45 1010.98,-15.4 1011.97,-22.33"/>
</g>
<!-- Node11&#45;&gt;Node4 -->
<g id="edge11" class="edge">
<title>Node11&#45;&gt;Node4</title>
<path fill="none" stroke="midnightblue" d="M595.33,-112.32C613.22,-103.62 640.98,-90.12 661.55,-80.11"/>
<polygon fill="midnightblue" stroke="midnightblue" points="663.25,-83.18 670.71,-75.65 660.19,-76.88 663.25,-83.18"/>
</g>
<!-- Node12&#45;&gt;Node11 -->
<g id="edge13" class="edge">
<title>Node12&#45;&gt;Node11</title>
<path fill="none" stroke="midnightblue" d="M500.49,-356.98C445.78,-356.57 351.21,-347.81 365.5,-291 380.9,-229.79 386.66,-206.73 436.5,-168 461.53,-148.55 495.17,-137.4 523.32,-131.06"/>
<polygon fill="midnightblue" stroke="midnightblue" points="524.35,-134.42 533.42,-128.94 522.91,-127.57 524.35,-134.42"/>
</g>
<!-- Node13 -->
<g id="node13" class="node">
<title>Node13</title>
<g id="a_node13"><a xlink:href="sitkTemplateFunctions_8h.html" target="_top" xlink:title=" ">
<polygon fill="white" stroke="black" points="374,-291.5 374,-310.5 509,-310.5 509,-291.5 374,-291.5"/>
<text text-anchor="middle" x="441.5" y="-298.5" font-family="Helvetica,sans-Serif" font-size="10.00">sitkTemplateFunctions.h</text>
</a>
</g>
</g>
<!-- Node12&#45;&gt;Node13 -->
<g id="edge14" class="edge">
<title>Node12&#45;&gt;Node13</title>
<path fill="none" stroke="midnightblue" d="M522.08,-347.32C506.96,-338.82 483.68,-325.73 466.03,-315.8"/>
<polygon fill="midnightblue" stroke="midnightblue" points="467.32,-312.51 456.89,-310.65 463.89,-318.61 467.32,-312.51"/>
</g>
<!-- Node15 -->
<g id="node15" class="node">
<title>Node15</title>
<g id="a_node15"><a xlink:title=" ">
<polygon fill="white" stroke="#bfbfbf" points="511.5,-168.5 511.5,-187.5 569.5,-187.5 569.5,-168.5 511.5,-168.5"/>
<text text-anchor="middle" x="540.5" y="-175.5" font-family="Helvetica,sans-Serif" font-size="10.00">memory</text>
</a>
</g>
</g>
<!-- Node12&#45;&gt;Node15 -->
<g id="edge55" class="edge">
<title>Node12&#45;&gt;Node15</title>
<path fill="none" stroke="midnightblue" d="M537.64,-347.46C538.1,-320.43 539.53,-236.24 540.18,-198.11"/>
<polygon fill="midnightblue" stroke="midnightblue" points="543.68,-197.93 540.35,-187.87 536.68,-197.81 543.68,-197.93"/>
</g>
<!-- Node12&#45;&gt;Node16 -->
<g id="edge54" class="edge">
<title>Node12&#45;&gt;Node16</title>
<path fill="none" stroke="midnightblue" d="M500.43,-352.13C444.14,-345.68 340.38,-331.41 309.5,-311 290.25,-298.28 276.64,-274.91 268.95,-258.58"/>
<polygon fill="midnightblue" stroke="midnightblue" points="271.98,-256.79 264.75,-249.05 265.58,-259.61 271.98,-256.79"/>
</g>
<!-- Node19 -->
<g id="node19" class="node">
<title>Node19</title>
<g id="a_node19"><a xlink:href="sitkDetail_8h.html" target="_top" xlink:title=" ">
<polygon fill="white" stroke="black" points="1112,-291.5 1112,-310.5 1185,-310.5 1185,-291.5 1112,-291.5"/>
<text text-anchor="middle" x="1148.5" y="-298.5" font-family="Helvetica,sans-Serif" font-size="10.00">sitkDetail.h</text>
</a>
</g>
</g>
<!-- Node12&#45;&gt;Node19 -->
<g id="edge24" class="edge">
<title>Node12&#45;&gt;Node19</title>
<path fill="none" stroke="midnightblue" d="M574.59,-348.35C577.6,-347.85 580.6,-347.39 583.5,-347 795.96,-318.37 851.01,-330.42 1064.5,-311 1076.48,-309.91 1089.4,-308.6 1101.43,-307.31"/>
<polygon fill="midnightblue" stroke="midnightblue" points="1102.16,-310.75 1111.73,-306.2 1101.41,-303.79 1102.16,-310.75"/>
</g>
<!-- Node30 -->
<g id="node30" class="node">
<title>Node30</title>
<g id="a_node30"><a xlink:href="sitkPixelIDTokens_8h.html" target="_top" xlink:title=" ">
<polygon fill="white" stroke="black" points="945.5,-291.5 945.5,-310.5 1055.5,-310.5 1055.5,-291.5 945.5,-291.5"/>
<text text-anchor="middle" x="1000.5" y="-298.5" font-family="Helvetica,sans-Serif" font-size="10.00">sitkPixelIDTokens.h</text>
</a>
</g>
</g>
<!-- Node12&#45;&gt;Node30 -->
<g id="edge43" class="edge">
<title>Node12&#45;&gt;Node30</title>
<path fill="none" stroke="midnightblue" d="M574.61,-348.46C577.61,-347.93 580.6,-347.44 583.5,-347 707.26,-328.25 852.83,-314.39 935.12,-307.31"/>
<polygon fill="midnightblue" stroke="midnightblue" points="935.66,-310.78 945.33,-306.44 935.07,-303.8 935.66,-310.78"/>
</g>
<!-- Node33 -->
<g id="node33" class="node">
<title>Node33</title>
<g id="a_node33"><a xlink:title=" ">
<polygon fill="white" stroke="#bfbfbf" points="826,-230 826,-249 895,-249 895,-230 826,-230"/>
<text text-anchor="middle" x="860.5" y="-237" font-family="Helvetica,sans-Serif" font-size="10.00">type_traits</text>
</a>
</g>
</g>
<!-- Node12&#45;&gt;Node33 -->
<g id="edge56" class="edge">
<title>Node12&#45;&gt;Node33</title>
<path fill="none" stroke="midnightblue" d="M561.51,-347.41C618.39,-327.07 761.45,-275.92 826.89,-252.52"/>
<polygon fill="midnightblue" stroke="midnightblue" points="828.09,-255.81 836.33,-249.14 825.73,-249.21 828.09,-255.81"/>
</g>
<!-- Node34 -->
<g id="node34" class="node">
<title>Node34</title>
<g id="a_node34"><a xlink:href="sitkInterpolator_8h.html" target="_top" xlink:title=" ">
<polygon fill="white" stroke="black" points="707.5,-230 707.5,-249 807.5,-249 807.5,-230 707.5,-230"/>
<text text-anchor="middle" x="757.5" y="-237" font-family="Helvetica,sans-Serif" font-size="10.00">sitkInterpolator.h</text>
</a>
</g>
</g>
<!-- Node12&#45;&gt;Node34 -->
<g id="edge51" class="edge">
<title>Node12&#45;&gt;Node34</title>
<path fill="none" stroke="midnightblue" d="M554.04,-347.32C592.19,-327.29 686.6,-277.72 732.14,-253.82"/>
<polygon fill="midnightblue" stroke="midnightblue" points="733.85,-256.87 741.07,-249.12 730.59,-250.67 733.85,-256.87"/>
</g>
<!-- Node13&#45;&gt;Node4 -->
<g id="edge15" class="edge">
<title>Node13&#45;&gt;Node4</title>
<path fill="none" stroke="midnightblue" d="M430.23,-291.43C420.53,-283.27 407.22,-270.05 401.5,-255 386.69,-216.04 407.15,-197.59 436.5,-168 492.9,-111.14 585.46,-85.26 641.32,-74.29"/>
<polygon fill="midnightblue" stroke="midnightblue" points="642.13,-77.7 651.31,-72.41 640.83,-70.82 642.13,-77.7"/>
</g>
<!-- Node13&#45;&gt;Node11 -->
<g id="edge16" class="edge">
<title>Node13&#45;&gt;Node11</title>
<path fill="none" stroke="midnightblue" d="M432.69,-291.26C419.23,-276.8 396.4,-247.18 409.5,-224 436.42,-176.37 495.77,-148.74 536.21,-134.76"/>
<polygon fill="midnightblue" stroke="midnightblue" points="537.41,-138.05 545.8,-131.58 535.21,-131.41 537.41,-138.05"/>
</g>
<!-- Node14 -->
<g id="node14" class="node">
<title>Node14</title>
<g id="a_node14"><a xlink:href="sitkExceptionObject_8h.html" target="_top" xlink:title=" ">
<polygon fill="white" stroke="black" points="566,-230 566,-249 689,-249 689,-230 566,-230"/>
<text text-anchor="middle" x="627.5" y="-237" font-family="Helvetica,sans-Serif" font-size="10.00">sitkExceptionObject.h</text>
</a>
</g>
</g>
<!-- Node13&#45;&gt;Node14 -->
<g id="edge17" class="edge">
<title>Node13&#45;&gt;Node14</title>
<path fill="none" stroke="midnightblue" d="M468.15,-291.48C500.47,-281.14 555.1,-263.66 591.23,-252.1"/>
<polygon fill="midnightblue" stroke="midnightblue" points="592.44,-255.39 600.9,-249.01 590.31,-248.72 592.44,-255.39"/>
</g>
<!-- Node13&#45;&gt;Node16 -->
<g id="edge21" class="edge">
<title>Node13&#45;&gt;Node16</title>
<path fill="none" stroke="midnightblue" d="M415.71,-291.48C383.95,-280.98 329.92,-263.12 294.98,-251.57"/>
<polygon fill="midnightblue" stroke="midnightblue" points="295.83,-248.16 285.23,-248.35 293.63,-254.81 295.83,-248.16"/>
</g>
<!-- Node17 -->
<g id="node17" class="node">
<title>Node17</title>
<g id="a_node17"><a xlink:title=" ">
<polygon fill="white" stroke="#bfbfbf" points="678,-168.5 678,-187.5 735,-187.5 735,-168.5 678,-168.5"/>
<text text-anchor="middle" x="706.5" y="-175.5" font-family="Helvetica,sans-Serif" font-size="10.00">ostream</text>
</a>
</g>
</g>
<!-- Node13&#45;&gt;Node17 -->
<g id="edge22" class="edge">
<title>Node13&#45;&gt;Node17</title>
<path fill="none" stroke="midnightblue" d="M452.39,-291.31C472.23,-275.84 516.05,-243.35 557.5,-224 593.47,-207.21 637.22,-194.87 667.98,-187.41"/>
<polygon fill="midnightblue" stroke="midnightblue" points="668.96,-190.77 677.88,-185.06 667.34,-183.96 668.96,-190.77"/>
</g>
<!-- Node18 -->
<g id="node18" class="node">
<title>Node18</title>
<g id="a_node18"><a xlink:title=" ">
<polygon fill="white" stroke="#bfbfbf" points="418,-230 418,-249 471,-249 471,-230 418,-230"/>
<text text-anchor="middle" x="444.5" y="-237" font-family="Helvetica,sans-Serif" font-size="10.00">iterator</text>
</a>
</g>
</g>
<!-- Node13&#45;&gt;Node18 -->
<g id="edge23" class="edge">
<title>Node13&#45;&gt;Node18</title>
<path fill="none" stroke="midnightblue" d="M441.93,-291.48C442.35,-283.08 443.01,-269.98 443.56,-259.16"/>
<polygon fill="midnightblue" stroke="midnightblue" points="447.06,-259.17 444.07,-249.01 440.07,-258.82 447.06,-259.17"/>
</g>
<!-- Node14&#45;&gt;Node4 -->
<g id="edge18" class="edge">
<title>Node14&#45;&gt;Node4</title>
<path fill="none" stroke="midnightblue" d="M630.61,-229.76C640.11,-203.04 668.93,-122.02 681.97,-85.36"/>
<polygon fill="midnightblue" stroke="midnightblue" points="685.42,-86.11 685.47,-75.52 678.82,-83.77 685.42,-86.11"/>
</g>
<!-- Node14&#45;&gt;Node11 -->
<g id="edge19" class="edge">
<title>Node14&#45;&gt;Node11</title>
<path fill="none" stroke="midnightblue" d="M623.74,-229.82C615.63,-211.09 596.35,-166.55 585.42,-141.29"/>
<polygon fill="midnightblue" stroke="midnightblue" points="588.49,-139.57 581.3,-131.78 582.06,-142.35 588.49,-139.57"/>
</g>
<!-- Node14&#45;&gt;Node15 -->
<g id="edge20" class="edge">
<title>Node14&#45;&gt;Node15</title>
<path fill="none" stroke="midnightblue" d="M615.04,-229.98C601.08,-220.43 578.24,-204.81 561.51,-193.37"/>
<polygon fill="midnightblue" stroke="midnightblue" points="563.17,-190.27 552.94,-187.51 559.22,-196.04 563.17,-190.27"/>
</g>
<!-- Node20 -->
<g id="node20" class="node">
<title>Node20</title>
<g id="a_node20"><a xlink:href="sitkMemberFunctionFactoryBase_8h.html" target="_top" xlink:title=" ">
<polygon fill="white" stroke="black" points="1326.5,-224.5 1326.5,-254.5 1478.5,-254.5 1478.5,-224.5 1326.5,-224.5"/>
<text text-anchor="start" x="1334.5" y="-242.5" font-family="Helvetica,sans-Serif" font-size="10.00">sitkMemberFunctionFactory</text>
<text text-anchor="middle" x="1402.5" y="-231.5" font-family="Helvetica,sans-Serif" font-size="10.00">Base.h</text>
</a>
</g>
</g>
<!-- Node19&#45;&gt;Node20 -->
<g id="edge25" class="edge">
<title>Node19&#45;&gt;Node20</title>
<path fill="none" stroke="midnightblue" d="M1184.89,-291.48C1223.31,-282.48 1284.81,-268.07 1332.65,-256.86"/>
<polygon fill="midnightblue" stroke="midnightblue" points="1333.7,-260.21 1342.64,-254.52 1332.1,-253.4 1333.7,-260.21"/>
</g>
<!-- Node26 -->
<g id="node26" class="node">
<title>Node26</title>
<g id="a_node26"><a xlink:title=" ">
<polygon fill="white" stroke="#bfbfbf" points="930,-168.5 930,-187.5 1069,-187.5 1069,-168.5 930,-168.5"/>
<text text-anchor="middle" x="999.5" y="-175.5" font-family="Helvetica,sans-Serif" font-size="10.00">Ancillary/FunctionTraits.h</text>
</a>
</g>
</g>
<!-- Node19&#45;&gt;Node26 -->
<g id="edge42" class="edge">
<title>Node19&#45;&gt;Node26</title>
<path fill="none" stroke="midnightblue" d="M1145.43,-291.29C1139.56,-275.8 1125.36,-243.26 1103.5,-224 1086.12,-208.69 1062.73,-197.94 1042.53,-190.8"/>
<polygon fill="midnightblue" stroke="midnightblue" points="1043.51,-187.44 1032.92,-187.58 1041.29,-194.07 1043.51,-187.44"/>
</g>
<!-- Node20&#45;&gt;Node4 -->
<g id="edge34" class="edge">
<title>Node20&#45;&gt;Node4</title>
<path fill="none" stroke="midnightblue" d="M1350.11,-224.4C1318.7,-215.32 1278.24,-202.52 1243.5,-188 1225.89,-180.64 1223.5,-174.34 1205.5,-168 1161.18,-152.39 854.84,-96.75 735.73,-75.41"/>
<polygon fill="midnightblue" stroke="midnightblue" points="736.26,-71.95 725.8,-73.64 735.03,-78.85 736.26,-71.95"/>
</g>
<!-- Node20&#45;&gt;Node10 -->
<g id="edge26" class="edge">
<title>Node20&#45;&gt;Node10</title>
<path fill="none" stroke="midnightblue" d="M1417.9,-224.43C1443.04,-199.78 1487.4,-147.98 1459.5,-112 1418.27,-58.84 1219.82,-28.78 1121.68,-16.95"/>
<polygon fill="midnightblue" stroke="midnightblue" points="1121.99,-13.46 1111.65,-15.76 1121.17,-20.41 1121.99,-13.46"/>
</g>
<!-- Node21 -->
<g id="node21" class="node">
<title>Node21</title>
<g id="a_node21"><a xlink:href="sitkPixelIDTypes_8h.html" target="_top" xlink:title=" ">
<polygon fill="white" stroke="black" points="1208,-112.5 1208,-131.5 1313,-131.5 1313,-112.5 1208,-112.5"/>
<text text-anchor="middle" x="1260.5" y="-119.5" font-family="Helvetica,sans-Serif" font-size="10.00">sitkPixelIDTypes.h</text>
</a>
</g>
</g>
<!-- Node20&#45;&gt;Node21 -->
<g id="edge27" class="edge">
<title>Node20&#45;&gt;Node21</title>
<path fill="none" stroke="midnightblue" d="M1402.38,-224.24C1401.48,-208.55 1397.71,-183.52 1383.5,-168 1367.72,-150.77 1344.78,-140.12 1322.99,-133.55"/>
<polygon fill="midnightblue" stroke="midnightblue" points="1323.65,-130.1 1313.08,-130.81 1321.78,-136.85 1323.65,-130.1"/>
</g>
<!-- Node22 -->
<g id="node22" class="node">
<title>Node22</title>
<g id="a_node22"><a xlink:href="sitkPixelIDTypeLists_8h.html" target="_top" xlink:title=" ">
<polygon fill="white" stroke="black" points="1252.5,-168.5 1252.5,-187.5 1374.5,-187.5 1374.5,-168.5 1252.5,-168.5"/>
<text text-anchor="middle" x="1313.5" y="-175.5" font-family="Helvetica,sans-Serif" font-size="10.00">sitkPixelIDTypeLists.h</text>
</a>
</g>
</g>
<!-- Node20&#45;&gt;Node22 -->
<g id="edge28" class="edge">
<title>Node20&#45;&gt;Node22</title>
<path fill="none" stroke="midnightblue" d="M1381.41,-224.4C1367.41,-215.04 1349.09,-202.79 1335.01,-193.38"/>
<polygon fill="midnightblue" stroke="midnightblue" points="1336.71,-190.31 1326.45,-187.66 1332.82,-196.13 1336.71,-190.31"/>
</g>
<!-- Node23 -->
<g id="node23" class="node">
<title>Node23</title>
<g id="a_node23"><a xlink:title=" ">
<polygon fill="white" stroke="#bfbfbf" points="1331,-112.5 1331,-131.5 1450,-131.5 1450,-112.5 1331,-112.5"/>
<text text-anchor="middle" x="1390.5" y="-119.5" font-family="Helvetica,sans-Serif" font-size="10.00">Ancillary/type_list2.h</text>
</a>
</g>
</g>
<!-- Node20&#45;&gt;Node23 -->
<g id="edge37" class="edge">
<title>Node20&#45;&gt;Node23</title>
<path fill="none" stroke="midnightblue" d="M1409.11,-224.33C1414.91,-210 1421.67,-187.28 1416.5,-168 1413.85,-158.1 1408.43,-148.13 1403.23,-140.1"/>
<polygon fill="midnightblue" stroke="midnightblue" points="1405.96,-137.91 1397.39,-131.68 1400.21,-141.89 1405.96,-137.91"/>
</g>
<!-- Node25 -->
<g id="node25" class="node">
<title>Node25</title>
<g id="a_node25"><a xlink:href="sitkNonCopyable_8h.html" target="_top" xlink:title=" ">
<polygon fill="white" stroke="black" points="1087,-168.5 1087,-187.5 1196,-187.5 1196,-168.5 1087,-168.5"/>
<text text-anchor="middle" x="1141.5" y="-175.5" font-family="Helvetica,sans-Serif" font-size="10.00">sitkNonCopyable.h</text>
</a>
</g>
</g>
<!-- Node20&#45;&gt;Node25 -->
<g id="edge35" class="edge">
<title>Node20&#45;&gt;Node25</title>
<path fill="none" stroke="midnightblue" d="M1340.98,-224.47C1294.38,-213.85 1231.31,-199.47 1188.66,-189.75"/>
<polygon fill="midnightblue" stroke="midnightblue" points="1189.34,-186.32 1178.81,-187.51 1187.79,-193.14 1189.34,-186.32"/>
</g>
<!-- Node20&#45;&gt;Node26 -->
<g id="edge38" class="edge">
<title>Node20&#45;&gt;Node26</title>
<path fill="none" stroke="midnightblue" d="M1326.23,-227.24C1251.62,-216.22 1139.08,-199.61 1067.47,-189.04"/>
<polygon fill="midnightblue" stroke="midnightblue" points="1067.61,-185.52 1057.21,-187.52 1066.59,-192.44 1067.61,-185.52"/>
</g>
<!-- Node27 -->
<g id="node27" class="node">
<title>Node27</title>
<g id="a_node27"><a xlink:title=" ">
<polygon fill="white" stroke="#bfbfbf" points="1507,-168.5 1507,-187.5 1600,-187.5 1600,-168.5 1507,-168.5"/>
<text text-anchor="middle" x="1553.5" y="-175.5" font-family="Helvetica,sans-Serif" font-size="10.00">unordered_map</text>
</a>
</g>
</g>
<!-- Node20&#45;&gt;Node27 -->
<g id="edge39" class="edge">
<title>Node20&#45;&gt;Node27</title>
<path fill="none" stroke="midnightblue" d="M1438.28,-224.4C1463.73,-214.37 1497.6,-201.03 1522.02,-191.4"/>
<polygon fill="midnightblue" stroke="midnightblue" points="1523.51,-194.58 1531.53,-187.66 1520.94,-188.07 1523.51,-194.58"/>
</g>
<!-- Node28 -->
<g id="node28" class="node">
<title>Node28</title>
<g id="a_node28"><a xlink:title=" ">
<polygon fill="white" stroke="#bfbfbf" points="1618,-168.5 1618,-187.5 1683,-187.5 1683,-168.5 1618,-168.5"/>
<text text-anchor="middle" x="1650.5" y="-175.5" font-family="Helvetica,sans-Serif" font-size="10.00">functional</text>
</a>
</g>
</g>
<!-- Node20&#45;&gt;Node28 -->
<g id="edge40" class="edge">
<title>Node20&#45;&gt;Node28</title>
<path fill="none" stroke="midnightblue" d="M1460.96,-224.47C1506.11,-213.64 1567.52,-198.91 1608.05,-189.18"/>
<polygon fill="midnightblue" stroke="midnightblue" points="1608.98,-192.56 1617.89,-186.82 1607.35,-185.75 1608.98,-192.56"/>
</g>
<!-- Node29 -->
<g id="node29" class="node">
<title>Node29</title>
<g id="a_node29"><a xlink:title=" ">
<polygon fill="white" stroke="#bfbfbf" points="1701,-168.5 1701,-187.5 1742,-187.5 1742,-168.5 1701,-168.5"/>
<text text-anchor="middle" x="1721.5" y="-175.5" font-family="Helvetica,sans-Serif" font-size="10.00">tuple</text>
</a>
</g>
</g>
<!-- Node20&#45;&gt;Node29 -->
<g id="edge41" class="edge">
<title>Node20&#45;&gt;Node29</title>
<path fill="none" stroke="midnightblue" d="M1478.76,-227.96C1535.16,-219.53 1613.93,-206.44 1691.1,-188.1"/>
<polygon fill="midnightblue" stroke="midnightblue" points="1692.09,-191.46 1701,-185.72 1690.45,-184.66 1692.09,-191.46"/>
</g>
<!-- Node22&#45;&gt;Node5 -->
<g id="edge29" class="edge">
<title>Node22&#45;&gt;Node5</title>
<path fill="none" stroke="midnightblue" d="M1255.79,-168.49C1198.15,-159.5 1113.9,-144.87 1083.5,-132 1019.97,-105.11 956.16,-52.7 926.56,-26.58"/>
<polygon fill="midnightblue" stroke="midnightblue" points="928.62,-23.72 918.83,-19.66 923.95,-28.94 928.62,-23.72"/>
</g>
<!-- Node22&#45;&gt;Node10 -->
<g id="edge30" class="edge">
<title>Node22&#45;&gt;Node10</title>
<path fill="none" stroke="midnightblue" d="M1283.54,-168.47C1259.7,-160.92 1226.05,-148.54 1199.5,-132 1150.94,-101.75 1103.74,-52.79 1080.84,-27.42"/>
<polygon fill="midnightblue" stroke="midnightblue" points="1083.31,-24.92 1074.04,-19.78 1078.08,-29.58 1083.31,-24.92"/>
</g>
<!-- Node22&#45;&gt;Node21 -->
<g id="edge31" class="edge">
<title>Node22&#45;&gt;Node21</title>
<path fill="none" stroke="midnightblue" d="M1304.75,-168.08C1297.03,-160.22 1285.6,-148.57 1276.28,-139.08"/>
<polygon fill="midnightblue" stroke="midnightblue" points="1278.59,-136.44 1269.09,-131.75 1273.6,-141.34 1278.59,-136.44"/>
</g>
<!-- Node22&#45;&gt;Node23 -->
<g id="edge32" class="edge">
<title>Node22&#45;&gt;Node23</title>
<path fill="none" stroke="midnightblue" d="M1325.87,-168.32C1337.66,-160.06 1355.63,-147.45 1369.64,-137.63"/>
<polygon fill="midnightblue" stroke="midnightblue" points="1371.98,-140.26 1378.16,-131.65 1367.96,-134.53 1371.98,-140.26"/>
</g>
<!-- Node24 -->
<g id="node24" class="node">
<title>Node24</title>
<g id="a_node24"><a xlink:title=" ">
<polygon fill="white" stroke="#bfbfbf" points="1092,-112.5 1092,-131.5 1151,-131.5 1151,-112.5 1092,-112.5"/>
<text text-anchor="middle" x="1121.5" y="-119.5" font-family="Helvetica,sans-Serif" font-size="10.00">complex</text>
</a>
</g>
</g>
<!-- Node22&#45;&gt;Node24 -->
<g id="edge33" class="edge">
<title>Node22&#45;&gt;Node24</title>
<path fill="none" stroke="midnightblue" d="M1283.08,-168.44C1250.02,-159.15 1197.1,-144.26 1160.89,-134.08"/>
<polygon fill="midnightblue" stroke="midnightblue" points="1161.72,-130.68 1151.15,-131.34 1159.83,-137.42 1161.72,-130.68"/>
</g>
<!-- Node25&#45;&gt;Node11 -->
<g id="edge36" class="edge">
<title>Node25&#45;&gt;Node11</title>
<path fill="none" stroke="midnightblue" d="M1086.89,-169.02C1084.05,-168.66 1081.24,-168.32 1078.5,-168 916.46,-149.16 724.14,-133.86 632.01,-126.96"/>
<polygon fill="midnightblue" stroke="midnightblue" points="632.04,-123.45 621.81,-126.2 631.52,-130.43 632.04,-123.45"/>
</g>
<!-- Node30&#45;&gt;Node10 -->
<g id="edge44" class="edge">
<title>Node30&#45;&gt;Node10</title>
<path fill="none" stroke="midnightblue" d="M1024.97,-291.44C1041.07,-284.38 1060.88,-272.63 1070.5,-255 1077.1,-242.91 1079.02,-234.83 1070.5,-224 1026.74,-168.41 895.73,-233.88 921.5,-168 946.56,-103.93 1011.39,-50.3 1045.23,-25.61"/>
<polygon fill="midnightblue" stroke="midnightblue" points="1047.41,-28.35 1053.51,-19.69 1043.34,-22.66 1047.41,-28.35"/>
</g>
<!-- Node31 -->
<g id="node31" class="node">
<title>Node31</title>
<g id="a_node31"><a xlink:href="sitkPixelIDValues_8h.html" target="_top" xlink:title=" ">
<polygon fill="white" stroke="black" points="951.5,-230 951.5,-249 1061.5,-249 1061.5,-230 951.5,-230"/>
<text text-anchor="middle" x="1006.5" y="-237" font-family="Helvetica,sans-Serif" font-size="10.00">sitkPixelIDValues.h</text>
</a>
</g>
</g>
<!-- Node30&#45;&gt;Node31 -->
<g id="edge45" class="edge">
<title>Node30&#45;&gt;Node31</title>
<path fill="none" stroke="midnightblue" d="M1001.36,-291.48C1002.21,-283.08 1003.53,-269.98 1004.62,-259.16"/>
<polygon fill="midnightblue" stroke="midnightblue" points="1008.12,-259.31 1005.64,-249.01 1001.16,-258.61 1008.12,-259.31"/>
</g>
<!-- Node30&#45;&gt;Node33 -->
<g id="edge50" class="edge">
<title>Node30&#45;&gt;Node33</title>
<path fill="none" stroke="midnightblue" d="M980.44,-291.48C956.74,-281.4 917.09,-264.55 889.92,-253"/>
<polygon fill="midnightblue" stroke="midnightblue" points="891.09,-249.7 880.52,-249.01 888.36,-256.14 891.09,-249.7"/>
</g>
<!-- Node31&#45;&gt;Node11 -->
<g id="edge46" class="edge">
<title>Node31&#45;&gt;Node11</title>
<path fill="none" stroke="midnightblue" d="M985.77,-229.95C961.95,-220.08 921.75,-203.23 887.5,-188 868.24,-179.44 864.63,-174.25 844.5,-168 772.8,-145.73 686.65,-133.73 631.98,-127.86"/>
<polygon fill="midnightblue" stroke="midnightblue" points="632.12,-124.35 621.81,-126.8 631.4,-131.32 632.12,-124.35"/>
</g>
<!-- Node31&#45;&gt;Node17 -->
<g id="edge49" class="edge">
<title>Node31&#45;&gt;Node17</title>
<path fill="none" stroke="midnightblue" d="M963.52,-229.98C905.1,-218.39 801.5,-197.84 745.32,-186.7"/>
<polygon fill="midnightblue" stroke="midnightblue" points="745.9,-183.25 735.41,-184.73 744.54,-190.11 745.9,-183.25"/>
</g>
<!-- Node31&#45;&gt;Node22 -->
<g id="edge47" class="edge">
<title>Node31&#45;&gt;Node22</title>
<path fill="none" stroke="midnightblue" d="M1050.49,-229.98C1105.65,-219.28 1200.2,-200.96 1259.65,-189.44"/>
<polygon fill="midnightblue" stroke="midnightblue" points="1260.44,-192.85 1269.6,-187.51 1259.11,-185.98 1260.44,-192.85"/>
</g>
<!-- Node31&#45;&gt;Node32 -->
<g id="edge48" class="edge">
<title>Node31&#45;&gt;Node32</title>
<path fill="none" stroke="midnightblue" d="M978.85,-229.98C943.6,-219.11 882.77,-200.36 845.54,-188.88"/>
<polygon fill="midnightblue" stroke="midnightblue" points="846.29,-185.45 835.7,-185.84 844.23,-192.14 846.29,-185.45"/>
</g>
<!-- Node34&#45;&gt;Node11 -->
<g id="edge52" class="edge">
<title>Node34&#45;&gt;Node11</title>
<path fill="none" stroke="midnightblue" d="M758.59,-229.86C759.94,-215.16 760.36,-185.2 744.5,-168 716.03,-137.13 668.83,-126.56 631.86,-123.32"/>
<polygon fill="midnightblue" stroke="midnightblue" points="631.95,-119.82 621.72,-122.59 631.45,-126.8 631.95,-119.82"/>
</g>
<!-- Node34&#45;&gt;Node17 -->
<g id="edge53" class="edge">
<title>Node34&#45;&gt;Node17</title>
<path fill="none" stroke="midnightblue" d="M750.19,-229.98C742.47,-220.96 730.09,-206.52 720.48,-195.31"/>
<polygon fill="midnightblue" stroke="midnightblue" points="722.96,-192.82 713.79,-187.51 717.64,-197.38 722.96,-192.82"/>
</g>
<!-- Node36&#45;&gt;Node7 -->
<g id="edge65" class="edge">
<title>Node36&#45;&gt;Node7</title>
<path fill="none" stroke="midnightblue" d="M1195.16,-350.18C1369.72,-336.35 1770.5,-298.31 1770.5,-240.5 1770.5,-240.5 1770.5,-240.5 1770.5,-121 1770.5,-64.11 1581.29,-28.75 1499.95,-16.18"/>
<polygon fill="midnightblue" stroke="midnightblue" points="1500.09,-12.66 1489.67,-14.62 1499.04,-19.58 1500.09,-12.66"/>
</g>
<!-- Node36&#45;&gt;Node14 -->
<g id="edge68" class="edge">
<title>Node36&#45;&gt;Node14</title>
<path fill="none" stroke="midnightblue" d="M1079.22,-347.41C991.86,-326.74 769.92,-274.21 673.45,-251.37"/>
<polygon fill="midnightblue" stroke="midnightblue" points="674.23,-247.96 663.69,-249.06 672.61,-254.77 674.23,-247.96"/>
</g>
<!-- Node36&#45;&gt;Node19 -->
<g id="edge61" class="edge">
<title>Node36&#45;&gt;Node19</title>
<path fill="none" stroke="midnightblue" d="M1120.95,-347.08C1125.51,-339.61 1132.17,-328.72 1137.79,-319.52"/>
<polygon fill="midnightblue" stroke="midnightblue" points="1140.92,-321.11 1143.15,-310.75 1134.95,-317.46 1140.92,-321.11"/>
</g>
<!-- Node36&#45;&gt;Node20 -->
<g id="edge62" class="edge">
<title>Node36&#45;&gt;Node20</title>
<path fill="none" stroke="midnightblue" d="M1195.09,-351.99C1263.89,-346.89 1356.42,-335.57 1383.5,-311 1396.19,-299.48 1400.78,-280.47 1402.28,-265.09"/>
<polygon fill="midnightblue" stroke="midnightblue" points="1405.8,-264.88 1402.9,-254.69 1398.81,-264.46 1405.8,-264.88"/>
</g>
<!-- Node36&#45;&gt;Node30 -->
<g id="edge67" class="edge">
<title>Node36&#45;&gt;Node30</title>
<path fill="none" stroke="midnightblue" d="M1097.28,-347.44C1078.6,-338.68 1049.34,-324.94 1027.88,-314.86"/>
<polygon fill="midnightblue" stroke="midnightblue" points="1029.18,-311.6 1018.64,-310.52 1026.2,-317.93 1029.18,-311.6"/>
</g>
<!-- Node36&#45;&gt;Node31 -->
<g id="edge63" class="edge">
<title>Node36&#45;&gt;Node31</title>
<path fill="none" stroke="midnightblue" d="M1109.39,-347.16C1100.27,-334.25 1082.28,-309.72 1064.5,-291 1052.36,-278.23 1037.33,-265.2 1025.6,-255.58"/>
<polygon fill="midnightblue" stroke="midnightblue" points="1027.72,-252.79 1017.74,-249.23 1023.32,-258.24 1027.72,-252.79"/>
</g>
<!-- Node36&#45;&gt;Node36 -->
<g id="edge66" class="edge">
<title>Node36&#45;&gt;Node36</title>
<path fill="none" stroke="midnightblue" d="M1156.83,-366.5C1185.17,-369.33 1213,-366.16 1213,-357 1213,-348.95 1191.5,-345.53 1167.06,-346.74"/>
<polygon fill="midnightblue" stroke="midnightblue" points="1166.54,-343.27 1156.83,-347.5 1167.06,-350.25 1166.54,-343.27"/>
</g>
<!-- Node37 -->
<g id="node37" class="node">
<title>Node37</title>
<g id="a_node37"><a xlink:title=" ">
<polygon fill="white" stroke="#bfbfbf" points="1203,-291.5 1203,-310.5 1374,-310.5 1374,-291.5 1203,-291.5"/>
<text text-anchor="middle" x="1288.5" y="-298.5" font-family="Helvetica,sans-Serif" font-size="10.00">sitkMemberFunctionFactory.hxx</text>
</a>
</g>
</g>
<!-- Node36&#45;&gt;Node37 -->
<g id="edge64" class="edge">
<title>Node36&#45;&gt;Node37</title>
<path fill="none" stroke="midnightblue" d="M1142.91,-347.44C1172.27,-338.28 1219.02,-323.69 1251.6,-313.52"/>
<polygon fill="midnightblue" stroke="midnightblue" points="1252.71,-316.84 1261.22,-310.52 1250.63,-310.16 1252.71,-316.84"/>
</g>
</g>
</svg>
        <g id="navigator" transform="translate(0 0)" fill="#404254">
                <rect fill="#f2f5e9" fill-opacity="0.5" stroke="#606060" stroke-width=".5" x="0" y="0" width="60" height="60"/>
                <use id="zoomplus" xlink:href="#zoomPlus" x="17" y="9" onmousedown="handleZoom(evt,'in')"/>
                <use id="zoomminus" xlink:href="#zoomMin" x="42" y="9" onmousedown="handleZoom(evt,'out')"/>
                <use id="reset" xlink:href="#resetDef" x="30" y="36" onmousedown="handleReset()"/>
                <g id="arrowUp" xlink:href="#dirArrow" transform="translate(30 24)" onmousedown="handlePan(0,-1)">
                  <use xlink:href="#rim" fill="#404040">
                        <set attributeName="fill" to="#808080" begin="arrowUp.mouseover" end="arrowUp.mouseout"/>
                  </use>
                  <path fill="none" stroke="white" stroke-width="1.5" d="M0,-3.0v7 M-2.5,-0.5L0,-3.0L2.5,-0.5"/>
                </g>
                <g id="arrowRight" xlink:href="#dirArrow" transform="rotate(90) translate(36 -43)" onmousedown="handlePan(1,0)">
                  <use xlink:href="#rim" fill="#404040">
                        <set attributeName="fill" to="#808080" begin="arrowRight.mouseover" end="arrowRight.mouseout"/>
                  </use>
                  <path fill="none" stroke="white" stroke-width="1.5" d="M0,-3.0v7 M-2.5,-0.5L0,-3.0L2.5,-0.5"/>
                </g>
                <g id="arrowDown" xlink:href="#dirArrow" transform="rotate(180) translate(-30 -48)" onmousedown="handlePan(0,1)">
                  <use xlink:href="#rim" fill="#404040">
                        <set attributeName="fill" to="#808080" begin="arrowDown.mouseover" end="arrowDown.mouseout"/>
                  </use>
                  <path fill="none" stroke="white" stroke-width="1.5" d="M0,-3.0v7 M-2.5,-0.5L0,-3.0L2.5,-0.5"/>
                </g>
                <g id="arrowLeft" xlink:href="#dirArrow" transform="rotate(270) translate(-36 17)" onmousedown="handlePan(-1,0)">
                  <use xlink:href="#rim" fill="#404040">
                        <set attributeName="fill" to="#808080" begin="arrowLeft.mouseover" end="arrowLeft.mouseout"/>
                  </use>
                  <path fill="none" stroke="white" stroke-width="1.5" d="M0,-3.0v7 M-2.5,-0.5L0,-3.0L2.5,-0.5"/>
                </g>
        </g>
        <svg viewBox="0 0 15 15" width="100%" height="30px" preserveAspectRatio="xMaxYMin meet">
         <g id="arrow_out" transform="scale(0.3 0.3)">
          <a xlink:href="sitkTransformixImageFilterImpl_8h__incl_org.svg" target="_base">
           <rect id="button" ry="5" rx="5" y="6" x="6" height="38" width="38"
                fill="#f2f5e9" fill-opacity="0.5" stroke="#606060" stroke-width="1.0"/>
           <path id="arrow"
             d="M 11.500037,31.436501 C 11.940474,20.09759 22.043105,11.32322 32.158766,21.979434 L 37.068811,17.246167 C 37.068811,17.246167 37.088388,32 37.088388,32 L 22.160133,31.978069 C 22.160133,31.978069 26.997745,27.140456 26.997745,27.140456 C 18.528582,18.264221 13.291696,25.230495 11.500037,31.436501 z"
             style="fill:#404040;"/>
          </a>
         </g>
        </svg>
</svg>
