<?xml version="1.0" encoding="UTF-8" standalone="no"?>
<!DOCTYPE svg PUBLIC "-//W3C//DTD SVG 1.1//EN"
 "http://www.w3.org/Graphics/SVG/1.1/DTD/svg11.dtd">
<!-- Generated by graphviz version 2.43.0 (0)
 -->
<!-- Title: sitkImageViewer.h Pages: 1 -->
<svg width="1568pt" height="478pt"
 viewBox="0.00 0.00 1567.50 478.00" xmlns="http://www.w3.org/2000/svg" xmlns:xlink="http://www.w3.org/1999/xlink">
<g id="graph0" class="graph" transform="scale(1 1) rotate(0) translate(4 474)">
<title>sitkImageViewer.h</title>
<!-- Node1 -->
<g id="Node000001" class="node">
<title>Node1</title>
<g id="a_Node000001"><a xlink:title=" ">
<polygon fill="#999999" stroke="#666666" points="791.5,-470 684.5,-470 684.5,-451 791.5,-451 791.5,-470"/>
<text text-anchor="middle" x="738" y="-458" font-family="Helvetica,sans-Serif" font-size="10.00">sitkImageViewer.h</text>
</a>
</g>
</g>
<!-- Node2 -->
<g id="Node000002" class="node">
<title>Node2</title>
<g id="a_Node000002"><a xlink:href="sitkImage_8h.html" target="_top" xlink:title=" ">
<polygon fill="white" stroke="#666666" points="775,-305 701,-305 701,-286 775,-286 775,-305"/>
<text text-anchor="middle" x="738" y="-293" font-family="Helvetica,sans-Serif" font-size="10.00">sitkImage.h</text>
</a>
</g>
</g>
<!-- Node1&#45;&gt;Node2 -->
<g id="edge1_Node000001_Node000002" class="edge">
<title>Node1&#45;&gt;Node2</title>
<g id="a_edge1_Node000001_Node000002"><a xlink:title=" ">
<path fill="none" stroke="#63b8ff" d="M760.78,-450.89C805.06,-432.84 895.58,-388.73 862,-341 844.73,-316.45 812.58,-305.38 785.34,-300.41"/>
<polygon fill="#63b8ff" stroke="#63b8ff" points="785.61,-296.91 775.19,-298.8 784.51,-303.83 785.61,-296.91"/>
</a>
</g>
</g>
<!-- Node33 -->
<g id="Node000033" class="node">
<title>Node33</title>
<g id="a_Node000033"><a xlink:href="sitkPathType_8h.html" target="_top" xlink:title=" ">
<polygon fill="white" stroke="#666666" points="1103.5,-305 1016.5,-305 1016.5,-286 1103.5,-286 1103.5,-305"/>
<text text-anchor="middle" x="1060" y="-293" font-family="Helvetica,sans-Serif" font-size="10.00">sitkPathType.h</text>
</a>
</g>
</g>
<!-- Node1&#45;&gt;Node33 -->
<g id="edge50_Node000001_Node000033" class="edge">
<title>Node1&#45;&gt;Node33</title>
<g id="a_edge50_Node000001_Node000033"><a xlink:title=" ">
<path fill="none" stroke="#63b8ff" d="M764.29,-450.98C788.55,-442.8 825.35,-429.56 856,-415 924.94,-382.25 1001.61,-334.39 1038.22,-310.77"/>
<polygon fill="#63b8ff" stroke="#63b8ff" points="1040.56,-313.43 1047.05,-305.05 1036.75,-307.55 1040.56,-313.43"/>
</a>
</g>
</g>
<!-- Node34 -->
<g id="Node000034" class="node">
<title>Node34</title>
<g id="a_Node000034"><a xlink:href="sitkIO_8h.html" target="_top" xlink:title=" ">
<polygon fill="white" stroke="#666666" points="274,-415 220,-415 220,-396 274,-396 274,-415"/>
<text text-anchor="middle" x="247" y="-403" font-family="Helvetica,sans-Serif" font-size="10.00">sitkIO.h</text>
</a>
</g>
</g>
<!-- Node1&#45;&gt;Node34 -->
<g id="edge52_Node000001_Node000034" class="edge">
<title>Node1&#45;&gt;Node34</title>
<g id="a_edge52_Node000001_Node000034"><a xlink:title=" ">
<path fill="none" stroke="#63b8ff" d="M684.05,-453.68C583.61,-442.83 370.34,-419.81 284.22,-410.52"/>
<polygon fill="#63b8ff" stroke="#63b8ff" points="284.45,-407.02 274.13,-409.43 283.69,-413.98 284.45,-407.02"/>
</a>
</g>
</g>
<!-- Node35 -->
<g id="Node000035" class="node">
<title>Node35</title>
<g id="a_Node000035"><a xlink:href="sitkProcessObject_8h.html" target="_top" xlink:title=" ">
<polygon fill="white" stroke="#666666" points="651.5,-415 538.5,-415 538.5,-396 651.5,-396 651.5,-415"/>
<text text-anchor="middle" x="595" y="-403" font-family="Helvetica,sans-Serif" font-size="10.00">sitkProcessObject.h</text>
</a>
</g>
</g>
<!-- Node1&#45;&gt;Node35 -->
<g id="edge54_Node000001_Node000035" class="edge">
<title>Node1&#45;&gt;Node35</title>
<g id="a_edge54_Node000001_Node000035"><a xlink:title=" ">
<path fill="none" stroke="#63b8ff" d="M715.02,-450.98C691.5,-442.27 654.71,-428.63 628.06,-418.75"/>
<polygon fill="#63b8ff" stroke="#63b8ff" points="628.99,-415.36 618.39,-415.17 626.55,-421.93 628.99,-415.36"/>
</a>
</g>
</g>
<!-- Node3 -->
<g id="Node000003" class="node">
<title>Node3</title>
<g id="a_Node000003"><a xlink:href="sitkCommon_8h.html" target="_top" xlink:title=" ">
<polygon fill="white" stroke="#666666" points="441,-134.5 353,-134.5 353,-115.5 441,-115.5 441,-134.5"/>
<text text-anchor="middle" x="397" y="-122.5" font-family="Helvetica,sans-Serif" font-size="10.00">sitkCommon.h</text>
</a>
</g>
</g>
<!-- Node2&#45;&gt;Node3 -->
<g id="edge2_Node000002_Node000003" class="edge">
<title>Node2&#45;&gt;Node3</title>
<g id="a_edge2_Node000002_Node000003"><a xlink:title=" ">
<path fill="none" stroke="#63b8ff" d="M700.72,-294.43C582.95,-293.31 222.88,-282.66 158,-195 152.98,-188.21 152.68,-182.55 158,-176 180.82,-147.91 279.52,-135.05 342.73,-129.6"/>
<polygon fill="#63b8ff" stroke="#63b8ff" points="343.26,-133.07 352.93,-128.75 342.68,-126.09 343.26,-133.07"/>
</a>
</g>
</g>
<!-- Node11 -->
<g id="Node000011" class="node">
<title>Node11</title>
<g id="a_Node000011"><a xlink:href="sitkTemplateFunctions_8h.html" target="_top" xlink:title=" ">
<polygon fill="white" stroke="#666666" points="482.5,-250 347.5,-250 347.5,-231 482.5,-231 482.5,-250"/>
<text text-anchor="middle" x="415" y="-238" font-family="Helvetica,sans-Serif" font-size="10.00">sitkTemplateFunctions.h</text>
</a>
</g>
</g>
<!-- Node2&#45;&gt;Node11 -->
<g id="edge10_Node000002_Node000011" class="edge">
<title>Node2&#45;&gt;Node11</title>
<g id="a_edge10_Node000002_Node000011"><a xlink:title=" ">
<path fill="none" stroke="#63b8ff" d="M700.95,-288.42C646.26,-279.45 543.25,-262.54 476.94,-251.66"/>
<polygon fill="#63b8ff" stroke="#63b8ff" points="477.47,-248.2 467.04,-250.04 476.34,-255.11 477.47,-248.2"/>
</a>
</g>
</g>
<!-- Node13 -->
<g id="Node000013" class="node">
<title>Node13</title>
<g id="a_Node000013"><a xlink:title=" ">
<polygon fill="#e0e0e0" stroke="#999999" points="623,-134.5 565,-134.5 565,-115.5 623,-115.5 623,-134.5"/>
<text text-anchor="middle" x="594" y="-122.5" font-family="Helvetica,sans-Serif" font-size="10.00">memory</text>
</a>
</g>
</g>
<!-- Node2&#45;&gt;Node13 -->
<g id="edge48_Node000002_Node000013" class="edge">
<title>Node2&#45;&gt;Node13</title>
<g id="a_edge48_Node000002_Node000013"><a xlink:title=" ">
<path fill="none" stroke="#63b8ff" d="M748.6,-285.78C772.37,-265.18 825.69,-212.5 797,-176 755.17,-122.77 714.69,-156.35 649,-140 643.87,-138.72 638.48,-137.37 633.16,-136.02"/>
<polygon fill="#63b8ff" stroke="#63b8ff" points="633.65,-132.54 623.1,-133.47 631.93,-139.32 633.65,-132.54"/>
</a>
</g>
</g>
<!-- Node14 -->
<g id="Node000014" class="node">
<title>Node14</title>
<g id="a_Node000014"><a xlink:title=" ">
<polygon fill="#e0e0e0" stroke="#999999" points="580.5,-195 533.5,-195 533.5,-176 580.5,-176 580.5,-195"/>
<text text-anchor="middle" x="557" y="-183" font-family="Helvetica,sans-Serif" font-size="10.00">vector</text>
</a>
</g>
</g>
<!-- Node2&#45;&gt;Node14 -->
<g id="edge47_Node000002_Node000014" class="edge">
<title>Node2&#45;&gt;Node14</title>
<g id="a_edge47_Node000002_Node000014"><a xlink:title=" ">
<path fill="none" stroke="#63b8ff" d="M723.49,-285.84C692.17,-267.16 618,-222.9 580.12,-200.3"/>
<polygon fill="#63b8ff" stroke="#63b8ff" points="581.7,-197.17 571.32,-195.05 578.12,-203.18 581.7,-197.17"/>
</a>
</g>
</g>
<!-- Node18 -->
<g id="Node000018" class="node">
<title>Node18</title>
<g id="a_Node000018"><a xlink:href="sitkDetail_8h.html" target="_top" xlink:title=" ">
<polygon fill="white" stroke="#666666" points="1234.5,-195 1161.5,-195 1161.5,-176 1234.5,-176 1234.5,-195"/>
<text text-anchor="middle" x="1198" y="-183" font-family="Helvetica,sans-Serif" font-size="10.00">sitkDetail.h</text>
</a>
</g>
</g>
<!-- Node2&#45;&gt;Node18 -->
<g id="edge21_Node000002_Node000018" class="edge">
<title>Node2&#45;&gt;Node18</title>
<g id="a_edge21_Node000002_Node000018"><a xlink:title=" ">
<path fill="none" stroke="#63b8ff" d="M775.36,-289.76C826.16,-282.93 919.68,-269.04 998,-250 1057.76,-235.47 1125.67,-212.49 1165,-198.53"/>
<polygon fill="#63b8ff" stroke="#63b8ff" points="1166.36,-201.76 1174.59,-195.09 1164,-195.17 1166.36,-201.76"/>
</a>
</g>
</g>
<!-- Node28 -->
<g id="Node000028" class="node">
<title>Node28</title>
<g id="a_Node000028"><a xlink:href="sitkPixelIDTokens_8h.html" target="_top" xlink:title=" ">
<polygon fill="white" stroke="#666666" points="961,-250 851,-250 851,-231 961,-231 961,-250"/>
<text text-anchor="middle" x="906" y="-238" font-family="Helvetica,sans-Serif" font-size="10.00">sitkPixelIDTokens.h</text>
</a>
</g>
</g>
<!-- Node2&#45;&gt;Node28 -->
<g id="edge36_Node000002_Node000028" class="edge">
<title>Node2&#45;&gt;Node28</title>
<g id="a_edge36_Node000002_Node000028"><a xlink:title=" ">
<path fill="none" stroke="#63b8ff" d="M764.99,-285.98C793.2,-277.09 837.64,-263.07 869.08,-253.15"/>
<polygon fill="#63b8ff" stroke="#63b8ff" points="870.31,-256.43 878.8,-250.08 868.21,-249.75 870.31,-256.43"/>
</a>
</g>
</g>
<!-- Node31 -->
<g id="Node000031" class="node">
<title>Node31</title>
<g id="a_Node000031"><a xlink:title=" ">
<polygon fill="#e0e0e0" stroke="#999999" points="1079.5,-195 1010.5,-195 1010.5,-176 1079.5,-176 1079.5,-195"/>
<text text-anchor="middle" x="1045" y="-183" font-family="Helvetica,sans-Serif" font-size="10.00">type_traits</text>
</a>
</g>
</g>
<!-- Node2&#45;&gt;Node31 -->
<g id="edge49_Node000002_Node000031" class="edge">
<title>Node2&#45;&gt;Node31</title>
<g id="a_edge49_Node000002_Node000031"><a xlink:title=" ">
<path fill="none" stroke="#63b8ff" d="M775.16,-293.15C822.54,-290.17 905.99,-280.61 970,-250 994.16,-238.45 1016.88,-217.2 1030.85,-202.48"/>
<polygon fill="#63b8ff" stroke="#63b8ff" points="1033.47,-204.8 1037.67,-195.08 1028.32,-200.06 1033.47,-204.8"/>
</a>
</g>
</g>
<!-- Node32 -->
<g id="Node000032" class="node">
<title>Node32</title>
<g id="a_Node000032"><a xlink:href="sitkInterpolator_8h.html" target="_top" xlink:title=" ">
<polygon fill="white" stroke="#666666" points="788,-195 688,-195 688,-176 788,-176 788,-195"/>
<text text-anchor="middle" x="738" y="-183" font-family="Helvetica,sans-Serif" font-size="10.00">sitkInterpolator.h</text>
</a>
</g>
</g>
<!-- Node2&#45;&gt;Node32 -->
<g id="edge44_Node000002_Node000032" class="edge">
<title>Node2&#45;&gt;Node32</title>
<g id="a_edge44_Node000002_Node000032"><a xlink:title=" ">
<path fill="none" stroke="#63b8ff" d="M738,-285.66C738,-268.17 738,-228.8 738,-205.27"/>
<polygon fill="#63b8ff" stroke="#63b8ff" points="741.5,-205.16 738,-195.16 734.5,-205.16 741.5,-205.16"/>
</a>
</g>
</g>
<!-- Node4 -->
<g id="Node000004" class="node">
<title>Node4</title>
<g id="a_Node000004"><a xlink:href="sitkMacro_8h.html" target="_top" xlink:title=" ">
<polygon fill="white" stroke="#666666" points="470,-74 396,-74 396,-55 470,-55 470,-74"/>
<text text-anchor="middle" x="433" y="-62" font-family="Helvetica,sans-Serif" font-size="10.00">sitkMacro.h</text>
</a>
</g>
</g>
<!-- Node3&#45;&gt;Node4 -->
<g id="edge3_Node000003_Node000004" class="edge">
<title>Node3&#45;&gt;Node4</title>
<g id="a_edge3_Node000003_Node000004"><a xlink:title=" ">
<path fill="none" stroke="#63b8ff" d="M402.31,-115.37C407.58,-106.81 415.79,-93.47 422.39,-82.74"/>
<polygon fill="#63b8ff" stroke="#63b8ff" points="425.41,-84.52 427.67,-74.17 419.44,-80.85 425.41,-84.52"/>
</a>
</g>
</g>
<!-- Node5 -->
<g id="Node000005" class="node">
<title>Node5</title>
<g id="a_Node000005"><a xlink:title=" ">
<polygon fill="#e0e0e0" stroke="#999999" points="949.5,-19 896.5,-19 896.5,0 949.5,0 949.5,-19"/>
<text text-anchor="middle" x="923" y="-7" font-family="Helvetica,sans-Serif" font-size="10.00">stdint.h</text>
</a>
</g>
</g>
<!-- Node4&#45;&gt;Node5 -->
<g id="edge4_Node000004_Node000005" class="edge">
<title>Node4&#45;&gt;Node5</title>
<g id="a_edge4_Node000004_Node000005"><a xlink:title=" ">
<path fill="none" stroke="#63b8ff" d="M470.3,-61.54C546.56,-57.18 725.93,-45.04 886.3,-18.88"/>
<polygon fill="#63b8ff" stroke="#63b8ff" points="887.05,-22.3 896.34,-17.21 885.91,-15.39 887.05,-22.3"/>
</a>
</g>
</g>
<!-- Node6 -->
<g id="Node000006" class="node">
<title>Node6</title>
<g id="a_Node000006"><a xlink:title=" ">
<polygon fill="#e0e0e0" stroke="#999999" points="563,-19 507,-19 507,0 563,0 563,-19"/>
<text text-anchor="middle" x="535" y="-7" font-family="Helvetica,sans-Serif" font-size="10.00">stddef.h</text>
</a>
</g>
</g>
<!-- Node4&#45;&gt;Node6 -->
<g id="edge5_Node000004_Node000006" class="edge">
<title>Node4&#45;&gt;Node6</title>
<g id="a_edge5_Node000004_Node000006"><a xlink:title=" ">
<path fill="none" stroke="#63b8ff" d="M449.39,-54.98C465.57,-46.57 490.57,-33.59 509.38,-23.81"/>
<polygon fill="#63b8ff" stroke="#63b8ff" points="511.05,-26.89 518.31,-19.17 507.83,-20.68 511.05,-26.89"/>
</a>
</g>
</g>
<!-- Node7 -->
<g id="Node000007" class="node">
<title>Node7</title>
<g id="a_Node000007"><a xlink:title=" ">
<polygon fill="#e0e0e0" stroke="#999999" points="353,-19 301,-19 301,0 353,0 353,-19"/>
<text text-anchor="middle" x="327" y="-7" font-family="Helvetica,sans-Serif" font-size="10.00">cassert</text>
</a>
</g>
</g>
<!-- Node4&#45;&gt;Node7 -->
<g id="edge6_Node000004_Node000007" class="edge">
<title>Node4&#45;&gt;Node7</title>
<g id="a_edge6_Node000004_Node000007"><a xlink:title=" ">
<path fill="none" stroke="#63b8ff" d="M415.97,-54.98C399.07,-46.54 372.94,-33.47 353.36,-23.68"/>
<polygon fill="#63b8ff" stroke="#63b8ff" points="354.85,-20.51 344.34,-19.17 351.72,-26.77 354.85,-20.51"/>
</a>
</g>
</g>
<!-- Node8 -->
<g id="Node000008" class="node">
<title>Node8</title>
<g id="a_Node000008"><a xlink:title=" ">
<polygon fill="#e0e0e0" stroke="#999999" points="427,-19 371,-19 371,0 427,0 427,-19"/>
<text text-anchor="middle" x="399" y="-7" font-family="Helvetica,sans-Serif" font-size="10.00">sstream</text>
</a>
</g>
</g>
<!-- Node4&#45;&gt;Node8 -->
<g id="edge7_Node000004_Node000008" class="edge">
<title>Node4&#45;&gt;Node8</title>
<g id="a_edge7_Node000004_Node000008"><a xlink:title=" ">
<path fill="none" stroke="#63b8ff" d="M427.39,-54.75C422.68,-47.42 415.83,-36.73 410.03,-27.7"/>
<polygon fill="#63b8ff" stroke="#63b8ff" points="412.86,-25.62 404.51,-19.09 406.96,-29.4 412.86,-25.62"/>
</a>
</g>
</g>
<!-- Node9 -->
<g id="Node000009" class="node">
<title>Node9</title>
<g id="a_Node000009"><a xlink:title=" ">
<polygon fill="#e0e0e0" stroke="#999999" points="489,-19 445,-19 445,0 489,0 489,-19"/>
<text text-anchor="middle" x="467" y="-7" font-family="Helvetica,sans-Serif" font-size="10.00">limits</text>
</a>
</g>
</g>
<!-- Node4&#45;&gt;Node9 -->
<g id="edge8_Node000004_Node000009" class="edge">
<title>Node4&#45;&gt;Node9</title>
<g id="a_edge8_Node000004_Node000009"><a xlink:title=" ">
<path fill="none" stroke="#63b8ff" d="M438.61,-54.75C443.32,-47.42 450.17,-36.73 455.97,-27.7"/>
<polygon fill="#63b8ff" stroke="#63b8ff" points="459.04,-29.4 461.49,-19.09 453.14,-25.62 459.04,-29.4"/>
</a>
</g>
</g>
<!-- Node10 -->
<g id="Node000010" class="node">
<title>Node10</title>
<g id="a_Node000010"><a xlink:href="sitkConfigure_8h.html" target="_top" xlink:title=" ">
<polygon fill="white" stroke="#666666" points="878,-19 788,-19 788,0 878,0 878,-19"/>
<text text-anchor="middle" x="833" y="-7" font-family="Helvetica,sans-Serif" font-size="10.00">sitkConfigure.h</text>
</a>
</g>
</g>
<!-- Node4&#45;&gt;Node10 -->
<g id="edge9_Node000004_Node000010" class="edge">
<title>Node4&#45;&gt;Node10</title>
<g id="a_edge9_Node000004_Node000010"><a xlink:title=" ">
<path fill="none" stroke="#63b8ff" d="M470.27,-58.56C541.02,-49.19 695.08,-28.77 777.83,-17.81"/>
<polygon fill="#63b8ff" stroke="#63b8ff" points="778.34,-21.27 787.8,-16.49 777.43,-14.33 778.34,-21.27"/>
</a>
</g>
</g>
<!-- Node11&#45;&gt;Node3 -->
<g id="edge12_Node000011_Node000003" class="edge">
<title>Node11&#45;&gt;Node3</title>
<g id="a_edge12_Node000011_Node000003"><a xlink:title=" ">
<path fill="none" stroke="#63b8ff" d="M347.41,-236.6C283.14,-232.26 193.1,-221.49 171,-195 122.49,-136.84 261.46,-126.68 342.75,-125.54"/>
<polygon fill="#63b8ff" stroke="#63b8ff" points="342.88,-129.04 352.85,-125.44 342.81,-122.04 342.88,-129.04"/>
</a>
</g>
</g>
<!-- Node11&#45;&gt;Node4 -->
<g id="edge11_Node000011_Node000004" class="edge">
<title>Node11&#45;&gt;Node4</title>
<g id="a_edge11_Node000011_Node000004"><a xlink:title=" ">
<path fill="none" stroke="#63b8ff" d="M389.49,-230.9C373.31,-223.96 353.65,-212.44 344,-195 325.71,-161.95 324.14,-142.14 344,-110 353.49,-94.64 370.06,-84.41 386.35,-77.68"/>
<polygon fill="#63b8ff" stroke="#63b8ff" points="387.73,-80.9 395.85,-74.1 385.26,-74.35 387.73,-80.9"/>
</a>
</g>
</g>
<!-- Node12 -->
<g id="Node000012" class="node">
<title>Node12</title>
<g id="a_Node000012"><a xlink:href="sitkExceptionObject_8h.html" target="_top" xlink:title=" ">
<polygon fill="white" stroke="#666666" points="476.5,-195 353.5,-195 353.5,-176 476.5,-176 476.5,-195"/>
<text text-anchor="middle" x="415" y="-183" font-family="Helvetica,sans-Serif" font-size="10.00">sitkExceptionObject.h</text>
</a>
</g>
</g>
<!-- Node11&#45;&gt;Node12 -->
<g id="edge13_Node000011_Node000012" class="edge">
<title>Node11&#45;&gt;Node12</title>
<g id="a_edge13_Node000011_Node000012"><a xlink:title=" ">
<path fill="none" stroke="#63b8ff" d="M415,-230.75C415,-223.8 415,-213.85 415,-205.13"/>
<polygon fill="#63b8ff" stroke="#63b8ff" points="418.5,-205.09 415,-195.09 411.5,-205.09 418.5,-205.09"/>
</a>
</g>
</g>
<!-- Node11&#45;&gt;Node14 -->
<g id="edge17_Node000011_Node000014" class="edge">
<title>Node11&#45;&gt;Node14</title>
<g id="a_edge17_Node000011_Node000014"><a xlink:title=" ">
<path fill="none" stroke="#63b8ff" d="M437.81,-230.98C461.17,-222.27 497.7,-208.63 524.17,-198.75"/>
<polygon fill="#63b8ff" stroke="#63b8ff" points="525.63,-201.95 533.77,-195.17 523.18,-195.39 525.63,-201.95"/>
</a>
</g>
</g>
<!-- Node15 -->
<g id="Node000015" class="node">
<title>Node15</title>
<g id="a_Node000015"><a xlink:title=" ">
<polygon fill="#e0e0e0" stroke="#999999" points="714.5,-134.5 657.5,-134.5 657.5,-115.5 714.5,-115.5 714.5,-134.5"/>
<text text-anchor="middle" x="686" y="-122.5" font-family="Helvetica,sans-Serif" font-size="10.00">ostream</text>
</a>
</g>
</g>
<!-- Node11&#45;&gt;Node15 -->
<g id="edge18_Node000011_Node000015" class="edge">
<title>Node11&#45;&gt;Node15</title>
<g id="a_edge18_Node000011_Node000015"><a xlink:title=" ">
<path fill="none" stroke="#63b8ff" d="M427.58,-230.88C447.37,-217.63 487.3,-192.1 524,-176 546.24,-166.24 607.12,-148.29 647.58,-136.76"/>
<polygon fill="#63b8ff" stroke="#63b8ff" points="648.73,-140.07 657.4,-133.98 646.82,-133.34 648.73,-140.07"/>
</a>
</g>
</g>
<!-- Node16 -->
<g id="Node000016" class="node">
<title>Node16</title>
<g id="a_Node000016"><a xlink:title=" ">
<polygon fill="#e0e0e0" stroke="#999999" points="233.5,-195 180.5,-195 180.5,-176 233.5,-176 233.5,-195"/>
<text text-anchor="middle" x="207" y="-183" font-family="Helvetica,sans-Serif" font-size="10.00">iterator</text>
</a>
</g>
</g>
<!-- Node11&#45;&gt;Node16 -->
<g id="edge19_Node000011_Node000016" class="edge">
<title>Node11&#45;&gt;Node16</title>
<g id="a_edge19_Node000011_Node000016"><a xlink:title=" ">
<path fill="none" stroke="#63b8ff" d="M381.58,-230.98C343.84,-221.37 282.62,-205.77 243.62,-195.83"/>
<polygon fill="#63b8ff" stroke="#63b8ff" points="244.28,-192.39 233.72,-193.31 242.55,-199.17 244.28,-192.39"/>
</a>
</g>
</g>
<!-- Node17 -->
<g id="Node000017" class="node">
<title>Node17</title>
<g id="a_Node000017"><a xlink:title=" ">
<polygon fill="#e0e0e0" stroke="#999999" points="296.5,-195 251.5,-195 251.5,-176 296.5,-176 296.5,-195"/>
<text text-anchor="middle" x="274" y="-183" font-family="Helvetica,sans-Serif" font-size="10.00">utility</text>
</a>
</g>
</g>
<!-- Node11&#45;&gt;Node17 -->
<g id="edge20_Node000011_Node000017" class="edge">
<title>Node11&#45;&gt;Node17</title>
<g id="a_edge20_Node000011_Node000017"><a xlink:title=" ">
<path fill="none" stroke="#63b8ff" d="M392.35,-230.98C369.01,-222.21 332.45,-208.47 306.13,-198.58"/>
<polygon fill="#63b8ff" stroke="#63b8ff" points="307.19,-195.24 296.6,-194.99 304.73,-201.79 307.19,-195.24"/>
</a>
</g>
</g>
<!-- Node12&#45;&gt;Node3 -->
<g id="edge15_Node000012_Node000003" class="edge">
<title>Node12&#45;&gt;Node3</title>
<g id="a_edge15_Node000012_Node000003"><a xlink:title=" ">
<path fill="none" stroke="#63b8ff" d="M412.34,-175.87C409.82,-167.66 405.94,-155.04 402.71,-144.55"/>
<polygon fill="#63b8ff" stroke="#63b8ff" points="405.95,-143.2 399.67,-134.67 399.26,-145.25 405.95,-143.2"/>
</a>
</g>
</g>
<!-- Node12&#45;&gt;Node4 -->
<g id="edge14_Node000012_Node000004" class="edge">
<title>Node12&#45;&gt;Node4</title>
<g id="a_edge14_Node000012_Node000004"><a xlink:title=" ">
<path fill="none" stroke="#63b8ff" d="M424.88,-175.75C433.39,-167.5 445.05,-154.3 450,-140 456.49,-121.26 449.6,-99 442.75,-83.72"/>
<polygon fill="#63b8ff" stroke="#63b8ff" points="445.72,-81.83 438.17,-74.39 439.43,-84.91 445.72,-81.83"/>
</a>
</g>
</g>
<!-- Node12&#45;&gt;Node13 -->
<g id="edge16_Node000012_Node000013" class="edge">
<title>Node12&#45;&gt;Node13</title>
<g id="a_edge16_Node000012_Node000013"><a xlink:title=" ">
<path fill="none" stroke="#63b8ff" d="M441.03,-175.99C471.92,-165.9 523.58,-149.01 558.22,-137.69"/>
<polygon fill="#63b8ff" stroke="#63b8ff" points="559.52,-140.95 567.94,-134.52 557.35,-134.3 559.52,-140.95"/>
</a>
</g>
</g>
<!-- Node19 -->
<g id="Node000019" class="node">
<title>Node19</title>
<g id="a_Node000019"><a xlink:href="sitkMemberFunctionFactoryBase_8h.html" target="_top" xlink:title=" ">
<polygon fill="white" stroke="#666666" points="1274,-140 1122,-140 1122,-110 1274,-110 1274,-140"/>
<text text-anchor="start" x="1130" y="-128" font-family="Helvetica,sans-Serif" font-size="10.00">sitkMemberFunctionFactory</text>
<text text-anchor="middle" x="1198" y="-117" font-family="Helvetica,sans-Serif" font-size="10.00">Base.h</text>
</a>
</g>
</g>
<!-- Node18&#45;&gt;Node19 -->
<g id="edge22_Node000018_Node000019" class="edge">
<title>Node18&#45;&gt;Node19</title>
<g id="a_edge22_Node000018_Node000019"><a xlink:title=" ">
<path fill="none" stroke="#63b8ff" d="M1198,-175.87C1198,-169.11 1198,-159.35 1198,-150.26"/>
<polygon fill="#63b8ff" stroke="#63b8ff" points="1201.5,-150.11 1198,-140.11 1194.5,-150.11 1201.5,-150.11"/>
</a>
</g>
</g>
<!-- Node24 -->
<g id="Node000024" class="node">
<title>Node24</title>
<g id="a_Node000024"><a xlink:title=" ">
<polygon fill="#e0e0e0" stroke="#999999" points="1559.5,-74 1420.5,-74 1420.5,-55 1559.5,-55 1559.5,-74"/>
<text text-anchor="middle" x="1490" y="-62" font-family="Helvetica,sans-Serif" font-size="10.00">Ancillary/FunctionTraits.h</text>
</a>
</g>
</g>
<!-- Node18&#45;&gt;Node24 -->
<g id="edge35_Node000018_Node000024" class="edge">
<title>Node18&#45;&gt;Node24</title>
<g id="a_edge35_Node000018_Node000024"><a xlink:title=" ">
<path fill="none" stroke="#63b8ff" d="M1219,-175.94C1269.81,-155.24 1399.56,-102.36 1459.18,-78.06"/>
<polygon fill="#63b8ff" stroke="#63b8ff" points="1460.86,-81.16 1468.8,-74.14 1458.22,-74.67 1460.86,-81.16"/>
</a>
</g>
</g>
<!-- Node19&#45;&gt;Node10 -->
<g id="edge23_Node000019_Node000010" class="edge">
<title>Node19&#45;&gt;Node10</title>
<g id="a_edge23_Node000019_Node000010"><a xlink:title=" ">
<path fill="none" stroke="#63b8ff" d="M1121.76,-110.33C1079.21,-101.77 1025.55,-89.44 979,-74 959.17,-67.42 955.15,-63.37 936,-55 911.3,-44.21 883.22,-32.08 862.62,-23.22"/>
<polygon fill="#63b8ff" stroke="#63b8ff" points="863.72,-19.88 853.15,-19.15 860.96,-26.31 863.72,-19.88"/>
</a>
</g>
</g>
<!-- Node20 -->
<g id="Node000020" class="node">
<title>Node20</title>
<g id="a_Node000020"><a xlink:href="sitkPixelIDTypeLists_8h.html" target="_top" xlink:title=" ">
<polygon fill="white" stroke="#666666" points="1110,-74 988,-74 988,-55 1110,-55 1110,-74"/>
<text text-anchor="middle" x="1049" y="-62" font-family="Helvetica,sans-Serif" font-size="10.00">sitkPixelIDTypeLists.h</text>
</a>
</g>
</g>
<!-- Node19&#45;&gt;Node20 -->
<g id="edge24_Node000019_Node000020" class="edge">
<title>Node19&#45;&gt;Node20</title>
<g id="a_edge24_Node000019_Node000020"><a xlink:title=" ">
<path fill="none" stroke="#63b8ff" d="M1162.31,-109.99C1137.34,-100.18 1104.3,-87.21 1080.34,-77.81"/>
<polygon fill="#63b8ff" stroke="#63b8ff" points="1081.59,-74.54 1071,-74.14 1079.03,-81.05 1081.59,-74.54"/>
</a>
</g>
</g>
<!-- Node22 -->
<g id="Node000022" class="node">
<title>Node22</title>
<g id="a_Node000022"><a xlink:title=" ">
<polygon fill="#e0e0e0" stroke="#999999" points="1286.5,-19 1167.5,-19 1167.5,0 1286.5,0 1286.5,-19"/>
<text text-anchor="middle" x="1227" y="-7" font-family="Helvetica,sans-Serif" font-size="10.00">Ancillary/type_list2.h</text>
</a>
</g>
</g>
<!-- Node19&#45;&gt;Node22 -->
<g id="edge30_Node000019_Node000022" class="edge">
<title>Node19&#45;&gt;Node22</title>
<g id="a_edge30_Node000019_Node000022"><a xlink:title=" ">
<path fill="none" stroke="#63b8ff" d="M1201.67,-109.63C1206.91,-89.12 1216.53,-51.47 1222.29,-28.93"/>
<polygon fill="#63b8ff" stroke="#63b8ff" points="1225.69,-29.78 1224.77,-19.23 1218.9,-28.05 1225.69,-29.78"/>
</a>
</g>
</g>
<!-- Node19&#45;&gt;Node24 -->
<g id="edge31_Node000019_Node000024" class="edge">
<title>Node19&#45;&gt;Node24</title>
<g id="a_edge31_Node000019_Node000024"><a xlink:title=" ">
<path fill="none" stroke="#63b8ff" d="M1267.94,-109.99C1319.97,-99.56 1389.88,-85.56 1437.26,-76.07"/>
<polygon fill="#63b8ff" stroke="#63b8ff" points="1438.19,-79.45 1447.31,-74.05 1436.81,-72.59 1438.19,-79.45"/>
</a>
</g>
</g>
<!-- Node25 -->
<g id="Node000025" class="node">
<title>Node25</title>
<g id="a_Node000025"><a xlink:title=" ">
<polygon fill="#e0e0e0" stroke="#999999" points="1319.5,-74 1226.5,-74 1226.5,-55 1319.5,-55 1319.5,-74"/>
<text text-anchor="middle" x="1273" y="-62" font-family="Helvetica,sans-Serif" font-size="10.00">unordered_map</text>
</a>
</g>
</g>
<!-- Node19&#45;&gt;Node25 -->
<g id="edge32_Node000019_Node000025" class="edge">
<title>Node19&#45;&gt;Node25</title>
<g id="a_edge32_Node000019_Node000025"><a xlink:title=" ">
<path fill="none" stroke="#63b8ff" d="M1216.16,-109.84C1227.49,-101 1242.06,-89.63 1253.62,-80.62"/>
<polygon fill="#63b8ff" stroke="#63b8ff" points="1256.03,-83.18 1261.76,-74.27 1251.72,-77.66 1256.03,-83.18"/>
</a>
</g>
</g>
<!-- Node26 -->
<g id="Node000026" class="node">
<title>Node26</title>
<g id="a_Node000026"><a xlink:title=" ">
<polygon fill="#e0e0e0" stroke="#999999" points="1402.5,-74 1337.5,-74 1337.5,-55 1402.5,-55 1402.5,-74"/>
<text text-anchor="middle" x="1370" y="-62" font-family="Helvetica,sans-Serif" font-size="10.00">functional</text>
</a>
</g>
</g>
<!-- Node19&#45;&gt;Node26 -->
<g id="edge33_Node000019_Node000026" class="edge">
<title>Node19&#45;&gt;Node26</title>
<g id="a_edge33_Node000019_Node000026"><a xlink:title=" ">
<path fill="none" stroke="#63b8ff" d="M1239.2,-109.99C1268.5,-100.02 1307.42,-86.78 1335.17,-77.35"/>
<polygon fill="#63b8ff" stroke="#63b8ff" points="1336.51,-80.59 1344.85,-74.05 1334.26,-73.96 1336.51,-80.59"/>
</a>
</g>
</g>
<!-- Node27 -->
<g id="Node000027" class="node">
<title>Node27</title>
<g id="a_Node000027"><a xlink:title=" ">
<polygon fill="#e0e0e0" stroke="#999999" points="1169.5,-74 1128.5,-74 1128.5,-55 1169.5,-55 1169.5,-74"/>
<text text-anchor="middle" x="1149" y="-62" font-family="Helvetica,sans-Serif" font-size="10.00">tuple</text>
</a>
</g>
</g>
<!-- Node19&#45;&gt;Node27 -->
<g id="edge34_Node000019_Node000027" class="edge">
<title>Node19&#45;&gt;Node27</title>
<g id="a_edge34_Node000019_Node000027"><a xlink:title=" ">
<path fill="none" stroke="#63b8ff" d="M1186.14,-109.84C1179.1,-101.43 1170.14,-90.74 1162.79,-81.96"/>
<polygon fill="#63b8ff" stroke="#63b8ff" points="1165.45,-79.68 1156.34,-74.27 1160.08,-84.18 1165.45,-79.68"/>
</a>
</g>
</g>
<!-- Node20&#45;&gt;Node5 -->
<g id="edge25_Node000020_Node000005" class="edge">
<title>Node20&#45;&gt;Node5</title>
<g id="a_edge25_Node000020_Node000005"><a xlink:title=" ">
<path fill="none" stroke="#63b8ff" d="M1028.76,-54.98C1008.3,-46.38 976.47,-32.99 953.07,-23.15"/>
<polygon fill="#63b8ff" stroke="#63b8ff" points="954.19,-19.82 943.61,-19.17 951.47,-26.27 954.19,-19.82"/>
</a>
</g>
</g>
<!-- Node20&#45;&gt;Node10 -->
<g id="edge26_Node000020_Node000010" class="edge">
<title>Node20&#45;&gt;Node10</title>
<g id="a_edge26_Node000020_Node000010"><a xlink:title=" ">
<path fill="none" stroke="#63b8ff" d="M1014.3,-54.98C977.25,-45.89 918.41,-31.46 877.87,-21.51"/>
<polygon fill="#63b8ff" stroke="#63b8ff" points="878.52,-18.07 867.98,-19.08 876.85,-24.86 878.52,-18.07"/>
</a>
</g>
</g>
<!-- Node21 -->
<g id="Node000021" class="node">
<title>Node21</title>
<g id="a_Node000021"><a xlink:href="sitkPixelIDTypes_8h.html" target="_top" xlink:title=" ">
<polygon fill="white" stroke="#666666" points="1072.5,-19 967.5,-19 967.5,0 1072.5,0 1072.5,-19"/>
<text text-anchor="middle" x="1020" y="-7" font-family="Helvetica,sans-Serif" font-size="10.00">sitkPixelIDTypes.h</text>
</a>
</g>
</g>
<!-- Node20&#45;&gt;Node21 -->
<g id="edge27_Node000020_Node000021" class="edge">
<title>Node20&#45;&gt;Node21</title>
<g id="a_edge27_Node000020_Node000021"><a xlink:title=" ">
<path fill="none" stroke="#63b8ff" d="M1044.21,-54.75C1040.24,-47.49 1034.47,-36.95 1029.57,-27.98"/>
<polygon fill="#63b8ff" stroke="#63b8ff" points="1032.57,-26.18 1024.7,-19.09 1026.43,-29.54 1032.57,-26.18"/>
</a>
</g>
</g>
<!-- Node20&#45;&gt;Node22 -->
<g id="edge28_Node000020_Node000022" class="edge">
<title>Node20&#45;&gt;Node22</title>
<g id="a_edge28_Node000020_Node000022"><a xlink:title=" ">
<path fill="none" stroke="#63b8ff" d="M1077.6,-54.98C1107.61,-46.05 1154.98,-31.94 1188.32,-22.02"/>
<polygon fill="#63b8ff" stroke="#63b8ff" points="1189.59,-25.29 1198.18,-19.08 1187.59,-18.58 1189.59,-25.29"/>
</a>
</g>
</g>
<!-- Node23 -->
<g id="Node000023" class="node">
<title>Node23</title>
<g id="a_Node000023"><a xlink:title=" ">
<polygon fill="#e0e0e0" stroke="#999999" points="1149.5,-19 1090.5,-19 1090.5,0 1149.5,0 1149.5,-19"/>
<text text-anchor="middle" x="1120" y="-7" font-family="Helvetica,sans-Serif" font-size="10.00">complex</text>
</a>
</g>
</g>
<!-- Node20&#45;&gt;Node23 -->
<g id="edge29_Node000020_Node000023" class="edge">
<title>Node20&#45;&gt;Node23</title>
<g id="a_edge29_Node000020_Node000023"><a xlink:title=" ">
<path fill="none" stroke="#63b8ff" d="M1060.41,-54.98C1071.11,-47 1087.34,-34.88 1100.16,-25.31"/>
<polygon fill="#63b8ff" stroke="#63b8ff" points="1102.47,-27.96 1108.39,-19.17 1098.28,-22.35 1102.47,-27.96"/>
</a>
</g>
</g>
<!-- Node28&#45;&gt;Node10 -->
<g id="edge37_Node000028_Node000010" class="edge">
<title>Node28&#45;&gt;Node10</title>
<g id="a_edge37_Node000028_Node000010"><a xlink:title=" ">
<path fill="none" stroke="#63b8ff" d="M924.35,-230.88C937.79,-223.46 955.02,-211.36 963,-195 966.7,-187.41 965.76,-183.98 963,-176 940.63,-111.3 881.36,-52.64 851.19,-25.85"/>
<polygon fill="#63b8ff" stroke="#63b8ff" points="853.35,-23.09 843.51,-19.16 848.75,-28.37 853.35,-23.09"/>
</a>
</g>
</g>
<!-- Node29 -->
<g id="Node000029" class="node">
<title>Node29</title>
<g id="a_Node000029"><a xlink:href="sitkPixelIDValues_8h.html" target="_top" xlink:title=" ">
<polygon fill="white" stroke="#666666" points="954,-195 844,-195 844,-176 954,-176 954,-195"/>
<text text-anchor="middle" x="899" y="-183" font-family="Helvetica,sans-Serif" font-size="10.00">sitkPixelIDValues.h</text>
</a>
</g>
</g>
<!-- Node28&#45;&gt;Node29 -->
<g id="edge38_Node000028_Node000029" class="edge">
<title>Node28&#45;&gt;Node29</title>
<g id="a_edge38_Node000028_Node000029"><a xlink:title=" ">
<path fill="none" stroke="#63b8ff" d="M904.84,-230.75C903.93,-223.8 902.61,-213.85 901.46,-205.13"/>
<polygon fill="#63b8ff" stroke="#63b8ff" points="904.91,-204.54 900.13,-195.09 897.97,-205.46 904.91,-204.54"/>
</a>
</g>
</g>
<!-- Node28&#45;&gt;Node31 -->
<g id="edge43_Node000028_Node000031" class="edge">
<title>Node28&#45;&gt;Node31</title>
<g id="a_edge43_Node000028_Node000031"><a xlink:title=" ">
<path fill="none" stroke="#63b8ff" d="M928.33,-230.98C951.2,-222.27 986.96,-208.63 1012.86,-198.75"/>
<polygon fill="#63b8ff" stroke="#63b8ff" points="1014.16,-202 1022.26,-195.17 1011.67,-195.46 1014.16,-202"/>
</a>
</g>
</g>
<!-- Node29&#45;&gt;Node3 -->
<g id="edge39_Node000029_Node000003" class="edge">
<title>Node29&#45;&gt;Node3</title>
<g id="a_edge39_Node000029_Node000003"><a xlink:title=" ">
<path fill="none" stroke="#63b8ff" d="M843.84,-178.07C747.02,-166.79 547.64,-143.55 451.37,-132.34"/>
<polygon fill="#63b8ff" stroke="#63b8ff" points="451.61,-128.84 441.27,-131.16 450.8,-135.79 451.61,-128.84"/>
</a>
</g>
</g>
<!-- Node29&#45;&gt;Node15 -->
<g id="edge42_Node000029_Node000015" class="edge">
<title>Node29&#45;&gt;Node15</title>
<g id="a_edge42_Node000029_Node000015"><a xlink:title=" ">
<path fill="none" stroke="#63b8ff" d="M868.03,-175.99C829.97,-165.54 765.42,-147.81 724.29,-136.52"/>
<polygon fill="#63b8ff" stroke="#63b8ff" points="725.19,-133.13 714.62,-133.86 723.34,-139.88 725.19,-133.13"/>
</a>
</g>
</g>
<!-- Node29&#45;&gt;Node20 -->
<g id="edge40_Node000029_Node000020" class="edge">
<title>Node29&#45;&gt;Node20</title>
<g id="a_edge40_Node000029_Node000020"><a xlink:title=" ">
<path fill="none" stroke="#63b8ff" d="M909.79,-175.94C934.96,-155.97 997.87,-106.06 1029.78,-80.75"/>
<polygon fill="#63b8ff" stroke="#63b8ff" points="1032.25,-83.26 1037.91,-74.3 1027.9,-77.77 1032.25,-83.26"/>
</a>
</g>
</g>
<!-- Node30 -->
<g id="Node000030" class="node">
<title>Node30</title>
<g id="a_Node000030"><a xlink:title=" ">
<polygon fill="#e0e0e0" stroke="#999999" points="1095,-134.5 1051,-134.5 1051,-115.5 1095,-115.5 1095,-134.5"/>
<text text-anchor="middle" x="1073" y="-122.5" font-family="Helvetica,sans-Serif" font-size="10.00">string</text>
</a>
</g>
</g>
<!-- Node29&#45;&gt;Node30 -->
<g id="edge41_Node000029_Node000030" class="edge">
<title>Node29&#45;&gt;Node30</title>
<g id="a_edge41_Node000029_Node000030"><a xlink:title=" ">
<path fill="none" stroke="#63b8ff" d="M924.3,-175.99C955.22,-165.6 1007.57,-148 1041.19,-136.7"/>
<polygon fill="#63b8ff" stroke="#63b8ff" points="1042.61,-139.91 1050.98,-133.4 1040.38,-133.27 1042.61,-139.91"/>
</a>
</g>
</g>
<!-- Node32&#45;&gt;Node3 -->
<g id="edge45_Node000032_Node000003" class="edge">
<title>Node32&#45;&gt;Node3</title>
<g id="a_edge45_Node000032_Node000003"><a xlink:title=" ">
<path fill="none" stroke="#63b8ff" d="M688.42,-175.99C625.29,-165.16 516.62,-146.52 451.31,-135.32"/>
<polygon fill="#63b8ff" stroke="#63b8ff" points="451.67,-131.83 441.22,-133.59 450.48,-138.73 451.67,-131.83"/>
</a>
</g>
</g>
<!-- Node32&#45;&gt;Node15 -->
<g id="edge46_Node000032_Node000015" class="edge">
<title>Node32&#45;&gt;Node15</title>
<g id="a_edge46_Node000032_Node000015"><a xlink:title=" ">
<path fill="none" stroke="#63b8ff" d="M730.33,-175.87C722.49,-167.05 710.14,-153.16 700.46,-142.27"/>
<polygon fill="#63b8ff" stroke="#63b8ff" points="702.96,-139.82 693.7,-134.67 697.73,-144.47 702.96,-139.82"/>
</a>
</g>
</g>
<!-- Node33&#45;&gt;Node30 -->
<g id="edge51_Node000033_Node000030" class="edge">
<title>Node33&#45;&gt;Node30</title>
<g id="a_edge51_Node000033_Node000030"><a xlink:title=" ">
<path fill="none" stroke="#63b8ff" d="M1064.49,-285.98C1074.16,-266.64 1095.53,-217.85 1089,-176 1087.3,-165.14 1083.66,-153.41 1080.27,-144.05"/>
<polygon fill="#63b8ff" stroke="#63b8ff" points="1083.52,-142.74 1076.68,-134.65 1076.98,-145.24 1083.52,-142.74"/>
</a>
</g>
</g>
<!-- Node34&#45;&gt;Node4 -->
<g id="edge53_Node000034_Node000004" class="edge">
<title>Node34&#45;&gt;Node4</title>
<g id="a_edge53_Node000034_Node000004"><a xlink:title=" ">
<path fill="none" stroke="#63b8ff" d="M219.62,-404.75C155.31,-403.75 0,-391.51 0,-296.5 0,-296.5 0,-296.5 0,-184.5 0,-105.21 273.34,-76.8 385.67,-68.47"/>
<polygon fill="#63b8ff" stroke="#63b8ff" points="385.99,-71.95 395.71,-67.74 385.48,-64.97 385.99,-71.95"/>
</a>
</g>
</g>
<!-- Node35&#45;&gt;Node2 -->
<g id="edge62_Node000035_Node000002" class="edge">
<title>Node35&#45;&gt;Node2</title>
<g id="a_edge62_Node000035_Node000002"><a xlink:title=" ">
<path fill="none" stroke="#63b8ff" d="M601.34,-395.81C611.24,-382.68 631.47,-357.58 653,-341 669.66,-328.17 690.55,-317.17 707.46,-309.32"/>
<polygon fill="#63b8ff" stroke="#63b8ff" points="709.21,-312.37 716.89,-305.07 706.33,-305.99 709.21,-312.37"/>
</a>
</g>
</g>
<!-- Node35&#45;&gt;Node3 -->
<g id="edge55_Node000035_Node000003" class="edge">
<title>Node35&#45;&gt;Node3</title>
<g id="a_edge55_Node000035_Node000003"><a xlink:title=" ">
<path fill="none" stroke="#63b8ff" d="M538.27,-405.37C396.48,-406.01 38,-397.65 38,-296.5 38,-296.5 38,-296.5 38,-239.5 38,-204.39 55,-194.24 85,-176 127.34,-150.26 265.27,-135.95 342.81,-129.76"/>
<polygon fill="#63b8ff" stroke="#63b8ff" points="343.18,-133.24 352.88,-128.97 342.64,-126.26 343.18,-133.24"/>
</a>
</g>
</g>
<!-- Node35&#45;&gt;Node11 -->
<g id="edge58_Node000035_Node000011" class="edge">
<title>Node35&#45;&gt;Node11</title>
<g id="a_edge58_Node000035_Node000011"><a xlink:title=" ">
<path fill="none" stroke="#63b8ff" d="M588.02,-395.89C577.66,-383.3 557.33,-359.37 538,-341 503.95,-308.65 460.51,-275.12 435.41,-256.43"/>
<polygon fill="#63b8ff" stroke="#63b8ff" points="437.17,-253.37 427.05,-250.24 433.01,-259 437.17,-253.37"/>
</a>
</g>
</g>
<!-- Node36 -->
<g id="Node000036" class="node">
<title>Node36</title>
<g id="a_Node000036"><a xlink:href="sitkNonCopyable_8h.html" target="_top" xlink:title=" ">
<polygon fill="white" stroke="#666666" points="262.5,-305 153.5,-305 153.5,-286 262.5,-286 262.5,-305"/>
<text text-anchor="middle" x="208" y="-293" font-family="Helvetica,sans-Serif" font-size="10.00">sitkNonCopyable.h</text>
</a>
</g>
</g>
<!-- Node35&#45;&gt;Node36 -->
<g id="edge56_Node000035_Node000036" class="edge">
<title>Node35&#45;&gt;Node36</title>
<g id="a_edge56_Node000035_Node000036"><a xlink:title=" ">
<path fill="none" stroke="#63b8ff" d="M564.31,-395.94C495.02,-376.6 326.44,-329.55 248.61,-307.83"/>
<polygon fill="#63b8ff" stroke="#63b8ff" points="249.27,-304.38 238.69,-305.07 247.39,-311.12 249.27,-304.38"/>
</a>
</g>
</g>
<!-- Node37 -->
<g id="Node000037" class="node">
<title>Node37</title>
<g id="a_Node000037"><a xlink:href="sitkEvent_8h.html" target="_top" xlink:title=" ">
<polygon fill="white" stroke="#666666" points="669.5,-195 598.5,-195 598.5,-176 669.5,-176 669.5,-195"/>
<text text-anchor="middle" x="634" y="-183" font-family="Helvetica,sans-Serif" font-size="10.00">sitkEvent.h</text>
</a>
</g>
</g>
<!-- Node35&#45;&gt;Node37 -->
<g id="edge59_Node000035_Node000037" class="edge">
<title>Node35&#45;&gt;Node37</title>
<g id="a_edge59_Node000035_Node000037"><a xlink:title=" ">
<path fill="none" stroke="#63b8ff" d="M596.53,-395.95C602.27,-363.88 622.6,-250.2 630.67,-205.12"/>
<polygon fill="#63b8ff" stroke="#63b8ff" points="634.12,-205.68 632.44,-195.22 627.23,-204.45 634.12,-205.68"/>
</a>
</g>
</g>
<!-- Node38 -->
<g id="Node000038" class="node">
<title>Node38</title>
<g id="a_Node000038"><a xlink:href="sitkImageConvert_8h.html" target="_top" xlink:title=" ">
<polygon fill="white" stroke="#666666" points="774.5,-360 661.5,-360 661.5,-341 774.5,-341 774.5,-360"/>
<text text-anchor="middle" x="718" y="-348" font-family="Helvetica,sans-Serif" font-size="10.00">sitkImageConvert.h</text>
</a>
</g>
</g>
<!-- Node35&#45;&gt;Node38 -->
<g id="edge63_Node000035_Node000038" class="edge">
<title>Node35&#45;&gt;Node38</title>
<g id="a_edge63_Node000035_Node000038"><a xlink:title=" ">
<path fill="none" stroke="#63b8ff" d="M614.76,-395.98C634.73,-387.38 665.8,-373.99 688.65,-364.15"/>
<polygon fill="#63b8ff" stroke="#63b8ff" points="690.08,-367.34 697.88,-360.17 687.31,-360.91 690.08,-367.34"/>
</a>
</g>
</g>
<!-- Node39 -->
<g id="Node000039" class="node">
<title>Node39</title>
<g id="a_Node000039"><a xlink:title=" ">
<polygon fill="#e0e0e0" stroke="#999999" points="853,-360 793,-360 793,-341 853,-341 853,-360"/>
<text text-anchor="middle" x="823" y="-348" font-family="Helvetica,sans-Serif" font-size="10.00">iostream</text>
</a>
</g>
</g>
<!-- Node35&#45;&gt;Node39 -->
<g id="edge65_Node000035_Node000039" class="edge">
<title>Node35&#45;&gt;Node39</title>
<g id="a_edge65_Node000035_Node000039"><a xlink:title=" ">
<path fill="none" stroke="#63b8ff" d="M631.63,-395.98C673,-386.37 740.11,-370.77 782.87,-360.83"/>
<polygon fill="#63b8ff" stroke="#63b8ff" points="783.71,-364.23 792.66,-358.55 782.13,-357.41 783.71,-364.23"/>
</a>
</g>
</g>
<!-- Node40 -->
<g id="Node000040" class="node">
<title>Node40</title>
<g id="a_Node000040"><a xlink:title=" ">
<polygon fill="#e0e0e0" stroke="#999999" points="529,-360 497,-360 497,-341 529,-341 529,-360"/>
<text text-anchor="middle" x="513" y="-348" font-family="Helvetica,sans-Serif" font-size="10.00">list</text>
</a>
</g>
</g>
<!-- Node35&#45;&gt;Node40 -->
<g id="edge66_Node000035_Node000040" class="edge">
<title>Node35&#45;&gt;Node40</title>
<g id="a_edge66_Node000035_Node000040"><a xlink:title=" ">
<path fill="none" stroke="#63b8ff" d="M581.83,-395.98C569.23,-387.84 550,-375.41 535.06,-365.76"/>
<polygon fill="#63b8ff" stroke="#63b8ff" points="536.71,-362.66 526.41,-360.17 532.91,-368.54 536.71,-362.66"/>
</a>
</g>
</g>
<!-- Node36&#45;&gt;Node3 -->
<g id="edge57_Node000036_Node000003" class="edge">
<title>Node36&#45;&gt;Node3</title>
<g id="a_edge57_Node000036_Node000003"><a xlink:title=" ">
<path fill="none" stroke="#63b8ff" d="M155.64,-285.93C134.69,-279.65 112.58,-268.79 100,-250 81.7,-222.67 78.76,-201.11 100,-176 130.5,-139.94 265.83,-129.87 342.87,-127.07"/>
<polygon fill="#63b8ff" stroke="#63b8ff" points="343,-130.57 352.88,-126.74 342.77,-123.57 343,-130.57"/>
</a>
</g>
</g>
<!-- Node37&#45;&gt;Node3 -->
<g id="edge60_Node000037_Node000003" class="edge">
<title>Node37&#45;&gt;Node3</title>
<g id="a_edge60_Node000037_Node000003"><a xlink:title=" ">
<path fill="none" stroke="#63b8ff" d="M599.54,-175.99C557.76,-165.68 487.28,-148.28 441.46,-136.97"/>
<polygon fill="#63b8ff" stroke="#63b8ff" points="442.05,-133.52 431.5,-134.52 440.37,-140.31 442.05,-133.52"/>
</a>
</g>
</g>
<!-- Node37&#45;&gt;Node15 -->
<g id="edge61_Node000037_Node000015" class="edge">
<title>Node37&#45;&gt;Node15</title>
<g id="a_edge61_Node000037_Node000015"><a xlink:title=" ">
<path fill="none" stroke="#63b8ff" d="M641.67,-175.87C649.51,-167.05 661.86,-153.16 671.54,-142.27"/>
<polygon fill="#63b8ff" stroke="#63b8ff" points="674.27,-144.47 678.3,-134.67 669.04,-139.82 674.27,-144.47"/>
</a>
</g>
</g>
<!-- Node38&#45;&gt;Node2 -->
<g id="edge64_Node000038_Node000002" class="edge">
<title>Node38&#45;&gt;Node2</title>
<g id="a_edge64_Node000038_Node000002"><a xlink:title=" ">
<path fill="none" stroke="#63b8ff" d="M721.3,-340.75C723.98,-333.65 727.85,-323.4 731.19,-314.56"/>
<polygon fill="#63b8ff" stroke="#63b8ff" points="734.5,-315.68 734.76,-305.09 727.95,-313.21 734.5,-315.68"/>
</a>
</g>
</g>
</g>
</svg>
