<?xml version="1.0" encoding="UTF-8" standalone="no"?>
<!DOCTYPE svg PUBLIC "-//W3C//DTD SVG 1.1//EN"
 "http://www.w3.org/Graphics/SVG/1.1/DTD/svg11.dtd">
<!-- Generated by graphviz version 2.43.0 (0)
 -->
<!-- Title: sitkTransformixImageFilter.h Pages: 1 -->
<svg width="250pt" height="93pt"
 viewBox="0.00 0.00 249.50 93.00" xmlns="http://www.w3.org/2000/svg" xmlns:xlink="http://www.w3.org/1999/xlink">
<g id="graph0" class="graph" transform="scale(1 1) rotate(0) translate(4 89)">
<title>sitkTransformixImageFilter.h</title>
<!-- Node1 -->
<g id="Node000001" class="node">
<title>Node1</title>
<g id="a_Node000001"><a xlink:title=" ">
<polygon fill="#999999" stroke="#666666" points="180.5,-85 24.5,-85 24.5,-66 180.5,-66 180.5,-85"/>
<text text-anchor="middle" x="102.5" y="-73" font-family="Helvetica,sans-Serif" font-size="10.00">sitkTransformixImageFilter.h</text>
</a>
</g>
</g>
<!-- Node2 -->
<g id="Node000002" class="node">
<title>Node2</title>
<g id="a_Node000002"><a xlink:href="SimpleITK_8h.html" target="_top" xlink:title=" ">
<polygon fill="white" stroke="#666666" points="75,-24.5 0,-24.5 0,-5.5 75,-5.5 75,-24.5"/>
<text text-anchor="middle" x="37.5" y="-12.5" font-family="Helvetica,sans-Serif" font-size="10.00">SimpleITK.h</text>
</a>
</g>
</g>
<!-- Node1&#45;&gt;Node2 -->
<g id="edge1_Node000001_Node000002" class="edge">
<title>Node1&#45;&gt;Node2</title>
<g id="a_edge1_Node000001_Node000002"><a xlink:title=" ">
<path fill="none" stroke="#63b8ff" d="M85.18,-58.91C72.99,-47.94 57.13,-33.67 47.13,-24.67"/>
<polygon fill="#63b8ff" stroke="#63b8ff" points="83.13,-61.78 92.91,-65.87 87.82,-56.58 83.13,-61.78"/>
</a>
</g>
</g>
<!-- Node3 -->
<g id="Node000003" class="node">
<title>Node3</title>
<g id="a_Node000003"><a xlink:href="sitkTransformixImageFilterImpl_8h.html" target="_top" xlink:title=" ">
<polygon fill="white" stroke="#666666" points="241.5,-30 93.5,-30 93.5,0 241.5,0 241.5,-30"/>
<text text-anchor="start" x="101.5" y="-18" font-family="Helvetica,sans-Serif" font-size="10.00">sitkTransformixImageFilter</text>
<text text-anchor="middle" x="167.5" y="-7" font-family="Helvetica,sans-Serif" font-size="10.00">Impl.h</text>
</a>
</g>
</g>
<!-- Node1&#45;&gt;Node3 -->
<g id="edge2_Node000001_Node000003" class="edge">
<title>Node1&#45;&gt;Node3</title>
<g id="a_edge2_Node000001_Node000003"><a xlink:title=" ">
<path fill="none" stroke="#63b8ff" d="M119.76,-58.97C129.72,-50.01 142.14,-38.82 151.82,-30.11"/>
<polygon fill="#63b8ff" stroke="#63b8ff" points="117.18,-56.58 112.09,-65.87 121.87,-61.78 117.18,-56.58"/>
</a>
</g>
</g>
</g>
</svg>
