<?xml version="1.0" encoding="UTF-8" standalone="no"?>
<!DOCTYPE svg PUBLIC "-//W3C//DTD SVG 1.1//EN"
 "http://www.w3.org/Graphics/SVG/1.1/DTD/svg11.dtd">
<!-- Generated by graphviz version 2.43.0 (0)
 -->
<!-- Title: sitkPimpleImageBase.h Pages: 1 -->
<svg width="957pt" height="302pt"
 viewBox="0.00 0.00 957.00 302.00" xmlns="http://www.w3.org/2000/svg" xmlns:xlink="http://www.w3.org/1999/xlink">
<g id="graph0" class="graph" transform="scale(1 1) rotate(0) translate(4 298)">
<title>sitkPimpleImageBase.h</title>
<!-- Node1 -->
<g id="Node000001" class="node">
<title>Node1</title>
<g id="a_Node000001"><a xlink:title=" ">
<polygon fill="#999999" stroke="#666666" points="601.5,-294 469.5,-294 469.5,-275 601.5,-275 601.5,-294"/>
<text text-anchor="middle" x="535.5" y="-282" font-family="Helvetica,sans-Serif" font-size="10.00">sitkPimpleImageBase.h</text>
</a>
</g>
</g>
<!-- Node2 -->
<g id="Node000002" class="node">
<title>Node2</title>
<g id="a_Node000002"><a xlink:title=" ">
<polygon fill="#e0e0e0" stroke="#999999" points="559,-184 512,-184 512,-165 559,-165 559,-184"/>
<text text-anchor="middle" x="535.5" y="-172" font-family="Helvetica,sans-Serif" font-size="10.00">vector</text>
</a>
</g>
</g>
<!-- Node1&#45;&gt;Node2 -->
<g id="edge1_Node000001_Node000002" class="edge">
<title>Node1&#45;&gt;Node2</title>
<g id="a_edge1_Node000001_Node000002"><a xlink:title=" ">
<path fill="none" stroke="#63b8ff" d="M535.5,-274.66C535.5,-257.17 535.5,-217.8 535.5,-194.27"/>
<polygon fill="#63b8ff" stroke="#63b8ff" points="539,-194.16 535.5,-184.16 532,-194.16 539,-194.16"/>
</a>
</g>
</g>
<!-- Node3 -->
<g id="Node000003" class="node">
<title>Node3</title>
<g id="a_Node000003"><a xlink:href="sitkPixelIDTokens_8h.html" target="_top" xlink:title=" ">
<polygon fill="white" stroke="#666666" points="452.5,-239 342.5,-239 342.5,-220 452.5,-220 452.5,-239"/>
<text text-anchor="middle" x="397.5" y="-227" font-family="Helvetica,sans-Serif" font-size="10.00">sitkPixelIDTokens.h</text>
</a>
</g>
</g>
<!-- Node1&#45;&gt;Node3 -->
<g id="edge2_Node000001_Node000003" class="edge">
<title>Node1&#45;&gt;Node3</title>
<g id="a_edge2_Node000001_Node000003"><a xlink:title=" ">
<path fill="none" stroke="#63b8ff" d="M513.33,-274.98C490.73,-266.3 455.44,-252.75 429.75,-242.88"/>
<polygon fill="#63b8ff" stroke="#63b8ff" points="430.67,-239.49 420.08,-239.17 428.16,-246.02 430.67,-239.49"/>
</a>
</g>
</g>
<!-- Node20 -->
<g id="Node000020" class="node">
<title>Node20</title>
<g id="a_Node000020"><a xlink:href="sitkTemplateFunctions_8h.html" target="_top" xlink:title=" ">
<polygon fill="white" stroke="#666666" points="715,-239 580,-239 580,-220 715,-220 715,-239"/>
<text text-anchor="middle" x="647.5" y="-227" font-family="Helvetica,sans-Serif" font-size="10.00">sitkTemplateFunctions.h</text>
</a>
</g>
</g>
<!-- Node1&#45;&gt;Node20 -->
<g id="edge22_Node000001_Node000020" class="edge">
<title>Node1&#45;&gt;Node20</title>
<g id="a_edge22_Node000001_Node000020"><a xlink:title=" ">
<path fill="none" stroke="#63b8ff" d="M553.49,-274.98C571.43,-266.5 599.22,-253.35 619.93,-243.54"/>
<polygon fill="#63b8ff" stroke="#63b8ff" points="621.64,-246.61 629.18,-239.17 618.64,-240.28 621.64,-246.61"/>
</a>
</g>
</g>
<!-- Node4 -->
<g id="Node000004" class="node">
<title>Node4</title>
<g id="a_Node000004"><a xlink:href="sitkConfigure_8h.html" target="_top" xlink:title=" ">
<polygon fill="white" stroke="#666666" points="498.5,-19 408.5,-19 408.5,0 498.5,0 498.5,-19"/>
<text text-anchor="middle" x="453.5" y="-7" font-family="Helvetica,sans-Serif" font-size="10.00">sitkConfigure.h</text>
</a>
</g>
</g>
<!-- Node3&#45;&gt;Node4 -->
<g id="edge3_Node000003_Node000004" class="edge">
<title>Node3&#45;&gt;Node4</title>
<g id="a_edge3_Node000003_Node000004"><a xlink:title=" ">
<path fill="none" stroke="#63b8ff" d="M390.75,-219.65C382.35,-207.55 369.67,-185.06 374.5,-165 387.44,-111.29 422.38,-55.25 441.16,-27.78"/>
<polygon fill="#63b8ff" stroke="#63b8ff" points="444.22,-29.51 447.06,-19.3 438.48,-25.51 444.22,-29.51"/>
</a>
</g>
</g>
<!-- Node5 -->
<g id="Node000005" class="node">
<title>Node5</title>
<g id="a_Node000005"><a xlink:href="sitkPixelIDValues_8h.html" target="_top" xlink:title=" ">
<polygon fill="white" stroke="#666666" points="493.5,-184 383.5,-184 383.5,-165 493.5,-165 493.5,-184"/>
<text text-anchor="middle" x="438.5" y="-172" font-family="Helvetica,sans-Serif" font-size="10.00">sitkPixelIDValues.h</text>
</a>
</g>
</g>
<!-- Node3&#45;&gt;Node5 -->
<g id="edge4_Node000003_Node000005" class="edge">
<title>Node3&#45;&gt;Node5</title>
<g id="a_edge4_Node000003_Node000005"><a xlink:title=" ">
<path fill="none" stroke="#63b8ff" d="M404.27,-219.75C410.06,-212.26 418.56,-201.28 425.64,-192.13"/>
<polygon fill="#63b8ff" stroke="#63b8ff" points="428.51,-194.14 431.86,-184.09 422.97,-189.86 428.51,-194.14"/>
</a>
</g>
</g>
<!-- Node19 -->
<g id="Node000019" class="node">
<title>Node19</title>
<g id="a_Node000019"><a xlink:title=" ">
<polygon fill="#e0e0e0" stroke="#999999" points="327,-184 258,-184 258,-165 327,-165 327,-184"/>
<text text-anchor="middle" x="292.5" y="-172" font-family="Helvetica,sans-Serif" font-size="10.00">type_traits</text>
</a>
</g>
</g>
<!-- Node3&#45;&gt;Node19 -->
<g id="edge21_Node000003_Node000019" class="edge">
<title>Node3&#45;&gt;Node19</title>
<g id="a_edge21_Node000003_Node000019"><a xlink:title=" ">
<path fill="none" stroke="#63b8ff" d="M380.63,-219.98C363.89,-211.54 338,-198.47 318.61,-188.68"/>
<polygon fill="#63b8ff" stroke="#63b8ff" points="320.18,-185.55 309.68,-184.17 317.03,-191.8 320.18,-185.55"/>
</a>
</g>
</g>
<!-- Node6 -->
<g id="Node000006" class="node">
<title>Node6</title>
<g id="a_Node000006"><a xlink:href="sitkCommon_8h.html" target="_top" xlink:title=" ">
<polygon fill="white" stroke="#666666" points="715.5,-129 627.5,-129 627.5,-110 715.5,-110 715.5,-129"/>
<text text-anchor="middle" x="671.5" y="-117" font-family="Helvetica,sans-Serif" font-size="10.00">sitkCommon.h</text>
</a>
</g>
</g>
<!-- Node5&#45;&gt;Node6 -->
<g id="edge5_Node000005_Node000006" class="edge">
<title>Node5&#45;&gt;Node6</title>
<g id="a_edge5_Node000005_Node000006"><a xlink:title=" ">
<path fill="none" stroke="#63b8ff" d="M475.94,-164.98C516.15,-155.84 580.18,-141.27 623.94,-131.32"/>
<polygon fill="#63b8ff" stroke="#63b8ff" points="624.8,-134.71 633.77,-129.08 623.24,-127.89 624.8,-134.71"/>
</a>
</g>
</g>
<!-- Node13 -->
<g id="Node000013" class="node">
<title>Node13</title>
<g id="a_Node000013"><a xlink:href="sitkPixelIDTypeLists_8h.html" target="_top" xlink:title=" ">
<polygon fill="white" stroke="#666666" points="327.5,-74 205.5,-74 205.5,-55 327.5,-55 327.5,-74"/>
<text text-anchor="middle" x="266.5" y="-62" font-family="Helvetica,sans-Serif" font-size="10.00">sitkPixelIDTypeLists.h</text>
</a>
</g>
</g>
<!-- Node5&#45;&gt;Node13 -->
<g id="edge13_Node000005_Node000013" class="edge">
<title>Node5&#45;&gt;Node13</title>
<g id="a_edge13_Node000005_Node000013"><a xlink:title=" ">
<path fill="none" stroke="#63b8ff" d="M424.72,-164.84C395.15,-146.28 325.41,-102.49 289.2,-79.75"/>
<polygon fill="#63b8ff" stroke="#63b8ff" points="290.68,-76.55 280.35,-74.2 286.96,-82.48 290.68,-76.55"/>
</a>
</g>
</g>
<!-- Node17 -->
<g id="Node000017" class="node">
<title>Node17</title>
<g id="a_Node000017"><a xlink:title=" ">
<polygon fill="#e0e0e0" stroke="#999999" points="465.5,-129 421.5,-129 421.5,-110 465.5,-110 465.5,-129"/>
<text text-anchor="middle" x="443.5" y="-117" font-family="Helvetica,sans-Serif" font-size="10.00">string</text>
</a>
</g>
</g>
<!-- Node5&#45;&gt;Node17 -->
<g id="edge19_Node000005_Node000017" class="edge">
<title>Node5&#45;&gt;Node17</title>
<g id="a_edge19_Node000005_Node000017"><a xlink:title=" ">
<path fill="none" stroke="#63b8ff" d="M439.33,-164.75C439.98,-157.8 440.92,-147.85 441.74,-139.13"/>
<polygon fill="#63b8ff" stroke="#63b8ff" points="445.23,-139.37 442.69,-129.09 438.27,-138.72 445.23,-139.37"/>
</a>
</g>
</g>
<!-- Node18 -->
<g id="Node000018" class="node">
<title>Node18</title>
<g id="a_Node000018"><a xlink:title=" ">
<polygon fill="#e0e0e0" stroke="#999999" points="553,-129 496,-129 496,-110 553,-110 553,-129"/>
<text text-anchor="middle" x="524.5" y="-117" font-family="Helvetica,sans-Serif" font-size="10.00">ostream</text>
</a>
</g>
</g>
<!-- Node5&#45;&gt;Node18 -->
<g id="edge20_Node000005_Node000018" class="edge">
<title>Node5&#45;&gt;Node18</title>
<g id="a_edge20_Node000005_Node000018"><a xlink:title=" ">
<path fill="none" stroke="#63b8ff" d="M452.32,-164.98C465.65,-156.77 486.08,-144.18 501.81,-134.49"/>
<polygon fill="#63b8ff" stroke="#63b8ff" points="503.75,-137.4 510.43,-129.17 500.08,-131.44 503.75,-137.4"/>
</a>
</g>
</g>
<!-- Node7 -->
<g id="Node000007" class="node">
<title>Node7</title>
<g id="a_Node000007"><a xlink:href="sitkMacro_8h.html" target="_top" xlink:title=" ">
<polygon fill="white" stroke="#666666" points="643.5,-74 569.5,-74 569.5,-55 643.5,-55 643.5,-74"/>
<text text-anchor="middle" x="606.5" y="-62" font-family="Helvetica,sans-Serif" font-size="10.00">sitkMacro.h</text>
</a>
</g>
</g>
<!-- Node6&#45;&gt;Node7 -->
<g id="edge6_Node000006_Node000007" class="edge">
<title>Node6&#45;&gt;Node7</title>
<g id="a_edge6_Node000006_Node000007"><a xlink:title=" ">
<path fill="none" stroke="#63b8ff" d="M661.06,-109.98C651.35,-102.07 636.68,-90.11 625,-80.58"/>
<polygon fill="#63b8ff" stroke="#63b8ff" points="627.1,-77.78 617.13,-74.17 622.67,-83.2 627.1,-77.78"/>
</a>
</g>
</g>
<!-- Node7&#45;&gt;Node4 -->
<g id="edge12_Node000007_Node000004" class="edge">
<title>Node7&#45;&gt;Node4</title>
<g id="a_edge12_Node000007_Node000004"><a xlink:title=" ">
<path fill="none" stroke="#63b8ff" d="M581.92,-54.98C556.45,-46.16 516.46,-32.31 487.87,-22.41"/>
<polygon fill="#63b8ff" stroke="#63b8ff" points="488.87,-19.05 478.27,-19.08 486.58,-25.66 488.87,-19.05"/>
</a>
</g>
</g>
<!-- Node8 -->
<g id="Node000008" class="node">
<title>Node8</title>
<g id="a_Node000008"><a xlink:title=" ">
<polygon fill="#e0e0e0" stroke="#999999" points="390,-19 337,-19 337,0 390,0 390,-19"/>
<text text-anchor="middle" x="363.5" y="-7" font-family="Helvetica,sans-Serif" font-size="10.00">stdint.h</text>
</a>
</g>
</g>
<!-- Node7&#45;&gt;Node8 -->
<g id="edge7_Node000007_Node000008" class="edge">
<title>Node7&#45;&gt;Node8</title>
<g id="a_edge7_Node000007_Node000008"><a xlink:title=" ">
<path fill="none" stroke="#63b8ff" d="M569.43,-55.77C530,-47.49 465.53,-33.8 400.27,-19.14"/>
<polygon fill="#63b8ff" stroke="#63b8ff" points="400.75,-15.66 390.22,-16.87 399.21,-22.49 400.75,-15.66"/>
</a>
</g>
</g>
<!-- Node9 -->
<g id="Node000009" class="node">
<title>Node9</title>
<g id="a_Node000009"><a xlink:title=" ">
<polygon fill="#e0e0e0" stroke="#999999" points="634.5,-19 578.5,-19 578.5,0 634.5,0 634.5,-19"/>
<text text-anchor="middle" x="606.5" y="-7" font-family="Helvetica,sans-Serif" font-size="10.00">stddef.h</text>
</a>
</g>
</g>
<!-- Node7&#45;&gt;Node9 -->
<g id="edge8_Node000007_Node000009" class="edge">
<title>Node7&#45;&gt;Node9</title>
<g id="a_edge8_Node000007_Node000009"><a xlink:title=" ">
<path fill="none" stroke="#63b8ff" d="M606.5,-54.75C606.5,-47.8 606.5,-37.85 606.5,-29.13"/>
<polygon fill="#63b8ff" stroke="#63b8ff" points="610,-29.09 606.5,-19.09 603,-29.09 610,-29.09"/>
</a>
</g>
</g>
<!-- Node10 -->
<g id="Node000010" class="node">
<title>Node10</title>
<g id="a_Node000010"><a xlink:title=" ">
<polygon fill="#e0e0e0" stroke="#999999" points="704.5,-19 652.5,-19 652.5,0 704.5,0 704.5,-19"/>
<text text-anchor="middle" x="678.5" y="-7" font-family="Helvetica,sans-Serif" font-size="10.00">cassert</text>
</a>
</g>
</g>
<!-- Node7&#45;&gt;Node10 -->
<g id="edge9_Node000007_Node000010" class="edge">
<title>Node7&#45;&gt;Node10</title>
<g id="a_edge9_Node000007_Node000010"><a xlink:title=" ">
<path fill="none" stroke="#63b8ff" d="M618.07,-54.98C628.92,-47 645.38,-34.88 658.38,-25.31"/>
<polygon fill="#63b8ff" stroke="#63b8ff" points="660.74,-27.92 666.72,-19.17 656.59,-22.28 660.74,-27.92"/>
</a>
</g>
</g>
<!-- Node11 -->
<g id="Node000011" class="node">
<title>Node11</title>
<g id="a_Node000011"><a xlink:title=" ">
<polygon fill="#e0e0e0" stroke="#999999" points="778.5,-19 722.5,-19 722.5,0 778.5,0 778.5,-19"/>
<text text-anchor="middle" x="750.5" y="-7" font-family="Helvetica,sans-Serif" font-size="10.00">sstream</text>
</a>
</g>
</g>
<!-- Node7&#45;&gt;Node11 -->
<g id="edge10_Node000007_Node000011" class="edge">
<title>Node7&#45;&gt;Node11</title>
<g id="a_edge10_Node000007_Node000011"><a xlink:title=" ">
<path fill="none" stroke="#63b8ff" d="M629.64,-54.98C653.32,-46.27 690.37,-32.63 717.21,-22.75"/>
<polygon fill="#63b8ff" stroke="#63b8ff" points="718.77,-25.91 726.94,-19.17 716.35,-19.34 718.77,-25.91"/>
</a>
</g>
</g>
<!-- Node12 -->
<g id="Node000012" class="node">
<title>Node12</title>
<g id="a_Node000012"><a xlink:title=" ">
<polygon fill="#e0e0e0" stroke="#999999" points="560.5,-19 516.5,-19 516.5,0 560.5,0 560.5,-19"/>
<text text-anchor="middle" x="538.5" y="-7" font-family="Helvetica,sans-Serif" font-size="10.00">limits</text>
</a>
</g>
</g>
<!-- Node7&#45;&gt;Node12 -->
<g id="edge11_Node000007_Node000012" class="edge">
<title>Node7&#45;&gt;Node12</title>
<g id="a_edge11_Node000007_Node000012"><a xlink:title=" ">
<path fill="none" stroke="#63b8ff" d="M595.57,-54.98C585.42,-47.07 570.08,-35.11 557.85,-25.58"/>
<polygon fill="#63b8ff" stroke="#63b8ff" points="559.66,-22.56 549.62,-19.17 555.36,-28.08 559.66,-22.56"/>
</a>
</g>
</g>
<!-- Node13&#45;&gt;Node4 -->
<g id="edge15_Node000013_Node000004" class="edge">
<title>Node13&#45;&gt;Node4</title>
<g id="a_edge15_Node000013_Node000004"><a xlink:title=" ">
<path fill="none" stroke="#63b8ff" d="M296.54,-54.98C328.21,-46.01 378.27,-31.82 413.31,-21.89"/>
<polygon fill="#63b8ff" stroke="#63b8ff" points="414.55,-25.18 423.22,-19.08 412.64,-18.44 414.55,-25.18"/>
</a>
</g>
</g>
<!-- Node13&#45;&gt;Node8 -->
<g id="edge14_Node000013_Node000008" class="edge">
<title>Node13&#45;&gt;Node8</title>
<g id="a_edge14_Node000013_Node000008"><a xlink:title=" ">
<path fill="none" stroke="#63b8ff" d="M282.08,-54.98C297.27,-46.69 320.6,-33.94 338.4,-24.22"/>
<polygon fill="#63b8ff" stroke="#63b8ff" points="340.53,-27.04 347.63,-19.17 337.18,-20.89 340.53,-27.04"/>
</a>
</g>
</g>
<!-- Node14 -->
<g id="Node000014" class="node">
<title>Node14</title>
<g id="a_Node000014"><a xlink:href="sitkPixelIDTypes_8h.html" target="_top" xlink:title=" ">
<polygon fill="white" stroke="#666666" points="319,-19 214,-19 214,0 319,0 319,-19"/>
<text text-anchor="middle" x="266.5" y="-7" font-family="Helvetica,sans-Serif" font-size="10.00">sitkPixelIDTypes.h</text>
</a>
</g>
</g>
<!-- Node13&#45;&gt;Node14 -->
<g id="edge16_Node000013_Node000014" class="edge">
<title>Node13&#45;&gt;Node14</title>
<g id="a_edge16_Node000013_Node000014"><a xlink:title=" ">
<path fill="none" stroke="#63b8ff" d="M266.5,-54.75C266.5,-47.8 266.5,-37.85 266.5,-29.13"/>
<polygon fill="#63b8ff" stroke="#63b8ff" points="270,-29.09 266.5,-19.09 263,-29.09 270,-29.09"/>
</a>
</g>
</g>
<!-- Node15 -->
<g id="Node000015" class="node">
<title>Node15</title>
<g id="a_Node000015"><a xlink:title=" ">
<polygon fill="#e0e0e0" stroke="#999999" points="119,-19 0,-19 0,0 119,0 119,-19"/>
<text text-anchor="middle" x="59.5" y="-7" font-family="Helvetica,sans-Serif" font-size="10.00">Ancillary/type_list2.h</text>
</a>
</g>
</g>
<!-- Node13&#45;&gt;Node15 -->
<g id="edge17_Node000013_Node000015" class="edge">
<title>Node13&#45;&gt;Node15</title>
<g id="a_edge17_Node000013_Node000015"><a xlink:title=" ">
<path fill="none" stroke="#63b8ff" d="M233.24,-54.98C197.89,-45.93 141.83,-31.58 102.99,-21.64"/>
<polygon fill="#63b8ff" stroke="#63b8ff" points="103.57,-18.17 93.02,-19.08 101.84,-24.95 103.57,-18.17"/>
</a>
</g>
</g>
<!-- Node16 -->
<g id="Node000016" class="node">
<title>Node16</title>
<g id="a_Node000016"><a xlink:title=" ">
<polygon fill="#e0e0e0" stroke="#999999" points="196,-19 137,-19 137,0 196,0 196,-19"/>
<text text-anchor="middle" x="166.5" y="-7" font-family="Helvetica,sans-Serif" font-size="10.00">complex</text>
</a>
</g>
</g>
<!-- Node13&#45;&gt;Node16 -->
<g id="edge18_Node000013_Node000016" class="edge">
<title>Node13&#45;&gt;Node16</title>
<g id="a_edge18_Node000013_Node000016"><a xlink:title=" ">
<path fill="none" stroke="#63b8ff" d="M250.43,-54.98C234.64,-46.61 210.28,-33.7 191.87,-23.95"/>
<polygon fill="#63b8ff" stroke="#63b8ff" points="193.33,-20.76 182.86,-19.17 190.06,-26.95 193.33,-20.76"/>
</a>
</g>
</g>
<!-- Node20&#45;&gt;Node2 -->
<g id="edge29_Node000020_Node000002" class="edge">
<title>Node20&#45;&gt;Node2</title>
<g id="a_edge29_Node000020_Node000002"><a xlink:title=" ">
<path fill="none" stroke="#63b8ff" d="M629.51,-219.98C611.57,-211.5 583.78,-198.35 563.07,-188.54"/>
<polygon fill="#63b8ff" stroke="#63b8ff" points="564.36,-185.28 553.82,-184.17 561.36,-191.61 564.36,-185.28"/>
</a>
</g>
</g>
<!-- Node20&#45;&gt;Node6 -->
<g id="edge24_Node000020_Node000006" class="edge">
<title>Node20&#45;&gt;Node6</title>
<g id="a_edge24_Node000020_Node000006"><a xlink:title=" ">
<path fill="none" stroke="#63b8ff" d="M649.46,-219.66C653.37,-202.09 662.18,-162.45 667.4,-138.95"/>
<polygon fill="#63b8ff" stroke="#63b8ff" points="670.82,-139.68 669.58,-129.16 663.99,-138.16 670.82,-139.68"/>
</a>
</g>
</g>
<!-- Node20&#45;&gt;Node7 -->
<g id="edge23_Node000020_Node000007" class="edge">
<title>Node20&#45;&gt;Node7</title>
<g id="a_edge23_Node000020_Node000007"><a xlink:title=" ">
<path fill="none" stroke="#63b8ff" d="M644.65,-219.79C639.09,-202.58 626.63,-162.95 618.5,-129 614.94,-114.13 611.77,-97.1 609.58,-84.42"/>
<polygon fill="#63b8ff" stroke="#63b8ff" points="612.97,-83.47 607.87,-74.18 606.07,-84.62 612.97,-83.47"/>
</a>
</g>
</g>
<!-- Node20&#45;&gt;Node18 -->
<g id="edge30_Node000020_Node000018" class="edge">
<title>Node20&#45;&gt;Node18</title>
<g id="a_edge30_Node000020_Node000018"><a xlink:title=" ">
<path fill="none" stroke="#63b8ff" d="M637.43,-219.66C616.52,-201.3 568.13,-158.81 542,-135.87"/>
<polygon fill="#63b8ff" stroke="#63b8ff" points="544.18,-133.13 534.36,-129.16 539.57,-138.39 544.18,-133.13"/>
</a>
</g>
</g>
<!-- Node21 -->
<g id="Node000021" class="node">
<title>Node21</title>
<g id="a_Node000021"><a xlink:href="sitkExceptionObject_8h.html" target="_top" xlink:title=" ">
<polygon fill="white" stroke="#666666" points="815,-184 692,-184 692,-165 815,-165 815,-184"/>
<text text-anchor="middle" x="753.5" y="-172" font-family="Helvetica,sans-Serif" font-size="10.00">sitkExceptionObject.h</text>
</a>
</g>
</g>
<!-- Node20&#45;&gt;Node21 -->
<g id="edge25_Node000020_Node000021" class="edge">
<title>Node20&#45;&gt;Node21</title>
<g id="a_edge25_Node000020_Node000021"><a xlink:title=" ">
<path fill="none" stroke="#63b8ff" d="M664.53,-219.98C681.43,-211.54 707.56,-198.47 727.14,-188.68"/>
<polygon fill="#63b8ff" stroke="#63b8ff" points="728.78,-191.77 736.16,-184.17 725.65,-185.51 728.78,-191.77"/>
</a>
</g>
</g>
<!-- Node23 -->
<g id="Node000023" class="node">
<title>Node23</title>
<g id="a_Node000023"><a xlink:title=" ">
<polygon fill="#e0e0e0" stroke="#999999" points="886,-184 833,-184 833,-165 886,-165 886,-184"/>
<text text-anchor="middle" x="859.5" y="-172" font-family="Helvetica,sans-Serif" font-size="10.00">iterator</text>
</a>
</g>
</g>
<!-- Node20&#45;&gt;Node23 -->
<g id="edge31_Node000020_Node000023" class="edge">
<title>Node20&#45;&gt;Node23</title>
<g id="a_edge31_Node000020_Node000023"><a xlink:title=" ">
<path fill="none" stroke="#63b8ff" d="M681.56,-219.98C720.32,-210.29 783.39,-194.53 823.1,-184.6"/>
<polygon fill="#63b8ff" stroke="#63b8ff" points="824.05,-187.97 832.9,-182.15 822.35,-181.18 824.05,-187.97"/>
</a>
</g>
</g>
<!-- Node24 -->
<g id="Node000024" class="node">
<title>Node24</title>
<g id="a_Node000024"><a xlink:title=" ">
<polygon fill="#e0e0e0" stroke="#999999" points="949,-184 904,-184 904,-165 949,-165 949,-184"/>
<text text-anchor="middle" x="926.5" y="-172" font-family="Helvetica,sans-Serif" font-size="10.00">utility</text>
</a>
</g>
</g>
<!-- Node20&#45;&gt;Node24 -->
<g id="edge32_Node000020_Node000024" class="edge">
<title>Node20&#45;&gt;Node24</title>
<g id="a_edge32_Node000020_Node000024"><a xlink:title=" ">
<path fill="none" stroke="#63b8ff" d="M703.44,-219.94C751.63,-212.23 823.22,-199.98 893.91,-184.21"/>
<polygon fill="#63b8ff" stroke="#63b8ff" points="894.89,-187.57 903.87,-181.96 893.35,-180.75 894.89,-187.57"/>
</a>
</g>
</g>
<!-- Node21&#45;&gt;Node6 -->
<g id="edge27_Node000021_Node000006" class="edge">
<title>Node21&#45;&gt;Node6</title>
<g id="a_edge27_Node000021_Node000006"><a xlink:title=" ">
<path fill="none" stroke="#63b8ff" d="M740.33,-164.98C727.73,-156.84 708.5,-144.41 693.56,-134.76"/>
<polygon fill="#63b8ff" stroke="#63b8ff" points="695.21,-131.66 684.91,-129.17 691.41,-137.54 695.21,-131.66"/>
</a>
</g>
</g>
<!-- Node21&#45;&gt;Node7 -->
<g id="edge26_Node000021_Node000007" class="edge">
<title>Node21&#45;&gt;Node7</title>
<g id="a_edge26_Node000021_Node000007"><a xlink:title=" ">
<path fill="none" stroke="#63b8ff" d="M767.85,-164.93C786.72,-152.6 815.8,-129.2 800.5,-110 782.52,-87.43 705.45,-75.37 654.03,-69.71"/>
<polygon fill="#63b8ff" stroke="#63b8ff" points="654.1,-66.2 643.79,-68.63 653.37,-73.16 654.1,-66.2"/>
</a>
</g>
</g>
<!-- Node22 -->
<g id="Node000022" class="node">
<title>Node22</title>
<g id="a_Node000022"><a xlink:title=" ">
<polygon fill="#e0e0e0" stroke="#999999" points="791.5,-129 733.5,-129 733.5,-110 791.5,-110 791.5,-129"/>
<text text-anchor="middle" x="762.5" y="-117" font-family="Helvetica,sans-Serif" font-size="10.00">memory</text>
</a>
</g>
</g>
<!-- Node21&#45;&gt;Node22 -->
<g id="edge28_Node000021_Node000022" class="edge">
<title>Node21&#45;&gt;Node22</title>
<g id="a_edge28_Node000021_Node000022"><a xlink:title=" ">
<path fill="none" stroke="#63b8ff" d="M754.99,-164.75C756.17,-157.8 757.86,-147.85 759.34,-139.13"/>
<polygon fill="#63b8ff" stroke="#63b8ff" points="762.82,-139.53 761.04,-129.09 755.92,-138.36 762.82,-139.53"/>
</a>
</g>
</g>
</g>
</svg>
