<?xml version="1.0" encoding="UTF-8" standalone="no"?>
<!DOCTYPE svg PUBLIC "-//W3C//DTD SVG 1.1//EN"
 "http://www.w3.org/Graphics/SVG/1.1/DTD/svg11.dtd">
<!-- Generated by graphviz version 2.43.0 (0)
 -->
<!-- Title: sitkProcessObject.h Pages: 1 -->
<svg width="1694pt" height="423pt"
 viewBox="0.00 0.00 1694.00 423.00" xmlns="http://www.w3.org/2000/svg" xmlns:xlink="http://www.w3.org/1999/xlink">
<g id="graph0" class="graph" transform="scale(1 1) rotate(0) translate(4 419)">
<title>sitkProcessObject.h</title>
<!-- Node1 -->
<g id="Node000001" class="node">
<title>Node1</title>
<g id="a_Node000001"><a xlink:title=" ">
<polygon fill="#999999" stroke="#666666" points="720,-415 607,-415 607,-396 720,-396 720,-415"/>
<text text-anchor="middle" x="663.5" y="-403" font-family="Helvetica,sans-Serif" font-size="10.00">sitkProcessObject.h</text>
</a>
</g>
</g>
<!-- Node2 -->
<g id="Node000002" class="node">
<title>Node2</title>
<g id="a_Node000002"><a xlink:href="sitkCommon_8h.html" target="_top" xlink:title=" ">
<polygon fill="white" stroke="#666666" points="461.5,-134.5 373.5,-134.5 373.5,-115.5 461.5,-115.5 461.5,-134.5"/>
<text text-anchor="middle" x="417.5" y="-122.5" font-family="Helvetica,sans-Serif" font-size="10.00">sitkCommon.h</text>
</a>
</g>
</g>
<!-- Node1&#45;&gt;Node2 -->
<g id="edge1_Node000001_Node000002" class="edge">
<title>Node1&#45;&gt;Node2</title>
<g id="a_edge1_Node000001_Node000002"><a xlink:title=" ">
<path fill="none" stroke="#63b8ff" d="M606.96,-404.71C471.11,-403.7 137.5,-391.53 137.5,-296.5 137.5,-296.5 137.5,-296.5 137.5,-239.5 137.5,-205.16 152.91,-195.01 181.5,-176 236.15,-139.66 312.32,-129.07 363.19,-126.33"/>
<polygon fill="#63b8ff" stroke="#63b8ff" points="363.5,-129.82 373.33,-125.87 363.18,-122.83 363.5,-129.82"/>
</a>
</g>
</g>
<!-- Node10 -->
<g id="Node000010" class="node">
<title>Node10</title>
<g id="a_Node000010"><a xlink:href="sitkNonCopyable_8h.html" target="_top" xlink:title=" ">
<polygon fill="white" stroke="#666666" points="109,-305 0,-305 0,-286 109,-286 109,-305"/>
<text text-anchor="middle" x="54.5" y="-293" font-family="Helvetica,sans-Serif" font-size="10.00">sitkNonCopyable.h</text>
</a>
</g>
</g>
<!-- Node1&#45;&gt;Node10 -->
<g id="edge9_Node000001_Node000010" class="edge">
<title>Node1&#45;&gt;Node10</title>
<g id="a_edge9_Node000001_Node000010"><a xlink:title=" ">
<path fill="none" stroke="#63b8ff" d="M606.95,-404.45C486.58,-403.59 209.01,-397.48 123.5,-360 100.32,-349.84 79.84,-328.6 67.34,-313.48"/>
<polygon fill="#63b8ff" stroke="#63b8ff" points="69.89,-311.07 60.93,-305.42 64.41,-315.43 69.89,-311.07"/>
</a>
</g>
</g>
<!-- Node11 -->
<g id="Node000011" class="node">
<title>Node11</title>
<g id="a_Node000011"><a xlink:href="sitkTemplateFunctions_8h.html" target="_top" xlink:title=" ">
<polygon fill="white" stroke="#666666" points="527,-250 392,-250 392,-231 527,-231 527,-250"/>
<text text-anchor="middle" x="459.5" y="-238" font-family="Helvetica,sans-Serif" font-size="10.00">sitkTemplateFunctions.h</text>
</a>
</g>
</g>
<!-- Node1&#45;&gt;Node11 -->
<g id="edge11_Node000001_Node000011" class="edge">
<title>Node1&#45;&gt;Node11</title>
<g id="a_edge11_Node000001_Node000011"><a xlink:title=" ">
<path fill="none" stroke="#63b8ff" d="M652.82,-395.97C620.06,-369.79 520.69,-290.39 478.63,-256.79"/>
<polygon fill="#63b8ff" stroke="#63b8ff" points="480.57,-253.85 470.57,-250.34 476.2,-259.32 480.57,-253.85"/>
</a>
</g>
</g>
<!-- Node18 -->
<g id="Node000018" class="node">
<title>Node18</title>
<g id="a_Node000018"><a xlink:href="sitkEvent_8h.html" target="_top" xlink:title=" ">
<polygon fill="white" stroke="#666666" points="693,-195 622,-195 622,-176 693,-176 693,-195"/>
<text text-anchor="middle" x="657.5" y="-183" font-family="Helvetica,sans-Serif" font-size="10.00">sitkEvent.h</text>
</a>
</g>
</g>
<!-- Node1&#45;&gt;Node18 -->
<g id="edge22_Node000001_Node000018" class="edge">
<title>Node1&#45;&gt;Node18</title>
<g id="a_edge22_Node000001_Node000018"><a xlink:title=" ">
<path fill="none" stroke="#63b8ff" d="M663.26,-395.95C662.38,-363.95 659.27,-250.68 658.02,-205.4"/>
<polygon fill="#63b8ff" stroke="#63b8ff" points="661.51,-205.12 657.74,-195.22 654.52,-205.32 661.51,-205.12"/>
</a>
</g>
</g>
<!-- Node19 -->
<g id="Node000019" class="node">
<title>Node19</title>
<g id="a_Node000019"><a xlink:href="sitkImage_8h.html" target="_top" xlink:title=" ">
<polygon fill="white" stroke="#666666" points="812.5,-305 738.5,-305 738.5,-286 812.5,-286 812.5,-305"/>
<text text-anchor="middle" x="775.5" y="-293" font-family="Helvetica,sans-Serif" font-size="10.00">sitkImage.h</text>
</a>
</g>
</g>
<!-- Node1&#45;&gt;Node19 -->
<g id="edge25_Node000001_Node000019" class="edge">
<title>Node1&#45;&gt;Node19</title>
<g id="a_edge25_Node000001_Node000019"><a xlink:title=" ">
<path fill="none" stroke="#63b8ff" d="M667.21,-395.82C673.15,-382.7 685.82,-357.62 702.5,-341 715.35,-328.19 732.57,-317.47 747.06,-309.76"/>
<polygon fill="#63b8ff" stroke="#63b8ff" points="748.8,-312.81 756.11,-305.14 745.61,-306.57 748.8,-312.81"/>
</a>
</g>
</g>
<!-- Node35 -->
<g id="Node000035" class="node">
<title>Node35</title>
<g id="a_Node000035"><a xlink:href="sitkImageConvert_8h.html" target="_top" xlink:title=" ">
<polygon fill="white" stroke="#666666" points="824,-360 711,-360 711,-341 824,-341 824,-360"/>
<text text-anchor="middle" x="767.5" y="-348" font-family="Helvetica,sans-Serif" font-size="10.00">sitkImageConvert.h</text>
</a>
</g>
</g>
<!-- Node1&#45;&gt;Node35 -->
<g id="edge57_Node000001_Node000035" class="edge">
<title>Node1&#45;&gt;Node35</title>
<g id="a_edge57_Node000001_Node000035"><a xlink:title=" ">
<path fill="none" stroke="#63b8ff" d="M680.21,-395.98C696.71,-387.57 722.2,-374.59 741.38,-364.81"/>
<polygon fill="#63b8ff" stroke="#63b8ff" points="743.17,-367.83 750.49,-360.17 739.99,-361.59 743.17,-367.83"/>
</a>
</g>
</g>
<!-- Node36 -->
<g id="Node000036" class="node">
<title>Node36</title>
<g id="a_Node000036"><a xlink:title=" ">
<polygon fill="#e0e0e0" stroke="#999999" points="902.5,-360 842.5,-360 842.5,-341 902.5,-341 902.5,-360"/>
<text text-anchor="middle" x="872.5" y="-348" font-family="Helvetica,sans-Serif" font-size="10.00">iostream</text>
</a>
</g>
</g>
<!-- Node1&#45;&gt;Node36 -->
<g id="edge59_Node000001_Node000036" class="edge">
<title>Node1&#45;&gt;Node36</title>
<g id="a_edge59_Node000001_Node000036"><a xlink:title=" ">
<path fill="none" stroke="#63b8ff" d="M697.08,-395.98C734.02,-386.62 793.35,-371.57 832.62,-361.61"/>
<polygon fill="#63b8ff" stroke="#63b8ff" points="833.56,-364.98 842.4,-359.13 831.84,-358.2 833.56,-364.98"/>
</a>
</g>
</g>
<!-- Node37 -->
<g id="Node000037" class="node">
<title>Node37</title>
<g id="a_Node000037"><a xlink:title=" ">
<polygon fill="#e0e0e0" stroke="#999999" points="952.5,-360 920.5,-360 920.5,-341 952.5,-341 952.5,-360"/>
<text text-anchor="middle" x="936.5" y="-348" font-family="Helvetica,sans-Serif" font-size="10.00">list</text>
</a>
</g>
</g>
<!-- Node1&#45;&gt;Node37 -->
<g id="edge60_Node000001_Node000037" class="edge">
<title>Node1&#45;&gt;Node37</title>
<g id="a_edge60_Node000001_Node000037"><a xlink:title=" ">
<path fill="none" stroke="#63b8ff" d="M720.16,-396.81C768.5,-389.69 839.93,-377.85 910.52,-359.92"/>
<polygon fill="#63b8ff" stroke="#63b8ff" points="911.66,-363.24 920.47,-357.35 909.91,-356.46 911.66,-363.24"/>
</a>
</g>
</g>
<!-- Node3 -->
<g id="Node000003" class="node">
<title>Node3</title>
<g id="a_Node000003"><a xlink:href="sitkMacro_8h.html" target="_top" xlink:title=" ">
<polygon fill="white" stroke="#666666" points="526.5,-74 452.5,-74 452.5,-55 526.5,-55 526.5,-74"/>
<text text-anchor="middle" x="489.5" y="-62" font-family="Helvetica,sans-Serif" font-size="10.00">sitkMacro.h</text>
</a>
</g>
</g>
<!-- Node2&#45;&gt;Node3 -->
<g id="edge2_Node000002_Node000003" class="edge">
<title>Node2&#45;&gt;Node3</title>
<g id="a_edge2_Node000002_Node000003"><a xlink:title=" ">
<path fill="none" stroke="#63b8ff" d="M428.12,-115.37C439.4,-106.21 457.42,-91.56 471.03,-80.51"/>
<polygon fill="#63b8ff" stroke="#63b8ff" points="473.28,-83.19 478.83,-74.17 468.86,-77.76 473.28,-83.19"/>
</a>
</g>
</g>
<!-- Node4 -->
<g id="Node000004" class="node">
<title>Node4</title>
<g id="a_Node000004"><a xlink:title=" ">
<polygon fill="#e0e0e0" stroke="#999999" points="1147,-19 1094,-19 1094,0 1147,0 1147,-19"/>
<text text-anchor="middle" x="1120.5" y="-7" font-family="Helvetica,sans-Serif" font-size="10.00">stdint.h</text>
</a>
</g>
</g>
<!-- Node3&#45;&gt;Node4 -->
<g id="edge3_Node000003_Node000004" class="edge">
<title>Node3&#45;&gt;Node4</title>
<g id="a_edge3_Node000003_Node000004"><a xlink:title=" ">
<path fill="none" stroke="#63b8ff" d="M526.63,-62.75C619.16,-60.44 867.48,-51.61 1083.9,-18.81"/>
<polygon fill="#63b8ff" stroke="#63b8ff" points="1084.5,-22.26 1093.86,-17.28 1083.44,-15.34 1084.5,-22.26"/>
</a>
</g>
</g>
<!-- Node5 -->
<g id="Node000005" class="node">
<title>Node5</title>
<g id="a_Node000005"><a xlink:title=" ">
<polygon fill="#e0e0e0" stroke="#999999" points="481.5,-19 425.5,-19 425.5,0 481.5,0 481.5,-19"/>
<text text-anchor="middle" x="453.5" y="-7" font-family="Helvetica,sans-Serif" font-size="10.00">stddef.h</text>
</a>
</g>
</g>
<!-- Node3&#45;&gt;Node5 -->
<g id="edge4_Node000003_Node000005" class="edge">
<title>Node3&#45;&gt;Node5</title>
<g id="a_edge4_Node000003_Node000005"><a xlink:title=" ">
<path fill="none" stroke="#63b8ff" d="M483.56,-54.75C478.52,-47.34 471.16,-36.5 464.99,-27.41"/>
<polygon fill="#63b8ff" stroke="#63b8ff" points="467.85,-25.39 459.33,-19.09 462.06,-29.33 467.85,-25.39"/>
</a>
</g>
</g>
<!-- Node6 -->
<g id="Node000006" class="node">
<title>Node6</title>
<g id="a_Node000006"><a xlink:title=" ">
<polygon fill="#e0e0e0" stroke="#999999" points="551.5,-19 499.5,-19 499.5,0 551.5,0 551.5,-19"/>
<text text-anchor="middle" x="525.5" y="-7" font-family="Helvetica,sans-Serif" font-size="10.00">cassert</text>
</a>
</g>
</g>
<!-- Node3&#45;&gt;Node6 -->
<g id="edge5_Node000003_Node000006" class="edge">
<title>Node3&#45;&gt;Node6</title>
<g id="a_edge5_Node000003_Node000006"><a xlink:title=" ">
<path fill="none" stroke="#63b8ff" d="M495.44,-54.75C500.48,-47.34 507.84,-36.5 514.01,-27.41"/>
<polygon fill="#63b8ff" stroke="#63b8ff" points="516.94,-29.33 519.67,-19.09 511.15,-25.39 516.94,-29.33"/>
</a>
</g>
</g>
<!-- Node7 -->
<g id="Node000007" class="node">
<title>Node7</title>
<g id="a_Node000007"><a xlink:title=" ">
<polygon fill="#e0e0e0" stroke="#999999" points="625.5,-19 569.5,-19 569.5,0 625.5,0 625.5,-19"/>
<text text-anchor="middle" x="597.5" y="-7" font-family="Helvetica,sans-Serif" font-size="10.00">sstream</text>
</a>
</g>
</g>
<!-- Node3&#45;&gt;Node7 -->
<g id="edge6_Node000003_Node000007" class="edge">
<title>Node3&#45;&gt;Node7</title>
<g id="a_edge6_Node000003_Node000007"><a xlink:title=" ">
<path fill="none" stroke="#63b8ff" d="M506.85,-54.98C524.07,-46.54 550.7,-33.47 570.65,-23.68"/>
<polygon fill="#63b8ff" stroke="#63b8ff" points="572.4,-26.72 579.83,-19.17 569.31,-20.43 572.4,-26.72"/>
</a>
</g>
</g>
<!-- Node8 -->
<g id="Node000008" class="node">
<title>Node8</title>
<g id="a_Node000008"><a xlink:title=" ">
<polygon fill="#e0e0e0" stroke="#999999" points="407.5,-19 363.5,-19 363.5,0 407.5,0 407.5,-19"/>
<text text-anchor="middle" x="385.5" y="-7" font-family="Helvetica,sans-Serif" font-size="10.00">limits</text>
</a>
</g>
</g>
<!-- Node3&#45;&gt;Node8 -->
<g id="edge7_Node000003_Node000008" class="edge">
<title>Node3&#45;&gt;Node8</title>
<g id="a_edge7_Node000003_Node000008"><a xlink:title=" ">
<path fill="none" stroke="#63b8ff" d="M472.79,-54.98C456.29,-46.57 430.8,-33.59 411.62,-23.81"/>
<polygon fill="#63b8ff" stroke="#63b8ff" points="413.01,-20.59 402.51,-19.17 409.83,-26.83 413.01,-20.59"/>
</a>
</g>
</g>
<!-- Node9 -->
<g id="Node000009" class="node">
<title>Node9</title>
<g id="a_Node000009"><a xlink:href="sitkConfigure_8h.html" target="_top" xlink:title=" ">
<polygon fill="white" stroke="#666666" points="1075.5,-19 985.5,-19 985.5,0 1075.5,0 1075.5,-19"/>
<text text-anchor="middle" x="1030.5" y="-7" font-family="Helvetica,sans-Serif" font-size="10.00">sitkConfigure.h</text>
</a>
</g>
</g>
<!-- Node3&#45;&gt;Node9 -->
<g id="edge8_Node000003_Node000009" class="edge">
<title>Node3&#45;&gt;Node9</title>
<g id="a_edge8_Node000003_Node000009"><a xlink:title=" ">
<path fill="none" stroke="#63b8ff" d="M526.69,-59.86C620,-50.72 864.49,-26.76 974.93,-15.94"/>
<polygon fill="#63b8ff" stroke="#63b8ff" points="975.58,-19.4 985.19,-14.94 974.9,-12.43 975.58,-19.4"/>
</a>
</g>
</g>
<!-- Node10&#45;&gt;Node2 -->
<g id="edge10_Node000010_Node000002" class="edge">
<title>Node10&#45;&gt;Node2</title>
<g id="a_edge10_Node000010_Node000002"><a xlink:title=" ">
<path fill="none" stroke="#63b8ff" d="M56.76,-285.9C63.08,-263.64 83.19,-203.93 123.5,-176 161.45,-149.7 289.23,-135.78 363.25,-129.75"/>
<polygon fill="#63b8ff" stroke="#63b8ff" points="363.63,-133.23 373.32,-128.95 363.08,-126.25 363.63,-133.23"/>
</a>
</g>
</g>
<!-- Node11&#45;&gt;Node2 -->
<g id="edge13_Node000011_Node000002" class="edge">
<title>Node11&#45;&gt;Node2</title>
<g id="a_edge13_Node000011_Node000002"><a xlink:title=" ">
<path fill="none" stroke="#63b8ff" d="M391.96,-237.75C321.95,-234.34 219.32,-224.34 194.5,-195 146.4,-138.15 282.24,-127.36 362.75,-125.8"/>
<polygon fill="#63b8ff" stroke="#63b8ff" points="363.29,-129.29 373.23,-125.64 363.18,-122.29 363.29,-129.29"/>
</a>
</g>
</g>
<!-- Node11&#45;&gt;Node3 -->
<g id="edge12_Node000011_Node000003" class="edge">
<title>Node11&#45;&gt;Node3</title>
<g id="a_edge12_Node000011_Node000003"><a xlink:title=" ">
<path fill="none" stroke="#63b8ff" d="M461.94,-230.69C464.36,-221.75 468.05,-207.49 470.5,-195 478.21,-155.75 484.3,-109.24 487.35,-84.02"/>
<polygon fill="#63b8ff" stroke="#63b8ff" points="490.84,-84.38 488.54,-74.03 483.89,-83.55 490.84,-84.38"/>
</a>
</g>
</g>
<!-- Node12 -->
<g id="Node000012" class="node">
<title>Node12</title>
<g id="a_Node000012"><a xlink:href="sitkExceptionObject_8h.html" target="_top" xlink:title=" ">
<polygon fill="white" stroke="#666666" points="327,-195 204,-195 204,-176 327,-176 327,-195"/>
<text text-anchor="middle" x="265.5" y="-183" font-family="Helvetica,sans-Serif" font-size="10.00">sitkExceptionObject.h</text>
</a>
</g>
</g>
<!-- Node11&#45;&gt;Node12 -->
<g id="edge14_Node000011_Node000012" class="edge">
<title>Node11&#45;&gt;Node12</title>
<g id="a_edge14_Node000011_Node000012"><a xlink:title=" ">
<path fill="none" stroke="#63b8ff" d="M428.33,-230.98C395.34,-221.97 343.1,-207.7 306.73,-197.76"/>
<polygon fill="#63b8ff" stroke="#63b8ff" points="307.48,-194.34 296.91,-195.08 305.64,-201.09 307.48,-194.34"/>
</a>
</g>
</g>
<!-- Node14 -->
<g id="Node000014" class="node">
<title>Node14</title>
<g id="a_Node000014"><a xlink:title=" ">
<polygon fill="#e0e0e0" stroke="#999999" points="565,-195 518,-195 518,-176 565,-176 565,-195"/>
<text text-anchor="middle" x="541.5" y="-183" font-family="Helvetica,sans-Serif" font-size="10.00">vector</text>
</a>
</g>
</g>
<!-- Node11&#45;&gt;Node14 -->
<g id="edge18_Node000011_Node000014" class="edge">
<title>Node11&#45;&gt;Node14</title>
<g id="a_edge18_Node000011_Node000014"><a xlink:title=" ">
<path fill="none" stroke="#63b8ff" d="M472.67,-230.98C485.27,-222.84 504.5,-210.41 519.44,-200.76"/>
<polygon fill="#63b8ff" stroke="#63b8ff" points="521.59,-203.54 528.09,-195.17 517.79,-197.66 521.59,-203.54"/>
</a>
</g>
</g>
<!-- Node15 -->
<g id="Node000015" class="node">
<title>Node15</title>
<g id="a_Node000015"><a xlink:title=" ">
<polygon fill="#e0e0e0" stroke="#999999" points="789,-134.5 732,-134.5 732,-115.5 789,-115.5 789,-134.5"/>
<text text-anchor="middle" x="760.5" y="-122.5" font-family="Helvetica,sans-Serif" font-size="10.00">ostream</text>
</a>
</g>
</g>
<!-- Node11&#45;&gt;Node15 -->
<g id="edge19_Node000011_Node000015" class="edge">
<title>Node11&#45;&gt;Node15</title>
<g id="a_edge19_Node000011_Node000015"><a xlink:title=" ">
<path fill="none" stroke="#63b8ff" d="M527.14,-239.25C578.4,-236.3 648.92,-226.14 702.5,-195 723.56,-182.76 740.46,-159.89 750.47,-143.84"/>
<polygon fill="#63b8ff" stroke="#63b8ff" points="753.68,-145.28 755.78,-134.89 747.67,-141.7 753.68,-145.28"/>
</a>
</g>
</g>
<!-- Node16 -->
<g id="Node000016" class="node">
<title>Node16</title>
<g id="a_Node000016"><a xlink:title=" ">
<polygon fill="#e0e0e0" stroke="#999999" points="461,-195 408,-195 408,-176 461,-176 461,-195"/>
<text text-anchor="middle" x="434.5" y="-183" font-family="Helvetica,sans-Serif" font-size="10.00">iterator</text>
</a>
</g>
</g>
<!-- Node11&#45;&gt;Node16 -->
<g id="edge20_Node000011_Node000016" class="edge">
<title>Node11&#45;&gt;Node16</title>
<g id="a_edge20_Node000011_Node000016"><a xlink:title=" ">
<path fill="none" stroke="#63b8ff" d="M455.37,-230.75C451.99,-223.57 447.08,-213.18 442.88,-204.27"/>
<polygon fill="#63b8ff" stroke="#63b8ff" points="445.98,-202.64 438.55,-195.09 439.65,-205.63 445.98,-202.64"/>
</a>
</g>
</g>
<!-- Node17 -->
<g id="Node000017" class="node">
<title>Node17</title>
<g id="a_Node000017"><a xlink:title=" ">
<polygon fill="#e0e0e0" stroke="#999999" points="390,-195 345,-195 345,-176 390,-176 390,-195"/>
<text text-anchor="middle" x="367.5" y="-183" font-family="Helvetica,sans-Serif" font-size="10.00">utility</text>
</a>
</g>
</g>
<!-- Node11&#45;&gt;Node17 -->
<g id="edge21_Node000011_Node000017" class="edge">
<title>Node11&#45;&gt;Node17</title>
<g id="a_edge21_Node000011_Node000017"><a xlink:title=" ">
<path fill="none" stroke="#63b8ff" d="M444.72,-230.98C430.32,-222.69 408.19,-209.94 391.31,-200.22"/>
<polygon fill="#63b8ff" stroke="#63b8ff" points="392.96,-197.13 382.55,-195.17 389.47,-203.19 392.96,-197.13"/>
</a>
</g>
</g>
<!-- Node12&#45;&gt;Node2 -->
<g id="edge16_Node000012_Node000002" class="edge">
<title>Node12&#45;&gt;Node2</title>
<g id="a_edge16_Node000012_Node000002"><a xlink:title=" ">
<path fill="none" stroke="#63b8ff" d="M287.6,-175.99C313.49,-166.03 356.58,-149.45 385.97,-138.13"/>
<polygon fill="#63b8ff" stroke="#63b8ff" points="387.3,-141.38 395.37,-134.52 384.78,-134.84 387.3,-141.38"/>
</a>
</g>
</g>
<!-- Node12&#45;&gt;Node3 -->
<g id="edge15_Node000012_Node000003" class="edge">
<title>Node12&#45;&gt;Node3</title>
<g id="a_edge15_Node000012_Node000003"><a xlink:title=" ">
<path fill="none" stroke="#63b8ff" d="M274.94,-175.82C291.8,-160.69 328.7,-129.26 364.5,-110 390.8,-95.85 422.52,-84.62 447.42,-76.98"/>
<polygon fill="#63b8ff" stroke="#63b8ff" points="448.72,-80.25 457.3,-74.03 446.71,-73.54 448.72,-80.25"/>
</a>
</g>
</g>
<!-- Node13 -->
<g id="Node000013" class="node">
<title>Node13</title>
<g id="a_Node000013"><a xlink:title=" ">
<polygon fill="#e0e0e0" stroke="#999999" points="664.5,-134.5 606.5,-134.5 606.5,-115.5 664.5,-115.5 664.5,-134.5"/>
<text text-anchor="middle" x="635.5" y="-122.5" font-family="Helvetica,sans-Serif" font-size="10.00">memory</text>
</a>
</g>
</g>
<!-- Node12&#45;&gt;Node13 -->
<g id="edge17_Node000012_Node000013" class="edge">
<title>Node12&#45;&gt;Node13</title>
<g id="a_edge17_Node000012_Node000013"><a xlink:title=" ">
<path fill="none" stroke="#63b8ff" d="M319.3,-175.99C394.64,-164.08 529.79,-142.71 596.32,-132.2"/>
<polygon fill="#63b8ff" stroke="#63b8ff" points="597.05,-135.62 606.38,-130.6 595.96,-128.71 597.05,-135.62"/>
</a>
</g>
</g>
<!-- Node18&#45;&gt;Node2 -->
<g id="edge23_Node000018_Node000002" class="edge">
<title>Node18&#45;&gt;Node2</title>
<g id="a_edge23_Node000018_Node000002"><a xlink:title=" ">
<path fill="none" stroke="#63b8ff" d="M622.6,-175.99C580.21,-165.66 508.63,-148.21 462.23,-136.9"/>
<polygon fill="#63b8ff" stroke="#63b8ff" points="462.98,-133.48 452.44,-134.52 461.33,-140.29 462.98,-133.48"/>
</a>
</g>
</g>
<!-- Node18&#45;&gt;Node15 -->
<g id="edge24_Node000018_Node000015" class="edge">
<title>Node18&#45;&gt;Node15</title>
<g id="a_edge24_Node000018_Node000015"><a xlink:title=" ">
<path fill="none" stroke="#63b8ff" d="M672.7,-175.87C689.51,-166.32 716.82,-150.81 736.52,-139.62"/>
<polygon fill="#63b8ff" stroke="#63b8ff" points="738.27,-142.65 745.24,-134.67 734.82,-136.56 738.27,-142.65"/>
</a>
</g>
</g>
<!-- Node19&#45;&gt;Node2 -->
<g id="edge26_Node000019_Node000002" class="edge">
<title>Node19&#45;&gt;Node2</title>
<g id="a_edge26_Node000019_Node000002"><a xlink:title=" ">
<path fill="none" stroke="#63b8ff" d="M761.85,-285.91C723.18,-261.65 613.24,-193.32 574.5,-176 537.62,-159.51 493.66,-146 461.64,-137.2"/>
<polygon fill="#63b8ff" stroke="#63b8ff" points="462.26,-133.74 451.69,-134.51 460.43,-140.49 462.26,-133.74"/>
</a>
</g>
</g>
<!-- Node19&#45;&gt;Node11 -->
<g id="edge27_Node000019_Node000011" class="edge">
<title>Node19&#45;&gt;Node11</title>
<g id="a_edge27_Node000019_Node000011"><a xlink:title=" ">
<path fill="none" stroke="#63b8ff" d="M738.32,-288.26C684.66,-279.26 584.88,-262.53 520.38,-251.71"/>
<polygon fill="#63b8ff" stroke="#63b8ff" points="520.79,-248.23 510.34,-250.03 519.63,-255.13 520.79,-248.23"/>
</a>
</g>
</g>
<!-- Node19&#45;&gt;Node13 -->
<g id="edge55_Node000019_Node000013" class="edge">
<title>Node19&#45;&gt;Node13</title>
<g id="a_edge55_Node000019_Node000013"><a xlink:title=" ">
<path fill="none" stroke="#63b8ff" d="M789.72,-285.9C820.89,-265.99 890.05,-215.41 858.5,-176 847.01,-161.65 735.34,-141.88 674.52,-132.05"/>
<polygon fill="#63b8ff" stroke="#63b8ff" points="674.93,-128.58 664.5,-130.45 673.83,-135.49 674.93,-128.58"/>
</a>
</g>
</g>
<!-- Node19&#45;&gt;Node14 -->
<g id="edge54_Node000019_Node000014" class="edge">
<title>Node19&#45;&gt;Node14</title>
<g id="a_edge54_Node000019_Node000014"><a xlink:title=" ">
<path fill="none" stroke="#63b8ff" d="M738.39,-294.52C696.12,-292.77 626.82,-284.31 579.5,-250 563.93,-238.71 553.58,-218.92 547.66,-204.42"/>
<polygon fill="#63b8ff" stroke="#63b8ff" points="550.92,-203.13 544.13,-195 544.37,-205.59 550.92,-203.13"/>
</a>
</g>
</g>
<!-- Node20 -->
<g id="Node000020" class="node">
<title>Node20</title>
<g id="a_Node000020"><a xlink:href="sitkDetail_8h.html" target="_top" xlink:title=" ">
<polygon fill="white" stroke="#666666" points="1435,-195 1362,-195 1362,-176 1435,-176 1435,-195"/>
<text text-anchor="middle" x="1398.5" y="-183" font-family="Helvetica,sans-Serif" font-size="10.00">sitkDetail.h</text>
</a>
</g>
</g>
<!-- Node19&#45;&gt;Node20 -->
<g id="edge28_Node000019_Node000020" class="edge">
<title>Node19&#45;&gt;Node20</title>
<g id="a_edge28_Node000019_Node000020"><a xlink:title=" ">
<path fill="none" stroke="#63b8ff" d="M812.83,-290.09C872.38,-282.87 992.44,-267.57 1093.5,-250 1185.43,-234.02 1291.97,-210.74 1351.68,-197.25"/>
<polygon fill="#63b8ff" stroke="#63b8ff" points="1352.58,-200.64 1361.56,-195.02 1351.03,-193.81 1352.58,-200.64"/>
</a>
</g>
</g>
<!-- Node30 -->
<g id="Node000030" class="node">
<title>Node30</title>
<g id="a_Node000030"><a xlink:href="sitkPixelIDTokens_8h.html" target="_top" xlink:title=" ">
<polygon fill="white" stroke="#666666" points="1084.5,-250 974.5,-250 974.5,-231 1084.5,-231 1084.5,-250"/>
<text text-anchor="middle" x="1029.5" y="-238" font-family="Helvetica,sans-Serif" font-size="10.00">sitkPixelIDTokens.h</text>
</a>
</g>
</g>
<!-- Node19&#45;&gt;Node30 -->
<g id="edge43_Node000019_Node000030" class="edge">
<title>Node19&#45;&gt;Node30</title>
<g id="a_edge43_Node000019_Node000030"><a xlink:title=" ">
<path fill="none" stroke="#63b8ff" d="M812.71,-286.74C856.44,-277.61 929.28,-262.41 978.32,-252.18"/>
<polygon fill="#63b8ff" stroke="#63b8ff" points="979.33,-255.54 988.4,-250.08 977.9,-248.69 979.33,-255.54"/>
</a>
</g>
</g>
<!-- Node33 -->
<g id="Node000033" class="node">
<title>Node33</title>
<g id="a_Node000033"><a xlink:title=" ">
<polygon fill="#e0e0e0" stroke="#999999" points="975,-195 906,-195 906,-176 975,-176 975,-195"/>
<text text-anchor="middle" x="940.5" y="-183" font-family="Helvetica,sans-Serif" font-size="10.00">type_traits</text>
</a>
</g>
</g>
<!-- Node19&#45;&gt;Node33 -->
<g id="edge56_Node000019_Node000033" class="edge">
<title>Node19&#45;&gt;Node33</title>
<g id="a_edge56_Node000019_Node000033"><a xlink:title=" ">
<path fill="none" stroke="#63b8ff" d="M812.29,-285.96C836.47,-279.07 867.88,-267.58 891.5,-250 908.2,-237.57 922.1,-218 930.78,-203.87"/>
<polygon fill="#63b8ff" stroke="#63b8ff" points="933.88,-205.51 935.93,-195.11 927.85,-201.96 933.88,-205.51"/>
</a>
</g>
</g>
<!-- Node34 -->
<g id="Node000034" class="node">
<title>Node34</title>
<g id="a_Node000034"><a xlink:href="sitkInterpolator_8h.html" target="_top" xlink:title=" ">
<polygon fill="white" stroke="#666666" points="849.5,-195 749.5,-195 749.5,-176 849.5,-176 849.5,-195"/>
<text text-anchor="middle" x="799.5" y="-183" font-family="Helvetica,sans-Serif" font-size="10.00">sitkInterpolator.h</text>
</a>
</g>
</g>
<!-- Node19&#45;&gt;Node34 -->
<g id="edge51_Node000019_Node000034" class="edge">
<title>Node19&#45;&gt;Node34</title>
<g id="a_edge51_Node000019_Node000034"><a xlink:title=" ">
<path fill="none" stroke="#63b8ff" d="M777.46,-285.66C781.37,-268.09 790.18,-228.45 795.4,-204.95"/>
<polygon fill="#63b8ff" stroke="#63b8ff" points="798.82,-205.68 797.58,-195.16 791.99,-204.16 798.82,-205.68"/>
</a>
</g>
</g>
<!-- Node21 -->
<g id="Node000021" class="node">
<title>Node21</title>
<g id="a_Node000021"><a xlink:href="sitkMemberFunctionFactoryBase_8h.html" target="_top" xlink:title=" ">
<polygon fill="white" stroke="#666666" points="1474.5,-140 1322.5,-140 1322.5,-110 1474.5,-110 1474.5,-140"/>
<text text-anchor="start" x="1330.5" y="-128" font-family="Helvetica,sans-Serif" font-size="10.00">sitkMemberFunctionFactory</text>
<text text-anchor="middle" x="1398.5" y="-117" font-family="Helvetica,sans-Serif" font-size="10.00">Base.h</text>
</a>
</g>
</g>
<!-- Node20&#45;&gt;Node21 -->
<g id="edge29_Node000020_Node000021" class="edge">
<title>Node20&#45;&gt;Node21</title>
<g id="a_edge29_Node000020_Node000021"><a xlink:title=" ">
<path fill="none" stroke="#63b8ff" d="M1398.5,-175.87C1398.5,-169.11 1398.5,-159.35 1398.5,-150.26"/>
<polygon fill="#63b8ff" stroke="#63b8ff" points="1402,-150.11 1398.5,-140.11 1395,-150.11 1402,-150.11"/>
</a>
</g>
</g>
<!-- Node26 -->
<g id="Node000026" class="node">
<title>Node26</title>
<g id="a_Node000026"><a xlink:title=" ">
<polygon fill="#e0e0e0" stroke="#999999" points="1686,-74 1547,-74 1547,-55 1686,-55 1686,-74"/>
<text text-anchor="middle" x="1616.5" y="-62" font-family="Helvetica,sans-Serif" font-size="10.00">Ancillary/FunctionTraits.h</text>
</a>
</g>
</g>
<!-- Node20&#45;&gt;Node26 -->
<g id="edge42_Node000020_Node000026" class="edge">
<title>Node20&#45;&gt;Node26</title>
<g id="a_edge42_Node000020_Node000026"><a xlink:title=" ">
<path fill="none" stroke="#63b8ff" d="M1415.19,-175.94C1432.38,-167.08 1459.92,-152.77 1483.5,-140 1521.84,-119.23 1565.92,-94.33 1592.47,-79.23"/>
<polygon fill="#63b8ff" stroke="#63b8ff" points="1594.46,-82.12 1601.42,-74.13 1591,-76.04 1594.46,-82.12"/>
</a>
</g>
</g>
<!-- Node21&#45;&gt;Node9 -->
<g id="edge30_Node000021_Node000009" class="edge">
<title>Node21&#45;&gt;Node9</title>
<g id="a_edge30_Node000021_Node000009"><a xlink:title=" ">
<path fill="none" stroke="#63b8ff" d="M1322.4,-121.98C1261.26,-117.83 1174.5,-106.13 1105.5,-74 1081.23,-62.7 1058.53,-41.39 1044.6,-26.59"/>
<polygon fill="#63b8ff" stroke="#63b8ff" points="1047.13,-24.17 1037.8,-19.14 1041.96,-28.89 1047.13,-24.17"/>
</a>
</g>
</g>
<!-- Node22 -->
<g id="Node000022" class="node">
<title>Node22</title>
<g id="a_Node000022"><a xlink:href="sitkPixelIDTypeLists_8h.html" target="_top" xlink:title=" ">
<polygon fill="white" stroke="#666666" points="1236.5,-74 1114.5,-74 1114.5,-55 1236.5,-55 1236.5,-74"/>
<text text-anchor="middle" x="1175.5" y="-62" font-family="Helvetica,sans-Serif" font-size="10.00">sitkPixelIDTypeLists.h</text>
</a>
</g>
</g>
<!-- Node21&#45;&gt;Node22 -->
<g id="edge31_Node000021_Node000022" class="edge">
<title>Node21&#45;&gt;Node22</title>
<g id="a_edge31_Node000021_Node000022"><a xlink:title=" ">
<path fill="none" stroke="#63b8ff" d="M1345.09,-109.99C1306.1,-99.76 1253.97,-86.09 1217.85,-76.61"/>
<polygon fill="#63b8ff" stroke="#63b8ff" points="1218.67,-73.21 1208.11,-74.05 1216.89,-79.98 1218.67,-73.21"/>
</a>
</g>
</g>
<!-- Node24 -->
<g id="Node000024" class="node">
<title>Node24</title>
<g id="a_Node000024"><a xlink:title=" ">
<polygon fill="#e0e0e0" stroke="#999999" points="1540,-19 1421,-19 1421,0 1540,0 1540,-19"/>
<text text-anchor="middle" x="1480.5" y="-7" font-family="Helvetica,sans-Serif" font-size="10.00">Ancillary/type_list2.h</text>
</a>
</g>
</g>
<!-- Node21&#45;&gt;Node24 -->
<g id="edge37_Node000021_Node000024" class="edge">
<title>Node21&#45;&gt;Node24</title>
<g id="a_edge37_Node000021_Node000024"><a xlink:title=" ">
<path fill="none" stroke="#63b8ff" d="M1452.75,-109.9C1470.8,-102.34 1488.97,-90.96 1499.5,-74 1508.29,-59.84 1501.05,-41.37 1493.11,-28.01"/>
<polygon fill="#63b8ff" stroke="#63b8ff" points="1495.82,-25.77 1487.42,-19.31 1489.96,-29.6 1495.82,-25.77"/>
</a>
</g>
</g>
<!-- Node21&#45;&gt;Node26 -->
<g id="edge38_Node000021_Node000026" class="edge">
<title>Node21&#45;&gt;Node26</title>
<g id="a_edge38_Node000021_Node000026"><a xlink:title=" ">
<path fill="none" stroke="#63b8ff" d="M1450.72,-109.99C1488.66,-99.8 1539.35,-86.2 1574.65,-76.73"/>
<polygon fill="#63b8ff" stroke="#63b8ff" points="1575.87,-80.03 1584.62,-74.05 1574.06,-73.27 1575.87,-80.03"/>
</a>
</g>
</g>
<!-- Node27 -->
<g id="Node000027" class="node">
<title>Node27</title>
<g id="a_Node000027"><a xlink:title=" ">
<polygon fill="#e0e0e0" stroke="#999999" points="1348,-74 1255,-74 1255,-55 1348,-55 1348,-74"/>
<text text-anchor="middle" x="1301.5" y="-62" font-family="Helvetica,sans-Serif" font-size="10.00">unordered_map</text>
</a>
</g>
</g>
<!-- Node21&#45;&gt;Node27 -->
<g id="edge39_Node000021_Node000027" class="edge">
<title>Node21&#45;&gt;Node27</title>
<g id="a_edge39_Node000021_Node000027"><a xlink:title=" ">
<path fill="none" stroke="#63b8ff" d="M1375.02,-109.84C1359.7,-100.6 1339.79,-88.59 1324.55,-79.4"/>
<polygon fill="#63b8ff" stroke="#63b8ff" points="1326.12,-76.26 1315.75,-74.09 1322.51,-82.26 1326.12,-76.26"/>
</a>
</g>
</g>
<!-- Node28 -->
<g id="Node000028" class="node">
<title>Node28</title>
<g id="a_Node000028"><a xlink:title=" ">
<polygon fill="#e0e0e0" stroke="#999999" points="1431,-74 1366,-74 1366,-55 1431,-55 1431,-74"/>
<text text-anchor="middle" x="1398.5" y="-62" font-family="Helvetica,sans-Serif" font-size="10.00">functional</text>
</a>
</g>
</g>
<!-- Node21&#45;&gt;Node28 -->
<g id="edge40_Node000021_Node000028" class="edge">
<title>Node21&#45;&gt;Node28</title>
<g id="a_edge40_Node000021_Node000028"><a xlink:title=" ">
<path fill="none" stroke="#63b8ff" d="M1398.5,-109.84C1398.5,-102.21 1398.5,-92.7 1398.5,-84.45"/>
<polygon fill="#63b8ff" stroke="#63b8ff" points="1402,-84.27 1398.5,-74.27 1395,-84.27 1402,-84.27"/>
</a>
</g>
</g>
<!-- Node29 -->
<g id="Node000029" class="node">
<title>Node29</title>
<g id="a_Node000029"><a xlink:title=" ">
<polygon fill="#e0e0e0" stroke="#999999" points="1490,-74 1449,-74 1449,-55 1490,-55 1490,-74"/>
<text text-anchor="middle" x="1469.5" y="-62" font-family="Helvetica,sans-Serif" font-size="10.00">tuple</text>
</a>
</g>
</g>
<!-- Node21&#45;&gt;Node29 -->
<g id="edge41_Node000021_Node000029" class="edge">
<title>Node21&#45;&gt;Node29</title>
<g id="a_edge41_Node000021_Node000029"><a xlink:title=" ">
<path fill="none" stroke="#63b8ff" d="M1415.69,-109.84C1426.31,-101.09 1439.94,-89.85 1450.83,-80.88"/>
<polygon fill="#63b8ff" stroke="#63b8ff" points="1453.37,-83.33 1458.86,-74.27 1448.92,-77.92 1453.37,-83.33"/>
</a>
</g>
</g>
<!-- Node22&#45;&gt;Node4 -->
<g id="edge32_Node000022_Node000004" class="edge">
<title>Node22&#45;&gt;Node4</title>
<g id="a_edge32_Node000022_Node000004"><a xlink:title=" ">
<path fill="none" stroke="#63b8ff" d="M1166.42,-54.75C1158.41,-47.03 1146.54,-35.6 1136.88,-26.28"/>
<polygon fill="#63b8ff" stroke="#63b8ff" points="1139.04,-23.51 1129.41,-19.09 1134.19,-28.55 1139.04,-23.51"/>
</a>
</g>
</g>
<!-- Node22&#45;&gt;Node9 -->
<g id="edge33_Node000022_Node000009" class="edge">
<title>Node22&#45;&gt;Node9</title>
<g id="a_edge33_Node000022_Node000009"><a xlink:title=" ">
<path fill="none" stroke="#63b8ff" d="M1152.2,-54.98C1128.25,-46.23 1090.72,-32.51 1063.67,-22.62"/>
<polygon fill="#63b8ff" stroke="#63b8ff" points="1064.81,-19.32 1054.22,-19.17 1062.41,-25.89 1064.81,-19.32"/>
</a>
</g>
</g>
<!-- Node23 -->
<g id="Node000023" class="node">
<title>Node23</title>
<g id="a_Node000023"><a xlink:href="sitkPixelIDTypes_8h.html" target="_top" xlink:title=" ">
<polygon fill="white" stroke="#666666" points="1347,-19 1242,-19 1242,0 1347,0 1347,-19"/>
<text text-anchor="middle" x="1294.5" y="-7" font-family="Helvetica,sans-Serif" font-size="10.00">sitkPixelIDTypes.h</text>
</a>
</g>
</g>
<!-- Node22&#45;&gt;Node23 -->
<g id="edge34_Node000022_Node000023" class="edge">
<title>Node22&#45;&gt;Node23</title>
<g id="a_edge34_Node000022_Node000023"><a xlink:title=" ">
<path fill="none" stroke="#63b8ff" d="M1194.62,-54.98C1213.85,-46.42 1243.73,-33.11 1265.81,-23.28"/>
<polygon fill="#63b8ff" stroke="#63b8ff" points="1267.32,-26.44 1275.03,-19.17 1264.47,-20.04 1267.32,-26.44"/>
</a>
</g>
</g>
<!-- Node22&#45;&gt;Node24 -->
<g id="edge35_Node000022_Node000024" class="edge">
<title>Node22&#45;&gt;Node24</title>
<g id="a_edge35_Node000022_Node000024"><a xlink:title=" ">
<path fill="none" stroke="#63b8ff" d="M1224.5,-54.98C1278.12,-45.67 1364.04,-30.74 1421.36,-20.78"/>
<polygon fill="#63b8ff" stroke="#63b8ff" points="1422.11,-24.2 1431.37,-19.04 1420.91,-17.3 1422.11,-24.2"/>
</a>
</g>
</g>
<!-- Node25 -->
<g id="Node000025" class="node">
<title>Node25</title>
<g id="a_Node000025"><a xlink:title=" ">
<polygon fill="#e0e0e0" stroke="#999999" points="1224,-19 1165,-19 1165,0 1224,0 1224,-19"/>
<text text-anchor="middle" x="1194.5" y="-7" font-family="Helvetica,sans-Serif" font-size="10.00">complex</text>
</a>
</g>
</g>
<!-- Node22&#45;&gt;Node25 -->
<g id="edge36_Node000022_Node000025" class="edge">
<title>Node22&#45;&gt;Node25</title>
<g id="a_edge36_Node000022_Node000025"><a xlink:title=" ">
<path fill="none" stroke="#63b8ff" d="M1178.64,-54.75C1181.18,-47.65 1184.86,-37.4 1188.03,-28.56"/>
<polygon fill="#63b8ff" stroke="#63b8ff" points="1191.34,-29.68 1191.42,-19.09 1184.75,-27.32 1191.34,-29.68"/>
</a>
</g>
</g>
<!-- Node30&#45;&gt;Node9 -->
<g id="edge44_Node000030_Node000009" class="edge">
<title>Node30&#45;&gt;Node9</title>
<g id="a_edge44_Node000030_Node000009"><a xlink:title=" ">
<path fill="none" stroke="#63b8ff" d="M1062.52,-230.87C1080.68,-224.26 1101.67,-213.1 1112.5,-195 1116.84,-187.75 1114.43,-184.22 1112.5,-176 1098.9,-117.94 1061.79,-56.89 1042.5,-27.84"/>
<polygon fill="#63b8ff" stroke="#63b8ff" points="1045.2,-25.59 1036.7,-19.27 1039.4,-29.51 1045.2,-25.59"/>
</a>
</g>
</g>
<!-- Node31 -->
<g id="Node000031" class="node">
<title>Node31</title>
<g id="a_Node000031"><a xlink:href="sitkPixelIDValues_8h.html" target="_top" xlink:title=" ">
<polygon fill="white" stroke="#666666" points="1103.5,-195 993.5,-195 993.5,-176 1103.5,-176 1103.5,-195"/>
<text text-anchor="middle" x="1048.5" y="-183" font-family="Helvetica,sans-Serif" font-size="10.00">sitkPixelIDValues.h</text>
</a>
</g>
</g>
<!-- Node30&#45;&gt;Node31 -->
<g id="edge45_Node000030_Node000031" class="edge">
<title>Node30&#45;&gt;Node31</title>
<g id="a_edge45_Node000030_Node000031"><a xlink:title=" ">
<path fill="none" stroke="#63b8ff" d="M1032.64,-230.75C1035.18,-223.65 1038.86,-213.4 1042.03,-204.56"/>
<polygon fill="#63b8ff" stroke="#63b8ff" points="1045.34,-205.68 1045.42,-195.09 1038.75,-203.32 1045.34,-205.68"/>
</a>
</g>
</g>
<!-- Node30&#45;&gt;Node33 -->
<g id="edge50_Node000030_Node000033" class="edge">
<title>Node30&#45;&gt;Node33</title>
<g id="a_edge50_Node000030_Node000033"><a xlink:title=" ">
<path fill="none" stroke="#63b8ff" d="M1015.2,-230.98C1001.4,-222.77 980.26,-210.18 963.99,-200.49"/>
<polygon fill="#63b8ff" stroke="#63b8ff" points="965.44,-197.28 955.06,-195.17 961.86,-203.29 965.44,-197.28"/>
</a>
</g>
</g>
<!-- Node31&#45;&gt;Node2 -->
<g id="edge46_Node000031_Node000002" class="edge">
<title>Node31&#45;&gt;Node2</title>
<g id="a_edge46_Node000031_Node000002"><a xlink:title=" ">
<path fill="none" stroke="#63b8ff" d="M993.36,-177.02C990.37,-176.66 987.4,-176.32 984.5,-176 885.96,-165.12 593.56,-140.58 471.73,-130.47"/>
<polygon fill="#63b8ff" stroke="#63b8ff" points="471.78,-126.97 461.52,-129.63 471.2,-133.94 471.78,-126.97"/>
</a>
</g>
</g>
<!-- Node31&#45;&gt;Node15 -->
<g id="edge49_Node000031_Node000015" class="edge">
<title>Node31&#45;&gt;Node15</title>
<g id="a_edge49_Node000031_Node000015"><a xlink:title=" ">
<path fill="none" stroke="#63b8ff" d="M1006.62,-175.99C950.93,-164.68 853.25,-144.84 799.2,-133.86"/>
<polygon fill="#63b8ff" stroke="#63b8ff" points="799.82,-130.41 789.32,-131.85 798.42,-137.27 799.82,-130.41"/>
</a>
</g>
</g>
<!-- Node31&#45;&gt;Node22 -->
<g id="edge47_Node000031_Node000022" class="edge">
<title>Node31&#45;&gt;Node22</title>
<g id="a_edge47_Node000031_Node000022"><a xlink:title=" ">
<path fill="none" stroke="#63b8ff" d="M1057.63,-175.94C1078.77,-156.14 1131.3,-106.91 1158.53,-81.4"/>
<polygon fill="#63b8ff" stroke="#63b8ff" points="1161.2,-83.69 1166.11,-74.3 1156.42,-78.59 1161.2,-83.69"/>
</a>
</g>
</g>
<!-- Node32 -->
<g id="Node000032" class="node">
<title>Node32</title>
<g id="a_Node000032"><a xlink:title=" ">
<polygon fill="#e0e0e0" stroke="#999999" points="1065.5,-134.5 1021.5,-134.5 1021.5,-115.5 1065.5,-115.5 1065.5,-134.5"/>
<text text-anchor="middle" x="1043.5" y="-122.5" font-family="Helvetica,sans-Serif" font-size="10.00">string</text>
</a>
</g>
</g>
<!-- Node31&#45;&gt;Node32 -->
<g id="edge48_Node000031_Node000032" class="edge">
<title>Node31&#45;&gt;Node32</title>
<g id="a_edge48_Node000031_Node000032"><a xlink:title=" ">
<path fill="none" stroke="#63b8ff" d="M1047.76,-175.87C1047.07,-167.75 1046,-155.31 1045.11,-144.89"/>
<polygon fill="#63b8ff" stroke="#63b8ff" points="1048.58,-144.33 1044.24,-134.67 1041.61,-144.93 1048.58,-144.33"/>
</a>
</g>
</g>
<!-- Node34&#45;&gt;Node2 -->
<g id="edge52_Node000034_Node000002" class="edge">
<title>Node34&#45;&gt;Node2</title>
<g id="a_edge52_Node000034_Node000002"><a xlink:title=" ">
<path fill="none" stroke="#63b8ff" d="M749.17,-176.79C677.28,-165.78 545.75,-145.64 471.76,-134.31"/>
<polygon fill="#63b8ff" stroke="#63b8ff" points="472.13,-130.83 461.72,-132.77 471.07,-137.74 472.13,-130.83"/>
</a>
</g>
</g>
<!-- Node34&#45;&gt;Node15 -->
<g id="edge53_Node000034_Node000015" class="edge">
<title>Node34&#45;&gt;Node15</title>
<g id="a_edge53_Node000034_Node000015"><a xlink:title=" ">
<path fill="none" stroke="#63b8ff" d="M793.75,-175.87C788.04,-167.31 779.15,-153.97 771.99,-143.24"/>
<polygon fill="#63b8ff" stroke="#63b8ff" points="774.74,-141.05 766.28,-134.67 768.91,-144.93 774.74,-141.05"/>
</a>
</g>
</g>
<!-- Node35&#45;&gt;Node19 -->
<g id="edge58_Node000035_Node000019" class="edge">
<title>Node35&#45;&gt;Node19</title>
<g id="a_edge58_Node000035_Node000019"><a xlink:title=" ">
<path fill="none" stroke="#63b8ff" d="M768.82,-340.75C769.87,-333.8 771.37,-323.85 772.69,-315.13"/>
<polygon fill="#63b8ff" stroke="#63b8ff" points="776.17,-315.5 774.2,-305.09 769.25,-314.45 776.17,-315.5"/>
</a>
</g>
</g>
</g>
</svg>
