<?xml version="1.0" encoding="UTF-8" standalone="no"?>
<!DOCTYPE svg PUBLIC "-//W3C//DTD SVG 1.1//EN"
 "http://www.w3.org/Graphics/SVG/1.1/DTD/svg11.dtd">
<!-- Generated by graphviz version 2.40.1 (20161225.0304)
 -->
<!-- Title: sitkCommon.h Pages: 1 -->
<svg width="4223pt" height="498pt"
 viewBox="0.00 0.00 4223.19 498.00" xmlns="http://www.w3.org/2000/svg" xmlns:xlink="http://www.w3.org/1999/xlink">
<g id="graph0" class="graph" transform="scale(1 1) rotate(0) translate(4 494)">
<title>sitkCommon.h</title>
<polygon fill="#ffffff" stroke="transparent" points="-4,4 -4,-494 4219.1906,-494 4219.1906,4 -4,4"/>
<!-- Node1 -->
<g id="node1" class="node">
<title>Node1</title>
<g id="a_node1"><a xlink:title=" ">
<polygon fill="#bfbfbf" stroke="#000000" points="2097.1906,-470.5 2097.1906,-489.5 2185.1906,-489.5 2185.1906,-470.5 2097.1906,-470.5"/>
<text text-anchor="middle" x="2141.1906" y="-477.5" font-family="Helvetica,sans-Serif" font-size="10.00" fill="#000000">sitkCommon.h</text>
</a>
</g>
</g>
<!-- Node2 -->
<g id="node2" class="node">
<title>Node2</title>
<g id="a_node2"><a xlink:href="sitkNonCopyable_8h.html" target="_top" xlink:title=" ">
<polygon fill="#ffffff" stroke="#000000" points="926.6906,-302.5 926.6906,-321.5 1035.6906,-321.5 1035.6906,-302.5 926.6906,-302.5"/>
<text text-anchor="middle" x="981.1906" y="-309.5" font-family="Helvetica,sans-Serif" font-size="10.00" fill="#000000">sitkNonCopyable.h</text>
</a>
</g>
</g>
<!-- Node1&#45;&gt;Node2 -->
<g id="edge1" class="edge">
<title>Node1&#45;&gt;Node2</title>
<path fill="none" stroke="#191970" d="M2086.9215,-478.7658C1883.8134,-473.9947 1175.0875,-455.9273 1076.1906,-434 1012.7733,-419.9392 977.2651,-432.0193 941.1906,-378 928.0946,-358.3895 951.9118,-334.5481 968.0765,-321.5624"/>
<polygon fill="#191970" stroke="#191970" points="2086.9723,-482.2679 2097.0514,-479.0026 2087.136,-475.2698 2086.9723,-482.2679"/>
</g>
<!-- Node326 -->
<g id="node15" class="node">
<title>Node326</title>
<g id="a_node15"><a xlink:href="sitkProcessObject_8h.html" target="_top" xlink:title=" ">
<polygon fill="#ffffff" stroke="#ff0000" points="957.6906,-179.5 957.6906,-198.5 1070.6906,-198.5 1070.6906,-179.5 957.6906,-179.5"/>
<text text-anchor="middle" x="1014.1906" y="-186.5" font-family="Helvetica,sans-Serif" font-size="10.00" fill="#000000">sitkProcessObject.h</text>
</a>
</g>
</g>
<!-- Node1&#45;&gt;Node326 -->
<g id="edge142" class="edge">
<title>Node1&#45;&gt;Node326</title>
<path fill="none" stroke="#191970" d="M2086.8687,-478.2349C1931.8731,-472.9798 1489.4796,-456.3978 1346.1906,-434 1230.1021,-415.8539 1090.1906,-485.4982 1090.1906,-368 1090.1906,-368 1090.1906,-368 1090.1906,-312 1090.1906,-263.3028 1046.5453,-217.7759 1025.4046,-198.5801"/>
<polygon fill="#191970" stroke="#191970" points="2086.9783,-481.7405 2097.0904,-478.5792 2087.2139,-474.7445 2086.9783,-481.7405"/>
</g>
<!-- Node338 -->
<g id="node19" class="node">
<title>Node338</title>
<g id="a_node19"><a xlink:href="sitkObjectOwnedBase_8h.html" target="_top" xlink:title=" ">
<polygon fill="#ffffff" stroke="#000000" points="1658.6906,-241 1658.6906,-260 1791.6906,-260 1791.6906,-241 1658.6906,-241"/>
<text text-anchor="middle" x="1725.1906" y="-248" font-family="Helvetica,sans-Serif" font-size="10.00" fill="#000000">sitkObjectOwnedBase.h</text>
</a>
</g>
</g>
<!-- Node1&#45;&gt;Node338 -->
<g id="edge143" class="edge">
<title>Node1&#45;&gt;Node338</title>
<path fill="none" stroke="#191970" d="M2086.7891,-478.5411C2004.8385,-475.3402 1854.761,-465.2671 1812.1906,-434 1751.3809,-389.3365 1731.4425,-291.1165 1726.5371,-260.0903"/>
<polygon fill="#191970" stroke="#191970" points="2086.7941,-482.0435 2096.9165,-478.9152 2087.0526,-475.0483 2086.7941,-482.0435"/>
</g>
<!-- Node339 -->
<g id="node20" class="node">
<title>Node339</title>
<g id="a_node20"><a xlink:href="sitkCommand_8h.html" target="_top" xlink:title=" ">
<polygon fill="#ffffff" stroke="#ff0000" points="1654.1906,-179.5 1654.1906,-198.5 1748.1906,-198.5 1748.1906,-179.5 1654.1906,-179.5"/>
<text text-anchor="middle" x="1701.1906" y="-186.5" font-family="Helvetica,sans-Serif" font-size="10.00" fill="#000000">sitkCommand.h</text>
</a>
</g>
</g>
<!-- Node1&#45;&gt;Node339 -->
<g id="edge144" class="edge">
<title>Node1&#45;&gt;Node339</title>
<path fill="none" stroke="#191970" d="M2086.6443,-477.2553C2014.251,-472.6088 1891.4537,-460.924 1856.1906,-434 1830.5805,-414.4463 1826.1906,-400.2215 1826.1906,-368 1826.1906,-368 1826.1906,-368 1826.1906,-312 1826.1906,-275.8795 1824.298,-261.8984 1800.1906,-235 1784.1263,-217.0759 1759.636,-205.6149 1739.0334,-198.6156"/>
<polygon fill="#191970" stroke="#191970" points="2086.7465,-480.7682 2096.9431,-477.8908 2087.1777,-473.7815 2086.7465,-480.7682"/>
</g>
<!-- Node341 -->
<g id="node21" class="node">
<title>Node341</title>
<g id="a_node21"><a xlink:href="sitkLogger_8h.html" target="_top" xlink:title=" ">
<polygon fill="#ffffff" stroke="#000000" points="1766.1906,-179.5 1766.1906,-198.5 1842.1906,-198.5 1842.1906,-179.5 1766.1906,-179.5"/>
<text text-anchor="middle" x="1804.1906" y="-186.5" font-family="Helvetica,sans-Serif" font-size="10.00" fill="#000000">sitkLogger.h</text>
</a>
</g>
</g>
<!-- Node1&#45;&gt;Node341 -->
<g id="edge145" class="edge">
<title>Node1&#45;&gt;Node341</title>
<path fill="none" stroke="#191970" d="M2087.2528,-469.215C2047.2585,-460.3772 1996.9022,-447.2147 1980.1906,-434 1953.8126,-413.1417 1943.1906,-401.6283 1943.1906,-368 1943.1906,-368 1943.1906,-368 1943.1906,-312 1943.1906,-252.5477 1870.9922,-214.9025 1830.6626,-198.5118"/>
<polygon fill="#191970" stroke="#191970" points="2086.6561,-472.6669 2097.1708,-471.3661 2088.1399,-465.826 2086.6561,-472.6669"/>
</g>
<!-- Node342 -->
<g id="node22" class="node">
<title>Node342</title>
<g id="a_node22"><a xlink:href="sitkVersion_8h.html" target="_top" xlink:title=" ">
<polygon fill="#ffffff" stroke="#000000" points="4095.1906,-414.5 4095.1906,-433.5 4175.1906,-433.5 4175.1906,-414.5 4095.1906,-414.5"/>
<text text-anchor="middle" x="4135.1906" y="-421.5" font-family="Helvetica,sans-Serif" font-size="10.00" fill="#000000">sitkVersion.h</text>
</a>
</g>
</g>
<!-- Node1&#45;&gt;Node342 -->
<g id="edge44" class="edge">
<title>Node1&#45;&gt;Node342</title>
<path fill="none" stroke="#191970" d="M2195.654,-479.6432C2419.1547,-477.9699 3287.833,-469.4169 4001.1906,-434 4032.7619,-432.4325 4068.4528,-429.7228 4095.0575,-427.5192"/>
<polygon fill="#191970" stroke="#191970" points="2195.476,-476.1444 2185.502,-479.7178 2195.5274,-483.1442 2195.476,-476.1444"/>
</g>
<!-- Node6 -->
<g id="node23" class="node">
<title>Node6</title>
<g id="a_node23"><a xlink:href="sitkImage_8h.html" target="_top" xlink:title=" ">
<polygon fill="#ffffff" stroke="#000000" points="807.1906,-302.5 807.1906,-321.5 881.1906,-321.5 881.1906,-302.5 807.1906,-302.5"/>
<text text-anchor="middle" x="844.1906" y="-309.5" font-family="Helvetica,sans-Serif" font-size="10.00" fill="#000000">sitkImage.h</text>
</a>
</g>
</g>
<!-- Node1&#45;&gt;Node6 -->
<g id="edge46" class="edge">
<title>Node1&#45;&gt;Node6</title>
<path fill="none" stroke="#191970" d="M2086.9849,-478.8959C1864.2861,-474.2267 1029.0162,-455.3573 977.1906,-434 917.8025,-409.5262 868.2418,-346.0161 850.852,-321.6827"/>
<polygon fill="#191970" stroke="#191970" points="2087.0501,-482.3979 2097.121,-479.1075 2087.1962,-475.3995 2087.0501,-482.3979"/>
</g>
<!-- Node9 -->
<g id="node25" class="node">
<title>Node9</title>
<g id="a_node25"><a xlink:href="sitkTransform_8h.html" target="_top" xlink:title=" ">
<polygon fill="#ffffff" stroke="#000000" points="2466.1906,-241 2466.1906,-260 2558.1906,-260 2558.1906,-241 2466.1906,-241"/>
<text text-anchor="middle" x="2512.1906" y="-248" font-family="Helvetica,sans-Serif" font-size="10.00" fill="#000000">sitkTransform.h</text>
</a>
</g>
</g>
<!-- Node1&#45;&gt;Node9 -->
<g id="edge114" class="edge">
<title>Node1&#45;&gt;Node9</title>
<path fill="none" stroke="#191970" d="M2170.82,-465.8429C2188.5783,-457.1156 2211.4661,-445.4379 2231.1906,-434 2337.0388,-372.6202 2458.3182,-288.4622 2498.4854,-260.1997"/>
<polygon fill="#191970" stroke="#191970" points="2168.991,-462.8407 2161.5347,-470.3676 2172.0574,-469.1333 2168.991,-462.8407"/>
</g>
<!-- Node311 -->
<g id="node27" class="node">
<title>Node311</title>
<g id="a_node27"><a xlink:href="sitkBSplineTransform_8h.html" target="_top" xlink:title=" ">
<polygon fill="#ffffff" stroke="#000000" points="1832.6906,-123.5 1832.6906,-142.5 1961.6906,-142.5 1961.6906,-123.5 1832.6906,-123.5"/>
<text text-anchor="middle" x="1897.1906" y="-130.5" font-family="Helvetica,sans-Serif" font-size="10.00" fill="#000000">sitkBSplineTransform.h</text>
</a>
</g>
</g>
<!-- Node1&#45;&gt;Node311 -->
<g id="edge115" class="edge">
<title>Node1&#45;&gt;Node311</title>
<path fill="none" stroke="#191970" d="M2087.0357,-472.7354C2048.789,-466.1639 1997.0947,-454.3112 1955.1906,-434 1912.151,-413.1385 1870.1906,-415.8289 1870.1906,-368 1870.1906,-368 1870.1906,-368 1870.1906,-250.5 1870.1906,-209.4754 1886.0175,-162.3934 1893.4363,-142.5772"/>
<polygon fill="#191970" stroke="#191970" points="2086.5136,-476.1965 2096.9503,-474.3728 2087.6543,-469.2901 2086.5136,-476.1965"/>
</g>
<!-- Node312 -->
<g id="node28" class="node">
<title>Node312</title>
<g id="a_node28"><a xlink:href="sitkDisplacementFieldTransform_8h.html" target="_top" xlink:title=" ">
<polygon fill="#ffffff" stroke="#000000" points="1898.1906,-179.5 1898.1906,-198.5 2080.1906,-198.5 2080.1906,-179.5 1898.1906,-179.5"/>
<text text-anchor="middle" x="1989.1906" y="-186.5" font-family="Helvetica,sans-Serif" font-size="10.00" fill="#000000">sitkDisplacementFieldTransform.h</text>
</a>
</g>
</g>
<!-- Node1&#45;&gt;Node312 -->
<g id="edge116" class="edge">
<title>Node1&#45;&gt;Node312</title>
<path fill="none" stroke="#191970" d="M2141.1906,-460.1952C2141.1906,-437.8128 2141.1906,-400.2884 2141.1906,-368 2141.1906,-368 2141.1906,-368 2141.1906,-312 2141.1906,-250.3869 2064.7864,-214.3122 2020.3168,-198.5336"/>
<polygon fill="#191970" stroke="#191970" points="2137.6907,-460.4116 2141.1906,-470.4116 2144.6907,-460.4117 2137.6907,-460.4116"/>
</g>
<!-- Node313 -->
<g id="node29" class="node">
<title>Node313</title>
<g id="a_node29"><a xlink:href="sitkAffineTransform_8h.html" target="_top" xlink:title=" ">
<polygon fill="#ffffff" stroke="#000000" points="2136.6906,-179.5 2136.6906,-198.5 2257.6906,-198.5 2257.6906,-179.5 2136.6906,-179.5"/>
<text text-anchor="middle" x="2197.1906" y="-186.5" font-family="Helvetica,sans-Serif" font-size="10.00" fill="#000000">sitkAffineTransform.h</text>
</a>
</g>
</g>
<!-- Node1&#45;&gt;Node313 -->
<g id="edge123" class="edge">
<title>Node1&#45;&gt;Node313</title>
<path fill="none" stroke="#191970" d="M2151.6796,-461.4209C2162.9272,-439.7168 2179.1906,-402.3882 2179.1906,-368 2179.1906,-368 2179.1906,-368 2179.1906,-312 2179.1906,-269.4842 2189.8498,-219.5649 2194.763,-198.8135"/>
<polygon fill="#191970" stroke="#191970" points="2148.4589,-460.0196 2146.7976,-470.4834 2154.6216,-463.3395 2148.4589,-460.0196"/>
</g>
<!-- Node314 -->
<g id="node30" class="node">
<title>Node314</title>
<g id="a_node30"><a xlink:href="sitkEuler2DTransform_8h.html" target="_top" xlink:title=" ">
<polygon fill="#ffffff" stroke="#000000" points="2314.6906,-179.5 2314.6906,-198.5 2445.6906,-198.5 2445.6906,-179.5 2314.6906,-179.5"/>
<text text-anchor="middle" x="2380.1906" y="-186.5" font-family="Helvetica,sans-Serif" font-size="10.00" fill="#000000">sitkEuler2DTransform.h</text>
</a>
</g>
</g>
<!-- Node1&#45;&gt;Node314 -->
<g id="edge124" class="edge">
<title>Node1&#45;&gt;Node314</title>
<path fill="none" stroke="#191970" d="M2161.4698,-463.823C2183.9835,-443.8958 2217.1906,-407.7639 2217.1906,-368 2217.1906,-368 2217.1906,-368 2217.1906,-312 2217.1906,-248.719 2296.4378,-213.8853 2344.4195,-198.5941"/>
<polygon fill="#191970" stroke="#191970" points="2159.0827,-461.2588 2153.7404,-470.4082 2163.6223,-466.5872 2159.0827,-461.2588"/>
</g>
<!-- Node315 -->
<g id="node31" class="node">
<title>Node315</title>
<g id="a_node31"><a xlink:href="sitkEuler3DTransform_8h.html" target="_top" xlink:title=" ">
<polygon fill="#ffffff" stroke="#000000" points="2540.6906,-179.5 2540.6906,-198.5 2671.6906,-198.5 2671.6906,-179.5 2540.6906,-179.5"/>
<text text-anchor="middle" x="2606.1906" y="-186.5" font-family="Helvetica,sans-Serif" font-size="10.00" fill="#000000">sitkEuler3DTransform.h</text>
</a>
</g>
</g>
<!-- Node1&#45;&gt;Node315 -->
<g id="edge125" class="edge">
<title>Node1&#45;&gt;Node315</title>
<path fill="none" stroke="#191970" d="M2195.3612,-478.0244C2315.9902,-472.1515 2596.1906,-449.715 2596.1906,-368 2596.1906,-368 2596.1906,-368 2596.1906,-312 2596.1906,-269.5792 2602.1726,-219.1988 2604.8833,-198.5477"/>
<polygon fill="#191970" stroke="#191970" points="2195.0574,-474.5347 2185.2313,-478.4967 2195.3835,-481.5271 2195.0574,-474.5347"/>
</g>
<!-- Node316 -->
<g id="node32" class="node">
<title>Node316</title>
<g id="a_node32"><a xlink:href="sitkScaleTransform_8h.html" target="_top" xlink:title=" ">
<polygon fill="#ffffff" stroke="#000000" points="2689.6906,-179.5 2689.6906,-198.5 2808.6906,-198.5 2808.6906,-179.5 2689.6906,-179.5"/>
<text text-anchor="middle" x="2749.1906" y="-186.5" font-family="Helvetica,sans-Serif" font-size="10.00" fill="#000000">sitkScaleTransform.h</text>
</a>
</g>
</g>
<!-- Node1&#45;&gt;Node316 -->
<g id="edge126" class="edge">
<title>Node1&#45;&gt;Node316</title>
<path fill="none" stroke="#191970" d="M2195.2728,-476.2164C2291.204,-469.1309 2487.2617,-452.8617 2553.1906,-434 2618.5551,-415.2998 2691.1906,-435.9869 2691.1906,-368 2691.1906,-368 2691.1906,-368 2691.1906,-312 2691.1906,-265.9621 2724.8431,-218.6935 2740.8806,-198.7811"/>
<polygon fill="#191970" stroke="#191970" points="2194.9141,-472.7332 2185.1964,-476.9541 2195.4252,-479.7145 2194.9141,-472.7332"/>
</g>
<!-- Node317 -->
<g id="node33" class="node">
<title>Node317</title>
<g id="a_node33"><a xlink:href="sitkScaleSkewVersor3DTransform_8h.html" target="_top" xlink:title=" ">
<polygon fill="#ffffff" stroke="#000000" points="2826.6906,-179.5 2826.6906,-198.5 3015.6906,-198.5 3015.6906,-179.5 2826.6906,-179.5"/>
<text text-anchor="middle" x="2921.1906" y="-186.5" font-family="Helvetica,sans-Serif" font-size="10.00" fill="#000000">sitkScaleSkewVersor3DTransform.h</text>
</a>
</g>
</g>
<!-- Node1&#45;&gt;Node317 -->
<g id="edge127" class="edge">
<title>Node1&#45;&gt;Node317</title>
<path fill="none" stroke="#191970" d="M2195.4889,-476.8242C2357.3199,-466.6412 2825.1906,-431.6933 2825.1906,-368 2825.1906,-368 2825.1906,-368 2825.1906,-312 2825.1906,-260.2613 2878.6295,-217.2578 2905.7665,-198.7555"/>
<polygon fill="#191970" stroke="#191970" points="2195.0436,-473.345 2185.2802,-477.4591 2195.4782,-480.3315 2195.0436,-473.345"/>
</g>
<!-- Node318 -->
<g id="node34" class="node">
<title>Node318</title>
<g id="a_node34"><a xlink:href="sitkScaleVersor3DTransform_8h.html" target="_top" xlink:title=" ">
<polygon fill="#ffffff" stroke="#000000" points="3033.6906,-179.5 3033.6906,-198.5 3196.6906,-198.5 3196.6906,-179.5 3033.6906,-179.5"/>
<text text-anchor="middle" x="3115.1906" y="-186.5" font-family="Helvetica,sans-Serif" font-size="10.00" fill="#000000">sitkScaleVersor3DTransform.h</text>
</a>
</g>
</g>
<!-- Node1&#45;&gt;Node318 -->
<g id="edge128" class="edge">
<title>Node1&#45;&gt;Node318</title>
<path fill="none" stroke="#191970" d="M2195.4455,-478.5666C2382.5135,-472.9146 2989.1906,-448.3877 2989.1906,-368 2989.1906,-368 2989.1906,-368 2989.1906,-312 2989.1906,-254.8344 3056.4222,-215.5532 3092.6643,-198.5312"/>
<polygon fill="#191970" stroke="#191970" points="2195.1845,-475.0727 2185.2925,-478.8672 2195.3917,-482.0697 2195.1845,-475.0727"/>
</g>
<!-- Node319 -->
<g id="node35" class="node">
<title>Node319</title>
<g id="a_node35"><a xlink:href="sitkSimilarity2DTransform_8h.html" target="_top" xlink:title=" ">
<polygon fill="#ffffff" stroke="#000000" points="3214.6906,-179.5 3214.6906,-198.5 3367.6906,-198.5 3367.6906,-179.5 3214.6906,-179.5"/>
<text text-anchor="middle" x="3291.1906" y="-186.5" font-family="Helvetica,sans-Serif" font-size="10.00" fill="#000000">sitkSimilarity2DTransform.h</text>
</a>
</g>
</g>
<!-- Node1&#45;&gt;Node319 -->
<g id="edge129" class="edge">
<title>Node1&#45;&gt;Node319</title>
<path fill="none" stroke="#191970" d="M2195.7951,-477.7868C2343.1109,-471.6251 2746.4405,-453.4426 2878.1906,-434 3005.1036,-415.2712 3159.1906,-496.2875 3159.1906,-368 3159.1906,-368 3159.1906,-368 3159.1906,-312 3159.1906,-253.8945 3228.4983,-215.4144 3266.6717,-198.6269"/>
<polygon fill="#191970" stroke="#191970" points="2195.4839,-474.2966 2185.6381,-478.2095 2195.775,-481.2906 2195.4839,-474.2966"/>
</g>
<!-- Node320 -->
<g id="node36" class="node">
<title>Node320</title>
<g id="a_node36"><a xlink:href="sitkSimilarity3DTransform_8h.html" target="_top" xlink:title=" ">
<polygon fill="#ffffff" stroke="#000000" points="3385.6906,-179.5 3385.6906,-198.5 3538.6906,-198.5 3538.6906,-179.5 3385.6906,-179.5"/>
<text text-anchor="middle" x="3462.1906" y="-186.5" font-family="Helvetica,sans-Serif" font-size="10.00" fill="#000000">sitkSimilarity3DTransform.h</text>
</a>
</g>
</g>
<!-- Node1&#45;&gt;Node320 -->
<g id="edge130" class="edge">
<title>Node1&#45;&gt;Node320</title>
<path fill="none" stroke="#191970" d="M2195.3636,-478.3485C2361.9328,-473.0872 2865.0493,-455.7781 3027.1906,-434 3163.3579,-415.7106 3329.1906,-505.3901 3329.1906,-368 3329.1906,-368 3329.1906,-368 3329.1906,-312 3329.1906,-253.6585 3399.0234,-215.2844 3437.486,-198.5732"/>
<polygon fill="#191970" stroke="#191970" points="2195.235,-474.8507 2185.3499,-478.6631 2195.4549,-481.8473 2195.235,-474.8507"/>
</g>
<!-- Node321 -->
<g id="node37" class="node">
<title>Node321</title>
<g id="a_node37"><a xlink:href="sitkTranslationTransform_8h.html" target="_top" xlink:title=" ">
<polygon fill="#ffffff" stroke="#000000" points="3557.1906,-179.5 3557.1906,-198.5 3703.1906,-198.5 3703.1906,-179.5 3557.1906,-179.5"/>
<text text-anchor="middle" x="3630.1906" y="-186.5" font-family="Helvetica,sans-Serif" font-size="10.00" fill="#000000">sitkTranslationTransform.h</text>
</a>
</g>
</g>
<!-- Node1&#45;&gt;Node321 -->
<g id="edge131" class="edge">
<title>Node1&#45;&gt;Node321</title>
<path fill="none" stroke="#191970" d="M2195.4524,-478.7941C2381.4382,-474.476 2992.4008,-458.7152 3187.1906,-434 3327.7986,-416.1595 3499.1906,-509.7353 3499.1906,-368 3499.1906,-368 3499.1906,-368 3499.1906,-312 3499.1906,-253.9738 3568.3446,-215.336 3606.1632,-198.5446"/>
<polygon fill="#191970" stroke="#191970" points="2195.2819,-475.297 2185.3653,-479.0267 2195.4434,-482.2951 2195.2819,-475.297"/>
</g>
<!-- Node322 -->
<g id="node38" class="node">
<title>Node322</title>
<g id="a_node38"><a xlink:href="sitkVersorTransform_8h.html" target="_top" xlink:title=" ">
<polygon fill="#ffffff" stroke="#000000" points="3721.6906,-179.5 3721.6906,-198.5 3844.6906,-198.5 3844.6906,-179.5 3721.6906,-179.5"/>
<text text-anchor="middle" x="3783.1906" y="-186.5" font-family="Helvetica,sans-Serif" font-size="10.00" fill="#000000">sitkVersorTransform.h</text>
</a>
</g>
</g>
<!-- Node1&#45;&gt;Node322 -->
<g id="edge132" class="edge">
<title>Node1&#45;&gt;Node322</title>
<path fill="none" stroke="#191970" d="M2195.6478,-479.1918C2400.461,-475.9567 3124.4724,-462.7043 3353.1906,-434 3491.6662,-416.6212 3660.1906,-507.5619 3660.1906,-368 3660.1906,-368 3660.1906,-368 3660.1906,-312 3660.1906,-255.3762 3726.1729,-215.7151 3761.4838,-198.5443"/>
<polygon fill="#191970" stroke="#191970" points="2195.3847,-475.6954 2185.4407,-479.3515 2195.4943,-482.6946 2195.3847,-475.6954"/>
</g>
<!-- Node323 -->
<g id="node39" class="node">
<title>Node323</title>
<g id="a_node39"><a xlink:href="sitkVersorRigid3DTransform_8h.html" target="_top" xlink:title=" ">
<polygon fill="#ffffff" stroke="#000000" points="3862.6906,-179.5 3862.6906,-198.5 4023.6906,-198.5 4023.6906,-179.5 3862.6906,-179.5"/>
<text text-anchor="middle" x="3943.1906" y="-186.5" font-family="Helvetica,sans-Serif" font-size="10.00" fill="#000000">sitkVersorRigid3DTransform.h</text>
</a>
</g>
</g>
<!-- Node1&#45;&gt;Node323 -->
<g id="edge133" class="edge">
<title>Node1&#45;&gt;Node323</title>
<path fill="none" stroke="#191970" d="M2195.4494,-479.4808C2416.9119,-477.1611 3253.0173,-466.3974 3515.1906,-434 3653.2678,-416.9375 3821.1906,-507.1274 3821.1906,-368 3821.1906,-368 3821.1906,-368 3821.1906,-312 3821.1906,-255.6059 3886.6365,-215.838 3921.6603,-198.5937"/>
<polygon fill="#191970" stroke="#191970" points="2195.3362,-475.9817 2185.3729,-479.5849 2195.4086,-482.9813 2195.3362,-475.9817"/>
</g>
<!-- Node324 -->
<g id="node40" class="node">
<title>Node324</title>
<g id="a_node40"><a xlink:href="sitkCompositeTransform_8h.html" target="_top" xlink:title=" ">
<polygon fill="#ffffff" stroke="#000000" points="4041.6906,-179.5 4041.6906,-198.5 4186.6906,-198.5 4186.6906,-179.5 4041.6906,-179.5"/>
<text text-anchor="middle" x="4114.1906" y="-186.5" font-family="Helvetica,sans-Serif" font-size="10.00" fill="#000000">sitkCompositeTransform.h</text>
</a>
</g>
</g>
<!-- Node1&#45;&gt;Node324 -->
<g id="edge134" class="edge">
<title>Node1&#45;&gt;Node324</title>
<path fill="none" stroke="#191970" d="M2195.4444,-479.6778C2432.7415,-478.0681 3380.6347,-469.4992 3676.1906,-434 3816.4827,-417.1495 3987.1906,-509.3005 3987.1906,-368 3987.1906,-368 3987.1906,-368 3987.1906,-312 3987.1906,-254.7551 4054.5939,-215.6374 4091.1918,-198.6169"/>
<polygon fill="#191970" stroke="#191970" points="2195.3133,-476.1785 2185.3368,-479.7451 2195.3599,-483.1784 2195.3133,-476.1785"/>
</g>
<!-- Node343 -->
<g id="node42" class="node">
<title>Node343</title>
<g id="a_node42"><a xlink:href="sitkTemplateFunctions_8h.html" target="_top" xlink:title=" ">
<polygon fill="#ffffff" stroke="#000000" points="1236.1906,-358.5 1236.1906,-377.5 1370.1906,-377.5 1370.1906,-358.5 1236.1906,-358.5"/>
<text text-anchor="middle" x="1303.1906" y="-365.5" font-family="Helvetica,sans-Serif" font-size="10.00" fill="#000000">sitkTemplateFunctions.h</text>
</a>
</g>
</g>
<!-- Node1&#45;&gt;Node343 -->
<g id="edge100" class="edge">
<title>Node1&#45;&gt;Node343</title>
<path fill="none" stroke="#191970" d="M2086.9225,-478.6225C1924.4503,-474.2315 1449.1116,-459.3449 1384.1906,-434 1353.0989,-421.8619 1324.8568,-393.0766 1311.43,-377.845"/>
<polygon fill="#191970" stroke="#191970" points="2087.0741,-482.1277 2097.1642,-478.8966 2087.2614,-475.1303 2087.0741,-482.1277"/>
</g>
<!-- Node345 -->
<g id="node44" class="node">
<title>Node345</title>
<g id="a_node44"><a xlink:href="sitkExceptionObject_8h.html" target="_top" xlink:title=" ">
<polygon fill="#ffffff" stroke="#000000" points="1989.6906,-414.5 1989.6906,-433.5 2112.6906,-433.5 2112.6906,-414.5 1989.6906,-414.5"/>
<text text-anchor="middle" x="2051.1906" y="-421.5" font-family="Helvetica,sans-Serif" font-size="10.00" fill="#000000">sitkExceptionObject.h</text>
</a>
</g>
</g>
<!-- Node1&#45;&gt;Node345 -->
<g id="edge104" class="edge">
<title>Node1&#45;&gt;Node345</title>
<path fill="none" stroke="#191970" d="M2116.7122,-464.769C2100.7639,-454.8456 2080.4396,-442.1994 2066.6877,-433.6427"/>
<polygon fill="#191970" stroke="#191970" points="2115.1741,-467.9342 2125.5138,-470.2455 2118.8723,-461.9908 2115.1741,-467.9342"/>
</g>
<!-- Node346 -->
<g id="node45" class="node">
<title>Node346</title>
<g id="a_node45"><a xlink:href="sitkPixelIDValues_8h.html" target="_top" xlink:title=" ">
<polygon fill="#ffffff" stroke="#000000" points="497.1906,-414.5 497.1906,-433.5 607.1906,-433.5 607.1906,-414.5 497.1906,-414.5"/>
<text text-anchor="middle" x="552.1906" y="-421.5" font-family="Helvetica,sans-Serif" font-size="10.00" fill="#000000">sitkPixelIDValues.h</text>
</a>
</g>
</g>
<!-- Node1&#45;&gt;Node346 -->
<g id="edge107" class="edge">
<title>Node1&#45;&gt;Node346</title>
<path fill="none" stroke="#191970" d="M2087.0116,-478.0906C1843.5969,-469.5121 852.3381,-434.5779 607.21,-425.939"/>
<polygon fill="#191970" stroke="#191970" points="2086.9161,-481.5893 2097.0332,-478.4438 2087.1627,-474.5937 2086.9161,-481.5893"/>
</g>
<!-- Node348 -->
<g id="node47" class="node">
<title>Node348</title>
<g id="a_node47"><a xlink:href="sitkInterpolator_8h.html" target="_top" xlink:title=" ">
<polygon fill="#ffffff" stroke="#000000" points="1540.1906,-241 1540.1906,-260 1640.1906,-260 1640.1906,-241 1540.1906,-241"/>
<text text-anchor="middle" x="1590.1906" y="-248" font-family="Helvetica,sans-Serif" font-size="10.00" fill="#000000">sitkInterpolator.h</text>
</a>
</g>
</g>
<!-- Node1&#45;&gt;Node348 -->
<g id="edge117" class="edge">
<title>Node1&#45;&gt;Node348</title>
<path fill="none" stroke="#191970" d="M2087.0435,-476.9683C2001.6336,-471.5176 1840.0115,-458.301 1788.1906,-434 1697.3833,-391.4165 1620.0337,-291.7991 1597.0976,-260.2583"/>
<polygon fill="#191970" stroke="#191970" points="2086.8702,-480.4642 2097.069,-477.5947 2087.3068,-473.4778 2086.8702,-480.4642"/>
</g>
<!-- Node349 -->
<g id="node48" class="node">
<title>Node349</title>
<g id="a_node48"><a xlink:href="sitkEvent_8h.html" target="_top" xlink:title=" ">
<polygon fill="#ffffff" stroke="#000000" points="1232.6906,-241 1232.6906,-260 1303.6906,-260 1303.6906,-241 1232.6906,-241"/>
<text text-anchor="middle" x="1268.1906" y="-248" font-family="Helvetica,sans-Serif" font-size="10.00" fill="#000000">sitkEvent.h</text>
</a>
</g>
</g>
<!-- Node1&#45;&gt;Node349 -->
<g id="edge135" class="edge">
<title>Node1&#45;&gt;Node349</title>
<path fill="none" stroke="#191970" d="M2086.7842,-479.0744C1961.059,-476.3973 1653.6843,-466.6204 1556.1906,-434 1435.311,-393.5549 1314.3341,-291.6155 1278.6843,-260.0004"/>
<polygon fill="#191970" stroke="#191970" points="2086.8782,-482.5769 2096.9482,-479.2837 2087.0224,-475.5784 2086.8782,-482.5769"/>
</g>
<!-- Node350 -->
<g id="node49" class="node">
<title>Node350</title>
<g id="a_node49"><a xlink:href="sitkRandomSeed_8h.html" target="_top" xlink:title=" ">
<polygon fill="#ffffff" stroke="#000000" points="1330.1906,-241 1330.1906,-260 1438.1906,-260 1438.1906,-241 1330.1906,-241"/>
<text text-anchor="middle" x="1384.1906" y="-248" font-family="Helvetica,sans-Serif" font-size="10.00" fill="#000000">sitkRandomSeed.h</text>
</a>
</g>
</g>
<!-- Node1&#45;&gt;Node350 -->
<g id="edge138" class="edge">
<title>Node1&#45;&gt;Node350</title>
<path fill="none" stroke="#191970" d="M2086.7323,-478.0423C1970.0073,-473.397 1699.1867,-460.0931 1611.1906,-434 1560.484,-418.9642 1548.3362,-409.9528 1506.1906,-378 1456.8757,-340.6118 1409.4263,-282.8429 1391.6028,-260.1352"/>
<polygon fill="#191970" stroke="#191970" points="2086.7413,-481.5452 2096.8707,-478.4394 2087.0153,-474.5506 2086.7413,-481.5452"/>
</g>
<!-- Node351 -->
<g id="node50" class="node">
<title>Node351</title>
<g id="a_node50"><a xlink:href="sitkKernel_8h.html" target="_top" xlink:title=" ">
<polygon fill="#ffffff" stroke="#ff0000" points="1515.1906,-358.5 1515.1906,-377.5 1589.1906,-377.5 1589.1906,-358.5 1515.1906,-358.5"/>
<text text-anchor="middle" x="1552.1906" y="-365.5" font-family="Helvetica,sans-Serif" font-size="10.00" fill="#000000">sitkKernel.h</text>
</a>
</g>
</g>
<!-- Node1&#45;&gt;Node351 -->
<g id="edge146" class="edge">
<title>Node1&#45;&gt;Node351</title>
<path fill="none" stroke="#191970" d="M2086.5987,-478.1516C1976.5764,-473.8897 1731.9811,-461.552 1653.1906,-434 1616.8091,-421.2779 1580.5492,-392.7481 1563.0309,-377.7064"/>
<polygon fill="#191970" stroke="#191970" points="2086.6903,-481.6575 2096.8158,-478.539 2086.9557,-474.6625 2086.6903,-481.6575"/>
</g>
<!-- Node3 -->
<g id="node3" class="node">
<title>Node3</title>
<g id="a_node3"><a xlink:href="sitkMemberFunctionFactoryBase_8h.html" target="_top" xlink:title=" ">
<polygon fill="#ffffff" stroke="#ff0000" points="515.1906,-235.5 515.1906,-265.5 665.1906,-265.5 665.1906,-235.5 515.1906,-235.5"/>
<text text-anchor="start" x="523.1906" y="-253.5" font-family="Helvetica,sans-Serif" font-size="10.00" fill="#000000">sitkMemberFunctionFactory</text>
<text text-anchor="middle" x="590.1906" y="-242.5" font-family="Helvetica,sans-Serif" font-size="10.00" fill="#000000">Base.h</text>
</a>
</g>
</g>
<!-- Node2&#45;&gt;Node3 -->
<g id="edge2" class="edge">
<title>Node2&#45;&gt;Node3</title>
<path fill="none" stroke="#191970" d="M916.5257,-301.8289C847.4773,-290.9684 738.1817,-273.7774 665.3515,-262.322"/>
<polygon fill="#191970" stroke="#191970" points="915.9896,-305.2876 926.412,-303.3839 917.0773,-298.3726 915.9896,-305.2876"/>
</g>
<!-- Node2&#45;&gt;Node326 -->
<g id="edge23" class="edge">
<title>Node2&#45;&gt;Node326</title>
<path fill="none" stroke="#191970" d="M1004.1403,-296.092C1013.4592,-288.235 1023.1927,-277.8847 1028.1906,-266 1037.8292,-243.0796 1026.5336,-213.5811 1019.3078,-198.6215"/>
<polygon fill="#191970" stroke="#191970" points="1001.8949,-293.4049 996.187,-302.3308 1006.2153,-298.9126 1001.8949,-293.4049"/>
</g>
<!-- Node2&#45;&gt;Node338 -->
<g id="edge38" class="edge">
<title>Node2&#45;&gt;Node338</title>
<path fill="none" stroke="#191970" d="M1046.1074,-308.0214C1202.3027,-298.3781 1590.5318,-273.9657 1649.1906,-266 1660.3992,-264.4779 1672.4348,-262.2859 1683.5478,-260.0274"/>
<polygon fill="#191970" stroke="#191970" points="1045.4806,-304.5533 1035.715,-308.6623 1045.9115,-311.54 1045.4806,-304.5533"/>
</g>
<!-- Node337 -->
<g id="node4" class="node">
<title>Node337</title>
<g id="a_node4"><a xlink:href="sitkMemberFunctionFactory_8h.html" target="_top" xlink:title=" ">
<polygon fill="#ffffff" stroke="#ff0000" points="495.1906,-179.5 495.1906,-198.5 653.1906,-198.5 653.1906,-179.5 495.1906,-179.5"/>
<text text-anchor="middle" x="574.1906" y="-186.5" font-family="Helvetica,sans-Serif" font-size="10.00" fill="#000000">sitkMemberFunctionFactory.h</text>
</a>
</g>
</g>
<!-- Node3&#45;&gt;Node337 -->
<g id="edge3" class="edge">
<title>Node3&#45;&gt;Node337</title>
<path fill="none" stroke="#191970" d="M583.7085,-225.5846C581.2673,-216.2011 578.6303,-206.065 576.7524,-198.8469"/>
<polygon fill="#191970" stroke="#191970" points="580.3304,-226.5012 586.2355,-235.2977 587.1049,-224.7386 580.3304,-226.5012"/>
</g>
<!-- Node12 -->
<g id="node5" class="node">
<title>Node12</title>
<g id="a_node5"><a xlink:href="sitkImageFilter_8h.html" target="_top" xlink:title=" ">
<polygon fill="#ffffff" stroke="#ff0000" points="1022.1906,-123.5 1022.1906,-142.5 1120.1906,-142.5 1120.1906,-123.5 1022.1906,-123.5"/>
<text text-anchor="middle" x="1071.1906" y="-130.5" font-family="Helvetica,sans-Serif" font-size="10.00" fill="#000000">sitkImageFilter.h</text>
</a>
</g>
</g>
<!-- Node337&#45;&gt;Node12 -->
<g id="edge4" class="edge">
<title>Node337&#45;&gt;Node12</title>
<path fill="none" stroke="#191970" d="M663.4672,-178.9407C768.3108,-167.1273 938.478,-147.9535 1021.9031,-138.5535"/>
<polygon fill="#191970" stroke="#191970" points="662.7615,-175.4979 653.2163,-180.0957 663.5453,-182.4539 662.7615,-175.4979"/>
</g>
<!-- Node8 -->
<g id="node8" class="node">
<title>Node8</title>
<g id="a_node8"><a xlink:href="sitkHashImageFilter_8h.html" target="_top" xlink:title=" ">
<polygon fill="#ffffff" stroke="#000000" points="945.1906,-62 945.1906,-81 1067.1906,-81 1067.1906,-62 945.1906,-62"/>
<text text-anchor="middle" x="1006.1906" y="-69" font-family="Helvetica,sans-Serif" font-size="10.00" fill="#000000">sitkHashImageFilter.h</text>
</a>
</g>
</g>
<!-- Node337&#45;&gt;Node8 -->
<g id="edge10" class="edge">
<title>Node337&#45;&gt;Node8</title>
<path fill="none" stroke="#191970" d="M572.4106,-169.0506C572.2673,-154.1846 574.7896,-134.5366 587.1906,-123 612.914,-99.0694 835.1767,-82.0946 945.1218,-75.0814"/>
<polygon fill="#191970" stroke="#191970" points="568.9266,-169.4597 572.9204,-179.273 575.9179,-169.111 568.9266,-169.4597"/>
</g>
<!-- Node328 -->
<g id="node9" class="node">
<title>Node328</title>
<g id="a_node9"><a xlink:href="sitkImageFileReader_8h.html" target="_top" xlink:title=" ">
<polygon fill="#ffffff" stroke="#000000" points="182.1906,-62 182.1906,-81 306.1906,-81 306.1906,-62 182.1906,-62"/>
<text text-anchor="middle" x="244.1906" y="-69" font-family="Helvetica,sans-Serif" font-size="10.00" fill="#000000">sitkImageFileReader.h</text>
</a>
</g>
</g>
<!-- Node337&#45;&gt;Node328 -->
<g id="edge11" class="edge">
<title>Node337&#45;&gt;Node328</title>
<path fill="none" stroke="#191970" d="M510.8661,-177.399C473.6381,-169.6439 426.0156,-158.0888 385.1906,-143 337.8207,-125.4923 285.7042,-96.2149 260.1357,-81.1312"/>
<polygon fill="#191970" stroke="#191970" points="510.5781,-180.9124 521.0764,-179.4853 511.9796,-174.0541 510.5781,-180.9124"/>
</g>
<!-- Node331 -->
<g id="node10" class="node">
<title>Node331</title>
<g id="a_node10"><a xlink:href="sitkImageFileWriter_8h.html" target="_top" xlink:title=" ">
<polygon fill="#ffffff" stroke="#000000" points="596.6906,-123.5 596.6906,-142.5 715.6906,-142.5 715.6906,-123.5 596.6906,-123.5"/>
<text text-anchor="middle" x="656.1906" y="-130.5" font-family="Helvetica,sans-Serif" font-size="10.00" fill="#000000">sitkImageFileWriter.h</text>
</a>
</g>
</g>
<!-- Node337&#45;&gt;Node331 -->
<g id="edge13" class="edge">
<title>Node337&#45;&gt;Node331</title>
<path fill="none" stroke="#191970" d="M596.9016,-173.49C611.3694,-163.6096 629.6586,-151.1194 642.071,-142.6427"/>
<polygon fill="#191970" stroke="#191970" points="594.758,-170.7156 588.4739,-179.2455 598.7058,-176.4962 594.758,-170.7156"/>
</g>
<!-- Node329 -->
<g id="node11" class="node">
<title>Node329</title>
<g id="a_node11"><a xlink:href="sitkImageSeriesReader_8h.html" target="_top" xlink:title=" ">
<polygon fill="#ffffff" stroke="#000000" points="324.6906,-62 324.6906,-81 461.6906,-81 461.6906,-62 324.6906,-62"/>
<text text-anchor="middle" x="393.1906" y="-69" font-family="Helvetica,sans-Serif" font-size="10.00" fill="#000000">sitkImageSeriesReader.h</text>
</a>
</g>
</g>
<!-- Node337&#45;&gt;Node329 -->
<g id="edge15" class="edge">
<title>Node337&#45;&gt;Node329</title>
<path fill="none" stroke="#191970" d="M494.8545,-177.6995C453.9622,-170.1286 410.014,-158.6578 397.1906,-143 382.6961,-125.3019 386.9711,-96.1078 390.5222,-81.0861"/>
<polygon fill="#191970" stroke="#191970" points="494.4282,-181.1787 504.8881,-179.4928 495.6599,-174.2879 494.4282,-181.1787"/>
</g>
<!-- Node332 -->
<g id="node12" class="node">
<title>Node332</title>
<g id="a_node12"><a xlink:href="sitkImageSeriesWriter_8h.html" target="_top" xlink:title=" ">
<polygon fill="#ffffff" stroke="#000000" points="406.6906,-123.5 406.6906,-142.5 539.6906,-142.5 539.6906,-123.5 406.6906,-123.5"/>
<text text-anchor="middle" x="473.1906" y="-130.5" font-family="Helvetica,sans-Serif" font-size="10.00" fill="#000000">sitkImageSeriesWriter.h</text>
</a>
</g>
</g>
<!-- Node337&#45;&gt;Node332 -->
<g id="edge17" class="edge">
<title>Node337&#45;&gt;Node332</title>
<path fill="none" stroke="#191970" d="M547.7187,-174.3225C529.6781,-164.3198 506.3029,-151.3593 490.5818,-142.6427"/>
<polygon fill="#191970" stroke="#191970" points="546.1549,-177.4574 556.5977,-179.2455 549.5493,-171.3354 546.1549,-177.4574"/>
</g>
<!-- Node330 -->
<g id="node13" class="node">
<title>Node330</title>
<g id="a_node13"><a xlink:href="sitkImportImageFilter_8h.html" target="_top" xlink:title=" ">
<polygon fill="#ffffff" stroke="#000000" points="34.1906,-62 34.1906,-81 164.1906,-81 164.1906,-62 34.1906,-62"/>
<text text-anchor="middle" x="99.1906" y="-69" font-family="Helvetica,sans-Serif" font-size="10.00" fill="#000000">sitkImportImageFilter.h</text>
</a>
</g>
</g>
<!-- Node337&#45;&gt;Node330 -->
<g id="edge19" class="edge">
<title>Node337&#45;&gt;Node330</title>
<path fill="none" stroke="#191970" d="M484.7242,-184.3345C364.1303,-177.3394 161.2085,-162.8094 133.1906,-143 112.203,-128.1612 103.7351,-96.8497 100.695,-81.0488"/>
<polygon fill="#191970" stroke="#191970" points="484.8683,-187.8484 495.0524,-184.9268 485.2692,-180.8599 484.8683,-187.8484"/>
</g>
<!-- Node325 -->
<g id="node14" class="node">
<title>Node325</title>
<g id="a_node14"><a xlink:href="sitkImageRegistrationMethod_8h.html" target="_top" xlink:title=" ">
<polygon fill="#ffffff" stroke="#000000" points="1175.6906,-123.5 1175.6906,-142.5 1344.6906,-142.5 1344.6906,-123.5 1175.6906,-123.5"/>
<text text-anchor="middle" x="1260.1906" y="-130.5" font-family="Helvetica,sans-Serif" font-size="10.00" fill="#000000">sitkImageRegistrationMethod.h</text>
</a>
</g>
</g>
<!-- Node337&#45;&gt;Node325 -->
<g id="edge21" class="edge">
<title>Node337&#45;&gt;Node325</title>
<path fill="none" stroke="#191970" d="M663.3782,-181.7194C796.4395,-170.8572 1045.2018,-150.5501 1175.5621,-139.9085"/>
<polygon fill="#191970" stroke="#191970" points="662.9003,-178.2467 653.2183,-182.5488 663.4699,-185.2234 662.9003,-178.2467"/>
</g>
<!-- Node11 -->
<g id="node6" class="node">
<title>Node11</title>
<g id="a_node6"><a xlink:href="sitkBSplineTransformInitializerFilter_8h.html" target="_top" xlink:title=" ">
<polygon fill="#ffffff" stroke="#000000" points="1443.1906,-56.5 1443.1906,-86.5 1609.1906,-86.5 1609.1906,-56.5 1443.1906,-56.5"/>
<text text-anchor="start" x="1451.1906" y="-74.5" font-family="Helvetica,sans-Serif" font-size="10.00" fill="#000000">sitkBSplineTransformInitializer</text>
<text text-anchor="middle" x="1526.1906" y="-63.5" font-family="Helvetica,sans-Serif" font-size="10.00" fill="#000000">Filter.h</text>
</a>
</g>
</g>
<!-- Node12&#45;&gt;Node11 -->
<g id="edge5" class="edge">
<title>Node12&#45;&gt;Node11</title>
<path fill="none" stroke="#191970" d="M1130.6813,-124.959C1210.5128,-114.1685 1352.6995,-94.9499 1443.0751,-82.7343"/>
<polygon fill="#191970" stroke="#191970" points="1129.7569,-121.552 1120.3159,-126.36 1130.6946,-128.4889 1129.7569,-121.552"/>
</g>
<!-- Node5 -->
<g id="node7" class="node">
<title>Node5</title>
<g id="a_node7"><a xlink:href="SimpleITK_8h.html" target="_top" xlink:title=" ">
<polygon fill="#ffffff" stroke="#000000" points="1709.6906,-.5 1709.6906,-19.5 1784.6906,-19.5 1784.6906,-.5 1709.6906,-.5"/>
<text text-anchor="middle" x="1747.1906" y="-7.5" font-family="Helvetica,sans-Serif" font-size="10.00" fill="#000000">SimpleITK.h</text>
</a>
</g>
</g>
<!-- Node12&#45;&gt;Node5 -->
<g id="edge9" class="edge">
<title>Node12&#45;&gt;Node5</title>
<path fill="none" stroke="#191970" d="M1080.5779,-114.3825C1090.9531,-96.0041 1109.516,-68.8453 1134.1906,-56 1185.1313,-29.4808 1583.7861,-15.0363 1709.4108,-11.1098"/>
<polygon fill="#191970" stroke="#191970" points="1077.4335,-112.8402 1075.7893,-123.3067 1083.6016,-116.15 1077.4335,-112.8402"/>
</g>
<!-- Node12&#45;&gt;Node8 -->
<g id="edge7" class="edge">
<title>Node12&#45;&gt;Node8</title>
<path fill="none" stroke="#191970" d="M1053.4613,-116.2253C1041.6001,-105.0028 1026.4049,-90.6258 1016.49,-81.2449"/>
<polygon fill="#191970" stroke="#191970" points="1051.3649,-119.0602 1061.0343,-123.3906 1056.1759,-113.9754 1051.3649,-119.0602"/>
</g>
<!-- Node11&#45;&gt;Node5 -->
<g id="edge6" class="edge">
<title>Node11&#45;&gt;Node5</title>
<path fill="none" stroke="#191970" d="M1589.9506,-53.7568C1630.0465,-42.5989 1680.2079,-28.64 1712.9434,-19.5303"/>
<polygon fill="#191970" stroke="#191970" points="1588.9488,-50.4025 1580.2533,-56.4554 1590.8256,-57.1463 1588.9488,-50.4025"/>
</g>
<!-- Node8&#45;&gt;Node5 -->
<g id="edge8" class="edge">
<title>Node8&#45;&gt;Node5</title>
<path fill="none" stroke="#191970" d="M1060.4152,-60.0699C1069.0103,-58.5255 1077.8226,-57.0977 1086.1906,-56 1322.0043,-25.0674 1608.0579,-14.0949 1709.3937,-11.0179"/>
<polygon fill="#191970" stroke="#191970" points="1059.6545,-56.6513 1050.4647,-61.9238 1060.9366,-63.5329 1059.6545,-56.6513"/>
</g>
<!-- Node328&#45;&gt;Node5 -->
<g id="edge12" class="edge">
<title>Node328&#45;&gt;Node5</title>
<path fill="none" stroke="#191970" d="M291.9186,-59.8328C299.6577,-58.3018 307.6166,-56.9404 315.1906,-56 596.5928,-21.062 1512.6282,-11.8695 1709.6445,-10.2766"/>
<polygon fill="#191970" stroke="#191970" points="290.9948,-56.4501 281.9223,-61.9219 292.4269,-63.3021 290.9948,-56.4501"/>
</g>
<!-- Node331&#45;&gt;Node5 -->
<g id="edge14" class="edge">
<title>Node331&#45;&gt;Node5</title>
<path fill="none" stroke="#191970" d="M682.9051,-118.6642C718.5298,-100.3522 784.0951,-69.4269 844.1906,-56 1013.0902,-18.2635 1560.957,-11.4073 1709.6565,-10.2314"/>
<polygon fill="#191970" stroke="#191970" points="680.9323,-115.7454 673.6805,-123.4696 684.1663,-121.9535 680.9323,-115.7454"/>
</g>
<!-- Node329&#45;&gt;Node5 -->
<g id="edge16" class="edge">
<title>Node329&#45;&gt;Node5</title>
<path fill="none" stroke="#191970" d="M451.5291,-60.2811C462.0352,-58.5955 472.9128,-57.0672 483.1906,-56 730.1366,-30.3587 1527.0258,-14.1252 1709.6554,-10.6856"/>
<polygon fill="#191970" stroke="#191970" points="450.8906,-56.8392 441.6019,-61.9354 452.0413,-63.744 450.8906,-56.8392"/>
</g>
<!-- Node332&#45;&gt;Node5 -->
<g id="edge18" class="edge">
<title>Node332&#45;&gt;Node5</title>
<path fill="none" stroke="#191970" d="M509.5159,-120.1144C562.0591,-102.1282 662.6816,-70.1181 751.1906,-56 941.0408,-25.7168 1551.284,-13.354 1709.4596,-10.6124"/>
<polygon fill="#191970" stroke="#191970" points="508.2828,-116.8373 499.9721,-123.4086 510.5668,-123.4542 508.2828,-116.8373"/>
</g>
<!-- Node330&#45;&gt;Node5 -->
<g id="edge20" class="edge">
<title>Node330&#45;&gt;Node5</title>
<path fill="none" stroke="#191970" d="M148.1236,-59.9785C156.4469,-58.3848 165.0356,-56.9655 173.1906,-56 484.3796,-19.1571 1500.4687,-11.4114 1709.4177,-10.195"/>
<polygon fill="#191970" stroke="#191970" points="147.2602,-56.582 138.1496,-61.9901 148.6442,-63.4439 147.2602,-56.582"/>
</g>
<!-- Node325&#45;&gt;Node5 -->
<g id="edge22" class="edge">
<title>Node325&#45;&gt;Node5</title>
<path fill="none" stroke="#191970" d="M1276.1051,-115.819C1294.1099,-97.6007 1325.2416,-69.6147 1358.1906,-56 1421.2774,-29.9323 1624.6322,-16.461 1709.4699,-11.8604"/>
<polygon fill="#191970" stroke="#191970" points="1273.2077,-113.7825 1268.797,-123.4156 1278.2522,-118.6356 1273.2077,-113.7825"/>
</g>
<!-- Node326&#45;&gt;Node12 -->
<g id="edge24" class="edge">
<title>Node326&#45;&gt;Node12</title>
<path fill="none" stroke="#191970" d="M1031.4177,-172.0751C1041.2246,-162.4402 1053.1546,-150.7196 1061.3757,-142.6427"/>
<polygon fill="#191970" stroke="#191970" points="1028.7997,-169.7406 1024.1192,-179.2455 1033.7055,-174.734 1028.7997,-169.7406"/>
</g>
<!-- Node326&#45;&gt;Node5 -->
<g id="edge26" class="edge">
<title>Node326&#45;&gt;Node5</title>
<path fill="none" stroke="#191970" d="M1050.2436,-175.8022C1073.1378,-167.1225 1103.2373,-155.1559 1129.1906,-143 1146.1189,-135.0712 1149.5444,-131.5051 1166.1906,-123 1227.261,-91.7972 1239.2142,-74.7169 1305.1906,-56 1380.9895,-34.4966 1617.1985,-18.0242 1709.5996,-12.2431"/>
<polygon fill="#191970" stroke="#191970" points="1048.7198,-172.6358 1040.5899,-179.4296 1051.182,-179.1885 1048.7198,-172.6358"/>
</g>
<!-- Node326&#45;&gt;Node8 -->
<g id="edge25" class="edge">
<title>Node326&#45;&gt;Node8</title>
<path fill="none" stroke="#191970" d="M1012.8334,-169.0662C1011.0984,-143.5834 1008.1627,-100.4662 1006.8543,-81.2484"/>
<polygon fill="#191970" stroke="#191970" points="1009.3646,-169.6454 1013.5359,-179.3845 1016.3485,-169.1698 1009.3646,-169.6454"/>
</g>
<!-- Node326&#45;&gt;Node331 -->
<g id="edge31" class="edge">
<title>Node326&#45;&gt;Node331</title>
<path fill="none" stroke="#191970" d="M947.5101,-178.5695C881.0294,-168.1703 779.8634,-152.3455 715.933,-142.3452"/>
<polygon fill="#191970" stroke="#191970" points="947.0436,-182.039 957.4644,-180.1266 948.1255,-175.1231 947.0436,-182.039"/>
</g>
<!-- Node326&#45;&gt;Node332 -->
<g id="edge32" class="edge">
<title>Node326&#45;&gt;Node332</title>
<path fill="none" stroke="#191970" d="M947.5068,-182.0974C843.5059,-171.3321 643.8479,-150.6651 539.8575,-139.9008"/>
<polygon fill="#191970" stroke="#191970" points="947.2638,-185.5909 957.5711,-183.1392 947.9846,-178.6281 947.2638,-185.5909"/>
</g>
<!-- Node326&#45;&gt;Node325 -->
<g id="edge37" class="edge">
<title>Node326&#45;&gt;Node325</title>
<path fill="none" stroke="#191970" d="M1066.125,-177.1775C1111.4304,-166.8641 1176.3161,-152.0934 1218.3545,-142.5237"/>
<polygon fill="#191970" stroke="#191970" points="1065.1736,-173.8045 1056.2,-179.4369 1066.7274,-180.6299 1065.1736,-173.8045"/>
</g>
<!-- Node327 -->
<g id="node16" class="node">
<title>Node327</title>
<g id="a_node16"><a xlink:href="sitkImageReaderBase_8h.html" target="_top" xlink:title=" ">
<polygon fill="#ffffff" stroke="#000000" points="142.1906,-123.5 142.1906,-142.5 274.1906,-142.5 274.1906,-123.5 142.1906,-123.5"/>
<text text-anchor="middle" x="208.1906" y="-130.5" font-family="Helvetica,sans-Serif" font-size="10.00" fill="#000000">sitkImageReaderBase.h</text>
</a>
</g>
</g>
<!-- Node326&#45;&gt;Node327 -->
<g id="edge27" class="edge">
<title>Node326&#45;&gt;Node327</title>
<path fill="none" stroke="#191970" d="M947.3916,-184.3589C795.454,-173.8024 425.4757,-148.0967 274.2492,-137.5897"/>
<polygon fill="#191970" stroke="#191970" points="947.2957,-187.8606 957.5142,-185.0622 947.7809,-180.8774 947.2957,-187.8606"/>
</g>
<!-- Node333 -->
<g id="node17" class="node">
<title>Node333</title>
<g id="a_node17"><a xlink:href="sitkImageViewer_8h.html" target="_top" xlink:title=" ">
<polygon fill="#ffffff" stroke="#000000" points="733.6906,-123.5 733.6906,-142.5 840.6906,-142.5 840.6906,-123.5 733.6906,-123.5"/>
<text text-anchor="middle" x="787.1906" y="-130.5" font-family="Helvetica,sans-Serif" font-size="10.00" fill="#000000">sitkImageViewer.h</text>
</a>
</g>
</g>
<!-- Node326&#45;&gt;Node333 -->
<g id="edge33" class="edge">
<title>Node326&#45;&gt;Node333</title>
<path fill="none" stroke="#191970" d="M965.4748,-176.982C923.7073,-166.6781 864.3425,-152.0331 825.7955,-142.5237"/>
<polygon fill="#191970" stroke="#191970" points="964.8786,-180.4398 975.4258,-179.4369 966.5552,-173.6435 964.8786,-180.4398"/>
</g>
<!-- Node334 -->
<g id="node18" class="node">
<title>Node334</title>
<g id="a_node18"><a xlink:href="sitkShow_8h.html" target="_top" xlink:title=" ">
<polygon fill="#ffffff" stroke="#000000" points="858.6906,-123.5 858.6906,-142.5 927.6906,-142.5 927.6906,-123.5 858.6906,-123.5"/>
<text text-anchor="middle" x="893.1906" y="-130.5" font-family="Helvetica,sans-Serif" font-size="10.00" fill="#000000">sitkShow.h</text>
</a>
</g>
</g>
<!-- Node326&#45;&gt;Node334 -->
<g id="edge35" class="edge">
<title>Node326&#45;&gt;Node334</title>
<path fill="none" stroke="#191970" d="M984.1802,-175.1109C962.2381,-164.9559 933.0518,-151.4482 913.7198,-142.5011"/>
<polygon fill="#191970" stroke="#191970" points="982.8447,-178.3494 993.3899,-179.3733 985.7848,-171.9968 982.8447,-178.3494"/>
</g>
<!-- Node327&#45;&gt;Node328 -->
<g id="edge28" class="edge">
<title>Node327&#45;&gt;Node328</title>
<path fill="none" stroke="#191970" d="M218.9697,-114.5857C225.3816,-103.632 233.259,-90.1748 238.4863,-81.2449"/>
<polygon fill="#191970" stroke="#191970" points="215.8469,-112.9923 213.8156,-123.3906 221.888,-116.5286 215.8469,-112.9923"/>
</g>
<!-- Node327&#45;&gt;Node329 -->
<g id="edge29" class="edge">
<title>Node327&#45;&gt;Node329</title>
<path fill="none" stroke="#191970" d="M246.9929,-120.1009C282.0806,-108.4366 332.9371,-91.5302 364.4873,-81.0419"/>
<polygon fill="#191970" stroke="#191970" points="245.4821,-116.9147 237.0968,-123.3906 247.6904,-123.5573 245.4821,-116.9147"/>
</g>
<!-- Node327&#45;&gt;Node330 -->
<g id="edge30" class="edge">
<title>Node327&#45;&gt;Node330</title>
<path fill="none" stroke="#191970" d="M182.3408,-118.415C161.8515,-106.8546 133.8137,-91.035 116.1022,-81.0419"/>
<polygon fill="#191970" stroke="#191970" points="180.7301,-121.5249 191.1593,-123.3906 184.1699,-115.4283 180.7301,-121.5249"/>
</g>
<!-- Node333&#45;&gt;Node5 -->
<g id="edge34" class="edge">
<title>Node333&#45;&gt;Node5</title>
<path fill="none" stroke="#191970" d="M805.5283,-116.6963C827.6274,-98.1669 866.7329,-68.8343 906.1906,-56 983.1919,-30.954 1556.5431,-14.8123 1709.6807,-10.9165"/>
<polygon fill="#191970" stroke="#191970" points="802.9774,-114.2732 797.6657,-123.4403 807.5347,-119.5864 802.9774,-114.2732"/>
</g>
<!-- Node334&#45;&gt;Node5 -->
<g id="edge36" class="edge">
<title>Node334&#45;&gt;Node5</title>
<path fill="none" stroke="#191970" d="M898.1625,-113.7152C903.9881,-95.4313 915.5746,-68.8987 936.1906,-56 969.3479,-35.2546 1554.2272,-15.9155 1709.5678,-11.1283"/>
<polygon fill="#191970" stroke="#191970" points="894.7887,-112.7831 895.3735,-123.3618 901.5133,-114.7274 894.7887,-112.7831"/>
</g>
<!-- Node338&#45;&gt;Node5 -->
<g id="edge39" class="edge">
<title>Node338&#45;&gt;Node5</title>
<path fill="none" stroke="#191970" d="M1689.2439,-236.8174C1661.9812,-224.1656 1631.3665,-203.6294 1645.1906,-179 1660.2258,-152.2129 1685.1676,-167.1191 1704.1906,-143 1734.6973,-104.3205 1743.8607,-43.354 1746.3473,-19.7679"/>
<polygon fill="#191970" stroke="#191970" points="1688.1057,-240.1401 1698.6689,-240.9575 1690.9209,-233.7312 1688.1057,-240.1401"/>
</g>
<!-- Node338&#45;&gt;Node339 -->
<g id="edge40" class="edge">
<title>Node338&#45;&gt;Node339</title>
<path fill="none" stroke="#191970" d="M1717.7443,-231.4189C1713.5184,-220.5901 1708.4079,-207.4944 1704.9935,-198.7449"/>
<polygon fill="#191970" stroke="#191970" points="1714.5446,-232.8473 1721.4406,-240.8906 1721.0656,-230.3024 1714.5446,-232.8473"/>
</g>
<!-- Node338&#45;&gt;Node341 -->
<g id="edge42" class="edge">
<title>Node338&#45;&gt;Node341</title>
<path fill="none" stroke="#191970" d="M1745.5519,-234.6491C1760.2306,-223.222 1779.5594,-208.1749 1791.9335,-198.5419"/>
<polygon fill="#191970" stroke="#191970" points="1743.2752,-231.9859 1737.5343,-240.8906 1747.5752,-237.5095 1743.2752,-231.9859"/>
</g>
<!-- Node339&#45;&gt;Node5 -->
<g id="edge41" class="edge">
<title>Node339&#45;&gt;Node5</title>
<path fill="none" stroke="#191970" d="M1721.4819,-172.0465C1729.4582,-164.1264 1737.7554,-154.0153 1742.1906,-143 1759.5377,-99.917 1752.7268,-42.4972 1748.9995,-19.8133"/>
<polygon fill="#191970" stroke="#191970" points="1718.7277,-169.8267 1713.7675,-179.1887 1723.4833,-174.9633 1718.7277,-169.8267"/>
</g>
<!-- Node341&#45;&gt;Node5 -->
<g id="edge43" class="edge">
<title>Node341&#45;&gt;Node5</title>
<path fill="none" stroke="#191970" d="M1800.015,-169.6992C1794.121,-143.5463 1782.4706,-95.5738 1768.1906,-56 1763.5421,-43.1179 1756.7609,-28.8543 1752.1723,-19.6765"/>
<polygon fill="#191970" stroke="#191970" points="1796.602,-170.4757 1802.1794,-179.4836 1803.4368,-168.9637 1796.602,-170.4757"/>
</g>
<!-- Node342&#45;&gt;Node5 -->
<g id="edge45" class="edge">
<title>Node342&#45;&gt;Node5</title>
<path fill="none" stroke="#191970" d="M4156.6012,-408.0013C4180.2987,-388.2864 4215.1906,-352.399 4215.1906,-312 4215.1906,-312 4215.1906,-312 4215.1906,-133 4215.1906,38.9645 3616.8099,-66.8912 3445.1906,-56 3106.3688,-34.4979 2003.4394,-14.4629 1784.9891,-10.6499"/>
<polygon fill="#191970" stroke="#191970" points="4154.3781,-405.2976 4148.7615,-414.2811 4158.7544,-410.7609 4154.3781,-405.2976"/>
</g>
<!-- Node6&#45;&gt;Node5 -->
<g id="edge50" class="edge">
<title>Node6&#45;&gt;Node5</title>
<path fill="none" stroke="#191970" d="M797.0222,-310.7C655.9271,-306.5324 243.5272,-292.2213 189.1906,-266 82.5372,-214.5321 -57.4212,-140.8481 25.1906,-56 55.6047,-24.7626 1460.1369,-12.2605 1709.5304,-10.2852"/>
<polygon fill="#191970" stroke="#191970" points="796.9975,-314.2007 807.0953,-310.9939 797.2017,-307.2037 796.9975,-314.2007"/>
</g>
<!-- Node6&#45;&gt;Node8 -->
<g id="edge49" class="edge">
<title>Node6&#45;&gt;Node8</title>
<path fill="none" stroke="#191970" d="M846.452,-292.1201C848.8922,-276.0039 853.7716,-253.0804 863.1906,-235 881.6588,-199.549 967.6072,-110.6869 996.6063,-81.1878"/>
<polygon fill="#191970" stroke="#191970" points="842.9225,-292.112 845.0763,-302.4856 849.8616,-293.0331 842.9225,-292.112"/>
</g>
<!-- Node6&#45;&gt;Node328 -->
<g id="edge92" class="edge">
<title>Node6&#45;&gt;Node328</title>
<path fill="none" stroke="#191970" d="M796.6394,-310.9413C719.2901,-308.2756 561.9138,-298.9065 433.1906,-266 293.5755,-230.3091 213.4666,-262.6745 133.1906,-143 112.6317,-112.3511 161.8351,-91.9728 201.1844,-81.0691"/>
<polygon fill="#191970" stroke="#191970" points="796.9039,-314.4515 807.0112,-311.2747 797.1289,-307.4552 796.9039,-314.4515"/>
</g>
<!-- Node6&#45;&gt;Node331 -->
<g id="edge93" class="edge">
<title>Node6&#45;&gt;Node331</title>
<path fill="none" stroke="#191970" d="M826.6981,-295.3449C788.1501,-258.6423 696.8899,-171.7509 666.3483,-142.6714"/>
<polygon fill="#191970" stroke="#191970" points="824.4271,-298.0154 834.0829,-302.3762 829.254,-292.9457 824.4271,-298.0154"/>
</g>
<!-- Node6&#45;&gt;Node329 -->
<g id="edge94" class="edge">
<title>Node6&#45;&gt;Node329</title>
<path fill="none" stroke="#191970" d="M796.7579,-310.4379C710.982,-306.8929 534.0677,-296.0693 481.1906,-266 420.9096,-231.7205 407.7512,-208.5737 385.1906,-143 377.876,-121.7399 384.8027,-95.0283 389.56,-81.0421"/>
<polygon fill="#191970" stroke="#191970" points="796.8686,-313.945 806.9995,-310.8444 797.1462,-306.9505 796.8686,-313.945"/>
</g>
<!-- Node6&#45;&gt;Node332 -->
<g id="edge95" class="edge">
<title>Node6&#45;&gt;Node332</title>
<path fill="none" stroke="#191970" d="M796.9418,-308.4012C709.1809,-301.3091 527.9095,-284.5921 506.1906,-266 468.9603,-234.1296 470.2793,-167.4302 472.2147,-142.5915"/>
<polygon fill="#191970" stroke="#191970" points="796.6636,-311.89 806.9107,-309.1979 797.2213,-304.9123 796.6636,-311.89"/>
</g>
<!-- Node6&#45;&gt;Node330 -->
<g id="edge97" class="edge">
<title>Node6&#45;&gt;Node330</title>
<path fill="none" stroke="#191970" d="M796.8479,-311.5285C675.1035,-309.8059 353.7398,-301.891 254.1906,-266 179.6677,-239.1319 159.4489,-214.4277 125.1906,-143 115.0231,-121.8012 106.4249,-95.5146 102.1292,-81.4642"/>
<polygon fill="#191970" stroke="#191970" points="796.9278,-315.0298 806.9738,-311.6639 797.0215,-308.0305 796.9278,-315.0298"/>
</g>
<!-- Node6&#45;&gt;Node325 -->
<g id="edge99" class="edge">
<title>Node6&#45;&gt;Node325</title>
<path fill="none" stroke="#191970" d="M891.2283,-302.5953C926.3583,-294.816 975.1751,-282.3913 1016.1906,-266 1107.8074,-229.3866 1208.7549,-166.398 1245.6627,-142.5367"/>
<polygon fill="#191970" stroke="#191970" points="890.2756,-299.2206 881.2458,-304.7626 891.7608,-306.0612 890.2756,-299.2206"/>
</g>
<!-- Node6&#45;&gt;Node326 -->
<g id="edge89" class="edge">
<title>Node6&#45;&gt;Node326</title>
<path fill="none" stroke="#191970" d="M891.3133,-302.7835C929.7277,-294.3523 979.881,-280.9451 994.1906,-266 1012.0526,-247.3447 1014.491,-214.8576 1014.5079,-198.7003"/>
<polygon fill="#191970" stroke="#191970" points="890.3752,-299.405 881.3302,-304.9222 891.8415,-306.2497 890.3752,-299.405"/>
</g>
<!-- Node6&#45;&gt;Node333 -->
<g id="edge96" class="edge">
<title>Node6&#45;&gt;Node333</title>
<path fill="none" stroke="#191970" d="M835.3096,-293.1924C831.6028,-284.952 827.4181,-275.1028 824.1906,-266 808.1721,-220.8214 794.5995,-165.0576 789.428,-142.8228"/>
<polygon fill="#191970" stroke="#191970" points="832.1359,-294.6682 839.4976,-302.2877 838.4942,-291.7405 832.1359,-294.6682"/>
</g>
<!-- Node6&#45;&gt;Node334 -->
<g id="edge98" class="edge">
<title>Node6&#45;&gt;Node334</title>
<path fill="none" stroke="#191970" d="M835.8709,-292.7389C830.2262,-277.0191 824.7028,-254.3281 830.1906,-235 840.9351,-197.1577 870.1534,-159.5959 884.7114,-142.5267"/>
<polygon fill="#191970" stroke="#191970" points="832.7462,-294.3567 839.6644,-302.381 839.2602,-291.7939 832.7462,-294.3567"/>
</g>
<!-- Node7 -->
<g id="node24" class="node">
<title>Node7</title>
<g id="a_node24"><a xlink:href="sitkAdditionalProcedures_8h.html" target="_top" xlink:title=" ">
<polygon fill="#ffffff" stroke="#000000" points="1514.6906,-123.5 1514.6906,-142.5 1661.6906,-142.5 1661.6906,-123.5 1514.6906,-123.5"/>
<text text-anchor="middle" x="1588.1906" y="-130.5" font-family="Helvetica,sans-Serif" font-size="10.00" fill="#000000">sitkAdditionalProcedures.h</text>
</a>
</g>
</g>
<!-- Node6&#45;&gt;Node7 -->
<g id="edge47" class="edge">
<title>Node6&#45;&gt;Node7</title>
<path fill="none" stroke="#191970" d="M891.2079,-305.0781C899.8377,-303.9446 908.7758,-302.8611 917.1906,-302 1034.6264,-289.9822 1339.0203,-313.2735 1447.1906,-266 1511.0189,-238.1052 1563.814,-168.3629 1581.6862,-142.6867"/>
<polygon fill="#191970" stroke="#191970" points="890.7099,-301.6135 881.2688,-306.4213 891.6475,-308.5504 890.7099,-301.6135"/>
</g>
<!-- Node6&#45;&gt;Node9 -->
<g id="edge51" class="edge">
<title>Node6&#45;&gt;Node9</title>
<path fill="none" stroke="#191970" d="M891.1848,-304.831C899.8169,-303.7226 908.7619,-302.7114 917.1906,-302 1229.8425,-275.6098 2237.8294,-255.6032 2465.9871,-251.3427"/>
<polygon fill="#191970" stroke="#191970" points="890.6904,-301.3659 881.2448,-306.1649 891.6215,-308.3037 890.6904,-301.3659"/>
</g>
<!-- Node335 -->
<g id="node41" class="node">
<title>Node335</title>
<g id="a_node41"><a xlink:href="sitkImageConvert_8h.html" target="_top" xlink:title=" ">
<polygon fill="#ffffff" stroke="#000000" points="872.6906,-241 872.6906,-260 985.6906,-260 985.6906,-241 872.6906,-241"/>
<text text-anchor="middle" x="929.1906" y="-248" font-family="Helvetica,sans-Serif" font-size="10.00" fill="#000000">sitkImageConvert.h</text>
</a>
</g>
</g>
<!-- Node6&#45;&gt;Node335 -->
<g id="edge90" class="edge">
<title>Node6&#45;&gt;Node335</title>
<path fill="none" stroke="#191970" d="M865.6568,-296.4685C881.5025,-285.0037 902.5642,-269.765 916.0026,-260.0419"/>
<polygon fill="#191970" stroke="#191970" points="863.5219,-293.6931 857.4718,-302.3906 867.6253,-299.3643 863.5219,-293.6931"/>
</g>
<!-- Node7&#45;&gt;Node5 -->
<g id="edge48" class="edge">
<title>Node7&#45;&gt;Node5</title>
<path fill="none" stroke="#191970" d="M1605.7114,-116.3243C1623.0297,-100.1705 1650.5751,-75.3463 1676.1906,-56 1694.2397,-42.3682 1716.2668,-28.4908 1730.9543,-19.5963"/>
<polygon fill="#191970" stroke="#191970" points="1602.9721,-114.0957 1598.0845,-123.4959 1607.7673,-119.1954 1602.9721,-114.0957"/>
</g>
<!-- Node9&#45;&gt;Node5 -->
<g id="edge58" class="edge">
<title>Node9&#45;&gt;Node5</title>
<path fill="none" stroke="#191970" d="M2508.1785,-230.5662C2503.9152,-214.4312 2495.5883,-192.2771 2480.1906,-179 2326.7364,-46.6799 2239.1851,-99.0693 2041.1906,-56 1950.0704,-36.1788 1841.2862,-21.4404 1785.046,-14.471"/>
<polygon fill="#191970" stroke="#191970" points="2504.837,-231.6488 2510.5178,-240.5919 2511.6539,-230.0581 2504.837,-231.6488"/>
</g>
<!-- Node9&#45;&gt;Node325 -->
<g id="edge88" class="edge">
<title>Node9&#45;&gt;Node325</title>
<path fill="none" stroke="#191970" d="M2455.8054,-245.4069C2364.1672,-236.7193 2187.1205,-218.1131 2127.1906,-199 2109.0077,-193.201 2107.5846,-184.0898 2089.1906,-179 2053.7865,-169.2034 1548.995,-145.8359 1344.8982,-136.7262"/>
<polygon fill="#191970" stroke="#191970" points="2455.7245,-248.9147 2466.0084,-246.3666 2456.3801,-241.9454 2455.7245,-248.9147"/>
</g>
<!-- Node9&#45;&gt;Node7 -->
<g id="edge57" class="edge">
<title>Node9&#45;&gt;Node7</title>
<path fill="none" stroke="#191970" d="M2456.2223,-240.2164C2413.9615,-231.5845 2354.9466,-217.6628 2305.1906,-199 2286.9517,-192.1589 2284.9604,-184.2108 2266.1906,-179 2209.2087,-163.1809 1825.5936,-143.9242 1661.9386,-136.3181"/>
<polygon fill="#191970" stroke="#191970" points="2455.5565,-243.6525 2466.0499,-242.1902 2456.9349,-236.7895 2455.5565,-243.6525"/>
</g>
<!-- Node10 -->
<g id="node26" class="node">
<title>Node10</title>
<g id="a_node26"><a xlink:href="sitkBasicFilters_8h.html" target="_top" xlink:title=" ">
<polygon fill="#ffffff" stroke="#ff0000" points="1384.6906,-179.5 1384.6906,-198.5 1483.6906,-198.5 1483.6906,-179.5 1384.6906,-179.5"/>
<text text-anchor="middle" x="1434.1906" y="-186.5" font-family="Helvetica,sans-Serif" font-size="10.00" fill="#000000">sitkBasicFilters.h</text>
</a>
</g>
</g>
<!-- Node9&#45;&gt;Node10 -->
<g id="edge52" class="edge">
<title>Node9&#45;&gt;Node10</title>
<path fill="none" stroke="#191970" d="M2455.6256,-247.273C2267.0136,-236.5126 1661.4979,-201.9679 1483.7109,-191.8251"/>
<polygon fill="#191970" stroke="#191970" points="2455.6871,-250.7821 2465.8703,-247.8574 2456.0859,-243.7934 2455.6871,-250.7821"/>
</g>
<!-- Node9&#45;&gt;Node311 -->
<g id="edge59" class="edge">
<title>Node9&#45;&gt;Node311</title>
<path fill="none" stroke="#191970" d="M2502.7075,-231.7277C2493.0229,-214.7455 2476.2852,-190.6671 2454.1906,-179 2411.5573,-156.4876 2099.3927,-141.2046 1961.9043,-135.495"/>
<polygon fill="#191970" stroke="#191970" points="2499.7522,-233.6212 2507.5818,-240.759 2505.9123,-230.2965 2499.7522,-233.6212"/>
</g>
<!-- Node9&#45;&gt;Node312 -->
<g id="edge62" class="edge">
<title>Node9&#45;&gt;Node312</title>
<path fill="none" stroke="#191970" d="M2455.7219,-243.8598C2362.7515,-232.9273 2177.1245,-211.0993 2070.1744,-198.523"/>
<polygon fill="#191970" stroke="#191970" points="2455.4375,-247.3504 2465.7778,-245.0423 2456.255,-240.3983 2455.4375,-247.3504"/>
</g>
<!-- Node9&#45;&gt;Node313 -->
<g id="edge64" class="edge">
<title>Node9&#45;&gt;Node313</title>
<path fill="none" stroke="#191970" d="M2456.0385,-239.537C2396.3229,-227.8782 2302.8201,-209.6229 2246.0475,-198.5387"/>
<polygon fill="#191970" stroke="#191970" points="2455.5641,-243.0104 2466.0495,-241.4915 2456.9055,-236.1401 2455.5641,-243.0104"/>
</g>
<!-- Node9&#45;&gt;Node314 -->
<g id="edge66" class="edge">
<title>Node9&#45;&gt;Node314</title>
<path fill="none" stroke="#191970" d="M2482.2184,-236.5357C2457.3012,-224.9265 2422.5059,-208.7151 2400.6708,-198.5419"/>
<polygon fill="#191970" stroke="#191970" points="2481.023,-239.8399 2491.5656,-240.8906 2483.9793,-233.4948 2481.023,-239.8399"/>
</g>
<!-- Node9&#45;&gt;Node315 -->
<g id="edge68" class="edge">
<title>Node9&#45;&gt;Node315</title>
<path fill="none" stroke="#191970" d="M2535.4445,-235.286C2553.0211,-223.7864 2576.6074,-208.355 2591.6062,-198.5419"/>
<polygon fill="#191970" stroke="#191970" points="2533.33,-232.4868 2526.8781,-240.8906 2537.1625,-238.3445 2533.33,-232.4868"/>
</g>
<!-- Node9&#45;&gt;Node316 -->
<g id="edge70" class="edge">
<title>Node9&#45;&gt;Node316</title>
<path fill="none" stroke="#191970" d="M2558.7645,-238.4144C2603.7425,-226.7428 2670.9577,-209.3009 2712.3331,-198.5643"/>
<polygon fill="#191970" stroke="#191970" points="2557.7621,-235.0585 2548.9618,-240.9581 2559.5204,-241.8341 2557.7621,-235.0585"/>
</g>
<!-- Node9&#45;&gt;Node317 -->
<g id="edge72" class="edge">
<title>Node9&#45;&gt;Node317</title>
<path fill="none" stroke="#191970" d="M2568.6072,-242.0168C2644.3973,-230.6205 2778.6968,-210.4263 2857.8643,-198.5222"/>
<polygon fill="#191970" stroke="#191970" points="2567.6814,-238.6166 2558.313,-243.5647 2568.7223,-245.5388 2567.6814,-238.6166"/>
</g>
<!-- Node9&#45;&gt;Node318 -->
<g id="edge74" class="edge">
<title>Node9&#45;&gt;Node318</title>
<path fill="none" stroke="#191970" d="M2568.625,-244.9948C2662.9737,-235.7526 2858.698,-216.4157 3024.1906,-199 3027.1938,-198.684 3030.2525,-198.3597 3033.3419,-198.0303"/>
<polygon fill="#191970" stroke="#191970" points="2568.0601,-241.5333 2558.4487,-245.991 2568.7421,-248.5 2568.0601,-241.5333"/>
</g>
<!-- Node9&#45;&gt;Node319 -->
<g id="edge76" class="edge">
<title>Node9&#45;&gt;Node319</title>
<path fill="none" stroke="#191970" d="M2568.7288,-247.0977C2686.996,-239.8048 2969.1119,-221.4877 3205.1906,-199 3208.1833,-198.7149 3211.2332,-198.4134 3214.3133,-198.0996"/>
<polygon fill="#191970" stroke="#191970" points="2568.2405,-243.621 2558.474,-247.7278 2568.6698,-250.6079 2568.2405,-243.621"/>
</g>
<!-- Node9&#45;&gt;Node320 -->
<g id="edge78" class="edge">
<title>Node9&#45;&gt;Node320</title>
<path fill="none" stroke="#191970" d="M2568.9584,-248.2221C2707.2222,-242.4332 3072.3773,-225.6969 3376.1906,-199 3379.1853,-198.7368 3382.2369,-198.4538 3385.3184,-198.1555"/>
<polygon fill="#191970" stroke="#191970" points="2568.4651,-244.7395 2558.6193,-248.6522 2568.7561,-251.7334 2568.4651,-244.7395"/>
</g>
<!-- Node9&#45;&gt;Node321 -->
<g id="edge80" class="edge">
<title>Node9&#45;&gt;Node321</title>
<path fill="none" stroke="#191970" d="M2568.7189,-249.0814C2724.7562,-244.8647 3174.5935,-230.6762 3547.1906,-199 3550.3722,-198.7295 3553.6199,-198.4317 3556.8989,-198.1132"/>
<polygon fill="#191970" stroke="#191970" points="2568.3358,-245.5903 2558.4329,-249.3564 2568.5229,-252.5878 2568.3358,-245.5903"/>
</g>
<!-- Node9&#45;&gt;Node322 -->
<g id="edge82" class="edge">
<title>Node9&#45;&gt;Node322</title>
<path fill="none" stroke="#191970" d="M2568.4214,-250.0233C2740.1633,-248.152 3272.8905,-239.2675 3712.1906,-199 3715.2896,-198.7159 3718.4605,-198.392 3721.6596,-198.0386"/>
<polygon fill="#191970" stroke="#191970" points="2568.3144,-246.5241 2558.3519,-250.1294 2568.3883,-253.5237 2568.3144,-246.5241"/>
</g>
<!-- Node9&#45;&gt;Node323 -->
<g id="edge84" class="edge">
<title>Node9&#45;&gt;Node323</title>
<path fill="none" stroke="#191970" d="M2568.5575,-249.7927C2753.1287,-247.1651 3356.0551,-236.1159 3853.1906,-199 3856.1693,-198.7776 3859.2016,-198.5331 3862.2632,-198.2711"/>
<polygon fill="#191970" stroke="#191970" points="2568.2353,-246.2967 2558.2853,-249.9363 2568.3333,-253.2961 2568.2353,-246.2967"/>
</g>
<!-- Node9&#45;&gt;Node324 -->
<g id="edge86" class="edge">
<title>Node9&#45;&gt;Node324</title>
<path fill="none" stroke="#191970" d="M2568.603,-249.251C2807.8037,-243.8527 3739.4048,-221.7689 4032.1906,-199 4035.1932,-198.7665 4038.2551,-198.504 4041.3462,-198.2189"/>
<polygon fill="#191970" stroke="#191970" points="2568.3171,-245.7564 2558.3984,-249.4806 2568.4747,-252.7547 2568.3171,-245.7564"/>
</g>
<!-- Node10&#45;&gt;Node12 -->
<g id="edge55" class="edge">
<title>Node10&#45;&gt;Node12</title>
<path fill="none" stroke="#191970" d="M1374.3454,-179.7677C1303.3249,-168.8114 1186.2494,-150.7501 1120.3027,-140.5765"/>
<polygon fill="#191970" stroke="#191970" points="1374.0614,-183.2652 1384.4781,-181.3309 1375.1287,-176.347 1374.0614,-183.2652"/>
</g>
<!-- Node10&#45;&gt;Node11 -->
<g id="edge54" class="edge">
<title>Node10&#45;&gt;Node11</title>
<path fill="none" stroke="#191970" d="M1447.9108,-171.4768C1465.9149,-148.4825 1497.2207,-108.4996 1514.2781,-86.7143"/>
<polygon fill="#191970" stroke="#191970" points="1445.1285,-169.3531 1441.7193,-179.3845 1450.64,-173.6685 1445.1285,-169.3531"/>
</g>
<!-- Node10&#45;&gt;Node8 -->
<g id="edge56" class="edge">
<title>Node10&#45;&gt;Node8</title>
<path fill="none" stroke="#191970" d="M1418.8185,-172.0884C1403.7106,-156.6267 1379.1945,-134.4733 1353.1906,-123 1303.1815,-100.9353 1152.7026,-84.4933 1067.2336,-76.637"/>
<polygon fill="#191970" stroke="#191970" points="1416.3991,-174.6235 1425.8195,-179.4718 1421.4786,-169.807 1416.3991,-174.6235"/>
</g>
<!-- Node10&#45;&gt;Node7 -->
<g id="edge53" class="edge">
<title>Node10&#45;&gt;Node7</title>
<path fill="none" stroke="#191970" d="M1470.152,-175.9231C1498.304,-165.686 1536.7961,-151.6889 1562.0625,-142.5011"/>
<polygon fill="#191970" stroke="#191970" points="1468.8659,-172.6665 1460.6641,-179.3733 1471.2582,-179.245 1468.8659,-172.6665"/>
</g>
<!-- Node311&#45;&gt;Node11 -->
<g id="edge60" class="edge">
<title>Node311&#45;&gt;Node11</title>
<path fill="none" stroke="#191970" d="M1829.5753,-121.7915C1767.6548,-111.5271 1675.8115,-96.3024 1609.4078,-85.2948"/>
<polygon fill="#191970" stroke="#191970" points="1829.1911,-125.2755 1839.6289,-123.4581 1830.3359,-118.3698 1829.1911,-125.2755"/>
</g>
<!-- Node311&#45;&gt;Node5 -->
<g id="edge61" class="edge">
<title>Node311&#45;&gt;Node5</title>
<path fill="none" stroke="#191970" d="M1881.3359,-115.6796C1865.9815,-99.3725 1841.6429,-74.7231 1818.1906,-56 1800.6291,-41.9798 1778.6983,-28.2872 1763.8938,-19.5386"/>
<polygon fill="#191970" stroke="#191970" points="1879.1192,-118.4352 1888.494,-123.3712 1884.2435,-113.6664 1879.1192,-118.4352"/>
</g>
<!-- Node312&#45;&gt;Node5 -->
<g id="edge63" class="edge">
<title>Node312&#45;&gt;Node5</title>
<path fill="none" stroke="#191970" d="M1987.5207,-169.2802C1985.4347,-155.1095 1980.743,-136.2458 1970.1906,-123 1922.5934,-63.254 1835.04,-32.2486 1784.9673,-18.7048"/>
<polygon fill="#191970" stroke="#191970" points="1984.0702,-169.9105 1988.6972,-179.4416 1991.0238,-169.1054 1984.0702,-169.9105"/>
</g>
<!-- Node313&#45;&gt;Node5 -->
<g id="edge65" class="edge">
<title>Node313&#45;&gt;Node5</title>
<path fill="none" stroke="#191970" d="M2171.4868,-174.3167C2123.962,-147.6635 2018.5778,-90.8611 1924.1906,-56 1877.2816,-38.6746 1821.0958,-25.2559 1784.8037,-17.4948"/>
<polygon fill="#191970" stroke="#191970" points="2170.0333,-177.5151 2180.4629,-179.379 2173.472,-171.418 2170.0333,-177.5151"/>
</g>
<!-- Node314&#45;&gt;Node5 -->
<g id="edge67" class="edge">
<title>Node314&#45;&gt;Node5</title>
<path fill="none" stroke="#191970" d="M2344.722,-175.8264C2274.6701,-150.1564 2113.284,-92.7417 1974.1906,-56 1908.2936,-38.5932 1830.1444,-24.0709 1784.8561,-16.2444"/>
<polygon fill="#191970" stroke="#191970" points="2343.7877,-179.2119 2354.3813,-179.3772 2346.203,-172.6418 2343.7877,-179.2119"/>
</g>
<!-- Node315&#45;&gt;Node5 -->
<g id="edge69" class="edge">
<title>Node315&#45;&gt;Node5</title>
<path fill="none" stroke="#191970" d="M2600.8874,-169.6242C2591.4685,-139.3698 2568.6929,-81.7162 2526.1906,-56 2462.3661,-17.3828 1931.7451,-11.1649 1784.7889,-10.1814"/>
<polygon fill="#191970" stroke="#191970" points="2597.5885,-170.8127 2603.7649,-179.4209 2604.3048,-168.8399 2597.5885,-170.8127"/>
</g>
<!-- Node316&#45;&gt;Node5 -->
<g id="edge71" class="edge">
<title>Node316&#45;&gt;Node5</title>
<path fill="none" stroke="#191970" d="M2732.0229,-172.0436C2700.5328,-142.1953 2630.0534,-81.061 2557.1906,-56 2483.6845,-30.7178 1934.6565,-14.8333 1784.853,-10.9382"/>
<polygon fill="#191970" stroke="#191970" points="2729.8736,-174.8329 2739.5047,-179.248 2734.729,-169.7905 2729.8736,-174.8329"/>
</g>
<!-- Node317&#45;&gt;Node5 -->
<g id="edge73" class="edge">
<title>Node317&#45;&gt;Node5</title>
<path fill="none" stroke="#191970" d="M2895.1955,-174.53C2842.0814,-145.7984 2716.4626,-82.0797 2602.1906,-56 2443.3157,-19.7409 1929.4348,-11.8487 1785.1689,-10.33"/>
<polygon fill="#191970" stroke="#191970" points="2893.7955,-177.7532 2904.2502,-179.4707 2897.1484,-171.6084 2893.7955,-177.7532"/>
</g>
<!-- Node318&#45;&gt;Node5 -->
<g id="edge75" class="edge">
<title>Node318&#45;&gt;Node5</title>
<path fill="none" stroke="#191970" d="M3080.5098,-175.6568C3005.8853,-147.6394 2823.9625,-83.0452 2665.1906,-56 2491.5607,-26.4239 1934.7779,-13.6508 1784.7371,-10.694"/>
<polygon fill="#191970" stroke="#191970" points="3079.7223,-179.1006 3090.3139,-179.3597 3082.1956,-172.5521 3079.7223,-179.1006"/>
</g>
<!-- Node319&#45;&gt;Node5 -->
<g id="edge77" class="edge">
<title>Node319&#45;&gt;Node5</title>
<path fill="none" stroke="#191970" d="M3251.5271,-176.4847C3162.4414,-149.0011 2939.2371,-83.6268 2747.1906,-56 2556.0291,-28.5005 1943.0778,-14.0785 1784.7824,-10.7538"/>
<polygon fill="#191970" stroke="#191970" points="3250.632,-179.8715 3261.22,-179.4891 3252.7046,-173.1853 3250.632,-179.8715"/>
</g>
<!-- Node320&#45;&gt;Node5 -->
<g id="edge79" class="edge">
<title>Node320&#45;&gt;Node5</title>
<path fill="none" stroke="#191970" d="M3417.7867,-176.7344C3316.7282,-149.4223 3061.4,-83.8172 2843.1906,-56 2631.8403,-29.0572 1952.6872,-14.0715 1784.9266,-10.7234"/>
<polygon fill="#191970" stroke="#191970" points="3417.0775,-180.1684 3427.6451,-179.4098 3418.9109,-173.4128 3417.0775,-180.1684"/>
</g>
<!-- Node321&#45;&gt;Node5 -->
<g id="edge81" class="edge">
<title>Node321&#45;&gt;Node5</title>
<path fill="none" stroke="#191970" d="M3582.6619,-177.0771C3472.2853,-149.971 3189.677,-83.9155 2949.1906,-56 2715.5608,-28.8804 1962.4838,-13.872 1784.9396,-10.6578"/>
<polygon fill="#191970" stroke="#191970" points="3581.9421,-180.5044 3592.4892,-179.4995 3583.6175,-173.7078 3581.9421,-180.5044"/>
</g>
<!-- Node322&#45;&gt;Node5 -->
<g id="edge83" class="edge">
<title>Node322&#45;&gt;Node5</title>
<path fill="none" stroke="#191970" d="M3733.3213,-177.1336C3616.9507,-150.0253 3318.0612,-83.7596 3064.1906,-56 2806.3422,-27.8055 1972.03,-13.4683 1784.7428,-10.5601"/>
<polygon fill="#191970" stroke="#191970" points="3732.8186,-180.6104 3743.3528,-179.4789 3734.4122,-173.7942 3732.8186,-180.6104"/>
</g>
<!-- Node323&#45;&gt;Node5 -->
<g id="edge85" class="edge">
<title>Node323&#45;&gt;Node5</title>
<path fill="none" stroke="#191970" d="M3891.3176,-177.274C3769.086,-150.2209 3453.0979,-83.648 3185.1906,-56 2901.9452,-26.7691 1982.5905,-13.118 1784.8701,-10.4814"/>
<polygon fill="#191970" stroke="#191970" points="3890.6405,-180.7089 3901.1615,-179.4602 3892.1582,-173.8754 3890.6405,-180.7089"/>
</g>
<!-- Node324&#45;&gt;Node5 -->
<g id="edge87" class="edge">
<title>Node324&#45;&gt;Node5</title>
<path fill="none" stroke="#191970" d="M4059.6573,-177.3375C3930.5312,-150.2983 3595.6509,-83.5428 3312.1906,-56 3002.0788,-25.8676 1992.355,-12.8138 1784.7245,-10.4148"/>
<polygon fill="#191970" stroke="#191970" points="4059.1842,-180.8144 4069.6902,-179.4453 4060.6235,-173.964 4059.1842,-180.8144"/>
</g>
<!-- Node335&#45;&gt;Node326 -->
<g id="edge91" class="edge">
<title>Node335&#45;&gt;Node326</title>
<path fill="none" stroke="#191970" d="M950.6568,-234.9685C966.5025,-223.5037 987.5642,-208.265 1001.0026,-198.5419"/>
<polygon fill="#191970" stroke="#191970" points="948.5219,-232.1931 942.4718,-240.8906 952.6253,-237.8643 948.5219,-232.1931"/>
</g>
<!-- Node343&#45;&gt;Node326 -->
<g id="edge102" class="edge">
<title>Node343&#45;&gt;Node326</title>
<path fill="none" stroke="#191970" d="M1306.4906,-348.1934C1307.7359,-333.9796 1306.9599,-315.0999 1297.1906,-302 1289.0071,-291.0266 1109.0257,-223.9171 1040.4264,-198.6288"/>
<polygon fill="#191970" stroke="#191970" points="1302.9831,-348.0306 1305.1917,-358.3927 1309.927,-348.915 1302.9831,-348.0306"/>
</g>
<!-- Node343&#45;&gt;Node6 -->
<g id="edge101" class="edge">
<title>Node343&#45;&gt;Node6</title>
<path fill="none" stroke="#191970" d="M1225.6357,-359.1622C1147.6582,-350.181 1024.0189,-335.6814 917.1906,-322 905.5173,-320.505 892.8062,-318.7931 881.3109,-317.2131"/>
<polygon fill="#191970" stroke="#191970" points="1225.5225,-362.6722 1235.857,-360.3379 1226.3225,-355.718 1225.5225,-362.6722"/>
</g>
<!-- Node344 -->
<g id="node43" class="node">
<title>Node344</title>
<g id="a_node43"><a xlink:href="sitkPimpleImageBase_8h.html" target="_top" xlink:title=" ">
<polygon fill="#ffffff" stroke="#000000" points="1156.1906,-302.5 1156.1906,-321.5 1288.1906,-321.5 1288.1906,-302.5 1156.1906,-302.5"/>
<text text-anchor="middle" x="1222.1906" y="-309.5" font-family="Helvetica,sans-Serif" font-size="10.00" fill="#000000">sitkPimpleImageBase.h</text>
</a>
</g>
</g>
<!-- Node343&#45;&gt;Node344 -->
<g id="edge103" class="edge">
<title>Node343&#45;&gt;Node344</title>
<path fill="none" stroke="#191970" d="M1280.7565,-352.49C1266.4652,-342.6096 1248.399,-330.1194 1236.138,-321.6427"/>
<polygon fill="#191970" stroke="#191970" points="1278.8655,-355.4376 1289.0815,-358.2455 1282.8463,-349.6797 1278.8655,-355.4376"/>
</g>
<!-- Node345&#45;&gt;Node9 -->
<g id="edge106" class="edge">
<title>Node345&#45;&gt;Node9</title>
<path fill="none" stroke="#191970" d="M2086.0135,-410.8942C2175.0135,-377.3985 2409.246,-289.2438 2486.8272,-260.0457"/>
<polygon fill="#191970" stroke="#191970" points="2084.7589,-407.6266 2076.6326,-414.4248 2087.2246,-414.178 2084.7589,-407.6266"/>
</g>
<!-- Node345&#45;&gt;Node343 -->
<g id="edge105" class="edge">
<title>Node345&#45;&gt;Node343</title>
<path fill="none" stroke="#191970" d="M1979.5785,-418.6387C1835.1595,-407.8266 1510.8126,-383.5439 1370.2593,-373.0212"/>
<polygon fill="#191970" stroke="#191970" points="1979.4273,-422.1371 1989.6608,-419.3935 1979.95,-415.1566 1979.4273,-422.1371"/>
</g>
<!-- Node346&#45;&gt;Node337 -->
<g id="edge112" class="edge">
<title>Node346&#45;&gt;Node337</title>
<path fill="none" stroke="#191970" d="M539.6057,-405.682C517.2373,-370.6496 475.6517,-292.5287 506.1906,-235 515.2794,-217.8787 533.9027,-205.9664 549.3651,-198.5605"/>
<polygon fill="#191970" stroke="#191970" points="536.9042,-407.9433 545.3292,-414.3675 542.7492,-404.0915 536.9042,-407.9433"/>
</g>
<!-- Node346&#45;&gt;Node327 -->
<g id="edge113" class="edge">
<title>Node346&#45;&gt;Node327</title>
<path fill="none" stroke="#191970" d="M532.728,-407.536C469.299,-353.8795 269.758,-185.0817 219.6791,-142.7185"/>
<polygon fill="#191970" stroke="#191970" points="530.8499,-410.5316 540.7451,-414.3179 535.3708,-405.1873 530.8499,-410.5316"/>
</g>
<!-- Node347 -->
<g id="node46" class="node">
<title>Node347</title>
<g id="a_node46"><a xlink:href="sitkPixelIDTokens_8h.html" target="_top" xlink:title=" ">
<polygon fill="#ffffff" stroke="#ff0000" points="950.1906,-358.5 950.1906,-377.5 1062.1906,-377.5 1062.1906,-358.5 950.1906,-358.5"/>
<text text-anchor="middle" x="1006.1906" y="-365.5" font-family="Helvetica,sans-Serif" font-size="10.00" fill="#000000">sitkPixelIDTokens.h</text>
</a>
</g>
</g>
<!-- Node346&#45;&gt;Node347 -->
<g id="edge108" class="edge">
<title>Node346&#45;&gt;Node347</title>
<path fill="none" stroke="#191970" d="M617.4138,-415.9548C706.7244,-404.9386 865.5862,-385.3433 949.9376,-374.9387"/>
<polygon fill="#191970" stroke="#191970" points="616.9023,-412.4913 607.406,-417.1893 617.7593,-419.4387 616.9023,-412.4913"/>
</g>
<!-- Node347&#45;&gt;Node325 -->
<g id="edge111" class="edge">
<title>Node347&#45;&gt;Node325</title>
<path fill="none" stroke="#191970" d="M1023.8255,-351.6843C1073.0371,-306.1539 1210.803,-178.6932 1249.7911,-142.6216"/>
<polygon fill="#191970" stroke="#191970" points="1021.4256,-349.1363 1016.4623,-358.4967 1026.1795,-354.2745 1021.4256,-349.1363"/>
</g>
<!-- Node347&#45;&gt;Node6 -->
<g id="edge109" class="edge">
<title>Node347&#45;&gt;Node6</title>
<path fill="none" stroke="#191970" d="M968.7484,-355.057C939.1005,-344.8084 898.3709,-330.729 871.676,-321.5011"/>
<polygon fill="#191970" stroke="#191970" points="967.747,-358.414 978.3418,-358.3733 970.034,-351.7982 967.747,-358.414"/>
</g>
<!-- Node347&#45;&gt;Node344 -->
<g id="edge110" class="edge">
<title>Node347&#45;&gt;Node344</title>
<path fill="none" stroke="#191970" d="M1053.0506,-355.8511C1092.7979,-345.5462 1149.0216,-330.9697 1185.5434,-321.5011"/>
<polygon fill="#191970" stroke="#191970" points="1052.1239,-352.4756 1043.3223,-358.3733 1053.8807,-359.2516 1052.1239,-352.4756"/>
</g>
<!-- Node348&#45;&gt;Node5 -->
<g id="edge121" class="edge">
<title>Node348&#45;&gt;Node5</title>
<path fill="none" stroke="#191970" d="M1601.4427,-232.2991C1610.7811,-217.5604 1624.674,-196.4543 1638.1906,-179 1651.2977,-162.0744 1657.6528,-160.3515 1670.1906,-143 1701.5997,-99.5319 1731.1549,-42.3317 1742.4046,-19.7599"/>
<polygon fill="#191970" stroke="#191970" points="1598.358,-230.6304 1596.0135,-240.9626 1604.2895,-234.3476 1598.358,-230.6304"/>
</g>
<!-- Node348&#45;&gt;Node325 -->
<g id="edge122" class="edge">
<title>Node348&#45;&gt;Node325</title>
<path fill="none" stroke="#191970" d="M1529.9077,-240.8362C1486.0109,-232.6629 1425.6589,-219.0443 1375.1906,-199 1336.4673,-183.6204 1295.0134,-156.9956 1274.0477,-142.7151"/>
<polygon fill="#191970" stroke="#191970" points="1529.3884,-244.2991 1539.8537,-242.6475 1530.6426,-237.4124 1529.3884,-244.2991"/>
</g>
<!-- Node348&#45;&gt;Node7 -->
<g id="edge119" class="edge">
<title>Node348&#45;&gt;Node7</title>
<path fill="none" stroke="#191970" d="M1581.8992,-231.1732C1576.7342,-216.8668 1571.535,-196.8463 1574.1906,-179 1576.1073,-166.1193 1580.8867,-151.8554 1584.3282,-142.6772"/>
<polygon fill="#191970" stroke="#191970" points="1578.795,-232.8433 1585.7115,-240.869 1585.3095,-230.2818 1578.795,-232.8433"/>
</g>
<!-- Node348&#45;&gt;Node10 -->
<g id="edge118" class="edge">
<title>Node348&#45;&gt;Node10</title>
<path fill="none" stroke="#191970" d="M1556.3214,-237.1477C1526.7817,-225.5023 1484.6563,-208.8952 1458.3944,-198.5419"/>
<polygon fill="#191970" stroke="#191970" points="1555.2287,-240.4791 1565.8156,-240.8906 1557.7961,-233.9669 1555.2287,-240.4791"/>
</g>
<!-- Node348&#45;&gt;Node312 -->
<g id="edge120" class="edge">
<title>Node348&#45;&gt;Node312</title>
<path fill="none" stroke="#191970" d="M1633.6291,-238.4461C1638.8511,-237.1876 1644.1262,-236.0039 1649.1906,-235 1732.8896,-218.4084 1829.3781,-205.9817 1898.1351,-198.2539"/>
<polygon fill="#191970" stroke="#191970" points="1632.5701,-235.1032 1623.7221,-240.931 1634.2731,-241.8929 1632.5701,-235.1032"/>
</g>
<!-- Node349&#45;&gt;Node5 -->
<g id="edge136" class="edge">
<title>Node349&#45;&gt;Node5</title>
<path fill="none" stroke="#191970" d="M1283.0397,-233.0002C1300.5276,-212.107 1330.1155,-175.8565 1353.1906,-143 1379.346,-105.7575 1368.9967,-80.7454 1407.1906,-56 1456.4937,-24.057 1631.6719,-14.0293 1709.4794,-11.109"/>
<polygon fill="#191970" stroke="#191970" points="1280.3104,-230.8077 1276.5491,-240.7125 1285.6661,-235.3151 1280.3104,-230.8077"/>
</g>
<!-- Node349&#45;&gt;Node326 -->
<g id="edge137" class="edge">
<title>Node349&#45;&gt;Node326</title>
<path fill="none" stroke="#191970" d="M1222.7698,-239.5024C1174.6549,-227.8526 1099.4539,-209.6445 1053.7087,-198.5684"/>
<polygon fill="#191970" stroke="#191970" points="1222.0627,-242.9323 1232.6055,-241.8839 1223.71,-236.1289 1222.0627,-242.9323"/>
</g>
<!-- Node350&#45;&gt;Node5 -->
<g id="edge140" class="edge">
<title>Node350&#45;&gt;Node5</title>
<path fill="none" stroke="#191970" d="M1378.07,-230.8499C1374.4437,-216.3834 1371.255,-196.3044 1375.1906,-179 1381.9135,-149.4397 1409.7798,-73.9757 1434.1906,-56 1477.3114,-24.2464 1636.3478,-14.1775 1709.6903,-11.182"/>
<polygon fill="#191970" stroke="#191970" points="1374.7548,-231.9911 1380.8177,-240.6796 1381.4964,-230.1065 1374.7548,-231.9911"/>
</g>
<!-- Node350&#45;&gt;Node325 -->
<g id="edge141" class="edge">
<title>Node350&#45;&gt;Node325</title>
<path fill="none" stroke="#191970" d="M1355.7719,-236.0299C1339.4899,-226.8527 1319.3467,-213.9151 1304.1906,-199 1286.7191,-181.8064 1272.2717,-156.6143 1265.0897,-142.8591"/>
<polygon fill="#191970" stroke="#191970" points="1354.3913,-239.2639 1364.8454,-240.9853 1357.7466,-233.1204 1354.3913,-239.2639"/>
</g>
<!-- Node350&#45;&gt;Node10 -->
<g id="edge139" class="edge">
<title>Node350&#45;&gt;Node10</title>
<path fill="none" stroke="#191970" d="M1398.3577,-233.0744C1407.4006,-221.9517 1418.7878,-207.9454 1426.2679,-198.7449"/>
<polygon fill="#191970" stroke="#191970" points="1395.5957,-230.9235 1392.0031,-240.8906 1401.0272,-235.3393 1395.5957,-230.9235"/>
</g>
<!-- Node351&#45;&gt;Node10 -->
<g id="edge147" class="edge">
<title>Node351&#45;&gt;Node10</title>
<path fill="none" stroke="#191970" d="M1540.2846,-349.9393C1515.5842,-312.47 1459.4953,-227.3859 1440.5661,-198.6714"/>
<polygon fill="#191970" stroke="#191970" points="1537.4203,-351.9534 1545.8464,-358.3762 1543.2647,-348.1007 1537.4203,-351.9534"/>
</g>
</g>
</svg>
