<?xml version="1.0" encoding="UTF-8" standalone="no"?>
<!DOCTYPE svg PUBLIC "-//W3C//DTD SVG 1.1//EN"
 "http://www.w3.org/Graphics/SVG/1.1/DTD/svg11.dtd">
<!-- Generated by graphviz version 2.43.0 (0)
 -->
<!-- Title: sitkBasicFilters.h Pages: 1 -->
<svg width="1561pt" height="423pt"
 viewBox="0.00 0.00 1560.50 423.00" xmlns="http://www.w3.org/2000/svg" xmlns:xlink="http://www.w3.org/1999/xlink">
<g id="graph0" class="graph" transform="scale(1 1) rotate(0) translate(4 419)">
<title>sitkBasicFilters.h</title>
<!-- Node1 -->
<g id="Node000001" class="node">
<title>Node1</title>
<g id="a_Node000001"><a xlink:title=" ">
<polygon fill="#999999" stroke="#666666" points="209,-415 109,-415 109,-396 209,-396 209,-415"/>
<text text-anchor="middle" x="159" y="-403" font-family="Helvetica,sans-Serif" font-size="10.00">sitkBasicFilters.h</text>
</a>
</g>
</g>
<!-- Node2 -->
<g id="Node000002" class="node">
<title>Node2</title>
<g id="a_Node000002"><a xlink:href="sitkMacro_8h.html" target="_top" xlink:title=" ">
<polygon fill="white" stroke="#666666" points="538,-74 464,-74 464,-55 538,-55 538,-74"/>
<text text-anchor="middle" x="501" y="-62" font-family="Helvetica,sans-Serif" font-size="10.00">sitkMacro.h</text>
</a>
</g>
</g>
<!-- Node1&#45;&gt;Node2 -->
<g id="edge1_Node000001_Node000002" class="edge">
<title>Node1&#45;&gt;Node2</title>
<g id="a_edge1_Node000001_Node000002"><a xlink:title=" ">
<path fill="none" stroke="#63b8ff" d="M119.29,-395.9C72.19,-383.09 0,-354.06 0,-296.5 0,-296.5 0,-296.5 0,-184.5 0,-91.78 328.89,-71.19 453.72,-66.71"/>
<polygon fill="#63b8ff" stroke="#63b8ff" points="453.88,-70.21 463.75,-66.37 453.64,-63.21 453.88,-70.21"/>
</a>
</g>
</g>
<!-- Node9 -->
<g id="Node000009" class="node">
<title>Node9</title>
<g id="a_Node000009"><a xlink:href="sitkInterpolator_8h.html" target="_top" xlink:title=" ">
<polygon fill="white" stroke="#666666" points="178,-250 78,-250 78,-231 178,-231 178,-250"/>
<text text-anchor="middle" x="128" y="-238" font-family="Helvetica,sans-Serif" font-size="10.00">sitkInterpolator.h</text>
</a>
</g>
</g>
<!-- Node1&#45;&gt;Node9 -->
<g id="edge8_Node000001_Node000009" class="edge">
<title>Node1&#45;&gt;Node9</title>
<g id="a_edge8_Node000001_Node000009"><a xlink:title=" ">
<path fill="none" stroke="#63b8ff" d="M156.83,-395.76C152.6,-378.5 143.12,-338.77 137,-305 134.3,-290.07 131.92,-273.04 130.29,-260.38"/>
<polygon fill="#63b8ff" stroke="#63b8ff" points="133.73,-259.65 129.01,-250.16 126.78,-260.52 133.73,-259.65"/>
</a>
</g>
</g>
<!-- Node12 -->
<g id="Node000012" class="node">
<title>Node12</title>
<g id="a_Node000012"><a xlink:href="sitkRandomSeed_8h.html" target="_top" xlink:title=" ">
<polygon fill="white" stroke="#666666" points="254,-305 146,-305 146,-286 254,-286 254,-305"/>
<text text-anchor="middle" x="200" y="-293" font-family="Helvetica,sans-Serif" font-size="10.00">sitkRandomSeed.h</text>
</a>
</g>
</g>
<!-- Node1&#45;&gt;Node12 -->
<g id="edge12_Node000001_Node000012" class="edge">
<title>Node1&#45;&gt;Node12</title>
<g id="a_edge12_Node000001_Node000012"><a xlink:title=" ">
<path fill="none" stroke="#63b8ff" d="M162.36,-395.66C169.06,-378.01 184.21,-338.09 193.12,-314.64"/>
<polygon fill="#63b8ff" stroke="#63b8ff" points="196.44,-315.75 196.71,-305.16 189.89,-313.27 196.44,-315.75"/>
</a>
</g>
</g>
<!-- Node13 -->
<g id="Node000013" class="node">
<title>Node13</title>
<g id="a_Node000013"><a xlink:href="sitkKernel_8h.html" target="_top" xlink:title=" ">
<polygon fill="white" stroke="#666666" points="140,-195 66,-195 66,-176 140,-176 140,-195"/>
<text text-anchor="middle" x="103" y="-183" font-family="Helvetica,sans-Serif" font-size="10.00">sitkKernel.h</text>
</a>
</g>
</g>
<!-- Node1&#45;&gt;Node13 -->
<g id="edge14_Node000001_Node000013" class="edge">
<title>Node1&#45;&gt;Node13</title>
<g id="a_edge14_Node000001_Node000013"><a xlink:title=" ">
<path fill="none" stroke="#63b8ff" d="M151.68,-395.86C133.32,-373.55 85.59,-311.44 69,-250 66.8,-241.85 66.29,-239 69,-231 72.56,-220.47 79.72,-210.48 86.55,-202.63"/>
<polygon fill="#63b8ff" stroke="#63b8ff" points="89.13,-205.01 93.39,-195.31 84.01,-200.23 89.13,-205.01"/>
</a>
</g>
</g>
<!-- Node14 -->
<g id="Node000014" class="node">
<title>Node14</title>
<g id="a_Node000014"><a xlink:href="sitkTransform_8h.html" target="_top" xlink:title=" ">
<polygon fill="white" stroke="#666666" points="620,-360 528,-360 528,-341 620,-341 620,-360"/>
<text text-anchor="middle" x="574" y="-348" font-family="Helvetica,sans-Serif" font-size="10.00">sitkTransform.h</text>
</a>
</g>
</g>
<!-- Node1&#45;&gt;Node14 -->
<g id="edge17_Node000001_Node000014" class="edge">
<title>Node1&#45;&gt;Node14</title>
<g id="a_edge17_Node000001_Node000014"><a xlink:title=" ">
<path fill="none" stroke="#63b8ff" d="M209.06,-398.11C286.9,-388.17 436.44,-369.07 517.84,-358.67"/>
<polygon fill="#63b8ff" stroke="#63b8ff" points="518.43,-362.13 527.9,-357.39 517.54,-355.18 518.43,-362.13"/>
</a>
</g>
</g>
<!-- Node37 -->
<g id="Node000037" class="node">
<title>Node37</title>
<g id="a_Node000037"><a xlink:title=" ">
<polygon fill="#e0e0e0" stroke="#999999" points="676,-360 638,-360 638,-341 676,-341 676,-360"/>
<text text-anchor="middle" x="657" y="-348" font-family="Helvetica,sans-Serif" font-size="10.00">map</text>
</a>
</g>
</g>
<!-- Node1&#45;&gt;Node37 -->
<g id="edge63_Node000001_Node000037" class="edge">
<title>Node1&#45;&gt;Node37</title>
<g id="a_edge63_Node000001_Node000037"><a xlink:title=" ">
<path fill="none" stroke="#63b8ff" d="M209.21,-403.04C293.92,-399.87 470.58,-390.16 627.99,-359.8"/>
<polygon fill="#63b8ff" stroke="#63b8ff" points="628.71,-363.23 637.85,-357.87 627.36,-356.36 628.71,-363.23"/>
</a>
</g>
</g>
<!-- Node3 -->
<g id="Node000003" class="node">
<title>Node3</title>
<g id="a_Node000003"><a xlink:title=" ">
<polygon fill="#e0e0e0" stroke="#999999" points="1013.5,-19 960.5,-19 960.5,0 1013.5,0 1013.5,-19"/>
<text text-anchor="middle" x="987" y="-7" font-family="Helvetica,sans-Serif" font-size="10.00">stdint.h</text>
</a>
</g>
</g>
<!-- Node2&#45;&gt;Node3 -->
<g id="edge2_Node000002_Node000003" class="edge">
<title>Node2&#45;&gt;Node3</title>
<g id="a_edge2_Node000002_Node000003"><a xlink:title=" ">
<path fill="none" stroke="#63b8ff" d="M538.26,-61.5C614.02,-57.07 791.55,-44.85 950.39,-18.86"/>
<polygon fill="#63b8ff" stroke="#63b8ff" points="951.05,-22.3 960.34,-17.21 949.91,-15.4 951.05,-22.3"/>
</a>
</g>
</g>
<!-- Node4 -->
<g id="Node000004" class="node">
<title>Node4</title>
<g id="a_Node000004"><a xlink:title=" ">
<polygon fill="#e0e0e0" stroke="#999999" points="563,-19 507,-19 507,0 563,0 563,-19"/>
<text text-anchor="middle" x="535" y="-7" font-family="Helvetica,sans-Serif" font-size="10.00">stddef.h</text>
</a>
</g>
</g>
<!-- Node2&#45;&gt;Node4 -->
<g id="edge3_Node000002_Node000004" class="edge">
<title>Node2&#45;&gt;Node4</title>
<g id="a_edge3_Node000002_Node000004"><a xlink:title=" ">
<path fill="none" stroke="#63b8ff" d="M506.61,-54.75C511.32,-47.42 518.17,-36.73 523.97,-27.7"/>
<polygon fill="#63b8ff" stroke="#63b8ff" points="527.04,-29.4 529.49,-19.09 521.14,-25.62 527.04,-29.4"/>
</a>
</g>
</g>
<!-- Node5 -->
<g id="Node000005" class="node">
<title>Node5</title>
<g id="a_Node000005"><a xlink:title=" ">
<polygon fill="#e0e0e0" stroke="#999999" points="633,-19 581,-19 581,0 633,0 633,-19"/>
<text text-anchor="middle" x="607" y="-7" font-family="Helvetica,sans-Serif" font-size="10.00">cassert</text>
</a>
</g>
</g>
<!-- Node2&#45;&gt;Node5 -->
<g id="edge4_Node000002_Node000005" class="edge">
<title>Node2&#45;&gt;Node5</title>
<g id="a_edge4_Node000002_Node000005"><a xlink:title=" ">
<path fill="none" stroke="#63b8ff" d="M518.03,-54.98C534.93,-46.54 561.06,-33.47 580.64,-23.68"/>
<polygon fill="#63b8ff" stroke="#63b8ff" points="582.28,-26.77 589.66,-19.17 579.15,-20.51 582.28,-26.77"/>
</a>
</g>
</g>
<!-- Node6 -->
<g id="Node000006" class="node">
<title>Node6</title>
<g id="a_Node000006"><a xlink:title=" ">
<polygon fill="#e0e0e0" stroke="#999999" points="427,-19 371,-19 371,0 427,0 427,-19"/>
<text text-anchor="middle" x="399" y="-7" font-family="Helvetica,sans-Serif" font-size="10.00">sstream</text>
</a>
</g>
</g>
<!-- Node2&#45;&gt;Node6 -->
<g id="edge5_Node000002_Node000006" class="edge">
<title>Node2&#45;&gt;Node6</title>
<g id="a_edge5_Node000002_Node000006"><a xlink:title=" ">
<path fill="none" stroke="#63b8ff" d="M484.61,-54.98C468.43,-46.57 443.43,-33.59 424.62,-23.81"/>
<polygon fill="#63b8ff" stroke="#63b8ff" points="426.17,-20.68 415.69,-19.17 422.95,-26.89 426.17,-20.68"/>
</a>
</g>
</g>
<!-- Node7 -->
<g id="Node000007" class="node">
<title>Node7</title>
<g id="a_Node000007"><a xlink:title=" ">
<polygon fill="#e0e0e0" stroke="#999999" points="489,-19 445,-19 445,0 489,0 489,-19"/>
<text text-anchor="middle" x="467" y="-7" font-family="Helvetica,sans-Serif" font-size="10.00">limits</text>
</a>
</g>
</g>
<!-- Node2&#45;&gt;Node7 -->
<g id="edge6_Node000002_Node000007" class="edge">
<title>Node2&#45;&gt;Node7</title>
<g id="a_edge6_Node000002_Node000007"><a xlink:title=" ">
<path fill="none" stroke="#63b8ff" d="M495.39,-54.75C490.68,-47.42 483.83,-36.73 478.03,-27.7"/>
<polygon fill="#63b8ff" stroke="#63b8ff" points="480.86,-25.62 472.51,-19.09 474.96,-29.4 480.86,-25.62"/>
</a>
</g>
</g>
<!-- Node8 -->
<g id="Node000008" class="node">
<title>Node8</title>
<g id="a_Node000008"><a xlink:href="sitkConfigure_8h.html" target="_top" xlink:title=" ">
<polygon fill="white" stroke="#666666" points="942,-19 852,-19 852,0 942,0 942,-19"/>
<text text-anchor="middle" x="897" y="-7" font-family="Helvetica,sans-Serif" font-size="10.00">sitkConfigure.h</text>
</a>
</g>
</g>
<!-- Node2&#45;&gt;Node8 -->
<g id="edge7_Node000002_Node000008" class="edge">
<title>Node2&#45;&gt;Node8</title>
<g id="a_edge7_Node000002_Node000008"><a xlink:title=" ">
<path fill="none" stroke="#63b8ff" d="M538.25,-58.51C608.23,-49.15 759.64,-28.88 841.6,-17.91"/>
<polygon fill="#63b8ff" stroke="#63b8ff" points="842.28,-21.36 851.73,-16.56 841.35,-14.42 842.28,-21.36"/>
</a>
</g>
</g>
<!-- Node10 -->
<g id="Node000010" class="node">
<title>Node10</title>
<g id="a_Node000010"><a xlink:href="sitkCommon_8h.html" target="_top" xlink:title=" ">
<polygon fill="white" stroke="#666666" points="364,-134.5 276,-134.5 276,-115.5 364,-115.5 364,-134.5"/>
<text text-anchor="middle" x="320" y="-122.5" font-family="Helvetica,sans-Serif" font-size="10.00">sitkCommon.h</text>
</a>
</g>
</g>
<!-- Node9&#45;&gt;Node10 -->
<g id="edge9_Node000009_Node000010" class="edge">
<title>Node9&#45;&gt;Node10</title>
<g id="a_edge9_Node000009_Node000010"><a xlink:title=" ">
<path fill="none" stroke="#63b8ff" d="M134.61,-230.98C145.36,-217.64 167.86,-191.71 192,-176 218.6,-158.69 252.11,-145.87 278.17,-137.55"/>
<polygon fill="#63b8ff" stroke="#63b8ff" points="279.25,-140.88 287.76,-134.58 277.18,-134.19 279.25,-140.88"/>
</a>
</g>
</g>
<!-- Node11 -->
<g id="Node000011" class="node">
<title>Node11</title>
<g id="a_Node000011"><a xlink:title=" ">
<polygon fill="#e0e0e0" stroke="#999999" points="194.5,-134.5 137.5,-134.5 137.5,-115.5 194.5,-115.5 194.5,-134.5"/>
<text text-anchor="middle" x="166" y="-122.5" font-family="Helvetica,sans-Serif" font-size="10.00">ostream</text>
</a>
</g>
</g>
<!-- Node9&#45;&gt;Node11 -->
<g id="edge11_Node000009_Node000011" class="edge">
<title>Node9&#45;&gt;Node11</title>
<g id="a_edge11_Node000009_Node000011"><a xlink:title=" ">
<path fill="none" stroke="#63b8ff" d="M104.21,-230.83C78.11,-219.9 41.82,-199.66 57,-176 72.41,-151.97 102.58,-139.34 127.28,-132.79"/>
<polygon fill="#63b8ff" stroke="#63b8ff" points="128.23,-136.16 137.13,-130.41 126.58,-129.36 128.23,-136.16"/>
</a>
</g>
</g>
<!-- Node10&#45;&gt;Node2 -->
<g id="edge10_Node000010_Node000002" class="edge">
<title>Node10&#45;&gt;Node2</title>
<g id="a_edge10_Node000010_Node000002"><a xlink:title=" ">
<path fill="none" stroke="#63b8ff" d="M346.32,-115.49C377.55,-105.4 429.8,-88.51 464.82,-77.19"/>
<polygon fill="#63b8ff" stroke="#63b8ff" points="466.21,-80.42 474.65,-74.02 464.06,-73.76 466.21,-80.42"/>
</a>
</g>
</g>
<!-- Node12&#45;&gt;Node10 -->
<g id="edge13_Node000012_Node000010" class="edge">
<title>Node12&#45;&gt;Node10</title>
<g id="a_edge13_Node000012_Node000010"><a xlink:title=" ">
<path fill="none" stroke="#63b8ff" d="M203.86,-285.95C213.22,-265.71 238.51,-213.76 268,-176 277.85,-163.38 290.83,-150.9 301.36,-141.56"/>
<polygon fill="#63b8ff" stroke="#63b8ff" points="303.89,-144 309.17,-134.81 299.31,-138.7 303.89,-144"/>
</a>
</g>
</g>
<!-- Node13&#45;&gt;Node10 -->
<g id="edge15_Node000013_Node000010" class="edge">
<title>Node13&#45;&gt;Node10</title>
<g id="a_edge15_Node000013_Node000010"><a xlink:title=" ">
<path fill="none" stroke="#63b8ff" d="M134.55,-175.99C172.56,-165.75 236.52,-148.5 278.5,-137.19"/>
<polygon fill="#63b8ff" stroke="#63b8ff" points="279.66,-140.5 288.41,-134.52 277.84,-133.74 279.66,-140.5"/>
</a>
</g>
</g>
<!-- Node13&#45;&gt;Node11 -->
<g id="edge16_Node000013_Node000011" class="edge">
<title>Node13&#45;&gt;Node11</title>
<g id="a_edge16_Node000013_Node000011"><a xlink:title=" ">
<path fill="none" stroke="#63b8ff" d="M112.3,-175.87C121.97,-166.88 137.34,-152.61 149.16,-141.64"/>
<polygon fill="#63b8ff" stroke="#63b8ff" points="151.72,-144.04 156.67,-134.67 146.96,-138.91 151.72,-144.04"/>
</a>
</g>
</g>
<!-- Node14&#45;&gt;Node10 -->
<g id="edge18_Node000014_Node000010" class="edge">
<title>Node14&#45;&gt;Node10</title>
<g id="a_edge18_Node000014_Node000010"><a xlink:title=" ">
<path fill="none" stroke="#63b8ff" d="M540.48,-340.9C495.23,-327.84 414.25,-299.18 362,-250 332.17,-221.92 323.52,-171.91 321.02,-144.77"/>
<polygon fill="#63b8ff" stroke="#63b8ff" points="324.5,-144.39 320.28,-134.67 317.52,-144.9 324.5,-144.39"/>
</a>
</g>
</g>
<!-- Node15 -->
<g id="Node000015" class="node">
<title>Node15</title>
<g id="a_Node000015"><a xlink:href="sitkExceptionObject_8h.html" target="_top" xlink:title=" ">
<polygon fill="white" stroke="#666666" points="785.5,-195 662.5,-195 662.5,-176 785.5,-176 785.5,-195"/>
<text text-anchor="middle" x="724" y="-183" font-family="Helvetica,sans-Serif" font-size="10.00">sitkExceptionObject.h</text>
</a>
</g>
</g>
<!-- Node14&#45;&gt;Node15 -->
<g id="edge19_Node000014_Node000015" class="edge">
<title>Node14&#45;&gt;Node15</title>
<g id="a_edge19_Node000014_Node000015"><a xlink:title=" ">
<path fill="none" stroke="#63b8ff" d="M588.5,-340.91C601.72,-332.68 621.36,-319.4 636,-305 668.43,-273.09 698.2,-228.45 713.41,-204.08"/>
<polygon fill="#63b8ff" stroke="#63b8ff" points="716.58,-205.6 718.83,-195.25 710.61,-201.94 716.58,-205.6"/>
</a>
</g>
</g>
<!-- Node17 -->
<g id="Node000017" class="node">
<title>Node17</title>
<g id="a_Node000017"><a xlink:href="sitkImage_8h.html" target="_top" xlink:title=" ">
<polygon fill="white" stroke="#666666" points="611,-305 537,-305 537,-286 611,-286 611,-305"/>
<text text-anchor="middle" x="574" y="-293" font-family="Helvetica,sans-Serif" font-size="10.00">sitkImage.h</text>
</a>
</g>
</g>
<!-- Node14&#45;&gt;Node17 -->
<g id="edge23_Node000014_Node000017" class="edge">
<title>Node14&#45;&gt;Node17</title>
<g id="a_edge23_Node000014_Node000017"><a xlink:title=" ">
<path fill="none" stroke="#63b8ff" d="M574,-340.75C574,-333.8 574,-323.85 574,-315.13"/>
<polygon fill="#63b8ff" stroke="#63b8ff" points="577.5,-315.09 574,-305.09 570.5,-315.09 577.5,-315.09"/>
</a>
</g>
</g>
<!-- Node19 -->
<g id="Node000019" class="node">
<title>Node19</title>
<g id="a_Node000019"><a xlink:title=" ">
<polygon fill="#e0e0e0" stroke="#999999" points="644.5,-195 597.5,-195 597.5,-176 644.5,-176 644.5,-195"/>
<text text-anchor="middle" x="621" y="-183" font-family="Helvetica,sans-Serif" font-size="10.00">vector</text>
</a>
</g>
</g>
<!-- Node14&#45;&gt;Node19 -->
<g id="edge62_Node000014_Node000019" class="edge">
<title>Node14&#45;&gt;Node19</title>
<g id="a_edge62_Node000014_Node000019"><a xlink:title=" ">
<path fill="none" stroke="#63b8ff" d="M587.75,-340.81C598.77,-332.96 613.43,-320.32 620,-305 634.07,-272.19 629.53,-229.42 625.14,-205.26"/>
<polygon fill="#63b8ff" stroke="#63b8ff" points="628.54,-204.41 623.14,-195.3 621.67,-205.79 628.54,-204.41"/>
</a>
</g>
</g>
<!-- Node36 -->
<g id="Node000036" class="node">
<title>Node36</title>
<g id="a_Node000036"><a xlink:href="sitkPathType_8h.html" target="_top" xlink:title=" ">
<polygon fill="white" stroke="#666666" points="954.5,-305 867.5,-305 867.5,-286 954.5,-286 954.5,-305"/>
<text text-anchor="middle" x="911" y="-293" font-family="Helvetica,sans-Serif" font-size="10.00">sitkPathType.h</text>
</a>
</g>
</g>
<!-- Node14&#45;&gt;Node36 -->
<g id="edge60_Node000014_Node000036" class="edge">
<title>Node14&#45;&gt;Node36</title>
<g id="a_edge60_Node000014_Node000036"><a xlink:title=" ">
<path fill="none" stroke="#63b8ff" d="M620.15,-342.24C682.01,-332.51 791.59,-315.28 857.15,-304.97"/>
<polygon fill="#63b8ff" stroke="#63b8ff" points="857.94,-308.39 867.27,-303.38 856.85,-301.47 857.94,-308.39"/>
</a>
</g>
</g>
<!-- Node15&#45;&gt;Node2 -->
<g id="edge20_Node000015_Node000002" class="edge">
<title>Node15&#45;&gt;Node2</title>
<g id="a_edge20_Node000015_Node000002"><a xlink:title=" ">
<path fill="none" stroke="#63b8ff" d="M715.63,-175.96C700.31,-160.76 666.19,-128.86 632,-110 605.26,-95.25 572.78,-84.18 546.84,-76.77"/>
<polygon fill="#63b8ff" stroke="#63b8ff" points="547.46,-73.31 536.89,-74.01 545.59,-80.05 547.46,-73.31"/>
</a>
</g>
</g>
<!-- Node15&#45;&gt;Node10 -->
<g id="edge21_Node000015_Node000010" class="edge">
<title>Node15&#45;&gt;Node10</title>
<g id="a_edge21_Node000015_Node000010"><a xlink:title=" ">
<path fill="none" stroke="#63b8ff" d="M665.25,-175.99C587.19,-164.69 450.31,-144.87 374.46,-133.89"/>
<polygon fill="#63b8ff" stroke="#63b8ff" points="374.58,-130.37 364.18,-132.4 373.58,-137.29 374.58,-130.37"/>
</a>
</g>
</g>
<!-- Node16 -->
<g id="Node000016" class="node">
<title>Node16</title>
<g id="a_Node000016"><a xlink:title=" ">
<polygon fill="#e0e0e0" stroke="#999999" points="623,-134.5 565,-134.5 565,-115.5 623,-115.5 623,-134.5"/>
<text text-anchor="middle" x="594" y="-122.5" font-family="Helvetica,sans-Serif" font-size="10.00">memory</text>
</a>
</g>
</g>
<!-- Node15&#45;&gt;Node16 -->
<g id="edge22_Node000015_Node000016" class="edge">
<title>Node15&#45;&gt;Node16</title>
<g id="a_edge22_Node000015_Node000016"><a xlink:title=" ">
<path fill="none" stroke="#63b8ff" d="M705.1,-175.99C683.34,-166.2 647.38,-150.02 622.29,-138.73"/>
<polygon fill="#63b8ff" stroke="#63b8ff" points="623.48,-135.43 612.93,-134.52 620.61,-141.81 623.48,-135.43"/>
</a>
</g>
</g>
<!-- Node17&#45;&gt;Node9 -->
<g id="edge56_Node000017_Node000009" class="edge">
<title>Node17&#45;&gt;Node9</title>
<g id="a_edge56_Node000017_Node000009"><a xlink:title=" ">
<path fill="none" stroke="#63b8ff" d="M536.74,-290.07C459.66,-280.91 282.06,-259.81 188.38,-248.67"/>
<polygon fill="#63b8ff" stroke="#63b8ff" points="188.55,-245.17 178.2,-247.47 187.72,-252.12 188.55,-245.17"/>
</a>
</g>
</g>
<!-- Node17&#45;&gt;Node10 -->
<g id="edge24_Node000017_Node000010" class="edge">
<title>Node17&#45;&gt;Node10</title>
<g id="a_edge24_Node000017_Node000010"><a xlink:title=" ">
<path fill="none" stroke="#63b8ff" d="M536.98,-294.48C496.05,-292.62 430.09,-284.01 386,-250 350.87,-222.9 332.34,-171.69 324.56,-144.33"/>
<polygon fill="#63b8ff" stroke="#63b8ff" points="327.89,-143.26 321.94,-134.5 321.13,-145.06 327.89,-143.26"/>
</a>
</g>
</g>
<!-- Node17&#45;&gt;Node16 -->
<g id="edge58_Node000017_Node000016" class="edge">
<title>Node17&#45;&gt;Node16</title>
<g id="a_edge58_Node000017_Node000016"><a xlink:title=" ">
<path fill="none" stroke="#63b8ff" d="M575.02,-285.91C578.11,-259.89 587.42,-181.47 591.74,-145.01"/>
<polygon fill="#63b8ff" stroke="#63b8ff" points="595.26,-145.12 592.96,-134.77 588.3,-144.29 595.26,-145.12"/>
</a>
</g>
</g>
<!-- Node18 -->
<g id="Node000018" class="node">
<title>Node18</title>
<g id="a_Node000018"><a xlink:href="sitkTemplateFunctions_8h.html" target="_top" xlink:title=" ">
<polygon fill="white" stroke="#666666" points="529.5,-250 394.5,-250 394.5,-231 529.5,-231 529.5,-250"/>
<text text-anchor="middle" x="462" y="-238" font-family="Helvetica,sans-Serif" font-size="10.00">sitkTemplateFunctions.h</text>
</a>
</g>
</g>
<!-- Node17&#45;&gt;Node18 -->
<g id="edge25_Node000017_Node000018" class="edge">
<title>Node17&#45;&gt;Node18</title>
<g id="a_edge25_Node000017_Node000018"><a xlink:title=" ">
<path fill="none" stroke="#63b8ff" d="M556.01,-285.98C538.07,-277.5 510.28,-264.35 489.57,-254.54"/>
<polygon fill="#63b8ff" stroke="#63b8ff" points="490.86,-251.28 480.32,-250.17 487.86,-257.61 490.86,-251.28"/>
</a>
</g>
</g>
<!-- Node17&#45;&gt;Node19 -->
<g id="edge57_Node000017_Node000019" class="edge">
<title>Node17&#45;&gt;Node19</title>
<g id="a_edge57_Node000017_Node000019"><a xlink:title=" ">
<path fill="none" stroke="#63b8ff" d="M577.85,-285.66C585.53,-268.01 602.9,-228.09 613.11,-204.64"/>
<polygon fill="#63b8ff" stroke="#63b8ff" points="616.45,-205.72 617.23,-195.16 610.03,-202.93 616.45,-205.72"/>
</a>
</g>
</g>
<!-- Node22 -->
<g id="Node000022" class="node">
<title>Node22</title>
<g id="a_Node000022"><a xlink:href="sitkDetail_8h.html" target="_top" xlink:title=" ">
<polygon fill="white" stroke="#666666" points="1301.5,-195 1228.5,-195 1228.5,-176 1301.5,-176 1301.5,-195"/>
<text text-anchor="middle" x="1265" y="-183" font-family="Helvetica,sans-Serif" font-size="10.00">sitkDetail.h</text>
</a>
</g>
</g>
<!-- Node17&#45;&gt;Node22 -->
<g id="edge33_Node000017_Node000022" class="edge">
<title>Node17&#45;&gt;Node22</title>
<g id="a_edge33_Node000017_Node000022"><a xlink:title=" ">
<path fill="none" stroke="#63b8ff" d="M611.17,-291.41C680.57,-285.39 834.5,-270.81 963,-250 1054.8,-235.13 1160.95,-211.23 1219.79,-197.38"/>
<polygon fill="#63b8ff" stroke="#63b8ff" points="1220.94,-200.71 1229.86,-195 1219.33,-193.9 1220.94,-200.71"/>
</a>
</g>
</g>
<!-- Node32 -->
<g id="Node000032" class="node">
<title>Node32</title>
<g id="a_Node000032"><a xlink:href="sitkPixelIDTokens_8h.html" target="_top" xlink:title=" ">
<polygon fill="white" stroke="#666666" points="954,-250 844,-250 844,-231 954,-231 954,-250"/>
<text text-anchor="middle" x="899" y="-238" font-family="Helvetica,sans-Serif" font-size="10.00">sitkPixelIDTokens.h</text>
</a>
</g>
</g>
<!-- Node17&#45;&gt;Node32 -->
<g id="edge48_Node000017_Node000032" class="edge">
<title>Node17&#45;&gt;Node32</title>
<g id="a_edge48_Node000017_Node000032"><a xlink:title=" ">
<path fill="none" stroke="#63b8ff" d="M611.28,-288.42C666.31,-279.45 769.96,-262.54 836.67,-251.66"/>
<polygon fill="#63b8ff" stroke="#63b8ff" points="837.34,-255.1 846.64,-250.04 836.21,-248.19 837.34,-255.1"/>
</a>
</g>
</g>
<!-- Node35 -->
<g id="Node000035" class="node">
<title>Node35</title>
<g id="a_Node000035"><a xlink:title=" ">
<polygon fill="#e0e0e0" stroke="#999999" points="872.5,-195 803.5,-195 803.5,-176 872.5,-176 872.5,-195"/>
<text text-anchor="middle" x="838" y="-183" font-family="Helvetica,sans-Serif" font-size="10.00">type_traits</text>
</a>
</g>
</g>
<!-- Node17&#45;&gt;Node35 -->
<g id="edge59_Node000017_Node000035" class="edge">
<title>Node17&#45;&gt;Node35</title>
<g id="a_edge59_Node000017_Node000035"><a xlink:title=" ">
<path fill="none" stroke="#63b8ff" d="M595.16,-285.84C641.81,-266.76 753.64,-221.01 807.71,-198.89"/>
<polygon fill="#63b8ff" stroke="#63b8ff" points="809.18,-202.07 817.11,-195.05 806.53,-195.59 809.18,-202.07"/>
</a>
</g>
</g>
<!-- Node18&#45;&gt;Node2 -->
<g id="edge26_Node000018_Node000002" class="edge">
<title>Node18&#45;&gt;Node2</title>
<g id="a_edge26_Node000018_Node000002"><a xlink:title=" ">
<path fill="none" stroke="#63b8ff" d="M448.22,-230.82C437.18,-222.99 422.51,-210.35 416,-195 412.7,-187.23 413.28,-183.99 416,-176 429.28,-136.96 462.53,-100.94 483.29,-81.21"/>
<polygon fill="#63b8ff" stroke="#63b8ff" points="485.86,-83.61 490.82,-74.25 481.1,-78.47 485.86,-83.61"/>
</a>
</g>
</g>
<!-- Node18&#45;&gt;Node10 -->
<g id="edge27_Node000018_Node000010" class="edge">
<title>Node18&#45;&gt;Node10</title>
<g id="a_edge27_Node000018_Node000010"><a xlink:title=" ">
<path fill="none" stroke="#63b8ff" d="M442.47,-230.89C425.55,-222.93 400.89,-210.06 382,-195 362.81,-179.7 344.5,-158.17 332.82,-143.24"/>
<polygon fill="#63b8ff" stroke="#63b8ff" points="335.31,-140.74 326.46,-134.92 329.75,-144.99 335.31,-140.74"/>
</a>
</g>
</g>
<!-- Node18&#45;&gt;Node11 -->
<g id="edge30_Node000018_Node000011" class="edge">
<title>Node18&#45;&gt;Node11</title>
<g id="a_edge30_Node000018_Node000011"><a xlink:title=" ">
<path fill="none" stroke="#63b8ff" d="M439.75,-230.97C387.79,-211.04 258.29,-161.39 197.92,-138.24"/>
<polygon fill="#63b8ff" stroke="#63b8ff" points="199.1,-134.94 188.51,-134.63 196.59,-141.48 199.1,-134.94"/>
</a>
</g>
</g>
<!-- Node18&#45;&gt;Node15 -->
<g id="edge28_Node000018_Node000015" class="edge">
<title>Node18&#45;&gt;Node15</title>
<g id="a_edge28_Node000018_Node000015"><a xlink:title=" ">
<path fill="none" stroke="#63b8ff" d="M504.09,-230.98C549.7,-221.76 622.52,-207.03 671.75,-197.07"/>
<polygon fill="#63b8ff" stroke="#63b8ff" points="672.47,-200.5 681.58,-195.08 671.08,-193.63 672.47,-200.5"/>
</a>
</g>
</g>
<!-- Node18&#45;&gt;Node19 -->
<g id="edge29_Node000018_Node000019" class="edge">
<title>Node18&#45;&gt;Node19</title>
<g id="a_edge29_Node000018_Node000019"><a xlink:title=" ">
<path fill="none" stroke="#63b8ff" d="M487.55,-230.98C514.76,-221.91 557.93,-207.52 587.77,-197.58"/>
<polygon fill="#63b8ff" stroke="#63b8ff" points="588.95,-200.87 597.33,-194.39 586.74,-194.23 588.95,-200.87"/>
</a>
</g>
</g>
<!-- Node20 -->
<g id="Node000020" class="node">
<title>Node20</title>
<g id="a_Node000020"><a xlink:title=" ">
<polygon fill="#e0e0e0" stroke="#999999" points="477.5,-195 424.5,-195 424.5,-176 477.5,-176 477.5,-195"/>
<text text-anchor="middle" x="451" y="-183" font-family="Helvetica,sans-Serif" font-size="10.00">iterator</text>
</a>
</g>
</g>
<!-- Node18&#45;&gt;Node20 -->
<g id="edge31_Node000018_Node000020" class="edge">
<title>Node18&#45;&gt;Node20</title>
<g id="a_edge31_Node000018_Node000020"><a xlink:title=" ">
<path fill="none" stroke="#63b8ff" d="M460.18,-230.75C458.74,-223.8 456.68,-213.85 454.87,-205.13"/>
<polygon fill="#63b8ff" stroke="#63b8ff" points="458.24,-204.17 452.78,-195.09 451.39,-205.59 458.24,-204.17"/>
</a>
</g>
</g>
<!-- Node21 -->
<g id="Node000021" class="node">
<title>Node21</title>
<g id="a_Node000021"><a xlink:title=" ">
<polygon fill="#e0e0e0" stroke="#999999" points="540.5,-195 495.5,-195 495.5,-176 540.5,-176 540.5,-195"/>
<text text-anchor="middle" x="518" y="-183" font-family="Helvetica,sans-Serif" font-size="10.00">utility</text>
</a>
</g>
</g>
<!-- Node18&#45;&gt;Node21 -->
<g id="edge32_Node000018_Node000021" class="edge">
<title>Node18&#45;&gt;Node21</title>
<g id="a_edge32_Node000018_Node000021"><a xlink:title=" ">
<path fill="none" stroke="#63b8ff" d="M471,-230.98C479.19,-223.23 491.51,-211.58 501.47,-202.14"/>
<polygon fill="#63b8ff" stroke="#63b8ff" points="503.98,-204.59 508.84,-195.17 499.17,-199.5 503.98,-204.59"/>
</a>
</g>
</g>
<!-- Node23 -->
<g id="Node000023" class="node">
<title>Node23</title>
<g id="a_Node000023"><a xlink:href="sitkMemberFunctionFactoryBase_8h.html" target="_top" xlink:title=" ">
<polygon fill="white" stroke="#666666" points="1341,-140 1189,-140 1189,-110 1341,-110 1341,-140"/>
<text text-anchor="start" x="1197" y="-128" font-family="Helvetica,sans-Serif" font-size="10.00">sitkMemberFunctionFactory</text>
<text text-anchor="middle" x="1265" y="-117" font-family="Helvetica,sans-Serif" font-size="10.00">Base.h</text>
</a>
</g>
</g>
<!-- Node22&#45;&gt;Node23 -->
<g id="edge34_Node000022_Node000023" class="edge">
<title>Node22&#45;&gt;Node23</title>
<g id="a_edge34_Node000022_Node000023"><a xlink:title=" ">
<path fill="none" stroke="#63b8ff" d="M1265,-175.87C1265,-169.11 1265,-159.35 1265,-150.26"/>
<polygon fill="#63b8ff" stroke="#63b8ff" points="1268.5,-150.11 1265,-140.11 1261.5,-150.11 1268.5,-150.11"/>
</a>
</g>
</g>
<!-- Node28 -->
<g id="Node000028" class="node">
<title>Node28</title>
<g id="a_Node000028"><a xlink:title=" ">
<polygon fill="#e0e0e0" stroke="#999999" points="1552.5,-74 1413.5,-74 1413.5,-55 1552.5,-55 1552.5,-74"/>
<text text-anchor="middle" x="1483" y="-62" font-family="Helvetica,sans-Serif" font-size="10.00">Ancillary/FunctionTraits.h</text>
</a>
</g>
</g>
<!-- Node22&#45;&gt;Node28 -->
<g id="edge47_Node000022_Node000028" class="edge">
<title>Node22&#45;&gt;Node28</title>
<g id="a_edge47_Node000022_Node000028"><a xlink:title=" ">
<path fill="none" stroke="#63b8ff" d="M1281.69,-175.94C1298.88,-167.08 1326.42,-152.77 1350,-140 1388.34,-119.23 1432.42,-94.33 1458.97,-79.23"/>
<polygon fill="#63b8ff" stroke="#63b8ff" points="1460.96,-82.12 1467.92,-74.13 1457.5,-76.04 1460.96,-82.12"/>
</a>
</g>
</g>
<!-- Node23&#45;&gt;Node8 -->
<g id="edge35_Node000023_Node000008" class="edge">
<title>Node23&#45;&gt;Node8</title>
<g id="a_edge35_Node000023_Node000008"><a xlink:title=" ">
<path fill="none" stroke="#63b8ff" d="M1188.9,-121.98C1127.76,-117.83 1041,-106.13 972,-74 947.73,-62.7 925.03,-41.39 911.1,-26.59"/>
<polygon fill="#63b8ff" stroke="#63b8ff" points="913.63,-24.17 904.3,-19.14 908.46,-28.89 913.63,-24.17"/>
</a>
</g>
</g>
<!-- Node24 -->
<g id="Node000024" class="node">
<title>Node24</title>
<g id="a_Node000024"><a xlink:href="sitkPixelIDTypeLists_8h.html" target="_top" xlink:title=" ">
<polygon fill="white" stroke="#666666" points="1103,-74 981,-74 981,-55 1103,-55 1103,-74"/>
<text text-anchor="middle" x="1042" y="-62" font-family="Helvetica,sans-Serif" font-size="10.00">sitkPixelIDTypeLists.h</text>
</a>
</g>
</g>
<!-- Node23&#45;&gt;Node24 -->
<g id="edge36_Node000023_Node000024" class="edge">
<title>Node23&#45;&gt;Node24</title>
<g id="a_edge36_Node000023_Node000024"><a xlink:title=" ">
<path fill="none" stroke="#63b8ff" d="M1211.59,-109.99C1172.6,-99.76 1120.47,-86.09 1084.35,-76.61"/>
<polygon fill="#63b8ff" stroke="#63b8ff" points="1085.17,-73.21 1074.61,-74.05 1083.39,-79.98 1085.17,-73.21"/>
</a>
</g>
</g>
<!-- Node26 -->
<g id="Node000026" class="node">
<title>Node26</title>
<g id="a_Node000026"><a xlink:title=" ">
<polygon fill="#e0e0e0" stroke="#999999" points="1388.5,-19 1269.5,-19 1269.5,0 1388.5,0 1388.5,-19"/>
<text text-anchor="middle" x="1329" y="-7" font-family="Helvetica,sans-Serif" font-size="10.00">Ancillary/type_list2.h</text>
</a>
</g>
</g>
<!-- Node23&#45;&gt;Node26 -->
<g id="edge42_Node000023_Node000026" class="edge">
<title>Node23&#45;&gt;Node26</title>
<g id="a_edge42_Node000023_Node000026"><a xlink:title=" ">
<path fill="none" stroke="#63b8ff" d="M1319.25,-109.9C1337.3,-102.34 1355.47,-90.96 1366,-74 1376.01,-57.87 1361.89,-39.04 1348.3,-26.09"/>
<polygon fill="#63b8ff" stroke="#63b8ff" points="1350.35,-23.24 1340.55,-19.22 1345.71,-28.47 1350.35,-23.24"/>
</a>
</g>
</g>
<!-- Node23&#45;&gt;Node28 -->
<g id="edge43_Node000023_Node000028" class="edge">
<title>Node23&#45;&gt;Node28</title>
<g id="a_edge43_Node000023_Node000028"><a xlink:title=" ">
<path fill="none" stroke="#63b8ff" d="M1317.22,-109.99C1355.16,-99.8 1405.85,-86.2 1441.15,-76.73"/>
<polygon fill="#63b8ff" stroke="#63b8ff" points="1442.37,-80.03 1451.12,-74.05 1440.56,-73.27 1442.37,-80.03"/>
</a>
</g>
</g>
<!-- Node29 -->
<g id="Node000029" class="node">
<title>Node29</title>
<g id="a_Node000029"><a xlink:title=" ">
<polygon fill="#e0e0e0" stroke="#999999" points="1214.5,-74 1121.5,-74 1121.5,-55 1214.5,-55 1214.5,-74"/>
<text text-anchor="middle" x="1168" y="-62" font-family="Helvetica,sans-Serif" font-size="10.00">unordered_map</text>
</a>
</g>
</g>
<!-- Node23&#45;&gt;Node29 -->
<g id="edge44_Node000023_Node000029" class="edge">
<title>Node23&#45;&gt;Node29</title>
<g id="a_edge44_Node000023_Node000029"><a xlink:title=" ">
<path fill="none" stroke="#63b8ff" d="M1241.52,-109.84C1226.2,-100.6 1206.29,-88.59 1191.05,-79.4"/>
<polygon fill="#63b8ff" stroke="#63b8ff" points="1192.62,-76.26 1182.25,-74.09 1189.01,-82.26 1192.62,-76.26"/>
</a>
</g>
</g>
<!-- Node30 -->
<g id="Node000030" class="node">
<title>Node30</title>
<g id="a_Node000030"><a xlink:title=" ">
<polygon fill="#e0e0e0" stroke="#999999" points="1297.5,-74 1232.5,-74 1232.5,-55 1297.5,-55 1297.5,-74"/>
<text text-anchor="middle" x="1265" y="-62" font-family="Helvetica,sans-Serif" font-size="10.00">functional</text>
</a>
</g>
</g>
<!-- Node23&#45;&gt;Node30 -->
<g id="edge45_Node000023_Node000030" class="edge">
<title>Node23&#45;&gt;Node30</title>
<g id="a_edge45_Node000023_Node000030"><a xlink:title=" ">
<path fill="none" stroke="#63b8ff" d="M1265,-109.84C1265,-102.21 1265,-92.7 1265,-84.45"/>
<polygon fill="#63b8ff" stroke="#63b8ff" points="1268.5,-84.27 1265,-74.27 1261.5,-84.27 1268.5,-84.27"/>
</a>
</g>
</g>
<!-- Node31 -->
<g id="Node000031" class="node">
<title>Node31</title>
<g id="a_Node000031"><a xlink:title=" ">
<polygon fill="#e0e0e0" stroke="#999999" points="1356.5,-74 1315.5,-74 1315.5,-55 1356.5,-55 1356.5,-74"/>
<text text-anchor="middle" x="1336" y="-62" font-family="Helvetica,sans-Serif" font-size="10.00">tuple</text>
</a>
</g>
</g>
<!-- Node23&#45;&gt;Node31 -->
<g id="edge46_Node000023_Node000031" class="edge">
<title>Node23&#45;&gt;Node31</title>
<g id="a_edge46_Node000023_Node000031"><a xlink:title=" ">
<path fill="none" stroke="#63b8ff" d="M1282.19,-109.84C1292.81,-101.09 1306.44,-89.85 1317.33,-80.88"/>
<polygon fill="#63b8ff" stroke="#63b8ff" points="1319.87,-83.33 1325.36,-74.27 1315.42,-77.92 1319.87,-83.33"/>
</a>
</g>
</g>
<!-- Node24&#45;&gt;Node3 -->
<g id="edge37_Node000024_Node000003" class="edge">
<title>Node24&#45;&gt;Node3</title>
<g id="a_edge37_Node000024_Node000003"><a xlink:title=" ">
<path fill="none" stroke="#63b8ff" d="M1032.92,-54.75C1024.91,-47.03 1013.04,-35.6 1003.38,-26.28"/>
<polygon fill="#63b8ff" stroke="#63b8ff" points="1005.54,-23.51 995.91,-19.09 1000.69,-28.55 1005.54,-23.51"/>
</a>
</g>
</g>
<!-- Node24&#45;&gt;Node8 -->
<g id="edge38_Node000024_Node000008" class="edge">
<title>Node24&#45;&gt;Node8</title>
<g id="a_edge38_Node000024_Node000008"><a xlink:title=" ">
<path fill="none" stroke="#63b8ff" d="M1018.7,-54.98C994.75,-46.23 957.22,-32.51 930.17,-22.62"/>
<polygon fill="#63b8ff" stroke="#63b8ff" points="931.31,-19.32 920.72,-19.17 928.91,-25.89 931.31,-19.32"/>
</a>
</g>
</g>
<!-- Node25 -->
<g id="Node000025" class="node">
<title>Node25</title>
<g id="a_Node000025"><a xlink:href="sitkPixelIDTypes_8h.html" target="_top" xlink:title=" ">
<polygon fill="white" stroke="#666666" points="1213.5,-19 1108.5,-19 1108.5,0 1213.5,0 1213.5,-19"/>
<text text-anchor="middle" x="1161" y="-7" font-family="Helvetica,sans-Serif" font-size="10.00">sitkPixelIDTypes.h</text>
</a>
</g>
</g>
<!-- Node24&#45;&gt;Node25 -->
<g id="edge39_Node000024_Node000025" class="edge">
<title>Node24&#45;&gt;Node25</title>
<g id="a_edge39_Node000024_Node000025"><a xlink:title=" ">
<path fill="none" stroke="#63b8ff" d="M1061.12,-54.98C1080.35,-46.42 1110.23,-33.11 1132.31,-23.28"/>
<polygon fill="#63b8ff" stroke="#63b8ff" points="1133.82,-26.44 1141.53,-19.17 1130.97,-20.04 1133.82,-26.44"/>
</a>
</g>
</g>
<!-- Node24&#45;&gt;Node26 -->
<g id="edge40_Node000024_Node000026" class="edge">
<title>Node24&#45;&gt;Node26</title>
<g id="a_edge40_Node000024_Node000026"><a xlink:title=" ">
<path fill="none" stroke="#63b8ff" d="M1088.11,-54.98C1138.28,-45.72 1218.51,-30.9 1272.44,-20.94"/>
<polygon fill="#63b8ff" stroke="#63b8ff" points="1273.33,-24.34 1282.53,-19.08 1272.06,-17.46 1273.33,-24.34"/>
</a>
</g>
</g>
<!-- Node27 -->
<g id="Node000027" class="node">
<title>Node27</title>
<g id="a_Node000027"><a xlink:title=" ">
<polygon fill="#e0e0e0" stroke="#999999" points="1090.5,-19 1031.5,-19 1031.5,0 1090.5,0 1090.5,-19"/>
<text text-anchor="middle" x="1061" y="-7" font-family="Helvetica,sans-Serif" font-size="10.00">complex</text>
</a>
</g>
</g>
<!-- Node24&#45;&gt;Node27 -->
<g id="edge41_Node000024_Node000027" class="edge">
<title>Node24&#45;&gt;Node27</title>
<g id="a_edge41_Node000024_Node000027"><a xlink:title=" ">
<path fill="none" stroke="#63b8ff" d="M1045.14,-54.75C1047.68,-47.65 1051.36,-37.4 1054.53,-28.56"/>
<polygon fill="#63b8ff" stroke="#63b8ff" points="1057.84,-29.68 1057.92,-19.09 1051.25,-27.32 1057.84,-29.68"/>
</a>
</g>
</g>
<!-- Node32&#45;&gt;Node8 -->
<g id="edge49_Node000032_Node000008" class="edge">
<title>Node32&#45;&gt;Node8</title>
<g id="a_edge49_Node000032_Node000008"><a xlink:title=" ">
<path fill="none" stroke="#63b8ff" d="M953.93,-230.96C975.11,-224.69 997.26,-213.83 1010,-195 1031.17,-163.71 1029.86,-142.14 1010,-110 991.19,-79.57 964.65,-97.87 938,-74 923.69,-61.18 912.33,-42.24 905.23,-28.39"/>
<polygon fill="#63b8ff" stroke="#63b8ff" points="908.36,-26.81 900.84,-19.36 902.07,-29.88 908.36,-26.81"/>
</a>
</g>
</g>
<!-- Node33 -->
<g id="Node000033" class="node">
<title>Node33</title>
<g id="a_Node000033"><a xlink:href="sitkPixelIDValues_8h.html" target="_top" xlink:title=" ">
<polygon fill="white" stroke="#666666" points="1001,-195 891,-195 891,-176 1001,-176 1001,-195"/>
<text text-anchor="middle" x="946" y="-183" font-family="Helvetica,sans-Serif" font-size="10.00">sitkPixelIDValues.h</text>
</a>
</g>
</g>
<!-- Node32&#45;&gt;Node33 -->
<g id="edge50_Node000032_Node000033" class="edge">
<title>Node32&#45;&gt;Node33</title>
<g id="a_edge50_Node000032_Node000033"><a xlink:title=" ">
<path fill="none" stroke="#63b8ff" d="M906.76,-230.75C913.47,-223.18 923.34,-212.05 931.51,-202.84"/>
<polygon fill="#63b8ff" stroke="#63b8ff" points="934.37,-204.89 938.38,-195.09 929.13,-200.25 934.37,-204.89"/>
</a>
</g>
</g>
<!-- Node32&#45;&gt;Node35 -->
<g id="edge55_Node000032_Node000035" class="edge">
<title>Node32&#45;&gt;Node35</title>
<g id="a_edge55_Node000032_Node000035"><a xlink:title=" ">
<path fill="none" stroke="#63b8ff" d="M889.2,-230.98C880.18,-223.15 866.59,-211.34 855.68,-201.86"/>
<polygon fill="#63b8ff" stroke="#63b8ff" points="857.82,-199.09 847.98,-195.17 853.23,-204.37 857.82,-199.09"/>
</a>
</g>
</g>
<!-- Node33&#45;&gt;Node10 -->
<g id="edge51_Node000033_Node000010" class="edge">
<title>Node33&#45;&gt;Node10</title>
<g id="a_edge51_Node000033_Node000010"><a xlink:title=" ">
<path fill="none" stroke="#63b8ff" d="M890.86,-177.02C887.86,-176.66 884.9,-176.32 882,-176 696.05,-155.39 474.75,-137.7 374.34,-130.05"/>
<polygon fill="#63b8ff" stroke="#63b8ff" points="374.38,-126.54 364.15,-129.27 373.85,-133.52 374.38,-126.54"/>
</a>
</g>
</g>
<!-- Node33&#45;&gt;Node11 -->
<g id="edge54_Node000033_Node000011" class="edge">
<title>Node33&#45;&gt;Node11</title>
<g id="a_edge54_Node000033_Node000011"><a xlink:title=" ">
<path fill="none" stroke="#63b8ff" d="M890.87,-176.92C887.87,-176.59 884.9,-176.28 882,-176 609.44,-149.96 539.48,-166.82 267,-140 246.34,-137.97 223.41,-134.86 204.63,-132.09"/>
<polygon fill="#63b8ff" stroke="#63b8ff" points="205.07,-128.61 194.66,-130.59 204.03,-135.54 205.07,-128.61"/>
</a>
</g>
</g>
<!-- Node33&#45;&gt;Node24 -->
<g id="edge52_Node000033_Node000024" class="edge">
<title>Node33&#45;&gt;Node24</title>
<g id="a_edge52_Node000033_Node000024"><a xlink:title=" ">
<path fill="none" stroke="#63b8ff" d="M943.54,-175.84C939.86,-161 934.72,-130.38 948,-110 958.06,-94.57 975.02,-84.38 991.79,-77.69"/>
<polygon fill="#63b8ff" stroke="#63b8ff" points="993.37,-80.84 1001.59,-74.15 990.99,-74.26 993.37,-80.84"/>
</a>
</g>
</g>
<!-- Node34 -->
<g id="Node000034" class="node">
<title>Node34</title>
<g id="a_Node000034"><a xlink:title=" ">
<polygon fill="#e0e0e0" stroke="#999999" points="1001,-134.5 957,-134.5 957,-115.5 1001,-115.5 1001,-134.5"/>
<text text-anchor="middle" x="979" y="-122.5" font-family="Helvetica,sans-Serif" font-size="10.00">string</text>
</a>
</g>
</g>
<!-- Node33&#45;&gt;Node34 -->
<g id="edge53_Node000033_Node000034" class="edge">
<title>Node33&#45;&gt;Node34</title>
<g id="a_edge53_Node000033_Node000034"><a xlink:title=" ">
<path fill="none" stroke="#63b8ff" d="M950.87,-175.87C955.65,-167.4 963.07,-154.24 969.09,-143.57"/>
<polygon fill="#63b8ff" stroke="#63b8ff" points="972.25,-145.1 974.11,-134.67 966.15,-141.66 972.25,-145.1"/>
</a>
</g>
</g>
<!-- Node36&#45;&gt;Node34 -->
<g id="edge61_Node000036_Node000034" class="edge">
<title>Node36&#45;&gt;Node34</title>
<g id="a_edge61_Node000036_Node000034"><a xlink:title=" ">
<path fill="none" stroke="#63b8ff" d="M925.64,-285.79C949.16,-270.78 994.31,-237.52 1010,-195 1016.78,-176.64 1005.15,-156.26 994.26,-142.45"/>
<polygon fill="#63b8ff" stroke="#63b8ff" points="996.88,-140.13 987.74,-134.77 991.54,-144.66 996.88,-140.13"/>
</a>
</g>
</g>
</g>
</svg>
