<?xml version="1.0" encoding="UTF-8" standalone="no"?>
<!DOCTYPE svg PUBLIC "-//W3C//DTD SVG 1.1//EN"
 "http://www.w3.org/Graphics/SVG/1.1/DTD/svg11.dtd">
<!-- Generated by graphviz version 2.43.0 (0)
 -->
<!-- Title: sitkImageViewer.h Pages: 1 -->
<!--zoomable 533 -->

<svg id="main" version="1.1" xmlns="http://www.w3.org/2000/svg" xmlns:xlink="http://www.w3.org/1999/xlink" xml:space="preserve" onload="init(evt)">

<style type="text/css"><![CDATA[
.node, .edge {opacity: 0.7;}
.node.selected, .edge.selected {opacity: 1;}
.edge:hover path { stroke: red; }
.edge:hover polygon { stroke: red; fill: red; }
]]></style>

<defs>
  <circle id="rim" cx="0" cy="0" r="7"/>
  <circle id="rim2" cx="0" cy="0" r="3.5"/>
  <g id="zoomPlus">
    <use xlink:href="#rim" fill="#404040"><set attributeName="fill" to="#808080" begin="zoomplus.mouseover" end="zoomplus.mouseout"/></use>
    <path d="M-4,0h8M0,-4v8" fill="none" stroke="white" stroke-width="1.5" pointer-events="none"/>
  </g>
  <g id="zoomMin">
    <use xlink:href="#rim" fill="#404040"><set attributeName="fill" to="#808080" begin="zoomminus.mouseover" end="zoomminus.mouseout"/></use>
    <path d="M-4,0h8" fill="none" stroke="white" stroke-width="1.5" pointer-events="none"/>
  </g>
  <g id="arrowUp" transform="translate(30 24)">
    <use xlink:href="#rim"/>
    <path pointer-events="none" fill="none" stroke="white" stroke-width="1.5" d="M0,-3.0v7 M-2.5,-0.5L0,-3.0L2.5,-0.5"/>
  </g>
  <g id="arrowRight" transform="rotate(90) translate(36 -43)">
    <use xlink:href="#rim"/>
    <path pointer-events="none" fill="none" stroke="white" stroke-width="1.5" d="M0,-3.0v7 M-2.5,-0.5L0,-3.0L2.5,-0.5"/>
  </g>
  <g id="arrowDown" transform="rotate(180) translate(-30 -48)">
    <use xlink:href="#rim"/>
    <path pointer-events="none" fill="none" stroke="white" stroke-width="1.5" d="M0,-3.0v7 M-2.5,-0.5L0,-3.0L2.5,-0.5"/>
  </g>
  <g id="arrowLeft" transform="rotate(270) translate(-36 17)">
    <use xlink:href="#rim"/>
    <path pointer-events="none" fill="none" stroke="white" stroke-width="1.5" d="M0,-3.0v7 M-2.5,-0.5L0,-3.0L2.5,-0.5"/>
  </g>
  <g id="resetDef">
    <use xlink:href="#rim2" fill="#404040"><set attributeName="fill" to="#808080" begin="reset.mouseover" end="reset.mouseout"/></use>
  </g>
</defs>
<script type="application/ecmascript">
var viewWidth = 1773;
var viewHeight = 533;
var sectionId = 'dynsection-0';
</script>
<script type="application/ecmascript" xlink:href="svg.min.js"/>
<svg id="graph" class="graph">
<g id="viewport">
<title>sitkImageViewer.h</title>
<!-- Node1 -->
<g id="Node000001" class="node">
<title>Node1</title>
<g id="a_Node000001"><a xlink:title=" ">
<polygon fill="#999999" stroke="#666666" points="1375,-525 1268,-525 1268,-506 1375,-506 1375,-525"/>
<text text-anchor="middle" x="1321.5" y="-513" font-family="Helvetica,sans-Serif" font-size="10.00">sitkImageViewer.h</text>
</a>
</g>
</g>
<!-- Node2 -->
<g id="Node000002" class="node">
<title>Node2</title>
<g id="a_Node000002"><a xlink:href="sitkImage_8h.html" target="_top" xlink:title=" ">
<polygon fill="white" stroke="#666666" points="1196.5,-360 1122.5,-360 1122.5,-341 1196.5,-341 1196.5,-360"/>
<text text-anchor="middle" x="1159.5" y="-348" font-family="Helvetica,sans-Serif" font-size="10.00">sitkImage.h</text>
</a>
</g>
</g>
<!-- Node1&#45;&gt;Node2 -->
<g id="edge1_Node000001_Node000002" class="edge">
<title>Node1&#45;&gt;Node2</title>
<g id="a_edge1_Node000001_Node000002"><a xlink:title=" ">
<path fill="none" stroke="#63b8ff" d="M1293.1,-505.91C1255.74,-492.95 1191.44,-464.47 1162.5,-415 1154.57,-401.46 1154.53,-383.37 1156.05,-369.96"/>
<polygon fill="#63b8ff" stroke="#63b8ff" points="1159.52,-370.42 1157.56,-360 1152.6,-369.37 1159.52,-370.42"/>
</a>
</g>
</g>
<!-- Node34 -->
<g id="Node000034" class="node">
<title>Node34</title>
<g id="a_Node000034"><a xlink:href="sitkPathType_8h.html" target="_top" xlink:title=" ">
<polygon fill="white" stroke="#666666" points="953,-360 866,-360 866,-341 953,-341 953,-360"/>
<text text-anchor="middle" x="909.5" y="-348" font-family="Helvetica,sans-Serif" font-size="10.00">sitkPathType.h</text>
</a>
</g>
</g>
<!-- Node1&#45;&gt;Node34 -->
<g id="edge54_Node000001_Node000034" class="edge">
<title>Node1&#45;&gt;Node34</title>
<g id="a_edge54_Node000001_Node000034"><a xlink:title=" ">
<path fill="none" stroke="#63b8ff" d="M1294.92,-505.99C1268.51,-497.39 1226.95,-483.5 1191.5,-470 1097.75,-434.3 988.8,-386.76 938.14,-364.3"/>
<polygon fill="#63b8ff" stroke="#63b8ff" points="939.36,-361.01 928.8,-360.15 936.52,-367.41 939.36,-361.01"/>
</a>
</g>
</g>
<!-- Node35 -->
<g id="Node000035" class="node">
<title>Node35</title>
<g id="a_Node000035"><a xlink:href="sitkIO_8h.html" target="_top" xlink:title=" ">
<polygon fill="white" stroke="#666666" points="1721.5,-470 1667.5,-470 1667.5,-451 1721.5,-451 1721.5,-470"/>
<text text-anchor="middle" x="1694.5" y="-458" font-family="Helvetica,sans-Serif" font-size="10.00">sitkIO.h</text>
</a>
</g>
</g>
<!-- Node1&#45;&gt;Node35 -->
<g id="edge56_Node000001_Node000035" class="edge">
<title>Node1&#45;&gt;Node35</title>
<g id="a_edge56_Node000001_Node000035"><a xlink:title=" ">
<path fill="none" stroke="#63b8ff" d="M1375.34,-506.85C1452.13,-495.94 1591.14,-476.19 1657.42,-466.77"/>
<polygon fill="#63b8ff" stroke="#63b8ff" points="1658,-470.22 1667.41,-465.35 1657.02,-463.29 1658,-470.22"/>
</a>
</g>
</g>
<!-- Node36 -->
<g id="Node000036" class="node">
<title>Node36</title>
<g id="a_Node000036"><a xlink:href="sitkProcessObject_8h.html" target="_top" xlink:title=" ">
<polygon fill="white" stroke="#666666" points="1579,-470 1466,-470 1466,-451 1579,-451 1579,-470"/>
<text text-anchor="middle" x="1522.5" y="-458" font-family="Helvetica,sans-Serif" font-size="10.00">sitkProcessObject.h</text>
</a>
</g>
</g>
<!-- Node1&#45;&gt;Node36 -->
<g id="edge58_Node000001_Node000036" class="edge">
<title>Node1&#45;&gt;Node36</title>
<g id="a_edge58_Node000001_Node000036"><a xlink:title=" ">
<path fill="none" stroke="#63b8ff" d="M1353.79,-505.98C1388.12,-496.93 1442.56,-482.58 1480.27,-472.64"/>
<polygon fill="#63b8ff" stroke="#63b8ff" points="1481.18,-476.02 1489.95,-470.08 1479.39,-469.25 1481.18,-476.02"/>
</a>
</g>
</g>
<!-- Node3 -->
<g id="Node000003" class="node">
<title>Node3</title>
<g id="a_Node000003"><a xlink:href="sitkCommon_8h.html" target="_top" xlink:title=" ">
<polygon fill="white" stroke="#666666" points="1203.5,-129 1115.5,-129 1115.5,-110 1203.5,-110 1203.5,-129"/>
<text text-anchor="middle" x="1159.5" y="-117" font-family="Helvetica,sans-Serif" font-size="10.00">sitkCommon.h</text>
</a>
</g>
</g>
<!-- Node2&#45;&gt;Node3 -->
<g id="edge2_Node000002_Node000003" class="edge">
<title>Node2&#45;&gt;Node3</title>
<g id="a_edge2_Node000002_Node000003"><a xlink:title=" ">
<path fill="none" stroke="#63b8ff" d="M1196.6,-343.43C1272.85,-330.12 1442.83,-295.86 1476.5,-250 1484.39,-239.25 1477.34,-233.31 1476.5,-220 1474.94,-195.41 1486.78,-182.56 1469.5,-165 1434.87,-129.81 1293.38,-122.15 1214.06,-120.68"/>
<polygon fill="#63b8ff" stroke="#63b8ff" points="1213.82,-117.17 1203.77,-120.51 1213.71,-124.17 1213.82,-117.17"/>
</a>
</g>
</g>
<!-- Node11 -->
<g id="Node000011" class="node">
<title>Node11</title>
<g id="a_Node000011"><a xlink:href="sitkTemplateFunctions_8h.html" target="_top" xlink:title=" ">
<polygon fill="white" stroke="#666666" points="1468,-244.5 1333,-244.5 1333,-225.5 1468,-225.5 1468,-244.5"/>
<text text-anchor="middle" x="1400.5" y="-232.5" font-family="Helvetica,sans-Serif" font-size="10.00">sitkTemplateFunctions.h</text>
</a>
</g>
</g>
<!-- Node2&#45;&gt;Node11 -->
<g id="edge10_Node000002_Node000011" class="edge">
<title>Node2&#45;&gt;Node11</title>
<g id="a_edge10_Node000002_Node000011"><a xlink:title=" ">
<path fill="none" stroke="#63b8ff" d="M1177.61,-340.97C1219.49,-321.25 1323.19,-272.41 1372.97,-248.96"/>
<polygon fill="#63b8ff" stroke="#63b8ff" points="1374.62,-252.06 1382.18,-244.63 1371.64,-245.72 1374.62,-252.06"/>
</a>
</g>
</g>
<!-- Node13 -->
<g id="Node000013" class="node">
<title>Node13</title>
<g id="a_Node000013"><a xlink:title=" ">
<polygon fill="#e0e0e0" stroke="#999999" points="874.5,-129 816.5,-129 816.5,-110 874.5,-110 874.5,-129"/>
<text text-anchor="middle" x="845.5" y="-117" font-family="Helvetica,sans-Serif" font-size="10.00">memory</text>
</a>
</g>
</g>
<!-- Node2&#45;&gt;Node13 -->
<g id="edge52_Node000002_Node000013" class="edge">
<title>Node2&#45;&gt;Node13</title>
<g id="a_edge52_Node000002_Node000013"><a xlink:title=" ">
<path fill="none" stroke="#63b8ff" d="M1122.27,-350.06C1047.73,-349.2 878.55,-337.06 776.5,-250 744.14,-222.39 708.56,-200.16 732.5,-165 741.23,-152.18 777.26,-139.39 806.32,-130.84"/>
<polygon fill="#63b8ff" stroke="#63b8ff" points="807.6,-134.11 816.25,-128 805.68,-127.38 807.6,-134.11"/>
</a>
</g>
</g>
<!-- Node14 -->
<g id="Node000014" class="node">
<title>Node14</title>
<g id="a_Node000014"><a xlink:title=" ">
<polygon fill="#e0e0e0" stroke="#999999" points="1235,-184 1188,-184 1188,-165 1235,-165 1235,-184"/>
<text text-anchor="middle" x="1211.5" y="-172" font-family="Helvetica,sans-Serif" font-size="10.00">vector</text>
</a>
</g>
</g>
<!-- Node2&#45;&gt;Node14 -->
<g id="edge51_Node000002_Node000014" class="edge">
<title>Node2&#45;&gt;Node14</title>
<g id="a_edge51_Node000002_Node000014"><a xlink:title=" ">
<path fill="none" stroke="#63b8ff" d="M1162.15,-340.63C1170.25,-313.52 1194.82,-231.32 1205.93,-194.13"/>
<polygon fill="#63b8ff" stroke="#63b8ff" points="1209.41,-194.73 1208.92,-184.14 1202.7,-192.72 1209.41,-194.73"/>
</a>
</g>
</g>
<!-- Node18 -->
<g id="Node000018" class="node">
<title>Node18</title>
<g id="a_Node000018"><a xlink:href="sitkDetail_8h.html" target="_top" xlink:title=" ">
<polygon fill="white" stroke="#666666" points="372,-305 299,-305 299,-286 372,-286 372,-305"/>
<text text-anchor="middle" x="335.5" y="-293" font-family="Helvetica,sans-Serif" font-size="10.00">sitkDetail.h</text>
</a>
</g>
</g>
<!-- Node2&#45;&gt;Node18 -->
<g id="edge21_Node000002_Node000018" class="edge">
<title>Node2&#45;&gt;Node18</title>
<g id="a_edge21_Node000002_Node000018"><a xlink:title=" ">
<path fill="none" stroke="#63b8ff" d="M1122.49,-347.12C988.85,-338.52 531.24,-309.09 382.57,-299.53"/>
<polygon fill="#63b8ff" stroke="#63b8ff" points="382.61,-296.02 372.4,-298.87 382.16,-303.01 382.61,-296.02"/>
</a>
</g>
</g>
<!-- Node29 -->
<g id="Node000029" class="node">
<title>Node29</title>
<g id="a_Node000029"><a xlink:href="sitkPixelIDTokens_8h.html" target="_top" xlink:title=" ">
<polygon fill="white" stroke="#666666" points="1015.5,-305 905.5,-305 905.5,-286 1015.5,-286 1015.5,-305"/>
<text text-anchor="middle" x="960.5" y="-293" font-family="Helvetica,sans-Serif" font-size="10.00">sitkPixelIDTokens.h</text>
</a>
</g>
</g>
<!-- Node2&#45;&gt;Node29 -->
<g id="edge40_Node000002_Node000029" class="edge">
<title>Node2&#45;&gt;Node29</title>
<g id="a_edge40_Node000002_Node000029"><a xlink:title=" ">
<path fill="none" stroke="#63b8ff" d="M1127.53,-340.98C1093.68,-331.97 1040.1,-317.7 1002.79,-307.76"/>
<polygon fill="#63b8ff" stroke="#63b8ff" points="1003.29,-304.27 992.72,-305.08 1001.49,-311.04 1003.29,-304.27"/>
</a>
</g>
</g>
<!-- Node32 -->
<g id="Node000032" class="node">
<title>Node32</title>
<g id="a_Node000032"><a xlink:title=" ">
<polygon fill="#e0e0e0" stroke="#999999" points="1071,-244.5 1002,-244.5 1002,-225.5 1071,-225.5 1071,-244.5"/>
<text text-anchor="middle" x="1036.5" y="-232.5" font-family="Helvetica,sans-Serif" font-size="10.00">type_traits</text>
</a>
</g>
</g>
<!-- Node2&#45;&gt;Node32 -->
<g id="edge53_Node000002_Node000032" class="edge">
<title>Node2&#45;&gt;Node32</title>
<g id="a_edge53_Node000002_Node000032"><a xlink:title=" ">
<path fill="none" stroke="#63b8ff" d="M1150.26,-340.97C1129.69,-321.99 1079.88,-276.03 1053.52,-251.71"/>
<polygon fill="#63b8ff" stroke="#63b8ff" points="1055.58,-248.84 1045.85,-244.63 1050.83,-253.98 1055.58,-248.84"/>
</a>
</g>
</g>
<!-- Node33 -->
<g id="Node000033" class="node">
<title>Node33</title>
<g id="a_Node000033"><a xlink:href="sitkInterpolator_8h.html" target="_top" xlink:title=" ">
<polygon fill="white" stroke="#666666" points="1314.5,-244.5 1214.5,-244.5 1214.5,-225.5 1314.5,-225.5 1314.5,-244.5"/>
<text text-anchor="middle" x="1264.5" y="-232.5" font-family="Helvetica,sans-Serif" font-size="10.00">sitkInterpolator.h</text>
</a>
</g>
</g>
<!-- Node2&#45;&gt;Node33 -->
<g id="edge48_Node000002_Node000033" class="edge">
<title>Node2&#45;&gt;Node33</title>
<g id="a_edge48_Node000002_Node000033"><a xlink:title=" ">
<path fill="none" stroke="#63b8ff" d="M1167.39,-340.97C1184.87,-322.07 1227.1,-276.43 1249.68,-252.02"/>
<polygon fill="#63b8ff" stroke="#63b8ff" points="1252.29,-254.35 1256.52,-244.63 1247.16,-249.59 1252.29,-254.35"/>
</a>
</g>
</g>
<!-- Node4 -->
<g id="Node000004" class="node">
<title>Node4</title>
<g id="a_Node000004"><a xlink:href="sitkMacro_8h.html" target="_top" xlink:title=" ">
<polygon fill="white" stroke="#666666" points="940.5,-74 866.5,-74 866.5,-55 940.5,-55 940.5,-74"/>
<text text-anchor="middle" x="903.5" y="-62" font-family="Helvetica,sans-Serif" font-size="10.00">sitkMacro.h</text>
</a>
</g>
</g>
<!-- Node3&#45;&gt;Node4 -->
<g id="edge3_Node000003_Node000004" class="edge">
<title>Node3&#45;&gt;Node4</title>
<g id="a_edge3_Node000003_Node000004"><a xlink:title=" ">
<path fill="none" stroke="#63b8ff" d="M1118.37,-109.98C1072.58,-100.51 998.71,-85.21 950.63,-75.26"/>
<polygon fill="#63b8ff" stroke="#63b8ff" points="951.28,-71.82 940.78,-73.22 949.87,-78.67 951.28,-71.82"/>
</a>
</g>
</g>
<!-- Node5 -->
<g id="Node000005" class="node">
<title>Node5</title>
<g id="a_Node000005"><a xlink:title=" ">
<polygon fill="#e0e0e0" stroke="#999999" points="752,-19 699,-19 699,0 752,0 752,-19"/>
<text text-anchor="middle" x="725.5" y="-7" font-family="Helvetica,sans-Serif" font-size="10.00">stdint.h</text>
</a>
</g>
</g>
<!-- Node4&#45;&gt;Node5 -->
<g id="edge4_Node000004_Node000005" class="edge">
<title>Node4&#45;&gt;Node5</title>
<g id="a_edge4_Node000004_Node000005"><a xlink:title=" ">
<path fill="none" stroke="#63b8ff" d="M874.9,-54.98C844.26,-45.86 795.55,-31.36 762.13,-21.41"/>
<polygon fill="#63b8ff" stroke="#63b8ff" points="762.86,-17.97 752.28,-18.47 760.87,-24.68 762.86,-17.97"/>
</a>
</g>
</g>
<!-- Node6 -->
<g id="Node000006" class="node">
<title>Node6</title>
<g id="a_Node000006"><a xlink:title=" ">
<polygon fill="#e0e0e0" stroke="#999999" points="970.5,-19 914.5,-19 914.5,0 970.5,0 970.5,-19"/>
<text text-anchor="middle" x="942.5" y="-7" font-family="Helvetica,sans-Serif" font-size="10.00">stddef.h</text>
</a>
</g>
</g>
<!-- Node4&#45;&gt;Node6 -->
<g id="edge5_Node000004_Node000006" class="edge">
<title>Node4&#45;&gt;Node6</title>
<g id="a_edge5_Node000004_Node000006"><a xlink:title=" ">
<path fill="none" stroke="#63b8ff" d="M909.94,-54.75C915.39,-47.34 923.36,-36.5 930.06,-27.41"/>
<polygon fill="#63b8ff" stroke="#63b8ff" points="933.07,-29.22 936.18,-19.09 927.43,-25.07 933.07,-29.22"/>
</a>
</g>
</g>
<!-- Node7 -->
<g id="Node000007" class="node">
<title>Node7</title>
<g id="a_Node000007"><a xlink:title=" ">
<polygon fill="#e0e0e0" stroke="#999999" points="1040.5,-19 988.5,-19 988.5,0 1040.5,0 1040.5,-19"/>
<text text-anchor="middle" x="1014.5" y="-7" font-family="Helvetica,sans-Serif" font-size="10.00">cassert</text>
</a>
</g>
</g>
<!-- Node4&#45;&gt;Node7 -->
<g id="edge6_Node000004_Node000007" class="edge">
<title>Node4&#45;&gt;Node7</title>
<g id="a_edge6_Node000004_Node000007"><a xlink:title=" ">
<path fill="none" stroke="#63b8ff" d="M921.33,-54.98C939.11,-46.5 966.65,-33.35 987.18,-23.54"/>
<polygon fill="#63b8ff" stroke="#63b8ff" points="988.83,-26.64 996.34,-19.17 985.81,-20.32 988.83,-26.64"/>
</a>
</g>
</g>
<!-- Node8 -->
<g id="Node000008" class="node">
<title>Node8</title>
<g id="a_Node000008"><a xlink:title=" ">
<polygon fill="#e0e0e0" stroke="#999999" points="834.5,-19 778.5,-19 778.5,0 834.5,0 834.5,-19"/>
<text text-anchor="middle" x="806.5" y="-7" font-family="Helvetica,sans-Serif" font-size="10.00">sstream</text>
</a>
</g>
</g>
<!-- Node4&#45;&gt;Node8 -->
<g id="edge7_Node000004_Node000008" class="edge">
<title>Node4&#45;&gt;Node8</title>
<g id="a_edge7_Node000004_Node000008"><a xlink:title=" ">
<path fill="none" stroke="#63b8ff" d="M887.92,-54.98C872.73,-46.69 849.4,-33.94 831.6,-24.22"/>
<polygon fill="#63b8ff" stroke="#63b8ff" points="832.82,-20.89 822.37,-19.17 829.47,-27.04 832.82,-20.89"/>
</a>
</g>
</g>
<!-- Node9 -->
<g id="Node000009" class="node">
<title>Node9</title>
<g id="a_Node000009"><a xlink:title=" ">
<polygon fill="#e0e0e0" stroke="#999999" points="896.5,-19 852.5,-19 852.5,0 896.5,0 896.5,-19"/>
<text text-anchor="middle" x="874.5" y="-7" font-family="Helvetica,sans-Serif" font-size="10.00">limits</text>
</a>
</g>
</g>
<!-- Node4&#45;&gt;Node9 -->
<g id="edge8_Node000004_Node000009" class="edge">
<title>Node4&#45;&gt;Node9</title>
<g id="a_edge8_Node000004_Node000009"><a xlink:title=" ">
<path fill="none" stroke="#63b8ff" d="M898.71,-54.75C894.74,-47.49 888.97,-36.95 884.07,-27.98"/>
<polygon fill="#63b8ff" stroke="#63b8ff" points="887.07,-26.18 879.2,-19.09 880.93,-29.54 887.07,-26.18"/>
</a>
</g>
</g>
<!-- Node10 -->
<g id="Node000010" class="node">
<title>Node10</title>
<g id="a_Node000010"><a xlink:href="sitkConfigure_8h.html" target="_top" xlink:title=" ">
<polygon fill="white" stroke="#666666" points="666.5,-19 576.5,-19 576.5,0 666.5,0 666.5,-19"/>
<text text-anchor="middle" x="621.5" y="-7" font-family="Helvetica,sans-Serif" font-size="10.00">sitkConfigure.h</text>
</a>
</g>
</g>
<!-- Node4&#45;&gt;Node10 -->
<g id="edge9_Node000004_Node000010" class="edge">
<title>Node4&#45;&gt;Node10</title>
<g id="a_edge9_Node000004_Node000010"><a xlink:title=" ">
<path fill="none" stroke="#63b8ff" d="M866.34,-56.52C817.91,-47.41 732.79,-31.42 676.77,-20.89"/>
<polygon fill="#63b8ff" stroke="#63b8ff" points="677.14,-17.4 666.67,-18.99 675.85,-24.28 677.14,-17.4"/>
</a>
</g>
</g>
<!-- Node11&#45;&gt;Node3 -->
<g id="edge12_Node000011_Node000003" class="edge">
<title>Node11&#45;&gt;Node3</title>
<g id="a_edge12_Node000011_Node000003"><a xlink:title=" ">
<path fill="none" stroke="#63b8ff" d="M1415.14,-225.45C1436.13,-212.13 1470.39,-185.82 1452.5,-165 1422.35,-129.92 1290.03,-122.17 1213.92,-120.66"/>
<polygon fill="#63b8ff" stroke="#63b8ff" points="1213.63,-117.15 1203.57,-120.48 1213.51,-124.15 1213.63,-117.15"/>
</a>
</g>
</g>
<!-- Node11&#45;&gt;Node4 -->
<g id="edge11_Node000011_Node000004" class="edge">
<title>Node11&#45;&gt;Node4</title>
<g id="a_edge11_Node000011_Node000004"><a xlink:title=" ">
<path fill="none" stroke="#63b8ff" d="M1420.65,-225.43C1447.24,-212.92 1488.57,-188.58 1469.5,-165 1404.66,-84.81 1075.46,-69.25 951.13,-66.23"/>
<polygon fill="#63b8ff" stroke="#63b8ff" points="950.87,-62.72 940.79,-65.99 950.71,-69.72 950.87,-62.72"/>
</a>
</g>
</g>
<!-- Node12 -->
<g id="Node000012" class="node">
<title>Node12</title>
<g id="a_Node000012"><a xlink:href="sitkExceptionObject_8h.html" target="_top" xlink:title=" ">
<polygon fill="white" stroke="#666666" points="965,-184 842,-184 842,-165 965,-165 965,-184"/>
<text text-anchor="middle" x="903.5" y="-172" font-family="Helvetica,sans-Serif" font-size="10.00">sitkExceptionObject.h</text>
</a>
</g>
</g>
<!-- Node11&#45;&gt;Node12 -->
<g id="edge13_Node000011_Node000012" class="edge">
<title>Node11&#45;&gt;Node12</title>
<g id="a_edge13_Node000011_Node000012"><a xlink:title=" ">
<path fill="none" stroke="#63b8ff" d="M1356.62,-225.44C1345.81,-223.49 1334.26,-221.55 1323.5,-220 1201.75,-202.51 1059.21,-188.83 975.41,-181.48"/>
<polygon fill="#63b8ff" stroke="#63b8ff" points="975.5,-177.98 965.24,-180.6 974.9,-184.95 975.5,-177.98"/>
</a>
</g>
</g>
<!-- Node11&#45;&gt;Node14 -->
<g id="edge17_Node000011_Node000014" class="edge">
<title>Node11&#45;&gt;Node14</title>
<g id="a_edge17_Node000011_Node000014"><a xlink:title=" ">
<path fill="none" stroke="#63b8ff" d="M1373.02,-225.49C1339.05,-214.98 1281.27,-197.1 1244.81,-185.81"/>
<polygon fill="#63b8ff" stroke="#63b8ff" points="1245.72,-182.43 1235.13,-182.81 1243.65,-189.12 1245.72,-182.43"/>
</a>
</g>
</g>
<!-- Node15 -->
<g id="Node000015" class="node">
<title>Node15</title>
<g id="a_Node000015"><a xlink:title=" ">
<polygon fill="#e0e0e0" stroke="#999999" points="1310,-184 1253,-184 1253,-165 1310,-165 1310,-184"/>
<text text-anchor="middle" x="1281.5" y="-172" font-family="Helvetica,sans-Serif" font-size="10.00">ostream</text>
</a>
</g>
</g>
<!-- Node11&#45;&gt;Node15 -->
<g id="edge18_Node000011_Node000015" class="edge">
<title>Node11&#45;&gt;Node15</title>
<g id="a_edge18_Node000011_Node000015"><a xlink:title=" ">
<path fill="none" stroke="#63b8ff" d="M1383.2,-225.49C1363.45,-215.79 1330.95,-199.81 1308.01,-188.53"/>
<polygon fill="#63b8ff" stroke="#63b8ff" points="1309.34,-185.29 1298.82,-184.02 1306.25,-191.57 1309.34,-185.29"/>
</a>
</g>
</g>
<!-- Node16 -->
<g id="Node000016" class="node">
<title>Node16</title>
<g id="a_Node000016"><a xlink:title=" ">
<polygon fill="#e0e0e0" stroke="#999999" points="1381,-184 1328,-184 1328,-165 1381,-165 1381,-184"/>
<text text-anchor="middle" x="1354.5" y="-172" font-family="Helvetica,sans-Serif" font-size="10.00">iterator</text>
</a>
</g>
</g>
<!-- Node11&#45;&gt;Node16 -->
<g id="edge19_Node000011_Node000016" class="edge">
<title>Node11&#45;&gt;Node16</title>
<g id="a_edge19_Node000011_Node000016"><a xlink:title=" ">
<path fill="none" stroke="#63b8ff" d="M1393.71,-225.37C1386.85,-216.64 1376.07,-202.93 1367.55,-192.09"/>
<polygon fill="#63b8ff" stroke="#63b8ff" points="1370.25,-189.86 1361.32,-184.17 1364.75,-194.19 1370.25,-189.86"/>
</a>
</g>
</g>
<!-- Node17 -->
<g id="Node000017" class="node">
<title>Node17</title>
<g id="a_Node000017"><a xlink:title=" ">
<polygon fill="#e0e0e0" stroke="#999999" points="1444,-184 1399,-184 1399,-165 1444,-165 1444,-184"/>
<text text-anchor="middle" x="1421.5" y="-172" font-family="Helvetica,sans-Serif" font-size="10.00">utility</text>
</a>
</g>
</g>
<!-- Node11&#45;&gt;Node17 -->
<g id="edge20_Node000011_Node000017" class="edge">
<title>Node11&#45;&gt;Node17</title>
<g id="a_edge20_Node000011_Node000017"><a xlink:title=" ">
<path fill="none" stroke="#63b8ff" d="M1403.6,-225.37C1406.58,-217.07 1411.17,-204.28 1414.96,-193.72"/>
<polygon fill="#63b8ff" stroke="#63b8ff" points="1418.3,-194.76 1418.39,-184.17 1411.72,-192.4 1418.3,-194.76"/>
</a>
</g>
</g>
<!-- Node12&#45;&gt;Node3 -->
<g id="edge15_Node000012_Node000003" class="edge">
<title>Node12&#45;&gt;Node3</title>
<g id="a_edge15_Node000012_Node000003"><a xlink:title=" ">
<path fill="none" stroke="#63b8ff" d="M944.63,-164.98C989.1,-155.78 1060.05,-141.09 1108.15,-131.13"/>
<polygon fill="#63b8ff" stroke="#63b8ff" points="1108.96,-134.54 1118.05,-129.08 1107.54,-127.68 1108.96,-134.54"/>
</a>
</g>
</g>
<!-- Node12&#45;&gt;Node4 -->
<g id="edge14_Node000012_Node000004" class="edge">
<title>Node12&#45;&gt;Node4</title>
<g id="a_edge14_Node000012_Node000004"><a xlink:title=" ">
<path fill="none" stroke="#63b8ff" d="M903.5,-164.66C903.5,-147.17 903.5,-107.8 903.5,-84.27"/>
<polygon fill="#63b8ff" stroke="#63b8ff" points="907,-84.16 903.5,-74.16 900,-84.16 907,-84.16"/>
</a>
</g>
</g>
<!-- Node12&#45;&gt;Node13 -->
<g id="edge16_Node000012_Node000013" class="edge">
<title>Node12&#45;&gt;Node13</title>
<g id="a_edge16_Node000012_Node000013"><a xlink:title=" ">
<path fill="none" stroke="#63b8ff" d="M894.18,-164.98C885.69,-157.23 872.94,-145.58 862.62,-136.14"/>
<polygon fill="#63b8ff" stroke="#63b8ff" points="864.73,-133.33 854.99,-129.17 860.01,-138.5 864.73,-133.33"/>
</a>
</g>
</g>
<!-- Node19 -->
<g id="Node000019" class="node">
<title>Node19</title>
<g id="a_Node000019"><a xlink:href="sitkMemberFunctionFactoryBase_8h.html" target="_top" xlink:title=" ">
<polygon fill="white" stroke="#666666" points="411.5,-250 259.5,-250 259.5,-220 411.5,-220 411.5,-250"/>
<text text-anchor="start" x="267.5" y="-238" font-family="Helvetica,sans-Serif" font-size="10.00">sitkMemberFunctionFactory</text>
<text text-anchor="middle" x="335.5" y="-227" font-family="Helvetica,sans-Serif" font-size="10.00">Base.h</text>
</a>
</g>
</g>
<!-- Node18&#45;&gt;Node19 -->
<g id="edge22_Node000018_Node000019" class="edge">
<title>Node18&#45;&gt;Node19</title>
<g id="a_edge22_Node000018_Node000019"><a xlink:title=" ">
<path fill="none" stroke="#63b8ff" d="M335.5,-285.87C335.5,-279.11 335.5,-269.35 335.5,-260.26"/>
<polygon fill="#63b8ff" stroke="#63b8ff" points="339,-260.11 335.5,-250.11 332,-260.11 339,-260.11"/>
</a>
</g>
</g>
<!-- Node25 -->
<g id="Node000025" class="node">
<title>Node25</title>
<g id="a_Node000025"><a xlink:title=" ">
<polygon fill="#e0e0e0" stroke="#999999" points="139,-184 0,-184 0,-165 139,-165 139,-184"/>
<text text-anchor="middle" x="69.5" y="-172" font-family="Helvetica,sans-Serif" font-size="10.00">Ancillary/FunctionTraits.h</text>
</a>
</g>
</g>
<!-- Node18&#45;&gt;Node25 -->
<g id="edge39_Node000018_Node000025" class="edge">
<title>Node18&#45;&gt;Node25</title>
<g id="a_edge39_Node000018_Node000025"><a xlink:title=" ">
<path fill="none" stroke="#63b8ff" d="M316.37,-285.94C270.28,-265.32 152.87,-212.8 98.25,-188.36"/>
<polygon fill="#63b8ff" stroke="#63b8ff" points="99.37,-185.03 88.81,-184.14 96.51,-191.42 99.37,-185.03"/>
</a>
</g>
</g>
<!-- Node19&#45;&gt;Node4 -->
<g id="edge31_Node000019_Node000004" class="edge">
<title>Node19&#45;&gt;Node4</title>
<g id="a_edge31_Node000019_Node000004"><a xlink:title=" ">
<path fill="none" stroke="#63b8ff" d="M411.55,-228.64C477.54,-222.47 575,-209.67 656.5,-184 674.32,-178.39 790.63,-118.04 807.5,-110 830.34,-99.11 856.39,-87.06 875.59,-78.25"/>
<polygon fill="#63b8ff" stroke="#63b8ff" points="877.05,-81.43 884.68,-74.08 874.13,-75.06 877.05,-81.43"/>
</a>
</g>
</g>
<!-- Node19&#45;&gt;Node10 -->
<g id="edge23_Node000019_Node000010" class="edge">
<title>Node19&#45;&gt;Node10</title>
<g id="a_edge23_Node000019_Node000010"><a xlink:title=" ">
<path fill="none" stroke="#63b8ff" d="M274.27,-219.99C254.78,-212.5 235.04,-201.14 222.5,-184 203.02,-157.37 196.14,-135.97 216.5,-110 259.42,-55.26 466.08,-26.64 566.5,-15.77"/>
<polygon fill="#63b8ff" stroke="#63b8ff" points="566.88,-19.24 576.46,-14.71 566.14,-12.28 566.88,-19.24"/>
</a>
</g>
</g>
<!-- Node20 -->
<g id="Node000020" class="node">
<title>Node20</title>
<g id="a_Node000020"><a xlink:href="sitkPixelIDTypes_8h.html" target="_top" xlink:title=" ">
<polygon fill="white" stroke="#666666" points="331,-129 226,-129 226,-110 331,-110 331,-129"/>
<text text-anchor="middle" x="278.5" y="-117" font-family="Helvetica,sans-Serif" font-size="10.00">sitkPixelIDTypes.h</text>
</a>
</g>
</g>
<!-- Node19&#45;&gt;Node20 -->
<g id="edge24_Node000019_Node000020" class="edge">
<title>Node19&#45;&gt;Node20</title>
<g id="a_edge24_Node000019_Node000020"><a xlink:title=" ">
<path fill="none" stroke="#63b8ff" d="M277.25,-219.96C258.77,-212.46 240.34,-201.1 229.5,-184 218.22,-166.21 237.38,-147.28 254.94,-134.76"/>
<polygon fill="#63b8ff" stroke="#63b8ff" points="256.93,-137.64 263.29,-129.16 253.03,-131.82 256.93,-137.64"/>
</a>
</g>
</g>
<!-- Node21 -->
<g id="Node000021" class="node">
<title>Node21</title>
<g id="a_Node000021"><a xlink:href="sitkPixelIDTypeLists_8h.html" target="_top" xlink:title=" ">
<polygon fill="white" stroke="#666666" points="647.5,-184 525.5,-184 525.5,-165 647.5,-165 647.5,-184"/>
<text text-anchor="middle" x="586.5" y="-172" font-family="Helvetica,sans-Serif" font-size="10.00">sitkPixelIDTypeLists.h</text>
</a>
</g>
</g>
<!-- Node19&#45;&gt;Node21 -->
<g id="edge25_Node000019_Node000021" class="edge">
<title>Node19&#45;&gt;Node21</title>
<g id="a_edge25_Node000019_Node000021"><a xlink:title=" ">
<path fill="none" stroke="#63b8ff" d="M395.62,-219.99C439.88,-209.67 499.18,-195.85 539.87,-186.37"/>
<polygon fill="#63b8ff" stroke="#63b8ff" points="540.86,-189.73 549.8,-184.05 539.27,-182.91 540.86,-189.73"/>
</a>
</g>
</g>
<!-- Node22 -->
<g id="Node000022" class="node">
<title>Node22</title>
<g id="a_Node000022"><a xlink:title=" ">
<polygon fill="#e0e0e0" stroke="#999999" points="528,-129 409,-129 409,-110 528,-110 528,-129"/>
<text text-anchor="middle" x="468.5" y="-117" font-family="Helvetica,sans-Serif" font-size="10.00">Ancillary/type_list2.h</text>
</a>
</g>
</g>
<!-- Node19&#45;&gt;Node22 -->
<g id="edge34_Node000019_Node000022" class="edge">
<title>Node19&#45;&gt;Node22</title>
<g id="a_edge34_Node000019_Node000022"><a xlink:title=" ">
<path fill="none" stroke="#63b8ff" d="M302.19,-219.95C275.67,-206.76 245.58,-185.97 262.5,-165 279.53,-143.9 345.88,-132.32 398.74,-126.3"/>
<polygon fill="#63b8ff" stroke="#63b8ff" points="399.21,-129.77 408.77,-125.21 398.45,-122.81 399.21,-129.77"/>
</a>
</g>
</g>
<!-- Node24 -->
<g id="Node000024" class="node">
<title>Node24</title>
<g id="a_Node000024"><a xlink:href="sitkNonCopyable_8h.html" target="_top" xlink:title=" ">
<polygon fill="white" stroke="#666666" points="1131,-184 1022,-184 1022,-165 1131,-165 1131,-184"/>
<text text-anchor="middle" x="1076.5" y="-172" font-family="Helvetica,sans-Serif" font-size="10.00">sitkNonCopyable.h</text>
</a>
</g>
</g>
<!-- Node19&#45;&gt;Node24 -->
<g id="edge32_Node000019_Node000024" class="edge">
<title>Node19&#45;&gt;Node24</title>
<g id="a_edge32_Node000019_Node000024"><a xlink:title=" ">
<path fill="none" stroke="#63b8ff" d="M411.62,-228.14C531.25,-218.9 770.56,-200.33 973.5,-184 985.92,-183 999.18,-181.92 1011.91,-180.87"/>
<polygon fill="#63b8ff" stroke="#63b8ff" points="1012.3,-184.35 1021.98,-180.04 1011.73,-177.37 1012.3,-184.35"/>
</a>
</g>
</g>
<!-- Node19&#45;&gt;Node25 -->
<g id="edge35_Node000019_Node000025" class="edge">
<title>Node19&#45;&gt;Node25</title>
<g id="a_edge35_Node000019_Node000025"><a xlink:title=" ">
<path fill="none" stroke="#63b8ff" d="M271.79,-219.99C224.69,-209.63 161.51,-195.73 118.36,-186.25"/>
<polygon fill="#63b8ff" stroke="#63b8ff" points="118.91,-182.78 108.39,-184.05 117.41,-189.62 118.91,-182.78"/>
</a>
</g>
</g>
<!-- Node26 -->
<g id="Node000026" class="node">
<title>Node26</title>
<g id="a_Node000026"><a xlink:title=" ">
<polygon fill="#e0e0e0" stroke="#999999" points="424,-184 331,-184 331,-165 424,-165 424,-184"/>
<text text-anchor="middle" x="377.5" y="-172" font-family="Helvetica,sans-Serif" font-size="10.00">unordered_map</text>
</a>
</g>
</g>
<!-- Node19&#45;&gt;Node26 -->
<g id="edge36_Node000019_Node000026" class="edge">
<title>Node19&#45;&gt;Node26</title>
<g id="a_edge36_Node000019_Node000026"><a xlink:title=" ">
<path fill="none" stroke="#63b8ff" d="M345.67,-219.84C351.58,-211.61 359.06,-201.18 365.29,-192.51"/>
<polygon fill="#63b8ff" stroke="#63b8ff" points="368.22,-194.43 371.21,-184.27 362.53,-190.35 368.22,-194.43"/>
</a>
</g>
</g>
<!-- Node27 -->
<g id="Node000027" class="node">
<title>Node27</title>
<g id="a_Node000027"><a xlink:title=" ">
<polygon fill="#e0e0e0" stroke="#999999" points="507,-184 442,-184 442,-165 507,-165 507,-184"/>
<text text-anchor="middle" x="474.5" y="-172" font-family="Helvetica,sans-Serif" font-size="10.00">functional</text>
</a>
</g>
</g>
<!-- Node19&#45;&gt;Node27 -->
<g id="edge37_Node000019_Node000027" class="edge">
<title>Node19&#45;&gt;Node27</title>
<g id="a_edge37_Node000019_Node000027"><a xlink:title=" ">
<path fill="none" stroke="#63b8ff" d="M368.79,-219.99C391.88,-210.27 422.37,-197.44 444.66,-188.06"/>
<polygon fill="#63b8ff" stroke="#63b8ff" points="446.11,-191.24 453.97,-184.14 443.4,-184.79 446.11,-191.24"/>
</a>
</g>
</g>
<!-- Node28 -->
<g id="Node000028" class="node">
<title>Node28</title>
<g id="a_Node000028"><a xlink:title=" ">
<polygon fill="#e0e0e0" stroke="#999999" points="313,-184 272,-184 272,-165 313,-165 313,-184"/>
<text text-anchor="middle" x="292.5" y="-172" font-family="Helvetica,sans-Serif" font-size="10.00">tuple</text>
</a>
</g>
</g>
<!-- Node19&#45;&gt;Node28 -->
<g id="edge38_Node000019_Node000028" class="edge">
<title>Node19&#45;&gt;Node28</title>
<g id="a_edge38_Node000019_Node000028"><a xlink:title=" ">
<path fill="none" stroke="#63b8ff" d="M325.09,-219.84C319.04,-211.61 311.38,-201.18 305,-192.51"/>
<polygon fill="#63b8ff" stroke="#63b8ff" points="307.69,-190.25 298.94,-184.27 302.05,-194.4 307.69,-190.25"/>
</a>
</g>
</g>
<!-- Node21&#45;&gt;Node5 -->
<g id="edge26_Node000021_Node000005" class="edge">
<title>Node21&#45;&gt;Node5</title>
<g id="a_edge26_Node000021_Node000005"><a xlink:title=" ">
<path fill="none" stroke="#63b8ff" d="M620.71,-164.87C641.1,-158.14 666.11,-146.87 682.5,-129 708.68,-100.47 719.21,-54.78 723.22,-29.28"/>
<polygon fill="#63b8ff" stroke="#63b8ff" points="726.72,-29.5 724.63,-19.11 719.79,-28.53 726.72,-29.5"/>
</a>
</g>
</g>
<!-- Node21&#45;&gt;Node10 -->
<g id="edge27_Node000021_Node000010" class="edge">
<title>Node21&#45;&gt;Node10</title>
<g id="a_edge27_Node000021_Node000010"><a xlink:title=" ">
<path fill="none" stroke="#63b8ff" d="M588.38,-164.74C593.87,-139.2 609.92,-64.43 617.48,-29.23"/>
<polygon fill="#63b8ff" stroke="#63b8ff" points="620.93,-29.82 619.61,-19.31 614.09,-28.35 620.93,-29.82"/>
</a>
</g>
</g>
<!-- Node21&#45;&gt;Node20 -->
<g id="edge28_Node000021_Node000020" class="edge">
<title>Node21&#45;&gt;Node20</title>
<g id="a_edge28_Node000021_Node000020"><a xlink:title=" ">
<path fill="none" stroke="#63b8ff" d="M537.01,-164.98C482.87,-155.67 396.1,-140.74 338.22,-130.78"/>
<polygon fill="#63b8ff" stroke="#63b8ff" points="338.57,-127.28 328.12,-129.04 337.38,-134.18 338.57,-127.28"/>
</a>
</g>
</g>
<!-- Node21&#45;&gt;Node22 -->
<g id="edge29_Node000021_Node000022" class="edge">
<title>Node21&#45;&gt;Node22</title>
<g id="a_edge29_Node000021_Node000022"><a xlink:title=" ">
<path fill="none" stroke="#63b8ff" d="M567.54,-164.98C548.47,-156.42 518.84,-143.11 496.95,-133.28"/>
<polygon fill="#63b8ff" stroke="#63b8ff" points="498.36,-130.07 487.8,-129.17 495.49,-136.46 498.36,-130.07"/>
</a>
</g>
</g>
<!-- Node23 -->
<g id="Node000023" class="node">
<title>Node23</title>
<g id="a_Node000023"><a xlink:title=" ">
<polygon fill="#e0e0e0" stroke="#999999" points="674,-129 615,-129 615,-110 674,-110 674,-129"/>
<text text-anchor="middle" x="644.5" y="-117" font-family="Helvetica,sans-Serif" font-size="10.00">complex</text>
</a>
</g>
</g>
<!-- Node21&#45;&gt;Node23 -->
<g id="edge30_Node000021_Node000023" class="edge">
<title>Node21&#45;&gt;Node23</title>
<g id="a_edge30_Node000021_Node000023"><a xlink:title=" ">
<path fill="none" stroke="#63b8ff" d="M595.82,-164.98C604.31,-157.23 617.06,-145.58 627.38,-136.14"/>
<polygon fill="#63b8ff" stroke="#63b8ff" points="629.99,-138.5 635.01,-129.17 625.27,-133.33 629.99,-138.5"/>
</a>
</g>
</g>
<!-- Node24&#45;&gt;Node3 -->
<g id="edge33_Node000024_Node000003" class="edge">
<title>Node24&#45;&gt;Node3</title>
<g id="a_edge33_Node000024_Node000003"><a xlink:title=" ">
<path fill="none" stroke="#63b8ff" d="M1089.84,-164.98C1102.59,-156.84 1122.05,-144.41 1137.17,-134.76"/>
<polygon fill="#63b8ff" stroke="#63b8ff" points="1139.38,-137.5 1145.92,-129.17 1135.61,-131.6 1139.38,-137.5"/>
</a>
</g>
</g>
<!-- Node29&#45;&gt;Node10 -->
<g id="edge41_Node000029_Node000010" class="edge">
<title>Node29&#45;&gt;Node10</title>
<g id="a_edge41_Node000029_Node000010"><a xlink:title=" ">
<path fill="none" stroke="#63b8ff" d="M955.69,-285.65C947.11,-270.53 927.87,-239.48 904.5,-220 877.02,-197.09 862.51,-203.48 832.5,-184 754.43,-133.31 672.05,-58.37 637.85,-26.15"/>
<polygon fill="#63b8ff" stroke="#63b8ff" points="640.25,-23.6 630.58,-19.26 635.43,-28.68 640.25,-23.6"/>
</a>
</g>
</g>
<!-- Node30 -->
<g id="Node000030" class="node">
<title>Node30</title>
<g id="a_Node000030"><a xlink:href="sitkPixelIDValues_8h.html" target="_top" xlink:title=" ">
<polygon fill="white" stroke="#666666" points="895.5,-244.5 785.5,-244.5 785.5,-225.5 895.5,-225.5 895.5,-244.5"/>
<text text-anchor="middle" x="840.5" y="-232.5" font-family="Helvetica,sans-Serif" font-size="10.00">sitkPixelIDValues.h</text>
</a>
</g>
</g>
<!-- Node29&#45;&gt;Node30 -->
<g id="edge42_Node000029_Node000030" class="edge">
<title>Node29&#45;&gt;Node30</title>
<g id="a_edge42_Node000029_Node000030"><a xlink:title=" ">
<path fill="none" stroke="#63b8ff" d="M943.05,-285.99C923.14,-276.29 890.36,-260.31 867.23,-249.03"/>
<polygon fill="#63b8ff" stroke="#63b8ff" points="868.49,-245.75 857.97,-244.52 865.43,-252.04 868.49,-245.75"/>
</a>
</g>
</g>
<!-- Node29&#45;&gt;Node32 -->
<g id="edge47_Node000029_Node000032" class="edge">
<title>Node29&#45;&gt;Node32</title>
<g id="a_edge47_Node000029_Node000032"><a xlink:title=" ">
<path fill="none" stroke="#63b8ff" d="M971.71,-285.87C983.61,-276.71 1002.64,-262.06 1017.01,-251.01"/>
<polygon fill="#63b8ff" stroke="#63b8ff" points="1019.45,-253.54 1025.24,-244.67 1015.18,-247.99 1019.45,-253.54"/>
</a>
</g>
</g>
<!-- Node30&#45;&gt;Node3 -->
<g id="edge43_Node000030_Node000003" class="edge">
<title>Node30&#45;&gt;Node3</title>
<g id="a_edge43_Node000030_Node000003"><a xlink:title=" ">
<path fill="none" stroke="#63b8ff" d="M865.29,-225.47C892.21,-216.02 936.34,-199.99 973.5,-184 991.21,-176.38 994.55,-172.04 1012.5,-165 1046.59,-151.64 1086.4,-139.81 1115.99,-131.71"/>
<polygon fill="#63b8ff" stroke="#63b8ff" points="1117.26,-134.99 1126,-129 1115.43,-128.23 1117.26,-134.99"/>
</a>
</g>
</g>
<!-- Node30&#45;&gt;Node15 -->
<g id="edge46_Node000030_Node000015" class="edge">
<title>Node30&#45;&gt;Node15</title>
<g id="a_edge46_Node000030_Node000015"><a xlink:title=" ">
<path fill="none" stroke="#63b8ff" d="M895.5,-228.88C971.34,-221.44 1112.46,-206.24 1242.76,-183.96"/>
<polygon fill="#63b8ff" stroke="#63b8ff" points="1243.67,-187.35 1252.93,-182.2 1242.48,-180.46 1243.67,-187.35"/>
</a>
</g>
</g>
<!-- Node30&#45;&gt;Node21 -->
<g id="edge44_Node000030_Node000021" class="edge">
<title>Node30&#45;&gt;Node21</title>
<g id="a_edge44_Node000030_Node000021"><a xlink:title=" ">
<path fill="none" stroke="#63b8ff" d="M803.57,-225.49C758.61,-215.14 682.62,-197.64 633.53,-186.33"/>
<polygon fill="#63b8ff" stroke="#63b8ff" points="634.01,-182.85 623.48,-184.02 632.44,-189.67 634.01,-182.85"/>
</a>
</g>
</g>
<!-- Node31 -->
<g id="Node000031" class="node">
<title>Node31</title>
<g id="a_Node000031"><a xlink:title=" ">
<polygon fill="#e0e0e0" stroke="#999999" points="785.5,-184 741.5,-184 741.5,-165 785.5,-165 785.5,-184"/>
<text text-anchor="middle" x="763.5" y="-172" font-family="Helvetica,sans-Serif" font-size="10.00">string</text>
</a>
</g>
</g>
<!-- Node30&#45;&gt;Node31 -->
<g id="edge45_Node000030_Node000031" class="edge">
<title>Node30&#45;&gt;Node31</title>
<g id="a_edge45_Node000030_Node000031"><a xlink:title=" ">
<path fill="none" stroke="#63b8ff" d="M829.14,-225.37C817.08,-216.21 797.8,-201.56 783.25,-190.51"/>
<polygon fill="#63b8ff" stroke="#63b8ff" points="784.99,-187.43 774.91,-184.17 780.75,-193 784.99,-187.43"/>
</a>
</g>
</g>
<!-- Node33&#45;&gt;Node3 -->
<g id="edge49_Node000033_Node000003" class="edge">
<title>Node33&#45;&gt;Node3</title>
<g id="a_edge49_Node000033_Node000003"><a xlink:title=" ">
<path fill="none" stroke="#63b8ff" d="M1239.55,-225.37C1220.24,-217.47 1194.21,-203.94 1178.5,-184 1168.37,-171.15 1163.63,-152.98 1161.42,-139.37"/>
<polygon fill="#63b8ff" stroke="#63b8ff" points="1164.86,-138.69 1160.1,-129.23 1157.92,-139.6 1164.86,-138.69"/>
</a>
</g>
</g>
<!-- Node33&#45;&gt;Node15 -->
<g id="edge50_Node000033_Node000015" class="edge">
<title>Node33&#45;&gt;Node15</title>
<g id="a_edge50_Node000033_Node000015"><a xlink:title=" ">
<path fill="none" stroke="#63b8ff" d="M1267.01,-225.37C1269.39,-217.16 1273.06,-204.54 1276.11,-194.05"/>
<polygon fill="#63b8ff" stroke="#63b8ff" points="1279.55,-194.75 1278.98,-184.17 1272.83,-192.79 1279.55,-194.75"/>
</a>
</g>
</g>
<!-- Node34&#45;&gt;Node31 -->
<g id="edge55_Node000034_Node000031" class="edge">
<title>Node34&#45;&gt;Node31</title>
<g id="a_edge55_Node000034_Node000031"><a xlink:title=" ">
<path fill="none" stroke="#63b8ff" d="M889.96,-340.81C860.21,-326.49 804.11,-294.97 776.5,-250 766.11,-233.07 763.46,-210.14 763.03,-194.2"/>
<polygon fill="#63b8ff" stroke="#63b8ff" points="766.53,-194.02 763.03,-184.02 759.53,-194.02 766.53,-194.02"/>
</a>
</g>
</g>
<!-- Node35&#45;&gt;Node4 -->
<g id="edge57_Node000035_Node000004" class="edge">
<title>Node35&#45;&gt;Node4</title>
<g id="a_edge57_Node000035_Node000004"><a xlink:title=" ">
<path fill="none" stroke="#63b8ff" d="M1708.12,-450.87C1719.66,-442.89 1735.83,-430.02 1745.5,-415 1761.45,-390.23 1764.5,-380.96 1764.5,-351.5 1764.5,-351.5 1764.5,-351.5 1764.5,-173.5 1764.5,-90.83 1131.5,-70.53 951.01,-66.42"/>
<polygon fill="#63b8ff" stroke="#63b8ff" points="950.85,-62.91 940.77,-66.19 950.69,-69.91 950.85,-62.91"/>
</a>
</g>
</g>
<!-- Node36&#45;&gt;Node2 -->
<g id="edge65_Node000036_Node000002" class="edge">
<title>Node36&#45;&gt;Node2</title>
<g id="a_edge65_Node000036_Node000002"><a xlink:title=" ">
<path fill="none" stroke="#63b8ff" d="M1465.84,-459.43C1379.53,-458.15 1220.66,-450.83 1178.5,-415 1165.63,-404.06 1161.27,-384.8 1159.9,-370.34"/>
<polygon fill="#63b8ff" stroke="#63b8ff" points="1163.37,-369.83 1159.33,-360.04 1156.38,-370.22 1163.37,-369.83"/>
</a>
</g>
</g>
<!-- Node36&#45;&gt;Node3 -->
<g id="edge59_Node000036_Node000003" class="edge">
<title>Node36&#45;&gt;Node3</title>
<g id="a_edge59_Node000036_Node000003"><a xlink:title=" ">
<path fill="none" stroke="#63b8ff" d="M1529.51,-450.76C1536.18,-442.1 1546.11,-428.26 1552.5,-415 1585.89,-345.74 1592.81,-325.99 1604.5,-250 1606.53,-236.82 1609.71,-232.27 1604.5,-220 1590.74,-187.6 1579.34,-180.02 1547.5,-165 1489.64,-137.7 1306.22,-126.47 1213.81,-122.45"/>
<polygon fill="#63b8ff" stroke="#63b8ff" points="1213.69,-118.94 1203.55,-122.01 1213.39,-125.93 1213.69,-118.94"/>
</a>
</g>
</g>
<!-- Node36&#45;&gt;Node11 -->
<g id="edge61_Node000036_Node000011" class="edge">
<title>Node36&#45;&gt;Node11</title>
<g id="a_edge61_Node000036_Node000011"><a xlink:title=" ">
<path fill="none" stroke="#63b8ff" d="M1517.72,-450.74C1499.61,-417.57 1435.07,-299.32 1410.28,-253.93"/>
<polygon fill="#63b8ff" stroke="#63b8ff" points="1413.25,-252.04 1405.38,-244.94 1407.1,-255.4 1413.25,-252.04"/>
</a>
</g>
</g>
<!-- Node36&#45;&gt;Node24 -->
<g id="edge60_Node000036_Node000024" class="edge">
<title>Node36&#45;&gt;Node24</title>
<g id="a_edge60_Node000036_Node000024"><a xlink:title=" ">
<path fill="none" stroke="#63b8ff" d="M1508.66,-450.69C1444.8,-410.02 1178.28,-240.31 1098.9,-189.76"/>
<polygon fill="#63b8ff" stroke="#63b8ff" points="1100.49,-186.63 1090.18,-184.21 1096.73,-192.53 1100.49,-186.63"/>
</a>
</g>
</g>
<!-- Node37 -->
<g id="Node000037" class="node">
<title>Node37</title>
<g id="a_Node000037"><a xlink:href="sitkEvent_8h.html" target="_top" xlink:title=" ">
<polygon fill="white" stroke="#666666" points="1596,-244.5 1525,-244.5 1525,-225.5 1596,-225.5 1596,-244.5"/>
<text text-anchor="middle" x="1560.5" y="-232.5" font-family="Helvetica,sans-Serif" font-size="10.00">sitkEvent.h</text>
</a>
</g>
</g>
<!-- Node36&#45;&gt;Node37 -->
<g id="edge62_Node000036_Node000037" class="edge">
<title>Node36&#45;&gt;Node37</title>
<g id="a_edge62_Node000036_Node000037"><a xlink:title=" ">
<path fill="none" stroke="#63b8ff" d="M1525.74,-450.76C1528.92,-441.87 1533.68,-427.65 1536.5,-415 1549.3,-357.49 1556.24,-287.95 1559.03,-255.04"/>
<polygon fill="#63b8ff" stroke="#63b8ff" points="1562.55,-254.91 1559.87,-244.66 1555.57,-254.35 1562.55,-254.91"/>
</a>
</g>
</g>
<!-- Node38 -->
<g id="Node000038" class="node">
<title>Node38</title>
<g id="a_Node000038"><a xlink:href="sitkImageConvert_8h.html" target="_top" xlink:title=" ">
<polygon fill="white" stroke="#666666" points="1301,-415 1188,-415 1188,-396 1301,-396 1301,-415"/>
<text text-anchor="middle" x="1244.5" y="-403" font-family="Helvetica,sans-Serif" font-size="10.00">sitkImageConvert.h</text>
</a>
</g>
</g>
<!-- Node36&#45;&gt;Node38 -->
<g id="edge66_Node000036_Node000038" class="edge">
<title>Node36&#45;&gt;Node38</title>
<g id="a_edge66_Node000036_Node000038"><a xlink:title=" ">
<path fill="none" stroke="#63b8ff" d="M1477.83,-450.98C1429.34,-441.74 1351.85,-426.97 1299.61,-417.01"/>
<polygon fill="#63b8ff" stroke="#63b8ff" points="1299.99,-413.52 1289.52,-415.08 1298.68,-420.39 1299.99,-413.52"/>
</a>
</g>
</g>
<!-- Node39 -->
<g id="Node000039" class="node">
<title>Node39</title>
<g id="a_Node000039"><a xlink:title=" ">
<polygon fill="#e0e0e0" stroke="#999999" points="1686.5,-415 1626.5,-415 1626.5,-396 1686.5,-396 1686.5,-415"/>
<text text-anchor="middle" x="1656.5" y="-403" font-family="Helvetica,sans-Serif" font-size="10.00">iostream</text>
</a>
</g>
</g>
<!-- Node36&#45;&gt;Node39 -->
<g id="edge68_Node000036_Node000039" class="edge">
<title>Node36&#45;&gt;Node39</title>
<g id="a_edge68_Node000036_Node000039"><a xlink:title=" ">
<path fill="none" stroke="#63b8ff" d="M1544.03,-450.98C1565.97,-442.3 1600.24,-428.75 1625.19,-418.88"/>
<polygon fill="#63b8ff" stroke="#63b8ff" points="1626.57,-422.1 1634.58,-415.17 1623.99,-415.59 1626.57,-422.1"/>
</a>
</g>
</g>
<!-- Node40 -->
<g id="Node000040" class="node">
<title>Node40</title>
<g id="a_Node000040"><a xlink:title=" ">
<polygon fill="#e0e0e0" stroke="#999999" points="1736.5,-415 1704.5,-415 1704.5,-396 1736.5,-396 1736.5,-415"/>
<text text-anchor="middle" x="1720.5" y="-403" font-family="Helvetica,sans-Serif" font-size="10.00">list</text>
</a>
</g>
</g>
<!-- Node36&#45;&gt;Node40 -->
<g id="edge69_Node000036_Node000040" class="edge">
<title>Node36&#45;&gt;Node40</title>
<g id="a_edge69_Node000036_Node000040"><a xlink:title=" ">
<path fill="none" stroke="#63b8ff" d="M1559.17,-450.92C1592.28,-442.99 1642.52,-430.49 1694.66,-415.08"/>
<polygon fill="#63b8ff" stroke="#63b8ff" points="1695.84,-418.38 1704.42,-412.17 1693.84,-411.67 1695.84,-418.38"/>
</a>
</g>
</g>
<!-- Node37&#45;&gt;Node3 -->
<g id="edge63_Node000037_Node000003" class="edge">
<title>Node37&#45;&gt;Node3</title>
<g id="a_edge63_Node000037_Node000003"><a xlink:title=" ">
<path fill="none" stroke="#63b8ff" d="M1558.65,-225.04C1555.01,-209.89 1545.38,-179.46 1524.5,-165 1475.4,-131 1303.12,-122.93 1213.93,-121.05"/>
<polygon fill="#63b8ff" stroke="#63b8ff" points="1213.8,-117.54 1203.74,-120.85 1213.67,-124.54 1213.8,-117.54"/>
</a>
</g>
</g>
<!-- Node37&#45;&gt;Node15 -->
<g id="edge64_Node000037_Node000015" class="edge">
<title>Node37&#45;&gt;Node15</title>
<g id="a_edge64_Node000037_Node000015"><a xlink:title=" ">
<path fill="none" stroke="#63b8ff" d="M1524.77,-226.88C1479.45,-217.78 1398.62,-201.37 1320.21,-184.34"/>
<polygon fill="#63b8ff" stroke="#63b8ff" points="1320.69,-180.86 1310.17,-182.15 1319.19,-187.7 1320.69,-180.86"/>
</a>
</g>
</g>
<!-- Node38&#45;&gt;Node2 -->
<g id="edge67_Node000038_Node000002" class="edge">
<title>Node38&#45;&gt;Node2</title>
<g id="a_edge67_Node000038_Node000002"><a xlink:title=" ">
<path fill="none" stroke="#63b8ff" d="M1230.84,-395.98C1217.66,-387.77 1197.47,-375.18 1181.93,-365.49"/>
<polygon fill="#63b8ff" stroke="#63b8ff" points="1183.74,-362.49 1173.41,-360.17 1180.04,-368.43 1183.74,-362.49"/>
</a>
</g>
</g>
</g>
</svg>

<g id="navigator" transform="translate(0 0)" fill="#404254">
  <rect fill="#f2f5e9" fill-opacity="0.5" stroke="#606060" stroke-width=".5" x="0" y="0" width="60" height="60"/>
  <use id="zoomplus" xlink:href="#zoomPlus" x="17" y="9" onmousedown="handleZoom(evt,'in')"/>
  <use id="zoomminus" xlink:href="#zoomMin" x="42" y="9" onmousedown="handleZoom(evt,'out')"/>
  <use id="reset" xlink:href="#resetDef" x="30" y="36" onmousedown="handleReset()"/>
   <use id="arrowup" xlink:href="#arrowUp" x="0" y="0" onmousedown="handlePan(0,-1)"/>
  <use id="arrowright" xlink:href="#arrowRight" x="0" y="0" onmousedown="handlePan(1,0)"/>
  <use id="arrowdown" xlink:href="#arrowDown" x="0" y="0" onmousedown="handlePan(0,1)"/>
  <use id="arrowleft" xlink:href="#arrowLeft" x="0" y="0" onmousedown="handlePan(-1,0)"/>
</g>
<svg viewBox="0 0 15 15" width="100%" height="30px" preserveAspectRatio="xMaxYMin meet">
 <g id="arrow_out" transform="scale(0.3 0.3)">
  <a xlink:href="sitkImageViewer_8h__incl_org.svg" target="_base">
   <rect id="button" ry="5" rx="5" y="6" x="6" height="38" width="38"
        fill="#f2f5e9" fill-opacity="0.5" stroke="#606060" stroke-width="1.0"/>
   <path id="arrow"
     d="M 11.500037,31.436501 C 11.940474,20.09759 22.043105,11.32322 32.158766,21.979434 L 37.068811,17.246167 C 37.068811,17.246167 37.088388,32 37.088388,32 L 22.160133,31.978069 C 22.160133,31.978069 26.997745,27.140456 26.997745,27.140456 C 18.528582,18.264221 13.291696,25.230495 11.500037,31.436501 z"
     style="fill:#404040;"/>
  </a>
 </g>
</svg>

<style type='text/css'>
<![CDATA[
[data-mouse-over-selected='false'] { opacity: 0.7; }
[data-mouse-over-selected='true']  { opacity: 1.0; }
]]>
</style>
<script type="application/ecmascript"><![CDATA[
document.addEventListener('DOMContentLoaded', (event) => {
  highlightEdges();
  highlightAdjacentNodes();
});
]]></script>
</svg>
