<?xml version="1.0" encoding="UTF-8" standalone="no"?>
<!DOCTYPE svg PUBLIC "-//W3C//DTD SVG 1.1//EN"
 "http://www.w3.org/Graphics/SVG/1.1/DTD/svg11.dtd">
<!-- Generated by graphviz version 2.43.0 (0)
 -->
<!-- Title: itk::simple::CompositeTransform::MyVisitor Pages: 1 -->
<svg width="2000pt" height="267pt"
 viewBox="0.00 0.00 2000.00 267.00" xmlns="http://www.w3.org/2000/svg" xmlns:xlink="http://www.w3.org/1999/xlink">
<g id="graph0" class="graph" transform="scale(1 1) rotate(0) translate(4 263)">
<title>itk::simple::CompositeTransform::MyVisitor</title>
<polygon fill="white" stroke="transparent" points="-4,4 -4,-263 1996,-263 1996,4 -4,4"/>
<!-- Node1 -->
<g id="node1" class="node">
<title>Node1</title>
<g id="a_node1"><a xlink:title=" ">
<polygon fill="#bfbfbf" stroke="black" points="1816,-77.5 1816,-107.5 1992,-107.5 1992,-77.5 1816,-77.5"/>
<text text-anchor="start" x="1824" y="-95.5" font-family="Helvetica,sans-Serif" font-size="10.00">itk::simple::CompositeTransform</text>
<text text-anchor="middle" x="1904" y="-84.5" font-family="Helvetica,sans-Serif" font-size="10.00">::MyVisitor</text>
</a>
</g>
</g>
<!-- Node2 -->
<g id="node2" class="node">
<title>Node2</title>
<g id="a_node2"><a xlink:href="classitk_1_1simple_1_1CompositeTransform.html" target="_top" xlink:title="This class contains a stack of transforms and concatenates them by composition.">
<polygon fill="white" stroke="black" points="1552,-61 1552,-80 1728,-80 1728,-61 1552,-61"/>
<text text-anchor="middle" x="1640" y="-68" font-family="Helvetica,sans-Serif" font-size="10.00">itk::simple::CompositeTransform</text>
</a>
</g>
</g>
<!-- Node2&#45;&gt;Node1 -->
<g id="edge1" class="edge">
<title>Node2&#45;&gt;Node1</title>
<path fill="none" stroke="#9a32cd" stroke-dasharray="5,2" d="M1738.51,-74.23C1758.22,-75.33 1778.79,-76.73 1798,-78.5 1803.86,-79.04 1809.9,-79.66 1815.97,-80.34"/>
<polygon fill="#9a32cd" stroke="#9a32cd" points="1738.46,-70.72 1728.29,-73.68 1738.08,-77.71 1738.46,-70.72"/>
<text text-anchor="middle" x="1772" y="-81.5" font-family="Helvetica,sans-Serif" font-size="10.00"> that</text>
</g>
<!-- Node3 -->
<g id="node3" class="node">
<title>Node3</title>
<g id="a_node3"><a xlink:href="classitk_1_1simple_1_1Transform.html" target="_top" xlink:title="A simplified wrapper around a variety of ITK transforms.">
<polygon fill="white" stroke="black" points="1392,-49 1392,-68 1515,-68 1515,-49 1392,-49"/>
<text text-anchor="middle" x="1453.5" y="-56" font-family="Helvetica,sans-Serif" font-size="10.00">itk::simple::Transform</text>
</a>
</g>
</g>
<!-- Node3&#45;&gt;Node2 -->
<g id="edge2" class="edge">
<title>Node3&#45;&gt;Node2</title>
<path fill="none" stroke="midnightblue" d="M1525.26,-63.1C1533.98,-63.67 1542.97,-64.25 1551.89,-64.83"/>
<polygon fill="midnightblue" stroke="midnightblue" points="1525.37,-59.6 1515.17,-62.45 1524.92,-66.59 1525.37,-59.6"/>
</g>
<!-- Node4 -->
<g id="node4" class="node">
<title>Node4</title>
<g id="a_node4"><a xlink:title=" ">
<polygon fill="white" stroke="#bfbfbf" points="1040,-0.5 1040,-30.5 1223,-30.5 1223,-0.5 1040,-0.5"/>
<text text-anchor="start" x="1048" y="-18.5" font-family="Helvetica,sans-Serif" font-size="10.00">std::unique_ptr&lt; PimpleTransform</text>
<text text-anchor="middle" x="1131.5" y="-7.5" font-family="Helvetica,sans-Serif" font-size="10.00">Base &gt;</text>
</a>
</g>
</g>
<!-- Node4&#45;&gt;Node3 -->
<g id="edge3" class="edge">
<title>Node4&#45;&gt;Node3</title>
<path fill="none" stroke="#9a32cd" stroke-dasharray="5,2" d="M1233.1,-28.66C1276.46,-34.38 1327.74,-41.19 1374,-47.5 1379.73,-48.28 1385.69,-49.1 1391.65,-49.93"/>
<polygon fill="#9a32cd" stroke="#9a32cd" points="1233.49,-25.18 1223.12,-27.34 1232.58,-32.12 1233.49,-25.18"/>
<text text-anchor="middle" x="1307.5" y="-50.5" font-family="Helvetica,sans-Serif" font-size="10.00"> m_PimpleTransform</text>
</g>
<!-- Node5 -->
<g id="node5" class="node">
<title>Node5</title>
<g id="a_node5"><a xlink:title="STL class.">
<polygon fill="white" stroke="#bfbfbf" points="735,-56 735,-75 853,-75 853,-56 735,-56"/>
<text text-anchor="middle" x="794" y="-63" font-family="Helvetica,sans-Serif" font-size="10.00">std::unique_ptr&lt; T &gt;</text>
</a>
</g>
</g>
<!-- Node5&#45;&gt;Node4 -->
<g id="edge4" class="edge">
<title>Node5&#45;&gt;Node4</title>
<path fill="none" stroke="orange" stroke-dasharray="5,2" d="M849.43,-53.91C859.25,-51.99 869.41,-50.1 879,-48.5 932.1,-39.65 991.84,-31.73 1039.77,-25.87"/>
<polygon fill="orange" stroke="orange" points="848.48,-50.53 839.36,-55.93 849.85,-57.4 848.48,-50.53"/>
<text text-anchor="middle" x="950.5" y="-51.5" font-family="Helvetica,sans-Serif" font-size="10.00"> &lt; PimpleTransformBase &gt;</text>
</g>
<!-- Node12 -->
<g id="node12" class="node">
<title>Node12</title>
<g id="a_node12"><a xlink:title=" ">
<polygon fill="white" stroke="#bfbfbf" points="1065.5,-184.5 1065.5,-214.5 1197.5,-214.5 1197.5,-184.5 1065.5,-184.5"/>
<text text-anchor="start" x="1073.5" y="-202.5" font-family="Helvetica,sans-Serif" font-size="10.00">std::unique_ptr&lt; itk</text>
<text text-anchor="middle" x="1131.5" y="-191.5" font-family="Helvetica,sans-Serif" font-size="10.00">::MetaDataDictionary &gt;</text>
</a>
</g>
</g>
<!-- Node5&#45;&gt;Node12 -->
<g id="edge20" class="edge">
<title>Node5&#45;&gt;Node12</title>
<path fill="none" stroke="orange" stroke-dasharray="5,2" d="M824.35,-79.38C840.29,-86.58 860.47,-95.17 879,-101.5 941.13,-122.71 970.96,-97.21 1022,-138.5 1035.91,-149.75 1026.18,-163.14 1040,-174.5 1047.43,-180.61 1056.24,-185.23 1065.4,-188.73"/>
<polygon fill="orange" stroke="orange" points="825.58,-76.09 815.03,-75.11 822.66,-82.46 825.58,-76.09"/>
<text text-anchor="middle" x="950.5" y="-141.5" font-family="Helvetica,sans-Serif" font-size="10.00"> &lt; itk::MetaDataDictionary &gt;</text>
</g>
<!-- Node20 -->
<g id="node20" class="node">
<title>Node20</title>
<g id="a_node20"><a xlink:title=" ">
<polygon fill="white" stroke="#bfbfbf" points="1063,-49.5 1063,-79.5 1200,-79.5 1200,-49.5 1063,-49.5"/>
<text text-anchor="start" x="1071" y="-67.5" font-family="Helvetica,sans-Serif" font-size="10.00">std::unique_ptr&lt; Subject</text>
<text text-anchor="middle" x="1131.5" y="-56.5" font-family="Helvetica,sans-Serif" font-size="10.00">Implementation &gt;</text>
</a>
</g>
</g>
<!-- Node5&#45;&gt;Node20 -->
<g id="edge24" class="edge">
<title>Node5&#45;&gt;Node20</title>
<path fill="none" stroke="orange" stroke-dasharray="5,2" d="M863.43,-63.74C868.7,-63.64 873.93,-63.56 879,-63.5 941.33,-62.76 1012.34,-63.15 1062.98,-63.65"/>
<polygon fill="orange" stroke="orange" points="863.22,-60.24 853.29,-63.93 863.36,-67.24 863.22,-60.24"/>
<text text-anchor="middle" x="950.5" y="-66.5" font-family="Helvetica,sans-Serif" font-size="10.00"> &lt; SubjectImplementation &gt;</text>
</g>
<!-- Node6 -->
<g id="node6" class="node">
<title>Node6</title>
<g id="a_node6"><a xlink:title=" ">
<polygon fill="white" stroke="#bfbfbf" points="0,-122 0,-141 29,-141 29,-122 0,-122"/>
<text text-anchor="middle" x="14.5" y="-129" font-family="Helvetica,sans-Serif" font-size="10.00">T</text>
</a>
</g>
</g>
<!-- Node6&#45;&gt;Node5 -->
<g id="edge5" class="edge">
<title>Node6&#45;&gt;Node5</title>
<path fill="none" stroke="#9a32cd" stroke-dasharray="5,2" d="M38.75,-123.54C41.51,-122.76 44.3,-122.06 47,-121.5 135.8,-103.01 159.61,-108.09 250,-100.5 426.27,-85.71 635.19,-73.83 734.69,-68.52"/>
<polygon fill="#9a32cd" stroke="#9a32cd" points="37.66,-120.21 29.14,-126.5 39.73,-126.9 37.66,-120.21"/>
<text text-anchor="middle" x="334" y="-103.5" font-family="Helvetica,sans-Serif" font-size="10.00"> ptr</text>
</g>
<!-- Node11 -->
<g id="node11" class="node">
<title>Node11</title>
<g id="a_node11"><a xlink:title="STL class.">
<polygon fill="white" stroke="#bfbfbf" points="460.5,-105 460.5,-124 560.5,-124 560.5,-105 460.5,-105"/>
<text text-anchor="middle" x="510.5" y="-112" font-family="Helvetica,sans-Serif" font-size="10.00">std::atomic&lt; T &gt;</text>
</a>
</g>
</g>
<!-- Node6&#45;&gt;Node11 -->
<g id="edge11" class="edge">
<title>Node6&#45;&gt;Node11</title>
<path fill="none" stroke="#9a32cd" stroke-dasharray="5,2" d="M39.23,-129.51C59.17,-127.91 88.43,-125.73 114,-124.5 238.69,-118.5 385.68,-115.98 460.46,-115.02"/>
<polygon fill="#9a32cd" stroke="#9a32cd" points="38.87,-126.03 29.19,-130.33 39.44,-133 38.87,-126.03"/>
<text text-anchor="middle" x="173" y="-127.5" font-family="Helvetica,sans-Serif" font-size="10.00"> ptr</text>
</g>
<!-- Node15 -->
<g id="node15" class="node">
<title>Node15</title>
<g id="a_node15"><a xlink:title="STL class.">
<polygon fill="white" stroke="#bfbfbf" points="122.5,-186 122.5,-205 223.5,-205 223.5,-186 122.5,-186"/>
<text text-anchor="middle" x="173" y="-193" font-family="Helvetica,sans-Serif" font-size="10.00">std::map&lt; K, T &gt;</text>
</a>
</g>
</g>
<!-- Node6&#45;&gt;Node15 -->
<g id="edge17" class="edge">
<title>Node6&#45;&gt;Node15</title>
<path fill="none" stroke="#9a32cd" stroke-dasharray="5,2" d="M32.74,-147.77C37.15,-151.34 42.05,-154.84 47,-157.5 71.48,-170.64 101.16,-179.91 125.45,-186"/>
<polygon fill="#9a32cd" stroke="#9a32cd" points="34.82,-144.95 24.98,-141.03 30.23,-150.23 34.82,-144.95"/>
<text text-anchor="middle" x="71.5" y="-179.5" font-family="Helvetica,sans-Serif" font-size="10.00"> elements</text>
</g>
<!-- Node17 -->
<g id="node17" class="node">
<title>Node17</title>
<g id="a_node17"><a xlink:title="STL class.">
<polygon fill="white" stroke="#bfbfbf" points="114,-145 114,-164 232,-164 232,-145 114,-145"/>
<text text-anchor="middle" x="173" y="-152" font-family="Helvetica,sans-Serif" font-size="10.00">std::shared_ptr&lt; T &gt;</text>
</a>
</g>
</g>
<!-- Node6&#45;&gt;Node17 -->
<g id="edge19" class="edge">
<title>Node6&#45;&gt;Node17</title>
<path fill="none" stroke="#9a32cd" stroke-dasharray="5,2" d="M39.05,-134.96C58.79,-137.86 87.84,-142.13 113.75,-145.94"/>
<polygon fill="#9a32cd" stroke="#9a32cd" points="39.52,-131.49 29.11,-133.5 38.5,-138.42 39.52,-131.49"/>
<text text-anchor="middle" x="71.5" y="-145.5" font-family="Helvetica,sans-Serif" font-size="10.00"> ptr</text>
</g>
<!-- Node7 -->
<g id="node7" class="node">
<title>Node7</title>
<g id="a_node7"><a xlink:href="https://www.itk.org/Doxygen/html/classitk_1_1TransformBaseTemplate.html" xlink:title=" ">
<polygon fill="white" stroke="black" points="1563.5,-101.5 1563.5,-131.5 1716.5,-131.5 1716.5,-101.5 1563.5,-101.5"/>
<text text-anchor="start" x="1571.5" y="-119.5" font-family="Helvetica,sans-Serif" font-size="10.00">itk::TransformBaseTemplate</text>
<text text-anchor="middle" x="1640" y="-108.5" font-family="Helvetica,sans-Serif" font-size="10.00">&lt; TParametersValueType &gt;</text>
</a>
</g>
</g>
<!-- Node7&#45;&gt;Node1 -->
<g id="edge6" class="edge">
<title>Node7&#45;&gt;Node1</title>
<path fill="none" stroke="#9a32cd" stroke-dasharray="5,2" d="M1726.74,-108.65C1755.32,-106.03 1787.17,-103.11 1815.85,-100.48"/>
<polygon fill="#9a32cd" stroke="#9a32cd" points="1726.42,-105.16 1716.78,-109.56 1727.06,-112.13 1726.42,-105.16"/>
<text text-anchor="middle" x="1772" y="-109.5" font-family="Helvetica,sans-Serif" font-size="10.00"> transform</text>
</g>
<!-- Node8 -->
<g id="node8" class="node">
<title>Node8</title>
<g id="a_node8"><a xlink:href="https://www.itk.org/Doxygen/html/classitk_1_1Object.html" xlink:title=" ">
<polygon fill="white" stroke="black" points="1420,-123 1420,-142 1487,-142 1487,-123 1420,-123"/>
<text text-anchor="middle" x="1453.5" y="-130" font-family="Helvetica,sans-Serif" font-size="10.00">itk::Object</text>
</a>
</g>
</g>
<!-- Node8&#45;&gt;Node7 -->
<g id="edge7" class="edge">
<title>Node8&#45;&gt;Node7</title>
<path fill="none" stroke="midnightblue" d="M1497.18,-128.8C1516.78,-127.1 1540.61,-125.03 1563.11,-123.08"/>
<polygon fill="midnightblue" stroke="midnightblue" points="1496.72,-125.33 1487.06,-129.68 1497.33,-132.3 1496.72,-125.33"/>
</g>
<!-- Node9 -->
<g id="node9" class="node">
<title>Node9</title>
<g id="a_node9"><a xlink:href="https://www.itk.org/Doxygen/html/classitk_1_1LightObject.html" xlink:title=" ">
<polygon fill="white" stroke="black" points="1086,-146 1086,-165 1177,-165 1177,-146 1086,-146"/>
<text text-anchor="middle" x="1131.5" y="-153" font-family="Helvetica,sans-Serif" font-size="10.00">itk::LightObject</text>
</a>
</g>
</g>
<!-- Node9&#45;&gt;Node8 -->
<g id="edge8" class="edge">
<title>Node9&#45;&gt;Node8</title>
<path fill="none" stroke="midnightblue" d="M1187.67,-151.53C1254.5,-146.73 1364.91,-138.8 1419.64,-134.86"/>
<polygon fill="midnightblue" stroke="midnightblue" points="1187.05,-148.07 1177.33,-152.28 1187.56,-155.05 1187.05,-148.07"/>
</g>
<!-- Node10 -->
<g id="node10" class="node">
<title>Node10</title>
<g id="a_node10"><a xlink:title=" ">
<polygon fill="white" stroke="#bfbfbf" points="740.5,-144 740.5,-163 847.5,-163 847.5,-144 740.5,-144"/>
<text text-anchor="middle" x="794" y="-151" font-family="Helvetica,sans-Serif" font-size="10.00">std::atomic&lt; int &gt;</text>
</a>
</g>
</g>
<!-- Node10&#45;&gt;Node9 -->
<g id="edge9" class="edge">
<title>Node10&#45;&gt;Node9</title>
<path fill="none" stroke="#9a32cd" stroke-dasharray="5,2" d="M858.12,-153.88C924.52,-154.27 1027.32,-154.88 1085.79,-155.23"/>
<polygon fill="#9a32cd" stroke="#9a32cd" points="857.81,-150.37 847.79,-153.81 857.77,-157.37 857.81,-150.37"/>
<text text-anchor="middle" x="950.5" y="-157.5" font-family="Helvetica,sans-Serif" font-size="10.00"> m_ReferenceCount</text>
</g>
<!-- Node11&#45;&gt;Node10 -->
<g id="edge10" class="edge">
<title>Node11&#45;&gt;Node10</title>
<path fill="none" stroke="orange" stroke-dasharray="5,2" d="M570.92,-124.57C581.59,-126.28 592.62,-127.99 603,-129.5 649.23,-136.21 701.95,-142.78 740.1,-147.35"/>
<polygon fill="orange" stroke="orange" points="571.27,-121.08 560.83,-122.93 570.14,-127.99 571.27,-121.08"/>
<text text-anchor="middle" x="656" y="-145.5" font-family="Helvetica,sans-Serif" font-size="10.00"> &lt; int &gt;</text>
</g>
<!-- Node21 -->
<g id="node21" class="node">
<title>Node21</title>
<g id="a_node21"><a xlink:href="https://www.itk.org/Doxygen/html/classitk_1_1TimeStamp.html" xlink:title=" ">
<polygon fill="white" stroke="black" points="904.5,-81 904.5,-100 996.5,-100 996.5,-81 904.5,-81"/>
<text text-anchor="middle" x="950.5" y="-88" font-family="Helvetica,sans-Serif" font-size="10.00">itk::TimeStamp</text>
</a>
</g>
</g>
<!-- Node11&#45;&gt;Node21 -->
<g id="edge26" class="edge">
<title>Node11&#45;&gt;Node21</title>
<path fill="none" stroke="#9a32cd" stroke-dasharray="5,2" d="M571.06,-111.24C659.77,-106.38 824.68,-97.34 904.24,-92.98"/>
<polygon fill="#9a32cd" stroke="#9a32cd" points="570.69,-107.75 560.89,-111.79 571.07,-114.74 570.69,-107.75"/>
<text text-anchor="middle" x="656" y="-111.5" font-family="Helvetica,sans-Serif" font-size="10.00"> m_GlobalTimeStamp</text>
</g>
<!-- Node12&#45;&gt;Node8 -->
<g id="edge12" class="edge">
<title>Node12&#45;&gt;Node8</title>
<path fill="none" stroke="#9a32cd" stroke-dasharray="5,2" d="M1207.5,-188.53C1255.43,-180.94 1318.73,-169.82 1374,-156.5 1390.76,-152.46 1409.22,-146.88 1424.02,-142.11"/>
<polygon fill="#9a32cd" stroke="#9a32cd" points="1206.85,-185.09 1197.52,-190.1 1207.94,-192.01 1206.85,-185.09"/>
<text text-anchor="middle" x="1307.5" y="-185.5" font-family="Helvetica,sans-Serif" font-size="10.00"> m_MetaDataDictionary</text>
</g>
<!-- Node13 -->
<g id="node13" class="node">
<title>Node13</title>
<g id="a_node13"><a xlink:href="https://www.itk.org/Doxygen/html/classitk_1_1MetaDataDictionary.html" xlink:title=" ">
<polygon fill="white" stroke="black" points="727,-189 727,-208 861,-208 861,-189 727,-189"/>
<text text-anchor="middle" x="794" y="-196" font-family="Helvetica,sans-Serif" font-size="10.00">itk::MetaDataDictionary</text>
</a>
</g>
</g>
<!-- Node13&#45;&gt;Node12 -->
<g id="edge13" class="edge">
<title>Node13&#45;&gt;Node12</title>
<path fill="none" stroke="#9a32cd" stroke-dasharray="5,2" d="M871.59,-198.73C930.16,-198.9 1010.02,-199.14 1065.5,-199.31"/>
<polygon fill="#9a32cd" stroke="#9a32cd" points="871.29,-195.23 861.28,-198.7 871.27,-202.23 871.29,-195.23"/>
<text text-anchor="middle" x="950.5" y="-201.5" font-family="Helvetica,sans-Serif" font-size="10.00"> ptr</text>
</g>
<!-- Node14 -->
<g id="node14" class="node">
<title>Node14</title>
<g id="a_node14"><a xlink:title=" ">
<polygon fill="white" stroke="#bfbfbf" points="436,-180.5 436,-210.5 585,-210.5 585,-180.5 436,-180.5"/>
<text text-anchor="start" x="444" y="-198.5" font-family="Helvetica,sans-Serif" font-size="10.00">std::shared_ptr&lt; MetaData</text>
<text text-anchor="middle" x="510.5" y="-187.5" font-family="Helvetica,sans-Serif" font-size="10.00">DictionaryMapType &gt;</text>
</a>
</g>
</g>
<!-- Node14&#45;&gt;Node13 -->
<g id="edge14" class="edge">
<title>Node14&#45;&gt;Node13</title>
<path fill="none" stroke="#9a32cd" stroke-dasharray="5,2" d="M595.29,-196.39C637.24,-196.84 687.31,-197.37 726.57,-197.79"/>
<polygon fill="#9a32cd" stroke="#9a32cd" points="595.13,-192.89 585.09,-196.28 595.06,-199.89 595.13,-192.89"/>
<text text-anchor="middle" x="656" y="-200.5" font-family="Helvetica,sans-Serif" font-size="10.00"> m_Dictionary</text>
</g>
<!-- Node15&#45;&gt;Node14 -->
<g id="edge15" class="edge">
<title>Node15&#45;&gt;Node14</title>
<path fill="none" stroke="#9a32cd" stroke-dasharray="5,2" d="M233.71,-195.5C290.23,-195.5 375.21,-195.5 435.9,-195.5"/>
<polygon fill="#9a32cd" stroke="#9a32cd" points="233.5,-192 223.5,-195.5 233.5,-199 233.5,-192"/>
<text text-anchor="middle" x="334" y="-198.5" font-family="Helvetica,sans-Serif" font-size="10.00"> ptr</text>
</g>
<!-- Node16 -->
<g id="node16" class="node">
<title>Node16</title>
<g id="a_node16"><a xlink:title=" ">
<polygon fill="white" stroke="#bfbfbf" points="0,-206 0,-225 29,-225 29,-206 0,-206"/>
<text text-anchor="middle" x="14.5" y="-213" font-family="Helvetica,sans-Serif" font-size="10.00">K</text>
</a>
</g>
</g>
<!-- Node16&#45;&gt;Node15 -->
<g id="edge16" class="edge">
<title>Node16&#45;&gt;Node15</title>
<path fill="none" stroke="#9a32cd" stroke-dasharray="5,2" d="M39.19,-212.47C61.16,-209.67 94.54,-205.4 122.35,-201.85"/>
<polygon fill="#9a32cd" stroke="#9a32cd" points="38.59,-209.02 29.11,-213.76 39.48,-215.96 38.59,-209.02"/>
<text text-anchor="middle" x="71.5" y="-213.5" font-family="Helvetica,sans-Serif" font-size="10.00"> keys</text>
</g>
<!-- Node17&#45;&gt;Node14 -->
<g id="edge18" class="edge">
<title>Node17&#45;&gt;Node14</title>
<path fill="none" stroke="orange" stroke-dasharray="5,2" d="M242.45,-160.75C291.43,-165.48 358.88,-172.51 418,-180.5 423.74,-181.28 429.68,-182.13 435.64,-183.03"/>
<polygon fill="orange" stroke="orange" points="242.57,-157.25 232.29,-159.78 241.91,-164.22 242.57,-157.25"/>
<text text-anchor="middle" x="334" y="-183.5" font-family="Helvetica,sans-Serif" font-size="10.00"> &lt; MetaDataDictionaryMapType &gt;</text>
</g>
<!-- Node18 -->
<g id="node18" class="node">
<title>Node18</title>
<g id="a_node18"><a xlink:title="STL class.">
<polygon fill="white" stroke="#bfbfbf" points="1099,-234 1099,-253 1164,-253 1164,-234 1099,-234"/>
<text text-anchor="middle" x="1131.5" y="-241" font-family="Helvetica,sans-Serif" font-size="10.00">std::string</text>
</a>
</g>
</g>
<!-- Node18&#45;&gt;Node8 -->
<g id="edge21" class="edge">
<title>Node18&#45;&gt;Node8</title>
<path fill="none" stroke="#9a32cd" stroke-dasharray="5,2" d="M1174.21,-241.84C1223.95,-238.48 1308.56,-228.3 1374,-197.5 1403.14,-183.79 1430.52,-156.72 1443.92,-142.22"/>
<polygon fill="#9a32cd" stroke="#9a32cd" points="1173.91,-238.35 1164.15,-242.46 1174.34,-245.34 1173.91,-238.35"/>
<text text-anchor="middle" x="1307.5" y="-236.5" font-family="Helvetica,sans-Serif" font-size="10.00"> m_ObjectName</text>
</g>
<!-- Node19 -->
<g id="node19" class="node">
<title>Node19</title>
<g id="a_node19"><a xlink:title="STL class.">
<polygon fill="white" stroke="#bfbfbf" points="742,-228.5 742,-258.5 846,-258.5 846,-228.5 742,-228.5"/>
<text text-anchor="start" x="750" y="-246.5" font-family="Helvetica,sans-Serif" font-size="10.00">std::basic_string&lt;</text>
<text text-anchor="middle" x="794" y="-235.5" font-family="Helvetica,sans-Serif" font-size="10.00"> char &gt;</text>
</a>
</g>
</g>
<!-- Node19&#45;&gt;Node18 -->
<g id="edge22" class="edge">
<title>Node19&#45;&gt;Node18</title>
<path fill="none" stroke="midnightblue" d="M856.55,-243.5C928.12,-243.5 1043.49,-243.5 1098.86,-243.5"/>
<polygon fill="midnightblue" stroke="midnightblue" points="856.32,-240 846.32,-243.5 856.32,-247 856.32,-240"/>
</g>
<!-- Node20&#45;&gt;Node8 -->
<g id="edge23" class="edge">
<title>Node20&#45;&gt;Node8</title>
<path fill="none" stroke="#9a32cd" stroke-dasharray="5,2" d="M1210.25,-65.93C1258.32,-68.58 1320.79,-75.25 1374,-91.5 1397.82,-98.77 1422.93,-113.26 1438.16,-122.92"/>
<polygon fill="#9a32cd" stroke="#9a32cd" points="1210.38,-62.43 1200.21,-65.42 1210.02,-69.42 1210.38,-62.43"/>
<text text-anchor="middle" x="1307.5" y="-94.5" font-family="Helvetica,sans-Serif" font-size="10.00"> m_SubjectImplementation</text>
</g>
<!-- Node21&#45;&gt;Node8 -->
<g id="edge25" class="edge">
<title>Node21&#45;&gt;Node8</title>
<path fill="none" stroke="#9a32cd" stroke-dasharray="5,2" d="M1006.9,-95.14C1111.64,-103.93 1335.74,-122.71 1419.77,-129.76"/>
<polygon fill="#9a32cd" stroke="#9a32cd" points="1007.1,-91.65 996.84,-94.3 1006.52,-98.62 1007.1,-91.65"/>
<text text-anchor="middle" x="1131.5" y="-114.5" font-family="Helvetica,sans-Serif" font-size="10.00"> m_MTime</text>
</g>
</g>
</svg>
