<?xml version="1.0" encoding="UTF-8" standalone="no"?>
<!DOCTYPE svg PUBLIC "-//W3C//DTD SVG 1.1//EN"
 "http://www.w3.org/Graphics/SVG/1.1/DTD/svg11.dtd">
<!-- Generated by graphviz version 2.43.0 (0)
 -->
<!-- Title: itk::simple::AffineTransform::MyVisitor Pages: 1 -->
<!--zoomable 256 -->
<svg id="main" version="1.1" xmlns="http://www.w3.org/2000/svg" xmlns:xlink="http://www.w3.org/1999/xlink" xml:space="preserve" onload="init(evt)">
<style type="text/css"><![CDATA[
.edge:hover path { stroke: red; }
.edge:hover polygon { stroke: red; fill: red; }
]]></style>
<script type="text/javascript"><![CDATA[
var edges = document.getElementsByTagName('g');
if (edges && edges.length) {
  for (var i=0;i<edges.length;i++) {
    if (edges[i].id.substr(0,4)=='edge') {
      edges[i].setAttribute('class','edge');
    }
  }
}
]]></script>
        <defs>
                <circle id="rim" cx="0" cy="0" r="7"/>
                <circle id="rim2" cx="0" cy="0" r="3.5"/>
                <g id="zoomPlus">
                        <use xlink:href="#rim" fill="#404040">
                                <set attributeName="fill" to="#808080" begin="zoomplus.mouseover" end="zoomplus.mouseout"/>
                        </use>
                        <path d="M-4,0h8M0,-4v8" fill="none" stroke="white" stroke-width="1.5" pointer-events="none"/>
                </g>
                <g id="zoomMin">
                        <use xlink:href="#rim" fill="#404040">
                                <set attributeName="fill" to="#808080" begin="zoomminus.mouseover" end="zoomminus.mouseout"/>
                        </use>
                        <path d="M-4,0h8" fill="none" stroke="white" stroke-width="1.5" pointer-events="none"/>
                </g>
                <g id="dirArrow">
                        <path fill="none" stroke="white" stroke-width="1.5" d="M0,-3.0v7 M-2.5,-0.5L0,-3.0L2.5,-0.5"/>
                </g>
               <g id="resetDef">
                       <use xlink:href="#rim2" fill="#404040">
                               <set attributeName="fill" to="#808080" begin="reset.mouseover" end="reset.mouseout"/>
                       </use>
               </g>
        </defs>

<script type="text/javascript">
var viewWidth = 1953;
var viewHeight = 256;
var sectionId = 'dynsection-0';
</script>
<script xlink:href="svgpan.js"/>
<svg id="graph" class="graph">
<g id="viewport">
<title>itk::simple::AffineTransform::MyVisitor</title>
<polygon fill="white" stroke="transparent" points="-4,4 -4,-251.5 1949,-251.5 1949,4 -4,4"/>
<!-- Node1 -->
<g id="node1" class="node">
<title>Node1</title>
<g id="a_node1"><a xlink:title=" ">
<polygon fill="#bfbfbf" stroke="black" points="1793,-193 1793,-223 1945,-223 1945,-193 1793,-193"/>
<text text-anchor="start" x="1801" y="-211" font-family="Helvetica,sans-Serif" font-size="10.00">itk::simple::AffineTransform</text>
<text text-anchor="middle" x="1869" y="-200" font-family="Helvetica,sans-Serif" font-size="10.00">::MyVisitor</text>
</a>
</g>
</g>
<!-- Node2 -->
<g id="node2" class="node">
<title>Node2</title>
<g id="a_node2"><a xlink:href="https://www.itk.org/Doxygen/html/classitk_1_1TransformBaseTemplate.html" xlink:title=" ">
<polygon fill="white" stroke="black" points="1552,-171 1552,-201 1705,-201 1705,-171 1552,-171"/>
<text text-anchor="start" x="1560" y="-189" font-family="Helvetica,sans-Serif" font-size="10.00">itk::TransformBaseTemplate</text>
<text text-anchor="middle" x="1628.5" y="-178" font-family="Helvetica,sans-Serif" font-size="10.00">&lt; TParametersValueType &gt;</text>
</a>
</g>
</g>
<!-- Node2&#45;&gt;Node1 -->
<g id="edge1" class="edge">
<title>Node2&#45;&gt;Node1</title>
<path fill="none" stroke="#9a32cd" stroke-dasharray="5,2" d="M1715.28,-189.37C1734.93,-190.51 1755.71,-192.02 1775,-194 1780.85,-194.6 1786.89,-195.31 1792.96,-196.08"/>
<polygon fill="#9a32cd" stroke="#9a32cd" points="1715.3,-185.86 1705.12,-188.8 1714.91,-192.85 1715.3,-185.86"/>
<text text-anchor="middle" x="1749" y="-197" font-family="Helvetica,sans-Serif" font-size="10.00"> transform</text>
</g>
<!-- Node3 -->
<g id="node3" class="node">
<title>Node3</title>
<g id="a_node3"><a xlink:href="https://www.itk.org/Doxygen/html/classitk_1_1Object.html" xlink:title=" ">
<polygon fill="white" stroke="black" points="1420,-99.5 1420,-118.5 1487,-118.5 1487,-99.5 1420,-99.5"/>
<text text-anchor="middle" x="1453.5" y="-106.5" font-family="Helvetica,sans-Serif" font-size="10.00">itk::Object</text>
</a>
</g>
</g>
<!-- Node3&#45;&gt;Node2 -->
<g id="edge2" class="edge">
<title>Node3&#45;&gt;Node2</title>
<path fill="none" stroke="midnightblue" d="M1485.35,-122.73C1515.83,-136.3 1562.31,-156.99 1593.75,-170.98"/>
<polygon fill="midnightblue" stroke="midnightblue" points="1486.62,-119.47 1476.06,-118.6 1483.77,-125.86 1486.62,-119.47"/>
</g>
<!-- Node4 -->
<g id="node4" class="node">
<title>Node4</title>
<g id="a_node4"><a xlink:href="https://www.itk.org/Doxygen/html/classitk_1_1LightObject.html" xlink:title=" ">
<polygon fill="white" stroke="black" points="1086,-39.5 1086,-58.5 1177,-58.5 1177,-39.5 1086,-39.5"/>
<text text-anchor="middle" x="1131.5" y="-46.5" font-family="Helvetica,sans-Serif" font-size="10.00">itk::LightObject</text>
</a>
</g>
</g>
<!-- Node4&#45;&gt;Node3 -->
<g id="edge3" class="edge">
<title>Node4&#45;&gt;Node3</title>
<path fill="none" stroke="midnightblue" d="M1187.5,-54.84C1236.73,-60.62 1310.69,-70.69 1374,-85 1391.1,-88.87 1409.89,-94.56 1424.8,-99.43"/>
<polygon fill="midnightblue" stroke="midnightblue" points="1187.71,-51.34 1177.38,-53.67 1186.91,-58.29 1187.71,-51.34"/>
</g>
<!-- Node5 -->
<g id="node5" class="node">
<title>Node5</title>
<g id="a_node5"><a xlink:title=" ">
<polygon fill="white" stroke="#bfbfbf" points="740.5,-38.5 740.5,-57.5 847.5,-57.5 847.5,-38.5 740.5,-38.5"/>
<text text-anchor="middle" x="794" y="-45.5" font-family="Helvetica,sans-Serif" font-size="10.00">std::atomic&lt; int &gt;</text>
</a>
</g>
</g>
<!-- Node5&#45;&gt;Node4 -->
<g id="edge4" class="edge">
<title>Node5&#45;&gt;Node4</title>
<path fill="none" stroke="#9a32cd" stroke-dasharray="5,2" d="M858.12,-48.19C924.52,-48.39 1027.32,-48.69 1085.79,-48.87"/>
<polygon fill="#9a32cd" stroke="#9a32cd" points="857.8,-44.69 847.79,-48.16 857.78,-51.69 857.8,-44.69"/>
<text text-anchor="middle" x="950.5" y="-52" font-family="Helvetica,sans-Serif" font-size="10.00"> m_ReferenceCount</text>
</g>
<!-- Node6 -->
<g id="node6" class="node">
<title>Node6</title>
<g id="a_node6"><a xlink:title="STL class.">
<polygon fill="white" stroke="#bfbfbf" points="460.5,-27.5 460.5,-46.5 560.5,-46.5 560.5,-27.5 460.5,-27.5"/>
<text text-anchor="middle" x="510.5" y="-34.5" font-family="Helvetica,sans-Serif" font-size="10.00">std::atomic&lt; T &gt;</text>
</a>
</g>
</g>
<!-- Node6&#45;&gt;Node5 -->
<g id="edge5" class="edge">
<title>Node6&#45;&gt;Node5</title>
<path fill="none" stroke="orange" stroke-dasharray="5,2" d="M570.58,-39.31C620.71,-41.27 691.98,-44.05 740.23,-45.94"/>
<polygon fill="orange" stroke="orange" points="570.66,-35.81 560.53,-38.92 570.39,-42.8 570.66,-35.81"/>
<text text-anchor="middle" x="656" y="-48" font-family="Helvetica,sans-Serif" font-size="10.00"> &lt; int &gt;</text>
</g>
<!-- Node18 -->
<g id="node18" class="node">
<title>Node18</title>
<g id="a_node18"><a xlink:href="https://www.itk.org/Doxygen/html/classitk_1_1TimeStamp.html" xlink:title=" ">
<polygon fill="white" stroke="black" points="904.5,-0.5 904.5,-19.5 996.5,-19.5 996.5,-0.5 904.5,-0.5"/>
<text text-anchor="middle" x="950.5" y="-7.5" font-family="Helvetica,sans-Serif" font-size="10.00">itk::TimeStamp</text>
</a>
</g>
</g>
<!-- Node6&#45;&gt;Node18 -->
<g id="edge22" class="edge">
<title>Node6&#45;&gt;Node18</title>
<path fill="none" stroke="#9a32cd" stroke-dasharray="5,2" d="M570.91,-29.21C581.58,-28 592.61,-26.86 603,-26 710.87,-17.04 838.09,-12.77 904.3,-11.03"/>
<polygon fill="#9a32cd" stroke="#9a32cd" points="570.34,-25.76 560.82,-30.4 571.16,-32.71 570.34,-25.76"/>
<text text-anchor="middle" x="656" y="-29" font-family="Helvetica,sans-Serif" font-size="10.00"> m_GlobalTimeStamp</text>
</g>
<!-- Node7 -->
<g id="node7" class="node">
<title>Node7</title>
<g id="a_node7"><a xlink:title=" ">
<polygon fill="white" stroke="#bfbfbf" points="0,-83.5 0,-102.5 29,-102.5 29,-83.5 0,-83.5"/>
<text text-anchor="middle" x="14.5" y="-90.5" font-family="Helvetica,sans-Serif" font-size="10.00">T</text>
</a>
</g>
</g>
<!-- Node7&#45;&gt;Node6 -->
<g id="edge6" class="edge">
<title>Node7&#45;&gt;Node6</title>
<path fill="none" stroke="#9a32cd" stroke-dasharray="5,2" d="M35.21,-77.3C39,-74.66 43.03,-72.1 47,-70 74.95,-55.19 82.9,-51.77 114,-46 236.9,-23.21 384.95,-28.27 460.27,-33.11"/>
<polygon fill="#9a32cd" stroke="#9a32cd" points="32.9,-74.66 26.94,-83.42 37.06,-80.29 32.9,-74.66"/>
<text text-anchor="middle" x="173" y="-49" font-family="Helvetica,sans-Serif" font-size="10.00"> ptr</text>
</g>
<!-- Node11 -->
<g id="node11" class="node">
<title>Node11</title>
<g id="a_node11"><a xlink:title="STL class.">
<polygon fill="white" stroke="#bfbfbf" points="122.5,-104.5 122.5,-123.5 223.5,-123.5 223.5,-104.5 122.5,-104.5"/>
<text text-anchor="middle" x="173" y="-111.5" font-family="Helvetica,sans-Serif" font-size="10.00">std::map&lt; K, T &gt;</text>
</a>
</g>
</g>
<!-- Node7&#45;&gt;Node11 -->
<g id="edge12" class="edge">
<title>Node7&#45;&gt;Node11</title>
<path fill="none" stroke="#9a32cd" stroke-dasharray="5,2" d="M39.19,-96.18C61.16,-99.13 94.54,-103.61 122.35,-107.34"/>
<polygon fill="#9a32cd" stroke="#9a32cd" points="39.49,-92.69 29.11,-94.83 38.56,-99.63 39.49,-92.69"/>
<text text-anchor="middle" x="71.5" y="-107" font-family="Helvetica,sans-Serif" font-size="10.00"> elements</text>
</g>
<!-- Node13 -->
<g id="node13" class="node">
<title>Node13</title>
<g id="a_node13"><a xlink:title="STL class.">
<polygon fill="white" stroke="#bfbfbf" points="114,-66.5 114,-85.5 232,-85.5 232,-66.5 114,-66.5"/>
<text text-anchor="middle" x="173" y="-73.5" font-family="Helvetica,sans-Serif" font-size="10.00">std::shared_ptr&lt; T &gt;</text>
</a>
</g>
</g>
<!-- Node7&#45;&gt;Node13 -->
<g id="edge14" class="edge">
<title>Node7&#45;&gt;Node13</title>
<path fill="none" stroke="#9a32cd" stroke-dasharray="5,2" d="M38.41,-81.59C41.25,-80.54 44.15,-79.64 47,-79 68.5,-74.17 92.6,-72.7 113.86,-72.68"/>
<polygon fill="#9a32cd" stroke="#9a32cd" points="37.04,-78.37 29.21,-85.5 39.78,-84.81 37.04,-78.37"/>
<text text-anchor="middle" x="71.5" y="-82" font-family="Helvetica,sans-Serif" font-size="10.00"> ptr</text>
</g>
<!-- Node14 -->
<g id="node14" class="node">
<title>Node14</title>
<g id="a_node14"><a xlink:title="STL class.">
<polygon fill="white" stroke="#bfbfbf" points="735,-142.5 735,-161.5 853,-161.5 853,-142.5 735,-142.5"/>
<text text-anchor="middle" x="794" y="-149.5" font-family="Helvetica,sans-Serif" font-size="10.00">std::unique_ptr&lt; T &gt;</text>
</a>
</g>
</g>
<!-- Node7&#45;&gt;Node14 -->
<g id="edge16" class="edge">
<title>Node7&#45;&gt;Node14</title>
<path fill="none" stroke="#9a32cd" stroke-dasharray="5,2" d="M32.37,-109.43C36.84,-113.04 41.86,-116.53 47,-119 74.42,-132.18 83.79,-129.45 114,-133 342.39,-159.84 616.81,-156.82 734.62,-153.85"/>
<polygon fill="#9a32cd" stroke="#9a32cd" points="34.39,-106.54 24.57,-102.54 29.75,-111.78 34.39,-106.54"/>
<text text-anchor="middle" x="334" y="-157" font-family="Helvetica,sans-Serif" font-size="10.00"> ptr</text>
</g>
<!-- Node8 -->
<g id="node8" class="node">
<title>Node8</title>
<g id="a_node8"><a xlink:title=" ">
<polygon fill="white" stroke="#bfbfbf" points="1065.5,-78 1065.5,-108 1197.5,-108 1197.5,-78 1065.5,-78"/>
<text text-anchor="start" x="1073.5" y="-96" font-family="Helvetica,sans-Serif" font-size="10.00">std::unique_ptr&lt; itk</text>
<text text-anchor="middle" x="1131.5" y="-85" font-family="Helvetica,sans-Serif" font-size="10.00">::MetaDataDictionary &gt;</text>
</a>
</g>
</g>
<!-- Node8&#45;&gt;Node3 -->
<g id="edge7" class="edge">
<title>Node8&#45;&gt;Node3</title>
<path fill="none" stroke="#9a32cd" stroke-dasharray="5,2" d="M1207.76,-89.12C1255.51,-87.62 1318.52,-87.4 1374,-93 1389.22,-94.54 1405.86,-97.71 1419.88,-100.82"/>
<polygon fill="#9a32cd" stroke="#9a32cd" points="1207.38,-85.63 1197.51,-89.47 1207.62,-92.63 1207.38,-85.63"/>
<text text-anchor="middle" x="1307.5" y="-96" font-family="Helvetica,sans-Serif" font-size="10.00"> m_MetaDataDictionary</text>
</g>
<!-- Node9 -->
<g id="node9" class="node">
<title>Node9</title>
<g id="a_node9"><a xlink:href="https://www.itk.org/Doxygen/html/classitk_1_1MetaDataDictionary.html" xlink:title=" ">
<polygon fill="white" stroke="black" points="727,-76.5 727,-95.5 861,-95.5 861,-76.5 727,-76.5"/>
<text text-anchor="middle" x="794" y="-83.5" font-family="Helvetica,sans-Serif" font-size="10.00">itk::MetaDataDictionary</text>
</a>
</g>
</g>
<!-- Node9&#45;&gt;Node8 -->
<g id="edge8" class="edge">
<title>Node9&#45;&gt;Node8</title>
<path fill="none" stroke="#9a32cd" stroke-dasharray="5,2" d="M871.23,-85.05C873.85,-85.03 876.45,-85.02 879,-85 942.55,-84.62 958.49,-82.66 1022,-85 1036.06,-85.52 1051.13,-86.41 1065.42,-87.42"/>
<polygon fill="#9a32cd" stroke="#9a32cd" points="871,-81.55 861.03,-85.14 871.06,-88.55 871,-81.55"/>
<text text-anchor="middle" x="950.5" y="-88" font-family="Helvetica,sans-Serif" font-size="10.00"> ptr</text>
</g>
<!-- Node10 -->
<g id="node10" class="node">
<title>Node10</title>
<g id="a_node10"><a xlink:title=" ">
<polygon fill="white" stroke="#bfbfbf" points="436,-71 436,-101 585,-101 585,-71 436,-71"/>
<text text-anchor="start" x="444" y="-89" font-family="Helvetica,sans-Serif" font-size="10.00">std::shared_ptr&lt; MetaData</text>
<text text-anchor="middle" x="510.5" y="-78" font-family="Helvetica,sans-Serif" font-size="10.00">DictionaryMapType &gt;</text>
</a>
</g>
</g>
<!-- Node10&#45;&gt;Node9 -->
<g id="edge9" class="edge">
<title>Node10&#45;&gt;Node9</title>
<path fill="none" stroke="#9a32cd" stroke-dasharray="5,2" d="M595.29,-86C637.24,-86 687.31,-86 726.57,-86"/>
<polygon fill="#9a32cd" stroke="#9a32cd" points="595.09,-82.5 585.09,-86 595.09,-89.5 595.09,-82.5"/>
<text text-anchor="middle" x="656" y="-89" font-family="Helvetica,sans-Serif" font-size="10.00"> m_Dictionary</text>
</g>
<!-- Node11&#45;&gt;Node10 -->
<g id="edge10" class="edge">
<title>Node11&#45;&gt;Node10</title>
<path fill="none" stroke="#9a32cd" stroke-dasharray="5,2" d="M233.71,-109.02C290.23,-104.3 375.21,-97.21 435.9,-92.14"/>
<polygon fill="#9a32cd" stroke="#9a32cd" points="233.18,-105.55 223.5,-109.87 233.76,-112.52 233.18,-105.55"/>
<text text-anchor="middle" x="334" y="-111" font-family="Helvetica,sans-Serif" font-size="10.00"> ptr</text>
</g>
<!-- Node12 -->
<g id="node12" class="node">
<title>Node12</title>
<g id="a_node12"><a xlink:title=" ">
<polygon fill="white" stroke="#bfbfbf" points="0,-175.5 0,-194.5 29,-194.5 29,-175.5 0,-175.5"/>
<text text-anchor="middle" x="14.5" y="-182.5" font-family="Helvetica,sans-Serif" font-size="10.00">K</text>
</a>
</g>
</g>
<!-- Node12&#45;&gt;Node11 -->
<g id="edge11" class="edge">
<title>Node12&#45;&gt;Node11</title>
<path fill="none" stroke="#9a32cd" stroke-dasharray="5,2" d="M38.45,-174.59C68.74,-160.85 121.64,-136.85 150.94,-123.55"/>
<polygon fill="#9a32cd" stroke="#9a32cd" points="36.78,-171.5 29.11,-178.82 39.67,-177.88 36.78,-171.5"/>
<text text-anchor="middle" x="71.5" y="-173" font-family="Helvetica,sans-Serif" font-size="10.00"> keys</text>
</g>
<!-- Node13&#45;&gt;Node10 -->
<g id="edge13" class="edge">
<title>Node13&#45;&gt;Node10</title>
<path fill="none" stroke="orange" stroke-dasharray="5,2" d="M242.36,-75.67C291.29,-75.72 358.73,-76.37 418,-79 423.73,-79.25 429.66,-79.58 435.61,-79.94"/>
<polygon fill="orange" stroke="orange" points="242.2,-72.17 232.2,-75.67 242.2,-79.17 242.2,-72.17"/>
<text text-anchor="middle" x="334" y="-82" font-family="Helvetica,sans-Serif" font-size="10.00"> &lt; MetaDataDictionaryMapType &gt;</text>
</g>
<!-- Node14&#45;&gt;Node8 -->
<g id="edge15" class="edge">
<title>Node14&#45;&gt;Node8</title>
<path fill="none" stroke="orange" stroke-dasharray="5,2" d="M839.81,-139.96C852.43,-136.8 866.21,-133.56 879,-131 941.89,-118.42 1014.38,-107.88 1065.33,-101.12"/>
<polygon fill="orange" stroke="orange" points="838.81,-136.6 829.98,-142.47 840.53,-143.39 838.81,-136.6"/>
<text text-anchor="middle" x="950.5" y="-134" font-family="Helvetica,sans-Serif" font-size="10.00"> &lt; itk::MetaDataDictionary &gt;</text>
</g>
<!-- Node17 -->
<g id="node17" class="node">
<title>Node17</title>
<g id="a_node17"><a xlink:title=" ">
<polygon fill="white" stroke="#bfbfbf" points="1063,-127 1063,-157 1200,-157 1200,-127 1063,-127"/>
<text text-anchor="start" x="1071" y="-145" font-family="Helvetica,sans-Serif" font-size="10.00">std::unique_ptr&lt; Subject</text>
<text text-anchor="middle" x="1131.5" y="-134" font-family="Helvetica,sans-Serif" font-size="10.00">Implementation &gt;</text>
</a>
</g>
</g>
<!-- Node14&#45;&gt;Node17 -->
<g id="edge20" class="edge">
<title>Node14&#45;&gt;Node17</title>
<path fill="none" stroke="orange" stroke-dasharray="5,2" d="M863.26,-149.97C921.47,-148.23 1004.7,-145.75 1062.76,-144.02"/>
<polygon fill="orange" stroke="orange" points="862.95,-146.47 853.06,-150.27 863.16,-153.47 862.95,-146.47"/>
<text text-anchor="middle" x="950.5" y="-153" font-family="Helvetica,sans-Serif" font-size="10.00"> &lt; SubjectImplementation &gt;</text>
</g>
<!-- Node21 -->
<g id="node21" class="node">
<title>Node21</title>
<g id="a_node21"><a xlink:title=" ">
<polygon fill="white" stroke="#bfbfbf" points="1040,-217 1040,-247 1223,-247 1223,-217 1040,-217"/>
<text text-anchor="start" x="1048" y="-235" font-family="Helvetica,sans-Serif" font-size="10.00">std::unique_ptr&lt; PimpleTransform</text>
<text text-anchor="middle" x="1131.5" y="-224" font-family="Helvetica,sans-Serif" font-size="10.00">Base &gt;</text>
</a>
</g>
</g>
<!-- Node14&#45;&gt;Node21 -->
<g id="edge27" class="edge">
<title>Node14&#45;&gt;Node21</title>
<path fill="none" stroke="orange" stroke-dasharray="5,2" d="M845.01,-163.92C904.25,-178.05 1003.01,-201.6 1067.45,-216.96"/>
<polygon fill="orange" stroke="orange" points="845.68,-160.49 835.14,-161.57 844.05,-167.29 845.68,-160.49"/>
<text text-anchor="middle" x="950.5" y="-210" font-family="Helvetica,sans-Serif" font-size="10.00"> &lt; PimpleTransformBase &gt;</text>
</g>
<!-- Node15 -->
<g id="node15" class="node">
<title>Node15</title>
<g id="a_node15"><a xlink:title="STL class.">
<polygon fill="white" stroke="#bfbfbf" points="1099,-176.5 1099,-195.5 1164,-195.5 1164,-176.5 1099,-176.5"/>
<text text-anchor="middle" x="1131.5" y="-183.5" font-family="Helvetica,sans-Serif" font-size="10.00">std::string</text>
</a>
</g>
</g>
<!-- Node15&#45;&gt;Node2 -->
<g id="edge23" class="edge">
<title>Node15&#45;&gt;Node2</title>
<path fill="none" stroke="#9a32cd" stroke-dasharray="5,2" d="M1174.34,-186C1257.83,-186 1446.14,-186 1551.85,-186"/>
<polygon fill="#9a32cd" stroke="#9a32cd" points="1174.22,-182.5 1164.22,-186 1174.22,-189.5 1174.22,-182.5"/>
<text text-anchor="middle" x="1453.5" y="-200" font-family="Helvetica,sans-Serif" font-size="10.00"> m_InputSpaceName</text>
<text text-anchor="middle" x="1453.5" y="-189" font-family="Helvetica,sans-Serif" font-size="10.00">m_OutputSpaceName</text>
</g>
<!-- Node15&#45;&gt;Node3 -->
<g id="edge17" class="edge">
<title>Node15&#45;&gt;Node3</title>
<path fill="none" stroke="#9a32cd" stroke-dasharray="5,2" d="M1173.81,-177.36C1189.29,-173.99 1206.99,-169.99 1223,-166 1231.06,-163.99 1232.9,-162.82 1241,-161 1299.53,-147.84 1316.07,-153.57 1374,-138 1393.22,-132.83 1414.35,-124.89 1429.84,-118.62"/>
<polygon fill="#9a32cd" stroke="#9a32cd" points="1173.05,-173.94 1164.01,-179.47 1174.52,-180.78 1173.05,-173.94"/>
<text text-anchor="middle" x="1307.5" y="-164" font-family="Helvetica,sans-Serif" font-size="10.00"> m_ObjectName</text>
</g>
<!-- Node16 -->
<g id="node16" class="node">
<title>Node16</title>
<g id="a_node16"><a xlink:title="STL class.">
<polygon fill="white" stroke="#bfbfbf" points="742,-197 742,-227 846,-227 846,-197 742,-197"/>
<text text-anchor="start" x="750" y="-215" font-family="Helvetica,sans-Serif" font-size="10.00">std::basic_string&lt;</text>
<text text-anchor="middle" x="794" y="-204" font-family="Helvetica,sans-Serif" font-size="10.00"> char &gt;</text>
</a>
</g>
</g>
<!-- Node16&#45;&gt;Node15 -->
<g id="edge18" class="edge">
<title>Node16&#45;&gt;Node15</title>
<path fill="none" stroke="midnightblue" d="M856.49,-209.02C902.19,-206.6 966.04,-202.82 1022,-198 1047.87,-195.77 1077.12,-192.49 1098.73,-189.92"/>
<polygon fill="midnightblue" stroke="midnightblue" points="856.24,-205.52 846.44,-209.54 856.61,-212.52 856.24,-205.52"/>
</g>
<!-- Node17&#45;&gt;Node3 -->
<g id="edge19" class="edge">
<title>Node17&#45;&gt;Node3</title>
<path fill="none" stroke="#9a32cd" stroke-dasharray="5,2" d="M1210.37,-130.73C1220.66,-129.39 1231.08,-128.11 1241,-127 1304.18,-119.95 1378.24,-114.23 1419.84,-111.25"/>
<polygon fill="#9a32cd" stroke="#9a32cd" points="1209.6,-127.3 1200.15,-132.09 1210.52,-134.24 1209.6,-127.3"/>
<text text-anchor="middle" x="1307.5" y="-130" font-family="Helvetica,sans-Serif" font-size="10.00"> m_SubjectImplementation</text>
</g>
<!-- Node18&#45;&gt;Node3 -->
<g id="edge21" class="edge">
<title>Node18&#45;&gt;Node3</title>
<path fill="none" stroke="#9a32cd" stroke-dasharray="5,2" d="M1006.62,-6.13C1089.94,-2.47 1251.24,-3.99 1374,-58 1399.29,-69.13 1425.61,-87.97 1440.44,-99.37"/>
<polygon fill="#9a32cd" stroke="#9a32cd" points="1006.43,-2.64 996.61,-6.61 1006.77,-9.63 1006.43,-2.64"/>
<text text-anchor="middle" x="1131.5" y="-20" font-family="Helvetica,sans-Serif" font-size="10.00"> m_MTime</text>
</g>
<!-- Node19 -->
<g id="node19" class="node">
<title>Node19</title>
<g id="a_node19"><a xlink:href="classitk_1_1simple_1_1AffineTransform.html" target="_top" xlink:title="An affine transformation about a fixed center with translation for a 2D or 3D coordinate.">
<polygon fill="white" stroke="black" points="1552.5,-221.5 1552.5,-240.5 1704.5,-240.5 1704.5,-221.5 1552.5,-221.5"/>
<text text-anchor="middle" x="1628.5" y="-228.5" font-family="Helvetica,sans-Serif" font-size="10.00">itk::simple::AffineTransform</text>
</a>
</g>
</g>
<!-- Node19&#45;&gt;Node1 -->
<g id="edge24" class="edge">
<title>Node19&#45;&gt;Node1</title>
<path fill="none" stroke="#9a32cd" stroke-dasharray="5,2" d="M1714.67,-222.79C1740.2,-220.32 1768,-217.64 1792.83,-215.25"/>
<polygon fill="#9a32cd" stroke="#9a32cd" points="1714.25,-219.31 1704.64,-223.75 1714.93,-226.28 1714.25,-219.31"/>
<text text-anchor="middle" x="1749" y="-225" font-family="Helvetica,sans-Serif" font-size="10.00"> that</text>
</g>
<!-- Node20 -->
<g id="node20" class="node">
<title>Node20</title>
<g id="a_node20"><a xlink:href="classitk_1_1simple_1_1Transform.html" target="_top" xlink:title="A simplified wrapper around a variety of ITK transforms.">
<polygon fill="white" stroke="black" points="1392,-226.5 1392,-245.5 1515,-245.5 1515,-226.5 1392,-226.5"/>
<text text-anchor="middle" x="1453.5" y="-233.5" font-family="Helvetica,sans-Serif" font-size="10.00">itk::simple::Transform</text>
</a>
</g>
</g>
<!-- Node20&#45;&gt;Node19 -->
<g id="edge25" class="edge">
<title>Node20&#45;&gt;Node19</title>
<path fill="none" stroke="midnightblue" d="M1525.06,-233.96C1534.08,-233.7 1543.34,-233.43 1552.42,-233.17"/>
<polygon fill="midnightblue" stroke="midnightblue" points="1524.9,-230.46 1515.01,-234.25 1525.1,-237.46 1524.9,-230.46"/>
</g>
<!-- Node21&#45;&gt;Node20 -->
<g id="edge26" class="edge">
<title>Node21&#45;&gt;Node20</title>
<path fill="none" stroke="#9a32cd" stroke-dasharray="5,2" d="M1233.6,-233.26C1285.59,-233.91 1347.22,-234.68 1391.82,-235.24"/>
<polygon fill="#9a32cd" stroke="#9a32cd" points="1233.39,-229.76 1223.34,-233.14 1233.3,-236.76 1233.39,-229.76"/>
<text text-anchor="middle" x="1307.5" y="-237" font-family="Helvetica,sans-Serif" font-size="10.00"> m_PimpleTransform</text>
</g>
</g>
</svg>
        <g id="navigator" transform="translate(0 0)" fill="#404254">
                <rect fill="#f2f5e9" fill-opacity="0.5" stroke="#606060" stroke-width=".5" x="0" y="0" width="60" height="60"/>
                <use id="zoomplus" xlink:href="#zoomPlus" x="17" y="9" onmousedown="handleZoom(evt,'in')"/>
                <use id="zoomminus" xlink:href="#zoomMin" x="42" y="9" onmousedown="handleZoom(evt,'out')"/>
                <use id="reset" xlink:href="#resetDef" x="30" y="36" onmousedown="handleReset()"/>
                <g id="arrowUp" xlink:href="#dirArrow" transform="translate(30 24)" onmousedown="handlePan(0,-1)">
                  <use xlink:href="#rim" fill="#404040">
                        <set attributeName="fill" to="#808080" begin="arrowUp.mouseover" end="arrowUp.mouseout"/>
                  </use>
                  <path fill="none" stroke="white" stroke-width="1.5" d="M0,-3.0v7 M-2.5,-0.5L0,-3.0L2.5,-0.5"/>
                </g>
                <g id="arrowRight" xlink:href="#dirArrow" transform="rotate(90) translate(36 -43)" onmousedown="handlePan(1,0)">
                  <use xlink:href="#rim" fill="#404040">
                        <set attributeName="fill" to="#808080" begin="arrowRight.mouseover" end="arrowRight.mouseout"/>
                  </use>
                  <path fill="none" stroke="white" stroke-width="1.5" d="M0,-3.0v7 M-2.5,-0.5L0,-3.0L2.5,-0.5"/>
                </g>
                <g id="arrowDown" xlink:href="#dirArrow" transform="rotate(180) translate(-30 -48)" onmousedown="handlePan(0,1)">
                  <use xlink:href="#rim" fill="#404040">
                        <set attributeName="fill" to="#808080" begin="arrowDown.mouseover" end="arrowDown.mouseout"/>
                  </use>
                  <path fill="none" stroke="white" stroke-width="1.5" d="M0,-3.0v7 M-2.5,-0.5L0,-3.0L2.5,-0.5"/>
                </g>
                <g id="arrowLeft" xlink:href="#dirArrow" transform="rotate(270) translate(-36 17)" onmousedown="handlePan(-1,0)">
                  <use xlink:href="#rim" fill="#404040">
                        <set attributeName="fill" to="#808080" begin="arrowLeft.mouseover" end="arrowLeft.mouseout"/>
                  </use>
                  <path fill="none" stroke="white" stroke-width="1.5" d="M0,-3.0v7 M-2.5,-0.5L0,-3.0L2.5,-0.5"/>
                </g>
        </g>
        <svg viewBox="0 0 15 15" width="100%" height="30px" preserveAspectRatio="xMaxYMin meet">
         <g id="arrow_out" transform="scale(0.3 0.3)">
          <a xlink:href="structitk_1_1simple_1_1AffineTransform_1_1MyVisitor__coll__graph_org.svg" target="_base">
           <rect id="button" ry="5" rx="5" y="6" x="6" height="38" width="38"
                fill="#f2f5e9" fill-opacity="0.5" stroke="#606060" stroke-width="1.0"/>
           <path id="arrow"
             d="M 11.500037,31.436501 C 11.940474,20.09759 22.043105,11.32322 32.158766,21.979434 L 37.068811,17.246167 C 37.068811,17.246167 37.088388,32 37.088388,32 L 22.160133,31.978069 C 22.160133,31.978069 26.997745,27.140456 26.997745,27.140456 C 18.528582,18.264221 13.291696,25.230495 11.500037,31.436501 z"
             style="fill:#404040;"/>
          </a>
         </g>
        </svg>
</svg>
