<?xml version="1.0" encoding="UTF-8" standalone="no"?>
<!DOCTYPE svg PUBLIC "-//W3C//DTD SVG 1.1//EN"
 "http://www.w3.org/Graphics/SVG/1.1/DTD/svg11.dtd">
<!-- Generated by graphviz version 2.43.0 (0)
 -->
<!-- Title: itk::simple::IsVector&lt; itk::VectorImage&lt; TPixelType, VImageDimension &gt; &gt; Pages: 1 -->
<svg width="764pt" height="112pt"
 viewBox="0.00 0.00 764.00 112.00" xmlns="http://www.w3.org/2000/svg" xmlns:xlink="http://www.w3.org/1999/xlink">
<g id="graph0" class="graph" transform="scale(1 1) rotate(0) translate(4 108)">
<title>itk::simple::IsVector&lt; itk::VectorImage&lt; TPixelType, VImageDimension &gt; &gt;</title>
<!-- Node1 -->
<g id="Node000001" class="node">
<title>Node1</title>
<g id="a_Node000001"><a xlink:title=" ">
<polygon fill="#999999" stroke="#666666" points="756,-77.5 582,-77.5 582,-36.5 756,-36.5 756,-77.5"/>
<text text-anchor="start" x="590" y="-65.5" font-family="Helvetica,sans-Serif" font-size="10.00">itk::simple::IsVector</text>
<text text-anchor="start" x="590" y="-54.5" font-family="Helvetica,sans-Serif" font-size="10.00">&lt; itk::VectorImage&lt; TPixelType,</text>
<text text-anchor="middle" x="669" y="-43.5" font-family="Helvetica,sans-Serif" font-size="10.00"> VImageDimension &gt; &gt;</text>
</a>
</g>
</g>
<!-- Node2 -->
<g id="Node000002" class="node">
<title>Node2</title>
<g id="a_Node000002"><a xlink:href="structitk_1_1simple_1_1IsVector.html" target="_top" xlink:title=" ">
<polygon fill="white" stroke="#666666" points="545,-52 339,-52 339,0 545,0 545,-52"/>
<text text-anchor="start" x="347" y="-40" font-family="Helvetica,sans-Serif" font-size="10.00">itk::simple::IsVector</text>
<text text-anchor="start" x="347" y="-29" font-family="Helvetica,sans-Serif" font-size="10.00">&lt; ImageTypeToPixelID</text>
<text text-anchor="start" x="347" y="-18" font-family="Helvetica,sans-Serif" font-size="10.00">&lt; itk::VectorImage&lt; TPixelType,</text>
<text text-anchor="middle" x="442" y="-7" font-family="Helvetica,sans-Serif" font-size="10.00"> VImageDimension &gt; &gt;::PixelIDType &gt;</text>
</a>
</g>
</g>
<!-- Node2&#45;&gt;Node1 -->
<g id="edge1_Node000001_Node000002" class="edge">
<title>Node2&#45;&gt;Node1</title>
<g id="a_edge1_Node000001_Node000002"><a xlink:title=" ">
<path fill="none" stroke="#63b8ff" d="M555.32,-41.47C564.21,-42.7 573.1,-43.92 581.77,-45.12"/>
<polygon fill="#63b8ff" stroke="#63b8ff" points="555.68,-37.99 545.3,-40.09 554.72,-44.93 555.68,-37.99"/>
</a>
</g>
</g>
<!-- Node3 -->
<g id="Node000003" class="node">
<title>Node3</title>
<g id="a_Node000003"><a xlink:href="structitk_1_1simple_1_1IsVector.html" target="_top" xlink:title=" ">
<polygon fill="white" stroke="#666666" points="113,-72 0,-72 0,-42 113,-42 113,-72"/>
<text text-anchor="start" x="8" y="-60" font-family="Helvetica,sans-Serif" font-size="10.00">itk::simple::IsVector</text>
<text text-anchor="middle" x="56.5" y="-49" font-family="Helvetica,sans-Serif" font-size="10.00">&lt; TPixelIDType &gt;</text>
</a>
</g>
</g>
<!-- Node3&#45;&gt;Node1 -->
<g id="edge3_Node000001_Node000003" class="edge">
<title>Node3&#45;&gt;Node1</title>
<g id="a_edge3_Node000001_Node000003"><a xlink:title=" ">
<path fill="none" stroke="orange" stroke-dasharray="5,2" d="M122.93,-72.92C125.65,-73.33 128.35,-73.7 131,-74 289.24,-92.06 475.29,-78.47 581.65,-67.41"/>
<polygon fill="orange" stroke="orange" points="123.5,-69.47 113.05,-71.25 122.32,-76.37 123.5,-69.47"/>
</a>
</g>
<text text-anchor="start" x="351" y="-96" font-family="Helvetica,sans-Serif" font-size="10.00" fill="grey"> &lt; itk::VectorImage</text>
<text text-anchor="middle" x="442" y="-85" font-family="Helvetica,sans-Serif" font-size="10.00" fill="grey">&lt; TPixelType, VImageDimension &gt; &gt;</text>
</g>
<!-- Node3&#45;&gt;Node2 -->
<g id="edge2_Node000002_Node000003" class="edge">
<title>Node3&#45;&gt;Node2</title>
<g id="a_edge2_Node000002_Node000003"><a xlink:title=" ">
<path fill="none" stroke="orange" stroke-dasharray="5,2" d="M122.97,-42.17C125.67,-41.74 128.36,-41.35 131,-41 199.91,-31.9 278.09,-28.16 338.69,-26.69"/>
<polygon fill="orange" stroke="orange" points="122.37,-38.73 113.11,-43.88 123.56,-45.62 122.37,-38.73"/>
</a>
</g>
<text text-anchor="start" x="131" y="-66" font-family="Helvetica,sans-Serif" font-size="10.00" fill="grey"> &lt; ImageTypeToPixelID</text>
<text text-anchor="start" x="131" y="-55" font-family="Helvetica,sans-Serif" font-size="10.00" fill="grey">&lt; itk::VectorImage&lt; TPixelType,</text>
<text text-anchor="middle" x="226" y="-44" font-family="Helvetica,sans-Serif" font-size="10.00" fill="grey"> VImageDimension &gt; &gt;::PixelIDType &gt;</text>
</g>
</g>
</svg>
