<?xml version="1.0" encoding="UTF-8" standalone="no"?>
<!DOCTYPE svg PUBLIC "-//W3C//DTD SVG 1.1//EN"
 "http://www.w3.org/Graphics/SVG/1.1/DTD/svg11.dtd">
<!-- Generated by graphviz version 2.43.0 (0)
 -->
<!-- Title: itk::simple::IsInstantiated&lt; itk::Image&lt; TPixelType, VImageDimension &gt;, 0 &gt; Pages: 1 -->
<!--zoomable 108 -->

<svg id="main" version="1.1" xmlns="http://www.w3.org/2000/svg" xmlns:xlink="http://www.w3.org/1999/xlink" xml:space="preserve" onload="init(evt)">

<style type="text/css"><![CDATA[
.node, .edge {opacity: 0.7;}
.node.selected, .edge.selected {opacity: 1;}
.edge:hover path { stroke: red; }
.edge:hover polygon { stroke: red; fill: red; }
]]></style>

<defs>
  <circle id="rim" cx="0" cy="0" r="7"/>
  <circle id="rim2" cx="0" cy="0" r="3.5"/>
  <g id="zoomPlus">
    <use xlink:href="#rim" fill="#404040"><set attributeName="fill" to="#808080" begin="zoomplus.mouseover" end="zoomplus.mouseout"/></use>
    <path d="M-4,0h8M0,-4v8" fill="none" stroke="white" stroke-width="1.5" pointer-events="none"/>
  </g>
  <g id="zoomMin">
    <use xlink:href="#rim" fill="#404040"><set attributeName="fill" to="#808080" begin="zoomminus.mouseover" end="zoomminus.mouseout"/></use>
    <path d="M-4,0h8" fill="none" stroke="white" stroke-width="1.5" pointer-events="none"/>
  </g>
  <g id="arrowUp" transform="translate(30 24)">
    <use xlink:href="#rim"/>
    <path pointer-events="none" fill="none" stroke="white" stroke-width="1.5" d="M0,-3.0v7 M-2.5,-0.5L0,-3.0L2.5,-0.5"/>
  </g>
  <g id="arrowRight" transform="rotate(90) translate(36 -43)">
    <use xlink:href="#rim"/>
    <path pointer-events="none" fill="none" stroke="white" stroke-width="1.5" d="M0,-3.0v7 M-2.5,-0.5L0,-3.0L2.5,-0.5"/>
  </g>
  <g id="arrowDown" transform="rotate(180) translate(-30 -48)">
    <use xlink:href="#rim"/>
    <path pointer-events="none" fill="none" stroke="white" stroke-width="1.5" d="M0,-3.0v7 M-2.5,-0.5L0,-3.0L2.5,-0.5"/>
  </g>
  <g id="arrowLeft" transform="rotate(270) translate(-36 17)">
    <use xlink:href="#rim"/>
    <path pointer-events="none" fill="none" stroke="white" stroke-width="1.5" d="M0,-3.0v7 M-2.5,-0.5L0,-3.0L2.5,-0.5"/>
  </g>
  <g id="resetDef">
    <use xlink:href="#rim2" fill="#404040"><set attributeName="fill" to="#808080" begin="reset.mouseover" end="reset.mouseout"/></use>
  </g>
</defs>
<script type="application/ecmascript">
var viewWidth = 815;
var viewHeight = 108;
var sectionId = 'dynsection-0';
</script>
<script type="application/ecmascript" xlink:href="svg.min.js"/>
<svg id="graph" class="graph">
<g id="viewport">
<title>itk::simple::IsInstantiated&lt; itk::Image&lt; TPixelType, VImageDimension &gt;, 0 &gt;</title>
<!-- Node1 -->
<g id="Node000001" class="node">
<title>Node1</title>
<g id="a_Node000001"><a xlink:title=" ">
<polygon fill="#999999" stroke="#666666" points="807,-77.5 663,-77.5 663,-36.5 807,-36.5 807,-77.5"/>
<text text-anchor="start" x="671" y="-65.5" font-family="Helvetica,sans-Serif" font-size="10.00">itk::simple::IsInstantiated</text>
<text text-anchor="start" x="671" y="-54.5" font-family="Helvetica,sans-Serif" font-size="10.00">&lt; itk::Image&lt; TPixelType,</text>
<text text-anchor="middle" x="735" y="-43.5" font-family="Helvetica,sans-Serif" font-size="10.00"> VImageDimension &gt;, 0 &gt;</text>
</a>
</g>
</g>
<!-- Node2 -->
<g id="Node000002" class="node">
<title>Node2</title>
<g id="a_Node000002"><a xlink:href="structitk_1_1simple_1_1IsInstantiated.html" target="_top" xlink:title=" ">
<polygon fill="white" stroke="#666666" points="626,-52 414,-52 414,0 626,0 626,-52"/>
<text text-anchor="start" x="422" y="-40" font-family="Helvetica,sans-Serif" font-size="10.00">itk::simple::IsInstantiated</text>
<text text-anchor="start" x="422" y="-29" font-family="Helvetica,sans-Serif" font-size="10.00">&lt; ImageTypeToPixelID&lt; itk</text>
<text text-anchor="start" x="422" y="-18" font-family="Helvetica,sans-Serif" font-size="10.00">::Image&lt; TPixelType, VImageDimension</text>
<text text-anchor="middle" x="520" y="-7" font-family="Helvetica,sans-Serif" font-size="10.00"> &gt; &gt;::PixelIDType, VImageDimension &gt;</text>
</a>
</g>
</g>
<!-- Node2&#45;&gt;Node1 -->
<g id="edge1_Node000001_Node000002" class="edge">
<title>Node2&#45;&gt;Node1</title>
<g id="a_edge1_Node000001_Node000002"><a xlink:title=" ">
<path fill="none" stroke="#63b8ff" d="M636.39,-42.79C645.35,-44.1 654.22,-45.39 662.75,-46.63"/>
<polygon fill="#63b8ff" stroke="#63b8ff" points="636.65,-39.3 626.25,-41.32 635.64,-46.22 636.65,-39.3"/>
</a>
</g>
</g>
<!-- Node3 -->
<g id="Node000003" class="node">
<title>Node3</title>
<g id="a_Node000003"><a xlink:href="structitk_1_1simple_1_1IsInstantiated.html" target="_top" xlink:title=" ">
<polygon fill="white" stroke="#666666" points="197,-72 0,-72 0,-42 197,-42 197,-72"/>
<text text-anchor="start" x="8" y="-60" font-family="Helvetica,sans-Serif" font-size="10.00">itk::simple::IsInstantiated</text>
<text text-anchor="middle" x="98.5" y="-49" font-family="Helvetica,sans-Serif" font-size="10.00">&lt; TPixelIDType, VImageDimension &gt;</text>
</a>
</g>
</g>
<!-- Node3&#45;&gt;Node1 -->
<g id="edge3_Node000001_Node000003" class="edge">
<title>Node3&#45;&gt;Node1</title>
<g id="a_edge3_Node000001_Node000003"><a xlink:title=" ">
<path fill="none" stroke="orange" stroke-dasharray="5,2" d="M203.73,-73.05C207.53,-73.41 211.3,-73.73 215,-74 374.82,-85.7 562.91,-72.96 662.97,-64.07"/>
<polygon fill="orange" stroke="orange" points="203.92,-69.55 193.61,-72.01 203.2,-76.51 203.92,-69.55"/>
</a>
</g>
<text text-anchor="start" x="455" y="-92" font-family="Helvetica,sans-Serif" font-size="10.00" fill="grey"> &lt; itk::Image&lt; TPixelType,</text>
<text text-anchor="middle" x="520" y="-81" font-family="Helvetica,sans-Serif" font-size="10.00" fill="grey"> VImageDimension &gt;, 0 &gt;</text>
</g>
<!-- Node3&#45;&gt;Node2 -->
<g id="edge2_Node000002_Node000003" class="edge">
<title>Node3&#45;&gt;Node2</title>
<g id="a_edge2_Node000002_Node000003"><a xlink:title=" ">
<path fill="none" stroke="orange" stroke-dasharray="5,2" d="M162.59,-39.65C179.49,-35.72 197.83,-32.1 215,-30 280.75,-21.98 355.1,-20.86 413.81,-21.8"/>
<polygon fill="orange" stroke="orange" points="161.74,-36.26 152.84,-41.99 163.38,-43.06 161.74,-36.26"/>
</a>
</g>
<text text-anchor="start" x="215" y="-66" font-family="Helvetica,sans-Serif" font-size="10.00" fill="grey"> &lt; ImageTypeToPixelID</text>
<text text-anchor="start" x="215" y="-55" font-family="Helvetica,sans-Serif" font-size="10.00" fill="grey">&lt; itk::Image&lt; TPixelType,</text>
<text text-anchor="start" x="215" y="-44" font-family="Helvetica,sans-Serif" font-size="10.00" fill="grey"> VImageDimension &gt; &gt;::PixelIDType,</text>
<text text-anchor="middle" x="305.5" y="-33" font-family="Helvetica,sans-Serif" font-size="10.00" fill="grey"> VImageDimension &gt;</text>
</g>
</g>
</svg>

<g id="navigator" transform="translate(0 0)" fill="#404254">
  <rect fill="#f2f5e9" fill-opacity="0.5" stroke="#606060" stroke-width=".5" x="0" y="0" width="60" height="60"/>
  <use id="zoomplus" xlink:href="#zoomPlus" x="17" y="9" onmousedown="handleZoom(evt,'in')"/>
  <use id="zoomminus" xlink:href="#zoomMin" x="42" y="9" onmousedown="handleZoom(evt,'out')"/>
  <use id="reset" xlink:href="#resetDef" x="30" y="36" onmousedown="handleReset()"/>
   <use id="arrowup" xlink:href="#arrowUp" x="0" y="0" onmousedown="handlePan(0,-1)"/>
  <use id="arrowright" xlink:href="#arrowRight" x="0" y="0" onmousedown="handlePan(1,0)"/>
  <use id="arrowdown" xlink:href="#arrowDown" x="0" y="0" onmousedown="handlePan(0,1)"/>
  <use id="arrowleft" xlink:href="#arrowLeft" x="0" y="0" onmousedown="handlePan(-1,0)"/>
</g>
<svg viewBox="0 0 15 15" width="100%" height="30px" preserveAspectRatio="xMaxYMin meet">
 <g id="arrow_out" transform="scale(0.3 0.3)">
  <a xlink:href="structitk_1_1simple_1_1IsInstantiated_3_01itk_1_1Image_3_01TPixelType_00_01VImageDimension_01_4_00_010_01_4__inherit__graph_org.svg" target="_base">
   <rect id="button" ry="5" rx="5" y="6" x="6" height="38" width="38"
        fill="#f2f5e9" fill-opacity="0.5" stroke="#606060" stroke-width="1.0"/>
   <path id="arrow"
     d="M 11.500037,31.436501 C 11.940474,20.09759 22.043105,11.32322 32.158766,21.979434 L 37.068811,17.246167 C 37.068811,17.246167 37.088388,32 37.088388,32 L 22.160133,31.978069 C 22.160133,31.978069 26.997745,27.140456 26.997745,27.140456 C 18.528582,18.264221 13.291696,25.230495 11.500037,31.436501 z"
     style="fill:#404040;"/>
  </a>
 </g>
</svg>

<style type='text/css'>
<![CDATA[
[data-mouse-over-selected='false'] { opacity: 0.7; }
[data-mouse-over-selected='true']  { opacity: 1.0; }
]]>
</style>
<script type="application/ecmascript"><![CDATA[
document.addEventListener('DOMContentLoaded', (event) => {
  highlightEdges();
  highlightAdjacentNodes();
});
]]></script>
</svg>
