<?xml version="1.0" encoding="UTF-8" standalone="no"?>
<!DOCTYPE svg PUBLIC "-//W3C//DTD SVG 1.1//EN"
 "http://www.w3.org/Graphics/SVG/1.1/DTD/svg11.dtd">
<!-- Generated by graphviz version 2.43.0 (0)
 -->
<!-- Title: itk::simple::BSplineTransform::MyVisitor Pages: 1 -->
<svg width="351pt" height="386pt"
 viewBox="0.00 0.00 351.00 386.00" xmlns="http://www.w3.org/2000/svg" xmlns:xlink="http://www.w3.org/1999/xlink">
<g id="graph0" class="graph" transform="scale(1 1) rotate(0) translate(4 382)">
<title>itk::simple::BSplineTransform::MyVisitor</title>
<polygon fill="white" stroke="transparent" points="-4,4 -4,-382 347,-382 347,4 -4,4"/>
<!-- Node1 -->
<g id="node1" class="node">
<title>Node1</title>
<g id="a_node1"><a xlink:title=" ">
<polygon fill="#bfbfbf" stroke="black" points="99.5,-0.5 99.5,-30.5 259.5,-30.5 259.5,-0.5 99.5,-0.5"/>
<text text-anchor="start" x="107.5" y="-18.5" font-family="Helvetica,sans-Serif" font-size="10.00">itk::simple::BSplineTransform</text>
<text text-anchor="middle" x="179.5" y="-7.5" font-family="Helvetica,sans-Serif" font-size="10.00">::MyVisitor</text>
</a>
</g>
</g>
<!-- Node2 -->
<g id="node2" class="node">
<title>Node2</title>
<g id="a_node2"><a xlink:href="classitk_1_1simple_1_1BSplineTransform.html" target="_top" xlink:title="A deformable transform over a bounded spatial domain using a BSpline representation for a 2D or 3D co...">
<polygon fill="white" stroke="black" points="11.5,-84 11.5,-103 171.5,-103 171.5,-84 11.5,-84"/>
<text text-anchor="middle" x="91.5" y="-91" font-family="Helvetica,sans-Serif" font-size="10.00">itk::simple::BSplineTransform</text>
</a>
</g>
</g>
<!-- Node2&#45;&gt;Node1 -->
<g id="edge1" class="edge">
<title>Node2&#45;&gt;Node1</title>
<path fill="none" stroke="#9a32cd" stroke-dasharray="5,2" d="M109.56,-76.9C125.34,-63.27 148.05,-43.66 163.27,-30.52"/>
<polygon fill="#9a32cd" stroke="#9a32cd" points="106.88,-74.6 101.59,-83.78 111.45,-79.89 106.88,-74.6"/>
<text text-anchor="middle" x="153" y="-52" font-family="Helvetica,sans-Serif" font-size="10.00"> that</text>
</g>
<!-- Node3 -->
<g id="node3" class="node">
<title>Node3</title>
<g id="a_node3"><a xlink:href="classitk_1_1simple_1_1Transform.html" target="_top" xlink:title="A simplified wrapper around a variety of ITK transforms.">
<polygon fill="white" stroke="black" points="30,-146.5 30,-165.5 153,-165.5 153,-146.5 30,-146.5"/>
<text text-anchor="middle" x="91.5" y="-153.5" font-family="Helvetica,sans-Serif" font-size="10.00">itk::simple::Transform</text>
</a>
</g>
</g>
<!-- Node3&#45;&gt;Node2 -->
<g id="edge2" class="edge">
<title>Node3&#45;&gt;Node2</title>
<path fill="none" stroke="midnightblue" d="M91.5,-136C91.5,-125 91.5,-111.68 91.5,-103.15"/>
<polygon fill="midnightblue" stroke="midnightblue" points="88,-136.33 91.5,-146.33 95,-136.33 88,-136.33"/>
</g>
<!-- Node4 -->
<g id="node4" class="node">
<title>Node4</title>
<g id="a_node4"><a xlink:title=" ">
<polygon fill="white" stroke="#bfbfbf" points="0,-213.5 0,-243.5 183,-243.5 183,-213.5 0,-213.5"/>
<text text-anchor="start" x="8" y="-231.5" font-family="Helvetica,sans-Serif" font-size="10.00">std::unique_ptr&lt; PimpleTransform</text>
<text text-anchor="middle" x="91.5" y="-220.5" font-family="Helvetica,sans-Serif" font-size="10.00">Base &gt;</text>
</a>
</g>
</g>
<!-- Node4&#45;&gt;Node3 -->
<g id="edge3" class="edge">
<title>Node4&#45;&gt;Node3</title>
<path fill="none" stroke="#9a32cd" stroke-dasharray="5,2" d="M91.5,-203.09C91.5,-190.21 91.5,-175.2 91.5,-165.89"/>
<polygon fill="#9a32cd" stroke="#9a32cd" points="88,-203.23 91.5,-213.23 95,-203.23 88,-203.23"/>
<text text-anchor="middle" x="142" y="-187" font-family="Helvetica,sans-Serif" font-size="10.00"> m_PimpleTransform</text>
</g>
<!-- Node5 -->
<g id="node5" class="node">
<title>Node5</title>
<g id="a_node5"><a xlink:title="STL class.">
<polygon fill="white" stroke="#bfbfbf" points="32.5,-291.5 32.5,-310.5 150.5,-310.5 150.5,-291.5 32.5,-291.5"/>
<text text-anchor="middle" x="91.5" y="-298.5" font-family="Helvetica,sans-Serif" font-size="10.00">std::unique_ptr&lt; T &gt;</text>
</a>
</g>
</g>
<!-- Node5&#45;&gt;Node4 -->
<g id="edge4" class="edge">
<title>Node5&#45;&gt;Node4</title>
<path fill="none" stroke="orange" stroke-dasharray="5,2" d="M91.5,-281.24C91.5,-269.41 91.5,-254.38 91.5,-243.58"/>
<polygon fill="orange" stroke="orange" points="88,-281.36 91.5,-291.36 95,-281.36 88,-281.36"/>
<text text-anchor="middle" x="158" y="-265" font-family="Helvetica,sans-Serif" font-size="10.00"> &lt; PimpleTransformBase &gt;</text>
</g>
<!-- Node6 -->
<g id="node6" class="node">
<title>Node6</title>
<g id="a_node6"><a xlink:title=" ">
<polygon fill="white" stroke="#bfbfbf" points="77,-358.5 77,-377.5 106,-377.5 106,-358.5 77,-358.5"/>
<text text-anchor="middle" x="91.5" y="-365.5" font-family="Helvetica,sans-Serif" font-size="10.00">T</text>
</a>
</g>
</g>
<!-- Node6&#45;&gt;Node5 -->
<g id="edge5" class="edge">
<title>Node6&#45;&gt;Node5</title>
<path fill="none" stroke="#9a32cd" stroke-dasharray="5,2" d="M91.5,-348.04C91.5,-335.67 91.5,-320.12 91.5,-310.63"/>
<polygon fill="#9a32cd" stroke="#9a32cd" points="88,-348.23 91.5,-358.23 95,-348.23 88,-348.23"/>
<text text-anchor="middle" x="100" y="-332" font-family="Helvetica,sans-Serif" font-size="10.00"> ptr</text>
</g>
<!-- Node7 -->
<g id="node7" class="node">
<title>Node7</title>
<g id="a_node7"><a xlink:href="classitk_1_1TransformBaseTemplate.html" target="_top" xlink:title=" ">
<polygon fill="white" stroke="black" points="190,-78.5 190,-108.5 343,-108.5 343,-78.5 190,-78.5"/>
<text text-anchor="start" x="198" y="-96.5" font-family="Helvetica,sans-Serif" font-size="10.00">itk::TransformBaseTemplate</text>
<text text-anchor="middle" x="266.5" y="-85.5" font-family="Helvetica,sans-Serif" font-size="10.00">&lt; TScalar &gt;</text>
</a>
</g>
</g>
<!-- Node7&#45;&gt;Node1 -->
<g id="edge6" class="edge">
<title>Node7&#45;&gt;Node1</title>
<path fill="none" stroke="#9a32cd" stroke-dasharray="5,2" d="M242.34,-71.39C227.5,-58.43 208.89,-42.18 195.79,-30.73"/>
<polygon fill="#9a32cd" stroke="#9a32cd" points="240.3,-74.26 250.14,-78.2 244.91,-68.99 240.3,-74.26"/>
<text text-anchor="middle" x="253.5" y="-52" font-family="Helvetica,sans-Serif" font-size="10.00"> transform</text>
</g>
</g>
</svg>
