<?xml version="1.0" encoding="UTF-8" standalone="no"?>
<!DOCTYPE svg PUBLIC "-//W3C//DTD SVG 1.1//EN"
 "http://www.w3.org/Graphics/SVG/1.1/DTD/svg11.dtd">
<!-- Generated by graphviz version 2.43.0 (0)
 -->
<!-- Title: itk::simple::IsVector&lt; TPixelIDType &gt; Pages: 1 -->
<svg width="764pt" height="166pt"
 viewBox="0.00 0.00 764.00 166.00" xmlns="http://www.w3.org/2000/svg" xmlns:xlink="http://www.w3.org/1999/xlink">
<g id="graph0" class="graph" transform="scale(1 1) rotate(0) translate(4 162)">
<title>itk::simple::IsVector&lt; TPixelIDType &gt;</title>
<!-- Node1 -->
<g id="Node000001" class="node">
<title>Node1</title>
<g id="a_Node000001"><a xlink:title=" ">
<polygon fill="#999999" stroke="#666666" points="113,-81 0,-81 0,-51 113,-51 113,-81"/>
<text text-anchor="start" x="8" y="-69" font-family="Helvetica,sans-Serif" font-size="10.00">itk::simple::IsVector</text>
<text text-anchor="middle" x="56.5" y="-58" font-family="Helvetica,sans-Serif" font-size="10.00">&lt; TPixelIDType &gt;</text>
</a>
</g>
</g>
<!-- Node2 -->
<g id="Node000002" class="node">
<title>Node2</title>
<g id="a_Node000002"><a xlink:href="structitk_1_1simple_1_1IsVector.html" target="_top" xlink:title=" ">
<polygon fill="white" stroke="#666666" points="545,-158 339,-158 339,-106 545,-106 545,-158"/>
<text text-anchor="start" x="347" y="-146" font-family="Helvetica,sans-Serif" font-size="10.00">itk::simple::IsVector</text>
<text text-anchor="start" x="347" y="-135" font-family="Helvetica,sans-Serif" font-size="10.00">&lt; ImageTypeToPixelID</text>
<text text-anchor="start" x="347" y="-124" font-family="Helvetica,sans-Serif" font-size="10.00">&lt; itk::VectorImage&lt; TPixelType,</text>
<text text-anchor="middle" x="442" y="-113" font-family="Helvetica,sans-Serif" font-size="10.00"> VImageDimension &gt; &gt;::PixelIDType &gt;</text>
</a>
</g>
</g>
<!-- Node1&#45;&gt;Node2 -->
<g id="edge1_Node000001_Node000002" class="edge">
<title>Node1&#45;&gt;Node2</title>
<g id="a_edge1_Node000001_Node000002"><a xlink:title=" ">
<path fill="none" stroke="orange" stroke-dasharray="5,2" d="M123.33,-78.61C125.92,-79.08 128.48,-79.55 131,-80 200.29,-92.41 278.47,-105.52 338.98,-115.47"/>
<polygon fill="orange" stroke="orange" points="123.73,-75.13 113.26,-76.75 122.46,-82.01 123.73,-75.13"/>
</a>
</g>
<text text-anchor="start" x="131" y="-136" font-family="Helvetica,sans-Serif" font-size="10.00" fill="grey"> &lt; ImageTypeToPixelID</text>
<text text-anchor="start" x="131" y="-125" font-family="Helvetica,sans-Serif" font-size="10.00" fill="grey">&lt; itk::VectorImage&lt; TPixelType,</text>
<text text-anchor="middle" x="226" y="-114" font-family="Helvetica,sans-Serif" font-size="10.00" fill="grey"> VImageDimension &gt; &gt;::PixelIDType &gt;</text>
</g>
<!-- Node3 -->
<g id="Node000003" class="node">
<title>Node3</title>
<g id="a_Node000003"><a xlink:href="structitk_1_1simple_1_1IsVector_3_01itk_1_1VectorImage_3_01TPixelType_00_01VImageDimension_01_4_01_4.html" target="_top" xlink:title=" ">
<polygon fill="white" stroke="#666666" points="756,-98.5 582,-98.5 582,-57.5 756,-57.5 756,-98.5"/>
<text text-anchor="start" x="590" y="-86.5" font-family="Helvetica,sans-Serif" font-size="10.00">itk::simple::IsVector</text>
<text text-anchor="start" x="590" y="-75.5" font-family="Helvetica,sans-Serif" font-size="10.00">&lt; itk::VectorImage&lt; TPixelType,</text>
<text text-anchor="middle" x="669" y="-64.5" font-family="Helvetica,sans-Serif" font-size="10.00"> VImageDimension &gt; &gt;</text>
</a>
</g>
</g>
<!-- Node1&#45;&gt;Node3 -->
<g id="edge4_Node000001_Node000003" class="edge">
<title>Node1&#45;&gt;Node3</title>
<g id="a_edge4_Node000001_Node000003"><a xlink:title=" ">
<path fill="none" stroke="orange" stroke-dasharray="5,2" d="M123.24,-67.09C216.89,-68.67 394.09,-71.77 545,-75 556.96,-75.26 569.57,-75.54 581.98,-75.84"/>
<polygon fill="orange" stroke="orange" points="123.12,-63.59 113.07,-66.92 123.01,-70.59 123.12,-63.59"/>
</a>
</g>
<text text-anchor="start" x="351" y="-89" font-family="Helvetica,sans-Serif" font-size="10.00" fill="grey"> &lt; itk::VectorImage</text>
<text text-anchor="middle" x="442" y="-78" font-family="Helvetica,sans-Serif" font-size="10.00" fill="grey">&lt; TPixelType, VImageDimension &gt; &gt;</text>
</g>
<!-- Node4 -->
<g id="Node000004" class="node">
<title>Node4</title>
<g id="a_Node000004"><a xlink:href="structitk_1_1simple_1_1IsVector_3_01VectorPixelID_3_01TPixelType_01_4_01_4.html" target="_top" xlink:title=" ">
<polygon fill="white" stroke="#666666" points="531,-30 353,-30 353,0 531,0 531,-30"/>
<text text-anchor="start" x="361" y="-18" font-family="Helvetica,sans-Serif" font-size="10.00">itk::simple::IsVector</text>
<text text-anchor="middle" x="442" y="-7" font-family="Helvetica,sans-Serif" font-size="10.00">&lt; VectorPixelID&lt; TPixelType &gt; &gt;</text>
</a>
</g>
</g>
<!-- Node1&#45;&gt;Node4 -->
<g id="edge3_Node000001_Node000004" class="edge">
<title>Node1&#45;&gt;Node4</title>
<g id="a_edge3_Node000001_Node000004"><a xlink:title=" ">
<path fill="none" stroke="orange" stroke-dasharray="5,2" d="M105.56,-47.79C113.95,-45.15 122.65,-42.74 131,-41 204.88,-25.58 290.48,-19.25 352.99,-16.67"/>
<polygon fill="orange" stroke="orange" points="104.32,-44.51 95.91,-50.96 106.51,-51.16 104.32,-44.51"/>
</a>
</g>
<text text-anchor="middle" x="226" y="-44" font-family="Helvetica,sans-Serif" font-size="10.00" fill="grey"> &lt; VectorPixelID&lt; TPixelType &gt; &gt;</text>
</g>
<!-- Node2&#45;&gt;Node3 -->
<g id="edge2_Node000002_Node000003" class="edge">
<title>Node2&#45;&gt;Node3</title>
<g id="a_edge2_Node000002_Node000003"><a xlink:title=" ">
<path fill="none" stroke="#63b8ff" d="M555.22,-105.07C564.37,-102.87 573.53,-100.67 582.45,-98.53"/>
<polygon fill="#63b8ff" stroke="#63b8ff" points="554.2,-101.71 545.3,-107.45 555.84,-108.52 554.2,-101.71"/>
</a>
</g>
</g>
</g>
</svg>
