<?xml version="1.0" encoding="UTF-8" standalone="no"?>
<!DOCTYPE svg PUBLIC "-//W3C//DTD SVG 1.1//EN"
 "http://www.w3.org/Graphics/SVG/1.1/DTD/svg11.dtd">
<!-- Generated by graphviz version 2.43.0 (0)
 -->
<!-- Title: itk::simple::ScaleTransform::MyVisitor Pages: 1 -->
<!--zoomable 351 -->

<svg id="main" version="1.1" xmlns="http://www.w3.org/2000/svg" xmlns:xlink="http://www.w3.org/1999/xlink" xml:space="preserve" onload="init(evt)">

<style type="text/css"><![CDATA[
.node, .edge {opacity: 0.7;}
.node.selected, .edge.selected {opacity: 1;}
.edge:hover path { stroke: red; }
.edge:hover polygon { stroke: red; fill: red; }
]]></style>

<defs>
  <circle id="rim" cx="0" cy="0" r="7"/>
  <circle id="rim2" cx="0" cy="0" r="3.5"/>
  <g id="zoomPlus">
    <use xlink:href="#rim" fill="#404040"><set attributeName="fill" to="#808080" begin="zoomplus.mouseover" end="zoomplus.mouseout"/></use>
    <path d="M-4,0h8M0,-4v8" fill="none" stroke="white" stroke-width="1.5" pointer-events="none"/>
  </g>
  <g id="zoomMin">
    <use xlink:href="#rim" fill="#404040"><set attributeName="fill" to="#808080" begin="zoomminus.mouseover" end="zoomminus.mouseout"/></use>
    <path d="M-4,0h8" fill="none" stroke="white" stroke-width="1.5" pointer-events="none"/>
  </g>
  <g id="arrowUp" transform="translate(30 24)">
    <use xlink:href="#rim"/>
    <path pointer-events="none" fill="none" stroke="white" stroke-width="1.5" d="M0,-3.0v7 M-2.5,-0.5L0,-3.0L2.5,-0.5"/>
  </g>
  <g id="arrowRight" transform="rotate(90) translate(36 -43)">
    <use xlink:href="#rim"/>
    <path pointer-events="none" fill="none" stroke="white" stroke-width="1.5" d="M0,-3.0v7 M-2.5,-0.5L0,-3.0L2.5,-0.5"/>
  </g>
  <g id="arrowDown" transform="rotate(180) translate(-30 -48)">
    <use xlink:href="#rim"/>
    <path pointer-events="none" fill="none" stroke="white" stroke-width="1.5" d="M0,-3.0v7 M-2.5,-0.5L0,-3.0L2.5,-0.5"/>
  </g>
  <g id="arrowLeft" transform="rotate(270) translate(-36 17)">
    <use xlink:href="#rim"/>
    <path pointer-events="none" fill="none" stroke="white" stroke-width="1.5" d="M0,-3.0v7 M-2.5,-0.5L0,-3.0L2.5,-0.5"/>
  </g>
  <g id="resetDef">
    <use xlink:href="#rim2" fill="#404040"><set attributeName="fill" to="#808080" begin="reset.mouseover" end="reset.mouseout"/></use>
  </g>
</defs>
<script type="application/ecmascript">
var viewWidth = 2547;
var viewHeight = 351;
var sectionId = 'dynsection-0';
</script>
<script type="application/ecmascript" xlink:href="svg.min.js"/>
<svg id="graph" class="graph">
<g id="viewport">
<title>itk::simple::ScaleTransform::MyVisitor</title>
<!-- Node1 -->
<g id="Node000001" class="node">
<title>Node1</title>
<g id="a_Node000001"><a xlink:title=" ">
<polygon fill="#999999" stroke="#666666" points="2539,-312.97 2390,-312.97 2390,-282.97 2539,-282.97 2539,-312.97"/>
<text text-anchor="start" x="2398" y="-300.97" font-family="Helvetica,sans-Serif" font-size="10.00">itk::simple::ScaleTransform</text>
<text text-anchor="middle" x="2464.5" y="-289.97" font-family="Helvetica,sans-Serif" font-size="10.00">::MyVisitor</text>
</a>
</g>
</g>
<!-- Node2 -->
<g id="Node000002" class="node">
<title>Node2</title>
<g id="a_Node000002"><a target="_parent" xlink:href="https://www.itk.org/Doxygen/html/classitk_1_1TransformBaseTemplate.html" xlink:title=" ">
<polygon fill="white" stroke="#666666" points="2302,-286.97 2149,-286.97 2149,-256.97 2302,-256.97 2302,-286.97"/>
<text text-anchor="start" x="2157" y="-274.97" font-family="Helvetica,sans-Serif" font-size="10.00">itk::TransformBaseTemplate</text>
<text text-anchor="middle" x="2225.5" y="-263.97" font-family="Helvetica,sans-Serif" font-size="10.00">&lt; double &gt;</text>
</a>
</g>
</g>
<!-- Node2&#45;&gt;Node1 -->
<g id="edge1_Node000001_Node000002" class="edge">
<title>Node2&#45;&gt;Node1</title>
<g id="a_edge1_Node000001_Node000002"><a xlink:title=" ">
<path fill="none" stroke="#9a32cd" stroke-dasharray="5,2" d="M2312.14,-281.37C2337.57,-284.16 2365.19,-287.19 2389.79,-289.89"/>
<polygon fill="#9a32cd" stroke="#9a32cd" points="2312.46,-277.88 2302.14,-280.27 2311.7,-284.84 2312.46,-277.88"/>
</a>
</g>
<text text-anchor="middle" x="2346" y="-289.97" font-family="Helvetica,sans-Serif" font-size="10.00" fill="grey"> transform</text>
</g>
<!-- Node3 -->
<g id="Node000003" class="node">
<title>Node3</title>
<g id="a_Node000003"><a target="_parent" xlink:href="https://www.itk.org/Doxygen/html/classitk_1_1Object.html" xlink:title=" ">
<polygon fill="white" stroke="#666666" points="1696,-232.47 1629,-232.47 1629,-213.47 1696,-213.47 1696,-232.47"/>
<text text-anchor="middle" x="1662.5" y="-220.47" font-family="Helvetica,sans-Serif" font-size="10.00">itk::Object</text>
</a>
</g>
</g>
<!-- Node3&#45;&gt;Node2 -->
<g id="edge2_Node000002_Node000003" class="edge">
<title>Node3&#45;&gt;Node2</title>
<g id="a_edge2_Node000002_Node000003"><a xlink:title=" ">
<path fill="none" stroke="#63b8ff" d="M1706.73,-226.45C1765.12,-231.17 1872.44,-239.95 1964,-247.97 2026.32,-253.43 2097,-259.97 2149,-264.84"/>
<polygon fill="#63b8ff" stroke="#63b8ff" points="1706.66,-222.93 1696.41,-225.61 1706.1,-229.91 1706.66,-222.93"/>
</a>
</g>
</g>
<!-- Node23 -->
<g id="Node000023" class="node">
<title>Node23</title>
<g id="a_Node000023"><a target="_parent" xlink:href="https://www.itk.org/Doxygen/html/classitk_1_1TransformBaseTemplate.html" xlink:title=" ">
<polygon fill="white" stroke="#666666" points="1964,-286.97 1761,-286.97 1761,-256.97 1964,-256.97 1964,-286.97"/>
<text text-anchor="start" x="1769" y="-274.97" font-family="Helvetica,sans-Serif" font-size="10.00">itk::TransformBaseTemplate</text>
<text text-anchor="middle" x="1862.5" y="-263.97" font-family="Helvetica,sans-Serif" font-size="10.00">&lt; typename TParametersValueType &gt;</text>
</a>
</g>
</g>
<!-- Node3&#45;&gt;Node23 -->
<g id="edge29_Node000023_Node000003" class="edge">
<title>Node3&#45;&gt;Node23</title>
<g id="a_edge29_Node000023_Node000003"><a xlink:title=" ">
<path fill="none" stroke="#63b8ff" d="M1705.95,-233.48C1733.58,-240.31 1770.06,-249.34 1800.74,-256.93"/>
<polygon fill="#63b8ff" stroke="#63b8ff" points="1706.74,-230.07 1696.2,-231.06 1705.06,-236.86 1706.74,-230.07"/>
</a>
</g>
</g>
<!-- Node4 -->
<g id="Node000004" class="node">
<title>Node4</title>
<g id="a_Node000004"><a target="_parent" xlink:href="https://www.itk.org/Doxygen/html/classitk_1_1LightObject.html" xlink:title=" ">
<polygon fill="white" stroke="#666666" points="1386,-156.47 1295,-156.47 1295,-137.47 1386,-137.47 1386,-156.47"/>
<text text-anchor="middle" x="1340.5" y="-144.47" font-family="Helvetica,sans-Serif" font-size="10.00">itk::LightObject</text>
</a>
</g>
</g>
<!-- Node4&#45;&gt;Node3 -->
<g id="edge3_Node000003_Node000004" class="edge">
<title>Node4&#45;&gt;Node3</title>
<g id="a_edge3_Node000003_Node000004"><a xlink:title=" ">
<path fill="none" stroke="#63b8ff" d="M1396.47,-152.77C1445.98,-158.88 1520.38,-170.25 1583,-188.97 1604.2,-195.31 1627.32,-205.79 1642.93,-213.44"/>
<polygon fill="#63b8ff" stroke="#63b8ff" points="1396.64,-149.27 1386.3,-151.55 1395.81,-156.22 1396.64,-149.27"/>
</a>
</g>
</g>
<!-- Node5 -->
<g id="Node000005" class="node">
<title>Node5</title>
<g id="a_Node000005"><a xlink:title=" ">
<polygon fill="white" stroke="#666666" points="1049,-156.47 942,-156.47 942,-137.47 1049,-137.47 1049,-156.47"/>
<text text-anchor="middle" x="995.5" y="-144.47" font-family="Helvetica,sans-Serif" font-size="10.00">std::atomic&lt; int &gt;</text>
</a>
</g>
</g>
<!-- Node5&#45;&gt;Node4 -->
<g id="edge4_Node000004_Node000005" class="edge">
<title>Node5&#45;&gt;Node4</title>
<g id="a_edge4_Node000004_Node000005"><a xlink:title=" ">
<path fill="none" stroke="#9a32cd" stroke-dasharray="5,2" d="M1059.53,-146.97C1127.73,-146.97 1234.75,-146.97 1294.8,-146.97"/>
<polygon fill="#9a32cd" stroke="#9a32cd" points="1059.34,-143.47 1049.34,-146.97 1059.34,-150.47 1059.34,-143.47"/>
</a>
</g>
<text text-anchor="middle" x="1159.5" y="-149.97" font-family="Helvetica,sans-Serif" font-size="10.00" fill="grey"> m_ReferenceCount</text>
</g>
<!-- Node6 -->
<g id="Node000006" class="node">
<title>Node6</title>
<g id="a_Node000006"><a xlink:title=" ">
<polygon fill="white" stroke="#666666" points="745.5,-113.47 645.5,-113.47 645.5,-94.47 745.5,-94.47 745.5,-113.47"/>
<text text-anchor="middle" x="695.5" y="-101.47" font-family="Helvetica,sans-Serif" font-size="10.00">std::atomic&lt; T &gt;</text>
</a>
</g>
</g>
<!-- Node6&#45;&gt;Node5 -->
<g id="edge5_Node000005_Node000006" class="edge">
<title>Node6&#45;&gt;Node5</title>
<g id="a_edge5_Node000005_Node000006"><a xlink:title=" ">
<path fill="none" stroke="orange" stroke-dasharray="5,2" d="M755.93,-113.96C766.6,-115.68 777.62,-117.42 788,-118.97 840.24,-126.79 900.06,-134.8 941.82,-140.24"/>
<polygon fill="orange" stroke="orange" points="756.28,-110.47 745.85,-112.32 755.15,-117.38 756.28,-110.47"/>
</a>
</g>
<text text-anchor="middle" x="845.5" y="-137.97" font-family="Helvetica,sans-Serif" font-size="10.00" fill="grey"> &lt; int &gt;</text>
</g>
<!-- Node19 -->
<g id="Node000019" class="node">
<title>Node19</title>
<g id="a_Node000019"><a xlink:title=" ">
<polygon fill="white" stroke="#666666" points="1070,-118.97 921,-118.97 921,-88.97 1070,-88.97 1070,-118.97"/>
<text text-anchor="start" x="929" y="-106.97" font-family="Helvetica,sans-Serif" font-size="10.00">std::atomic&lt; ModifiedTime</text>
<text text-anchor="middle" x="995.5" y="-95.97" font-family="Helvetica,sans-Serif" font-size="10.00">Type &gt;</text>
</a>
</g>
</g>
<!-- Node6&#45;&gt;Node19 -->
<g id="edge23_Node000019_Node000006" class="edge">
<title>Node6&#45;&gt;Node19</title>
<g id="a_edge23_Node000019_Node000006"><a xlink:title=" ">
<path fill="none" stroke="orange" stroke-dasharray="5,2" d="M755.83,-103.97C803.29,-103.97 870.07,-103.97 920.93,-103.97"/>
<polygon fill="orange" stroke="orange" points="755.71,-100.47 745.71,-103.97 755.71,-107.47 755.71,-100.47"/>
</a>
</g>
<text text-anchor="middle" x="845.5" y="-106.97" font-family="Helvetica,sans-Serif" font-size="10.00" fill="grey"> &lt; ModifiedTimeType &gt;</text>
</g>
<!-- Node7 -->
<g id="Node000007" class="node">
<title>Node7</title>
<g id="a_Node000007"><a xlink:title=" ">
<polygon fill="white" stroke="#666666" points="29,-185.47 0,-185.47 0,-166.47 29,-166.47 29,-185.47"/>
<text text-anchor="middle" x="14.5" y="-173.47" font-family="Helvetica,sans-Serif" font-size="10.00">T</text>
</a>
</g>
</g>
<!-- Node7&#45;&gt;Node6 -->
<g id="edge6_Node000006_Node000007" class="edge">
<title>Node7&#45;&gt;Node6</title>
<g id="a_edge6_Node000006_Node000007"><a xlink:title=" ">
<path fill="none" stroke="#9a32cd" stroke-dasharray="5,2" d="M31.82,-159.52C36.42,-155.6 41.65,-151.75 47,-148.97 74.27,-134.82 83.62,-136.51 114,-131.97 309.09,-102.82 544.76,-101.86 645.25,-103.04"/>
<polygon fill="#9a32cd" stroke="#9a32cd" points="29.29,-157.1 24.31,-166.45 34.03,-162.24 29.29,-157.1"/>
</a>
</g>
<text text-anchor="middle" x="307.5" y="-120.97" font-family="Helvetica,sans-Serif" font-size="10.00" fill="grey"> ptr</text>
</g>
<!-- Node12 -->
<g id="Node000012" class="node">
<title>Node12</title>
<g id="a_Node000012"><a xlink:title=" ">
<polygon fill="white" stroke="#666666" points="215,-160.47 114,-160.47 114,-141.47 215,-141.47 215,-160.47"/>
<text text-anchor="middle" x="164.5" y="-148.47" font-family="Helvetica,sans-Serif" font-size="10.00">std::map&lt; K, T &gt;</text>
</a>
</g>
</g>
<!-- Node7&#45;&gt;Node12 -->
<g id="edge13_Node000012_Node000007" class="edge">
<title>Node7&#45;&gt;Node12</title>
<g id="a_edge13_Node000012_Node000007"><a xlink:title=" ">
<path fill="none" stroke="#9a32cd" stroke-dasharray="5,2" d="M38.4,-163.92C41.24,-162.77 44.15,-161.74 47,-160.97 68.45,-155.15 92.87,-152.48 113.79,-151.33"/>
<polygon fill="#9a32cd" stroke="#9a32cd" points="36.83,-160.79 29.2,-168.13 39.75,-167.15 36.83,-160.79"/>
</a>
</g>
<text text-anchor="middle" x="71.5" y="-163.97" font-family="Helvetica,sans-Serif" font-size="10.00" fill="grey"> elements</text>
</g>
<!-- Node14 -->
<g id="Node000014" class="node">
<title>Node14</title>
<g id="a_Node000014"><a xlink:title=" ">
<polygon fill="white" stroke="#666666" points="366.5,-212.47 248.5,-212.47 248.5,-193.47 366.5,-193.47 366.5,-212.47"/>
<text text-anchor="middle" x="307.5" y="-200.47" font-family="Helvetica,sans-Serif" font-size="10.00">std::shared_ptr&lt; T &gt;</text>
</a>
</g>
</g>
<!-- Node7&#45;&gt;Node14 -->
<g id="edge15_Node000014_Node000007" class="edge">
<title>Node7&#45;&gt;Node14</title>
<g id="a_edge15_Node000014_Node000007"><a xlink:title=" ">
<path fill="none" stroke="#9a32cd" stroke-dasharray="5,2" d="M39.17,-178.17C84.41,-182.37 184.35,-191.64 248.39,-197.58"/>
<polygon fill="#9a32cd" stroke="#9a32cd" points="39.43,-174.68 29.15,-177.24 38.78,-181.65 39.43,-174.68"/>
</a>
</g>
<text text-anchor="middle" x="71.5" y="-185.97" font-family="Helvetica,sans-Serif" font-size="10.00" fill="grey"> ptr</text>
</g>
<!-- Node15 -->
<g id="Node000015" class="node">
<title>Node15</title>
<g id="a_Node000015"><a xlink:title=" ">
<polygon fill="white" stroke="#666666" points="1054.5,-263.47 936.5,-263.47 936.5,-244.47 1054.5,-244.47 1054.5,-263.47"/>
<text text-anchor="middle" x="995.5" y="-251.47" font-family="Helvetica,sans-Serif" font-size="10.00">std::unique_ptr&lt; T &gt;</text>
</a>
</g>
</g>
<!-- Node7&#45;&gt;Node15 -->
<g id="edge17_Node000015_Node000007" class="edge">
<title>Node7&#45;&gt;Node15</title>
<g id="a_edge17_Node000015_Node000007"><a xlink:title=" ">
<path fill="none" stroke="#9a32cd" stroke-dasharray="5,2" d="M32.82,-192.54C58.93,-215.71 110.94,-254.97 163.5,-254.97 163.5,-254.97 163.5,-254.97 696.5,-254.97 779.8,-254.97 876.19,-254.58 936.26,-254.28"/>
<polygon fill="#9a32cd" stroke="#9a32cd" points="35.03,-189.82 25.29,-185.66 30.31,-194.99 35.03,-189.82"/>
</a>
</g>
<text text-anchor="middle" x="484" y="-257.97" font-family="Helvetica,sans-Serif" font-size="10.00" fill="grey"> ptr</text>
</g>
<!-- Node8 -->
<g id="Node000008" class="node">
<title>Node8</title>
<g id="a_Node000008"><a xlink:title=" ">
<polygon fill="white" stroke="#666666" points="1406.5,-204.97 1274.5,-204.97 1274.5,-174.97 1406.5,-174.97 1406.5,-204.97"/>
<text text-anchor="start" x="1282.5" y="-192.97" font-family="Helvetica,sans-Serif" font-size="10.00">std::unique_ptr&lt; itk</text>
<text text-anchor="middle" x="1340.5" y="-181.97" font-family="Helvetica,sans-Serif" font-size="10.00">::MetaDataDictionary &gt;</text>
</a>
</g>
</g>
<!-- Node8&#45;&gt;Node3 -->
<g id="edge7_Node000003_Node000008" class="edge">
<title>Node8&#45;&gt;Node3</title>
<g id="a_edge7_Node000003_Node000008"><a xlink:title=" ">
<path fill="none" stroke="#9a32cd" stroke-dasharray="5,2" d="M1416.89,-191.49C1464.69,-193.23 1527.71,-196.97 1583,-204.97 1598.22,-207.17 1614.86,-210.81 1628.88,-214.24"/>
<polygon fill="#9a32cd" stroke="#9a32cd" points="1416.74,-187.98 1406.63,-191.14 1416.5,-194.98 1416.74,-187.98"/>
</a>
</g>
<text text-anchor="middle" x="1516.5" y="-207.97" font-family="Helvetica,sans-Serif" font-size="10.00" fill="grey"> m_MetaDataDictionary</text>
</g>
<!-- Node9 -->
<g id="Node000009" class="node">
<title>Node9</title>
<g id="a_Node000009"><a target="_parent" xlink:href="https://www.itk.org/Doxygen/html/classitk_1_1MetaDataDictionary.html" xlink:title=" ">
<polygon fill="white" stroke="#666666" points="1062.5,-194.47 928.5,-194.47 928.5,-175.47 1062.5,-175.47 1062.5,-194.47"/>
<text text-anchor="middle" x="995.5" y="-182.47" font-family="Helvetica,sans-Serif" font-size="10.00">itk::MetaDataDictionary</text>
</a>
</g>
</g>
<!-- Node9&#45;&gt;Node8 -->
<g id="edge8_Node000008_Node000009" class="edge">
<title>Node9&#45;&gt;Node8</title>
<g id="a_edge8_Node000008_Node000009"><a xlink:title=" ">
<path fill="none" stroke="#9a32cd" stroke-dasharray="5,2" d="M1072.87,-184.67C1118.72,-184.64 1178.21,-184.89 1231,-185.97 1245.04,-186.26 1260.1,-186.72 1274.39,-187.23"/>
<polygon fill="#9a32cd" stroke="#9a32cd" points="1072.71,-181.17 1062.71,-184.68 1072.72,-188.17 1072.71,-181.17"/>
</a>
</g>
<text text-anchor="middle" x="1159.5" y="-188.97" font-family="Helvetica,sans-Serif" font-size="10.00" fill="grey"> ptr</text>
</g>
<!-- Node10 -->
<g id="Node000010" class="node">
<title>Node10</title>
<g id="a_Node000010"><a xlink:title=" ">
<polygon fill="white" stroke="#666666" points="770,-199.97 621,-199.97 621,-169.97 770,-169.97 770,-199.97"/>
<text text-anchor="start" x="629" y="-187.97" font-family="Helvetica,sans-Serif" font-size="10.00">std::shared_ptr&lt; MetaData</text>
<text text-anchor="middle" x="695.5" y="-176.97" font-family="Helvetica,sans-Serif" font-size="10.00">DictionaryMapType &gt;</text>
</a>
</g>
</g>
<!-- Node10&#45;&gt;Node9 -->
<g id="edge9_Node000009_Node000010" class="edge">
<title>Node10&#45;&gt;Node9</title>
<g id="a_edge9_Node000009_Node000010"><a xlink:title=" ">
<path fill="none" stroke="#9a32cd" stroke-dasharray="5,2" d="M780.29,-184.97C827.11,-184.97 884.64,-184.97 928.29,-184.97"/>
<polygon fill="#9a32cd" stroke="#9a32cd" points="780.16,-181.47 770.16,-184.97 780.16,-188.47 780.16,-181.47"/>
</a>
</g>
<text text-anchor="middle" x="845.5" y="-187.97" font-family="Helvetica,sans-Serif" font-size="10.00" fill="grey"> m_Dictionary</text>
</g>
<!-- Node11 -->
<g id="Node000011" class="node">
<title>Node11</title>
<g id="a_Node000011"><a xlink:title=" ">
<polygon fill="white" stroke="#666666" points="548.5,-171.47 419.5,-171.47 419.5,-130.47 548.5,-130.47 548.5,-171.47"/>
<text text-anchor="start" x="427.5" y="-159.47" font-family="Helvetica,sans-Serif" font-size="10.00">std::map&lt; std::string,</text>
<text text-anchor="start" x="427.5" y="-148.47" font-family="Helvetica,sans-Serif" font-size="10.00"> MetaDataObjectBase::</text>
<text text-anchor="middle" x="484" y="-137.47" font-family="Helvetica,sans-Serif" font-size="10.00">Pointer &gt;</text>
</a>
</g>
</g>
<!-- Node11&#45;&gt;Node10 -->
<g id="edge10_Node000010_Node000011" class="edge">
<title>Node11&#45;&gt;Node10</title>
<g id="a_edge10_Node000010_Node000011"><a xlink:title=" ">
<path fill="none" stroke="#9a32cd" stroke-dasharray="5,2" d="M558.75,-162.94C578.88,-166.21 600.68,-169.75 620.81,-173.01"/>
<polygon fill="#9a32cd" stroke="#9a32cd" points="559.14,-159.46 548.71,-161.31 558.02,-166.37 559.14,-159.46"/>
</a>
</g>
<text text-anchor="middle" x="594.5" y="-172.97" font-family="Helvetica,sans-Serif" font-size="10.00" fill="grey"> ptr</text>
</g>
<!-- Node12&#45;&gt;Node11 -->
<g id="edge11_Node000011_Node000012" class="edge">
<title>Node12&#45;&gt;Node11</title>
<g id="a_edge11_Node000011_Node000012"><a xlink:title=" ">
<path fill="none" stroke="orange" stroke-dasharray="5,2" d="M225.12,-150.97C280.46,-150.97 362.59,-150.97 419.23,-150.97"/>
<polygon fill="orange" stroke="orange" points="225.11,-147.47 215.11,-150.97 225.11,-154.47 225.11,-147.47"/>
</a>
</g>
<text text-anchor="start" x="233" y="-164.97" font-family="Helvetica,sans-Serif" font-size="10.00" fill="grey"> &lt; std::string, MetaDataObject</text>
<text text-anchor="middle" x="307.5" y="-153.97" font-family="Helvetica,sans-Serif" font-size="10.00" fill="grey">Base::Pointer &gt;</text>
</g>
<!-- Node13 -->
<g id="Node000013" class="node">
<title>Node13</title>
<g id="a_Node000013"><a xlink:title=" ">
<polygon fill="white" stroke="#666666" points="29,-85.47 0,-85.47 0,-66.47 29,-66.47 29,-85.47"/>
<text text-anchor="middle" x="14.5" y="-73.47" font-family="Helvetica,sans-Serif" font-size="10.00">K</text>
</a>
</g>
</g>
<!-- Node13&#45;&gt;Node12 -->
<g id="edge12_Node000012_Node000013" class="edge">
<title>Node13&#45;&gt;Node12</title>
<g id="a_edge12_Node000012_Node000013"><a xlink:title=" ">
<path fill="none" stroke="#9a32cd" stroke-dasharray="5,2" d="M38.15,-87.45C67.2,-102.17 117.08,-127.45 144.34,-141.26"/>
<polygon fill="#9a32cd" stroke="#9a32cd" points="39.66,-84.29 29.16,-82.89 36.5,-90.54 39.66,-84.29"/>
</a>
</g>
<text text-anchor="middle" x="71.5" y="-118.97" font-family="Helvetica,sans-Serif" font-size="10.00" fill="grey"> keys</text>
</g>
<!-- Node14&#45;&gt;Node10 -->
<g id="edge14_Node000010_Node000014" class="edge">
<title>Node14&#45;&gt;Node10</title>
<g id="a_edge14_Node000010_Node000014"><a xlink:title=" ">
<path fill="none" stroke="orange" stroke-dasharray="5,2" d="M376.96,-199.78C445.51,-196.58 550.65,-191.68 620.94,-188.4"/>
<polygon fill="orange" stroke="orange" points="376.53,-196.3 366.71,-200.26 376.86,-203.29 376.53,-196.3"/>
</a>
</g>
<text text-anchor="middle" x="484" y="-200.97" font-family="Helvetica,sans-Serif" font-size="10.00" fill="grey"> &lt; MetaDataDictionaryMapType &gt;</text>
</g>
<!-- Node15&#45;&gt;Node8 -->
<g id="edge16_Node000008_Node000015" class="edge">
<title>Node15&#45;&gt;Node8</title>
<g id="a_edge16_Node000008_Node000015"><a xlink:title=" ">
<path fill="none" stroke="orange" stroke-dasharray="5,2" d="M1035.93,-241.58C1051.97,-236.85 1070.76,-231.71 1088,-227.97 1150.79,-214.36 1223.45,-203.95 1274.48,-197.49"/>
<polygon fill="orange" stroke="orange" points="1034.92,-238.23 1026.34,-244.46 1036.93,-244.94 1034.92,-238.23"/>
</a>
</g>
<text text-anchor="middle" x="1159.5" y="-230.97" font-family="Helvetica,sans-Serif" font-size="10.00" fill="grey"> &lt; itk::MetaDataDictionary &gt;</text>
</g>
<!-- Node22 -->
<g id="Node000022" class="node">
<title>Node22</title>
<g id="a_Node000022"><a xlink:title=" ">
<polygon fill="white" stroke="#666666" points="1409,-253.97 1272,-253.97 1272,-223.97 1409,-223.97 1409,-253.97"/>
<text text-anchor="start" x="1280" y="-241.97" font-family="Helvetica,sans-Serif" font-size="10.00">std::unique_ptr&lt; Subject</text>
<text text-anchor="middle" x="1340.5" y="-230.97" font-family="Helvetica,sans-Serif" font-size="10.00">Implementation &gt;</text>
</a>
</g>
</g>
<!-- Node15&#45;&gt;Node22 -->
<g id="edge27_Node000022_Node000015" class="edge">
<title>Node15&#45;&gt;Node22</title>
<g id="a_edge27_Node000022_Node000015"><a xlink:title=" ">
<path fill="none" stroke="orange" stroke-dasharray="5,2" d="M1064.84,-250.98C1124.96,-248.35 1211.99,-244.55 1271.89,-241.93"/>
<polygon fill="orange" stroke="orange" points="1064.52,-247.49 1054.69,-251.43 1064.83,-254.49 1064.52,-247.49"/>
</a>
</g>
<text text-anchor="middle" x="1159.5" y="-251.97" font-family="Helvetica,sans-Serif" font-size="10.00" fill="grey"> &lt; SubjectImplementation &gt;</text>
</g>
<!-- Node26 -->
<g id="Node000026" class="node">
<title>Node26</title>
<g id="a_Node000026"><a xlink:title=" ">
<polygon fill="white" stroke="#666666" points="1432,-342.97 1249,-342.97 1249,-312.97 1432,-312.97 1432,-342.97"/>
<text text-anchor="start" x="1257" y="-330.97" font-family="Helvetica,sans-Serif" font-size="10.00">std::unique_ptr&lt; PimpleTransform</text>
<text text-anchor="middle" x="1340.5" y="-319.97" font-family="Helvetica,sans-Serif" font-size="10.00">Base &gt;</text>
</a>
</g>
</g>
<!-- Node15&#45;&gt;Node26 -->
<g id="edge34_Node000026_Node000015" class="edge">
<title>Node15&#45;&gt;Node26</title>
<g id="a_edge34_Node000026_Node000015"><a xlink:title=" ">
<path fill="none" stroke="orange" stroke-dasharray="5,2" d="M1050.54,-265.63C1109.74,-278.4 1204.88,-298.93 1269.69,-312.91"/>
<polygon fill="orange" stroke="orange" points="1051.15,-262.18 1040.64,-263.49 1049.68,-269.02 1051.15,-262.18"/>
</a>
</g>
<text text-anchor="middle" x="1159.5" y="-306.97" font-family="Helvetica,sans-Serif" font-size="10.00" fill="grey"> &lt; PimpleTransformBase &gt;</text>
</g>
<!-- Node16 -->
<g id="Node000016" class="node">
<title>Node16</title>
<g id="a_Node000016"><a target="_parent" xlink:href="https://www.itk.org/Doxygen/html/classitk_1_1TimeStamp.html" xlink:title=" ">
<polygon fill="white" stroke="#666666" points="1386.5,-116.47 1294.5,-116.47 1294.5,-97.47 1386.5,-97.47 1386.5,-116.47"/>
<text text-anchor="middle" x="1340.5" y="-104.47" font-family="Helvetica,sans-Serif" font-size="10.00">itk::TimeStamp</text>
</a>
</g>
</g>
<!-- Node16&#45;&gt;Node3 -->
<g id="edge18_Node000003_Node000016" class="edge">
<title>Node16&#45;&gt;Node3</title>
<g id="a_edge18_Node000003_Node000016"><a xlink:title=" ">
<path fill="none" stroke="#9a32cd" stroke-dasharray="5,2" d="M1396.88,-106.52C1447.81,-108.21 1524.13,-116.22 1583,-145.97 1615.2,-162.25 1642.64,-196.46 1654.8,-213.25"/>
<polygon fill="#9a32cd" stroke="#9a32cd" points="1396.82,-103.02 1386.73,-106.25 1396.63,-110.01 1396.82,-103.02"/>
</a>
</g>
<text text-anchor="middle" x="1516.5" y="-148.97" font-family="Helvetica,sans-Serif" font-size="10.00" fill="grey"> m_MTime</text>
</g>
<!-- Node17 -->
<g id="Node000017" class="node">
<title>Node17</title>
<g id="a_Node000017"><a target="_parent" xlink:href="https://www.itk.org/Doxygen/html/structitk_1_1Size.html" xlink:title=" ">
<polygon fill="white" stroke="#666666" points="1062.5,-48.47 928.5,-48.47 928.5,-29.47 1062.5,-29.47 1062.5,-48.47"/>
<text text-anchor="middle" x="995.5" y="-36.47" font-family="Helvetica,sans-Serif" font-size="10.00">itk::SizeValueType&lt; 2 &gt;</text>
</a>
</g>
</g>
<!-- Node17&#45;&gt;Node16 -->
<g id="edge19_Node000016_Node000017" class="edge">
<title>Node17&#45;&gt;Node16</title>
<g id="a_edge19_Node000016_Node000017"><a xlink:title=" ">
<path fill="none" stroke="#9a32cd" stroke-dasharray="5,2" d="M1054.64,-50.5C1122.41,-63.93 1232.94,-85.85 1294.5,-98.05"/>
<polygon fill="#9a32cd" stroke="#9a32cd" points="1055.04,-47.01 1044.55,-48.5 1053.68,-53.88 1055.04,-47.01"/>
</a>
</g>
<text text-anchor="middle" x="1159.5" y="-88.97" font-family="Helvetica,sans-Serif" font-size="10.00" fill="grey"> m_ModifiedTime</text>
</g>
<!-- Node18 -->
<g id="Node000018" class="node">
<title>Node18</title>
<g id="a_Node000018"><a target="_parent" xlink:href="https://www.itk.org/Doxygen/html/structitk_1_1Size.html" xlink:title=" ">
<polygon fill="white" stroke="#666666" points="1396,-36.97 1285,-36.97 1285,-6.97 1396,-6.97 1396,-36.97"/>
<text text-anchor="start" x="1293" y="-24.97" font-family="Helvetica,sans-Serif" font-size="10.00">itk::Size&lt; unsigned</text>
<text text-anchor="middle" x="1340.5" y="-13.97" font-family="Helvetica,sans-Serif" font-size="10.00"> int VDimension &gt;</text>
</a>
</g>
</g>
<!-- Node17&#45;&gt;Node18 -->
<g id="edge21_Node000018_Node000017" class="edge">
<title>Node17&#45;&gt;Node18</title>
<g id="a_edge21_Node000018_Node000017"><a xlink:title=" ">
<path fill="none" stroke="#9a32cd" stroke-dasharray="5,2" d="M1072.72,-35.19C1137.04,-32.01 1227.56,-27.52 1284.87,-24.68"/>
<polygon fill="#9a32cd" stroke="#9a32cd" points="1072.45,-31.7 1062.63,-35.69 1072.79,-38.69 1072.45,-31.7"/>
</a>
</g>
<text text-anchor="middle" x="1159.5" y="-37.97" font-family="Helvetica,sans-Serif" font-size="10.00" fill="grey"> m_InternalArray</text>
</g>
<!-- Node18&#45;&gt;Node17 -->
<g id="edge20_Node000017_Node000018" class="edge">
<title>Node18&#45;&gt;Node17</title>
<g id="a_edge20_Node000017_Node000018"><a xlink:title=" ">
<path fill="none" stroke="orange" stroke-dasharray="5,2" d="M1274.72,-9.52C1223.66,-1.7 1150.83,5.01 1088,-5.97 1062.55,-10.42 1034.84,-21.34 1016.66,-29.4"/>
<polygon fill="orange" stroke="orange" points="1274.21,-12.98 1284.64,-11.09 1275.31,-6.07 1274.21,-12.98"/>
</a>
</g>
<text text-anchor="middle" x="1159.5" y="-8.97" font-family="Helvetica,sans-Serif" font-size="10.00" fill="grey"> &lt; 2 &gt;::SizeValueType</text>
</g>
<!-- Node19&#45;&gt;Node16 -->
<g id="edge22_Node000016_Node000019" class="edge">
<title>Node19&#45;&gt;Node16</title>
<g id="a_edge22_Node000016_Node000019"><a xlink:title=" ">
<path fill="none" stroke="#9a32cd" stroke-dasharray="5,2" d="M1080.27,-104.7C1147.77,-105.29 1240.07,-106.1 1294.38,-106.58"/>
<polygon fill="#9a32cd" stroke="#9a32cd" points="1080.11,-101.2 1070.08,-104.62 1080.05,-108.2 1080.11,-101.2"/>
</a>
</g>
<text text-anchor="middle" x="1159.5" y="-109.97" font-family="Helvetica,sans-Serif" font-size="10.00" fill="grey"> m_GlobalTimeStamp</text>
</g>
<!-- Node20 -->
<g id="Node000020" class="node">
<title>Node20</title>
<g id="a_Node000020"><a xlink:title=" ">
<polygon fill="white" stroke="#666666" points="1373,-292.47 1308,-292.47 1308,-273.47 1373,-273.47 1373,-292.47"/>
<text text-anchor="middle" x="1340.5" y="-280.47" font-family="Helvetica,sans-Serif" font-size="10.00">std::string</text>
</a>
</g>
</g>
<!-- Node20&#45;&gt;Node3 -->
<g id="edge24_Node000003_Node000020" class="edge">
<title>Node20&#45;&gt;Node3</title>
<g id="a_edge24_Node000003_Node000020"><a xlink:title=" ">
<path fill="none" stroke="#9a32cd" stroke-dasharray="5,2" d="M1382.81,-274.33C1398.29,-270.96 1415.99,-266.96 1432,-262.97 1440.06,-260.96 1441.89,-259.76 1450,-257.97 1483.43,-250.58 1578.07,-235.73 1628.65,-227.97"/>
<polygon fill="#9a32cd" stroke="#9a32cd" points="1382.05,-270.91 1373.01,-276.44 1383.52,-277.76 1382.05,-270.91"/>
</a>
</g>
<text text-anchor="middle" x="1516.5" y="-260.97" font-family="Helvetica,sans-Serif" font-size="10.00" fill="grey"> m_ObjectName</text>
</g>
<!-- Node20&#45;&gt;Node23 -->
<g id="edge30_Node000023_Node000020" class="edge">
<title>Node20&#45;&gt;Node23</title>
<g id="a_edge30_Node000023_Node000020"><a xlink:title=" ">
<path fill="none" stroke="#9a32cd" stroke-dasharray="5,2" d="M1383.61,-282.08C1465.14,-280.36 1646.59,-276.52 1760.97,-274.1"/>
<polygon fill="#9a32cd" stroke="#9a32cd" points="1383.17,-278.59 1373.25,-282.3 1383.32,-285.59 1383.17,-278.59"/>
</a>
</g>
<text text-anchor="middle" x="1662.5" y="-290.97" font-family="Helvetica,sans-Serif" font-size="10.00" fill="grey"> m_InputSpaceName</text>
<text text-anchor="middle" x="1662.5" y="-279.97" font-family="Helvetica,sans-Serif" font-size="10.00" fill="grey">m_OutputSpaceName</text>
</g>
<!-- Node21 -->
<g id="Node000021" class="node">
<title>Node21</title>
<g id="a_Node000021"><a xlink:title=" ">
<polygon fill="white" stroke="#666666" points="1047.5,-327.97 943.5,-327.97 943.5,-297.97 1047.5,-297.97 1047.5,-327.97"/>
<text text-anchor="start" x="951.5" y="-315.97" font-family="Helvetica,sans-Serif" font-size="10.00">std::basic_string&lt;</text>
<text text-anchor="middle" x="995.5" y="-304.97" font-family="Helvetica,sans-Serif" font-size="10.00"> Char &gt;</text>
</a>
</g>
</g>
<!-- Node21&#45;&gt;Node20 -->
<g id="edge25_Node000020_Node000021" class="edge">
<title>Node21&#45;&gt;Node20</title>
<g id="a_edge25_Node000020_Node000021"><a xlink:title=" ">
<path fill="none" stroke="#63b8ff" d="M1057.94,-310.76C1105.31,-308.71 1172.42,-305.03 1231,-298.97 1256.95,-296.29 1286.2,-291.9 1307.78,-288.39"/>
<polygon fill="#63b8ff" stroke="#63b8ff" points="1057.68,-307.27 1047.84,-311.19 1057.98,-314.26 1057.68,-307.27"/>
</a>
</g>
</g>
<!-- Node22&#45;&gt;Node3 -->
<g id="edge26_Node000003_Node000022" class="edge">
<title>Node22&#45;&gt;Node3</title>
<g id="a_edge26_Node000003_Node000022"><a xlink:title=" ">
<path fill="none" stroke="#9a32cd" stroke-dasharray="5,2" d="M1419.3,-226.95C1429.6,-225.73 1440.04,-224.68 1450,-223.97 1513.18,-219.47 1587.25,-220.58 1628.84,-221.79"/>
<polygon fill="#9a32cd" stroke="#9a32cd" points="1418.56,-223.51 1409.07,-228.22 1419.43,-230.46 1418.56,-223.51"/>
</a>
</g>
<text text-anchor="middle" x="1516.5" y="-226.97" font-family="Helvetica,sans-Serif" font-size="10.00" fill="grey"> m_SubjectImplementation</text>
</g>
<!-- Node23&#45;&gt;Node2 -->
<g id="edge28_Node000002_Node000023" class="edge">
<title>Node23&#45;&gt;Node2</title>
<g id="a_edge28_Node000002_Node000023"><a xlink:title=" ">
<path fill="none" stroke="orange" stroke-dasharray="5,2" d="M1974.13,-271.97C2030.74,-271.97 2098.19,-271.97 2148.81,-271.97"/>
<polygon fill="orange" stroke="orange" points="1974.06,-268.47 1964.06,-271.97 1974.06,-275.47 1974.06,-268.47"/>
</a>
</g>
<text text-anchor="middle" x="2056.5" y="-274.97" font-family="Helvetica,sans-Serif" font-size="10.00" fill="grey"> &lt; double &gt;</text>
</g>
<!-- Node24 -->
<g id="Node000024" class="node">
<title>Node24</title>
<g id="a_Node000024"><a xlink:href="classitk_1_1simple_1_1ScaleTransform.html" target="_top" xlink:title="A 2D or 3D anisotropic scale of coordinate space around a fixed center.">
<polygon fill="white" stroke="#666666" points="2131,-340.47 1982,-340.47 1982,-321.47 2131,-321.47 2131,-340.47"/>
<text text-anchor="middle" x="2056.5" y="-328.47" font-family="Helvetica,sans-Serif" font-size="10.00">itk::simple::ScaleTransform</text>
</a>
</g>
</g>
<!-- Node24&#45;&gt;Node1 -->
<g id="edge31_Node000001_Node000024" class="edge">
<title>Node24&#45;&gt;Node1</title>
<g id="a_edge31_Node000001_Node000024"><a xlink:title=" ">
<path fill="none" stroke="#9a32cd" stroke-dasharray="5,2" d="M2141.14,-324.17C2214.37,-318.22 2319.74,-309.66 2389.84,-303.96"/>
<polygon fill="#9a32cd" stroke="#9a32cd" points="2140.71,-320.7 2131.02,-325 2141.27,-327.67 2140.71,-320.7"/>
</a>
</g>
<text text-anchor="middle" x="2225.5" y="-325.97" font-family="Helvetica,sans-Serif" font-size="10.00" fill="grey"> that</text>
</g>
<!-- Node25 -->
<g id="Node000025" class="node">
<title>Node25</title>
<g id="a_Node000025"><a xlink:href="classitk_1_1simple_1_1Transform.html" target="_top" xlink:title="A simplified wrapper around a variety of ITK transforms.">
<polygon fill="white" stroke="#666666" points="1724,-342.47 1601,-342.47 1601,-323.47 1724,-323.47 1724,-342.47"/>
<text text-anchor="middle" x="1662.5" y="-330.47" font-family="Helvetica,sans-Serif" font-size="10.00">itk::simple::Transform</text>
</a>
</g>
</g>
<!-- Node25&#45;&gt;Node24 -->
<g id="edge32_Node000024_Node000025" class="edge">
<title>Node25&#45;&gt;Node24</title>
<g id="a_edge32_Node000024_Node000025"><a xlink:title=" ">
<path fill="none" stroke="#63b8ff" d="M1734.37,-332.61C1804.35,-332.25 1910.89,-331.71 1981.83,-331.35"/>
<polygon fill="#63b8ff" stroke="#63b8ff" points="1734.3,-329.11 1724.32,-332.66 1734.34,-336.11 1734.3,-329.11"/>
</a>
</g>
</g>
<!-- Node26&#45;&gt;Node25 -->
<g id="edge33_Node000025_Node000026" class="edge">
<title>Node26&#45;&gt;Node25</title>
<g id="a_edge33_Node000025_Node000026"><a xlink:title=" ">
<path fill="none" stroke="#9a32cd" stroke-dasharray="5,2" d="M1442.6,-329.55C1494.59,-330.36 1556.22,-331.33 1600.82,-332.02"/>
<polygon fill="#9a32cd" stroke="#9a32cd" points="1442.4,-326.05 1432.34,-329.39 1442.29,-333.05 1442.4,-326.05"/>
</a>
</g>
<text text-anchor="middle" x="1516.5" y="-333.97" font-family="Helvetica,sans-Serif" font-size="10.00" fill="grey"> m_PimpleTransform</text>
</g>
</g>
</svg>

<g id="navigator" transform="translate(0 0)" fill="#404254">
  <rect fill="#f2f5e9" fill-opacity="0.5" stroke="#606060" stroke-width=".5" x="0" y="0" width="60" height="60"/>
  <use id="zoomplus" xlink:href="#zoomPlus" x="17" y="9" onmousedown="handleZoom(evt,'in')"/>
  <use id="zoomminus" xlink:href="#zoomMin" x="42" y="9" onmousedown="handleZoom(evt,'out')"/>
  <use id="reset" xlink:href="#resetDef" x="30" y="36" onmousedown="handleReset()"/>
   <use id="arrowup" xlink:href="#arrowUp" x="0" y="0" onmousedown="handlePan(0,-1)"/>
  <use id="arrowright" xlink:href="#arrowRight" x="0" y="0" onmousedown="handlePan(1,0)"/>
  <use id="arrowdown" xlink:href="#arrowDown" x="0" y="0" onmousedown="handlePan(0,1)"/>
  <use id="arrowleft" xlink:href="#arrowLeft" x="0" y="0" onmousedown="handlePan(-1,0)"/>
</g>
<svg viewBox="0 0 15 15" width="100%" height="30px" preserveAspectRatio="xMaxYMin meet">
 <g id="arrow_out" transform="scale(0.3 0.3)">
  <a xlink:href="structitk_1_1simple_1_1ScaleTransform_1_1MyVisitor__coll__graph_org.svg" target="_base">
   <rect id="button" ry="5" rx="5" y="6" x="6" height="38" width="38"
        fill="#f2f5e9" fill-opacity="0.5" stroke="#606060" stroke-width="1.0"/>
   <path id="arrow"
     d="M 11.500037,31.436501 C 11.940474,20.09759 22.043105,11.32322 32.158766,21.979434 L 37.068811,17.246167 C 37.068811,17.246167 37.088388,32 37.088388,32 L 22.160133,31.978069 C 22.160133,31.978069 26.997745,27.140456 26.997745,27.140456 C 18.528582,18.264221 13.291696,25.230495 11.500037,31.436501 z"
     style="fill:#404040;"/>
  </a>
 </g>
</svg>

<style type='text/css'>
<![CDATA[
[data-mouse-over-selected='false'] { opacity: 0.7; }
[data-mouse-over-selected='true']  { opacity: 1.0; }
]]>
</style>
<script type="application/ecmascript"><![CDATA[
document.addEventListener('DOMContentLoaded', (event) => {
  highlightEdges();
  highlightAdjacentNodes();
});
]]></script>
</svg>
