<?xml version="1.0" encoding="UTF-8" standalone="no"?>
<!DOCTYPE svg PUBLIC "-//W3C//DTD SVG 1.1//EN"
 "http://www.w3.org/Graphics/SVG/1.1/DTD/svg11.dtd">
<!-- Generated by graphviz version 2.43.0 (0)
 -->
<!-- Title: itk::simple::Transform::TransformTryCastVisitor Pages: 1 -->
<svg width="1563pt" height="215pt"
 viewBox="0.00 0.00 1563.00 215.00" xmlns="http://www.w3.org/2000/svg" xmlns:xlink="http://www.w3.org/1999/xlink">
<g id="graph0" class="graph" transform="scale(1 1) rotate(0) translate(4 211)">
<title>itk::simple::Transform::TransformTryCastVisitor</title>
<polygon fill="white" stroke="transparent" points="-4,4 -4,-211 1559,-211 1559,4 -4,4"/>
<!-- Node1 -->
<g id="node1" class="node">
<title>Node1</title>
<g id="a_node1"><a xlink:title=" ">
<polygon fill="#bfbfbf" stroke="black" points="1416,-121.5 1416,-151.5 1555,-151.5 1555,-121.5 1416,-121.5"/>
<text text-anchor="start" x="1424" y="-139.5" font-family="Helvetica,sans-Serif" font-size="10.00">itk::simple::Transform</text>
<text text-anchor="middle" x="1485.5" y="-128.5" font-family="Helvetica,sans-Serif" font-size="10.00">::TransformTryCastVisitor</text>
</a>
</g>
</g>
<!-- Node2 -->
<g id="node2" class="node">
<title>Node2</title>
<g id="a_node2"><a xlink:href="https://www.itk.org/Doxygen/html/classitk_1_1TransformBaseTemplate.html" xlink:title=" ">
<polygon fill="white" stroke="black" points="1175,-98.5 1175,-128.5 1328,-128.5 1328,-98.5 1175,-98.5"/>
<text text-anchor="start" x="1183" y="-116.5" font-family="Helvetica,sans-Serif" font-size="10.00">itk::TransformBaseTemplate</text>
<text text-anchor="middle" x="1251.5" y="-105.5" font-family="Helvetica,sans-Serif" font-size="10.00">&lt; TParametersValueType &gt;</text>
</a>
</g>
</g>
<!-- Node2&#45;&gt;Node1 -->
<g id="edge1" class="edge">
<title>Node2&#45;&gt;Node1</title>
<path fill="none" stroke="#9a32cd" stroke-dasharray="5,2" d="M1338.18,-121.99C1363.7,-124.52 1391.33,-127.26 1415.63,-129.67"/>
<polygon fill="#9a32cd" stroke="#9a32cd" points="1338.44,-118.5 1328.14,-121 1337.75,-125.47 1338.44,-118.5"/>
<text text-anchor="middle" x="1372" y="-130.5" font-family="Helvetica,sans-Serif" font-size="10.00"> transform</text>
</g>
<!-- Node3 -->
<g id="node3" class="node">
<title>Node3</title>
<g id="a_node3"><a xlink:href="https://www.itk.org/Doxygen/html/classitk_1_1Object.html" xlink:title=" ">
<polygon fill="white" stroke="black" points="1049,-100 1049,-119 1116,-119 1116,-100 1049,-100"/>
<text text-anchor="middle" x="1082.5" y="-107" font-family="Helvetica,sans-Serif" font-size="10.00">itk::Object</text>
</a>
</g>
</g>
<!-- Node3&#45;&gt;Node2 -->
<g id="edge2" class="edge">
<title>Node3&#45;&gt;Node2</title>
<path fill="none" stroke="midnightblue" d="M1126.41,-110.53C1141.17,-110.88 1158.17,-111.29 1174.76,-111.69"/>
<polygon fill="midnightblue" stroke="midnightblue" points="1126.18,-107.02 1116.1,-110.28 1126.01,-114.02 1126.18,-107.02"/>
</g>
<!-- Node4 -->
<g id="node4" class="node">
<title>Node4</title>
<g id="a_node4"><a xlink:href="https://www.itk.org/Doxygen/html/classitk_1_1LightObject.html" xlink:title=" ">
<polygon fill="white" stroke="black" points="777.5,-139 777.5,-158 868.5,-158 868.5,-139 777.5,-139"/>
<text text-anchor="middle" x="823" y="-146" font-family="Helvetica,sans-Serif" font-size="10.00">itk::LightObject</text>
</a>
</g>
</g>
<!-- Node4&#45;&gt;Node3 -->
<g id="edge3" class="edge">
<title>Node4&#45;&gt;Node3</title>
<path fill="none" stroke="midnightblue" d="M878.73,-144.15C920.66,-140.27 979.82,-133.62 1031,-123.5 1037.16,-122.28 1043.67,-120.7 1049.89,-119.05"/>
<polygon fill="midnightblue" stroke="midnightblue" points="878.37,-140.67 868.72,-145.05 879,-147.64 878.37,-140.67"/>
</g>
<!-- Node5 -->
<g id="node5" class="node">
<title>Node5</title>
<g id="a_node5"><a xlink:title=" ">
<polygon fill="white" stroke="#bfbfbf" points="474,-138 474,-157 581,-157 581,-138 474,-138"/>
<text text-anchor="middle" x="527.5" y="-145" font-family="Helvetica,sans-Serif" font-size="10.00">std::atomic&lt; int &gt;</text>
</a>
</g>
</g>
<!-- Node5&#45;&gt;Node4 -->
<g id="edge4" class="edge">
<title>Node5&#45;&gt;Node4</title>
<path fill="none" stroke="#9a32cd" stroke-dasharray="5,2" d="M591.46,-147.71C647.38,-147.91 727.72,-148.18 777.29,-148.35"/>
<polygon fill="#9a32cd" stroke="#9a32cd" points="591.32,-144.21 581.31,-147.68 591.3,-151.21 591.32,-144.21"/>
<text text-anchor="middle" x="687.5" y="-150.5" font-family="Helvetica,sans-Serif" font-size="10.00"> m_ReferenceCount</text>
</g>
<!-- Node6 -->
<g id="node6" class="node">
<title>Node6</title>
<g id="a_node6"><a xlink:title="STL class.">
<polygon fill="white" stroke="#bfbfbf" points="123,-127 123,-146 223,-146 223,-127 123,-127"/>
<text text-anchor="middle" x="173" y="-134" font-family="Helvetica,sans-Serif" font-size="10.00">std::atomic&lt; T &gt;</text>
</a>
</g>
</g>
<!-- Node6&#45;&gt;Node5 -->
<g id="edge5" class="edge">
<title>Node6&#45;&gt;Node5</title>
<path fill="none" stroke="orange" stroke-dasharray="5,2" d="M233.04,-138.34C300.35,-140.44 409.37,-143.84 473.88,-145.86"/>
<polygon fill="orange" stroke="orange" points="233.12,-134.84 223.01,-138.03 232.9,-141.84 233.12,-134.84"/>
<text text-anchor="middle" x="334" y="-146.5" font-family="Helvetica,sans-Serif" font-size="10.00"> &lt; int &gt;</text>
</g>
<!-- Node15 -->
<g id="node15" class="node">
<title>Node15</title>
<g id="a_node15"><a xlink:href="https://www.itk.org/Doxygen/html/classitk_1_1TimeStamp.html" xlink:title=" ">
<polygon fill="white" stroke="black" points="641.5,-100 641.5,-119 733.5,-119 733.5,-100 641.5,-100"/>
<text text-anchor="middle" x="687.5" y="-107" font-family="Helvetica,sans-Serif" font-size="10.00">itk::TimeStamp</text>
</a>
</g>
</g>
<!-- Node6&#45;&gt;Node15 -->
<g id="edge17" class="edge">
<title>Node6&#45;&gt;Node15</title>
<path fill="none" stroke="#9a32cd" stroke-dasharray="5,2" d="M233.38,-125.54C238.98,-124.75 244.59,-124.05 250,-123.5 392.39,-109.11 562.1,-108.33 641.44,-108.91"/>
<polygon fill="#9a32cd" stroke="#9a32cd" points="232.7,-122.1 223.33,-127.05 233.74,-129.02 232.7,-122.1"/>
<text text-anchor="middle" x="334" y="-126.5" font-family="Helvetica,sans-Serif" font-size="10.00"> m_GlobalTimeStamp</text>
</g>
<!-- Node7 -->
<g id="node7" class="node">
<title>Node7</title>
<g id="a_node7"><a xlink:title=" ">
<polygon fill="white" stroke="#bfbfbf" points="0,-110 0,-129 29,-129 29,-110 0,-110"/>
<text text-anchor="middle" x="14.5" y="-117" font-family="Helvetica,sans-Serif" font-size="10.00">T</text>
</a>
</g>
</g>
<!-- Node7&#45;&gt;Node6 -->
<g id="edge6" class="edge">
<title>Node7&#45;&gt;Node6</title>
<path fill="none" stroke="#9a32cd" stroke-dasharray="5,2" d="M39.23,-122.08C61.29,-124.47 94.84,-128.12 122.7,-131.14"/>
<polygon fill="#9a32cd" stroke="#9a32cd" points="39.43,-118.58 29.11,-120.98 38.68,-125.54 39.43,-118.58"/>
<text text-anchor="middle" x="71.5" y="-130.5" font-family="Helvetica,sans-Serif" font-size="10.00"> ptr</text>
</g>
<!-- Node12 -->
<g id="node12" class="node">
<title>Node12</title>
<g id="a_node12"><a xlink:title="STL class.">
<polygon fill="white" stroke="#bfbfbf" points="122.5,-32 122.5,-51 223.5,-51 223.5,-32 122.5,-32"/>
<text text-anchor="middle" x="173" y="-39" font-family="Helvetica,sans-Serif" font-size="10.00">std::map&lt; K, T &gt;</text>
</a>
</g>
</g>
<!-- Node7&#45;&gt;Node12 -->
<g id="edge13" class="edge">
<title>Node7&#45;&gt;Node12</title>
<path fill="none" stroke="#9a32cd" stroke-dasharray="5,2" d="M27.95,-101.66C33.2,-95.2 39.78,-88.31 47,-83.5 70.52,-67.82 100.44,-57.49 125.11,-51"/>
<polygon fill="#9a32cd" stroke="#9a32cd" points="24.91,-99.88 21.67,-109.97 30.49,-104.1 24.91,-99.88"/>
<text text-anchor="middle" x="71.5" y="-86.5" font-family="Helvetica,sans-Serif" font-size="10.00"> elements</text>
</g>
<!-- Node14 -->
<g id="node14" class="node">
<title>Node14</title>
<g id="a_node14"><a xlink:title="STL class.">
<polygon fill="white" stroke="#bfbfbf" points="114,-83 114,-102 232,-102 232,-83 114,-83"/>
<text text-anchor="middle" x="173" y="-90" font-family="Helvetica,sans-Serif" font-size="10.00">std::shared_ptr&lt; T &gt;</text>
</a>
</g>
</g>
<!-- Node7&#45;&gt;Node14 -->
<g id="edge15" class="edge">
<title>Node7&#45;&gt;Node14</title>
<path fill="none" stroke="#9a32cd" stroke-dasharray="5,2" d="M38.69,-109.94C41.46,-109.02 44.27,-108.17 47,-107.5 68.54,-102.19 92.65,-98.73 113.9,-96.49"/>
<polygon fill="#9a32cd" stroke="#9a32cd" points="37.23,-106.75 29.07,-113.5 39.66,-113.31 37.23,-106.75"/>
<text text-anchor="middle" x="71.5" y="-110.5" font-family="Helvetica,sans-Serif" font-size="10.00"> ptr</text>
</g>
<!-- Node18 -->
<g id="node18" class="node">
<title>Node18</title>
<g id="a_node18"><a xlink:title="STL class.">
<polygon fill="white" stroke="#bfbfbf" points="114,-170 114,-189 232,-189 232,-170 114,-170"/>
<text text-anchor="middle" x="173" y="-177" font-family="Helvetica,sans-Serif" font-size="10.00">std::unique_ptr&lt; T &gt;</text>
</a>
</g>
</g>
<!-- Node7&#45;&gt;Node18 -->
<g id="edge21" class="edge">
<title>Node7&#45;&gt;Node18</title>
<path fill="none" stroke="#9a32cd" stroke-dasharray="5,2" d="M34.6,-135.03C38.55,-137.77 42.79,-140.42 47,-142.5 72.05,-154.89 102.03,-163.94 126.34,-169.98"/>
<polygon fill="#9a32cd" stroke="#9a32cd" points="36.67,-132.2 26.56,-129.03 32.48,-137.81 36.67,-132.2"/>
<text text-anchor="middle" x="71.5" y="-163.5" font-family="Helvetica,sans-Serif" font-size="10.00"> ptr</text>
</g>
<!-- Node8 -->
<g id="node8" class="node">
<title>Node8</title>
<g id="a_node8"><a xlink:title="STL class.">
<polygon fill="white" stroke="#bfbfbf" points="790.5,-11 790.5,-30 855.5,-30 855.5,-11 790.5,-11"/>
<text text-anchor="middle" x="823" y="-18" font-family="Helvetica,sans-Serif" font-size="10.00">std::string</text>
</a>
</g>
</g>
<!-- Node8&#45;&gt;Node3 -->
<g id="edge7" class="edge">
<title>Node8&#45;&gt;Node3</title>
<path fill="none" stroke="#9a32cd" stroke-dasharray="5,2" d="M865.66,-17.87C909.53,-16.95 979.26,-20.88 1031,-49.5 1052.45,-61.36 1068.7,-86.21 1076.46,-99.91"/>
<polygon fill="#9a32cd" stroke="#9a32cd" points="865.53,-14.37 855.64,-18.17 865.74,-21.37 865.53,-14.37"/>
<text text-anchor="middle" x="969.5" y="-52.5" font-family="Helvetica,sans-Serif" font-size="10.00"> m_ObjectName</text>
</g>
<!-- Node9 -->
<g id="node9" class="node">
<title>Node9</title>
<g id="a_node9"><a xlink:title="STL class.">
<polygon fill="white" stroke="#bfbfbf" points="475.5,-0.5 475.5,-30.5 579.5,-30.5 579.5,-0.5 475.5,-0.5"/>
<text text-anchor="start" x="483.5" y="-18.5" font-family="Helvetica,sans-Serif" font-size="10.00">std::basic_string&lt;</text>
<text text-anchor="middle" x="527.5" y="-7.5" font-family="Helvetica,sans-Serif" font-size="10.00"> char &gt;</text>
</a>
</g>
</g>
<!-- Node9&#45;&gt;Node8 -->
<g id="edge8" class="edge">
<title>Node9&#45;&gt;Node8</title>
<path fill="none" stroke="midnightblue" d="M589.93,-16.55C651.13,-17.59 742.67,-19.15 790.43,-19.96"/>
<polygon fill="midnightblue" stroke="midnightblue" points="589.68,-13.04 579.62,-16.37 589.56,-20.04 589.68,-13.04"/>
</g>
<!-- Node10 -->
<g id="node10" class="node">
<title>Node10</title>
<g id="a_node10"><a xlink:href="https://www.itk.org/Doxygen/html/classitk_1_1MetaDataDictionary.html" xlink:title=" ">
<polygon fill="white" stroke="black" points="756,-54 756,-73 890,-73 890,-54 756,-54"/>
<text text-anchor="middle" x="823" y="-61" font-family="Helvetica,sans-Serif" font-size="10.00">itk::MetaDataDictionary</text>
</a>
</g>
</g>
<!-- Node10&#45;&gt;Node3 -->
<g id="edge9" class="edge">
<title>Node10&#45;&gt;Node3</title>
<path fill="none" stroke="#9a32cd" stroke-dasharray="5,2" d="M900.52,-64.75C940.11,-67.01 988.85,-72.36 1031,-84.5 1043.22,-88.02 1056.05,-94.41 1065.72,-99.85"/>
<polygon fill="#9a32cd" stroke="#9a32cd" points="900.57,-61.24 890.4,-64.22 900.21,-68.23 900.57,-61.24"/>
<text text-anchor="middle" x="969.5" y="-87.5" font-family="Helvetica,sans-Serif" font-size="10.00"> m_MetaDataDictionary</text>
</g>
<!-- Node11 -->
<g id="node11" class="node">
<title>Node11</title>
<g id="a_node11"><a xlink:title=" ">
<polygon fill="white" stroke="#bfbfbf" points="453,-49.5 453,-79.5 602,-79.5 602,-49.5 453,-49.5"/>
<text text-anchor="start" x="461" y="-67.5" font-family="Helvetica,sans-Serif" font-size="10.00">std::shared_ptr&lt; MetaData</text>
<text text-anchor="middle" x="527.5" y="-56.5" font-family="Helvetica,sans-Serif" font-size="10.00">DictionaryMapType &gt;</text>
</a>
</g>
</g>
<!-- Node11&#45;&gt;Node10 -->
<g id="edge10" class="edge">
<title>Node11&#45;&gt;Node10</title>
<path fill="none" stroke="#9a32cd" stroke-dasharray="5,2" d="M612.33,-64.21C657.86,-64.06 713.35,-63.87 755.81,-63.73"/>
<polygon fill="#9a32cd" stroke="#9a32cd" points="612.17,-60.71 602.18,-64.25 612.2,-67.71 612.17,-60.71"/>
<text text-anchor="middle" x="687.5" y="-66.5" font-family="Helvetica,sans-Serif" font-size="10.00"> m_Dictionary</text>
</g>
<!-- Node12&#45;&gt;Node11 -->
<g id="edge11" class="edge">
<title>Node12&#45;&gt;Node11</title>
<path fill="none" stroke="#9a32cd" stroke-dasharray="5,2" d="M233.9,-38.49C283.4,-36.78 355.45,-36.09 418,-42.5 432.72,-44.01 448.4,-46.6 463.14,-49.49"/>
<polygon fill="#9a32cd" stroke="#9a32cd" points="233.55,-35 223.69,-38.87 233.81,-41.99 233.55,-35"/>
<text text-anchor="middle" x="334" y="-45.5" font-family="Helvetica,sans-Serif" font-size="10.00"> ptr</text>
</g>
<!-- Node13 -->
<g id="node13" class="node">
<title>Node13</title>
<g id="a_node13"><a xlink:title=" ">
<polygon fill="white" stroke="#bfbfbf" points="0,-25 0,-44 29,-44 29,-25 0,-25"/>
<text text-anchor="middle" x="14.5" y="-32" font-family="Helvetica,sans-Serif" font-size="10.00">K</text>
</a>
</g>
</g>
<!-- Node13&#45;&gt;Node12 -->
<g id="edge12" class="edge">
<title>Node13&#45;&gt;Node12</title>
<path fill="none" stroke="#9a32cd" stroke-dasharray="5,2" d="M39.29,-34.38C55.32,-34.4 76.94,-34.63 96,-35.5 104.46,-35.89 113.44,-36.45 122.15,-37.09"/>
<polygon fill="#9a32cd" stroke="#9a32cd" points="39.18,-30.88 29.18,-34.39 39.19,-37.88 39.18,-30.88"/>
<text text-anchor="middle" x="71.5" y="-38.5" font-family="Helvetica,sans-Serif" font-size="10.00"> keys</text>
</g>
<!-- Node14&#45;&gt;Node11 -->
<g id="edge14" class="edge">
<title>Node14&#45;&gt;Node11</title>
<path fill="none" stroke="orange" stroke-dasharray="5,2" d="M223.11,-80.93C232.01,-79.19 241.25,-77.6 250,-76.5 318.41,-67.87 397,-65.15 452.87,-64.42"/>
<polygon fill="orange" stroke="orange" points="222.33,-77.52 213.24,-82.96 223.74,-84.38 222.33,-77.52"/>
<text text-anchor="middle" x="334" y="-79.5" font-family="Helvetica,sans-Serif" font-size="10.00"> &lt; MetaDataDictionaryMapType &gt;</text>
</g>
<!-- Node15&#45;&gt;Node3 -->
<g id="edge16" class="edge">
<title>Node15&#45;&gt;Node3</title>
<path fill="none" stroke="#9a32cd" stroke-dasharray="5,2" d="M743.59,-109.5C826.69,-109.5 981.53,-109.5 1048.84,-109.5"/>
<polygon fill="#9a32cd" stroke="#9a32cd" points="743.58,-106 733.58,-109.5 743.58,-113 743.58,-106"/>
<text text-anchor="middle" x="823" y="-112.5" font-family="Helvetica,sans-Serif" font-size="10.00"> m_MTime</text>
</g>
<!-- Node16 -->
<g id="node16" class="node">
<title>Node16</title>
<g id="a_node16"><a xlink:href="classitk_1_1simple_1_1Transform.html" target="_top" xlink:title="A simplified wrapper around a variety of ITK transforms.">
<polygon fill="white" stroke="black" points="908,-167 908,-186 1031,-186 1031,-167 908,-167"/>
<text text-anchor="middle" x="969.5" y="-174" font-family="Helvetica,sans-Serif" font-size="10.00">itk::simple::Transform</text>
</a>
</g>
</g>
<!-- Node16&#45;&gt;Node1 -->
<g id="edge18" class="edge">
<title>Node16&#45;&gt;Node1</title>
<path fill="none" stroke="#9a32cd" stroke-dasharray="5,2" d="M1041.41,-170.98C1140.22,-163.29 1318.13,-149.45 1415.76,-141.85"/>
<polygon fill="#9a32cd" stroke="#9a32cd" points="1040.93,-167.51 1031.23,-171.77 1041.47,-174.49 1040.93,-167.51"/>
<text text-anchor="middle" x="1145.5" y="-165.5" font-family="Helvetica,sans-Serif" font-size="10.00"> that</text>
</g>
<!-- Node17 -->
<g id="node17" class="node">
<title>Node17</title>
<g id="a_node17"><a xlink:title=" ">
<polygon fill="white" stroke="#bfbfbf" points="436,-176.5 436,-206.5 619,-206.5 619,-176.5 436,-176.5"/>
<text text-anchor="start" x="444" y="-194.5" font-family="Helvetica,sans-Serif" font-size="10.00">std::unique_ptr&lt; PimpleTransform</text>
<text text-anchor="middle" x="527.5" y="-183.5" font-family="Helvetica,sans-Serif" font-size="10.00">Base &gt;</text>
</a>
</g>
</g>
<!-- Node17&#45;&gt;Node16 -->
<g id="edge19" class="edge">
<title>Node17&#45;&gt;Node16</title>
<path fill="none" stroke="#9a32cd" stroke-dasharray="5,2" d="M629.18,-188.07C715.2,-185.14 836.11,-181.01 907.97,-178.56"/>
<polygon fill="#9a32cd" stroke="#9a32cd" points="629.01,-184.57 619.13,-188.41 629.25,-191.57 629.01,-184.57"/>
<text text-anchor="middle" x="687.5" y="-190.5" font-family="Helvetica,sans-Serif" font-size="10.00"> m_PimpleTransform</text>
</g>
<!-- Node18&#45;&gt;Node17 -->
<g id="edge20" class="edge">
<title>Node18&#45;&gt;Node17</title>
<path fill="none" stroke="orange" stroke-dasharray="5,2" d="M242.22,-181.82C297.33,-183.7 375.38,-186.36 435.76,-188.41"/>
<polygon fill="orange" stroke="orange" points="242.32,-178.32 232.21,-181.48 242.08,-185.32 242.32,-178.32"/>
<text text-anchor="middle" x="334" y="-190.5" font-family="Helvetica,sans-Serif" font-size="10.00"> &lt; PimpleTransformBase &gt;</text>
</g>
</g>
</svg>
