<?xml version="1.0" encoding="UTF-8" standalone="no"?>
<!DOCTYPE svg PUBLIC "-//W3C//DTD SVG 1.1//EN"
 "http://www.w3.org/Graphics/SVG/1.1/DTD/svg11.dtd">
<!-- Generated by graphviz version 2.43.0 (0)
 -->
<!-- Title: itk::simple::detail::hash&lt; std::pair&lt; S, T &gt; &gt; Pages: 1 -->
<svg width="210pt" height="182pt"
 viewBox="0.00 0.00 209.50 182.00" xmlns="http://www.w3.org/2000/svg" xmlns:xlink="http://www.w3.org/1999/xlink">
<g id="graph0" class="graph" transform="scale(1 1) rotate(0) translate(4 178)">
<title>itk::simple::detail::hash&lt; std::pair&lt; S, T &gt; &gt;</title>
<!-- Node1 -->
<g id="Node000001" class="node">
<title>Node1</title>
<g id="a_Node000001"><a xlink:title=" ">
<polygon fill="#999999" stroke="#666666" points="117,-41 0,-41 0,0 117,0 117,-41"/>
<text text-anchor="start" x="8" y="-29" font-family="Helvetica,sans-Serif" font-size="10.00">itk::simple::detail</text>
<text text-anchor="start" x="8" y="-18" font-family="Helvetica,sans-Serif" font-size="10.00">::hash&lt; std::pair&lt; S,</text>
<text text-anchor="middle" x="58.5" y="-7" font-family="Helvetica,sans-Serif" font-size="10.00"> T &gt; &gt;</text>
</a>
</g>
</g>
<!-- Node2 -->
<g id="Node000002" class="node">
<title>Node2</title>
<g id="a_Node000002"><a xlink:title=" ">
<polygon fill="white" stroke="#666666" points="99,-174 10,-174 10,-155 99,-155 99,-174"/>
<text text-anchor="middle" x="54.5" y="-162" font-family="Helvetica,sans-Serif" font-size="10.00">std::hash&lt; T &gt;</text>
</a>
</g>
</g>
<!-- Node2&#45;&gt;Node1 -->
<g id="edge1_Node000001_Node000002" class="edge">
<title>Node2&#45;&gt;Node1</title>
<g id="a_edge1_Node000001_Node000002"><a xlink:title=" ">
<path fill="none" stroke="#63b8ff" d="M55.03,-144.55C55.79,-117.59 57.18,-68.41 57.95,-41.1"/>
<polygon fill="#63b8ff" stroke="#63b8ff" points="51.53,-144.52 54.75,-154.62 58.53,-144.72 51.53,-144.52"/>
</a>
</g>
</g>
<!-- Node3 -->
<g id="Node000003" class="node">
<title>Node3</title>
<g id="a_Node000003"><a xlink:href="structitk_1_1simple_1_1detail_1_1hash.html" target="_top" xlink:title=" ">
<polygon fill="white" stroke="#666666" points="172.5,-118 70.5,-118 70.5,-88 172.5,-88 172.5,-118"/>
<text text-anchor="start" x="78.5" y="-106" font-family="Helvetica,sans-Serif" font-size="10.00">itk::simple::detail</text>
<text text-anchor="middle" x="121.5" y="-95" font-family="Helvetica,sans-Serif" font-size="10.00">::hash&lt; T &gt;</text>
</a>
</g>
</g>
<!-- Node2&#45;&gt;Node3 -->
<g id="edge3_Node000003_Node000002" class="edge">
<title>Node2&#45;&gt;Node3</title>
<g id="a_edge3_Node000003_Node000002"><a xlink:title=" ">
<path fill="none" stroke="#63b8ff" d="M71.79,-148.15C82.26,-138.85 95.52,-127.07 105.71,-118.02"/>
<polygon fill="#63b8ff" stroke="#63b8ff" points="69.25,-145.72 64.1,-154.98 73.9,-150.95 69.25,-145.72"/>
</a>
</g>
</g>
<!-- Node3&#45;&gt;Node1 -->
<g id="edge2_Node000001_Node000003" class="edge">
<title>Node3&#45;&gt;Node1</title>
<g id="a_edge2_Node000001_Node000003"><a xlink:title=" ">
<path fill="none" stroke="orange" stroke-dasharray="5,2" d="M104.34,-80.08C94.81,-67.9 83.05,-52.87 73.83,-41.09"/>
<polygon fill="orange" stroke="orange" points="101.61,-82.26 110.53,-87.98 107.12,-77.95 101.61,-82.26"/>
</a>
</g>
<text text-anchor="middle" x="148.5" y="-62" font-family="Helvetica,sans-Serif" font-size="10.00" fill="grey"> &lt; std::pair&lt; S, T &gt; &gt;</text>
</g>
</g>
</svg>
