<?xml version="1.0" encoding="UTF-8" standalone="no"?>
<!DOCTYPE svg PUBLIC "-//W3C//DTD SVG 1.1//EN"
 "http://www.w3.org/Graphics/SVG/1.1/DTD/svg11.dtd">
<!-- Generated by graphviz version 2.43.0 (0)
 -->
<!-- Title: itk::simple::Transform::TransformTryCastVisitor Pages: 1 -->
<svg width="404pt" height="324pt"
 viewBox="0.00 0.00 403.50 324.00" xmlns="http://www.w3.org/2000/svg" xmlns:xlink="http://www.w3.org/1999/xlink">

<svg id="main" version="1.1" xmlns="http://www.w3.org/2000/svg" xmlns:xlink="http://www.w3.org/1999/xlink" xml:space="preserve">

<style type="text/css"><![CDATA[
.node, .edge {opacity: 0.7;}
.node.selected, .edge.selected {opacity: 1;}
.edge:hover path { stroke: red; }
.edge:hover polygon { stroke: red; fill: red; }
]]></style>
<script type="application/ecmascript" xlink:href="svg.min.js"/>
<svg id="graph" class="graph">
<g id="graph0" class="graph" transform="scale(1 1) rotate(0) translate(4 320)">
<title>itk::simple::Transform::TransformTryCastVisitor</title>
<!-- Node1 -->
<g id="Node000001" class="node">
<title>Node1</title>
<g id="a_Node000001"><a xlink:title=" ">
<polygon fill="#999999" stroke="#666666" points="238,-30 99,-30 99,0 238,0 238,-30"/>
<text text-anchor="start" x="107" y="-18" font-family="Helvetica,sans-Serif" font-size="10.00">itk::simple::Transform</text>
<text text-anchor="middle" x="168.5" y="-7" font-family="Helvetica,sans-Serif" font-size="10.00">::TransformTryCastVisitor</text>
</a>
</g>
</g>
<!-- Node2 -->
<g id="Node000002" class="node">
<title>Node2</title>
<g id="a_Node000002"><a xlink:href="classitk_1_1TransformBaseTemplate.html" target="_top" xlink:title=" ">
<polygon fill="white" stroke="#666666" points="168,-107 15,-107 15,-77 168,-77 168,-107"/>
<text text-anchor="start" x="23" y="-95" font-family="Helvetica,sans-Serif" font-size="10.00">itk::TransformBaseTemplate</text>
<text text-anchor="middle" x="91.5" y="-84" font-family="Helvetica,sans-Serif" font-size="10.00">&lt; double &gt;</text>
</a>
</g>
</g>
<!-- Node2&#45;&gt;Node1 -->
<g id="edge1_Node000001_Node000002" class="edge">
<title>Node2&#45;&gt;Node1</title>
<g id="a_edge1_Node000001_Node000002"><a xlink:title=" ">
<path fill="none" stroke="#9a32cd" stroke-dasharray="5,2" d="M113.25,-69.82C126.32,-57.08 142.59,-41.24 154.08,-30.04"/>
<polygon fill="#9a32cd" stroke="#9a32cd" points="110.7,-67.41 105.98,-76.89 115.59,-72.42 110.7,-67.41"/>
</a>
</g>
<text text-anchor="middle" x="160.5" y="-51" font-family="Helvetica,sans-Serif" font-size="10.00" fill="grey"> transform</text>
</g>
<!-- Node3 -->
<g id="Node000003" class="node">
<title>Node3</title>
<g id="a_Node000003"><a xlink:href="classitk_1_1TransformBaseTemplate.html" target="_top" xlink:title=" ">
<polygon fill="white" stroke="#666666" points="153,-184 0,-184 0,-154 153,-154 153,-184"/>
<text text-anchor="start" x="8" y="-172" font-family="Helvetica,sans-Serif" font-size="10.00">itk::TransformBaseTemplate</text>
<text text-anchor="middle" x="76.5" y="-161" font-family="Helvetica,sans-Serif" font-size="10.00">&lt; TScalar &gt;</text>
</a>
</g>
</g>
<!-- Node3&#45;&gt;Node2 -->
<g id="edge2_Node000002_Node000003" class="edge">
<title>Node3&#45;&gt;Node2</title>
<g id="a_edge2_Node000002_Node000003"><a xlink:title=" ">
<path fill="none" stroke="orange" stroke-dasharray="5,2" d="M81.32,-143.91C83.75,-131.74 86.62,-117.4 88.69,-107.04"/>
<polygon fill="orange" stroke="orange" points="77.85,-143.4 79.32,-153.89 84.71,-144.77 77.85,-143.4"/>
</a>
</g>
<text text-anchor="middle" x="114" y="-128" font-family="Helvetica,sans-Serif" font-size="10.00" fill="grey"> &lt; double &gt;</text>
</g>
<!-- Node4 -->
<g id="Node000004" class="node">
<title>Node4</title>
<g id="a_Node000004"><a xlink:href="classitk_1_1simple_1_1Transform.html" target="_top" xlink:title="A simplified wrapper around a variety of ITK transforms.">
<polygon fill="white" stroke="#666666" points="316,-101.5 193,-101.5 193,-82.5 316,-82.5 316,-101.5"/>
<text text-anchor="middle" x="254.5" y="-89.5" font-family="Helvetica,sans-Serif" font-size="10.00">itk::simple::Transform</text>
</a>
</g>
</g>
<!-- Node4&#45;&gt;Node1 -->
<g id="edge3_Node000001_Node000004" class="edge">
<title>Node4&#45;&gt;Node1</title>
<g id="a_edge3_Node000001_Node000004"><a xlink:title=" ">
<path fill="none" stroke="#9a32cd" stroke-dasharray="5,2" d="M236.9,-75.65C221.59,-62.3 199.57,-43.09 184.68,-30.11"/>
<polygon fill="#9a32cd" stroke="#9a32cd" points="234.8,-78.46 244.63,-82.4 239.4,-73.19 234.8,-78.46"/>
</a>
</g>
<text text-anchor="middle" x="228" y="-51" font-family="Helvetica,sans-Serif" font-size="10.00" fill="grey"> that</text>
</g>
<!-- Node5 -->
<g id="Node000005" class="node">
<title>Node5</title>
<g id="a_Node000005"><a xlink:title=" ">
<polygon fill="white" stroke="#666666" points="354,-184 171,-184 171,-154 354,-154 354,-184"/>
<text text-anchor="start" x="179" y="-172" font-family="Helvetica,sans-Serif" font-size="10.00">std::unique_ptr&lt; PimpleTransform</text>
<text text-anchor="middle" x="262.5" y="-161" font-family="Helvetica,sans-Serif" font-size="10.00">Base &gt;</text>
</a>
</g>
</g>
<!-- Node5&#45;&gt;Node4 -->
<g id="edge4_Node000004_Node000005" class="edge">
<title>Node5&#45;&gt;Node4</title>
<g id="a_edge4_Node000004_Node000005"><a xlink:title=" ">
<path fill="none" stroke="#9a32cd" stroke-dasharray="5,2" d="M259.91,-143.68C258.38,-129.36 256.54,-112.11 255.45,-101.87"/>
<polygon fill="#9a32cd" stroke="#9a32cd" points="256.45,-144.32 261,-153.89 263.41,-143.58 256.45,-144.32"/>
</a>
</g>
<text text-anchor="middle" x="309" y="-128" font-family="Helvetica,sans-Serif" font-size="10.00" fill="grey"> m_PimpleTransform</text>
</g>
<!-- Node6 -->
<g id="Node000006" class="node">
<title>Node6</title>
<g id="a_Node000006"><a xlink:title=" ">
<polygon fill="white" stroke="#666666" points="321.5,-250 203.5,-250 203.5,-231 321.5,-231 321.5,-250"/>
<text text-anchor="middle" x="262.5" y="-238" font-family="Helvetica,sans-Serif" font-size="10.00">std::unique_ptr&lt; T &gt;</text>
</a>
</g>
</g>
<!-- Node6&#45;&gt;Node5 -->
<g id="edge5_Node000005_Node000006" class="edge">
<title>Node6&#45;&gt;Node5</title>
<g id="a_edge5_Node000005_Node000006"><a xlink:title=" ">
<path fill="none" stroke="orange" stroke-dasharray="5,2" d="M262.5,-220.71C262.5,-209.19 262.5,-194.68 262.5,-184.14"/>
<polygon fill="orange" stroke="orange" points="259,-220.98 262.5,-230.98 266,-220.98 259,-220.98"/>
</a>
</g>
<text text-anchor="middle" x="329" y="-205" font-family="Helvetica,sans-Serif" font-size="10.00" fill="grey"> &lt; PimpleTransformBase &gt;</text>
</g>
<!-- Node7 -->
<g id="Node000007" class="node">
<title>Node7</title>
<g id="a_Node000007"><a xlink:title=" ">
<polygon fill="white" stroke="#666666" points="277,-316 248,-316 248,-297 277,-297 277,-316"/>
<text text-anchor="middle" x="262.5" y="-304" font-family="Helvetica,sans-Serif" font-size="10.00">T</text>
</a>
</g>
</g>
<!-- Node7&#45;&gt;Node6 -->
<g id="edge6_Node000006_Node000007" class="edge">
<title>Node7&#45;&gt;Node6</title>
<g id="a_edge6_Node000006_Node000007"><a xlink:title=" ">
<path fill="none" stroke="#9a32cd" stroke-dasharray="5,2" d="M262.5,-286.58C262.5,-274.63 262.5,-259.72 262.5,-250.41"/>
<polygon fill="#9a32cd" stroke="#9a32cd" points="259,-286.87 262.5,-296.87 266,-286.87 259,-286.87"/>
</a>
</g>
<text text-anchor="middle" x="271" y="-271" font-family="Helvetica,sans-Serif" font-size="10.00" fill="grey"> ptr</text>
</g>
</g>
</svg>
</svg>

<style type='text/css'>
<![CDATA[
[data-mouse-over-selected='false'] { opacity: 0.7; }
[data-mouse-over-selected='true']  { opacity: 1.0; }
]]>
</style>
<script type="application/ecmascript"><![CDATA[
document.addEventListener('DOMContentLoaded', (event) => {
  highlightEdges();
  highlightAdjacentNodes();
});
]]></script>
</svg>
