<?xml version="1.0" encoding="UTF-8" standalone="no"?>
<!DOCTYPE svg PUBLIC "-//W3C//DTD SVG 1.1//EN"
 "http://www.w3.org/Graphics/SVG/1.1/DTD/svg11.dtd">
<!-- Generated by graphviz version 2.43.0 (0)
 -->
<!-- Title: itk::simple::AffineTransform::MyVisitor Pages: 1 -->
<!--zoomable 282 -->
<svg id="main" version="1.1" xmlns="http://www.w3.org/2000/svg" xmlns:xlink="http://www.w3.org/1999/xlink" xml:space="preserve" onload="init(evt)">
<style type="text/css"><![CDATA[
.edge:hover path { stroke: red; }
.edge:hover polygon { stroke: red; fill: red; }
]]></style>
<script type="text/javascript"><![CDATA[
var edges = document.getElementsByTagName('g');
if (edges && edges.length) {
  for (var i=0;i<edges.length;i++) {
    if (edges[i].id.substr(0,4)=='edge') {
      edges[i].setAttribute('class','edge');
    }
  }
}
]]></script>
        <defs>
                <circle id="rim" cx="0" cy="0" r="7"/>
                <circle id="rim2" cx="0" cy="0" r="3.5"/>
                <g id="zoomPlus">
                        <use xlink:href="#rim" fill="#404040">
                                <set attributeName="fill" to="#808080" begin="zoomplus.mouseover" end="zoomplus.mouseout"/>
                        </use>
                        <path d="M-4,0h8M0,-4v8" fill="none" stroke="white" stroke-width="1.5" pointer-events="none"/>
                </g>
                <g id="zoomMin">
                        <use xlink:href="#rim" fill="#404040">
                                <set attributeName="fill" to="#808080" begin="zoomminus.mouseover" end="zoomminus.mouseout"/>
                        </use>
                        <path d="M-4,0h8" fill="none" stroke="white" stroke-width="1.5" pointer-events="none"/>
                </g>
                <g id="dirArrow">
                        <path fill="none" stroke="white" stroke-width="1.5" d="M0,-3.0v7 M-2.5,-0.5L0,-3.0L2.5,-0.5"/>
                </g>
               <g id="resetDef">
                       <use xlink:href="#rim2" fill="#404040">
                               <set attributeName="fill" to="#808080" begin="reset.mouseover" end="reset.mouseout"/>
                       </use>
               </g>
        </defs>

<script type="text/javascript">
var viewWidth = 1953;
var viewHeight = 282;
var sectionId = 'dynsection-0';
</script>
<script xlink:href="svgpan.js"/>
<svg id="graph" class="graph">
<g id="viewport">
<title>itk::simple::AffineTransform::MyVisitor</title>
<polygon fill="white" stroke="transparent" points="-4,4 -4,-278 1949,-278 1949,4 -4,4"/>
<!-- Node1 -->
<g id="node1" class="node">
<title>Node1</title>
<g id="a_node1"><a xlink:title=" ">
<polygon fill="#bfbfbf" stroke="black" points="1793,-97 1793,-127 1945,-127 1945,-97 1793,-97"/>
<text text-anchor="start" x="1801" y="-115" font-family="Helvetica,sans-Serif" font-size="10.00">itk::simple::AffineTransform</text>
<text text-anchor="middle" x="1869" y="-104" font-family="Helvetica,sans-Serif" font-size="10.00">::MyVisitor</text>
</a>
</g>
</g>
<!-- Node2 -->
<g id="node2" class="node">
<title>Node2</title>
<g id="a_node2"><a xlink:href="https://www.itk.org/Doxygen/html/classitk_1_1TransformBaseTemplate.html" xlink:title=" ">
<polygon fill="white" stroke="black" points="1552,-123 1552,-153 1705,-153 1705,-123 1552,-123"/>
<text text-anchor="start" x="1560" y="-141" font-family="Helvetica,sans-Serif" font-size="10.00">itk::TransformBaseTemplate</text>
<text text-anchor="middle" x="1628.5" y="-130" font-family="Helvetica,sans-Serif" font-size="10.00">&lt; TParametersValueType &gt;</text>
</a>
</g>
</g>
<!-- Node2&#45;&gt;Node1 -->
<g id="edge1" class="edge">
<title>Node2&#45;&gt;Node1</title>
<path fill="none" stroke="#9a32cd" stroke-dasharray="5,2" d="M1715.26,-128.65C1740.62,-125.89 1768.18,-122.88 1792.82,-120.2"/>
<polygon fill="#9a32cd" stroke="#9a32cd" points="1714.85,-125.17 1705.29,-129.74 1715.61,-132.13 1714.85,-125.17"/>
<text text-anchor="middle" x="1749" y="-131" font-family="Helvetica,sans-Serif" font-size="10.00"> transform</text>
</g>
<!-- Node3 -->
<g id="node3" class="node">
<title>Node3</title>
<g id="a_node3"><a xlink:href="https://www.itk.org/Doxygen/html/classitk_1_1Object.html" xlink:title=" ">
<polygon fill="white" stroke="black" points="1420,-145.5 1420,-164.5 1487,-164.5 1487,-145.5 1420,-145.5"/>
<text text-anchor="middle" x="1453.5" y="-152.5" font-family="Helvetica,sans-Serif" font-size="10.00">itk::Object</text>
</a>
</g>
</g>
<!-- Node3&#45;&gt;Node2 -->
<g id="edge2" class="edge">
<title>Node3&#45;&gt;Node2</title>
<path fill="none" stroke="midnightblue" d="M1497.39,-150.79C1513.82,-149.17 1533.09,-147.28 1551.69,-145.45"/>
<polygon fill="midnightblue" stroke="midnightblue" points="1496.65,-147.34 1487.04,-151.8 1497.33,-154.31 1496.65,-147.34"/>
</g>
<!-- Node4 -->
<g id="node4" class="node">
<title>Node4</title>
<g id="a_node4"><a xlink:href="https://www.itk.org/Doxygen/html/classitk_1_1LightObject.html" xlink:title=" ">
<polygon fill="white" stroke="black" points="1086,-254.5 1086,-273.5 1177,-273.5 1177,-254.5 1086,-254.5"/>
<text text-anchor="middle" x="1131.5" y="-261.5" font-family="Helvetica,sans-Serif" font-size="10.00">itk::LightObject</text>
</a>
</g>
</g>
<!-- Node4&#45;&gt;Node3 -->
<g id="edge3" class="edge">
<title>Node4&#45;&gt;Node3</title>
<path fill="none" stroke="midnightblue" d="M1187.53,-268.94C1238.55,-271.14 1315.2,-268.22 1374,-239 1408.5,-221.86 1435.6,-182.82 1446.85,-164.64"/>
<polygon fill="midnightblue" stroke="midnightblue" points="1187.53,-265.44 1177.37,-268.42 1187.18,-272.43 1187.53,-265.44"/>
</g>
<!-- Node5 -->
<g id="node5" class="node">
<title>Node5</title>
<g id="a_node5"><a xlink:title=" ">
<polygon fill="white" stroke="#bfbfbf" points="740.5,-253.5 740.5,-272.5 847.5,-272.5 847.5,-253.5 740.5,-253.5"/>
<text text-anchor="middle" x="794" y="-260.5" font-family="Helvetica,sans-Serif" font-size="10.00">std::atomic&lt; int &gt;</text>
</a>
</g>
</g>
<!-- Node5&#45;&gt;Node4 -->
<g id="edge4" class="edge">
<title>Node5&#45;&gt;Node4</title>
<path fill="none" stroke="#9a32cd" stroke-dasharray="5,2" d="M858.12,-263.19C924.52,-263.39 1027.32,-263.69 1085.79,-263.87"/>
<polygon fill="#9a32cd" stroke="#9a32cd" points="857.8,-259.69 847.79,-263.16 857.78,-266.69 857.8,-259.69"/>
<text text-anchor="middle" x="950.5" y="-266" font-family="Helvetica,sans-Serif" font-size="10.00"> m_ReferenceCount</text>
</g>
<!-- Node6 -->
<g id="node6" class="node">
<title>Node6</title>
<g id="a_node6"><a xlink:title="STL class.">
<polygon fill="white" stroke="#bfbfbf" points="460.5,-215.5 460.5,-234.5 560.5,-234.5 560.5,-215.5 460.5,-215.5"/>
<text text-anchor="middle" x="510.5" y="-222.5" font-family="Helvetica,sans-Serif" font-size="10.00">std::atomic&lt; T &gt;</text>
</a>
</g>
</g>
<!-- Node6&#45;&gt;Node5 -->
<g id="edge5" class="edge">
<title>Node6&#45;&gt;Node5</title>
<path fill="none" stroke="orange" stroke-dasharray="5,2" d="M570.94,-234.33C581.61,-235.93 592.63,-237.55 603,-239 649.26,-245.46 701.98,-252.06 740.12,-256.7"/>
<polygon fill="orange" stroke="orange" points="571.26,-230.83 560.85,-232.79 570.21,-237.76 571.26,-230.83"/>
<text text-anchor="middle" x="656" y="-255" font-family="Helvetica,sans-Serif" font-size="10.00"> &lt; int &gt;</text>
</g>
<!-- Node18 -->
<g id="node18" class="node">
<title>Node18</title>
<g id="a_node18"><a xlink:href="https://www.itk.org/Doxygen/html/classitk_1_1TimeStamp.html" xlink:title=" ">
<polygon fill="white" stroke="black" points="904.5,-215.5 904.5,-234.5 996.5,-234.5 996.5,-215.5 904.5,-215.5"/>
<text text-anchor="middle" x="950.5" y="-222.5" font-family="Helvetica,sans-Serif" font-size="10.00">itk::TimeStamp</text>
</a>
</g>
</g>
<!-- Node6&#45;&gt;Node18 -->
<g id="edge22" class="edge">
<title>Node6&#45;&gt;Node18</title>
<path fill="none" stroke="#9a32cd" stroke-dasharray="5,2" d="M570.97,-224.26C581.63,-224.15 592.65,-224.06 603,-224 711.13,-223.41 838.24,-224.14 904.37,-224.63"/>
<polygon fill="#9a32cd" stroke="#9a32cd" points="570.85,-220.76 560.89,-224.36 570.92,-227.76 570.85,-220.76"/>
<text text-anchor="middle" x="656" y="-227" font-family="Helvetica,sans-Serif" font-size="10.00"> m_GlobalTimeStamp</text>
</g>
<!-- Node7 -->
<g id="node7" class="node">
<title>Node7</title>
<g id="a_node7"><a xlink:title=" ">
<polygon fill="white" stroke="#bfbfbf" points="0,-81.5 0,-100.5 29,-100.5 29,-81.5 0,-81.5"/>
<text text-anchor="middle" x="14.5" y="-88.5" font-family="Helvetica,sans-Serif" font-size="10.00">T</text>
</a>
</g>
</g>
<!-- Node7&#45;&gt;Node6 -->
<g id="edge6" class="edge">
<title>Node7&#45;&gt;Node6</title>
<path fill="none" stroke="#9a32cd" stroke-dasharray="5,2" d="M31.78,-107.53C36.38,-111.45 41.62,-115.28 47,-118 186.39,-188.45 372.84,-213.23 460.3,-221.35"/>
<polygon fill="#9a32cd" stroke="#9a32cd" points="33.99,-104.8 24.27,-100.59 29.24,-109.94 33.99,-104.8"/>
<text text-anchor="middle" x="173" y="-187" font-family="Helvetica,sans-Serif" font-size="10.00"> ptr</text>
</g>
<!-- Node11 -->
<g id="node11" class="node">
<title>Node11</title>
<g id="a_node11"><a xlink:title="STL class.">
<polygon fill="white" stroke="#bfbfbf" points="122.5,-56.5 122.5,-75.5 223.5,-75.5 223.5,-56.5 122.5,-56.5"/>
<text text-anchor="middle" x="173" y="-63.5" font-family="Helvetica,sans-Serif" font-size="10.00">std::map&lt; K, T &gt;</text>
</a>
</g>
</g>
<!-- Node7&#45;&gt;Node11 -->
<g id="edge12" class="edge">
<title>Node7&#45;&gt;Node11</title>
<path fill="none" stroke="#9a32cd" stroke-dasharray="5,2" d="M38.68,-81.4C41.45,-80.48 44.27,-79.65 47,-79 71.41,-73.19 99.11,-69.97 122.22,-68.2"/>
<polygon fill="#9a32cd" stroke="#9a32cd" points="37.22,-78.2 29.06,-84.95 39.65,-84.77 37.22,-78.2"/>
<text text-anchor="middle" x="71.5" y="-82" font-family="Helvetica,sans-Serif" font-size="10.00"> elements</text>
</g>
<!-- Node13 -->
<g id="node13" class="node">
<title>Node13</title>
<g id="a_node13"><a xlink:title="STL class.">
<polygon fill="white" stroke="#bfbfbf" points="114,-18.5 114,-37.5 232,-37.5 232,-18.5 114,-18.5"/>
<text text-anchor="middle" x="173" y="-25.5" font-family="Helvetica,sans-Serif" font-size="10.00">std::shared_ptr&lt; T &gt;</text>
</a>
</g>
</g>
<!-- Node7&#45;&gt;Node13 -->
<g id="edge14" class="edge">
<title>Node7&#45;&gt;Node13</title>
<path fill="none" stroke="#9a32cd" stroke-dasharray="5,2" d="M27.79,-73.27C33.02,-66.94 39.63,-60.31 47,-56 67.16,-44.21 91.81,-37.38 113.87,-33.43"/>
<polygon fill="#9a32cd" stroke="#9a32cd" points="24.82,-71.39 21.56,-81.47 30.4,-75.62 24.82,-71.39"/>
<text text-anchor="middle" x="71.5" y="-59" font-family="Helvetica,sans-Serif" font-size="10.00"> ptr</text>
</g>
<!-- Node14 -->
<g id="node14" class="node">
<title>Node14</title>
<g id="a_node14"><a xlink:title="STL class.">
<polygon fill="white" stroke="#bfbfbf" points="735,-92.5 735,-111.5 853,-111.5 853,-92.5 735,-92.5"/>
<text text-anchor="middle" x="794" y="-99.5" font-family="Helvetica,sans-Serif" font-size="10.00">std::unique_ptr&lt; T &gt;</text>
</a>
</g>
</g>
<!-- Node7&#45;&gt;Node14 -->
<g id="edge16" class="edge">
<title>Node7&#45;&gt;Node14</title>
<path fill="none" stroke="#9a32cd" stroke-dasharray="5,2" d="M39.35,-91.34C145.51,-92.84 576.82,-98.94 734.72,-101.18"/>
<polygon fill="#9a32cd" stroke="#9a32cd" points="39.37,-87.84 29.32,-91.2 39.27,-94.84 39.37,-87.84"/>
<text text-anchor="middle" x="334" y="-100" font-family="Helvetica,sans-Serif" font-size="10.00"> ptr</text>
</g>
<!-- Node8 -->
<g id="node8" class="node">
<title>Node8</title>
<g id="a_node8"><a xlink:title=" ">
<polygon fill="white" stroke="#bfbfbf" points="1065.5,-71 1065.5,-101 1197.5,-101 1197.5,-71 1065.5,-71"/>
<text text-anchor="start" x="1073.5" y="-89" font-family="Helvetica,sans-Serif" font-size="10.00">std::unique_ptr&lt; itk</text>
<text text-anchor="middle" x="1131.5" y="-78" font-family="Helvetica,sans-Serif" font-size="10.00">::MetaDataDictionary &gt;</text>
</a>
</g>
</g>
<!-- Node8&#45;&gt;Node3 -->
<g id="edge7" class="edge">
<title>Node8&#45;&gt;Node3</title>
<path fill="none" stroke="#9a32cd" stroke-dasharray="5,2" d="M1207.64,-91.14C1255.88,-95.76 1319.48,-104.34 1374,-120 1395.8,-126.26 1419.39,-137.43 1434.95,-145.46"/>
<polygon fill="#9a32cd" stroke="#9a32cd" points="1207.87,-87.65 1197.59,-90.21 1207.23,-94.62 1207.87,-87.65"/>
<text text-anchor="middle" x="1307.5" y="-123" font-family="Helvetica,sans-Serif" font-size="10.00"> m_MetaDataDictionary</text>
</g>
<!-- Node9 -->
<g id="node9" class="node">
<title>Node9</title>
<g id="a_node9"><a xlink:href="https://www.itk.org/Doxygen/html/classitk_1_1MetaDataDictionary.html" xlink:title=" ">
<polygon fill="white" stroke="black" points="727,-23.5 727,-42.5 861,-42.5 861,-23.5 727,-23.5"/>
<text text-anchor="middle" x="794" y="-30.5" font-family="Helvetica,sans-Serif" font-size="10.00">itk::MetaDataDictionary</text>
</a>
</g>
</g>
<!-- Node9&#45;&gt;Node8 -->
<g id="edge8" class="edge">
<title>Node9&#45;&gt;Node8</title>
<path fill="none" stroke="#9a32cd" stroke-dasharray="5,2" d="M840.37,-21.32C888.51,-11.52 965.3,-3.49 1022,-34 1034.7,-40.83 1028.31,-52.55 1040,-61 1047.53,-66.44 1056.19,-70.7 1065.11,-74.04"/>
<polygon fill="#9a32cd" stroke="#9a32cd" points="839.6,-17.9 830.55,-23.42 841.07,-24.75 839.6,-17.9"/>
<text text-anchor="middle" x="950.5" y="-37" font-family="Helvetica,sans-Serif" font-size="10.00"> ptr</text>
</g>
<!-- Node10 -->
<g id="node10" class="node">
<title>Node10</title>
<g id="a_node10"><a xlink:title=" ">
<polygon fill="white" stroke="#bfbfbf" points="436,-18 436,-48 585,-48 585,-18 436,-18"/>
<text text-anchor="start" x="444" y="-36" font-family="Helvetica,sans-Serif" font-size="10.00">std::shared_ptr&lt; MetaData</text>
<text text-anchor="middle" x="510.5" y="-25" font-family="Helvetica,sans-Serif" font-size="10.00">DictionaryMapType &gt;</text>
</a>
</g>
</g>
<!-- Node10&#45;&gt;Node9 -->
<g id="edge9" class="edge">
<title>Node10&#45;&gt;Node9</title>
<path fill="none" stroke="#9a32cd" stroke-dasharray="5,2" d="M595.29,-33C637.24,-33 687.31,-33 726.57,-33"/>
<polygon fill="#9a32cd" stroke="#9a32cd" points="595.09,-29.5 585.09,-33 595.09,-36.5 595.09,-29.5"/>
<text text-anchor="middle" x="656" y="-36" font-family="Helvetica,sans-Serif" font-size="10.00"> m_Dictionary</text>
</g>
<!-- Node11&#45;&gt;Node10 -->
<g id="edge10" class="edge">
<title>Node11&#45;&gt;Node10</title>
<path fill="none" stroke="#9a32cd" stroke-dasharray="5,2" d="M233.75,-60.62C283.16,-56.11 355.16,-49.39 418,-43 423.72,-42.42 429.65,-41.8 435.6,-41.17"/>
<polygon fill="#9a32cd" stroke="#9a32cd" points="233.2,-57.15 223.56,-61.55 233.83,-64.12 233.2,-57.15"/>
<text text-anchor="middle" x="334" y="-62" font-family="Helvetica,sans-Serif" font-size="10.00"> ptr</text>
</g>
<!-- Node12 -->
<g id="node12" class="node">
<title>Node12</title>
<g id="a_node12"><a xlink:title=" ">
<polygon fill="white" stroke="#bfbfbf" points="0,-0.5 0,-19.5 29,-19.5 29,-0.5 0,-0.5"/>
<text text-anchor="middle" x="14.5" y="-7.5" font-family="Helvetica,sans-Serif" font-size="10.00">K</text>
</a>
</g>
</g>
<!-- Node12&#45;&gt;Node11 -->
<g id="edge11" class="edge">
<title>Node12&#45;&gt;Node11</title>
<path fill="none" stroke="#9a32cd" stroke-dasharray="5,2" d="M39.5,-4.09C56.55,-1.3 79.29,-0.53 96,-11 111.16,-20.5 100.46,-35.31 114,-47 118.49,-50.88 123.8,-53.97 129.34,-56.43"/>
<polygon fill="#9a32cd" stroke="#9a32cd" points="38.36,-0.75 29.23,-6.13 39.72,-7.62 38.36,-0.75"/>
<text text-anchor="middle" x="71.5" y="-14" font-family="Helvetica,sans-Serif" font-size="10.00"> keys</text>
</g>
<!-- Node13&#45;&gt;Node10 -->
<g id="edge13" class="edge">
<title>Node13&#45;&gt;Node10</title>
<path fill="none" stroke="orange" stroke-dasharray="5,2" d="M242.27,-29.02C298.5,-29.86 378.06,-31.04 435.74,-31.9"/>
<polygon fill="orange" stroke="orange" points="242.11,-25.51 232.06,-28.87 242,-32.51 242.11,-25.51"/>
<text text-anchor="middle" x="334" y="-35" font-family="Helvetica,sans-Serif" font-size="10.00"> &lt; MetaDataDictionaryMapType &gt;</text>
</g>
<!-- Node14&#45;&gt;Node8 -->
<g id="edge15" class="edge">
<title>Node14&#45;&gt;Node8</title>
<path fill="none" stroke="orange" stroke-dasharray="5,2" d="M863.41,-98.74C922.51,-95.92 1007.31,-91.87 1065.42,-89.1"/>
<polygon fill="orange" stroke="orange" points="862.88,-95.26 853.06,-99.23 863.21,-102.25 862.88,-95.26"/>
<text text-anchor="middle" x="950.5" y="-101" font-family="Helvetica,sans-Serif" font-size="10.00"> &lt; itk::MetaDataDictionary &gt;</text>
</g>
<!-- Node17 -->
<g id="node17" class="node">
<title>Node17</title>
<g id="a_node17"><a xlink:title=" ">
<polygon fill="white" stroke="#bfbfbf" points="1063,-120 1063,-150 1200,-150 1200,-120 1063,-120"/>
<text text-anchor="start" x="1071" y="-138" font-family="Helvetica,sans-Serif" font-size="10.00">std::unique_ptr&lt; Subject</text>
<text text-anchor="middle" x="1131.5" y="-127" font-family="Helvetica,sans-Serif" font-size="10.00">Implementation &gt;</text>
</a>
</g>
</g>
<!-- Node14&#45;&gt;Node17 -->
<g id="edge20" class="edge">
<title>Node14&#45;&gt;Node17</title>
<path fill="none" stroke="orange" stroke-dasharray="5,2" d="M863.4,-111.2C868.67,-111.84 873.92,-112.45 879,-113 941.2,-119.79 1012.23,-125.85 1062.91,-129.88"/>
<polygon fill="orange" stroke="orange" points="863.61,-107.7 853.25,-109.96 862.75,-114.65 863.61,-107.7"/>
<text text-anchor="middle" x="950.5" y="-130" font-family="Helvetica,sans-Serif" font-size="10.00"> &lt; SubjectImplementation &gt;</text>
</g>
<!-- Node21 -->
<g id="node21" class="node">
<title>Node21</title>
<g id="a_node21"><a xlink:title=" ">
<polygon fill="white" stroke="#bfbfbf" points="1040,-22 1040,-52 1223,-52 1223,-22 1040,-22"/>
<text text-anchor="start" x="1048" y="-40" font-family="Helvetica,sans-Serif" font-size="10.00">std::unique_ptr&lt; PimpleTransform</text>
<text text-anchor="middle" x="1131.5" y="-29" font-family="Helvetica,sans-Serif" font-size="10.00">Base &gt;</text>
</a>
</g>
</g>
<!-- Node14&#45;&gt;Node21 -->
<g id="edge26" class="edge">
<title>Node14&#45;&gt;Node21</title>
<path fill="none" stroke="orange" stroke-dasharray="5,2" d="M833.45,-89.4C847.65,-85.05 863.96,-80.42 879,-77 931.81,-65 991.67,-55.32 1039.74,-48.49"/>
<polygon fill="orange" stroke="orange" points="832.03,-86.18 823.52,-92.49 834.11,-92.86 832.03,-86.18"/>
<text text-anchor="middle" x="950.5" y="-80" font-family="Helvetica,sans-Serif" font-size="10.00"> &lt; PimpleTransformBase &gt;</text>
</g>
<!-- Node15 -->
<g id="node15" class="node">
<title>Node15</title>
<g id="a_node15"><a xlink:title="STL class.">
<polygon fill="white" stroke="#bfbfbf" points="1099,-169.5 1099,-188.5 1164,-188.5 1164,-169.5 1099,-169.5"/>
<text text-anchor="middle" x="1131.5" y="-176.5" font-family="Helvetica,sans-Serif" font-size="10.00">std::string</text>
</a>
</g>
</g>
<!-- Node15&#45;&gt;Node3 -->
<g id="edge17" class="edge">
<title>Node15&#45;&gt;Node3</title>
<path fill="none" stroke="#9a32cd" stroke-dasharray="5,2" d="M1174.27,-175.87C1238.76,-171.03 1361.22,-161.85 1419.75,-157.46"/>
<polygon fill="#9a32cd" stroke="#9a32cd" points="1173.77,-172.39 1164.06,-176.63 1174.29,-179.38 1173.77,-172.39"/>
<text text-anchor="middle" x="1307.5" y="-174" font-family="Helvetica,sans-Serif" font-size="10.00"> m_ObjectName</text>
</g>
<!-- Node16 -->
<g id="node16" class="node">
<title>Node16</title>
<g id="a_node16"><a xlink:title="STL class.">
<polygon fill="white" stroke="#bfbfbf" points="742,-164 742,-194 846,-194 846,-164 742,-164"/>
<text text-anchor="start" x="750" y="-182" font-family="Helvetica,sans-Serif" font-size="10.00">std::basic_string&lt;</text>
<text text-anchor="middle" x="794" y="-171" font-family="Helvetica,sans-Serif" font-size="10.00"> char &gt;</text>
</a>
</g>
</g>
<!-- Node16&#45;&gt;Node15 -->
<g id="edge18" class="edge">
<title>Node16&#45;&gt;Node15</title>
<path fill="none" stroke="midnightblue" d="M856.55,-179C928.12,-179 1043.49,-179 1098.86,-179"/>
<polygon fill="midnightblue" stroke="midnightblue" points="856.32,-175.5 846.32,-179 856.32,-182.5 856.32,-175.5"/>
</g>
<!-- Node17&#45;&gt;Node3 -->
<g id="edge19" class="edge">
<title>Node17&#45;&gt;Node3</title>
<path fill="none" stroke="#9a32cd" stroke-dasharray="5,2" d="M1210.27,-133.95C1257.7,-134.04 1319.48,-135.49 1374,-141 1389.15,-142.53 1405.77,-145.33 1419.81,-148.03"/>
<polygon fill="#9a32cd" stroke="#9a32cd" points="1210.08,-130.45 1200.08,-133.95 1210.08,-137.45 1210.08,-130.45"/>
<text text-anchor="middle" x="1307.5" y="-144" font-family="Helvetica,sans-Serif" font-size="10.00"> m_SubjectImplementation</text>
</g>
<!-- Node18&#45;&gt;Node3 -->
<g id="edge21" class="edge">
<title>Node18&#45;&gt;Node3</title>
<path fill="none" stroke="#9a32cd" stroke-dasharray="5,2" d="M1006.61,-224.87C1088.04,-223.56 1244.82,-216.8 1374,-186 1394.81,-181.04 1417.42,-171.65 1433,-164.5"/>
<polygon fill="#9a32cd" stroke="#9a32cd" points="1006.53,-221.37 996.58,-225.01 1006.63,-228.37 1006.53,-221.37"/>
<text text-anchor="middle" x="1131.5" y="-227" font-family="Helvetica,sans-Serif" font-size="10.00"> m_MTime</text>
</g>
<!-- Node19 -->
<g id="node19" class="node">
<title>Node19</title>
<g id="a_node19"><a xlink:href="classitk_1_1simple_1_1AffineTransform.html" target="_top" xlink:title="An affine transformation about a fixed center with translation for a 2D or 3D coordinate.">
<polygon fill="white" stroke="black" points="1552.5,-77.5 1552.5,-96.5 1704.5,-96.5 1704.5,-77.5 1552.5,-77.5"/>
<text text-anchor="middle" x="1628.5" y="-84.5" font-family="Helvetica,sans-Serif" font-size="10.00">itk::simple::AffineTransform</text>
</a>
</g>
</g>
<!-- Node19&#45;&gt;Node1 -->
<g id="edge23" class="edge">
<title>Node19&#45;&gt;Node1</title>
<path fill="none" stroke="#9a32cd" stroke-dasharray="5,2" d="M1714.93,-93.23C1734.67,-94.9 1755.59,-96.84 1775,-99 1780.83,-99.65 1786.86,-100.37 1792.92,-101.13"/>
<polygon fill="#9a32cd" stroke="#9a32cd" points="1714.98,-89.72 1704.72,-92.39 1714.4,-96.7 1714.98,-89.72"/>
<text text-anchor="middle" x="1749" y="-102" font-family="Helvetica,sans-Serif" font-size="10.00"> that</text>
</g>
<!-- Node20 -->
<g id="node20" class="node">
<title>Node20</title>
<g id="a_node20"><a xlink:href="classitk_1_1simple_1_1Transform.html" target="_top" xlink:title="A simplified wrapper around a variety of ITK transforms.">
<polygon fill="white" stroke="black" points="1392,-59.5 1392,-78.5 1515,-78.5 1515,-59.5 1392,-59.5"/>
<text text-anchor="middle" x="1453.5" y="-66.5" font-family="Helvetica,sans-Serif" font-size="10.00">itk::simple::Transform</text>
</a>
</g>
</g>
<!-- Node20&#45;&gt;Node19 -->
<g id="edge24" class="edge">
<title>Node20&#45;&gt;Node19</title>
<path fill="none" stroke="midnightblue" d="M1525.06,-76.34C1534.08,-77.28 1543.34,-78.24 1552.42,-79.19"/>
<polygon fill="midnightblue" stroke="midnightblue" points="1525.32,-72.85 1515.01,-75.3 1524.59,-79.81 1525.32,-72.85"/>
</g>
<!-- Node21&#45;&gt;Node20 -->
<g id="edge25" class="edge">
<title>Node21&#45;&gt;Node20</title>
<path fill="none" stroke="#9a32cd" stroke-dasharray="5,2" d="M1233.6,-47.11C1285.59,-52.31 1347.22,-58.47 1391.82,-62.93"/>
<polygon fill="#9a32cd" stroke="#9a32cd" points="1233.64,-43.6 1223.34,-46.08 1232.95,-50.56 1233.64,-43.6"/>
<text text-anchor="middle" x="1307.5" y="-64" font-family="Helvetica,sans-Serif" font-size="10.00"> m_PimpleTransform</text>
</g>
</g>
</svg>
        <g id="navigator" transform="translate(0 0)" fill="#404254">
                <rect fill="#f2f5e9" fill-opacity="0.5" stroke="#606060" stroke-width=".5" x="0" y="0" width="60" height="60"/>
                <use id="zoomplus" xlink:href="#zoomPlus" x="17" y="9" onmousedown="handleZoom(evt,'in')"/>
                <use id="zoomminus" xlink:href="#zoomMin" x="42" y="9" onmousedown="handleZoom(evt,'out')"/>
                <use id="reset" xlink:href="#resetDef" x="30" y="36" onmousedown="handleReset()"/>
                <g id="arrowUp" xlink:href="#dirArrow" transform="translate(30 24)" onmousedown="handlePan(0,-1)">
                  <use xlink:href="#rim" fill="#404040">
                        <set attributeName="fill" to="#808080" begin="arrowUp.mouseover" end="arrowUp.mouseout"/>
                  </use>
                  <path fill="none" stroke="white" stroke-width="1.5" d="M0,-3.0v7 M-2.5,-0.5L0,-3.0L2.5,-0.5"/>
                </g>
                <g id="arrowRight" xlink:href="#dirArrow" transform="rotate(90) translate(36 -43)" onmousedown="handlePan(1,0)">
                  <use xlink:href="#rim" fill="#404040">
                        <set attributeName="fill" to="#808080" begin="arrowRight.mouseover" end="arrowRight.mouseout"/>
                  </use>
                  <path fill="none" stroke="white" stroke-width="1.5" d="M0,-3.0v7 M-2.5,-0.5L0,-3.0L2.5,-0.5"/>
                </g>
                <g id="arrowDown" xlink:href="#dirArrow" transform="rotate(180) translate(-30 -48)" onmousedown="handlePan(0,1)">
                  <use xlink:href="#rim" fill="#404040">
                        <set attributeName="fill" to="#808080" begin="arrowDown.mouseover" end="arrowDown.mouseout"/>
                  </use>
                  <path fill="none" stroke="white" stroke-width="1.5" d="M0,-3.0v7 M-2.5,-0.5L0,-3.0L2.5,-0.5"/>
                </g>
                <g id="arrowLeft" xlink:href="#dirArrow" transform="rotate(270) translate(-36 17)" onmousedown="handlePan(-1,0)">
                  <use xlink:href="#rim" fill="#404040">
                        <set attributeName="fill" to="#808080" begin="arrowLeft.mouseover" end="arrowLeft.mouseout"/>
                  </use>
                  <path fill="none" stroke="white" stroke-width="1.5" d="M0,-3.0v7 M-2.5,-0.5L0,-3.0L2.5,-0.5"/>
                </g>
        </g>
        <svg viewBox="0 0 15 15" width="100%" height="30px" preserveAspectRatio="xMaxYMin meet">
         <g id="arrow_out" transform="scale(0.3 0.3)">
          <a xlink:href="structitk_1_1simple_1_1AffineTransform_1_1MyVisitor__coll__graph_org.svg" target="_base">
           <rect id="button" ry="5" rx="5" y="6" x="6" height="38" width="38"
                fill="#f2f5e9" fill-opacity="0.5" stroke="#606060" stroke-width="1.0"/>
           <path id="arrow"
             d="M 11.500037,31.436501 C 11.940474,20.09759 22.043105,11.32322 32.158766,21.979434 L 37.068811,17.246167 C 37.068811,17.246167 37.088388,32 37.088388,32 L 22.160133,31.978069 C 22.160133,31.978069 26.997745,27.140456 26.997745,27.140456 C 18.528582,18.264221 13.291696,25.230495 11.500037,31.436501 z"
             style="fill:#404040;"/>
          </a>
         </g>
        </svg>
</svg>
