<?xml version="1.0" encoding="UTF-8" standalone="no"?>
<!DOCTYPE svg PUBLIC "-//W3C//DTD SVG 1.1//EN"
 "http://www.w3.org/Graphics/SVG/1.1/DTD/svg11.dtd">
<!-- Generated by graphviz version 2.43.0 (0)
 -->
<!-- Title: itk::simple::CompositeTransform::MyVisitor Pages: 1 -->
<svg width="2000pt" height="264pt"
 viewBox="0.00 0.00 2000.00 263.50" xmlns="http://www.w3.org/2000/svg" xmlns:xlink="http://www.w3.org/1999/xlink">
<g id="graph0" class="graph" transform="scale(1 1) rotate(0) translate(4 259.5)">
<title>itk::simple::CompositeTransform::MyVisitor</title>
<polygon fill="white" stroke="transparent" points="-4,4 -4,-259.5 1996,-259.5 1996,4 -4,4"/>
<!-- Node1 -->
<g id="node1" class="node">
<title>Node1</title>
<g id="a_node1"><a xlink:title=" ">
<polygon fill="#bfbfbf" stroke="black" points="1816,-201 1816,-231 1992,-231 1992,-201 1816,-201"/>
<text text-anchor="start" x="1824" y="-219" font-family="Helvetica,sans-Serif" font-size="10.00">itk::simple::CompositeTransform</text>
<text text-anchor="middle" x="1904" y="-208" font-family="Helvetica,sans-Serif" font-size="10.00">::MyVisitor</text>
</a>
</g>
</g>
<!-- Node2 -->
<g id="node2" class="node">
<title>Node2</title>
<g id="a_node2"><a xlink:href="classitk_1_1simple_1_1CompositeTransform.html" target="_top" xlink:title="This class contains a stack of transforms and concatenates them by composition.">
<polygon fill="white" stroke="black" points="1552,-229.5 1552,-248.5 1728,-248.5 1728,-229.5 1552,-229.5"/>
<text text-anchor="middle" x="1640" y="-236.5" font-family="Helvetica,sans-Serif" font-size="10.00">itk::simple::CompositeTransform</text>
</a>
</g>
</g>
<!-- Node2&#45;&gt;Node1 -->
<g id="edge1" class="edge">
<title>Node2&#45;&gt;Node1</title>
<path fill="none" stroke="#9a32cd" stroke-dasharray="5,2" d="M1738.25,-230.46C1763.64,-228.23 1790.85,-225.85 1815.69,-223.66"/>
<polygon fill="#9a32cd" stroke="#9a32cd" points="1737.9,-226.98 1728.24,-231.34 1738.51,-233.95 1737.9,-226.98"/>
<text text-anchor="middle" x="1772" y="-232" font-family="Helvetica,sans-Serif" font-size="10.00"> that</text>
</g>
<!-- Node3 -->
<g id="node3" class="node">
<title>Node3</title>
<g id="a_node3"><a xlink:href="classitk_1_1simple_1_1Transform.html" target="_top" xlink:title="A simplified wrapper around a variety of ITK transforms.">
<polygon fill="white" stroke="black" points="1392,-234.5 1392,-253.5 1515,-253.5 1515,-234.5 1392,-234.5"/>
<text text-anchor="middle" x="1453.5" y="-241.5" font-family="Helvetica,sans-Serif" font-size="10.00">itk::simple::Transform</text>
</a>
</g>
</g>
<!-- Node3&#45;&gt;Node2 -->
<g id="edge2" class="edge">
<title>Node3&#45;&gt;Node2</title>
<path fill="none" stroke="midnightblue" d="M1525.26,-242.08C1533.98,-241.85 1542.97,-241.6 1551.89,-241.36"/>
<polygon fill="midnightblue" stroke="midnightblue" points="1525.07,-238.59 1515.17,-242.36 1525.26,-245.58 1525.07,-238.59"/>
</g>
<!-- Node4 -->
<g id="node4" class="node">
<title>Node4</title>
<g id="a_node4"><a xlink:title=" ">
<polygon fill="white" stroke="#bfbfbf" points="1040,-225 1040,-255 1223,-255 1223,-225 1040,-225"/>
<text text-anchor="start" x="1048" y="-243" font-family="Helvetica,sans-Serif" font-size="10.00">std::unique_ptr&lt; PimpleTransform</text>
<text text-anchor="middle" x="1131.5" y="-232" font-family="Helvetica,sans-Serif" font-size="10.00">Base &gt;</text>
</a>
</g>
</g>
<!-- Node4&#45;&gt;Node3 -->
<g id="edge3" class="edge">
<title>Node4&#45;&gt;Node3</title>
<path fill="none" stroke="#9a32cd" stroke-dasharray="5,2" d="M1233.6,-241.26C1285.59,-241.91 1347.22,-242.68 1391.82,-243.24"/>
<polygon fill="#9a32cd" stroke="#9a32cd" points="1233.39,-237.76 1223.34,-241.14 1233.3,-244.76 1233.39,-237.76"/>
<text text-anchor="middle" x="1307.5" y="-245" font-family="Helvetica,sans-Serif" font-size="10.00"> m_PimpleTransform</text>
</g>
<!-- Node5 -->
<g id="node5" class="node">
<title>Node5</title>
<g id="a_node5"><a xlink:title="STL class.">
<polygon fill="white" stroke="#bfbfbf" points="735,-142.5 735,-161.5 853,-161.5 853,-142.5 735,-142.5"/>
<text text-anchor="middle" x="794" y="-149.5" font-family="Helvetica,sans-Serif" font-size="10.00">std::unique_ptr&lt; T &gt;</text>
</a>
</g>
</g>
<!-- Node5&#45;&gt;Node4 -->
<g id="edge4" class="edge">
<title>Node5&#45;&gt;Node4</title>
<path fill="none" stroke="orange" stroke-dasharray="5,2" d="M841.25,-164.13C901.74,-180 1007.69,-207.79 1073.2,-224.97"/>
<polygon fill="orange" stroke="orange" points="841.78,-160.65 831.22,-161.5 840.01,-167.42 841.78,-160.65"/>
<text text-anchor="middle" x="950.5" y="-214" font-family="Helvetica,sans-Serif" font-size="10.00"> &lt; PimpleTransformBase &gt;</text>
</g>
<!-- Node12 -->
<g id="node12" class="node">
<title>Node12</title>
<g id="a_node12"><a xlink:title=" ">
<polygon fill="white" stroke="#bfbfbf" points="1065.5,-86 1065.5,-116 1197.5,-116 1197.5,-86 1065.5,-86"/>
<text text-anchor="start" x="1073.5" y="-104" font-family="Helvetica,sans-Serif" font-size="10.00">std::unique_ptr&lt; itk</text>
<text text-anchor="middle" x="1131.5" y="-93" font-family="Helvetica,sans-Serif" font-size="10.00">::MetaDataDictionary &gt;</text>
</a>
</g>
</g>
<!-- Node5&#45;&gt;Node12 -->
<g id="edge20" class="edge">
<title>Node5&#45;&gt;Node12</title>
<path fill="none" stroke="orange" stroke-dasharray="5,2" d="M849.44,-140.44C859.26,-138.51 869.42,-136.62 879,-135 942.11,-124.36 1014.57,-114.85 1065.45,-108.61"/>
<polygon fill="orange" stroke="orange" points="848.49,-137.07 839.37,-142.46 849.86,-143.93 848.49,-137.07"/>
<text text-anchor="middle" x="950.5" y="-138" font-family="Helvetica,sans-Serif" font-size="10.00"> &lt; itk::MetaDataDictionary &gt;</text>
</g>
<!-- Node20 -->
<g id="node20" class="node">
<title>Node20</title>
<g id="a_node20"><a xlink:title=" ">
<polygon fill="white" stroke="#bfbfbf" points="1063,-135 1063,-165 1200,-165 1200,-135 1063,-135"/>
<text text-anchor="start" x="1071" y="-153" font-family="Helvetica,sans-Serif" font-size="10.00">std::unique_ptr&lt; Subject</text>
<text text-anchor="middle" x="1131.5" y="-142" font-family="Helvetica,sans-Serif" font-size="10.00">Implementation &gt;</text>
</a>
</g>
</g>
<!-- Node5&#45;&gt;Node20 -->
<g id="edge24" class="edge">
<title>Node5&#45;&gt;Node20</title>
<path fill="none" stroke="orange" stroke-dasharray="5,2" d="M863.26,-151.59C921.47,-151.25 1004.7,-150.75 1062.76,-150.4"/>
<polygon fill="orange" stroke="orange" points="863.04,-148.09 853.06,-151.65 863.08,-155.09 863.04,-148.09"/>
<text text-anchor="middle" x="950.5" y="-154" font-family="Helvetica,sans-Serif" font-size="10.00"> &lt; SubjectImplementation &gt;</text>
</g>
<!-- Node6 -->
<g id="node6" class="node">
<title>Node6</title>
<g id="a_node6"><a xlink:title=" ">
<polygon fill="white" stroke="#bfbfbf" points="0,-85.5 0,-104.5 29,-104.5 29,-85.5 0,-85.5"/>
<text text-anchor="middle" x="14.5" y="-92.5" font-family="Helvetica,sans-Serif" font-size="10.00">T</text>
</a>
</g>
</g>
<!-- Node6&#45;&gt;Node5 -->
<g id="edge5" class="edge">
<title>Node6&#45;&gt;Node5</title>
<path fill="none" stroke="#9a32cd" stroke-dasharray="5,2" d="M32.83,-111.15C37.2,-114.51 42.05,-117.72 47,-120 74.56,-132.68 83.85,-129.68 114,-133 342.57,-158.2 616.9,-156.03 734.65,-153.57"/>
<polygon fill="#9a32cd" stroke="#9a32cd" points="35.07,-108.46 25.16,-104.7 30.56,-113.81 35.07,-108.46"/>
<text text-anchor="middle" x="334" y="-155" font-family="Helvetica,sans-Serif" font-size="10.00"> ptr</text>
</g>
<!-- Node11 -->
<g id="node11" class="node">
<title>Node11</title>
<g id="a_node11"><a xlink:title="STL class.">
<polygon fill="white" stroke="#bfbfbf" points="460.5,-27.5 460.5,-46.5 560.5,-46.5 560.5,-27.5 460.5,-27.5"/>
<text text-anchor="middle" x="510.5" y="-34.5" font-family="Helvetica,sans-Serif" font-size="10.00">std::atomic&lt; T &gt;</text>
</a>
</g>
</g>
<!-- Node6&#45;&gt;Node11 -->
<g id="edge11" class="edge">
<title>Node6&#45;&gt;Node11</title>
<path fill="none" stroke="#9a32cd" stroke-dasharray="5,2" d="M33.84,-78.82C37.99,-75.63 42.51,-72.5 47,-70 74.65,-54.63 82.9,-51.77 114,-46 236.9,-23.21 384.95,-28.27 460.27,-33.11"/>
<polygon fill="#9a32cd" stroke="#9a32cd" points="31.48,-76.23 25.95,-85.27 35.91,-81.65 31.48,-76.23"/>
<text text-anchor="middle" x="173" y="-49" font-family="Helvetica,sans-Serif" font-size="10.00"> ptr</text>
</g>
<!-- Node15 -->
<g id="node15" class="node">
<title>Node15</title>
<g id="a_node15"><a xlink:title="STL class.">
<polygon fill="white" stroke="#bfbfbf" points="122.5,-66.5 122.5,-85.5 223.5,-85.5 223.5,-66.5 122.5,-66.5"/>
<text text-anchor="middle" x="173" y="-73.5" font-family="Helvetica,sans-Serif" font-size="10.00">std::map&lt; K, T &gt;</text>
</a>
</g>
</g>
<!-- Node6&#45;&gt;Node15 -->
<g id="edge17" class="edge">
<title>Node6&#45;&gt;Node15</title>
<path fill="none" stroke="#9a32cd" stroke-dasharray="5,2" d="M38.37,-82.79C41.21,-81.67 44.13,-80.7 47,-80 71.37,-74.08 99.19,-72.69 122.4,-72.94"/>
<polygon fill="#9a32cd" stroke="#9a32cd" points="36.81,-79.66 29.15,-86.99 39.71,-86.03 36.81,-79.66"/>
<text text-anchor="middle" x="71.5" y="-83" font-family="Helvetica,sans-Serif" font-size="10.00"> elements</text>
</g>
<!-- Node17 -->
<g id="node17" class="node">
<title>Node17</title>
<g id="a_node17"><a xlink:title="STL class.">
<polygon fill="white" stroke="#bfbfbf" points="114,-104.5 114,-123.5 232,-123.5 232,-104.5 114,-104.5"/>
<text text-anchor="middle" x="173" y="-111.5" font-family="Helvetica,sans-Serif" font-size="10.00">std::shared_ptr&lt; T &gt;</text>
</a>
</g>
</g>
<!-- Node6&#45;&gt;Node17 -->
<g id="edge19" class="edge">
<title>Node6&#45;&gt;Node17</title>
<path fill="none" stroke="#9a32cd" stroke-dasharray="5,2" d="M39.05,-97.86C58.79,-100.26 87.84,-103.78 113.75,-106.93"/>
<polygon fill="#9a32cd" stroke="#9a32cd" points="39.46,-94.38 29.11,-96.65 38.62,-101.33 39.46,-94.38"/>
<text text-anchor="middle" x="71.5" y="-108" font-family="Helvetica,sans-Serif" font-size="10.00"> ptr</text>
</g>
<!-- Node7 -->
<g id="node7" class="node">
<title>Node7</title>
<g id="a_node7"><a xlink:href="https://www.itk.org/Doxygen/html/classitk_1_1TransformBaseTemplate.html" xlink:title=" ">
<polygon fill="white" stroke="black" points="1563.5,-179 1563.5,-209 1716.5,-209 1716.5,-179 1563.5,-179"/>
<text text-anchor="start" x="1571.5" y="-197" font-family="Helvetica,sans-Serif" font-size="10.00">itk::TransformBaseTemplate</text>
<text text-anchor="middle" x="1640" y="-186" font-family="Helvetica,sans-Serif" font-size="10.00">&lt; TParametersValueType &gt;</text>
</a>
</g>
</g>
<!-- Node7&#45;&gt;Node1 -->
<g id="edge6" class="edge">
<title>Node7&#45;&gt;Node1</title>
<path fill="none" stroke="#9a32cd" stroke-dasharray="5,2" d="M1726.7,-197.1C1749.87,-198.28 1774.92,-199.88 1798,-202 1803.86,-202.54 1809.9,-203.16 1815.97,-203.84"/>
<polygon fill="#9a32cd" stroke="#9a32cd" points="1726.71,-193.59 1716.55,-196.6 1726.37,-200.59 1726.71,-193.59"/>
<text text-anchor="middle" x="1772" y="-205" font-family="Helvetica,sans-Serif" font-size="10.00"> transform</text>
</g>
<!-- Node8 -->
<g id="node8" class="node">
<title>Node8</title>
<g id="a_node8"><a xlink:href="https://www.itk.org/Doxygen/html/classitk_1_1Object.html" xlink:title=" ">
<polygon fill="white" stroke="black" points="1420,-107.5 1420,-126.5 1487,-126.5 1487,-107.5 1420,-107.5"/>
<text text-anchor="middle" x="1453.5" y="-114.5" font-family="Helvetica,sans-Serif" font-size="10.00">itk::Object</text>
</a>
</g>
</g>
<!-- Node8&#45;&gt;Node7 -->
<g id="edge7" class="edge">
<title>Node8&#45;&gt;Node7</title>
<path fill="none" stroke="midnightblue" d="M1486.98,-130.56C1519.47,-144.12 1569.33,-164.93 1603.01,-178.98"/>
<polygon fill="midnightblue" stroke="midnightblue" points="1488.07,-127.22 1477.49,-126.6 1485.37,-133.68 1488.07,-127.22"/>
</g>
<!-- Node9 -->
<g id="node9" class="node">
<title>Node9</title>
<g id="a_node9"><a xlink:href="https://www.itk.org/Doxygen/html/classitk_1_1LightObject.html" xlink:title=" ">
<polygon fill="white" stroke="black" points="1086,-0.5 1086,-19.5 1177,-19.5 1177,-0.5 1086,-0.5"/>
<text text-anchor="middle" x="1131.5" y="-7.5" font-family="Helvetica,sans-Serif" font-size="10.00">itk::LightObject</text>
</a>
</g>
</g>
<!-- Node9&#45;&gt;Node8 -->
<g id="edge8" class="edge">
<title>Node9&#45;&gt;Node8</title>
<path fill="none" stroke="midnightblue" d="M1187.25,-7.77C1238.07,-7.85 1314.6,-13.51 1374,-42 1406.12,-57.4 1433.6,-90.94 1445.78,-107.44"/>
<polygon fill="midnightblue" stroke="midnightblue" points="1187.11,-4.27 1177.13,-7.83 1187.15,-11.27 1187.11,-4.27"/>
</g>
<!-- Node10 -->
<g id="node10" class="node">
<title>Node10</title>
<g id="a_node10"><a xlink:title=" ">
<polygon fill="white" stroke="#bfbfbf" points="740.5,-0.5 740.5,-19.5 847.5,-19.5 847.5,-0.5 740.5,-0.5"/>
<text text-anchor="middle" x="794" y="-7.5" font-family="Helvetica,sans-Serif" font-size="10.00">std::atomic&lt; int &gt;</text>
</a>
</g>
</g>
<!-- Node10&#45;&gt;Node9 -->
<g id="edge9" class="edge">
<title>Node10&#45;&gt;Node9</title>
<path fill="none" stroke="#9a32cd" stroke-dasharray="5,2" d="M858.12,-10C924.52,-10 1027.32,-10 1085.79,-10"/>
<polygon fill="#9a32cd" stroke="#9a32cd" points="857.79,-6.5 847.79,-10 857.79,-13.5 857.79,-6.5"/>
<text text-anchor="middle" x="950.5" y="-13" font-family="Helvetica,sans-Serif" font-size="10.00"> m_ReferenceCount</text>
</g>
<!-- Node11&#45;&gt;Node10 -->
<g id="edge10" class="edge">
<title>Node11&#45;&gt;Node10</title>
<path fill="none" stroke="orange" stroke-dasharray="5,2" d="M553.57,-24.93C568.98,-21.03 586.66,-17.16 603,-15 649.13,-8.92 702.08,-8.02 740.35,-8.44"/>
<polygon fill="orange" stroke="orange" points="552.59,-21.57 543.8,-27.48 554.36,-28.34 552.59,-21.57"/>
<text text-anchor="middle" x="656" y="-18" font-family="Helvetica,sans-Serif" font-size="10.00"> &lt; int &gt;</text>
</g>
<!-- Node21 -->
<g id="node21" class="node">
<title>Node21</title>
<g id="a_node21"><a xlink:href="https://www.itk.org/Doxygen/html/classitk_1_1TimeStamp.html" xlink:title=" ">
<polygon fill="white" stroke="black" points="904.5,-39.5 904.5,-58.5 996.5,-58.5 996.5,-39.5 904.5,-39.5"/>
<text text-anchor="middle" x="950.5" y="-46.5" font-family="Helvetica,sans-Serif" font-size="10.00">itk::TimeStamp</text>
</a>
</g>
</g>
<!-- Node11&#45;&gt;Node21 -->
<g id="edge26" class="edge">
<title>Node11&#45;&gt;Node21</title>
<path fill="none" stroke="#9a32cd" stroke-dasharray="5,2" d="M571.06,-38.63C659.77,-41.06 824.68,-45.58 904.24,-47.76"/>
<polygon fill="#9a32cd" stroke="#9a32cd" points="570.98,-35.13 560.89,-38.35 570.79,-42.13 570.98,-35.13"/>
<text text-anchor="middle" x="656" y="-46" font-family="Helvetica,sans-Serif" font-size="10.00"> m_GlobalTimeStamp</text>
</g>
<!-- Node12&#45;&gt;Node8 -->
<g id="edge12" class="edge">
<title>Node12&#45;&gt;Node8</title>
<path fill="none" stroke="#9a32cd" stroke-dasharray="5,2" d="M1207.76,-97.12C1255.51,-95.62 1318.52,-95.4 1374,-101 1389.22,-102.54 1405.86,-105.71 1419.88,-108.82"/>
<polygon fill="#9a32cd" stroke="#9a32cd" points="1207.38,-93.63 1197.51,-97.47 1207.62,-100.63 1207.38,-93.63"/>
<text text-anchor="middle" x="1307.5" y="-104" font-family="Helvetica,sans-Serif" font-size="10.00"> m_MetaDataDictionary</text>
</g>
<!-- Node13 -->
<g id="node13" class="node">
<title>Node13</title>
<g id="a_node13"><a xlink:href="https://www.itk.org/Doxygen/html/classitk_1_1MetaDataDictionary.html" xlink:title=" ">
<polygon fill="white" stroke="black" points="727,-76.5 727,-95.5 861,-95.5 861,-76.5 727,-76.5"/>
<text text-anchor="middle" x="794" y="-83.5" font-family="Helvetica,sans-Serif" font-size="10.00">itk::MetaDataDictionary</text>
</a>
</g>
</g>
<!-- Node13&#45;&gt;Node12 -->
<g id="edge13" class="edge">
<title>Node13&#45;&gt;Node12</title>
<path fill="none" stroke="#9a32cd" stroke-dasharray="5,2" d="M871.23,-85.05C873.85,-85.03 876.45,-85.02 879,-85 942.55,-84.62 958.61,-80.35 1022,-85 1036.05,-86.03 1051.05,-87.8 1065.26,-89.8"/>
<polygon fill="#9a32cd" stroke="#9a32cd" points="871,-81.55 861.03,-85.14 871.06,-88.55 871,-81.55"/>
<text text-anchor="middle" x="950.5" y="-88" font-family="Helvetica,sans-Serif" font-size="10.00"> ptr</text>
</g>
<!-- Node14 -->
<g id="node14" class="node">
<title>Node14</title>
<g id="a_node14"><a xlink:title=" ">
<polygon fill="white" stroke="#bfbfbf" points="436,-71 436,-101 585,-101 585,-71 436,-71"/>
<text text-anchor="start" x="444" y="-89" font-family="Helvetica,sans-Serif" font-size="10.00">std::shared_ptr&lt; MetaData</text>
<text text-anchor="middle" x="510.5" y="-78" font-family="Helvetica,sans-Serif" font-size="10.00">DictionaryMapType &gt;</text>
</a>
</g>
</g>
<!-- Node14&#45;&gt;Node13 -->
<g id="edge14" class="edge">
<title>Node14&#45;&gt;Node13</title>
<path fill="none" stroke="#9a32cd" stroke-dasharray="5,2" d="M595.29,-86C637.24,-86 687.31,-86 726.57,-86"/>
<polygon fill="#9a32cd" stroke="#9a32cd" points="595.09,-82.5 585.09,-86 595.09,-89.5 595.09,-82.5"/>
<text text-anchor="middle" x="656" y="-89" font-family="Helvetica,sans-Serif" font-size="10.00"> m_Dictionary</text>
</g>
<!-- Node15&#45;&gt;Node14 -->
<g id="edge15" class="edge">
<title>Node15&#45;&gt;Node14</title>
<path fill="none" stroke="#9a32cd" stroke-dasharray="5,2" d="M233.75,-75.67C283.17,-75.65 355.18,-76.21 418,-79 423.73,-79.25 429.66,-79.58 435.61,-79.94"/>
<polygon fill="#9a32cd" stroke="#9a32cd" points="233.56,-72.17 223.56,-75.68 233.57,-79.17 233.56,-72.17"/>
<text text-anchor="middle" x="334" y="-82" font-family="Helvetica,sans-Serif" font-size="10.00"> ptr</text>
</g>
<!-- Node16 -->
<g id="node16" class="node">
<title>Node16</title>
<g id="a_node16"><a xlink:title=" ">
<polygon fill="white" stroke="#bfbfbf" points="0,-1.5 0,-20.5 29,-20.5 29,-1.5 0,-1.5"/>
<text text-anchor="middle" x="14.5" y="-8.5" font-family="Helvetica,sans-Serif" font-size="10.00">K</text>
</a>
</g>
</g>
<!-- Node16&#45;&gt;Node15 -->
<g id="edge16" class="edge">
<title>Node16&#45;&gt;Node15</title>
<path fill="none" stroke="#9a32cd" stroke-dasharray="5,2" d="M38.69,-20.67C58.65,-28.99 88.21,-41.3 114,-52 125.47,-56.76 138.23,-62.04 148.85,-66.43"/>
<polygon fill="#9a32cd" stroke="#9a32cd" points="39.78,-17.33 29.2,-16.71 37.08,-23.79 39.78,-17.33"/>
<text text-anchor="middle" x="71.5" y="-48" font-family="Helvetica,sans-Serif" font-size="10.00"> keys</text>
</g>
<!-- Node17&#45;&gt;Node14 -->
<g id="edge18" class="edge">
<title>Node17&#45;&gt;Node14</title>
<path fill="none" stroke="orange" stroke-dasharray="5,2" d="M242.27,-108.3C298.5,-103.61 378.06,-96.97 435.74,-92.16"/>
<polygon fill="orange" stroke="orange" points="241.73,-104.84 232.06,-109.15 242.31,-111.81 241.73,-104.84"/>
<text text-anchor="middle" x="334" y="-111" font-family="Helvetica,sans-Serif" font-size="10.00"> &lt; MetaDataDictionaryMapType &gt;</text>
</g>
<!-- Node18 -->
<g id="node18" class="node">
<title>Node18</title>
<g id="a_node18"><a xlink:title="STL class.">
<polygon fill="white" stroke="#bfbfbf" points="1099,-184.5 1099,-203.5 1164,-203.5 1164,-184.5 1099,-184.5"/>
<text text-anchor="middle" x="1131.5" y="-191.5" font-family="Helvetica,sans-Serif" font-size="10.00">std::string</text>
</a>
</g>
</g>
<!-- Node18&#45;&gt;Node7 -->
<g id="edge27" class="edge">
<title>Node18&#45;&gt;Node7</title>
<path fill="none" stroke="#9a32cd" stroke-dasharray="5,2" d="M1174.27,-194C1259.56,-194 1454.83,-194 1563.14,-194"/>
<polygon fill="#9a32cd" stroke="#9a32cd" points="1174.18,-190.5 1164.18,-194 1174.18,-197.5 1174.18,-190.5"/>
<text text-anchor="middle" x="1453.5" y="-208" font-family="Helvetica,sans-Serif" font-size="10.00"> m_InputSpaceName</text>
<text text-anchor="middle" x="1453.5" y="-197" font-family="Helvetica,sans-Serif" font-size="10.00">m_OutputSpaceName</text>
</g>
<!-- Node18&#45;&gt;Node8 -->
<g id="edge21" class="edge">
<title>Node18&#45;&gt;Node8</title>
<path fill="none" stroke="#9a32cd" stroke-dasharray="5,2" d="M1173.94,-186.34C1189.43,-183.2 1207.11,-179.3 1223,-175 1231.14,-172.8 1232.82,-171.06 1241,-169 1299.18,-154.36 1316.07,-161.57 1374,-146 1393.22,-140.83 1414.35,-132.89 1429.84,-126.62"/>
<polygon fill="#9a32cd" stroke="#9a32cd" points="1173.25,-182.91 1164.12,-188.29 1174.61,-189.77 1173.25,-182.91"/>
<text text-anchor="middle" x="1307.5" y="-172" font-family="Helvetica,sans-Serif" font-size="10.00"> m_ObjectName</text>
</g>
<!-- Node19 -->
<g id="node19" class="node">
<title>Node19</title>
<g id="a_node19"><a xlink:title="STL class.">
<polygon fill="white" stroke="#bfbfbf" points="742,-197 742,-227 846,-227 846,-197 742,-197"/>
<text text-anchor="start" x="750" y="-215" font-family="Helvetica,sans-Serif" font-size="10.00">std::basic_string&lt;</text>
<text text-anchor="middle" x="794" y="-204" font-family="Helvetica,sans-Serif" font-size="10.00"> char &gt;</text>
</a>
</g>
</g>
<!-- Node19&#45;&gt;Node18 -->
<g id="edge22" class="edge">
<title>Node19&#45;&gt;Node18</title>
<path fill="none" stroke="midnightblue" d="M856.55,-208.7C928.12,-204.86 1043.49,-198.67 1098.86,-195.7"/>
<polygon fill="midnightblue" stroke="midnightblue" points="856.12,-205.22 846.32,-209.25 856.49,-212.21 856.12,-205.22"/>
</g>
<!-- Node20&#45;&gt;Node8 -->
<g id="edge23" class="edge">
<title>Node20&#45;&gt;Node8</title>
<path fill="none" stroke="#9a32cd" stroke-dasharray="5,2" d="M1210.37,-138.73C1220.66,-137.39 1231.08,-136.11 1241,-135 1304.18,-127.95 1378.24,-122.23 1419.84,-119.25"/>
<polygon fill="#9a32cd" stroke="#9a32cd" points="1209.6,-135.3 1200.15,-140.09 1210.52,-142.24 1209.6,-135.3"/>
<text text-anchor="middle" x="1307.5" y="-138" font-family="Helvetica,sans-Serif" font-size="10.00"> m_SubjectImplementation</text>
</g>
<!-- Node21&#45;&gt;Node8 -->
<g id="edge25" class="edge">
<title>Node21&#45;&gt;Node8</title>
<path fill="none" stroke="#9a32cd" stroke-dasharray="5,2" d="M1007.04,-50.25C1062.04,-51.97 1148.58,-55.94 1223,-65 1290.76,-73.25 1307.7,-76.77 1374,-93 1390.75,-97.1 1409.2,-102.69 1424.01,-107.44"/>
<polygon fill="#9a32cd" stroke="#9a32cd" points="1006.91,-46.75 996.81,-49.95 1006.7,-53.74 1006.91,-46.75"/>
<text text-anchor="middle" x="1131.5" y="-68" font-family="Helvetica,sans-Serif" font-size="10.00"> m_MTime</text>
</g>
</g>
</svg>
