<?xml version="1.0" encoding="UTF-8" standalone="no"?>
<!DOCTYPE svg PUBLIC "-//W3C//DTD SVG 1.1//EN"
 "http://www.w3.org/Graphics/SVG/1.1/DTD/svg11.dtd">
<!-- Generated by graphviz version 2.43.0 (0)
 -->
<!-- Title: itk::simple::TranslationTransform::MyVisitor Pages: 1 -->
<svg width="377pt" height="386pt"
 viewBox="0.00 0.00 376.50 386.00" xmlns="http://www.w3.org/2000/svg" xmlns:xlink="http://www.w3.org/1999/xlink">
<g id="graph0" class="graph" transform="scale(1 1) rotate(0) translate(4 382)">
<title>itk::simple::TranslationTransform::MyVisitor</title>
<polygon fill="white" stroke="transparent" points="-4,4 -4,-382 372.5,-382 372.5,4 -4,4"/>
<!-- Node1 -->
<g id="node1" class="node">
<title>Node1</title>
<g id="a_node1"><a xlink:title=" ">
<polygon fill="#bfbfbf" stroke="black" points="49.5,-0.5 49.5,-30.5 177.5,-30.5 177.5,-0.5 49.5,-0.5"/>
<text text-anchor="start" x="57.5" y="-18.5" font-family="Helvetica,sans-Serif" font-size="10.00">itk::simple::Translation</text>
<text text-anchor="middle" x="113.5" y="-7.5" font-family="Helvetica,sans-Serif" font-size="10.00">Transform::MyVisitor</text>
</a>
</g>
</g>
<!-- Node2 -->
<g id="node2" class="node">
<title>Node2</title>
<g id="a_node2"><a xlink:href="classitk_1_1TransformBaseTemplate.html" target="_top" xlink:title=" ">
<polygon fill="white" stroke="black" points="0,-78.5 0,-108.5 153,-108.5 153,-78.5 0,-78.5"/>
<text text-anchor="start" x="8" y="-96.5" font-family="Helvetica,sans-Serif" font-size="10.00">itk::TransformBaseTemplate</text>
<text text-anchor="middle" x="76.5" y="-85.5" font-family="Helvetica,sans-Serif" font-size="10.00">&lt; TScalar &gt;</text>
</a>
</g>
</g>
<!-- Node2&#45;&gt;Node1 -->
<g id="edge1" class="edge">
<title>Node2&#45;&gt;Node1</title>
<path fill="none" stroke="#9a32cd" stroke-dasharray="5,2" d="M87.84,-69.2C93.96,-56.64 101.31,-41.54 106.57,-30.73"/>
<polygon fill="#9a32cd" stroke="#9a32cd" points="84.69,-67.68 83.46,-78.2 90.98,-70.75 84.69,-67.68"/>
<text text-anchor="middle" x="123.5" y="-52" font-family="Helvetica,sans-Serif" font-size="10.00"> transform</text>
</g>
<!-- Node3 -->
<g id="node3" class="node">
<title>Node3</title>
<g id="a_node3"><a xlink:href="classitk_1_1simple_1_1TranslationTransform.html" target="_top" xlink:title="Translation of a 2D or 3D coordinate space.">
<polygon fill="white" stroke="black" points="171.5,-78.5 171.5,-108.5 299.5,-108.5 299.5,-78.5 171.5,-78.5"/>
<text text-anchor="start" x="179.5" y="-96.5" font-family="Helvetica,sans-Serif" font-size="10.00">itk::simple::Translation</text>
<text text-anchor="middle" x="235.5" y="-85.5" font-family="Helvetica,sans-Serif" font-size="10.00">Transform</text>
</a>
</g>
</g>
<!-- Node3&#45;&gt;Node1 -->
<g id="edge2" class="edge">
<title>Node3&#45;&gt;Node1</title>
<path fill="none" stroke="#9a32cd" stroke-dasharray="5,2" d="M204.14,-72.97C182.85,-59.7 155.18,-42.46 136.04,-30.54"/>
<polygon fill="#9a32cd" stroke="#9a32cd" points="202.5,-76.07 212.84,-78.38 206.2,-70.12 202.5,-76.07"/>
<text text-anchor="middle" x="193" y="-52" font-family="Helvetica,sans-Serif" font-size="10.00"> that</text>
</g>
<!-- Node4 -->
<g id="node4" class="node">
<title>Node4</title>
<g id="a_node4"><a xlink:href="classitk_1_1simple_1_1Transform.html" target="_top" xlink:title="A simplified wrapper around a variety of ITK transforms.">
<polygon fill="white" stroke="black" points="174,-146.5 174,-165.5 297,-165.5 297,-146.5 174,-146.5"/>
<text text-anchor="middle" x="235.5" y="-153.5" font-family="Helvetica,sans-Serif" font-size="10.00">itk::simple::Transform</text>
</a>
</g>
</g>
<!-- Node4&#45;&gt;Node3 -->
<g id="edge3" class="edge">
<title>Node4&#45;&gt;Node3</title>
<path fill="none" stroke="midnightblue" d="M235.5,-136.22C235.5,-127.36 235.5,-116.96 235.5,-108.76"/>
<polygon fill="midnightblue" stroke="midnightblue" points="232,-136.33 235.5,-146.33 239,-136.33 232,-136.33"/>
</g>
<!-- Node5 -->
<g id="node5" class="node">
<title>Node5</title>
<g id="a_node5"><a xlink:title=" ">
<polygon fill="white" stroke="#bfbfbf" points="144,-213.5 144,-243.5 327,-243.5 327,-213.5 144,-213.5"/>
<text text-anchor="start" x="152" y="-231.5" font-family="Helvetica,sans-Serif" font-size="10.00">std::unique_ptr&lt; PimpleTransform</text>
<text text-anchor="middle" x="235.5" y="-220.5" font-family="Helvetica,sans-Serif" font-size="10.00">Base &gt;</text>
</a>
</g>
</g>
<!-- Node5&#45;&gt;Node4 -->
<g id="edge4" class="edge">
<title>Node5&#45;&gt;Node4</title>
<path fill="none" stroke="#9a32cd" stroke-dasharray="5,2" d="M235.5,-203.09C235.5,-190.21 235.5,-175.2 235.5,-165.89"/>
<polygon fill="#9a32cd" stroke="#9a32cd" points="232,-203.23 235.5,-213.23 239,-203.23 232,-203.23"/>
<text text-anchor="middle" x="286" y="-187" font-family="Helvetica,sans-Serif" font-size="10.00"> m_PimpleTransform</text>
</g>
<!-- Node6 -->
<g id="node6" class="node">
<title>Node6</title>
<g id="a_node6"><a xlink:title="STL class.">
<polygon fill="white" stroke="#bfbfbf" points="176.5,-291.5 176.5,-310.5 294.5,-310.5 294.5,-291.5 176.5,-291.5"/>
<text text-anchor="middle" x="235.5" y="-298.5" font-family="Helvetica,sans-Serif" font-size="10.00">std::unique_ptr&lt; T &gt;</text>
</a>
</g>
</g>
<!-- Node6&#45;&gt;Node5 -->
<g id="edge5" class="edge">
<title>Node6&#45;&gt;Node5</title>
<path fill="none" stroke="orange" stroke-dasharray="5,2" d="M235.5,-281.24C235.5,-269.41 235.5,-254.38 235.5,-243.58"/>
<polygon fill="orange" stroke="orange" points="232,-281.36 235.5,-291.36 239,-281.36 232,-281.36"/>
<text text-anchor="middle" x="302" y="-265" font-family="Helvetica,sans-Serif" font-size="10.00"> &lt; PimpleTransformBase &gt;</text>
</g>
<!-- Node7 -->
<g id="node7" class="node">
<title>Node7</title>
<g id="a_node7"><a xlink:title=" ">
<polygon fill="white" stroke="#bfbfbf" points="221,-358.5 221,-377.5 250,-377.5 250,-358.5 221,-358.5"/>
<text text-anchor="middle" x="235.5" y="-365.5" font-family="Helvetica,sans-Serif" font-size="10.00">T</text>
</a>
</g>
</g>
<!-- Node7&#45;&gt;Node6 -->
<g id="edge6" class="edge">
<title>Node7&#45;&gt;Node6</title>
<path fill="none" stroke="#9a32cd" stroke-dasharray="5,2" d="M235.5,-348.04C235.5,-335.67 235.5,-320.12 235.5,-310.63"/>
<polygon fill="#9a32cd" stroke="#9a32cd" points="232,-348.23 235.5,-358.23 239,-348.23 232,-348.23"/>
<text text-anchor="middle" x="244" y="-332" font-family="Helvetica,sans-Serif" font-size="10.00"> ptr</text>
</g>
</g>
</svg>
