<?xml version="1.0" encoding="UTF-8" standalone="no"?>
<!DOCTYPE svg PUBLIC "-//W3C//DTD SVG 1.1//EN"
 "http://www.w3.org/Graphics/SVG/1.1/DTD/svg11.dtd">
<!-- Generated by graphviz version 2.43.0 (0)
 -->
<!-- Title: itk::simple::Image Pages: 1 -->
<svg width="337pt" height="251pt"
 viewBox="0.00 0.00 336.50 251.00" xmlns="http://www.w3.org/2000/svg" xmlns:xlink="http://www.w3.org/1999/xlink">
<g id="graph0" class="graph" transform="scale(1 1) rotate(0) translate(4 247)">
<title>itk::simple::Image</title>
<polygon fill="white" stroke="transparent" points="-4,4 -4,-247 332.5,-247 332.5,4 -4,4"/>
<!-- Node1 -->
<g id="node1" class="node">
<title>Node1</title>
<g id="a_node1"><a xlink:title="The Image class for SimpleITK.">
<polygon fill="#bfbfbf" stroke="black" points="49,-0.5 49,-19.5 154,-19.5 154,-0.5 49,-0.5"/>
<text text-anchor="middle" x="101.5" y="-7.5" font-family="Helvetica,sans-Serif" font-size="10.00">itk::simple::Image</text>
</a>
</g>
</g>
<!-- Node2 -->
<g id="node2" class="node">
<title>Node2</title>
<g id="a_node2"><a xlink:title=" ">
<polygon fill="white" stroke="#bfbfbf" points="21,-67.5 21,-97.5 182,-97.5 182,-67.5 21,-67.5"/>
<text text-anchor="start" x="29" y="-85.5" font-family="Helvetica,sans-Serif" font-size="10.00">std::unique_ptr&lt; itk</text>
<text text-anchor="middle" x="101.5" y="-74.5" font-family="Helvetica,sans-Serif" font-size="10.00">::simple::PimpleImageBase &gt;</text>
</a>
</g>
</g>
<!-- Node2&#45;&gt;Node1 -->
<g id="edge1" class="edge">
<title>Node2&#45;&gt;Node1</title>
<path fill="none" stroke="#9a32cd" stroke-dasharray="5,2" d="M101.5,-57.09C101.5,-44.21 101.5,-29.2 101.5,-19.89"/>
<polygon fill="#9a32cd" stroke="#9a32cd" points="98,-57.23 101.5,-67.23 105,-57.23 98,-57.23"/>
<text text-anchor="middle" x="143" y="-41" font-family="Helvetica,sans-Serif" font-size="10.00"> m_PimpleImage</text>
</g>
<!-- Node3 -->
<g id="node3" class="node">
<title>Node3</title>
<g id="a_node3"><a xlink:href="classitk_1_1simple_1_1PimpleImageBase.html" target="_top" xlink:title="Private implementation idiom image base class.">
<polygon fill="white" stroke="black" points="0,-156.5 0,-175.5 163,-175.5 163,-156.5 0,-156.5"/>
<text text-anchor="middle" x="81.5" y="-163.5" font-family="Helvetica,sans-Serif" font-size="10.00">itk::simple::PimpleImageBase</text>
</a>
</g>
</g>
<!-- Node3&#45;&gt;Node2 -->
<g id="edge2" class="edge">
<title>Node3&#45;&gt;Node2</title>
<path fill="none" stroke="#9a32cd" stroke-dasharray="5,2" d="M86.11,-146.23C89.74,-131.41 94.74,-111.05 98.04,-97.6"/>
<polygon fill="#9a32cd" stroke="#9a32cd" points="82.62,-145.73 83.64,-156.28 89.42,-147.4 82.62,-145.73"/>
<text text-anchor="middle" x="102" y="-124.5" font-family="Helvetica,sans-Serif" font-size="10.00"> ptr</text>
</g>
<!-- Node4 -->
<g id="node4" class="node">
<title>Node4</title>
<g id="a_node4"><a xlink:title="STL class.">
<polygon fill="white" stroke="#bfbfbf" points="181.5,-156.5 181.5,-175.5 299.5,-175.5 299.5,-156.5 181.5,-156.5"/>
<text text-anchor="middle" x="240.5" y="-163.5" font-family="Helvetica,sans-Serif" font-size="10.00">std::unique_ptr&lt; T &gt;</text>
</a>
</g>
</g>
<!-- Node4&#45;&gt;Node2 -->
<g id="edge3" class="edge">
<title>Node4&#45;&gt;Node2</title>
<path fill="none" stroke="orange" stroke-dasharray="5,2" d="M217.24,-151.36C191.77,-136.43 151.12,-112.59 125.4,-97.51"/>
<polygon fill="orange" stroke="orange" points="215.49,-154.39 225.89,-156.43 219.03,-148.35 215.49,-154.39"/>
<text text-anchor="start" x="191.5" y="-130" font-family="Helvetica,sans-Serif" font-size="10.00"> &lt; itk::simple::PimpleImage</text>
<text text-anchor="middle" x="260" y="-119" font-family="Helvetica,sans-Serif" font-size="10.00">Base &gt;</text>
</g>
<!-- Node5 -->
<g id="node5" class="node">
<title>Node5</title>
<g id="a_node5"><a xlink:title=" ">
<polygon fill="white" stroke="#bfbfbf" points="226,-223.5 226,-242.5 255,-242.5 255,-223.5 226,-223.5"/>
<text text-anchor="middle" x="240.5" y="-230.5" font-family="Helvetica,sans-Serif" font-size="10.00">T</text>
</a>
</g>
</g>
<!-- Node5&#45;&gt;Node4 -->
<g id="edge4" class="edge">
<title>Node5&#45;&gt;Node4</title>
<path fill="none" stroke="#9a32cd" stroke-dasharray="5,2" d="M240.5,-213.04C240.5,-200.67 240.5,-185.12 240.5,-175.63"/>
<polygon fill="#9a32cd" stroke="#9a32cd" points="237,-213.23 240.5,-223.23 244,-213.23 237,-213.23"/>
<text text-anchor="middle" x="249" y="-197" font-family="Helvetica,sans-Serif" font-size="10.00"> ptr</text>
</g>
</g>
</svg>
