<?xml version="1.0" encoding="UTF-8" standalone="no"?>
<!DOCTYPE svg PUBLIC "-//W3C//DTD SVG 1.1//EN"
 "http://www.w3.org/Graphics/SVG/1.1/DTD/svg11.dtd">
<!-- Generated by graphviz version 2.43.0 (0)
 -->
<!-- Title: itk::simple::TransformixImageFilter Pages: 1 -->
<!--zoomable 350 -->
<svg id="main" version="1.1" xmlns="http://www.w3.org/2000/svg" xmlns:xlink="http://www.w3.org/1999/xlink" xml:space="preserve" onload="init(evt)">
<style type="text/css"><![CDATA[
.edge:hover path { stroke: red; }
.edge:hover polygon { stroke: red; fill: red; }
]]></style>
<script type="text/javascript"><![CDATA[
var edges = document.getElementsByTagName('g');
if (edges && edges.length) {
  for (var i=0;i<edges.length;i++) {
    if (edges[i].id.substr(0,4)=='edge') {
      edges[i].setAttribute('class','edge');
    }
  }
}
]]></script>
        <defs>
                <circle id="rim" cx="0" cy="0" r="7"/>
                <circle id="rim2" cx="0" cy="0" r="3.5"/>
                <g id="zoomPlus">
                        <use xlink:href="#rim" fill="#404040">
                                <set attributeName="fill" to="#808080" begin="zoomplus.mouseover" end="zoomplus.mouseout"/>
                        </use>
                        <path d="M-4,0h8M0,-4v8" fill="none" stroke="white" stroke-width="1.5" pointer-events="none"/>
                </g>
                <g id="zoomMin">
                        <use xlink:href="#rim" fill="#404040">
                                <set attributeName="fill" to="#808080" begin="zoomminus.mouseover" end="zoomminus.mouseout"/>
                        </use>
                        <path d="M-4,0h8" fill="none" stroke="white" stroke-width="1.5" pointer-events="none"/>
                </g>
                <g id="dirArrow">
                        <path fill="none" stroke="white" stroke-width="1.5" d="M0,-3.0v7 M-2.5,-0.5L0,-3.0L2.5,-0.5"/>
                </g>
               <g id="resetDef">
                       <use xlink:href="#rim2" fill="#404040">
                               <set attributeName="fill" to="#808080" begin="reset.mouseover" end="reset.mouseout"/>
                       </use>
               </g>
        </defs>

<script type="text/javascript">
var viewWidth = 1908;
var viewHeight = 350;
var sectionId = 'dynsection-0';
</script>
<script xlink:href="svgpan.js"/>
<svg id="graph" class="graph">
<g id="viewport">
<title>itk::simple::TransformixImageFilter</title>
<polygon fill="white" stroke="transparent" points="-4,4 -4,-346.34 1904,-346.34 1904,4 -4,4"/>
<!-- Node1 -->
<g id="node1" class="node">
<title>Node1</title>
<g id="a_node1"><a xlink:title=" ">
<polygon fill="#bfbfbf" stroke="black" points="1768,-102.84 1768,-132.84 1900,-132.84 1900,-102.84 1768,-102.84"/>
<text text-anchor="start" x="1776" y="-120.84" font-family="Helvetica,sans-Serif" font-size="10.00">itk::simple::Transformix</text>
<text text-anchor="middle" x="1834" y="-109.84" font-family="Helvetica,sans-Serif" font-size="10.00">ImageFilter</text>
</a>
</g>
</g>
<!-- Node2 -->
<g id="node2" class="node">
<title>Node2</title>
<g id="a_node2"><a xlink:title=" ">
<polygon fill="white" stroke="#bfbfbf" points="1403,-153.34 1403,-194.34 1593,-194.34 1593,-153.34 1403,-153.34"/>
<text text-anchor="start" x="1411" y="-182.34" font-family="Helvetica,sans-Serif" font-size="10.00">std::unique_ptr&lt; itk</text>
<text text-anchor="start" x="1411" y="-171.34" font-family="Helvetica,sans-Serif" font-size="10.00">::simple::detail::MemberFunction</text>
<text text-anchor="middle" x="1498" y="-160.34" font-family="Helvetica,sans-Serif" font-size="10.00">Factory&lt; MemberFunctionType &gt; &gt;</text>
</a>
</g>
</g>
<!-- Node2&#45;&gt;Node1 -->
<g id="edge1" class="edge">
<title>Node2&#45;&gt;Node1</title>
<path fill="none" stroke="#9a32cd" stroke-dasharray="5,2" d="M1603.25,-171.72C1648.82,-169 1702.58,-163.35 1750,-151.84 1768.01,-147.47 1787.21,-139.81 1802.6,-132.87"/>
<polygon fill="#9a32cd" stroke="#9a32cd" points="1602.85,-168.24 1593.06,-172.29 1603.24,-175.23 1602.85,-168.24"/>
<text text-anchor="middle" x="1680.5" y="-173.84" font-family="Helvetica,sans-Serif" font-size="10.00"> m_MemberFactory</text>
</g>
<!-- Node3 -->
<g id="node3" class="node">
<title>Node3</title>
<g id="a_node3"><a xlink:href="classitk_1_1simple_1_1detail_1_1MemberFunctionFactory.html" target="_top" xlink:title=" ">
<polygon fill="white" stroke="black" points="1057,-258.34 1057,-299.34 1200,-299.34 1200,-258.34 1057,-258.34"/>
<text text-anchor="start" x="1065" y="-287.34" font-family="Helvetica,sans-Serif" font-size="10.00">itk::simple::detail</text>
<text text-anchor="start" x="1065" y="-276.34" font-family="Helvetica,sans-Serif" font-size="10.00">::MemberFunctionFactory</text>
<text text-anchor="middle" x="1128.5" y="-265.34" font-family="Helvetica,sans-Serif" font-size="10.00">&lt; MemberFunctionType &gt;</text>
</a>
</g>
</g>
<!-- Node3&#45;&gt;Node2 -->
<g id="edge2" class="edge">
<title>Node3&#45;&gt;Node2</title>
<path fill="none" stroke="#9a32cd" stroke-dasharray="5,2" d="M1155.49,-251.02C1173.7,-233.44 1199.6,-212.01 1227,-200.84 1243.19,-194.23 1331.45,-186.2 1402.72,-180.63"/>
<polygon fill="#9a32cd" stroke="#9a32cd" points="1152.81,-248.75 1148.18,-258.27 1157.74,-253.72 1152.81,-248.75"/>
<text text-anchor="middle" x="1306" y="-203.84" font-family="Helvetica,sans-Serif" font-size="10.00"> ptr</text>
</g>
<!-- Node4 -->
<g id="node4" class="node">
<title>Node4</title>
<g id="a_node4"><a xlink:href="classitk_1_1simple_1_1detail_1_1MemberFunctionFactoryBase.html" target="_top" xlink:title=" ">
<polygon fill="white" stroke="black" points="530,-289.84 530,-341.84 694,-341.84 694,-289.84 530,-289.84"/>
<text text-anchor="start" x="538" y="-329.84" font-family="Helvetica,sans-Serif" font-size="10.00">itk::simple::detail</text>
<text text-anchor="start" x="538" y="-318.84" font-family="Helvetica,sans-Serif" font-size="10.00">::MemberFunctionFactoryBase</text>
<text text-anchor="start" x="538" y="-307.84" font-family="Helvetica,sans-Serif" font-size="10.00">&lt; MemberFunctionType, std</text>
<text text-anchor="middle" x="612" y="-296.84" font-family="Helvetica,sans-Serif" font-size="10.00">::pair&lt; unsigned int, int &gt; &gt;</text>
</a>
</g>
</g>
<!-- Node4&#45;&gt;Node3 -->
<g id="edge3" class="edge">
<title>Node4&#45;&gt;Node3</title>
<path fill="none" stroke="darkgreen" d="M704.26,-310.92C788.79,-306.12 917.98,-298.2 1030,-288.84 1038.73,-288.11 1047.9,-287.26 1056.97,-286.39"/>
<polygon fill="darkgreen" stroke="darkgreen" points="703.96,-307.43 694.18,-311.48 704.36,-314.42 703.96,-307.43"/>
</g>
<!-- Node5 -->
<g id="node5" class="node">
<title>Node5</title>
<g id="a_node5"><a xlink:href="classitk_1_1simple_1_1detail_1_1MemberFunctionFactoryBase.html" target="_top" xlink:title="A base class for the MemberFunctionFactory.">
<polygon fill="white" stroke="black" points="0,-272.84 0,-302.84 164,-302.84 164,-272.84 0,-272.84"/>
<text text-anchor="start" x="8" y="-290.84" font-family="Helvetica,sans-Serif" font-size="10.00">itk::simple::detail</text>
<text text-anchor="middle" x="82" y="-279.84" font-family="Helvetica,sans-Serif" font-size="10.00">::MemberFunctionFactoryBase</text>
</a>
</g>
</g>
<!-- Node5&#45;&gt;Node4 -->
<g id="edge4" class="edge">
<title>Node5&#45;&gt;Node4</title>
<path fill="none" stroke="orange" stroke-dasharray="5,2" d="M174.23,-293.4C176.85,-293.55 179.44,-293.69 182,-293.84 303.18,-300.62 443.67,-307.67 529.94,-311.9"/>
<polygon fill="orange" stroke="orange" points="174.22,-289.89 164.04,-292.81 173.82,-296.88 174.22,-289.89"/>
<text text-anchor="start" x="191" y="-325.84" font-family="Helvetica,sans-Serif" font-size="10.00"> &lt; MemberFunctionType,</text>
<text text-anchor="start" x="191" y="-314.84" font-family="Helvetica,sans-Serif" font-size="10.00"> std::pair&lt; unsigned</text>
<text text-anchor="middle" x="252" y="-303.84" font-family="Helvetica,sans-Serif" font-size="10.00"> int, int &gt; &gt;</text>
</g>
<!-- Node7 -->
<g id="node7" class="node">
<title>Node7</title>
<g id="a_node7"><a xlink:href="classitk_1_1simple_1_1detail_1_1MemberFunctionFactoryBase.html" target="_top" xlink:title=" ">
<polygon fill="white" stroke="black" points="340,-234.84 340,-286.84 512,-286.84 512,-234.84 340,-234.84"/>
<text text-anchor="start" x="348" y="-274.84" font-family="Helvetica,sans-Serif" font-size="10.00">itk::simple::detail</text>
<text text-anchor="start" x="348" y="-263.84" font-family="Helvetica,sans-Serif" font-size="10.00">::MemberFunctionFactoryBase</text>
<text text-anchor="start" x="348" y="-252.84" font-family="Helvetica,sans-Serif" font-size="10.00">&lt; TMemberFunctionPointer,</text>
<text text-anchor="middle" x="426" y="-241.84" font-family="Helvetica,sans-Serif" font-size="10.00"> std::pair&lt; unsigned int, int &gt; &gt;</text>
</a>
</g>
</g>
<!-- Node5&#45;&gt;Node7 -->
<g id="edge7" class="edge">
<title>Node5&#45;&gt;Node7</title>
<path fill="none" stroke="orange" stroke-dasharray="5,2" d="M138.35,-269.96C152.43,-266.18 167.65,-262.76 182,-260.84 234.06,-253.86 292.96,-253.67 339.73,-255.32"/>
<polygon fill="orange" stroke="orange" points="137.01,-266.7 128.32,-272.75 138.89,-273.44 137.01,-266.7"/>
<text text-anchor="start" x="182" y="-285.84" font-family="Helvetica,sans-Serif" font-size="10.00"> &lt; TMemberFunctionPointer,</text>
<text text-anchor="start" x="182" y="-274.84" font-family="Helvetica,sans-Serif" font-size="10.00"> std::pair&lt; unsigned int,</text>
<text text-anchor="middle" x="252" y="-263.84" font-family="Helvetica,sans-Serif" font-size="10.00"> int &gt; &gt;</text>
</g>
<!-- Node6 -->
<g id="node6" class="node">
<title>Node6</title>
<g id="a_node6"><a xlink:href="classitk_1_1simple_1_1detail_1_1MemberFunctionFactory.html" target="_top" xlink:title="A class used to instantiate and generate function object to templated member functions.">
<polygon fill="white" stroke="black" points="713,-244.34 713,-285.34 874,-285.34 874,-244.34 713,-244.34"/>
<text text-anchor="start" x="721" y="-273.34" font-family="Helvetica,sans-Serif" font-size="10.00">itk::simple::detail</text>
<text text-anchor="start" x="721" y="-262.34" font-family="Helvetica,sans-Serif" font-size="10.00">::MemberFunctionFactory</text>
<text text-anchor="middle" x="793.5" y="-251.34" font-family="Helvetica,sans-Serif" font-size="10.00">&lt; TMemberFunctionPointer &gt;</text>
</a>
</g>
</g>
<!-- Node6&#45;&gt;Node3 -->
<g id="edge5" class="edge">
<title>Node6&#45;&gt;Node3</title>
<path fill="none" stroke="orange" stroke-dasharray="5,2" d="M884.55,-268.62C938.7,-270.9 1006.62,-273.75 1056.87,-275.87"/>
<polygon fill="orange" stroke="orange" points="884.4,-265.11 874.26,-268.19 884.11,-272.11 884.4,-265.11"/>
<text text-anchor="middle" x="961.5" y="-276.84" font-family="Helvetica,sans-Serif" font-size="10.00"> &lt; MemberFunctionType &gt;</text>
</g>
<!-- Node7&#45;&gt;Node6 -->
<g id="edge6" class="edge">
<title>Node7&#45;&gt;Node6</title>
<path fill="none" stroke="darkgreen" d="M522.34,-261.88C581.54,-262.53 656.75,-263.35 712.77,-263.96"/>
<polygon fill="darkgreen" stroke="darkgreen" points="522.27,-258.38 512.23,-261.77 522.19,-265.38 522.27,-258.38"/>
</g>
<!-- Node8 -->
<g id="node8" class="node">
<title>Node8</title>
<g id="a_node8"><a xlink:title="STL class.">
<polygon fill="white" stroke="#bfbfbf" points="734.5,-149.34 734.5,-168.34 852.5,-168.34 852.5,-149.34 734.5,-149.34"/>
<text text-anchor="middle" x="793.5" y="-156.34" font-family="Helvetica,sans-Serif" font-size="10.00">std::unique_ptr&lt; T &gt;</text>
</a>
</g>
</g>
<!-- Node8&#45;&gt;Node2 -->
<g id="edge8" class="edge">
<title>Node8&#45;&gt;Node2</title>
<path fill="none" stroke="orange" stroke-dasharray="5,2" d="M862.9,-160.3C989.26,-162.99 1259.48,-168.76 1402.96,-171.83"/>
<polygon fill="orange" stroke="orange" points="862.66,-156.79 852.59,-160.08 862.51,-163.79 862.66,-156.79"/>
<text text-anchor="start" x="1059" y="-191.84" font-family="Helvetica,sans-Serif" font-size="10.00"> &lt; itk::simple::detail</text>
<text text-anchor="start" x="1059" y="-180.84" font-family="Helvetica,sans-Serif" font-size="10.00">::MemberFunctionFactory</text>
<text text-anchor="middle" x="1128.5" y="-169.84" font-family="Helvetica,sans-Serif" font-size="10.00">&lt; MemberFunctionType &gt; &gt;</text>
</g>
<!-- Node11 -->
<g id="node11" class="node">
<title>Node11</title>
<g id="a_node11"><a xlink:title=" ">
<polygon fill="white" stroke="#bfbfbf" points="1048,-101.84 1048,-131.84 1209,-131.84 1209,-101.84 1048,-101.84"/>
<text text-anchor="start" x="1056" y="-119.84" font-family="Helvetica,sans-Serif" font-size="10.00">std::unique_ptr&lt; itk</text>
<text text-anchor="middle" x="1128.5" y="-108.84" font-family="Helvetica,sans-Serif" font-size="10.00">::simple::PimpleImageBase &gt;</text>
</a>
</g>
</g>
<!-- Node8&#45;&gt;Node11 -->
<g id="edge13" class="edge">
<title>Node8&#45;&gt;Node11</title>
<path fill="none" stroke="orange" stroke-dasharray="5,2" d="M834.77,-146.35C852.47,-141.35 873.6,-136.03 893,-132.84 944.14,-124.42 1002.25,-120.42 1047.83,-118.52"/>
<polygon fill="orange" stroke="orange" points="833.42,-143.1 824.79,-149.24 835.37,-149.82 833.42,-143.1"/>
<text text-anchor="start" x="893" y="-146.84" font-family="Helvetica,sans-Serif" font-size="10.00"> &lt; itk::simple::PimpleImage</text>
<text text-anchor="middle" x="961.5" y="-135.84" font-family="Helvetica,sans-Serif" font-size="10.00">Base &gt;</text>
</g>
<!-- Node15 -->
<g id="node15" class="node">
<title>Node15</title>
<g id="a_node15"><a xlink:title=" ">
<polygon fill="white" stroke="#bfbfbf" points="1227,-218.84 1227,-248.84 1385,-248.84 1385,-218.84 1227,-218.84"/>
<text text-anchor="start" x="1235" y="-236.84" font-family="Helvetica,sans-Serif" font-size="10.00">std::unique_ptr&lt; Transformix</text>
<text text-anchor="middle" x="1306" y="-225.84" font-family="Helvetica,sans-Serif" font-size="10.00">ImageFilterImpl &gt;</text>
</a>
</g>
</g>
<!-- Node8&#45;&gt;Node15 -->
<g id="edge17" class="edge">
<title>Node8&#45;&gt;Node15</title>
<path fill="none" stroke="orange" stroke-dasharray="5,2" d="M840.31,-170.92C856.84,-175.04 875.69,-179.45 893,-182.84 1008.12,-205.35 1143.38,-219.85 1226.65,-227.43"/>
<polygon fill="orange" stroke="orange" points="840.9,-167.46 830.35,-168.41 839.19,-174.25 840.9,-167.46"/>
<text text-anchor="start" x="897.5" y="-218.84" font-family="Helvetica,sans-Serif" font-size="10.00"> &lt; TransformixImageFilter</text>
<text text-anchor="middle" x="961.5" y="-207.84" font-family="Helvetica,sans-Serif" font-size="10.00">Impl &gt;</text>
</g>
<!-- Node9 -->
<g id="node9" class="node">
<title>Node9</title>
<g id="a_node9"><a xlink:title=" ">
<polygon fill="white" stroke="#bfbfbf" points="411.5,-83.34 411.5,-102.34 440.5,-102.34 440.5,-83.34 411.5,-83.34"/>
<text text-anchor="middle" x="426" y="-90.34" font-family="Helvetica,sans-Serif" font-size="10.00">T</text>
</a>
</g>
</g>
<!-- Node9&#45;&gt;Node8 -->
<g id="edge9" class="edge">
<title>Node9&#45;&gt;Node8</title>
<path fill="none" stroke="#9a32cd" stroke-dasharray="5,2" d="M450.95,-97.16C509.14,-107.67 659.09,-134.75 739.58,-149.28"/>
<polygon fill="#9a32cd" stroke="#9a32cd" points="451.34,-93.68 440.88,-95.34 450.1,-100.56 451.34,-93.68"/>
<text text-anchor="middle" x="612" y="-141.84" font-family="Helvetica,sans-Serif" font-size="10.00"> ptr</text>
</g>
<!-- Node17 -->
<g id="node17" class="node">
<title>Node17</title>
<g id="a_node17"><a xlink:title="STL class.">
<polygon fill="white" stroke="#bfbfbf" points="743,-47.34 743,-66.34 844,-66.34 844,-47.34 743,-47.34"/>
<text text-anchor="middle" x="793.5" y="-54.34" font-family="Helvetica,sans-Serif" font-size="10.00">std::map&lt; K, T &gt;</text>
</a>
</g>
</g>
<!-- Node9&#45;&gt;Node17 -->
<g id="edge21" class="edge">
<title>Node9&#45;&gt;Node17</title>
<path fill="none" stroke="#9a32cd" stroke-dasharray="5,2" d="M450.63,-90.96C497.23,-87.22 604.23,-78.34 694,-68.84 709.93,-67.15 727.29,-65.11 742.93,-63.18"/>
<polygon fill="#9a32cd" stroke="#9a32cd" points="450.32,-87.48 440.63,-91.76 450.88,-94.46 450.32,-87.48"/>
<text text-anchor="middle" x="612" y="-86.84" font-family="Helvetica,sans-Serif" font-size="10.00"> elements</text>
</g>
<!-- Node19 -->
<g id="node19" class="node">
<title>Node19</title>
<g id="a_node19"><a xlink:title="STL class.">
<polygon fill="white" stroke="#bfbfbf" points="745,-9.34 745,-28.34 842,-28.34 842,-9.34 745,-9.34"/>
<text text-anchor="middle" x="793.5" y="-16.34" font-family="Helvetica,sans-Serif" font-size="10.00">std::vector&lt; T &gt;</text>
</a>
</g>
</g>
<!-- Node9&#45;&gt;Node19 -->
<g id="edge23" class="edge">
<title>Node9&#45;&gt;Node19</title>
<path fill="none" stroke="#9a32cd" stroke-dasharray="5,2" d="M450.98,-92.67C469.34,-91.41 494.42,-87.08 512,-73.84 525.34,-63.78 516,-49.96 530,-40.84 594.75,1.36 688.41,-2.57 744.59,-10.11"/>
<polygon fill="#9a32cd" stroke="#9a32cd" points="450.64,-89.19 440.8,-93.12 450.94,-96.18 450.64,-89.19"/>
<text text-anchor="middle" x="612" y="-43.84" font-family="Helvetica,sans-Serif" font-size="10.00"> elements</text>
</g>
<!-- Node10 -->
<g id="node10" class="node">
<title>Node10</title>
<g id="a_node10"><a xlink:href="classitk_1_1simple_1_1Image.html" target="_top" xlink:title="The Image class for SimpleITK.">
<polygon fill="white" stroke="black" points="1445.5,-108.34 1445.5,-127.34 1550.5,-127.34 1550.5,-108.34 1445.5,-108.34"/>
<text text-anchor="middle" x="1498" y="-115.34" font-family="Helvetica,sans-Serif" font-size="10.00">itk::simple::Image</text>
</a>
</g>
</g>
<!-- Node10&#45;&gt;Node1 -->
<g id="edge10" class="edge">
<title>Node10&#45;&gt;Node1</title>
<path fill="none" stroke="#9a32cd" stroke-dasharray="5,2" d="M1561.09,-117.84C1619.95,-117.84 1708.02,-117.84 1767.86,-117.84"/>
<polygon fill="#9a32cd" stroke="#9a32cd" points="1560.82,-114.34 1550.82,-117.84 1560.82,-121.34 1560.82,-114.34"/>
<text text-anchor="middle" x="1680.5" y="-142.84" font-family="Helvetica,sans-Serif" font-size="10.00"> m_DeformationField</text>
<text text-anchor="middle" x="1680.5" y="-131.84" font-family="Helvetica,sans-Serif" font-size="10.00">m_MovingImage</text>
<text text-anchor="middle" x="1680.5" y="-120.84" font-family="Helvetica,sans-Serif" font-size="10.00">m_ResultImage</text>
</g>
<!-- Node11&#45;&gt;Node10 -->
<g id="edge11" class="edge">
<title>Node11&#45;&gt;Node10</title>
<path fill="none" stroke="#9a32cd" stroke-dasharray="5,2" d="M1219.52,-117.08C1290.49,-117.27 1386.93,-117.54 1445.42,-117.7"/>
<polygon fill="#9a32cd" stroke="#9a32cd" points="1219.25,-113.58 1209.24,-117.05 1219.23,-120.58 1219.25,-113.58"/>
<text text-anchor="middle" x="1306" y="-119.84" font-family="Helvetica,sans-Serif" font-size="10.00"> m_PimpleImage</text>
</g>
<!-- Node12 -->
<g id="node12" class="node">
<title>Node12</title>
<g id="a_node12"><a xlink:href="classitk_1_1simple_1_1PimpleImageBase.html" target="_top" xlink:title="Private implementation idiom image base class.">
<polygon fill="white" stroke="black" points="712,-88.34 712,-107.34 875,-107.34 875,-88.34 712,-88.34"/>
<text text-anchor="middle" x="793.5" y="-95.34" font-family="Helvetica,sans-Serif" font-size="10.00">itk::simple::PimpleImageBase</text>
</a>
</g>
</g>
<!-- Node12&#45;&gt;Node11 -->
<g id="edge12" class="edge">
<title>Node12&#45;&gt;Node11</title>
<path fill="none" stroke="#9a32cd" stroke-dasharray="5,2" d="M885.13,-94.46C928.97,-93.78 982.32,-94.37 1030,-98.84 1037.8,-99.57 1045.9,-100.61 1053.96,-101.82"/>
<polygon fill="#9a32cd" stroke="#9a32cd" points="884.99,-90.96 875.06,-94.64 885.12,-97.96 884.99,-90.96"/>
<text text-anchor="middle" x="961.5" y="-101.84" font-family="Helvetica,sans-Serif" font-size="10.00"> ptr</text>
</g>
<!-- Node13 -->
<g id="node13" class="node">
<title>Node13</title>
<g id="a_node13"><a xlink:title="STL class.">
<polygon fill="white" stroke="#bfbfbf" points="1465.5,-55.34 1465.5,-74.34 1530.5,-74.34 1530.5,-55.34 1465.5,-55.34"/>
<text text-anchor="middle" x="1498" y="-62.34" font-family="Helvetica,sans-Serif" font-size="10.00">std::string</text>
</a>
</g>
</g>
<!-- Node13&#45;&gt;Node1 -->
<g id="edge14" class="edge">
<title>Node13&#45;&gt;Node1</title>
<path fill="none" stroke="#9a32cd" stroke-dasharray="5,2" d="M1541.04,-63.02C1591.45,-61.86 1678.16,-63.14 1750,-80.84 1769.45,-85.63 1790.03,-94.77 1805.83,-102.77"/>
<polygon fill="#9a32cd" stroke="#9a32cd" points="1540.75,-59.52 1530.85,-63.3 1540.94,-66.52 1540.75,-59.52"/>
<text text-anchor="middle" x="1680.5" y="-105.84" font-family="Helvetica,sans-Serif" font-size="10.00"> m_OutputDirectory</text>
<text text-anchor="middle" x="1680.5" y="-94.84" font-family="Helvetica,sans-Serif" font-size="10.00">m_LogFileName</text>
<text text-anchor="middle" x="1680.5" y="-83.84" font-family="Helvetica,sans-Serif" font-size="10.00">m_MovingPointSetFileName</text>
</g>
<!-- Node14 -->
<g id="node14" class="node">
<title>Node14</title>
<g id="a_node14"><a xlink:title="STL class.">
<polygon fill="white" stroke="#bfbfbf" points="1076.5,-52.84 1076.5,-82.84 1180.5,-82.84 1180.5,-52.84 1076.5,-52.84"/>
<text text-anchor="start" x="1084.5" y="-70.84" font-family="Helvetica,sans-Serif" font-size="10.00">std::basic_string&lt;</text>
<text text-anchor="middle" x="1128.5" y="-59.84" font-family="Helvetica,sans-Serif" font-size="10.00"> char &gt;</text>
</a>
</g>
</g>
<!-- Node14&#45;&gt;Node13 -->
<g id="edge15" class="edge">
<title>Node14&#45;&gt;Node13</title>
<path fill="none" stroke="midnightblue" d="M1190.9,-67.33C1269.93,-66.69 1404.31,-65.59 1465.26,-65.09"/>
<polygon fill="midnightblue" stroke="midnightblue" points="1190.57,-63.84 1180.6,-67.42 1190.63,-70.84 1190.57,-63.84"/>
</g>
<!-- Node15&#45;&gt;Node1 -->
<g id="edge16" class="edge">
<title>Node15&#45;&gt;Node1</title>
<path fill="none" stroke="#9a32cd" stroke-dasharray="5,2" d="M1395.35,-238.92C1487.53,-240.93 1634.46,-234.72 1750,-185.84 1778.31,-173.86 1804.6,-149.07 1819.72,-132.96"/>
<polygon fill="#9a32cd" stroke="#9a32cd" points="1395.3,-235.42 1385.21,-238.66 1395.12,-242.42 1395.3,-235.42"/>
<text text-anchor="middle" x="1498" y="-241.84" font-family="Helvetica,sans-Serif" font-size="10.00"> m_Pimple</text>
</g>
<!-- Node16 -->
<g id="node16" class="node">
<title>Node16</title>
<g id="a_node16"><a xlink:title=" ">
<polygon fill="white" stroke="#bfbfbf" points="1053,-3.84 1053,-33.84 1204,-33.84 1204,-3.84 1053,-3.84"/>
<text text-anchor="start" x="1061" y="-21.84" font-family="Helvetica,sans-Serif" font-size="10.00">std::vector&lt; ParameterMap</text>
<text text-anchor="middle" x="1128.5" y="-10.84" font-family="Helvetica,sans-Serif" font-size="10.00">Type &gt;</text>
</a>
</g>
</g>
<!-- Node16&#45;&gt;Node1 -->
<g id="edge18" class="edge">
<title>Node16&#45;&gt;Node1</title>
<path fill="none" stroke="#9a32cd" stroke-dasharray="5,2" d="M1214.57,-8.18C1337.66,3.71 1570.36,12.73 1750,-59.84 1775.26,-70.04 1800.36,-89.15 1816.23,-102.64"/>
<polygon fill="#9a32cd" stroke="#9a32cd" points="1214.06,-4.71 1204.45,-9.18 1214.75,-11.68 1214.06,-4.71"/>
<text text-anchor="middle" x="1498" y="-18.84" font-family="Helvetica,sans-Serif" font-size="10.00"> m_TransformParameterMapVector</text>
</g>
<!-- Node17&#45;&gt;Node16 -->
<g id="edge19" class="edge">
<title>Node17&#45;&gt;Node16</title>
<path fill="none" stroke="#9a32cd" stroke-dasharray="5,2" d="M854.33,-51.42C901.97,-46.95 970.34,-40.16 1030,-32.84 1037.38,-31.93 1045.07,-30.93 1052.75,-29.89"/>
<polygon fill="#9a32cd" stroke="#9a32cd" points="853.82,-47.95 844.19,-52.37 854.47,-54.92 853.82,-47.95"/>
<text text-anchor="middle" x="961.5" y="-50.84" font-family="Helvetica,sans-Serif" font-size="10.00"> elements</text>
</g>
<!-- Node18 -->
<g id="node18" class="node">
<title>Node18</title>
<g id="a_node18"><a xlink:title=" ">
<polygon fill="white" stroke="#bfbfbf" points="411.5,-45.34 411.5,-64.34 440.5,-64.34 440.5,-45.34 411.5,-45.34"/>
<text text-anchor="middle" x="426" y="-52.34" font-family="Helvetica,sans-Serif" font-size="10.00">K</text>
</a>
</g>
</g>
<!-- Node18&#45;&gt;Node17 -->
<g id="edge20" class="edge">
<title>Node18&#45;&gt;Node17</title>
<path fill="none" stroke="#9a32cd" stroke-dasharray="5,2" d="M451.1,-54.97C510.23,-55.29 663.46,-56.13 742.98,-56.56"/>
<polygon fill="#9a32cd" stroke="#9a32cd" points="450.9,-51.47 440.88,-54.91 450.86,-58.47 450.9,-51.47"/>
<text text-anchor="middle" x="612" y="-59.84" font-family="Helvetica,sans-Serif" font-size="10.00"> keys</text>
</g>
<!-- Node19&#45;&gt;Node16 -->
<g id="edge22" class="edge">
<title>Node19&#45;&gt;Node16</title>
<path fill="none" stroke="orange" stroke-dasharray="5,2" d="M852.24,-18.84C907.83,-18.84 992.17,-18.84 1052.84,-18.84"/>
<polygon fill="orange" stroke="orange" points="852.21,-15.34 842.21,-18.84 852.21,-22.34 852.21,-15.34"/>
<text text-anchor="middle" x="961.5" y="-21.84" font-family="Helvetica,sans-Serif" font-size="10.00"> &lt; ParameterMapType &gt;</text>
</g>
</g>
</svg>
        <g id="navigator" transform="translate(0 0)" fill="#404254">
                <rect fill="#f2f5e9" fill-opacity="0.5" stroke="#606060" stroke-width=".5" x="0" y="0" width="60" height="60"/>
                <use id="zoomplus" xlink:href="#zoomPlus" x="17" y="9" onmousedown="handleZoom(evt,'in')"/>
                <use id="zoomminus" xlink:href="#zoomMin" x="42" y="9" onmousedown="handleZoom(evt,'out')"/>
                <use id="reset" xlink:href="#resetDef" x="30" y="36" onmousedown="handleReset()"/>
                <g id="arrowUp" xlink:href="#dirArrow" transform="translate(30 24)" onmousedown="handlePan(0,-1)">
                  <use xlink:href="#rim" fill="#404040">
                        <set attributeName="fill" to="#808080" begin="arrowUp.mouseover" end="arrowUp.mouseout"/>
                  </use>
                  <path fill="none" stroke="white" stroke-width="1.5" d="M0,-3.0v7 M-2.5,-0.5L0,-3.0L2.5,-0.5"/>
                </g>
                <g id="arrowRight" xlink:href="#dirArrow" transform="rotate(90) translate(36 -43)" onmousedown="handlePan(1,0)">
                  <use xlink:href="#rim" fill="#404040">
                        <set attributeName="fill" to="#808080" begin="arrowRight.mouseover" end="arrowRight.mouseout"/>
                  </use>
                  <path fill="none" stroke="white" stroke-width="1.5" d="M0,-3.0v7 M-2.5,-0.5L0,-3.0L2.5,-0.5"/>
                </g>
                <g id="arrowDown" xlink:href="#dirArrow" transform="rotate(180) translate(-30 -48)" onmousedown="handlePan(0,1)">
                  <use xlink:href="#rim" fill="#404040">
                        <set attributeName="fill" to="#808080" begin="arrowDown.mouseover" end="arrowDown.mouseout"/>
                  </use>
                  <path fill="none" stroke="white" stroke-width="1.5" d="M0,-3.0v7 M-2.5,-0.5L0,-3.0L2.5,-0.5"/>
                </g>
                <g id="arrowLeft" xlink:href="#dirArrow" transform="rotate(270) translate(-36 17)" onmousedown="handlePan(-1,0)">
                  <use xlink:href="#rim" fill="#404040">
                        <set attributeName="fill" to="#808080" begin="arrowLeft.mouseover" end="arrowLeft.mouseout"/>
                  </use>
                  <path fill="none" stroke="white" stroke-width="1.5" d="M0,-3.0v7 M-2.5,-0.5L0,-3.0L2.5,-0.5"/>
                </g>
        </g>
        <svg viewBox="0 0 15 15" width="100%" height="30px" preserveAspectRatio="xMaxYMin meet">
         <g id="arrow_out" transform="scale(0.3 0.3)">
          <a xlink:href="classitk_1_1simple_1_1TransformixImageFilter__coll__graph_org.svg" target="_base">
           <rect id="button" ry="5" rx="5" y="6" x="6" height="38" width="38"
                fill="#f2f5e9" fill-opacity="0.5" stroke="#606060" stroke-width="1.0"/>
           <path id="arrow"
             d="M 11.500037,31.436501 C 11.940474,20.09759 22.043105,11.32322 32.158766,21.979434 L 37.068811,17.246167 C 37.068811,17.246167 37.088388,32 37.088388,32 L 22.160133,31.978069 C 22.160133,31.978069 26.997745,27.140456 26.997745,27.140456 C 18.528582,18.264221 13.291696,25.230495 11.500037,31.436501 z"
             style="fill:#404040;"/>
          </a>
         </g>
        </svg>
</svg>
