<?xml version="1.0" encoding="UTF-8" standalone="no"?>
<!DOCTYPE svg PUBLIC "-//W3C//DTD SVG 1.1//EN"
 "http://www.w3.org/Graphics/SVG/1.1/DTD/svg11.dtd">
<!-- Generated by graphviz version 2.43.0 (0)
 -->
<!-- Title: sitkImageConvert.h Pages: 1 -->
<svg width="7429pt" height="274pt"
 viewBox="0.00 0.00 7429.00 274.00" xmlns="http://www.w3.org/2000/svg" xmlns:xlink="http://www.w3.org/1999/xlink">
<g id="graph0" class="graph" transform="scale(1 1) rotate(0) translate(4 270)">
<title>sitkImageConvert.h</title>
<polygon fill="white" stroke="transparent" points="-4,4 -4,-270 7425,-270 7425,4 -4,4"/>
<!-- Node1 -->
<g id="node1" class="node">
<title>Node1</title>
<g id="a_node1"><a xlink:title=" ">
<polygon fill="#bfbfbf" stroke="black" points="6605.5,-246.5 6605.5,-265.5 6718.5,-265.5 6718.5,-246.5 6605.5,-246.5"/>
<text text-anchor="middle" x="6662" y="-253.5" font-family="Helvetica,sans-Serif" font-size="10.00">sitkImageConvert.h</text>
</a>
</g>
</g>
<!-- Node2 -->
<g id="node2" class="node">
<title>Node2</title>
<g id="a_node2"><a xlink:href="sitkProcessObject_8h.html" target="_top" xlink:title=" ">
<polygon fill="white" stroke="black" points="6605.5,-190.5 6605.5,-209.5 6718.5,-209.5 6718.5,-190.5 6605.5,-190.5"/>
<text text-anchor="middle" x="6662" y="-197.5" font-family="Helvetica,sans-Serif" font-size="10.00">sitkProcessObject.h</text>
</a>
</g>
</g>
<!-- Node1&#45;&gt;Node2 -->
<g id="edge1" class="edge">
<title>Node1&#45;&gt;Node2</title>
<path fill="none" stroke="midnightblue" d="M6662,-235.8C6662,-226.91 6662,-216.78 6662,-209.75"/>
<polygon fill="midnightblue" stroke="midnightblue" points="6658.5,-236.08 6662,-246.08 6665.5,-236.08 6658.5,-236.08"/>
</g>
<!-- Node3 -->
<g id="node3" class="node">
<title>Node3</title>
<g id="a_node3"><a xlink:href="sitkImageFilter_8h.html" target="_top" xlink:title=" ">
<polygon fill="white" stroke="red" points="3038,-129 3038,-148 3136,-148 3136,-129 3038,-129"/>
<text text-anchor="middle" x="3087" y="-136" font-family="Helvetica,sans-Serif" font-size="10.00">sitkImageFilter.h</text>
</a>
</g>
</g>
<!-- Node2&#45;&gt;Node3 -->
<g id="edge2" class="edge">
<title>Node2&#45;&gt;Node3</title>
<path fill="none" stroke="midnightblue" d="M6595.19,-197.89C6142.29,-190.35 3528.33,-146.85 3136.22,-140.32"/>
<polygon fill="midnightblue" stroke="midnightblue" points="6595.43,-201.39 6605.48,-198.06 6595.54,-194.39 6595.43,-201.39"/>
</g>
<!-- Node5 -->
<g id="node5" class="node">
<title>Node5</title>
<g id="a_node5"><a xlink:href="SimpleITK_8h.html" target="_top" xlink:title=" ">
<polygon fill="white" stroke="black" points="6384.5,-0.5 6384.5,-19.5 6459.5,-19.5 6459.5,-0.5 6384.5,-0.5"/>
<text text-anchor="middle" x="6422" y="-7.5" font-family="Helvetica,sans-Serif" font-size="10.00">SimpleITK.h</text>
</a>
</g>
</g>
<!-- Node2&#45;&gt;Node5 -->
<g id="edge53" class="edge">
<title>Node2&#45;&gt;Node5</title>
<path fill="none" stroke="midnightblue" d="M6595.14,-197.05C6477.54,-192.93 6243.71,-181.35 6219,-154 6209.76,-143.78 6210.24,-133.64 6219,-123 6271.96,-58.67 6342.57,-144.38 6403,-87 6421.94,-69.02 6423.16,-35.26 6422.58,-19.5"/>
<polygon fill="midnightblue" stroke="midnightblue" points="6595.34,-200.56 6605.46,-197.4 6595.58,-193.56 6595.34,-200.56"/>
</g>
<!-- Node8 -->
<g id="node8" class="node">
<title>Node8</title>
<g id="a_node8"><a xlink:href="sitkHashImageFilter_8h.html" target="_top" xlink:title=" ">
<polygon fill="white" stroke="black" points="6270.5,-62 6270.5,-81 6393.5,-81 6393.5,-62 6270.5,-62"/>
<text text-anchor="middle" x="6332" y="-69" font-family="Helvetica,sans-Serif" font-size="10.00">sitkHashImageFilter.h</text>
</a>
</g>
</g>
<!-- Node2&#45;&gt;Node8 -->
<g id="edge52" class="edge">
<title>Node2&#45;&gt;Node8</title>
<path fill="none" stroke="midnightblue" d="M6595.07,-197.57C6470.25,-194.22 6212.06,-183.73 6185,-154 6175.73,-143.81 6177,-134.21 6185,-123 6197.54,-105.43 6251.83,-90.1 6290.78,-81.07"/>
<polygon fill="midnightblue" stroke="midnightblue" points="6595.19,-201.08 6605.28,-197.84 6595.37,-194.08 6595.19,-201.08"/>
</g>
<!-- Node308 -->
<g id="node43" class="node">
<title>Node308</title>
<g id="a_node43"><a xlink:href="sitkCenteredTransformInitializerFilter_8h.html" target="_top" xlink:title=" ">
<polygon fill="white" stroke="black" points="6227.5,-123.5 6227.5,-153.5 6400.5,-153.5 6400.5,-123.5 6227.5,-123.5"/>
<text text-anchor="start" x="6235.5" y="-141.5" font-family="Helvetica,sans-Serif" font-size="10.00">sitkCenteredTransformInitializer</text>
<text text-anchor="middle" x="6314" y="-130.5" font-family="Helvetica,sans-Serif" font-size="10.00">Filter.h</text>
</a>
</g>
</g>
<!-- Node2&#45;&gt;Node308 -->
<g id="edge48" class="edge">
<title>Node2&#45;&gt;Node308</title>
<path fill="none" stroke="midnightblue" d="M6602.22,-188.78C6545.34,-179.05 6459.29,-164.34 6396.02,-153.52"/>
<polygon fill="midnightblue" stroke="midnightblue" points="6601.69,-192.24 6612.14,-190.48 6602.87,-185.34 6601.69,-192.24"/>
</g>
<!-- Node309 -->
<g id="node44" class="node">
<title>Node309</title>
<g id="a_node44"><a xlink:href="sitkCenteredVersorTransformInitializerFilter_8h.html" target="_top" xlink:title=" ">
<polygon fill="white" stroke="black" points="6419,-123.5 6419,-153.5 6577,-153.5 6577,-123.5 6419,-123.5"/>
<text text-anchor="start" x="6427" y="-141.5" font-family="Helvetica,sans-Serif" font-size="10.00">sitkCenteredVersorTransform</text>
<text text-anchor="middle" x="6498" y="-130.5" font-family="Helvetica,sans-Serif" font-size="10.00">InitializerFilter.h</text>
</a>
</g>
</g>
<!-- Node2&#45;&gt;Node309 -->
<g id="edge50" class="edge">
<title>Node2&#45;&gt;Node309</title>
<path fill="none" stroke="midnightblue" d="M6628.86,-186.98C6602.19,-177.3 6564.68,-163.69 6536.65,-153.52"/>
<polygon fill="midnightblue" stroke="midnightblue" points="6627.91,-190.35 6638.5,-190.48 6630.3,-183.77 6627.91,-190.35"/>
</g>
<!-- Node310 -->
<g id="node45" class="node">
<title>Node310</title>
<g id="a_node45"><a xlink:href="sitkImageReaderBase_8h.html" target="_top" xlink:title=" ">
<polygon fill="white" stroke="red" points="6595.5,-129 6595.5,-148 6728.5,-148 6728.5,-129 6595.5,-129"/>
<text text-anchor="middle" x="6662" y="-136" font-family="Helvetica,sans-Serif" font-size="10.00">sitkImageReaderBase.h</text>
</a>
</g>
</g>
<!-- Node2&#45;&gt;Node310 -->
<g id="edge54" class="edge">
<title>Node2&#45;&gt;Node310</title>
<path fill="none" stroke="midnightblue" d="M6662,-180.32C6662,-169.5 6662,-156.4 6662,-148.01"/>
<polygon fill="midnightblue" stroke="midnightblue" points="6658.5,-180.48 6662,-190.48 6665.5,-180.48 6658.5,-180.48"/>
</g>
<!-- Node314 -->
<g id="node46" class="node">
<title>Node314</title>
<g id="a_node46"><a xlink:href="sitkImageFileWriter_8h.html" target="_top" xlink:title=" ">
<polygon fill="white" stroke="black" points="6746.5,-129 6746.5,-148 6867.5,-148 6867.5,-129 6746.5,-129"/>
<text text-anchor="middle" x="6807" y="-136" font-family="Helvetica,sans-Serif" font-size="10.00">sitkImageFileWriter.h</text>
</a>
</g>
</g>
<!-- Node2&#45;&gt;Node314 -->
<g id="edge55" class="edge">
<title>Node2&#45;&gt;Node314</title>
<path fill="none" stroke="midnightblue" d="M6692.14,-186.63C6720.31,-175.07 6761.62,-158.12 6786.26,-148.01"/>
<polygon fill="midnightblue" stroke="midnightblue" points="6690.7,-183.44 6682.77,-190.48 6693.36,-189.92 6690.7,-183.44"/>
</g>
<!-- Node315 -->
<g id="node47" class="node">
<title>Node315</title>
<g id="a_node47"><a xlink:href="sitkImageSeriesWriter_8h.html" target="_top" xlink:title=" ">
<polygon fill="white" stroke="black" points="6886,-129 6886,-148 7020,-148 7020,-129 6886,-129"/>
<text text-anchor="middle" x="6953" y="-136" font-family="Helvetica,sans-Serif" font-size="10.00">sitkImageSeriesWriter.h</text>
</a>
</g>
</g>
<!-- Node2&#45;&gt;Node315 -->
<g id="edge57" class="edge">
<title>Node2&#45;&gt;Node315</title>
<path fill="none" stroke="midnightblue" d="M6713.83,-188.4C6770.25,-176.87 6859.34,-158.65 6911.38,-148.01"/>
<polygon fill="midnightblue" stroke="midnightblue" points="6712.79,-185.04 6703.69,-190.48 6714.19,-191.9 6712.79,-185.04"/>
</g>
<!-- Node316 -->
<g id="node48" class="node">
<title>Node316</title>
<g id="a_node48"><a xlink:href="sitkImageViewer_8h.html" target="_top" xlink:title=" ">
<polygon fill="white" stroke="black" points="7038.5,-129 7038.5,-148 7145.5,-148 7145.5,-129 7038.5,-129"/>
<text text-anchor="middle" x="7092" y="-136" font-family="Helvetica,sans-Serif" font-size="10.00">sitkImageViewer.h</text>
</a>
</g>
</g>
<!-- Node2&#45;&gt;Node316 -->
<g id="edge59" class="edge">
<title>Node2&#45;&gt;Node316</title>
<path fill="none" stroke="midnightblue" d="M6728.62,-192.94C6802.39,-185.74 6924.69,-172.35 7029,-154 7038.4,-152.35 7048.5,-150.19 7057.8,-148.05"/>
<polygon fill="midnightblue" stroke="midnightblue" points="6728.16,-189.47 6718.54,-193.91 6728.83,-196.43 6728.16,-189.47"/>
</g>
<!-- Node317 -->
<g id="node49" class="node">
<title>Node317</title>
<g id="a_node49"><a xlink:href="sitkShow_8h.html" target="_top" xlink:title=" ">
<polygon fill="white" stroke="black" points="7163.5,-129 7163.5,-148 7232.5,-148 7232.5,-129 7163.5,-129"/>
<text text-anchor="middle" x="7198" y="-136" font-family="Helvetica,sans-Serif" font-size="10.00">sitkShow.h</text>
</a>
</g>
</g>
<!-- Node2&#45;&gt;Node317 -->
<g id="edge61" class="edge">
<title>Node2&#45;&gt;Node317</title>
<path fill="none" stroke="midnightblue" d="M6728.93,-197.84C6824.44,-195.07 7004.9,-185.7 7155,-154 7161.94,-152.53 7169.31,-150.31 7175.96,-148.04"/>
<polygon fill="midnightblue" stroke="midnightblue" points="6728.73,-194.34 6718.83,-198.12 6728.92,-201.34 6728.73,-194.34"/>
</g>
<!-- Node318 -->
<g id="node50" class="node">
<title>Node318</title>
<g id="a_node50"><a xlink:href="sitkImageRegistrationMethod_8h.html" target="_top" xlink:title=" ">
<polygon fill="white" stroke="black" points="7251,-129 7251,-148 7421,-148 7421,-129 7251,-129"/>
<text text-anchor="middle" x="7336" y="-136" font-family="Helvetica,sans-Serif" font-size="10.00">sitkImageRegistrationMethod.h</text>
</a>
</g>
</g>
<!-- Node2&#45;&gt;Node318 -->
<g id="edge63" class="edge">
<title>Node2&#45;&gt;Node318</title>
<path fill="none" stroke="midnightblue" d="M6728.63,-195.47C6836.65,-189.39 7056.61,-175.46 7242,-154 7256.11,-152.37 7271.34,-150.19 7285.36,-148.03"/>
<polygon fill="midnightblue" stroke="midnightblue" points="6728.32,-191.98 6718.53,-196.04 6728.71,-198.97 6728.32,-191.98"/>
</g>
<!-- Node4 -->
<g id="node4" class="node">
<title>Node4</title>
<g id="a_node4"><a xlink:href="sitkBSplineTransformInitializerFilter_8h.html" target="_top" xlink:title=" ">
<polygon fill="white" stroke="black" points="0,-56.5 0,-86.5 166,-86.5 166,-56.5 0,-56.5"/>
<text text-anchor="start" x="8" y="-74.5" font-family="Helvetica,sans-Serif" font-size="10.00">sitkBSplineTransformInitializer</text>
<text text-anchor="middle" x="83" y="-63.5" font-family="Helvetica,sans-Serif" font-size="10.00">Filter.h</text>
</a>
</g>
</g>
<!-- Node3&#45;&gt;Node4 -->
<g id="edge3" class="edge">
<title>Node3&#45;&gt;Node4</title>
<path fill="none" stroke="midnightblue" d="M3027.78,-137.53C2667.1,-137.55 762.02,-135.35 180,-87 175.5,-86.63 170.9,-86.17 166.26,-85.67"/>
<polygon fill="midnightblue" stroke="midnightblue" points="3028,-141.03 3037.99,-137.53 3027.99,-134.03 3028,-141.03"/>
</g>
<!-- Node3&#45;&gt;Node5 -->
<g id="edge15" class="edge">
<title>Node3&#45;&gt;Node5</title>
<path fill="none" stroke="midnightblue" d="M3027.7,-137.6C2621.46,-138.14 264.13,-139.04 213,-87 203.34,-77.17 203.29,-65.78 213,-56 241.98,-26.8 5867.77,-12.36 6384.14,-11.09"/>
<polygon fill="midnightblue" stroke="midnightblue" points="3027.77,-141.1 3037.76,-137.59 3027.76,-134.1 3027.77,-141.1"/>
</g>
<!-- Node6 -->
<g id="node6" class="node">
<title>Node6</title>
<g id="a_node6"><a xlink:href="sitkCastImageFilter_8h.html" target="_top" xlink:title=" ">
<polygon fill="white" stroke="black" points="222,-62 222,-81 342,-81 342,-62 222,-62"/>
<text text-anchor="middle" x="282" y="-69" font-family="Helvetica,sans-Serif" font-size="10.00">sitkCastImageFilter.h</text>
</a>
</g>
</g>
<!-- Node3&#45;&gt;Node6 -->
<g id="edge5" class="edge">
<title>Node3&#45;&gt;Node6</title>
<path fill="none" stroke="midnightblue" d="M3027.86,-137.08C2653.97,-134.33 625.11,-118.05 351,-87 339.57,-85.7 327.23,-83.41 316.19,-81.01"/>
<polygon fill="midnightblue" stroke="midnightblue" points="3027.9,-140.58 3037.93,-137.15 3027.95,-133.58 3027.9,-140.58"/>
</g>
<!-- Node7 -->
<g id="node7" class="node">
<title>Node7</title>
<g id="a_node7"><a xlink:href="sitkExtractImageFilter_8h.html" target="_top" xlink:title=" ">
<polygon fill="white" stroke="black" points="360.5,-62 360.5,-81 493.5,-81 493.5,-62 360.5,-62"/>
<text text-anchor="middle" x="427" y="-69" font-family="Helvetica,sans-Serif" font-size="10.00">sitkExtractImageFilter.h</text>
</a>
</g>
</g>
<!-- Node3&#45;&gt;Node7 -->
<g id="edge7" class="edge">
<title>Node3&#45;&gt;Node7</title>
<path fill="none" stroke="midnightblue" d="M3027.76,-137.7C2691.11,-138.65 1015.92,-140.55 503,-87 490.58,-85.7 477.15,-83.43 465.09,-81.07"/>
<polygon fill="midnightblue" stroke="midnightblue" points="3027.8,-141.2 3037.79,-137.67 3027.78,-134.2 3027.8,-141.2"/>
</g>
<!-- Node3&#45;&gt;Node8 -->
<g id="edge9" class="edge">
<title>Node3&#45;&gt;Node8</title>
<path fill="none" stroke="midnightblue" d="M3146.28,-137.22C3554.34,-135.2 5940.52,-121.97 6261,-87 6272.76,-85.72 6285.45,-83.42 6296.81,-81.03"/>
<polygon fill="midnightblue" stroke="midnightblue" points="3146.15,-133.72 3136.17,-137.27 3146.19,-140.72 3146.15,-133.72"/>
</g>
<!-- Node9 -->
<g id="node9" class="node">
<title>Node9</title>
<g id="a_node9"><a xlink:href="sitkLandmarkBasedTransformInitializerFilter_8h.html" target="_top" xlink:title=" ">
<polygon fill="white" stroke="black" points="512,-56.5 512,-86.5 674,-86.5 674,-56.5 512,-56.5"/>
<text text-anchor="start" x="520" y="-74.5" font-family="Helvetica,sans-Serif" font-size="10.00">sitkLandmarkBasedTransform</text>
<text text-anchor="middle" x="593" y="-63.5" font-family="Helvetica,sans-Serif" font-size="10.00">InitializerFilter.h</text>
</a>
</g>
</g>
<!-- Node3&#45;&gt;Node9 -->
<g id="edge11" class="edge">
<title>Node3&#45;&gt;Node9</title>
<path fill="none" stroke="midnightblue" d="M3027.84,-137.37C2705.57,-136.5 1158.8,-130.12 683,-87 680.16,-86.74 677.28,-86.45 674.37,-86.13"/>
<polygon fill="midnightblue" stroke="midnightblue" points="3027.89,-140.87 3037.9,-137.4 3027.91,-133.87 3027.89,-140.87"/>
</g>
<!-- Node10 -->
<g id="node10" class="node">
<title>Node10</title>
<g id="a_node10"><a xlink:href="sitkPasteImageFilter_8h.html" target="_top" xlink:title=" ">
<polygon fill="white" stroke="black" points="692.5,-62 692.5,-81 817.5,-81 817.5,-62 692.5,-62"/>
<text text-anchor="middle" x="755" y="-69" font-family="Helvetica,sans-Serif" font-size="10.00">sitkPasteImageFilter.h</text>
</a>
</g>
</g>
<!-- Node3&#45;&gt;Node10 -->
<g id="edge13" class="edge">
<title>Node3&#45;&gt;Node10</title>
<path fill="none" stroke="midnightblue" d="M3027.4,-137.59C2715.81,-137.85 1271.5,-136.33 827,-87 815.21,-85.69 802.49,-83.42 791.06,-81.06"/>
<polygon fill="midnightblue" stroke="midnightblue" points="3027.58,-141.09 3037.58,-137.58 3027.57,-134.09 3027.58,-141.09"/>
</g>
<!-- Node11 -->
<g id="node11" class="node">
<title>Node11</title>
<g id="a_node11"><a xlink:href="sitkAbsImageFilter_8h.html" target="_top" xlink:title=" ">
<polygon fill="white" stroke="red" points="836,-62 836,-81 952,-81 952,-62 836,-62"/>
<text text-anchor="middle" x="894" y="-69" font-family="Helvetica,sans-Serif" font-size="10.00">sitkAbsImageFilter.h</text>
</a>
</g>
</g>
<!-- Node3&#45;&gt;Node11 -->
<g id="edge16" class="edge">
<title>Node3&#45;&gt;Node11</title>
<path fill="none" stroke="midnightblue" d="M3027.58,-137.61C2727.57,-137.93 1377.21,-136.53 961,-87 950.01,-85.69 938.16,-83.42 927.53,-81.06"/>
<polygon fill="midnightblue" stroke="midnightblue" points="3027.81,-141.11 3037.81,-137.6 3027.8,-134.11 3027.81,-141.11"/>
</g>
<!-- Node14 -->
<g id="node12" class="node">
<title>Node14</title>
<g id="a_node12"><a xlink:href="sitkAbsoluteValueDifferenceImageFilter_8h.html" target="_top" xlink:title=" ">
<polygon fill="white" stroke="red" points="970.5,-56.5 970.5,-86.5 1125.5,-86.5 1125.5,-56.5 970.5,-56.5"/>
<text text-anchor="start" x="978.5" y="-74.5" font-family="Helvetica,sans-Serif" font-size="10.00">sitkAbsoluteValueDifference</text>
<text text-anchor="middle" x="1048" y="-63.5" font-family="Helvetica,sans-Serif" font-size="10.00">ImageFilter.h</text>
</a>
</g>
</g>
<!-- Node3&#45;&gt;Node14 -->
<g id="edge17" class="edge">
<title>Node3&#45;&gt;Node14</title>
<path fill="none" stroke="midnightblue" d="M3027.48,-137.08C2742.53,-134.89 1515.84,-123.48 1135,-87 1131.95,-86.71 1128.85,-86.37 1125.72,-86"/>
<polygon fill="midnightblue" stroke="midnightblue" points="3027.58,-140.58 3037.61,-137.16 3027.64,-133.58 3027.58,-140.58"/>
</g>
<!-- Node15 -->
<g id="node13" class="node">
<title>Node15</title>
<g id="a_node13"><a xlink:href="sitkAcosImageFilter_8h.html" target="_top" xlink:title=" ">
<polygon fill="white" stroke="red" points="1144,-62 1144,-81 1266,-81 1266,-62 1144,-62"/>
<text text-anchor="middle" x="1205" y="-69" font-family="Helvetica,sans-Serif" font-size="10.00">sitkAcosImageFilter.h</text>
</a>
</g>
</g>
<!-- Node3&#45;&gt;Node15 -->
<g id="edge18" class="edge">
<title>Node3&#45;&gt;Node15</title>
<path fill="none" stroke="midnightblue" d="M3027.79,-137.25C2755.99,-135.91 1626.06,-127.93 1275,-87 1263.54,-85.66 1251.16,-83.38 1240.05,-81.02"/>
<polygon fill="midnightblue" stroke="midnightblue" points="3027.83,-140.75 3037.85,-137.3 3027.86,-133.75 3027.83,-140.75"/>
</g>
<!-- Node16 -->
<g id="node14" class="node">
<title>Node16</title>
<g id="a_node14"><a xlink:href="sitkAdaptiveHistogramEqualizationImageFilter_8h.html" target="_top" xlink:title=" ">
<polygon fill="white" stroke="red" points="1284.5,-56.5 1284.5,-86.5 1473.5,-86.5 1473.5,-56.5 1284.5,-56.5"/>
<text text-anchor="start" x="1292.5" y="-74.5" font-family="Helvetica,sans-Serif" font-size="10.00">sitkAdaptiveHistogramEqualization</text>
<text text-anchor="middle" x="1379" y="-63.5" font-family="Helvetica,sans-Serif" font-size="10.00">ImageFilter.h</text>
</a>
</g>
</g>
<!-- Node3&#45;&gt;Node16 -->
<g id="edge19" class="edge">
<title>Node3&#45;&gt;Node16</title>
<path fill="none" stroke="midnightblue" d="M3027.74,-137.95C2816.96,-139.05 2083.96,-138.69 1482,-87 1479.21,-86.76 1476.38,-86.5 1473.53,-86.21"/>
<polygon fill="midnightblue" stroke="midnightblue" points="3027.99,-141.45 3037.97,-137.89 3027.95,-134.45 3027.99,-141.45"/>
</g>
<!-- Node17 -->
<g id="node15" class="node">
<title>Node17</title>
<g id="a_node15"><a xlink:href="sitkAddImageFilter_8h.html" target="_top" xlink:title=" ">
<polygon fill="white" stroke="red" points="1491.5,-62 1491.5,-81 1608.5,-81 1608.5,-62 1491.5,-62"/>
<text text-anchor="middle" x="1550" y="-69" font-family="Helvetica,sans-Serif" font-size="10.00">sitkAddImageFilter.h</text>
</a>
</g>
</g>
<!-- Node3&#45;&gt;Node17 -->
<g id="edge20" class="edge">
<title>Node3&#45;&gt;Node17</title>
<path fill="none" stroke="midnightblue" d="M3027.71,-136.85C2789.03,-134.03 1897.83,-121.37 1618,-87 1606.98,-85.65 1595.1,-83.39 1584.39,-81.06"/>
<polygon fill="midnightblue" stroke="midnightblue" points="3027.88,-140.35 3037.92,-136.97 3027.96,-133.36 3027.88,-140.35"/>
</g>
<!-- Node19 -->
<g id="node16" class="node">
<title>Node19</title>
<g id="a_node16"><a xlink:href="sitkAdditiveGaussianNoiseImageFilter_8h.html" target="_top" xlink:title=" ">
<polygon fill="white" stroke="red" points="1627,-56.5 1627,-86.5 1775,-86.5 1775,-56.5 1627,-56.5"/>
<text text-anchor="start" x="1635" y="-74.5" font-family="Helvetica,sans-Serif" font-size="10.00">sitkAdditiveGaussianNoise</text>
<text text-anchor="middle" x="1701" y="-63.5" font-family="Helvetica,sans-Serif" font-size="10.00">ImageFilter.h</text>
</a>
</g>
</g>
<!-- Node3&#45;&gt;Node19 -->
<g id="edge21" class="edge">
<title>Node3&#45;&gt;Node19</title>
<path fill="none" stroke="midnightblue" d="M3027.67,-138.03C2842.94,-139.07 2261.79,-137.76 1784,-87 1781.09,-86.69 1778.13,-86.34 1775.14,-85.96"/>
<polygon fill="midnightblue" stroke="midnightblue" points="3027.74,-141.53 3037.72,-137.97 3027.7,-134.53 3027.74,-141.53"/>
</g>
<!-- Node20 -->
<g id="node17" class="node">
<title>Node20</title>
<g id="a_node17"><a xlink:href="sitkAggregateLabelMapFilter_8h.html" target="_top" xlink:title=" ">
<polygon fill="white" stroke="red" points="1793.5,-62 1793.5,-81 1958.5,-81 1958.5,-62 1793.5,-62"/>
<text text-anchor="middle" x="1876" y="-69" font-family="Helvetica,sans-Serif" font-size="10.00">sitkAggregateLabelMapFilter.h</text>
</a>
</g>
</g>
<!-- Node3&#45;&gt;Node20 -->
<g id="edge22" class="edge">
<title>Node3&#45;&gt;Node20</title>
<path fill="none" stroke="midnightblue" d="M3027.65,-137.18C2860.38,-135.77 2370.99,-128.16 1967,-87 1952.68,-85.54 1937.18,-83.32 1923.1,-81.04"/>
<polygon fill="midnightblue" stroke="midnightblue" points="3027.7,-140.68 3037.73,-137.26 3027.76,-133.68 3027.7,-140.68"/>
</g>
<!-- Node21 -->
<g id="node18" class="node">
<title>Node21</title>
<g id="a_node18"><a xlink:href="sitkAndImageFilter_8h.html" target="_top" xlink:title=" ">
<polygon fill="white" stroke="red" points="1976.5,-62 1976.5,-81 2093.5,-81 2093.5,-62 1976.5,-62"/>
<text text-anchor="middle" x="2035" y="-69" font-family="Helvetica,sans-Serif" font-size="10.00">sitkAndImageFilter.h</text>
</a>
</g>
</g>
<!-- Node3&#45;&gt;Node21 -->
<g id="edge23" class="edge">
<title>Node3&#45;&gt;Node21</title>
<path fill="none" stroke="midnightblue" d="M3027.71,-137.73C2874.19,-137.61 2451.37,-132.79 2103,-87 2092.11,-85.57 2080.37,-83.32 2069.76,-81.02"/>
<polygon fill="midnightblue" stroke="midnightblue" points="3027.86,-141.23 3037.86,-137.73 3027.86,-134.23 3027.86,-141.23"/>
</g>
<!-- Node22 -->
<g id="node19" class="node">
<title>Node22</title>
<g id="a_node19"><a xlink:href="sitkAntiAliasBinaryImageFilter_8h.html" target="_top" xlink:title=" ">
<polygon fill="white" stroke="red" points="2112,-56.5 2112,-86.5 2252,-86.5 2252,-56.5 2112,-56.5"/>
<text text-anchor="start" x="2120" y="-74.5" font-family="Helvetica,sans-Serif" font-size="10.00">sitkAntiAliasBinaryImage</text>
<text text-anchor="middle" x="2182" y="-63.5" font-family="Helvetica,sans-Serif" font-size="10.00">Filter.h</text>
</a>
</g>
</g>
<!-- Node3&#45;&gt;Node22 -->
<g id="edge24" class="edge">
<title>Node3&#45;&gt;Node22</title>
<path fill="none" stroke="midnightblue" d="M3027.74,-136.32C2891.75,-133.09 2546.98,-121.86 2261,-87 2258.09,-86.65 2255.13,-86.25 2252.14,-85.83"/>
<polygon fill="midnightblue" stroke="midnightblue" points="3027.86,-139.83 3037.94,-136.56 3028.02,-132.83 3027.86,-139.83"/>
</g>
<!-- Node23 -->
<g id="node20" class="node">
<title>Node23</title>
<g id="a_node20"><a xlink:href="sitkApproximateSignedDistanceMapImageFilter_8h.html" target="_top" xlink:title=" ">
<polygon fill="white" stroke="red" points="2270.5,-56.5 2270.5,-86.5 2443.5,-86.5 2443.5,-56.5 2270.5,-56.5"/>
<text text-anchor="start" x="2278.5" y="-74.5" font-family="Helvetica,sans-Serif" font-size="10.00">sitkApproximateSignedDistance</text>
<text text-anchor="middle" x="2357" y="-63.5" font-family="Helvetica,sans-Serif" font-size="10.00">MapImageFilter.h</text>
</a>
</g>
</g>
<!-- Node3&#45;&gt;Node23 -->
<g id="edge25" class="edge">
<title>Node3&#45;&gt;Node23</title>
<path fill="none" stroke="midnightblue" d="M3027.77,-134.22C2915.3,-127.67 2663.2,-111.48 2452,-87 2449.27,-86.68 2446.49,-86.35 2443.69,-85.99"/>
<polygon fill="midnightblue" stroke="midnightblue" points="3027.7,-137.72 3037.88,-134.8 3028.1,-130.73 3027.7,-137.72"/>
</g>
<!-- Node24 -->
<g id="node21" class="node">
<title>Node24</title>
<g id="a_node21"><a xlink:href="sitkAreaClosingImageFilter_8h.html" target="_top" xlink:title=" ">
<polygon fill="white" stroke="red" points="2461.5,-62 2461.5,-81 2618.5,-81 2618.5,-62 2461.5,-62"/>
<text text-anchor="middle" x="2540" y="-69" font-family="Helvetica,sans-Serif" font-size="10.00">sitkAreaClosingImageFilter.h</text>
</a>
</g>
</g>
<!-- Node3&#45;&gt;Node24 -->
<g id="edge26" class="edge">
<title>Node3&#45;&gt;Node24</title>
<path fill="none" stroke="midnightblue" d="M3027.85,-132.07C2940.15,-123.78 2770.54,-106.82 2627,-87 2614.41,-85.26 2600.84,-83.13 2588.25,-81.03"/>
<polygon fill="midnightblue" stroke="midnightblue" points="3027.59,-135.56 3037.87,-133.01 3028.24,-128.59 3027.59,-135.56"/>
</g>
<!-- Node25 -->
<g id="node22" class="node">
<title>Node25</title>
<g id="a_node22"><a xlink:href="sitkAreaOpeningImageFilter_8h.html" target="_top" xlink:title=" ">
<polygon fill="white" stroke="red" points="2636.5,-62 2636.5,-81 2797.5,-81 2797.5,-62 2636.5,-62"/>
<text text-anchor="middle" x="2717" y="-69" font-family="Helvetica,sans-Serif" font-size="10.00">sitkAreaOpeningImageFilter.h</text>
</a>
</g>
</g>
<!-- Node3&#45;&gt;Node25 -->
<g id="edge27" class="edge">
<title>Node3&#45;&gt;Node25</title>
<path fill="none" stroke="midnightblue" d="M3028.34,-127.19C2955.67,-114.43 2833.22,-92.92 2765.57,-81.03"/>
<polygon fill="midnightblue" stroke="midnightblue" points="3027.79,-130.65 3038.25,-128.94 3029,-123.76 3027.79,-130.65"/>
</g>
<!-- Node26 -->
<g id="node23" class="node">
<title>Node26</title>
<g id="a_node23"><a xlink:href="sitkAsinImageFilter_8h.html" target="_top" xlink:title=" ">
<polygon fill="white" stroke="red" points="2815.5,-62 2815.5,-81 2934.5,-81 2934.5,-62 2815.5,-62"/>
<text text-anchor="middle" x="2875" y="-69" font-family="Helvetica,sans-Serif" font-size="10.00">sitkAsinImageFilter.h</text>
</a>
</g>
</g>
<!-- Node3&#45;&gt;Node26 -->
<g id="edge28" class="edge">
<title>Node3&#45;&gt;Node26</title>
<path fill="none" stroke="midnightblue" d="M3049.26,-125.93C3007.28,-113.06 2940.46,-92.57 2902.93,-81.06"/>
<polygon fill="midnightblue" stroke="midnightblue" points="3048.26,-129.28 3058.85,-128.87 3050.31,-122.59 3048.26,-129.28"/>
</g>
<!-- Node27 -->
<g id="node24" class="node">
<title>Node27</title>
<g id="a_node24"><a xlink:href="sitkAtan2ImageFilter_8h.html" target="_top" xlink:title=" ">
<polygon fill="white" stroke="red" points="2952.5,-62 2952.5,-81 3079.5,-81 3079.5,-62 2952.5,-62"/>
<text text-anchor="middle" x="3016" y="-69" font-family="Helvetica,sans-Serif" font-size="10.00">sitkAtan2ImageFilter.h</text>
</a>
</g>
</g>
<!-- Node3&#45;&gt;Node27 -->
<g id="edge29" class="edge">
<title>Node3&#45;&gt;Node27</title>
<path fill="none" stroke="midnightblue" d="M3069.91,-121.86C3055.95,-109.08 3036.74,-91.49 3025.42,-81.13"/>
<polygon fill="midnightblue" stroke="midnightblue" points="3067.69,-124.56 3077.42,-128.73 3072.41,-119.4 3067.69,-124.56"/>
</g>
<!-- Node28 -->
<g id="node25" class="node">
<title>Node28</title>
<g id="a_node25"><a xlink:href="sitkAtanImageFilter_8h.html" target="_top" xlink:title=" ">
<polygon fill="white" stroke="red" points="3097.5,-62 3097.5,-81 3218.5,-81 3218.5,-62 3097.5,-62"/>
<text text-anchor="middle" x="3158" y="-69" font-family="Helvetica,sans-Serif" font-size="10.00">sitkAtanImageFilter.h</text>
</a>
</g>
</g>
<!-- Node3&#45;&gt;Node28 -->
<g id="edge30" class="edge">
<title>Node3&#45;&gt;Node28</title>
<path fill="none" stroke="midnightblue" d="M3104.09,-121.86C3118.05,-109.08 3137.26,-91.49 3148.58,-81.13"/>
<polygon fill="midnightblue" stroke="midnightblue" points="3101.59,-119.4 3096.58,-128.73 3106.31,-124.56 3101.59,-119.4"/>
</g>
<!-- Node29 -->
<g id="node26" class="node">
<title>Node29</title>
<g id="a_node26"><a xlink:href="sitkBSplineDecompositionImageFilter_8h.html" target="_top" xlink:title=" ">
<polygon fill="white" stroke="red" points="3236.5,-56.5 3236.5,-86.5 3381.5,-86.5 3381.5,-56.5 3236.5,-56.5"/>
<text text-anchor="start" x="3244.5" y="-74.5" font-family="Helvetica,sans-Serif" font-size="10.00">sitkBSplineDecomposition</text>
<text text-anchor="middle" x="3309" y="-63.5" font-family="Helvetica,sans-Serif" font-size="10.00">ImageFilter.h</text>
</a>
</g>
</g>
<!-- Node3&#45;&gt;Node29 -->
<g id="edge31" class="edge">
<title>Node3&#45;&gt;Node29</title>
<path fill="none" stroke="midnightblue" d="M3126.08,-126.06C3163.72,-115.04 3220.73,-98.34 3261.09,-86.53"/>
<polygon fill="midnightblue" stroke="midnightblue" points="3125.09,-122.7 3116.48,-128.87 3127.06,-129.42 3125.09,-122.7"/>
</g>
<!-- Node30 -->
<g id="node27" class="node">
<title>Node30</title>
<g id="a_node27"><a xlink:href="sitkBilateralImageFilter_8h.html" target="_top" xlink:title=" ">
<polygon fill="white" stroke="red" points="3400,-62 3400,-81 3540,-81 3540,-62 3400,-62"/>
<text text-anchor="middle" x="3470" y="-69" font-family="Helvetica,sans-Serif" font-size="10.00">sitkBilateralImageFilter.h</text>
</a>
</g>
</g>
<!-- Node3&#45;&gt;Node30 -->
<g id="edge32" class="edge">
<title>Node3&#45;&gt;Node30</title>
<path fill="none" stroke="midnightblue" d="M3146.33,-127.87C3207.45,-117.88 3305.44,-101.71 3390,-87 3400.85,-85.11 3412.51,-83.03 3423.49,-81.05"/>
<polygon fill="midnightblue" stroke="midnightblue" points="3145.41,-124.47 3136.11,-129.54 3146.54,-131.38 3145.41,-124.47"/>
</g>
<!-- Node31 -->
<g id="node28" class="node">
<title>Node31</title>
<g id="a_node28"><a xlink:href="sitkBinShrinkImageFilter_8h.html" target="_top" xlink:title=" ">
<polygon fill="white" stroke="red" points="3558.5,-62 3558.5,-81 3703.5,-81 3703.5,-62 3558.5,-62"/>
<text text-anchor="middle" x="3631" y="-69" font-family="Helvetica,sans-Serif" font-size="10.00">sitkBinShrinkImageFilter.h</text>
</a>
</g>
</g>
<!-- Node3&#45;&gt;Node31 -->
<g id="edge33" class="edge">
<title>Node3&#45;&gt;Node31</title>
<path fill="none" stroke="midnightblue" d="M3146.08,-132.3C3234.1,-124.28 3404.75,-107.62 3549,-87 3561.02,-85.28 3573.98,-83.13 3585.97,-81.01"/>
<polygon fill="midnightblue" stroke="midnightblue" points="3145.67,-128.83 3136.03,-133.22 3146.3,-135.8 3145.67,-128.83"/>
</g>
<!-- Node32 -->
<g id="node29" class="node">
<title>Node32</title>
<g id="a_node29"><a xlink:href="sitkBinaryClosingByReconstructionImageFilter_8h.html" target="_top" xlink:title=" ">
<polygon fill="white" stroke="red" points="3722,-56.5 3722,-86.5 3910,-86.5 3910,-56.5 3722,-56.5"/>
<text text-anchor="start" x="3730" y="-74.5" font-family="Helvetica,sans-Serif" font-size="10.00">sitkBinaryClosingByReconstruction</text>
<text text-anchor="middle" x="3816" y="-63.5" font-family="Helvetica,sans-Serif" font-size="10.00">ImageFilter.h</text>
</a>
</g>
</g>
<!-- Node3&#45;&gt;Node32 -->
<g id="edge34" class="edge">
<title>Node3&#45;&gt;Node32</title>
<path fill="none" stroke="midnightblue" d="M3146.11,-133.87C3257.17,-126.79 3504.5,-109.83 3712,-87 3715.26,-86.64 3718.58,-86.26 3721.93,-85.86"/>
<polygon fill="midnightblue" stroke="midnightblue" points="3145.87,-130.38 3136.11,-134.5 3146.32,-137.36 3145.87,-130.38"/>
</g>
<!-- Node33 -->
<g id="node30" class="node">
<title>Node33</title>
<g id="a_node30"><a xlink:href="sitkBinaryContourImageFilter_8h.html" target="_top" xlink:title=" ">
<polygon fill="white" stroke="red" points="3928,-62 3928,-81 4096,-81 4096,-62 3928,-62"/>
<text text-anchor="middle" x="4012" y="-69" font-family="Helvetica,sans-Serif" font-size="10.00">sitkBinaryContourImageFilter.h</text>
</a>
</g>
</g>
<!-- Node3&#45;&gt;Node33 -->
<g id="edge35" class="edge">
<title>Node3&#45;&gt;Node33</title>
<path fill="none" stroke="midnightblue" d="M3146.63,-135.81C3283.48,-131.5 3630.5,-118.18 3919,-87 3933.3,-85.46 3948.75,-83.26 3962.88,-81.04"/>
<polygon fill="midnightblue" stroke="midnightblue" points="3146.26,-132.32 3136.37,-136.12 3146.47,-139.31 3146.26,-132.32"/>
</g>
<!-- Node34 -->
<g id="node31" class="node">
<title>Node34</title>
<g id="a_node31"><a xlink:href="sitkBinaryDilateImageFilter_8h.html" target="_top" xlink:title=" ">
<polygon fill="white" stroke="red" points="4113.5,-62 4113.5,-81 4272.5,-81 4272.5,-62 4113.5,-62"/>
<text text-anchor="middle" x="4193" y="-69" font-family="Helvetica,sans-Serif" font-size="10.00">sitkBinaryDilateImageFilter.h</text>
</a>
</g>
</g>
<!-- Node3&#45;&gt;Node34 -->
<g id="edge36" class="edge">
<title>Node3&#45;&gt;Node34</title>
<path fill="none" stroke="midnightblue" d="M3146.53,-136.91C3303.65,-134.84 3742.29,-125.75 4105,-87 4118.86,-85.52 4133.85,-83.29 4147.46,-81.02"/>
<polygon fill="midnightblue" stroke="midnightblue" points="3146.11,-133.41 3136.15,-137.04 3146.2,-140.41 3146.11,-133.41"/>
</g>
<!-- Node35 -->
<g id="node32" class="node">
<title>Node35</title>
<g id="a_node32"><a xlink:href="sitkBinaryErodeImageFilter_8h.html" target="_top" xlink:title=" ">
<polygon fill="white" stroke="red" points="4290,-62 4290,-81 4448,-81 4448,-62 4290,-62"/>
<text text-anchor="middle" x="4369" y="-69" font-family="Helvetica,sans-Serif" font-size="10.00">sitkBinaryErodeImageFilter.h</text>
</a>
</g>
</g>
<!-- Node3&#45;&gt;Node35 -->
<g id="edge37" class="edge">
<title>Node3&#45;&gt;Node35</title>
<path fill="none" stroke="midnightblue" d="M3146.31,-137.53C3320.76,-137.06 3847.17,-131.75 4281,-87 4295.02,-85.55 4310.19,-83.3 4323.92,-81"/>
<polygon fill="midnightblue" stroke="midnightblue" points="3146.05,-134.03 3136.06,-137.55 3146.07,-141.03 3146.05,-134.03"/>
</g>
<!-- Node36 -->
<g id="node33" class="node">
<title>Node36</title>
<g id="a_node33"><a xlink:href="sitkBinaryFillholeImageFilter_8h.html" target="_top" xlink:title=" ">
<polygon fill="white" stroke="red" points="4466.5,-62 4466.5,-81 4631.5,-81 4631.5,-62 4466.5,-62"/>
<text text-anchor="middle" x="4549" y="-69" font-family="Helvetica,sans-Serif" font-size="10.00">sitkBinaryFillholeImageFilter.h</text>
</a>
</g>
</g>
<!-- Node3&#45;&gt;Node36 -->
<g id="edge38" class="edge">
<title>Node3&#45;&gt;Node36</title>
<path fill="none" stroke="midnightblue" d="M3146.39,-137.84C3337.2,-138.39 3951.63,-135.96 4457,-87 4471.65,-85.58 4487.5,-83.34 4501.86,-81.04"/>
<polygon fill="midnightblue" stroke="midnightblue" points="3146.3,-134.34 3136.29,-137.81 3146.28,-141.34 3146.3,-134.34"/>
</g>
<!-- Node37 -->
<g id="node34" class="node">
<title>Node37</title>
<g id="a_node34"><a xlink:href="sitkBinaryGrindPeakImageFilter_8h.html" target="_top" xlink:title=" ">
<polygon fill="white" stroke="red" points="4649.5,-56.5 4649.5,-86.5 4796.5,-86.5 4796.5,-56.5 4649.5,-56.5"/>
<text text-anchor="start" x="4657.5" y="-74.5" font-family="Helvetica,sans-Serif" font-size="10.00">sitkBinaryGrindPeakImage</text>
<text text-anchor="middle" x="4723" y="-63.5" font-family="Helvetica,sans-Serif" font-size="10.00">Filter.h</text>
</a>
</g>
</g>
<!-- Node3&#45;&gt;Node37 -->
<g id="edge39" class="edge">
<title>Node3&#45;&gt;Node37</title>
<path fill="none" stroke="midnightblue" d="M3146.35,-136.69C3393.54,-133.12 4342.23,-117.7 4640,-87 4643.06,-86.68 4646.17,-86.32 4649.31,-85.93"/>
<polygon fill="midnightblue" stroke="midnightblue" points="3146.09,-133.19 3136.14,-136.83 3146.19,-140.19 3146.09,-133.19"/>
</g>
<!-- Node38 -->
<g id="node35" class="node">
<title>Node38</title>
<g id="a_node35"><a xlink:href="sitkBinaryImageToLabelMapFilter_8h.html" target="_top" xlink:title=" ">
<polygon fill="white" stroke="red" points="4814.5,-56.5 4814.5,-86.5 4969.5,-86.5 4969.5,-56.5 4814.5,-56.5"/>
<text text-anchor="start" x="4822.5" y="-74.5" font-family="Helvetica,sans-Serif" font-size="10.00">sitkBinaryImageToLabelMap</text>
<text text-anchor="middle" x="4892" y="-63.5" font-family="Helvetica,sans-Serif" font-size="10.00">Filter.h</text>
</a>
</g>
</g>
<!-- Node3&#45;&gt;Node38 -->
<g id="edge40" class="edge">
<title>Node3&#45;&gt;Node38</title>
<path fill="none" stroke="midnightblue" d="M3146.5,-136.84C3409.95,-133.73 4472.92,-119.4 4805,-87 4808.05,-86.7 4811.15,-86.36 4814.28,-85.99"/>
<polygon fill="midnightblue" stroke="midnightblue" points="3146.34,-133.34 3136.38,-136.95 3146.42,-140.34 3146.34,-133.34"/>
</g>
<!-- Node39 -->
<g id="node36" class="node">
<title>Node39</title>
<g id="a_node36"><a xlink:href="sitkBinaryMagnitudeImageFilter_8h.html" target="_top" xlink:title=" ">
<polygon fill="white" stroke="red" points="4987.5,-56.5 4987.5,-86.5 5136.5,-86.5 5136.5,-56.5 4987.5,-56.5"/>
<text text-anchor="start" x="4995.5" y="-74.5" font-family="Helvetica,sans-Serif" font-size="10.00">sitkBinaryMagnitudeImage</text>
<text text-anchor="middle" x="5062" y="-63.5" font-family="Helvetica,sans-Serif" font-size="10.00">Filter.h</text>
</a>
</g>
</g>
<!-- Node3&#45;&gt;Node39 -->
<g id="edge41" class="edge">
<title>Node3&#45;&gt;Node39</title>
<path fill="none" stroke="midnightblue" d="M3146.44,-137.07C3425.8,-134.86 4609.96,-123.49 4978,-87 4981.09,-86.69 4984.24,-86.34 4987.42,-85.95"/>
<polygon fill="midnightblue" stroke="midnightblue" points="3146.09,-133.57 3136.12,-137.15 3146.15,-140.57 3146.09,-133.57"/>
</g>
<!-- Node40 -->
<g id="node37" class="node">
<title>Node40</title>
<g id="a_node37"><a xlink:href="sitkBinaryMedianImageFilter_8h.html" target="_top" xlink:title=" ">
<polygon fill="white" stroke="red" points="5155,-62 5155,-81 5321,-81 5321,-62 5155,-62"/>
<text text-anchor="middle" x="5238" y="-69" font-family="Helvetica,sans-Serif" font-size="10.00">sitkBinaryMedianImageFilter.h</text>
</a>
</g>
</g>
<!-- Node3&#45;&gt;Node40 -->
<g id="edge42" class="edge">
<title>Node3&#45;&gt;Node40</title>
<path fill="none" stroke="midnightblue" d="M3146.38,-137.09C3440.34,-134.89 4741.76,-123.23 5145,-87 5159.97,-85.65 5176.2,-83.4 5190.84,-81.07"/>
<polygon fill="midnightblue" stroke="midnightblue" points="3146.32,-133.59 3136.35,-137.16 3146.38,-140.59 3146.32,-133.59"/>
</g>
<!-- Node41 -->
<g id="node38" class="node">
<title>Node41</title>
<g id="a_node38"><a xlink:href="sitkBinaryMinMaxCurvatureFlowImageFilter_8h.html" target="_top" xlink:title=" ">
<polygon fill="white" stroke="red" points="5339.5,-56.5 5339.5,-86.5 5492.5,-86.5 5492.5,-56.5 5339.5,-56.5"/>
<text text-anchor="start" x="5347.5" y="-74.5" font-family="Helvetica,sans-Serif" font-size="10.00">sitkBinaryMinMaxCurvature</text>
<text text-anchor="middle" x="5416" y="-63.5" font-family="Helvetica,sans-Serif" font-size="10.00">FlowImageFilter.h</text>
</a>
</g>
</g>
<!-- Node3&#45;&gt;Node41 -->
<g id="edge43" class="edge">
<title>Node3&#45;&gt;Node41</title>
<path fill="none" stroke="midnightblue" d="M3146.12,-137.33C3455.24,-136.24 4888.12,-129 5330,-87 5333.01,-86.71 5336.08,-86.38 5339.18,-86.02"/>
<polygon fill="midnightblue" stroke="midnightblue" points="3146.02,-133.83 3136.03,-137.36 3146.04,-140.83 3146.02,-133.83"/>
</g>
<!-- Node42 -->
<g id="node39" class="node">
<title>Node42</title>
<g id="a_node39"><a xlink:href="sitkBinaryMorphologicalClosingImageFilter_8h.html" target="_top" xlink:title=" ">
<polygon fill="white" stroke="red" points="5510.5,-56.5 5510.5,-86.5 5681.5,-86.5 5681.5,-56.5 5510.5,-56.5"/>
<text text-anchor="start" x="5518.5" y="-74.5" font-family="Helvetica,sans-Serif" font-size="10.00">sitkBinaryMorphologicalClosing</text>
<text text-anchor="middle" x="5596" y="-63.5" font-family="Helvetica,sans-Serif" font-size="10.00">ImageFilter.h</text>
</a>
</g>
</g>
<!-- Node3&#45;&gt;Node42 -->
<g id="edge44" class="edge">
<title>Node3&#45;&gt;Node42</title>
<path fill="none" stroke="midnightblue" d="M3146.4,-137.31C3469.98,-136.12 5023.04,-128.3 5501,-87 5504.08,-86.73 5507.2,-86.43 5510.36,-86.1"/>
<polygon fill="midnightblue" stroke="midnightblue" points="3146.29,-133.81 3136.3,-137.35 3146.31,-140.81 3146.29,-133.81"/>
</g>
<!-- Node43 -->
<g id="node40" class="node">
<title>Node43</title>
<g id="a_node40"><a xlink:href="sitkBinaryMorphologicalOpeningImageFilter_8h.html" target="_top" xlink:title=" ">
<polygon fill="white" stroke="red" points="5700,-56.5 5700,-86.5 5876,-86.5 5876,-56.5 5700,-56.5"/>
<text text-anchor="start" x="5708" y="-74.5" font-family="Helvetica,sans-Serif" font-size="10.00">sitkBinaryMorphologicalOpening</text>
<text text-anchor="middle" x="5788" y="-63.5" font-family="Helvetica,sans-Serif" font-size="10.00">ImageFilter.h</text>
</a>
</g>
</g>
<!-- Node3&#45;&gt;Node43 -->
<g id="edge45" class="edge">
<title>Node3&#45;&gt;Node43</title>
<path fill="none" stroke="midnightblue" d="M3146.1,-137.38C3483.78,-136.53 5172.02,-130.17 5690,-87 5693.26,-86.73 5696.57,-86.42 5699.91,-86.07"/>
<polygon fill="midnightblue" stroke="midnightblue" points="3146.03,-133.88 3136.04,-137.4 3146.05,-140.88 3146.03,-133.88"/>
</g>
<!-- Node44 -->
<g id="node41" class="node">
<title>Node44</title>
<g id="a_node41"><a xlink:href="sitkBinaryNotImageFilter_8h.html" target="_top" xlink:title=" ">
<polygon fill="white" stroke="red" points="5894.5,-62 5894.5,-81 6041.5,-81 6041.5,-62 5894.5,-62"/>
<text text-anchor="middle" x="5968" y="-69" font-family="Helvetica,sans-Serif" font-size="10.00">sitkBinaryNotImageFilter.h</text>
</a>
</g>
</g>
<!-- Node3&#45;&gt;Node44 -->
<g id="edge46" class="edge">
<title>Node3&#45;&gt;Node44</title>
<path fill="none" stroke="midnightblue" d="M3146.25,-137.68C3499.04,-138.57 5326.61,-140.49 5885,-87 5898.54,-85.7 5913.2,-83.43 5926.37,-81.07"/>
<polygon fill="midnightblue" stroke="midnightblue" points="3146.01,-134.18 3136,-137.65 3145.99,-141.18 3146.01,-134.18"/>
</g>
<!-- Node45 -->
<g id="node42" class="node">
<title>Node45</title>
<g id="a_node42"><a xlink:href="sitkBinaryOpeningByReconstructionImageFilter_8h.html" target="_top" xlink:title=" ">
<polygon fill="white" stroke="red" points="6060,-56.5 6060,-86.5 6252,-86.5 6252,-56.5 6060,-56.5"/>
<text text-anchor="start" x="6068" y="-74.5" font-family="Helvetica,sans-Serif" font-size="10.00">sitkBinaryOpeningByReconstruction</text>
<text text-anchor="middle" x="6156" y="-63.5" font-family="Helvetica,sans-Serif" font-size="10.00">ImageFilter.h</text>
</a>
</g>
</g>
<!-- Node3&#45;&gt;Node45 -->
<g id="edge47" class="edge">
<title>Node3&#45;&gt;Node45</title>
<path fill="none" stroke="midnightblue" d="M3146.22,-137.46C3511.01,-137.09 5456.67,-132.93 6051,-87 6053.94,-86.77 6056.91,-86.52 6059.92,-86.24"/>
<polygon fill="midnightblue" stroke="midnightblue" points="3146.14,-133.96 3136.15,-137.47 3146.15,-140.96 3146.14,-133.96"/>
</g>
<!-- Node4&#45;&gt;Node5 -->
<g id="edge4" class="edge">
<title>Node4&#45;&gt;Node5</title>
<path fill="none" stroke="midnightblue" d="M176.61,-56.28C177.74,-56.18 178.88,-56.09 180,-56 838.05,-4.7 5896.73,-10.29 6384.27,-10.95"/>
<polygon fill="midnightblue" stroke="midnightblue" points="175.87,-52.83 166.25,-57.28 176.54,-59.8 175.87,-52.83"/>
</g>
<!-- Node6&#45;&gt;Node5 -->
<g id="edge6" class="edge">
<title>Node6&#45;&gt;Node5</title>
<path fill="none" stroke="midnightblue" d="M325.76,-59.93C334.09,-58.31 342.78,-56.89 351,-56 670.38,-21.61 5888.12,-11.91 6384.2,-11.06"/>
<polygon fill="midnightblue" stroke="midnightblue" points="324.91,-56.54 315.83,-61.99 326.33,-63.39 324.91,-56.54"/>
</g>
<!-- Node7&#45;&gt;Node5 -->
<g id="edge8" class="edge">
<title>Node7&#45;&gt;Node5</title>
<path fill="none" stroke="midnightblue" d="M474.34,-60.1C483.79,-58.41 493.67,-56.92 503,-56 814.52,-25.35 5896.3,-12.28 6384.4,-11.09"/>
<polygon fill="midnightblue" stroke="midnightblue" points="473.48,-56.7 464.3,-61.99 474.78,-63.58 473.48,-56.7"/>
</g>
<!-- Node8&#45;&gt;Node5 -->
<g id="edge10" class="edge">
<title>Node8&#45;&gt;Node5</title>
<path fill="none" stroke="midnightblue" d="M6353.28,-56.43C6370.63,-44.96 6394.57,-29.13 6409.13,-19.51"/>
<polygon fill="midnightblue" stroke="midnightblue" points="6351.31,-53.54 6344.89,-61.98 6355.17,-59.38 6351.31,-53.54"/>
</g>
<!-- Node9&#45;&gt;Node5 -->
<g id="edge12" class="edge">
<title>Node9&#45;&gt;Node5</title>
<path fill="none" stroke="midnightblue" d="M684.58,-56C1336.14,-5.37 5922.45,-10.32 6384.49,-10.95"/>
<polygon fill="midnightblue" stroke="midnightblue" points="684.05,-52.53 674.37,-56.82 684.62,-59.51 684.05,-52.53"/>
</g>
<!-- Node10&#45;&gt;Node5 -->
<g id="edge14" class="edge">
<title>Node10&#45;&gt;Node5</title>
<path fill="none" stroke="midnightblue" d="M800.4,-59.99C809.18,-58.35 818.34,-56.9 827,-56 1120.86,-25.51 5910.29,-12.33 6384.3,-11.1"/>
<polygon fill="midnightblue" stroke="midnightblue" points="799.45,-56.61 790.32,-61.99 800.81,-63.48 799.45,-56.61"/>
</g>
<!-- Node308&#45;&gt;Node5 -->
<g id="edge49" class="edge">
<title>Node308&#45;&gt;Node5</title>
<path fill="none" stroke="midnightblue" d="M6395.2,-119.46C6411.28,-112.07 6426.2,-101.66 6436,-87 6450.02,-66.03 6435.9,-34.87 6427.41,-19.8"/>
<polygon fill="midnightblue" stroke="midnightblue" points="6393.5,-116.37 6385.63,-123.47 6396.2,-122.83 6393.5,-116.37"/>
</g>
<!-- Node309&#45;&gt;Node5 -->
<g id="edge51" class="edge">
<title>Node309&#45;&gt;Node5</title>
<path fill="none" stroke="midnightblue" d="M6494.53,-112.96C6491.26,-95.93 6485.13,-73.3 6474,-56 6464.18,-40.74 6447.69,-27.74 6435.91,-19.69"/>
<polygon fill="midnightblue" stroke="midnightblue" points="6491.15,-113.96 6496.29,-123.23 6498.05,-112.78 6491.15,-113.96"/>
</g>
<!-- Node314&#45;&gt;Node5 -->
<g id="edge56" class="edge">
<title>Node314&#45;&gt;Node5</title>
<path fill="none" stroke="midnightblue" d="M6771.12,-125.71C6694.2,-100.44 6515,-41.56 6447.94,-19.52"/>
<polygon fill="midnightblue" stroke="midnightblue" points="6770.25,-129.11 6780.84,-128.9 6772.43,-122.46 6770.25,-129.11"/>
</g>
<!-- Node315&#45;&gt;Node5 -->
<g id="edge58" class="edge">
<title>Node315&#45;&gt;Node5</title>
<path fill="none" stroke="midnightblue" d="M6909.2,-126.42C6845.9,-110.47 6725.13,-80.3 6622,-56 6565.53,-42.7 6499.89,-28.09 6459.65,-19.23"/>
<polygon fill="midnightblue" stroke="midnightblue" points="6908.67,-129.89 6919.22,-128.95 6910.38,-123.11 6908.67,-129.89"/>
</g>
<!-- Node316&#45;&gt;Node5 -->
<g id="edge60" class="edge">
<title>Node316&#45;&gt;Node5</title>
<path fill="none" stroke="midnightblue" d="M7045.71,-126.7C7040.09,-125.43 7034.42,-124.17 7029,-123 6882.73,-91.32 6846.22,-82.89 6699,-56 6613.69,-40.42 6513.1,-24.75 6459.72,-16.65"/>
<polygon fill="midnightblue" stroke="midnightblue" points="7045.2,-130.17 7055.72,-128.98 7046.75,-123.35 7045.2,-130.17"/>
</g>
<!-- Node317&#45;&gt;Node5 -->
<g id="edge62" class="edge">
<title>Node317&#45;&gt;Node5</title>
<path fill="none" stroke="midnightblue" d="M7164.81,-125.79C7161.51,-124.78 7158.2,-123.83 7155,-123 6893.64,-55.18 6568.49,-23.31 6459.54,-14.01"/>
<polygon fill="midnightblue" stroke="midnightblue" points="7163.93,-129.18 7174.53,-128.91 7166.08,-122.52 7163.93,-129.18"/>
</g>
<!-- Node318&#45;&gt;Node5 -->
<g id="edge64" class="edge">
<title>Node318&#45;&gt;Node5</title>
<path fill="none" stroke="midnightblue" d="M7287.94,-126.72C7209.3,-109.45 7048.07,-75.53 6910,-56 6742.99,-32.38 6541.99,-18.36 6459.8,-13.23"/>
<polygon fill="midnightblue" stroke="midnightblue" points="7287.5,-130.21 7298.02,-128.95 7289.01,-123.38 7287.5,-130.21"/>
</g>
</g>
</svg>
