<?xml version="1.0" encoding="UTF-8" standalone="no"?>
<!DOCTYPE svg PUBLIC "-//W3C//DTD SVG 1.1//EN"
 "http://www.w3.org/Graphics/SVG/1.1/DTD/svg11.dtd">
<!-- Generated by graphviz version 2.43.0 (0)
 -->
<!-- Title: sitkMemberFunctionFactory.h Pages: 1 -->
<!--zoomable 400 -->
<svg id="main" version="1.1" xmlns="http://www.w3.org/2000/svg" xmlns:xlink="http://www.w3.org/1999/xlink" xml:space="preserve" onload="init(evt)">
<style type="text/css"><![CDATA[
.edge:hover path { stroke: red; }
.edge:hover polygon { stroke: red; fill: red; }
]]></style>
<script type="text/javascript"><![CDATA[
var edges = document.getElementsByTagName('g');
if (edges && edges.length) {
  for (var i=0;i<edges.length;i++) {
    if (edges[i].id.substr(0,4)=='edge') {
      edges[i].setAttribute('class','edge');
    }
  }
}
]]></script>
        <defs>
                <circle id="rim" cx="0" cy="0" r="7"/>
                <circle id="rim2" cx="0" cy="0" r="3.5"/>
                <g id="zoomPlus">
                        <use xlink:href="#rim" fill="#404040">
                                <set attributeName="fill" to="#808080" begin="zoomplus.mouseover" end="zoomplus.mouseout"/>
                        </use>
                        <path d="M-4,0h8M0,-4v8" fill="none" stroke="white" stroke-width="1.5" pointer-events="none"/>
                </g>
                <g id="zoomMin">
                        <use xlink:href="#rim" fill="#404040">
                                <set attributeName="fill" to="#808080" begin="zoomminus.mouseover" end="zoomminus.mouseout"/>
                        </use>
                        <path d="M-4,0h8" fill="none" stroke="white" stroke-width="1.5" pointer-events="none"/>
                </g>
                <g id="dirArrow">
                        <path fill="none" stroke="white" stroke-width="1.5" d="M0,-3.0v7 M-2.5,-0.5L0,-3.0L2.5,-0.5"/>
                </g>
               <g id="resetDef">
                       <use xlink:href="#rim2" fill="#404040">
                               <set attributeName="fill" to="#808080" begin="reset.mouseover" end="reset.mouseout"/>
                       </use>
               </g>
        </defs>

<script type="text/javascript">
var viewWidth = 1709;
var viewHeight = 400;
var sectionId = 'dynsection-0';
</script>
<script xlink:href="svgpan.js"/>
<svg id="graph" class="graph">
<g id="viewport">
<title>sitkMemberFunctionFactory.h</title>
<polygon fill="white" stroke="transparent" points="-4,4 -4,-395.56 1705,-395.56 1705,4 -4,4"/>
<!-- Node1 -->
<g id="node1" class="node">
<title>Node1</title>
<g id="a_node1"><a xlink:title=" ">
<polygon fill="#bfbfbf" stroke="black" points="1016,-369.5 1016,-388.5 1175,-388.5 1175,-369.5 1016,-369.5"/>
<text text-anchor="middle" x="1095.5" y="-376.5" font-family="Helvetica,sans-Serif" font-size="10.00">sitkMemberFunctionFactory.h</text>
</a>
</g>
</g>
<!-- Node1&#45;&gt;Node1 -->
<g id="edge35" class="edge">
<title>Node1&#45;&gt;Node1</title>
<path fill="none" stroke="midnightblue" d="M1125.7,-388.52C1157.38,-394.39 1193,-391.21 1193,-379 1193,-368.07 1164.5,-364.38 1135.81,-367.93"/>
<polygon fill="midnightblue" stroke="midnightblue" points="1135.05,-364.5 1125.7,-369.48 1136.11,-371.42 1135.05,-364.5"/>
</g>
<!-- Node2 -->
<g id="node2" class="node">
<title>Node2</title>
<g id="a_node2"><a xlink:href="sitkDetail_8h.html" target="_top" xlink:title=" ">
<polygon fill="white" stroke="black" points="961,-302.5 961,-321.5 1034,-321.5 1034,-302.5 961,-302.5"/>
<text text-anchor="middle" x="997.5" y="-309.5" font-family="Helvetica,sans-Serif" font-size="10.00">sitkDetail.h</text>
</a>
</g>
</g>
<!-- Node1&#45;&gt;Node2 -->
<g id="edge1" class="edge">
<title>Node1&#45;&gt;Node2</title>
<path fill="none" stroke="midnightblue" d="M1082.28,-369.23C1066.05,-358.46 1038.28,-340.05 1018.97,-327.24"/>
<polygon fill="midnightblue" stroke="midnightblue" points="1020.78,-324.24 1010.51,-321.63 1016.91,-330.07 1020.78,-324.24"/>
</g>
<!-- Node3 -->
<g id="node3" class="node">
<title>Node3</title>
<g id="a_node3"><a xlink:href="sitkMemberFunctionFactoryBase_8h.html" target="_top" xlink:title=" ">
<polygon fill="white" stroke="black" points="607.5,-224.5 607.5,-254.5 759.5,-254.5 759.5,-224.5 607.5,-224.5"/>
<text text-anchor="start" x="615.5" y="-242.5" font-family="Helvetica,sans-Serif" font-size="10.00">sitkMemberFunctionFactory</text>
<text text-anchor="middle" x="683.5" y="-231.5" font-family="Helvetica,sans-Serif" font-size="10.00">Base.h</text>
</a>
</g>
</g>
<!-- Node1&#45;&gt;Node3 -->
<g id="edge27" class="edge">
<title>Node1&#45;&gt;Node3</title>
<path fill="none" stroke="midnightblue" d="M1067.48,-369.42C1038.6,-360.52 992.3,-346.1 952.5,-333 875.66,-307.7 787.02,-276.91 733.14,-258.01"/>
<polygon fill="midnightblue" stroke="midnightblue" points="734.09,-254.63 723.49,-254.62 731.77,-261.24 734.09,-254.63"/>
</g>
<!-- Node12 -->
<g id="node12" class="node">
<title>Node12</title>
<g id="a_node12"><a xlink:title=" ">
<polygon fill="white" stroke="#bfbfbf" points="792.5,-0.5 792.5,-19.5 844.5,-19.5 844.5,-0.5 792.5,-0.5"/>
<text text-anchor="middle" x="818.5" y="-7.5" font-family="Helvetica,sans-Serif" font-size="10.00">cassert</text>
</a>
</g>
</g>
<!-- Node1&#45;&gt;Node12 -->
<g id="edge34" class="edge">
<title>Node1&#45;&gt;Node12</title>
<path fill="none" stroke="midnightblue" d="M1095.5,-369.31C1095.5,-347.6 1095.5,-289.2 1095.5,-240.5 1095.5,-240.5 1095.5,-240.5 1095.5,-121 1095.5,-69.73 929.5,-31.92 854.51,-17.45"/>
<polygon fill="midnightblue" stroke="midnightblue" points="855.04,-13.99 844.56,-15.57 853.73,-20.87 855.04,-13.99"/>
</g>
<!-- Node21 -->
<g id="node21" class="node">
<title>Node21</title>
<g id="a_node21"><a xlink:href="sitkPixelIDValues_8h.html" target="_top" xlink:title=" ">
<polygon fill="white" stroke="black" points="92.5,-230 92.5,-249 202.5,-249 202.5,-230 92.5,-230"/>
<text text-anchor="middle" x="147.5" y="-237" font-family="Helvetica,sans-Serif" font-size="10.00">sitkPixelIDValues.h</text>
</a>
</g>
</g>
<!-- Node1&#45;&gt;Node21 -->
<g id="edge28" class="edge">
<title>Node1&#45;&gt;Node21</title>
<path fill="none" stroke="midnightblue" d="M1036.56,-369.45C868.59,-345.09 388.32,-275.43 212.77,-249.97"/>
<polygon fill="midnightblue" stroke="midnightblue" points="213.05,-246.47 202.65,-248.5 212.04,-253.4 213.05,-246.47"/>
</g>
<!-- Node24 -->
<g id="node24" class="node">
<title>Node24</title>
<g id="a_node24"><a xlink:title=" ">
<polygon fill="white" stroke="#bfbfbf" points="1124,-302.5 1124,-321.5 1295,-321.5 1295,-302.5 1124,-302.5"/>
<text text-anchor="middle" x="1209.5" y="-309.5" font-family="Helvetica,sans-Serif" font-size="10.00">sitkMemberFunctionFactory.hxx</text>
</a>
</g>
</g>
<!-- Node1&#45;&gt;Node24 -->
<g id="edge33" class="edge">
<title>Node1&#45;&gt;Node24</title>
<path fill="none" stroke="midnightblue" d="M1110.87,-369.23C1130.02,-358.32 1162.94,-339.55 1185.44,-326.72"/>
<polygon fill="midnightblue" stroke="midnightblue" points="1187.42,-329.62 1194.37,-321.63 1183.95,-323.54 1187.42,-329.62"/>
</g>
<!-- Node25 -->
<g id="node25" class="node">
<title>Node25</title>
<g id="a_node25"><a xlink:title=" ">
<polygon fill="white" stroke="#bfbfbf" points="1313,-297 1313,-327 1512,-327 1512,-297 1313,-297"/>
<text text-anchor="start" x="1321" y="-315" font-family="Helvetica,sans-Serif" font-size="10.00">/work/SimpleITK/Code</text>
<text text-anchor="middle" x="1412.5" y="-304" font-family="Helvetica,sans-Serif" font-size="10.00">/Common/include/sitkPixelIDTokens.h</text>
</a>
</g>
</g>
<!-- Node1&#45;&gt;Node25 -->
<g id="edge36" class="edge">
<title>Node1&#45;&gt;Node25</title>
<path fill="none" stroke="midnightblue" d="M1137.27,-369.44C1187.12,-359.21 1271.53,-341.91 1333.76,-329.15"/>
<polygon fill="midnightblue" stroke="midnightblue" points="1334.84,-332.5 1343.93,-327.06 1333.44,-325.64 1334.84,-332.5"/>
</g>
<!-- Node26 -->
<g id="node26" class="node">
<title>Node26</title>
<g id="a_node26"><a xlink:title=" ">
<polygon fill="white" stroke="#bfbfbf" points="1530,-291.5 1530,-332.5 1701,-332.5 1701,-291.5 1530,-291.5"/>
<text text-anchor="start" x="1538" y="-320.5" font-family="Helvetica,sans-Serif" font-size="10.00">/work/SimpleITK/Code</text>
<text text-anchor="start" x="1538" y="-309.5" font-family="Helvetica,sans-Serif" font-size="10.00">/Common/include/sitkException</text>
<text text-anchor="middle" x="1615.5" y="-298.5" font-family="Helvetica,sans-Serif" font-size="10.00">Object.h</text>
</a>
</g>
</g>
<!-- Node1&#45;&gt;Node26 -->
<g id="edge37" class="edge">
<title>Node1&#45;&gt;Node26</title>
<path fill="none" stroke="midnightblue" d="M1175.12,-372.09C1258.69,-365.32 1394.04,-352.75 1519.58,-333.23"/>
<polygon fill="midnightblue" stroke="midnightblue" points="1520.43,-336.64 1529.76,-331.63 1519.34,-329.72 1520.43,-336.64"/>
</g>
<!-- Node2&#45;&gt;Node3 -->
<g id="edge2" class="edge">
<title>Node2&#45;&gt;Node3</title>
<path fill="none" stroke="midnightblue" d="M960.87,-302.77C910.88,-291.55 820.22,-271.2 756.17,-256.82"/>
<polygon fill="midnightblue" stroke="midnightblue" points="756.66,-253.34 746.13,-254.56 755.12,-260.17 756.66,-253.34"/>
</g>
<!-- Node17 -->
<g id="node17" class="node">
<title>Node17</title>
<g id="a_node17"><a xlink:title=" ">
<polygon fill="white" stroke="#bfbfbf" points="928,-168.5 928,-187.5 1067,-187.5 1067,-168.5 928,-168.5"/>
<text text-anchor="middle" x="997.5" y="-175.5" font-family="Helvetica,sans-Serif" font-size="10.00">Ancillary/FunctionTraits.h</text>
</a>
</g>
</g>
<!-- Node2&#45;&gt;Node17 -->
<g id="edge26" class="edge">
<title>Node2&#45;&gt;Node17</title>
<path fill="none" stroke="midnightblue" d="M997.5,-302.34C997.5,-281.17 997.5,-226.45 997.5,-197.53"/>
<polygon fill="midnightblue" stroke="midnightblue" points="1001,-197.52 997.5,-187.52 994,-197.52 1001,-197.52"/>
</g>
<!-- Node4 -->
<g id="node4" class="node">
<title>Node4</title>
<g id="a_node4"><a xlink:href="sitkConfigure_8h.html" target="_top" xlink:title=" ">
<polygon fill="white" stroke="black" points="406.5,-0.5 406.5,-19.5 496.5,-19.5 496.5,-0.5 406.5,-0.5"/>
<text text-anchor="middle" x="451.5" y="-7.5" font-family="Helvetica,sans-Serif" font-size="10.00">sitkConfigure.h</text>
</a>
</g>
</g>
<!-- Node3&#45;&gt;Node4 -->
<g id="edge3" class="edge">
<title>Node3&#45;&gt;Node4</title>
<path fill="none" stroke="midnightblue" d="M678.2,-224.12C668.38,-198.99 645.33,-146.47 612.5,-112 573.81,-71.38 515.5,-40.16 480.69,-23.78"/>
<polygon fill="midnightblue" stroke="midnightblue" points="482.08,-20.57 471.54,-19.56 479.15,-26.92 482.08,-20.57"/>
</g>
<!-- Node5 -->
<g id="node5" class="node">
<title>Node5</title>
<g id="a_node5"><a xlink:href="sitkPixelIDTypes_8h.html" target="_top" xlink:title=" ">
<polygon fill="white" stroke="black" points="338,-112.5 338,-131.5 443,-131.5 443,-112.5 338,-112.5"/>
<text text-anchor="middle" x="390.5" y="-119.5" font-family="Helvetica,sans-Serif" font-size="10.00">sitkPixelIDTypes.h</text>
</a>
</g>
</g>
<!-- Node3&#45;&gt;Node5 -->
<g id="edge4" class="edge">
<title>Node3&#45;&gt;Node5</title>
<path fill="none" stroke="midnightblue" d="M647.87,-224.45C590.01,-201.64 476.58,-156.93 421.71,-135.3"/>
<polygon fill="midnightblue" stroke="midnightblue" points="422.76,-131.95 412.17,-131.54 420.19,-138.47 422.76,-131.95"/>
</g>
<!-- Node6 -->
<g id="node6" class="node">
<title>Node6</title>
<g id="a_node6"><a xlink:href="sitkPixelIDTypeLists_8h.html" target="_top" xlink:title=" ">
<polygon fill="white" stroke="black" points="303.5,-168.5 303.5,-187.5 425.5,-187.5 425.5,-168.5 303.5,-168.5"/>
<text text-anchor="middle" x="364.5" y="-175.5" font-family="Helvetica,sans-Serif" font-size="10.00">sitkPixelIDTypeLists.h</text>
</a>
</g>
</g>
<!-- Node3&#45;&gt;Node6 -->
<g id="edge5" class="edge">
<title>Node3&#45;&gt;Node6</title>
<path fill="none" stroke="midnightblue" d="M608.31,-224.47C550.63,-213.72 472.31,-199.11 420.17,-189.38"/>
<polygon fill="midnightblue" stroke="midnightblue" points="420.58,-185.9 410.11,-187.51 419.29,-192.78 420.58,-185.9"/>
</g>
<!-- Node8 -->
<g id="node8" class="node">
<title>Node8</title>
<g id="a_node8"><a xlink:title=" ">
<polygon fill="white" stroke="#bfbfbf" points="461,-112.5 461,-131.5 580,-131.5 580,-112.5 461,-112.5"/>
<text text-anchor="middle" x="520.5" y="-119.5" font-family="Helvetica,sans-Serif" font-size="10.00">Ancillary/type_list2.h</text>
</a>
</g>
</g>
<!-- Node3&#45;&gt;Node8 -->
<g id="edge21" class="edge">
<title>Node3&#45;&gt;Node8</title>
<path fill="none" stroke="midnightblue" d="M655.34,-224.43C637.37,-214.99 613.9,-201.8 594.5,-188 573.3,-172.92 551.16,-152.8 536.69,-138.97"/>
<polygon fill="midnightblue" stroke="midnightblue" points="538.74,-136.08 529.12,-131.63 533.86,-141.1 538.74,-136.08"/>
</g>
<!-- Node10 -->
<g id="node10" class="node">
<title>Node10</title>
<g id="a_node10"><a xlink:href="sitkMacro_8h.html" target="_top" xlink:title=" ">
<polygon fill="white" stroke="black" points="221.5,-56.5 221.5,-75.5 295.5,-75.5 295.5,-56.5 221.5,-56.5"/>
<text text-anchor="middle" x="258.5" y="-63.5" font-family="Helvetica,sans-Serif" font-size="10.00">sitkMacro.h</text>
</a>
</g>
</g>
<!-- Node3&#45;&gt;Node10 -->
<g id="edge11" class="edge">
<title>Node3&#45;&gt;Node10</title>
<path fill="none" stroke="midnightblue" d="M667.21,-224.46C656.6,-214.83 642.86,-201.41 632.5,-188 608.65,-157.11 620.92,-133.74 588.5,-112 543.29,-81.68 386.05,-71.62 306.05,-68.42"/>
<polygon fill="midnightblue" stroke="midnightblue" points="305.88,-64.91 295.76,-68.02 305.62,-71.9 305.88,-64.91"/>
</g>
<!-- Node15 -->
<g id="node15" class="node">
<title>Node15</title>
<g id="a_node15"><a xlink:href="sitkNonCopyable_8h.html" target="_top" xlink:title=" ">
<polygon fill="white" stroke="black" points="176,-168.5 176,-187.5 285,-187.5 285,-168.5 176,-168.5"/>
<text text-anchor="middle" x="230.5" y="-175.5" font-family="Helvetica,sans-Serif" font-size="10.00">sitkNonCopyable.h</text>
</a>
</g>
</g>
<!-- Node3&#45;&gt;Node15 -->
<g id="edge18" class="edge">
<title>Node3&#45;&gt;Node15</title>
<path fill="none" stroke="midnightblue" d="M607.44,-228.87C531.22,-219.16 410.24,-203.6 295.34,-188.1"/>
<polygon fill="midnightblue" stroke="midnightblue" points="295.69,-184.62 285.31,-186.75 294.75,-191.55 295.69,-184.62"/>
</g>
<!-- Node3&#45;&gt;Node17 -->
<g id="edge22" class="edge">
<title>Node3&#45;&gt;Node17</title>
<path fill="none" stroke="midnightblue" d="M757.52,-224.47C814.29,-213.72 891.38,-199.11 942.7,-189.38"/>
<polygon fill="midnightblue" stroke="midnightblue" points="943.44,-192.81 952.61,-187.51 942.13,-185.93 943.44,-192.81"/>
</g>
<!-- Node18 -->
<g id="node18" class="node">
<title>Node18</title>
<g id="a_node18"><a xlink:title=" ">
<polygon fill="white" stroke="#bfbfbf" points="675,-168.5 675,-187.5 768,-187.5 768,-168.5 675,-168.5"/>
<text text-anchor="middle" x="721.5" y="-175.5" font-family="Helvetica,sans-Serif" font-size="10.00">unordered_map</text>
</a>
</g>
</g>
<!-- Node3&#45;&gt;Node18 -->
<g id="edge23" class="edge">
<title>Node3&#45;&gt;Node18</title>
<path fill="none" stroke="midnightblue" d="M692.51,-224.4C697.91,-215.93 704.83,-205.1 710.55,-196.14"/>
<polygon fill="midnightblue" stroke="midnightblue" points="713.54,-197.97 715.97,-187.66 707.64,-194.2 713.54,-197.97"/>
</g>
<!-- Node19 -->
<g id="node19" class="node">
<title>Node19</title>
<g id="a_node19"><a xlink:title=" ">
<polygon fill="white" stroke="#bfbfbf" points="786,-168.5 786,-187.5 851,-187.5 851,-168.5 786,-168.5"/>
<text text-anchor="middle" x="818.5" y="-175.5" font-family="Helvetica,sans-Serif" font-size="10.00">functional</text>
</a>
</g>
</g>
<!-- Node3&#45;&gt;Node19 -->
<g id="edge24" class="edge">
<title>Node3&#45;&gt;Node19</title>
<path fill="none" stroke="midnightblue" d="M715.49,-224.4C737.94,-214.51 767.71,-201.38 789.48,-191.79"/>
<polygon fill="midnightblue" stroke="midnightblue" points="791.12,-194.89 798.86,-187.66 788.29,-188.49 791.12,-194.89"/>
</g>
<!-- Node20 -->
<g id="node20" class="node">
<title>Node20</title>
<g id="a_node20"><a xlink:title=" ">
<polygon fill="white" stroke="#bfbfbf" points="869,-168.5 869,-187.5 910,-187.5 910,-168.5 869,-168.5"/>
<text text-anchor="middle" x="889.5" y="-175.5" font-family="Helvetica,sans-Serif" font-size="10.00">tuple</text>
</a>
</g>
</g>
<!-- Node3&#45;&gt;Node20 -->
<g id="edge25" class="edge">
<title>Node3&#45;&gt;Node20</title>
<path fill="none" stroke="midnightblue" d="M733.24,-224.4C766.31,-214.99 810.95,-202.21 859.16,-188.07"/>
<polygon fill="midnightblue" stroke="midnightblue" points="860.24,-191.4 868.85,-185.23 858.27,-184.69 860.24,-191.4"/>
</g>
<!-- Node6&#45;&gt;Node4 -->
<g id="edge7" class="edge">
<title>Node6&#45;&gt;Node4</title>
<path fill="none" stroke="midnightblue" d="M353.78,-168.36C339.92,-156.07 318.69,-132.76 328.5,-112 348.11,-70.53 394.02,-40.37 423.87,-24.29"/>
<polygon fill="midnightblue" stroke="midnightblue" points="425.69,-27.29 432.94,-19.57 422.45,-21.08 425.69,-27.29"/>
</g>
<!-- Node6&#45;&gt;Node5 -->
<g id="edge8" class="edge">
<title>Node6&#45;&gt;Node5</title>
<path fill="none" stroke="midnightblue" d="M368.79,-168.08C372.35,-160.69 377.52,-149.95 381.92,-140.81"/>
<polygon fill="midnightblue" stroke="midnightblue" points="385.1,-142.28 386.29,-131.75 378.79,-139.24 385.1,-142.28"/>
</g>
<!-- Node7 -->
<g id="node7" class="node">
<title>Node7</title>
<g id="a_node7"><a xlink:title=" ">
<polygon fill="white" stroke="#bfbfbf" points="125,-0.5 125,-19.5 178,-19.5 178,-0.5 125,-0.5"/>
<text text-anchor="middle" x="151.5" y="-7.5" font-family="Helvetica,sans-Serif" font-size="10.00">stdint.h</text>
</a>
</g>
</g>
<!-- Node6&#45;&gt;Node7 -->
<g id="edge6" class="edge">
<title>Node6&#45;&gt;Node7</title>
<path fill="none" stroke="midnightblue" d="M322.43,-168.47C283.52,-159.9 229.24,-145.98 212.5,-132 180.11,-104.95 163.16,-56.4 155.92,-29.76"/>
<polygon fill="midnightblue" stroke="midnightblue" points="159.25,-28.64 153.39,-19.81 152.46,-30.37 159.25,-28.64"/>
</g>
<!-- Node6&#45;&gt;Node8 -->
<g id="edge9" class="edge">
<title>Node6&#45;&gt;Node8</title>
<path fill="none" stroke="midnightblue" d="M389.22,-168.44C415.35,-159.4 456.76,-145.06 486.08,-134.92"/>
<polygon fill="midnightblue" stroke="midnightblue" points="487.59,-138.1 495.9,-131.52 485.3,-131.48 487.59,-138.1"/>
</g>
<!-- Node9 -->
<g id="node9" class="node">
<title>Node9</title>
<g id="a_node9"><a xlink:title=" ">
<polygon fill="white" stroke="#bfbfbf" points="222,-112.5 222,-131.5 281,-131.5 281,-112.5 222,-112.5"/>
<text text-anchor="middle" x="251.5" y="-119.5" font-family="Helvetica,sans-Serif" font-size="10.00">complex</text>
</a>
</g>
</g>
<!-- Node6&#45;&gt;Node9 -->
<g id="edge10" class="edge">
<title>Node6&#45;&gt;Node9</title>
<path fill="none" stroke="midnightblue" d="M346.59,-168.44C328.25,-159.68 299.49,-145.94 278.41,-135.86"/>
<polygon fill="midnightblue" stroke="midnightblue" points="279.85,-132.67 269.32,-131.52 276.83,-138.99 279.85,-132.67"/>
</g>
<!-- Node10&#45;&gt;Node4 -->
<g id="edge17" class="edge">
<title>Node10&#45;&gt;Node4</title>
<path fill="none" stroke="midnightblue" d="M289.08,-56.44C322.11,-47.2 374.89,-32.44 411.27,-22.26"/>
<polygon fill="midnightblue" stroke="midnightblue" points="412.37,-25.58 421.06,-19.52 410.49,-18.84 412.37,-25.58"/>
</g>
<!-- Node10&#45;&gt;Node7 -->
<g id="edge12" class="edge">
<title>Node10&#45;&gt;Node7</title>
<path fill="none" stroke="midnightblue" d="M241.31,-56.32C224.15,-47.66 197.55,-34.24 177.75,-24.25"/>
<polygon fill="midnightblue" stroke="midnightblue" points="179.15,-21.04 168.65,-19.65 176,-27.28 179.15,-21.04"/>
</g>
<!-- Node11 -->
<g id="node11" class="node">
<title>Node11</title>
<g id="a_node11"><a xlink:title=" ">
<polygon fill="white" stroke="#bfbfbf" points="332.5,-0.5 332.5,-19.5 388.5,-19.5 388.5,-0.5 332.5,-0.5"/>
<text text-anchor="middle" x="360.5" y="-7.5" font-family="Helvetica,sans-Serif" font-size="10.00">stddef.h</text>
</a>
</g>
</g>
<!-- Node10&#45;&gt;Node11 -->
<g id="edge13" class="edge">
<title>Node10&#45;&gt;Node11</title>
<path fill="none" stroke="midnightblue" d="M274.89,-56.32C291.17,-47.7 316.37,-34.36 335.22,-24.39"/>
<polygon fill="midnightblue" stroke="midnightblue" points="336.95,-27.43 344.15,-19.65 333.68,-21.24 336.95,-27.43"/>
</g>
<!-- Node10&#45;&gt;Node12 -->
<g id="edge14" class="edge">
<title>Node10&#45;&gt;Node12</title>
<path fill="none" stroke="midnightblue" d="M295.68,-61.42C397.72,-51.58 681.26,-24.23 782.22,-14.5"/>
<polygon fill="midnightblue" stroke="midnightblue" points="782.62,-17.98 792.24,-13.53 781.95,-11.01 782.62,-17.98"/>
</g>
<!-- Node13 -->
<g id="node13" class="node">
<title>Node13</title>
<g id="a_node13"><a xlink:title=" ">
<polygon fill="white" stroke="#bfbfbf" points="196.5,-0.5 196.5,-19.5 252.5,-19.5 252.5,-0.5 196.5,-0.5"/>
<text text-anchor="middle" x="224.5" y="-7.5" font-family="Helvetica,sans-Serif" font-size="10.00">sstream</text>
</a>
</g>
</g>
<!-- Node10&#45;&gt;Node13 -->
<g id="edge15" class="edge">
<title>Node10&#45;&gt;Node13</title>
<path fill="none" stroke="midnightblue" d="M252.89,-56.08C248.13,-48.53 241.18,-37.49 235.35,-28.23"/>
<polygon fill="midnightblue" stroke="midnightblue" points="238.3,-26.35 230.01,-19.75 232.38,-30.08 238.3,-26.35"/>
</g>
<!-- Node14 -->
<g id="node14" class="node">
<title>Node14</title>
<g id="a_node14"><a xlink:title=" ">
<polygon fill="white" stroke="#bfbfbf" points="270.5,-0.5 270.5,-19.5 314.5,-19.5 314.5,-0.5 270.5,-0.5"/>
<text text-anchor="middle" x="292.5" y="-7.5" font-family="Helvetica,sans-Serif" font-size="10.00">limits</text>
</a>
</g>
</g>
<!-- Node10&#45;&gt;Node14 -->
<g id="edge16" class="edge">
<title>Node10&#45;&gt;Node14</title>
<path fill="none" stroke="midnightblue" d="M264.11,-56.08C268.87,-48.53 275.82,-37.49 281.65,-28.23"/>
<polygon fill="midnightblue" stroke="midnightblue" points="284.62,-30.08 286.99,-19.75 278.7,-26.35 284.62,-30.08"/>
</g>
<!-- Node16 -->
<g id="node16" class="node">
<title>Node16</title>
<g id="a_node16"><a xlink:href="sitkCommon_8h.html" target="_top" xlink:title=" ">
<polygon fill="white" stroke="black" points="77.5,-112.5 77.5,-131.5 165.5,-131.5 165.5,-112.5 77.5,-112.5"/>
<text text-anchor="middle" x="121.5" y="-119.5" font-family="Helvetica,sans-Serif" font-size="10.00">sitkCommon.h</text>
</a>
</g>
</g>
<!-- Node15&#45;&gt;Node16 -->
<g id="edge19" class="edge">
<title>Node15&#45;&gt;Node16</title>
<path fill="none" stroke="midnightblue" d="M212.99,-168.32C195.43,-159.62 168.17,-146.12 147.97,-136.11"/>
<polygon fill="midnightblue" stroke="midnightblue" points="149.48,-132.96 138.97,-131.65 146.38,-139.23 149.48,-132.96"/>
</g>
<!-- Node16&#45;&gt;Node10 -->
<g id="edge20" class="edge">
<title>Node16&#45;&gt;Node10</title>
<path fill="none" stroke="midnightblue" d="M143.21,-112.44C165.85,-103.52 201.57,-89.44 227.25,-79.32"/>
<polygon fill="midnightblue" stroke="midnightblue" points="228.87,-82.44 236.89,-75.52 226.31,-75.93 228.87,-82.44"/>
</g>
<!-- Node21&#45;&gt;Node6 -->
<g id="edge30" class="edge">
<title>Node21&#45;&gt;Node6</title>
<path fill="none" stroke="midnightblue" d="M178.59,-229.98C216.78,-219.5 281.67,-201.71 323.8,-190.16"/>
<polygon fill="midnightblue" stroke="midnightblue" points="324.75,-193.53 333.47,-187.51 322.9,-186.78 324.75,-193.53"/>
</g>
<!-- Node21&#45;&gt;Node16 -->
<g id="edge29" class="edge">
<title>Node21&#45;&gt;Node16</title>
<path fill="none" stroke="midnightblue" d="M145.55,-229.82C141.35,-211.17 131.39,-166.94 125.69,-141.63"/>
<polygon fill="midnightblue" stroke="midnightblue" points="129.09,-140.77 123.48,-131.78 122.26,-142.31 129.09,-140.77"/>
</g>
<!-- Node22 -->
<g id="node22" class="node">
<title>Node22</title>
<g id="a_node22"><a xlink:title=" ">
<polygon fill="white" stroke="#bfbfbf" points="75.5,-168.5 75.5,-187.5 119.5,-187.5 119.5,-168.5 75.5,-168.5"/>
<text text-anchor="middle" x="97.5" y="-175.5" font-family="Helvetica,sans-Serif" font-size="10.00">string</text>
</a>
</g>
</g>
<!-- Node21&#45;&gt;Node22 -->
<g id="edge31" class="edge">
<title>Node21&#45;&gt;Node22</title>
<path fill="none" stroke="midnightblue" d="M140.34,-229.98C132.76,-220.96 120.63,-206.52 111.21,-195.31"/>
<polygon fill="midnightblue" stroke="midnightblue" points="113.76,-192.91 104.65,-187.51 108.4,-197.42 113.76,-192.91"/>
</g>
<!-- Node23 -->
<g id="node23" class="node">
<title>Node23</title>
<g id="a_node23"><a xlink:title=" ">
<polygon fill="white" stroke="#bfbfbf" points="0,-168.5 0,-187.5 57,-187.5 57,-168.5 0,-168.5"/>
<text text-anchor="middle" x="28.5" y="-175.5" font-family="Helvetica,sans-Serif" font-size="10.00">ostream</text>
</a>
</g>
</g>
<!-- Node21&#45;&gt;Node23 -->
<g id="edge32" class="edge">
<title>Node21&#45;&gt;Node23</title>
<path fill="none" stroke="midnightblue" d="M130.45,-229.98C110.66,-220.08 77.78,-203.64 54.73,-192.12"/>
<polygon fill="midnightblue" stroke="midnightblue" points="56.03,-188.85 45.52,-187.51 52.9,-195.11 56.03,-188.85"/>
</g>
</g>
</svg>
        <g id="navigator" transform="translate(0 0)" fill="#404254">
                <rect fill="#f2f5e9" fill-opacity="0.5" stroke="#606060" stroke-width=".5" x="0" y="0" width="60" height="60"/>
                <use id="zoomplus" xlink:href="#zoomPlus" x="17" y="9" onmousedown="handleZoom(evt,'in')"/>
                <use id="zoomminus" xlink:href="#zoomMin" x="42" y="9" onmousedown="handleZoom(evt,'out')"/>
                <use id="reset" xlink:href="#resetDef" x="30" y="36" onmousedown="handleReset()"/>
                <g id="arrowUp" xlink:href="#dirArrow" transform="translate(30 24)" onmousedown="handlePan(0,-1)">
                  <use xlink:href="#rim" fill="#404040">
                        <set attributeName="fill" to="#808080" begin="arrowUp.mouseover" end="arrowUp.mouseout"/>
                  </use>
                  <path fill="none" stroke="white" stroke-width="1.5" d="M0,-3.0v7 M-2.5,-0.5L0,-3.0L2.5,-0.5"/>
                </g>
                <g id="arrowRight" xlink:href="#dirArrow" transform="rotate(90) translate(36 -43)" onmousedown="handlePan(1,0)">
                  <use xlink:href="#rim" fill="#404040">
                        <set attributeName="fill" to="#808080" begin="arrowRight.mouseover" end="arrowRight.mouseout"/>
                  </use>
                  <path fill="none" stroke="white" stroke-width="1.5" d="M0,-3.0v7 M-2.5,-0.5L0,-3.0L2.5,-0.5"/>
                </g>
                <g id="arrowDown" xlink:href="#dirArrow" transform="rotate(180) translate(-30 -48)" onmousedown="handlePan(0,1)">
                  <use xlink:href="#rim" fill="#404040">
                        <set attributeName="fill" to="#808080" begin="arrowDown.mouseover" end="arrowDown.mouseout"/>
                  </use>
                  <path fill="none" stroke="white" stroke-width="1.5" d="M0,-3.0v7 M-2.5,-0.5L0,-3.0L2.5,-0.5"/>
                </g>
                <g id="arrowLeft" xlink:href="#dirArrow" transform="rotate(270) translate(-36 17)" onmousedown="handlePan(-1,0)">
                  <use xlink:href="#rim" fill="#404040">
                        <set attributeName="fill" to="#808080" begin="arrowLeft.mouseover" end="arrowLeft.mouseout"/>
                  </use>
                  <path fill="none" stroke="white" stroke-width="1.5" d="M0,-3.0v7 M-2.5,-0.5L0,-3.0L2.5,-0.5"/>
                </g>
        </g>
        <svg viewBox="0 0 15 15" width="100%" height="30px" preserveAspectRatio="xMaxYMin meet">
         <g id="arrow_out" transform="scale(0.3 0.3)">
          <a xlink:href="sitkMemberFunctionFactory_8h__incl_org.svg" target="_base">
           <rect id="button" ry="5" rx="5" y="6" x="6" height="38" width="38"
                fill="#f2f5e9" fill-opacity="0.5" stroke="#606060" stroke-width="1.0"/>
           <path id="arrow"
             d="M 11.500037,31.436501 C 11.940474,20.09759 22.043105,11.32322 32.158766,21.979434 L 37.068811,17.246167 C 37.068811,17.246167 37.088388,32 37.088388,32 L 22.160133,31.978069 C 22.160133,31.978069 26.997745,27.140456 26.997745,27.140456 C 18.528582,18.264221 13.291696,25.230495 11.500037,31.436501 z"
             style="fill:#404040;"/>
          </a>
         </g>
        </svg>
</svg>
