<?xml version="1.0" encoding="UTF-8" standalone="no"?>
<!DOCTYPE svg PUBLIC "-//W3C//DTD SVG 1.1//EN"
 "http://www.w3.org/Graphics/SVG/1.1/DTD/svg11.dtd">
<!-- Generated by graphviz version 2.43.0 (0)
 -->
<!-- Title: sitkExplicitITKImageRegion.h Pages: 1 -->
<svg width="1164pt" height="543pt"
 viewBox="0.00 0.00 1163.50 543.00" xmlns="http://www.w3.org/2000/svg" xmlns:xlink="http://www.w3.org/1999/xlink">
<g id="graph0" class="graph" transform="scale(1 1) rotate(0) translate(4 539)">
<title>sitkExplicitITKImageRegion.h</title>
<polygon fill="white" stroke="transparent" points="-4,4 -4,-539 1159.5,-539 1159.5,4 -4,4"/>
<!-- Node1 -->
<g id="node1" class="node">
<title>Node1</title>
<g id="a_node1"><a xlink:title=" ">
<polygon fill="#bfbfbf" stroke="black" points="358.5,-515.5 358.5,-534.5 518.5,-534.5 518.5,-515.5 358.5,-515.5"/>
<text text-anchor="middle" x="438.5" y="-522.5" font-family="Helvetica,sans-Serif" font-size="10.00">sitkExplicitITKImageRegion.h</text>
</a>
</g>
</g>
<!-- Node2 -->
<g id="node2" class="node">
<title>Node2</title>
<g id="a_node2"><a xlink:href="sitkExplicit_8h.html" target="_top" xlink:title=" ">
<polygon fill="white" stroke="black" points="343.5,-459.5 343.5,-478.5 423.5,-478.5 423.5,-459.5 343.5,-459.5"/>
<text text-anchor="middle" x="383.5" y="-466.5" font-family="Helvetica,sans-Serif" font-size="10.00">sitkExplicit.h</text>
</a>
</g>
</g>
<!-- Node1&#45;&gt;Node2 -->
<g id="edge1" class="edge">
<title>Node1&#45;&gt;Node2</title>
<path fill="none" stroke="midnightblue" d="M429.42,-515.08C421.33,-507.14 409.3,-495.34 399.59,-485.8"/>
<polygon fill="midnightblue" stroke="midnightblue" points="402,-483.26 392.41,-478.75 397.1,-488.25 402,-483.26"/>
</g>
<!-- Node10 -->
<g id="node10" class="node">
<title>Node10</title>
<g id="a_node10"><a xlink:href="https://www.itk.org/Doxygen/html/itkImageRegion_8h.html" xlink:title=" ">
<polygon fill="white" stroke="black" points="561,-459.5 561,-478.5 664,-478.5 664,-459.5 561,-459.5"/>
<text text-anchor="middle" x="612.5" y="-466.5" font-family="Helvetica,sans-Serif" font-size="10.00">itkImageRegion.h</text>
</a>
</g>
</g>
<!-- Node1&#45;&gt;Node10 -->
<g id="edge9" class="edge">
<title>Node1&#45;&gt;Node10</title>
<path fill="none" stroke="midnightblue" d="M466.07,-515.44C495.6,-506.28 542.62,-491.69 575.38,-481.52"/>
<polygon fill="midnightblue" stroke="midnightblue" points="576.54,-484.82 585.06,-478.52 574.47,-478.14 576.54,-484.82"/>
</g>
<!-- Node3 -->
<g id="node3" class="node">
<title>Node3</title>
<g id="a_node3"><a xlink:href="sitkMacro_8h.html" target="_top" xlink:title=" ">
<polygon fill="white" stroke="black" points="206.5,-403.5 206.5,-422.5 280.5,-422.5 280.5,-403.5 206.5,-403.5"/>
<text text-anchor="middle" x="243.5" y="-410.5" font-family="Helvetica,sans-Serif" font-size="10.00">sitkMacro.h</text>
</a>
</g>
</g>
<!-- Node2&#45;&gt;Node3 -->
<g id="edge2" class="edge">
<title>Node2&#45;&gt;Node3</title>
<path fill="none" stroke="midnightblue" d="M361.32,-459.44C338.07,-450.48 301.35,-436.31 275.08,-426.18"/>
<polygon fill="midnightblue" stroke="midnightblue" points="276.17,-422.85 265.58,-422.52 273.65,-429.38 276.17,-422.85"/>
</g>
<!-- Node4 -->
<g id="node4" class="node">
<title>Node4</title>
<g id="a_node4"><a xlink:title=" ">
<polygon fill="white" stroke="#bfbfbf" points="0,-347.5 0,-366.5 53,-366.5 53,-347.5 0,-347.5"/>
<text text-anchor="middle" x="26.5" y="-354.5" font-family="Helvetica,sans-Serif" font-size="10.00">stdint.h</text>
</a>
</g>
</g>
<!-- Node3&#45;&gt;Node4 -->
<g id="edge3" class="edge">
<title>Node3&#45;&gt;Node4</title>
<path fill="none" stroke="midnightblue" d="M209.13,-403.47C174.72,-394.92 119.96,-381.32 63.12,-367.15"/>
<polygon fill="midnightblue" stroke="midnightblue" points="63.79,-363.71 53.24,-364.69 62.09,-370.5 63.79,-363.71"/>
</g>
<!-- Node5 -->
<g id="node5" class="node">
<title>Node5</title>
<g id="a_node5"><a xlink:title=" ">
<polygon fill="white" stroke="#bfbfbf" points="71.5,-347.5 71.5,-366.5 127.5,-366.5 127.5,-347.5 71.5,-347.5"/>
<text text-anchor="middle" x="99.5" y="-354.5" font-family="Helvetica,sans-Serif" font-size="10.00">stddef.h</text>
</a>
</g>
</g>
<!-- Node3&#45;&gt;Node5 -->
<g id="edge4" class="edge">
<title>Node3&#45;&gt;Node5</title>
<path fill="none" stroke="midnightblue" d="M220.68,-403.44C196.67,-394.44 158.67,-380.19 131.63,-370.05"/>
<polygon fill="midnightblue" stroke="midnightblue" points="132.8,-366.75 122.21,-366.52 130.34,-373.3 132.8,-366.75"/>
</g>
<!-- Node6 -->
<g id="node6" class="node">
<title>Node6</title>
<g id="a_node6"><a xlink:title=" ">
<polygon fill="white" stroke="#bfbfbf" points="145.5,-347.5 145.5,-366.5 197.5,-366.5 197.5,-347.5 145.5,-347.5"/>
<text text-anchor="middle" x="171.5" y="-354.5" font-family="Helvetica,sans-Serif" font-size="10.00">cassert</text>
</a>
</g>
</g>
<!-- Node3&#45;&gt;Node6 -->
<g id="edge5" class="edge">
<title>Node3&#45;&gt;Node6</title>
<path fill="none" stroke="midnightblue" d="M231.93,-403.32C221.08,-395.18 204.62,-382.84 191.62,-373.09"/>
<polygon fill="midnightblue" stroke="midnightblue" points="193.38,-370.03 183.28,-366.83 189.18,-375.63 193.38,-370.03"/>
</g>
<!-- Node7 -->
<g id="node7" class="node">
<title>Node7</title>
<g id="a_node7"><a xlink:title=" ">
<polygon fill="white" stroke="#bfbfbf" points="215.5,-347.5 215.5,-366.5 271.5,-366.5 271.5,-347.5 215.5,-347.5"/>
<text text-anchor="middle" x="243.5" y="-354.5" font-family="Helvetica,sans-Serif" font-size="10.00">sstream</text>
</a>
</g>
</g>
<!-- Node3&#45;&gt;Node7 -->
<g id="edge6" class="edge">
<title>Node3&#45;&gt;Node7</title>
<path fill="none" stroke="midnightblue" d="M243.5,-403.08C243.5,-396.01 243.5,-385.86 243.5,-376.99"/>
<polygon fill="midnightblue" stroke="midnightblue" points="247,-376.75 243.5,-366.75 240,-376.75 247,-376.75"/>
</g>
<!-- Node8 -->
<g id="node8" class="node">
<title>Node8</title>
<g id="a_node8"><a xlink:title=" ">
<polygon fill="white" stroke="#bfbfbf" points="289.5,-347.5 289.5,-366.5 333.5,-366.5 333.5,-347.5 289.5,-347.5"/>
<text text-anchor="middle" x="311.5" y="-354.5" font-family="Helvetica,sans-Serif" font-size="10.00">limits</text>
</a>
</g>
</g>
<!-- Node3&#45;&gt;Node8 -->
<g id="edge7" class="edge">
<title>Node3&#45;&gt;Node8</title>
<path fill="none" stroke="midnightblue" d="M254.43,-403.32C264.67,-395.18 280.22,-382.84 292.5,-373.09"/>
<polygon fill="midnightblue" stroke="midnightblue" points="294.72,-375.79 300.38,-366.83 290.37,-370.31 294.72,-375.79"/>
</g>
<!-- Node9 -->
<g id="node9" class="node">
<title>Node9</title>
<g id="a_node9"><a xlink:href="sitkConfigure_8h.html" target="_top" xlink:title=" ">
<polygon fill="white" stroke="black" points="351.5,-347.5 351.5,-366.5 441.5,-366.5 441.5,-347.5 351.5,-347.5"/>
<text text-anchor="middle" x="396.5" y="-354.5" font-family="Helvetica,sans-Serif" font-size="10.00">sitkConfigure.h</text>
</a>
</g>
</g>
<!-- Node3&#45;&gt;Node9 -->
<g id="edge8" class="edge">
<title>Node3&#45;&gt;Node9</title>
<path fill="none" stroke="midnightblue" d="M267.74,-403.44C293.37,-394.4 333.99,-380.06 362.74,-369.92"/>
<polygon fill="midnightblue" stroke="midnightblue" points="364.11,-373.15 372.37,-366.52 361.78,-366.54 364.11,-373.15"/>
</g>
<!-- Node11 -->
<g id="node11" class="node">
<title>Node11</title>
<g id="a_node11"><a xlink:href="https://www.itk.org/Doxygen/html/itkRegion_8h.html" xlink:title=" ">
<polygon fill="white" stroke="black" points="710.5,-403.5 710.5,-422.5 782.5,-422.5 782.5,-403.5 710.5,-403.5"/>
<text text-anchor="middle" x="746.5" y="-410.5" font-family="Helvetica,sans-Serif" font-size="10.00">itkRegion.h</text>
</a>
</g>
</g>
<!-- Node10&#45;&gt;Node11 -->
<g id="edge10" class="edge">
<title>Node10&#45;&gt;Node11</title>
<path fill="none" stroke="midnightblue" d="M633.73,-459.44C655.88,-450.52 690.82,-436.44 715.94,-426.32"/>
<polygon fill="midnightblue" stroke="midnightblue" points="717.4,-429.5 725.37,-422.52 714.78,-423.01 717.4,-429.5"/>
</g>
<!-- Node24 -->
<g id="node24" class="node">
<title>Node24</title>
<g id="a_node24"><a xlink:href="https://www.itk.org/Doxygen/html/itkSize_8h.html" xlink:title=" ">
<polygon fill="white" stroke="black" points="593,-123.5 593,-142.5 652,-142.5 652,-123.5 593,-123.5"/>
<text text-anchor="middle" x="622.5" y="-130.5" font-family="Helvetica,sans-Serif" font-size="10.00">itkSize.h</text>
</a>
</g>
</g>
<!-- Node10&#45;&gt;Node24 -->
<g id="edge30" class="edge">
<title>Node10&#45;&gt;Node24</title>
<path fill="none" stroke="midnightblue" d="M619.17,-459.44C632.36,-441.62 660.5,-398.84 660.5,-358 660.5,-358 660.5,-358 660.5,-244 660.5,-209.81 643.9,-172.76 632.64,-151.57"/>
<polygon fill="midnightblue" stroke="midnightblue" points="635.68,-149.83 627.78,-142.77 629.55,-153.22 635.68,-149.83"/>
</g>
<!-- Node26 -->
<g id="node26" class="node">
<title>Node26</title>
<g id="a_node26"><a xlink:href="https://www.itk.org/Doxygen/html/itkContinuousIndex_8h.html" xlink:title=" ">
<polygon fill="white" stroke="black" points="464.5,-403.5 464.5,-422.5 584.5,-422.5 584.5,-403.5 464.5,-403.5"/>
<text text-anchor="middle" x="524.5" y="-410.5" font-family="Helvetica,sans-Serif" font-size="10.00">itkContinuousIndex.h</text>
</a>
</g>
</g>
<!-- Node10&#45;&gt;Node26 -->
<g id="edge34" class="edge">
<title>Node10&#45;&gt;Node26</title>
<path fill="none" stroke="midnightblue" d="M598.36,-459.32C584.63,-450.9 563.56,-437.97 547.44,-428.07"/>
<polygon fill="midnightblue" stroke="midnightblue" points="548.96,-424.9 538.6,-422.65 545.3,-430.87 548.96,-424.9"/>
</g>
<!-- Node32 -->
<g id="node32" class="node">
<title>Node32</title>
<g id="a_node32"><a xlink:href="https://www.itk.org/Doxygen/html/itkMath_8h.html" xlink:title=" ">
<polygon fill="white" stroke="black" points="489,-235.5 489,-254.5 552,-254.5 552,-235.5 489,-235.5"/>
<text text-anchor="middle" x="520.5" y="-242.5" font-family="Helvetica,sans-Serif" font-size="10.00">itkMath.h</text>
</a>
</g>
</g>
<!-- Node10&#45;&gt;Node32 -->
<g id="edge59" class="edge">
<title>Node10&#45;&gt;Node32</title>
<path fill="none" stroke="midnightblue" d="M611.61,-459.32C608.58,-432.59 596.87,-349.78 563.5,-291 557.19,-279.89 547.54,-269.45 538.98,-261.42"/>
<polygon fill="midnightblue" stroke="midnightblue" points="541.04,-258.57 531.25,-254.52 536.38,-263.79 541.04,-258.57"/>
</g>
<!-- Node12 -->
<g id="node12" class="node">
<title>Node12</title>
<g id="a_node12"><a xlink:href="https://www.itk.org/Doxygen/html/itkObject_8h.html" xlink:title=" ">
<polygon fill="white" stroke="black" points="896.5,-347.5 896.5,-366.5 966.5,-366.5 966.5,-347.5 896.5,-347.5"/>
<text text-anchor="middle" x="931.5" y="-354.5" font-family="Helvetica,sans-Serif" font-size="10.00">itkObject.h</text>
</a>
</g>
</g>
<!-- Node11&#45;&gt;Node12 -->
<g id="edge11" class="edge">
<title>Node11&#45;&gt;Node12</title>
<path fill="none" stroke="midnightblue" d="M775.81,-403.44C807.34,-394.24 857.63,-379.56 892.49,-369.39"/>
<polygon fill="midnightblue" stroke="midnightblue" points="893.7,-372.68 902.32,-366.52 891.74,-365.96 893.7,-372.68"/>
</g>
<!-- Node23 -->
<g id="node23" class="node">
<title>Node23</title>
<g id="a_node23"><a xlink:href="https://www.itk.org/Doxygen/html/itkCommonEnums_8h.html" xlink:title=" ">
<polygon fill="white" stroke="black" points="688.5,-235.5 688.5,-254.5 804.5,-254.5 804.5,-235.5 688.5,-235.5"/>
<text text-anchor="middle" x="746.5" y="-242.5" font-family="Helvetica,sans-Serif" font-size="10.00">itkCommonEnums.h</text>
</a>
</g>
</g>
<!-- Node11&#45;&gt;Node23 -->
<g id="edge28" class="edge">
<title>Node11&#45;&gt;Node23</title>
<path fill="none" stroke="midnightblue" d="M746.5,-403.08C746.5,-376.95 746.5,-300.21 746.5,-264.58"/>
<polygon fill="midnightblue" stroke="midnightblue" points="750,-264.57 746.5,-254.57 743,-264.57 750,-264.57"/>
</g>
<!-- Node13 -->
<g id="node13" class="node">
<title>Node13</title>
<g id="a_node13"><a xlink:href="https://www.itk.org/Doxygen/html/itkLightObject_8h.html" xlink:title=" ">
<polygon fill="white" stroke="black" points="835.5,-179.5 835.5,-198.5 929.5,-198.5 929.5,-179.5 835.5,-179.5"/>
<text text-anchor="middle" x="882.5" y="-186.5" font-family="Helvetica,sans-Serif" font-size="10.00">itkLightObject.h</text>
</a>
</g>
</g>
<!-- Node12&#45;&gt;Node13 -->
<g id="edge12" class="edge">
<title>Node12&#45;&gt;Node13</title>
<path fill="none" stroke="midnightblue" d="M903.83,-347.46C886.51,-340.55 865.47,-328.98 854.5,-311 836.9,-282.14 841.46,-267.28 851.5,-235 854.73,-224.62 861.28,-214.52 867.52,-206.53"/>
<polygon fill="midnightblue" stroke="midnightblue" points="870.29,-208.68 874.02,-198.77 864.92,-204.19 870.29,-208.68"/>
</g>
<!-- Node18 -->
<g id="node18" class="node">
<title>Node18</title>
<g id="a_node18"><a xlink:href="https://www.itk.org/Doxygen/html/itkSingletonMacro_8h.html" xlink:title=" ">
<polygon fill="white" stroke="black" points="906.5,-67.5 906.5,-86.5 1020.5,-86.5 1020.5,-67.5 906.5,-67.5"/>
<text text-anchor="middle" x="963.5" y="-74.5" font-family="Helvetica,sans-Serif" font-size="10.00">itkSingletonMacro.h</text>
</a>
</g>
</g>
<!-- Node12&#45;&gt;Node18 -->
<g id="edge27" class="edge">
<title>Node12&#45;&gt;Node18</title>
<path fill="none" stroke="midnightblue" d="M958.34,-347.45C975.46,-340.5 996.45,-328.87 1007.5,-311 1026.97,-279.51 1007.99,-131.23 1004.5,-123 999.69,-111.64 990.74,-101.29 982.43,-93.38"/>
<polygon fill="midnightblue" stroke="midnightblue" points="984.61,-90.64 974.82,-86.6 979.96,-95.86 984.61,-90.64"/>
</g>
<!-- Node20 -->
<g id="node20" class="node">
<title>Node20</title>
<g id="a_node20"><a xlink:href="https://www.itk.org/Doxygen/html/itkEventObject_8h.html" xlink:title=" ">
<polygon fill="white" stroke="black" points="1057.5,-179.5 1057.5,-198.5 1155.5,-198.5 1155.5,-179.5 1057.5,-179.5"/>
<text text-anchor="middle" x="1106.5" y="-186.5" font-family="Helvetica,sans-Serif" font-size="10.00">itkEventObject.h</text>
</a>
</g>
</g>
<!-- Node12&#45;&gt;Node20 -->
<g id="edge22" class="edge">
<title>Node12&#45;&gt;Node20</title>
<path fill="none" stroke="midnightblue" d="M966.61,-348.91C990.89,-342.49 1022.63,-330.89 1044.5,-311 1075.82,-282.51 1093.69,-234.54 1101.58,-208.37"/>
<polygon fill="midnightblue" stroke="midnightblue" points="1104.99,-209.19 1104.36,-198.62 1098.25,-207.27 1104.99,-209.19"/>
</g>
<!-- Node21 -->
<g id="node21" class="node">
<title>Node21</title>
<g id="a_node21"><a xlink:href="https://www.itk.org/Doxygen/html/itkMetaDataDictionary_8h.html" xlink:title=" ">
<polygon fill="white" stroke="black" points="864,-291.5 864,-310.5 999,-310.5 999,-291.5 864,-291.5"/>
<text text-anchor="middle" x="931.5" y="-298.5" font-family="Helvetica,sans-Serif" font-size="10.00">itkMetaDataDictionary.h</text>
</a>
</g>
</g>
<!-- Node12&#45;&gt;Node21 -->
<g id="edge24" class="edge">
<title>Node12&#45;&gt;Node21</title>
<path fill="none" stroke="midnightblue" d="M931.5,-347.08C931.5,-340.01 931.5,-329.86 931.5,-320.99"/>
<polygon fill="midnightblue" stroke="midnightblue" points="935,-320.75 931.5,-310.75 928,-320.75 935,-320.75"/>
</g>
<!-- Node14 -->
<g id="node14" class="node">
<title>Node14</title>
<g id="a_node14"><a xlink:href="https://www.itk.org/Doxygen/html/itkMacro_8h.html" xlink:title=" ">
<polygon fill="white" stroke="black" points="617.5,-6 617.5,-25 685.5,-25 685.5,-6 617.5,-6"/>
<text text-anchor="middle" x="651.5" y="-13" font-family="Helvetica,sans-Serif" font-size="10.00">itkMacro.h</text>
</a>
</g>
</g>
<!-- Node13&#45;&gt;Node14 -->
<g id="edge13" class="edge">
<title>Node13&#45;&gt;Node14</title>
<path fill="none" stroke="midnightblue" d="M843.94,-179.44C820.97,-172.72 792.49,-161.35 772.5,-143 744.53,-117.33 759.28,-94.87 733.5,-67 718.75,-51.05 697.85,-38.28 680.84,-29.58"/>
<polygon fill="midnightblue" stroke="midnightblue" points="682.37,-26.43 671.85,-25.16 679.28,-32.71 682.37,-26.43"/>
</g>
<!-- Node15 -->
<g id="node15" class="node">
<title>Node15</title>
<g id="a_node15"><a xlink:href="https://www.itk.org/Doxygen/html/itkSmartPointer_8h.html" xlink:title=" ">
<polygon fill="white" stroke="black" points="782,-123.5 782,-142.5 883,-142.5 883,-123.5 782,-123.5"/>
<text text-anchor="middle" x="832.5" y="-130.5" font-family="Helvetica,sans-Serif" font-size="10.00">itkSmartPointer.h</text>
</a>
</g>
</g>
<!-- Node13&#45;&gt;Node15 -->
<g id="edge14" class="edge">
<title>Node13&#45;&gt;Node15</title>
<path fill="none" stroke="midnightblue" d="M874.24,-179.08C867.04,-171.3 856.39,-159.8 847.65,-150.37"/>
<polygon fill="midnightblue" stroke="midnightblue" points="849.97,-147.71 840.6,-142.75 844.83,-152.47 849.97,-147.71"/>
</g>
<!-- Node16 -->
<g id="node16" class="node">
<title>Node16</title>
<g id="a_node16"><a xlink:href="https://www.itk.org/Doxygen/html/itkTimeStamp_8h.html" xlink:title=" ">
<polygon fill="white" stroke="black" points="901,-123.5 901,-142.5 996,-142.5 996,-123.5 901,-123.5"/>
<text text-anchor="middle" x="948.5" y="-130.5" font-family="Helvetica,sans-Serif" font-size="10.00">itkTimeStamp.h</text>
</a>
</g>
</g>
<!-- Node13&#45;&gt;Node16 -->
<g id="edge15" class="edge">
<title>Node13&#45;&gt;Node16</title>
<path fill="none" stroke="midnightblue" d="M893.1,-179.32C902.96,-171.26 917.85,-159.08 929.72,-149.37"/>
<polygon fill="midnightblue" stroke="midnightblue" points="932.18,-151.88 937.7,-142.83 927.75,-146.46 932.18,-151.88"/>
</g>
<!-- Node19 -->
<g id="node19" class="node">
<title>Node19</title>
<g id="a_node19"><a xlink:href="https://www.itk.org/Doxygen/html/itkIndent_8h.html" xlink:title=" ">
<polygon fill="white" stroke="black" points="1058,-123.5 1058,-142.5 1127,-142.5 1127,-123.5 1058,-123.5"/>
<text text-anchor="middle" x="1092.5" y="-130.5" font-family="Helvetica,sans-Serif" font-size="10.00">itkIndent.h</text>
</a>
</g>
</g>
<!-- Node13&#45;&gt;Node19 -->
<g id="edge20" class="edge">
<title>Node13&#45;&gt;Node19</title>
<path fill="none" stroke="midnightblue" d="M915.78,-179.44C951.95,-170.14 1009.88,-155.25 1049.48,-145.06"/>
<polygon fill="midnightblue" stroke="midnightblue" points="1050.57,-148.4 1059.38,-142.52 1048.82,-141.62 1050.57,-148.4"/>
</g>
<!-- Node16&#45;&gt;Node14 -->
<g id="edge16" class="edge">
<title>Node16&#45;&gt;Node14</title>
<path fill="none" stroke="midnightblue" d="M926.18,-123.32C873.91,-102.99 743.46,-52.26 683.08,-28.78"/>
<polygon fill="midnightblue" stroke="midnightblue" points="684.27,-25.49 673.68,-25.12 681.73,-32.01 684.27,-25.49"/>
</g>
<!-- Node17 -->
<g id="node17" class="node">
<title>Node17</title>
<g id="a_node17"><a xlink:href="https://www.itk.org/Doxygen/html/itkIntTypes_8h.html" xlink:title=" ">
<polygon fill="white" stroke="black" points="646,-67.5 646,-86.5 725,-86.5 725,-67.5 646,-67.5"/>
<text text-anchor="middle" x="685.5" y="-74.5" font-family="Helvetica,sans-Serif" font-size="10.00">itkIntTypes.h</text>
</a>
</g>
</g>
<!-- Node16&#45;&gt;Node17 -->
<g id="edge17" class="edge">
<title>Node16&#45;&gt;Node17</title>
<path fill="none" stroke="midnightblue" d="M906.83,-123.44C860.21,-113.87 784.75,-98.38 735.13,-88.19"/>
<polygon fill="midnightblue" stroke="midnightblue" points="735.76,-84.75 725.26,-86.16 734.35,-91.6 735.76,-84.75"/>
</g>
<!-- Node16&#45;&gt;Node18 -->
<g id="edge19" class="edge">
<title>Node16&#45;&gt;Node18</title>
<path fill="none" stroke="midnightblue" d="M950.98,-123.08C952.99,-115.85 955.89,-105.41 958.39,-96.4"/>
<polygon fill="midnightblue" stroke="midnightblue" points="961.76,-97.32 961.07,-86.75 955.02,-95.45 961.76,-97.32"/>
</g>
<!-- Node17&#45;&gt;Node14 -->
<g id="edge18" class="edge">
<title>Node17&#45;&gt;Node14</title>
<path fill="none" stroke="midnightblue" d="M680.63,-67.48C675.63,-58.73 667.71,-44.87 661.39,-33.81"/>
<polygon fill="midnightblue" stroke="midnightblue" points="664.36,-31.96 656.36,-25.01 658.28,-35.43 664.36,-31.96"/>
</g>
<!-- Node19&#45;&gt;Node14 -->
<g id="edge21" class="edge">
<title>Node19&#45;&gt;Node14</title>
<path fill="none" stroke="midnightblue" d="M1087.11,-123.49C1077.49,-109.12 1055.88,-80.3 1029.5,-67 971.84,-37.93 782.57,-23.84 695.75,-18.78"/>
<polygon fill="midnightblue" stroke="midnightblue" points="695.86,-15.28 685.68,-18.21 695.47,-22.27 695.86,-15.28"/>
</g>
<!-- Node20&#45;&gt;Node19 -->
<g id="edge23" class="edge">
<title>Node20&#45;&gt;Node19</title>
<path fill="none" stroke="midnightblue" d="M1104.19,-179.08C1102.33,-171.93 1099.66,-161.64 1097.35,-152.69"/>
<polygon fill="midnightblue" stroke="midnightblue" points="1100.67,-151.55 1094.77,-142.75 1093.89,-153.31 1100.67,-151.55"/>
</g>
<!-- Node22 -->
<g id="node22" class="node">
<title>Node22</title>
<g id="a_node22"><a xlink:href="https://www.itk.org/Doxygen/html/itkMetaDataObjectBase_8h.html" xlink:title=" ">
<polygon fill="white" stroke="black" points="860.5,-235.5 860.5,-254.5 1002.5,-254.5 1002.5,-235.5 860.5,-235.5"/>
<text text-anchor="middle" x="931.5" y="-242.5" font-family="Helvetica,sans-Serif" font-size="10.00">itkMetaDataObjectBase.h</text>
</a>
</g>
</g>
<!-- Node21&#45;&gt;Node22 -->
<g id="edge25" class="edge">
<title>Node21&#45;&gt;Node22</title>
<path fill="none" stroke="midnightblue" d="M931.5,-291.08C931.5,-284.01 931.5,-273.86 931.5,-264.99"/>
<polygon fill="midnightblue" stroke="midnightblue" points="935,-264.75 931.5,-254.75 928,-264.75 935,-264.75"/>
</g>
<!-- Node22&#45;&gt;Node13 -->
<g id="edge26" class="edge">
<title>Node22&#45;&gt;Node13</title>
<path fill="none" stroke="midnightblue" d="M923.41,-235.08C916.34,-227.3 905.91,-215.8 897.35,-206.37"/>
<polygon fill="midnightblue" stroke="midnightblue" points="899.75,-203.8 890.44,-198.75 894.57,-208.51 899.75,-203.8"/>
</g>
<!-- Node23&#45;&gt;Node17 -->
<g id="edge29" class="edge">
<title>Node23&#45;&gt;Node17</title>
<path fill="none" stroke="midnightblue" d="M743.22,-235.08C733.58,-208.83 705.18,-131.55 692.16,-96.12"/>
<polygon fill="midnightblue" stroke="midnightblue" points="695.38,-94.75 688.65,-86.57 688.81,-97.16 695.38,-94.75"/>
</g>
<!-- Node24&#45;&gt;Node14 -->
<g id="edge32" class="edge">
<title>Node24&#45;&gt;Node14</title>
<path fill="none" stroke="midnightblue" d="M624.19,-123.12C626.63,-110.56 631.41,-86.91 636.5,-67 639.27,-56.18 642.81,-44.2 645.75,-34.62"/>
<polygon fill="midnightblue" stroke="midnightblue" points="649.11,-35.61 648.75,-25.02 642.43,-33.52 649.11,-35.61"/>
</g>
<!-- Node24&#45;&gt;Node17 -->
<g id="edge31" class="edge">
<title>Node24&#45;&gt;Node17</title>
<path fill="none" stroke="midnightblue" d="M632.62,-123.32C642.03,-115.26 656.24,-103.08 667.57,-93.37"/>
<polygon fill="midnightblue" stroke="midnightblue" points="669.88,-96 675.19,-86.83 665.32,-90.68 669.88,-96"/>
</g>
<!-- Node25 -->
<g id="node25" class="node">
<title>Node25</title>
<g id="a_node25"><a xlink:href="https://www.itk.org/Doxygen/html/itkMakeFilled_8h.html" xlink:title=" ">
<polygon fill="white" stroke="black" points="210,-6 210,-25 301,-25 301,-6 210,-6"/>
<text text-anchor="middle" x="255.5" y="-13" font-family="Helvetica,sans-Serif" font-size="10.00">itkMakeFilled.h</text>
</a>
</g>
</g>
<!-- Node24&#45;&gt;Node25 -->
<g id="edge33" class="edge">
<title>Node24&#45;&gt;Node25</title>
<path fill="none" stroke="midnightblue" d="M592.84,-129.16C518.57,-121.88 328.86,-102 304.5,-87 284.53,-74.7 270.6,-50.89 262.83,-34.36"/>
<polygon fill="midnightblue" stroke="midnightblue" points="266.02,-32.92 258.78,-25.18 259.61,-35.74 266.02,-32.92"/>
</g>
<!-- Node27 -->
<g id="node27" class="node">
<title>Node27</title>
<g id="a_node27"><a xlink:href="https://www.itk.org/Doxygen/html/itkPoint_8h.html" xlink:title=" ">
<polygon fill="white" stroke="black" points="364,-291.5 364,-310.5 427,-310.5 427,-291.5 364,-291.5"/>
<text text-anchor="middle" x="395.5" y="-298.5" font-family="Helvetica,sans-Serif" font-size="10.00">itkPoint.h</text>
</a>
</g>
</g>
<!-- Node26&#45;&gt;Node27 -->
<g id="edge35" class="edge">
<title>Node26&#45;&gt;Node27</title>
<path fill="none" stroke="midnightblue" d="M529.16,-403.49C535.78,-390.12 545.81,-363.97 533.5,-347 511.66,-316.91 469.16,-306.56 437.07,-303.18"/>
<polygon fill="midnightblue" stroke="midnightblue" points="437.32,-299.69 427.05,-302.32 436.71,-306.67 437.32,-299.69"/>
</g>
<!-- Node36 -->
<g id="node36" class="node">
<title>Node36</title>
<g id="a_node36"><a xlink:href="https://www.itk.org/Doxygen/html/itkIndex_8h.html" xlink:title=" ">
<polygon fill="white" stroke="black" points="460,-347.5 460,-366.5 525,-366.5 525,-347.5 460,-347.5"/>
<text text-anchor="middle" x="492.5" y="-354.5" font-family="Helvetica,sans-Serif" font-size="10.00">itkIndex.h</text>
</a>
</g>
</g>
<!-- Node26&#45;&gt;Node36 -->
<g id="edge54" class="edge">
<title>Node26&#45;&gt;Node36</title>
<path fill="none" stroke="midnightblue" d="M519.22,-403.08C514.79,-395.61 508.34,-384.72 502.88,-375.52"/>
<polygon fill="midnightblue" stroke="midnightblue" points="505.79,-373.57 497.69,-366.75 499.77,-377.14 505.79,-373.57"/>
</g>
<!-- Node28 -->
<g id="node28" class="node">
<title>Node28</title>
<g id="a_node28"><a xlink:href="https://www.itk.org/Doxygen/html/itkNumericTraits_8h.html" xlink:title=" ">
<polygon fill="white" stroke="black" points="378.5,-123.5 378.5,-142.5 484.5,-142.5 484.5,-123.5 378.5,-123.5"/>
<text text-anchor="middle" x="431.5" y="-130.5" font-family="Helvetica,sans-Serif" font-size="10.00">itkNumericTraits.h</text>
</a>
</g>
</g>
<!-- Node27&#45;&gt;Node28 -->
<g id="edge36" class="edge">
<title>Node27&#45;&gt;Node28</title>
<path fill="none" stroke="midnightblue" d="M387.41,-291.32C369.28,-270.78 328.7,-217.98 351.5,-179 360.36,-163.85 376.41,-153.41 391.81,-146.42"/>
<polygon fill="midnightblue" stroke="midnightblue" points="393.35,-149.57 401.25,-142.51 390.67,-143.11 393.35,-149.57"/>
</g>
<!-- Node31 -->
<g id="node31" class="node">
<title>Node31</title>
<g id="a_node31"><a xlink:href="https://www.itk.org/Doxygen/html/itkVector_8h.html" xlink:title=" ">
<polygon fill="white" stroke="black" points="260.5,-235.5 260.5,-254.5 328.5,-254.5 328.5,-235.5 260.5,-235.5"/>
<text text-anchor="middle" x="294.5" y="-242.5" font-family="Helvetica,sans-Serif" font-size="10.00">itkVector.h</text>
</a>
</g>
</g>
<!-- Node27&#45;&gt;Node31 -->
<g id="edge44" class="edge">
<title>Node27&#45;&gt;Node31</title>
<path fill="none" stroke="midnightblue" d="M379.27,-291.32C363.15,-282.7 338.2,-269.36 319.54,-259.39"/>
<polygon fill="midnightblue" stroke="midnightblue" points="321.16,-256.28 310.69,-254.65 317.86,-262.46 321.16,-256.28"/>
</g>
<!-- Node27&#45;&gt;Node32 -->
<g id="edge46" class="edge">
<title>Node27&#45;&gt;Node32</title>
<path fill="none" stroke="midnightblue" d="M415.31,-291.44C435.79,-282.6 467.98,-268.69 491.36,-258.59"/>
<polygon fill="midnightblue" stroke="midnightblue" points="492.99,-261.7 500.79,-254.52 490.22,-255.27 492.99,-261.7"/>
</g>
<!-- Node28&#45;&gt;Node14 -->
<g id="edge37" class="edge">
<title>Node28&#45;&gt;Node14</title>
<path fill="none" stroke="midnightblue" d="M437.41,-123.06C447.08,-109.1 467.64,-82.14 491.5,-67 527.16,-44.37 573.75,-31.17 607.46,-23.98"/>
<polygon fill="midnightblue" stroke="midnightblue" points="608.38,-27.37 617.48,-21.94 606.98,-20.51 608.38,-27.37"/>
</g>
<!-- Node29 -->
<g id="node29" class="node">
<title>Node29</title>
<g id="a_node29"><a xlink:href="https://www.itk.org/Doxygen/html/itkFixedArray_8h.html" xlink:title=" ">
<polygon fill="white" stroke="black" points="314,-67.5 314,-86.5 403,-86.5 403,-67.5 314,-67.5"/>
<text text-anchor="middle" x="358.5" y="-74.5" font-family="Helvetica,sans-Serif" font-size="10.00">itkFixedArray.h</text>
</a>
</g>
</g>
<!-- Node28&#45;&gt;Node29 -->
<g id="edge38" class="edge">
<title>Node28&#45;&gt;Node29</title>
<path fill="none" stroke="midnightblue" d="M419.77,-123.32C408.66,-115.11 391.76,-102.6 378.52,-92.81"/>
<polygon fill="midnightblue" stroke="midnightblue" points="380.56,-89.97 370.44,-86.83 376.4,-95.59 380.56,-89.97"/>
</g>
<!-- Node29&#45;&gt;Node14 -->
<g id="edge39" class="edge">
<title>Node29&#45;&gt;Node14</title>
<path fill="none" stroke="midnightblue" d="M400.48,-67.48C455.45,-56.31 551.38,-36.83 607.38,-25.46"/>
<polygon fill="midnightblue" stroke="midnightblue" points="608.26,-28.85 617.36,-23.43 606.86,-21.99 608.26,-28.85"/>
</g>
<!-- Node29&#45;&gt;Node25 -->
<g id="edge40" class="edge">
<title>Node29&#45;&gt;Node25</title>
<path fill="none" stroke="midnightblue" d="M343.74,-67.48C326.84,-57.71 298.92,-41.58 279.01,-30.08"/>
<polygon fill="midnightblue" stroke="midnightblue" points="280.64,-26.98 270.23,-25.01 277.14,-33.04 280.64,-26.98"/>
</g>
<!-- Node30 -->
<g id="node30" class="node">
<title>Node30</title>
<g id="a_node30"><a xlink:href="https://www.itk.org/Doxygen/html/itkNumericTraitsFixedArrayPixel_8h.html" xlink:title=" ">
<polygon fill="white" stroke="black" points="319,-0.5 319,-30.5 468,-30.5 468,-0.5 319,-0.5"/>
<text text-anchor="start" x="327" y="-18.5" font-family="Helvetica,sans-Serif" font-size="10.00">itkNumericTraitsFixedArray</text>
<text text-anchor="middle" x="393.5" y="-7.5" font-family="Helvetica,sans-Serif" font-size="10.00">Pixel.h</text>
</a>
</g>
</g>
<!-- Node29&#45;&gt;Node30 -->
<g id="edge41" class="edge">
<title>Node29&#45;&gt;Node30</title>
<path fill="none" stroke="midnightblue" d="M358.61,-67.48C361.37,-60.02 367.39,-48.85 373.78,-38.87"/>
<polygon fill="midnightblue" stroke="midnightblue" points="376.72,-40.77 379.42,-30.52 370.92,-36.85 376.72,-40.77"/>
</g>
<!-- Node30&#45;&gt;Node28 -->
<g id="edge42" class="edge">
<title>Node30&#45;&gt;Node28</title>
<path fill="none" stroke="midnightblue" d="M398.71,-30.59C402.4,-40.69 407.4,-54.63 411.5,-67 416.67,-82.58 422.13,-100.42 426.03,-113.46"/>
<polygon fill="midnightblue" stroke="midnightblue" points="422.7,-114.54 428.91,-123.13 429.41,-112.55 422.7,-114.54"/>
</g>
<!-- Node30&#45;&gt;Node29 -->
<g id="edge43" class="edge">
<title>Node30&#45;&gt;Node29</title>
<path fill="none" stroke="midnightblue" d="M391.08,-30.52C387.13,-39.12 380.73,-50.19 374.5,-59.25"/>
<polygon fill="midnightblue" stroke="midnightblue" points="371.54,-57.35 368.42,-67.48 377.17,-61.51 371.54,-57.35"/>
</g>
<!-- Node31&#45;&gt;Node29 -->
<g id="edge45" class="edge">
<title>Node31&#45;&gt;Node29</title>
<path fill="none" stroke="midnightblue" d="M297.94,-235.08C308.06,-208.83 337.86,-131.55 351.52,-96.12"/>
<polygon fill="midnightblue" stroke="midnightblue" points="354.86,-97.16 355.2,-86.57 348.33,-94.64 354.86,-97.16"/>
</g>
<!-- Node33 -->
<g id="node33" class="node">
<title>Node33</title>
<g id="a_node33"><a xlink:href="https://www.itk.org/Doxygen/html/itkMathDetail_8h.html" xlink:title=" ">
<polygon fill="white" stroke="black" points="502.5,-179.5 502.5,-198.5 594.5,-198.5 594.5,-179.5 502.5,-179.5"/>
<text text-anchor="middle" x="548.5" y="-186.5" font-family="Helvetica,sans-Serif" font-size="10.00">itkMathDetail.h</text>
</a>
</g>
</g>
<!-- Node32&#45;&gt;Node33 -->
<g id="edge47" class="edge">
<title>Node32&#45;&gt;Node33</title>
<path fill="none" stroke="midnightblue" d="M525.12,-235.08C528.96,-227.69 534.52,-216.95 539.26,-207.81"/>
<polygon fill="midnightblue" stroke="midnightblue" points="542.47,-209.24 543.96,-198.75 536.25,-206.02 542.47,-209.24"/>
</g>
<!-- Node34 -->
<g id="node34" class="node">
<title>Node34</title>
<g id="a_node34"><a xlink:href="https://www.itk.org/Doxygen/html/itkConceptChecking_8h.html" xlink:title=" ">
<polygon fill="white" stroke="black" points="361,-179.5 361,-198.5 484,-198.5 484,-179.5 361,-179.5"/>
<text text-anchor="middle" x="422.5" y="-186.5" font-family="Helvetica,sans-Serif" font-size="10.00">itkConceptChecking.h</text>
</a>
</g>
</g>
<!-- Node32&#45;&gt;Node34 -->
<g id="edge50" class="edge">
<title>Node32&#45;&gt;Node34</title>
<path fill="none" stroke="midnightblue" d="M504.75,-235.32C489.18,-226.74 465.12,-213.49 447.04,-203.52"/>
<polygon fill="midnightblue" stroke="midnightblue" points="448.65,-200.42 438.21,-198.65 445.28,-206.55 448.65,-200.42"/>
</g>
<!-- Node33&#45;&gt;Node17 -->
<g id="edge48" class="edge">
<title>Node33&#45;&gt;Node17</title>
<path fill="none" stroke="midnightblue" d="M551.14,-179.27C555.68,-165.58 566.18,-139.01 583.5,-123 600.04,-107.71 622.61,-97.03 642.32,-89.92"/>
<polygon fill="midnightblue" stroke="midnightblue" points="643.68,-93.15 652.02,-86.61 641.42,-86.52 643.68,-93.15"/>
</g>
<!-- Node33&#45;&gt;Node28 -->
<g id="edge49" class="edge">
<title>Node33&#45;&gt;Node28</title>
<path fill="none" stroke="midnightblue" d="M529.96,-179.44C510.88,-170.64 480.93,-156.81 459.06,-146.72"/>
<polygon fill="midnightblue" stroke="midnightblue" points="460.5,-143.53 449.95,-142.52 457.57,-149.88 460.5,-143.53"/>
</g>
<!-- Node34&#45;&gt;Node28 -->
<g id="edge53" class="edge">
<title>Node34&#45;&gt;Node28</title>
<path fill="none" stroke="midnightblue" d="M423.99,-179.08C425.18,-171.93 426.89,-161.64 428.38,-152.69"/>
<polygon fill="midnightblue" stroke="midnightblue" points="431.85,-153.19 430.04,-142.75 424.95,-152.04 431.85,-153.19"/>
</g>
<!-- Node35 -->
<g id="node35" class="node">
<title>Node35</title>
<g id="a_node35"><a xlink:href="https://www.itk.org/Doxygen/html/itkPixelTraits_8h.html" xlink:title=" ">
<polygon fill="white" stroke="black" points="500.5,-67.5 500.5,-86.5 588.5,-86.5 588.5,-67.5 500.5,-67.5"/>
<text text-anchor="middle" x="544.5" y="-74.5" font-family="Helvetica,sans-Serif" font-size="10.00">itkPixelTraits.h</text>
</a>
</g>
</g>
<!-- Node34&#45;&gt;Node35 -->
<g id="edge51" class="edge">
<title>Node34&#45;&gt;Node35</title>
<path fill="none" stroke="midnightblue" d="M439.39,-179.44C454.52,-171.3 476.83,-158.07 493.5,-143 509.23,-128.77 523.81,-109.29 533.31,-95.38"/>
<polygon fill="midnightblue" stroke="midnightblue" points="536.41,-97.03 539.03,-86.76 530.58,-93.16 536.41,-97.03"/>
</g>
<!-- Node35&#45;&gt;Node14 -->
<g id="edge52" class="edge">
<title>Node35&#45;&gt;Node14</title>
<path fill="none" stroke="midnightblue" d="M559.83,-67.48C577.47,-57.67 606.66,-41.43 627.36,-29.92"/>
<polygon fill="midnightblue" stroke="midnightblue" points="629.16,-32.93 636.2,-25.01 625.76,-26.81 629.16,-32.93"/>
</g>
<!-- Node36&#45;&gt;Node25 -->
<g id="edge55" class="edge">
<title>Node36&#45;&gt;Node25</title>
<path fill="none" stroke="midnightblue" d="M461.24,-347.5C432.89,-339.39 390.21,-326.2 354.5,-311 297.97,-286.94 232.5,-307.44 232.5,-246 232.5,-246 232.5,-246 232.5,-132 232.5,-97.03 242.76,-57.24 249.58,-34.67"/>
<polygon fill="midnightblue" stroke="midnightblue" points="252.94,-35.67 252.59,-25.08 246.26,-33.57 252.94,-35.67"/>
</g>
<!-- Node37 -->
<g id="node37" class="node">
<title>Node37</title>
<g id="a_node37"><a xlink:href="https://www.itk.org/Doxygen/html/itkOffset_8h.html" xlink:title=" ">
<polygon fill="white" stroke="black" points="486.5,-291.5 486.5,-310.5 554.5,-310.5 554.5,-291.5 486.5,-291.5"/>
<text text-anchor="middle" x="520.5" y="-298.5" font-family="Helvetica,sans-Serif" font-size="10.00">itkOffset.h</text>
</a>
</g>
</g>
<!-- Node36&#45;&gt;Node37 -->
<g id="edge56" class="edge">
<title>Node36&#45;&gt;Node37</title>
<path fill="none" stroke="midnightblue" d="M497.12,-347.08C500.96,-339.69 506.52,-328.95 511.26,-319.81"/>
<polygon fill="midnightblue" stroke="midnightblue" points="514.47,-321.24 515.96,-310.75 508.25,-318.02 514.47,-321.24"/>
</g>
<!-- Node37&#45;&gt;Node24 -->
<g id="edge57" class="edge">
<title>Node37&#45;&gt;Node24</title>
<path fill="none" stroke="midnightblue" d="M530.04,-291.25C547.34,-274.85 583.88,-237.66 603.5,-199 610.98,-184.26 615.98,-166.1 618.96,-152.72"/>
<polygon fill="midnightblue" stroke="midnightblue" points="622.42,-153.3 621,-142.8 615.56,-151.88 622.42,-153.3"/>
</g>
<!-- Node37&#45;&gt;Node32 -->
<g id="edge58" class="edge">
<title>Node37&#45;&gt;Node32</title>
<path fill="none" stroke="midnightblue" d="M520.5,-291.08C520.5,-284.01 520.5,-273.86 520.5,-264.99"/>
<polygon fill="midnightblue" stroke="midnightblue" points="524,-264.75 520.5,-254.75 517,-264.75 524,-264.75"/>
</g>
</g>
</svg>
