<?xml version="1.0" encoding="UTF-8" standalone="no"?>
<!DOCTYPE svg PUBLIC "-//W3C//DTD SVG 1.1//EN"
 "http://www.w3.org/Graphics/SVG/1.1/DTD/svg11.dtd">
<!-- Generated by graphviz version 2.43.0 (0)
 -->
<!-- Title: sitkDualMemberFunctionFactory.h Pages: 1 -->
<!--zoomable 400 -->
<svg id="main" version="1.1" xmlns="http://www.w3.org/2000/svg" xmlns:xlink="http://www.w3.org/1999/xlink" xml:space="preserve" onload="init(evt)">
<style type="text/css"><![CDATA[
.edge:hover path { stroke: red; }
.edge:hover polygon { stroke: red; fill: red; }
]]></style>
<script type="text/javascript"><![CDATA[
var edges = document.getElementsByTagName('g');
if (edges && edges.length) {
  for (var i=0;i<edges.length;i++) {
    if (edges[i].id.substr(0,4)=='edge') {
      edges[i].setAttribute('class','edge');
    }
  }
}
]]></script>
        <defs>
                <circle id="rim" cx="0" cy="0" r="7"/>
                <circle id="rim2" cx="0" cy="0" r="3.5"/>
                <g id="zoomPlus">
                        <use xlink:href="#rim" fill="#404040">
                                <set attributeName="fill" to="#808080" begin="zoomplus.mouseover" end="zoomplus.mouseout"/>
                        </use>
                        <path d="M-4,0h8M0,-4v8" fill="none" stroke="white" stroke-width="1.5" pointer-events="none"/>
                </g>
                <g id="zoomMin">
                        <use xlink:href="#rim" fill="#404040">
                                <set attributeName="fill" to="#808080" begin="zoomminus.mouseover" end="zoomminus.mouseout"/>
                        </use>
                        <path d="M-4,0h8" fill="none" stroke="white" stroke-width="1.5" pointer-events="none"/>
                </g>
                <g id="dirArrow">
                        <path fill="none" stroke="white" stroke-width="1.5" d="M0,-3.0v7 M-2.5,-0.5L0,-3.0L2.5,-0.5"/>
                </g>
               <g id="resetDef">
                       <use xlink:href="#rim2" fill="#404040">
                               <set attributeName="fill" to="#808080" begin="reset.mouseover" end="reset.mouseout"/>
                       </use>
               </g>
        </defs>

<script type="text/javascript">
var viewWidth = 1147;
var viewHeight = 400;
var sectionId = 'dynsection-0';
</script>
<script xlink:href="svgpan.js"/>
<svg id="graph" class="graph">
<g id="viewport">
<title>sitkDualMemberFunctionFactory.h</title>
<polygon fill="white" stroke="transparent" points="-4,4 -4,-395.56 1143,-395.56 1143,4 -4,4"/>
<!-- Node1 -->
<g id="node1" class="node">
<title>Node1</title>
<g id="a_node1"><a xlink:title=" ">
<polygon fill="#bfbfbf" stroke="black" points="544.5,-369.5 544.5,-388.5 726.5,-388.5 726.5,-369.5 544.5,-369.5"/>
<text text-anchor="middle" x="635.5" y="-376.5" font-family="Helvetica,sans-Serif" font-size="10.00">sitkDualMemberFunctionFactory.h</text>
</a>
</g>
</g>
<!-- Node1&#45;&gt;Node1 -->
<g id="edge29" class="edge">
<title>Node1&#45;&gt;Node1</title>
<path fill="none" stroke="midnightblue" d="M669.26,-388.52C704.68,-394.39 744.5,-391.21 744.5,-379 744.5,-367.93 711.8,-364.29 679.3,-368.07"/>
<polygon fill="midnightblue" stroke="midnightblue" points="678.67,-364.62 669.26,-369.48 679.65,-371.56 678.67,-364.62"/>
</g>
<!-- Node2 -->
<g id="node2" class="node">
<title>Node2</title>
<g id="a_node2"><a xlink:href="sitkDetail_8h.html" target="_top" xlink:title=" ">
<polygon fill="white" stroke="black" points="447,-302.5 447,-321.5 520,-321.5 520,-302.5 447,-302.5"/>
<text text-anchor="middle" x="483.5" y="-309.5" font-family="Helvetica,sans-Serif" font-size="10.00">sitkDetail.h</text>
</a>
</g>
</g>
<!-- Node1&#45;&gt;Node2 -->
<g id="edge1" class="edge">
<title>Node1&#45;&gt;Node2</title>
<path fill="none" stroke="midnightblue" d="M615.16,-369.43C593.8,-360.41 559.26,-345.79 529.5,-333 523.96,-330.62 518.06,-328.07 512.39,-325.61"/>
<polygon fill="midnightblue" stroke="midnightblue" points="513.75,-322.38 503.18,-321.6 510.96,-328.8 513.75,-322.38"/>
</g>
<!-- Node3 -->
<g id="node3" class="node">
<title>Node3</title>
<g id="a_node3"><a xlink:href="sitkMemberFunctionFactoryBase_8h.html" target="_top" xlink:title=" ">
<polygon fill="white" stroke="black" points="342.5,-224.5 342.5,-254.5 494.5,-254.5 494.5,-224.5 342.5,-224.5"/>
<text text-anchor="start" x="350.5" y="-242.5" font-family="Helvetica,sans-Serif" font-size="10.00">sitkMemberFunctionFactory</text>
<text text-anchor="middle" x="418.5" y="-231.5" font-family="Helvetica,sans-Serif" font-size="10.00">Base.h</text>
</a>
</g>
</g>
<!-- Node1&#45;&gt;Node3 -->
<g id="edge27" class="edge">
<title>Node1&#45;&gt;Node3</title>
<path fill="none" stroke="midnightblue" d="M560.76,-369.48C512.16,-362.39 454.73,-350.6 437.5,-333 419.92,-315.05 416.58,-285.43 416.73,-264.55"/>
<polygon fill="midnightblue" stroke="midnightblue" points="420.23,-264.66 417.07,-254.54 413.23,-264.42 420.23,-264.66"/>
</g>
<!-- Node21 -->
<g id="node21" class="node">
<title>Node21</title>
<g id="a_node21"><a xlink:title=" ">
<polygon fill="white" stroke="#bfbfbf" points="538.5,-302.5 538.5,-321.5 732.5,-321.5 732.5,-302.5 538.5,-302.5"/>
<text text-anchor="middle" x="635.5" y="-309.5" font-family="Helvetica,sans-Serif" font-size="10.00">sitkDualMemberFunctionFactory.hxx</text>
</a>
</g>
</g>
<!-- Node1&#45;&gt;Node21 -->
<g id="edge28" class="edge">
<title>Node1&#45;&gt;Node21</title>
<path fill="none" stroke="midnightblue" d="M635.5,-369.23C635.5,-359.68 635.5,-344.12 635.5,-331.78"/>
<polygon fill="midnightblue" stroke="midnightblue" points="639,-331.63 635.5,-321.63 632,-331.63 639,-331.63"/>
</g>
<!-- Node22 -->
<g id="node22" class="node">
<title>Node22</title>
<g id="a_node22"><a xlink:title=" ">
<polygon fill="white" stroke="#bfbfbf" points="751,-297 751,-327 950,-327 950,-297 751,-297"/>
<text text-anchor="start" x="759" y="-315" font-family="Helvetica,sans-Serif" font-size="10.00">/work/SimpleITK/Code</text>
<text text-anchor="middle" x="850.5" y="-304" font-family="Helvetica,sans-Serif" font-size="10.00">/Common/include/sitkPixelIDTokens.h</text>
</a>
</g>
</g>
<!-- Node1&#45;&gt;Node22 -->
<g id="edge30" class="edge">
<title>Node1&#45;&gt;Node22</title>
<path fill="none" stroke="midnightblue" d="M664.05,-369.37C697.15,-359.36 752.5,-342.63 794.32,-329.98"/>
<polygon fill="midnightblue" stroke="midnightblue" points="795.54,-333.27 804.1,-327.03 793.51,-326.57 795.54,-333.27"/>
</g>
<!-- Node23 -->
<g id="node23" class="node">
<title>Node23</title>
<g id="a_node23"><a xlink:title=" ">
<polygon fill="white" stroke="#bfbfbf" points="968,-291.5 968,-332.5 1139,-332.5 1139,-291.5 968,-291.5"/>
<text text-anchor="start" x="976" y="-320.5" font-family="Helvetica,sans-Serif" font-size="10.00">/work/SimpleITK/Code</text>
<text text-anchor="start" x="976" y="-309.5" font-family="Helvetica,sans-Serif" font-size="10.00">/Common/include/sitkException</text>
<text text-anchor="middle" x="1053.5" y="-298.5" font-family="Helvetica,sans-Serif" font-size="10.00">Object.h</text>
</a>
</g>
</g>
<!-- Node1&#45;&gt;Node23 -->
<g id="edge31" class="edge">
<title>Node1&#45;&gt;Node23</title>
<path fill="none" stroke="midnightblue" d="M707.8,-369.46C771.3,-361.62 866.39,-349.05 958,-333.21"/>
<polygon fill="midnightblue" stroke="midnightblue" points="958.74,-336.63 967.99,-331.46 957.54,-329.74 958.74,-336.63"/>
</g>
<!-- Node2&#45;&gt;Node3 -->
<g id="edge2" class="edge">
<title>Node2&#45;&gt;Node3</title>
<path fill="none" stroke="midnightblue" d="M475.53,-302.36C466.35,-292.4 450.92,-275.67 438.43,-262.11"/>
<polygon fill="midnightblue" stroke="midnightblue" points="440.83,-259.56 431.48,-254.58 435.68,-264.3 440.83,-259.56"/>
</g>
<!-- Node17 -->
<g id="node17" class="node">
<title>Node17</title>
<g id="a_node17"><a xlink:title=" ">
<polygon fill="white" stroke="#bfbfbf" points="674,-168.5 674,-187.5 813,-187.5 813,-168.5 674,-168.5"/>
<text text-anchor="middle" x="743.5" y="-175.5" font-family="Helvetica,sans-Serif" font-size="10.00">Ancillary/FunctionTraits.h</text>
</a>
</g>
</g>
<!-- Node2&#45;&gt;Node17 -->
<g id="edge26" class="edge">
<title>Node2&#45;&gt;Node17</title>
<path fill="none" stroke="midnightblue" d="M500.56,-302.34C545.02,-279.77 664.64,-219.04 717.63,-192.13"/>
<polygon fill="midnightblue" stroke="midnightblue" points="719.38,-195.17 726.72,-187.52 716.21,-188.93 719.38,-195.17"/>
</g>
<!-- Node4 -->
<g id="node4" class="node">
<title>Node4</title>
<g id="a_node4"><a xlink:href="sitkConfigure_8h.html" target="_top" xlink:title=" ">
<polygon fill="white" stroke="black" points="424.5,-0.5 424.5,-19.5 514.5,-19.5 514.5,-0.5 424.5,-0.5"/>
<text text-anchor="middle" x="469.5" y="-7.5" font-family="Helvetica,sans-Serif" font-size="10.00">sitkConfigure.h</text>
</a>
</g>
</g>
<!-- Node3&#45;&gt;Node4 -->
<g id="edge3" class="edge">
<title>Node3&#45;&gt;Node4</title>
<path fill="none" stroke="midnightblue" d="M494.89,-233.58C531.86,-227.57 574.6,-214.8 604.5,-188 624.41,-170.15 621.52,-158.27 626.5,-132 637.55,-73.67 562.42,-39.01 512.24,-22.61"/>
<polygon fill="midnightblue" stroke="midnightblue" points="513.16,-19.23 502.57,-19.57 511.06,-25.9 513.16,-19.23"/>
</g>
<!-- Node5 -->
<g id="node5" class="node">
<title>Node5</title>
<g id="a_node5"><a xlink:href="sitkPixelIDTypes_8h.html" target="_top" xlink:title=" ">
<polygon fill="white" stroke="black" points="183,-112.5 183,-131.5 288,-131.5 288,-112.5 183,-112.5"/>
<text text-anchor="middle" x="235.5" y="-119.5" font-family="Helvetica,sans-Serif" font-size="10.00">sitkPixelIDTypes.h</text>
</a>
</g>
</g>
<!-- Node3&#45;&gt;Node5 -->
<g id="edge4" class="edge">
<title>Node3&#45;&gt;Node5</title>
<path fill="none" stroke="midnightblue" d="M342.37,-231.42C284.91,-224.32 212.92,-211.04 194.5,-188 181.66,-171.94 199.14,-151.66 215.09,-138.06"/>
<polygon fill="midnightblue" stroke="midnightblue" points="217.51,-140.6 223.12,-131.61 213.13,-135.14 217.51,-140.6"/>
</g>
<!-- Node6 -->
<g id="node6" class="node">
<title>Node6</title>
<g id="a_node6"><a xlink:href="sitkPixelIDTypeLists_8h.html" target="_top" xlink:title=" ">
<polygon fill="white" stroke="black" points="457.5,-168.5 457.5,-187.5 579.5,-187.5 579.5,-168.5 457.5,-168.5"/>
<text text-anchor="middle" x="518.5" y="-175.5" font-family="Helvetica,sans-Serif" font-size="10.00">sitkPixelIDTypeLists.h</text>
</a>
</g>
</g>
<!-- Node3&#45;&gt;Node6 -->
<g id="edge5" class="edge">
<title>Node3&#45;&gt;Node6</title>
<path fill="none" stroke="midnightblue" d="M442.2,-224.4C458.23,-214.86 479.3,-202.32 495.24,-192.84"/>
<polygon fill="midnightblue" stroke="midnightblue" points="497.14,-195.78 503.95,-187.66 493.57,-189.76 497.14,-195.78"/>
</g>
<!-- Node8 -->
<g id="node8" class="node">
<title>Node8</title>
<g id="a_node8"><a xlink:title=" ">
<polygon fill="white" stroke="#bfbfbf" points="498,-112.5 498,-131.5 617,-131.5 617,-112.5 498,-112.5"/>
<text text-anchor="middle" x="557.5" y="-119.5" font-family="Helvetica,sans-Serif" font-size="10.00">Ancillary/type_list2.h</text>
</a>
</g>
</g>
<!-- Node3&#45;&gt;Node8 -->
<g id="edge21" class="edge">
<title>Node3&#45;&gt;Node8</title>
<path fill="none" stroke="midnightblue" d="M494.66,-225.09C534.22,-216.42 576.72,-203.79 588.5,-188 599.87,-172.75 586.78,-152.67 574.28,-138.89"/>
<polygon fill="midnightblue" stroke="midnightblue" points="576.66,-136.31 567.18,-131.58 571.64,-141.19 576.66,-136.31"/>
</g>
<!-- Node10 -->
<g id="node10" class="node">
<title>Node10</title>
<g id="a_node10"><a xlink:href="sitkMacro_8h.html" target="_top" xlink:title=" ">
<polygon fill="white" stroke="black" points="119.5,-56.5 119.5,-75.5 193.5,-75.5 193.5,-56.5 119.5,-56.5"/>
<text text-anchor="middle" x="156.5" y="-63.5" font-family="Helvetica,sans-Serif" font-size="10.00">sitkMacro.h</text>
</a>
</g>
</g>
<!-- Node3&#45;&gt;Node10 -->
<g id="edge11" class="edge">
<title>Node3&#45;&gt;Node10</title>
<path fill="none" stroke="midnightblue" d="M342.33,-230.62C283.5,-223 208.52,-209.4 186.5,-188 158.78,-161.07 155.14,-112.83 155.47,-86.12"/>
<polygon fill="midnightblue" stroke="midnightblue" points="158.97,-85.92 155.81,-75.81 151.98,-85.69 158.97,-85.92"/>
</g>
<!-- Node15 -->
<g id="node15" class="node">
<title>Node15</title>
<g id="a_node15"><a xlink:href="sitkNonCopyable_8h.html" target="_top" xlink:title=" ">
<polygon fill="white" stroke="black" points="0,-168.5 0,-187.5 109,-187.5 109,-168.5 0,-168.5"/>
<text text-anchor="middle" x="54.5" y="-175.5" font-family="Helvetica,sans-Serif" font-size="10.00">sitkNonCopyable.h</text>
</a>
</g>
</g>
<!-- Node3&#45;&gt;Node15 -->
<g id="edge18" class="edge">
<title>Node3&#45;&gt;Node15</title>
<path fill="none" stroke="midnightblue" d="M342.19,-226.03C275.25,-215.08 179.11,-199.37 116.73,-189.17"/>
<polygon fill="midnightblue" stroke="midnightblue" points="117.07,-185.68 106.64,-187.52 115.94,-192.59 117.07,-185.68"/>
</g>
<!-- Node3&#45;&gt;Node17 -->
<g id="edge22" class="edge">
<title>Node3&#45;&gt;Node17</title>
<path fill="none" stroke="midnightblue" d="M494.7,-224.55C553.57,-213.77 633.73,-199.1 686.97,-189.35"/>
<polygon fill="midnightblue" stroke="midnightblue" points="687.71,-192.77 696.92,-187.53 686.45,-185.89 687.71,-192.77"/>
</g>
<!-- Node18 -->
<g id="node18" class="node">
<title>Node18</title>
<g id="a_node18"><a xlink:title=" ">
<polygon fill="white" stroke="#bfbfbf" points="204,-168.5 204,-187.5 297,-187.5 297,-168.5 204,-168.5"/>
<text text-anchor="middle" x="250.5" y="-175.5" font-family="Helvetica,sans-Serif" font-size="10.00">unordered_map</text>
</a>
</g>
</g>
<!-- Node3&#45;&gt;Node18 -->
<g id="edge23" class="edge">
<title>Node3&#45;&gt;Node18</title>
<path fill="none" stroke="midnightblue" d="M378.69,-224.4C350,-214.24 311.69,-200.67 284.44,-191.02"/>
<polygon fill="midnightblue" stroke="midnightblue" points="285.54,-187.7 274.95,-187.66 283.2,-194.3 285.54,-187.7"/>
</g>
<!-- Node19 -->
<g id="node19" class="node">
<title>Node19</title>
<g id="a_node19"><a xlink:title=" ">
<polygon fill="white" stroke="#bfbfbf" points="315,-168.5 315,-187.5 380,-187.5 380,-168.5 315,-168.5"/>
<text text-anchor="middle" x="347.5" y="-175.5" font-family="Helvetica,sans-Serif" font-size="10.00">functional</text>
</a>
</g>
</g>
<!-- Node3&#45;&gt;Node19 -->
<g id="edge24" class="edge">
<title>Node3&#45;&gt;Node19</title>
<path fill="none" stroke="midnightblue" d="M401.67,-224.4C390.83,-215.31 376.72,-203.49 365.63,-194.19"/>
<polygon fill="midnightblue" stroke="midnightblue" points="367.74,-191.4 357.83,-187.66 363.25,-196.76 367.74,-191.4"/>
</g>
<!-- Node20 -->
<g id="node20" class="node">
<title>Node20</title>
<g id="a_node20"><a xlink:title=" ">
<polygon fill="white" stroke="#bfbfbf" points="398,-168.5 398,-187.5 439,-187.5 439,-168.5 398,-168.5"/>
<text text-anchor="middle" x="418.5" y="-175.5" font-family="Helvetica,sans-Serif" font-size="10.00">tuple</text>
</a>
</g>
</g>
<!-- Node3&#45;&gt;Node20 -->
<g id="edge25" class="edge">
<title>Node3&#45;&gt;Node20</title>
<path fill="none" stroke="midnightblue" d="M418.5,-224.4C418.5,-216.47 418.5,-206.46 418.5,-197.86"/>
<polygon fill="midnightblue" stroke="midnightblue" points="422,-197.66 418.5,-187.66 415,-197.66 422,-197.66"/>
</g>
<!-- Node6&#45;&gt;Node4 -->
<g id="edge7" class="edge">
<title>Node6&#45;&gt;Node4</title>
<path fill="none" stroke="midnightblue" d="M511.05,-168.34C504.05,-159.72 493.89,-145.82 488.5,-132 475.09,-97.61 471.13,-54.22 469.97,-29.85"/>
<polygon fill="midnightblue" stroke="midnightblue" points="473.46,-29.41 469.6,-19.54 466.46,-29.66 473.46,-29.41"/>
</g>
<!-- Node6&#45;&gt;Node5 -->
<g id="edge8" class="edge">
<title>Node6&#45;&gt;Node5</title>
<path fill="none" stroke="midnightblue" d="M473.66,-168.44C423.88,-158.94 343.52,-143.61 290.11,-133.42"/>
<polygon fill="midnightblue" stroke="midnightblue" points="290.61,-129.95 280.13,-131.52 289.3,-136.83 290.61,-129.95"/>
</g>
<!-- Node7 -->
<g id="node7" class="node">
<title>Node7</title>
<g id="a_node7"><a xlink:title=" ">
<polygon fill="white" stroke="#bfbfbf" points="312,-0.5 312,-19.5 365,-19.5 365,-0.5 312,-0.5"/>
<text text-anchor="middle" x="338.5" y="-7.5" font-family="Helvetica,sans-Serif" font-size="10.00">stdint.h</text>
</a>
</g>
</g>
<!-- Node6&#45;&gt;Node7 -->
<g id="edge6" class="edge">
<title>Node6&#45;&gt;Node7</title>
<path fill="none" stroke="midnightblue" d="M475.32,-168.47C437.67,-160.2 386.9,-146.76 372.5,-132 345.29,-104.1 339.5,-56.25 338.48,-29.85"/>
<polygon fill="midnightblue" stroke="midnightblue" points="341.98,-29.61 338.29,-19.68 334.98,-29.74 341.98,-29.61"/>
</g>
<!-- Node6&#45;&gt;Node8 -->
<g id="edge9" class="edge">
<title>Node6&#45;&gt;Node8</title>
<path fill="none" stroke="midnightblue" d="M524.94,-168.08C530.45,-160.46 538.53,-149.26 545.26,-139.94"/>
<polygon fill="midnightblue" stroke="midnightblue" points="548.16,-141.91 551.18,-131.75 542.49,-137.81 548.16,-141.91"/>
</g>
<!-- Node9 -->
<g id="node9" class="node">
<title>Node9</title>
<g id="a_node9"><a xlink:title=" ">
<polygon fill="white" stroke="#bfbfbf" points="382,-112.5 382,-131.5 441,-131.5 441,-112.5 382,-112.5"/>
<text text-anchor="middle" x="411.5" y="-119.5" font-family="Helvetica,sans-Serif" font-size="10.00">complex</text>
</a>
</g>
</g>
<!-- Node6&#45;&gt;Node9 -->
<g id="edge10" class="edge">
<title>Node6&#45;&gt;Node9</title>
<path fill="none" stroke="midnightblue" d="M501.31,-168.32C484.15,-159.66 457.55,-146.24 437.75,-136.25"/>
<polygon fill="midnightblue" stroke="midnightblue" points="439.15,-133.04 428.65,-131.65 436,-139.28 439.15,-133.04"/>
</g>
<!-- Node10&#45;&gt;Node4 -->
<g id="edge17" class="edge">
<title>Node10&#45;&gt;Node4</title>
<path fill="none" stroke="midnightblue" d="M193.63,-58.59C248.24,-49.17 350.59,-31.51 414.1,-20.56"/>
<polygon fill="midnightblue" stroke="midnightblue" points="415.07,-23.94 424.33,-18.79 413.88,-17.04 415.07,-23.94"/>
</g>
<!-- Node10&#45;&gt;Node7 -->
<g id="edge12" class="edge">
<title>Node10&#45;&gt;Node7</title>
<path fill="none" stroke="midnightblue" d="M185.34,-56.44C216.99,-47.05 267.87,-31.95 302.22,-21.77"/>
<polygon fill="midnightblue" stroke="midnightblue" points="303.28,-25.1 311.87,-18.9 301.29,-18.39 303.28,-25.1"/>
</g>
<!-- Node11 -->
<g id="node11" class="node">
<title>Node11</title>
<g id="a_node11"><a xlink:title=" ">
<polygon fill="white" stroke="#bfbfbf" points="162.5,-0.5 162.5,-19.5 218.5,-19.5 218.5,-0.5 162.5,-0.5"/>
<text text-anchor="middle" x="190.5" y="-7.5" font-family="Helvetica,sans-Serif" font-size="10.00">stddef.h</text>
</a>
</g>
</g>
<!-- Node10&#45;&gt;Node11 -->
<g id="edge13" class="edge">
<title>Node10&#45;&gt;Node11</title>
<path fill="none" stroke="midnightblue" d="M162.11,-56.08C166.87,-48.53 173.82,-37.49 179.65,-28.23"/>
<polygon fill="midnightblue" stroke="midnightblue" points="182.62,-30.08 184.99,-19.75 176.7,-26.35 182.62,-30.08"/>
</g>
<!-- Node12 -->
<g id="node12" class="node">
<title>Node12</title>
<g id="a_node12"><a xlink:title=" ">
<polygon fill="white" stroke="#bfbfbf" points="236.5,-0.5 236.5,-19.5 288.5,-19.5 288.5,-0.5 236.5,-0.5"/>
<text text-anchor="middle" x="262.5" y="-7.5" font-family="Helvetica,sans-Serif" font-size="10.00">cassert</text>
</a>
</g>
</g>
<!-- Node10&#45;&gt;Node12 -->
<g id="edge14" class="edge">
<title>Node10&#45;&gt;Node12</title>
<path fill="none" stroke="midnightblue" d="M173.53,-56.32C190.53,-47.66 216.88,-34.24 236.49,-24.25"/>
<polygon fill="midnightblue" stroke="midnightblue" points="238.19,-27.31 245.51,-19.65 235.01,-21.08 238.19,-27.31"/>
</g>
<!-- Node13 -->
<g id="node13" class="node">
<title>Node13</title>
<g id="a_node13"><a xlink:title=" ">
<polygon fill="white" stroke="#bfbfbf" points="26.5,-0.5 26.5,-19.5 82.5,-19.5 82.5,-0.5 26.5,-0.5"/>
<text text-anchor="middle" x="54.5" y="-7.5" font-family="Helvetica,sans-Serif" font-size="10.00">sstream</text>
</a>
</g>
</g>
<!-- Node10&#45;&gt;Node13 -->
<g id="edge15" class="edge">
<title>Node10&#45;&gt;Node13</title>
<path fill="none" stroke="midnightblue" d="M140.11,-56.32C123.83,-47.7 98.63,-34.36 79.78,-24.39"/>
<polygon fill="midnightblue" stroke="midnightblue" points="81.32,-21.24 70.85,-19.65 78.05,-27.43 81.32,-21.24"/>
</g>
<!-- Node14 -->
<g id="node14" class="node">
<title>Node14</title>
<g id="a_node14"><a xlink:title=" ">
<polygon fill="white" stroke="#bfbfbf" points="100.5,-0.5 100.5,-19.5 144.5,-19.5 144.5,-0.5 100.5,-0.5"/>
<text text-anchor="middle" x="122.5" y="-7.5" font-family="Helvetica,sans-Serif" font-size="10.00">limits</text>
</a>
</g>
</g>
<!-- Node10&#45;&gt;Node14 -->
<g id="edge16" class="edge">
<title>Node10&#45;&gt;Node14</title>
<path fill="none" stroke="midnightblue" d="M150.89,-56.08C146.13,-48.53 139.18,-37.49 133.35,-28.23"/>
<polygon fill="midnightblue" stroke="midnightblue" points="136.3,-26.35 128.01,-19.75 130.38,-30.08 136.3,-26.35"/>
</g>
<!-- Node16 -->
<g id="node16" class="node">
<title>Node16</title>
<g id="a_node16"><a xlink:href="sitkCommon_8h.html" target="_top" xlink:title=" ">
<polygon fill="white" stroke="black" points="16.5,-112.5 16.5,-131.5 104.5,-131.5 104.5,-112.5 16.5,-112.5"/>
<text text-anchor="middle" x="60.5" y="-119.5" font-family="Helvetica,sans-Serif" font-size="10.00">sitkCommon.h</text>
</a>
</g>
</g>
<!-- Node15&#45;&gt;Node16 -->
<g id="edge19" class="edge">
<title>Node15&#45;&gt;Node16</title>
<path fill="none" stroke="midnightblue" d="M55.49,-168.08C56.29,-160.93 57.43,-150.64 58.42,-141.69"/>
<polygon fill="midnightblue" stroke="midnightblue" points="61.9,-142.08 59.53,-131.75 54.94,-141.3 61.9,-142.08"/>
</g>
<!-- Node16&#45;&gt;Node10 -->
<g id="edge20" class="edge">
<title>Node16&#45;&gt;Node10</title>
<path fill="none" stroke="midnightblue" d="M75.92,-112.32C91.04,-103.82 114.32,-90.73 131.97,-80.8"/>
<polygon fill="midnightblue" stroke="midnightblue" points="134.11,-83.61 141.11,-75.65 130.68,-77.51 134.11,-83.61"/>
</g>
</g>
</svg>
        <g id="navigator" transform="translate(0 0)" fill="#404254">
                <rect fill="#f2f5e9" fill-opacity="0.5" stroke="#606060" stroke-width=".5" x="0" y="0" width="60" height="60"/>
                <use id="zoomplus" xlink:href="#zoomPlus" x="17" y="9" onmousedown="handleZoom(evt,'in')"/>
                <use id="zoomminus" xlink:href="#zoomMin" x="42" y="9" onmousedown="handleZoom(evt,'out')"/>
                <use id="reset" xlink:href="#resetDef" x="30" y="36" onmousedown="handleReset()"/>
                <g id="arrowUp" xlink:href="#dirArrow" transform="translate(30 24)" onmousedown="handlePan(0,-1)">
                  <use xlink:href="#rim" fill="#404040">
                        <set attributeName="fill" to="#808080" begin="arrowUp.mouseover" end="arrowUp.mouseout"/>
                  </use>
                  <path fill="none" stroke="white" stroke-width="1.5" d="M0,-3.0v7 M-2.5,-0.5L0,-3.0L2.5,-0.5"/>
                </g>
                <g id="arrowRight" xlink:href="#dirArrow" transform="rotate(90) translate(36 -43)" onmousedown="handlePan(1,0)">
                  <use xlink:href="#rim" fill="#404040">
                        <set attributeName="fill" to="#808080" begin="arrowRight.mouseover" end="arrowRight.mouseout"/>
                  </use>
                  <path fill="none" stroke="white" stroke-width="1.5" d="M0,-3.0v7 M-2.5,-0.5L0,-3.0L2.5,-0.5"/>
                </g>
                <g id="arrowDown" xlink:href="#dirArrow" transform="rotate(180) translate(-30 -48)" onmousedown="handlePan(0,1)">
                  <use xlink:href="#rim" fill="#404040">
                        <set attributeName="fill" to="#808080" begin="arrowDown.mouseover" end="arrowDown.mouseout"/>
                  </use>
                  <path fill="none" stroke="white" stroke-width="1.5" d="M0,-3.0v7 M-2.5,-0.5L0,-3.0L2.5,-0.5"/>
                </g>
                <g id="arrowLeft" xlink:href="#dirArrow" transform="rotate(270) translate(-36 17)" onmousedown="handlePan(-1,0)">
                  <use xlink:href="#rim" fill="#404040">
                        <set attributeName="fill" to="#808080" begin="arrowLeft.mouseover" end="arrowLeft.mouseout"/>
                  </use>
                  <path fill="none" stroke="white" stroke-width="1.5" d="M0,-3.0v7 M-2.5,-0.5L0,-3.0L2.5,-0.5"/>
                </g>
        </g>
        <svg viewBox="0 0 15 15" width="100%" height="30px" preserveAspectRatio="xMaxYMin meet">
         <g id="arrow_out" transform="scale(0.3 0.3)">
          <a xlink:href="sitkDualMemberFunctionFactory_8h__incl_org.svg" target="_base">
           <rect id="button" ry="5" rx="5" y="6" x="6" height="38" width="38"
                fill="#f2f5e9" fill-opacity="0.5" stroke="#606060" stroke-width="1.0"/>
           <path id="arrow"
             d="M 11.500037,31.436501 C 11.940474,20.09759 22.043105,11.32322 32.158766,21.979434 L 37.068811,17.246167 C 37.068811,17.246167 37.088388,32 37.088388,32 L 22.160133,31.978069 C 22.160133,31.978069 26.997745,27.140456 26.997745,27.140456 C 18.528582,18.264221 13.291696,25.230495 11.500037,31.436501 z"
             style="fill:#404040;"/>
          </a>
         </g>
        </svg>
</svg>
