<?xml version="1.0" encoding="UTF-8" standalone="no"?>
<!DOCTYPE svg PUBLIC "-//W3C//DTD SVG 1.1//EN"
 "http://www.w3.org/Graphics/SVG/1.1/DTD/svg11.dtd">
<!-- Generated by graphviz version 2.43.0 (0)
 -->
<!-- Title: itk::simple::Transform::TransformTryCastVisitor Pages: 1 -->
<svg width="2006pt" height="282pt"
 viewBox="0.00 0.00 2006.00 282.00" xmlns="http://www.w3.org/2000/svg" xmlns:xlink="http://www.w3.org/1999/xlink">
<g id="graph0" class="graph" transform="scale(1 1) rotate(0) translate(4 278)">
<title>itk::simple::Transform::TransformTryCastVisitor</title>
<polygon fill="white" stroke="transparent" points="-4,4 -4,-278 2002,-278 2002,4 -4,4"/>
<!-- Node1 -->
<g id="node1" class="node">
<title>Node1</title>
<g id="a_node1"><a xlink:title=" ">
<polygon fill="#bfbfbf" stroke="black" points="1859,-72 1859,-102 1998,-102 1998,-72 1859,-72"/>
<text text-anchor="start" x="1867" y="-90" font-family="Helvetica,sans-Serif" font-size="10.00">itk::simple::Transform</text>
<text text-anchor="middle" x="1928.5" y="-79" font-family="Helvetica,sans-Serif" font-size="10.00">::TransformTryCastVisitor</text>
</a>
</g>
</g>
<!-- Node2 -->
<g id="node2" class="node">
<title>Node2</title>
<g id="a_node2"><a xlink:href="https://www.itk.org/Doxygen/html/classitk_1_1TransformBaseTemplate.html" xlink:title=" ">
<polygon fill="white" stroke="black" points="1618,-108 1618,-138 1771,-138 1771,-108 1618,-108"/>
<text text-anchor="start" x="1626" y="-126" font-family="Helvetica,sans-Serif" font-size="10.00">itk::TransformBaseTemplate</text>
<text text-anchor="middle" x="1694.5" y="-115" font-family="Helvetica,sans-Serif" font-size="10.00">&lt; TParametersValueType &gt;</text>
</a>
</g>
</g>
<!-- Node2&#45;&gt;Node1 -->
<g id="edge1" class="edge">
<title>Node2&#45;&gt;Node1</title>
<path fill="none" stroke="#9a32cd" stroke-dasharray="5,2" d="M1781.18,-109.7C1806.7,-105.74 1834.33,-101.46 1858.63,-97.69"/>
<polygon fill="#9a32cd" stroke="#9a32cd" points="1780.49,-106.27 1771.14,-111.26 1781.56,-113.19 1780.49,-106.27"/>
<text text-anchor="middle" x="1815" y="-112" font-family="Helvetica,sans-Serif" font-size="10.00"> transform</text>
</g>
<!-- Node3 -->
<g id="node3" class="node">
<title>Node3</title>
<g id="a_node3"><a xlink:href="https://www.itk.org/Doxygen/html/classitk_1_1Object.html" xlink:title=" ">
<polygon fill="white" stroke="black" points="1392,-145.5 1392,-164.5 1459,-164.5 1459,-145.5 1392,-145.5"/>
<text text-anchor="middle" x="1425.5" y="-152.5" font-family="Helvetica,sans-Serif" font-size="10.00">itk::Object</text>
</a>
</g>
</g>
<!-- Node3&#45;&gt;Node2 -->
<g id="edge2" class="edge">
<title>Node3&#45;&gt;Node2</title>
<path fill="none" stroke="midnightblue" d="M1469.19,-149.88C1509.16,-145.09 1569.78,-137.83 1617.93,-132.06"/>
<polygon fill="midnightblue" stroke="midnightblue" points="1468.75,-146.41 1459.24,-151.08 1469.58,-153.36 1468.75,-146.41"/>
</g>
<!-- Node4 -->
<g id="node4" class="node">
<title>Node4</title>
<g id="a_node4"><a xlink:href="https://www.itk.org/Doxygen/html/classitk_1_1LightObject.html" xlink:title=" ">
<polygon fill="white" stroke="black" points="1086,-254.5 1086,-273.5 1177,-273.5 1177,-254.5 1086,-254.5"/>
<text text-anchor="middle" x="1131.5" y="-261.5" font-family="Helvetica,sans-Serif" font-size="10.00">itk::LightObject</text>
</a>
</g>
</g>
<!-- Node4&#45;&gt;Node3 -->
<g id="edge3" class="edge">
<title>Node4&#45;&gt;Node3</title>
<path fill="none" stroke="midnightblue" d="M1187.36,-271.56C1239.48,-275.87 1317.98,-274.62 1374,-239 1401.71,-221.38 1416.34,-182.58 1421.87,-164.56"/>
<polygon fill="midnightblue" stroke="midnightblue" points="1187.59,-268.07 1177.31,-270.64 1186.94,-275.04 1187.59,-268.07"/>
</g>
<!-- Node5 -->
<g id="node5" class="node">
<title>Node5</title>
<g id="a_node5"><a xlink:title=" ">
<polygon fill="white" stroke="#bfbfbf" points="740.5,-253.5 740.5,-272.5 847.5,-272.5 847.5,-253.5 740.5,-253.5"/>
<text text-anchor="middle" x="794" y="-260.5" font-family="Helvetica,sans-Serif" font-size="10.00">std::atomic&lt; int &gt;</text>
</a>
</g>
</g>
<!-- Node5&#45;&gt;Node4 -->
<g id="edge4" class="edge">
<title>Node5&#45;&gt;Node4</title>
<path fill="none" stroke="#9a32cd" stroke-dasharray="5,2" d="M858.12,-263.19C924.52,-263.39 1027.32,-263.69 1085.79,-263.87"/>
<polygon fill="#9a32cd" stroke="#9a32cd" points="857.8,-259.69 847.79,-263.16 857.78,-266.69 857.8,-259.69"/>
<text text-anchor="middle" x="950.5" y="-266" font-family="Helvetica,sans-Serif" font-size="10.00"> m_ReferenceCount</text>
</g>
<!-- Node6 -->
<g id="node6" class="node">
<title>Node6</title>
<g id="a_node6"><a xlink:title="STL class.">
<polygon fill="white" stroke="#bfbfbf" points="460.5,-215.5 460.5,-234.5 560.5,-234.5 560.5,-215.5 460.5,-215.5"/>
<text text-anchor="middle" x="510.5" y="-222.5" font-family="Helvetica,sans-Serif" font-size="10.00">std::atomic&lt; T &gt;</text>
</a>
</g>
</g>
<!-- Node6&#45;&gt;Node5 -->
<g id="edge5" class="edge">
<title>Node6&#45;&gt;Node5</title>
<path fill="none" stroke="orange" stroke-dasharray="5,2" d="M570.94,-234.33C581.61,-235.93 592.63,-237.55 603,-239 649.26,-245.46 701.98,-252.06 740.12,-256.7"/>
<polygon fill="orange" stroke="orange" points="571.26,-230.83 560.85,-232.79 570.21,-237.76 571.26,-230.83"/>
<text text-anchor="middle" x="656" y="-255" font-family="Helvetica,sans-Serif" font-size="10.00"> &lt; int &gt;</text>
</g>
<!-- Node18 -->
<g id="node18" class="node">
<title>Node18</title>
<g id="a_node18"><a xlink:href="https://www.itk.org/Doxygen/html/classitk_1_1TimeStamp.html" xlink:title=" ">
<polygon fill="white" stroke="black" points="904.5,-215.5 904.5,-234.5 996.5,-234.5 996.5,-215.5 904.5,-215.5"/>
<text text-anchor="middle" x="950.5" y="-222.5" font-family="Helvetica,sans-Serif" font-size="10.00">itk::TimeStamp</text>
</a>
</g>
</g>
<!-- Node6&#45;&gt;Node18 -->
<g id="edge22" class="edge">
<title>Node6&#45;&gt;Node18</title>
<path fill="none" stroke="#9a32cd" stroke-dasharray="5,2" d="M570.97,-224.26C581.63,-224.15 592.65,-224.06 603,-224 711.13,-223.41 838.24,-224.14 904.37,-224.63"/>
<polygon fill="#9a32cd" stroke="#9a32cd" points="570.85,-220.76 560.89,-224.36 570.92,-227.76 570.85,-220.76"/>
<text text-anchor="middle" x="656" y="-227" font-family="Helvetica,sans-Serif" font-size="10.00"> m_GlobalTimeStamp</text>
</g>
<!-- Node7 -->
<g id="node7" class="node">
<title>Node7</title>
<g id="a_node7"><a xlink:title=" ">
<polygon fill="white" stroke="#bfbfbf" points="0,-81.5 0,-100.5 29,-100.5 29,-81.5 0,-81.5"/>
<text text-anchor="middle" x="14.5" y="-88.5" font-family="Helvetica,sans-Serif" font-size="10.00">T</text>
</a>
</g>
</g>
<!-- Node7&#45;&gt;Node6 -->
<g id="edge6" class="edge">
<title>Node7&#45;&gt;Node6</title>
<path fill="none" stroke="#9a32cd" stroke-dasharray="5,2" d="M31.78,-107.53C36.38,-111.45 41.62,-115.28 47,-118 186.39,-188.45 372.84,-213.23 460.3,-221.35"/>
<polygon fill="#9a32cd" stroke="#9a32cd" points="33.99,-104.8 24.27,-100.59 29.24,-109.94 33.99,-104.8"/>
<text text-anchor="middle" x="173" y="-187" font-family="Helvetica,sans-Serif" font-size="10.00"> ptr</text>
</g>
<!-- Node11 -->
<g id="node11" class="node">
<title>Node11</title>
<g id="a_node11"><a xlink:title="STL class.">
<polygon fill="white" stroke="#bfbfbf" points="122.5,-56.5 122.5,-75.5 223.5,-75.5 223.5,-56.5 122.5,-56.5"/>
<text text-anchor="middle" x="173" y="-63.5" font-family="Helvetica,sans-Serif" font-size="10.00">std::map&lt; K, T &gt;</text>
</a>
</g>
</g>
<!-- Node7&#45;&gt;Node11 -->
<g id="edge12" class="edge">
<title>Node7&#45;&gt;Node11</title>
<path fill="none" stroke="#9a32cd" stroke-dasharray="5,2" d="M38.68,-81.4C41.45,-80.48 44.27,-79.65 47,-79 71.41,-73.19 99.11,-69.97 122.22,-68.2"/>
<polygon fill="#9a32cd" stroke="#9a32cd" points="37.22,-78.2 29.06,-84.95 39.65,-84.77 37.22,-78.2"/>
<text text-anchor="middle" x="71.5" y="-82" font-family="Helvetica,sans-Serif" font-size="10.00"> elements</text>
</g>
<!-- Node13 -->
<g id="node13" class="node">
<title>Node13</title>
<g id="a_node13"><a xlink:title="STL class.">
<polygon fill="white" stroke="#bfbfbf" points="114,-18.5 114,-37.5 232,-37.5 232,-18.5 114,-18.5"/>
<text text-anchor="middle" x="173" y="-25.5" font-family="Helvetica,sans-Serif" font-size="10.00">std::shared_ptr&lt; T &gt;</text>
</a>
</g>
</g>
<!-- Node7&#45;&gt;Node13 -->
<g id="edge14" class="edge">
<title>Node7&#45;&gt;Node13</title>
<path fill="none" stroke="#9a32cd" stroke-dasharray="5,2" d="M27.79,-73.27C33.02,-66.94 39.63,-60.31 47,-56 67.16,-44.21 91.81,-37.38 113.87,-33.43"/>
<polygon fill="#9a32cd" stroke="#9a32cd" points="24.82,-71.39 21.56,-81.47 30.4,-75.62 24.82,-71.39"/>
<text text-anchor="middle" x="71.5" y="-59" font-family="Helvetica,sans-Serif" font-size="10.00"> ptr</text>
</g>
<!-- Node14 -->
<g id="node14" class="node">
<title>Node14</title>
<g id="a_node14"><a xlink:title="STL class.">
<polygon fill="white" stroke="#bfbfbf" points="735,-92.5 735,-111.5 853,-111.5 853,-92.5 735,-92.5"/>
<text text-anchor="middle" x="794" y="-99.5" font-family="Helvetica,sans-Serif" font-size="10.00">std::unique_ptr&lt; T &gt;</text>
</a>
</g>
</g>
<!-- Node7&#45;&gt;Node14 -->
<g id="edge16" class="edge">
<title>Node7&#45;&gt;Node14</title>
<path fill="none" stroke="#9a32cd" stroke-dasharray="5,2" d="M39.35,-91.34C145.51,-92.84 576.82,-98.94 734.72,-101.18"/>
<polygon fill="#9a32cd" stroke="#9a32cd" points="39.37,-87.84 29.32,-91.2 39.27,-94.84 39.37,-87.84"/>
<text text-anchor="middle" x="334" y="-100" font-family="Helvetica,sans-Serif" font-size="10.00"> ptr</text>
</g>
<!-- Node8 -->
<g id="node8" class="node">
<title>Node8</title>
<g id="a_node8"><a xlink:title=" ">
<polygon fill="white" stroke="#bfbfbf" points="1065.5,-71 1065.5,-101 1197.5,-101 1197.5,-71 1065.5,-71"/>
<text text-anchor="start" x="1073.5" y="-89" font-family="Helvetica,sans-Serif" font-size="10.00">std::unique_ptr&lt; itk</text>
<text text-anchor="middle" x="1131.5" y="-78" font-family="Helvetica,sans-Serif" font-size="10.00">::MetaDataDictionary &gt;</text>
</a>
</g>
</g>
<!-- Node8&#45;&gt;Node3 -->
<g id="edge7" class="edge">
<title>Node8&#45;&gt;Node3</title>
<path fill="none" stroke="#9a32cd" stroke-dasharray="5,2" d="M1207.95,-86.43C1256.85,-88.99 1321.06,-96.73 1374,-118 1389.73,-124.32 1405.04,-136.68 1414.6,-145.37"/>
<polygon fill="#9a32cd" stroke="#9a32cd" points="1207.91,-82.92 1197.76,-85.96 1207.59,-89.92 1207.91,-82.92"/>
<text text-anchor="middle" x="1307.5" y="-121" font-family="Helvetica,sans-Serif" font-size="10.00"> m_MetaDataDictionary</text>
</g>
<!-- Node9 -->
<g id="node9" class="node">
<title>Node9</title>
<g id="a_node9"><a xlink:href="https://www.itk.org/Doxygen/html/classitk_1_1MetaDataDictionary.html" xlink:title=" ">
<polygon fill="white" stroke="black" points="727,-23.5 727,-42.5 861,-42.5 861,-23.5 727,-23.5"/>
<text text-anchor="middle" x="794" y="-30.5" font-family="Helvetica,sans-Serif" font-size="10.00">itk::MetaDataDictionary</text>
</a>
</g>
</g>
<!-- Node9&#45;&gt;Node8 -->
<g id="edge8" class="edge">
<title>Node9&#45;&gt;Node8</title>
<path fill="none" stroke="#9a32cd" stroke-dasharray="5,2" d="M840.37,-21.32C888.51,-11.52 965.3,-3.49 1022,-34 1034.7,-40.83 1028.31,-52.55 1040,-61 1047.53,-66.44 1056.19,-70.7 1065.11,-74.04"/>
<polygon fill="#9a32cd" stroke="#9a32cd" points="839.6,-17.9 830.55,-23.42 841.07,-24.75 839.6,-17.9"/>
<text text-anchor="middle" x="950.5" y="-37" font-family="Helvetica,sans-Serif" font-size="10.00"> ptr</text>
</g>
<!-- Node10 -->
<g id="node10" class="node">
<title>Node10</title>
<g id="a_node10"><a xlink:title=" ">
<polygon fill="white" stroke="#bfbfbf" points="436,-18 436,-48 585,-48 585,-18 436,-18"/>
<text text-anchor="start" x="444" y="-36" font-family="Helvetica,sans-Serif" font-size="10.00">std::shared_ptr&lt; MetaData</text>
<text text-anchor="middle" x="510.5" y="-25" font-family="Helvetica,sans-Serif" font-size="10.00">DictionaryMapType &gt;</text>
</a>
</g>
</g>
<!-- Node10&#45;&gt;Node9 -->
<g id="edge9" class="edge">
<title>Node10&#45;&gt;Node9</title>
<path fill="none" stroke="#9a32cd" stroke-dasharray="5,2" d="M595.29,-33C637.24,-33 687.31,-33 726.57,-33"/>
<polygon fill="#9a32cd" stroke="#9a32cd" points="595.09,-29.5 585.09,-33 595.09,-36.5 595.09,-29.5"/>
<text text-anchor="middle" x="656" y="-36" font-family="Helvetica,sans-Serif" font-size="10.00"> m_Dictionary</text>
</g>
<!-- Node11&#45;&gt;Node10 -->
<g id="edge10" class="edge">
<title>Node11&#45;&gt;Node10</title>
<path fill="none" stroke="#9a32cd" stroke-dasharray="5,2" d="M233.75,-60.62C283.16,-56.11 355.16,-49.39 418,-43 423.72,-42.42 429.65,-41.8 435.6,-41.17"/>
<polygon fill="#9a32cd" stroke="#9a32cd" points="233.2,-57.15 223.56,-61.55 233.83,-64.12 233.2,-57.15"/>
<text text-anchor="middle" x="334" y="-62" font-family="Helvetica,sans-Serif" font-size="10.00"> ptr</text>
</g>
<!-- Node12 -->
<g id="node12" class="node">
<title>Node12</title>
<g id="a_node12"><a xlink:title=" ">
<polygon fill="white" stroke="#bfbfbf" points="0,-0.5 0,-19.5 29,-19.5 29,-0.5 0,-0.5"/>
<text text-anchor="middle" x="14.5" y="-7.5" font-family="Helvetica,sans-Serif" font-size="10.00">K</text>
</a>
</g>
</g>
<!-- Node12&#45;&gt;Node11 -->
<g id="edge11" class="edge">
<title>Node12&#45;&gt;Node11</title>
<path fill="none" stroke="#9a32cd" stroke-dasharray="5,2" d="M39.5,-4.09C56.55,-1.3 79.29,-0.53 96,-11 111.16,-20.5 100.46,-35.31 114,-47 118.49,-50.88 123.8,-53.97 129.34,-56.43"/>
<polygon fill="#9a32cd" stroke="#9a32cd" points="38.36,-0.75 29.23,-6.13 39.72,-7.62 38.36,-0.75"/>
<text text-anchor="middle" x="71.5" y="-14" font-family="Helvetica,sans-Serif" font-size="10.00"> keys</text>
</g>
<!-- Node13&#45;&gt;Node10 -->
<g id="edge13" class="edge">
<title>Node13&#45;&gt;Node10</title>
<path fill="none" stroke="orange" stroke-dasharray="5,2" d="M242.27,-29.02C298.5,-29.86 378.06,-31.04 435.74,-31.9"/>
<polygon fill="orange" stroke="orange" points="242.11,-25.51 232.06,-28.87 242,-32.51 242.11,-25.51"/>
<text text-anchor="middle" x="334" y="-35" font-family="Helvetica,sans-Serif" font-size="10.00"> &lt; MetaDataDictionaryMapType &gt;</text>
</g>
<!-- Node14&#45;&gt;Node8 -->
<g id="edge15" class="edge">
<title>Node14&#45;&gt;Node8</title>
<path fill="none" stroke="orange" stroke-dasharray="5,2" d="M863.41,-98.74C922.51,-95.92 1007.31,-91.87 1065.42,-89.1"/>
<polygon fill="orange" stroke="orange" points="862.88,-95.26 853.06,-99.23 863.21,-102.25 862.88,-95.26"/>
<text text-anchor="middle" x="950.5" y="-101" font-family="Helvetica,sans-Serif" font-size="10.00"> &lt; itk::MetaDataDictionary &gt;</text>
</g>
<!-- Node17 -->
<g id="node17" class="node">
<title>Node17</title>
<g id="a_node17"><a xlink:title=" ">
<polygon fill="white" stroke="#bfbfbf" points="1063,-120 1063,-150 1200,-150 1200,-120 1063,-120"/>
<text text-anchor="start" x="1071" y="-138" font-family="Helvetica,sans-Serif" font-size="10.00">std::unique_ptr&lt; Subject</text>
<text text-anchor="middle" x="1131.5" y="-127" font-family="Helvetica,sans-Serif" font-size="10.00">Implementation &gt;</text>
</a>
</g>
</g>
<!-- Node14&#45;&gt;Node17 -->
<g id="edge20" class="edge">
<title>Node14&#45;&gt;Node17</title>
<path fill="none" stroke="orange" stroke-dasharray="5,2" d="M863.4,-111.2C868.67,-111.84 873.92,-112.45 879,-113 941.2,-119.79 1012.23,-125.85 1062.91,-129.88"/>
<polygon fill="orange" stroke="orange" points="863.61,-107.7 853.25,-109.96 862.75,-114.65 863.61,-107.7"/>
<text text-anchor="middle" x="950.5" y="-130" font-family="Helvetica,sans-Serif" font-size="10.00"> &lt; SubjectImplementation &gt;</text>
</g>
<!-- Node20 -->
<g id="node20" class="node">
<title>Node20</title>
<g id="a_node20"><a xlink:title=" ">
<polygon fill="white" stroke="#bfbfbf" points="1040,-22 1040,-52 1223,-52 1223,-22 1040,-22"/>
<text text-anchor="start" x="1048" y="-40" font-family="Helvetica,sans-Serif" font-size="10.00">std::unique_ptr&lt; PimpleTransform</text>
<text text-anchor="middle" x="1131.5" y="-29" font-family="Helvetica,sans-Serif" font-size="10.00">Base &gt;</text>
</a>
</g>
</g>
<!-- Node14&#45;&gt;Node20 -->
<g id="edge25" class="edge">
<title>Node14&#45;&gt;Node20</title>
<path fill="none" stroke="orange" stroke-dasharray="5,2" d="M833.45,-89.4C847.65,-85.05 863.96,-80.42 879,-77 931.81,-65 991.67,-55.32 1039.74,-48.49"/>
<polygon fill="orange" stroke="orange" points="832.03,-86.18 823.52,-92.49 834.11,-92.86 832.03,-86.18"/>
<text text-anchor="middle" x="950.5" y="-80" font-family="Helvetica,sans-Serif" font-size="10.00"> &lt; PimpleTransformBase &gt;</text>
</g>
<!-- Node15 -->
<g id="node15" class="node">
<title>Node15</title>
<g id="a_node15"><a xlink:title="STL class.">
<polygon fill="white" stroke="#bfbfbf" points="1099,-169.5 1099,-188.5 1164,-188.5 1164,-169.5 1099,-169.5"/>
<text text-anchor="middle" x="1131.5" y="-176.5" font-family="Helvetica,sans-Serif" font-size="10.00">std::string</text>
</a>
</g>
</g>
<!-- Node15&#45;&gt;Node3 -->
<g id="edge17" class="edge">
<title>Node15&#45;&gt;Node3</title>
<path fill="none" stroke="#9a32cd" stroke-dasharray="5,2" d="M1174.05,-175.58C1232.66,-170.77 1338.38,-162.08 1391.77,-157.69"/>
<polygon fill="#9a32cd" stroke="#9a32cd" points="1173.71,-172.1 1164.03,-176.41 1174.28,-179.08 1173.71,-172.1"/>
<text text-anchor="middle" x="1307.5" y="-173" font-family="Helvetica,sans-Serif" font-size="10.00"> m_ObjectName</text>
</g>
<!-- Node16 -->
<g id="node16" class="node">
<title>Node16</title>
<g id="a_node16"><a xlink:title="STL class.">
<polygon fill="white" stroke="#bfbfbf" points="742,-164 742,-194 846,-194 846,-164 742,-164"/>
<text text-anchor="start" x="750" y="-182" font-family="Helvetica,sans-Serif" font-size="10.00">std::basic_string&lt;</text>
<text text-anchor="middle" x="794" y="-171" font-family="Helvetica,sans-Serif" font-size="10.00"> char &gt;</text>
</a>
</g>
</g>
<!-- Node16&#45;&gt;Node15 -->
<g id="edge18" class="edge">
<title>Node16&#45;&gt;Node15</title>
<path fill="none" stroke="midnightblue" d="M856.55,-179C928.12,-179 1043.49,-179 1098.86,-179"/>
<polygon fill="midnightblue" stroke="midnightblue" points="856.32,-175.5 846.32,-179 856.32,-182.5 856.32,-175.5"/>
</g>
<!-- Node17&#45;&gt;Node3 -->
<g id="edge19" class="edge">
<title>Node17&#45;&gt;Node3</title>
<path fill="none" stroke="#9a32cd" stroke-dasharray="5,2" d="M1210.25,-132.11C1257.79,-131.54 1319.7,-132.92 1374,-141 1380.84,-142.02 1388.07,-143.66 1394.85,-145.48"/>
<polygon fill="#9a32cd" stroke="#9a32cd" points="1209.97,-128.62 1200.03,-132.27 1210.08,-135.62 1209.97,-128.62"/>
<text text-anchor="middle" x="1307.5" y="-144" font-family="Helvetica,sans-Serif" font-size="10.00"> m_SubjectImplementation</text>
</g>
<!-- Node18&#45;&gt;Node3 -->
<g id="edge21" class="edge">
<title>Node18&#45;&gt;Node3</title>
<path fill="none" stroke="#9a32cd" stroke-dasharray="5,2" d="M1006.71,-227.36C1088.91,-229.21 1247.37,-226.29 1374,-185 1387.96,-180.45 1402.19,-171.52 1411.98,-164.59"/>
<polygon fill="#9a32cd" stroke="#9a32cd" points="1006.68,-223.86 996.59,-227.1 1006.5,-230.86 1006.68,-223.86"/>
<text text-anchor="middle" x="1131.5" y="-230" font-family="Helvetica,sans-Serif" font-size="10.00"> m_MTime</text>
</g>
<!-- Node19 -->
<g id="node19" class="node">
<title>Node19</title>
<g id="a_node19"><a xlink:href="classitk_1_1simple_1_1Transform.html" target="_top" xlink:title="A simplified wrapper around a variety of ITK transforms.">
<polygon fill="white" stroke="black" points="1477,-43.5 1477,-62.5 1600,-62.5 1600,-43.5 1477,-43.5"/>
<text text-anchor="middle" x="1538.5" y="-50.5" font-family="Helvetica,sans-Serif" font-size="10.00">itk::simple::Transform</text>
</a>
</g>
</g>
<!-- Node19&#45;&gt;Node1 -->
<g id="edge23" class="edge">
<title>Node19&#45;&gt;Node1</title>
<path fill="none" stroke="#9a32cd" stroke-dasharray="5,2" d="M1610.27,-59.2C1680.95,-65.4 1788.87,-74.85 1858.8,-80.98"/>
<polygon fill="#9a32cd" stroke="#9a32cd" points="1610.39,-55.7 1600.12,-58.31 1609.78,-62.67 1610.39,-55.7"/>
<text text-anchor="middle" x="1694.5" y="-76" font-family="Helvetica,sans-Serif" font-size="10.00"> that</text>
</g>
<!-- Node20&#45;&gt;Node19 -->
<g id="edge24" class="edge">
<title>Node20&#45;&gt;Node19</title>
<path fill="none" stroke="#9a32cd" stroke-dasharray="5,2" d="M1233.29,-40.98C1309.86,-44.01 1412.64,-48.07 1476.96,-50.61"/>
<polygon fill="#9a32cd" stroke="#9a32cd" points="1233.27,-37.48 1223.14,-40.58 1232.99,-44.47 1233.27,-37.48"/>
<text text-anchor="middle" x="1307.5" y="-50" font-family="Helvetica,sans-Serif" font-size="10.00"> m_PimpleTransform</text>
</g>
</g>
</svg>
