<?xml version="1.0" encoding="UTF-8" standalone="no"?>
<!DOCTYPE svg PUBLIC "-//W3C//DTD SVG 1.1//EN"
 "http://www.w3.org/Graphics/SVG/1.1/DTD/svg11.dtd">
<!-- Generated by graphviz version 2.43.0 (0)
 -->
<!-- Title: itk::HashImageFilter&lt; TImageType &gt; Pages: 1 -->
<svg width="3221pt" height="512pt"
 viewBox="0.00 0.00 3221.00 512.00" xmlns="http://www.w3.org/2000/svg" xmlns:xlink="http://www.w3.org/1999/xlink">
<g id="graph0" class="graph" transform="scale(1 1) rotate(0) translate(4 508)">
<title>itk::HashImageFilter&lt; TImageType &gt;</title>
<polygon fill="white" stroke="transparent" points="-4,4 -4,-508 3217,-508 3217,4 -4,4"/>
<!-- Node1 -->
<g id="node1" class="node">
<title>Node1</title>
<g id="a_node1"><a xlink:title="Generates a hash string from an image.">
<polygon fill="#bfbfbf" stroke="black" points="3097,-197 3097,-227 3213,-227 3213,-197 3097,-197"/>
<text text-anchor="start" x="3105" y="-215" font-family="Helvetica,sans-Serif" font-size="10.00">itk::HashImageFilter</text>
<text text-anchor="middle" x="3155" y="-204" font-family="Helvetica,sans-Serif" font-size="10.00">&lt; TImageType &gt;</text>
</a>
</g>
</g>
<!-- Node2 -->
<g id="node2" class="node">
<title>Node2</title>
<g id="a_node2"><a xlink:href="https://www.itk.org/Doxygen/html/classitk_1_1CastImageFilter.html" xlink:title=" ">
<polygon fill="white" stroke="black" points="2896,-197 2896,-227 3060,-227 3060,-197 2896,-197"/>
<text text-anchor="start" x="2904" y="-215" font-family="Helvetica,sans-Serif" font-size="10.00">itk::CastImageFilter</text>
<text text-anchor="middle" x="2978" y="-204" font-family="Helvetica,sans-Serif" font-size="10.00">&lt; TImageType, TImageType &gt;</text>
</a>
</g>
</g>
<!-- Node2&#45;&gt;Node1 -->
<g id="edge1" class="edge">
<title>Node2&#45;&gt;Node1</title>
<path fill="none" stroke="midnightblue" d="M3070.31,-212C3079.35,-212 3088.34,-212 3096.89,-212"/>
<polygon fill="midnightblue" stroke="midnightblue" points="3070.1,-208.5 3060.1,-212 3070.1,-215.5 3070.1,-208.5"/>
</g>
<!-- Node3 -->
<g id="node3" class="node">
<title>Node3</title>
<g id="a_node3"><a xlink:href="https://www.itk.org/Doxygen/html/classitk_1_1InPlaceImageFilter.html" xlink:title=" ">
<polygon fill="white" stroke="black" points="2320,-197 2320,-227 2496,-227 2496,-197 2320,-197"/>
<text text-anchor="start" x="2328" y="-215" font-family="Helvetica,sans-Serif" font-size="10.00">itk::InPlaceImageFilter</text>
<text text-anchor="middle" x="2408" y="-204" font-family="Helvetica,sans-Serif" font-size="10.00">&lt; TInputImage, TOutputImage &gt;</text>
</a>
</g>
</g>
<!-- Node3&#45;&gt;Node2 -->
<g id="edge2" class="edge">
<title>Node3&#45;&gt;Node2</title>
<path fill="none" stroke="midnightblue" d="M2506.25,-214.8C2508.86,-214.87 2511.45,-214.93 2514,-215 2675.74,-219.21 2716.34,-226.52 2878,-220 2883.86,-219.76 2889.91,-219.45 2895.99,-219.08"/>
<polygon fill="midnightblue" stroke="midnightblue" points="2506.18,-211.29 2496.09,-214.52 2505.99,-218.29 2506.18,-211.29"/>
</g>
<!-- Node35 -->
<g id="node35" class="node">
<title>Node35</title>
<g id="a_node35"><a xlink:href="https://www.itk.org/Doxygen/html/classitk_1_1CastImageFilter.html" xlink:title=" ">
<polygon fill="white" stroke="black" points="2533,-175 2533,-205 2709,-205 2709,-175 2533,-175"/>
<text text-anchor="start" x="2541" y="-193" font-family="Helvetica,sans-Serif" font-size="10.00">itk::CastImageFilter</text>
<text text-anchor="middle" x="2621" y="-182" font-family="Helvetica,sans-Serif" font-size="10.00">&lt; TInputImage, TOutputImage &gt;</text>
</a>
</g>
</g>
<!-- Node3&#45;&gt;Node35 -->
<g id="edge49" class="edge">
<title>Node3&#45;&gt;Node35</title>
<path fill="none" stroke="midnightblue" d="M2506.07,-201.88C2514.99,-200.95 2523.99,-200.01 2532.82,-199.09"/>
<polygon fill="midnightblue" stroke="midnightblue" points="2505.62,-198.41 2496.04,-202.92 2506.35,-205.37 2505.62,-198.41"/>
</g>
<!-- Node4 -->
<g id="node4" class="node">
<title>Node4</title>
<g id="a_node4"><a xlink:href="https://www.itk.org/Doxygen/html/classitk_1_1ImageToImageFilter.html" xlink:title=" ">
<polygon fill="white" stroke="black" points="2107,-197 2107,-227 2283,-227 2283,-197 2107,-197"/>
<text text-anchor="start" x="2115" y="-215" font-family="Helvetica,sans-Serif" font-size="10.00">itk::ImageToImageFilter</text>
<text text-anchor="middle" x="2195" y="-204" font-family="Helvetica,sans-Serif" font-size="10.00">&lt; TInputImage, TOutputImage &gt;</text>
</a>
</g>
</g>
<!-- Node4&#45;&gt;Node3 -->
<g id="edge3" class="edge">
<title>Node4&#45;&gt;Node3</title>
<path fill="none" stroke="midnightblue" d="M2293.07,-212C2301.99,-212 2310.99,-212 2319.82,-212"/>
<polygon fill="midnightblue" stroke="midnightblue" points="2293.04,-208.5 2283.04,-212 2293.04,-215.5 2293.04,-208.5"/>
</g>
<!-- Node5 -->
<g id="node5" class="node">
<title>Node5</title>
<g id="a_node5"><a xlink:href="https://www.itk.org/Doxygen/html/classitk_1_1ImageSource.html" xlink:title=" ">
<polygon fill="white" stroke="black" points="1907.5,-229 1907.5,-259 2056.5,-259 2056.5,-229 1907.5,-229"/>
<text text-anchor="start" x="1915.5" y="-247" font-family="Helvetica,sans-Serif" font-size="10.00">itk::ImageSource&lt; TOutput</text>
<text text-anchor="middle" x="1982" y="-236" font-family="Helvetica,sans-Serif" font-size="10.00">Image &gt;</text>
</a>
</g>
</g>
<!-- Node5&#45;&gt;Node4 -->
<g id="edge4" class="edge">
<title>Node5&#45;&gt;Node4</title>
<path fill="none" stroke="midnightblue" d="M2066.55,-231.33C2079.85,-229.31 2093.62,-227.22 2106.99,-225.2"/>
<polygon fill="midnightblue" stroke="midnightblue" points="2065.86,-227.89 2056.5,-232.85 2066.91,-234.81 2065.86,-227.89"/>
</g>
<!-- Node6 -->
<g id="node6" class="node">
<title>Node6</title>
<g id="a_node6"><a xlink:href="https://www.itk.org/Doxygen/html/classitk_1_1ProcessObject.html" xlink:title=" ">
<polygon fill="white" stroke="black" points="1733.5,-256.5 1733.5,-275.5 1837.5,-275.5 1837.5,-256.5 1733.5,-256.5"/>
<text text-anchor="middle" x="1785.5" y="-263.5" font-family="Helvetica,sans-Serif" font-size="10.00">itk::ProcessObject</text>
</a>
</g>
</g>
<!-- Node6&#45;&gt;Node5 -->
<g id="edge5" class="edge">
<title>Node6&#45;&gt;Node5</title>
<path fill="none" stroke="midnightblue" d="M1847.57,-259.09C1866.48,-256.95 1887.52,-254.57 1907.19,-252.35"/>
<polygon fill="midnightblue" stroke="midnightblue" points="1847.15,-255.62 1837.6,-260.22 1847.93,-262.57 1847.15,-255.62"/>
</g>
<!-- Node7 -->
<g id="node7" class="node">
<title>Node7</title>
<g id="a_node7"><a xlink:href="https://www.itk.org/Doxygen/html/classitk_1_1Object.html" xlink:title=" ">
<polygon fill="white" stroke="black" points="1418,-335.5 1418,-354.5 1485,-354.5 1485,-335.5 1418,-335.5"/>
<text text-anchor="middle" x="1451.5" y="-342.5" font-family="Helvetica,sans-Serif" font-size="10.00">itk::Object</text>
</a>
</g>
</g>
<!-- Node7&#45;&gt;Node6 -->
<g id="edge6" class="edge">
<title>Node7&#45;&gt;Node6</title>
<path fill="none" stroke="midnightblue" d="M1495.09,-334.87C1559.61,-319.51 1681.28,-290.56 1744.33,-275.56"/>
<polygon fill="midnightblue" stroke="midnightblue" points="1494.16,-331.49 1485.24,-337.21 1495.78,-338.3 1494.16,-331.49"/>
</g>
<!-- Node8 -->
<g id="node8" class="node">
<title>Node8</title>
<g id="a_node8"><a xlink:href="https://www.itk.org/Doxygen/html/classitk_1_1LightObject.html" xlink:title=" ">
<polygon fill="white" stroke="black" points="1084,-405.5 1084,-424.5 1175,-424.5 1175,-405.5 1084,-405.5"/>
<text text-anchor="middle" x="1129.5" y="-412.5" font-family="Helvetica,sans-Serif" font-size="10.00">itk::LightObject</text>
</a>
</g>
</g>
<!-- Node8&#45;&gt;Node7 -->
<g id="edge7" class="edge">
<title>Node8&#45;&gt;Node7</title>
<path fill="none" stroke="midnightblue" d="M1185.19,-407.1C1229.62,-400.24 1293.74,-389.32 1349,-376 1374.08,-369.96 1402.08,-361.25 1422.31,-354.6"/>
<polygon fill="midnightblue" stroke="midnightblue" points="1184.54,-403.66 1175.18,-408.63 1185.6,-410.58 1184.54,-403.66"/>
</g>
<!-- Node9 -->
<g id="node9" class="node">
<title>Node9</title>
<g id="a_node9"><a xlink:title=" ">
<polygon fill="white" stroke="#bfbfbf" points="755,-397.5 755,-416.5 862,-416.5 862,-397.5 755,-397.5"/>
<text text-anchor="middle" x="808.5" y="-404.5" font-family="Helvetica,sans-Serif" font-size="10.00">std::atomic&lt; int &gt;</text>
</a>
</g>
</g>
<!-- Node9&#45;&gt;Node8 -->
<g id="edge8" class="edge">
<title>Node9&#45;&gt;Node8</title>
<path fill="none" stroke="#9a32cd" stroke-dasharray="5,2" d="M872.29,-408.57C934.72,-410.14 1028.89,-412.5 1083.99,-413.88"/>
<polygon fill="#9a32cd" stroke="#9a32cd" points="872.26,-405.07 862.18,-408.32 872.09,-412.07 872.26,-405.07"/>
<text text-anchor="middle" x="971.5" y="-415" font-family="Helvetica,sans-Serif" font-size="10.00"> m_ReferenceCount</text>
</g>
<!-- Node10 -->
<g id="node10" class="node">
<title>Node10</title>
<g id="a_node10"><a xlink:title="STL class.">
<polygon fill="white" stroke="#bfbfbf" points="495.5,-439.5 495.5,-458.5 595.5,-458.5 595.5,-439.5 495.5,-439.5"/>
<text text-anchor="middle" x="545.5" y="-446.5" font-family="Helvetica,sans-Serif" font-size="10.00">std::atomic&lt; T &gt;</text>
</a>
</g>
</g>
<!-- Node10&#45;&gt;Node9 -->
<g id="edge9" class="edge">
<title>Node10&#45;&gt;Node9</title>
<path fill="none" stroke="orange" stroke-dasharray="5,2" d="M599.35,-437.3C614.97,-434.05 632.14,-430.68 648,-428 683.53,-421.99 723.75,-416.71 754.91,-412.94"/>
<polygon fill="orange" stroke="orange" points="598.4,-433.93 589.34,-439.41 599.84,-440.78 598.4,-433.93"/>
<text text-anchor="middle" x="682.5" y="-431" font-family="Helvetica,sans-Serif" font-size="10.00"> &lt; int &gt;</text>
</g>
<!-- Node22 -->
<g id="node22" class="node">
<title>Node22</title>
<g id="a_node22"><a xlink:href="https://www.itk.org/Doxygen/html/classitk_1_1TimeStamp.html" xlink:title=" ">
<polygon fill="white" stroke="black" points="1083.5,-443.5 1083.5,-462.5 1175.5,-462.5 1175.5,-443.5 1083.5,-443.5"/>
<text text-anchor="middle" x="1129.5" y="-450.5" font-family="Helvetica,sans-Serif" font-size="10.00">itk::TimeStamp</text>
</a>
</g>
</g>
<!-- Node10&#45;&gt;Node22 -->
<g id="edge26" class="edge">
<title>Node10&#45;&gt;Node22</title>
<path fill="none" stroke="#9a32cd" stroke-dasharray="5,2" d="M605.79,-449.41C722.39,-450.21 979.24,-451.97 1083.35,-452.69"/>
<polygon fill="#9a32cd" stroke="#9a32cd" points="605.64,-445.91 595.62,-449.34 605.6,-452.91 605.64,-445.91"/>
<text text-anchor="middle" x="808.5" y="-454" font-family="Helvetica,sans-Serif" font-size="10.00"> m_GlobalTimeStamp</text>
</g>
<!-- Node26 -->
<g id="node26" class="node">
<title>Node26</title>
<g id="a_node26"><a xlink:title=" ">
<polygon fill="white" stroke="#bfbfbf" points="904.5,-481.5 904.5,-500.5 1038.5,-500.5 1038.5,-481.5 904.5,-481.5"/>
<text text-anchor="middle" x="971.5" y="-488.5" font-family="Helvetica,sans-Serif" font-size="10.00">std::atomic&lt; uint32_t &gt;</text>
</a>
</g>
</g>
<!-- Node10&#45;&gt;Node26 -->
<g id="edge35" class="edge">
<title>Node10&#45;&gt;Node26</title>
<path fill="none" stroke="orange" stroke-dasharray="5,2" d="M604.5,-460.33C618.68,-462.81 633.85,-465.22 648,-467 736.3,-478.09 838.88,-484.64 904.22,-488.03"/>
<polygon fill="orange" stroke="orange" points="604.83,-456.83 594.37,-458.52 603.59,-463.72 604.83,-456.83"/>
<text text-anchor="middle" x="682.5" y="-476" font-family="Helvetica,sans-Serif" font-size="10.00"> &lt; uint32_t &gt;</text>
</g>
<!-- Node11 -->
<g id="node11" class="node">
<title>Node11</title>
<g id="a_node11"><a xlink:title=" ">
<polygon fill="white" stroke="#bfbfbf" points="0,-339.5 0,-358.5 29,-358.5 29,-339.5 0,-339.5"/>
<text text-anchor="middle" x="14.5" y="-346.5" font-family="Helvetica,sans-Serif" font-size="10.00">T</text>
</a>
</g>
</g>
<!-- Node11&#45;&gt;Node10 -->
<g id="edge10" class="edge">
<title>Node11&#45;&gt;Node10</title>
<path fill="none" stroke="#9a32cd" stroke-dasharray="5,2" d="M22.07,-368.25C27.05,-379.74 35.1,-393.52 47,-401 189.15,-490.35 400.64,-472.05 495.44,-457.79"/>
<polygon fill="#9a32cd" stroke="#9a32cd" points="25.21,-366.65 18.34,-358.58 18.68,-369.17 25.21,-366.65"/>
<text text-anchor="middle" x="185.5" y="-468" font-family="Helvetica,sans-Serif" font-size="10.00"> ptr</text>
</g>
<!-- Node15 -->
<g id="node15" class="node">
<title>Node15</title>
<g id="a_node15"><a xlink:title="STL class.">
<polygon fill="white" stroke="#bfbfbf" points="135,-193.5 135,-212.5 236,-212.5 236,-193.5 135,-193.5"/>
<text text-anchor="middle" x="185.5" y="-200.5" font-family="Helvetica,sans-Serif" font-size="10.00">std::map&lt; K, T &gt;</text>
</a>
</g>
</g>
<!-- Node11&#45;&gt;Node15 -->
<g id="edge16" class="edge">
<title>Node11&#45;&gt;Node15</title>
<path fill="none" stroke="#9a32cd" stroke-dasharray="5,2" d="M21.84,-329.79C27,-316.35 35.35,-298.62 47,-286 79.54,-250.77 130.42,-225.41 160.31,-212.56"/>
<polygon fill="#9a32cd" stroke="#9a32cd" points="18.45,-328.88 18.38,-339.47 25.04,-331.23 18.45,-328.88"/>
<text text-anchor="middle" x="71.5" y="-289" font-family="Helvetica,sans-Serif" font-size="10.00"> elements</text>
</g>
<!-- Node17 -->
<g id="node17" class="node">
<title>Node17</title>
<g id="a_node17"><a xlink:title="STL class.">
<polygon fill="white" stroke="#bfbfbf" points="126.5,-339.5 126.5,-358.5 244.5,-358.5 244.5,-339.5 126.5,-339.5"/>
<text text-anchor="middle" x="185.5" y="-346.5" font-family="Helvetica,sans-Serif" font-size="10.00">std::shared_ptr&lt; T &gt;</text>
</a>
</g>
</g>
<!-- Node11&#45;&gt;Node17 -->
<g id="edge18" class="edge">
<title>Node11&#45;&gt;Node17</title>
<path fill="none" stroke="#9a32cd" stroke-dasharray="5,2" d="M39.31,-349C61.78,-349 96.37,-349 126.14,-349"/>
<polygon fill="#9a32cd" stroke="#9a32cd" points="39.04,-345.5 29.04,-349 39.04,-352.5 39.04,-345.5"/>
<text text-anchor="middle" x="71.5" y="-352" font-family="Helvetica,sans-Serif" font-size="10.00"> ptr</text>
</g>
<!-- Node18 -->
<g id="node18" class="node">
<title>Node18</title>
<g id="a_node18"><a xlink:title="STL class.">
<polygon fill="white" stroke="#bfbfbf" points="749.5,-359.5 749.5,-378.5 867.5,-378.5 867.5,-359.5 749.5,-359.5"/>
<text text-anchor="middle" x="808.5" y="-366.5" font-family="Helvetica,sans-Serif" font-size="10.00">std::unique_ptr&lt; T &gt;</text>
</a>
</g>
</g>
<!-- Node11&#45;&gt;Node18 -->
<g id="edge20" class="edge">
<title>Node11&#45;&gt;Node18</title>
<path fill="none" stroke="#9a32cd" stroke-dasharray="5,2" d="M38.39,-361.13C41.23,-362.26 44.14,-363.26 47,-364 75.89,-371.44 84.18,-367.09 114,-368 349.57,-375.2 630.37,-371.97 749.49,-370.06"/>
<polygon fill="#9a32cd" stroke="#9a32cd" points="39.73,-357.89 29.18,-356.92 36.82,-364.26 39.73,-357.89"/>
<text text-anchor="middle" x="359" y="-375" font-family="Helvetica,sans-Serif" font-size="10.00"> ptr</text>
</g>
<!-- Node29 -->
<g id="node29" class="node">
<title>Node29</title>
<g id="a_node29"><a xlink:title="STL class.">
<polygon fill="white" stroke="#bfbfbf" points="137,-261.5 137,-280.5 234,-280.5 234,-261.5 137,-261.5"/>
<text text-anchor="middle" x="185.5" y="-268.5" font-family="Helvetica,sans-Serif" font-size="10.00">std::vector&lt; T &gt;</text>
</a>
</g>
</g>
<!-- Node11&#45;&gt;Node29 -->
<g id="edge39" class="edge">
<title>Node11&#45;&gt;Node29</title>
<path fill="none" stroke="#9a32cd" stroke-dasharray="5,2" d="M37.76,-334.08C57.23,-321.54 86.59,-303.82 114,-292 124.32,-287.55 135.88,-283.68 146.6,-280.51"/>
<polygon fill="#9a32cd" stroke="#9a32cd" points="35.76,-331.2 29.31,-339.6 39.59,-337.06 35.76,-331.2"/>
<text text-anchor="middle" x="71.5" y="-331" font-family="Helvetica,sans-Serif" font-size="10.00"> elements</text>
</g>
<!-- Node12 -->
<g id="node12" class="node">
<title>Node12</title>
<g id="a_node12"><a xlink:title=" ">
<polygon fill="white" stroke="#bfbfbf" points="1063.5,-307 1063.5,-337 1195.5,-337 1195.5,-307 1063.5,-307"/>
<text text-anchor="start" x="1071.5" y="-325" font-family="Helvetica,sans-Serif" font-size="10.00">std::unique_ptr&lt; itk</text>
<text text-anchor="middle" x="1129.5" y="-314" font-family="Helvetica,sans-Serif" font-size="10.00">::MetaDataDictionary &gt;</text>
</a>
</g>
</g>
<!-- Node12&#45;&gt;Node7 -->
<g id="edge11" class="edge">
<title>Node12&#45;&gt;Node7</title>
<path fill="none" stroke="#9a32cd" stroke-dasharray="5,2" d="M1205.85,-321.5C1248.04,-321.87 1301.54,-323.4 1349,-328 1372.12,-330.24 1397.93,-334.59 1417.74,-338.33"/>
<polygon fill="#9a32cd" stroke="#9a32cd" points="1205.68,-318 1195.66,-321.43 1205.64,-325 1205.68,-318"/>
<text text-anchor="middle" x="1282.5" y="-331" font-family="Helvetica,sans-Serif" font-size="10.00"> m_MetaDataDictionary</text>
</g>
<!-- Node13 -->
<g id="node13" class="node">
<title>Node13</title>
<g id="a_node13"><a xlink:href="https://www.itk.org/Doxygen/html/classitk_1_1MetaDataDictionary.html" xlink:title=" ">
<polygon fill="white" stroke="black" points="741.5,-299.5 741.5,-318.5 875.5,-318.5 875.5,-299.5 741.5,-299.5"/>
<text text-anchor="middle" x="808.5" y="-306.5" font-family="Helvetica,sans-Serif" font-size="10.00">itk::MetaDataDictionary</text>
</a>
</g>
</g>
<!-- Node13&#45;&gt;Node12 -->
<g id="edge12" class="edge">
<title>Node13&#45;&gt;Node12</title>
<path fill="none" stroke="#9a32cd" stroke-dasharray="5,2" d="M885.68,-304.69C931.39,-303.01 990.62,-302.44 1043,-307 1049.61,-307.58 1056.47,-308.4 1063.3,-309.36"/>
<polygon fill="#9a32cd" stroke="#9a32cd" points="885.41,-301.2 875.56,-305.09 885.68,-308.19 885.41,-301.2"/>
<text text-anchor="middle" x="971.5" y="-310" font-family="Helvetica,sans-Serif" font-size="10.00"> ptr</text>
</g>
<!-- Node14 -->
<g id="node14" class="node">
<title>Node14</title>
<g id="a_node14"><a xlink:title=" ">
<polygon fill="white" stroke="#bfbfbf" points="471,-303 471,-333 620,-333 620,-303 471,-303"/>
<text text-anchor="start" x="479" y="-321" font-family="Helvetica,sans-Serif" font-size="10.00">std::shared_ptr&lt; MetaData</text>
<text text-anchor="middle" x="545.5" y="-310" font-family="Helvetica,sans-Serif" font-size="10.00">DictionaryMapType &gt;</text>
</a>
</g>
</g>
<!-- Node14&#45;&gt;Node13 -->
<g id="edge13" class="edge">
<title>Node14&#45;&gt;Node13</title>
<path fill="none" stroke="#9a32cd" stroke-dasharray="5,2" d="M630.66,-315.1C666.42,-313.86 707.5,-312.45 741.07,-311.29"/>
<polygon fill="#9a32cd" stroke="#9a32cd" points="630.12,-311.61 620.25,-315.46 630.36,-318.61 630.12,-311.61"/>
<text text-anchor="middle" x="682.5" y="-317" font-family="Helvetica,sans-Serif" font-size="10.00"> m_Dictionary</text>
</g>
<!-- Node15&#45;&gt;Node14 -->
<g id="edge14" class="edge">
<title>Node15&#45;&gt;Node14</title>
<path fill="none" stroke="#9a32cd" stroke-dasharray="5,2" d="M246.24,-211.94C317.14,-222.99 427.72,-241.84 443,-254 458.25,-266.14 446.27,-281.23 461,-294 464.99,-297.46 469.45,-300.42 474.18,-302.95"/>
<polygon fill="#9a32cd" stroke="#9a32cd" points="246.51,-208.43 236.09,-210.36 245.43,-215.35 246.51,-208.43"/>
<text text-anchor="middle" x="359" y="-257" font-family="Helvetica,sans-Serif" font-size="10.00"> ptr</text>
</g>
<!-- Node25 -->
<g id="node25" class="node">
<title>Node25</title>
<g id="a_node25"><a xlink:title=" ">
<polygon fill="white" stroke="#bfbfbf" points="1367,-77 1367,-107 1536,-107 1536,-77 1367,-77"/>
<text text-anchor="start" x="1375" y="-95" font-family="Helvetica,sans-Serif" font-size="10.00">std::map&lt; DataObjectIdentifier</text>
<text text-anchor="middle" x="1451.5" y="-84" font-family="Helvetica,sans-Serif" font-size="10.00">Type, bool &gt;</text>
</a>
</g>
</g>
<!-- Node15&#45;&gt;Node25 -->
<g id="edge33" class="edge">
<title>Node15&#45;&gt;Node25</title>
<path fill="none" stroke="orange" stroke-dasharray="5,2" d="M208.12,-187.43C262.06,-150.19 408.03,-59 544.5,-59 544.5,-59 544.5,-59 1130.5,-59 1211.06,-59 1302.44,-69.48 1366.86,-78.63"/>
<polygon fill="orange" stroke="orange" points="205.89,-184.72 199.71,-193.33 209.9,-190.46 205.89,-184.72"/>
<text text-anchor="start" x="739" y="-73" font-family="Helvetica,sans-Serif" font-size="10.00"> &lt; DataObjectIdentifierType,</text>
<text text-anchor="middle" x="808.5" y="-62" font-family="Helvetica,sans-Serif" font-size="10.00"> bool &gt;</text>
</g>
<!-- Node30 -->
<g id="node30" class="node">
<title>Node30</title>
<g id="a_node30"><a xlink:title=" ">
<polygon fill="white" stroke="#bfbfbf" points="1367,-175 1367,-205 1536,-205 1536,-175 1367,-175"/>
<text text-anchor="start" x="1375" y="-193" font-family="Helvetica,sans-Serif" font-size="10.00">std::map&lt; DataObjectIdentifier</text>
<text text-anchor="middle" x="1451.5" y="-182" font-family="Helvetica,sans-Serif" font-size="10.00">Type, DataObjectPointer &gt;</text>
</a>
</g>
</g>
<!-- Node15&#45;&gt;Node30 -->
<g id="edge44" class="edge">
<title>Node15&#45;&gt;Node30</title>
<path fill="none" stroke="orange" stroke-dasharray="5,2" d="M246.52,-203.24C404.96,-203.85 847.56,-205.46 1216,-206 1275.11,-206.09 1290.07,-210.62 1349,-206 1354.87,-205.54 1360.91,-204.93 1366.99,-204.22"/>
<polygon fill="orange" stroke="orange" points="246.07,-199.73 236.05,-203.2 246.04,-206.73 246.07,-199.73"/>
<text text-anchor="start" x="739" y="-220" font-family="Helvetica,sans-Serif" font-size="10.00"> &lt; DataObjectIdentifierType,</text>
<text text-anchor="middle" x="808.5" y="-209" font-family="Helvetica,sans-Serif" font-size="10.00"> DataObjectPointer &gt;</text>
</g>
<!-- Node16 -->
<g id="node16" class="node">
<title>Node16</title>
<g id="a_node16"><a xlink:title=" ">
<polygon fill="white" stroke="#bfbfbf" points="0,-119.5 0,-138.5 29,-138.5 29,-119.5 0,-119.5"/>
<text text-anchor="middle" x="14.5" y="-126.5" font-family="Helvetica,sans-Serif" font-size="10.00">K</text>
</a>
</g>
</g>
<!-- Node16&#45;&gt;Node15 -->
<g id="edge15" class="edge">
<title>Node16&#45;&gt;Node15</title>
<path fill="none" stroke="#9a32cd" stroke-dasharray="5,2" d="M38.23,-138.95C70.8,-153.21 130.37,-179.3 162.52,-193.38"/>
<polygon fill="#9a32cd" stroke="#9a32cd" points="39.61,-135.74 29.04,-134.93 36.8,-142.15 39.61,-135.74"/>
<text text-anchor="middle" x="71.5" y="-167" font-family="Helvetica,sans-Serif" font-size="10.00"> keys</text>
</g>
<!-- Node24 -->
<g id="node24" class="node">
<title>Node24</title>
<g id="a_node24"><a xlink:title="STL class.">
<polygon fill="white" stroke="#bfbfbf" points="318,-7.5 318,-26.5 400,-26.5 400,-7.5 318,-7.5"/>
<text text-anchor="middle" x="359" y="-14.5" font-family="Helvetica,sans-Serif" font-size="10.00">std::set&lt; K &gt;</text>
</a>
</g>
</g>
<!-- Node16&#45;&gt;Node24 -->
<g id="edge30" class="edge">
<title>Node16&#45;&gt;Node24</title>
<path fill="none" stroke="#9a32cd" stroke-dasharray="5,2" d="M39.2,-121.25C100.17,-101.31 262.35,-48.28 328.89,-26.52"/>
<polygon fill="#9a32cd" stroke="#9a32cd" points="37.77,-118.04 29.35,-124.47 39.94,-124.69 37.77,-118.04"/>
<text text-anchor="middle" x="71.5" y="-121" font-family="Helvetica,sans-Serif" font-size="10.00"> keys</text>
</g>
<!-- Node17&#45;&gt;Node14 -->
<g id="edge17" class="edge">
<title>Node17&#45;&gt;Node14</title>
<path fill="none" stroke="orange" stroke-dasharray="5,2" d="M254.62,-343.21C306.31,-338.81 379.13,-332.57 443,-327 451.99,-326.22 461.42,-325.39 470.77,-324.56"/>
<polygon fill="orange" stroke="orange" points="254.24,-339.73 244.57,-344.07 254.83,-346.71 254.24,-339.73"/>
<text text-anchor="middle" x="359" y="-344" font-family="Helvetica,sans-Serif" font-size="10.00"> &lt; MetaDataDictionaryMapType &gt;</text>
</g>
<!-- Node18&#45;&gt;Node12 -->
<g id="edge19" class="edge">
<title>Node18&#45;&gt;Node12</title>
<path fill="none" stroke="orange" stroke-dasharray="5,2" d="M875.47,-357.87C883.72,-356.53 892.05,-355.21 900,-354 955.04,-345.59 1017.68,-336.87 1063.43,-330.67"/>
<polygon fill="orange" stroke="orange" points="874.77,-354.44 865.47,-359.5 875.9,-361.34 874.77,-354.44"/>
<text text-anchor="middle" x="971.5" y="-357" font-family="Helvetica,sans-Serif" font-size="10.00"> &lt; itk::MetaDataDictionary &gt;</text>
</g>
<!-- Node21 -->
<g id="node21" class="node">
<title>Node21</title>
<g id="a_node21"><a xlink:title=" ">
<polygon fill="white" stroke="#bfbfbf" points="1061,-356 1061,-386 1198,-386 1198,-356 1061,-356"/>
<text text-anchor="start" x="1069" y="-374" font-family="Helvetica,sans-Serif" font-size="10.00">std::unique_ptr&lt; Subject</text>
<text text-anchor="middle" x="1129.5" y="-363" font-family="Helvetica,sans-Serif" font-size="10.00">Implementation &gt;</text>
</a>
</g>
</g>
<!-- Node18&#45;&gt;Node21 -->
<g id="edge24" class="edge">
<title>Node18&#45;&gt;Node21</title>
<path fill="none" stroke="orange" stroke-dasharray="5,2" d="M877.81,-369.43C931.85,-369.77 1006.93,-370.24 1060.8,-370.58"/>
<polygon fill="orange" stroke="orange" points="877.66,-365.93 867.64,-369.36 877.62,-372.93 877.66,-365.93"/>
<text text-anchor="middle" x="971.5" y="-373" font-family="Helvetica,sans-Serif" font-size="10.00"> &lt; SubjectImplementation &gt;</text>
</g>
<!-- Node19 -->
<g id="node19" class="node">
<title>Node19</title>
<g id="a_node19"><a xlink:title="STL class.">
<polygon fill="white" stroke="#bfbfbf" points="1097,-105.5 1097,-124.5 1162,-124.5 1162,-105.5 1097,-105.5"/>
<text text-anchor="middle" x="1129.5" y="-112.5" font-family="Helvetica,sans-Serif" font-size="10.00">std::string</text>
</a>
</g>
</g>
<!-- Node19&#45;&gt;Node7 -->
<g id="edge21" class="edge">
<title>Node19&#45;&gt;Node7</title>
<path fill="none" stroke="#9a32cd" stroke-dasharray="5,2" d="M1171.91,-122.9C1181.22,-126.13 1190.55,-130.65 1198,-137 1211.32,-148.34 1204.66,-158.68 1216,-172 1282.07,-249.63 1389.41,-312.24 1432.12,-335.37"/>
<polygon fill="#9a32cd" stroke="#9a32cd" points="1172.86,-119.54 1162.28,-119.99 1170.84,-126.24 1172.86,-119.54"/>
<text text-anchor="middle" x="1282.5" y="-286" font-family="Helvetica,sans-Serif" font-size="10.00"> m_ObjectName</text>
</g>
<!-- Node23 -->
<g id="node23" class="node">
<title>Node23</title>
<g id="a_node23"><a xlink:title=" ">
<polygon fill="white" stroke="#bfbfbf" points="1370.5,-18 1370.5,-48 1532.5,-48 1532.5,-18 1370.5,-18"/>
<text text-anchor="start" x="1378.5" y="-36" font-family="Helvetica,sans-Serif" font-size="10.00">std::set&lt; DataObjectIdentifier</text>
<text text-anchor="middle" x="1451.5" y="-25" font-family="Helvetica,sans-Serif" font-size="10.00">Type &gt;</text>
</a>
</g>
</g>
<!-- Node19&#45;&gt;Node23 -->
<g id="edge28" class="edge">
<title>Node19&#45;&gt;Node23</title>
<path fill="none" stroke="#9a32cd" stroke-dasharray="5,2" d="M1154.99,-100.19C1171.64,-90.75 1194.48,-79.02 1216,-72 1266.02,-55.68 1324.39,-45.94 1370.38,-40.28"/>
<polygon fill="#9a32cd" stroke="#9a32cd" points="1152.85,-97.38 1145.96,-105.42 1156.37,-103.44 1152.85,-97.38"/>
<text text-anchor="middle" x="1282.5" y="-75" font-family="Helvetica,sans-Serif" font-size="10.00"> keys</text>
</g>
<!-- Node19&#45;&gt;Node25 -->
<g id="edge32" class="edge">
<title>Node19&#45;&gt;Node25</title>
<path fill="none" stroke="#9a32cd" stroke-dasharray="5,2" d="M1170.21,-102.6C1184.5,-98.73 1200.83,-94.95 1216,-93 1265.77,-86.59 1321.97,-86.12 1366.87,-87.36"/>
<polygon fill="#9a32cd" stroke="#9a32cd" points="1168.89,-99.34 1160.22,-105.42 1170.79,-106.08 1168.89,-99.34"/>
<text text-anchor="middle" x="1282.5" y="-96" font-family="Helvetica,sans-Serif" font-size="10.00"> keys</text>
</g>
<!-- Node19&#45;&gt;Node30 -->
<g id="edge43" class="edge">
<title>Node19&#45;&gt;Node30</title>
<path fill="none" stroke="#9a32cd" stroke-dasharray="5,2" d="M1172.39,-116.57C1216.95,-119.11 1289.12,-125.75 1349,-143 1375.5,-150.64 1403.83,-164.26 1423.81,-174.88"/>
<polygon fill="#9a32cd" stroke="#9a32cd" points="1172.4,-113.07 1162.23,-116.03 1172.03,-120.06 1172.4,-113.07"/>
<text text-anchor="middle" x="1282.5" y="-146" font-family="Helvetica,sans-Serif" font-size="10.00"> keys</text>
</g>
<!-- Node20 -->
<g id="node20" class="node">
<title>Node20</title>
<g id="a_node20"><a xlink:title="STL class.">
<polygon fill="white" stroke="#bfbfbf" points="756.5,-100 756.5,-130 860.5,-130 860.5,-100 756.5,-100"/>
<text text-anchor="start" x="764.5" y="-118" font-family="Helvetica,sans-Serif" font-size="10.00">std::basic_string&lt;</text>
<text text-anchor="middle" x="808.5" y="-107" font-family="Helvetica,sans-Serif" font-size="10.00"> char &gt;</text>
</a>
</g>
</g>
<!-- Node20&#45;&gt;Node19 -->
<g id="edge22" class="edge">
<title>Node20&#45;&gt;Node19</title>
<path fill="none" stroke="midnightblue" d="M870.83,-115C938.34,-115 1044.23,-115 1096.76,-115"/>
<polygon fill="midnightblue" stroke="midnightblue" points="870.75,-111.5 860.75,-115 870.75,-118.5 870.75,-111.5"/>
</g>
<!-- Node21&#45;&gt;Node7 -->
<g id="edge23" class="edge">
<title>Node21&#45;&gt;Node7</title>
<path fill="none" stroke="#9a32cd" stroke-dasharray="5,2" d="M1208.48,-364.66C1275.6,-359.21 1369.1,-351.61 1417.91,-347.65"/>
<polygon fill="#9a32cd" stroke="#9a32cd" points="1208.05,-361.19 1198.36,-365.49 1208.61,-368.16 1208.05,-361.19"/>
<text text-anchor="middle" x="1282.5" y="-367" font-family="Helvetica,sans-Serif" font-size="10.00"> m_SubjectImplementation</text>
</g>
<!-- Node22&#45;&gt;Node6 -->
<g id="edge45" class="edge">
<title>Node22&#45;&gt;Node6</title>
<path fill="none" stroke="#9a32cd" stroke-dasharray="5,2" d="M1185.78,-452.9C1230.28,-451.88 1294.22,-448.28 1349,-437 1508.83,-404.1 1547.53,-384.71 1696,-317 1723.11,-304.64 1752.75,-286.54 1769.93,-275.55"/>
<polygon fill="#9a32cd" stroke="#9a32cd" points="1185.68,-449.4 1175.75,-453.09 1185.81,-456.4 1185.68,-449.4"/>
<text text-anchor="middle" x="1451.5" y="-435" font-family="Helvetica,sans-Serif" font-size="10.00"> m_OutputInformationMTime</text>
</g>
<!-- Node22&#45;&gt;Node7 -->
<g id="edge25" class="edge">
<title>Node22&#45;&gt;Node7</title>
<path fill="none" stroke="#9a32cd" stroke-dasharray="5,2" d="M1177.82,-440.61C1184.64,-438.56 1191.54,-436.33 1198,-434 1206.23,-431.03 1207.63,-428.57 1216,-426 1273.41,-408.34 1292.48,-422.32 1349,-402 1382.47,-389.97 1417.89,-367.54 1436.77,-354.69"/>
<polygon fill="#9a32cd" stroke="#9a32cd" points="1176.56,-437.34 1167.94,-443.5 1178.52,-444.06 1176.56,-437.34"/>
<text text-anchor="middle" x="1282.5" y="-429" font-family="Helvetica,sans-Serif" font-size="10.00"> m_MTime</text>
</g>
<!-- Node23&#45;&gt;Node6 -->
<g id="edge27" class="edge">
<title>Node23&#45;&gt;Node6</title>
<path fill="none" stroke="#9a32cd" stroke-dasharray="5,2" d="M1542.5,-28.86C1594.92,-31.61 1657.99,-44.72 1696,-87 1743.84,-140.21 1667.37,-192.72 1714,-247 1719.12,-252.96 1725.9,-257.15 1733.23,-260.07"/>
<polygon fill="#9a32cd" stroke="#9a32cd" points="1542.64,-25.36 1532.5,-28.45 1542.35,-32.36 1542.64,-25.36"/>
<text text-anchor="middle" x="1625" y="-90" font-family="Helvetica,sans-Serif" font-size="10.00"> m_RequiredInputNames</text>
</g>
<!-- Node24&#45;&gt;Node23 -->
<g id="edge29" class="edge">
<title>Node24&#45;&gt;Node23</title>
<path fill="none" stroke="orange" stroke-dasharray="5,2" d="M410.15,-12.7C473.37,-7.67 585.4,0 681.5,0 681.5,0 681.5,0 1130.5,0 1212.46,0 1305.61,-10.84 1370.19,-20.1"/>
<polygon fill="orange" stroke="orange" points="409.75,-9.23 400.06,-13.52 410.31,-16.2 409.75,-9.23"/>
<text text-anchor="middle" x="808.5" y="-3" font-family="Helvetica,sans-Serif" font-size="10.00"> &lt; DataObjectIdentifierType &gt;</text>
</g>
<!-- Node25&#45;&gt;Node6 -->
<g id="edge31" class="edge">
<title>Node25&#45;&gt;Node6</title>
<path fill="none" stroke="#9a32cd" stroke-dasharray="5,2" d="M1546.27,-98.93C1597.34,-107.59 1657.74,-126.61 1696,-168 1720.44,-194.44 1689.04,-221.04 1714,-247 1719.36,-252.57 1726.17,-256.57 1733.43,-259.42"/>
<polygon fill="#9a32cd" stroke="#9a32cd" points="1546.62,-95.44 1536.19,-97.33 1545.52,-102.35 1546.62,-95.44"/>
<text text-anchor="start" x="1554" y="-182" font-family="Helvetica,sans-Serif" font-size="10.00"> m_CachedInputReleaseData</text>
<text text-anchor="middle" x="1625" y="-171" font-family="Helvetica,sans-Serif" font-size="10.00">Flags</text>
</g>
<!-- Node26&#45;&gt;Node6 -->
<g id="edge34" class="edge">
<title>Node26&#45;&gt;Node6</title>
<path fill="none" stroke="#9a32cd" stroke-dasharray="5,2" d="M1048.71,-494.76C1158.68,-498.03 1367.2,-496.11 1536,-447 1613.32,-424.5 1632.25,-411.19 1696,-362 1730.64,-335.27 1763.35,-294.28 1777.35,-275.72"/>
<polygon fill="#9a32cd" stroke="#9a32cd" points="1048.81,-491.26 1038.7,-494.44 1048.58,-498.26 1048.81,-491.26"/>
<text text-anchor="middle" x="1282.5" y="-496" font-family="Helvetica,sans-Serif" font-size="10.00"> m_Progress</text>
</g>
<!-- Node27 -->
<g id="node27" class="node">
<title>Node27</title>
<g id="a_node27"><a xlink:title=" ">
<polygon fill="white" stroke="#bfbfbf" points="461,-254 461,-284 630,-284 630,-254 461,-254"/>
<text text-anchor="start" x="469" y="-272" font-family="Helvetica,sans-Serif" font-size="10.00">std::vector&lt; DataObjectPointer</text>
<text text-anchor="middle" x="545.5" y="-261" font-family="Helvetica,sans-Serif" font-size="10.00">Map::iterator &gt;</text>
</a>
</g>
</g>
<!-- Node27&#45;&gt;Node6 -->
<g id="edge36" class="edge">
<title>Node27&#45;&gt;Node6</title>
<path fill="none" stroke="#9a32cd" stroke-dasharray="5,2" d="M640.33,-267.4C690.02,-266.68 752.07,-266 807.5,-266 807.5,-266 807.5,-266 1452.5,-266 1551.93,-266 1668.1,-266 1733.31,-266"/>
<polygon fill="#9a32cd" stroke="#9a32cd" points="640.19,-263.9 630.25,-267.55 640.3,-270.9 640.19,-263.9"/>
<text text-anchor="middle" x="1129.5" y="-280" font-family="Helvetica,sans-Serif" font-size="10.00"> m_IndexedOutputs</text>
<text text-anchor="middle" x="1129.5" y="-269" font-family="Helvetica,sans-Serif" font-size="10.00">m_IndexedInputs</text>
</g>
<!-- Node28 -->
<g id="node28" class="node">
<title>Node28</title>
<g id="a_node28"><a xlink:title="STL iterator class.">
<polygon fill="white" stroke="#bfbfbf" points="114,-301.5 114,-320.5 257,-320.5 257,-301.5 114,-301.5"/>
<text text-anchor="middle" x="185.5" y="-308.5" font-family="Helvetica,sans-Serif" font-size="10.00">std::map&lt; K, T &gt;::iterator</text>
</a>
</g>
</g>
<!-- Node28&#45;&gt;Node27 -->
<g id="edge37" class="edge">
<title>Node28&#45;&gt;Node27</title>
<path fill="none" stroke="#9a32cd" stroke-dasharray="5,2" d="M267.3,-308.69C317.99,-306.41 384.58,-301.9 443,-293 457.77,-290.75 473.56,-287.46 488.18,-284.03"/>
<polygon fill="#9a32cd" stroke="#9a32cd" points="266.9,-305.2 257.06,-309.13 267.2,-312.19 266.9,-305.2"/>
<text text-anchor="middle" x="359" y="-311" font-family="Helvetica,sans-Serif" font-size="10.00"> elements</text>
</g>
<!-- Node29&#45;&gt;Node27 -->
<g id="edge38" class="edge">
<title>Node29&#45;&gt;Node27</title>
<path fill="none" stroke="orange" stroke-dasharray="5,2" d="M244.23,-270.68C302.82,-270.35 394.14,-269.84 460.7,-269.47"/>
<polygon fill="orange" stroke="orange" points="244.02,-267.18 234.04,-270.73 244.06,-274.18 244.02,-267.18"/>
<text text-anchor="start" x="296.5" y="-284" font-family="Helvetica,sans-Serif" font-size="10.00"> &lt; DataObjectPointerMap</text>
<text text-anchor="middle" x="359" y="-273" font-family="Helvetica,sans-Serif" font-size="10.00">::iterator &gt;</text>
</g>
<!-- Node30&#45;&gt;Node6 -->
<g id="edge40" class="edge">
<title>Node30&#45;&gt;Node6</title>
<path fill="none" stroke="#9a32cd" stroke-dasharray="5,2" d="M1546.43,-192.54C1593.38,-196.94 1649.86,-207.15 1696,-230 1705.86,-234.88 1704.4,-241.63 1714,-247 1720.86,-250.84 1728.53,-253.93 1736.22,-256.41"/>
<polygon fill="#9a32cd" stroke="#9a32cd" points="1546.52,-189.03 1536.26,-191.66 1545.92,-196 1546.52,-189.03"/>
<text text-anchor="middle" x="1625" y="-244" font-family="Helvetica,sans-Serif" font-size="10.00"> m_Outputs</text>
<text text-anchor="middle" x="1625" y="-233" font-family="Helvetica,sans-Serif" font-size="10.00">m_Inputs</text>
</g>
<!-- Node31 -->
<g id="node31" class="node">
<title>Node31</title>
<g id="a_node31"><a xlink:href="https://www.itk.org/Doxygen/html/classitk_1_1SmartPointer.html" xlink:title=" ">
<polygon fill="white" stroke="black" points="1076,-147 1076,-177 1183,-177 1183,-147 1076,-147"/>
<text text-anchor="start" x="1084" y="-165" font-family="Helvetica,sans-Serif" font-size="10.00">itk::SmartPointer&lt;</text>
<text text-anchor="middle" x="1129.5" y="-154" font-family="Helvetica,sans-Serif" font-size="10.00"> Self &gt;</text>
</a>
</g>
</g>
<!-- Node31&#45;&gt;Node30 -->
<g id="edge41" class="edge">
<title>Node31&#45;&gt;Node30</title>
<path fill="none" stroke="#9a32cd" stroke-dasharray="5,2" d="M1193.62,-161.18C1201.16,-161.1 1208.75,-161.04 1216,-161 1275.11,-160.65 1290.46,-152.8 1349,-161 1368.6,-163.75 1389.73,-169.34 1407.61,-174.88"/>
<polygon fill="#9a32cd" stroke="#9a32cd" points="1193.37,-157.68 1183.41,-161.28 1193.44,-164.68 1193.37,-157.68"/>
<text text-anchor="middle" x="1282.5" y="-164" font-family="Helvetica,sans-Serif" font-size="10.00"> elements</text>
</g>
<!-- Node32 -->
<g id="node32" class="node">
<title>Node32</title>
<g id="a_node32"><a xlink:href="https://www.itk.org/Doxygen/html/classitk_1_1SmartPointer.html" xlink:title=" ">
<polygon fill="white" stroke="black" points="755,-149 755,-179 862,-179 862,-149 755,-149"/>
<text text-anchor="start" x="763" y="-167" font-family="Helvetica,sans-Serif" font-size="10.00">itk::SmartPointer&lt;</text>
<text text-anchor="middle" x="808.5" y="-156" font-family="Helvetica,sans-Serif" font-size="10.00"> TObjectType &gt;</text>
</a>
</g>
</g>
<!-- Node32&#45;&gt;Node31 -->
<g id="edge42" class="edge">
<title>Node32&#45;&gt;Node31</title>
<path fill="none" stroke="orange" stroke-dasharray="5,2" d="M872.19,-163.61C931.6,-163.23 1019.84,-162.68 1075.75,-162.33"/>
<polygon fill="orange" stroke="orange" points="872.15,-160.11 862.18,-163.67 872.2,-167.11 872.15,-160.11"/>
<text text-anchor="middle" x="971.5" y="-167" font-family="Helvetica,sans-Serif" font-size="10.00"> &lt; Self &gt;</text>
</g>
<!-- Node33 -->
<g id="node33" class="node">
<title>Node33</title>
<g id="a_node33"><a xlink:href="https://www.itk.org/Doxygen/html/structitk_1_1ImageSourceCommon.html" xlink:title=" ">
<polygon fill="white" stroke="black" points="1714,-218.5 1714,-237.5 1857,-237.5 1857,-218.5 1714,-218.5"/>
<text text-anchor="middle" x="1785.5" y="-225.5" font-family="Helvetica,sans-Serif" font-size="10.00">itk::ImageSourceCommon</text>
</a>
</g>
</g>
<!-- Node33&#45;&gt;Node5 -->
<g id="edge46" class="edge">
<title>Node33&#45;&gt;Node5</title>
<path fill="none" stroke="#8b1a1a" d="M1867.31,-234.65C1880.58,-235.74 1894.26,-236.86 1907.34,-237.94"/>
<polygon fill="#8b1a1a" stroke="#8b1a1a" points="1867.52,-231.15 1857.27,-233.82 1866.95,-238.13 1867.52,-231.15"/>
</g>
<!-- Node34 -->
<g id="node34" class="node">
<title>Node34</title>
<g id="a_node34"><a xlink:href="https://www.itk.org/Doxygen/html/classitk_1_1ImageToImageFilterCommon.html" xlink:title=" ">
<polygon fill="white" stroke="black" points="1894,-190.5 1894,-209.5 2070,-209.5 2070,-190.5 1894,-190.5"/>
<text text-anchor="middle" x="1982" y="-197.5" font-family="Helvetica,sans-Serif" font-size="10.00">itk::ImageToImageFilterCommon</text>
</a>
</g>
</g>
<!-- Node34&#45;&gt;Node4 -->
<g id="edge47" class="edge">
<title>Node34&#45;&gt;Node4</title>
<path fill="none" stroke="#8b1a1a" d="M2080.07,-205.52C2088.99,-206.03 2097.99,-206.54 2106.82,-207.04"/>
<polygon fill="#8b1a1a" stroke="#8b1a1a" points="2080.22,-202.02 2070.04,-204.95 2079.83,-209.01 2080.22,-202.02"/>
</g>
<!-- Node35&#45;&gt;Node2 -->
<g id="edge48" class="edge">
<title>Node35&#45;&gt;Node2</title>
<path fill="none" stroke="orange" stroke-dasharray="5,2" d="M2719.48,-196.04C2774.86,-199.47 2843.39,-203.72 2895.82,-206.97"/>
<polygon fill="orange" stroke="orange" points="2719.49,-192.54 2709.3,-195.41 2719.06,-199.52 2719.49,-192.54"/>
<text text-anchor="middle" x="2802.5" y="-209" font-family="Helvetica,sans-Serif" font-size="10.00"> &lt; TImageType, TImageType &gt;</text>
</g>
</g>
</svg>
