<?xml version="1.0" encoding="UTF-8" standalone="no"?>
<!DOCTYPE svg PUBLIC "-//W3C//DTD SVG 1.1//EN"
 "http://www.w3.org/Graphics/SVG/1.1/DTD/svg11.dtd">
<!-- Generated by graphviz version 2.43.0 (0)
 -->
<!-- Title: sitkMemberFunctionFactoryBase.h Pages: 1 -->
<!--zoomable 263 -->
<svg id="main" version="1.1" xmlns="http://www.w3.org/2000/svg" xmlns:xlink="http://www.w3.org/1999/xlink" xml:space="preserve" onload="init(evt)">
<style type="text/css"><![CDATA[
.edge:hover path { stroke: red; }
.edge:hover polygon { stroke: red; fill: red; }
]]></style>
<script type="text/javascript"><![CDATA[
var edges = document.getElementsByTagName('g');
if (edges && edges.length) {
  for (var i=0;i<edges.length;i++) {
    if (edges[i].id.substr(0,4)=='edge') {
      edges[i].setAttribute('class','edge');
    }
  }
}
]]></script>
        <defs>
                <circle id="rim" cx="0" cy="0" r="7"/>
                <circle id="rim2" cx="0" cy="0" r="3.5"/>
                <g id="zoomPlus">
                        <use xlink:href="#rim" fill="#404040">
                                <set attributeName="fill" to="#808080" begin="zoomplus.mouseover" end="zoomplus.mouseout"/>
                        </use>
                        <path d="M-4,0h8M0,-4v8" fill="none" stroke="white" stroke-width="1.5" pointer-events="none"/>
                </g>
                <g id="zoomMin">
                        <use xlink:href="#rim" fill="#404040">
                                <set attributeName="fill" to="#808080" begin="zoomminus.mouseover" end="zoomminus.mouseout"/>
                        </use>
                        <path d="M-4,0h8" fill="none" stroke="white" stroke-width="1.5" pointer-events="none"/>
                </g>
                <g id="dirArrow">
                        <path fill="none" stroke="white" stroke-width="1.5" d="M0,-3.0v7 M-2.5,-0.5L0,-3.0L2.5,-0.5"/>
                </g>
               <g id="resetDef">
                       <use xlink:href="#rim2" fill="#404040">
                               <set attributeName="fill" to="#808080" begin="reset.mouseover" end="reset.mouseout"/>
                       </use>
               </g>
        </defs>

<script type="text/javascript">
var viewWidth = 985;
var viewHeight = 263;
var sectionId = 'dynsection-0';
</script>
<script xlink:href="svgpan.js"/>
<svg id="graph" class="graph">
<g id="viewport">
<title>sitkMemberFunctionFactoryBase.h</title>
<polygon fill="white" stroke="transparent" points="-4,4 -4,-259 981.32,-259 981.32,4 -4,4"/>
<!-- Node1 -->
<g id="node1" class="node">
<title>Node1</title>
<g id="a_node1"><a xlink:title=" ">
<polygon fill="#bfbfbf" stroke="black" points="394.82,-224.5 394.82,-254.5 546.82,-254.5 546.82,-224.5 394.82,-224.5"/>
<text text-anchor="start" x="402.82" y="-242.5" font-family="Helvetica,sans-Serif" font-size="10.00">sitkMemberFunctionFactory</text>
<text text-anchor="middle" x="470.82" y="-231.5" font-family="Helvetica,sans-Serif" font-size="10.00">Base.h</text>
</a>
</g>
</g>
<!-- Node2 -->
<g id="node2" class="node">
<title>Node2</title>
<g id="a_node2"><a xlink:href="sitkConfigure_8h.html" target="_top" xlink:title=" ">
<polygon fill="white" stroke="black" points="104.82,-0.5 104.82,-19.5 194.82,-19.5 194.82,-0.5 104.82,-0.5"/>
<text text-anchor="middle" x="149.82" y="-7.5" font-family="Helvetica,sans-Serif" font-size="10.00">sitkConfigure.h</text>
</a>
</g>
</g>
<!-- Node1&#45;&gt;Node2 -->
<g id="edge1" class="edge">
<title>Node1&#45;&gt;Node2</title>
<path fill="none" stroke="midnightblue" d="M394.62,-233.73C273.46,-224.22 46.5,-197.83 6.82,-132 -23.62,-81.5 60.8,-41.83 112.64,-22.99"/>
<polygon fill="midnightblue" stroke="midnightblue" points="113.95,-26.24 122.22,-19.61 111.62,-19.64 113.95,-26.24"/>
</g>
<!-- Node3 -->
<g id="node3" class="node">
<title>Node3</title>
<g id="a_node3"><a xlink:href="sitkPixelIDTypes_8h.html" target="_top" xlink:title=" ">
<polygon fill="white" stroke="black" points="16.32,-112.5 16.32,-131.5 121.32,-131.5 121.32,-112.5 16.32,-112.5"/>
<text text-anchor="middle" x="68.82" y="-119.5" font-family="Helvetica,sans-Serif" font-size="10.00">sitkPixelIDTypes.h</text>
</a>
</g>
</g>
<!-- Node1&#45;&gt;Node3 -->
<g id="edge2" class="edge">
<title>Node1&#45;&gt;Node3</title>
<path fill="none" stroke="midnightblue" d="M394.55,-238C326.74,-234.95 226.32,-223.95 146.82,-188 121.62,-176.6 98,-154.75 83.5,-139.55"/>
<polygon fill="midnightblue" stroke="midnightblue" points="85.78,-136.86 76.43,-131.89 80.64,-141.61 85.78,-136.86"/>
</g>
<!-- Node4 -->
<g id="node4" class="node">
<title>Node4</title>
<g id="a_node4"><a xlink:href="sitkPixelIDTypeLists_8h.html" target="_top" xlink:title=" ">
<polygon fill="white" stroke="black" points="155.82,-168.5 155.82,-187.5 277.82,-187.5 277.82,-168.5 155.82,-168.5"/>
<text text-anchor="middle" x="216.82" y="-175.5" font-family="Helvetica,sans-Serif" font-size="10.00">sitkPixelIDTypeLists.h</text>
</a>
</g>
</g>
<!-- Node1&#45;&gt;Node4 -->
<g id="edge3" class="edge">
<title>Node1&#45;&gt;Node4</title>
<path fill="none" stroke="midnightblue" d="M410.95,-224.47C365.69,-213.87 304.48,-199.53 262.98,-189.81"/>
<polygon fill="midnightblue" stroke="midnightblue" points="263.67,-186.38 253.13,-187.51 262.07,-193.19 263.67,-186.38"/>
</g>
<!-- Node6 -->
<g id="node6" class="node">
<title>Node6</title>
<g id="a_node6"><a xlink:title=" ">
<polygon fill="white" stroke="#bfbfbf" points="293.32,-112.5 293.32,-131.5 412.32,-131.5 412.32,-112.5 293.32,-112.5"/>
<text text-anchor="middle" x="352.82" y="-119.5" font-family="Helvetica,sans-Serif" font-size="10.00">Ancillary/type_list2.h</text>
</a>
</g>
</g>
<!-- Node1&#45;&gt;Node6 -->
<g id="edge19" class="edge">
<title>Node1&#45;&gt;Node6</title>
<path fill="none" stroke="midnightblue" d="M454.71,-224.16C443.62,-214.18 428.64,-200.48 415.82,-188 399.04,-171.66 380.44,-152.31 367.83,-139"/>
<polygon fill="midnightblue" stroke="midnightblue" points="370.23,-136.44 360.82,-131.57 365.14,-141.24 370.23,-136.44"/>
</g>
<!-- Node8 -->
<g id="node8" class="node">
<title>Node8</title>
<g id="a_node8"><a xlink:href="sitkMacro_8h.html" target="_top" xlink:title=" ">
<polygon fill="white" stroke="black" points="395.82,-56.5 395.82,-75.5 469.82,-75.5 469.82,-56.5 395.82,-56.5"/>
<text text-anchor="middle" x="432.82" y="-63.5" font-family="Helvetica,sans-Serif" font-size="10.00">sitkMacro.h</text>
</a>
</g>
</g>
<!-- Node1&#45;&gt;Node8 -->
<g id="edge9" class="edge">
<title>Node1&#45;&gt;Node8</title>
<path fill="none" stroke="midnightblue" d="M463.36,-224.31C458.47,-214.4 452.36,-200.71 448.82,-188 439.02,-152.74 435.16,-109.97 433.69,-85.88"/>
<polygon fill="midnightblue" stroke="midnightblue" points="437.17,-85.47 433.14,-75.67 430.18,-85.85 437.17,-85.47"/>
</g>
<!-- Node13 -->
<g id="node13" class="node">
<title>Node13</title>
<g id="a_node13"><a xlink:href="sitkNonCopyable_8h.html" target="_top" xlink:title=" ">
<polygon fill="white" stroke="black" points="458.32,-168.5 458.32,-187.5 567.32,-187.5 567.32,-168.5 458.32,-168.5"/>
<text text-anchor="middle" x="512.82" y="-175.5" font-family="Helvetica,sans-Serif" font-size="10.00">sitkNonCopyable.h</text>
</a>
</g>
</g>
<!-- Node1&#45;&gt;Node13 -->
<g id="edge16" class="edge">
<title>Node1&#45;&gt;Node13</title>
<path fill="none" stroke="midnightblue" d="M480.78,-224.4C486.82,-215.84 494.56,-204.87 500.92,-195.86"/>
<polygon fill="midnightblue" stroke="midnightblue" points="503.8,-197.85 506.71,-187.66 498.08,-193.81 503.8,-197.85"/>
</g>
<!-- Node15 -->
<g id="node15" class="node">
<title>Node15</title>
<g id="a_node15"><a xlink:title=" ">
<polygon fill="white" stroke="#bfbfbf" points="585.32,-168.5 585.32,-187.5 724.32,-187.5 724.32,-168.5 585.32,-168.5"/>
<text text-anchor="middle" x="654.82" y="-175.5" font-family="Helvetica,sans-Serif" font-size="10.00">Ancillary/FunctionTraits.h</text>
</a>
</g>
</g>
<!-- Node1&#45;&gt;Node15 -->
<g id="edge20" class="edge">
<title>Node1&#45;&gt;Node15</title>
<path fill="none" stroke="midnightblue" d="M514.43,-224.4C546.22,-214.12 588.8,-200.35 618.7,-190.68"/>
<polygon fill="midnightblue" stroke="midnightblue" points="619.88,-193.98 628.32,-187.57 617.72,-187.32 619.88,-193.98"/>
</g>
<!-- Node16 -->
<g id="node16" class="node">
<title>Node16</title>
<g id="a_node16"><a xlink:title=" ">
<polygon fill="white" stroke="#bfbfbf" points="742.32,-168.5 742.32,-187.5 835.32,-187.5 835.32,-168.5 742.32,-168.5"/>
<text text-anchor="middle" x="788.82" y="-175.5" font-family="Helvetica,sans-Serif" font-size="10.00">unordered_map</text>
</a>
</g>
</g>
<!-- Node1&#45;&gt;Node16 -->
<g id="edge21" class="edge">
<title>Node1&#45;&gt;Node16</title>
<path fill="none" stroke="midnightblue" d="M545.78,-224.47C603.28,-213.72 681.35,-199.11 733.33,-189.38"/>
<polygon fill="midnightblue" stroke="midnightblue" points="734.17,-192.79 743.36,-187.51 732.89,-185.91 734.17,-192.79"/>
</g>
<!-- Node17 -->
<g id="node17" class="node">
<title>Node17</title>
<g id="a_node17"><a xlink:title=" ">
<polygon fill="white" stroke="#bfbfbf" points="853.32,-168.5 853.32,-187.5 918.32,-187.5 918.32,-168.5 853.32,-168.5"/>
<text text-anchor="middle" x="885.82" y="-175.5" font-family="Helvetica,sans-Serif" font-size="10.00">functional</text>
</a>
</g>
</g>
<!-- Node1&#45;&gt;Node17 -->
<g id="edge22" class="edge">
<title>Node1&#45;&gt;Node17</title>
<path fill="none" stroke="midnightblue" d="M547.03,-230.06C620.52,-221.5 735.05,-207.06 843.1,-188.19"/>
<polygon fill="midnightblue" stroke="midnightblue" points="843.96,-191.6 853.2,-186.41 842.74,-184.7 843.96,-191.6"/>
</g>
<!-- Node18 -->
<g id="node18" class="node">
<title>Node18</title>
<g id="a_node18"><a xlink:title=" ">
<polygon fill="white" stroke="#bfbfbf" points="936.32,-168.5 936.32,-187.5 977.32,-187.5 977.32,-168.5 936.32,-168.5"/>
<text text-anchor="middle" x="956.82" y="-175.5" font-family="Helvetica,sans-Serif" font-size="10.00">tuple</text>
</a>
</g>
</g>
<!-- Node1&#45;&gt;Node18 -->
<g id="edge23" class="edge">
<title>Node1&#45;&gt;Node18</title>
<path fill="none" stroke="midnightblue" d="M547.13,-234.53C636.29,-228.89 788.23,-216.18 926.13,-188.03"/>
<polygon fill="midnightblue" stroke="midnightblue" points="926.96,-191.43 936.04,-185.97 925.54,-184.58 926.96,-191.43"/>
</g>
<!-- Node4&#45;&gt;Node2 -->
<g id="edge5" class="edge">
<title>Node4&#45;&gt;Node2</title>
<path fill="none" stroke="midnightblue" d="M213.22,-168.08C202.63,-141.83 171.43,-64.55 157.13,-29.12"/>
<polygon fill="midnightblue" stroke="midnightblue" points="160.27,-27.53 153.28,-19.57 153.78,-30.15 160.27,-27.53"/>
</g>
<!-- Node4&#45;&gt;Node3 -->
<g id="edge6" class="edge">
<title>Node4&#45;&gt;Node3</title>
<path fill="none" stroke="midnightblue" d="M193.37,-168.44C168.69,-159.44 129.64,-145.19 101.85,-135.05"/>
<polygon fill="midnightblue" stroke="midnightblue" points="102.76,-131.66 92.16,-131.52 100.36,-138.23 102.76,-131.66"/>
</g>
<!-- Node5 -->
<g id="node5" class="node">
<title>Node5</title>
<g id="a_node5"><a xlink:title=" ">
<polygon fill="white" stroke="#bfbfbf" points="243.32,-0.5 243.32,-19.5 296.32,-19.5 296.32,-0.5 243.32,-0.5"/>
<text text-anchor="middle" x="269.82" y="-7.5" font-family="Helvetica,sans-Serif" font-size="10.00">stdint.h</text>
</a>
</g>
</g>
<!-- Node4&#45;&gt;Node5 -->
<g id="edge4" class="edge">
<title>Node4&#45;&gt;Node5</title>
<path fill="none" stroke="midnightblue" d="M213.21,-168.44C208.41,-155.87 201.16,-131.76 206.82,-112 216.29,-78.92 240.09,-46.15 255.58,-27.27"/>
<polygon fill="midnightblue" stroke="midnightblue" points="258.25,-29.53 262.03,-19.63 252.9,-25.02 258.25,-29.53"/>
</g>
<!-- Node4&#45;&gt;Node6 -->
<g id="edge7" class="edge">
<title>Node4&#45;&gt;Node6</title>
<path fill="none" stroke="midnightblue" d="M238.37,-168.44C260.85,-159.52 296.31,-145.44 321.8,-135.32"/>
<polygon fill="midnightblue" stroke="midnightblue" points="323.37,-138.46 331.37,-131.52 320.79,-131.95 323.37,-138.46"/>
</g>
<!-- Node7 -->
<g id="node7" class="node">
<title>Node7</title>
<g id="a_node7"><a xlink:title=" ">
<polygon fill="white" stroke="#bfbfbf" points="216.32,-112.5 216.32,-131.5 275.32,-131.5 275.32,-112.5 216.32,-112.5"/>
<text text-anchor="middle" x="245.82" y="-119.5" font-family="Helvetica,sans-Serif" font-size="10.00">complex</text>
</a>
</g>
</g>
<!-- Node4&#45;&gt;Node7 -->
<g id="edge8" class="edge">
<title>Node4&#45;&gt;Node7</title>
<path fill="none" stroke="midnightblue" d="M221.61,-168.08C225.58,-160.69 231.35,-149.95 236.26,-140.81"/>
<polygon fill="midnightblue" stroke="midnightblue" points="239.47,-142.22 241.12,-131.75 233.31,-138.91 239.47,-142.22"/>
</g>
<!-- Node8&#45;&gt;Node2 -->
<g id="edge15" class="edge">
<title>Node8&#45;&gt;Node2</title>
<path fill="none" stroke="midnightblue" d="M395.53,-57.88C346.79,-48.58 261.01,-32.22 204.8,-21.49"/>
<polygon fill="midnightblue" stroke="midnightblue" points="205.14,-17.99 194.66,-19.56 203.83,-24.87 205.14,-17.99"/>
</g>
<!-- Node8&#45;&gt;Node5 -->
<g id="edge10" class="edge">
<title>Node8&#45;&gt;Node5</title>
<path fill="none" stroke="midnightblue" d="M406.99,-56.44C379.57,-47.36 336.04,-32.94 305.39,-22.78"/>
<polygon fill="midnightblue" stroke="midnightblue" points="306.12,-19.34 295.53,-19.52 303.92,-25.98 306.12,-19.34"/>
</g>
<!-- Node9 -->
<g id="node9" class="node">
<title>Node9</title>
<g id="a_node9"><a xlink:title=" ">
<polygon fill="white" stroke="#bfbfbf" points="465.82,-0.5 465.82,-19.5 521.82,-19.5 521.82,-0.5 465.82,-0.5"/>
<text text-anchor="middle" x="493.82" y="-7.5" font-family="Helvetica,sans-Serif" font-size="10.00">stddef.h</text>
</a>
</g>
</g>
<!-- Node8&#45;&gt;Node9 -->
<g id="edge11" class="edge">
<title>Node8&#45;&gt;Node9</title>
<path fill="none" stroke="midnightblue" d="M442.62,-56.32C451.64,-48.34 465.23,-36.31 476.14,-26.65"/>
<polygon fill="midnightblue" stroke="midnightblue" points="478.68,-29.08 483.84,-19.83 474.04,-23.84 478.68,-29.08"/>
</g>
<!-- Node10 -->
<g id="node10" class="node">
<title>Node10</title>
<g id="a_node10"><a xlink:title=" ">
<polygon fill="white" stroke="#bfbfbf" points="539.82,-0.5 539.82,-19.5 591.82,-19.5 591.82,-0.5 539.82,-0.5"/>
<text text-anchor="middle" x="565.82" y="-7.5" font-family="Helvetica,sans-Serif" font-size="10.00">cassert</text>
</a>
</g>
</g>
<!-- Node8&#45;&gt;Node10 -->
<g id="edge12" class="edge">
<title>Node8&#45;&gt;Node10</title>
<path fill="none" stroke="midnightblue" d="M453.9,-56.44C475.88,-47.52 510.56,-33.44 535.49,-23.32"/>
<polygon fill="midnightblue" stroke="midnightblue" points="536.9,-26.52 544.85,-19.52 534.26,-20.04 536.9,-26.52"/>
</g>
<!-- Node11 -->
<g id="node11" class="node">
<title>Node11</title>
<g id="a_node11"><a xlink:title=" ">
<polygon fill="white" stroke="#bfbfbf" points="329.82,-0.5 329.82,-19.5 385.82,-19.5 385.82,-0.5 329.82,-0.5"/>
<text text-anchor="middle" x="357.82" y="-7.5" font-family="Helvetica,sans-Serif" font-size="10.00">sstream</text>
</a>
</g>
</g>
<!-- Node8&#45;&gt;Node11 -->
<g id="edge13" class="edge">
<title>Node8&#45;&gt;Node11</title>
<path fill="none" stroke="midnightblue" d="M420.77,-56.32C409.36,-48.11 391.99,-35.6 378.39,-25.81"/>
<polygon fill="midnightblue" stroke="midnightblue" points="380.25,-22.84 370.09,-19.83 376.16,-28.52 380.25,-22.84"/>
</g>
<!-- Node12 -->
<g id="node12" class="node">
<title>Node12</title>
<g id="a_node12"><a xlink:title=" ">
<polygon fill="white" stroke="#bfbfbf" points="403.82,-0.5 403.82,-19.5 447.82,-19.5 447.82,-0.5 403.82,-0.5"/>
<text text-anchor="middle" x="425.82" y="-7.5" font-family="Helvetica,sans-Serif" font-size="10.00">limits</text>
</a>
</g>
</g>
<!-- Node8&#45;&gt;Node12 -->
<g id="edge14" class="edge">
<title>Node8&#45;&gt;Node12</title>
<path fill="none" stroke="midnightblue" d="M431.67,-56.08C430.74,-48.93 429.4,-38.64 428.24,-29.69"/>
<polygon fill="midnightblue" stroke="midnightblue" points="431.71,-29.22 426.96,-19.75 424.77,-30.12 431.71,-29.22"/>
</g>
<!-- Node14 -->
<g id="node14" class="node">
<title>Node14</title>
<g id="a_node14"><a xlink:href="sitkCommon_8h.html" target="_top" xlink:title=" ">
<polygon fill="white" stroke="black" points="468.82,-112.5 468.82,-131.5 556.82,-131.5 556.82,-112.5 468.82,-112.5"/>
<text text-anchor="middle" x="512.82" y="-119.5" font-family="Helvetica,sans-Serif" font-size="10.00">sitkCommon.h</text>
</a>
</g>
</g>
<!-- Node13&#45;&gt;Node14 -->
<g id="edge17" class="edge">
<title>Node13&#45;&gt;Node14</title>
<path fill="none" stroke="midnightblue" d="M512.82,-168.08C512.82,-161.01 512.82,-150.86 512.82,-141.99"/>
<polygon fill="midnightblue" stroke="midnightblue" points="516.32,-141.75 512.82,-131.75 509.32,-141.75 516.32,-141.75"/>
</g>
<!-- Node14&#45;&gt;Node8 -->
<g id="edge18" class="edge">
<title>Node14&#45;&gt;Node8</title>
<path fill="none" stroke="midnightblue" d="M499.97,-112.32C487.61,-103.98 468.69,-91.21 454.08,-81.35"/>
<polygon fill="midnightblue" stroke="midnightblue" points="455.89,-78.35 445.64,-75.65 451.97,-84.15 455.89,-78.35"/>
</g>
</g>
</svg>
        <g id="navigator" transform="translate(0 0)" fill="#404254">
                <rect fill="#f2f5e9" fill-opacity="0.5" stroke="#606060" stroke-width=".5" x="0" y="0" width="60" height="60"/>
                <use id="zoomplus" xlink:href="#zoomPlus" x="17" y="9" onmousedown="handleZoom(evt,'in')"/>
                <use id="zoomminus" xlink:href="#zoomMin" x="42" y="9" onmousedown="handleZoom(evt,'out')"/>
                <use id="reset" xlink:href="#resetDef" x="30" y="36" onmousedown="handleReset()"/>
                <g id="arrowUp" xlink:href="#dirArrow" transform="translate(30 24)" onmousedown="handlePan(0,-1)">
                  <use xlink:href="#rim" fill="#404040">
                        <set attributeName="fill" to="#808080" begin="arrowUp.mouseover" end="arrowUp.mouseout"/>
                  </use>
                  <path fill="none" stroke="white" stroke-width="1.5" d="M0,-3.0v7 M-2.5,-0.5L0,-3.0L2.5,-0.5"/>
                </g>
                <g id="arrowRight" xlink:href="#dirArrow" transform="rotate(90) translate(36 -43)" onmousedown="handlePan(1,0)">
                  <use xlink:href="#rim" fill="#404040">
                        <set attributeName="fill" to="#808080" begin="arrowRight.mouseover" end="arrowRight.mouseout"/>
                  </use>
                  <path fill="none" stroke="white" stroke-width="1.5" d="M0,-3.0v7 M-2.5,-0.5L0,-3.0L2.5,-0.5"/>
                </g>
                <g id="arrowDown" xlink:href="#dirArrow" transform="rotate(180) translate(-30 -48)" onmousedown="handlePan(0,1)">
                  <use xlink:href="#rim" fill="#404040">
                        <set attributeName="fill" to="#808080" begin="arrowDown.mouseover" end="arrowDown.mouseout"/>
                  </use>
                  <path fill="none" stroke="white" stroke-width="1.5" d="M0,-3.0v7 M-2.5,-0.5L0,-3.0L2.5,-0.5"/>
                </g>
                <g id="arrowLeft" xlink:href="#dirArrow" transform="rotate(270) translate(-36 17)" onmousedown="handlePan(-1,0)">
                  <use xlink:href="#rim" fill="#404040">
                        <set attributeName="fill" to="#808080" begin="arrowLeft.mouseover" end="arrowLeft.mouseout"/>
                  </use>
                  <path fill="none" stroke="white" stroke-width="1.5" d="M0,-3.0v7 M-2.5,-0.5L0,-3.0L2.5,-0.5"/>
                </g>
        </g>
        <svg viewBox="0 0 15 15" width="100%" height="30px" preserveAspectRatio="xMaxYMin meet">
         <g id="arrow_out" transform="scale(0.3 0.3)">
          <a xlink:href="sitkMemberFunctionFactoryBase_8h__incl_org.svg" target="_base">
           <rect id="button" ry="5" rx="5" y="6" x="6" height="38" width="38"
                fill="#f2f5e9" fill-opacity="0.5" stroke="#606060" stroke-width="1.0"/>
           <path id="arrow"
             d="M 11.500037,31.436501 C 11.940474,20.09759 22.043105,11.32322 32.158766,21.979434 L 37.068811,17.246167 C 37.068811,17.246167 37.088388,32 37.088388,32 L 22.160133,31.978069 C 22.160133,31.978069 26.997745,27.140456 26.997745,27.140456 C 18.528582,18.264221 13.291696,25.230495 11.500037,31.436501 z"
             style="fill:#404040;"/>
          </a>
         </g>
        </svg>
</svg>
