<?xml version="1.0" encoding="UTF-8" standalone="no"?>
<!DOCTYPE svg PUBLIC "-//W3C//DTD SVG 1.1//EN"
 "http://www.w3.org/Graphics/SVG/1.1/DTD/svg11.dtd">
<!-- Generated by graphviz version 2.43.0 (0)
 -->
<!-- Title: sitkCenteredVersorTransformInitializerFilter.h Pages: 1 -->
<svg width="1890pt" height="554pt"
 viewBox="0.00 0.00 1890.00 554.00" xmlns="http://www.w3.org/2000/svg" xmlns:xlink="http://www.w3.org/1999/xlink">
<g id="graph0" class="graph" transform="scale(1 1) rotate(0) translate(4 550)">
<title>sitkCenteredVersorTransformInitializerFilter.h</title>
<polygon fill="white" stroke="transparent" points="-4,4 -4,-550 1886,-550 1886,4 -4,4"/>
<!-- Node1 -->
<g id="node1" class="node">
<title>Node1</title>
<g id="a_node1"><a xlink:title=" ">
<polygon fill="#bfbfbf" stroke="black" points="606,-515.5 606,-545.5 764,-545.5 764,-515.5 606,-515.5"/>
<text text-anchor="start" x="614" y="-533.5" font-family="Helvetica,sans-Serif" font-size="10.00">sitkCenteredVersorTransform</text>
<text text-anchor="middle" x="685" y="-522.5" font-family="Helvetica,sans-Serif" font-size="10.00">InitializerFilter.h</text>
</a>
</g>
</g>
<!-- Node2 -->
<g id="node2" class="node">
<title>Node2</title>
<g id="a_node2"><a xlink:title=" ">
<polygon fill="white" stroke="#bfbfbf" points="476,-168.5 476,-187.5 534,-187.5 534,-168.5 476,-168.5"/>
<text text-anchor="middle" x="505" y="-175.5" font-family="Helvetica,sans-Serif" font-size="10.00">memory</text>
</a>
</g>
</g>
<!-- Node1&#45;&gt;Node2 -->
<g id="edge1" class="edge">
<title>Node1&#45;&gt;Node2</title>
<path fill="none" stroke="midnightblue" d="M605.99,-519.97C543.6,-507.52 467,-479 467,-414 467,-414 467,-414 467,-300 467,-261.81 484.44,-219.83 495.69,-196.72"/>
<polygon fill="midnightblue" stroke="midnightblue" points="498.96,-198.02 500.34,-187.52 492.71,-194.86 498.96,-198.02"/>
</g>
<!-- Node3 -->
<g id="node3" class="node">
<title>Node3</title>
<g id="a_node3"><a xlink:href="sitkBasicFilters_8h.html" target="_top" xlink:title=" ">
<polygon fill="white" stroke="black" points="126,-459.5 126,-478.5 226,-478.5 226,-459.5 126,-459.5"/>
<text text-anchor="middle" x="176" y="-466.5" font-family="Helvetica,sans-Serif" font-size="10.00">sitkBasicFilters.h</text>
</a>
</g>
</g>
<!-- Node1&#45;&gt;Node3 -->
<g id="edge2" class="edge">
<title>Node1&#45;&gt;Node3</title>
<path fill="none" stroke="midnightblue" d="M605.75,-520.24C503.54,-508.29 328.03,-487.77 236.12,-477.03"/>
<polygon fill="midnightblue" stroke="midnightblue" points="236.48,-473.55 226.14,-475.86 235.67,-480.5 236.48,-473.55"/>
</g>
<!-- Node39 -->
<g id="node39" class="node">
<title>Node39</title>
<g id="a_node39"><a xlink:href="sitkProcessObject_8h.html" target="_top" xlink:title=" ">
<polygon fill="white" stroke="black" points="846.5,-459.5 846.5,-478.5 959.5,-478.5 959.5,-459.5 846.5,-459.5"/>
<text text-anchor="middle" x="903" y="-466.5" font-family="Helvetica,sans-Serif" font-size="10.00">sitkProcessObject.h</text>
</a>
</g>
</g>
<!-- Node1&#45;&gt;Node39 -->
<g id="edge69" class="edge">
<title>Node1&#45;&gt;Node39</title>
<path fill="none" stroke="midnightblue" d="M736.39,-515.47C774.65,-505.03 826.21,-490.96 861.79,-481.25"/>
<polygon fill="midnightblue" stroke="midnightblue" points="863.11,-484.52 871.83,-478.51 861.27,-477.76 863.11,-484.52"/>
</g>
<!-- Node44 -->
<g id="node44" class="node">
<title>Node44</title>
<g id="a_node44"><a xlink:href="sitkMemberFunctionFactory_8h.html" target="_top" xlink:title=" ">
<polygon fill="white" stroke="black" points="1186.5,-347.5 1186.5,-366.5 1345.5,-366.5 1345.5,-347.5 1186.5,-347.5"/>
<text text-anchor="middle" x="1266" y="-354.5" font-family="Helvetica,sans-Serif" font-size="10.00">sitkMemberFunctionFactory.h</text>
</a>
</g>
</g>
<!-- Node1&#45;&gt;Node44 -->
<g id="edge81" class="edge">
<title>Node1&#45;&gt;Node44</title>
<path fill="none" stroke="midnightblue" d="M764.22,-524.61C901.95,-514.52 1177.54,-486.75 1247,-423 1259.84,-411.22 1264.18,-391.29 1265.56,-376.6"/>
<polygon fill="midnightblue" stroke="midnightblue" points="1269.05,-376.79 1266.13,-366.61 1262.07,-376.39 1269.05,-376.79"/>
</g>
<!-- Node4 -->
<g id="node4" class="node">
<title>Node4</title>
<g id="a_node4"><a xlink:href="sitkMacro_8h.html" target="_top" xlink:title=" ">
<polygon fill="white" stroke="black" points="828,-56.5 828,-75.5 902,-75.5 902,-56.5 828,-56.5"/>
<text text-anchor="middle" x="865" y="-63.5" font-family="Helvetica,sans-Serif" font-size="10.00">sitkMacro.h</text>
</a>
</g>
</g>
<!-- Node3&#45;&gt;Node4 -->
<g id="edge3" class="edge">
<title>Node3&#45;&gt;Node4</title>
<path fill="none" stroke="midnightblue" d="M127.91,-459.4C75.8,-446.99 0,-418.53 0,-358 0,-358 0,-358 0,-177 0,-93.88 636.65,-72.42 817.57,-68"/>
<polygon fill="midnightblue" stroke="midnightblue" points="817.92,-71.49 827.83,-67.75 817.75,-64.49 817.92,-71.49"/>
</g>
<!-- Node11 -->
<g id="node11" class="node">
<title>Node11</title>
<g id="a_node11"><a xlink:href="sitkInterpolator_8h.html" target="_top" xlink:title=" ">
<polygon fill="white" stroke="black" points="339,-291.5 339,-310.5 439,-310.5 439,-291.5 339,-291.5"/>
<text text-anchor="middle" x="389" y="-298.5" font-family="Helvetica,sans-Serif" font-size="10.00">sitkInterpolator.h</text>
</a>
</g>
</g>
<!-- Node3&#45;&gt;Node11 -->
<g id="edge10" class="edge">
<title>Node3&#45;&gt;Node11</title>
<path fill="none" stroke="midnightblue" d="M187.15,-459.31C221.59,-432.47 326.52,-350.69 369.91,-316.88"/>
<polygon fill="midnightblue" stroke="midnightblue" points="372.22,-319.51 377.96,-310.61 367.92,-313.99 372.22,-319.51"/>
</g>
<!-- Node14 -->
<g id="node14" class="node">
<title>Node14</title>
<g id="a_node14"><a xlink:href="sitkRandomSeed_8h.html" target="_top" xlink:title=" ">
<polygon fill="white" stroke="black" points="28,-347.5 28,-366.5 136,-366.5 136,-347.5 28,-347.5"/>
<text text-anchor="middle" x="82" y="-354.5" font-family="Helvetica,sans-Serif" font-size="10.00">sitkRandomSeed.h</text>
</a>
</g>
</g>
<!-- Node3&#45;&gt;Node14 -->
<g id="edge14" class="edge">
<title>Node3&#45;&gt;Node14</title>
<path fill="none" stroke="midnightblue" d="M152.82,-459.48C136.12,-452.22 114.27,-440.19 101,-423 90.68,-409.63 85.96,-390.81 83.81,-376.86"/>
<polygon fill="midnightblue" stroke="midnightblue" points="87.28,-376.4 82.57,-366.91 80.33,-377.26 87.28,-376.4"/>
</g>
<!-- Node15 -->
<g id="node15" class="node">
<title>Node15</title>
<g id="a_node15"><a xlink:href="sitkKernel_8h.html" target="_top" xlink:title=" ">
<polygon fill="white" stroke="black" points="161,-230 161,-249 235,-249 235,-230 161,-230"/>
<text text-anchor="middle" x="198" y="-237" font-family="Helvetica,sans-Serif" font-size="10.00">sitkKernel.h</text>
</a>
</g>
</g>
<!-- Node3&#45;&gt;Node15 -->
<g id="edge16" class="edge">
<title>Node3&#45;&gt;Node15</title>
<path fill="none" stroke="midnightblue" d="M176.84,-459.36C180.05,-426.14 191.65,-306.16 196.18,-259.37"/>
<polygon fill="midnightblue" stroke="midnightblue" points="199.68,-259.44 197.16,-249.15 192.72,-258.77 199.68,-259.44"/>
</g>
<!-- Node16 -->
<g id="node16" class="node">
<title>Node16</title>
<g id="a_node16"><a xlink:href="sitkTransform_8h.html" target="_top" xlink:title=" ">
<polygon fill="white" stroke="black" points="651,-403.5 651,-422.5 743,-422.5 743,-403.5 651,-403.5"/>
<text text-anchor="middle" x="697" y="-410.5" font-family="Helvetica,sans-Serif" font-size="10.00">sitkTransform.h</text>
</a>
</g>
</g>
<!-- Node3&#45;&gt;Node16 -->
<g id="edge19" class="edge">
<title>Node3&#45;&gt;Node16</title>
<path fill="none" stroke="midnightblue" d="M226.43,-462.77C324.08,-452.65 538.33,-430.45 640.56,-419.85"/>
<polygon fill="midnightblue" stroke="midnightblue" points="641.1,-423.31 650.68,-418.8 640.38,-416.35 641.1,-423.31"/>
</g>
<!-- Node38 -->
<g id="node38" class="node">
<title>Node38</title>
<g id="a_node38"><a xlink:title=" ">
<polygon fill="white" stroke="#bfbfbf" points="110,-403.5 110,-422.5 148,-422.5 148,-403.5 110,-403.5"/>
<text text-anchor="middle" x="129" y="-410.5" font-family="Helvetica,sans-Serif" font-size="10.00">map</text>
</a>
</g>
</g>
<!-- Node3&#45;&gt;Node38 -->
<g id="edge68" class="edge">
<title>Node3&#45;&gt;Node38</title>
<path fill="none" stroke="midnightblue" d="M168.24,-459.08C161.46,-451.3 151.46,-439.8 143.24,-430.37"/>
<polygon fill="midnightblue" stroke="midnightblue" points="145.82,-428 136.62,-422.75 140.54,-432.59 145.82,-428"/>
</g>
<!-- Node5 -->
<g id="node5" class="node">
<title>Node5</title>
<g id="a_node5"><a xlink:title=" ">
<polygon fill="white" stroke="#bfbfbf" points="1085.5,-0.5 1085.5,-19.5 1138.5,-19.5 1138.5,-0.5 1085.5,-0.5"/>
<text text-anchor="middle" x="1112" y="-7.5" font-family="Helvetica,sans-Serif" font-size="10.00">stdint.h</text>
</a>
</g>
</g>
<!-- Node4&#45;&gt;Node5 -->
<g id="edge4" class="edge">
<title>Node4&#45;&gt;Node5</title>
<path fill="none" stroke="midnightblue" d="M902.25,-56.86C949.11,-46.61 1029.06,-29.13 1075.54,-18.97"/>
<polygon fill="midnightblue" stroke="midnightblue" points="1076.46,-22.35 1085.49,-16.8 1074.97,-15.51 1076.46,-22.35"/>
</g>
<!-- Node6 -->
<g id="node6" class="node">
<title>Node6</title>
<g id="a_node6"><a xlink:title=" ">
<polygon fill="white" stroke="#bfbfbf" points="763,-0.5 763,-19.5 819,-19.5 819,-0.5 763,-0.5"/>
<text text-anchor="middle" x="791" y="-7.5" font-family="Helvetica,sans-Serif" font-size="10.00">stddef.h</text>
</a>
</g>
</g>
<!-- Node4&#45;&gt;Node6 -->
<g id="edge5" class="edge">
<title>Node4&#45;&gt;Node6</title>
<path fill="none" stroke="midnightblue" d="M853.11,-56.32C841.85,-48.11 824.71,-35.6 811.29,-25.81"/>
<polygon fill="midnightblue" stroke="midnightblue" points="813.25,-22.9 803.11,-19.83 809.12,-28.56 813.25,-22.9"/>
</g>
<!-- Node7 -->
<g id="node7" class="node">
<title>Node7</title>
<g id="a_node7"><a xlink:title=" ">
<polygon fill="white" stroke="#bfbfbf" points="1534,-0.5 1534,-19.5 1586,-19.5 1586,-0.5 1534,-0.5"/>
<text text-anchor="middle" x="1560" y="-7.5" font-family="Helvetica,sans-Serif" font-size="10.00">cassert</text>
</a>
</g>
</g>
<!-- Node4&#45;&gt;Node7 -->
<g id="edge6" class="edge">
<title>Node4&#45;&gt;Node7</title>
<path fill="none" stroke="midnightblue" d="M902.37,-62.1C1023.47,-52.69 1404.23,-23.1 1523.74,-13.82"/>
<polygon fill="midnightblue" stroke="midnightblue" points="1524.13,-17.3 1533.83,-13.03 1523.59,-10.32 1524.13,-17.3"/>
</g>
<!-- Node8 -->
<g id="node8" class="node">
<title>Node8</title>
<g id="a_node8"><a xlink:title=" ">
<polygon fill="white" stroke="#bfbfbf" points="837,-0.5 837,-19.5 893,-19.5 893,-0.5 837,-0.5"/>
<text text-anchor="middle" x="865" y="-7.5" font-family="Helvetica,sans-Serif" font-size="10.00">sstream</text>
</a>
</g>
</g>
<!-- Node4&#45;&gt;Node8 -->
<g id="edge7" class="edge">
<title>Node4&#45;&gt;Node8</title>
<path fill="none" stroke="midnightblue" d="M865,-56.08C865,-49.01 865,-38.86 865,-29.99"/>
<polygon fill="midnightblue" stroke="midnightblue" points="868.5,-29.75 865,-19.75 861.5,-29.75 868.5,-29.75"/>
</g>
<!-- Node9 -->
<g id="node9" class="node">
<title>Node9</title>
<g id="a_node9"><a xlink:title=" ">
<polygon fill="white" stroke="#bfbfbf" points="911,-0.5 911,-19.5 955,-19.5 955,-0.5 911,-0.5"/>
<text text-anchor="middle" x="933" y="-7.5" font-family="Helvetica,sans-Serif" font-size="10.00">limits</text>
</a>
</g>
</g>
<!-- Node4&#45;&gt;Node9 -->
<g id="edge8" class="edge">
<title>Node4&#45;&gt;Node9</title>
<path fill="none" stroke="midnightblue" d="M875.93,-56.32C886.17,-48.18 901.72,-35.84 914,-26.09"/>
<polygon fill="midnightblue" stroke="midnightblue" points="916.22,-28.79 921.88,-19.83 911.87,-23.31 916.22,-28.79"/>
</g>
<!-- Node10 -->
<g id="node10" class="node">
<title>Node10</title>
<g id="a_node10"><a xlink:href="sitkConfigure_8h.html" target="_top" xlink:title=" ">
<polygon fill="white" stroke="black" points="1189,-0.5 1189,-19.5 1279,-19.5 1279,-0.5 1189,-0.5"/>
<text text-anchor="middle" x="1234" y="-7.5" font-family="Helvetica,sans-Serif" font-size="10.00">sitkConfigure.h</text>
</a>
</g>
</g>
<!-- Node4&#45;&gt;Node10 -->
<g id="edge9" class="edge">
<title>Node4&#45;&gt;Node10</title>
<path fill="none" stroke="midnightblue" d="M902.07,-59.58C967.18,-50.05 1102.38,-30.26 1178.61,-19.11"/>
<polygon fill="midnightblue" stroke="midnightblue" points="1179.58,-22.5 1188.96,-17.59 1178.56,-15.58 1179.58,-22.5"/>
</g>
<!-- Node12 -->
<g id="node12" class="node">
<title>Node12</title>
<g id="a_node12"><a xlink:href="sitkCommon_8h.html" target="_top" xlink:title=" ">
<polygon fill="white" stroke="black" points="617,-112.5 617,-131.5 705,-131.5 705,-112.5 617,-112.5"/>
<text text-anchor="middle" x="661" y="-119.5" font-family="Helvetica,sans-Serif" font-size="10.00">sitkCommon.h</text>
</a>
</g>
</g>
<!-- Node11&#45;&gt;Node12 -->
<g id="edge11" class="edge">
<title>Node11&#45;&gt;Node12</title>
<path fill="none" stroke="midnightblue" d="M391.49,-291.27C398.76,-267.41 422.34,-200.73 467,-168 507.7,-138.17 565.06,-127.72 606.85,-124.26"/>
<polygon fill="midnightblue" stroke="midnightblue" points="607.13,-127.75 616.85,-123.54 606.62,-120.77 607.13,-127.75"/>
</g>
<!-- Node13 -->
<g id="node13" class="node">
<title>Node13</title>
<g id="a_node13"><a xlink:title=" ">
<polygon fill="white" stroke="#bfbfbf" points="324.5,-168.5 324.5,-187.5 381.5,-187.5 381.5,-168.5 324.5,-168.5"/>
<text text-anchor="middle" x="353" y="-175.5" font-family="Helvetica,sans-Serif" font-size="10.00">ostream</text>
</a>
</g>
</g>
<!-- Node11&#45;&gt;Node13 -->
<g id="edge13" class="edge">
<title>Node11&#45;&gt;Node13</title>
<path fill="none" stroke="midnightblue" d="M386.41,-291.3C380.6,-271.76 366.41,-224.06 358.52,-197.55"/>
<polygon fill="midnightblue" stroke="midnightblue" points="361.77,-196.21 355.57,-187.62 355.06,-198.21 361.77,-196.21"/>
</g>
<!-- Node12&#45;&gt;Node4 -->
<g id="edge12" class="edge">
<title>Node12&#45;&gt;Node4</title>
<path fill="none" stroke="midnightblue" d="M693.32,-112.44C728.39,-103.16 784.5,-88.31 822.96,-78.13"/>
<polygon fill="midnightblue" stroke="midnightblue" points="824.06,-81.46 832.83,-75.52 822.26,-74.69 824.06,-81.46"/>
</g>
<!-- Node14&#45;&gt;Node12 -->
<g id="edge15" class="edge">
<title>Node14&#45;&gt;Node12</title>
<path fill="none" stroke="midnightblue" d="M79.22,-347.28C69.97,-316.41 43.87,-211.73 100,-168 139.35,-137.34 472.93,-126.96 606.26,-124.02"/>
<polygon fill="midnightblue" stroke="midnightblue" points="606.72,-127.51 616.64,-123.79 606.57,-120.51 606.72,-127.51"/>
</g>
<!-- Node15&#45;&gt;Node12 -->
<g id="edge17" class="edge">
<title>Node15&#45;&gt;Node12</title>
<path fill="none" stroke="midnightblue" d="M206.64,-230C222.82,-214.66 259.44,-182.61 297,-168 352.17,-146.54 519.23,-132.52 606.53,-126.44"/>
<polygon fill="midnightblue" stroke="midnightblue" points="607.03,-129.92 616.77,-125.74 606.56,-122.94 607.03,-129.92"/>
</g>
<!-- Node15&#45;&gt;Node13 -->
<g id="edge18" class="edge">
<title>Node15&#45;&gt;Node13</title>
<path fill="none" stroke="midnightblue" d="M220.21,-229.98C246.68,-219.81 291.11,-202.76 321.22,-191.2"/>
<polygon fill="midnightblue" stroke="midnightblue" points="322.75,-194.36 330.83,-187.51 320.24,-187.83 322.75,-194.36"/>
</g>
<!-- Node16&#45;&gt;Node12 -->
<g id="edge20" class="edge">
<title>Node16&#45;&gt;Node12</title>
<path fill="none" stroke="midnightblue" d="M650.93,-405.92C530.64,-388.98 212.21,-337.07 152,-255 100.61,-184.96 212.77,-181.92 258,-168 378.74,-130.83 528.22,-123.66 606.83,-122.69"/>
<polygon fill="midnightblue" stroke="midnightblue" points="607.01,-126.19 616.98,-122.6 606.95,-119.19 607.01,-126.19"/>
</g>
<!-- Node17 -->
<g id="node17" class="node">
<title>Node17</title>
<g id="a_node17"><a xlink:href="sitkExceptionObject_8h.html" target="_top" xlink:title=" ">
<polygon fill="white" stroke="black" points="708.5,-230 708.5,-249 831.5,-249 831.5,-230 708.5,-230"/>
<text text-anchor="middle" x="770" y="-237" font-family="Helvetica,sans-Serif" font-size="10.00">sitkExceptionObject.h</text>
</a>
</g>
</g>
<!-- Node16&#45;&gt;Node17 -->
<g id="edge21" class="edge">
<title>Node16&#45;&gt;Node17</title>
<path fill="none" stroke="midnightblue" d="M700.72,-403.26C712.14,-376.42 746.88,-294.82 762.38,-258.39"/>
<polygon fill="midnightblue" stroke="midnightblue" points="765.68,-259.59 766.37,-249.02 759.24,-256.85 765.68,-259.59"/>
</g>
<!-- Node18 -->
<g id="node18" class="node">
<title>Node18</title>
<g id="a_node18"><a xlink:href="sitkImage_8h.html" target="_top" xlink:title=" ">
<polygon fill="white" stroke="black" points="763,-347.5 763,-366.5 837,-366.5 837,-347.5 763,-347.5"/>
<text text-anchor="middle" x="800" y="-354.5" font-family="Helvetica,sans-Serif" font-size="10.00">sitkImage.h</text>
</a>
</g>
</g>
<!-- Node16&#45;&gt;Node18 -->
<g id="edge25" class="edge">
<title>Node16&#45;&gt;Node18</title>
<path fill="none" stroke="midnightblue" d="M713.55,-403.32C729.99,-394.7 755.43,-381.36 774.47,-371.39"/>
<polygon fill="midnightblue" stroke="midnightblue" points="776.26,-374.4 783.49,-366.65 773.01,-368.2 776.26,-374.4"/>
</g>
<!-- Node20 -->
<g id="node20" class="node">
<title>Node20</title>
<g id="a_node20"><a xlink:title=" ">
<polygon fill="white" stroke="#bfbfbf" points="643.5,-230 643.5,-249 690.5,-249 690.5,-230 643.5,-230"/>
<text text-anchor="middle" x="667" y="-237" font-family="Helvetica,sans-Serif" font-size="10.00">vector</text>
</a>
</g>
</g>
<!-- Node16&#45;&gt;Node20 -->
<g id="edge67" class="edge">
<title>Node16&#45;&gt;Node20</title>
<path fill="none" stroke="midnightblue" d="M695.69,-403.48C692.62,-383.69 684.65,-333.11 677,-291 675.07,-280.38 672.74,-268.54 670.81,-259"/>
<polygon fill="midnightblue" stroke="midnightblue" points="674.21,-258.16 668.78,-249.06 667.35,-259.56 674.21,-258.16"/>
</g>
<!-- Node37 -->
<g id="node37" class="node">
<title>Node37</title>
<g id="a_node37"><a xlink:href="sitkPathType_8h.html" target="_top" xlink:title=" ">
<polygon fill="white" stroke="black" points="855.5,-347.5 855.5,-366.5 942.5,-366.5 942.5,-347.5 855.5,-347.5"/>
<text text-anchor="middle" x="899" y="-354.5" font-family="Helvetica,sans-Serif" font-size="10.00">sitkPathType.h</text>
</a>
</g>
</g>
<!-- Node16&#45;&gt;Node37 -->
<g id="edge65" class="edge">
<title>Node16&#45;&gt;Node37</title>
<path fill="none" stroke="midnightblue" d="M729.01,-403.44C763.73,-394.16 819.29,-379.31 857.38,-369.13"/>
<polygon fill="midnightblue" stroke="midnightblue" points="858.39,-372.48 867.14,-366.52 856.58,-365.72 858.39,-372.48"/>
</g>
<!-- Node17&#45;&gt;Node2 -->
<g id="edge24" class="edge">
<title>Node17&#45;&gt;Node2</title>
<path fill="none" stroke="midnightblue" d="M732.03,-229.98C682.09,-218.76 594.76,-199.15 544.21,-187.8"/>
<polygon fill="midnightblue" stroke="midnightblue" points="544.83,-184.36 534.31,-185.58 543.3,-191.19 544.83,-184.36"/>
</g>
<!-- Node17&#45;&gt;Node4 -->
<g id="edge22" class="edge">
<title>Node17&#45;&gt;Node4</title>
<path fill="none" stroke="midnightblue" d="M774.84,-229.76C789.77,-202.81 835.3,-120.62 855.35,-84.42"/>
<polygon fill="midnightblue" stroke="midnightblue" points="858.5,-85.96 860.28,-75.52 852.37,-82.57 858.5,-85.96"/>
</g>
<!-- Node17&#45;&gt;Node12 -->
<g id="edge23" class="edge">
<title>Node17&#45;&gt;Node12</title>
<path fill="none" stroke="midnightblue" d="M761.81,-229.82C743.66,-210.59 699.83,-164.14 676.39,-139.31"/>
<polygon fill="midnightblue" stroke="midnightblue" points="678.7,-136.65 669.29,-131.78 673.61,-141.46 678.7,-136.65"/>
</g>
<!-- Node18&#45;&gt;Node2 -->
<g id="edge63" class="edge">
<title>Node18&#45;&gt;Node2</title>
<path fill="none" stroke="midnightblue" d="M763,-355.21C695.57,-352.94 556.65,-344.26 524,-311 494.35,-280.79 497.36,-226.41 501.5,-197.79"/>
<polygon fill="midnightblue" stroke="midnightblue" points="505.01,-197.99 503.2,-187.56 498.11,-196.85 505.01,-197.99"/>
</g>
<!-- Node18&#45;&gt;Node11 -->
<g id="edge61" class="edge">
<title>Node18&#45;&gt;Node11</title>
<path fill="none" stroke="midnightblue" d="M762.8,-351.11C691.6,-341.76 535.46,-321.24 449.21,-309.91"/>
<polygon fill="midnightblue" stroke="midnightblue" points="449.42,-306.41 439.05,-308.58 448.51,-313.35 449.42,-306.41"/>
</g>
<!-- Node18&#45;&gt;Node12 -->
<g id="edge26" class="edge">
<title>Node18&#45;&gt;Node12</title>
<path fill="none" stroke="midnightblue" d="M807.19,-347.43C824.61,-325.56 865.86,-266.45 841,-224 812.28,-174.94 750.03,-147.9 706.84,-134.43"/>
<polygon fill="midnightblue" stroke="midnightblue" points="707.7,-131.03 697.11,-131.52 705.69,-137.74 707.7,-131.03"/>
</g>
<!-- Node19 -->
<g id="node19" class="node">
<title>Node19</title>
<g id="a_node19"><a xlink:href="sitkTemplateFunctions_8h.html" target="_top" xlink:title=" ">
<polygon fill="white" stroke="black" points="533.5,-291.5 533.5,-310.5 668.5,-310.5 668.5,-291.5 533.5,-291.5"/>
<text text-anchor="middle" x="601" y="-298.5" font-family="Helvetica,sans-Serif" font-size="10.00">sitkTemplateFunctions.h</text>
</a>
</g>
</g>
<!-- Node18&#45;&gt;Node19 -->
<g id="edge27" class="edge">
<title>Node18&#45;&gt;Node19</title>
<path fill="none" stroke="midnightblue" d="M768.47,-347.44C734.41,-338.2 679.99,-323.44 642.48,-313.26"/>
<polygon fill="midnightblue" stroke="midnightblue" points="642.95,-309.76 632.38,-310.52 641.12,-316.51 642.95,-309.76"/>
</g>
<!-- Node18&#45;&gt;Node20 -->
<g id="edge62" class="edge">
<title>Node18&#45;&gt;Node20</title>
<path fill="none" stroke="midnightblue" d="M790,-347.32C767.57,-327.84 712.97,-280.42 684.67,-255.84"/>
<polygon fill="midnightblue" stroke="midnightblue" points="686.96,-253.2 677.11,-249.28 682.37,-258.48 686.96,-253.2"/>
</g>
<!-- Node22 -->
<g id="node22" class="node">
<title>Node22</title>
<g id="a_node22"><a xlink:href="sitkDetail_8h.html" target="_top" xlink:title=" ">
<polygon fill="white" stroke="black" points="1229.5,-291.5 1229.5,-310.5 1302.5,-310.5 1302.5,-291.5 1229.5,-291.5"/>
<text text-anchor="middle" x="1266" y="-298.5" font-family="Helvetica,sans-Serif" font-size="10.00">sitkDetail.h</text>
</a>
</g>
</g>
<!-- Node18&#45;&gt;Node22 -->
<g id="edge34" class="edge">
<title>Node18&#45;&gt;Node22</title>
<path fill="none" stroke="midnightblue" d="M837.15,-348.59C840.48,-348.02 843.8,-347.48 847,-347 981.42,-326.95 1141.38,-312.3 1219.04,-305.77"/>
<polygon fill="midnightblue" stroke="midnightblue" points="1219.77,-309.23 1229.44,-304.91 1219.19,-302.25 1219.77,-309.23"/>
</g>
<!-- Node33 -->
<g id="node33" class="node">
<title>Node33</title>
<g id="a_node33"><a xlink:href="sitkPixelIDTokens_8h.html" target="_top" xlink:title=" ">
<polygon fill="white" stroke="black" points="1025,-291.5 1025,-310.5 1135,-310.5 1135,-291.5 1025,-291.5"/>
<text text-anchor="middle" x="1080" y="-298.5" font-family="Helvetica,sans-Serif" font-size="10.00">sitkPixelIDTokens.h</text>
</a>
</g>
</g>
<!-- Node18&#45;&gt;Node33 -->
<g id="edge53" class="edge">
<title>Node18&#45;&gt;Node33</title>
<path fill="none" stroke="midnightblue" d="M837.18,-348.83C885.5,-339.51 970.22,-323.17 1025.73,-312.47"/>
<polygon fill="midnightblue" stroke="midnightblue" points="1026.58,-315.87 1035.73,-310.54 1025.25,-308.99 1026.58,-315.87"/>
</g>
<!-- Node36 -->
<g id="node36" class="node">
<title>Node36</title>
<g id="a_node36"><a xlink:title=" ">
<polygon fill="white" stroke="#bfbfbf" points="964.5,-230 964.5,-249 1033.5,-249 1033.5,-230 964.5,-230"/>
<text text-anchor="middle" x="999" y="-237" font-family="Helvetica,sans-Serif" font-size="10.00">type_traits</text>
</a>
</g>
</g>
<!-- Node18&#45;&gt;Node36 -->
<g id="edge64" class="edge">
<title>Node18&#45;&gt;Node36</title>
<path fill="none" stroke="midnightblue" d="M814.96,-347.32C849.26,-327.41 933.8,-278.34 975.28,-254.27"/>
<polygon fill="midnightblue" stroke="midnightblue" points="977.25,-257.17 984.14,-249.12 973.73,-251.12 977.25,-257.17"/>
</g>
<!-- Node19&#45;&gt;Node4 -->
<g id="edge28" class="edge">
<title>Node19&#45;&gt;Node4</title>
<path fill="none" stroke="midnightblue" d="M533.21,-295.58C410.87,-287.28 164.61,-268.94 152,-255 142.76,-244.78 144.89,-235.8 152,-224 221.72,-108.31 669.57,-76.43 817.59,-69"/>
<polygon fill="midnightblue" stroke="midnightblue" points="817.9,-72.49 827.72,-68.51 817.56,-65.5 817.9,-72.49"/>
</g>
<!-- Node19&#45;&gt;Node12 -->
<g id="edge29" class="edge">
<title>Node19&#45;&gt;Node12</title>
<path fill="none" stroke="midnightblue" d="M603.89,-291.46C613.1,-264.31 641.84,-179.51 654.69,-141.62"/>
<polygon fill="midnightblue" stroke="midnightblue" points="658.1,-142.46 657.99,-131.87 651.47,-140.22 658.1,-142.46"/>
</g>
<!-- Node19&#45;&gt;Node13 -->
<g id="edge32" class="edge">
<title>Node19&#45;&gt;Node13</title>
<path fill="none" stroke="midnightblue" d="M583.56,-291.49C540.89,-270.67 430.97,-217.04 379.87,-192.11"/>
<polygon fill="midnightblue" stroke="midnightblue" points="381.27,-188.9 370.75,-187.66 378.2,-195.19 381.27,-188.9"/>
</g>
<!-- Node19&#45;&gt;Node17 -->
<g id="edge30" class="edge">
<title>Node19&#45;&gt;Node17</title>
<path fill="none" stroke="midnightblue" d="M625.21,-291.48C654.33,-281.22 703.37,-263.96 736.2,-252.4"/>
<polygon fill="midnightblue" stroke="midnightblue" points="737.56,-255.63 745.83,-249.01 735.24,-249.03 737.56,-255.63"/>
</g>
<!-- Node19&#45;&gt;Node20 -->
<g id="edge31" class="edge">
<title>Node19&#45;&gt;Node20</title>
<path fill="none" stroke="midnightblue" d="M610.46,-291.48C620.75,-282.2 637.42,-267.17 649.99,-255.83"/>
<polygon fill="midnightblue" stroke="midnightblue" points="652.48,-258.3 657.56,-249.01 647.79,-253.11 652.48,-258.3"/>
</g>
<!-- Node21 -->
<g id="node21" class="node">
<title>Node21</title>
<g id="a_node21"><a xlink:title=" ">
<polygon fill="white" stroke="#bfbfbf" points="533.5,-230 533.5,-249 586.5,-249 586.5,-230 533.5,-230"/>
<text text-anchor="middle" x="560" y="-237" font-family="Helvetica,sans-Serif" font-size="10.00">iterator</text>
</a>
</g>
</g>
<!-- Node19&#45;&gt;Node21 -->
<g id="edge33" class="edge">
<title>Node19&#45;&gt;Node21</title>
<path fill="none" stroke="midnightblue" d="M595.13,-291.48C589.04,-282.64 579.36,-268.59 571.7,-257.48"/>
<polygon fill="midnightblue" stroke="midnightblue" points="574.42,-255.26 565.86,-249.01 568.66,-259.23 574.42,-255.26"/>
</g>
<!-- Node23 -->
<g id="node23" class="node">
<title>Node23</title>
<g id="a_node23"><a xlink:href="sitkMemberFunctionFactoryBase_8h.html" target="_top" xlink:title=" ">
<polygon fill="white" stroke="black" points="1398,-224.5 1398,-254.5 1550,-254.5 1550,-224.5 1398,-224.5"/>
<text text-anchor="start" x="1406" y="-242.5" font-family="Helvetica,sans-Serif" font-size="10.00">sitkMemberFunctionFactory</text>
<text text-anchor="middle" x="1474" y="-231.5" font-family="Helvetica,sans-Serif" font-size="10.00">Base.h</text>
</a>
</g>
</g>
<!-- Node22&#45;&gt;Node23 -->
<g id="edge35" class="edge">
<title>Node22&#45;&gt;Node23</title>
<path fill="none" stroke="midnightblue" d="M1295.8,-291.48C1326.87,-282.59 1376.37,-268.43 1415.32,-257.29"/>
<polygon fill="midnightblue" stroke="midnightblue" points="1416.33,-260.64 1424.98,-254.52 1414.4,-253.91 1416.33,-260.64"/>
</g>
<!-- Node29 -->
<g id="node29" class="node">
<title>Node29</title>
<g id="a_node29"><a xlink:title=" ">
<polygon fill="white" stroke="#bfbfbf" points="1167.5,-168.5 1167.5,-187.5 1306.5,-187.5 1306.5,-168.5 1167.5,-168.5"/>
<text text-anchor="middle" x="1237" y="-175.5" font-family="Helvetica,sans-Serif" font-size="10.00">Ancillary/FunctionTraits.h</text>
</a>
</g>
</g>
<!-- Node22&#45;&gt;Node29 -->
<g id="edge52" class="edge">
<title>Node22&#45;&gt;Node29</title>
<path fill="none" stroke="midnightblue" d="M1263.91,-291.3C1259.23,-271.76 1247.8,-224.06 1241.45,-197.55"/>
<polygon fill="midnightblue" stroke="midnightblue" points="1244.8,-196.53 1239.07,-187.62 1237.99,-198.16 1244.8,-196.53"/>
</g>
<!-- Node23&#45;&gt;Node4 -->
<g id="edge44" class="edge">
<title>Node23&#45;&gt;Node4</title>
<path fill="none" stroke="midnightblue" d="M1438.47,-224.48C1414.4,-214.76 1382,-201.23 1354,-188 1336.74,-179.85 1333.91,-174.59 1316,-168 1173.58,-115.63 995.47,-85.52 912.11,-73.36"/>
<polygon fill="midnightblue" stroke="midnightblue" points="912.58,-69.89 902.18,-71.93 911.58,-76.82 912.58,-69.89"/>
</g>
<!-- Node23&#45;&gt;Node10 -->
<g id="edge36" class="edge">
<title>Node23&#45;&gt;Node10</title>
<path fill="none" stroke="midnightblue" d="M1518.24,-224.43C1576.77,-203.5 1668.29,-161.29 1630,-112 1588.38,-58.43 1387.97,-28.53 1289.22,-16.84"/>
<polygon fill="midnightblue" stroke="midnightblue" points="1289.47,-13.34 1279.13,-15.66 1288.66,-20.29 1289.47,-13.34"/>
</g>
<!-- Node24 -->
<g id="node24" class="node">
<title>Node24</title>
<g id="a_node24"><a xlink:href="sitkPixelIDTypes_8h.html" target="_top" xlink:title=" ">
<polygon fill="white" stroke="black" points="1378.5,-112.5 1378.5,-131.5 1483.5,-131.5 1483.5,-112.5 1378.5,-112.5"/>
<text text-anchor="middle" x="1431" y="-119.5" font-family="Helvetica,sans-Serif" font-size="10.00">sitkPixelIDTypes.h</text>
</a>
</g>
</g>
<!-- Node23&#45;&gt;Node24 -->
<g id="edge37" class="edge">
<title>Node23&#45;&gt;Node24</title>
<path fill="none" stroke="midnightblue" d="M1510.86,-224.47C1538.89,-211.59 1570.12,-191.06 1554,-168 1544.8,-154.84 1508.32,-142.51 1477.46,-134.09"/>
<polygon fill="midnightblue" stroke="midnightblue" points="1478.24,-130.68 1467.68,-131.5 1476.45,-137.44 1478.24,-130.68"/>
</g>
<!-- Node25 -->
<g id="node25" class="node">
<title>Node25</title>
<g id="a_node25"><a xlink:href="sitkPixelIDTypeLists_8h.html" target="_top" xlink:title=" ">
<polygon fill="white" stroke="black" points="1363,-168.5 1363,-187.5 1485,-187.5 1485,-168.5 1363,-168.5"/>
<text text-anchor="middle" x="1424" y="-175.5" font-family="Helvetica,sans-Serif" font-size="10.00">sitkPixelIDTypeLists.h</text>
</a>
</g>
</g>
<!-- Node23&#45;&gt;Node25 -->
<g id="edge38" class="edge">
<title>Node23&#45;&gt;Node25</title>
<path fill="none" stroke="midnightblue" d="M1462.15,-224.4C1454.89,-215.75 1445.55,-204.64 1437.93,-195.58"/>
<polygon fill="midnightblue" stroke="midnightblue" points="1440.39,-193.06 1431.28,-187.66 1435.03,-197.57 1440.39,-193.06"/>
</g>
<!-- Node26 -->
<g id="node26" class="node">
<title>Node26</title>
<g id="a_node26"><a xlink:title=" ">
<polygon fill="white" stroke="#bfbfbf" points="1501.5,-112.5 1501.5,-131.5 1620.5,-131.5 1620.5,-112.5 1501.5,-112.5"/>
<text text-anchor="middle" x="1561" y="-119.5" font-family="Helvetica,sans-Serif" font-size="10.00">Ancillary/type_list2.h</text>
</a>
</g>
</g>
<!-- Node23&#45;&gt;Node26 -->
<g id="edge47" class="edge">
<title>Node23&#45;&gt;Node26</title>
<path fill="none" stroke="midnightblue" d="M1523.62,-224.4C1541.45,-216.68 1559.68,-205.09 1570,-188 1578.54,-173.86 1574.52,-154.88 1569.42,-141.08"/>
<polygon fill="midnightblue" stroke="midnightblue" points="1572.59,-139.58 1565.51,-131.7 1566.13,-142.28 1572.59,-139.58"/>
</g>
<!-- Node28 -->
<g id="node28" class="node">
<title>Node28</title>
<g id="a_node28"><a xlink:href="sitkNonCopyable_8h.html" target="_top" xlink:title=" ">
<polygon fill="white" stroke="black" points="1040.5,-168.5 1040.5,-187.5 1149.5,-187.5 1149.5,-168.5 1040.5,-168.5"/>
<text text-anchor="middle" x="1095" y="-175.5" font-family="Helvetica,sans-Serif" font-size="10.00">sitkNonCopyable.h</text>
</a>
</g>
</g>
<!-- Node23&#45;&gt;Node28 -->
<g id="edge45" class="edge">
<title>Node23&#45;&gt;Node28</title>
<path fill="none" stroke="midnightblue" d="M1397.76,-226.53C1327.89,-215.56 1225.59,-199.5 1159.64,-189.15"/>
<polygon fill="midnightblue" stroke="midnightblue" points="1159.8,-185.63 1149.38,-187.54 1158.71,-192.55 1159.8,-185.63"/>
</g>
<!-- Node23&#45;&gt;Node29 -->
<g id="edge48" class="edge">
<title>Node23&#45;&gt;Node29</title>
<path fill="none" stroke="midnightblue" d="M1418.13,-224.47C1376.18,-213.94 1319.51,-199.72 1280.81,-190"/>
<polygon fill="midnightblue" stroke="midnightblue" points="1281.43,-186.55 1270.88,-187.51 1279.73,-193.34 1281.43,-186.55"/>
</g>
<!-- Node30 -->
<g id="node30" class="node">
<title>Node30</title>
<g id="a_node30"><a xlink:title=" ">
<polygon fill="white" stroke="#bfbfbf" points="1677.5,-168.5 1677.5,-187.5 1770.5,-187.5 1770.5,-168.5 1677.5,-168.5"/>
<text text-anchor="middle" x="1724" y="-175.5" font-family="Helvetica,sans-Serif" font-size="10.00">unordered_map</text>
</a>
</g>
</g>
<!-- Node23&#45;&gt;Node30 -->
<g id="edge49" class="edge">
<title>Node23&#45;&gt;Node30</title>
<path fill="none" stroke="midnightblue" d="M1532.93,-224.47C1577.38,-213.9 1637.47,-199.59 1678.31,-189.87"/>
<polygon fill="midnightblue" stroke="midnightblue" points="1679.34,-193.23 1688.26,-187.51 1677.72,-186.42 1679.34,-193.23"/>
</g>
<!-- Node31 -->
<g id="node31" class="node">
<title>Node31</title>
<g id="a_node31"><a xlink:title=" ">
<polygon fill="white" stroke="#bfbfbf" points="1788.5,-168.5 1788.5,-187.5 1853.5,-187.5 1853.5,-168.5 1788.5,-168.5"/>
<text text-anchor="middle" x="1821" y="-175.5" font-family="Helvetica,sans-Serif" font-size="10.00">functional</text>
</a>
</g>
</g>
<!-- Node23&#45;&gt;Node31 -->
<g id="edge50" class="edge">
<title>Node23&#45;&gt;Node31</title>
<path fill="none" stroke="midnightblue" d="M1550.28,-227.05C1609.94,-217.83 1695.21,-204.08 1778.48,-188.22"/>
<polygon fill="midnightblue" stroke="midnightblue" points="1779.2,-191.65 1788.36,-186.33 1777.88,-184.77 1779.2,-191.65"/>
</g>
<!-- Node32 -->
<g id="node32" class="node">
<title>Node32</title>
<g id="a_node32"><a xlink:title=" ">
<polygon fill="white" stroke="#bfbfbf" points="1503.5,-168.5 1503.5,-187.5 1544.5,-187.5 1544.5,-168.5 1503.5,-168.5"/>
<text text-anchor="middle" x="1524" y="-175.5" font-family="Helvetica,sans-Serif" font-size="10.00">tuple</text>
</a>
</g>
</g>
<!-- Node23&#45;&gt;Node32 -->
<g id="edge51" class="edge">
<title>Node23&#45;&gt;Node32</title>
<path fill="none" stroke="midnightblue" d="M1485.85,-224.4C1493.11,-215.75 1502.45,-204.64 1510.07,-195.58"/>
<polygon fill="midnightblue" stroke="midnightblue" points="1512.97,-197.57 1516.72,-187.66 1507.61,-193.06 1512.97,-197.57"/>
</g>
<!-- Node25&#45;&gt;Node5 -->
<g id="edge39" class="edge">
<title>Node25&#45;&gt;Node5</title>
<path fill="none" stroke="midnightblue" d="M1366.94,-168.48C1332.79,-161.81 1289.3,-150.48 1254,-132 1200.66,-104.08 1149.91,-52.91 1126.12,-26.98"/>
<polygon fill="midnightblue" stroke="midnightblue" points="1128.67,-24.58 1119.37,-19.5 1123.47,-29.27 1128.67,-24.58"/>
</g>
<!-- Node25&#45;&gt;Node10 -->
<g id="edge40" class="edge">
<title>Node25&#45;&gt;Node10</title>
<path fill="none" stroke="midnightblue" d="M1413.56,-168.47C1402.63,-159.49 1384.98,-144.9 1370,-132 1326.75,-94.76 1276.85,-49.85 1251.19,-26.62"/>
<polygon fill="midnightblue" stroke="midnightblue" points="1253.23,-23.74 1243.47,-19.62 1248.53,-28.93 1253.23,-23.74"/>
</g>
<!-- Node25&#45;&gt;Node24 -->
<g id="edge41" class="edge">
<title>Node25&#45;&gt;Node24</title>
<path fill="none" stroke="midnightblue" d="M1425.16,-168.08C1426.08,-160.93 1427.42,-150.64 1428.58,-141.69"/>
<polygon fill="midnightblue" stroke="midnightblue" points="1432.05,-142.12 1429.87,-131.75 1425.11,-141.22 1432.05,-142.12"/>
</g>
<!-- Node25&#45;&gt;Node26 -->
<g id="edge42" class="edge">
<title>Node25&#45;&gt;Node26</title>
<path fill="none" stroke="midnightblue" d="M1445.71,-168.44C1468.35,-159.52 1504.07,-145.44 1529.75,-135.32"/>
<polygon fill="midnightblue" stroke="midnightblue" points="1531.37,-138.44 1539.39,-131.52 1528.81,-131.93 1531.37,-138.44"/>
</g>
<!-- Node27 -->
<g id="node27" class="node">
<title>Node27</title>
<g id="a_node27"><a xlink:title=" ">
<polygon fill="white" stroke="#bfbfbf" points="1262.5,-112.5 1262.5,-131.5 1321.5,-131.5 1321.5,-112.5 1262.5,-112.5"/>
<text text-anchor="middle" x="1292" y="-119.5" font-family="Helvetica,sans-Serif" font-size="10.00">complex</text>
</a>
</g>
</g>
<!-- Node25&#45;&gt;Node27 -->
<g id="edge43" class="edge">
<title>Node25&#45;&gt;Node27</title>
<path fill="none" stroke="midnightblue" d="M1403.08,-168.44C1381.26,-159.52 1346.85,-145.44 1322.11,-135.32"/>
<polygon fill="midnightblue" stroke="midnightblue" points="1323.4,-132.06 1312.82,-131.52 1320.75,-138.54 1323.4,-132.06"/>
</g>
<!-- Node28&#45;&gt;Node12 -->
<g id="edge46" class="edge">
<title>Node28&#45;&gt;Node12</title>
<path fill="none" stroke="midnightblue" d="M1040.47,-170.22C956.99,-159.83 798.43,-140.1 715.16,-129.74"/>
<polygon fill="midnightblue" stroke="midnightblue" points="715.5,-126.25 705.15,-128.49 714.64,-133.2 715.5,-126.25"/>
</g>
<!-- Node33&#45;&gt;Node10 -->
<g id="edge54" class="edge">
<title>Node33&#45;&gt;Node10</title>
<path fill="none" stroke="midnightblue" d="M1117.97,-291.41C1137.41,-284.88 1159.38,-273.72 1171,-255 1178.27,-243.3 1179.43,-234.9 1171,-224 1130.23,-171.33 1002.73,-227.83 1032,-168 1067.99,-94.44 1156.93,-45.4 1203.87,-23.71"/>
<polygon fill="midnightblue" stroke="midnightblue" points="1205.54,-26.8 1213.22,-19.5 1202.66,-20.42 1205.54,-26.8"/>
</g>
<!-- Node34 -->
<g id="node34" class="node">
<title>Node34</title>
<g id="a_node34"><a xlink:href="sitkPixelIDValues_8h.html" target="_top" xlink:title=" ">
<polygon fill="white" stroke="black" points="1052,-230 1052,-249 1162,-249 1162,-230 1052,-230"/>
<text text-anchor="middle" x="1107" y="-237" font-family="Helvetica,sans-Serif" font-size="10.00">sitkPixelIDValues.h</text>
</a>
</g>
</g>
<!-- Node33&#45;&gt;Node34 -->
<g id="edge55" class="edge">
<title>Node33&#45;&gt;Node34</title>
<path fill="none" stroke="midnightblue" d="M1083.87,-291.48C1087.8,-282.82 1094,-269.15 1098.99,-258.15"/>
<polygon fill="midnightblue" stroke="midnightblue" points="1102.19,-259.56 1103.14,-249.01 1095.82,-256.67 1102.19,-259.56"/>
</g>
<!-- Node33&#45;&gt;Node36 -->
<g id="edge60" class="edge">
<title>Node33&#45;&gt;Node36</title>
<path fill="none" stroke="midnightblue" d="M1068.39,-291.48C1055.52,-282.02 1034.53,-266.6 1018.99,-255.19"/>
<polygon fill="midnightblue" stroke="midnightblue" points="1020.72,-252.11 1010.58,-249.01 1016.57,-257.75 1020.72,-252.11"/>
</g>
<!-- Node34&#45;&gt;Node12 -->
<g id="edge56" class="edge">
<title>Node34&#45;&gt;Node12</title>
<path fill="none" stroke="midnightblue" d="M1088.66,-229.93C1050.34,-212.08 964.18,-172.2 950,-168 870.32,-144.37 774.39,-132.56 715.56,-127.12"/>
<polygon fill="midnightblue" stroke="midnightblue" points="715.65,-123.61 705.38,-126.2 715.03,-130.58 715.65,-123.61"/>
</g>
<!-- Node34&#45;&gt;Node13 -->
<g id="edge59" class="edge">
<title>Node34&#45;&gt;Node13</title>
<path fill="none" stroke="midnightblue" d="M1073.97,-229.95C1064.07,-227.68 1053.15,-225.46 1043,-224 789.1,-187.54 722.86,-206.09 467,-188 441.87,-186.22 413.64,-184 391.56,-182.2"/>
<polygon fill="midnightblue" stroke="midnightblue" points="391.82,-178.71 381.57,-181.39 391.25,-185.69 391.82,-178.71"/>
</g>
<!-- Node34&#45;&gt;Node25 -->
<g id="edge57" class="edge">
<title>Node34&#45;&gt;Node25</title>
<path fill="none" stroke="midnightblue" d="M1152.42,-229.98C1209.5,-219.26 1307.42,-200.88 1368.77,-189.37"/>
<polygon fill="midnightblue" stroke="midnightblue" points="1369.48,-192.79 1378.67,-187.51 1368.19,-185.91 1369.48,-192.79"/>
</g>
<!-- Node35 -->
<g id="node35" class="node">
<title>Node35</title>
<g id="a_node35"><a xlink:title=" ">
<polygon fill="white" stroke="#bfbfbf" points="864,-168.5 864,-187.5 908,-187.5 908,-168.5 864,-168.5"/>
<text text-anchor="middle" x="886" y="-175.5" font-family="Helvetica,sans-Serif" font-size="10.00">string</text>
</a>
</g>
</g>
<!-- Node34&#45;&gt;Node35 -->
<g id="edge58" class="edge">
<title>Node34&#45;&gt;Node35</title>
<path fill="none" stroke="midnightblue" d="M1075.34,-229.98C1033.44,-218.69 959.98,-198.92 917.94,-187.6"/>
<polygon fill="midnightblue" stroke="midnightblue" points="918.79,-184.2 908.22,-184.98 916.97,-190.96 918.79,-184.2"/>
</g>
<!-- Node37&#45;&gt;Node35 -->
<g id="edge66" class="edge">
<title>Node37&#45;&gt;Node35</title>
<path fill="none" stroke="midnightblue" d="M898.37,-347.46C896.39,-320.43 890.2,-236.24 887.4,-198.11"/>
<polygon fill="midnightblue" stroke="midnightblue" points="890.87,-197.59 886.65,-187.87 883.89,-198.1 890.87,-197.59"/>
</g>
<!-- Node39&#45;&gt;Node12 -->
<g id="edge70" class="edge">
<title>Node39&#45;&gt;Node12</title>
<path fill="none" stroke="midnightblue" d="M908.91,-459.32C920,-442.45 943.58,-403.66 952,-367 960.04,-331.99 966.17,-216.24 917,-168 889.14,-140.66 782.03,-129.72 715.5,-125.5"/>
<polygon fill="midnightblue" stroke="midnightblue" points="715.38,-121.99 705.19,-124.88 714.96,-128.98 715.38,-121.99"/>
</g>
<!-- Node39&#45;&gt;Node18 -->
<g id="edge76" class="edge">
<title>Node39&#45;&gt;Node18</title>
<path fill="none" stroke="midnightblue" d="M902.57,-459.45C901.48,-446.03 897.63,-419.8 884,-403 871.97,-388.18 853.73,-377.58 837.31,-370.4"/>
<polygon fill="midnightblue" stroke="midnightblue" points="838.5,-367.11 827.92,-366.57 835.85,-373.59 838.5,-367.11"/>
</g>
<!-- Node39&#45;&gt;Node19 -->
<g id="edge72" class="edge">
<title>Node39&#45;&gt;Node19</title>
<path fill="none" stroke="midnightblue" d="M846.26,-464.9C778.92,-460.11 671.97,-448.62 642,-423 611.61,-397.02 603.69,-347.64 601.66,-320.69"/>
<polygon fill="midnightblue" stroke="midnightblue" points="605.15,-320.44 601.11,-310.65 598.17,-320.82 605.15,-320.44"/>
</g>
<!-- Node39&#45;&gt;Node28 -->
<g id="edge71" class="edge">
<title>Node39&#45;&gt;Node28</title>
<path fill="none" stroke="midnightblue" d="M929.77,-459.46C992.52,-437.67 1146.86,-373.17 1187,-255 1191.43,-241.95 1194.29,-235.69 1187,-224 1177.24,-208.36 1160.3,-198.01 1143.6,-191.23"/>
<polygon fill="midnightblue" stroke="midnightblue" points="1144.44,-187.81 1133.85,-187.64 1142.02,-194.38 1144.44,-187.81"/>
</g>
<!-- Node40 -->
<g id="node40" class="node">
<title>Node40</title>
<g id="a_node40"><a xlink:href="sitkEvent_8h.html" target="_top" xlink:title=" ">
<polygon fill="white" stroke="black" points="253.5,-230 253.5,-249 324.5,-249 324.5,-230 253.5,-230"/>
<text text-anchor="middle" x="289" y="-237" font-family="Helvetica,sans-Serif" font-size="10.00">sitkEvent.h</text>
</a>
</g>
</g>
<!-- Node39&#45;&gt;Node40 -->
<g id="edge73" class="edge">
<title>Node39&#45;&gt;Node40</title>
<path fill="none" stroke="midnightblue" d="M846.14,-467.67C734.2,-464.06 482.85,-440.94 330,-311 313.52,-296.99 302.11,-274.6 295.59,-258.82"/>
<polygon fill="midnightblue" stroke="midnightblue" points="298.71,-257.2 291.85,-249.13 292.18,-259.72 298.71,-257.2"/>
</g>
<!-- Node41 -->
<g id="node41" class="node">
<title>Node41</title>
<g id="a_node41"><a xlink:href="sitkImageConvert_8h.html" target="_top" xlink:title=" ">
<polygon fill="white" stroke="black" points="761.5,-403.5 761.5,-422.5 874.5,-422.5 874.5,-403.5 761.5,-403.5"/>
<text text-anchor="middle" x="818" y="-410.5" font-family="Helvetica,sans-Serif" font-size="10.00">sitkImageConvert.h</text>
</a>
</g>
</g>
<!-- Node39&#45;&gt;Node41 -->
<g id="edge77" class="edge">
<title>Node39&#45;&gt;Node41</title>
<path fill="none" stroke="midnightblue" d="M889.34,-459.32C876.08,-450.9 855.73,-437.97 840.15,-428.07"/>
<polygon fill="midnightblue" stroke="midnightblue" points="841.94,-425.06 831.62,-422.65 838.19,-430.97 841.94,-425.06"/>
</g>
<!-- Node42 -->
<g id="node42" class="node">
<title>Node42</title>
<g id="a_node42"><a xlink:title=" ">
<polygon fill="white" stroke="#bfbfbf" points="1128,-403.5 1128,-422.5 1188,-422.5 1188,-403.5 1128,-403.5"/>
<text text-anchor="middle" x="1158" y="-410.5" font-family="Helvetica,sans-Serif" font-size="10.00">iostream</text>
</a>
</g>
</g>
<!-- Node39&#45;&gt;Node42 -->
<g id="edge79" class="edge">
<title>Node39&#45;&gt;Node42</title>
<path fill="none" stroke="midnightblue" d="M943.41,-459.44C991.16,-449.33 1070.14,-432.61 1117.8,-422.51"/>
<polygon fill="midnightblue" stroke="midnightblue" points="1118.71,-425.9 1127.77,-420.4 1117.26,-419.05 1118.71,-425.9"/>
</g>
<!-- Node43 -->
<g id="node43" class="node">
<title>Node43</title>
<g id="a_node43"><a xlink:title=" ">
<polygon fill="white" stroke="#bfbfbf" points="1206,-403.5 1206,-422.5 1238,-422.5 1238,-403.5 1206,-403.5"/>
<text text-anchor="middle" x="1222" y="-410.5" font-family="Helvetica,sans-Serif" font-size="10.00">list</text>
</a>
</g>
</g>
<!-- Node39&#45;&gt;Node43 -->
<g id="edge80" class="edge">
<title>Node39&#45;&gt;Node43</title>
<path fill="none" stroke="midnightblue" d="M959.74,-462.61C1017.27,-456.41 1108.88,-444.52 1195.96,-422.85"/>
<polygon fill="midnightblue" stroke="midnightblue" points="1196.9,-426.22 1205.73,-420.37 1195.18,-419.43 1196.9,-426.22"/>
</g>
<!-- Node40&#45;&gt;Node12 -->
<g id="edge74" class="edge">
<title>Node40&#45;&gt;Node12</title>
<path fill="none" stroke="midnightblue" d="M289.43,-229.94C290.69,-214.8 295.62,-183.46 315,-168 358.91,-132.97 520.79,-125.08 606.67,-123.39"/>
<polygon fill="midnightblue" stroke="midnightblue" points="606.82,-126.89 616.75,-123.21 606.69,-119.89 606.82,-126.89"/>
</g>
<!-- Node40&#45;&gt;Node13 -->
<g id="edge75" class="edge">
<title>Node40&#45;&gt;Node13</title>
<path fill="none" stroke="midnightblue" d="M298.17,-229.98C308.15,-220.7 324.31,-205.67 336.51,-194.33"/>
<polygon fill="midnightblue" stroke="midnightblue" points="338.91,-196.88 343.85,-187.51 334.14,-191.75 338.91,-196.88"/>
</g>
<!-- Node41&#45;&gt;Node18 -->
<g id="edge78" class="edge">
<title>Node41&#45;&gt;Node18</title>
<path fill="none" stroke="midnightblue" d="M815.03,-403.08C812.62,-395.85 809.14,-385.41 806.13,-376.4"/>
<polygon fill="midnightblue" stroke="midnightblue" points="809.4,-375.13 802.92,-366.75 802.76,-377.34 809.4,-375.13"/>
</g>
<!-- Node44&#45;&gt;Node7 -->
<g id="edge86" class="edge">
<title>Node44&#45;&gt;Node7</title>
<path fill="none" stroke="midnightblue" d="M1345.58,-349.28C1512.11,-334.15 1882,-294.46 1882,-240.5 1882,-240.5 1882,-240.5 1882,-121 1882,-61.16 1680.35,-27.14 1596.21,-15.55"/>
<polygon fill="midnightblue" stroke="midnightblue" points="1596.46,-12.06 1586.08,-14.19 1595.52,-18.99 1596.46,-12.06"/>
</g>
<!-- Node44&#45;&gt;Node17 -->
<g id="edge89" class="edge">
<title>Node44&#45;&gt;Node17</title>
<path fill="none" stroke="midnightblue" d="M1209.07,-347.43C1158.18,-339.38 1081.72,-326.29 1016,-311 940.46,-293.42 853.54,-267.03 805.9,-252.02"/>
<polygon fill="midnightblue" stroke="midnightblue" points="806.93,-248.68 796.34,-249 804.82,-255.35 806.93,-248.68"/>
</g>
<!-- Node44&#45;&gt;Node22 -->
<g id="edge82" class="edge">
<title>Node44&#45;&gt;Node22</title>
<path fill="none" stroke="midnightblue" d="M1266,-347.08C1266,-340.01 1266,-329.86 1266,-320.99"/>
<polygon fill="midnightblue" stroke="midnightblue" points="1269.5,-320.75 1266,-310.75 1262.5,-320.75 1269.5,-320.75"/>
</g>
<!-- Node44&#45;&gt;Node23 -->
<g id="edge83" class="edge">
<title>Node44&#45;&gt;Node23</title>
<path fill="none" stroke="midnightblue" d="M1275.6,-347.29C1290.75,-333.87 1321.52,-307.93 1351,-291 1373.6,-278.03 1400.18,-266.68 1422.84,-258.04"/>
<polygon fill="midnightblue" stroke="midnightblue" points="1424.15,-261.29 1432.29,-254.51 1421.69,-254.73 1424.15,-261.29"/>
</g>
<!-- Node44&#45;&gt;Node33 -->
<g id="edge88" class="edge">
<title>Node44&#45;&gt;Node33</title>
<path fill="none" stroke="midnightblue" d="M1236.53,-347.44C1204.83,-338.24 1154.27,-323.56 1119.23,-313.39"/>
<polygon fill="midnightblue" stroke="midnightblue" points="1119.91,-309.94 1109.33,-310.52 1117.96,-316.67 1119.91,-309.94"/>
</g>
<!-- Node44&#45;&gt;Node34 -->
<g id="edge84" class="edge">
<title>Node44&#45;&gt;Node34</title>
<path fill="none" stroke="midnightblue" d="M1254.05,-347.32C1227,-327.67 1160.84,-279.61 1127.26,-255.22"/>
<polygon fill="midnightblue" stroke="midnightblue" points="1129.24,-252.33 1119.09,-249.28 1125.12,-257.99 1129.24,-252.33"/>
</g>
<!-- Node44&#45;&gt;Node44 -->
<g id="edge87" class="edge">
<title>Node44&#45;&gt;Node44</title>
<path fill="none" stroke="midnightblue" d="M1307.33,-366.5C1335.67,-369.33 1363.5,-366.16 1363.5,-357 1363.5,-348.95 1342,-345.53 1317.56,-346.74"/>
<polygon fill="midnightblue" stroke="midnightblue" points="1317.04,-343.27 1307.33,-347.5 1317.56,-350.25 1317.04,-343.27"/>
</g>
<!-- Node45 -->
<g id="node45" class="node">
<title>Node45</title>
<g id="a_node45"><a xlink:title=" ">
<polygon fill="white" stroke="#bfbfbf" points="1359.5,-291.5 1359.5,-310.5 1530.5,-310.5 1530.5,-291.5 1359.5,-291.5"/>
<text text-anchor="middle" x="1445" y="-298.5" font-family="Helvetica,sans-Serif" font-size="10.00">sitkMemberFunctionFactory.hxx</text>
</a>
</g>
</g>
<!-- Node44&#45;&gt;Node45 -->
<g id="edge85" class="edge">
<title>Node44&#45;&gt;Node45</title>
<path fill="none" stroke="midnightblue" d="M1294.36,-347.44C1324.74,-338.28 1373.11,-323.69 1406.82,-313.52"/>
<polygon fill="midnightblue" stroke="midnightblue" points="1408.21,-316.76 1416.77,-310.52 1406.18,-310.05 1408.21,-316.76"/>
</g>
</g>
</svg>
