<?xml version="1.0" encoding="UTF-8" standalone="no"?>
<!DOCTYPE svg PUBLIC "-//W3C//DTD SVG 1.1//EN"
 "http://www.w3.org/Graphics/SVG/1.1/DTD/svg11.dtd">
<!-- Generated by graphviz version 2.43.0 (0)
 -->
<!-- Title: sitkImageFileWriter.h Pages: 1 -->
<svg width="1759pt" height="543pt"
 viewBox="0.00 0.00 1759.00 543.00" xmlns="http://www.w3.org/2000/svg" xmlns:xlink="http://www.w3.org/1999/xlink">
<g id="graph0" class="graph" transform="scale(1 1) rotate(0) translate(4 539)">
<title>sitkImageFileWriter.h</title>
<polygon fill="white" stroke="transparent" points="-4,4 -4,-539 1755,-539 1755,4 -4,4"/>
<!-- Node1 -->
<g id="node1" class="node">
<title>Node1</title>
<g id="a_node1"><a xlink:title=" ">
<polygon fill="#bfbfbf" stroke="black" points="1109.5,-515.5 1109.5,-534.5 1230.5,-534.5 1230.5,-515.5 1109.5,-515.5"/>
<text text-anchor="middle" x="1170" y="-522.5" font-family="Helvetica,sans-Serif" font-size="10.00">sitkImageFileWriter.h</text>
</a>
</g>
</g>
<!-- Node2 -->
<g id="node2" class="node">
<title>Node2</title>
<g id="a_node2"><a xlink:href="sitkMacro_8h.html" target="_top" xlink:title=" ">
<polygon fill="white" stroke="black" points="1051,-56.5 1051,-75.5 1125,-75.5 1125,-56.5 1051,-56.5"/>
<text text-anchor="middle" x="1088" y="-63.5" font-family="Helvetica,sans-Serif" font-size="10.00">sitkMacro.h</text>
</a>
</g>
</g>
<!-- Node1&#45;&gt;Node2 -->
<g id="edge1" class="edge">
<title>Node1&#45;&gt;Node2</title>
<path fill="none" stroke="midnightblue" d="M1230.57,-524.06C1316.48,-522.75 1477.97,-515.1 1610,-479 1676.56,-460.8 1751,-483 1751,-414 1751,-414 1751,-414 1751,-177 1751,-99.83 1665.02,-130.08 1590,-112 1426.35,-72.55 1225.16,-66.98 1135.28,-66.65"/>
<polygon fill="midnightblue" stroke="midnightblue" points="1135.14,-63.15 1125.13,-66.63 1135.13,-70.15 1135.14,-63.15"/>
</g>
<!-- Node9 -->
<g id="node9" class="node">
<title>Node9</title>
<g id="a_node9"><a xlink:href="sitkPathType_8h.html" target="_top" xlink:title=" ">
<polygon fill="white" stroke="black" points="738.5,-347.5 738.5,-366.5 825.5,-366.5 825.5,-347.5 738.5,-347.5"/>
<text text-anchor="middle" x="782" y="-354.5" font-family="Helvetica,sans-Serif" font-size="10.00">sitkPathType.h</text>
</a>
</g>
</g>
<!-- Node1&#45;&gt;Node9 -->
<g id="edge8" class="edge">
<title>Node1&#45;&gt;Node9</title>
<path fill="none" stroke="midnightblue" d="M1109.37,-519.03C1063.03,-513.54 998.41,-502.2 946,-479 885.33,-452.15 825.56,-399.73 797.91,-373.59"/>
<polygon fill="midnightblue" stroke="midnightblue" points="800.34,-371.06 790.7,-366.67 795.49,-376.12 800.34,-371.06"/>
</g>
<!-- Node11 -->
<g id="node11" class="node">
<title>Node11</title>
<g id="a_node11"><a xlink:href="sitkImage_8h.html" target="_top" xlink:title=" ">
<polygon fill="white" stroke="black" points="1141,-347.5 1141,-366.5 1215,-366.5 1215,-347.5 1141,-347.5"/>
<text text-anchor="middle" x="1178" y="-354.5" font-family="Helvetica,sans-Serif" font-size="10.00">sitkImage.h</text>
</a>
</g>
</g>
<!-- Node1&#45;&gt;Node11 -->
<g id="edge10" class="edge">
<title>Node1&#45;&gt;Node11</title>
<path fill="none" stroke="midnightblue" d="M1170.43,-515.08C1171.69,-488.95 1175.39,-412.21 1177.1,-376.58"/>
<polygon fill="midnightblue" stroke="midnightblue" points="1180.6,-376.73 1177.59,-366.57 1173.61,-376.39 1180.6,-376.73"/>
</g>
<!-- Node15 -->
<g id="node15" class="node">
<title>Node15</title>
<g id="a_node15"><a xlink:title=" ">
<polygon fill="white" stroke="#bfbfbf" points="999,-168.5 999,-187.5 1057,-187.5 1057,-168.5 999,-168.5"/>
<text text-anchor="middle" x="1028" y="-175.5" font-family="Helvetica,sans-Serif" font-size="10.00">memory</text>
</a>
</g>
</g>
<!-- Node1&#45;&gt;Node15 -->
<g id="edge79" class="edge">
<title>Node1&#45;&gt;Node15</title>
<path fill="none" stroke="midnightblue" d="M1109.26,-517.93C1047.24,-507.98 960,-481.91 960,-414 960,-414 960,-414 960,-300 960,-257.91 991.66,-216.92 1011.78,-195.13"/>
<polygon fill="midnightblue" stroke="midnightblue" points="1014.45,-197.4 1018.83,-187.75 1009.39,-192.56 1014.45,-197.4"/>
</g>
<!-- Node34 -->
<g id="node34" class="node">
<title>Node34</title>
<g id="a_node34"><a xlink:href="sitkMemberFunctionFactory_8h.html" target="_top" xlink:title=" ">
<polygon fill="white" stroke="black" points="495.5,-347.5 495.5,-366.5 654.5,-366.5 654.5,-347.5 495.5,-347.5"/>
<text text-anchor="middle" x="575" y="-354.5" font-family="Helvetica,sans-Serif" font-size="10.00">sitkMemberFunctionFactory.h</text>
</a>
</g>
</g>
<!-- Node1&#45;&gt;Node34 -->
<g id="edge56" class="edge">
<title>Node1&#45;&gt;Node34</title>
<path fill="none" stroke="midnightblue" d="M1109.28,-516.77C1055.54,-509.62 975.28,-497.13 907,-479 792.33,-448.56 661.45,-395.06 604.29,-370.71"/>
<polygon fill="midnightblue" stroke="midnightblue" points="605.38,-367.37 594.81,-366.65 602.62,-373.81 605.38,-367.37"/>
</g>
<!-- Node36 -->
<g id="node36" class="node">
<title>Node36</title>
<g id="a_node36"><a xlink:href="sitkIO_8h.html" target="_top" xlink:title=" ">
<polygon fill="white" stroke="black" points="1547,-459.5 1547,-478.5 1601,-478.5 1601,-459.5 1547,-459.5"/>
<text text-anchor="middle" x="1574" y="-466.5" font-family="Helvetica,sans-Serif" font-size="10.00">sitkIO.h</text>
</a>
</g>
</g>
<!-- Node1&#45;&gt;Node36 -->
<g id="edge65" class="edge">
<title>Node1&#45;&gt;Node36</title>
<path fill="none" stroke="midnightblue" d="M1230.92,-515.86C1315.63,-504.54 1466.44,-484.38 1536.41,-475.02"/>
<polygon fill="midnightblue" stroke="midnightblue" points="1537.08,-478.47 1546.53,-473.67 1536.16,-471.53 1537.08,-478.47"/>
</g>
<!-- Node37 -->
<g id="node37" class="node">
<title>Node37</title>
<g id="a_node37"><a xlink:href="sitkProcessObject_8h.html" target="_top" xlink:title=" ">
<polygon fill="white" stroke="black" points="1321.5,-459.5 1321.5,-478.5 1434.5,-478.5 1434.5,-459.5 1321.5,-459.5"/>
<text text-anchor="middle" x="1378" y="-466.5" font-family="Helvetica,sans-Serif" font-size="10.00">sitkProcessObject.h</text>
</a>
</g>
</g>
<!-- Node1&#45;&gt;Node37 -->
<g id="edge67" class="edge">
<title>Node1&#45;&gt;Node37</title>
<path fill="none" stroke="midnightblue" d="M1202.96,-515.44C1238.79,-506.14 1296.16,-491.25 1335.39,-481.06"/>
<polygon fill="midnightblue" stroke="midnightblue" points="1336.4,-484.42 1345.2,-478.52 1334.64,-477.64 1336.4,-484.42"/>
</g>
<!-- Node3 -->
<g id="node3" class="node">
<title>Node3</title>
<g id="a_node3"><a xlink:title=" ">
<polygon fill="white" stroke="#bfbfbf" points="830.5,-0.5 830.5,-19.5 883.5,-19.5 883.5,-0.5 830.5,-0.5"/>
<text text-anchor="middle" x="857" y="-7.5" font-family="Helvetica,sans-Serif" font-size="10.00">stdint.h</text>
</a>
</g>
</g>
<!-- Node2&#45;&gt;Node3 -->
<g id="edge2" class="edge">
<title>Node2&#45;&gt;Node3</title>
<path fill="none" stroke="midnightblue" d="M1051.4,-56.44C1008.17,-46.34 936.71,-29.63 893.52,-19.54"/>
<polygon fill="midnightblue" stroke="midnightblue" points="894.24,-16.11 883.71,-17.24 892.65,-22.93 894.24,-16.11"/>
</g>
<!-- Node4 -->
<g id="node4" class="node">
<title>Node4</title>
<g id="a_node4"><a xlink:title=" ">
<polygon fill="white" stroke="#bfbfbf" points="986,-0.5 986,-19.5 1042,-19.5 1042,-0.5 986,-0.5"/>
<text text-anchor="middle" x="1014" y="-7.5" font-family="Helvetica,sans-Serif" font-size="10.00">stddef.h</text>
</a>
</g>
</g>
<!-- Node2&#45;&gt;Node4 -->
<g id="edge3" class="edge">
<title>Node2&#45;&gt;Node4</title>
<path fill="none" stroke="midnightblue" d="M1076.11,-56.32C1064.85,-48.11 1047.71,-35.6 1034.29,-25.81"/>
<polygon fill="midnightblue" stroke="midnightblue" points="1036.25,-22.9 1026.11,-19.83 1032.12,-28.56 1036.25,-22.9"/>
</g>
<!-- Node5 -->
<g id="node5" class="node">
<title>Node5</title>
<g id="a_node5"><a xlink:title=" ">
<polygon fill="white" stroke="#bfbfbf" points="296,-0.5 296,-19.5 348,-19.5 348,-0.5 296,-0.5"/>
<text text-anchor="middle" x="322" y="-7.5" font-family="Helvetica,sans-Serif" font-size="10.00">cassert</text>
</a>
</g>
</g>
<!-- Node2&#45;&gt;Node5 -->
<g id="edge4" class="edge">
<title>Node2&#45;&gt;Node5</title>
<path fill="none" stroke="midnightblue" d="M1050.8,-62.38C920.68,-53.2 486.94,-22.63 358.28,-13.56"/>
<polygon fill="midnightblue" stroke="midnightblue" points="358.38,-10.06 348.16,-12.84 357.89,-17.04 358.38,-10.06"/>
</g>
<!-- Node6 -->
<g id="node6" class="node">
<title>Node6</title>
<g id="a_node6"><a xlink:title=" ">
<polygon fill="white" stroke="#bfbfbf" points="1060,-0.5 1060,-19.5 1116,-19.5 1116,-0.5 1060,-0.5"/>
<text text-anchor="middle" x="1088" y="-7.5" font-family="Helvetica,sans-Serif" font-size="10.00">sstream</text>
</a>
</g>
</g>
<!-- Node2&#45;&gt;Node6 -->
<g id="edge5" class="edge">
<title>Node2&#45;&gt;Node6</title>
<path fill="none" stroke="midnightblue" d="M1088,-56.08C1088,-49.01 1088,-38.86 1088,-29.99"/>
<polygon fill="midnightblue" stroke="midnightblue" points="1091.5,-29.75 1088,-19.75 1084.5,-29.75 1091.5,-29.75"/>
</g>
<!-- Node7 -->
<g id="node7" class="node">
<title>Node7</title>
<g id="a_node7"><a xlink:title=" ">
<polygon fill="white" stroke="#bfbfbf" points="1134,-0.5 1134,-19.5 1178,-19.5 1178,-0.5 1134,-0.5"/>
<text text-anchor="middle" x="1156" y="-7.5" font-family="Helvetica,sans-Serif" font-size="10.00">limits</text>
</a>
</g>
</g>
<!-- Node2&#45;&gt;Node7 -->
<g id="edge6" class="edge">
<title>Node2&#45;&gt;Node7</title>
<path fill="none" stroke="midnightblue" d="M1098.93,-56.32C1109.17,-48.18 1124.72,-35.84 1137,-26.09"/>
<polygon fill="midnightblue" stroke="midnightblue" points="1139.22,-28.79 1144.88,-19.83 1134.87,-23.31 1139.22,-28.79"/>
</g>
<!-- Node8 -->
<g id="node8" class="node">
<title>Node8</title>
<g id="a_node8"><a xlink:href="sitkConfigure_8h.html" target="_top" xlink:title=" ">
<polygon fill="white" stroke="black" points="629,-0.5 629,-19.5 719,-19.5 719,-0.5 629,-0.5"/>
<text text-anchor="middle" x="674" y="-7.5" font-family="Helvetica,sans-Serif" font-size="10.00">sitkConfigure.h</text>
</a>
</g>
</g>
<!-- Node2&#45;&gt;Node8 -->
<g id="edge7" class="edge">
<title>Node2&#45;&gt;Node8</title>
<path fill="none" stroke="midnightblue" d="M1050.9,-60.16C977.85,-50.63 815.07,-29.4 729.31,-18.21"/>
<polygon fill="midnightblue" stroke="midnightblue" points="729.61,-14.72 719.24,-16.9 728.71,-21.67 729.61,-14.72"/>
</g>
<!-- Node10 -->
<g id="node10" class="node">
<title>Node10</title>
<g id="a_node10"><a xlink:title=" ">
<polygon fill="white" stroke="#bfbfbf" points="733,-168.5 733,-187.5 777,-187.5 777,-168.5 733,-168.5"/>
<text text-anchor="middle" x="755" y="-175.5" font-family="Helvetica,sans-Serif" font-size="10.00">string</text>
</a>
</g>
</g>
<!-- Node9&#45;&gt;Node10 -->
<g id="edge9" class="edge">
<title>Node9&#45;&gt;Node10</title>
<path fill="none" stroke="midnightblue" d="M760.97,-347.41C729.78,-333.38 672.46,-302.27 649,-255 642.88,-242.66 641.4,-235.49 649,-224 657.6,-211.01 695.02,-197.16 722.98,-188.31"/>
<polygon fill="midnightblue" stroke="midnightblue" points="724.25,-191.57 732.78,-185.28 722.19,-184.89 724.25,-191.57"/>
</g>
<!-- Node12 -->
<g id="node12" class="node">
<title>Node12</title>
<g id="a_node12"><a xlink:href="sitkCommon_8h.html" target="_top" xlink:title=" ">
<polygon fill="white" stroke="black" points="1134,-112.5 1134,-131.5 1222,-131.5 1222,-112.5 1134,-112.5"/>
<text text-anchor="middle" x="1178" y="-119.5" font-family="Helvetica,sans-Serif" font-size="10.00">sitkCommon.h</text>
</a>
</g>
</g>
<!-- Node11&#45;&gt;Node12 -->
<g id="edge11" class="edge">
<title>Node11&#45;&gt;Node12</title>
<path fill="none" stroke="midnightblue" d="M1178,-347.43C1178,-313.75 1178,-189.99 1178,-142.1"/>
<polygon fill="midnightblue" stroke="midnightblue" points="1181.5,-141.9 1178,-131.9 1174.5,-141.9 1181.5,-141.9"/>
</g>
<!-- Node13 -->
<g id="node13" class="node">
<title>Node13</title>
<g id="a_node13"><a xlink:href="sitkTemplateFunctions_8h.html" target="_top" xlink:title=" ">
<polygon fill="white" stroke="black" points="1303.5,-291.5 1303.5,-310.5 1438.5,-310.5 1438.5,-291.5 1303.5,-291.5"/>
<text text-anchor="middle" x="1371" y="-298.5" font-family="Helvetica,sans-Serif" font-size="10.00">sitkTemplateFunctions.h</text>
</a>
</g>
</g>
<!-- Node11&#45;&gt;Node13 -->
<g id="edge13" class="edge">
<title>Node11&#45;&gt;Node13</title>
<path fill="none" stroke="midnightblue" d="M1208.58,-347.44C1241.61,-338.2 1294.39,-323.44 1330.77,-313.26"/>
<polygon fill="midnightblue" stroke="midnightblue" points="1331.87,-316.58 1340.56,-310.52 1329.99,-309.84 1331.87,-316.58"/>
</g>
<!-- Node11&#45;&gt;Node15 -->
<g id="edge54" class="edge">
<title>Node11&#45;&gt;Node15</title>
<path fill="none" stroke="midnightblue" d="M1148.89,-347.46C1110.67,-334.5 1045.11,-305.82 1017,-255 1007.05,-237.01 1013.08,-213.11 1019.45,-196.96"/>
<polygon fill="midnightblue" stroke="midnightblue" points="1022.74,-198.16 1023.52,-187.6 1016.32,-195.37 1022.74,-198.16"/>
</g>
<!-- Node16 -->
<g id="node16" class="node">
<title>Node16</title>
<g id="a_node16"><a xlink:title=" ">
<polygon fill="white" stroke="#bfbfbf" points="1324.5,-230 1324.5,-249 1371.5,-249 1371.5,-230 1324.5,-230"/>
<text text-anchor="middle" x="1348" y="-237" font-family="Helvetica,sans-Serif" font-size="10.00">vector</text>
</a>
</g>
</g>
<!-- Node11&#45;&gt;Node16 -->
<g id="edge53" class="edge">
<title>Node11&#45;&gt;Node16</title>
<path fill="none" stroke="midnightblue" d="M1190.78,-347.32C1219.82,-327.59 1291.04,-279.2 1326.8,-254.91"/>
<polygon fill="midnightblue" stroke="midnightblue" points="1328.77,-257.8 1335.07,-249.28 1324.84,-252.01 1328.77,-257.8"/>
</g>
<!-- Node19 -->
<g id="node19" class="node">
<title>Node19</title>
<g id="a_node19"><a xlink:href="sitkDetail_8h.html" target="_top" xlink:title=" ">
<polygon fill="white" stroke="black" points="505.5,-291.5 505.5,-310.5 578.5,-310.5 578.5,-291.5 505.5,-291.5"/>
<text text-anchor="middle" x="542" y="-298.5" font-family="Helvetica,sans-Serif" font-size="10.00">sitkDetail.h</text>
</a>
</g>
</g>
<!-- Node11&#45;&gt;Node19 -->
<g id="edge23" class="edge">
<title>Node11&#45;&gt;Node19</title>
<path fill="none" stroke="midnightblue" d="M1140.59,-352.82C1030.76,-343.5 709.39,-316.21 588.61,-305.96"/>
<polygon fill="midnightblue" stroke="midnightblue" points="588.83,-302.46 578.57,-305.1 588.24,-309.44 588.83,-302.46"/>
</g>
<!-- Node30 -->
<g id="node30" class="node">
<title>Node30</title>
<g id="a_node30"><a xlink:href="sitkPixelIDTokens_8h.html" target="_top" xlink:title=" ">
<polygon fill="white" stroke="black" points="741,-291.5 741,-310.5 851,-310.5 851,-291.5 741,-291.5"/>
<text text-anchor="middle" x="796" y="-298.5" font-family="Helvetica,sans-Serif" font-size="10.00">sitkPixelIDTokens.h</text>
</a>
</g>
</g>
<!-- Node11&#45;&gt;Node30 -->
<g id="edge42" class="edge">
<title>Node11&#45;&gt;Node30</title>
<path fill="none" stroke="midnightblue" d="M1140.68,-350.72C1075.86,-341.56 941.74,-322.6 861.25,-311.22"/>
<polygon fill="midnightblue" stroke="midnightblue" points="861.62,-307.74 851.23,-309.81 860.64,-314.67 861.62,-307.74"/>
</g>
<!-- Node32 -->
<g id="node32" class="node">
<title>Node32</title>
<g id="a_node32"><a xlink:title=" ">
<polygon fill="white" stroke="#bfbfbf" points="824.5,-230 824.5,-249 893.5,-249 893.5,-230 824.5,-230"/>
<text text-anchor="middle" x="859" y="-237" font-family="Helvetica,sans-Serif" font-size="10.00">type_traits</text>
</a>
</g>
</g>
<!-- Node11&#45;&gt;Node32 -->
<g id="edge55" class="edge">
<title>Node11&#45;&gt;Node32</title>
<path fill="none" stroke="midnightblue" d="M1143.82,-347.48C1111.95,-339.23 1063.26,-325.8 1022,-311 973.08,-293.45 917.92,-268.44 885.94,-253.41"/>
<polygon fill="midnightblue" stroke="midnightblue" points="887.33,-250.2 876.79,-249.09 884.33,-256.53 887.33,-250.2"/>
</g>
<!-- Node33 -->
<g id="node33" class="node">
<title>Node33</title>
<g id="a_node33"><a xlink:href="sitkInterpolator_8h.html" target="_top" xlink:title=" ">
<polygon fill="white" stroke="black" points="1206,-230 1206,-249 1306,-249 1306,-230 1206,-230"/>
<text text-anchor="middle" x="1256" y="-237" font-family="Helvetica,sans-Serif" font-size="10.00">sitkInterpolator.h</text>
</a>
</g>
</g>
<!-- Node11&#45;&gt;Node33 -->
<g id="edge50" class="edge">
<title>Node11&#45;&gt;Node33</title>
<path fill="none" stroke="midnightblue" d="M1183.86,-347.32C1196.68,-328.34 1227.4,-282.85 1244.32,-257.79"/>
<polygon fill="midnightblue" stroke="midnightblue" points="1247.37,-259.53 1250.07,-249.28 1241.57,-255.61 1247.37,-259.53"/>
</g>
<!-- Node12&#45;&gt;Node2 -->
<g id="edge12" class="edge">
<title>Node12&#45;&gt;Node2</title>
<path fill="none" stroke="midnightblue" d="M1163.54,-112.32C1149.5,-103.9 1127.95,-90.97 1111.46,-81.07"/>
<polygon fill="midnightblue" stroke="midnightblue" points="1112.8,-77.8 1102.42,-75.65 1109.2,-83.8 1112.8,-77.8"/>
</g>
<!-- Node13&#45;&gt;Node2 -->
<g id="edge14" class="edge">
<title>Node13&#45;&gt;Node2</title>
<path fill="none" stroke="midnightblue" d="M1438.74,-295.78C1497.87,-290.52 1577.24,-279.09 1597,-255 1605.74,-244.35 1603.57,-236.11 1597,-224 1551.86,-140.74 1253.13,-90.21 1135.49,-73.33"/>
<polygon fill="midnightblue" stroke="midnightblue" points="1135.74,-69.83 1125.34,-71.9 1134.75,-76.76 1135.74,-69.83"/>
</g>
<!-- Node13&#45;&gt;Node12 -->
<g id="edge15" class="edge">
<title>Node13&#45;&gt;Node12</title>
<path fill="none" stroke="midnightblue" d="M1438.75,-298.08C1512.92,-293.33 1616.66,-277.3 1579,-224 1539.14,-167.58 1332.61,-138.91 1232.51,-128.15"/>
<polygon fill="midnightblue" stroke="midnightblue" points="1232.61,-124.64 1222.3,-127.08 1231.88,-131.61 1232.61,-124.64"/>
</g>
<!-- Node14 -->
<g id="node14" class="node">
<title>Node14</title>
<g id="a_node14"><a xlink:href="sitkExceptionObject_8h.html" target="_top" xlink:title=" ">
<polygon fill="white" stroke="black" points="1026.5,-230 1026.5,-249 1149.5,-249 1149.5,-230 1026.5,-230"/>
<text text-anchor="middle" x="1088" y="-237" font-family="Helvetica,sans-Serif" font-size="10.00">sitkExceptionObject.h</text>
</a>
</g>
</g>
<!-- Node13&#45;&gt;Node14 -->
<g id="edge16" class="edge">
<title>Node13&#45;&gt;Node14</title>
<path fill="none" stroke="midnightblue" d="M1330.45,-291.48C1279.81,-280.83 1193.16,-262.61 1138.32,-251.08"/>
<polygon fill="midnightblue" stroke="midnightblue" points="1138.98,-247.64 1128.47,-249.01 1137.54,-254.49 1138.98,-247.64"/>
</g>
<!-- Node13&#45;&gt;Node16 -->
<g id="edge20" class="edge">
<title>Node13&#45;&gt;Node16</title>
<path fill="none" stroke="midnightblue" d="M1367.7,-291.48C1364.39,-282.9 1359.18,-269.43 1354.95,-258.48"/>
<polygon fill="midnightblue" stroke="midnightblue" points="1358.16,-257.07 1351.29,-249.01 1351.63,-259.6 1358.16,-257.07"/>
</g>
<!-- Node17 -->
<g id="node17" class="node">
<title>Node17</title>
<g id="a_node17"><a xlink:title=" ">
<polygon fill="white" stroke="#bfbfbf" points="1317.5,-168.5 1317.5,-187.5 1374.5,-187.5 1374.5,-168.5 1317.5,-168.5"/>
<text text-anchor="middle" x="1346" y="-175.5" font-family="Helvetica,sans-Serif" font-size="10.00">ostream</text>
</a>
</g>
</g>
<!-- Node13&#45;&gt;Node17 -->
<g id="edge21" class="edge">
<title>Node13&#45;&gt;Node17</title>
<path fill="none" stroke="midnightblue" d="M1374.41,-291.32C1379.55,-276.93 1387.86,-247.43 1380,-224 1376.4,-213.25 1369.1,-203.02 1362.18,-195.04"/>
<polygon fill="midnightblue" stroke="midnightblue" points="1364.65,-192.56 1355.29,-187.61 1359.52,-197.32 1364.65,-192.56"/>
</g>
<!-- Node18 -->
<g id="node18" class="node">
<title>Node18</title>
<g id="a_node18"><a xlink:title=" ">
<polygon fill="white" stroke="#bfbfbf" points="1428.5,-230 1428.5,-249 1481.5,-249 1481.5,-230 1428.5,-230"/>
<text text-anchor="middle" x="1455" y="-237" font-family="Helvetica,sans-Serif" font-size="10.00">iterator</text>
</a>
</g>
</g>
<!-- Node13&#45;&gt;Node18 -->
<g id="edge22" class="edge">
<title>Node13&#45;&gt;Node18</title>
<path fill="none" stroke="midnightblue" d="M1383.04,-291.48C1396.51,-281.93 1418.57,-266.31 1434.72,-254.87"/>
<polygon fill="midnightblue" stroke="midnightblue" points="1436.85,-257.65 1442.99,-249.01 1432.8,-251.93 1436.85,-257.65"/>
</g>
<!-- Node14&#45;&gt;Node2 -->
<g id="edge17" class="edge">
<title>Node14&#45;&gt;Node2</title>
<path fill="none" stroke="midnightblue" d="M1088,-229.76C1088,-203.15 1088,-122.71 1088,-85.84"/>
<polygon fill="midnightblue" stroke="midnightblue" points="1091.5,-85.52 1088,-75.52 1084.5,-85.52 1091.5,-85.52"/>
</g>
<!-- Node14&#45;&gt;Node12 -->
<g id="edge18" class="edge">
<title>Node14&#45;&gt;Node12</title>
<path fill="none" stroke="midnightblue" d="M1094.76,-229.82C1109.62,-210.76 1145.31,-164.95 1164.79,-139.96"/>
<polygon fill="midnightblue" stroke="midnightblue" points="1167.77,-141.82 1171.16,-131.78 1162.25,-137.52 1167.77,-141.82"/>
</g>
<!-- Node14&#45;&gt;Node15 -->
<g id="edge19" class="edge">
<title>Node14&#45;&gt;Node15</title>
<path fill="none" stroke="midnightblue" d="M1079.4,-229.98C1070.14,-220.78 1055.18,-205.96 1043.79,-194.66"/>
<polygon fill="midnightblue" stroke="midnightblue" points="1046.15,-192.07 1036.58,-187.51 1041.22,-197.04 1046.15,-192.07"/>
</g>
<!-- Node20 -->
<g id="node20" class="node">
<title>Node20</title>
<g id="a_node20"><a xlink:href="sitkMemberFunctionFactoryBase_8h.html" target="_top" xlink:title=" ">
<polygon fill="white" stroke="black" points="242,-224.5 242,-254.5 394,-254.5 394,-224.5 242,-224.5"/>
<text text-anchor="start" x="250" y="-242.5" font-family="Helvetica,sans-Serif" font-size="10.00">sitkMemberFunctionFactory</text>
<text text-anchor="middle" x="318" y="-231.5" font-family="Helvetica,sans-Serif" font-size="10.00">Base.h</text>
</a>
</g>
</g>
<!-- Node19&#45;&gt;Node20 -->
<g id="edge24" class="edge">
<title>Node19&#45;&gt;Node20</title>
<path fill="none" stroke="midnightblue" d="M509.91,-291.48C476.31,-282.55 422.69,-268.31 380.66,-257.14"/>
<polygon fill="midnightblue" stroke="midnightblue" points="381.36,-253.71 370.79,-254.52 379.56,-260.47 381.36,-253.71"/>
</g>
<!-- Node26 -->
<g id="node26" class="node">
<title>Node26</title>
<g id="a_node26"><a xlink:title=" ">
<polygon fill="white" stroke="#bfbfbf" points="397.5,-168.5 397.5,-187.5 536.5,-187.5 536.5,-168.5 397.5,-168.5"/>
<text text-anchor="middle" x="467" y="-175.5" font-family="Helvetica,sans-Serif" font-size="10.00">Ancillary/FunctionTraits.h</text>
</a>
</g>
</g>
<!-- Node19&#45;&gt;Node26 -->
<g id="edge41" class="edge">
<title>Node19&#45;&gt;Node26</title>
<path fill="none" stroke="midnightblue" d="M536.61,-291.3C524.28,-271.41 493.87,-222.35 477.63,-196.15"/>
<polygon fill="midnightblue" stroke="midnightblue" points="480.59,-194.28 472.34,-187.62 474.64,-197.97 480.59,-194.28"/>
</g>
<!-- Node20&#45;&gt;Node2 -->
<g id="edge33" class="edge">
<title>Node20&#45;&gt;Node2</title>
<path fill="none" stroke="midnightblue" d="M394.05,-235.76C469.68,-231.25 588.21,-219.37 686,-188 704.17,-182.17 706.26,-175.04 724,-168 834.4,-124.22 970.76,-91.84 1041.1,-76.64"/>
<polygon fill="midnightblue" stroke="midnightblue" points="1041.94,-80.03 1050.99,-74.52 1040.48,-73.19 1041.94,-80.03"/>
</g>
<!-- Node20&#45;&gt;Node8 -->
<g id="edge25" class="edge">
<title>Node20&#45;&gt;Node8</title>
<path fill="none" stroke="midnightblue" d="M241.76,-234.25C173.3,-228.65 80.09,-215.99 57,-188 51.34,-181.14 52.59,-175.72 57,-168 113.44,-69.22 478.05,-27.79 618.74,-15.34"/>
<polygon fill="midnightblue" stroke="midnightblue" points="619.21,-18.81 628.87,-14.46 618.61,-11.84 619.21,-18.81"/>
</g>
<!-- Node21 -->
<g id="node21" class="node">
<title>Node21</title>
<g id="a_node21"><a xlink:href="sitkPixelIDTypes_8h.html" target="_top" xlink:title=" ">
<polygon fill="white" stroke="black" points="420.5,-112.5 420.5,-131.5 525.5,-131.5 525.5,-112.5 420.5,-112.5"/>
<text text-anchor="middle" x="473" y="-119.5" font-family="Helvetica,sans-Serif" font-size="10.00">sitkPixelIDTypes.h</text>
</a>
</g>
</g>
<!-- Node20&#45;&gt;Node21 -->
<g id="edge26" class="edge">
<title>Node20&#45;&gt;Node21</title>
<path fill="none" stroke="midnightblue" d="M300.01,-224.5C283.18,-209.7 262.62,-186.05 277,-168 293.52,-147.26 359.42,-135.29 410.3,-128.99"/>
<polygon fill="midnightblue" stroke="midnightblue" points="410.74,-132.46 420.25,-127.8 409.91,-125.51 410.74,-132.46"/>
</g>
<!-- Node22 -->
<g id="node22" class="node">
<title>Node22</title>
<g id="a_node22"><a xlink:href="sitkPixelIDTypeLists_8h.html" target="_top" xlink:title=" ">
<polygon fill="white" stroke="black" points="555,-168.5 555,-187.5 677,-187.5 677,-168.5 555,-168.5"/>
<text text-anchor="middle" x="616" y="-175.5" font-family="Helvetica,sans-Serif" font-size="10.00">sitkPixelIDTypeLists.h</text>
</a>
</g>
</g>
<!-- Node20&#45;&gt;Node22 -->
<g id="edge27" class="edge">
<title>Node20&#45;&gt;Node22</title>
<path fill="none" stroke="midnightblue" d="M388.24,-224.47C441.9,-213.76 514.68,-199.23 563.38,-189.51"/>
<polygon fill="midnightblue" stroke="midnightblue" points="564.28,-192.9 573.4,-187.51 562.9,-186.03 564.28,-192.9"/>
</g>
<!-- Node23 -->
<g id="node23" class="node">
<title>Node23</title>
<g id="a_node23"><a xlink:title=" ">
<polygon fill="white" stroke="#bfbfbf" points="161.5,-112.5 161.5,-131.5 280.5,-131.5 280.5,-112.5 161.5,-112.5"/>
<text text-anchor="middle" x="221" y="-119.5" font-family="Helvetica,sans-Serif" font-size="10.00">Ancillary/type_list2.h</text>
</a>
</g>
</g>
<!-- Node20&#45;&gt;Node23 -->
<g id="edge36" class="edge">
<title>Node20&#45;&gt;Node23</title>
<path fill="none" stroke="midnightblue" d="M241.74,-228.3C217.68,-221.09 193.59,-208.82 179,-188 167.18,-171.13 184.57,-151.16 200.43,-137.85"/>
<polygon fill="midnightblue" stroke="midnightblue" points="202.74,-140.49 208.42,-131.55 198.4,-134.99 202.74,-140.49"/>
</g>
<!-- Node25 -->
<g id="node25" class="node">
<title>Node25</title>
<g id="a_node25"><a xlink:href="sitkNonCopyable_8h.html" target="_top" xlink:title=" ">
<polygon fill="white" stroke="black" points="871.5,-168.5 871.5,-187.5 980.5,-187.5 980.5,-168.5 871.5,-168.5"/>
<text text-anchor="middle" x="926" y="-175.5" font-family="Helvetica,sans-Serif" font-size="10.00">sitkNonCopyable.h</text>
</a>
</g>
</g>
<!-- Node20&#45;&gt;Node25 -->
<g id="edge34" class="edge">
<title>Node20&#45;&gt;Node25</title>
<path fill="none" stroke="midnightblue" d="M394.08,-231.05C514.74,-219.25 747.89,-196.43 861.13,-185.35"/>
<polygon fill="midnightblue" stroke="midnightblue" points="861.76,-188.8 871.37,-184.35 861.08,-181.84 861.76,-188.8"/>
</g>
<!-- Node20&#45;&gt;Node26 -->
<g id="edge37" class="edge">
<title>Node20&#45;&gt;Node26</title>
<path fill="none" stroke="midnightblue" d="M353.31,-224.4C378.42,-214.37 411.84,-201.03 435.94,-191.4"/>
<polygon fill="midnightblue" stroke="midnightblue" points="437.33,-194.62 445.32,-187.66 434.73,-188.12 437.33,-194.62"/>
</g>
<!-- Node27 -->
<g id="node27" class="node">
<title>Node27</title>
<g id="a_node27"><a xlink:title=" ">
<polygon fill="white" stroke="#bfbfbf" points="286.5,-168.5 286.5,-187.5 379.5,-187.5 379.5,-168.5 286.5,-168.5"/>
<text text-anchor="middle" x="333" y="-175.5" font-family="Helvetica,sans-Serif" font-size="10.00">unordered_map</text>
</a>
</g>
</g>
<!-- Node20&#45;&gt;Node27 -->
<g id="edge38" class="edge">
<title>Node20&#45;&gt;Node27</title>
<path fill="none" stroke="midnightblue" d="M321.55,-224.4C323.58,-216.38 326.13,-206.23 328.32,-197.57"/>
<polygon fill="midnightblue" stroke="midnightblue" points="331.77,-198.21 330.82,-187.66 324.98,-196.5 331.77,-198.21"/>
</g>
<!-- Node28 -->
<g id="node28" class="node">
<title>Node28</title>
<g id="a_node28"><a xlink:title=" ">
<polygon fill="white" stroke="#bfbfbf" points="66.5,-168.5 66.5,-187.5 131.5,-187.5 131.5,-168.5 66.5,-168.5"/>
<text text-anchor="middle" x="99" y="-175.5" font-family="Helvetica,sans-Serif" font-size="10.00">functional</text>
</a>
</g>
</g>
<!-- Node20&#45;&gt;Node28 -->
<g id="edge39" class="edge">
<title>Node20&#45;&gt;Node28</title>
<path fill="none" stroke="midnightblue" d="M266.38,-224.47C227.94,-214.03 176.14,-199.96 140.4,-190.25"/>
<polygon fill="midnightblue" stroke="midnightblue" points="140.88,-186.75 130.31,-187.51 139.04,-193.51 140.88,-186.75"/>
</g>
<!-- Node29 -->
<g id="node29" class="node">
<title>Node29</title>
<g id="a_node29"><a xlink:title=" ">
<polygon fill="white" stroke="#bfbfbf" points="188.5,-168.5 188.5,-187.5 229.5,-187.5 229.5,-168.5 188.5,-168.5"/>
<text text-anchor="middle" x="209" y="-175.5" font-family="Helvetica,sans-Serif" font-size="10.00">tuple</text>
</a>
</g>
</g>
<!-- Node20&#45;&gt;Node29 -->
<g id="edge40" class="edge">
<title>Node20&#45;&gt;Node29</title>
<path fill="none" stroke="midnightblue" d="M292.17,-224.4C274.53,-214.77 251.3,-202.09 233.87,-192.58"/>
<polygon fill="midnightblue" stroke="midnightblue" points="235.31,-189.38 224.86,-187.66 231.96,-195.52 235.31,-189.38"/>
</g>
<!-- Node22&#45;&gt;Node3 -->
<g id="edge28" class="edge">
<title>Node22&#45;&gt;Node3</title>
<path fill="none" stroke="midnightblue" d="M638.58,-168.35C658.59,-160.24 688.24,-147.12 712,-132 762.91,-99.59 815.58,-51.23 841.15,-26.61"/>
<polygon fill="midnightblue" stroke="midnightblue" points="843.73,-28.98 848.47,-19.5 838.86,-23.96 843.73,-28.98"/>
</g>
<!-- Node22&#45;&gt;Node8 -->
<g id="edge29" class="edge">
<title>Node22&#45;&gt;Node8</title>
<path fill="none" stroke="midnightblue" d="M618.35,-168.09C621.72,-155.5 628.29,-131.82 635,-112 644.96,-82.57 658.32,-49.04 666.53,-28.97"/>
<polygon fill="midnightblue" stroke="midnightblue" points="669.84,-30.14 670.41,-19.56 663.37,-27.47 669.84,-30.14"/>
</g>
<!-- Node22&#45;&gt;Node21 -->
<g id="edge30" class="edge">
<title>Node22&#45;&gt;Node21</title>
<path fill="none" stroke="midnightblue" d="M593.34,-168.44C569.6,-159.48 532.09,-145.31 505.26,-135.18"/>
<polygon fill="midnightblue" stroke="midnightblue" points="506.14,-131.77 495.55,-131.52 503.67,-138.32 506.14,-131.77"/>
</g>
<!-- Node22&#45;&gt;Node23 -->
<g id="edge31" class="edge">
<title>Node22&#45;&gt;Node23</title>
<path fill="none" stroke="midnightblue" d="M554.71,-168.62C483.42,-158.87 365.94,-142.81 291.08,-132.58"/>
<polygon fill="midnightblue" stroke="midnightblue" points="291.19,-129.06 280.81,-131.18 290.24,-136 291.19,-129.06"/>
</g>
<!-- Node24 -->
<g id="node24" class="node">
<title>Node24</title>
<g id="a_node24"><a xlink:title=" ">
<polygon fill="white" stroke="#bfbfbf" points="644.5,-112.5 644.5,-131.5 703.5,-131.5 703.5,-112.5 644.5,-112.5"/>
<text text-anchor="middle" x="674" y="-119.5" font-family="Helvetica,sans-Serif" font-size="10.00">complex</text>
</a>
</g>
</g>
<!-- Node22&#45;&gt;Node24 -->
<g id="edge32" class="edge">
<title>Node22&#45;&gt;Node24</title>
<path fill="none" stroke="midnightblue" d="M625.32,-168.32C633.89,-160.34 646.81,-148.31 657.19,-138.65"/>
<polygon fill="midnightblue" stroke="midnightblue" points="659.58,-141.21 664.51,-131.83 654.81,-136.09 659.58,-141.21"/>
</g>
<!-- Node25&#45;&gt;Node12 -->
<g id="edge35" class="edge">
<title>Node25&#45;&gt;Node12</title>
<path fill="none" stroke="midnightblue" d="M965.93,-168.44C1009.89,-159.02 1080.63,-143.87 1128.18,-133.68"/>
<polygon fill="midnightblue" stroke="midnightblue" points="1129.21,-137.03 1138.26,-131.52 1127.75,-130.19 1129.21,-137.03"/>
</g>
<!-- Node30&#45;&gt;Node8 -->
<g id="edge43" class="edge">
<title>Node30&#45;&gt;Node8</title>
<path fill="none" stroke="midnightblue" d="M796.91,-291.33C798.84,-269.73 801.97,-212.08 786,-168 764.81,-109.52 715.39,-53.23 689.87,-26.76"/>
<polygon fill="midnightblue" stroke="midnightblue" points="692.28,-24.21 682.78,-19.53 687.29,-29.12 692.28,-24.21"/>
</g>
<!-- Node31 -->
<g id="node31" class="node">
<title>Node31</title>
<g id="a_node31"><a xlink:href="sitkPixelIDValues_8h.html" target="_top" xlink:title=" ">
<polygon fill="white" stroke="black" points="658,-230 658,-249 768,-249 768,-230 658,-230"/>
<text text-anchor="middle" x="713" y="-237" font-family="Helvetica,sans-Serif" font-size="10.00">sitkPixelIDValues.h</text>
</a>
</g>
</g>
<!-- Node30&#45;&gt;Node31 -->
<g id="edge44" class="edge">
<title>Node30&#45;&gt;Node31</title>
<path fill="none" stroke="midnightblue" d="M784.11,-291.48C770.8,-281.93 749,-266.31 733.04,-254.87"/>
<polygon fill="midnightblue" stroke="midnightblue" points="735.04,-251.99 724.87,-249.01 730.96,-257.68 735.04,-251.99"/>
</g>
<!-- Node30&#45;&gt;Node32 -->
<g id="edge49" class="edge">
<title>Node30&#45;&gt;Node32</title>
<path fill="none" stroke="midnightblue" d="M805.03,-291.48C814.76,-282.28 830.46,-267.46 842.42,-256.16"/>
<polygon fill="midnightblue" stroke="midnightblue" points="845.12,-258.42 849.99,-249.01 840.32,-253.33 845.12,-258.42"/>
</g>
<!-- Node31&#45;&gt;Node10 -->
<g id="edge47" class="edge">
<title>Node31&#45;&gt;Node10</title>
<path fill="none" stroke="midnightblue" d="M719.02,-229.98C725.26,-221.14 735.17,-207.09 743.02,-195.98"/>
<polygon fill="midnightblue" stroke="midnightblue" points="746.09,-197.7 748.99,-187.51 740.37,-193.66 746.09,-197.7"/>
</g>
<!-- Node31&#45;&gt;Node12 -->
<g id="edge45" class="edge">
<title>Node31&#45;&gt;Node12</title>
<path fill="none" stroke="midnightblue" d="M727.22,-229.98C753.07,-214.9 809.92,-183.64 862,-168 951.36,-141.17 1059.88,-130.16 1123.69,-125.78"/>
<polygon fill="midnightblue" stroke="midnightblue" points="1124.17,-129.25 1133.92,-125.1 1123.71,-122.27 1124.17,-129.25"/>
</g>
<!-- Node31&#45;&gt;Node17 -->
<g id="edge48" class="edge">
<title>Node31&#45;&gt;Node17</title>
<path fill="none" stroke="midnightblue" d="M768.25,-230.06C783.38,-227.91 799.8,-225.72 815,-224 998.96,-203.15 1219.79,-187.4 1307.43,-181.52"/>
<polygon fill="midnightblue" stroke="midnightblue" points="1307.71,-185.01 1317.45,-180.85 1307.24,-178.02 1307.71,-185.01"/>
</g>
<!-- Node31&#45;&gt;Node22 -->
<g id="edge46" class="edge">
<title>Node31&#45;&gt;Node22</title>
<path fill="none" stroke="midnightblue" d="M699.1,-229.98C683.33,-220.3 657.36,-204.37 638.65,-192.89"/>
<polygon fill="midnightblue" stroke="midnightblue" points="640.23,-189.75 629.87,-187.51 636.57,-195.72 640.23,-189.75"/>
</g>
<!-- Node33&#45;&gt;Node12 -->
<g id="edge51" class="edge">
<title>Node33&#45;&gt;Node12</title>
<path fill="none" stroke="midnightblue" d="M1250.14,-229.82C1237.32,-210.84 1206.6,-165.35 1189.68,-140.29"/>
<polygon fill="midnightblue" stroke="midnightblue" points="1192.43,-138.11 1183.93,-131.78 1186.63,-142.03 1192.43,-138.11"/>
</g>
<!-- Node33&#45;&gt;Node17 -->
<g id="edge52" class="edge">
<title>Node33&#45;&gt;Node17</title>
<path fill="none" stroke="midnightblue" d="M1268.89,-229.98C1283.46,-220.34 1307.4,-204.52 1324.75,-193.05"/>
<polygon fill="midnightblue" stroke="midnightblue" points="1326.72,-195.94 1333.13,-187.51 1322.86,-190.1 1326.72,-195.94"/>
</g>
<!-- Node34&#45;&gt;Node5 -->
<g id="edge61" class="edge">
<title>Node34&#45;&gt;Node5</title>
<path fill="none" stroke="midnightblue" d="M495.35,-356.39C337.48,-355 0,-340.35 0,-240.5 0,-240.5 0,-240.5 0,-121 0,-61.16 201.65,-27.14 285.79,-15.55"/>
<polygon fill="midnightblue" stroke="midnightblue" points="286.48,-18.99 295.92,-14.19 285.54,-12.06 286.48,-18.99"/>
</g>
<!-- Node34&#45;&gt;Node14 -->
<g id="edge64" class="edge">
<title>Node34&#45;&gt;Node14</title>
<path fill="none" stroke="midnightblue" d="M647.29,-347.5C705.23,-339.98 788.4,-327.63 860,-311 930.39,-294.65 1010.7,-267.85 1054.74,-252.44"/>
<polygon fill="midnightblue" stroke="midnightblue" points="1056.08,-255.67 1064.35,-249.05 1053.75,-249.07 1056.08,-255.67"/>
</g>
<!-- Node34&#45;&gt;Node19 -->
<g id="edge57" class="edge">
<title>Node34&#45;&gt;Node19</title>
<path fill="none" stroke="midnightblue" d="M569.55,-347.08C564.99,-339.61 558.33,-328.72 552.71,-319.52"/>
<polygon fill="midnightblue" stroke="midnightblue" points="555.55,-317.46 547.35,-310.75 549.58,-321.11 555.55,-317.46"/>
</g>
<!-- Node34&#45;&gt;Node20 -->
<g id="edge58" class="edge">
<title>Node34&#45;&gt;Node20</title>
<path fill="none" stroke="midnightblue" d="M495.48,-353.64C425.39,-349.69 330.81,-339.14 307,-311 296.1,-298.12 299.91,-279 305.86,-263.91"/>
<polygon fill="midnightblue" stroke="midnightblue" points="309.1,-265.25 309.95,-254.69 302.7,-262.42 309.1,-265.25"/>
</g>
<!-- Node34&#45;&gt;Node30 -->
<g id="edge63" class="edge">
<title>Node34&#45;&gt;Node30</title>
<path fill="none" stroke="midnightblue" d="M610.02,-347.44C648.25,-338.1 709.57,-323.12 751.26,-312.93"/>
<polygon fill="midnightblue" stroke="midnightblue" points="752.26,-316.29 761.15,-310.52 750.6,-309.49 752.26,-316.29"/>
</g>
<!-- Node34&#45;&gt;Node31 -->
<g id="edge59" class="edge">
<title>Node34&#45;&gt;Node31</title>
<path fill="none" stroke="midnightblue" d="M585.37,-347.32C608.65,-327.84 665.3,-280.42 694.67,-255.84"/>
<polygon fill="midnightblue" stroke="midnightblue" points="697.09,-258.38 702.51,-249.28 692.59,-253.02 697.09,-258.38"/>
</g>
<!-- Node34&#45;&gt;Node34 -->
<g id="edge62" class="edge">
<title>Node34&#45;&gt;Node34</title>
<path fill="none" stroke="midnightblue" d="M616.33,-366.5C644.67,-369.33 672.5,-366.16 672.5,-357 672.5,-348.95 651,-345.53 626.56,-346.74"/>
<polygon fill="midnightblue" stroke="midnightblue" points="626.04,-343.27 616.33,-347.5 626.56,-350.25 626.04,-343.27"/>
</g>
<!-- Node35 -->
<g id="node35" class="node">
<title>Node35</title>
<g id="a_node35"><a xlink:title=" ">
<polygon fill="white" stroke="#bfbfbf" points="316.5,-291.5 316.5,-310.5 487.5,-310.5 487.5,-291.5 316.5,-291.5"/>
<text text-anchor="middle" x="402" y="-298.5" font-family="Helvetica,sans-Serif" font-size="10.00">sitkMemberFunctionFactory.hxx</text>
</a>
</g>
</g>
<!-- Node34&#45;&gt;Node35 -->
<g id="edge60" class="edge">
<title>Node34&#45;&gt;Node35</title>
<path fill="none" stroke="midnightblue" d="M547.59,-347.44C518.23,-338.28 471.48,-323.69 438.9,-313.52"/>
<polygon fill="midnightblue" stroke="midnightblue" points="439.87,-310.16 429.28,-310.52 437.79,-316.84 439.87,-310.16"/>
</g>
<!-- Node36&#45;&gt;Node2 -->
<g id="edge66" class="edge">
<title>Node36&#45;&gt;Node2</title>
<path fill="none" stroke="midnightblue" d="M1601.13,-460.12C1641.58,-446.5 1713,-414.47 1713,-358 1713,-358 1713,-358 1713,-177 1713,-118.36 1280.77,-81.18 1135.2,-70.32"/>
<polygon fill="midnightblue" stroke="midnightblue" points="1135.46,-66.83 1125.22,-69.58 1134.94,-73.81 1135.46,-66.83"/>
</g>
<!-- Node37&#45;&gt;Node11 -->
<g id="edge74" class="edge">
<title>Node37&#45;&gt;Node11</title>
<path fill="none" stroke="midnightblue" d="M1372.36,-459.06C1363.1,-445.09 1343.36,-418.12 1320,-403 1291.16,-384.33 1254.02,-372.92 1224.95,-366.26"/>
<polygon fill="midnightblue" stroke="midnightblue" points="1225.55,-362.81 1215.04,-364.1 1224.06,-369.65 1225.55,-362.81"/>
</g>
<!-- Node37&#45;&gt;Node12 -->
<g id="edge68" class="edge">
<title>Node37&#45;&gt;Node12</title>
<path fill="none" stroke="midnightblue" d="M1434.71,-463.64C1495.75,-457.85 1587.66,-445.62 1614,-423 1637.25,-403.04 1637,-388.64 1637,-358 1637,-358 1637,-358 1637,-238.5 1637,-155.86 1353.65,-131.78 1232.21,-125.25"/>
<polygon fill="midnightblue" stroke="midnightblue" points="1232.18,-121.75 1222.01,-124.73 1231.82,-128.74 1232.18,-121.75"/>
</g>
<!-- Node37&#45;&gt;Node13 -->
<g id="edge70" class="edge">
<title>Node37&#45;&gt;Node13</title>
<path fill="none" stroke="midnightblue" d="M1377.62,-459.08C1376.52,-432.95 1373.29,-356.21 1371.78,-320.58"/>
<polygon fill="midnightblue" stroke="midnightblue" points="1375.28,-320.41 1371.36,-310.57 1368.29,-320.71 1375.28,-320.41"/>
</g>
<!-- Node37&#45;&gt;Node25 -->
<g id="edge69" class="edge">
<title>Node37&#45;&gt;Node25</title>
<path fill="none" stroke="midnightblue" d="M1321.45,-466.01C1226.37,-459.3 1036.03,-430.76 946,-311 920.89,-277.61 921.23,-225.8 923.62,-198.06"/>
<polygon fill="midnightblue" stroke="midnightblue" points="927.14,-198.08 924.71,-187.77 920.18,-197.35 927.14,-198.08"/>
</g>
<!-- Node38 -->
<g id="node38" class="node">
<title>Node38</title>
<g id="a_node38"><a xlink:href="sitkEvent_8h.html" target="_top" xlink:title=" ">
<polygon fill="white" stroke="black" points="1499.5,-230 1499.5,-249 1570.5,-249 1570.5,-230 1499.5,-230"/>
<text text-anchor="middle" x="1535" y="-237" font-family="Helvetica,sans-Serif" font-size="10.00">sitkEvent.h</text>
</a>
</g>
</g>
<!-- Node37&#45;&gt;Node38 -->
<g id="edge71" class="edge">
<title>Node37&#45;&gt;Node38</title>
<path fill="none" stroke="midnightblue" d="M1383.96,-459.36C1407.18,-425.72 1491.8,-303.1 1523.18,-257.62"/>
<polygon fill="midnightblue" stroke="midnightblue" points="1526.23,-259.37 1529.03,-249.15 1520.47,-255.39 1526.23,-259.37"/>
</g>
<!-- Node39 -->
<g id="node39" class="node">
<title>Node39</title>
<g id="a_node39"><a xlink:href="sitkImageConvert_8h.html" target="_top" xlink:title=" ">
<polygon fill="white" stroke="black" points="1198.5,-403.5 1198.5,-422.5 1311.5,-422.5 1311.5,-403.5 1198.5,-403.5"/>
<text text-anchor="middle" x="1255" y="-410.5" font-family="Helvetica,sans-Serif" font-size="10.00">sitkImageConvert.h</text>
</a>
</g>
</g>
<!-- Node37&#45;&gt;Node39 -->
<g id="edge75" class="edge">
<title>Node37&#45;&gt;Node39</title>
<path fill="none" stroke="midnightblue" d="M1358.51,-459.44C1338.36,-450.6 1306.68,-436.69 1283.67,-426.59"/>
<polygon fill="midnightblue" stroke="midnightblue" points="1284.96,-423.33 1274.4,-422.52 1282.15,-429.74 1284.96,-423.33"/>
</g>
<!-- Node40 -->
<g id="node40" class="node">
<title>Node40</title>
<g id="a_node40"><a xlink:title=" ">
<polygon fill="white" stroke="#bfbfbf" points="1495,-403.5 1495,-422.5 1555,-422.5 1555,-403.5 1495,-403.5"/>
<text text-anchor="middle" x="1525" y="-410.5" font-family="Helvetica,sans-Serif" font-size="10.00">iostream</text>
</a>
</g>
</g>
<!-- Node37&#45;&gt;Node40 -->
<g id="edge77" class="edge">
<title>Node37&#45;&gt;Node40</title>
<path fill="none" stroke="midnightblue" d="M1401.29,-459.44C1425.81,-450.44 1464.6,-436.19 1492.2,-426.05"/>
<polygon fill="midnightblue" stroke="midnightblue" points="1493.64,-429.25 1501.82,-422.52 1491.22,-422.68 1493.64,-429.25"/>
</g>
<!-- Node41 -->
<g id="node41" class="node">
<title>Node41</title>
<g id="a_node41"><a xlink:title=" ">
<polygon fill="white" stroke="#bfbfbf" points="1573,-403.5 1573,-422.5 1605,-422.5 1605,-403.5 1573,-403.5"/>
<text text-anchor="middle" x="1589" y="-410.5" font-family="Helvetica,sans-Serif" font-size="10.00">list</text>
</a>
</g>
</g>
<!-- Node37&#45;&gt;Node41 -->
<g id="edge78" class="edge">
<title>Node37&#45;&gt;Node41</title>
<path fill="none" stroke="midnightblue" d="M1418.98,-459.42C1454.75,-451.64 1508.19,-439.3 1563.05,-423.04"/>
<polygon fill="midnightblue" stroke="midnightblue" points="1564.38,-426.3 1572.95,-420.07 1562.36,-419.59 1564.38,-426.3"/>
</g>
<!-- Node38&#45;&gt;Node12 -->
<g id="edge72" class="edge">
<title>Node38&#45;&gt;Node12</title>
<path fill="none" stroke="midnightblue" d="M1519.49,-229.92C1492.5,-215.3 1434.82,-185.47 1383,-168 1333.08,-151.17 1274.16,-139 1232.33,-131.59"/>
<polygon fill="midnightblue" stroke="midnightblue" points="1232.79,-128.12 1222.34,-129.85 1231.6,-135.01 1232.79,-128.12"/>
</g>
<!-- Node38&#45;&gt;Node17 -->
<g id="edge73" class="edge">
<title>Node38&#45;&gt;Node17</title>
<path fill="none" stroke="midnightblue" d="M1508.36,-229.87C1502.33,-227.93 1495.95,-225.89 1490,-224 1453.82,-212.52 1412.46,-199.62 1383.38,-190.58"/>
<polygon fill="midnightblue" stroke="midnightblue" points="1384.22,-187.18 1373.63,-187.55 1382.14,-193.86 1384.22,-187.18"/>
</g>
<!-- Node39&#45;&gt;Node11 -->
<g id="edge76" class="edge">
<title>Node39&#45;&gt;Node11</title>
<path fill="none" stroke="midnightblue" d="M1242.63,-403.32C1230.84,-395.06 1212.87,-382.45 1198.86,-372.63"/>
<polygon fill="midnightblue" stroke="midnightblue" points="1200.54,-369.53 1190.34,-366.65 1196.52,-375.26 1200.54,-369.53"/>
</g>
</g>
</svg>
