<?xml version="1.0" encoding="UTF-8" standalone="no"?>
<!DOCTYPE svg PUBLIC "-//W3C//DTD SVG 1.1//EN"
 "http://www.w3.org/Graphics/SVG/1.1/DTD/svg11.dtd">
<!-- Generated by graphviz version 2.43.0 (0)
 -->
<!-- Title: itk::simple::AffineTransform::MyVisitor Pages: 1 -->
<svg width="389pt" height="386pt"
 viewBox="0.00 0.00 388.50 386.00" xmlns="http://www.w3.org/2000/svg" xmlns:xlink="http://www.w3.org/1999/xlink">
<g id="graph0" class="graph" transform="scale(1 1) rotate(0) translate(4 382)">
<title>itk::simple::AffineTransform::MyVisitor</title>
<polygon fill="white" stroke="transparent" points="-4,4 -4,-382 384.5,-382 384.5,4 -4,4"/>
<!-- Node1 -->
<g id="node1" class="node">
<title>Node1</title>
<g id="a_node1"><a xlink:title=" ">
<polygon fill="#bfbfbf" stroke="black" points="37.5,-0.5 37.5,-30.5 189.5,-30.5 189.5,-0.5 37.5,-0.5"/>
<text text-anchor="start" x="45.5" y="-18.5" font-family="Helvetica,sans-Serif" font-size="10.00">itk::simple::AffineTransform</text>
<text text-anchor="middle" x="113.5" y="-7.5" font-family="Helvetica,sans-Serif" font-size="10.00">::MyVisitor</text>
</a>
</g>
</g>
<!-- Node2 -->
<g id="node2" class="node">
<title>Node2</title>
<g id="a_node2"><a xlink:href="classitk_1_1TransformBaseTemplate.html" target="_top" xlink:title=" ">
<polygon fill="white" stroke="black" points="0,-78.5 0,-108.5 153,-108.5 153,-78.5 0,-78.5"/>
<text text-anchor="start" x="8" y="-96.5" font-family="Helvetica,sans-Serif" font-size="10.00">itk::TransformBaseTemplate</text>
<text text-anchor="middle" x="76.5" y="-85.5" font-family="Helvetica,sans-Serif" font-size="10.00">&lt; TScalar &gt;</text>
</a>
</g>
</g>
<!-- Node2&#45;&gt;Node1 -->
<g id="edge1" class="edge">
<title>Node2&#45;&gt;Node1</title>
<path fill="none" stroke="#9a32cd" stroke-dasharray="5,2" d="M87.84,-69.2C93.96,-56.64 101.31,-41.54 106.57,-30.73"/>
<polygon fill="#9a32cd" stroke="#9a32cd" points="84.69,-67.68 83.46,-78.2 90.98,-70.75 84.69,-67.68"/>
<text text-anchor="middle" x="123.5" y="-52" font-family="Helvetica,sans-Serif" font-size="10.00"> transform</text>
</g>
<!-- Node3 -->
<g id="node3" class="node">
<title>Node3</title>
<g id="a_node3"><a xlink:href="classitk_1_1simple_1_1AffineTransform.html" target="_top" xlink:title="An affine transformation about a fixed center with translation for a 2D or 3D coordinate.">
<polygon fill="white" stroke="black" points="171.5,-84 171.5,-103 323.5,-103 323.5,-84 171.5,-84"/>
<text text-anchor="middle" x="247.5" y="-91" font-family="Helvetica,sans-Serif" font-size="10.00">itk::simple::AffineTransform</text>
</a>
</g>
</g>
<!-- Node3&#45;&gt;Node1 -->
<g id="edge2" class="edge">
<title>Node3&#45;&gt;Node1</title>
<path fill="none" stroke="#9a32cd" stroke-dasharray="5,2" d="M223.56,-78.92C199.52,-65.29 162.67,-44.39 138.33,-30.58"/>
<polygon fill="#9a32cd" stroke="#9a32cd" points="221.96,-82.04 232.39,-83.93 225.42,-75.95 221.96,-82.04"/>
<text text-anchor="middle" x="200" y="-52" font-family="Helvetica,sans-Serif" font-size="10.00"> that</text>
</g>
<!-- Node4 -->
<g id="node4" class="node">
<title>Node4</title>
<g id="a_node4"><a xlink:href="classitk_1_1simple_1_1Transform.html" target="_top" xlink:title="A simplified wrapper around a variety of ITK transforms.">
<polygon fill="white" stroke="black" points="186,-146.5 186,-165.5 309,-165.5 309,-146.5 186,-146.5"/>
<text text-anchor="middle" x="247.5" y="-153.5" font-family="Helvetica,sans-Serif" font-size="10.00">itk::simple::Transform</text>
</a>
</g>
</g>
<!-- Node4&#45;&gt;Node3 -->
<g id="edge3" class="edge">
<title>Node4&#45;&gt;Node3</title>
<path fill="none" stroke="midnightblue" d="M247.5,-136C247.5,-125 247.5,-111.68 247.5,-103.15"/>
<polygon fill="midnightblue" stroke="midnightblue" points="244,-136.33 247.5,-146.33 251,-136.33 244,-136.33"/>
</g>
<!-- Node5 -->
<g id="node5" class="node">
<title>Node5</title>
<g id="a_node5"><a xlink:title=" ">
<polygon fill="white" stroke="#bfbfbf" points="156,-213.5 156,-243.5 339,-243.5 339,-213.5 156,-213.5"/>
<text text-anchor="start" x="164" y="-231.5" font-family="Helvetica,sans-Serif" font-size="10.00">std::unique_ptr&lt; PimpleTransform</text>
<text text-anchor="middle" x="247.5" y="-220.5" font-family="Helvetica,sans-Serif" font-size="10.00">Base &gt;</text>
</a>
</g>
</g>
<!-- Node5&#45;&gt;Node4 -->
<g id="edge4" class="edge">
<title>Node5&#45;&gt;Node4</title>
<path fill="none" stroke="#9a32cd" stroke-dasharray="5,2" d="M247.5,-203.09C247.5,-190.21 247.5,-175.2 247.5,-165.89"/>
<polygon fill="#9a32cd" stroke="#9a32cd" points="244,-203.23 247.5,-213.23 251,-203.23 244,-203.23"/>
<text text-anchor="middle" x="298" y="-187" font-family="Helvetica,sans-Serif" font-size="10.00"> m_PimpleTransform</text>
</g>
<!-- Node6 -->
<g id="node6" class="node">
<title>Node6</title>
<g id="a_node6"><a xlink:title="STL class.">
<polygon fill="white" stroke="#bfbfbf" points="188.5,-291.5 188.5,-310.5 306.5,-310.5 306.5,-291.5 188.5,-291.5"/>
<text text-anchor="middle" x="247.5" y="-298.5" font-family="Helvetica,sans-Serif" font-size="10.00">std::unique_ptr&lt; T &gt;</text>
</a>
</g>
</g>
<!-- Node6&#45;&gt;Node5 -->
<g id="edge5" class="edge">
<title>Node6&#45;&gt;Node5</title>
<path fill="none" stroke="orange" stroke-dasharray="5,2" d="M247.5,-281.24C247.5,-269.41 247.5,-254.38 247.5,-243.58"/>
<polygon fill="orange" stroke="orange" points="244,-281.36 247.5,-291.36 251,-281.36 244,-281.36"/>
<text text-anchor="middle" x="314" y="-265" font-family="Helvetica,sans-Serif" font-size="10.00"> &lt; PimpleTransformBase &gt;</text>
</g>
<!-- Node7 -->
<g id="node7" class="node">
<title>Node7</title>
<g id="a_node7"><a xlink:title=" ">
<polygon fill="white" stroke="#bfbfbf" points="233,-358.5 233,-377.5 262,-377.5 262,-358.5 233,-358.5"/>
<text text-anchor="middle" x="247.5" y="-365.5" font-family="Helvetica,sans-Serif" font-size="10.00">T</text>
</a>
</g>
</g>
<!-- Node7&#45;&gt;Node6 -->
<g id="edge6" class="edge">
<title>Node7&#45;&gt;Node6</title>
<path fill="none" stroke="#9a32cd" stroke-dasharray="5,2" d="M247.5,-348.04C247.5,-335.67 247.5,-320.12 247.5,-310.63"/>
<polygon fill="#9a32cd" stroke="#9a32cd" points="244,-348.23 247.5,-358.23 251,-348.23 244,-348.23"/>
<text text-anchor="middle" x="256" y="-332" font-family="Helvetica,sans-Serif" font-size="10.00"> ptr</text>
</g>
</g>
</svg>
