<?xml version="1.0" encoding="UTF-8" standalone="no"?>
<!DOCTYPE svg PUBLIC "-//W3C//DTD SVG 1.1//EN"
 "http://www.w3.org/Graphics/SVG/1.1/DTD/svg11.dtd">
<!-- Generated by graphviz version 2.43.0 (0)
 -->
<!-- Title: itk::simple::CompositeTransform::MyVisitor Pages: 1 -->
<svg width="359pt" height="386pt"
 viewBox="0.00 0.00 359.00 386.00" xmlns="http://www.w3.org/2000/svg" xmlns:xlink="http://www.w3.org/1999/xlink">
<g id="graph0" class="graph" transform="scale(1 1) rotate(0) translate(4 382)">
<title>itk::simple::CompositeTransform::MyVisitor</title>
<polygon fill="white" stroke="transparent" points="-4,4 -4,-382 355,-382 355,4 -4,4"/>
<!-- Node1 -->
<g id="node1" class="node">
<title>Node1</title>
<g id="a_node1"><a xlink:title=" ">
<polygon fill="#bfbfbf" stroke="black" points="95.5,-0.5 95.5,-30.5 271.5,-30.5 271.5,-0.5 95.5,-0.5"/>
<text text-anchor="start" x="103.5" y="-18.5" font-family="Helvetica,sans-Serif" font-size="10.00">itk::simple::CompositeTransform</text>
<text text-anchor="middle" x="183.5" y="-7.5" font-family="Helvetica,sans-Serif" font-size="10.00">::MyVisitor</text>
</a>
</g>
</g>
<!-- Node2 -->
<g id="node2" class="node">
<title>Node2</title>
<g id="a_node2"><a xlink:href="classitk_1_1simple_1_1CompositeTransform.html" target="_top" xlink:title="This class contains a stack of transforms and concatenates them by composition.">
<polygon fill="white" stroke="black" points="3.5,-84 3.5,-103 179.5,-103 179.5,-84 3.5,-84"/>
<text text-anchor="middle" x="91.5" y="-91" font-family="Helvetica,sans-Serif" font-size="10.00">itk::simple::CompositeTransform</text>
</a>
</g>
</g>
<!-- Node2&#45;&gt;Node1 -->
<g id="edge1" class="edge">
<title>Node2&#45;&gt;Node1</title>
<path fill="none" stroke="#9a32cd" stroke-dasharray="5,2" d="M109.92,-77.28C126.44,-63.64 150.47,-43.78 166.53,-30.52"/>
<polygon fill="#9a32cd" stroke="#9a32cd" points="107.53,-74.71 102.05,-83.78 111.99,-80.11 107.53,-74.71"/>
<text text-anchor="middle" x="155" y="-52" font-family="Helvetica,sans-Serif" font-size="10.00"> that</text>
</g>
<!-- Node3 -->
<g id="node3" class="node">
<title>Node3</title>
<g id="a_node3"><a xlink:href="classitk_1_1simple_1_1Transform.html" target="_top" xlink:title="A simplified wrapper around a variety of ITK transforms.">
<polygon fill="white" stroke="black" points="30,-146.5 30,-165.5 153,-165.5 153,-146.5 30,-146.5"/>
<text text-anchor="middle" x="91.5" y="-153.5" font-family="Helvetica,sans-Serif" font-size="10.00">itk::simple::Transform</text>
</a>
</g>
</g>
<!-- Node3&#45;&gt;Node2 -->
<g id="edge2" class="edge">
<title>Node3&#45;&gt;Node2</title>
<path fill="none" stroke="midnightblue" d="M91.5,-136C91.5,-125 91.5,-111.68 91.5,-103.15"/>
<polygon fill="midnightblue" stroke="midnightblue" points="88,-136.33 91.5,-146.33 95,-136.33 88,-136.33"/>
</g>
<!-- Node4 -->
<g id="node4" class="node">
<title>Node4</title>
<g id="a_node4"><a xlink:title=" ">
<polygon fill="white" stroke="#bfbfbf" points="0,-213.5 0,-243.5 183,-243.5 183,-213.5 0,-213.5"/>
<text text-anchor="start" x="8" y="-231.5" font-family="Helvetica,sans-Serif" font-size="10.00">std::unique_ptr&lt; PimpleTransform</text>
<text text-anchor="middle" x="91.5" y="-220.5" font-family="Helvetica,sans-Serif" font-size="10.00">Base &gt;</text>
</a>
</g>
</g>
<!-- Node4&#45;&gt;Node3 -->
<g id="edge3" class="edge">
<title>Node4&#45;&gt;Node3</title>
<path fill="none" stroke="#9a32cd" stroke-dasharray="5,2" d="M91.5,-203.09C91.5,-190.21 91.5,-175.2 91.5,-165.89"/>
<polygon fill="#9a32cd" stroke="#9a32cd" points="88,-203.23 91.5,-213.23 95,-203.23 88,-203.23"/>
<text text-anchor="middle" x="142" y="-187" font-family="Helvetica,sans-Serif" font-size="10.00"> m_PimpleTransform</text>
</g>
<!-- Node5 -->
<g id="node5" class="node">
<title>Node5</title>
<g id="a_node5"><a xlink:title="STL class.">
<polygon fill="white" stroke="#bfbfbf" points="32.5,-291.5 32.5,-310.5 150.5,-310.5 150.5,-291.5 32.5,-291.5"/>
<text text-anchor="middle" x="91.5" y="-298.5" font-family="Helvetica,sans-Serif" font-size="10.00">std::unique_ptr&lt; T &gt;</text>
</a>
</g>
</g>
<!-- Node5&#45;&gt;Node4 -->
<g id="edge4" class="edge">
<title>Node5&#45;&gt;Node4</title>
<path fill="none" stroke="orange" stroke-dasharray="5,2" d="M91.5,-281.24C91.5,-269.41 91.5,-254.38 91.5,-243.58"/>
<polygon fill="orange" stroke="orange" points="88,-281.36 91.5,-291.36 95,-281.36 88,-281.36"/>
<text text-anchor="middle" x="158" y="-265" font-family="Helvetica,sans-Serif" font-size="10.00"> &lt; PimpleTransformBase &gt;</text>
</g>
<!-- Node6 -->
<g id="node6" class="node">
<title>Node6</title>
<g id="a_node6"><a xlink:title=" ">
<polygon fill="white" stroke="#bfbfbf" points="77,-358.5 77,-377.5 106,-377.5 106,-358.5 77,-358.5"/>
<text text-anchor="middle" x="91.5" y="-365.5" font-family="Helvetica,sans-Serif" font-size="10.00">T</text>
</a>
</g>
</g>
<!-- Node6&#45;&gt;Node5 -->
<g id="edge5" class="edge">
<title>Node6&#45;&gt;Node5</title>
<path fill="none" stroke="#9a32cd" stroke-dasharray="5,2" d="M91.5,-348.04C91.5,-335.67 91.5,-320.12 91.5,-310.63"/>
<polygon fill="#9a32cd" stroke="#9a32cd" points="88,-348.23 91.5,-358.23 95,-348.23 88,-348.23"/>
<text text-anchor="middle" x="100" y="-332" font-family="Helvetica,sans-Serif" font-size="10.00"> ptr</text>
</g>
<!-- Node7 -->
<g id="node7" class="node">
<title>Node7</title>
<g id="a_node7"><a xlink:href="classitk_1_1TransformBaseTemplate.html" target="_top" xlink:title=" ">
<polygon fill="white" stroke="black" points="198,-78.5 198,-108.5 351,-108.5 351,-78.5 198,-78.5"/>
<text text-anchor="start" x="206" y="-96.5" font-family="Helvetica,sans-Serif" font-size="10.00">itk::TransformBaseTemplate</text>
<text text-anchor="middle" x="274.5" y="-85.5" font-family="Helvetica,sans-Serif" font-size="10.00">&lt; TScalar &gt;</text>
</a>
</g>
</g>
<!-- Node7&#45;&gt;Node1 -->
<g id="edge6" class="edge">
<title>Node7&#45;&gt;Node1</title>
<path fill="none" stroke="#9a32cd" stroke-dasharray="5,2" d="M249.66,-71.75C234.07,-58.73 214.37,-42.28 200.54,-30.73"/>
<polygon fill="#9a32cd" stroke="#9a32cd" points="247.46,-74.48 257.38,-78.2 251.95,-69.11 247.46,-74.48"/>
<text text-anchor="middle" x="259.5" y="-52" font-family="Helvetica,sans-Serif" font-size="10.00"> transform</text>
</g>
</g>
</svg>
